%TF.GenerationSoftware,KiCad,Pcbnew,9.0.0-rc1*%
%TF.CreationDate,2025-02-06T15:19:43-05:00*%
%TF.ProjectId,ephys-test-module-64,65706879-732d-4746-9573-742d6d6f6475,A*%
%TF.SameCoordinates,Original*%
%TF.FileFunction,Copper,L1,Top*%
%TF.FilePolarity,Positive*%
%FSLAX46Y46*%
G04 Gerber Fmt 4.6, Leading zero omitted, Abs format (unit mm)*
G04 Created by KiCad (PCBNEW 9.0.0-rc1) date 2025-02-06 15:19:43*
%MOMM*%
%LPD*%
G01*
G04 APERTURE LIST*
G04 Aperture macros list*
%AMRoundRect*
0 Rectangle with rounded corners*
0 $1 Rounding radius*
0 $2 $3 $4 $5 $6 $7 $8 $9 X,Y pos of 4 corners*
0 Add a 4 corners polygon primitive as box body*
4,1,4,$2,$3,$4,$5,$6,$7,$8,$9,$2,$3,0*
0 Add four circle primitives for the rounded corners*
1,1,$1+$1,$2,$3*
1,1,$1+$1,$4,$5*
1,1,$1+$1,$6,$7*
1,1,$1+$1,$8,$9*
0 Add four rect primitives between the rounded corners*
20,1,$1+$1,$2,$3,$4,$5,0*
20,1,$1+$1,$4,$5,$6,$7,0*
20,1,$1+$1,$6,$7,$8,$9,0*
20,1,$1+$1,$8,$9,$2,$3,0*%
G04 Aperture macros list end*
%TA.AperFunction,ComponentPad*%
%ADD10C,2.800000*%
%TD*%
%TA.AperFunction,SMDPad,CuDef*%
%ADD11R,1.000000X2.510000*%
%TD*%
%TA.AperFunction,SMDPad,CuDef*%
%ADD12RoundRect,0.135000X0.185000X-0.135000X0.185000X0.135000X-0.185000X0.135000X-0.185000X-0.135000X0*%
%TD*%
%TA.AperFunction,SMDPad,CuDef*%
%ADD13RoundRect,0.135000X0.135000X0.185000X-0.135000X0.185000X-0.135000X-0.185000X0.135000X-0.185000X0*%
%TD*%
%TA.AperFunction,ComponentPad*%
%ADD14RoundRect,0.200000X-0.282843X0.000000X0.000000X-0.282843X0.282843X0.000000X0.000000X0.282843X0*%
%TD*%
%TA.AperFunction,ComponentPad*%
%ADD15C,0.800000*%
%TD*%
%TA.AperFunction,SMDPad,CuDef*%
%ADD16RoundRect,0.010000X0.340000X-0.090000X0.340000X0.090000X-0.340000X0.090000X-0.340000X-0.090000X0*%
%TD*%
%TA.AperFunction,SMDPad,CuDef*%
%ADD17R,3.150000X1.000000*%
%TD*%
%TA.AperFunction,SMDPad,CuDef*%
%ADD18RoundRect,0.150000X0.825000X0.150000X-0.825000X0.150000X-0.825000X-0.150000X0.825000X-0.150000X0*%
%TD*%
%TA.AperFunction,ComponentPad*%
%ADD19RoundRect,0.275000X0.388909X0.000000X0.000000X0.388909X-0.388909X0.000000X0.000000X-0.388909X0*%
%TD*%
%TA.AperFunction,ComponentPad*%
%ADD20C,1.100000*%
%TD*%
%TA.AperFunction,SMDPad,CuDef*%
%ADD21RoundRect,0.140000X-0.140000X-0.170000X0.140000X-0.170000X0.140000X0.170000X-0.140000X0.170000X0*%
%TD*%
%TA.AperFunction,ViaPad*%
%ADD22C,0.400000*%
%TD*%
%TA.AperFunction,Conductor*%
%ADD23C,0.400000*%
%TD*%
%TA.AperFunction,Conductor*%
%ADD24C,0.150000*%
%TD*%
G04 APERTURE END LIST*
D10*
%TO.P,TP1,1,1*%
%TO.N,/Headstage Interface/E_{stim}*%
X153000000Y-135000000D03*
%TD*%
D11*
%TO.P,JP1,1,A*%
%TO.N,/Headstage Interface/REF*%
X162970000Y-119345000D03*
%TO.P,JP1,2,B*%
%TO.N,GND*%
X160430000Y-122655000D03*
%TD*%
D10*
%TO.P,TP2,1,1*%
%TO.N,GND*%
X163000000Y-135000000D03*
%TD*%
D12*
%TO.P,R3,1*%
%TO.N,VCC*%
X130900000Y-124110000D03*
%TO.P,R3,2*%
%TO.N,/Test Signal Interface/SCL*%
X130900000Y-123090000D03*
%TD*%
D10*
%TO.P,TP4,1,1*%
%TO.N,GND*%
X163000000Y-79000000D03*
%TD*%
D13*
%TO.P,R4,1*%
%TO.N,/Headstage Interface/E_{stim}*%
X154020000Y-111600000D03*
%TO.P,R4,2*%
%TO.N,GND*%
X153000000Y-111600000D03*
%TD*%
D14*
%TO.P,LD1,1,A*%
%TO.N,/Headstage Interface/A*%
X153000000Y-85300000D03*
D15*
%TO.P,LD1,2,NC*%
%TO.N,unconnected-(LD1-NC-Pad2)*%
X152300000Y-86000000D03*
%TO.P,LD1,3,C*%
%TO.N,/Headstage Interface/K_{0}*%
X153000000Y-86700000D03*
%TD*%
D16*
%TO.P,J1,1,Pin_1*%
%TO.N,/Headstage Interface/E_{stim}*%
X156460000Y-108800000D03*
%TO.P,J1,2,Pin_2*%
%TO.N,GND*%
X159540000Y-108800000D03*
%TO.P,J1,3,Pin_3*%
%TO.N,/Headstage Interface/B7.E_{7}*%
X156460000Y-108400000D03*
%TO.P,J1,4,Pin_4*%
%TO.N,/Headstage Interface/REF*%
X159540000Y-108400000D03*
%TO.P,J1,5,Pin_5*%
%TO.N,/Headstage Interface/B7.E_{6}*%
X156460000Y-108000000D03*
%TO.P,J1,6,Pin_6*%
%TO.N,/Headstage Interface/B11.E_{7}*%
X159540000Y-108000000D03*
%TO.P,J1,7,Pin_7*%
%TO.N,/Headstage Interface/B7.E_{5}*%
X156460000Y-107600000D03*
%TO.P,J1,8,Pin_8*%
%TO.N,/Headstage Interface/B11.E_{6}*%
X159540000Y-107600000D03*
%TO.P,J1,9,Pin_9*%
%TO.N,/Headstage Interface/B7.E_{4}*%
X156460000Y-107200000D03*
%TO.P,J1,10,Pin_10*%
%TO.N,/Headstage Interface/B11.E_{5}*%
X159540000Y-107200000D03*
%TO.P,J1,11,Pin_11*%
%TO.N,/Headstage Interface/B7.E_{3}*%
X156460000Y-106800000D03*
%TO.P,J1,12,Pin_12*%
%TO.N,/Headstage Interface/B11.E_{4}*%
X159540000Y-106800000D03*
%TO.P,J1,13,Pin_13*%
%TO.N,/Headstage Interface/B7.E_{2}*%
X156460000Y-106400000D03*
%TO.P,J1,14,Pin_14*%
%TO.N,/Headstage Interface/B11.E_{3}*%
X159540000Y-106400000D03*
%TO.P,J1,15,Pin_15*%
%TO.N,/Headstage Interface/B7.E_{1}*%
X156460000Y-106000000D03*
%TO.P,J1,16,Pin_16*%
%TO.N,/Headstage Interface/B11.E_{2}*%
X159540000Y-106000000D03*
%TO.P,J1,17,Pin_17*%
%TO.N,/Headstage Interface/B7.E_{0}*%
X156460000Y-105600000D03*
%TO.P,J1,18,Pin_18*%
%TO.N,/Headstage Interface/B11.E_{1}*%
X159540000Y-105600000D03*
%TO.P,J1,19,Pin_19*%
%TO.N,/Headstage Interface/B6.E_{7}*%
X156460000Y-105200000D03*
%TO.P,J1,20,Pin_20*%
%TO.N,/Headstage Interface/B11.E_{0}*%
X159540000Y-105200000D03*
%TO.P,J1,21,Pin_21*%
%TO.N,/Headstage Interface/B6.E_{6}*%
X156460000Y-104800000D03*
%TO.P,J1,22,Pin_22*%
%TO.N,/Headstage Interface/B10.E_{7}*%
X159540000Y-104800000D03*
%TO.P,J1,23,Pin_23*%
%TO.N,/Headstage Interface/B6.E_{5}*%
X156460000Y-104400000D03*
%TO.P,J1,24,Pin_24*%
%TO.N,/Headstage Interface/B10.E_{6}*%
X159540000Y-104400000D03*
%TO.P,J1,25,Pin_25*%
%TO.N,/Headstage Interface/B6.E_{4}*%
X156460000Y-104000000D03*
%TO.P,J1,26,Pin_26*%
%TO.N,/Headstage Interface/B10.E_{5}*%
X159540000Y-104000000D03*
%TO.P,J1,27,Pin_27*%
%TO.N,/Headstage Interface/B6.E_{3}*%
X156460000Y-103600000D03*
%TO.P,J1,28,Pin_28*%
%TO.N,/Headstage Interface/B10.E_{4}*%
X159540000Y-103600000D03*
%TO.P,J1,29,Pin_29*%
%TO.N,/Headstage Interface/B6.E_{2}*%
X156460000Y-103200000D03*
%TO.P,J1,30,Pin_30*%
%TO.N,/Headstage Interface/B10.E_{3}*%
X159540000Y-103200000D03*
%TO.P,J1,31,Pin_31*%
%TO.N,/Headstage Interface/B6.E_{1}*%
X156460000Y-102800000D03*
%TO.P,J1,32,Pin_32*%
%TO.N,/Headstage Interface/B10.E_{2}*%
X159540000Y-102800000D03*
%TO.P,J1,33,Pin_33*%
%TO.N,/Headstage Interface/B6.E_{0}*%
X156460000Y-102400000D03*
%TO.P,J1,34,Pin_34*%
%TO.N,/Headstage Interface/B10.E_{1}*%
X159540000Y-102400000D03*
%TO.P,J1,35,Pin_35*%
%TO.N,/Headstage Interface/B5.E_{7}*%
X156460000Y-102000000D03*
%TO.P,J1,36,Pin_36*%
%TO.N,/Headstage Interface/B10.E_{0}*%
X159540000Y-102000000D03*
%TO.P,J1,37,Pin_37*%
%TO.N,/Headstage Interface/B5.E_{6}*%
X156460000Y-101600000D03*
%TO.P,J1,38,Pin_38*%
%TO.N,/Headstage Interface/B9.E_{7}*%
X159540000Y-101600000D03*
%TO.P,J1,39,Pin_39*%
%TO.N,/Headstage Interface/B5.E_{5}*%
X156460000Y-101200000D03*
%TO.P,J1,40,Pin_40*%
%TO.N,/Headstage Interface/B9.E_{6}*%
X159540000Y-101200000D03*
%TO.P,J1,41,Pin_41*%
%TO.N,/Headstage Interface/B5.E_{4}*%
X156460000Y-100800000D03*
%TO.P,J1,42,Pin_42*%
%TO.N,/Headstage Interface/B9.E_{5}*%
X159540000Y-100800000D03*
%TO.P,J1,43,Pin_43*%
%TO.N,/Headstage Interface/B5.E_{3}*%
X156460000Y-100400000D03*
%TO.P,J1,44,Pin_44*%
%TO.N,/Headstage Interface/B9.E_{4}*%
X159540000Y-100400000D03*
%TO.P,J1,45,Pin_45*%
%TO.N,/Headstage Interface/B5.E_{2}*%
X156460000Y-100000000D03*
%TO.P,J1,46,Pin_46*%
%TO.N,/Headstage Interface/B9.E_{3}*%
X159540000Y-100000000D03*
%TO.P,J1,47,Pin_47*%
%TO.N,/Headstage Interface/B5.E_{1}*%
X156460000Y-99600000D03*
%TO.P,J1,48,Pin_48*%
%TO.N,/Headstage Interface/B9.E_{2}*%
X159540000Y-99600000D03*
%TO.P,J1,49,Pin_49*%
%TO.N,/Headstage Interface/B5.E_{0}*%
X156460000Y-99200000D03*
%TO.P,J1,50,Pin_50*%
%TO.N,/Headstage Interface/B9.E_{1}*%
X159540000Y-99200000D03*
%TO.P,J1,51,Pin_51*%
%TO.N,/Headstage Interface/B4.E_{7}*%
X156460000Y-98800000D03*
%TO.P,J1,52,Pin_52*%
%TO.N,/Headstage Interface/B9.E_{0}*%
X159540000Y-98800000D03*
%TO.P,J1,53,Pin_53*%
%TO.N,/Headstage Interface/B4.E_{6}*%
X156460000Y-98400000D03*
%TO.P,J1,54,Pin_54*%
%TO.N,/Headstage Interface/B8.E_{7}*%
X159540000Y-98400000D03*
%TO.P,J1,55,Pin_55*%
%TO.N,/Headstage Interface/B4.E_{5}*%
X156460000Y-98000000D03*
%TO.P,J1,56,Pin_56*%
%TO.N,/Headstage Interface/B8.E_{6}*%
X159540000Y-98000000D03*
%TO.P,J1,57,Pin_57*%
%TO.N,/Headstage Interface/B4.E_{4}*%
X156460000Y-97600000D03*
%TO.P,J1,58,Pin_58*%
%TO.N,/Headstage Interface/B8.E_{5}*%
X159540000Y-97600000D03*
%TO.P,J1,59,Pin_59*%
%TO.N,/Headstage Interface/B4.E_{3}*%
X156460000Y-97200000D03*
%TO.P,J1,60,Pin_60*%
%TO.N,/Headstage Interface/B8.E_{4}*%
X159540000Y-97200000D03*
%TO.P,J1,61,Pin_61*%
%TO.N,/Headstage Interface/B4.E_{2}*%
X156460000Y-96800000D03*
%TO.P,J1,62,Pin_62*%
%TO.N,/Headstage Interface/B8.E_{3}*%
X159540000Y-96800000D03*
%TO.P,J1,63,Pin_63*%
%TO.N,/Headstage Interface/B4.E_{1}*%
X156460000Y-96400000D03*
%TO.P,J1,64,Pin_64*%
%TO.N,/Headstage Interface/B8.E_{2}*%
X159540000Y-96400000D03*
%TO.P,J1,65,Pin_65*%
%TO.N,/Headstage Interface/B4.E_{0}*%
X156460000Y-96000000D03*
%TO.P,J1,66,Pin_66*%
%TO.N,/Headstage Interface/B8.E_{1}*%
X159540000Y-96000000D03*
%TO.P,J1,67,Pin_67*%
%TO.N,/Headstage Interface/K_{0}*%
X156460000Y-95600000D03*
%TO.P,J1,68,Pin_68*%
%TO.N,/Headstage Interface/B8.E_{0}*%
X159540000Y-95600000D03*
%TO.P,J1,69,Pin_69*%
%TO.N,/Headstage Interface/K_{1}*%
X156460000Y-95200000D03*
%TO.P,J1,70,Pin_70*%
%TO.N,/Headstage Interface/A*%
X159540000Y-95200000D03*
%TD*%
D17*
%TO.P,J4,1,Pin_1*%
%TO.N,GND*%
X117275000Y-121760000D03*
%TO.P,J4,2,Pin_2*%
%TO.N,/Test Signal Interface/SDA*%
X122325000Y-121760000D03*
%TO.P,J4,3,Pin_3*%
%TO.N,GND*%
X117275000Y-124300000D03*
%TO.P,J4,4,Pin_4*%
%TO.N,/Test Signal Interface/SCL*%
X122325000Y-124300000D03*
%TO.P,J4,5,Pin_5*%
%TO.N,GND*%
X117275000Y-126840000D03*
%TO.P,J4,6,Pin_6*%
%TO.N,Net-(J4-Pin_6)*%
X122325000Y-126840000D03*
%TD*%
D12*
%TO.P,R1,1*%
%TO.N,VCC*%
X132000000Y-125410000D03*
%TO.P,R1,2*%
%TO.N,Net-(J4-Pin_6)*%
X132000000Y-124390000D03*
%TD*%
D18*
%TO.P,U1,1,A0*%
%TO.N,GND*%
X139075000Y-125505000D03*
%TO.P,U1,2,A1*%
X139075000Y-124235000D03*
%TO.P,U1,3,A2*%
X139075000Y-122965000D03*
%TO.P,U1,4,GND*%
X139075000Y-121695000D03*
%TO.P,U1,5,SDA*%
%TO.N,/Test Signal Interface/SDA*%
X134125000Y-121695000D03*
%TO.P,U1,6,SCL*%
%TO.N,/Test Signal Interface/SCL*%
X134125000Y-122965000D03*
%TO.P,U1,7,WP*%
%TO.N,Net-(J4-Pin_6)*%
X134125000Y-124235000D03*
%TO.P,U1,8,VCC*%
%TO.N,VCC*%
X134125000Y-125505000D03*
%TD*%
D12*
%TO.P,R2,1*%
%TO.N,VCC*%
X129700000Y-122710000D03*
%TO.P,R2,2*%
%TO.N,/Test Signal Interface/SDA*%
X129700000Y-121690000D03*
%TD*%
D19*
%TO.P,LD2,1,A*%
%TO.N,/Headstage Interface/A*%
X163000000Y-87000000D03*
D20*
%TO.P,LD2,2,NC*%
%TO.N,unconnected-(LD2-NC-Pad2)*%
X164000000Y-86000000D03*
%TO.P,LD2,3,C*%
%TO.N,/Headstage Interface/K_{1}*%
X163000000Y-85000000D03*
%TD*%
D21*
%TO.P,C1,1*%
%TO.N,VCC*%
X136120000Y-127100000D03*
%TO.P,C1,2*%
%TO.N,GND*%
X137080000Y-127100000D03*
%TD*%
D10*
%TO.P,TP3,1,1*%
%TO.N,/Headstage Interface/A*%
X153000000Y-79000000D03*
%TD*%
D22*
%TO.N,GND*%
X157900000Y-95700000D03*
X203200000Y-129600000D03*
X175500000Y-99600000D03*
X113500000Y-81700000D03*
X128900000Y-99600000D03*
X113269807Y-112500000D03*
X153400000Y-91900000D03*
X133600000Y-117000000D03*
X161400000Y-132300000D03*
X187500000Y-92500000D03*
X135000000Y-80800000D03*
X166800000Y-111700000D03*
X148400000Y-81100000D03*
X113800000Y-133900000D03*
X138700000Y-106800000D03*
X187200000Y-99600000D03*
X179700000Y-132600000D03*
X203200000Y-107500000D03*
X141400000Y-92500000D03*
X152000000Y-122200000D03*
X175300000Y-106800000D03*
X187500000Y-106800000D03*
X140100000Y-99600000D03*
X128900000Y-133600000D03*
X113100000Y-94400000D03*
X158000000Y-106300000D03*
X159400000Y-113200000D03*
X203000000Y-80900000D03*
X174500000Y-92400000D03*
X190000000Y-131800000D03*
X148100000Y-112900000D03*
X184300000Y-116500000D03*
X202900000Y-91100000D03*
X129000000Y-107000000D03*
X129000000Y-92400000D03*
X184900000Y-80200000D03*
X174067445Y-80221652D03*
X161900000Y-92500000D03*
X141900000Y-133000000D03*
%TO.N,VCC*%
X131900000Y-126000000D03*
X129250000Y-123350000D03*
X135100000Y-127100000D03*
X134600000Y-127100000D03*
X130500000Y-124600000D03*
%TO.N,/Headstage Interface/B7.E_{7}*%
X154500000Y-108400000D03*
%TO.N,/Headstage Interface/B5.E_{0}*%
X155200000Y-99200000D03*
%TO.N,/Headstage Interface/B5.E_{2}*%
X155200000Y-100000000D03*
%TO.N,/Headstage Interface/B7.E_{3}*%
X154500000Y-106800000D03*
%TO.N,/Headstage Interface/B7.E_{1}*%
X154500000Y-106000000D03*
%TO.N,/Headstage Interface/B5.E_{5}*%
X154500000Y-101200000D03*
%TO.N,/Headstage Interface/B4.E_{7}*%
X154500000Y-98800000D03*
%TO.N,/Headstage Interface/B4.E_{5}*%
X154500000Y-98000000D03*
%TO.N,/Headstage Interface/B4.E_{2}*%
X155200000Y-96800000D03*
%TO.N,/Headstage Interface/B6.E_{2}*%
X155200000Y-103200000D03*
%TO.N,/Headstage Interface/B4.E_{3}*%
X154500000Y-97200000D03*
%TO.N,/Headstage Interface/B7.E_{5}*%
X154500000Y-107600000D03*
%TO.N,/Headstage Interface/B7.E_{0}*%
X155200000Y-105600000D03*
%TO.N,/Headstage Interface/B7.E_{4}*%
X155200000Y-107200000D03*
%TO.N,/Headstage Interface/B4.E_{6}*%
X155200000Y-98400000D03*
%TO.N,/Headstage Interface/B6.E_{5}*%
X154500000Y-104400000D03*
%TO.N,/Headstage Interface/B7.E_{6}*%
X155200000Y-108000000D03*
%TO.N,/Headstage Interface/B7.E_{2}*%
X155200000Y-106400000D03*
%TO.N,/Headstage Interface/B5.E_{7}*%
X154500000Y-102000000D03*
%TO.N,/Headstage Interface/B6.E_{7}*%
X154500000Y-105200000D03*
%TO.N,/Headstage Interface/B6.E_{0}*%
X155200000Y-102400000D03*
%TO.N,/Headstage Interface/B5.E_{1}*%
X154500000Y-99600000D03*
%TO.N,/Headstage Interface/B4.E_{4}*%
X155200000Y-97600000D03*
%TO.N,/Headstage Interface/B4.E_{0}*%
X155200000Y-96000000D03*
%TO.N,/Headstage Interface/B6.E_{6}*%
X155200000Y-104800000D03*
%TO.N,/Headstage Interface/B6.E_{1}*%
X154500000Y-102800000D03*
%TO.N,/Headstage Interface/B5.E_{6}*%
X155200000Y-101600000D03*
%TO.N,/Headstage Interface/B6.E_{4}*%
X155200000Y-104000000D03*
%TO.N,/Headstage Interface/B5.E_{4}*%
X155200000Y-100800000D03*
%TO.N,/Headstage Interface/B5.E_{3}*%
X154500000Y-100400000D03*
%TO.N,/Headstage Interface/B4.E_{1}*%
X154500000Y-96400000D03*
%TO.N,/Headstage Interface/B6.E_{3}*%
X154500000Y-103600000D03*
%TO.N,/Headstage Interface/B8.E_{2}*%
X160800000Y-96400000D03*
%TO.N,/Test Signal Interface/SDA*%
X127700000Y-115600000D03*
%TO.N,/Headstage Interface/B10.E_{4}*%
X160800000Y-103600000D03*
%TO.N,/Headstage Interface/B8.E_{7}*%
X161500000Y-98400000D03*
%TO.N,/Test Signal Interface/SCL*%
X127700000Y-114800000D03*
X130900000Y-121200000D03*
X130900000Y-122300000D03*
%TO.N,/Headstage Interface/B8.E_{3}*%
X161500000Y-96800000D03*
%TO.N,/Headstage Interface/B11.E_{5}*%
X161500000Y-107200000D03*
%TO.N,/Headstage Interface/B8.E_{4}*%
X160800000Y-97200000D03*
%TO.N,/Headstage Interface/B9.E_{1}*%
X161500000Y-99200000D03*
%TO.N,/Headstage Interface/B8.E_{0}*%
X160800000Y-95600000D03*
%TO.N,/Headstage Interface/B9.E_{0}*%
X160800000Y-98800000D03*
%TO.N,/Headstage Interface/B9.E_{5}*%
X161500000Y-100800000D03*
%TO.N,/Headstage Interface/B10.E_{3}*%
X161500000Y-103200000D03*
%TO.N,/Headstage Interface/B11.E_{4}*%
X160800000Y-106800000D03*
%TO.N,/Headstage Interface/B10.E_{1}*%
X161500000Y-102400000D03*
%TO.N,/Headstage Interface/B10.E_{2}*%
X160800000Y-102800000D03*
%TO.N,/Headstage Interface/B10.E_{7}*%
X161500000Y-104800000D03*
%TO.N,/Headstage Interface/B9.E_{3}*%
X161500000Y-100000000D03*
%TO.N,/Headstage Interface/B9.E_{4}*%
X160800000Y-100400000D03*
%TO.N,/Headstage Interface/B11.E_{0}*%
X160800000Y-105200000D03*
%TO.N,/Headstage Interface/B11.E_{6}*%
X160800000Y-107600000D03*
%TO.N,/Headstage Interface/B9.E_{6}*%
X160800000Y-101200000D03*
%TO.N,/Headstage Interface/B8.E_{1}*%
X161500000Y-96000000D03*
%TO.N,/Headstage Interface/B11.E_{1}*%
X161500000Y-105600000D03*
%TO.N,/Headstage Interface/B8.E_{6}*%
X160800000Y-98000000D03*
%TO.N,/Headstage Interface/B11.E_{3}*%
X161500000Y-106400000D03*
%TO.N,/Headstage Interface/B9.E_{7}*%
X161500000Y-101600000D03*
%TO.N,/Headstage Interface/B9.E_{2}*%
X160800000Y-99600000D03*
%TO.N,/Headstage Interface/B8.E_{5}*%
X161500000Y-97600000D03*
%TO.N,/Headstage Interface/B11.E_{7}*%
X161500000Y-108000000D03*
%TO.N,/Headstage Interface/B10.E_{6}*%
X160800000Y-104400000D03*
%TO.N,/Headstage Interface/B10.E_{0}*%
X160800000Y-102000000D03*
%TO.N,/Headstage Interface/B10.E_{5}*%
X161500000Y-104000000D03*
%TO.N,/Headstage Interface/B11.E_{2}*%
X160800000Y-106000000D03*
%TD*%
D23*
%TO.N,VCC*%
X136120000Y-127100000D02*
X134600000Y-127100000D01*
D24*
X130900000Y-124200000D02*
X130500000Y-124600000D01*
X132000000Y-125900000D02*
X131900000Y-126000000D01*
X130900000Y-124110000D02*
X130900000Y-124200000D01*
X129700000Y-122710000D02*
X129700000Y-122900000D01*
X132000000Y-125410000D02*
X132000000Y-125900000D01*
D23*
X134600000Y-127100000D02*
X135300000Y-127100000D01*
X135300000Y-127100000D02*
X135100000Y-127100000D01*
D24*
X129700000Y-122900000D02*
X129250000Y-123350000D01*
D23*
X134125000Y-126625000D02*
X134600000Y-127100000D01*
X134125000Y-125505000D02*
X134125000Y-126625000D01*
D24*
%TO.N,/Headstage Interface/B7.E_{7}*%
X156460000Y-108400000D02*
X154500000Y-108400000D01*
%TO.N,/Headstage Interface/B5.E_{0}*%
X156460000Y-99200000D02*
X155200000Y-99200000D01*
%TO.N,/Headstage Interface/B5.E_{2}*%
X156460000Y-100000000D02*
X155200000Y-100000000D01*
%TO.N,/Headstage Interface/B7.E_{3}*%
X156460000Y-106800000D02*
X154500000Y-106800000D01*
%TO.N,/Headstage Interface/B7.E_{1}*%
X156460000Y-106000000D02*
X154500000Y-106000000D01*
%TO.N,/Headstage Interface/B5.E_{5}*%
X156460000Y-101200000D02*
X154500000Y-101200000D01*
%TO.N,/Headstage Interface/B4.E_{7}*%
X156460000Y-98800000D02*
X154500000Y-98800000D01*
D23*
%TO.N,/Headstage Interface/K_{0}*%
X155450000Y-95150000D02*
X154900000Y-94600000D01*
X154900000Y-94600000D02*
X154900000Y-88600000D01*
D24*
X155450000Y-95150000D02*
X155900000Y-95600000D01*
X155900000Y-95600000D02*
X156460000Y-95600000D01*
D23*
X154900000Y-88600000D02*
X153000000Y-86700000D01*
D24*
%TO.N,/Headstage Interface/B4.E_{5}*%
X156460000Y-98000000D02*
X154500000Y-98000000D01*
%TO.N,/Headstage Interface/B4.E_{2}*%
X156460000Y-96800000D02*
X155200000Y-96800000D01*
%TO.N,/Headstage Interface/B6.E_{2}*%
X156460000Y-103200000D02*
X155200000Y-103200000D01*
%TO.N,/Headstage Interface/E_{stim}*%
X153000000Y-131020000D02*
X153000000Y-135000000D01*
D23*
X154020000Y-111600000D02*
X154890000Y-111600000D01*
D24*
X156500000Y-108840000D02*
X156460000Y-108800000D01*
D23*
X156500000Y-109990000D02*
X156500000Y-109500000D01*
X154890000Y-111600000D02*
X156500000Y-109990000D01*
D24*
X156500000Y-109400000D02*
X156500000Y-108840000D01*
X154020000Y-130000000D02*
X153000000Y-131020000D01*
X156500000Y-109400000D02*
X156500000Y-109500000D01*
X154020000Y-111600000D02*
X154020000Y-130000000D01*
%TO.N,/Headstage Interface/B4.E_{3}*%
X156460000Y-97200000D02*
X154500000Y-97200000D01*
%TO.N,/Headstage Interface/B7.E_{5}*%
X156460000Y-107600000D02*
X154500000Y-107600000D01*
%TO.N,/Headstage Interface/B7.E_{0}*%
X156460000Y-105600000D02*
X155200000Y-105600000D01*
%TO.N,/Headstage Interface/B7.E_{4}*%
X156460000Y-107200000D02*
X155200000Y-107200000D01*
%TO.N,/Headstage Interface/B4.E_{6}*%
X156460000Y-98400000D02*
X155200000Y-98400000D01*
%TO.N,/Headstage Interface/B6.E_{5}*%
X156460000Y-104400000D02*
X154500000Y-104400000D01*
%TO.N,/Headstage Interface/B7.E_{6}*%
X156460000Y-108000000D02*
X155200000Y-108000000D01*
%TO.N,/Headstage Interface/K_{1}*%
X156460000Y-95200000D02*
X156460000Y-94500000D01*
D23*
X162800000Y-85000000D02*
X163000000Y-85000000D01*
X156460000Y-91340000D02*
X162800000Y-85000000D01*
X156460000Y-94500000D02*
X156460000Y-91340000D01*
D24*
%TO.N,/Headstage Interface/B7.E_{2}*%
X156460000Y-106400000D02*
X155200000Y-106400000D01*
%TO.N,/Headstage Interface/B5.E_{7}*%
X156460000Y-102000000D02*
X154500000Y-102000000D01*
%TO.N,/Headstage Interface/B6.E_{7}*%
X156460000Y-105200000D02*
X154500000Y-105200000D01*
%TO.N,/Headstage Interface/B6.E_{0}*%
X156460000Y-102400000D02*
X155200000Y-102400000D01*
%TO.N,/Headstage Interface/B5.E_{1}*%
X156460000Y-99600000D02*
X154500000Y-99600000D01*
%TO.N,/Headstage Interface/B4.E_{4}*%
X156460000Y-97600000D02*
X155200000Y-97600000D01*
%TO.N,/Headstage Interface/B4.E_{0}*%
X156460000Y-96000000D02*
X155200000Y-96000000D01*
%TO.N,/Headstage Interface/REF*%
X160800000Y-108400000D02*
X161200000Y-108800000D01*
X159540000Y-108400000D02*
X160800000Y-108400000D01*
D23*
X162970000Y-110570000D02*
X161300000Y-108900000D01*
X161300000Y-108900000D02*
X161200000Y-108800000D01*
X162970000Y-119345000D02*
X162970000Y-110570000D01*
D24*
%TO.N,/Headstage Interface/A*%
X159540000Y-95200000D02*
X159540000Y-94700000D01*
D23*
X159540000Y-94700000D02*
X159540000Y-90560000D01*
X159540000Y-90560000D02*
X163000000Y-87100000D01*
X163000000Y-87100000D02*
X163000000Y-87000000D01*
D24*
%TO.N,/Headstage Interface/B6.E_{6}*%
X156460000Y-104800000D02*
X155200000Y-104800000D01*
%TO.N,/Headstage Interface/B6.E_{1}*%
X156460000Y-102800000D02*
X154500000Y-102800000D01*
%TO.N,/Headstage Interface/B5.E_{6}*%
X156460000Y-101600000D02*
X155200000Y-101600000D01*
%TO.N,/Headstage Interface/B6.E_{4}*%
X156460000Y-104000000D02*
X155200000Y-104000000D01*
%TO.N,/Headstage Interface/B5.E_{4}*%
X156460000Y-100800000D02*
X155200000Y-100800000D01*
%TO.N,/Headstage Interface/B5.E_{3}*%
X156460000Y-100400000D02*
X154500000Y-100400000D01*
%TO.N,/Headstage Interface/B4.E_{1}*%
X156460000Y-96400000D02*
X154500000Y-96400000D01*
%TO.N,/Headstage Interface/B6.E_{3}*%
X156460000Y-103600000D02*
X154500000Y-103600000D01*
%TO.N,/Headstage Interface/B8.E_{2}*%
X159540000Y-96400000D02*
X160800000Y-96400000D01*
%TO.N,/Test Signal Interface/SDA*%
X129700000Y-116200000D02*
X129700000Y-121690000D01*
X134060000Y-121760000D02*
X134125000Y-121695000D01*
X123825000Y-121760000D02*
X134060000Y-121760000D01*
X129100000Y-115600000D02*
X127700000Y-115600000D01*
X129700000Y-116200000D02*
X129100000Y-115600000D01*
%TO.N,/Headstage Interface/B10.E_{4}*%
X159540000Y-103600000D02*
X160800000Y-103600000D01*
%TO.N,/Headstage Interface/B8.E_{7}*%
X159540000Y-98400000D02*
X161500000Y-98400000D01*
%TO.N,/Test Signal Interface/SCL*%
X130900000Y-121200000D02*
X130900000Y-115600000D01*
X127700000Y-114800000D02*
X130100000Y-114800000D01*
X134125000Y-122965000D02*
X131025000Y-122965000D01*
X130810000Y-123090000D02*
X130900000Y-123090000D01*
X130100000Y-114800000D02*
X130900000Y-115600000D01*
X129600000Y-124300000D02*
X130810000Y-123090000D01*
X123825000Y-124300000D02*
X129600000Y-124300000D01*
X130900000Y-122300000D02*
X130900000Y-123090000D01*
X131025000Y-122965000D02*
X130900000Y-123090000D01*
%TO.N,/Headstage Interface/B8.E_{3}*%
X159540000Y-96800000D02*
X161500000Y-96800000D01*
%TO.N,/Headstage Interface/B11.E_{5}*%
X159540000Y-107200000D02*
X161500000Y-107200000D01*
%TO.N,/Headstage Interface/B8.E_{4}*%
X159540000Y-97200000D02*
X160800000Y-97200000D01*
%TO.N,/Headstage Interface/B9.E_{1}*%
X159540000Y-99200000D02*
X161500000Y-99200000D01*
%TO.N,/Headstage Interface/B8.E_{0}*%
X159540000Y-95600000D02*
X160800000Y-95600000D01*
%TO.N,/Headstage Interface/B9.E_{0}*%
X159540000Y-98800000D02*
X160800000Y-98800000D01*
%TO.N,/Headstage Interface/B9.E_{5}*%
X159540000Y-100800000D02*
X161500000Y-100800000D01*
%TO.N,/Headstage Interface/B10.E_{3}*%
X159540000Y-103200000D02*
X161500000Y-103200000D01*
%TO.N,/Headstage Interface/B11.E_{4}*%
X159540000Y-106800000D02*
X160800000Y-106800000D01*
%TO.N,/Headstage Interface/B10.E_{1}*%
X159540000Y-102400000D02*
X161500000Y-102400000D01*
%TO.N,/Headstage Interface/B10.E_{2}*%
X159540000Y-102800000D02*
X160800000Y-102800000D01*
%TO.N,/Headstage Interface/B10.E_{7}*%
X159540000Y-104800000D02*
X161500000Y-104800000D01*
%TO.N,/Headstage Interface/B9.E_{3}*%
X159540000Y-100000000D02*
X161500000Y-100000000D01*
%TO.N,/Headstage Interface/B9.E_{4}*%
X159540000Y-100400000D02*
X160800000Y-100400000D01*
%TO.N,/Headstage Interface/B11.E_{0}*%
X159540000Y-105200000D02*
X160800000Y-105200000D01*
%TO.N,/Headstage Interface/B11.E_{6}*%
X159540000Y-107600000D02*
X160800000Y-107600000D01*
%TO.N,/Headstage Interface/B9.E_{6}*%
X159540000Y-101200000D02*
X160800000Y-101200000D01*
%TO.N,/Headstage Interface/B8.E_{1}*%
X159540000Y-96000000D02*
X161500000Y-96000000D01*
%TO.N,/Headstage Interface/B11.E_{1}*%
X159540000Y-105600000D02*
X161500000Y-105600000D01*
%TO.N,/Headstage Interface/B8.E_{6}*%
X159540000Y-98000000D02*
X160800000Y-98000000D01*
%TO.N,/Headstage Interface/B11.E_{3}*%
X159540000Y-106400000D02*
X161500000Y-106400000D01*
%TO.N,/Headstage Interface/B9.E_{7}*%
X159540000Y-101600000D02*
X161500000Y-101600000D01*
%TO.N,/Headstage Interface/B9.E_{2}*%
X159540000Y-99600000D02*
X160800000Y-99600000D01*
%TO.N,/Headstage Interface/B8.E_{5}*%
X159540000Y-97600000D02*
X161500000Y-97600000D01*
%TO.N,/Headstage Interface/B11.E_{7}*%
X160600000Y-108000000D02*
X159540000Y-108000000D01*
X161500000Y-108000000D02*
X160500000Y-108000000D01*
X160500000Y-108000000D02*
X160600000Y-108000000D01*
%TO.N,/Headstage Interface/B10.E_{6}*%
X159540000Y-104400000D02*
X160800000Y-104400000D01*
%TO.N,/Headstage Interface/B10.E_{0}*%
X159540000Y-102000000D02*
X160800000Y-102000000D01*
%TO.N,/Headstage Interface/B10.E_{5}*%
X159540000Y-104000000D02*
X161500000Y-104000000D01*
%TO.N,/Headstage Interface/B11.E_{2}*%
X159540000Y-106000000D02*
X160800000Y-106000000D01*
%TO.N,Net-(J4-Pin_6)*%
X129550000Y-126840000D02*
X123825000Y-126840000D01*
X132000000Y-124390000D02*
X129550000Y-126840000D01*
X132155000Y-124235000D02*
X132000000Y-124390000D01*
X134125000Y-124235000D02*
X132155000Y-124235000D01*
%TD*%
%TA.AperFunction,Conductor*%
%TO.N,GND*%
G36*
X162180450Y-77172174D02*
G01*
X162202124Y-77224500D01*
X162180450Y-77276826D01*
X162159750Y-77290656D01*
X162160024Y-77291212D01*
X162157848Y-77292284D01*
X161942154Y-77416815D01*
X161942148Y-77416819D01*
X161844953Y-77491399D01*
X162714243Y-78360690D01*
X162668426Y-78379668D01*
X162553776Y-78456274D01*
X162456274Y-78553776D01*
X162379668Y-78668426D01*
X162360690Y-78714243D01*
X161491399Y-77844953D01*
X161416819Y-77942148D01*
X161416815Y-77942154D01*
X161292284Y-78157848D01*
X161292281Y-78157856D01*
X161196973Y-78387951D01*
X161196969Y-78387962D01*
X161132507Y-78628539D01*
X161100000Y-78875468D01*
X161100000Y-79124531D01*
X161132507Y-79371460D01*
X161196969Y-79612037D01*
X161196973Y-79612048D01*
X161292281Y-79842143D01*
X161292284Y-79842151D01*
X161416815Y-80057845D01*
X161416819Y-80057851D01*
X161491399Y-80155045D01*
X162360689Y-79285755D01*
X162379668Y-79331574D01*
X162456274Y-79446224D01*
X162553776Y-79543726D01*
X162668426Y-79620332D01*
X162714242Y-79639309D01*
X161844953Y-80508599D01*
X161942151Y-80583182D01*
X162157848Y-80707715D01*
X162157856Y-80707718D01*
X162387951Y-80803026D01*
X162387962Y-80803030D01*
X162628540Y-80867492D01*
X162628539Y-80867492D01*
X162875469Y-80900000D01*
X163124531Y-80900000D01*
X163371460Y-80867492D01*
X163612037Y-80803030D01*
X163612048Y-80803026D01*
X163842143Y-80707718D01*
X163842151Y-80707715D01*
X164057848Y-80583182D01*
X164155045Y-80508599D01*
X163285756Y-79639309D01*
X163331574Y-79620332D01*
X163446224Y-79543726D01*
X163543726Y-79446224D01*
X163620332Y-79331574D01*
X163639310Y-79285756D01*
X164508599Y-80155045D01*
X164583182Y-80057848D01*
X164707715Y-79842151D01*
X164707718Y-79842143D01*
X164803026Y-79612048D01*
X164803030Y-79612037D01*
X164867492Y-79371460D01*
X164900000Y-79124531D01*
X164900000Y-78875468D01*
X164867492Y-78628539D01*
X164803030Y-78387962D01*
X164803026Y-78387951D01*
X164707718Y-78157856D01*
X164707715Y-78157848D01*
X164583182Y-77942151D01*
X164508599Y-77844953D01*
X163639309Y-78714242D01*
X163620332Y-78668426D01*
X163543726Y-78553776D01*
X163446224Y-78456274D01*
X163331574Y-78379668D01*
X163285755Y-78360689D01*
X164155045Y-77491399D01*
X164057851Y-77416819D01*
X164057845Y-77416815D01*
X163842151Y-77292284D01*
X163839976Y-77291212D01*
X163840612Y-77289920D01*
X163803510Y-77252821D01*
X163803508Y-77196184D01*
X163843555Y-77156134D01*
X163871876Y-77150500D01*
X204965649Y-77150500D01*
X204997917Y-77150500D01*
X205002065Y-77150615D01*
X205314905Y-77168184D01*
X205323141Y-77169113D01*
X205629975Y-77221246D01*
X205638058Y-77223091D01*
X205937147Y-77309256D01*
X205944960Y-77311990D01*
X206232511Y-77431098D01*
X206239987Y-77434698D01*
X206512398Y-77585254D01*
X206519412Y-77589662D01*
X206772451Y-77769203D01*
X206773239Y-77769762D01*
X206779726Y-77774934D01*
X207011807Y-77982334D01*
X207017665Y-77988192D01*
X207169279Y-78157848D01*
X207225064Y-78220272D01*
X207230237Y-78226760D01*
X207410333Y-78480581D01*
X207414749Y-78487608D01*
X207565301Y-78760012D01*
X207568901Y-78767488D01*
X207688005Y-79055029D01*
X207690746Y-79062862D01*
X207776907Y-79361937D01*
X207778753Y-79370027D01*
X207830885Y-79676852D01*
X207831815Y-79685099D01*
X207849384Y-79997934D01*
X207849500Y-80002083D01*
X207849500Y-133997916D01*
X207849384Y-134002065D01*
X207831815Y-134314900D01*
X207830885Y-134323147D01*
X207778753Y-134629972D01*
X207776907Y-134638062D01*
X207690746Y-134937137D01*
X207688005Y-134944970D01*
X207568901Y-135232511D01*
X207565301Y-135239987D01*
X207414749Y-135512391D01*
X207410333Y-135519418D01*
X207230237Y-135773239D01*
X207225064Y-135779727D01*
X207017670Y-136011802D01*
X207011802Y-136017670D01*
X206779727Y-136225064D01*
X206773239Y-136230237D01*
X206519418Y-136410333D01*
X206512391Y-136414749D01*
X206239987Y-136565301D01*
X206232511Y-136568901D01*
X205944970Y-136688005D01*
X205937137Y-136690746D01*
X205638062Y-136776907D01*
X205629972Y-136778753D01*
X205323147Y-136830885D01*
X205314900Y-136831815D01*
X205002066Y-136849384D01*
X204997917Y-136849500D01*
X163871876Y-136849500D01*
X163819550Y-136827826D01*
X163797876Y-136775500D01*
X163819550Y-136723174D01*
X163840249Y-136709343D01*
X163839976Y-136708788D01*
X163842151Y-136707715D01*
X164057848Y-136583182D01*
X164155045Y-136508599D01*
X163285756Y-135639309D01*
X163331574Y-135620332D01*
X163446224Y-135543726D01*
X163543726Y-135446224D01*
X163620332Y-135331574D01*
X163639310Y-135285756D01*
X164508599Y-136155045D01*
X164583182Y-136057848D01*
X164707715Y-135842151D01*
X164707718Y-135842143D01*
X164803026Y-135612048D01*
X164803030Y-135612037D01*
X164867492Y-135371460D01*
X164900000Y-135124531D01*
X164900000Y-134875468D01*
X164867492Y-134628539D01*
X164803030Y-134387962D01*
X164803026Y-134387951D01*
X164707718Y-134157856D01*
X164707715Y-134157848D01*
X164583182Y-133942151D01*
X164508599Y-133844953D01*
X163639309Y-134714242D01*
X163620332Y-134668426D01*
X163543726Y-134553776D01*
X163446224Y-134456274D01*
X163331574Y-134379668D01*
X163285755Y-134360689D01*
X164155045Y-133491399D01*
X164057851Y-133416819D01*
X164057845Y-133416815D01*
X163842151Y-133292284D01*
X163842143Y-133292281D01*
X163612048Y-133196973D01*
X163612037Y-133196969D01*
X163371459Y-133132507D01*
X163371460Y-133132507D01*
X163124531Y-133100000D01*
X162875469Y-133100000D01*
X162628539Y-133132507D01*
X162387962Y-133196969D01*
X162387951Y-133196973D01*
X162157856Y-133292281D01*
X162157848Y-133292284D01*
X161942154Y-133416815D01*
X161942148Y-133416819D01*
X161844953Y-133491399D01*
X162714243Y-134360690D01*
X162668426Y-134379668D01*
X162553776Y-134456274D01*
X162456274Y-134553776D01*
X162379668Y-134668426D01*
X162360690Y-134714243D01*
X161491399Y-133844953D01*
X161416819Y-133942148D01*
X161416815Y-133942154D01*
X161292284Y-134157848D01*
X161292281Y-134157856D01*
X161196973Y-134387951D01*
X161196969Y-134387962D01*
X161132507Y-134628539D01*
X161100000Y-134875468D01*
X161100000Y-135124531D01*
X161132507Y-135371460D01*
X161196969Y-135612037D01*
X161196973Y-135612048D01*
X161292281Y-135842143D01*
X161292284Y-135842151D01*
X161416815Y-136057845D01*
X161416819Y-136057851D01*
X161491399Y-136155045D01*
X162360689Y-135285755D01*
X162379668Y-135331574D01*
X162456274Y-135446224D01*
X162553776Y-135543726D01*
X162668426Y-135620332D01*
X162714242Y-135639309D01*
X161844953Y-136508599D01*
X161942151Y-136583182D01*
X162157848Y-136707715D01*
X162160024Y-136708788D01*
X162159387Y-136710079D01*
X162196490Y-136747179D01*
X162196492Y-136803816D01*
X162156445Y-136843866D01*
X162128124Y-136849500D01*
X111002083Y-136849500D01*
X110997934Y-136849384D01*
X110685099Y-136831815D01*
X110676852Y-136830885D01*
X110370027Y-136778753D01*
X110361937Y-136776907D01*
X110062862Y-136690746D01*
X110055029Y-136688005D01*
X109767488Y-136568901D01*
X109760012Y-136565301D01*
X109487608Y-136414749D01*
X109480581Y-136410333D01*
X109422144Y-136368870D01*
X109226760Y-136230237D01*
X109220272Y-136225064D01*
X109202734Y-136209391D01*
X108988192Y-136017665D01*
X108982334Y-136011807D01*
X108774934Y-135779726D01*
X108769762Y-135773239D01*
X108698709Y-135673099D01*
X108589662Y-135519412D01*
X108585254Y-135512398D01*
X108434698Y-135239987D01*
X108431098Y-135232511D01*
X108334788Y-134999999D01*
X108311990Y-134944960D01*
X108309256Y-134937147D01*
X108291074Y-134874036D01*
X151399500Y-134874036D01*
X151399500Y-135125963D01*
X151438909Y-135374782D01*
X151438912Y-135374795D01*
X151516756Y-135614373D01*
X151631129Y-135838845D01*
X151779203Y-136042651D01*
X151779207Y-136042656D01*
X151957344Y-136220793D01*
X151957347Y-136220795D01*
X151957348Y-136220796D01*
X152161154Y-136368870D01*
X152242531Y-136410333D01*
X152385621Y-136483241D01*
X152385623Y-136483241D01*
X152385626Y-136483243D01*
X152625204Y-136561087D01*
X152625210Y-136561088D01*
X152625215Y-136561090D01*
X152749626Y-136580795D01*
X152874036Y-136600500D01*
X152874038Y-136600500D01*
X153125964Y-136600500D01*
X153225491Y-136584736D01*
X153374785Y-136561090D01*
X153374792Y-136561087D01*
X153374795Y-136561087D01*
X153614373Y-136483243D01*
X153614373Y-136483242D01*
X153614379Y-136483241D01*
X153838845Y-136368870D01*
X154042656Y-136220793D01*
X154220793Y-136042656D01*
X154368870Y-135838845D01*
X154483241Y-135614379D01*
X154561090Y-135374785D01*
X154600500Y-135125962D01*
X154600500Y-134874038D01*
X154591391Y-134816529D01*
X154567934Y-134668426D01*
X154561090Y-134625215D01*
X154561088Y-134625210D01*
X154561087Y-134625204D01*
X154483243Y-134385626D01*
X154483241Y-134385623D01*
X154483241Y-134385621D01*
X154370886Y-134165111D01*
X154368870Y-134161154D01*
X154220796Y-133957348D01*
X154220795Y-133957347D01*
X154220793Y-133957344D01*
X154042656Y-133779207D01*
X154042653Y-133779204D01*
X154042651Y-133779203D01*
X153838844Y-133631129D01*
X153750178Y-133585952D01*
X153614373Y-133516756D01*
X153374795Y-133438912D01*
X153374785Y-133438910D01*
X153337922Y-133433071D01*
X153289632Y-133403477D01*
X153275500Y-133359982D01*
X153275500Y-131164766D01*
X153297173Y-131112441D01*
X154253557Y-130156058D01*
X154295500Y-130054800D01*
X154295500Y-129945200D01*
X154295500Y-123957828D01*
X159430000Y-123957828D01*
X159436402Y-124017375D01*
X159436403Y-124017380D01*
X159486645Y-124152087D01*
X159486646Y-124152088D01*
X159572811Y-124267188D01*
X159687911Y-124353353D01*
X159687912Y-124353354D01*
X159822619Y-124403596D01*
X159822624Y-124403597D01*
X159882171Y-124410000D01*
X160180000Y-124410000D01*
X160680000Y-124410000D01*
X160977829Y-124410000D01*
X161037375Y-124403597D01*
X161037380Y-124403596D01*
X161172087Y-124353354D01*
X161172088Y-124353353D01*
X161287188Y-124267188D01*
X161373353Y-124152088D01*
X161373354Y-124152087D01*
X161423596Y-124017380D01*
X161423597Y-124017375D01*
X161430000Y-123957828D01*
X161430000Y-122905000D01*
X160680000Y-122905000D01*
X160680000Y-124410000D01*
X160180000Y-124410000D01*
X160180000Y-122905000D01*
X159430000Y-122905000D01*
X159430000Y-123957828D01*
X154295500Y-123957828D01*
X154295500Y-121352171D01*
X159430000Y-121352171D01*
X159430000Y-122405000D01*
X160180000Y-122405000D01*
X160680000Y-122405000D01*
X161430000Y-122405000D01*
X161430000Y-121352171D01*
X161423597Y-121292624D01*
X161423596Y-121292619D01*
X161373354Y-121157912D01*
X161373353Y-121157911D01*
X161287188Y-121042811D01*
X161172088Y-120956646D01*
X161172087Y-120956645D01*
X161037380Y-120906403D01*
X161037375Y-120906402D01*
X160977829Y-120900000D01*
X160680000Y-120900000D01*
X160680000Y-122405000D01*
X160180000Y-122405000D01*
X160180000Y-120900000D01*
X159882171Y-120900000D01*
X159822624Y-120906402D01*
X159822619Y-120906403D01*
X159687912Y-120956645D01*
X159687911Y-120956646D01*
X159572811Y-121042811D01*
X159486646Y-121157911D01*
X159486645Y-121157912D01*
X159436403Y-121292619D01*
X159436402Y-121292624D01*
X159430000Y-121352171D01*
X154295500Y-121352171D01*
X154295500Y-112136810D01*
X154317174Y-112084484D01*
X154322257Y-112079853D01*
X154329589Y-112073770D01*
X154350404Y-112064065D01*
X154394727Y-112019741D01*
X154397378Y-112017543D01*
X154421398Y-112010119D01*
X154444621Y-112000500D01*
X154942726Y-112000500D01*
X154942727Y-112000500D01*
X155044588Y-111973207D01*
X155135913Y-111920480D01*
X156820480Y-110235913D01*
X156873207Y-110144588D01*
X156900500Y-110042727D01*
X156900500Y-109937273D01*
X156900500Y-109447273D01*
X156900500Y-109447271D01*
X156900499Y-109447270D01*
X156873208Y-109345417D01*
X156873207Y-109345413D01*
X156820480Y-109254087D01*
X156797174Y-109230781D01*
X156775500Y-109178455D01*
X156775500Y-109170227D01*
X156797174Y-109117901D01*
X156835065Y-109097649D01*
X156882131Y-109088288D01*
X156882132Y-109088287D01*
X156882133Y-109088287D01*
X156951762Y-109041762D01*
X156998287Y-108972133D01*
X157004922Y-108938776D01*
X158690000Y-108938776D01*
X158696531Y-108999522D01*
X158696532Y-108999527D01*
X158747779Y-109136928D01*
X158747780Y-109136929D01*
X158835664Y-109254329D01*
X158835670Y-109254335D01*
X158953070Y-109342219D01*
X158953071Y-109342220D01*
X159090472Y-109393467D01*
X159090477Y-109393468D01*
X159151223Y-109400000D01*
X159440000Y-109400000D01*
X159640000Y-109400000D01*
X159928777Y-109400000D01*
X159989522Y-109393468D01*
X159989527Y-109393467D01*
X160126928Y-109342220D01*
X160126929Y-109342219D01*
X160244329Y-109254335D01*
X160244335Y-109254329D01*
X160332219Y-109136929D01*
X160332220Y-109136928D01*
X160383467Y-108999527D01*
X160383468Y-108999522D01*
X160390000Y-108938776D01*
X160390000Y-108900000D01*
X159640000Y-108900000D01*
X159640000Y-109400000D01*
X159440000Y-109400000D01*
X159440000Y-108900000D01*
X158690000Y-108900000D01*
X158690000Y-108938776D01*
X157004922Y-108938776D01*
X157010500Y-108910733D01*
X157010499Y-108789115D01*
X157010499Y-108689272D01*
X157010499Y-108689268D01*
X156998287Y-108627867D01*
X156998286Y-108627866D01*
X156996865Y-108620717D01*
X156998474Y-108620397D01*
X156998474Y-108579602D01*
X156996865Y-108579282D01*
X157001778Y-108554582D01*
X157010500Y-108510733D01*
X157010499Y-108289268D01*
X156998287Y-108227867D01*
X156998286Y-108227866D01*
X156996865Y-108220717D01*
X156998474Y-108220397D01*
X156998474Y-108179602D01*
X156996865Y-108179282D01*
X157001778Y-108154582D01*
X157010500Y-108110733D01*
X157010499Y-107889268D01*
X156998287Y-107827867D01*
X156998286Y-107827866D01*
X156996865Y-107820717D01*
X156998474Y-107820397D01*
X156998474Y-107779602D01*
X156996865Y-107779282D01*
X157001778Y-107754582D01*
X157010500Y-107710733D01*
X157010499Y-107489268D01*
X156998287Y-107427867D01*
X156998286Y-107427866D01*
X156996865Y-107420717D01*
X156998474Y-107420397D01*
X156998474Y-107379602D01*
X156996865Y-107379282D01*
X157001778Y-107354582D01*
X157010500Y-107310733D01*
X157010499Y-107089268D01*
X156998287Y-107027867D01*
X156998286Y-107027866D01*
X156996865Y-107020717D01*
X156998474Y-107020397D01*
X156998474Y-106979602D01*
X156996865Y-106979282D01*
X157001778Y-106954582D01*
X157010500Y-106910733D01*
X157010499Y-106689268D01*
X156998287Y-106627867D01*
X156998286Y-106627866D01*
X156996865Y-106620717D01*
X156998474Y-106620397D01*
X156998474Y-106579602D01*
X156996865Y-106579282D01*
X157001778Y-106554582D01*
X157010500Y-106510733D01*
X157010499Y-106289268D01*
X156998287Y-106227867D01*
X156998286Y-106227866D01*
X156996865Y-106220717D01*
X156998474Y-106220397D01*
X156998474Y-106179602D01*
X156996865Y-106179282D01*
X157001778Y-106154582D01*
X157010500Y-106110733D01*
X157010499Y-105889268D01*
X156998287Y-105827867D01*
X156998286Y-105827866D01*
X156996865Y-105820717D01*
X156998474Y-105820397D01*
X156998474Y-105779602D01*
X156996865Y-105779282D01*
X157001778Y-105754582D01*
X157010500Y-105710733D01*
X157010499Y-105489268D01*
X156998287Y-105427867D01*
X156998286Y-105427866D01*
X156996865Y-105420717D01*
X156998474Y-105420397D01*
X156998474Y-105379602D01*
X156996865Y-105379282D01*
X157001778Y-105354582D01*
X157010500Y-105310733D01*
X157010499Y-105089268D01*
X156998287Y-105027867D01*
X156998286Y-105027866D01*
X156996865Y-105020717D01*
X156998474Y-105020397D01*
X156998474Y-104979602D01*
X156996865Y-104979282D01*
X157001778Y-104954582D01*
X157010500Y-104910733D01*
X157010499Y-104689268D01*
X156998287Y-104627867D01*
X156998286Y-104627866D01*
X156996865Y-104620717D01*
X156998474Y-104620397D01*
X156998474Y-104579602D01*
X156996865Y-104579282D01*
X157001778Y-104554582D01*
X157010500Y-104510733D01*
X157010499Y-104289268D01*
X156998287Y-104227867D01*
X156998286Y-104227866D01*
X156996865Y-104220717D01*
X156998474Y-104220397D01*
X156998474Y-104179602D01*
X156996865Y-104179282D01*
X157001778Y-104154582D01*
X157010500Y-104110733D01*
X157010499Y-103889268D01*
X156998287Y-103827867D01*
X156998286Y-103827866D01*
X156996865Y-103820717D01*
X156998474Y-103820397D01*
X156998474Y-103779602D01*
X156996865Y-103779282D01*
X157001778Y-103754582D01*
X157010500Y-103710733D01*
X157010499Y-103489268D01*
X156998287Y-103427867D01*
X156998286Y-103427866D01*
X156996865Y-103420717D01*
X156998474Y-103420397D01*
X156998474Y-103379602D01*
X156996865Y-103379282D01*
X157001778Y-103354582D01*
X157010500Y-103310733D01*
X157010499Y-103089268D01*
X156998287Y-103027867D01*
X156998286Y-103027866D01*
X156996865Y-103020717D01*
X156998474Y-103020397D01*
X156998474Y-102979602D01*
X156996865Y-102979282D01*
X157001778Y-102954582D01*
X157010500Y-102910733D01*
X157010499Y-102689268D01*
X156998287Y-102627867D01*
X156998286Y-102627866D01*
X156996865Y-102620717D01*
X156998474Y-102620397D01*
X156998474Y-102579602D01*
X156996865Y-102579282D01*
X157001778Y-102554582D01*
X157010500Y-102510733D01*
X157010499Y-102289268D01*
X156998287Y-102227867D01*
X156998286Y-102227866D01*
X156996865Y-102220717D01*
X156998474Y-102220397D01*
X156998474Y-102179602D01*
X156996865Y-102179282D01*
X157001778Y-102154582D01*
X157010500Y-102110733D01*
X157010499Y-101889268D01*
X156998287Y-101827867D01*
X156998286Y-101827866D01*
X156996865Y-101820717D01*
X156998474Y-101820397D01*
X156998474Y-101779602D01*
X156996865Y-101779282D01*
X157001778Y-101754582D01*
X157010500Y-101710733D01*
X157010499Y-101489268D01*
X156998287Y-101427867D01*
X156998286Y-101427866D01*
X156996865Y-101420717D01*
X156998474Y-101420397D01*
X156998474Y-101379602D01*
X156996865Y-101379282D01*
X157001778Y-101354582D01*
X157010500Y-101310733D01*
X157010499Y-101089268D01*
X156998287Y-101027867D01*
X156998286Y-101027866D01*
X156996865Y-101020717D01*
X156998474Y-101020397D01*
X156998474Y-100979602D01*
X156996865Y-100979282D01*
X157001778Y-100954582D01*
X157010500Y-100910733D01*
X157010499Y-100689268D01*
X156998287Y-100627867D01*
X156998286Y-100627866D01*
X156996865Y-100620717D01*
X156998474Y-100620397D01*
X156998474Y-100579602D01*
X156996865Y-100579282D01*
X157001778Y-100554582D01*
X157010500Y-100510733D01*
X157010499Y-100289268D01*
X156998287Y-100227867D01*
X156998286Y-100227866D01*
X156996865Y-100220717D01*
X156998474Y-100220397D01*
X156998474Y-100179602D01*
X156996865Y-100179282D01*
X157001778Y-100154582D01*
X157010500Y-100110733D01*
X157010499Y-99889268D01*
X156998287Y-99827867D01*
X156998286Y-99827866D01*
X156996865Y-99820717D01*
X156998474Y-99820397D01*
X156998474Y-99779602D01*
X156996865Y-99779282D01*
X157001778Y-99754582D01*
X157010500Y-99710733D01*
X157010499Y-99489268D01*
X156998287Y-99427867D01*
X156998286Y-99427866D01*
X156996865Y-99420717D01*
X156998474Y-99420397D01*
X156998474Y-99379602D01*
X156996865Y-99379282D01*
X157001778Y-99354582D01*
X157010500Y-99310733D01*
X157010499Y-99089268D01*
X156998287Y-99027867D01*
X156998286Y-99027866D01*
X156996865Y-99020717D01*
X156998474Y-99020397D01*
X156998474Y-98979602D01*
X156996865Y-98979282D01*
X157001778Y-98954582D01*
X157010500Y-98910733D01*
X157010499Y-98689268D01*
X156998287Y-98627867D01*
X156998286Y-98627866D01*
X156996865Y-98620717D01*
X156998474Y-98620397D01*
X156998474Y-98579602D01*
X156996865Y-98579282D01*
X157001778Y-98554582D01*
X157010500Y-98510733D01*
X157010499Y-98289268D01*
X156998287Y-98227867D01*
X156998286Y-98227866D01*
X156996865Y-98220717D01*
X156998474Y-98220397D01*
X156998474Y-98179602D01*
X156996865Y-98179282D01*
X157001778Y-98154582D01*
X157010500Y-98110733D01*
X157010499Y-97889268D01*
X156998287Y-97827867D01*
X156998286Y-97827866D01*
X156996865Y-97820717D01*
X156998474Y-97820397D01*
X156998474Y-97779602D01*
X156996865Y-97779282D01*
X157001778Y-97754582D01*
X157010500Y-97710733D01*
X157010499Y-97489268D01*
X156998287Y-97427867D01*
X156998286Y-97427866D01*
X156996865Y-97420717D01*
X156998474Y-97420397D01*
X156998474Y-97379602D01*
X156996865Y-97379282D01*
X157001778Y-97354582D01*
X157010500Y-97310733D01*
X157010499Y-97089268D01*
X156998287Y-97027867D01*
X156998286Y-97027866D01*
X156996865Y-97020717D01*
X156998474Y-97020397D01*
X156998474Y-96979602D01*
X156996865Y-96979282D01*
X157001778Y-96954582D01*
X157010500Y-96910733D01*
X157010499Y-96689268D01*
X156998287Y-96627867D01*
X156998286Y-96627866D01*
X156996865Y-96620717D01*
X156998474Y-96620397D01*
X156998474Y-96579602D01*
X156996865Y-96579282D01*
X157001778Y-96554582D01*
X157010500Y-96510733D01*
X157010499Y-96289268D01*
X156998287Y-96227867D01*
X156998286Y-96227866D01*
X156996865Y-96220717D01*
X156998474Y-96220397D01*
X156998474Y-96179602D01*
X156996865Y-96179282D01*
X157001778Y-96154582D01*
X157010500Y-96110733D01*
X157010499Y-95889268D01*
X156998287Y-95827867D01*
X156998286Y-95827866D01*
X156996865Y-95820717D01*
X156998474Y-95820397D01*
X156998474Y-95779602D01*
X156996865Y-95779282D01*
X156998287Y-95772133D01*
X157010500Y-95710733D01*
X157010499Y-95489268D01*
X156998287Y-95427867D01*
X156998286Y-95427866D01*
X156996865Y-95420717D01*
X156998474Y-95420397D01*
X156998474Y-95379602D01*
X156996865Y-95379282D01*
X156998287Y-95372133D01*
X157010500Y-95310733D01*
X157010499Y-95089268D01*
X156998287Y-95027867D01*
X156951762Y-94958238D01*
X156882133Y-94911713D01*
X156820733Y-94899500D01*
X156820732Y-94899500D01*
X156809500Y-94899500D01*
X156757174Y-94877826D01*
X156735500Y-94825500D01*
X156735500Y-94821545D01*
X156757174Y-94769219D01*
X156780480Y-94745913D01*
X156833207Y-94654587D01*
X156860499Y-94552729D01*
X156860500Y-94552729D01*
X156860500Y-91536544D01*
X156882173Y-91484219D01*
X162649708Y-85716683D01*
X162702033Y-85695010D01*
X162730351Y-85700643D01*
X162781082Y-85721656D01*
X162781087Y-85721658D01*
X162926082Y-85750500D01*
X162926084Y-85750500D01*
X163073916Y-85750500D01*
X163073918Y-85750500D01*
X163184477Y-85728508D01*
X163240026Y-85739557D01*
X163271492Y-85786649D01*
X163271492Y-85815523D01*
X163249500Y-85926083D01*
X163249500Y-86073920D01*
X163249856Y-86077533D01*
X163248515Y-86077665D01*
X163238321Y-86128867D01*
X163191223Y-86160324D01*
X163146061Y-86155056D01*
X163135342Y-86150161D01*
X163135340Y-86150160D01*
X163135339Y-86150160D01*
X163000000Y-86130701D01*
X162864661Y-86150160D01*
X162864658Y-86150160D01*
X162740281Y-86206960D01*
X162695934Y-86242697D01*
X162695933Y-86242698D01*
X162242703Y-86695930D01*
X162242701Y-86695933D01*
X162221969Y-86721659D01*
X162206959Y-86740284D01*
X162206957Y-86740287D01*
X162150161Y-86864658D01*
X162150160Y-86864661D01*
X162130701Y-87000000D01*
X162150160Y-87135338D01*
X162150160Y-87135341D01*
X162206599Y-87258927D01*
X162208620Y-87315528D01*
X162191612Y-87341993D01*
X159219517Y-90314090D01*
X159166792Y-90405412D01*
X159166793Y-90405413D01*
X159139500Y-90507273D01*
X159139500Y-94752727D01*
X159158886Y-94825080D01*
X159151494Y-94881232D01*
X159122978Y-94906241D01*
X159123928Y-94907663D01*
X159048239Y-94958237D01*
X159048237Y-94958239D01*
X159001713Y-95027866D01*
X158989500Y-95089267D01*
X158989500Y-95310727D01*
X159003135Y-95379283D01*
X159001527Y-95379602D01*
X159001528Y-95420398D01*
X159003135Y-95420718D01*
X158989500Y-95489267D01*
X158989500Y-95710727D01*
X159003135Y-95779283D01*
X159001527Y-95779602D01*
X159001528Y-95820398D01*
X159003135Y-95820718D01*
X158989500Y-95889267D01*
X158989500Y-96110727D01*
X159003135Y-96179283D01*
X159001527Y-96179602D01*
X159001528Y-96220398D01*
X159003135Y-96220718D01*
X158989500Y-96289267D01*
X158989500Y-96510727D01*
X159003135Y-96579283D01*
X159001527Y-96579602D01*
X159001528Y-96620398D01*
X159003135Y-96620718D01*
X158989500Y-96689267D01*
X158989500Y-96910727D01*
X159003135Y-96979283D01*
X159001527Y-96979602D01*
X159001528Y-97020398D01*
X159003135Y-97020718D01*
X158989500Y-97089267D01*
X158989500Y-97310727D01*
X159003135Y-97379283D01*
X159001527Y-97379602D01*
X159001528Y-97420398D01*
X159003135Y-97420718D01*
X158989500Y-97489267D01*
X158989500Y-97710727D01*
X159003135Y-97779283D01*
X159001527Y-97779602D01*
X159001528Y-97820398D01*
X159003135Y-97820718D01*
X158989500Y-97889267D01*
X158989500Y-98110727D01*
X159003135Y-98179283D01*
X159001527Y-98179602D01*
X159001528Y-98220398D01*
X159003135Y-98220718D01*
X158989500Y-98289267D01*
X158989500Y-98510727D01*
X159003135Y-98579283D01*
X159001527Y-98579602D01*
X159001528Y-98620398D01*
X159003135Y-98620718D01*
X158989500Y-98689267D01*
X158989500Y-98910727D01*
X159003135Y-98979283D01*
X159001527Y-98979602D01*
X159001528Y-99020398D01*
X159003135Y-99020718D01*
X158989500Y-99089267D01*
X158989500Y-99310727D01*
X159003135Y-99379283D01*
X159001527Y-99379602D01*
X159001528Y-99420398D01*
X159003135Y-99420718D01*
X158989500Y-99489267D01*
X158989500Y-99710727D01*
X159003135Y-99779283D01*
X159001527Y-99779602D01*
X159001528Y-99820398D01*
X159003135Y-99820718D01*
X158989500Y-99889267D01*
X158989500Y-100110727D01*
X159003135Y-100179283D01*
X159001527Y-100179602D01*
X159001528Y-100220398D01*
X159003135Y-100220718D01*
X158989500Y-100289267D01*
X158989500Y-100510727D01*
X159003135Y-100579283D01*
X159001527Y-100579602D01*
X159001528Y-100620398D01*
X159003135Y-100620718D01*
X158989500Y-100689267D01*
X158989500Y-100910727D01*
X159003135Y-100979283D01*
X159001527Y-100979602D01*
X159001528Y-101020398D01*
X159003135Y-101020718D01*
X158989500Y-101089267D01*
X158989500Y-101310727D01*
X159003135Y-101379283D01*
X159001527Y-101379602D01*
X159001528Y-101420398D01*
X159003135Y-101420718D01*
X158989500Y-101489267D01*
X158989500Y-101710727D01*
X159003135Y-101779283D01*
X159001527Y-101779602D01*
X159001528Y-101820398D01*
X159003135Y-101820718D01*
X158989500Y-101889267D01*
X158989500Y-102110727D01*
X159003135Y-102179283D01*
X159001527Y-102179602D01*
X159001528Y-102220398D01*
X159003135Y-102220718D01*
X158989500Y-102289267D01*
X158989500Y-102510727D01*
X159003135Y-102579283D01*
X159001527Y-102579602D01*
X159001528Y-102620398D01*
X159003135Y-102620718D01*
X158989500Y-102689267D01*
X158989500Y-102910727D01*
X159003135Y-102979283D01*
X159001527Y-102979602D01*
X159001528Y-103020398D01*
X159003135Y-103020718D01*
X158989500Y-103089267D01*
X158989500Y-103310727D01*
X159003135Y-103379283D01*
X159001527Y-103379602D01*
X159001528Y-103420398D01*
X159003135Y-103420718D01*
X158989500Y-103489267D01*
X158989500Y-103710727D01*
X159003135Y-103779283D01*
X159001527Y-103779602D01*
X159001528Y-103820398D01*
X159003135Y-103820718D01*
X158989500Y-103889267D01*
X158989500Y-104110727D01*
X159003135Y-104179283D01*
X159001527Y-104179602D01*
X159001528Y-104220398D01*
X159003135Y-104220718D01*
X158989500Y-104289267D01*
X158989500Y-104510727D01*
X159003135Y-104579283D01*
X159001527Y-104579602D01*
X159001528Y-104620398D01*
X159003135Y-104620718D01*
X158989500Y-104689267D01*
X158989500Y-104910727D01*
X159003135Y-104979283D01*
X159001527Y-104979602D01*
X159001528Y-105020398D01*
X159003135Y-105020718D01*
X158989500Y-105089267D01*
X158989500Y-105310727D01*
X159003135Y-105379283D01*
X159001527Y-105379602D01*
X159001528Y-105420398D01*
X159003135Y-105420718D01*
X158989500Y-105489267D01*
X158989500Y-105710727D01*
X159003135Y-105779283D01*
X159001527Y-105779602D01*
X159001528Y-105820398D01*
X159003135Y-105820718D01*
X158989500Y-105889267D01*
X158989500Y-106110727D01*
X159003135Y-106179283D01*
X159001527Y-106179602D01*
X159001528Y-106220398D01*
X159003135Y-106220718D01*
X158989500Y-106289267D01*
X158989500Y-106510727D01*
X159003135Y-106579283D01*
X159001527Y-106579602D01*
X159001528Y-106620398D01*
X159003135Y-106620718D01*
X158989500Y-106689267D01*
X158989500Y-106910727D01*
X159003135Y-106979283D01*
X159001527Y-106979602D01*
X159001528Y-107020398D01*
X159003135Y-107020718D01*
X158989500Y-107089267D01*
X158989500Y-107310727D01*
X159003135Y-107379283D01*
X159001527Y-107379602D01*
X159001528Y-107420398D01*
X159003135Y-107420718D01*
X158989500Y-107489267D01*
X158989500Y-107710727D01*
X159003135Y-107779283D01*
X159001527Y-107779602D01*
X159001528Y-107820398D01*
X159003135Y-107820718D01*
X158989500Y-107889267D01*
X158989500Y-108110727D01*
X159001928Y-108173214D01*
X158990876Y-108228762D01*
X158957619Y-108255079D01*
X158957711Y-108255247D01*
X158956731Y-108255781D01*
X158955220Y-108256978D01*
X158953073Y-108257779D01*
X158953069Y-108257780D01*
X158835667Y-108345667D01*
X158835664Y-108345670D01*
X158747780Y-108463070D01*
X158747779Y-108463071D01*
X158696532Y-108600472D01*
X158696531Y-108600477D01*
X158690000Y-108661223D01*
X158690000Y-108700000D01*
X159170551Y-108700000D01*
X159177798Y-108700356D01*
X159179261Y-108700499D01*
X159179262Y-108700499D01*
X159179267Y-108700500D01*
X159900732Y-108700499D01*
X159900738Y-108700499D01*
X159902191Y-108700356D01*
X159909438Y-108700000D01*
X160390000Y-108700000D01*
X160392826Y-108697174D01*
X160445152Y-108675500D01*
X160655233Y-108675500D01*
X160707559Y-108697174D01*
X160777826Y-108767441D01*
X160799500Y-108819767D01*
X160799500Y-108852727D01*
X160822556Y-108938776D01*
X160826793Y-108954588D01*
X160826795Y-108954592D01*
X160879517Y-109045909D01*
X160879518Y-109045910D01*
X160879520Y-109045913D01*
X160979519Y-109145912D01*
X160979520Y-109145913D01*
X161770880Y-109937273D01*
X162547826Y-110714218D01*
X162569500Y-110766544D01*
X162569500Y-117815500D01*
X162547826Y-117867826D01*
X162495500Y-117889500D01*
X162450252Y-117889500D01*
X162421010Y-117895316D01*
X162391767Y-117901133D01*
X162325449Y-117945447D01*
X162325447Y-117945449D01*
X162281133Y-118011767D01*
X162269500Y-118070253D01*
X162269500Y-120619746D01*
X162281133Y-120678232D01*
X162310608Y-120722343D01*
X162325448Y-120744552D01*
X162358150Y-120766403D01*
X162391767Y-120788866D01*
X162391768Y-120788866D01*
X162391769Y-120788867D01*
X162450252Y-120800500D01*
X162450254Y-120800500D01*
X163489746Y-120800500D01*
X163489748Y-120800500D01*
X163548231Y-120788867D01*
X163614552Y-120744552D01*
X163658867Y-120678231D01*
X163670500Y-120619748D01*
X163670500Y-118070252D01*
X163658867Y-118011769D01*
X163658865Y-118011766D01*
X163658865Y-118011765D01*
X163654258Y-118004871D01*
X189719500Y-118004871D01*
X189719500Y-118125128D01*
X189742959Y-118243069D01*
X189742961Y-118243076D01*
X189788981Y-118354179D01*
X189788982Y-118354180D01*
X189855794Y-118454171D01*
X189940829Y-118539206D01*
X190040820Y-118606018D01*
X190151924Y-118652039D01*
X190269871Y-118675500D01*
X190269872Y-118675500D01*
X190390128Y-118675500D01*
X190390129Y-118675500D01*
X190508076Y-118652039D01*
X190619180Y-118606018D01*
X190719171Y-118539206D01*
X190804206Y-118454171D01*
X190871018Y-118354180D01*
X190917039Y-118243076D01*
X190940500Y-118125129D01*
X190940500Y-118004871D01*
X190917039Y-117886924D01*
X190871018Y-117775820D01*
X190804206Y-117675829D01*
X190719171Y-117590794D01*
X190619180Y-117523982D01*
X190619181Y-117523982D01*
X190619179Y-117523981D01*
X190508076Y-117477961D01*
X190508069Y-117477959D01*
X190419215Y-117460285D01*
X190390129Y-117454500D01*
X190269871Y-117454500D01*
X190246538Y-117459141D01*
X190151930Y-117477959D01*
X190151923Y-117477961D01*
X190040820Y-117523981D01*
X189940832Y-117590791D01*
X189855791Y-117675832D01*
X189788981Y-117775820D01*
X189742961Y-117886923D01*
X189742959Y-117886930D01*
X189719500Y-118004871D01*
X163654258Y-118004871D01*
X163636633Y-117978494D01*
X163614552Y-117945448D01*
X163592343Y-117930608D01*
X163548232Y-117901133D01*
X163548233Y-117901133D01*
X163518989Y-117895316D01*
X163489748Y-117889500D01*
X163489746Y-117889500D01*
X163444500Y-117889500D01*
X163392174Y-117867826D01*
X163370500Y-117815500D01*
X163370500Y-110628698D01*
X163370501Y-110628685D01*
X163370501Y-110517271D01*
X163370500Y-110517270D01*
X163343208Y-110415416D01*
X163343206Y-110415411D01*
X163313066Y-110363207D01*
X163290479Y-110324086D01*
X163213334Y-110246941D01*
X163213323Y-110246931D01*
X161545913Y-108579520D01*
X161545913Y-108579519D01*
X161493219Y-108526826D01*
X161471544Y-108474501D01*
X161493218Y-108422175D01*
X161545543Y-108400500D01*
X161552729Y-108400500D01*
X161552729Y-108400499D01*
X161654587Y-108373207D01*
X161745913Y-108320480D01*
X161820480Y-108245913D01*
X161873207Y-108154587D01*
X161900499Y-108052729D01*
X161900500Y-108052729D01*
X161900500Y-107947271D01*
X161900499Y-107947270D01*
X161884957Y-107889267D01*
X161873207Y-107845413D01*
X161820480Y-107754087D01*
X161745913Y-107679520D01*
X161719179Y-107664085D01*
X161684702Y-107619153D01*
X161692094Y-107563000D01*
X161719180Y-107535914D01*
X161745913Y-107520480D01*
X161820480Y-107445913D01*
X161873207Y-107354587D01*
X161900499Y-107252729D01*
X161900500Y-107252729D01*
X161900500Y-107147271D01*
X161900499Y-107147270D01*
X161884957Y-107089267D01*
X161873207Y-107045413D01*
X161820480Y-106954087D01*
X161745913Y-106879520D01*
X161719179Y-106864085D01*
X161684702Y-106819153D01*
X161692094Y-106763000D01*
X161719180Y-106735914D01*
X161745913Y-106720480D01*
X161820480Y-106645913D01*
X161873207Y-106554587D01*
X161900499Y-106452729D01*
X161900500Y-106452729D01*
X161900500Y-106347271D01*
X161900499Y-106347270D01*
X161884957Y-106289267D01*
X161873207Y-106245413D01*
X161820480Y-106154087D01*
X161745913Y-106079520D01*
X161719179Y-106064085D01*
X161684702Y-106019153D01*
X161692094Y-105963000D01*
X161719180Y-105935914D01*
X161745913Y-105920480D01*
X161820480Y-105845913D01*
X161873207Y-105754587D01*
X161900499Y-105652729D01*
X161900500Y-105652729D01*
X161900500Y-105547271D01*
X161900499Y-105547270D01*
X161884957Y-105489267D01*
X161873207Y-105445413D01*
X161820480Y-105354087D01*
X161745913Y-105279520D01*
X161719179Y-105264085D01*
X161684702Y-105219153D01*
X161692094Y-105163000D01*
X161719180Y-105135914D01*
X161745913Y-105120480D01*
X161820480Y-105045913D01*
X161873207Y-104954587D01*
X161900499Y-104852729D01*
X161900500Y-104852729D01*
X161900500Y-104747271D01*
X161900499Y-104747270D01*
X161884957Y-104689267D01*
X161873207Y-104645413D01*
X161820480Y-104554087D01*
X161745913Y-104479520D01*
X161719179Y-104464085D01*
X161684702Y-104419153D01*
X161692094Y-104363000D01*
X161719180Y-104335914D01*
X161745913Y-104320480D01*
X161820480Y-104245913D01*
X161873207Y-104154587D01*
X161900499Y-104052729D01*
X161900500Y-104052729D01*
X161900500Y-103947271D01*
X161900499Y-103947270D01*
X161884957Y-103889267D01*
X161873207Y-103845413D01*
X161820480Y-103754087D01*
X161745913Y-103679520D01*
X161719179Y-103664085D01*
X161684702Y-103619153D01*
X161692094Y-103563000D01*
X161719180Y-103535914D01*
X161745913Y-103520480D01*
X161820480Y-103445913D01*
X161873207Y-103354587D01*
X161900499Y-103252729D01*
X161900500Y-103252729D01*
X161900500Y-103147271D01*
X161900499Y-103147270D01*
X161884957Y-103089267D01*
X161873207Y-103045413D01*
X161820480Y-102954087D01*
X161745913Y-102879520D01*
X161719179Y-102864085D01*
X161684702Y-102819153D01*
X161692094Y-102763000D01*
X161719180Y-102735914D01*
X161745913Y-102720480D01*
X161820480Y-102645913D01*
X161873207Y-102554587D01*
X161900499Y-102452729D01*
X161900500Y-102452729D01*
X161900500Y-102347271D01*
X161900499Y-102347270D01*
X161884957Y-102289267D01*
X161873207Y-102245413D01*
X161820480Y-102154087D01*
X161745913Y-102079520D01*
X161719179Y-102064085D01*
X161684702Y-102019153D01*
X161692094Y-101963000D01*
X161719180Y-101935914D01*
X161745913Y-101920480D01*
X161820480Y-101845913D01*
X161873207Y-101754587D01*
X161900499Y-101652729D01*
X161900500Y-101652729D01*
X161900500Y-101547271D01*
X161900499Y-101547270D01*
X161884957Y-101489267D01*
X161873207Y-101445413D01*
X161820480Y-101354087D01*
X161745913Y-101279520D01*
X161719179Y-101264085D01*
X161684702Y-101219153D01*
X161692094Y-101163000D01*
X161719180Y-101135914D01*
X161745913Y-101120480D01*
X161820480Y-101045913D01*
X161873207Y-100954587D01*
X161900499Y-100852729D01*
X161900500Y-100852729D01*
X161900500Y-100747271D01*
X161900499Y-100747270D01*
X161884957Y-100689267D01*
X161873207Y-100645413D01*
X161820480Y-100554087D01*
X161745913Y-100479520D01*
X161719179Y-100464085D01*
X161684702Y-100419153D01*
X161692094Y-100363000D01*
X161719180Y-100335914D01*
X161745913Y-100320480D01*
X161820480Y-100245913D01*
X161873207Y-100154587D01*
X161900499Y-100052729D01*
X161900500Y-100052729D01*
X161900500Y-99947271D01*
X161900499Y-99947270D01*
X161884957Y-99889267D01*
X161873207Y-99845413D01*
X161820480Y-99754087D01*
X161745913Y-99679520D01*
X161719179Y-99664085D01*
X161684702Y-99619153D01*
X161692094Y-99563000D01*
X161719180Y-99535914D01*
X161745913Y-99520480D01*
X161820480Y-99445913D01*
X161873207Y-99354587D01*
X161900499Y-99252729D01*
X161900500Y-99252729D01*
X161900500Y-99147271D01*
X161900499Y-99147270D01*
X161884957Y-99089267D01*
X161873207Y-99045413D01*
X161820480Y-98954087D01*
X161745913Y-98879520D01*
X161719179Y-98864085D01*
X161684702Y-98819153D01*
X161692094Y-98763000D01*
X161719180Y-98735914D01*
X161745913Y-98720480D01*
X161820480Y-98645913D01*
X161873207Y-98554587D01*
X161900499Y-98452729D01*
X161900500Y-98452729D01*
X161900500Y-98347271D01*
X161900499Y-98347270D01*
X161884957Y-98289267D01*
X161873207Y-98245413D01*
X161820480Y-98154087D01*
X161745913Y-98079520D01*
X161719179Y-98064085D01*
X161684702Y-98019153D01*
X161692094Y-97963000D01*
X161719180Y-97935914D01*
X161745913Y-97920480D01*
X161820480Y-97845913D01*
X161873207Y-97754587D01*
X161900499Y-97652729D01*
X161900500Y-97652729D01*
X161900500Y-97547271D01*
X161900499Y-97547270D01*
X161884957Y-97489267D01*
X161873207Y-97445413D01*
X161820480Y-97354087D01*
X161745913Y-97279520D01*
X161719179Y-97264085D01*
X161684702Y-97219153D01*
X161692094Y-97163000D01*
X161719180Y-97135914D01*
X161745913Y-97120480D01*
X161820480Y-97045913D01*
X161873207Y-96954587D01*
X161900499Y-96852729D01*
X161900500Y-96852729D01*
X161900500Y-96747271D01*
X161900499Y-96747270D01*
X161884957Y-96689267D01*
X161873207Y-96645413D01*
X161820480Y-96554087D01*
X161745913Y-96479520D01*
X161719179Y-96464085D01*
X161684702Y-96419153D01*
X161692094Y-96363000D01*
X161719180Y-96335914D01*
X161745913Y-96320480D01*
X161820480Y-96245913D01*
X161873207Y-96154587D01*
X161900499Y-96052729D01*
X161900500Y-96052729D01*
X161900500Y-95947271D01*
X161900499Y-95947270D01*
X161884957Y-95889267D01*
X161873207Y-95845413D01*
X161820480Y-95754087D01*
X161745913Y-95679520D01*
X161688499Y-95646372D01*
X161654591Y-95626795D01*
X161654582Y-95626791D01*
X161552729Y-95599500D01*
X161552727Y-95599500D01*
X161447273Y-95599500D01*
X161447271Y-95599500D01*
X161345417Y-95626791D01*
X161345404Y-95626796D01*
X161311499Y-95646372D01*
X161255347Y-95653764D01*
X161210414Y-95619285D01*
X161200500Y-95582286D01*
X161200500Y-95547271D01*
X161200499Y-95547270D01*
X161184957Y-95489267D01*
X161173207Y-95445413D01*
X161120480Y-95354087D01*
X161045913Y-95279520D01*
X160995649Y-95250500D01*
X160954591Y-95226795D01*
X160954582Y-95226791D01*
X160852729Y-95199500D01*
X160852727Y-95199500D01*
X160747273Y-95199500D01*
X160747271Y-95199500D01*
X160645417Y-95226791D01*
X160645408Y-95226795D01*
X160554086Y-95279520D01*
X160530781Y-95302826D01*
X160478455Y-95324500D01*
X160164500Y-95324500D01*
X160112174Y-95302826D01*
X160090500Y-95250500D01*
X160090499Y-95089272D01*
X160090499Y-95089268D01*
X160078287Y-95027867D01*
X160031762Y-94958238D01*
X159962133Y-94911713D01*
X159956072Y-94907663D01*
X159957379Y-94905706D01*
X159924223Y-94872549D01*
X159921113Y-94825080D01*
X159940499Y-94752729D01*
X159940500Y-94752729D01*
X159940500Y-90756544D01*
X159962173Y-90704219D01*
X162796426Y-87869965D01*
X162848751Y-87848292D01*
X162859310Y-87849838D01*
X162859419Y-87849086D01*
X162890498Y-87853554D01*
X163000000Y-87869299D01*
X163135342Y-87849839D01*
X163259719Y-87793039D01*
X163304067Y-87757301D01*
X163757299Y-87304067D01*
X163793039Y-87259719D01*
X163849839Y-87135342D01*
X163869299Y-87000000D01*
X163849839Y-86864658D01*
X163844943Y-86853939D01*
X163842921Y-86797340D01*
X163881514Y-86755887D01*
X163922370Y-86751126D01*
X163922467Y-86750144D01*
X163926080Y-86750500D01*
X163926082Y-86750500D01*
X164073916Y-86750500D01*
X164073918Y-86750500D01*
X164218913Y-86721658D01*
X164355495Y-86665084D01*
X164478416Y-86582951D01*
X164582951Y-86478416D01*
X164665084Y-86355495D01*
X164721658Y-86218913D01*
X164750500Y-86073918D01*
X164750500Y-85926082D01*
X164721658Y-85781087D01*
X164708988Y-85750500D01*
X164665084Y-85644505D01*
X164582951Y-85521584D01*
X164478415Y-85417048D01*
X164355494Y-85334915D01*
X164218917Y-85278343D01*
X164218907Y-85278340D01*
X164121811Y-85259026D01*
X164073918Y-85249500D01*
X163926082Y-85249500D01*
X163815523Y-85271492D01*
X163759974Y-85260443D01*
X163728508Y-85213351D01*
X163728508Y-85184477D01*
X163742147Y-85115910D01*
X163750500Y-85073918D01*
X163750500Y-84926082D01*
X163721658Y-84781087D01*
X163665084Y-84644505D01*
X163582951Y-84521584D01*
X163478416Y-84417049D01*
X163355495Y-84334916D01*
X163355496Y-84334916D01*
X163355494Y-84334915D01*
X163218917Y-84278343D01*
X163218907Y-84278340D01*
X163121811Y-84259026D01*
X163073918Y-84249500D01*
X162926082Y-84249500D01*
X162884977Y-84257676D01*
X162781092Y-84278340D01*
X162781082Y-84278343D01*
X162644505Y-84334915D01*
X162521584Y-84417048D01*
X162521583Y-84417050D01*
X162417050Y-84521583D01*
X162417048Y-84521584D01*
X162334915Y-84644505D01*
X162278343Y-84781082D01*
X162278340Y-84781092D01*
X162249500Y-84926083D01*
X162249500Y-84953455D01*
X162227826Y-85005781D01*
X156139517Y-91094090D01*
X156086792Y-91185412D01*
X156086793Y-91185413D01*
X156059500Y-91287273D01*
X156059500Y-94552729D01*
X156086791Y-94654582D01*
X156086795Y-94654591D01*
X156139520Y-94745913D01*
X156162826Y-94769219D01*
X156184500Y-94821545D01*
X156184500Y-94825500D01*
X156162826Y-94877826D01*
X156110505Y-94899500D01*
X156099273Y-94899500D01*
X156037866Y-94911713D01*
X155968239Y-94958237D01*
X155968237Y-94958239D01*
X155945033Y-94992966D01*
X155897940Y-95024431D01*
X155842392Y-95013381D01*
X155819419Y-94988853D01*
X155801743Y-94958237D01*
X155770480Y-94904087D01*
X155322174Y-94455781D01*
X155300500Y-94403455D01*
X155300500Y-88547273D01*
X155275387Y-88453549D01*
X155273207Y-88445413D01*
X155273207Y-88445412D01*
X155246843Y-88399750D01*
X155220480Y-88354087D01*
X155145913Y-88279520D01*
X155143334Y-88276941D01*
X155143323Y-88276931D01*
X153622174Y-86755781D01*
X153600500Y-86703455D01*
X153600500Y-86620941D01*
X153600499Y-86620940D01*
X153584056Y-86559575D01*
X153559577Y-86468216D01*
X153480520Y-86331284D01*
X153368716Y-86219480D01*
X153231784Y-86140423D01*
X153231781Y-86140422D01*
X153231779Y-86140421D01*
X153115877Y-86109365D01*
X153070944Y-86074887D01*
X153063552Y-86018734D01*
X153098030Y-85973801D01*
X153112158Y-85967510D01*
X153184090Y-85944139D01*
X153260909Y-85888326D01*
X153588325Y-85560909D01*
X153644139Y-85484090D01*
X153683342Y-85363433D01*
X153683342Y-85236567D01*
X153644139Y-85115910D01*
X153613630Y-85073918D01*
X153588328Y-85039093D01*
X153260909Y-84711675D01*
X153184091Y-84655862D01*
X153184090Y-84655861D01*
X153184088Y-84655860D01*
X153184084Y-84655858D01*
X153063434Y-84616658D01*
X153063433Y-84616658D01*
X152936567Y-84616658D01*
X152936565Y-84616658D01*
X152815915Y-84655858D01*
X152815907Y-84655862D01*
X152739093Y-84711671D01*
X152411675Y-85039090D01*
X152355860Y-85115911D01*
X152355858Y-85115915D01*
X152316658Y-85236565D01*
X152316658Y-85325500D01*
X152294984Y-85377826D01*
X152242658Y-85399500D01*
X152220941Y-85399500D01*
X152068220Y-85440421D01*
X152068214Y-85440424D01*
X151931283Y-85519480D01*
X151819480Y-85631283D01*
X151740424Y-85768214D01*
X151740421Y-85768220D01*
X151699500Y-85920940D01*
X151699500Y-86079059D01*
X151740421Y-86231779D01*
X151740422Y-86231781D01*
X151740423Y-86231784D01*
X151819480Y-86368716D01*
X151931284Y-86480520D01*
X152068216Y-86559577D01*
X152220940Y-86600499D01*
X152220941Y-86600500D01*
X152325500Y-86600500D01*
X152377826Y-86622174D01*
X152399500Y-86674500D01*
X152399500Y-86779059D01*
X152440421Y-86931779D01*
X152440422Y-86931781D01*
X152440423Y-86931784D01*
X152519480Y-87068716D01*
X152631284Y-87180520D01*
X152768216Y-87259577D01*
X152920940Y-87300499D01*
X152920941Y-87300500D01*
X152920943Y-87300500D01*
X153003455Y-87300500D01*
X153055781Y-87322174D01*
X154477826Y-88744218D01*
X154499500Y-88796544D01*
X154499500Y-94547273D01*
X154499500Y-94652727D01*
X154524469Y-94745913D01*
X154526793Y-94754588D01*
X154526795Y-94754592D01*
X154579517Y-94845909D01*
X154579518Y-94845910D01*
X154579520Y-94845913D01*
X154894491Y-95160884D01*
X155206781Y-95473174D01*
X155228455Y-95525500D01*
X155206781Y-95577826D01*
X155154455Y-95599500D01*
X155147271Y-95599500D01*
X155045417Y-95626791D01*
X155045408Y-95626795D01*
X154954086Y-95679520D01*
X154879520Y-95754086D01*
X154826795Y-95845408D01*
X154826791Y-95845417D01*
X154799500Y-95947270D01*
X154799500Y-95982286D01*
X154777826Y-96034612D01*
X154725500Y-96056286D01*
X154688501Y-96046372D01*
X154654595Y-96026796D01*
X154654582Y-96026791D01*
X154552729Y-95999500D01*
X154552727Y-95999500D01*
X154447273Y-95999500D01*
X154447271Y-95999500D01*
X154345417Y-96026791D01*
X154345408Y-96026795D01*
X154254086Y-96079520D01*
X154179520Y-96154086D01*
X154126795Y-96245408D01*
X154126791Y-96245417D01*
X154099500Y-96347270D01*
X154099500Y-96452729D01*
X154126791Y-96554582D01*
X154126795Y-96554591D01*
X154141051Y-96579283D01*
X154179520Y-96645913D01*
X154254087Y-96720480D01*
X154280820Y-96735914D01*
X154315298Y-96780848D01*
X154307905Y-96837001D01*
X154280820Y-96864086D01*
X154254085Y-96879521D01*
X154179520Y-96954086D01*
X154126795Y-97045408D01*
X154126791Y-97045417D01*
X154099500Y-97147270D01*
X154099500Y-97252729D01*
X154126791Y-97354582D01*
X154126795Y-97354591D01*
X154141051Y-97379283D01*
X154179520Y-97445913D01*
X154254087Y-97520480D01*
X154280820Y-97535914D01*
X154315298Y-97580848D01*
X154307905Y-97637001D01*
X154280820Y-97664086D01*
X154254085Y-97679521D01*
X154179520Y-97754086D01*
X154126795Y-97845408D01*
X154126791Y-97845417D01*
X154099500Y-97947270D01*
X154099500Y-98052729D01*
X154126791Y-98154582D01*
X154126795Y-98154591D01*
X154141051Y-98179283D01*
X154179520Y-98245913D01*
X154254087Y-98320480D01*
X154280820Y-98335914D01*
X154315298Y-98380848D01*
X154307905Y-98437001D01*
X154280820Y-98464086D01*
X154254085Y-98479521D01*
X154179520Y-98554086D01*
X154126795Y-98645408D01*
X154126791Y-98645417D01*
X154099500Y-98747270D01*
X154099500Y-98852729D01*
X154126791Y-98954582D01*
X154126795Y-98954591D01*
X154141051Y-98979283D01*
X154179520Y-99045913D01*
X154254087Y-99120480D01*
X154280820Y-99135914D01*
X154315298Y-99180848D01*
X154307905Y-99237001D01*
X154280820Y-99264086D01*
X154254085Y-99279521D01*
X154179520Y-99354086D01*
X154126795Y-99445408D01*
X154126791Y-99445417D01*
X154099500Y-99547270D01*
X154099500Y-99652729D01*
X154126791Y-99754582D01*
X154126795Y-99754591D01*
X154141051Y-99779283D01*
X154179520Y-99845913D01*
X154254087Y-99920480D01*
X154280820Y-99935914D01*
X154315298Y-99980848D01*
X154307905Y-100037001D01*
X154280820Y-100064086D01*
X154254085Y-100079521D01*
X154179520Y-100154086D01*
X154126795Y-100245408D01*
X154126791Y-100245417D01*
X154099500Y-100347270D01*
X154099500Y-100452729D01*
X154126791Y-100554582D01*
X154126795Y-100554591D01*
X154141051Y-100579283D01*
X154179520Y-100645913D01*
X154254087Y-100720480D01*
X154280820Y-100735914D01*
X154315298Y-100780848D01*
X154307905Y-100837001D01*
X154280820Y-100864086D01*
X154254085Y-100879521D01*
X154179520Y-100954086D01*
X154126795Y-101045408D01*
X154126791Y-101045417D01*
X154099500Y-101147270D01*
X154099500Y-101252729D01*
X154126791Y-101354582D01*
X154126795Y-101354591D01*
X154141051Y-101379283D01*
X154179520Y-101445913D01*
X154254087Y-101520480D01*
X154280820Y-101535914D01*
X154315298Y-101580848D01*
X154307905Y-101637001D01*
X154280820Y-101664086D01*
X154254085Y-101679521D01*
X154179520Y-101754086D01*
X154126795Y-101845408D01*
X154126791Y-101845417D01*
X154099500Y-101947270D01*
X154099500Y-102052729D01*
X154126791Y-102154582D01*
X154126795Y-102154591D01*
X154141051Y-102179283D01*
X154179520Y-102245913D01*
X154254087Y-102320480D01*
X154280820Y-102335914D01*
X154315298Y-102380848D01*
X154307905Y-102437001D01*
X154280820Y-102464086D01*
X154254085Y-102479521D01*
X154179520Y-102554086D01*
X154126795Y-102645408D01*
X154126791Y-102645417D01*
X154099500Y-102747270D01*
X154099500Y-102852729D01*
X154126791Y-102954582D01*
X154126795Y-102954591D01*
X154141051Y-102979283D01*
X154179520Y-103045913D01*
X154254087Y-103120480D01*
X154280820Y-103135914D01*
X154315298Y-103180848D01*
X154307905Y-103237001D01*
X154280820Y-103264086D01*
X154254085Y-103279521D01*
X154179520Y-103354086D01*
X154126795Y-103445408D01*
X154126791Y-103445417D01*
X154099500Y-103547270D01*
X154099500Y-103652729D01*
X154126791Y-103754582D01*
X154126795Y-103754591D01*
X154141051Y-103779283D01*
X154179520Y-103845913D01*
X154254087Y-103920480D01*
X154280820Y-103935914D01*
X154315298Y-103980848D01*
X154307905Y-104037001D01*
X154280820Y-104064086D01*
X154254085Y-104079521D01*
X154179520Y-104154086D01*
X154126795Y-104245408D01*
X154126791Y-104245417D01*
X154099500Y-104347270D01*
X154099500Y-104452729D01*
X154126791Y-104554582D01*
X154126795Y-104554591D01*
X154141051Y-104579283D01*
X154179520Y-104645913D01*
X154254087Y-104720480D01*
X154280820Y-104735914D01*
X154315298Y-104780848D01*
X154307905Y-104837001D01*
X154280820Y-104864086D01*
X154254085Y-104879521D01*
X154179520Y-104954086D01*
X154126795Y-105045408D01*
X154126791Y-105045417D01*
X154099500Y-105147270D01*
X154099500Y-105252729D01*
X154126791Y-105354582D01*
X154126795Y-105354591D01*
X154141051Y-105379283D01*
X154179520Y-105445913D01*
X154254087Y-105520480D01*
X154280820Y-105535914D01*
X154315298Y-105580848D01*
X154307905Y-105637001D01*
X154280820Y-105664086D01*
X154254085Y-105679521D01*
X154179520Y-105754086D01*
X154126795Y-105845408D01*
X154126791Y-105845417D01*
X154099500Y-105947270D01*
X154099500Y-106052729D01*
X154126791Y-106154582D01*
X154126795Y-106154591D01*
X154141051Y-106179283D01*
X154179520Y-106245913D01*
X154254087Y-106320480D01*
X154280820Y-106335914D01*
X154315298Y-106380848D01*
X154307905Y-106437001D01*
X154280820Y-106464086D01*
X154254085Y-106479521D01*
X154179520Y-106554086D01*
X154126795Y-106645408D01*
X154126791Y-106645417D01*
X154099500Y-106747270D01*
X154099500Y-106852729D01*
X154126791Y-106954582D01*
X154126795Y-106954591D01*
X154141051Y-106979283D01*
X154179520Y-107045913D01*
X154254087Y-107120480D01*
X154280820Y-107135914D01*
X154315298Y-107180848D01*
X154307905Y-107237001D01*
X154280820Y-107264086D01*
X154254085Y-107279521D01*
X154179520Y-107354086D01*
X154126795Y-107445408D01*
X154126791Y-107445417D01*
X154099500Y-107547270D01*
X154099500Y-107652729D01*
X154126791Y-107754582D01*
X154126795Y-107754591D01*
X154141051Y-107779283D01*
X154179520Y-107845913D01*
X154254087Y-107920480D01*
X154280820Y-107935914D01*
X154315298Y-107980848D01*
X154307905Y-108037001D01*
X154280820Y-108064086D01*
X154254085Y-108079521D01*
X154179520Y-108154086D01*
X154126795Y-108245408D01*
X154126791Y-108245417D01*
X154099500Y-108347270D01*
X154099500Y-108452729D01*
X154126791Y-108554582D01*
X154126795Y-108554591D01*
X154164788Y-108620397D01*
X154179520Y-108645913D01*
X154254087Y-108720480D01*
X154345413Y-108773207D01*
X154447270Y-108800499D01*
X154447271Y-108800500D01*
X154447273Y-108800500D01*
X154552729Y-108800500D01*
X154552729Y-108800499D01*
X154654587Y-108773207D01*
X154745913Y-108720480D01*
X154769219Y-108697174D01*
X154821545Y-108675500D01*
X155835500Y-108675500D01*
X155887826Y-108697174D01*
X155909500Y-108749500D01*
X155909500Y-108910727D01*
X155909501Y-108910732D01*
X155921713Y-108972133D01*
X155968238Y-109041762D01*
X156037867Y-109088287D01*
X156099267Y-109100500D01*
X156150501Y-109100499D01*
X156172173Y-109109476D01*
X156202825Y-109122172D01*
X156202826Y-109122173D01*
X156212659Y-109145912D01*
X156222730Y-109170227D01*
X156224500Y-109174499D01*
X156224500Y-109178455D01*
X156202826Y-109230781D01*
X156179520Y-109254086D01*
X156126795Y-109345408D01*
X156126791Y-109345417D01*
X156099500Y-109447270D01*
X156099500Y-109793455D01*
X156077826Y-109845781D01*
X154745781Y-111177826D01*
X154693455Y-111199500D01*
X154444621Y-111199500D01*
X154392295Y-111177826D01*
X154350404Y-111135935D01*
X154280699Y-111103431D01*
X154243173Y-111085932D01*
X154243171Y-111085931D01*
X154207178Y-111081193D01*
X154194316Y-111079500D01*
X153845684Y-111079500D01*
X153813112Y-111083788D01*
X153796826Y-111085932D01*
X153764593Y-111100962D01*
X153708010Y-111103431D01*
X153669626Y-111071562D01*
X153640736Y-111022712D01*
X153640736Y-111022711D01*
X153527289Y-110909264D01*
X153389194Y-110827594D01*
X153250000Y-110787154D01*
X153250000Y-112412845D01*
X153389193Y-112372405D01*
X153527289Y-112290735D01*
X153618174Y-112199851D01*
X153670500Y-112178177D01*
X153722826Y-112199851D01*
X153744500Y-112252177D01*
X153744500Y-129855233D01*
X153722826Y-129907559D01*
X152766442Y-130863943D01*
X152724500Y-130965200D01*
X152724500Y-133359982D01*
X152702826Y-133412308D01*
X152662078Y-133433071D01*
X152625214Y-133438910D01*
X152625204Y-133438912D01*
X152385626Y-133516756D01*
X152161154Y-133631129D01*
X151957348Y-133779203D01*
X151779203Y-133957348D01*
X151631129Y-134161154D01*
X151516756Y-134385626D01*
X151438912Y-134625204D01*
X151438909Y-134625217D01*
X151399500Y-134874036D01*
X108291074Y-134874036D01*
X108223091Y-134638058D01*
X108221246Y-134629972D01*
X108198062Y-134493523D01*
X108169113Y-134323141D01*
X108168184Y-134314900D01*
X108167347Y-134300000D01*
X108150616Y-134002065D01*
X108150500Y-133997916D01*
X108150500Y-127387828D01*
X115200000Y-127387828D01*
X115206402Y-127447375D01*
X115206403Y-127447380D01*
X115256645Y-127582087D01*
X115256646Y-127582088D01*
X115342811Y-127697188D01*
X115457911Y-127783353D01*
X115457912Y-127783354D01*
X115592619Y-127833596D01*
X115592624Y-127833597D01*
X115652171Y-127840000D01*
X117025000Y-127840000D01*
X117525000Y-127840000D01*
X118897829Y-127840000D01*
X118957375Y-127833597D01*
X118957380Y-127833596D01*
X119092087Y-127783354D01*
X119092088Y-127783353D01*
X119207188Y-127697188D01*
X119293353Y-127582088D01*
X119293354Y-127582087D01*
X119343596Y-127447380D01*
X119343597Y-127447375D01*
X119350000Y-127387828D01*
X119350000Y-127090000D01*
X117525000Y-127090000D01*
X117525000Y-127840000D01*
X117025000Y-127840000D01*
X117025000Y-127090000D01*
X115200000Y-127090000D01*
X115200000Y-127387828D01*
X108150500Y-127387828D01*
X108150500Y-126292171D01*
X115200000Y-126292171D01*
X115200000Y-126590000D01*
X117025000Y-126590000D01*
X117525000Y-126590000D01*
X119350000Y-126590000D01*
X119350000Y-126292171D01*
X119343597Y-126232624D01*
X119343596Y-126232619D01*
X119293354Y-126097912D01*
X119293353Y-126097911D01*
X119207188Y-125982811D01*
X119092088Y-125896646D01*
X119092087Y-125896645D01*
X118957380Y-125846403D01*
X118957375Y-125846402D01*
X118897829Y-125840000D01*
X117525000Y-125840000D01*
X117525000Y-126590000D01*
X117025000Y-126590000D01*
X117025000Y-125840000D01*
X115652171Y-125840000D01*
X115592624Y-125846402D01*
X115592619Y-125846403D01*
X115457912Y-125896645D01*
X115457911Y-125896646D01*
X115342811Y-125982811D01*
X115256646Y-126097911D01*
X115256645Y-126097912D01*
X115206403Y-126232619D01*
X115206402Y-126232624D01*
X115200000Y-126292171D01*
X108150500Y-126292171D01*
X108150500Y-124847828D01*
X115200000Y-124847828D01*
X115206402Y-124907375D01*
X115206403Y-124907380D01*
X115256645Y-125042087D01*
X115256646Y-125042088D01*
X115342811Y-125157188D01*
X115457911Y-125243353D01*
X115457912Y-125243354D01*
X115592619Y-125293596D01*
X115592624Y-125293597D01*
X115652171Y-125300000D01*
X117025000Y-125300000D01*
X117525000Y-125300000D01*
X118897829Y-125300000D01*
X118957375Y-125293597D01*
X118957380Y-125293596D01*
X119092087Y-125243354D01*
X119092088Y-125243353D01*
X119207188Y-125157188D01*
X119293353Y-125042088D01*
X119293354Y-125042087D01*
X119343596Y-124907380D01*
X119343597Y-124907375D01*
X119350000Y-124847828D01*
X119350000Y-124550000D01*
X117525000Y-124550000D01*
X117525000Y-125300000D01*
X117025000Y-125300000D01*
X117025000Y-124550000D01*
X115200000Y-124550000D01*
X115200000Y-124847828D01*
X108150500Y-124847828D01*
X108150500Y-123752171D01*
X115200000Y-123752171D01*
X115200000Y-124050000D01*
X117025000Y-124050000D01*
X117525000Y-124050000D01*
X119350000Y-124050000D01*
X119350000Y-123752171D01*
X119343597Y-123692624D01*
X119343596Y-123692619D01*
X119293354Y-123557912D01*
X119293353Y-123557911D01*
X119207188Y-123442811D01*
X119092088Y-123356646D01*
X119092087Y-123356645D01*
X118957380Y-123306403D01*
X118957375Y-123306402D01*
X118897829Y-123300000D01*
X117525000Y-123300000D01*
X117525000Y-124050000D01*
X117025000Y-124050000D01*
X117025000Y-123300000D01*
X115652171Y-123300000D01*
X115592624Y-123306402D01*
X115592619Y-123306403D01*
X115457912Y-123356645D01*
X115457911Y-123356646D01*
X115342811Y-123442811D01*
X115256646Y-123557911D01*
X115256645Y-123557912D01*
X115206403Y-123692619D01*
X115206402Y-123692624D01*
X115200000Y-123752171D01*
X108150500Y-123752171D01*
X108150500Y-122307828D01*
X115200000Y-122307828D01*
X115206402Y-122367375D01*
X115206403Y-122367380D01*
X115256645Y-122502087D01*
X115256646Y-122502088D01*
X115342811Y-122617188D01*
X115457911Y-122703353D01*
X115457912Y-122703354D01*
X115592619Y-122753596D01*
X115592624Y-122753597D01*
X115652171Y-122760000D01*
X117025000Y-122760000D01*
X117525000Y-122760000D01*
X118897829Y-122760000D01*
X118957375Y-122753597D01*
X118957380Y-122753596D01*
X119092087Y-122703354D01*
X119092088Y-122703353D01*
X119207188Y-122617188D01*
X119293353Y-122502088D01*
X119293354Y-122502087D01*
X119343596Y-122367380D01*
X119343597Y-122367375D01*
X119350000Y-122307828D01*
X119350000Y-122010000D01*
X117525000Y-122010000D01*
X117525000Y-122760000D01*
X117025000Y-122760000D01*
X117025000Y-122010000D01*
X115200000Y-122010000D01*
X115200000Y-122307828D01*
X108150500Y-122307828D01*
X108150500Y-121212171D01*
X115200000Y-121212171D01*
X115200000Y-121510000D01*
X117025000Y-121510000D01*
X117525000Y-121510000D01*
X119350000Y-121510000D01*
X119350000Y-121240252D01*
X120549500Y-121240252D01*
X120549500Y-122279748D01*
X120557255Y-122318736D01*
X120561133Y-122338232D01*
X120580610Y-122367380D01*
X120605448Y-122404552D01*
X120649560Y-122434027D01*
X120671767Y-122448866D01*
X120671768Y-122448866D01*
X120671769Y-122448867D01*
X120730252Y-122460500D01*
X120730254Y-122460500D01*
X123919746Y-122460500D01*
X123919748Y-122460500D01*
X123978231Y-122448867D01*
X124044552Y-122404552D01*
X124088867Y-122338231D01*
X124100500Y-122279748D01*
X124100500Y-122109500D01*
X124122174Y-122057174D01*
X124174500Y-122035500D01*
X129220379Y-122035500D01*
X129272705Y-122057174D01*
X129319596Y-122104065D01*
X129381504Y-122132933D01*
X129419767Y-122174691D01*
X129417297Y-122231274D01*
X129381504Y-122267066D01*
X129358757Y-122277674D01*
X129319595Y-122295935D01*
X129235935Y-122379595D01*
X129185931Y-122486828D01*
X129179500Y-122535685D01*
X129179500Y-122884319D01*
X129179924Y-122887541D01*
X129165263Y-122942247D01*
X129125711Y-122968674D01*
X129095415Y-122976792D01*
X129095411Y-122976793D01*
X129004086Y-123029520D01*
X128929520Y-123104086D01*
X128876795Y-123195408D01*
X128876791Y-123195417D01*
X128849500Y-123297270D01*
X128849500Y-123402729D01*
X128876791Y-123504582D01*
X128876795Y-123504591D01*
X128907580Y-123557912D01*
X128929520Y-123595913D01*
X129004087Y-123670480D01*
X129095413Y-123723207D01*
X129197270Y-123750499D01*
X129197271Y-123750500D01*
X129197273Y-123750500D01*
X129302729Y-123750500D01*
X129302729Y-123750499D01*
X129404587Y-123723207D01*
X129495913Y-123670480D01*
X129570480Y-123595913D01*
X129623207Y-123504587D01*
X129650499Y-123402729D01*
X129650500Y-123402729D01*
X129650500Y-123369767D01*
X129672174Y-123317441D01*
X129787442Y-123202174D01*
X129839768Y-123180500D01*
X129924314Y-123180500D01*
X129924316Y-123180500D01*
X129973173Y-123174068D01*
X130080404Y-123124065D01*
X130164065Y-123040404D01*
X130214068Y-122933173D01*
X130220500Y-122884316D01*
X130220500Y-122535684D01*
X130214068Y-122486827D01*
X130164065Y-122379596D01*
X130080404Y-122295935D01*
X130080402Y-122295933D01*
X130034886Y-122274709D01*
X130018495Y-122267066D01*
X129980232Y-122225310D01*
X129982702Y-122168727D01*
X130018495Y-122132933D01*
X130080404Y-122104065D01*
X130127295Y-122057174D01*
X130179621Y-122035500D01*
X130462079Y-122035500D01*
X130514405Y-122057174D01*
X130536079Y-122109500D01*
X130527757Y-122140558D01*
X130528651Y-122140928D01*
X130526791Y-122145417D01*
X130499500Y-122247270D01*
X130499500Y-122352729D01*
X130526791Y-122454582D01*
X130526795Y-122454591D01*
X130579520Y-122545914D01*
X130581079Y-122547945D01*
X130581412Y-122549191D01*
X130581945Y-122550113D01*
X130581698Y-122550255D01*
X130595736Y-122602653D01*
X130567415Y-122651701D01*
X130553643Y-122660058D01*
X130519597Y-122675934D01*
X130519596Y-122675934D01*
X130435935Y-122759595D01*
X130385931Y-122866828D01*
X130379500Y-122915685D01*
X130379500Y-123100232D01*
X130357826Y-123152558D01*
X129507559Y-124002826D01*
X129455233Y-124024500D01*
X124174500Y-124024500D01*
X124122174Y-124002826D01*
X124100500Y-123950500D01*
X124100500Y-123780253D01*
X124100500Y-123780252D01*
X124088867Y-123721769D01*
X124044552Y-123655448D01*
X124020685Y-123639500D01*
X123978232Y-123611133D01*
X123978233Y-123611133D01*
X123948989Y-123605316D01*
X123919748Y-123599500D01*
X120730252Y-123599500D01*
X120701010Y-123605316D01*
X120671767Y-123611133D01*
X120605449Y-123655447D01*
X120605447Y-123655449D01*
X120561133Y-123721767D01*
X120556626Y-123744427D01*
X120549500Y-123780252D01*
X120549500Y-124819748D01*
X120556327Y-124854068D01*
X120561133Y-124878232D01*
X120580610Y-124907380D01*
X120605448Y-124944552D01*
X120639144Y-124967067D01*
X120671767Y-124988866D01*
X120671768Y-124988866D01*
X120671769Y-124988867D01*
X120730252Y-125000500D01*
X120730254Y-125000500D01*
X123919746Y-125000500D01*
X123919748Y-125000500D01*
X123978231Y-124988867D01*
X124044552Y-124944552D01*
X124088867Y-124878231D01*
X124100500Y-124819748D01*
X124100500Y-124649500D01*
X124122174Y-124597174D01*
X124174500Y-124575500D01*
X129654798Y-124575500D01*
X129654800Y-124575500D01*
X129756058Y-124533557D01*
X129833557Y-124456058D01*
X129833556Y-124456058D01*
X129868517Y-124421097D01*
X129868516Y-124421097D01*
X130253175Y-124036439D01*
X130305500Y-124014766D01*
X130357826Y-124036440D01*
X130379500Y-124088766D01*
X130379500Y-124164388D01*
X130357826Y-124216714D01*
X130342500Y-124228474D01*
X130254086Y-124279520D01*
X130179520Y-124354086D01*
X130126795Y-124445408D01*
X130126791Y-124445417D01*
X130099500Y-124547270D01*
X130099500Y-124652729D01*
X130126791Y-124754582D01*
X130126795Y-124754591D01*
X130164414Y-124819748D01*
X130179520Y-124845913D01*
X130254087Y-124920480D01*
X130345413Y-124973207D01*
X130447270Y-125000499D01*
X130447271Y-125000500D01*
X130447273Y-125000500D01*
X130552729Y-125000500D01*
X130552729Y-125000499D01*
X130654587Y-124973207D01*
X130745913Y-124920480D01*
X130820480Y-124845913D01*
X130873207Y-124754587D01*
X130900500Y-124652727D01*
X130900500Y-124652721D01*
X130901133Y-124647920D01*
X130903117Y-124648181D01*
X130922174Y-124602174D01*
X130974500Y-124580500D01*
X131124314Y-124580500D01*
X131124316Y-124580500D01*
X131173173Y-124574068D01*
X131267144Y-124530247D01*
X131323725Y-124527778D01*
X131365483Y-124566041D01*
X131367953Y-124622624D01*
X131350742Y-124649641D01*
X129457559Y-126542826D01*
X129405233Y-126564500D01*
X124174500Y-126564500D01*
X124122174Y-126542826D01*
X124100500Y-126490500D01*
X124100500Y-126320253D01*
X124094914Y-126292171D01*
X124088867Y-126261769D01*
X124044552Y-126195448D01*
X124010481Y-126172682D01*
X123978232Y-126151133D01*
X123978233Y-126151133D01*
X123948989Y-126145316D01*
X123919748Y-126139500D01*
X120730252Y-126139500D01*
X120701010Y-126145316D01*
X120671767Y-126151133D01*
X120605449Y-126195447D01*
X120605447Y-126195449D01*
X120561133Y-126261767D01*
X120561133Y-126261769D01*
X120549500Y-126320252D01*
X120549500Y-127359748D01*
X120557255Y-127398736D01*
X120561133Y-127418232D01*
X120580610Y-127447380D01*
X120605448Y-127484552D01*
X120649560Y-127514027D01*
X120671767Y-127528866D01*
X120671768Y-127528866D01*
X120671769Y-127528867D01*
X120730252Y-127540500D01*
X120730254Y-127540500D01*
X123919746Y-127540500D01*
X123919748Y-127540500D01*
X123978231Y-127528867D01*
X124044552Y-127484552D01*
X124088867Y-127418231D01*
X124100500Y-127359748D01*
X124100500Y-127189500D01*
X124122174Y-127137174D01*
X124174500Y-127115500D01*
X129604798Y-127115500D01*
X129604800Y-127115500D01*
X129706058Y-127073557D01*
X129783557Y-126996058D01*
X129783556Y-126996058D01*
X129818517Y-126961097D01*
X129818516Y-126961097D01*
X131353175Y-125426439D01*
X131405500Y-125404766D01*
X131457826Y-125426440D01*
X131479500Y-125478766D01*
X131479500Y-125584314D01*
X131485931Y-125633171D01*
X131535935Y-125740405D01*
X131537112Y-125742085D01*
X131537468Y-125743691D01*
X131538671Y-125746271D01*
X131538099Y-125746537D01*
X131549371Y-125797380D01*
X131540582Y-125821528D01*
X131526794Y-125845410D01*
X131526791Y-125845417D01*
X131499500Y-125947270D01*
X131499500Y-126052729D01*
X131526791Y-126154582D01*
X131526795Y-126154591D01*
X131571845Y-126232619D01*
X131579520Y-126245913D01*
X131654087Y-126320480D01*
X131745413Y-126373207D01*
X131847270Y-126400499D01*
X131847271Y-126400500D01*
X131847273Y-126400500D01*
X131952729Y-126400500D01*
X131952729Y-126400499D01*
X132054587Y-126373207D01*
X132145913Y-126320480D01*
X132220480Y-126245913D01*
X132273207Y-126154587D01*
X132300499Y-126052729D01*
X132300500Y-126052729D01*
X132300500Y-125947273D01*
X132299676Y-125944198D01*
X132296099Y-125930849D01*
X132303490Y-125874698D01*
X132336304Y-125844629D01*
X132380402Y-125824066D01*
X132380402Y-125824065D01*
X132380404Y-125824065D01*
X132464065Y-125740404D01*
X132514068Y-125633173D01*
X132520500Y-125584316D01*
X132520500Y-125321735D01*
X132949500Y-125321735D01*
X132949500Y-125688264D01*
X132959427Y-125756393D01*
X132959427Y-125756394D01*
X133010801Y-125861482D01*
X133010802Y-125861483D01*
X133093517Y-125944198D01*
X133198607Y-125995573D01*
X133266740Y-126005500D01*
X133650500Y-126005500D01*
X133702826Y-126027174D01*
X133724500Y-126079500D01*
X133724500Y-126572273D01*
X133724500Y-126677727D01*
X133751793Y-126779588D01*
X133751795Y-126779592D01*
X133804517Y-126870909D01*
X133804518Y-126870910D01*
X133804520Y-126870913D01*
X134279519Y-127345912D01*
X134279520Y-127345913D01*
X134354087Y-127420480D01*
X134445413Y-127473207D01*
X134547270Y-127500499D01*
X134547271Y-127500500D01*
X134547273Y-127500500D01*
X134652727Y-127500500D01*
X135047273Y-127500500D01*
X135152727Y-127500500D01*
X135352727Y-127500500D01*
X135698308Y-127500500D01*
X135750634Y-127522174D01*
X135781684Y-127553224D01*
X135890513Y-127603972D01*
X135940099Y-127610500D01*
X136299900Y-127610499D01*
X136342286Y-127604919D01*
X136396991Y-127619578D01*
X136415637Y-127640617D01*
X136430280Y-127665377D01*
X136544622Y-127779719D01*
X136683803Y-127862031D01*
X136829999Y-127904505D01*
X136830000Y-127904505D01*
X137330000Y-127904505D01*
X137476196Y-127862031D01*
X137615377Y-127779719D01*
X137729719Y-127665377D01*
X137812031Y-127526196D01*
X137857144Y-127370916D01*
X137858791Y-127350000D01*
X137330000Y-127350000D01*
X137330000Y-127904505D01*
X136830000Y-127904505D01*
X136830000Y-126850000D01*
X137330000Y-126850000D01*
X137858789Y-126850000D01*
X137858790Y-126849998D01*
X137857145Y-126829089D01*
X137857145Y-126829087D01*
X137812031Y-126673803D01*
X137729719Y-126534622D01*
X137615377Y-126420280D01*
X137476196Y-126337968D01*
X137330000Y-126295494D01*
X137330000Y-126850000D01*
X136830000Y-126850000D01*
X136830000Y-126295494D01*
X136683803Y-126337968D01*
X136544622Y-126420280D01*
X136430280Y-126534622D01*
X136415636Y-126559383D01*
X136370343Y-126593388D01*
X136342285Y-126595079D01*
X136299901Y-126589500D01*
X135940100Y-126589500D01*
X135890514Y-126596027D01*
X135890512Y-126596028D01*
X135781683Y-126646776D01*
X135750634Y-126677826D01*
X135698308Y-126699500D01*
X134796545Y-126699500D01*
X134744219Y-126677826D01*
X134547174Y-126480781D01*
X134525500Y-126428455D01*
X134525500Y-126079500D01*
X134547174Y-126027174D01*
X134599500Y-126005500D01*
X134983254Y-126005500D01*
X134983260Y-126005500D01*
X135051393Y-125995573D01*
X135156483Y-125944198D01*
X135239198Y-125861483D01*
X135290573Y-125756393D01*
X135290776Y-125755000D01*
X137602704Y-125755000D01*
X137602900Y-125757493D01*
X137648718Y-125915199D01*
X137732317Y-126056556D01*
X137848443Y-126172682D01*
X137989800Y-126256281D01*
X138147508Y-126302099D01*
X138147505Y-126302099D01*
X138184359Y-126305000D01*
X138825000Y-126305000D01*
X139325000Y-126305000D01*
X139965641Y-126305000D01*
X140002493Y-126302099D01*
X140160199Y-126256281D01*
X140301556Y-126172682D01*
X140417682Y-126056556D01*
X140501281Y-125915199D01*
X140547099Y-125757493D01*
X140547296Y-125755000D01*
X139325000Y-125755000D01*
X139325000Y-126305000D01*
X138825000Y-126305000D01*
X138825000Y-125755000D01*
X137602704Y-125755000D01*
X135290776Y-125755000D01*
X135300500Y-125688260D01*
X135300500Y-125321740D01*
X135290776Y-125255000D01*
X137602704Y-125255000D01*
X138825000Y-125255000D01*
X139325000Y-125255000D01*
X140547296Y-125255000D01*
X140547099Y-125252506D01*
X140501281Y-125094800D01*
X140417682Y-124953443D01*
X140386565Y-124922326D01*
X140364891Y-124870000D01*
X140386565Y-124817674D01*
X140417682Y-124786556D01*
X140501281Y-124645199D01*
X140547099Y-124487493D01*
X140547296Y-124485000D01*
X139325000Y-124485000D01*
X139325000Y-125255000D01*
X138825000Y-125255000D01*
X138825000Y-124485000D01*
X137602704Y-124485000D01*
X137602900Y-124487493D01*
X137648718Y-124645199D01*
X137732317Y-124786556D01*
X137763435Y-124817674D01*
X137785109Y-124870000D01*
X137763435Y-124922326D01*
X137732317Y-124953443D01*
X137648718Y-125094800D01*
X137602900Y-125252506D01*
X137602704Y-125255000D01*
X135290776Y-125255000D01*
X135290573Y-125253607D01*
X135239198Y-125148517D01*
X135156483Y-125065802D01*
X135156482Y-125065801D01*
X135051394Y-125014427D01*
X134983264Y-125004500D01*
X134983260Y-125004500D01*
X133266740Y-125004500D01*
X133266735Y-125004500D01*
X133198606Y-125014427D01*
X133198605Y-125014427D01*
X133093517Y-125065801D01*
X133010801Y-125148517D01*
X132959427Y-125253605D01*
X132959427Y-125253606D01*
X132949500Y-125321735D01*
X132520500Y-125321735D01*
X132520500Y-125235684D01*
X132514068Y-125186827D01*
X132464065Y-125079596D01*
X132380404Y-124995935D01*
X132380402Y-124995933D01*
X132331664Y-124973207D01*
X132318495Y-124967066D01*
X132280232Y-124925310D01*
X132282702Y-124868727D01*
X132318495Y-124832933D01*
X132380404Y-124804065D01*
X132464065Y-124720404D01*
X132514068Y-124613173D01*
X132519114Y-124574841D01*
X132547432Y-124525792D01*
X132592481Y-124510500D01*
X132925019Y-124510500D01*
X132977345Y-124532174D01*
X132991500Y-124552000D01*
X133010801Y-124591482D01*
X133010802Y-124591483D01*
X133093517Y-124674198D01*
X133198607Y-124725573D01*
X133266740Y-124735500D01*
X133266746Y-124735500D01*
X134983254Y-124735500D01*
X134983260Y-124735500D01*
X135051393Y-124725573D01*
X135156483Y-124674198D01*
X135239198Y-124591483D01*
X135290573Y-124486393D01*
X135300500Y-124418260D01*
X135300500Y-124051740D01*
X135290776Y-123985000D01*
X137602704Y-123985000D01*
X138825000Y-123985000D01*
X139325000Y-123985000D01*
X140547296Y-123985000D01*
X140547099Y-123982506D01*
X140501281Y-123824800D01*
X140417682Y-123683443D01*
X140386565Y-123652326D01*
X140364891Y-123600000D01*
X140386565Y-123547674D01*
X140417682Y-123516556D01*
X140501281Y-123375199D01*
X140547099Y-123217493D01*
X140547296Y-123215000D01*
X139325000Y-123215000D01*
X139325000Y-123985000D01*
X138825000Y-123985000D01*
X138825000Y-123215000D01*
X137602704Y-123215000D01*
X137602900Y-123217493D01*
X137648718Y-123375199D01*
X137732317Y-123516556D01*
X137763435Y-123547674D01*
X137785109Y-123600000D01*
X137763435Y-123652326D01*
X137732317Y-123683443D01*
X137648718Y-123824800D01*
X137602900Y-123982506D01*
X137602704Y-123985000D01*
X135290776Y-123985000D01*
X135290573Y-123983607D01*
X135239198Y-123878517D01*
X135156483Y-123795802D01*
X135156482Y-123795801D01*
X135051394Y-123744427D01*
X134983264Y-123734500D01*
X134983260Y-123734500D01*
X133266740Y-123734500D01*
X133266735Y-123734500D01*
X133198606Y-123744427D01*
X133198605Y-123744427D01*
X133093517Y-123795801D01*
X133010801Y-123878517D01*
X132991500Y-123918000D01*
X132949047Y-123955490D01*
X132925019Y-123959500D01*
X132361565Y-123959500D01*
X132330291Y-123952567D01*
X132273173Y-123925932D01*
X132273171Y-123925931D01*
X132237178Y-123921193D01*
X132224316Y-123919500D01*
X131775684Y-123919500D01*
X131764318Y-123920996D01*
X131726828Y-123925931D01*
X131619595Y-123975935D01*
X131546826Y-124048705D01*
X131494500Y-124070379D01*
X131442174Y-124048705D01*
X131420500Y-123996379D01*
X131420500Y-123935685D01*
X131416624Y-123906239D01*
X131414068Y-123886827D01*
X131364065Y-123779596D01*
X131280404Y-123695935D01*
X131280402Y-123695933D01*
X131225816Y-123670480D01*
X131218495Y-123667066D01*
X131180232Y-123625310D01*
X131182702Y-123568727D01*
X131218495Y-123532933D01*
X131280404Y-123504065D01*
X131364065Y-123420404D01*
X131414068Y-123313173D01*
X131415165Y-123304841D01*
X131443484Y-123255792D01*
X131488532Y-123240500D01*
X132925019Y-123240500D01*
X132977345Y-123262174D01*
X132991500Y-123282000D01*
X133010801Y-123321482D01*
X133010802Y-123321483D01*
X133093517Y-123404198D01*
X133198607Y-123455573D01*
X133266740Y-123465500D01*
X133266746Y-123465500D01*
X134983254Y-123465500D01*
X134983260Y-123465500D01*
X135051393Y-123455573D01*
X135156483Y-123404198D01*
X135239198Y-123321483D01*
X135290573Y-123216393D01*
X135300500Y-123148260D01*
X135300500Y-122781740D01*
X135290776Y-122715000D01*
X137602704Y-122715000D01*
X138825000Y-122715000D01*
X139325000Y-122715000D01*
X140547296Y-122715000D01*
X140547099Y-122712506D01*
X140501281Y-122554800D01*
X140417682Y-122413443D01*
X140386565Y-122382326D01*
X140364891Y-122330000D01*
X140386565Y-122277674D01*
X140417682Y-122246556D01*
X140501281Y-122105199D01*
X140547099Y-121947493D01*
X140547296Y-121945000D01*
X139325000Y-121945000D01*
X139325000Y-122715000D01*
X138825000Y-122715000D01*
X138825000Y-121945000D01*
X137602704Y-121945000D01*
X137602900Y-121947493D01*
X137648718Y-122105199D01*
X137732317Y-122246556D01*
X137763435Y-122277674D01*
X137785109Y-122330000D01*
X137763435Y-122382326D01*
X137732317Y-122413443D01*
X137648718Y-122554800D01*
X137602900Y-122712506D01*
X137602704Y-122715000D01*
X135290776Y-122715000D01*
X135290573Y-122713607D01*
X135239198Y-122608517D01*
X135156483Y-122525802D01*
X135156482Y-122525801D01*
X135051394Y-122474427D01*
X134983264Y-122464500D01*
X134983260Y-122464500D01*
X133266740Y-122464500D01*
X133266735Y-122464500D01*
X133198606Y-122474427D01*
X133198605Y-122474427D01*
X133093517Y-122525801D01*
X133010801Y-122608517D01*
X132991500Y-122648000D01*
X132949047Y-122685490D01*
X132925019Y-122689500D01*
X131323110Y-122689500D01*
X131290286Y-122681822D01*
X131282376Y-122677907D01*
X131280404Y-122675935D01*
X131245582Y-122659697D01*
X131244806Y-122659313D01*
X131226694Y-122638601D01*
X131208093Y-122618301D01*
X131208133Y-122617375D01*
X131207523Y-122616677D01*
X131209363Y-122589203D01*
X131210563Y-122561717D01*
X131211283Y-122560529D01*
X131211308Y-122560167D01*
X131211725Y-122559802D01*
X131218925Y-122547939D01*
X131220476Y-122545916D01*
X131220480Y-122545913D01*
X131273207Y-122454587D01*
X131300499Y-122352729D01*
X131300500Y-122352729D01*
X131300500Y-122247271D01*
X131300499Y-122247270D01*
X131300140Y-122245932D01*
X131273207Y-122145413D01*
X131273204Y-122145408D01*
X131271349Y-122140928D01*
X131273009Y-122140240D01*
X131266444Y-122090342D01*
X131300925Y-122045412D01*
X131337921Y-122035500D01*
X132964168Y-122035500D01*
X133016492Y-122057173D01*
X133093517Y-122134198D01*
X133198607Y-122185573D01*
X133266740Y-122195500D01*
X133266746Y-122195500D01*
X134983254Y-122195500D01*
X134983260Y-122195500D01*
X135051393Y-122185573D01*
X135156483Y-122134198D01*
X135239198Y-122051483D01*
X135290573Y-121946393D01*
X135300500Y-121878260D01*
X135300500Y-121511740D01*
X135290776Y-121445000D01*
X137602704Y-121445000D01*
X138825000Y-121445000D01*
X139325000Y-121445000D01*
X140547296Y-121445000D01*
X140547099Y-121442506D01*
X140501281Y-121284800D01*
X140417682Y-121143443D01*
X140301556Y-121027317D01*
X140160199Y-120943718D01*
X140002491Y-120897900D01*
X140002494Y-120897900D01*
X139965641Y-120895000D01*
X139325000Y-120895000D01*
X139325000Y-121445000D01*
X138825000Y-121445000D01*
X138825000Y-120895000D01*
X138184359Y-120895000D01*
X138147506Y-120897900D01*
X137989800Y-120943718D01*
X137848443Y-121027317D01*
X137732317Y-121143443D01*
X137648718Y-121284800D01*
X137602900Y-121442506D01*
X137602704Y-121445000D01*
X135290776Y-121445000D01*
X135290573Y-121443607D01*
X135239198Y-121338517D01*
X135156483Y-121255802D01*
X135156482Y-121255801D01*
X135051394Y-121204427D01*
X134983264Y-121194500D01*
X134983260Y-121194500D01*
X133266740Y-121194500D01*
X133266735Y-121194500D01*
X133198606Y-121204427D01*
X133198605Y-121204427D01*
X133093517Y-121255801D01*
X133010801Y-121338517D01*
X132959724Y-121443000D01*
X132917271Y-121480490D01*
X132893243Y-121484500D01*
X131326374Y-121484500D01*
X131274048Y-121462826D01*
X131252374Y-121410500D01*
X131262288Y-121373501D01*
X131273203Y-121354595D01*
X131273204Y-121354591D01*
X131273207Y-121354587D01*
X131300499Y-121252729D01*
X131300500Y-121252729D01*
X131300500Y-121147271D01*
X131300499Y-121147270D01*
X131291972Y-121115448D01*
X131273207Y-121045413D01*
X131220480Y-120954087D01*
X131197174Y-120930781D01*
X131175500Y-120878455D01*
X131175500Y-115545200D01*
X131133557Y-115443943D01*
X131133557Y-115443942D01*
X131056058Y-115366443D01*
X130256058Y-114566443D01*
X130256057Y-114566442D01*
X130226228Y-114554087D01*
X130226226Y-114554086D01*
X130154800Y-114524500D01*
X130154799Y-114524500D01*
X128021545Y-114524500D01*
X127969219Y-114502826D01*
X127945913Y-114479520D01*
X127854591Y-114426795D01*
X127854582Y-114426791D01*
X127752729Y-114399500D01*
X127752727Y-114399500D01*
X127647273Y-114399500D01*
X127647271Y-114399500D01*
X127545417Y-114426791D01*
X127545408Y-114426795D01*
X127454086Y-114479520D01*
X127379520Y-114554086D01*
X127326795Y-114645408D01*
X127326791Y-114645417D01*
X127299500Y-114747270D01*
X127299500Y-114852729D01*
X127326791Y-114954582D01*
X127326792Y-114954585D01*
X127326793Y-114954587D01*
X127379520Y-115045913D01*
X127454087Y-115120480D01*
X127480820Y-115135914D01*
X127515298Y-115180848D01*
X127507905Y-115237001D01*
X127480820Y-115264086D01*
X127454085Y-115279521D01*
X127379520Y-115354086D01*
X127326795Y-115445408D01*
X127326791Y-115445417D01*
X127299500Y-115547270D01*
X127299500Y-115652729D01*
X127326791Y-115754582D01*
X127326792Y-115754585D01*
X127326793Y-115754587D01*
X127379520Y-115845913D01*
X127454087Y-115920480D01*
X127545413Y-115973207D01*
X127647270Y-116000499D01*
X127647271Y-116000500D01*
X127647273Y-116000500D01*
X127752729Y-116000500D01*
X127752729Y-116000499D01*
X127854587Y-115973207D01*
X127945913Y-115920480D01*
X127969219Y-115897174D01*
X128021545Y-115875500D01*
X128955233Y-115875500D01*
X129007559Y-115897174D01*
X129402826Y-116292441D01*
X129424500Y-116344767D01*
X129424500Y-121179873D01*
X129402826Y-121232199D01*
X129381774Y-121246940D01*
X129319597Y-121275934D01*
X129319596Y-121275934D01*
X129235935Y-121359595D01*
X129235935Y-121359596D01*
X129197614Y-121441774D01*
X129155858Y-121480037D01*
X129130548Y-121484500D01*
X124174500Y-121484500D01*
X124122174Y-121462826D01*
X124100500Y-121410500D01*
X124100500Y-121240253D01*
X124091399Y-121194500D01*
X124088867Y-121181769D01*
X124044552Y-121115448D01*
X124022343Y-121100608D01*
X123978232Y-121071133D01*
X123978233Y-121071133D01*
X123948989Y-121065316D01*
X123919748Y-121059500D01*
X120730252Y-121059500D01*
X120701010Y-121065316D01*
X120671767Y-121071133D01*
X120605449Y-121115447D01*
X120605447Y-121115449D01*
X120561133Y-121181767D01*
X120556626Y-121204427D01*
X120549500Y-121240252D01*
X119350000Y-121240252D01*
X119350000Y-121212171D01*
X119343597Y-121152624D01*
X119343596Y-121152619D01*
X119293354Y-121017912D01*
X119293353Y-121017911D01*
X119207188Y-120902811D01*
X119092088Y-120816646D01*
X119092087Y-120816645D01*
X118957380Y-120766403D01*
X118957375Y-120766402D01*
X118897829Y-120760000D01*
X117525000Y-120760000D01*
X117525000Y-121510000D01*
X117025000Y-121510000D01*
X117025000Y-120760000D01*
X115652171Y-120760000D01*
X115592624Y-120766402D01*
X115592619Y-120766403D01*
X115457912Y-120816645D01*
X115457911Y-120816646D01*
X115342811Y-120902811D01*
X115256646Y-121017911D01*
X115256645Y-121017912D01*
X115206403Y-121152619D01*
X115206402Y-121152624D01*
X115200000Y-121212171D01*
X108150500Y-121212171D01*
X108150500Y-118004871D01*
X119719500Y-118004871D01*
X119719500Y-118125128D01*
X119742959Y-118243069D01*
X119742961Y-118243076D01*
X119788981Y-118354179D01*
X119788982Y-118354180D01*
X119855794Y-118454171D01*
X119940829Y-118539206D01*
X120040820Y-118606018D01*
X120151924Y-118652039D01*
X120269871Y-118675500D01*
X120269872Y-118675500D01*
X120390128Y-118675500D01*
X120390129Y-118675500D01*
X120508076Y-118652039D01*
X120619180Y-118606018D01*
X120719171Y-118539206D01*
X120804206Y-118454171D01*
X120871018Y-118354180D01*
X120917039Y-118243076D01*
X120940500Y-118125129D01*
X120940500Y-118004871D01*
X120917039Y-117886924D01*
X120871018Y-117775820D01*
X120804206Y-117675829D01*
X120719171Y-117590794D01*
X120619180Y-117523982D01*
X120619181Y-117523982D01*
X120619179Y-117523981D01*
X120508076Y-117477961D01*
X120508069Y-117477959D01*
X120419215Y-117460285D01*
X120390129Y-117454500D01*
X120269871Y-117454500D01*
X120246538Y-117459141D01*
X120151930Y-117477959D01*
X120151923Y-117477961D01*
X120040820Y-117523981D01*
X119940832Y-117590791D01*
X119855791Y-117675832D01*
X119788981Y-117775820D01*
X119742961Y-117886923D01*
X119742959Y-117886930D01*
X119719500Y-118004871D01*
X108150500Y-118004871D01*
X108150500Y-111850000D01*
X152230069Y-111850000D01*
X152232833Y-111885126D01*
X152277594Y-112039193D01*
X152359264Y-112177289D01*
X152472710Y-112290735D01*
X152610806Y-112372405D01*
X152749999Y-112412845D01*
X152750000Y-112412845D01*
X152750000Y-111850000D01*
X152230069Y-111850000D01*
X108150500Y-111850000D01*
X108150500Y-111350000D01*
X152230069Y-111350000D01*
X152750000Y-111350000D01*
X152750000Y-110787154D01*
X152610805Y-110827594D01*
X152472710Y-110909264D01*
X152359264Y-111022710D01*
X152277594Y-111160806D01*
X152232833Y-111314873D01*
X152230069Y-111350000D01*
X108150500Y-111350000D01*
X108150500Y-81874871D01*
X119719500Y-81874871D01*
X119719500Y-81995128D01*
X119742959Y-82113069D01*
X119742961Y-82113076D01*
X119788981Y-82224179D01*
X119788982Y-82224180D01*
X119855794Y-82324171D01*
X119940829Y-82409206D01*
X120040820Y-82476018D01*
X120151924Y-82522039D01*
X120269871Y-82545500D01*
X120269872Y-82545500D01*
X120390128Y-82545500D01*
X120390129Y-82545500D01*
X120508076Y-82522039D01*
X120619180Y-82476018D01*
X120719171Y-82409206D01*
X120804206Y-82324171D01*
X120871018Y-82224180D01*
X120917039Y-82113076D01*
X120940500Y-81995129D01*
X120940500Y-81874871D01*
X189719500Y-81874871D01*
X189719500Y-81995128D01*
X189742959Y-82113069D01*
X189742961Y-82113076D01*
X189788981Y-82224179D01*
X189788982Y-82224180D01*
X189855794Y-82324171D01*
X189940829Y-82409206D01*
X190040820Y-82476018D01*
X190151924Y-82522039D01*
X190269871Y-82545500D01*
X190269872Y-82545500D01*
X190390128Y-82545500D01*
X190390129Y-82545500D01*
X190508076Y-82522039D01*
X190619180Y-82476018D01*
X190719171Y-82409206D01*
X190804206Y-82324171D01*
X190871018Y-82224180D01*
X190917039Y-82113076D01*
X190940500Y-81995129D01*
X190940500Y-81874871D01*
X190917039Y-81756924D01*
X190871018Y-81645820D01*
X190804206Y-81545829D01*
X190719171Y-81460794D01*
X190619180Y-81393982D01*
X190619181Y-81393982D01*
X190619179Y-81393981D01*
X190508076Y-81347961D01*
X190508069Y-81347959D01*
X190419215Y-81330285D01*
X190390129Y-81324500D01*
X190269871Y-81324500D01*
X190246538Y-81329141D01*
X190151930Y-81347959D01*
X190151923Y-81347961D01*
X190040820Y-81393981D01*
X189940832Y-81460791D01*
X189855791Y-81545832D01*
X189788981Y-81645820D01*
X189742961Y-81756923D01*
X189742959Y-81756930D01*
X189719500Y-81874871D01*
X120940500Y-81874871D01*
X120917039Y-81756924D01*
X120871018Y-81645820D01*
X120804206Y-81545829D01*
X120719171Y-81460794D01*
X120619180Y-81393982D01*
X120619181Y-81393982D01*
X120619179Y-81393981D01*
X120508076Y-81347961D01*
X120508069Y-81347959D01*
X120419215Y-81330285D01*
X120390129Y-81324500D01*
X120269871Y-81324500D01*
X120246538Y-81329141D01*
X120151930Y-81347959D01*
X120151923Y-81347961D01*
X120040820Y-81393981D01*
X119940832Y-81460791D01*
X119855791Y-81545832D01*
X119788981Y-81645820D01*
X119742961Y-81756923D01*
X119742959Y-81756930D01*
X119719500Y-81874871D01*
X108150500Y-81874871D01*
X108150500Y-80002083D01*
X108150616Y-79997934D01*
X108152181Y-79970064D01*
X108168184Y-79685092D01*
X108169114Y-79676852D01*
X108178718Y-79620332D01*
X108221247Y-79370020D01*
X108223092Y-79361937D01*
X108309258Y-79062846D01*
X108311988Y-79055044D01*
X108386964Y-78874036D01*
X151399500Y-78874036D01*
X151399500Y-79125963D01*
X151438909Y-79374782D01*
X151438912Y-79374795D01*
X151516756Y-79614373D01*
X151631129Y-79838845D01*
X151749729Y-80002083D01*
X151779207Y-80042656D01*
X151957344Y-80220793D01*
X151957347Y-80220795D01*
X151957348Y-80220796D01*
X152161154Y-80368870D01*
X152249820Y-80414047D01*
X152385621Y-80483241D01*
X152385623Y-80483241D01*
X152385626Y-80483243D01*
X152625204Y-80561087D01*
X152625210Y-80561088D01*
X152625215Y-80561090D01*
X152749626Y-80580795D01*
X152874036Y-80600500D01*
X152874038Y-80600500D01*
X153125964Y-80600500D01*
X153225491Y-80584736D01*
X153374785Y-80561090D01*
X153374792Y-80561087D01*
X153374795Y-80561087D01*
X153614373Y-80483243D01*
X153614373Y-80483242D01*
X153614379Y-80483241D01*
X153838845Y-80368870D01*
X154042656Y-80220793D01*
X154220793Y-80042656D01*
X154368870Y-79838845D01*
X154483241Y-79614379D01*
X154561090Y-79374785D01*
X154600500Y-79125962D01*
X154600500Y-78874038D01*
X154599767Y-78869412D01*
X154567934Y-78668426D01*
X154561090Y-78625215D01*
X154561088Y-78625210D01*
X154561087Y-78625204D01*
X154483243Y-78385626D01*
X154483241Y-78385623D01*
X154483241Y-78385621D01*
X154423995Y-78269345D01*
X154368870Y-78161154D01*
X154220796Y-77957348D01*
X154220795Y-77957347D01*
X154220793Y-77957344D01*
X154042656Y-77779207D01*
X154042653Y-77779204D01*
X154042651Y-77779203D01*
X153838845Y-77631129D01*
X153614373Y-77516756D01*
X153374795Y-77438912D01*
X153374782Y-77438909D01*
X153125964Y-77399500D01*
X153125962Y-77399500D01*
X152874038Y-77399500D01*
X152874036Y-77399500D01*
X152625217Y-77438909D01*
X152625204Y-77438912D01*
X152385626Y-77516756D01*
X152161154Y-77631129D01*
X151957348Y-77779203D01*
X151779203Y-77957348D01*
X151631129Y-78161154D01*
X151516756Y-78385626D01*
X151438912Y-78625204D01*
X151438909Y-78625217D01*
X151399500Y-78874036D01*
X108386964Y-78874036D01*
X108431098Y-78767488D01*
X108434694Y-78760019D01*
X108585259Y-78487593D01*
X108589656Y-78480595D01*
X108769769Y-78226750D01*
X108774927Y-78220281D01*
X108982342Y-77988183D01*
X108988183Y-77982342D01*
X109220281Y-77774927D01*
X109226750Y-77769769D01*
X109480595Y-77589656D01*
X109487593Y-77585259D01*
X109760019Y-77434694D01*
X109767481Y-77431100D01*
X110055044Y-77311988D01*
X110062846Y-77309258D01*
X110361945Y-77223090D01*
X110370020Y-77221247D01*
X110676860Y-77169113D01*
X110685092Y-77168184D01*
X110997934Y-77150615D01*
X111002083Y-77150500D01*
X111034351Y-77150500D01*
X162128124Y-77150500D01*
X162180450Y-77172174D01*
G37*
%TD.AperFunction*%
%TD*%
M02*
