M48
; DRILL file {KiCad 9.0.3} date 2026-03-16T13:33:44-0400
; FORMAT={-:-/ absolute / inch / decimal}
; #@! TF.CreationDate,2026-03-16T13:33:44-04:00
; #@! TF.GenerationSoftware,Kicad,Pcbnew,9.0.3
; #@! TF.FileFunction,Plated,1,4,PTH
FMAT,2
INCH
; #@! TA.AperFunction,Plated,PTH,ViaDrill
T1C0.0118
; #@! TA.AperFunction,Plated,PTH,ComponentDrill
T2C0.0177
; #@! TA.AperFunction,Plated,PTH,ComponentDrill
T3C0.0276
; #@! TA.AperFunction,Plated,PTH,ComponentDrill
T4C0.0787
%
G90
G05
T1
X4.4528Y-3.7165
X4.4594Y-4.4291
X4.4685Y-3.2165
X4.4803Y-5.2717
X4.6496Y-4.5709
X4.7126Y-4.8701
X4.7126Y-4.8898
X4.7559Y-4.7638
X4.811Y-4.7087
X4.8602Y-4.6594
X4.9252Y-4.7047
X4.9252Y-4.7598
X4.9553Y-4.5881
X5.0276Y-4.5433
X5.0748Y-3.9213
X5.0748Y-5.2598
X5.0787Y-3.6378
X5.0787Y-4.2126
X5.0837Y-3.3494
X5.0945Y-4.5177
X5.2598Y-4.6063
X5.315Y-3.1811
X5.3602Y-3.9222
X5.4252Y-4.9134
X5.4488Y-3.6378
X5.4606Y-4.2047
X5.4665Y-3.3258
X5.5394Y-4.0059
X5.5866Y-5.2362
X5.6398Y-4.4931
X5.7205Y-3.8061
X5.8071Y-3.5049
X5.8307Y-4.4449
X5.8425Y-3.1929
X5.8809Y-4.831
X5.9705Y-4.4016
X6.0236Y-3.7008
X6.0236Y-3.7402
X6.0236Y-3.7795
X6.0236Y-3.8189
X6.0236Y-3.878
X6.0236Y-3.9173
X6.0236Y-3.9567
X6.0236Y-3.9961
X6.0236Y-4.0354
X6.0236Y-4.0748
X6.0236Y-4.1142
X6.0236Y-4.1535
X6.0236Y-4.2126
X6.0236Y-4.252
X6.0236Y-4.2913
X6.0236Y-4.3307
X6.0394Y-3.6181
X6.0394Y-3.6811
X6.0394Y-3.7205
X6.0394Y-3.7598
X6.0394Y-3.7992
X6.0394Y-3.8583
X6.0394Y-3.8976
X6.0394Y-3.937
X6.0394Y-3.9764
X6.0394Y-4.0551
X6.0394Y-4.0945
X6.0394Y-4.1339
X6.0394Y-4.1732
X6.0394Y-4.2323
X6.0394Y-4.2717
X6.0394Y-4.311
X6.0394Y-4.3504
X6.0551Y-4.3839
X6.0945Y-4.5236
X6.1024Y-3.7244
X6.122Y-4.3346
X6.1299Y-3.7323
X6.1575Y-3.311
X6.1614Y-3.7244
X6.1614Y-4.3031
X6.1614Y-4.3661
X6.2205Y-3.5197
X6.2205Y-3.7677
X6.2205Y-4.185
X6.2362Y-4.4016
X6.2638Y-5.2717
X6.2668Y-4.7998
X6.2756Y-4.311
X6.2795Y-3.7283
X6.3071Y-4.311
X6.374Y-3.6417
X6.3819Y-3.0827
X6.3819Y-4.5315
X6.4016Y-3.6811
X6.4016Y-3.7205
X6.4016Y-3.7598
X6.4016Y-3.7992
X6.4016Y-3.8583
X6.4016Y-3.8976
X6.4016Y-3.937
X6.4016Y-3.9764
X6.4016Y-4.0571
X6.4016Y-4.0965
X6.4016Y-4.1358
X6.4016Y-4.1752
X6.4016Y-4.2343
X6.4016Y-4.2736
X6.4016Y-4.313
X6.4016Y-4.3524
X6.4173Y-3.7008
X6.4173Y-3.7402
X6.4173Y-3.7795
X6.4173Y-3.8189
X6.4173Y-3.878
X6.4173Y-3.9173
X6.4173Y-3.9567
X6.4173Y-3.9961
X6.4173Y-4.0374
X6.4173Y-4.0768
X6.4173Y-4.1161
X6.4173Y-4.1555
X6.4173Y-4.2146
X6.4173Y-4.2539
X6.4173Y-4.2933
X6.4173Y-4.3327
X6.4764Y-4.3976
X6.4961Y-5.0472
X6.5276Y-3.1693
X6.5787Y-4.7008
X6.6132Y-3.5069
X6.6772Y-4.5098
X6.7953Y-3.811
X6.8109Y-4.8824
X6.8317Y-3.3366
X6.8504Y-5.315
X6.9016Y-4.2047
X6.9284Y-4.5064
X6.9606Y-3.6398
X7.0069Y-4.0049
X7.0197Y-4.6339
X7.0945Y-3.2205
X7.1545Y-3.9242
X7.1614Y-4.4921
X7.2126Y-4.9173
X7.2323Y-5.2087
X7.2717Y-4.689
X7.2835Y-3.0669
X7.3386Y-4.5
X7.3514Y-3.3337
X7.3701Y-3.9213
X7.3819Y-3.6417
X7.3819Y-4.2047
X7.4094Y-4.7559
X7.5Y-4.8031
X7.5079Y-4.9528
X7.5866Y-4.7874
X7.5866Y-5.0433
X7.6477Y-3.2265
X7.6535Y-4.8268
X7.6654Y-5.0
X7.6654Y-5.1417
X7.7717Y-4.8425
X7.8189Y-3.3386
X7.8299Y-4.7683
X7.9291Y-3.2559
X7.9331Y-3.7323
X7.9409Y-4.1614
X7.9646Y-4.6535
X8.1181Y-3.1299
X8.1299Y-5.3031
X8.1339Y-4.8543
X8.1515Y-4.0227
T2
X7.374Y-4.9567
X7.4016Y-4.9291
X7.4016Y-4.9843
T3
X7.7559Y-4.9567
X7.7953Y-4.9173
X7.7953Y-4.9961
T4
X7.4016Y-5.315
X7.7953Y-5.315
M30
