%TF.GenerationSoftware,KiCad,Pcbnew,9.0.6*%
%TF.CreationDate,2026-03-23T09:38:18-04:00*%
%TF.ProjectId,ephys-test-module-64,65706879-732d-4746-9573-742d6d6f6475,F*%
%TF.SameCoordinates,PX66ff300PY82a7440*%
%TF.FileFunction,Soldermask,Bot*%
%TF.FilePolarity,Negative*%
%FSLAX46Y46*%
G04 Gerber Fmt 4.6, Leading zero omitted, Abs format (unit mm)*
G04 Created by KiCad (PCBNEW 9.0.6) date 2026-03-23 09:38:18*
%MOMM*%
%LPD*%
G01*
G04 APERTURE LIST*
G04 Aperture macros list*
%AMRoundRect*
0 Rectangle with rounded corners*
0 $1 Rounding radius*
0 $2 $3 $4 $5 $6 $7 $8 $9 X,Y pos of 4 corners*
0 Add a 4 corners polygon primitive as box body*
4,1,4,$2,$3,$4,$5,$6,$7,$8,$9,$2,$3,0*
0 Add four circle primitives for the rounded corners*
1,1,$1+$1,$2,$3*
1,1,$1+$1,$4,$5*
1,1,$1+$1,$6,$7*
1,1,$1+$1,$8,$9*
0 Add four rect primitives between the rounded corners*
20,1,$1+$1,$2,$3,$4,$5,0*
20,1,$1+$1,$4,$5,$6,$7,0*
20,1,$1+$1,$6,$7,$8,$9,0*
20,1,$1+$1,$8,$9,$2,$3,0*%
G04 Aperture macros list end*
%ADD10C,3.000000*%
%ADD11RoundRect,0.200000X-0.282843X0.000000X0.000000X-0.282843X0.282843X0.000000X0.000000X0.282843X0*%
%ADD12C,0.800000*%
%ADD13RoundRect,0.275000X-0.388909X0.000000X0.000000X-0.388909X0.388909X0.000000X0.000000X0.388909X0*%
%ADD14C,1.100000*%
%ADD15R,0.800000X0.300000*%
%ADD16C,1.020000*%
%ADD17R,2.273000X0.410000*%
%ADD18RoundRect,0.135000X-0.135000X-0.185000X0.135000X-0.185000X0.135000X0.185000X-0.135000X0.185000X0*%
G04 APERTURE END LIST*
D10*
%TO.C,TP1*%
X80000000Y2000000D03*
%TD*%
%TO.C,TP2*%
X90000000Y2000000D03*
%TD*%
D11*
%TO.C,LD1*%
X80000000Y11800000D03*
D12*
X79300000Y11100000D03*
X80000000Y10400000D03*
%TD*%
D13*
%TO.C,LD2*%
X90000000Y12100000D03*
D14*
X89000000Y11100000D03*
X90000000Y10100000D03*
%TD*%
D15*
%TO.C,RN8*%
X55700000Y35500000D03*
X55700000Y36000000D03*
X55700000Y36500000D03*
X55700000Y37000000D03*
X55700000Y37500000D03*
X55700000Y38000000D03*
X55700000Y38500000D03*
X55700000Y39000000D03*
X57500000Y39000000D03*
X57500000Y38500000D03*
X57500000Y38000000D03*
X57500000Y37500000D03*
X57500000Y37000000D03*
X57500000Y36500000D03*
X57500000Y36000000D03*
X57500000Y35500000D03*
%TD*%
D16*
%TO.C,J2*%
X12330000Y55065000D03*
X12330000Y18935000D03*
D17*
X17863500Y52600000D03*
X12136500Y52600000D03*
X17863500Y51800000D03*
X12136500Y51800000D03*
X17863500Y51000000D03*
X12136500Y51000000D03*
X17863500Y50200000D03*
X12136500Y50200000D03*
X17863500Y49400000D03*
X12136500Y49400000D03*
X17863500Y48600000D03*
X12136500Y48600000D03*
X17863500Y47800000D03*
X12136500Y47800000D03*
X17863500Y47000000D03*
X12136500Y47000000D03*
X17863500Y46200000D03*
X12136500Y46200000D03*
X17863500Y45400000D03*
X12136500Y45400000D03*
X17863500Y44600000D03*
X12136500Y44600000D03*
X17863500Y43800000D03*
X12136500Y43800000D03*
X17863500Y43000000D03*
X12136500Y43000000D03*
X17863500Y42200000D03*
X12136500Y42200000D03*
X17863500Y41400000D03*
X12136500Y41400000D03*
X17863500Y40600000D03*
X12136500Y40600000D03*
X17863500Y39800000D03*
X12136500Y39800000D03*
X17863500Y39000000D03*
X12136500Y39000000D03*
X17863500Y38200000D03*
X12136500Y38200000D03*
X17863500Y37400000D03*
X12136500Y37400000D03*
X17863500Y36600000D03*
X12136500Y36600000D03*
X17863500Y35800000D03*
X12136500Y35800000D03*
X17863500Y35000000D03*
X12136500Y35000000D03*
X17863500Y34200000D03*
X12136500Y34200000D03*
X17863500Y33400000D03*
X12136500Y33400000D03*
X17863500Y32600000D03*
X12136500Y32600000D03*
X17863500Y31800000D03*
X12136500Y31800000D03*
X17863500Y31000000D03*
X12136500Y31000000D03*
X17863500Y30200000D03*
X12136500Y30200000D03*
X17863500Y29400000D03*
X12136500Y29400000D03*
X17863500Y28600000D03*
X12136500Y28600000D03*
X17863500Y27800000D03*
X12136500Y27800000D03*
X17863500Y27000000D03*
X12136500Y27000000D03*
X17863500Y26200000D03*
X12136500Y26200000D03*
X17863500Y25400000D03*
X12136500Y25400000D03*
X17863500Y24600000D03*
X12136500Y24600000D03*
X17863500Y23800000D03*
X12136500Y23800000D03*
X17863500Y23000000D03*
X12136500Y23000000D03*
X17863500Y22200000D03*
X12136500Y22200000D03*
X17863500Y21400000D03*
X12136500Y21400000D03*
%TD*%
D18*
%TO.C,R4*%
X48590000Y25200000D03*
X49610000Y25200000D03*
%TD*%
D15*
%TO.C,RN2*%
X42500000Y31000000D03*
X42500000Y31500000D03*
X42500000Y32000000D03*
X42500000Y32500000D03*
X42500000Y33000000D03*
X42500000Y33500000D03*
X42500000Y34000000D03*
X42500000Y34500000D03*
X44300000Y34500000D03*
X44300000Y34000000D03*
X44300000Y33500000D03*
X44300000Y33000000D03*
X44300000Y32500000D03*
X44300000Y32000000D03*
X44300000Y31500000D03*
X44300000Y31000000D03*
%TD*%
%TO.C,RN3*%
X42500000Y35500000D03*
X42500000Y36000000D03*
X42500000Y36500000D03*
X42500000Y37000000D03*
X42500000Y37500000D03*
X42500000Y38000000D03*
X42500000Y38500000D03*
X42500000Y39000000D03*
X44300000Y39000000D03*
X44300000Y38500000D03*
X44300000Y38000000D03*
X44300000Y37500000D03*
X44300000Y37000000D03*
X44300000Y36500000D03*
X44300000Y36000000D03*
X44300000Y35500000D03*
%TD*%
%TO.C,RN7*%
X55700000Y26450000D03*
X55700000Y26950000D03*
X55700000Y27450000D03*
X55700000Y27950000D03*
X55700000Y28450000D03*
X55700000Y28950000D03*
X55700000Y29450000D03*
X55700000Y29950000D03*
X57500000Y29950000D03*
X57500000Y29450000D03*
X57500000Y28950000D03*
X57500000Y28450000D03*
X57500000Y27950000D03*
X57500000Y27450000D03*
X57500000Y26950000D03*
X57500000Y26450000D03*
%TD*%
%TO.C,RN5*%
X55700000Y30950000D03*
X55700000Y31450000D03*
X55700000Y31950000D03*
X55700000Y32450000D03*
X55700000Y32950000D03*
X55700000Y33450000D03*
X55700000Y33950000D03*
X55700000Y34450000D03*
X57500000Y34450000D03*
X57500000Y33950000D03*
X57500000Y33450000D03*
X57500000Y32950000D03*
X57500000Y32450000D03*
X57500000Y31950000D03*
X57500000Y31450000D03*
X57500000Y30950000D03*
%TD*%
%TO.C,RN6*%
X55700000Y40000000D03*
X55700000Y40500000D03*
X55700000Y41000000D03*
X55700000Y41500000D03*
X55700000Y42000000D03*
X55700000Y42500000D03*
X55700000Y43000000D03*
X55700000Y43500000D03*
X57500000Y43500000D03*
X57500000Y43000000D03*
X57500000Y42500000D03*
X57500000Y42000000D03*
X57500000Y41500000D03*
X57500000Y41000000D03*
X57500000Y40500000D03*
X57500000Y40000000D03*
%TD*%
%TO.C,RN4*%
X42500000Y40000000D03*
X42500000Y40500000D03*
X42500000Y41000000D03*
X42500000Y41500000D03*
X42500000Y42000000D03*
X42500000Y42500000D03*
X42500000Y43000000D03*
X42500000Y43500000D03*
X44300000Y43500000D03*
X44300000Y43000000D03*
X44300000Y42500000D03*
X44300000Y42000000D03*
X44300000Y41500000D03*
X44300000Y41000000D03*
X44300000Y40500000D03*
X44300000Y40000000D03*
%TD*%
D16*
%TO.C,J3*%
X82330000Y55065000D03*
X82330000Y18935000D03*
D17*
X87863500Y52600000D03*
X82136500Y52600000D03*
X87863500Y51800000D03*
X82136500Y51800000D03*
X87863500Y51000000D03*
X82136500Y51000000D03*
X87863500Y50200000D03*
X82136500Y50200000D03*
X87863500Y49400000D03*
X82136500Y49400000D03*
X87863500Y48600000D03*
X82136500Y48600000D03*
X87863500Y47800000D03*
X82136500Y47800000D03*
X87863500Y47000000D03*
X82136500Y47000000D03*
X87863500Y46200000D03*
X82136500Y46200000D03*
X87863500Y45400000D03*
X82136500Y45400000D03*
X87863500Y44600000D03*
X82136500Y44600000D03*
X87863500Y43800000D03*
X82136500Y43800000D03*
X87863500Y43000000D03*
X82136500Y43000000D03*
X87863500Y42200000D03*
X82136500Y42200000D03*
X87863500Y41400000D03*
X82136500Y41400000D03*
X87863500Y40600000D03*
X82136500Y40600000D03*
X87863500Y39800000D03*
X82136500Y39800000D03*
X87863500Y39000000D03*
X82136500Y39000000D03*
X87863500Y38200000D03*
X82136500Y38200000D03*
X87863500Y37400000D03*
X82136500Y37400000D03*
X87863500Y36600000D03*
X82136500Y36600000D03*
X87863500Y35800000D03*
X82136500Y35800000D03*
X87863500Y35000000D03*
X82136500Y35000000D03*
X87863500Y34200000D03*
X82136500Y34200000D03*
X87863500Y33400000D03*
X82136500Y33400000D03*
X87863500Y32600000D03*
X82136500Y32600000D03*
X87863500Y31800000D03*
X82136500Y31800000D03*
X87863500Y31000000D03*
X82136500Y31000000D03*
X87863500Y30200000D03*
X82136500Y30200000D03*
X87863500Y29400000D03*
X82136500Y29400000D03*
X87863500Y28600000D03*
X82136500Y28600000D03*
X87863500Y27800000D03*
X82136500Y27800000D03*
X87863500Y27000000D03*
X82136500Y27000000D03*
X87863500Y26200000D03*
X82136500Y26200000D03*
X87863500Y25400000D03*
X82136500Y25400000D03*
X87863500Y24600000D03*
X82136500Y24600000D03*
X87863500Y23800000D03*
X82136500Y23800000D03*
X87863500Y23000000D03*
X82136500Y23000000D03*
X87863500Y22200000D03*
X82136500Y22200000D03*
X87863500Y21400000D03*
X82136500Y21400000D03*
%TD*%
D15*
%TO.C,RN1*%
X42500000Y26500000D03*
X42500000Y27000000D03*
X42500000Y27500000D03*
X42500000Y28000000D03*
X42500000Y28500000D03*
X42500000Y29000000D03*
X42500000Y29500000D03*
X42500000Y30000000D03*
X44300000Y30000000D03*
X44300000Y29500000D03*
X44300000Y29000000D03*
X44300000Y28500000D03*
X44300000Y28000000D03*
X44300000Y27500000D03*
X44300000Y27000000D03*
X44300000Y26500000D03*
%TD*%
M02*
