%TF.GenerationSoftware,KiCad,Pcbnew,9.0.0-rc1*%
%TF.CreationDate,2025-01-31T14:13:45-05:00*%
%TF.ProjectId,ephys-test-module-64,65706879-732d-4746-9573-742d6d6f6475,A*%
%TF.SameCoordinates,Original*%
%TF.FileFunction,Soldermask,Bot*%
%TF.FilePolarity,Negative*%
%FSLAX46Y46*%
G04 Gerber Fmt 4.6, Leading zero omitted, Abs format (unit mm)*
G04 Created by KiCad (PCBNEW 9.0.0-rc1) date 2025-01-31 14:13:45*
%MOMM*%
%LPD*%
G01*
G04 APERTURE LIST*
G04 Aperture macros list*
%AMRoundRect*
0 Rectangle with rounded corners*
0 $1 Rounding radius*
0 $2 $3 $4 $5 $6 $7 $8 $9 X,Y pos of 4 corners*
0 Add a 4 corners polygon primitive as box body*
4,1,4,$2,$3,$4,$5,$6,$7,$8,$9,$2,$3,0*
0 Add four circle primitives for the rounded corners*
1,1,$1+$1,$2,$3*
1,1,$1+$1,$4,$5*
1,1,$1+$1,$6,$7*
1,1,$1+$1,$8,$9*
0 Add four rect primitives between the rounded corners*
20,1,$1+$1,$2,$3,$4,$5,0*
20,1,$1+$1,$4,$5,$6,$7,0*
20,1,$1+$1,$6,$7,$8,$9,0*
20,1,$1+$1,$8,$9,$2,$3,0*%
G04 Aperture macros list end*
%ADD10C,1.020000*%
%ADD11R,2.273000X0.410000*%
%ADD12C,2.800000*%
%ADD13RoundRect,0.275000X0.388909X0.000000X0.000000X0.388909X-0.388909X0.000000X0.000000X-0.388909X0*%
%ADD14C,1.100000*%
%ADD15RoundRect,0.200000X-0.282843X0.000000X0.000000X-0.282843X0.282843X0.000000X0.000000X0.282843X0*%
%ADD16C,0.800000*%
G04 APERTURE END LIST*
D10*
%TO.C,J2*%
X120330000Y-81935000D03*
X120330000Y-118065000D03*
D11*
X125863500Y-84400000D03*
X120136500Y-84400000D03*
X125863500Y-85200000D03*
X120136500Y-85200000D03*
X125863500Y-86000000D03*
X120136500Y-86000000D03*
X125863500Y-86800000D03*
X120136500Y-86800000D03*
X125863500Y-87600000D03*
X120136500Y-87600000D03*
X125863500Y-88400000D03*
X120136500Y-88400000D03*
X125863500Y-89200000D03*
X120136500Y-89200000D03*
X125863500Y-90000000D03*
X120136500Y-90000000D03*
X125863500Y-90800000D03*
X120136500Y-90800000D03*
X125863500Y-91600000D03*
X120136500Y-91600000D03*
X125863500Y-92400000D03*
X120136500Y-92400000D03*
X125863500Y-93200000D03*
X120136500Y-93200000D03*
X125863500Y-94000000D03*
X120136500Y-94000000D03*
X125863500Y-94800000D03*
X120136500Y-94800000D03*
X125863500Y-95600000D03*
X120136500Y-95600000D03*
X125863500Y-96400000D03*
X120136500Y-96400000D03*
X125863500Y-97200000D03*
X120136500Y-97200000D03*
X125863500Y-98000000D03*
X120136500Y-98000000D03*
X125863500Y-98800000D03*
X120136500Y-98800000D03*
X125863500Y-99600000D03*
X120136500Y-99600000D03*
X125863500Y-100400000D03*
X120136500Y-100400000D03*
X125863500Y-101200000D03*
X120136500Y-101200000D03*
X125863500Y-102000000D03*
X120136500Y-102000000D03*
X125863500Y-102800000D03*
X120136500Y-102800000D03*
X125863500Y-103600000D03*
X120136500Y-103600000D03*
X125863500Y-104400000D03*
X120136500Y-104400000D03*
X125863500Y-105200000D03*
X120136500Y-105200000D03*
X125863500Y-106000000D03*
X120136500Y-106000000D03*
X125863500Y-106800000D03*
X120136500Y-106800000D03*
X125863500Y-107600000D03*
X120136500Y-107600000D03*
X125863500Y-108400000D03*
X120136500Y-108400000D03*
X125863500Y-109200000D03*
X120136500Y-109200000D03*
X125863500Y-110000000D03*
X120136500Y-110000000D03*
X125863500Y-110800000D03*
X120136500Y-110800000D03*
X125863500Y-111600000D03*
X120136500Y-111600000D03*
X125863500Y-112400000D03*
X120136500Y-112400000D03*
X125863500Y-113200000D03*
X120136500Y-113200000D03*
X125863500Y-114000000D03*
X120136500Y-114000000D03*
X125863500Y-114800000D03*
X120136500Y-114800000D03*
X125863500Y-115600000D03*
X120136500Y-115600000D03*
%TD*%
D12*
%TO.C,TP4*%
X163000000Y-79000000D03*
%TD*%
D13*
%TO.C,LD2*%
X163000000Y-87000000D03*
D14*
X164000000Y-86000000D03*
X163000000Y-85000000D03*
%TD*%
D15*
%TO.C,LD1*%
X153000000Y-85300000D03*
D16*
X152300000Y-86000000D03*
X153000000Y-86700000D03*
%TD*%
D12*
%TO.C,TP3*%
X153000000Y-79000000D03*
%TD*%
%TO.C,TP2*%
X163000000Y-135000000D03*
%TD*%
%TO.C,TP1*%
X153000000Y-135000000D03*
%TD*%
D10*
%TO.C,J3*%
X190330000Y-81935000D03*
X190330000Y-118065000D03*
D11*
X195863500Y-84400000D03*
X190136500Y-84400000D03*
X195863500Y-85200000D03*
X190136500Y-85200000D03*
X195863500Y-86000000D03*
X190136500Y-86000000D03*
X195863500Y-86800000D03*
X190136500Y-86800000D03*
X195863500Y-87600000D03*
X190136500Y-87600000D03*
X195863500Y-88400000D03*
X190136500Y-88400000D03*
X195863500Y-89200000D03*
X190136500Y-89200000D03*
X195863500Y-90000000D03*
X190136500Y-90000000D03*
X195863500Y-90800000D03*
X190136500Y-90800000D03*
X195863500Y-91600000D03*
X190136500Y-91600000D03*
X195863500Y-92400000D03*
X190136500Y-92400000D03*
X195863500Y-93200000D03*
X190136500Y-93200000D03*
X195863500Y-94000000D03*
X190136500Y-94000000D03*
X195863500Y-94800000D03*
X190136500Y-94800000D03*
X195863500Y-95600000D03*
X190136500Y-95600000D03*
X195863500Y-96400000D03*
X190136500Y-96400000D03*
X195863500Y-97200000D03*
X190136500Y-97200000D03*
X195863500Y-98000000D03*
X190136500Y-98000000D03*
X195863500Y-98800000D03*
X190136500Y-98800000D03*
X195863500Y-99600000D03*
X190136500Y-99600000D03*
X195863500Y-100400000D03*
X190136500Y-100400000D03*
X195863500Y-101200000D03*
X190136500Y-101200000D03*
X195863500Y-102000000D03*
X190136500Y-102000000D03*
X195863500Y-102800000D03*
X190136500Y-102800000D03*
X195863500Y-103600000D03*
X190136500Y-103600000D03*
X195863500Y-104400000D03*
X190136500Y-104400000D03*
X195863500Y-105200000D03*
X190136500Y-105200000D03*
X195863500Y-106000000D03*
X190136500Y-106000000D03*
X195863500Y-106800000D03*
X190136500Y-106800000D03*
X195863500Y-107600000D03*
X190136500Y-107600000D03*
X195863500Y-108400000D03*
X190136500Y-108400000D03*
X195863500Y-109200000D03*
X190136500Y-109200000D03*
X195863500Y-110000000D03*
X190136500Y-110000000D03*
X195863500Y-110800000D03*
X190136500Y-110800000D03*
X195863500Y-111600000D03*
X190136500Y-111600000D03*
X195863500Y-112400000D03*
X190136500Y-112400000D03*
X195863500Y-113200000D03*
X190136500Y-113200000D03*
X195863500Y-114000000D03*
X190136500Y-114000000D03*
X195863500Y-114800000D03*
X190136500Y-114800000D03*
X195863500Y-115600000D03*
X190136500Y-115600000D03*
%TD*%
M02*
