%TF.GenerationSoftware,KiCad,Pcbnew,9.0.0-rc1*%
%TF.CreationDate,2025-02-06T15:55:17-05:00*%
%TF.ProjectId,ephys-test-module-64,65706879-732d-4746-9573-742d6d6f6475,A*%
%TF.SameCoordinates,Original*%
%TF.FileFunction,Copper,L1,Top*%
%TF.FilePolarity,Positive*%
%FSLAX46Y46*%
G04 Gerber Fmt 4.6, Leading zero omitted, Abs format (unit mm)*
G04 Created by KiCad (PCBNEW 9.0.0-rc1) date 2025-02-06 15:55:17*
%MOMM*%
%LPD*%
G01*
G04 APERTURE LIST*
G04 Aperture macros list*
%AMRoundRect*
0 Rectangle with rounded corners*
0 $1 Rounding radius*
0 $2 $3 $4 $5 $6 $7 $8 $9 X,Y pos of 4 corners*
0 Add a 4 corners polygon primitive as box body*
4,1,4,$2,$3,$4,$5,$6,$7,$8,$9,$2,$3,0*
0 Add four circle primitives for the rounded corners*
1,1,$1+$1,$2,$3*
1,1,$1+$1,$4,$5*
1,1,$1+$1,$6,$7*
1,1,$1+$1,$8,$9*
0 Add four rect primitives between the rounded corners*
20,1,$1+$1,$2,$3,$4,$5,0*
20,1,$1+$1,$4,$5,$6,$7,0*
20,1,$1+$1,$6,$7,$8,$9,0*
20,1,$1+$1,$8,$9,$2,$3,0*%
G04 Aperture macros list end*
%TA.AperFunction,SMDPad,CuDef*%
%ADD10RoundRect,0.010000X0.340000X-0.090000X0.340000X0.090000X-0.340000X0.090000X-0.340000X-0.090000X0*%
%TD*%
%TA.AperFunction,ComponentPad*%
%ADD11C,2.800000*%
%TD*%
%TA.AperFunction,SMDPad,CuDef*%
%ADD12R,1.000000X2.510000*%
%TD*%
%TA.AperFunction,SMDPad,CuDef*%
%ADD13RoundRect,0.135000X0.185000X-0.135000X0.185000X0.135000X-0.185000X0.135000X-0.185000X-0.135000X0*%
%TD*%
%TA.AperFunction,SMDPad,CuDef*%
%ADD14RoundRect,0.135000X0.135000X0.185000X-0.135000X0.185000X-0.135000X-0.185000X0.135000X-0.185000X0*%
%TD*%
%TA.AperFunction,ComponentPad*%
%ADD15RoundRect,0.200000X-0.282843X0.000000X0.000000X-0.282843X0.282843X0.000000X0.000000X0.282843X0*%
%TD*%
%TA.AperFunction,ComponentPad*%
%ADD16C,0.800000*%
%TD*%
%TA.AperFunction,SMDPad,CuDef*%
%ADD17R,3.150000X1.000000*%
%TD*%
%TA.AperFunction,SMDPad,CuDef*%
%ADD18RoundRect,0.150000X0.825000X0.150000X-0.825000X0.150000X-0.825000X-0.150000X0.825000X-0.150000X0*%
%TD*%
%TA.AperFunction,ComponentPad*%
%ADD19RoundRect,0.275000X0.388909X0.000000X0.000000X0.388909X-0.388909X0.000000X0.000000X-0.388909X0*%
%TD*%
%TA.AperFunction,ComponentPad*%
%ADD20C,1.100000*%
%TD*%
%TA.AperFunction,SMDPad,CuDef*%
%ADD21RoundRect,0.140000X-0.140000X-0.170000X0.140000X-0.170000X0.140000X0.170000X-0.140000X0.170000X0*%
%TD*%
%TA.AperFunction,ViaPad*%
%ADD22C,0.400000*%
%TD*%
%TA.AperFunction,Conductor*%
%ADD23C,0.400000*%
%TD*%
%TA.AperFunction,Conductor*%
%ADD24C,0.150000*%
%TD*%
G04 APERTURE END LIST*
D10*
%TO.P,J1,1,Pin_1*%
%TO.N,/Headstage Interface/E_{stim}*%
X156460000Y-108800000D03*
%TO.P,J1,2,Pin_2*%
%TO.N,GND*%
X159540000Y-108800000D03*
%TO.P,J1,3,Pin_3*%
%TO.N,/Headstage Interface/B7.E_{7}*%
X156460000Y-108400000D03*
%TO.P,J1,4,Pin_4*%
%TO.N,/Headstage Interface/REF*%
X159540000Y-108400000D03*
%TO.P,J1,5,Pin_5*%
%TO.N,/Headstage Interface/B7.E_{6}*%
X156460000Y-108000000D03*
%TO.P,J1,6,Pin_6*%
%TO.N,/Headstage Interface/B11.E_{7}*%
X159540000Y-108000000D03*
%TO.P,J1,7,Pin_7*%
%TO.N,/Headstage Interface/B7.E_{5}*%
X156460000Y-107600000D03*
%TO.P,J1,8,Pin_8*%
%TO.N,/Headstage Interface/B11.E_{6}*%
X159540000Y-107600000D03*
%TO.P,J1,9,Pin_9*%
%TO.N,/Headstage Interface/B7.E_{4}*%
X156460000Y-107200000D03*
%TO.P,J1,10,Pin_10*%
%TO.N,/Headstage Interface/B11.E_{5}*%
X159540000Y-107200000D03*
%TO.P,J1,11,Pin_11*%
%TO.N,/Headstage Interface/B7.E_{3}*%
X156460000Y-106800000D03*
%TO.P,J1,12,Pin_12*%
%TO.N,/Headstage Interface/B11.E_{4}*%
X159540000Y-106800000D03*
%TO.P,J1,13,Pin_13*%
%TO.N,/Headstage Interface/B7.E_{2}*%
X156460000Y-106400000D03*
%TO.P,J1,14,Pin_14*%
%TO.N,/Headstage Interface/B11.E_{3}*%
X159540000Y-106400000D03*
%TO.P,J1,15,Pin_15*%
%TO.N,/Headstage Interface/B7.E_{1}*%
X156460000Y-106000000D03*
%TO.P,J1,16,Pin_16*%
%TO.N,/Headstage Interface/B11.E_{2}*%
X159540000Y-106000000D03*
%TO.P,J1,17,Pin_17*%
%TO.N,/Headstage Interface/B7.E_{0}*%
X156460000Y-105600000D03*
%TO.P,J1,18,Pin_18*%
%TO.N,/Headstage Interface/B11.E_{1}*%
X159540000Y-105600000D03*
%TO.P,J1,19,Pin_19*%
%TO.N,/Headstage Interface/B6.E_{7}*%
X156460000Y-105200000D03*
%TO.P,J1,20,Pin_20*%
%TO.N,/Headstage Interface/B11.E_{0}*%
X159540000Y-105200000D03*
%TO.P,J1,21,Pin_21*%
%TO.N,/Headstage Interface/B6.E_{6}*%
X156460000Y-104800000D03*
%TO.P,J1,22,Pin_22*%
%TO.N,/Headstage Interface/B10.E_{7}*%
X159540000Y-104800000D03*
%TO.P,J1,23,Pin_23*%
%TO.N,/Headstage Interface/B6.E_{5}*%
X156460000Y-104400000D03*
%TO.P,J1,24,Pin_24*%
%TO.N,/Headstage Interface/B10.E_{6}*%
X159540000Y-104400000D03*
%TO.P,J1,25,Pin_25*%
%TO.N,/Headstage Interface/B6.E_{4}*%
X156460000Y-104000000D03*
%TO.P,J1,26,Pin_26*%
%TO.N,/Headstage Interface/B10.E_{5}*%
X159540000Y-104000000D03*
%TO.P,J1,27,Pin_27*%
%TO.N,/Headstage Interface/B6.E_{3}*%
X156460000Y-103600000D03*
%TO.P,J1,28,Pin_28*%
%TO.N,/Headstage Interface/B10.E_{4}*%
X159540000Y-103600000D03*
%TO.P,J1,29,Pin_29*%
%TO.N,/Headstage Interface/B6.E_{2}*%
X156460000Y-103200000D03*
%TO.P,J1,30,Pin_30*%
%TO.N,/Headstage Interface/B10.E_{3}*%
X159540000Y-103200000D03*
%TO.P,J1,31,Pin_31*%
%TO.N,/Headstage Interface/B6.E_{1}*%
X156460000Y-102800000D03*
%TO.P,J1,32,Pin_32*%
%TO.N,/Headstage Interface/B10.E_{2}*%
X159540000Y-102800000D03*
%TO.P,J1,33,Pin_33*%
%TO.N,/Headstage Interface/B6.E_{0}*%
X156460000Y-102400000D03*
%TO.P,J1,34,Pin_34*%
%TO.N,/Headstage Interface/B10.E_{1}*%
X159540000Y-102400000D03*
%TO.P,J1,35,Pin_35*%
%TO.N,/Headstage Interface/B5.E_{7}*%
X156460000Y-102000000D03*
%TO.P,J1,36,Pin_36*%
%TO.N,/Headstage Interface/B10.E_{0}*%
X159540000Y-102000000D03*
%TO.P,J1,37,Pin_37*%
%TO.N,/Headstage Interface/B5.E_{6}*%
X156460000Y-101600000D03*
%TO.P,J1,38,Pin_38*%
%TO.N,/Headstage Interface/B9.E_{7}*%
X159540000Y-101600000D03*
%TO.P,J1,39,Pin_39*%
%TO.N,/Headstage Interface/B5.E_{5}*%
X156460000Y-101200000D03*
%TO.P,J1,40,Pin_40*%
%TO.N,/Headstage Interface/B9.E_{6}*%
X159540000Y-101200000D03*
%TO.P,J1,41,Pin_41*%
%TO.N,/Headstage Interface/B5.E_{4}*%
X156460000Y-100800000D03*
%TO.P,J1,42,Pin_42*%
%TO.N,/Headstage Interface/B9.E_{5}*%
X159540000Y-100800000D03*
%TO.P,J1,43,Pin_43*%
%TO.N,/Headstage Interface/B5.E_{3}*%
X156460000Y-100400000D03*
%TO.P,J1,44,Pin_44*%
%TO.N,/Headstage Interface/B9.E_{4}*%
X159540000Y-100400000D03*
%TO.P,J1,45,Pin_45*%
%TO.N,/Headstage Interface/B5.E_{2}*%
X156460000Y-100000000D03*
%TO.P,J1,46,Pin_46*%
%TO.N,/Headstage Interface/B9.E_{3}*%
X159540000Y-100000000D03*
%TO.P,J1,47,Pin_47*%
%TO.N,/Headstage Interface/B5.E_{1}*%
X156460000Y-99600000D03*
%TO.P,J1,48,Pin_48*%
%TO.N,/Headstage Interface/B9.E_{2}*%
X159540000Y-99600000D03*
%TO.P,J1,49,Pin_49*%
%TO.N,/Headstage Interface/B5.E_{0}*%
X156460000Y-99200000D03*
%TO.P,J1,50,Pin_50*%
%TO.N,/Headstage Interface/B9.E_{1}*%
X159540000Y-99200000D03*
%TO.P,J1,51,Pin_51*%
%TO.N,/Headstage Interface/B4.E_{7}*%
X156460000Y-98800000D03*
%TO.P,J1,52,Pin_52*%
%TO.N,/Headstage Interface/B9.E_{0}*%
X159540000Y-98800000D03*
%TO.P,J1,53,Pin_53*%
%TO.N,/Headstage Interface/B4.E_{6}*%
X156460000Y-98400000D03*
%TO.P,J1,54,Pin_54*%
%TO.N,/Headstage Interface/B8.E_{7}*%
X159540000Y-98400000D03*
%TO.P,J1,55,Pin_55*%
%TO.N,/Headstage Interface/B4.E_{5}*%
X156460000Y-98000000D03*
%TO.P,J1,56,Pin_56*%
%TO.N,/Headstage Interface/B8.E_{6}*%
X159540000Y-98000000D03*
%TO.P,J1,57,Pin_57*%
%TO.N,/Headstage Interface/B4.E_{4}*%
X156460000Y-97600000D03*
%TO.P,J1,58,Pin_58*%
%TO.N,/Headstage Interface/B8.E_{5}*%
X159540000Y-97600000D03*
%TO.P,J1,59,Pin_59*%
%TO.N,/Headstage Interface/B4.E_{3}*%
X156460000Y-97200000D03*
%TO.P,J1,60,Pin_60*%
%TO.N,/Headstage Interface/B8.E_{4}*%
X159540000Y-97200000D03*
%TO.P,J1,61,Pin_61*%
%TO.N,/Headstage Interface/B4.E_{2}*%
X156460000Y-96800000D03*
%TO.P,J1,62,Pin_62*%
%TO.N,/Headstage Interface/B8.E_{3}*%
X159540000Y-96800000D03*
%TO.P,J1,63,Pin_63*%
%TO.N,/Headstage Interface/B4.E_{1}*%
X156460000Y-96400000D03*
%TO.P,J1,64,Pin_64*%
%TO.N,/Headstage Interface/B8.E_{2}*%
X159540000Y-96400000D03*
%TO.P,J1,65,Pin_65*%
%TO.N,/Headstage Interface/B4.E_{0}*%
X156460000Y-96000000D03*
%TO.P,J1,66,Pin_66*%
%TO.N,/Headstage Interface/B8.E_{1}*%
X159540000Y-96000000D03*
%TO.P,J1,67,Pin_67*%
%TO.N,/Headstage Interface/K_{0}*%
X156460000Y-95600000D03*
%TO.P,J1,68,Pin_68*%
%TO.N,/Headstage Interface/B8.E_{0}*%
X159540000Y-95600000D03*
%TO.P,J1,69,Pin_69*%
%TO.N,/Headstage Interface/K_{1}*%
X156460000Y-95200000D03*
%TO.P,J1,70,Pin_70*%
%TO.N,/Headstage Interface/A*%
X159540000Y-95200000D03*
%TD*%
D11*
%TO.P,TP1,1,1*%
%TO.N,/Headstage Interface/E_{stim}*%
X153000000Y-135000000D03*
%TD*%
D12*
%TO.P,JP1,1,A*%
%TO.N,/Headstage Interface/REF*%
X162970000Y-119345000D03*
%TO.P,JP1,2,B*%
%TO.N,GND*%
X160430000Y-122655000D03*
%TD*%
D11*
%TO.P,TP2,1,1*%
%TO.N,GND*%
X163000000Y-135000000D03*
%TD*%
D13*
%TO.P,R3,1*%
%TO.N,VCC*%
X130900000Y-124110000D03*
%TO.P,R3,2*%
%TO.N,/Test Signal Interface/SCL*%
X130900000Y-123090000D03*
%TD*%
D11*
%TO.P,TP4,1,1*%
%TO.N,GND*%
X163000000Y-79000000D03*
%TD*%
D14*
%TO.P,R4,1*%
%TO.N,/Headstage Interface/E_{stim}*%
X154020000Y-111600000D03*
%TO.P,R4,2*%
%TO.N,GND*%
X153000000Y-111600000D03*
%TD*%
D15*
%TO.P,LD1,1,A*%
%TO.N,/Headstage Interface/A*%
X153000000Y-85300000D03*
D16*
%TO.P,LD1,2,NC*%
%TO.N,unconnected-(LD1-NC-Pad2)*%
X152300000Y-86000000D03*
%TO.P,LD1,3,C*%
%TO.N,/Headstage Interface/K_{0}*%
X153000000Y-86700000D03*
%TD*%
D17*
%TO.P,J4,1,Pin_1*%
%TO.N,GND*%
X117275000Y-121760000D03*
%TO.P,J4,2,Pin_2*%
%TO.N,/Test Signal Interface/SDA*%
X122325000Y-121760000D03*
%TO.P,J4,3,Pin_3*%
%TO.N,GND*%
X117275000Y-124300000D03*
%TO.P,J4,4,Pin_4*%
%TO.N,/Test Signal Interface/SCL*%
X122325000Y-124300000D03*
%TO.P,J4,5,Pin_5*%
%TO.N,GND*%
X117275000Y-126840000D03*
%TO.P,J4,6,Pin_6*%
%TO.N,Net-(J4-Pin_6)*%
X122325000Y-126840000D03*
%TD*%
D13*
%TO.P,R1,1*%
%TO.N,VCC*%
X132000000Y-125410000D03*
%TO.P,R1,2*%
%TO.N,Net-(J4-Pin_6)*%
X132000000Y-124390000D03*
%TD*%
D18*
%TO.P,U1,1,A0*%
%TO.N,GND*%
X139075000Y-125505000D03*
%TO.P,U1,2,A1*%
X139075000Y-124235000D03*
%TO.P,U1,3,A2*%
X139075000Y-122965000D03*
%TO.P,U1,4,GND*%
X139075000Y-121695000D03*
%TO.P,U1,5,SDA*%
%TO.N,/Test Signal Interface/SDA*%
X134125000Y-121695000D03*
%TO.P,U1,6,SCL*%
%TO.N,/Test Signal Interface/SCL*%
X134125000Y-122965000D03*
%TO.P,U1,7,WP*%
%TO.N,Net-(J4-Pin_6)*%
X134125000Y-124235000D03*
%TO.P,U1,8,VCC*%
%TO.N,VCC*%
X134125000Y-125505000D03*
%TD*%
D13*
%TO.P,R2,1*%
%TO.N,VCC*%
X129700000Y-122710000D03*
%TO.P,R2,2*%
%TO.N,/Test Signal Interface/SDA*%
X129700000Y-121690000D03*
%TD*%
D19*
%TO.P,LD2,1,A*%
%TO.N,/Headstage Interface/A*%
X163000000Y-87000000D03*
D20*
%TO.P,LD2,2,NC*%
%TO.N,unconnected-(LD2-NC-Pad2)*%
X164000000Y-86000000D03*
%TO.P,LD2,3,C*%
%TO.N,/Headstage Interface/K_{1}*%
X163000000Y-85000000D03*
%TD*%
D21*
%TO.P,C1,1*%
%TO.N,VCC*%
X136120000Y-127100000D03*
%TO.P,C1,2*%
%TO.N,GND*%
X137080000Y-127100000D03*
%TD*%
D11*
%TO.P,TP3,1,1*%
%TO.N,/Headstage Interface/A*%
X153000000Y-79000000D03*
%TD*%
D22*
%TO.N,GND*%
X157900000Y-95700000D03*
X202300000Y-124800000D03*
X175500000Y-99600000D03*
X113500000Y-81700000D03*
X128900000Y-99600000D03*
X113269807Y-112500000D03*
X153400000Y-91900000D03*
X133600000Y-117000000D03*
X161400000Y-132300000D03*
X187500000Y-92500000D03*
X135000000Y-80800000D03*
X166800000Y-111700000D03*
X148400000Y-81100000D03*
X113800000Y-133900000D03*
X138700000Y-106800000D03*
X187200000Y-99600000D03*
X179700000Y-132600000D03*
X203200000Y-107500000D03*
X141400000Y-92500000D03*
X152000000Y-122200000D03*
X175300000Y-106800000D03*
X187500000Y-106800000D03*
X140100000Y-99600000D03*
X128900000Y-133600000D03*
X113100000Y-94400000D03*
X158000000Y-106300000D03*
X159400000Y-113200000D03*
X203000000Y-80900000D03*
X174500000Y-92400000D03*
X193900000Y-134700000D03*
X148100000Y-112900000D03*
X184300000Y-116500000D03*
X202900000Y-91100000D03*
X129000000Y-107000000D03*
X129000000Y-92400000D03*
X184900000Y-80200000D03*
X174067445Y-80221652D03*
X161900000Y-92500000D03*
X141900000Y-133000000D03*
%TO.N,VCC*%
X131900000Y-126000000D03*
X129250000Y-123350000D03*
X135100000Y-127100000D03*
X134600000Y-127100000D03*
X130500000Y-124600000D03*
%TO.N,/Headstage Interface/B7.E_{7}*%
X154500000Y-108400000D03*
%TO.N,/Headstage Interface/B5.E_{0}*%
X155200000Y-99200000D03*
%TO.N,/Headstage Interface/B5.E_{2}*%
X155200000Y-100000000D03*
%TO.N,/Headstage Interface/B7.E_{3}*%
X154500000Y-106800000D03*
%TO.N,/Headstage Interface/B7.E_{1}*%
X154500000Y-106000000D03*
%TO.N,/Headstage Interface/B5.E_{5}*%
X154500000Y-101200000D03*
%TO.N,/Headstage Interface/B4.E_{7}*%
X154500000Y-98800000D03*
%TO.N,/Headstage Interface/B4.E_{5}*%
X154500000Y-98000000D03*
%TO.N,/Headstage Interface/B4.E_{2}*%
X155200000Y-96800000D03*
%TO.N,/Headstage Interface/B6.E_{2}*%
X155200000Y-103200000D03*
%TO.N,/Headstage Interface/B4.E_{3}*%
X154500000Y-97200000D03*
%TO.N,/Headstage Interface/B7.E_{5}*%
X154500000Y-107600000D03*
%TO.N,/Headstage Interface/B7.E_{0}*%
X155200000Y-105600000D03*
%TO.N,/Headstage Interface/B7.E_{4}*%
X155200000Y-107200000D03*
%TO.N,/Headstage Interface/B4.E_{6}*%
X155200000Y-98400000D03*
%TO.N,/Headstage Interface/B6.E_{5}*%
X154500000Y-104400000D03*
%TO.N,/Headstage Interface/B7.E_{6}*%
X155200000Y-108000000D03*
%TO.N,/Headstage Interface/B7.E_{2}*%
X155200000Y-106400000D03*
%TO.N,/Headstage Interface/B5.E_{7}*%
X154500000Y-102000000D03*
%TO.N,/Headstage Interface/B6.E_{7}*%
X154500000Y-105200000D03*
%TO.N,/Headstage Interface/B6.E_{0}*%
X155200000Y-102400000D03*
%TO.N,/Headstage Interface/B5.E_{1}*%
X154500000Y-99600000D03*
%TO.N,/Headstage Interface/B4.E_{4}*%
X155200000Y-97600000D03*
%TO.N,/Headstage Interface/B4.E_{0}*%
X155200000Y-96000000D03*
%TO.N,/Headstage Interface/B6.E_{6}*%
X155200000Y-104800000D03*
%TO.N,/Headstage Interface/B6.E_{1}*%
X154500000Y-102800000D03*
%TO.N,/Headstage Interface/B5.E_{6}*%
X155200000Y-101600000D03*
%TO.N,/Headstage Interface/B6.E_{4}*%
X155200000Y-104000000D03*
%TO.N,/Headstage Interface/B5.E_{4}*%
X155200000Y-100800000D03*
%TO.N,/Headstage Interface/B5.E_{3}*%
X154500000Y-100400000D03*
%TO.N,/Headstage Interface/B4.E_{1}*%
X154500000Y-96400000D03*
%TO.N,/Headstage Interface/B6.E_{3}*%
X154500000Y-103600000D03*
%TO.N,/Headstage Interface/B8.E_{2}*%
X160800000Y-96400000D03*
%TO.N,/Test Signal Interface/SDA*%
X127700000Y-115600000D03*
%TO.N,/Headstage Interface/B10.E_{4}*%
X160800000Y-103600000D03*
%TO.N,/Headstage Interface/B8.E_{7}*%
X161500000Y-98400000D03*
%TO.N,/Test Signal Interface/SCL*%
X127700000Y-114800000D03*
X130900000Y-121200000D03*
X130900000Y-122300000D03*
%TO.N,/Headstage Interface/B8.E_{3}*%
X161500000Y-96800000D03*
%TO.N,/Headstage Interface/B11.E_{5}*%
X161500000Y-107200000D03*
%TO.N,/Headstage Interface/B8.E_{4}*%
X160800000Y-97200000D03*
%TO.N,/Headstage Interface/B9.E_{1}*%
X161500000Y-99200000D03*
%TO.N,/Headstage Interface/B8.E_{0}*%
X160800000Y-95600000D03*
%TO.N,/Headstage Interface/B9.E_{0}*%
X160800000Y-98800000D03*
%TO.N,/Headstage Interface/B9.E_{5}*%
X161500000Y-100800000D03*
%TO.N,/Headstage Interface/B10.E_{3}*%
X161500000Y-103200000D03*
%TO.N,/Headstage Interface/B11.E_{4}*%
X160800000Y-106800000D03*
%TO.N,/Headstage Interface/B10.E_{1}*%
X161500000Y-102400000D03*
%TO.N,/Headstage Interface/B10.E_{2}*%
X160800000Y-102800000D03*
%TO.N,/Headstage Interface/B10.E_{7}*%
X161500000Y-104800000D03*
%TO.N,/Headstage Interface/B9.E_{3}*%
X161500000Y-100000000D03*
%TO.N,/Headstage Interface/B9.E_{4}*%
X160800000Y-100400000D03*
%TO.N,/Headstage Interface/B11.E_{0}*%
X160800000Y-105200000D03*
%TO.N,/Headstage Interface/B11.E_{6}*%
X160800000Y-107600000D03*
%TO.N,/Headstage Interface/B9.E_{6}*%
X160800000Y-101200000D03*
%TO.N,/Headstage Interface/B8.E_{1}*%
X161500000Y-96000000D03*
%TO.N,/Headstage Interface/B11.E_{1}*%
X161500000Y-105600000D03*
%TO.N,/Headstage Interface/B8.E_{6}*%
X160800000Y-98000000D03*
%TO.N,/Headstage Interface/B11.E_{3}*%
X161500000Y-106400000D03*
%TO.N,/Headstage Interface/B9.E_{7}*%
X161500000Y-101600000D03*
%TO.N,/Headstage Interface/B9.E_{2}*%
X160800000Y-99600000D03*
%TO.N,/Headstage Interface/B8.E_{5}*%
X161500000Y-97600000D03*
%TO.N,/Headstage Interface/B11.E_{7}*%
X161500000Y-108000000D03*
%TO.N,/Headstage Interface/B10.E_{6}*%
X160800000Y-104400000D03*
%TO.N,/Headstage Interface/B10.E_{0}*%
X160800000Y-102000000D03*
%TO.N,/Headstage Interface/B10.E_{5}*%
X161500000Y-104000000D03*
%TO.N,/Headstage Interface/B11.E_{2}*%
X160800000Y-106000000D03*
%TD*%
D23*
%TO.N,VCC*%
X136120000Y-127100000D02*
X134600000Y-127100000D01*
D24*
X130900000Y-124200000D02*
X130500000Y-124600000D01*
X132000000Y-125900000D02*
X131900000Y-126000000D01*
X130900000Y-124110000D02*
X130900000Y-124200000D01*
X129700000Y-122710000D02*
X129700000Y-122900000D01*
X132000000Y-125410000D02*
X132000000Y-125900000D01*
D23*
X134600000Y-127100000D02*
X135300000Y-127100000D01*
X135300000Y-127100000D02*
X135100000Y-127100000D01*
D24*
X129700000Y-122900000D02*
X129250000Y-123350000D01*
D23*
X134125000Y-126625000D02*
X134600000Y-127100000D01*
X134125000Y-125505000D02*
X134125000Y-126625000D01*
D24*
%TO.N,/Headstage Interface/B7.E_{7}*%
X156460000Y-108400000D02*
X154500000Y-108400000D01*
%TO.N,/Headstage Interface/B5.E_{0}*%
X156460000Y-99200000D02*
X155200000Y-99200000D01*
%TO.N,/Headstage Interface/B5.E_{2}*%
X156460000Y-100000000D02*
X155200000Y-100000000D01*
%TO.N,/Headstage Interface/B7.E_{3}*%
X156460000Y-106800000D02*
X154500000Y-106800000D01*
%TO.N,/Headstage Interface/B7.E_{1}*%
X156460000Y-106000000D02*
X154500000Y-106000000D01*
%TO.N,/Headstage Interface/B5.E_{5}*%
X156460000Y-101200000D02*
X154500000Y-101200000D01*
%TO.N,/Headstage Interface/B4.E_{7}*%
X156460000Y-98800000D02*
X154500000Y-98800000D01*
D23*
%TO.N,/Headstage Interface/K_{0}*%
X155450000Y-95150000D02*
X154900000Y-94600000D01*
X154900000Y-94600000D02*
X154900000Y-88600000D01*
D24*
X155450000Y-95150000D02*
X155900000Y-95600000D01*
X155900000Y-95600000D02*
X156460000Y-95600000D01*
D23*
X154900000Y-88600000D02*
X153000000Y-86700000D01*
D24*
%TO.N,/Headstage Interface/B4.E_{5}*%
X156460000Y-98000000D02*
X154500000Y-98000000D01*
%TO.N,/Headstage Interface/B4.E_{2}*%
X156460000Y-96800000D02*
X155200000Y-96800000D01*
%TO.N,/Headstage Interface/B6.E_{2}*%
X156460000Y-103200000D02*
X155200000Y-103200000D01*
%TO.N,/Headstage Interface/E_{stim}*%
X153000000Y-131020000D02*
X153000000Y-135000000D01*
D23*
X154020000Y-111600000D02*
X154890000Y-111600000D01*
D24*
X156500000Y-108840000D02*
X156460000Y-108800000D01*
D23*
X156500000Y-109990000D02*
X156500000Y-109500000D01*
X154890000Y-111600000D02*
X156500000Y-109990000D01*
D24*
X156500000Y-109400000D02*
X156500000Y-108840000D01*
X154020000Y-130000000D02*
X153000000Y-131020000D01*
X156500000Y-109400000D02*
X156500000Y-109500000D01*
X154020000Y-111600000D02*
X154020000Y-130000000D01*
%TO.N,/Headstage Interface/B4.E_{3}*%
X156460000Y-97200000D02*
X154500000Y-97200000D01*
%TO.N,/Headstage Interface/B7.E_{5}*%
X156460000Y-107600000D02*
X154500000Y-107600000D01*
%TO.N,/Headstage Interface/B7.E_{0}*%
X156460000Y-105600000D02*
X155200000Y-105600000D01*
%TO.N,/Headstage Interface/B7.E_{4}*%
X156460000Y-107200000D02*
X155200000Y-107200000D01*
%TO.N,/Headstage Interface/B4.E_{6}*%
X156460000Y-98400000D02*
X155200000Y-98400000D01*
%TO.N,/Headstage Interface/B6.E_{5}*%
X156460000Y-104400000D02*
X154500000Y-104400000D01*
%TO.N,/Headstage Interface/B7.E_{6}*%
X156460000Y-108000000D02*
X155200000Y-108000000D01*
%TO.N,/Headstage Interface/K_{1}*%
X156460000Y-95200000D02*
X156460000Y-94500000D01*
D23*
X162800000Y-85000000D02*
X163000000Y-85000000D01*
X156460000Y-91340000D02*
X162800000Y-85000000D01*
X156460000Y-94500000D02*
X156460000Y-91340000D01*
D24*
%TO.N,/Headstage Interface/B7.E_{2}*%
X156460000Y-106400000D02*
X155200000Y-106400000D01*
%TO.N,/Headstage Interface/B5.E_{7}*%
X156460000Y-102000000D02*
X154500000Y-102000000D01*
%TO.N,/Headstage Interface/B6.E_{7}*%
X156460000Y-105200000D02*
X154500000Y-105200000D01*
%TO.N,/Headstage Interface/B6.E_{0}*%
X156460000Y-102400000D02*
X155200000Y-102400000D01*
%TO.N,/Headstage Interface/B5.E_{1}*%
X156460000Y-99600000D02*
X154500000Y-99600000D01*
%TO.N,/Headstage Interface/B4.E_{4}*%
X156460000Y-97600000D02*
X155200000Y-97600000D01*
%TO.N,/Headstage Interface/B4.E_{0}*%
X156460000Y-96000000D02*
X155200000Y-96000000D01*
%TO.N,/Headstage Interface/REF*%
X160800000Y-108400000D02*
X161200000Y-108800000D01*
X159540000Y-108400000D02*
X160800000Y-108400000D01*
D23*
X162970000Y-110570000D02*
X161300000Y-108900000D01*
X161300000Y-108900000D02*
X161200000Y-108800000D01*
X162970000Y-119345000D02*
X162970000Y-110570000D01*
D24*
%TO.N,/Headstage Interface/A*%
X159540000Y-95200000D02*
X159540000Y-94700000D01*
D23*
X159540000Y-94700000D02*
X159540000Y-90560000D01*
X159540000Y-90560000D02*
X163000000Y-87100000D01*
X163000000Y-87100000D02*
X163000000Y-87000000D01*
D24*
%TO.N,/Headstage Interface/B6.E_{6}*%
X156460000Y-104800000D02*
X155200000Y-104800000D01*
%TO.N,/Headstage Interface/B6.E_{1}*%
X156460000Y-102800000D02*
X154500000Y-102800000D01*
%TO.N,/Headstage Interface/B5.E_{6}*%
X156460000Y-101600000D02*
X155200000Y-101600000D01*
%TO.N,/Headstage Interface/B6.E_{4}*%
X156460000Y-104000000D02*
X155200000Y-104000000D01*
%TO.N,/Headstage Interface/B5.E_{4}*%
X156460000Y-100800000D02*
X155200000Y-100800000D01*
%TO.N,/Headstage Interface/B5.E_{3}*%
X156460000Y-100400000D02*
X154500000Y-100400000D01*
%TO.N,/Headstage Interface/B4.E_{1}*%
X156460000Y-96400000D02*
X154500000Y-96400000D01*
%TO.N,/Headstage Interface/B6.E_{3}*%
X156460000Y-103600000D02*
X154500000Y-103600000D01*
%TO.N,/Headstage Interface/B8.E_{2}*%
X159540000Y-96400000D02*
X160800000Y-96400000D01*
%TO.N,/Test Signal Interface/SDA*%
X129700000Y-116200000D02*
X129700000Y-121690000D01*
X134060000Y-121760000D02*
X134125000Y-121695000D01*
X123825000Y-121760000D02*
X134060000Y-121760000D01*
X129100000Y-115600000D02*
X127700000Y-115600000D01*
X129700000Y-116200000D02*
X129100000Y-115600000D01*
%TO.N,/Headstage Interface/B10.E_{4}*%
X159540000Y-103600000D02*
X160800000Y-103600000D01*
%TO.N,/Headstage Interface/B8.E_{7}*%
X159540000Y-98400000D02*
X161500000Y-98400000D01*
%TO.N,/Test Signal Interface/SCL*%
X130900000Y-121200000D02*
X130900000Y-115600000D01*
X127700000Y-114800000D02*
X130100000Y-114800000D01*
X134125000Y-122965000D02*
X131025000Y-122965000D01*
X130810000Y-123090000D02*
X130900000Y-123090000D01*
X130100000Y-114800000D02*
X130900000Y-115600000D01*
X129600000Y-124300000D02*
X130810000Y-123090000D01*
X123825000Y-124300000D02*
X129600000Y-124300000D01*
X130900000Y-122300000D02*
X130900000Y-123090000D01*
X131025000Y-122965000D02*
X130900000Y-123090000D01*
%TO.N,/Headstage Interface/B8.E_{3}*%
X159540000Y-96800000D02*
X161500000Y-96800000D01*
%TO.N,/Headstage Interface/B11.E_{5}*%
X159540000Y-107200000D02*
X161500000Y-107200000D01*
%TO.N,/Headstage Interface/B8.E_{4}*%
X159540000Y-97200000D02*
X160800000Y-97200000D01*
%TO.N,/Headstage Interface/B9.E_{1}*%
X159540000Y-99200000D02*
X161500000Y-99200000D01*
%TO.N,/Headstage Interface/B8.E_{0}*%
X159540000Y-95600000D02*
X160800000Y-95600000D01*
%TO.N,/Headstage Interface/B9.E_{0}*%
X159540000Y-98800000D02*
X160800000Y-98800000D01*
%TO.N,/Headstage Interface/B9.E_{5}*%
X159540000Y-100800000D02*
X161500000Y-100800000D01*
%TO.N,/Headstage Interface/B10.E_{3}*%
X159540000Y-103200000D02*
X161500000Y-103200000D01*
%TO.N,/Headstage Interface/B11.E_{4}*%
X159540000Y-106800000D02*
X160800000Y-106800000D01*
%TO.N,/Headstage Interface/B10.E_{1}*%
X159540000Y-102400000D02*
X161500000Y-102400000D01*
%TO.N,/Headstage Interface/B10.E_{2}*%
X159540000Y-102800000D02*
X160800000Y-102800000D01*
%TO.N,/Headstage Interface/B10.E_{7}*%
X159540000Y-104800000D02*
X161500000Y-104800000D01*
%TO.N,/Headstage Interface/B9.E_{3}*%
X159540000Y-100000000D02*
X161500000Y-100000000D01*
%TO.N,/Headstage Interface/B9.E_{4}*%
X159540000Y-100400000D02*
X160800000Y-100400000D01*
%TO.N,/Headstage Interface/B11.E_{0}*%
X159540000Y-105200000D02*
X160800000Y-105200000D01*
%TO.N,/Headstage Interface/B11.E_{6}*%
X159540000Y-107600000D02*
X160800000Y-107600000D01*
%TO.N,/Headstage Interface/B9.E_{6}*%
X159540000Y-101200000D02*
X160800000Y-101200000D01*
%TO.N,/Headstage Interface/B8.E_{1}*%
X159540000Y-96000000D02*
X161500000Y-96000000D01*
%TO.N,/Headstage Interface/B11.E_{1}*%
X159540000Y-105600000D02*
X161500000Y-105600000D01*
%TO.N,/Headstage Interface/B8.E_{6}*%
X159540000Y-98000000D02*
X160800000Y-98000000D01*
%TO.N,/Headstage Interface/B11.E_{3}*%
X159540000Y-106400000D02*
X161500000Y-106400000D01*
%TO.N,/Headstage Interface/B9.E_{7}*%
X159540000Y-101600000D02*
X161500000Y-101600000D01*
%TO.N,/Headstage Interface/B9.E_{2}*%
X159540000Y-99600000D02*
X160800000Y-99600000D01*
%TO.N,/Headstage Interface/B8.E_{5}*%
X159540000Y-97600000D02*
X161500000Y-97600000D01*
%TO.N,/Headstage Interface/B11.E_{7}*%
X160600000Y-108000000D02*
X159540000Y-108000000D01*
X161500000Y-108000000D02*
X160500000Y-108000000D01*
X160500000Y-108000000D02*
X160600000Y-108000000D01*
%TO.N,/Headstage Interface/B10.E_{6}*%
X159540000Y-104400000D02*
X160800000Y-104400000D01*
%TO.N,/Headstage Interface/B10.E_{0}*%
X159540000Y-102000000D02*
X160800000Y-102000000D01*
%TO.N,/Headstage Interface/B10.E_{5}*%
X159540000Y-104000000D02*
X161500000Y-104000000D01*
%TO.N,/Headstage Interface/B11.E_{2}*%
X159540000Y-106000000D02*
X160800000Y-106000000D01*
%TO.N,Net-(J4-Pin_6)*%
X129550000Y-126840000D02*
X123825000Y-126840000D01*
X132000000Y-124390000D02*
X129550000Y-126840000D01*
X132155000Y-124235000D02*
X132000000Y-124390000D01*
X134125000Y-124235000D02*
X132155000Y-124235000D01*
%TD*%
%TA.AperFunction,Conductor*%
%TO.N,GND*%
G36*
X205002065Y-77150615D02*
G01*
X205314905Y-77168184D01*
X205323141Y-77169113D01*
X205629975Y-77221246D01*
X205638058Y-77223091D01*
X205937147Y-77309256D01*
X205944960Y-77311990D01*
X206125477Y-77386763D01*
X206232511Y-77431098D01*
X206239987Y-77434698D01*
X206512398Y-77585254D01*
X206519412Y-77589662D01*
X206713263Y-77727207D01*
X206773239Y-77769762D01*
X206779726Y-77774934D01*
X207011807Y-77982334D01*
X207017665Y-77988192D01*
X207172233Y-78161154D01*
X207225064Y-78220272D01*
X207230237Y-78226760D01*
X207410333Y-78480581D01*
X207414749Y-78487608D01*
X207565301Y-78760012D01*
X207568901Y-78767488D01*
X207688005Y-79055029D01*
X207690746Y-79062862D01*
X207776907Y-79361937D01*
X207778753Y-79370027D01*
X207830885Y-79676852D01*
X207831815Y-79685099D01*
X207849384Y-79997934D01*
X207849500Y-80002083D01*
X207849500Y-133997916D01*
X207849384Y-134002065D01*
X207831815Y-134314900D01*
X207830885Y-134323147D01*
X207778753Y-134629972D01*
X207776907Y-134638062D01*
X207690746Y-134937137D01*
X207688005Y-134944970D01*
X207568901Y-135232511D01*
X207565301Y-135239987D01*
X207414749Y-135512391D01*
X207410333Y-135519418D01*
X207230237Y-135773239D01*
X207225064Y-135779727D01*
X207017670Y-136011802D01*
X207011802Y-136017670D01*
X206779727Y-136225064D01*
X206773239Y-136230237D01*
X206519418Y-136410333D01*
X206512391Y-136414749D01*
X206239987Y-136565301D01*
X206232511Y-136568901D01*
X205944970Y-136688005D01*
X205937137Y-136690746D01*
X205638062Y-136776907D01*
X205629972Y-136778753D01*
X205323147Y-136830885D01*
X205314900Y-136831815D01*
X205002066Y-136849384D01*
X204997917Y-136849500D01*
X111002083Y-136849500D01*
X110997934Y-136849384D01*
X110685099Y-136831815D01*
X110676852Y-136830885D01*
X110370027Y-136778753D01*
X110361937Y-136776907D01*
X110062862Y-136690746D01*
X110055029Y-136688005D01*
X109767488Y-136568901D01*
X109760012Y-136565301D01*
X109487608Y-136414749D01*
X109480581Y-136410333D01*
X109422144Y-136368870D01*
X109298109Y-136280862D01*
X109226760Y-136230237D01*
X109220272Y-136225064D01*
X109106394Y-136123297D01*
X108988192Y-136017665D01*
X108982334Y-136011807D01*
X108774934Y-135779726D01*
X108769762Y-135773239D01*
X108755759Y-135753503D01*
X108589662Y-135519412D01*
X108585254Y-135512398D01*
X108434698Y-135239987D01*
X108431098Y-135232511D01*
X108363346Y-135068944D01*
X108311990Y-134944960D01*
X108309256Y-134937147D01*
X108291074Y-134874036D01*
X151399500Y-134874036D01*
X151399500Y-135125963D01*
X151438909Y-135374782D01*
X151438912Y-135374795D01*
X151516756Y-135614373D01*
X151631129Y-135838845D01*
X151779203Y-136042651D01*
X151779207Y-136042656D01*
X151957344Y-136220793D01*
X151957347Y-136220795D01*
X151957348Y-136220796D01*
X152161154Y-136368870D01*
X152242531Y-136410333D01*
X152385621Y-136483241D01*
X152385623Y-136483241D01*
X152385626Y-136483243D01*
X152625204Y-136561087D01*
X152625210Y-136561088D01*
X152625215Y-136561090D01*
X152749626Y-136580795D01*
X152874036Y-136600500D01*
X152874038Y-136600500D01*
X153125964Y-136600500D01*
X153225491Y-136584736D01*
X153374785Y-136561090D01*
X153374792Y-136561087D01*
X153374795Y-136561087D01*
X153614373Y-136483243D01*
X153614373Y-136483242D01*
X153614379Y-136483241D01*
X153838845Y-136368870D01*
X154042656Y-136220793D01*
X154220793Y-136042656D01*
X154368870Y-135838845D01*
X154483241Y-135614379D01*
X154561090Y-135374785D01*
X154600500Y-135125962D01*
X154600500Y-134888577D01*
X161300000Y-134888577D01*
X161300000Y-135111422D01*
X161329086Y-135332365D01*
X161386763Y-135547618D01*
X161472043Y-135753500D01*
X161472045Y-135753503D01*
X161583467Y-135946495D01*
X161719134Y-136123297D01*
X161727207Y-136131370D01*
X162438681Y-135419894D01*
X162456274Y-135446224D01*
X162553776Y-135543726D01*
X162580103Y-135561317D01*
X161868629Y-136272792D01*
X161876702Y-136280865D01*
X162053504Y-136416532D01*
X162246496Y-136527954D01*
X162246499Y-136527956D01*
X162452381Y-136613236D01*
X162667635Y-136670913D01*
X162667633Y-136670913D01*
X162888578Y-136700000D01*
X163111422Y-136700000D01*
X163332365Y-136670913D01*
X163547618Y-136613236D01*
X163753500Y-136527956D01*
X163753503Y-136527954D01*
X163946495Y-136416532D01*
X164123291Y-136280870D01*
X164123301Y-136280862D01*
X164131370Y-136272792D01*
X163419895Y-135561317D01*
X163446224Y-135543726D01*
X163543726Y-135446224D01*
X163561317Y-135419895D01*
X164272792Y-136131370D01*
X164280862Y-136123301D01*
X164280870Y-136123291D01*
X164416532Y-135946495D01*
X164527954Y-135753503D01*
X164527956Y-135753500D01*
X164613236Y-135547618D01*
X164670913Y-135332365D01*
X164700000Y-135111422D01*
X164700000Y-134888577D01*
X164670913Y-134667634D01*
X164613236Y-134452381D01*
X164527956Y-134246499D01*
X164527954Y-134246496D01*
X164416532Y-134053504D01*
X164280865Y-133876702D01*
X164272792Y-133868629D01*
X163561317Y-134580103D01*
X163543726Y-134553776D01*
X163446224Y-134456274D01*
X163419894Y-134438681D01*
X164131370Y-133727207D01*
X164123297Y-133719134D01*
X163946495Y-133583467D01*
X163753503Y-133472045D01*
X163753500Y-133472043D01*
X163547618Y-133386763D01*
X163332364Y-133329086D01*
X163332366Y-133329086D01*
X163111422Y-133300000D01*
X162888578Y-133300000D01*
X162667634Y-133329086D01*
X162452381Y-133386763D01*
X162246499Y-133472043D01*
X162246496Y-133472045D01*
X162053504Y-133583467D01*
X161876707Y-133719129D01*
X161876706Y-133719131D01*
X161868629Y-133727207D01*
X162580104Y-134438682D01*
X162553776Y-134456274D01*
X162456274Y-134553776D01*
X162438682Y-134580104D01*
X161727207Y-133868629D01*
X161719131Y-133876706D01*
X161719129Y-133876707D01*
X161583467Y-134053504D01*
X161472045Y-134246496D01*
X161472043Y-134246499D01*
X161386763Y-134452381D01*
X161329086Y-134667634D01*
X161300000Y-134888577D01*
X154600500Y-134888577D01*
X154600500Y-134874038D01*
X154591391Y-134816529D01*
X154567934Y-134668426D01*
X154561090Y-134625215D01*
X154561088Y-134625210D01*
X154561087Y-134625204D01*
X154483243Y-134385626D01*
X154483241Y-134385623D01*
X154483241Y-134385621D01*
X154370886Y-134165111D01*
X154368870Y-134161154D01*
X154220796Y-133957348D01*
X154220795Y-133957347D01*
X154220793Y-133957344D01*
X154042656Y-133779207D01*
X154042653Y-133779204D01*
X154042651Y-133779203D01*
X153838845Y-133631129D01*
X153614373Y-133516756D01*
X153374795Y-133438912D01*
X153374785Y-133438910D01*
X153337922Y-133433071D01*
X153289632Y-133403477D01*
X153275500Y-133359982D01*
X153275500Y-131164766D01*
X153297173Y-131112441D01*
X154253557Y-130156058D01*
X154295500Y-130054800D01*
X154295500Y-129945200D01*
X154295500Y-123954792D01*
X159630001Y-123954792D01*
X159632908Y-123979868D01*
X159632910Y-123979874D01*
X159678213Y-124082478D01*
X159757521Y-124161786D01*
X159860124Y-124207089D01*
X159860123Y-124207089D01*
X159885210Y-124209999D01*
X160330000Y-124209999D01*
X160530000Y-124209999D01*
X160974792Y-124209999D01*
X160999868Y-124207091D01*
X160999874Y-124207089D01*
X161102478Y-124161786D01*
X161181786Y-124082478D01*
X161227089Y-123979875D01*
X161230000Y-123954789D01*
X161230000Y-122755000D01*
X160530000Y-122755000D01*
X160530000Y-124209999D01*
X160330000Y-124209999D01*
X160330000Y-122755000D01*
X159630001Y-122755000D01*
X159630001Y-123954792D01*
X154295500Y-123954792D01*
X154295500Y-121355210D01*
X159630000Y-121355210D01*
X159630000Y-122555000D01*
X160330000Y-122555000D01*
X160530000Y-122555000D01*
X161229999Y-122555000D01*
X161229999Y-121355207D01*
X161227091Y-121330131D01*
X161227089Y-121330125D01*
X161181786Y-121227521D01*
X161102478Y-121148213D01*
X160999875Y-121102910D01*
X160999876Y-121102910D01*
X160974789Y-121100000D01*
X160530000Y-121100000D01*
X160530000Y-122555000D01*
X160330000Y-122555000D01*
X160330000Y-121100000D01*
X159885207Y-121100000D01*
X159860131Y-121102908D01*
X159860125Y-121102910D01*
X159757521Y-121148213D01*
X159678213Y-121227521D01*
X159632910Y-121330124D01*
X159630000Y-121355210D01*
X154295500Y-121355210D01*
X154295500Y-112136810D01*
X154317174Y-112084484D01*
X154322257Y-112079853D01*
X154329589Y-112073770D01*
X154350404Y-112064065D01*
X154394727Y-112019741D01*
X154397378Y-112017543D01*
X154421398Y-112010119D01*
X154444621Y-112000500D01*
X154942726Y-112000500D01*
X154942727Y-112000500D01*
X155044588Y-111973207D01*
X155135913Y-111920480D01*
X156820480Y-110235913D01*
X156873207Y-110144588D01*
X156900500Y-110042727D01*
X156900500Y-109937273D01*
X156900500Y-109447273D01*
X156900500Y-109447271D01*
X156900499Y-109447270D01*
X156873208Y-109345417D01*
X156873207Y-109345413D01*
X156820480Y-109254087D01*
X156797174Y-109230781D01*
X156775500Y-109178455D01*
X156775500Y-109170227D01*
X156797174Y-109117901D01*
X156835065Y-109097649D01*
X156882131Y-109088288D01*
X156882132Y-109088287D01*
X156882133Y-109088287D01*
X156951762Y-109041762D01*
X156998287Y-108972133D01*
X157005418Y-108936282D01*
X158890000Y-108936282D01*
X158893007Y-108962206D01*
X158939821Y-109068227D01*
X159021772Y-109150178D01*
X159127793Y-109196992D01*
X159153718Y-109200000D01*
X159440000Y-109200000D01*
X159640000Y-109200000D01*
X159926282Y-109200000D01*
X159952206Y-109196992D01*
X160058227Y-109150178D01*
X160140178Y-109068227D01*
X160186992Y-108962206D01*
X160190000Y-108936282D01*
X160190000Y-108900000D01*
X159640000Y-108900000D01*
X159640000Y-109200000D01*
X159440000Y-109200000D01*
X159440000Y-108900000D01*
X158890000Y-108900000D01*
X158890000Y-108936282D01*
X157005418Y-108936282D01*
X157010500Y-108910733D01*
X157010499Y-108789115D01*
X157010499Y-108689272D01*
X157010499Y-108689268D01*
X156998287Y-108627867D01*
X156998286Y-108627866D01*
X156996865Y-108620717D01*
X156998474Y-108620397D01*
X156998474Y-108579602D01*
X156996865Y-108579282D01*
X157001778Y-108554582D01*
X157010500Y-108510733D01*
X157010499Y-108289268D01*
X156998287Y-108227867D01*
X156998286Y-108227866D01*
X156996865Y-108220717D01*
X156998474Y-108220397D01*
X156998474Y-108179602D01*
X156996865Y-108179282D01*
X157001778Y-108154582D01*
X157010500Y-108110733D01*
X157010499Y-107889268D01*
X156998287Y-107827867D01*
X156998286Y-107827866D01*
X156996865Y-107820717D01*
X156998474Y-107820397D01*
X156998474Y-107779602D01*
X156996865Y-107779282D01*
X157001778Y-107754582D01*
X157010500Y-107710733D01*
X157010499Y-107489268D01*
X156998287Y-107427867D01*
X156998286Y-107427866D01*
X156996865Y-107420717D01*
X156998474Y-107420397D01*
X156998474Y-107379602D01*
X156996865Y-107379282D01*
X157001778Y-107354582D01*
X157010500Y-107310733D01*
X157010499Y-107089268D01*
X156998287Y-107027867D01*
X156998286Y-107027866D01*
X156996865Y-107020717D01*
X156998474Y-107020397D01*
X156998474Y-106979602D01*
X156996865Y-106979282D01*
X157001778Y-106954582D01*
X157010500Y-106910733D01*
X157010499Y-106689268D01*
X156998287Y-106627867D01*
X156998286Y-106627866D01*
X156996865Y-106620717D01*
X156998474Y-106620397D01*
X156998474Y-106579602D01*
X156996865Y-106579282D01*
X157001778Y-106554582D01*
X157010500Y-106510733D01*
X157010499Y-106289268D01*
X156998287Y-106227867D01*
X156998286Y-106227866D01*
X156996865Y-106220717D01*
X156998474Y-106220397D01*
X156998474Y-106179602D01*
X156996865Y-106179282D01*
X157001778Y-106154582D01*
X157010500Y-106110733D01*
X157010499Y-105889268D01*
X156998287Y-105827867D01*
X156998286Y-105827866D01*
X156996865Y-105820717D01*
X156998474Y-105820397D01*
X156998474Y-105779602D01*
X156996865Y-105779282D01*
X157001778Y-105754582D01*
X157010500Y-105710733D01*
X157010499Y-105489268D01*
X156998287Y-105427867D01*
X156998286Y-105427866D01*
X156996865Y-105420717D01*
X156998474Y-105420397D01*
X156998474Y-105379602D01*
X156996865Y-105379282D01*
X157001778Y-105354582D01*
X157010500Y-105310733D01*
X157010499Y-105089268D01*
X156998287Y-105027867D01*
X156998286Y-105027866D01*
X156996865Y-105020717D01*
X156998474Y-105020397D01*
X156998474Y-104979602D01*
X156996865Y-104979282D01*
X157001778Y-104954582D01*
X157010500Y-104910733D01*
X157010499Y-104689268D01*
X156998287Y-104627867D01*
X156998286Y-104627866D01*
X156996865Y-104620717D01*
X156998474Y-104620397D01*
X156998474Y-104579602D01*
X156996865Y-104579282D01*
X157001778Y-104554582D01*
X157010500Y-104510733D01*
X157010499Y-104289268D01*
X156998287Y-104227867D01*
X156998286Y-104227866D01*
X156996865Y-104220717D01*
X156998474Y-104220397D01*
X156998474Y-104179602D01*
X156996865Y-104179282D01*
X157001778Y-104154582D01*
X157010500Y-104110733D01*
X157010499Y-103889268D01*
X156998287Y-103827867D01*
X156998286Y-103827866D01*
X156996865Y-103820717D01*
X156998474Y-103820397D01*
X156998474Y-103779602D01*
X156996865Y-103779282D01*
X157001778Y-103754582D01*
X157010500Y-103710733D01*
X157010499Y-103489268D01*
X156998287Y-103427867D01*
X156998286Y-103427866D01*
X156996865Y-103420717D01*
X156998474Y-103420397D01*
X156998474Y-103379602D01*
X156996865Y-103379282D01*
X157001778Y-103354582D01*
X157010500Y-103310733D01*
X157010499Y-103089268D01*
X156998287Y-103027867D01*
X156998286Y-103027866D01*
X156996865Y-103020717D01*
X156998474Y-103020397D01*
X156998474Y-102979602D01*
X156996865Y-102979282D01*
X157001778Y-102954582D01*
X157010500Y-102910733D01*
X157010499Y-102689268D01*
X156998287Y-102627867D01*
X156998286Y-102627866D01*
X156996865Y-102620717D01*
X156998474Y-102620397D01*
X156998474Y-102579602D01*
X156996865Y-102579282D01*
X157001778Y-102554582D01*
X157010500Y-102510733D01*
X157010499Y-102289268D01*
X156998287Y-102227867D01*
X156998286Y-102227866D01*
X156996865Y-102220717D01*
X156998474Y-102220397D01*
X156998474Y-102179602D01*
X156996865Y-102179282D01*
X157001778Y-102154582D01*
X157010500Y-102110733D01*
X157010499Y-101889268D01*
X156998287Y-101827867D01*
X156998286Y-101827866D01*
X156996865Y-101820717D01*
X156998474Y-101820397D01*
X156998474Y-101779602D01*
X156996865Y-101779282D01*
X157001778Y-101754582D01*
X157010500Y-101710733D01*
X157010499Y-101489268D01*
X156998287Y-101427867D01*
X156998286Y-101427866D01*
X156996865Y-101420717D01*
X156998474Y-101420397D01*
X156998474Y-101379602D01*
X156996865Y-101379282D01*
X157001778Y-101354582D01*
X157010500Y-101310733D01*
X157010499Y-101089268D01*
X156998287Y-101027867D01*
X156998286Y-101027866D01*
X156996865Y-101020717D01*
X156998474Y-101020397D01*
X156998474Y-100979602D01*
X156996865Y-100979282D01*
X157001778Y-100954582D01*
X157010500Y-100910733D01*
X157010499Y-100689268D01*
X156998287Y-100627867D01*
X156998286Y-100627866D01*
X156996865Y-100620717D01*
X156998474Y-100620397D01*
X156998474Y-100579602D01*
X156996865Y-100579282D01*
X157001778Y-100554582D01*
X157010500Y-100510733D01*
X157010499Y-100289268D01*
X156998287Y-100227867D01*
X156998286Y-100227866D01*
X156996865Y-100220717D01*
X156998474Y-100220397D01*
X156998474Y-100179602D01*
X156996865Y-100179282D01*
X157001778Y-100154582D01*
X157010500Y-100110733D01*
X157010499Y-99889268D01*
X156998287Y-99827867D01*
X156998286Y-99827866D01*
X156996865Y-99820717D01*
X156998474Y-99820397D01*
X156998474Y-99779602D01*
X156996865Y-99779282D01*
X157001778Y-99754582D01*
X157010500Y-99710733D01*
X157010499Y-99489268D01*
X156998287Y-99427867D01*
X156998286Y-99427866D01*
X156996865Y-99420717D01*
X156998474Y-99420397D01*
X156998474Y-99379602D01*
X156996865Y-99379282D01*
X157001778Y-99354582D01*
X157010500Y-99310733D01*
X157010499Y-99089268D01*
X156998287Y-99027867D01*
X156998286Y-99027866D01*
X156996865Y-99020717D01*
X156998474Y-99020397D01*
X156998474Y-98979602D01*
X156996865Y-98979282D01*
X157001778Y-98954582D01*
X157010500Y-98910733D01*
X157010499Y-98689268D01*
X156998287Y-98627867D01*
X156998286Y-98627866D01*
X156996865Y-98620717D01*
X156998474Y-98620397D01*
X156998474Y-98579602D01*
X156996865Y-98579282D01*
X157001778Y-98554582D01*
X157010500Y-98510733D01*
X157010499Y-98289268D01*
X156998287Y-98227867D01*
X156998286Y-98227866D01*
X156996865Y-98220717D01*
X156998474Y-98220397D01*
X156998474Y-98179602D01*
X156996865Y-98179282D01*
X157001778Y-98154582D01*
X157010500Y-98110733D01*
X157010499Y-97889268D01*
X156998287Y-97827867D01*
X156998286Y-97827866D01*
X156996865Y-97820717D01*
X156998474Y-97820397D01*
X156998474Y-97779602D01*
X156996865Y-97779282D01*
X157001778Y-97754582D01*
X157010500Y-97710733D01*
X157010499Y-97489268D01*
X156998287Y-97427867D01*
X156998286Y-97427866D01*
X156996865Y-97420717D01*
X156998474Y-97420397D01*
X156998474Y-97379602D01*
X156996865Y-97379282D01*
X157001778Y-97354582D01*
X157010500Y-97310733D01*
X157010499Y-97089268D01*
X156998287Y-97027867D01*
X156998286Y-97027866D01*
X156996865Y-97020717D01*
X156998474Y-97020397D01*
X156998474Y-96979602D01*
X156996865Y-96979282D01*
X157001778Y-96954582D01*
X157010500Y-96910733D01*
X157010499Y-96689268D01*
X156998287Y-96627867D01*
X156998286Y-96627866D01*
X156996865Y-96620717D01*
X156998474Y-96620397D01*
X156998474Y-96579602D01*
X156996865Y-96579282D01*
X157001778Y-96554582D01*
X157010500Y-96510733D01*
X157010499Y-96289268D01*
X156998287Y-96227867D01*
X156998286Y-96227866D01*
X156996865Y-96220717D01*
X156998474Y-96220397D01*
X156998474Y-96179602D01*
X156996865Y-96179282D01*
X157001778Y-96154582D01*
X157010500Y-96110733D01*
X157010499Y-95889268D01*
X156998287Y-95827867D01*
X156998286Y-95827866D01*
X156996865Y-95820717D01*
X156998474Y-95820397D01*
X156998474Y-95779602D01*
X156996865Y-95779282D01*
X156998287Y-95772133D01*
X157010500Y-95710733D01*
X157010499Y-95489268D01*
X156998287Y-95427867D01*
X156998286Y-95427866D01*
X156996865Y-95420717D01*
X156998474Y-95420397D01*
X156998474Y-95379602D01*
X156996865Y-95379282D01*
X156998287Y-95372133D01*
X157010500Y-95310733D01*
X157010499Y-95089268D01*
X156998287Y-95027867D01*
X156951762Y-94958238D01*
X156882133Y-94911713D01*
X156820733Y-94899500D01*
X156820732Y-94899500D01*
X156809500Y-94899500D01*
X156757174Y-94877826D01*
X156735500Y-94825500D01*
X156735500Y-94821545D01*
X156757174Y-94769219D01*
X156780480Y-94745913D01*
X156833207Y-94654587D01*
X156860499Y-94552729D01*
X156860500Y-94552729D01*
X156860500Y-91536544D01*
X156882173Y-91484219D01*
X162649708Y-85716683D01*
X162702033Y-85695010D01*
X162730351Y-85700643D01*
X162781082Y-85721656D01*
X162781087Y-85721658D01*
X162926082Y-85750500D01*
X162926084Y-85750500D01*
X163073916Y-85750500D01*
X163073918Y-85750500D01*
X163184477Y-85728508D01*
X163240026Y-85739557D01*
X163271492Y-85786649D01*
X163271492Y-85815523D01*
X163249500Y-85926083D01*
X163249500Y-86073920D01*
X163249856Y-86077533D01*
X163248515Y-86077665D01*
X163238321Y-86128867D01*
X163191223Y-86160324D01*
X163146061Y-86155056D01*
X163135342Y-86150161D01*
X163135340Y-86150160D01*
X163135339Y-86150160D01*
X163000000Y-86130701D01*
X162864661Y-86150160D01*
X162864658Y-86150160D01*
X162740281Y-86206960D01*
X162695934Y-86242697D01*
X162695933Y-86242698D01*
X162242703Y-86695930D01*
X162242701Y-86695933D01*
X162221969Y-86721659D01*
X162206959Y-86740284D01*
X162206957Y-86740287D01*
X162150161Y-86864658D01*
X162150160Y-86864661D01*
X162130701Y-87000000D01*
X162150160Y-87135338D01*
X162150160Y-87135341D01*
X162206599Y-87258927D01*
X162208620Y-87315528D01*
X162191612Y-87341993D01*
X159219517Y-90314090D01*
X159166792Y-90405412D01*
X159166793Y-90405413D01*
X159139500Y-90507273D01*
X159139500Y-94752727D01*
X159158886Y-94825080D01*
X159151494Y-94881232D01*
X159122978Y-94906241D01*
X159123928Y-94907663D01*
X159048239Y-94958237D01*
X159048237Y-94958239D01*
X159001713Y-95027866D01*
X158989500Y-95089267D01*
X158989500Y-95310727D01*
X159003135Y-95379283D01*
X159001527Y-95379602D01*
X159001528Y-95420398D01*
X159003135Y-95420718D01*
X158989500Y-95489267D01*
X158989500Y-95710727D01*
X159003135Y-95779283D01*
X159001527Y-95779602D01*
X159001528Y-95820398D01*
X159003135Y-95820718D01*
X158989500Y-95889267D01*
X158989500Y-96110727D01*
X159003135Y-96179283D01*
X159001527Y-96179602D01*
X159001528Y-96220398D01*
X159003135Y-96220718D01*
X158989500Y-96289267D01*
X158989500Y-96510727D01*
X159003135Y-96579283D01*
X159001527Y-96579602D01*
X159001528Y-96620398D01*
X159003135Y-96620718D01*
X158989500Y-96689267D01*
X158989500Y-96910727D01*
X159003135Y-96979283D01*
X159001527Y-96979602D01*
X159001528Y-97020398D01*
X159003135Y-97020718D01*
X158989500Y-97089267D01*
X158989500Y-97310727D01*
X159003135Y-97379283D01*
X159001527Y-97379602D01*
X159001528Y-97420398D01*
X159003135Y-97420718D01*
X158989500Y-97489267D01*
X158989500Y-97710727D01*
X159003135Y-97779283D01*
X159001527Y-97779602D01*
X159001528Y-97820398D01*
X159003135Y-97820718D01*
X158989500Y-97889267D01*
X158989500Y-98110727D01*
X159003135Y-98179283D01*
X159001527Y-98179602D01*
X159001528Y-98220398D01*
X159003135Y-98220718D01*
X158989500Y-98289267D01*
X158989500Y-98510727D01*
X159003135Y-98579283D01*
X159001527Y-98579602D01*
X159001528Y-98620398D01*
X159003135Y-98620718D01*
X158989500Y-98689267D01*
X158989500Y-98910727D01*
X159003135Y-98979283D01*
X159001527Y-98979602D01*
X159001528Y-99020398D01*
X159003135Y-99020718D01*
X158989500Y-99089267D01*
X158989500Y-99310727D01*
X159003135Y-99379283D01*
X159001527Y-99379602D01*
X159001528Y-99420398D01*
X159003135Y-99420718D01*
X158989500Y-99489267D01*
X158989500Y-99710727D01*
X159003135Y-99779283D01*
X159001527Y-99779602D01*
X159001528Y-99820398D01*
X159003135Y-99820718D01*
X158989500Y-99889267D01*
X158989500Y-100110727D01*
X159003135Y-100179283D01*
X159001527Y-100179602D01*
X159001528Y-100220398D01*
X159003135Y-100220718D01*
X158989500Y-100289267D01*
X158989500Y-100510727D01*
X159003135Y-100579283D01*
X159001527Y-100579602D01*
X159001528Y-100620398D01*
X159003135Y-100620718D01*
X158989500Y-100689267D01*
X158989500Y-100910727D01*
X159003135Y-100979283D01*
X159001527Y-100979602D01*
X159001528Y-101020398D01*
X159003135Y-101020718D01*
X158989500Y-101089267D01*
X158989500Y-101310727D01*
X159003135Y-101379283D01*
X159001527Y-101379602D01*
X159001528Y-101420398D01*
X159003135Y-101420718D01*
X158989500Y-101489267D01*
X158989500Y-101710727D01*
X159003135Y-101779283D01*
X159001527Y-101779602D01*
X159001528Y-101820398D01*
X159003135Y-101820718D01*
X158989500Y-101889267D01*
X158989500Y-102110727D01*
X159003135Y-102179283D01*
X159001527Y-102179602D01*
X159001528Y-102220398D01*
X159003135Y-102220718D01*
X158989500Y-102289267D01*
X158989500Y-102510727D01*
X159003135Y-102579283D01*
X159001527Y-102579602D01*
X159001528Y-102620398D01*
X159003135Y-102620718D01*
X158989500Y-102689267D01*
X158989500Y-102910727D01*
X159003135Y-102979283D01*
X159001527Y-102979602D01*
X159001528Y-103020398D01*
X159003135Y-103020718D01*
X158989500Y-103089267D01*
X158989500Y-103310727D01*
X159003135Y-103379283D01*
X159001527Y-103379602D01*
X159001528Y-103420398D01*
X159003135Y-103420718D01*
X158989500Y-103489267D01*
X158989500Y-103710727D01*
X159003135Y-103779283D01*
X159001527Y-103779602D01*
X159001528Y-103820398D01*
X159003135Y-103820718D01*
X158989500Y-103889267D01*
X158989500Y-104110727D01*
X159003135Y-104179283D01*
X159001527Y-104179602D01*
X159001528Y-104220398D01*
X159003135Y-104220718D01*
X158989500Y-104289267D01*
X158989500Y-104510727D01*
X159003135Y-104579283D01*
X159001527Y-104579602D01*
X159001528Y-104620398D01*
X159003135Y-104620718D01*
X158989500Y-104689267D01*
X158989500Y-104910727D01*
X159003135Y-104979283D01*
X159001527Y-104979602D01*
X159001528Y-105020398D01*
X159003135Y-105020718D01*
X158989500Y-105089267D01*
X158989500Y-105310727D01*
X159003135Y-105379283D01*
X159001527Y-105379602D01*
X159001528Y-105420398D01*
X159003135Y-105420718D01*
X158989500Y-105489267D01*
X158989500Y-105710727D01*
X159003135Y-105779283D01*
X159001527Y-105779602D01*
X159001528Y-105820398D01*
X159003135Y-105820718D01*
X158989500Y-105889267D01*
X158989500Y-106110727D01*
X159003135Y-106179283D01*
X159001527Y-106179602D01*
X159001528Y-106220398D01*
X159003135Y-106220718D01*
X158989500Y-106289267D01*
X158989500Y-106510727D01*
X159003135Y-106579283D01*
X159001527Y-106579602D01*
X159001528Y-106620398D01*
X159003135Y-106620718D01*
X158989500Y-106689267D01*
X158989500Y-106910727D01*
X159003135Y-106979283D01*
X159001527Y-106979602D01*
X159001528Y-107020398D01*
X159003135Y-107020718D01*
X158989500Y-107089267D01*
X158989500Y-107310727D01*
X159003135Y-107379283D01*
X159001527Y-107379602D01*
X159001528Y-107420398D01*
X159003135Y-107420718D01*
X158989500Y-107489267D01*
X158989500Y-107710727D01*
X159003135Y-107779283D01*
X159001527Y-107779602D01*
X159001528Y-107820398D01*
X159003135Y-107820718D01*
X158989500Y-107889267D01*
X158989500Y-108110727D01*
X159003135Y-108179283D01*
X159001527Y-108179602D01*
X159001528Y-108220398D01*
X159003135Y-108220718D01*
X158989500Y-108289267D01*
X158989500Y-108451442D01*
X158967826Y-108503768D01*
X158939821Y-108531772D01*
X158893007Y-108637793D01*
X158890000Y-108663717D01*
X158890000Y-108700000D01*
X159170551Y-108700000D01*
X159177798Y-108700356D01*
X159179261Y-108700499D01*
X159179262Y-108700499D01*
X159179267Y-108700500D01*
X159900732Y-108700499D01*
X159900738Y-108700499D01*
X159902191Y-108700356D01*
X159909438Y-108700000D01*
X160190000Y-108700000D01*
X160192826Y-108697174D01*
X160245152Y-108675500D01*
X160655233Y-108675500D01*
X160707559Y-108697174D01*
X160777826Y-108767441D01*
X160799500Y-108819767D01*
X160799500Y-108852727D01*
X160821888Y-108936282D01*
X160826793Y-108954588D01*
X160826795Y-108954592D01*
X160879517Y-109045909D01*
X160879518Y-109045910D01*
X160879520Y-109045913D01*
X160979519Y-109145912D01*
X160979520Y-109145913D01*
X161770880Y-109937273D01*
X162547826Y-110714218D01*
X162569500Y-110766544D01*
X162569500Y-117815500D01*
X162547826Y-117867826D01*
X162495500Y-117889500D01*
X162450252Y-117889500D01*
X162421010Y-117895316D01*
X162391767Y-117901133D01*
X162325449Y-117945447D01*
X162325447Y-117945449D01*
X162281133Y-118011767D01*
X162269500Y-118070253D01*
X162269500Y-120619746D01*
X162281133Y-120678232D01*
X162310608Y-120722343D01*
X162325448Y-120744552D01*
X162369560Y-120774027D01*
X162391767Y-120788866D01*
X162391768Y-120788866D01*
X162391769Y-120788867D01*
X162450252Y-120800500D01*
X162450254Y-120800500D01*
X163489746Y-120800500D01*
X163489748Y-120800500D01*
X163548231Y-120788867D01*
X163614552Y-120744552D01*
X163658867Y-120678231D01*
X163670500Y-120619748D01*
X163670500Y-118070252D01*
X163658867Y-118011769D01*
X163658865Y-118011766D01*
X163658865Y-118011765D01*
X163654258Y-118004871D01*
X189719500Y-118004871D01*
X189719500Y-118125128D01*
X189742959Y-118243069D01*
X189742961Y-118243076D01*
X189788981Y-118354179D01*
X189788982Y-118354180D01*
X189855794Y-118454171D01*
X189940829Y-118539206D01*
X190040820Y-118606018D01*
X190151924Y-118652039D01*
X190269871Y-118675500D01*
X190269872Y-118675500D01*
X190390128Y-118675500D01*
X190390129Y-118675500D01*
X190508076Y-118652039D01*
X190619180Y-118606018D01*
X190719171Y-118539206D01*
X190804206Y-118454171D01*
X190871018Y-118354180D01*
X190917039Y-118243076D01*
X190940500Y-118125129D01*
X190940500Y-118004871D01*
X190917039Y-117886924D01*
X190871018Y-117775820D01*
X190804206Y-117675829D01*
X190719171Y-117590794D01*
X190619180Y-117523982D01*
X190619181Y-117523982D01*
X190619179Y-117523981D01*
X190508076Y-117477961D01*
X190508069Y-117477959D01*
X190419215Y-117460285D01*
X190390129Y-117454500D01*
X190269871Y-117454500D01*
X190246538Y-117459141D01*
X190151930Y-117477959D01*
X190151923Y-117477961D01*
X190040820Y-117523981D01*
X189940832Y-117590791D01*
X189855791Y-117675832D01*
X189788981Y-117775820D01*
X189742961Y-117886923D01*
X189742959Y-117886930D01*
X189719500Y-118004871D01*
X163654258Y-118004871D01*
X163636633Y-117978494D01*
X163614552Y-117945448D01*
X163592343Y-117930608D01*
X163548232Y-117901133D01*
X163548233Y-117901133D01*
X163518989Y-117895316D01*
X163489748Y-117889500D01*
X163489746Y-117889500D01*
X163444500Y-117889500D01*
X163392174Y-117867826D01*
X163370500Y-117815500D01*
X163370500Y-110628698D01*
X163370501Y-110628685D01*
X163370501Y-110517271D01*
X163370500Y-110517270D01*
X163343208Y-110415416D01*
X163343206Y-110415411D01*
X163313066Y-110363207D01*
X163290479Y-110324086D01*
X163213334Y-110246941D01*
X163213323Y-110246931D01*
X161545913Y-108579520D01*
X161545913Y-108579519D01*
X161493219Y-108526826D01*
X161471544Y-108474501D01*
X161493218Y-108422175D01*
X161545543Y-108400500D01*
X161552729Y-108400500D01*
X161552729Y-108400499D01*
X161654587Y-108373207D01*
X161745913Y-108320480D01*
X161820480Y-108245913D01*
X161873207Y-108154587D01*
X161900499Y-108052729D01*
X161900500Y-108052729D01*
X161900500Y-107947271D01*
X161900499Y-107947270D01*
X161884957Y-107889267D01*
X161873207Y-107845413D01*
X161820480Y-107754087D01*
X161745913Y-107679520D01*
X161719179Y-107664085D01*
X161684702Y-107619153D01*
X161692094Y-107563000D01*
X161719180Y-107535914D01*
X161745913Y-107520480D01*
X161820480Y-107445913D01*
X161873207Y-107354587D01*
X161900499Y-107252729D01*
X161900500Y-107252729D01*
X161900500Y-107147271D01*
X161900499Y-107147270D01*
X161884957Y-107089267D01*
X161873207Y-107045413D01*
X161820480Y-106954087D01*
X161745913Y-106879520D01*
X161719179Y-106864085D01*
X161684702Y-106819153D01*
X161692094Y-106763000D01*
X161719180Y-106735914D01*
X161745913Y-106720480D01*
X161820480Y-106645913D01*
X161873207Y-106554587D01*
X161900499Y-106452729D01*
X161900500Y-106452729D01*
X161900500Y-106347271D01*
X161900499Y-106347270D01*
X161884957Y-106289267D01*
X161873207Y-106245413D01*
X161820480Y-106154087D01*
X161745913Y-106079520D01*
X161719179Y-106064085D01*
X161684702Y-106019153D01*
X161692094Y-105963000D01*
X161719180Y-105935914D01*
X161745913Y-105920480D01*
X161820480Y-105845913D01*
X161873207Y-105754587D01*
X161900499Y-105652729D01*
X161900500Y-105652729D01*
X161900500Y-105547271D01*
X161900499Y-105547270D01*
X161884957Y-105489267D01*
X161873207Y-105445413D01*
X161820480Y-105354087D01*
X161745913Y-105279520D01*
X161719179Y-105264085D01*
X161684702Y-105219153D01*
X161692094Y-105163000D01*
X161719180Y-105135914D01*
X161745913Y-105120480D01*
X161820480Y-105045913D01*
X161873207Y-104954587D01*
X161900499Y-104852729D01*
X161900500Y-104852729D01*
X161900500Y-104747271D01*
X161900499Y-104747270D01*
X161884957Y-104689267D01*
X161873207Y-104645413D01*
X161820480Y-104554087D01*
X161745913Y-104479520D01*
X161719179Y-104464085D01*
X161684702Y-104419153D01*
X161692094Y-104363000D01*
X161719180Y-104335914D01*
X161745913Y-104320480D01*
X161820480Y-104245913D01*
X161873207Y-104154587D01*
X161900499Y-104052729D01*
X161900500Y-104052729D01*
X161900500Y-103947271D01*
X161900499Y-103947270D01*
X161884957Y-103889267D01*
X161873207Y-103845413D01*
X161820480Y-103754087D01*
X161745913Y-103679520D01*
X161719179Y-103664085D01*
X161684702Y-103619153D01*
X161692094Y-103563000D01*
X161719180Y-103535914D01*
X161745913Y-103520480D01*
X161820480Y-103445913D01*
X161873207Y-103354587D01*
X161900499Y-103252729D01*
X161900500Y-103252729D01*
X161900500Y-103147271D01*
X161900499Y-103147270D01*
X161884957Y-103089267D01*
X161873207Y-103045413D01*
X161820480Y-102954087D01*
X161745913Y-102879520D01*
X161719179Y-102864085D01*
X161684702Y-102819153D01*
X161692094Y-102763000D01*
X161719180Y-102735914D01*
X161745913Y-102720480D01*
X161820480Y-102645913D01*
X161873207Y-102554587D01*
X161900499Y-102452729D01*
X161900500Y-102452729D01*
X161900500Y-102347271D01*
X161900499Y-102347270D01*
X161884957Y-102289267D01*
X161873207Y-102245413D01*
X161820480Y-102154087D01*
X161745913Y-102079520D01*
X161719179Y-102064085D01*
X161684702Y-102019153D01*
X161692094Y-101963000D01*
X161719180Y-101935914D01*
X161745913Y-101920480D01*
X161820480Y-101845913D01*
X161873207Y-101754587D01*
X161900499Y-101652729D01*
X161900500Y-101652729D01*
X161900500Y-101547271D01*
X161900499Y-101547270D01*
X161884957Y-101489267D01*
X161873207Y-101445413D01*
X161820480Y-101354087D01*
X161745913Y-101279520D01*
X161719179Y-101264085D01*
X161684702Y-101219153D01*
X161692094Y-101163000D01*
X161719180Y-101135914D01*
X161745913Y-101120480D01*
X161820480Y-101045913D01*
X161873207Y-100954587D01*
X161900499Y-100852729D01*
X161900500Y-100852729D01*
X161900500Y-100747271D01*
X161900499Y-100747270D01*
X161884957Y-100689267D01*
X161873207Y-100645413D01*
X161820480Y-100554087D01*
X161745913Y-100479520D01*
X161719179Y-100464085D01*
X161684702Y-100419153D01*
X161692094Y-100363000D01*
X161719180Y-100335914D01*
X161745913Y-100320480D01*
X161820480Y-100245913D01*
X161873207Y-100154587D01*
X161900499Y-100052729D01*
X161900500Y-100052729D01*
X161900500Y-99947271D01*
X161900499Y-99947270D01*
X161884957Y-99889267D01*
X161873207Y-99845413D01*
X161820480Y-99754087D01*
X161745913Y-99679520D01*
X161719179Y-99664085D01*
X161684702Y-99619153D01*
X161692094Y-99563000D01*
X161719180Y-99535914D01*
X161745913Y-99520480D01*
X161820480Y-99445913D01*
X161873207Y-99354587D01*
X161900499Y-99252729D01*
X161900500Y-99252729D01*
X161900500Y-99147271D01*
X161900499Y-99147270D01*
X161884957Y-99089267D01*
X161873207Y-99045413D01*
X161820480Y-98954087D01*
X161745913Y-98879520D01*
X161719179Y-98864085D01*
X161684702Y-98819153D01*
X161692094Y-98763000D01*
X161719180Y-98735914D01*
X161745913Y-98720480D01*
X161820480Y-98645913D01*
X161873207Y-98554587D01*
X161900499Y-98452729D01*
X161900500Y-98452729D01*
X161900500Y-98347271D01*
X161900499Y-98347270D01*
X161884957Y-98289267D01*
X161873207Y-98245413D01*
X161820480Y-98154087D01*
X161745913Y-98079520D01*
X161719179Y-98064085D01*
X161684702Y-98019153D01*
X161692094Y-97963000D01*
X161719180Y-97935914D01*
X161745913Y-97920480D01*
X161820480Y-97845913D01*
X161873207Y-97754587D01*
X161900499Y-97652729D01*
X161900500Y-97652729D01*
X161900500Y-97547271D01*
X161900499Y-97547270D01*
X161884957Y-97489267D01*
X161873207Y-97445413D01*
X161820480Y-97354087D01*
X161745913Y-97279520D01*
X161719179Y-97264085D01*
X161684702Y-97219153D01*
X161692094Y-97163000D01*
X161719180Y-97135914D01*
X161745913Y-97120480D01*
X161820480Y-97045913D01*
X161873207Y-96954587D01*
X161900499Y-96852729D01*
X161900500Y-96852729D01*
X161900500Y-96747271D01*
X161900499Y-96747270D01*
X161884957Y-96689267D01*
X161873207Y-96645413D01*
X161820480Y-96554087D01*
X161745913Y-96479520D01*
X161719179Y-96464085D01*
X161684702Y-96419153D01*
X161692094Y-96363000D01*
X161719180Y-96335914D01*
X161745913Y-96320480D01*
X161820480Y-96245913D01*
X161873207Y-96154587D01*
X161900499Y-96052729D01*
X161900500Y-96052729D01*
X161900500Y-95947271D01*
X161900499Y-95947270D01*
X161884957Y-95889267D01*
X161873207Y-95845413D01*
X161820480Y-95754087D01*
X161745913Y-95679520D01*
X161688499Y-95646372D01*
X161654591Y-95626795D01*
X161654582Y-95626791D01*
X161552729Y-95599500D01*
X161552727Y-95599500D01*
X161447273Y-95599500D01*
X161447271Y-95599500D01*
X161345417Y-95626791D01*
X161345404Y-95626796D01*
X161311499Y-95646372D01*
X161255347Y-95653764D01*
X161210414Y-95619285D01*
X161200500Y-95582286D01*
X161200500Y-95547271D01*
X161200499Y-95547270D01*
X161184957Y-95489267D01*
X161173207Y-95445413D01*
X161120480Y-95354087D01*
X161045913Y-95279520D01*
X160995649Y-95250500D01*
X160954591Y-95226795D01*
X160954582Y-95226791D01*
X160852729Y-95199500D01*
X160852727Y-95199500D01*
X160747273Y-95199500D01*
X160747271Y-95199500D01*
X160645417Y-95226791D01*
X160645408Y-95226795D01*
X160554086Y-95279520D01*
X160530781Y-95302826D01*
X160478455Y-95324500D01*
X160164500Y-95324500D01*
X160112174Y-95302826D01*
X160090500Y-95250500D01*
X160090499Y-95089272D01*
X160090499Y-95089268D01*
X160078287Y-95027867D01*
X160031762Y-94958238D01*
X159962133Y-94911713D01*
X159956072Y-94907663D01*
X159957379Y-94905706D01*
X159924223Y-94872549D01*
X159921113Y-94825080D01*
X159940499Y-94752729D01*
X159940500Y-94752729D01*
X159940500Y-90756544D01*
X159962173Y-90704219D01*
X162796426Y-87869965D01*
X162848751Y-87848292D01*
X162859310Y-87849838D01*
X162859419Y-87849086D01*
X162890498Y-87853554D01*
X163000000Y-87869299D01*
X163135342Y-87849839D01*
X163259719Y-87793039D01*
X163304067Y-87757301D01*
X163757299Y-87304067D01*
X163793039Y-87259719D01*
X163849839Y-87135342D01*
X163869299Y-87000000D01*
X163849839Y-86864658D01*
X163844943Y-86853939D01*
X163842921Y-86797340D01*
X163881514Y-86755887D01*
X163922370Y-86751126D01*
X163922467Y-86750144D01*
X163926080Y-86750500D01*
X163926082Y-86750500D01*
X164073916Y-86750500D01*
X164073918Y-86750500D01*
X164218913Y-86721658D01*
X164355495Y-86665084D01*
X164478416Y-86582951D01*
X164582951Y-86478416D01*
X164665084Y-86355495D01*
X164721658Y-86218913D01*
X164750500Y-86073918D01*
X164750500Y-85926082D01*
X164721658Y-85781087D01*
X164708988Y-85750500D01*
X164665084Y-85644505D01*
X164582951Y-85521584D01*
X164478415Y-85417048D01*
X164355494Y-85334915D01*
X164218917Y-85278343D01*
X164218907Y-85278340D01*
X164121811Y-85259026D01*
X164073918Y-85249500D01*
X163926082Y-85249500D01*
X163815523Y-85271492D01*
X163759974Y-85260443D01*
X163728508Y-85213351D01*
X163728508Y-85184477D01*
X163742147Y-85115910D01*
X163750500Y-85073918D01*
X163750500Y-84926082D01*
X163721658Y-84781087D01*
X163665084Y-84644505D01*
X163582951Y-84521584D01*
X163478416Y-84417049D01*
X163355495Y-84334916D01*
X163355496Y-84334916D01*
X163355494Y-84334915D01*
X163218917Y-84278343D01*
X163218907Y-84278340D01*
X163121811Y-84259026D01*
X163073918Y-84249500D01*
X162926082Y-84249500D01*
X162884977Y-84257676D01*
X162781092Y-84278340D01*
X162781082Y-84278343D01*
X162644505Y-84334915D01*
X162521584Y-84417048D01*
X162521583Y-84417050D01*
X162417050Y-84521583D01*
X162417048Y-84521584D01*
X162334915Y-84644505D01*
X162278343Y-84781082D01*
X162278340Y-84781092D01*
X162249500Y-84926083D01*
X162249500Y-84953455D01*
X162227826Y-85005781D01*
X156139517Y-91094090D01*
X156086792Y-91185412D01*
X156086793Y-91185413D01*
X156059500Y-91287273D01*
X156059500Y-94552729D01*
X156086791Y-94654582D01*
X156086795Y-94654591D01*
X156139520Y-94745913D01*
X156162826Y-94769219D01*
X156184500Y-94821545D01*
X156184500Y-94825500D01*
X156162826Y-94877826D01*
X156110505Y-94899500D01*
X156099273Y-94899500D01*
X156037866Y-94911713D01*
X155968239Y-94958237D01*
X155968237Y-94958239D01*
X155945033Y-94992966D01*
X155897940Y-95024431D01*
X155842392Y-95013381D01*
X155819419Y-94988853D01*
X155801743Y-94958237D01*
X155770480Y-94904087D01*
X155322174Y-94455781D01*
X155300500Y-94403455D01*
X155300500Y-88547273D01*
X155275387Y-88453549D01*
X155273207Y-88445413D01*
X155273207Y-88445412D01*
X155246843Y-88399750D01*
X155220480Y-88354087D01*
X155145913Y-88279520D01*
X155143334Y-88276941D01*
X155143323Y-88276931D01*
X153622174Y-86755781D01*
X153600500Y-86703455D01*
X153600500Y-86620941D01*
X153600499Y-86620940D01*
X153584056Y-86559575D01*
X153559577Y-86468216D01*
X153480520Y-86331284D01*
X153368716Y-86219480D01*
X153231784Y-86140423D01*
X153231781Y-86140422D01*
X153231779Y-86140421D01*
X153115877Y-86109365D01*
X153070944Y-86074887D01*
X153063552Y-86018734D01*
X153098030Y-85973801D01*
X153112158Y-85967510D01*
X153184090Y-85944139D01*
X153260909Y-85888326D01*
X153588325Y-85560909D01*
X153644139Y-85484090D01*
X153683342Y-85363433D01*
X153683342Y-85236567D01*
X153644139Y-85115910D01*
X153613630Y-85073918D01*
X153588328Y-85039093D01*
X153260909Y-84711675D01*
X153184091Y-84655862D01*
X153184090Y-84655861D01*
X153184088Y-84655860D01*
X153184084Y-84655858D01*
X153063434Y-84616658D01*
X153063433Y-84616658D01*
X152936567Y-84616658D01*
X152936565Y-84616658D01*
X152815915Y-84655858D01*
X152815907Y-84655862D01*
X152739093Y-84711671D01*
X152411675Y-85039090D01*
X152355860Y-85115911D01*
X152355858Y-85115915D01*
X152316658Y-85236565D01*
X152316658Y-85325500D01*
X152294984Y-85377826D01*
X152242658Y-85399500D01*
X152220941Y-85399500D01*
X152068220Y-85440421D01*
X152068214Y-85440424D01*
X151931283Y-85519480D01*
X151819480Y-85631283D01*
X151740424Y-85768214D01*
X151740421Y-85768220D01*
X151699500Y-85920940D01*
X151699500Y-86079059D01*
X151740421Y-86231779D01*
X151740422Y-86231781D01*
X151740423Y-86231784D01*
X151819480Y-86368716D01*
X151931284Y-86480520D01*
X152068216Y-86559577D01*
X152220940Y-86600499D01*
X152220941Y-86600500D01*
X152325500Y-86600500D01*
X152377826Y-86622174D01*
X152399500Y-86674500D01*
X152399500Y-86779059D01*
X152440421Y-86931779D01*
X152440422Y-86931781D01*
X152440423Y-86931784D01*
X152519480Y-87068716D01*
X152631284Y-87180520D01*
X152768216Y-87259577D01*
X152920940Y-87300499D01*
X152920941Y-87300500D01*
X152920943Y-87300500D01*
X153003455Y-87300500D01*
X153055781Y-87322174D01*
X154477826Y-88744218D01*
X154499500Y-88796544D01*
X154499500Y-94547273D01*
X154499500Y-94652727D01*
X154524469Y-94745913D01*
X154526793Y-94754588D01*
X154526795Y-94754592D01*
X154579517Y-94845909D01*
X154579518Y-94845910D01*
X154579520Y-94845913D01*
X154894491Y-95160884D01*
X155206781Y-95473174D01*
X155228455Y-95525500D01*
X155206781Y-95577826D01*
X155154455Y-95599500D01*
X155147271Y-95599500D01*
X155045417Y-95626791D01*
X155045408Y-95626795D01*
X154954086Y-95679520D01*
X154879520Y-95754086D01*
X154826795Y-95845408D01*
X154826791Y-95845417D01*
X154799500Y-95947270D01*
X154799500Y-95982286D01*
X154777826Y-96034612D01*
X154725500Y-96056286D01*
X154688501Y-96046372D01*
X154654595Y-96026796D01*
X154654582Y-96026791D01*
X154552729Y-95999500D01*
X154552727Y-95999500D01*
X154447273Y-95999500D01*
X154447271Y-95999500D01*
X154345417Y-96026791D01*
X154345408Y-96026795D01*
X154254086Y-96079520D01*
X154179520Y-96154086D01*
X154126795Y-96245408D01*
X154126791Y-96245417D01*
X154099500Y-96347270D01*
X154099500Y-96452729D01*
X154126791Y-96554582D01*
X154126795Y-96554591D01*
X154141051Y-96579283D01*
X154179520Y-96645913D01*
X154254087Y-96720480D01*
X154280820Y-96735914D01*
X154315298Y-96780848D01*
X154307905Y-96837001D01*
X154280820Y-96864086D01*
X154254085Y-96879521D01*
X154179520Y-96954086D01*
X154126795Y-97045408D01*
X154126791Y-97045417D01*
X154099500Y-97147270D01*
X154099500Y-97252729D01*
X154126791Y-97354582D01*
X154126795Y-97354591D01*
X154141051Y-97379283D01*
X154179520Y-97445913D01*
X154254087Y-97520480D01*
X154280820Y-97535914D01*
X154315298Y-97580848D01*
X154307905Y-97637001D01*
X154280820Y-97664086D01*
X154254085Y-97679521D01*
X154179520Y-97754086D01*
X154126795Y-97845408D01*
X154126791Y-97845417D01*
X154099500Y-97947270D01*
X154099500Y-98052729D01*
X154126791Y-98154582D01*
X154126795Y-98154591D01*
X154141051Y-98179283D01*
X154179520Y-98245913D01*
X154254087Y-98320480D01*
X154280820Y-98335914D01*
X154315298Y-98380848D01*
X154307905Y-98437001D01*
X154280820Y-98464086D01*
X154254085Y-98479521D01*
X154179520Y-98554086D01*
X154126795Y-98645408D01*
X154126791Y-98645417D01*
X154099500Y-98747270D01*
X154099500Y-98852729D01*
X154126791Y-98954582D01*
X154126795Y-98954591D01*
X154141051Y-98979283D01*
X154179520Y-99045913D01*
X154254087Y-99120480D01*
X154280820Y-99135914D01*
X154315298Y-99180848D01*
X154307905Y-99237001D01*
X154280820Y-99264086D01*
X154254085Y-99279521D01*
X154179520Y-99354086D01*
X154126795Y-99445408D01*
X154126791Y-99445417D01*
X154099500Y-99547270D01*
X154099500Y-99652729D01*
X154126791Y-99754582D01*
X154126795Y-99754591D01*
X154141051Y-99779283D01*
X154179520Y-99845913D01*
X154254087Y-99920480D01*
X154280820Y-99935914D01*
X154315298Y-99980848D01*
X154307905Y-100037001D01*
X154280820Y-100064086D01*
X154254085Y-100079521D01*
X154179520Y-100154086D01*
X154126795Y-100245408D01*
X154126791Y-100245417D01*
X154099500Y-100347270D01*
X154099500Y-100452729D01*
X154126791Y-100554582D01*
X154126795Y-100554591D01*
X154141051Y-100579283D01*
X154179520Y-100645913D01*
X154254087Y-100720480D01*
X154280820Y-100735914D01*
X154315298Y-100780848D01*
X154307905Y-100837001D01*
X154280820Y-100864086D01*
X154254085Y-100879521D01*
X154179520Y-100954086D01*
X154126795Y-101045408D01*
X154126791Y-101045417D01*
X154099500Y-101147270D01*
X154099500Y-101252729D01*
X154126791Y-101354582D01*
X154126795Y-101354591D01*
X154141051Y-101379283D01*
X154179520Y-101445913D01*
X154254087Y-101520480D01*
X154280820Y-101535914D01*
X154315298Y-101580848D01*
X154307905Y-101637001D01*
X154280820Y-101664086D01*
X154254085Y-101679521D01*
X154179520Y-101754086D01*
X154126795Y-101845408D01*
X154126791Y-101845417D01*
X154099500Y-101947270D01*
X154099500Y-102052729D01*
X154126791Y-102154582D01*
X154126795Y-102154591D01*
X154141051Y-102179283D01*
X154179520Y-102245913D01*
X154254087Y-102320480D01*
X154280820Y-102335914D01*
X154315298Y-102380848D01*
X154307905Y-102437001D01*
X154280820Y-102464086D01*
X154254085Y-102479521D01*
X154179520Y-102554086D01*
X154126795Y-102645408D01*
X154126791Y-102645417D01*
X154099500Y-102747270D01*
X154099500Y-102852729D01*
X154126791Y-102954582D01*
X154126795Y-102954591D01*
X154141051Y-102979283D01*
X154179520Y-103045913D01*
X154254087Y-103120480D01*
X154280820Y-103135914D01*
X154315298Y-103180848D01*
X154307905Y-103237001D01*
X154280820Y-103264086D01*
X154254085Y-103279521D01*
X154179520Y-103354086D01*
X154126795Y-103445408D01*
X154126791Y-103445417D01*
X154099500Y-103547270D01*
X154099500Y-103652729D01*
X154126791Y-103754582D01*
X154126795Y-103754591D01*
X154141051Y-103779283D01*
X154179520Y-103845913D01*
X154254087Y-103920480D01*
X154280820Y-103935914D01*
X154315298Y-103980848D01*
X154307905Y-104037001D01*
X154280820Y-104064086D01*
X154254085Y-104079521D01*
X154179520Y-104154086D01*
X154126795Y-104245408D01*
X154126791Y-104245417D01*
X154099500Y-104347270D01*
X154099500Y-104452729D01*
X154126791Y-104554582D01*
X154126795Y-104554591D01*
X154141051Y-104579283D01*
X154179520Y-104645913D01*
X154254087Y-104720480D01*
X154280820Y-104735914D01*
X154315298Y-104780848D01*
X154307905Y-104837001D01*
X154280820Y-104864086D01*
X154254085Y-104879521D01*
X154179520Y-104954086D01*
X154126795Y-105045408D01*
X154126791Y-105045417D01*
X154099500Y-105147270D01*
X154099500Y-105252729D01*
X154126791Y-105354582D01*
X154126795Y-105354591D01*
X154141051Y-105379283D01*
X154179520Y-105445913D01*
X154254087Y-105520480D01*
X154280820Y-105535914D01*
X154315298Y-105580848D01*
X154307905Y-105637001D01*
X154280820Y-105664086D01*
X154254085Y-105679521D01*
X154179520Y-105754086D01*
X154126795Y-105845408D01*
X154126791Y-105845417D01*
X154099500Y-105947270D01*
X154099500Y-106052729D01*
X154126791Y-106154582D01*
X154126795Y-106154591D01*
X154141051Y-106179283D01*
X154179520Y-106245913D01*
X154254087Y-106320480D01*
X154280820Y-106335914D01*
X154315298Y-106380848D01*
X154307905Y-106437001D01*
X154280820Y-106464086D01*
X154254085Y-106479521D01*
X154179520Y-106554086D01*
X154126795Y-106645408D01*
X154126791Y-106645417D01*
X154099500Y-106747270D01*
X154099500Y-106852729D01*
X154126791Y-106954582D01*
X154126795Y-106954591D01*
X154141051Y-106979283D01*
X154179520Y-107045913D01*
X154254087Y-107120480D01*
X154280820Y-107135914D01*
X154315298Y-107180848D01*
X154307905Y-107237001D01*
X154280820Y-107264086D01*
X154254085Y-107279521D01*
X154179520Y-107354086D01*
X154126795Y-107445408D01*
X154126791Y-107445417D01*
X154099500Y-107547270D01*
X154099500Y-107652729D01*
X154126791Y-107754582D01*
X154126795Y-107754591D01*
X154141051Y-107779283D01*
X154179520Y-107845913D01*
X154254087Y-107920480D01*
X154280820Y-107935914D01*
X154315298Y-107980848D01*
X154307905Y-108037001D01*
X154280820Y-108064086D01*
X154254085Y-108079521D01*
X154179520Y-108154086D01*
X154126795Y-108245408D01*
X154126791Y-108245417D01*
X154099500Y-108347270D01*
X154099500Y-108452729D01*
X154126791Y-108554582D01*
X154126795Y-108554591D01*
X154141187Y-108579519D01*
X154179520Y-108645913D01*
X154254087Y-108720480D01*
X154345413Y-108773207D01*
X154447270Y-108800499D01*
X154447271Y-108800500D01*
X154447273Y-108800500D01*
X154552729Y-108800500D01*
X154552729Y-108800499D01*
X154654587Y-108773207D01*
X154745913Y-108720480D01*
X154769219Y-108697174D01*
X154821545Y-108675500D01*
X155835500Y-108675500D01*
X155887826Y-108697174D01*
X155909500Y-108749500D01*
X155909500Y-108910727D01*
X155909501Y-108910732D01*
X155921713Y-108972133D01*
X155968238Y-109041762D01*
X156037867Y-109088287D01*
X156099267Y-109100500D01*
X156150501Y-109100499D01*
X156172173Y-109109476D01*
X156202825Y-109122172D01*
X156202826Y-109122173D01*
X156212659Y-109145912D01*
X156222730Y-109170227D01*
X156224500Y-109174499D01*
X156224500Y-109178455D01*
X156202826Y-109230781D01*
X156179520Y-109254086D01*
X156126795Y-109345408D01*
X156126791Y-109345417D01*
X156099500Y-109447270D01*
X156099500Y-109793455D01*
X156077826Y-109845781D01*
X154745781Y-111177826D01*
X154693455Y-111199500D01*
X154444621Y-111199500D01*
X154392295Y-111177826D01*
X154350404Y-111135935D01*
X154281778Y-111103934D01*
X154243173Y-111085932D01*
X154243171Y-111085931D01*
X154207178Y-111081193D01*
X154194316Y-111079500D01*
X153845684Y-111079500D01*
X153834318Y-111080996D01*
X153796828Y-111085931D01*
X153689595Y-111135935D01*
X153623870Y-111201660D01*
X153571543Y-111223334D01*
X153519218Y-111201660D01*
X153512004Y-111193277D01*
X153446065Y-111103935D01*
X153446064Y-111103934D01*
X153340556Y-111026064D01*
X153216791Y-110982757D01*
X153216786Y-110982756D01*
X153187388Y-110980000D01*
X153100000Y-110980000D01*
X153100000Y-112220000D01*
X153187387Y-112220000D01*
X153187388Y-112219999D01*
X153216786Y-112217243D01*
X153216791Y-112217242D01*
X153340556Y-112173935D01*
X153446064Y-112096065D01*
X153446065Y-112096064D01*
X153512004Y-112006722D01*
X153514721Y-112005084D01*
X153515730Y-112002077D01*
X153538611Y-111990689D01*
X153560515Y-111977491D01*
X153563595Y-111978255D01*
X153566435Y-111976842D01*
X153583203Y-111983118D01*
X153615487Y-111991125D01*
X153620132Y-111994851D01*
X153622063Y-111996532D01*
X153689596Y-112064065D01*
X153711224Y-112074150D01*
X153719088Y-112080996D01*
X153727412Y-112097722D01*
X153740037Y-112111499D01*
X153743201Y-112129448D01*
X153744323Y-112131701D01*
X153743848Y-112133115D01*
X153744500Y-112136810D01*
X153744500Y-129855233D01*
X153722826Y-129907559D01*
X152766442Y-130863943D01*
X152724500Y-130965200D01*
X152724500Y-133359982D01*
X152702826Y-133412308D01*
X152662078Y-133433071D01*
X152625214Y-133438910D01*
X152625204Y-133438912D01*
X152385626Y-133516756D01*
X152161154Y-133631129D01*
X151957348Y-133779203D01*
X151779203Y-133957348D01*
X151631129Y-134161154D01*
X151516756Y-134385626D01*
X151438912Y-134625204D01*
X151438909Y-134625217D01*
X151399500Y-134874036D01*
X108291074Y-134874036D01*
X108223091Y-134638058D01*
X108221246Y-134629972D01*
X108198062Y-134493523D01*
X108169113Y-134323141D01*
X108168184Y-134314900D01*
X108167347Y-134300000D01*
X108150616Y-134002065D01*
X108150500Y-133997916D01*
X108150500Y-127384792D01*
X115400001Y-127384792D01*
X115402908Y-127409868D01*
X115402910Y-127409874D01*
X115448213Y-127512478D01*
X115527521Y-127591786D01*
X115630124Y-127637089D01*
X115630123Y-127637089D01*
X115655210Y-127639999D01*
X117175000Y-127639999D01*
X117375000Y-127639999D01*
X118894792Y-127639999D01*
X118919868Y-127637091D01*
X118919874Y-127637089D01*
X119022478Y-127591786D01*
X119101786Y-127512478D01*
X119147089Y-127409875D01*
X119150000Y-127384789D01*
X119150000Y-126940000D01*
X117375000Y-126940000D01*
X117375000Y-127639999D01*
X117175000Y-127639999D01*
X117175000Y-126940000D01*
X115400001Y-126940000D01*
X115400001Y-127384792D01*
X108150500Y-127384792D01*
X108150500Y-126295210D01*
X115400000Y-126295210D01*
X115400000Y-126740000D01*
X117175000Y-126740000D01*
X117375000Y-126740000D01*
X119149999Y-126740000D01*
X119149999Y-126295207D01*
X119147091Y-126270131D01*
X119147089Y-126270125D01*
X119101786Y-126167521D01*
X119022478Y-126088213D01*
X118919875Y-126042910D01*
X118919876Y-126042910D01*
X118894789Y-126040000D01*
X117375000Y-126040000D01*
X117375000Y-126740000D01*
X117175000Y-126740000D01*
X117175000Y-126040000D01*
X115655207Y-126040000D01*
X115630131Y-126042908D01*
X115630125Y-126042910D01*
X115527521Y-126088213D01*
X115448213Y-126167521D01*
X115402910Y-126270124D01*
X115400000Y-126295210D01*
X108150500Y-126295210D01*
X108150500Y-124844792D01*
X115400001Y-124844792D01*
X115402908Y-124869868D01*
X115402910Y-124869874D01*
X115448213Y-124972478D01*
X115527521Y-125051786D01*
X115630124Y-125097089D01*
X115630123Y-125097089D01*
X115655210Y-125099999D01*
X117175000Y-125099999D01*
X117375000Y-125099999D01*
X118894792Y-125099999D01*
X118919868Y-125097091D01*
X118919874Y-125097089D01*
X119022478Y-125051786D01*
X119101786Y-124972478D01*
X119147089Y-124869875D01*
X119150000Y-124844789D01*
X119150000Y-124400000D01*
X117375000Y-124400000D01*
X117375000Y-125099999D01*
X117175000Y-125099999D01*
X117175000Y-124400000D01*
X115400001Y-124400000D01*
X115400001Y-124844792D01*
X108150500Y-124844792D01*
X108150500Y-123755210D01*
X115400000Y-123755210D01*
X115400000Y-124200000D01*
X117175000Y-124200000D01*
X117375000Y-124200000D01*
X119149999Y-124200000D01*
X119149999Y-123755207D01*
X119147091Y-123730131D01*
X119147089Y-123730125D01*
X119101786Y-123627521D01*
X119022478Y-123548213D01*
X118919875Y-123502910D01*
X118919876Y-123502910D01*
X118894789Y-123500000D01*
X117375000Y-123500000D01*
X117375000Y-124200000D01*
X117175000Y-124200000D01*
X117175000Y-123500000D01*
X115655207Y-123500000D01*
X115630131Y-123502908D01*
X115630125Y-123502910D01*
X115527521Y-123548213D01*
X115448213Y-123627521D01*
X115402910Y-123730124D01*
X115400000Y-123755210D01*
X108150500Y-123755210D01*
X108150500Y-122304792D01*
X115400001Y-122304792D01*
X115402908Y-122329868D01*
X115402910Y-122329874D01*
X115448213Y-122432478D01*
X115527521Y-122511786D01*
X115630124Y-122557089D01*
X115630123Y-122557089D01*
X115655210Y-122559999D01*
X117175000Y-122559999D01*
X117375000Y-122559999D01*
X118894792Y-122559999D01*
X118919868Y-122557091D01*
X118919874Y-122557089D01*
X119022478Y-122511786D01*
X119101786Y-122432478D01*
X119147089Y-122329875D01*
X119150000Y-122304789D01*
X119150000Y-121860000D01*
X117375000Y-121860000D01*
X117375000Y-122559999D01*
X117175000Y-122559999D01*
X117175000Y-121860000D01*
X115400001Y-121860000D01*
X115400001Y-122304792D01*
X108150500Y-122304792D01*
X108150500Y-121215210D01*
X115400000Y-121215210D01*
X115400000Y-121660000D01*
X117175000Y-121660000D01*
X117375000Y-121660000D01*
X119149999Y-121660000D01*
X119149999Y-121240252D01*
X120549500Y-121240252D01*
X120549500Y-122279748D01*
X120552720Y-122295935D01*
X120561133Y-122338232D01*
X120570819Y-122352727D01*
X120605448Y-122404552D01*
X120647242Y-122432478D01*
X120671767Y-122448866D01*
X120671768Y-122448866D01*
X120671769Y-122448867D01*
X120730252Y-122460500D01*
X120730254Y-122460500D01*
X123919746Y-122460500D01*
X123919748Y-122460500D01*
X123978231Y-122448867D01*
X124044552Y-122404552D01*
X124088867Y-122338231D01*
X124100500Y-122279748D01*
X124100500Y-122109500D01*
X124122174Y-122057174D01*
X124174500Y-122035500D01*
X129220379Y-122035500D01*
X129272705Y-122057174D01*
X129319596Y-122104065D01*
X129381504Y-122132933D01*
X129419767Y-122174691D01*
X129417297Y-122231274D01*
X129381504Y-122267066D01*
X129354313Y-122279746D01*
X129319595Y-122295935D01*
X129235935Y-122379595D01*
X129185931Y-122486828D01*
X129179500Y-122535685D01*
X129179500Y-122884319D01*
X129179924Y-122887541D01*
X129165263Y-122942247D01*
X129125711Y-122968674D01*
X129095415Y-122976792D01*
X129095411Y-122976793D01*
X129004086Y-123029520D01*
X128929520Y-123104086D01*
X128876795Y-123195408D01*
X128876791Y-123195417D01*
X128849500Y-123297270D01*
X128849500Y-123402729D01*
X128876791Y-123504582D01*
X128876795Y-123504591D01*
X128893387Y-123533329D01*
X128929520Y-123595913D01*
X129004087Y-123670480D01*
X129095413Y-123723207D01*
X129197270Y-123750499D01*
X129197271Y-123750500D01*
X129197273Y-123750500D01*
X129302729Y-123750500D01*
X129302729Y-123750499D01*
X129404587Y-123723207D01*
X129495913Y-123670480D01*
X129570480Y-123595913D01*
X129623207Y-123504587D01*
X129650499Y-123402729D01*
X129650500Y-123402729D01*
X129650500Y-123369767D01*
X129672174Y-123317441D01*
X129787442Y-123202174D01*
X129839768Y-123180500D01*
X129924314Y-123180500D01*
X129924316Y-123180500D01*
X129973173Y-123174068D01*
X130080404Y-123124065D01*
X130164065Y-123040404D01*
X130214068Y-122933173D01*
X130220500Y-122884316D01*
X130220500Y-122535684D01*
X130214068Y-122486827D01*
X130164065Y-122379596D01*
X130080404Y-122295935D01*
X130080402Y-122295933D01*
X130034886Y-122274709D01*
X130018495Y-122267066D01*
X129980232Y-122225310D01*
X129982702Y-122168727D01*
X130018495Y-122132933D01*
X130080404Y-122104065D01*
X130127295Y-122057174D01*
X130179621Y-122035500D01*
X130462079Y-122035500D01*
X130514405Y-122057174D01*
X130536079Y-122109500D01*
X130527757Y-122140558D01*
X130528651Y-122140928D01*
X130526791Y-122145417D01*
X130499500Y-122247270D01*
X130499500Y-122352729D01*
X130526791Y-122454582D01*
X130526795Y-122454591D01*
X130579520Y-122545914D01*
X130581079Y-122547945D01*
X130581412Y-122549191D01*
X130581945Y-122550113D01*
X130581698Y-122550255D01*
X130595736Y-122602653D01*
X130567415Y-122651701D01*
X130553643Y-122660058D01*
X130519597Y-122675934D01*
X130519596Y-122675934D01*
X130435935Y-122759595D01*
X130385931Y-122866828D01*
X130379500Y-122915685D01*
X130379500Y-123100232D01*
X130357826Y-123152558D01*
X129507559Y-124002826D01*
X129455233Y-124024500D01*
X124174500Y-124024500D01*
X124122174Y-124002826D01*
X124100500Y-123950500D01*
X124100500Y-123780253D01*
X124100500Y-123780252D01*
X124088867Y-123721769D01*
X124044552Y-123655448D01*
X124002757Y-123627521D01*
X123978232Y-123611133D01*
X123978233Y-123611133D01*
X123948989Y-123605316D01*
X123919748Y-123599500D01*
X120730252Y-123599500D01*
X120701010Y-123605316D01*
X120671767Y-123611133D01*
X120605449Y-123655447D01*
X120605447Y-123655449D01*
X120561133Y-123721767D01*
X120556626Y-123744427D01*
X120549631Y-123779596D01*
X120549500Y-123780253D01*
X120549500Y-124819746D01*
X120561133Y-124878232D01*
X120571964Y-124894441D01*
X120605448Y-124944552D01*
X120639144Y-124967067D01*
X120671767Y-124988866D01*
X120671768Y-124988866D01*
X120671769Y-124988867D01*
X120730252Y-125000500D01*
X120730254Y-125000500D01*
X123919746Y-125000500D01*
X123919748Y-125000500D01*
X123978231Y-124988867D01*
X124044552Y-124944552D01*
X124088867Y-124878231D01*
X124100500Y-124819748D01*
X124100500Y-124649500D01*
X124122174Y-124597174D01*
X124174500Y-124575500D01*
X129654798Y-124575500D01*
X129654800Y-124575500D01*
X129756058Y-124533557D01*
X129833557Y-124456058D01*
X129833556Y-124456058D01*
X129868517Y-124421097D01*
X129868516Y-124421097D01*
X130253175Y-124036439D01*
X130305500Y-124014766D01*
X130357826Y-124036440D01*
X130379500Y-124088766D01*
X130379500Y-124164388D01*
X130357826Y-124216714D01*
X130342500Y-124228474D01*
X130254086Y-124279520D01*
X130179520Y-124354086D01*
X130126795Y-124445408D01*
X130126791Y-124445417D01*
X130099500Y-124547270D01*
X130099500Y-124652729D01*
X130126791Y-124754582D01*
X130126795Y-124754591D01*
X130164414Y-124819748D01*
X130179520Y-124845913D01*
X130254087Y-124920480D01*
X130345413Y-124973207D01*
X130447270Y-125000499D01*
X130447271Y-125000500D01*
X130447273Y-125000500D01*
X130552729Y-125000500D01*
X130552729Y-125000499D01*
X130654587Y-124973207D01*
X130745913Y-124920480D01*
X130820480Y-124845913D01*
X130873207Y-124754587D01*
X130900500Y-124652727D01*
X130900500Y-124652721D01*
X130901133Y-124647920D01*
X130903117Y-124648181D01*
X130922174Y-124602174D01*
X130974500Y-124580500D01*
X131124314Y-124580500D01*
X131124316Y-124580500D01*
X131173173Y-124574068D01*
X131267144Y-124530247D01*
X131323725Y-124527778D01*
X131365483Y-124566041D01*
X131367953Y-124622624D01*
X131350742Y-124649641D01*
X129457559Y-126542826D01*
X129405233Y-126564500D01*
X124174500Y-126564500D01*
X124122174Y-126542826D01*
X124100500Y-126490500D01*
X124100500Y-126320253D01*
X124100500Y-126320252D01*
X124088867Y-126261769D01*
X124044552Y-126195448D01*
X124002757Y-126167521D01*
X123978232Y-126151133D01*
X123978233Y-126151133D01*
X123948989Y-126145316D01*
X123919748Y-126139500D01*
X120730252Y-126139500D01*
X120701010Y-126145316D01*
X120671767Y-126151133D01*
X120605449Y-126195447D01*
X120605447Y-126195449D01*
X120561133Y-126261767D01*
X120549500Y-126320253D01*
X120549500Y-127359746D01*
X120561133Y-127418232D01*
X120590608Y-127462343D01*
X120605448Y-127484552D01*
X120647242Y-127512478D01*
X120671767Y-127528866D01*
X120671768Y-127528866D01*
X120671769Y-127528867D01*
X120730252Y-127540500D01*
X120730254Y-127540500D01*
X123919746Y-127540500D01*
X123919748Y-127540500D01*
X123978231Y-127528867D01*
X124044552Y-127484552D01*
X124088867Y-127418231D01*
X124100500Y-127359748D01*
X124100500Y-127189500D01*
X124122174Y-127137174D01*
X124174500Y-127115500D01*
X129604798Y-127115500D01*
X129604800Y-127115500D01*
X129706058Y-127073557D01*
X129783557Y-126996058D01*
X129783556Y-126996058D01*
X129818517Y-126961097D01*
X129818516Y-126961097D01*
X131353175Y-125426439D01*
X131405500Y-125404766D01*
X131457826Y-125426440D01*
X131479500Y-125478766D01*
X131479500Y-125584314D01*
X131485931Y-125633171D01*
X131535935Y-125740405D01*
X131537112Y-125742085D01*
X131537468Y-125743691D01*
X131538671Y-125746271D01*
X131538099Y-125746537D01*
X131549371Y-125797380D01*
X131540582Y-125821528D01*
X131526794Y-125845410D01*
X131526791Y-125845417D01*
X131499500Y-125947270D01*
X131499500Y-126052729D01*
X131526791Y-126154582D01*
X131526795Y-126154591D01*
X131579520Y-126245913D01*
X131654087Y-126320480D01*
X131745413Y-126373207D01*
X131847270Y-126400499D01*
X131847271Y-126400500D01*
X131847273Y-126400500D01*
X131952729Y-126400500D01*
X131952729Y-126400499D01*
X132054587Y-126373207D01*
X132145913Y-126320480D01*
X132220480Y-126245913D01*
X132273207Y-126154587D01*
X132300499Y-126052729D01*
X132300500Y-126052729D01*
X132300500Y-125947273D01*
X132299676Y-125944198D01*
X132296099Y-125930849D01*
X132303490Y-125874698D01*
X132336304Y-125844629D01*
X132380402Y-125824066D01*
X132380402Y-125824065D01*
X132380404Y-125824065D01*
X132464065Y-125740404D01*
X132514068Y-125633173D01*
X132520500Y-125584316D01*
X132520500Y-125321735D01*
X132949500Y-125321735D01*
X132949500Y-125688264D01*
X132959427Y-125756393D01*
X132959427Y-125756394D01*
X133010801Y-125861482D01*
X133010802Y-125861483D01*
X133093517Y-125944198D01*
X133198607Y-125995573D01*
X133266740Y-126005500D01*
X133650500Y-126005500D01*
X133702826Y-126027174D01*
X133724500Y-126079500D01*
X133724500Y-126572273D01*
X133724500Y-126677727D01*
X133741186Y-126740000D01*
X133751793Y-126779588D01*
X133751795Y-126779592D01*
X133804517Y-126870909D01*
X133804518Y-126870910D01*
X133804520Y-126870913D01*
X134279519Y-127345912D01*
X134279520Y-127345913D01*
X134354087Y-127420480D01*
X134445413Y-127473207D01*
X134547270Y-127500499D01*
X134547271Y-127500500D01*
X134547273Y-127500500D01*
X134652727Y-127500500D01*
X135047273Y-127500500D01*
X135152727Y-127500500D01*
X135352727Y-127500500D01*
X135698308Y-127500500D01*
X135750634Y-127522174D01*
X135781684Y-127553224D01*
X135890513Y-127603972D01*
X135940099Y-127610500D01*
X136299900Y-127610499D01*
X136349487Y-127603972D01*
X136458316Y-127553224D01*
X136480281Y-127531258D01*
X136532606Y-127509584D01*
X136584932Y-127531257D01*
X136592147Y-127539641D01*
X136625358Y-127584640D01*
X136625359Y-127584641D01*
X136732080Y-127663405D01*
X136857268Y-127707211D01*
X136857273Y-127707212D01*
X136887002Y-127709999D01*
X136980000Y-127709999D01*
X137180000Y-127709999D01*
X137272993Y-127709999D01*
X137273007Y-127709998D01*
X137302721Y-127707213D01*
X137302728Y-127707212D01*
X137427919Y-127663405D01*
X137534640Y-127584641D01*
X137534641Y-127584640D01*
X137613405Y-127477919D01*
X137657211Y-127352731D01*
X137657212Y-127352726D01*
X137659999Y-127322997D01*
X137660000Y-127322996D01*
X137660000Y-127200000D01*
X137180000Y-127200000D01*
X137180000Y-127709999D01*
X136980000Y-127709999D01*
X136980000Y-127000000D01*
X137180000Y-127000000D01*
X137659999Y-127000000D01*
X137659999Y-126877007D01*
X137659998Y-126876992D01*
X137657213Y-126847278D01*
X137657212Y-126847271D01*
X137613405Y-126722080D01*
X137534641Y-126615359D01*
X137534640Y-126615358D01*
X137427919Y-126536594D01*
X137302731Y-126492788D01*
X137302726Y-126492787D01*
X137272997Y-126490000D01*
X137180000Y-126490000D01*
X137180000Y-127000000D01*
X136980000Y-127000000D01*
X136980000Y-126490000D01*
X136887008Y-126490000D01*
X136886991Y-126490001D01*
X136857278Y-126492786D01*
X136857271Y-126492787D01*
X136732080Y-126536594D01*
X136625360Y-126615357D01*
X136592147Y-126660359D01*
X136543635Y-126689589D01*
X136488663Y-126675955D01*
X136480281Y-126668741D01*
X136458316Y-126646776D01*
X136390940Y-126615358D01*
X136349487Y-126596028D01*
X136349485Y-126596027D01*
X136312955Y-126591218D01*
X136299901Y-126589500D01*
X136299899Y-126589500D01*
X135940100Y-126589500D01*
X135890514Y-126596027D01*
X135890512Y-126596028D01*
X135781683Y-126646776D01*
X135750634Y-126677826D01*
X135698308Y-126699500D01*
X134796545Y-126699500D01*
X134744219Y-126677826D01*
X134547174Y-126480781D01*
X134525500Y-126428455D01*
X134525500Y-126079500D01*
X134547174Y-126027174D01*
X134599500Y-126005500D01*
X134983254Y-126005500D01*
X134983260Y-126005500D01*
X135051393Y-125995573D01*
X135156483Y-125944198D01*
X135239198Y-125861483D01*
X135290573Y-125756393D01*
X135297448Y-125709205D01*
X137800001Y-125709205D01*
X137802850Y-125739602D01*
X137802852Y-125739611D01*
X137847652Y-125867643D01*
X137928207Y-125976791D01*
X137928208Y-125976792D01*
X138037356Y-126057347D01*
X138037355Y-126057347D01*
X138165385Y-126102146D01*
X138165393Y-126102148D01*
X138195802Y-126104999D01*
X138975000Y-126104999D01*
X139175000Y-126104999D01*
X139954194Y-126104999D01*
X139954205Y-126104998D01*
X139984602Y-126102149D01*
X139984611Y-126102147D01*
X140112643Y-126057347D01*
X140221791Y-125976792D01*
X140221792Y-125976791D01*
X140302347Y-125867643D01*
X140347146Y-125739614D01*
X140347148Y-125739606D01*
X140349999Y-125709198D01*
X140350000Y-125709197D01*
X140350000Y-125605000D01*
X139175000Y-125605000D01*
X139175000Y-126104999D01*
X138975000Y-126104999D01*
X138975000Y-125605000D01*
X137800001Y-125605000D01*
X137800001Y-125709205D01*
X135297448Y-125709205D01*
X135300500Y-125688260D01*
X135300500Y-125321740D01*
X135297449Y-125300801D01*
X137800000Y-125300801D01*
X137800000Y-125405000D01*
X138975000Y-125405000D01*
X138975000Y-124880498D01*
X138970651Y-124869999D01*
X138974999Y-124859501D01*
X139175000Y-124859501D01*
X139179348Y-124869999D01*
X139175000Y-124880497D01*
X139175000Y-125405000D01*
X140349999Y-125405000D01*
X140349999Y-125300806D01*
X140349998Y-125300794D01*
X140347149Y-125270397D01*
X140347147Y-125270388D01*
X140302347Y-125142356D01*
X140221792Y-125033208D01*
X140221791Y-125033207D01*
X140112646Y-124952654D01*
X140076047Y-124939848D01*
X140033816Y-124902108D01*
X140030639Y-124845560D01*
X140068379Y-124803329D01*
X140076047Y-124800152D01*
X140112646Y-124787345D01*
X140221791Y-124706792D01*
X140221792Y-124706791D01*
X140302347Y-124597643D01*
X140347146Y-124469614D01*
X140347148Y-124469606D01*
X140349999Y-124439198D01*
X140350000Y-124439197D01*
X140350000Y-124335000D01*
X139175000Y-124335000D01*
X139175000Y-124859501D01*
X138974999Y-124859501D01*
X138975000Y-124859499D01*
X138975000Y-124335000D01*
X137800001Y-124335000D01*
X137800001Y-124439205D01*
X137802850Y-124469602D01*
X137802852Y-124469611D01*
X137847652Y-124597643D01*
X137928207Y-124706791D01*
X137928208Y-124706792D01*
X138037355Y-124787346D01*
X138073953Y-124800153D01*
X138116184Y-124837893D01*
X138119359Y-124894441D01*
X138081619Y-124936672D01*
X138073953Y-124939847D01*
X138037355Y-124952653D01*
X137928208Y-125033207D01*
X137928207Y-125033208D01*
X137847652Y-125142356D01*
X137802853Y-125270385D01*
X137802851Y-125270393D01*
X137800000Y-125300801D01*
X135297449Y-125300801D01*
X135290573Y-125253607D01*
X135239198Y-125148517D01*
X135156483Y-125065802D01*
X135156482Y-125065801D01*
X135051394Y-125014427D01*
X134983264Y-125004500D01*
X134983260Y-125004500D01*
X133266740Y-125004500D01*
X133266735Y-125004500D01*
X133198606Y-125014427D01*
X133198605Y-125014427D01*
X133093517Y-125065801D01*
X133010801Y-125148517D01*
X132959427Y-125253605D01*
X132959427Y-125253606D01*
X132949500Y-125321735D01*
X132520500Y-125321735D01*
X132520500Y-125235684D01*
X132514068Y-125186827D01*
X132464065Y-125079596D01*
X132380404Y-124995935D01*
X132380402Y-124995933D01*
X132331664Y-124973207D01*
X132318495Y-124967066D01*
X132280232Y-124925310D01*
X132282702Y-124868727D01*
X132318495Y-124832933D01*
X132380404Y-124804065D01*
X132464065Y-124720404D01*
X132514068Y-124613173D01*
X132519114Y-124574841D01*
X132547432Y-124525792D01*
X132592481Y-124510500D01*
X132925019Y-124510500D01*
X132977345Y-124532174D01*
X132991500Y-124552000D01*
X133010801Y-124591482D01*
X133010802Y-124591483D01*
X133093517Y-124674198D01*
X133198607Y-124725573D01*
X133266740Y-124735500D01*
X133266746Y-124735500D01*
X134983254Y-124735500D01*
X134983260Y-124735500D01*
X135051393Y-124725573D01*
X135156483Y-124674198D01*
X135239198Y-124591483D01*
X135290573Y-124486393D01*
X135300500Y-124418260D01*
X135300500Y-124051740D01*
X135297449Y-124030801D01*
X137800000Y-124030801D01*
X137800000Y-124135000D01*
X138975000Y-124135000D01*
X138975000Y-123610498D01*
X138970651Y-123599999D01*
X138974999Y-123589501D01*
X139175000Y-123589501D01*
X139179348Y-123599999D01*
X139175000Y-123610497D01*
X139175000Y-124135000D01*
X140349999Y-124135000D01*
X140349999Y-124030806D01*
X140349998Y-124030794D01*
X140347149Y-124000397D01*
X140347147Y-124000388D01*
X140302347Y-123872356D01*
X140221792Y-123763208D01*
X140221791Y-123763207D01*
X140112646Y-123682654D01*
X140076047Y-123669848D01*
X140033816Y-123632108D01*
X140030639Y-123575560D01*
X140068379Y-123533329D01*
X140076047Y-123530152D01*
X140112646Y-123517345D01*
X140221791Y-123436792D01*
X140221792Y-123436791D01*
X140302347Y-123327643D01*
X140347147Y-123199613D01*
X140347148Y-123199606D01*
X140349999Y-123169198D01*
X140350000Y-123169197D01*
X140350000Y-123065000D01*
X139175000Y-123065000D01*
X139175000Y-123589501D01*
X138974999Y-123589501D01*
X138975000Y-123589499D01*
X138975000Y-123065000D01*
X137800001Y-123065000D01*
X137800001Y-123169205D01*
X137802850Y-123199602D01*
X137802852Y-123199611D01*
X137847652Y-123327643D01*
X137928207Y-123436791D01*
X137928208Y-123436792D01*
X138037355Y-123517346D01*
X138073953Y-123530153D01*
X138116184Y-123567893D01*
X138119359Y-123624441D01*
X138081619Y-123666672D01*
X138073953Y-123669847D01*
X138037355Y-123682653D01*
X137928208Y-123763207D01*
X137928207Y-123763208D01*
X137847652Y-123872356D01*
X137802853Y-124000385D01*
X137802851Y-124000393D01*
X137800000Y-124030801D01*
X135297449Y-124030801D01*
X135290573Y-123983607D01*
X135239198Y-123878517D01*
X135156483Y-123795802D01*
X135156482Y-123795801D01*
X135051394Y-123744427D01*
X134983264Y-123734500D01*
X134983260Y-123734500D01*
X133266740Y-123734500D01*
X133266735Y-123734500D01*
X133198606Y-123744427D01*
X133198605Y-123744427D01*
X133093517Y-123795801D01*
X133010801Y-123878517D01*
X132991500Y-123918000D01*
X132949047Y-123955490D01*
X132925019Y-123959500D01*
X132361565Y-123959500D01*
X132330291Y-123952567D01*
X132273173Y-123925932D01*
X132273171Y-123925931D01*
X132237178Y-123921193D01*
X132224316Y-123919500D01*
X131775684Y-123919500D01*
X131764318Y-123920996D01*
X131726828Y-123925931D01*
X131619595Y-123975935D01*
X131546826Y-124048705D01*
X131494500Y-124070379D01*
X131442174Y-124048705D01*
X131420500Y-123996379D01*
X131420500Y-123935685D01*
X131416624Y-123906239D01*
X131414068Y-123886827D01*
X131364065Y-123779596D01*
X131280404Y-123695935D01*
X131280402Y-123695933D01*
X131225816Y-123670480D01*
X131218495Y-123667066D01*
X131180232Y-123625310D01*
X131182702Y-123568727D01*
X131218495Y-123532933D01*
X131280404Y-123504065D01*
X131364065Y-123420404D01*
X131414068Y-123313173D01*
X131415165Y-123304841D01*
X131443484Y-123255792D01*
X131488532Y-123240500D01*
X132925019Y-123240500D01*
X132977345Y-123262174D01*
X132991500Y-123282000D01*
X133010801Y-123321482D01*
X133010802Y-123321483D01*
X133093517Y-123404198D01*
X133198607Y-123455573D01*
X133266740Y-123465500D01*
X133266746Y-123465500D01*
X134983254Y-123465500D01*
X134983260Y-123465500D01*
X135051393Y-123455573D01*
X135156483Y-123404198D01*
X135239198Y-123321483D01*
X135290573Y-123216393D01*
X135300500Y-123148260D01*
X135300500Y-122781740D01*
X135297449Y-122760801D01*
X137800000Y-122760801D01*
X137800000Y-122865000D01*
X138975000Y-122865000D01*
X138975000Y-122340498D01*
X138970651Y-122329999D01*
X138974999Y-122319501D01*
X139175000Y-122319501D01*
X139179348Y-122329999D01*
X139175000Y-122340497D01*
X139175000Y-122865000D01*
X140349999Y-122865000D01*
X140349999Y-122760806D01*
X140349998Y-122760794D01*
X140347149Y-122730397D01*
X140347147Y-122730388D01*
X140302347Y-122602356D01*
X140221792Y-122493208D01*
X140221791Y-122493207D01*
X140112646Y-122412654D01*
X140076047Y-122399848D01*
X140033816Y-122362108D01*
X140030639Y-122305560D01*
X140068379Y-122263329D01*
X140076047Y-122260152D01*
X140112646Y-122247345D01*
X140221791Y-122166792D01*
X140221792Y-122166791D01*
X140302347Y-122057643D01*
X140347146Y-121929614D01*
X140347148Y-121929606D01*
X140349999Y-121899198D01*
X140350000Y-121899197D01*
X140350000Y-121795000D01*
X139175000Y-121795000D01*
X139175000Y-122319501D01*
X138974999Y-122319501D01*
X138975000Y-122319499D01*
X138975000Y-121795000D01*
X137800001Y-121795000D01*
X137800001Y-121899205D01*
X137802850Y-121929602D01*
X137802852Y-121929611D01*
X137847652Y-122057643D01*
X137928207Y-122166791D01*
X137928208Y-122166792D01*
X138037355Y-122247346D01*
X138073953Y-122260153D01*
X138116184Y-122297893D01*
X138119359Y-122354441D01*
X138081619Y-122396672D01*
X138073953Y-122399847D01*
X138037355Y-122412653D01*
X137928208Y-122493207D01*
X137928207Y-122493208D01*
X137847652Y-122602356D01*
X137802853Y-122730385D01*
X137802851Y-122730393D01*
X137800000Y-122760801D01*
X135297449Y-122760801D01*
X135290573Y-122713607D01*
X135239198Y-122608517D01*
X135156483Y-122525802D01*
X135156482Y-122525801D01*
X135051394Y-122474427D01*
X134983264Y-122464500D01*
X134983260Y-122464500D01*
X133266740Y-122464500D01*
X133266735Y-122464500D01*
X133198606Y-122474427D01*
X133198605Y-122474427D01*
X133093517Y-122525801D01*
X133010801Y-122608517D01*
X132991500Y-122648000D01*
X132949047Y-122685490D01*
X132925019Y-122689500D01*
X131323110Y-122689500D01*
X131290286Y-122681822D01*
X131282376Y-122677907D01*
X131280404Y-122675935D01*
X131245582Y-122659697D01*
X131244806Y-122659313D01*
X131226694Y-122638601D01*
X131208093Y-122618301D01*
X131208133Y-122617375D01*
X131207523Y-122616677D01*
X131209363Y-122589203D01*
X131210563Y-122561717D01*
X131211283Y-122560529D01*
X131211308Y-122560167D01*
X131211725Y-122559802D01*
X131218925Y-122547939D01*
X131220476Y-122545916D01*
X131220480Y-122545913D01*
X131273207Y-122454587D01*
X131300499Y-122352729D01*
X131300500Y-122352729D01*
X131300500Y-122247271D01*
X131300499Y-122247270D01*
X131300140Y-122245932D01*
X131273207Y-122145413D01*
X131273204Y-122145408D01*
X131271349Y-122140928D01*
X131273009Y-122140240D01*
X131266444Y-122090342D01*
X131300925Y-122045412D01*
X131337921Y-122035500D01*
X132964168Y-122035500D01*
X133016492Y-122057173D01*
X133093517Y-122134198D01*
X133198607Y-122185573D01*
X133266740Y-122195500D01*
X133266746Y-122195500D01*
X134983254Y-122195500D01*
X134983260Y-122195500D01*
X135051393Y-122185573D01*
X135156483Y-122134198D01*
X135239198Y-122051483D01*
X135290573Y-121946393D01*
X135300500Y-121878260D01*
X135300500Y-121511740D01*
X135297449Y-121490801D01*
X137800000Y-121490801D01*
X137800000Y-121595000D01*
X138975000Y-121595000D01*
X139175000Y-121595000D01*
X140349999Y-121595000D01*
X140349999Y-121490806D01*
X140349998Y-121490794D01*
X140347149Y-121460397D01*
X140347147Y-121460388D01*
X140302347Y-121332356D01*
X140221792Y-121223208D01*
X140221791Y-121223207D01*
X140112643Y-121142652D01*
X140112644Y-121142652D01*
X139984614Y-121097853D01*
X139984606Y-121097851D01*
X139954198Y-121095000D01*
X139175000Y-121095000D01*
X139175000Y-121595000D01*
X138975000Y-121595000D01*
X138975000Y-121095000D01*
X138195806Y-121095000D01*
X138195793Y-121095001D01*
X138165397Y-121097850D01*
X138165388Y-121097852D01*
X138037356Y-121142652D01*
X137928208Y-121223207D01*
X137928207Y-121223208D01*
X137847652Y-121332356D01*
X137802853Y-121460385D01*
X137802851Y-121460393D01*
X137800000Y-121490801D01*
X135297449Y-121490801D01*
X135290573Y-121443607D01*
X135239198Y-121338517D01*
X135156483Y-121255802D01*
X135156482Y-121255801D01*
X135051394Y-121204427D01*
X134983264Y-121194500D01*
X134983260Y-121194500D01*
X133266740Y-121194500D01*
X133266735Y-121194500D01*
X133198606Y-121204427D01*
X133198605Y-121204427D01*
X133093517Y-121255801D01*
X133010801Y-121338517D01*
X132959724Y-121443000D01*
X132917271Y-121480490D01*
X132893243Y-121484500D01*
X131326374Y-121484500D01*
X131274048Y-121462826D01*
X131252374Y-121410500D01*
X131262288Y-121373501D01*
X131273203Y-121354595D01*
X131273204Y-121354591D01*
X131273207Y-121354587D01*
X131300499Y-121252729D01*
X131300500Y-121252729D01*
X131300500Y-121147271D01*
X131300499Y-121147270D01*
X131291972Y-121115448D01*
X131273207Y-121045413D01*
X131220480Y-120954087D01*
X131197174Y-120930781D01*
X131175500Y-120878455D01*
X131175500Y-115545200D01*
X131133557Y-115443943D01*
X131133557Y-115443942D01*
X131056058Y-115366443D01*
X130256058Y-114566443D01*
X130256057Y-114566442D01*
X130226228Y-114554087D01*
X130226226Y-114554086D01*
X130154800Y-114524500D01*
X130154799Y-114524500D01*
X128021545Y-114524500D01*
X127969219Y-114502826D01*
X127945913Y-114479520D01*
X127854591Y-114426795D01*
X127854582Y-114426791D01*
X127752729Y-114399500D01*
X127752727Y-114399500D01*
X127647273Y-114399500D01*
X127647271Y-114399500D01*
X127545417Y-114426791D01*
X127545408Y-114426795D01*
X127454086Y-114479520D01*
X127379520Y-114554086D01*
X127326795Y-114645408D01*
X127326791Y-114645417D01*
X127299500Y-114747270D01*
X127299500Y-114852729D01*
X127326791Y-114954582D01*
X127326792Y-114954585D01*
X127326793Y-114954587D01*
X127379520Y-115045913D01*
X127454087Y-115120480D01*
X127480820Y-115135914D01*
X127515298Y-115180848D01*
X127507905Y-115237001D01*
X127480820Y-115264086D01*
X127454085Y-115279521D01*
X127379520Y-115354086D01*
X127326795Y-115445408D01*
X127326791Y-115445417D01*
X127299500Y-115547270D01*
X127299500Y-115652729D01*
X127326791Y-115754582D01*
X127326792Y-115754585D01*
X127326793Y-115754587D01*
X127379520Y-115845913D01*
X127454087Y-115920480D01*
X127545413Y-115973207D01*
X127647270Y-116000499D01*
X127647271Y-116000500D01*
X127647273Y-116000500D01*
X127752729Y-116000500D01*
X127752729Y-116000499D01*
X127854587Y-115973207D01*
X127945913Y-115920480D01*
X127969219Y-115897174D01*
X128021545Y-115875500D01*
X128955233Y-115875500D01*
X129007559Y-115897174D01*
X129402826Y-116292441D01*
X129424500Y-116344767D01*
X129424500Y-121179873D01*
X129402826Y-121232199D01*
X129381774Y-121246940D01*
X129319597Y-121275934D01*
X129319596Y-121275934D01*
X129235935Y-121359595D01*
X129235935Y-121359596D01*
X129197614Y-121441774D01*
X129155858Y-121480037D01*
X129130548Y-121484500D01*
X124174500Y-121484500D01*
X124122174Y-121462826D01*
X124100500Y-121410500D01*
X124100500Y-121240253D01*
X124098898Y-121232199D01*
X124088867Y-121181769D01*
X124044552Y-121115448D01*
X124018215Y-121097850D01*
X123978232Y-121071133D01*
X123978233Y-121071133D01*
X123948989Y-121065316D01*
X123919748Y-121059500D01*
X120730252Y-121059500D01*
X120701010Y-121065316D01*
X120671767Y-121071133D01*
X120605449Y-121115447D01*
X120605447Y-121115449D01*
X120561133Y-121181767D01*
X120556626Y-121204427D01*
X120549500Y-121240252D01*
X119149999Y-121240252D01*
X119149999Y-121215207D01*
X119147091Y-121190131D01*
X119147089Y-121190125D01*
X119101786Y-121087521D01*
X119022478Y-121008213D01*
X118919875Y-120962910D01*
X118919876Y-120962910D01*
X118894789Y-120960000D01*
X117375000Y-120960000D01*
X117375000Y-121660000D01*
X117175000Y-121660000D01*
X117175000Y-120960000D01*
X115655207Y-120960000D01*
X115630131Y-120962908D01*
X115630125Y-120962910D01*
X115527521Y-121008213D01*
X115448213Y-121087521D01*
X115402910Y-121190124D01*
X115400000Y-121215210D01*
X108150500Y-121215210D01*
X108150500Y-118004871D01*
X119719500Y-118004871D01*
X119719500Y-118125128D01*
X119742959Y-118243069D01*
X119742961Y-118243076D01*
X119788981Y-118354179D01*
X119788982Y-118354180D01*
X119855794Y-118454171D01*
X119940829Y-118539206D01*
X120040820Y-118606018D01*
X120151924Y-118652039D01*
X120269871Y-118675500D01*
X120269872Y-118675500D01*
X120390128Y-118675500D01*
X120390129Y-118675500D01*
X120508076Y-118652039D01*
X120619180Y-118606018D01*
X120719171Y-118539206D01*
X120804206Y-118454171D01*
X120871018Y-118354180D01*
X120917039Y-118243076D01*
X120940500Y-118125129D01*
X120940500Y-118004871D01*
X120917039Y-117886924D01*
X120871018Y-117775820D01*
X120804206Y-117675829D01*
X120719171Y-117590794D01*
X120619180Y-117523982D01*
X120619181Y-117523982D01*
X120619179Y-117523981D01*
X120508076Y-117477961D01*
X120508069Y-117477959D01*
X120419215Y-117460285D01*
X120390129Y-117454500D01*
X120269871Y-117454500D01*
X120246538Y-117459141D01*
X120151930Y-117477959D01*
X120151923Y-117477961D01*
X120040820Y-117523981D01*
X119940832Y-117590791D01*
X119855791Y-117675832D01*
X119788981Y-117775820D01*
X119742961Y-117886923D01*
X119742959Y-117886930D01*
X119719500Y-118004871D01*
X108150500Y-118004871D01*
X108150500Y-111837388D01*
X152430000Y-111837388D01*
X152432756Y-111866786D01*
X152432757Y-111866791D01*
X152476064Y-111990556D01*
X152553934Y-112096064D01*
X152553935Y-112096065D01*
X152659443Y-112173935D01*
X152783208Y-112217242D01*
X152783213Y-112217243D01*
X152812611Y-112219999D01*
X152812613Y-112220000D01*
X152900000Y-112220000D01*
X152900000Y-111700000D01*
X152430000Y-111700000D01*
X152430000Y-111837388D01*
X108150500Y-111837388D01*
X108150500Y-111362611D01*
X152430000Y-111362611D01*
X152430000Y-111500000D01*
X152900000Y-111500000D01*
X152900000Y-110980000D01*
X152812611Y-110980000D01*
X152783213Y-110982756D01*
X152783208Y-110982757D01*
X152659443Y-111026064D01*
X152553935Y-111103934D01*
X152553934Y-111103935D01*
X152476064Y-111209443D01*
X152432757Y-111333208D01*
X152432756Y-111333213D01*
X152430000Y-111362611D01*
X108150500Y-111362611D01*
X108150500Y-81874871D01*
X119719500Y-81874871D01*
X119719500Y-81995128D01*
X119742959Y-82113069D01*
X119742961Y-82113076D01*
X119788981Y-82224179D01*
X119788982Y-82224180D01*
X119855794Y-82324171D01*
X119940829Y-82409206D01*
X120040820Y-82476018D01*
X120151924Y-82522039D01*
X120269871Y-82545500D01*
X120269872Y-82545500D01*
X120390128Y-82545500D01*
X120390129Y-82545500D01*
X120508076Y-82522039D01*
X120619180Y-82476018D01*
X120719171Y-82409206D01*
X120804206Y-82324171D01*
X120871018Y-82224180D01*
X120917039Y-82113076D01*
X120940500Y-81995129D01*
X120940500Y-81874871D01*
X189719500Y-81874871D01*
X189719500Y-81995128D01*
X189742959Y-82113069D01*
X189742961Y-82113076D01*
X189788981Y-82224179D01*
X189788982Y-82224180D01*
X189855794Y-82324171D01*
X189940829Y-82409206D01*
X190040820Y-82476018D01*
X190151924Y-82522039D01*
X190269871Y-82545500D01*
X190269872Y-82545500D01*
X190390128Y-82545500D01*
X190390129Y-82545500D01*
X190508076Y-82522039D01*
X190619180Y-82476018D01*
X190719171Y-82409206D01*
X190804206Y-82324171D01*
X190871018Y-82224180D01*
X190917039Y-82113076D01*
X190940500Y-81995129D01*
X190940500Y-81874871D01*
X190917039Y-81756924D01*
X190871018Y-81645820D01*
X190804206Y-81545829D01*
X190719171Y-81460794D01*
X190619180Y-81393982D01*
X190619181Y-81393982D01*
X190619179Y-81393981D01*
X190508076Y-81347961D01*
X190508069Y-81347959D01*
X190419215Y-81330285D01*
X190390129Y-81324500D01*
X190269871Y-81324500D01*
X190246538Y-81329141D01*
X190151930Y-81347959D01*
X190151923Y-81347961D01*
X190040820Y-81393981D01*
X189940832Y-81460791D01*
X189855791Y-81545832D01*
X189788981Y-81645820D01*
X189742961Y-81756923D01*
X189742959Y-81756930D01*
X189719500Y-81874871D01*
X120940500Y-81874871D01*
X120917039Y-81756924D01*
X120871018Y-81645820D01*
X120804206Y-81545829D01*
X120719171Y-81460794D01*
X120619180Y-81393982D01*
X120619181Y-81393982D01*
X120619179Y-81393981D01*
X120508076Y-81347961D01*
X120508069Y-81347959D01*
X120419215Y-81330285D01*
X120390129Y-81324500D01*
X120269871Y-81324500D01*
X120246538Y-81329141D01*
X120151930Y-81347959D01*
X120151923Y-81347961D01*
X120040820Y-81393981D01*
X119940832Y-81460791D01*
X119855791Y-81545832D01*
X119788981Y-81645820D01*
X119742961Y-81756923D01*
X119742959Y-81756930D01*
X119719500Y-81874871D01*
X108150500Y-81874871D01*
X108150500Y-80002083D01*
X108150616Y-79997934D01*
X108164343Y-79753500D01*
X108168184Y-79685092D01*
X108169114Y-79676852D01*
X108178718Y-79620332D01*
X108221247Y-79370020D01*
X108223092Y-79361937D01*
X108309258Y-79062846D01*
X108311988Y-79055044D01*
X108386964Y-78874036D01*
X151399500Y-78874036D01*
X151399500Y-79125963D01*
X151438909Y-79374782D01*
X151438912Y-79374795D01*
X151516756Y-79614373D01*
X151631129Y-79838845D01*
X151749729Y-80002083D01*
X151779207Y-80042656D01*
X151957344Y-80220793D01*
X151957347Y-80220795D01*
X151957348Y-80220796D01*
X152161154Y-80368870D01*
X152254697Y-80416532D01*
X152385621Y-80483241D01*
X152385623Y-80483241D01*
X152385626Y-80483243D01*
X152625204Y-80561087D01*
X152625210Y-80561088D01*
X152625215Y-80561090D01*
X152749626Y-80580795D01*
X152874036Y-80600500D01*
X152874038Y-80600500D01*
X153125964Y-80600500D01*
X153225491Y-80584736D01*
X153374785Y-80561090D01*
X153374792Y-80561087D01*
X153374795Y-80561087D01*
X153614373Y-80483243D01*
X153614373Y-80483242D01*
X153614379Y-80483241D01*
X153838845Y-80368870D01*
X154042656Y-80220793D01*
X154220793Y-80042656D01*
X154368870Y-79838845D01*
X154483241Y-79614379D01*
X154561090Y-79374785D01*
X154600500Y-79125962D01*
X154600500Y-78888577D01*
X161300000Y-78888577D01*
X161300000Y-79111422D01*
X161329086Y-79332365D01*
X161386763Y-79547618D01*
X161472043Y-79753500D01*
X161472045Y-79753503D01*
X161583467Y-79946495D01*
X161719134Y-80123297D01*
X161727207Y-80131370D01*
X162438681Y-79419894D01*
X162456274Y-79446224D01*
X162553776Y-79543726D01*
X162580103Y-79561317D01*
X161868629Y-80272792D01*
X161876702Y-80280865D01*
X162053504Y-80416532D01*
X162246496Y-80527954D01*
X162246499Y-80527956D01*
X162452381Y-80613236D01*
X162667635Y-80670913D01*
X162667633Y-80670913D01*
X162888578Y-80700000D01*
X163111422Y-80700000D01*
X163332365Y-80670913D01*
X163547618Y-80613236D01*
X163753500Y-80527956D01*
X163753503Y-80527954D01*
X163946495Y-80416532D01*
X164123291Y-80280870D01*
X164123301Y-80280862D01*
X164131370Y-80272792D01*
X163419895Y-79561317D01*
X163446224Y-79543726D01*
X163543726Y-79446224D01*
X163561317Y-79419895D01*
X164272792Y-80131370D01*
X164280862Y-80123301D01*
X164280870Y-80123291D01*
X164416532Y-79946495D01*
X164527954Y-79753503D01*
X164527956Y-79753500D01*
X164613236Y-79547618D01*
X164670913Y-79332365D01*
X164700000Y-79111422D01*
X164700000Y-78888577D01*
X164670913Y-78667634D01*
X164613236Y-78452381D01*
X164527956Y-78246499D01*
X164527954Y-78246496D01*
X164416532Y-78053504D01*
X164280865Y-77876702D01*
X164272792Y-77868629D01*
X163561317Y-78580103D01*
X163543726Y-78553776D01*
X163446224Y-78456274D01*
X163419894Y-78438681D01*
X164131370Y-77727207D01*
X164123297Y-77719134D01*
X163946495Y-77583467D01*
X163753503Y-77472045D01*
X163753500Y-77472043D01*
X163547618Y-77386763D01*
X163332364Y-77329086D01*
X163332366Y-77329086D01*
X163111422Y-77300000D01*
X162888578Y-77300000D01*
X162667634Y-77329086D01*
X162452381Y-77386763D01*
X162246499Y-77472043D01*
X162246496Y-77472045D01*
X162053504Y-77583467D01*
X161876707Y-77719129D01*
X161876706Y-77719131D01*
X161868629Y-77727207D01*
X162580104Y-78438682D01*
X162553776Y-78456274D01*
X162456274Y-78553776D01*
X162438682Y-78580104D01*
X161727207Y-77868629D01*
X161719131Y-77876706D01*
X161719129Y-77876707D01*
X161583467Y-78053504D01*
X161472045Y-78246496D01*
X161472043Y-78246499D01*
X161386763Y-78452381D01*
X161329086Y-78667634D01*
X161300000Y-78888577D01*
X154600500Y-78888577D01*
X154600500Y-78874038D01*
X154599767Y-78869412D01*
X154567934Y-78668426D01*
X154561090Y-78625215D01*
X154561088Y-78625210D01*
X154561087Y-78625204D01*
X154483243Y-78385626D01*
X154483241Y-78385623D01*
X154483241Y-78385621D01*
X154412353Y-78246496D01*
X154368870Y-78161154D01*
X154220796Y-77957348D01*
X154220795Y-77957347D01*
X154220793Y-77957344D01*
X154042656Y-77779207D01*
X154042653Y-77779204D01*
X154042651Y-77779203D01*
X153838845Y-77631129D01*
X153614373Y-77516756D01*
X153374795Y-77438912D01*
X153374782Y-77438909D01*
X153125964Y-77399500D01*
X153125962Y-77399500D01*
X152874038Y-77399500D01*
X152874036Y-77399500D01*
X152625217Y-77438909D01*
X152625204Y-77438912D01*
X152385626Y-77516756D01*
X152161154Y-77631129D01*
X151957348Y-77779203D01*
X151779203Y-77957348D01*
X151631129Y-78161154D01*
X151516756Y-78385626D01*
X151438912Y-78625204D01*
X151438909Y-78625217D01*
X151399500Y-78874036D01*
X108386964Y-78874036D01*
X108431098Y-78767488D01*
X108434694Y-78760019D01*
X108585259Y-78487593D01*
X108589656Y-78480595D01*
X108769769Y-78226750D01*
X108774927Y-78220281D01*
X108982342Y-77988183D01*
X108988183Y-77982342D01*
X109220281Y-77774927D01*
X109226750Y-77769769D01*
X109480595Y-77589656D01*
X109487593Y-77585259D01*
X109760019Y-77434694D01*
X109767481Y-77431100D01*
X110055044Y-77311988D01*
X110062846Y-77309258D01*
X110361945Y-77223090D01*
X110370020Y-77221247D01*
X110676860Y-77169113D01*
X110685092Y-77168184D01*
X110997934Y-77150615D01*
X111002083Y-77150500D01*
X111034351Y-77150500D01*
X204965649Y-77150500D01*
X204997917Y-77150500D01*
X205002065Y-77150615D01*
G37*
%TD.AperFunction*%
%TD*%
M02*
