%TF.GenerationSoftware,KiCad,Pcbnew,9.0.3*%
%TF.CreationDate,2026-03-16T13:33:50-04:00*%
%TF.ProjectId,ephys-test-module-64,65706879-732d-4746-9573-742d6d6f6475,F*%
%TF.SameCoordinates,Original*%
%TF.FileFunction,Copper,L2,Inr*%
%TF.FilePolarity,Positive*%
%FSLAX46Y46*%
G04 Gerber Fmt 4.6, Leading zero omitted, Abs format (unit mm)*
G04 Created by KiCad (PCBNEW 9.0.3) date 2026-03-16 13:33:50*
%MOMM*%
%LPD*%
G01*
G04 APERTURE LIST*
G04 Aperture macros list*
%AMRoundRect*
0 Rectangle with rounded corners*
0 $1 Rounding radius*
0 $2 $3 $4 $5 $6 $7 $8 $9 X,Y pos of 4 corners*
0 Add a 4 corners polygon primitive as box body*
4,1,4,$2,$3,$4,$5,$6,$7,$8,$9,$2,$3,0*
0 Add four circle primitives for the rounded corners*
1,1,$1+$1,$2,$3*
1,1,$1+$1,$4,$5*
1,1,$1+$1,$6,$7*
1,1,$1+$1,$8,$9*
0 Add four rect primitives between the rounded corners*
20,1,$1+$1,$2,$3,$4,$5,0*
20,1,$1+$1,$4,$5,$6,$7,0*
20,1,$1+$1,$6,$7,$8,$9,0*
20,1,$1+$1,$8,$9,$2,$3,0*%
G04 Aperture macros list end*
%TA.AperFunction,ComponentPad*%
%ADD10C,3.000000*%
%TD*%
%TA.AperFunction,ComponentPad*%
%ADD11RoundRect,0.200000X-0.282843X0.000000X0.000000X-0.282843X0.282843X0.000000X0.000000X0.282843X0*%
%TD*%
%TA.AperFunction,ComponentPad*%
%ADD12C,0.800000*%
%TD*%
%TA.AperFunction,ComponentPad*%
%ADD13RoundRect,0.275000X-0.388909X0.000000X0.000000X-0.388909X0.388909X0.000000X0.000000X0.388909X0*%
%TD*%
%TA.AperFunction,ComponentPad*%
%ADD14C,1.100000*%
%TD*%
%TA.AperFunction,ViaPad*%
%ADD15C,0.500000*%
%TD*%
%TA.AperFunction,Conductor*%
%ADD16C,0.400000*%
%TD*%
G04 APERTURE END LIST*
D10*
%TO.N,/Headstage Interface/E_{stim}*%
%TO.C,TP1*%
X188000000Y-135000000D03*
%TD*%
%TO.N,GND*%
%TO.C,TP2*%
X198000000Y-135000000D03*
%TD*%
D11*
%TO.N,/Headstage Interface/A*%
%TO.C,LD1*%
X188000000Y-125200000D03*
D12*
%TO.N,unconnected-(LD1-NC-Pad2)*%
X187300000Y-125900000D03*
%TO.N,/Headstage Interface/K_{0}*%
X188000000Y-126600000D03*
%TD*%
D13*
%TO.N,/Headstage Interface/A*%
%TO.C,LD2*%
X198000000Y-124900000D03*
D14*
%TO.N,unconnected-(LD2-NC-Pad2)*%
X197000000Y-125900000D03*
%TO.N,/Headstage Interface/K_{1}*%
X198000000Y-126900000D03*
%TD*%
D15*
%TO.N,GND*%
X198880000Y-121115421D03*
X174000000Y-135000000D03*
X184700000Y-119100000D03*
%TO.N,/Headstage Interface/K_{1}*%
X197400000Y-123000000D03*
%TO.N,/Headstage Interface/K_{0}*%
X192700000Y-128100000D03*
%TO.N,/Headstage Interface/A*%
X190500000Y-122000000D03*
%TO.N,/Headstage Interface/K_{1}*%
X188200000Y-120800000D03*
%TO.N,/Headstage Interface/K_{0}*%
X192700000Y-121600000D03*
%TO.N,GND*%
X158000000Y-95700000D03*
X169600000Y-114550000D03*
X194700000Y-127000000D03*
X206600000Y-123300000D03*
X145300000Y-96675000D03*
X172600000Y-96800000D03*
X113500000Y-81700000D03*
X175981000Y-114462000D03*
X128900000Y-99600000D03*
X151650000Y-111800000D03*
X143250000Y-114125000D03*
X183700000Y-132300000D03*
X113269807Y-112500000D03*
X153400000Y-91900000D03*
X133600000Y-117000000D03*
X147500000Y-89025000D03*
X156400000Y-84100000D03*
X187500000Y-92500000D03*
X135000000Y-80800000D03*
X164500000Y-111700000D03*
X154800000Y-114900000D03*
X173525000Y-84750000D03*
X181725000Y-99675000D03*
X190700000Y-125800000D03*
X148400000Y-81100000D03*
X113800000Y-133900000D03*
X183200000Y-124900000D03*
X172997000Y-124013000D03*
X138700000Y-106800000D03*
X187200000Y-99600000D03*
X159400000Y-109500000D03*
X207048965Y-102177183D03*
X176800000Y-92450000D03*
X159100000Y-133900000D03*
X167100000Y-119400000D03*
X201700000Y-105700000D03*
X138400000Y-92400000D03*
X186725000Y-84675000D03*
X149375000Y-122707000D03*
X175300000Y-106800000D03*
X187500000Y-106800000D03*
X162100000Y-115100000D03*
X136150000Y-99625000D03*
X202300000Y-118200000D03*
X128900000Y-133600000D03*
X140700000Y-101750000D03*
X113100000Y-94400000D03*
X185000000Y-77900000D03*
X177975000Y-101725000D03*
X158000000Y-106300000D03*
X201400000Y-82700000D03*
X165000000Y-128200000D03*
X158400000Y-111800000D03*
X206200000Y-79500000D03*
X165800000Y-80500000D03*
X159177000Y-121916000D03*
X153800000Y-111350000D03*
X155000000Y-94600000D03*
X167975000Y-89075000D03*
X129125000Y-85075000D03*
X194700000Y-130600000D03*
X137800000Y-124800000D03*
X148100000Y-112900000D03*
X186400000Y-114300000D03*
X138850000Y-84475000D03*
X178300000Y-117700000D03*
X201500000Y-94800000D03*
X129000000Y-107000000D03*
X129400000Y-114750000D03*
X129000000Y-92400000D03*
X194400000Y-122600000D03*
X155500000Y-110100000D03*
X198600000Y-84800000D03*
X180200000Y-81800000D03*
X206500000Y-134700000D03*
X161900000Y-92500000D03*
X141900000Y-133000000D03*
X162100000Y-78300000D03*
X194252340Y-81951989D03*
X158000000Y-89400000D03*
%TO.N,VCC*%
X120800000Y-121000000D03*
X123450000Y-118350000D03*
X119700000Y-124200000D03*
X119700000Y-123700000D03*
X122200000Y-119600000D03*
%TO.N,/Headstage Interface/K_{0}*%
X155700000Y-94800000D03*
%TO.N,/Headstage Interface/E_{stim}*%
X156500000Y-110900000D03*
X156500000Y-109300000D03*
%TO.N,/Headstage Interface/K_{1}*%
X156500000Y-94600000D03*
%TO.N,/Headstage Interface/REF*%
X181900000Y-114100000D03*
X160200000Y-109500000D03*
%TO.N,/Headstage Interface/A*%
X159500000Y-94700000D03*
%TO.N,/Test Signal Interface/SDA*%
X125863500Y-116536500D03*
X125100000Y-120900000D03*
X125100000Y-119500000D03*
%TO.N,/Test Signal Interface/SCL*%
X127700000Y-115400000D03*
%TO.N,/Test Signal Interface/WP*%
X118100000Y-116100000D03*
%TO.N,/Headstage Interface/E0*%
X153400000Y-110500000D03*
%TO.N,/Headstage Interface/E8*%
X153400000Y-108500000D03*
%TO.N,/Headstage Interface/E12*%
X153400000Y-107500000D03*
%TO.N,/Headstage Interface/E4*%
X153400000Y-109500000D03*
%TO.N,/Headstage Interface/E14*%
X153000000Y-107000000D03*
%TO.N,/Headstage Interface/E6*%
X153000000Y-109000000D03*
%TO.N,/Headstage Interface/E2*%
X153000000Y-110000000D03*
%TO.N,/Headstage Interface/E10*%
X153000000Y-108000000D03*
%TO.N,/Headstage Interface/E46*%
X153400000Y-98000000D03*
%TO.N,/Headstage Interface/E42*%
X153400000Y-99000000D03*
%TO.N,/Headstage Interface/E36*%
X153000000Y-100500000D03*
%TO.N,/Headstage Interface/E48*%
X153000000Y-97000000D03*
%TO.N,/Headstage Interface/E52*%
X153000000Y-96000000D03*
%TO.N,/Headstage Interface/E58*%
X153400000Y-94500000D03*
%TO.N,/Headstage Interface/E26*%
X153000000Y-103500000D03*
%TO.N,/Headstage Interface/E56*%
X153000000Y-95000000D03*
%TO.N,/Headstage Interface/E50*%
X153400000Y-96500000D03*
%TO.N,/Headstage Interface/E20*%
X153400000Y-105000000D03*
%TO.N,/Headstage Interface/E32*%
X153000000Y-101500000D03*
%TO.N,/Headstage Interface/E16*%
X153400000Y-106000000D03*
%TO.N,/Headstage Interface/E30*%
X153000000Y-102500000D03*
%TO.N,/Headstage Interface/E44*%
X153000000Y-98500000D03*
%TO.N,/Headstage Interface/E54*%
X153400000Y-95500000D03*
%TO.N,/Headstage Interface/E62*%
X153400000Y-93500000D03*
%TO.N,/Headstage Interface/E18*%
X153000000Y-105500000D03*
%TO.N,/Headstage Interface/E28*%
X153400000Y-103000000D03*
%TO.N,/Headstage Interface/E34*%
X153400000Y-101000000D03*
%TO.N,/Headstage Interface/E22*%
X153000000Y-104500000D03*
%TO.N,/Headstage Interface/E38*%
X153400000Y-100000000D03*
%TO.N,/Headstage Interface/E40*%
X153000000Y-99500000D03*
%TO.N,/Headstage Interface/E60*%
X153000000Y-94000000D03*
%TO.N,/Headstage Interface/E24*%
X153400000Y-104000000D03*
%TO.N,/Headstage Interface/E19*%
X163000000Y-105550000D03*
%TO.N,/Headstage Interface/E25*%
X162600000Y-104050000D03*
%TO.N,/Headstage Interface/E5*%
X162600000Y-109550000D03*
%TO.N,/Headstage Interface/E45*%
X163000000Y-98500000D03*
%TO.N,/Headstage Interface/E29*%
X162600000Y-103050000D03*
%TO.N,/Headstage Interface/E41*%
X163000000Y-99500000D03*
%TO.N,/Headstage Interface/E9*%
X162600000Y-108550000D03*
%TO.N,/Headstage Interface/E57*%
X163000000Y-95000000D03*
%TO.N,/Headstage Interface/E59*%
X162600000Y-94500000D03*
%TO.N,/Headstage Interface/E39*%
X162600000Y-100000000D03*
%TO.N,/Headstage Interface/E55*%
X162600000Y-95500000D03*
%TO.N,/Headstage Interface/E21*%
X162600000Y-105050000D03*
%TO.N,/Headstage Interface/E15*%
X163000000Y-107050000D03*
%TO.N,/Headstage Interface/E47*%
X162600000Y-98000000D03*
%TO.N,/Headstage Interface/E7*%
X163000000Y-109050000D03*
%TO.N,/Headstage Interface/E35*%
X162600000Y-101000000D03*
%TO.N,/Headstage Interface/E49*%
X163000000Y-97000000D03*
%TO.N,/Headstage Interface/E11*%
X163000000Y-108050000D03*
%TO.N,/Headstage Interface/E17*%
X162600000Y-106050000D03*
%TO.N,/Headstage Interface/E3*%
X163000000Y-110050000D03*
%TO.N,/Headstage Interface/E33*%
X163000000Y-101500000D03*
%TO.N,/Headstage Interface/E61*%
X163000000Y-94000000D03*
%TO.N,/Headstage Interface/E37*%
X163000000Y-100500000D03*
%TO.N,/Headstage Interface/E31*%
X163000000Y-102550000D03*
%TO.N,/Headstage Interface/E27*%
X163000000Y-103550000D03*
%TO.N,/Headstage Interface/E43*%
X162600000Y-99000000D03*
%TO.N,/Headstage Interface/E23*%
X163000000Y-104550000D03*
%TO.N,/Headstage Interface/E63*%
X162600000Y-93500000D03*
%TO.N,/Headstage Interface/E53*%
X163000000Y-96000000D03*
%TO.N,/Headstage Interface/E51*%
X162600000Y-96500000D03*
%TO.N,/Headstage Interface/E1*%
X162600000Y-110550000D03*
%TO.N,/Headstage Interface/E13*%
X162600000Y-107550000D03*
%TD*%
D16*
%TO.N,/Headstage Interface/E_{stim}*%
X178600000Y-135000000D02*
X188000000Y-135000000D01*
X156500000Y-112900000D02*
X178600000Y-135000000D01*
X156500000Y-109300000D02*
X156500000Y-112900000D01*
%TO.N,/Headstage Interface/A*%
X190500000Y-122000000D02*
X190500000Y-124700000D01*
%TO.N,/Headstage Interface/K_{1}*%
X197400000Y-122400000D02*
X197400000Y-123000000D01*
X195800000Y-120800000D02*
X197400000Y-122400000D01*
X188200000Y-120800000D02*
X195800000Y-120800000D01*
%TO.N,/Headstage Interface/K_{0}*%
X155700000Y-87800000D02*
X155700000Y-94800000D01*
X164900000Y-78600000D02*
X155700000Y-87800000D01*
X202500000Y-78600000D02*
X164900000Y-78600000D01*
X205800000Y-81900000D02*
X202500000Y-78600000D01*
X192700000Y-128100000D02*
X198900000Y-128100000D01*
X189800000Y-128100000D02*
X188300000Y-126600000D01*
X192700000Y-128100000D02*
X189800000Y-128100000D01*
X198900000Y-128100000D02*
X205800000Y-121200000D01*
X205800000Y-121200000D02*
X205800000Y-81900000D01*
%TO.N,/Headstage Interface/A*%
X198100000Y-124700000D02*
X190500000Y-124700000D01*
%TO.N,/Headstage Interface/K_{1}*%
X204900000Y-120300000D02*
X198300000Y-126900000D01*
X202200000Y-79500000D02*
X204900000Y-82200000D01*
X204900000Y-82200000D02*
X204900000Y-120300000D01*
X156500000Y-88400000D02*
X165400000Y-79500000D01*
X156500000Y-94600000D02*
X156500000Y-88400000D01*
X165400000Y-79500000D02*
X202200000Y-79500000D01*
%TO.N,/Headstage Interface/A*%
X204100000Y-119100000D02*
X198300000Y-124900000D01*
X201900000Y-80400000D02*
X204100000Y-82600000D01*
X159500000Y-89300000D02*
X168400000Y-80400000D01*
X159500000Y-94700000D02*
X159500000Y-89300000D01*
X204100000Y-82600000D02*
X204100000Y-119100000D01*
X188800000Y-124700000D02*
X188300000Y-125200000D01*
X168400000Y-80400000D02*
X201900000Y-80400000D01*
X198300000Y-124900000D02*
X198100000Y-124700000D01*
X190500000Y-124700000D02*
X188800000Y-124700000D01*
%TD*%
%TA.AperFunction,Conductor*%
%TO.N,GND*%
G36*
X196654053Y-125122174D02*
G01*
X196675727Y-125174500D01*
X196654053Y-125226826D01*
X196642839Y-125236029D01*
X196521584Y-125317048D01*
X196521583Y-125317050D01*
X196417050Y-125421583D01*
X196417048Y-125421584D01*
X196334915Y-125544505D01*
X196278343Y-125681082D01*
X196278340Y-125681092D01*
X196264666Y-125749839D01*
X196249500Y-125826082D01*
X196249500Y-125973918D01*
X196250523Y-125979059D01*
X196278340Y-126118907D01*
X196278343Y-126118917D01*
X196334915Y-126255494D01*
X196334916Y-126255495D01*
X196417049Y-126378416D01*
X196521584Y-126482951D01*
X196644505Y-126565084D01*
X196781087Y-126621658D01*
X196926082Y-126650500D01*
X196926084Y-126650500D01*
X197073916Y-126650500D01*
X197073918Y-126650500D01*
X197184477Y-126628508D01*
X197240026Y-126639557D01*
X197271492Y-126686649D01*
X197271492Y-126715523D01*
X197249500Y-126826083D01*
X197249500Y-126973916D01*
X197278340Y-127118907D01*
X197278343Y-127118917D01*
X197334915Y-127255494D01*
X197417048Y-127378415D01*
X197521584Y-127482951D01*
X197642839Y-127563971D01*
X197674305Y-127611063D01*
X197663256Y-127666612D01*
X197616164Y-127698078D01*
X197601727Y-127699500D01*
X192927141Y-127699500D01*
X192890140Y-127689585D01*
X192873890Y-127680202D01*
X192873882Y-127680199D01*
X192759311Y-127649500D01*
X192759309Y-127649500D01*
X192640691Y-127649500D01*
X192640689Y-127649500D01*
X192526117Y-127680199D01*
X192526109Y-127680202D01*
X192509860Y-127689585D01*
X192472859Y-127699500D01*
X189996545Y-127699500D01*
X189944219Y-127677826D01*
X189276835Y-127010442D01*
X188545913Y-126279520D01*
X188545910Y-126279518D01*
X188545909Y-126279517D01*
X188506768Y-126256919D01*
X188484328Y-126234476D01*
X188483473Y-126235133D01*
X188480518Y-126231282D01*
X188368716Y-126119480D01*
X188308088Y-126084477D01*
X188231784Y-126040423D01*
X188231781Y-126040422D01*
X188231779Y-126040421D01*
X188115877Y-126009365D01*
X188070944Y-125974887D01*
X188063552Y-125918734D01*
X188098030Y-125873801D01*
X188112158Y-125867510D01*
X188184090Y-125844139D01*
X188260909Y-125788326D01*
X188498430Y-125550802D01*
X188513750Y-125539048D01*
X188545913Y-125520480D01*
X188944218Y-125122173D01*
X188996544Y-125100500D01*
X190447273Y-125100500D01*
X196601727Y-125100500D01*
X196654053Y-125122174D01*
G37*
%TD.AperFunction*%
%TA.AperFunction,Conductor*%
G36*
X205002231Y-77500634D02*
G01*
X205296821Y-77518454D01*
X205305673Y-77519528D01*
X205593784Y-77572327D01*
X205602435Y-77574460D01*
X205882062Y-77661595D01*
X205890401Y-77664757D01*
X206157497Y-77784967D01*
X206165409Y-77789120D01*
X206416046Y-77940636D01*
X206423400Y-77945712D01*
X206653951Y-78126336D01*
X206660640Y-78132262D01*
X206867737Y-78339359D01*
X206873663Y-78346048D01*
X207054287Y-78576599D01*
X207059363Y-78583953D01*
X207210879Y-78834590D01*
X207215032Y-78842502D01*
X207335239Y-79109590D01*
X207338407Y-79117946D01*
X207425536Y-79397552D01*
X207427675Y-79406228D01*
X207480469Y-79694317D01*
X207481546Y-79703188D01*
X207499365Y-79997768D01*
X207499500Y-80002236D01*
X207499500Y-133997763D01*
X207499365Y-134002231D01*
X207481546Y-134296811D01*
X207480469Y-134305682D01*
X207427675Y-134593771D01*
X207425536Y-134602447D01*
X207338407Y-134882053D01*
X207335239Y-134890409D01*
X207215032Y-135157497D01*
X207210879Y-135165409D01*
X207059363Y-135416046D01*
X207054287Y-135423400D01*
X206873663Y-135653951D01*
X206867737Y-135660640D01*
X206660640Y-135867737D01*
X206653951Y-135873663D01*
X206423400Y-136054287D01*
X206416046Y-136059363D01*
X206165409Y-136210879D01*
X206157497Y-136215032D01*
X205890409Y-136335239D01*
X205882053Y-136338407D01*
X205602447Y-136425536D01*
X205593771Y-136427675D01*
X205305682Y-136480469D01*
X205296811Y-136481546D01*
X205002232Y-136499365D01*
X204997764Y-136499500D01*
X199220633Y-136499500D01*
X199168307Y-136477826D01*
X199146633Y-136425500D01*
X199168307Y-136373174D01*
X199175586Y-136366791D01*
X199189367Y-136356216D01*
X199202080Y-136343502D01*
X198636184Y-135777605D01*
X198637463Y-135776751D01*
X198776751Y-135637463D01*
X198777605Y-135636183D01*
X199343502Y-136202080D01*
X199356217Y-136189366D01*
X199356218Y-136189364D01*
X199499854Y-136002174D01*
X199499858Y-136002168D01*
X199617835Y-135797827D01*
X199617838Y-135797819D01*
X199708129Y-135579835D01*
X199708133Y-135579824D01*
X199769202Y-135351909D01*
X199800000Y-135117976D01*
X199800000Y-134882023D01*
X199769202Y-134648090D01*
X199708133Y-134420175D01*
X199708129Y-134420164D01*
X199617838Y-134202180D01*
X199617835Y-134202172D01*
X199499858Y-133997831D01*
X199499854Y-133997825D01*
X199356214Y-133810630D01*
X199343502Y-133797918D01*
X198777604Y-134363815D01*
X198776751Y-134362537D01*
X198637463Y-134223249D01*
X198636183Y-134222394D01*
X199202081Y-133656497D01*
X199189369Y-133643785D01*
X199002174Y-133500145D01*
X199002168Y-133500141D01*
X198797827Y-133382164D01*
X198797819Y-133382161D01*
X198579835Y-133291870D01*
X198579824Y-133291866D01*
X198351908Y-133230797D01*
X198351909Y-133230797D01*
X198117976Y-133200000D01*
X197882024Y-133200000D01*
X197648090Y-133230797D01*
X197420175Y-133291866D01*
X197420164Y-133291870D01*
X197202180Y-133382161D01*
X197202172Y-133382164D01*
X196997831Y-133500141D01*
X196997825Y-133500145D01*
X196810641Y-133643776D01*
X196810635Y-133643781D01*
X196797918Y-133656497D01*
X197363815Y-134222394D01*
X197362537Y-134223249D01*
X197223249Y-134362537D01*
X197222394Y-134363815D01*
X196656497Y-133797918D01*
X196643781Y-133810635D01*
X196643776Y-133810641D01*
X196500145Y-133997825D01*
X196500141Y-133997831D01*
X196382164Y-134202172D01*
X196382161Y-134202180D01*
X196291870Y-134420164D01*
X196291866Y-134420175D01*
X196230797Y-134648090D01*
X196200000Y-134882023D01*
X196200000Y-135117976D01*
X196230797Y-135351909D01*
X196291866Y-135579824D01*
X196291870Y-135579835D01*
X196382161Y-135797819D01*
X196382164Y-135797827D01*
X196500141Y-136002168D01*
X196500145Y-136002174D01*
X196643785Y-136189369D01*
X196656497Y-136202081D01*
X197222394Y-135636183D01*
X197223249Y-135637463D01*
X197362537Y-135776751D01*
X197363815Y-135777605D01*
X196797918Y-136343502D01*
X196810631Y-136356215D01*
X196824416Y-136366793D01*
X196852734Y-136415842D01*
X196838074Y-136470549D01*
X196789025Y-136498867D01*
X196779367Y-136499500D01*
X189057188Y-136499500D01*
X189004862Y-136477826D01*
X188983188Y-136425500D01*
X189004862Y-136373174D01*
X189012140Y-136366792D01*
X189123618Y-136281252D01*
X189123619Y-136281250D01*
X189123624Y-136281247D01*
X189281247Y-136123624D01*
X189416948Y-135946774D01*
X189528405Y-135753726D01*
X189613710Y-135547781D01*
X189671404Y-135332463D01*
X189700500Y-135111457D01*
X189700500Y-134888543D01*
X189671404Y-134667537D01*
X189613710Y-134452219D01*
X189528405Y-134246274D01*
X189416948Y-134053226D01*
X189405594Y-134038429D01*
X189281252Y-133876381D01*
X189123618Y-133718747D01*
X188946776Y-133583053D01*
X188946770Y-133583049D01*
X188753725Y-133471594D01*
X188753717Y-133471591D01*
X188547782Y-133386290D01*
X188332461Y-133328595D01*
X188169647Y-133307160D01*
X188111457Y-133299500D01*
X187888543Y-133299500D01*
X187837122Y-133306269D01*
X187667538Y-133328595D01*
X187452217Y-133386290D01*
X187246282Y-133471591D01*
X187246274Y-133471594D01*
X187053229Y-133583049D01*
X187053223Y-133583053D01*
X186876381Y-133718747D01*
X186718747Y-133876381D01*
X186583053Y-134053223D01*
X186583049Y-134053229D01*
X186471594Y-134246274D01*
X186471591Y-134246282D01*
X186386291Y-134452215D01*
X186386287Y-134452225D01*
X186361523Y-134544652D01*
X186327044Y-134589586D01*
X186290044Y-134599500D01*
X178796544Y-134599500D01*
X178744218Y-134577826D01*
X164954560Y-120788167D01*
X164907081Y-120740688D01*
X187749500Y-120740688D01*
X187749500Y-120859311D01*
X187780199Y-120973882D01*
X187780201Y-120973887D01*
X187839508Y-121076609D01*
X187839509Y-121076610D01*
X187839511Y-121076613D01*
X187923387Y-121160489D01*
X187923389Y-121160490D01*
X187923390Y-121160491D01*
X188026112Y-121219798D01*
X188026114Y-121219799D01*
X188026115Y-121219799D01*
X188026117Y-121219800D01*
X188083402Y-121235149D01*
X188140688Y-121250499D01*
X188140689Y-121250500D01*
X188140691Y-121250500D01*
X188259311Y-121250500D01*
X188259311Y-121250499D01*
X188373886Y-121219799D01*
X188373888Y-121219797D01*
X188373890Y-121219797D01*
X188390140Y-121210415D01*
X188427141Y-121200500D01*
X192283749Y-121200500D01*
X192336075Y-121222174D01*
X192357749Y-121274500D01*
X192342452Y-121319555D01*
X192339509Y-121323389D01*
X192280201Y-121426112D01*
X192280199Y-121426117D01*
X192249500Y-121540688D01*
X192249500Y-121659311D01*
X192280199Y-121773882D01*
X192280201Y-121773887D01*
X192339508Y-121876609D01*
X192339509Y-121876610D01*
X192339511Y-121876613D01*
X192423387Y-121960489D01*
X192526114Y-122019799D01*
X192526115Y-122019799D01*
X192526117Y-122019800D01*
X192583402Y-122035149D01*
X192640688Y-122050499D01*
X192640689Y-122050500D01*
X192640691Y-122050500D01*
X192759311Y-122050500D01*
X192759311Y-122050499D01*
X192873886Y-122019799D01*
X192976613Y-121960489D01*
X193060489Y-121876613D01*
X193119799Y-121773886D01*
X193150499Y-121659311D01*
X193150500Y-121659311D01*
X193150500Y-121540689D01*
X193150499Y-121540688D01*
X193119800Y-121426117D01*
X193119798Y-121426112D01*
X193076142Y-121350499D01*
X193060489Y-121323387D01*
X193060486Y-121323384D01*
X193057548Y-121319555D01*
X193042883Y-121264849D01*
X193071196Y-121215797D01*
X193116251Y-121200500D01*
X195603455Y-121200500D01*
X195655781Y-121222174D01*
X196977826Y-122544218D01*
X196999500Y-122596544D01*
X196999500Y-122772858D01*
X196989586Y-122809857D01*
X196980203Y-122826108D01*
X196980199Y-122826117D01*
X196949500Y-122940688D01*
X196949500Y-123059311D01*
X196980199Y-123173882D01*
X196980201Y-123173887D01*
X197039508Y-123276609D01*
X197039509Y-123276610D01*
X197039511Y-123276613D01*
X197123387Y-123360489D01*
X197226114Y-123419799D01*
X197226115Y-123419799D01*
X197226117Y-123419800D01*
X197283402Y-123435149D01*
X197340688Y-123450499D01*
X197340689Y-123450500D01*
X197340691Y-123450500D01*
X197459311Y-123450500D01*
X197459311Y-123450499D01*
X197573886Y-123419799D01*
X197676613Y-123360489D01*
X197760489Y-123276613D01*
X197819799Y-123173886D01*
X197850499Y-123059311D01*
X197850500Y-123059311D01*
X197850500Y-122940689D01*
X197850499Y-122940688D01*
X197819800Y-122826117D01*
X197819796Y-122826108D01*
X197810414Y-122809857D01*
X197800500Y-122772858D01*
X197800500Y-122458698D01*
X197800501Y-122458685D01*
X197800501Y-122347271D01*
X197800500Y-122347270D01*
X197773208Y-122245416D01*
X197773205Y-122245409D01*
X197755770Y-122215212D01*
X197755769Y-122215210D01*
X197720480Y-122154087D01*
X197643334Y-122076941D01*
X197643323Y-122076931D01*
X196885947Y-121319555D01*
X196045913Y-120479520D01*
X196045910Y-120479518D01*
X196045909Y-120479517D01*
X195954592Y-120426795D01*
X195954588Y-120426793D01*
X195852727Y-120399500D01*
X195852726Y-120399500D01*
X188427141Y-120399500D01*
X188390140Y-120389585D01*
X188373890Y-120380202D01*
X188373882Y-120380199D01*
X188259311Y-120349500D01*
X188259309Y-120349500D01*
X188140691Y-120349500D01*
X188140689Y-120349500D01*
X188026117Y-120380199D01*
X188026112Y-120380201D01*
X187923390Y-120439508D01*
X187839508Y-120523390D01*
X187780201Y-120626112D01*
X187780199Y-120626117D01*
X187749500Y-120740688D01*
X164907081Y-120740688D01*
X162171264Y-118004871D01*
X189719500Y-118004871D01*
X189719500Y-118125128D01*
X189742959Y-118243069D01*
X189742961Y-118243076D01*
X189788981Y-118354179D01*
X189788982Y-118354180D01*
X189855794Y-118454171D01*
X189940829Y-118539206D01*
X190040820Y-118606018D01*
X190151924Y-118652039D01*
X190269871Y-118675500D01*
X190269872Y-118675500D01*
X190390128Y-118675500D01*
X190390129Y-118675500D01*
X190508076Y-118652039D01*
X190619180Y-118606018D01*
X190719171Y-118539206D01*
X190804206Y-118454171D01*
X190871018Y-118354180D01*
X190917039Y-118243076D01*
X190940500Y-118125129D01*
X190940500Y-118004871D01*
X190917039Y-117886924D01*
X190871018Y-117775820D01*
X190804206Y-117675829D01*
X190719171Y-117590794D01*
X190619180Y-117523982D01*
X190619181Y-117523982D01*
X190619179Y-117523981D01*
X190508076Y-117477961D01*
X190508069Y-117477959D01*
X190419215Y-117460285D01*
X190390129Y-117454500D01*
X190269871Y-117454500D01*
X190246538Y-117459141D01*
X190151930Y-117477959D01*
X190151923Y-117477961D01*
X190040820Y-117523981D01*
X189940832Y-117590791D01*
X189855791Y-117675832D01*
X189788981Y-117775820D01*
X189742961Y-117886923D01*
X189742959Y-117886930D01*
X189719500Y-118004871D01*
X162171264Y-118004871D01*
X158207081Y-114040688D01*
X181449500Y-114040688D01*
X181449500Y-114159311D01*
X181480199Y-114273882D01*
X181480201Y-114273887D01*
X181539508Y-114376609D01*
X181539509Y-114376610D01*
X181539511Y-114376613D01*
X181623387Y-114460489D01*
X181726114Y-114519799D01*
X181726115Y-114519799D01*
X181726117Y-114519800D01*
X181783402Y-114535149D01*
X181840688Y-114550499D01*
X181840689Y-114550500D01*
X181840691Y-114550500D01*
X181959311Y-114550500D01*
X181959311Y-114550499D01*
X182073886Y-114519799D01*
X182176613Y-114460489D01*
X182260489Y-114376613D01*
X182319799Y-114273886D01*
X182350499Y-114159311D01*
X182350500Y-114159311D01*
X182350500Y-114040689D01*
X182350499Y-114040688D01*
X182319800Y-113926117D01*
X182319798Y-113926112D01*
X182260491Y-113823390D01*
X182260490Y-113823389D01*
X182260489Y-113823387D01*
X182176613Y-113739511D01*
X182176610Y-113739509D01*
X182176609Y-113739508D01*
X182073887Y-113680201D01*
X182073882Y-113680199D01*
X181959311Y-113649500D01*
X181959309Y-113649500D01*
X181840691Y-113649500D01*
X181840689Y-113649500D01*
X181726117Y-113680199D01*
X181726112Y-113680201D01*
X181623390Y-113739508D01*
X181539508Y-113823390D01*
X181480201Y-113926112D01*
X181480199Y-113926117D01*
X181449500Y-114040688D01*
X158207081Y-114040688D01*
X156922174Y-112755781D01*
X156900500Y-112703455D01*
X156900500Y-111127140D01*
X156910414Y-111090140D01*
X156919799Y-111073886D01*
X156950499Y-110959311D01*
X156950500Y-110959311D01*
X156950500Y-110840689D01*
X156950499Y-110840688D01*
X156919800Y-110726117D01*
X156919796Y-110726108D01*
X156910414Y-110709857D01*
X156900500Y-110672858D01*
X156900500Y-109527140D01*
X156904690Y-109502592D01*
X156906971Y-109496102D01*
X156919799Y-109473886D01*
X156928694Y-109440688D01*
X159749500Y-109440688D01*
X159749500Y-109559311D01*
X159780199Y-109673882D01*
X159780201Y-109673887D01*
X159839508Y-109776609D01*
X159839509Y-109776610D01*
X159839511Y-109776613D01*
X159923387Y-109860489D01*
X159923389Y-109860490D01*
X159923390Y-109860491D01*
X160009992Y-109910491D01*
X160026114Y-109919799D01*
X160026115Y-109919799D01*
X160026117Y-109919800D01*
X160058668Y-109928522D01*
X160140688Y-109950499D01*
X160140689Y-109950500D01*
X160140691Y-109950500D01*
X160259311Y-109950500D01*
X160259311Y-109950499D01*
X160373886Y-109919799D01*
X160476613Y-109860489D01*
X160560489Y-109776613D01*
X160619799Y-109673886D01*
X160650499Y-109559311D01*
X160650500Y-109559311D01*
X160650500Y-109440689D01*
X160650499Y-109440688D01*
X160619800Y-109326117D01*
X160619798Y-109326112D01*
X160560491Y-109223390D01*
X160560490Y-109223389D01*
X160560489Y-109223387D01*
X160476613Y-109139511D01*
X160476610Y-109139509D01*
X160476609Y-109139508D01*
X160373887Y-109080201D01*
X160373882Y-109080199D01*
X160259311Y-109049500D01*
X160259309Y-109049500D01*
X160140691Y-109049500D01*
X160140689Y-109049500D01*
X160026117Y-109080199D01*
X160026112Y-109080201D01*
X159923390Y-109139508D01*
X159839508Y-109223390D01*
X159780201Y-109326112D01*
X159780199Y-109326117D01*
X159749500Y-109440688D01*
X156928694Y-109440688D01*
X156950500Y-109359309D01*
X156950500Y-109240691D01*
X156950500Y-109240689D01*
X156950499Y-109240688D01*
X156919800Y-109126117D01*
X156919798Y-109126112D01*
X156860491Y-109023390D01*
X156860490Y-109023389D01*
X156860489Y-109023387D01*
X156776613Y-108939511D01*
X156776610Y-108939509D01*
X156776609Y-108939508D01*
X156673887Y-108880201D01*
X156673882Y-108880199D01*
X156559311Y-108849500D01*
X156559309Y-108849500D01*
X156440691Y-108849500D01*
X156440689Y-108849500D01*
X156326117Y-108880199D01*
X156326112Y-108880201D01*
X156223390Y-108939508D01*
X156139508Y-109023390D01*
X156080201Y-109126112D01*
X156080199Y-109126117D01*
X156049500Y-109240688D01*
X156049500Y-109359311D01*
X156080199Y-109473882D01*
X156080200Y-109473884D01*
X156080201Y-109473886D01*
X156089585Y-109490140D01*
X156099500Y-109527140D01*
X156099500Y-110672858D01*
X156089586Y-110709857D01*
X156080203Y-110726108D01*
X156080199Y-110726117D01*
X156049500Y-110840688D01*
X156049500Y-110959311D01*
X156080199Y-111073882D01*
X156080200Y-111073884D01*
X156080201Y-111073886D01*
X156089585Y-111090140D01*
X156099500Y-111127140D01*
X156099500Y-112847273D01*
X156099500Y-112952727D01*
X156126793Y-113054588D01*
X156126795Y-113054592D01*
X156179517Y-113145909D01*
X156179518Y-113145910D01*
X156179520Y-113145913D01*
X167239076Y-124205468D01*
X178276931Y-135243323D01*
X178276936Y-135243329D01*
X178279520Y-135245913D01*
X178354087Y-135320480D01*
X178445413Y-135373207D01*
X178445414Y-135373207D01*
X178445416Y-135373208D01*
X178496343Y-135386854D01*
X178547270Y-135400500D01*
X178547271Y-135400501D01*
X178547273Y-135400501D01*
X178657257Y-135400501D01*
X178657273Y-135400500D01*
X186290044Y-135400500D01*
X186342370Y-135422174D01*
X186361523Y-135455348D01*
X186386287Y-135547774D01*
X186386291Y-135547784D01*
X186471591Y-135753717D01*
X186471594Y-135753725D01*
X186583049Y-135946770D01*
X186583053Y-135946776D01*
X186718747Y-136123618D01*
X186876381Y-136281252D01*
X186987860Y-136366792D01*
X187016179Y-136415841D01*
X187001520Y-136470548D01*
X186952471Y-136498867D01*
X186942812Y-136499500D01*
X111002236Y-136499500D01*
X110997768Y-136499365D01*
X110703188Y-136481546D01*
X110694317Y-136480469D01*
X110406228Y-136427675D01*
X110397552Y-136425536D01*
X110397436Y-136425500D01*
X110117946Y-136338407D01*
X110109590Y-136335239D01*
X109842502Y-136215032D01*
X109834590Y-136210879D01*
X109583953Y-136059363D01*
X109576599Y-136054287D01*
X109346048Y-135873663D01*
X109339359Y-135867737D01*
X109132262Y-135660640D01*
X109126336Y-135653951D01*
X108945712Y-135423400D01*
X108940636Y-135416046D01*
X108789120Y-135165409D01*
X108784967Y-135157497D01*
X108764245Y-135111455D01*
X108664757Y-134890401D01*
X108661595Y-134882062D01*
X108574460Y-134602435D01*
X108572327Y-134593784D01*
X108519528Y-134305673D01*
X108518454Y-134296821D01*
X108500635Y-134002231D01*
X108500500Y-133997763D01*
X108500500Y-123640688D01*
X119249500Y-123640688D01*
X119249500Y-123759311D01*
X119280200Y-123873885D01*
X119302783Y-123913001D01*
X119310175Y-123969154D01*
X119302783Y-123986999D01*
X119280200Y-124026114D01*
X119249500Y-124140688D01*
X119249500Y-124259311D01*
X119280199Y-124373882D01*
X119280201Y-124373887D01*
X119339508Y-124476609D01*
X119339509Y-124476610D01*
X119339511Y-124476613D01*
X119423387Y-124560489D01*
X119423389Y-124560490D01*
X119423390Y-124560491D01*
X119492173Y-124600203D01*
X119526114Y-124619799D01*
X119526115Y-124619799D01*
X119526117Y-124619800D01*
X119583402Y-124635149D01*
X119640688Y-124650499D01*
X119640689Y-124650500D01*
X119640691Y-124650500D01*
X119759311Y-124650500D01*
X119759311Y-124650499D01*
X119873886Y-124619799D01*
X119976613Y-124560489D01*
X120060489Y-124476613D01*
X120119799Y-124373886D01*
X120150499Y-124259311D01*
X120150500Y-124259311D01*
X120150500Y-124140689D01*
X120150499Y-124140688D01*
X120119800Y-124026117D01*
X120119797Y-124026109D01*
X120097217Y-123987001D01*
X120089823Y-123930848D01*
X120097217Y-123912999D01*
X120119797Y-123873890D01*
X120119800Y-123873882D01*
X120150499Y-123759311D01*
X120150500Y-123759311D01*
X120150500Y-123640689D01*
X120150499Y-123640688D01*
X120119800Y-123526117D01*
X120119798Y-123526112D01*
X120060491Y-123423390D01*
X120060490Y-123423389D01*
X120060489Y-123423387D01*
X119976613Y-123339511D01*
X119976610Y-123339509D01*
X119976609Y-123339508D01*
X119873887Y-123280201D01*
X119873882Y-123280199D01*
X119759311Y-123249500D01*
X119759309Y-123249500D01*
X119640691Y-123249500D01*
X119640689Y-123249500D01*
X119526117Y-123280199D01*
X119526112Y-123280201D01*
X119423390Y-123339508D01*
X119339508Y-123423390D01*
X119280201Y-123526112D01*
X119280199Y-123526117D01*
X119249500Y-123640688D01*
X108500500Y-123640688D01*
X108500500Y-120940688D01*
X120349500Y-120940688D01*
X120349500Y-121059311D01*
X120380199Y-121173882D01*
X120380201Y-121173887D01*
X120439508Y-121276609D01*
X120439509Y-121276610D01*
X120439511Y-121276613D01*
X120523387Y-121360489D01*
X120626114Y-121419799D01*
X120626115Y-121419799D01*
X120626117Y-121419800D01*
X120649693Y-121426117D01*
X120740688Y-121450499D01*
X120740689Y-121450500D01*
X120740691Y-121450500D01*
X120859311Y-121450500D01*
X120859311Y-121450499D01*
X120973886Y-121419799D01*
X121076613Y-121360489D01*
X121160489Y-121276613D01*
X121219799Y-121173886D01*
X121250499Y-121059311D01*
X121250500Y-121059311D01*
X121250500Y-120940689D01*
X121250499Y-120940688D01*
X121227538Y-120854994D01*
X121223705Y-120840688D01*
X124649500Y-120840688D01*
X124649500Y-120959311D01*
X124680199Y-121073882D01*
X124680201Y-121073887D01*
X124739508Y-121176609D01*
X124739509Y-121176610D01*
X124739511Y-121176613D01*
X124823387Y-121260489D01*
X124823389Y-121260490D01*
X124823390Y-121260491D01*
X124851307Y-121276609D01*
X124926114Y-121319799D01*
X124926115Y-121319799D01*
X124926117Y-121319800D01*
X124983402Y-121335149D01*
X125040688Y-121350499D01*
X125040689Y-121350500D01*
X125040691Y-121350500D01*
X125159311Y-121350500D01*
X125159311Y-121350499D01*
X125273886Y-121319799D01*
X125376613Y-121260489D01*
X125460489Y-121176613D01*
X125519799Y-121073886D01*
X125550499Y-120959311D01*
X125550500Y-120959311D01*
X125550500Y-120840689D01*
X125550499Y-120840688D01*
X125546593Y-120826112D01*
X125519799Y-120726114D01*
X125518225Y-120723387D01*
X125460491Y-120623390D01*
X125460490Y-120623389D01*
X125460489Y-120623387D01*
X125376613Y-120539511D01*
X125376610Y-120539509D01*
X125376609Y-120539508D01*
X125273887Y-120480201D01*
X125273882Y-120480199D01*
X125159311Y-120449500D01*
X125159309Y-120449500D01*
X125040691Y-120449500D01*
X125040689Y-120449500D01*
X124926117Y-120480199D01*
X124926112Y-120480201D01*
X124823390Y-120539508D01*
X124739508Y-120623390D01*
X124680201Y-120726112D01*
X124680199Y-120726117D01*
X124649500Y-120840688D01*
X121223705Y-120840688D01*
X121219800Y-120826117D01*
X121219798Y-120826112D01*
X121160491Y-120723390D01*
X121160490Y-120723389D01*
X121160489Y-120723387D01*
X121076613Y-120639511D01*
X121076610Y-120639509D01*
X121076609Y-120639508D01*
X120973887Y-120580201D01*
X120973882Y-120580199D01*
X120859311Y-120549500D01*
X120859309Y-120549500D01*
X120740691Y-120549500D01*
X120740689Y-120549500D01*
X120626117Y-120580199D01*
X120626112Y-120580201D01*
X120523390Y-120639508D01*
X120439508Y-120723390D01*
X120380201Y-120826112D01*
X120380199Y-120826117D01*
X120349500Y-120940688D01*
X108500500Y-120940688D01*
X108500500Y-119540688D01*
X121749500Y-119540688D01*
X121749500Y-119659311D01*
X121780199Y-119773882D01*
X121780201Y-119773887D01*
X121839508Y-119876609D01*
X121839509Y-119876610D01*
X121839511Y-119876613D01*
X121923387Y-119960489D01*
X122026114Y-120019799D01*
X122026115Y-120019799D01*
X122026117Y-120019800D01*
X122083402Y-120035149D01*
X122140688Y-120050499D01*
X122140689Y-120050500D01*
X122140691Y-120050500D01*
X122259311Y-120050500D01*
X122259311Y-120050499D01*
X122373886Y-120019799D01*
X122476613Y-119960489D01*
X122560489Y-119876613D01*
X122619799Y-119773886D01*
X122650499Y-119659311D01*
X122650500Y-119659311D01*
X122650500Y-119540689D01*
X122650499Y-119540688D01*
X122627538Y-119454994D01*
X122623705Y-119440688D01*
X124649500Y-119440688D01*
X124649500Y-119559311D01*
X124680199Y-119673882D01*
X124680201Y-119673887D01*
X124739508Y-119776609D01*
X124739509Y-119776610D01*
X124739511Y-119776613D01*
X124823387Y-119860489D01*
X124926114Y-119919799D01*
X124926115Y-119919799D01*
X124926117Y-119919800D01*
X124983402Y-119935149D01*
X125040688Y-119950499D01*
X125040689Y-119950500D01*
X125040691Y-119950500D01*
X125159311Y-119950500D01*
X125159311Y-119950499D01*
X125273886Y-119919799D01*
X125376613Y-119860489D01*
X125460489Y-119776613D01*
X125519799Y-119673886D01*
X125550499Y-119559311D01*
X125550500Y-119559311D01*
X125550500Y-119440689D01*
X125550499Y-119440688D01*
X125546593Y-119426112D01*
X125519799Y-119326114D01*
X125518225Y-119323387D01*
X125460491Y-119223390D01*
X125460490Y-119223389D01*
X125460489Y-119223387D01*
X125376613Y-119139511D01*
X125376610Y-119139509D01*
X125376609Y-119139508D01*
X125273887Y-119080201D01*
X125273882Y-119080199D01*
X125159311Y-119049500D01*
X125159309Y-119049500D01*
X125040691Y-119049500D01*
X125040689Y-119049500D01*
X124926117Y-119080199D01*
X124926112Y-119080201D01*
X124823390Y-119139508D01*
X124739508Y-119223390D01*
X124680201Y-119326112D01*
X124680199Y-119326117D01*
X124649500Y-119440688D01*
X122623705Y-119440688D01*
X122619800Y-119426117D01*
X122619798Y-119426112D01*
X122560491Y-119323390D01*
X122560490Y-119323389D01*
X122560489Y-119323387D01*
X122476613Y-119239511D01*
X122476610Y-119239509D01*
X122476609Y-119239508D01*
X122373887Y-119180201D01*
X122373882Y-119180199D01*
X122259311Y-119149500D01*
X122259309Y-119149500D01*
X122140691Y-119149500D01*
X122140689Y-119149500D01*
X122026117Y-119180199D01*
X122026112Y-119180201D01*
X121923390Y-119239508D01*
X121839508Y-119323390D01*
X121780201Y-119426112D01*
X121780199Y-119426117D01*
X121749500Y-119540688D01*
X108500500Y-119540688D01*
X108500500Y-118004871D01*
X119719500Y-118004871D01*
X119719500Y-118125128D01*
X119742959Y-118243069D01*
X119742961Y-118243076D01*
X119788981Y-118354179D01*
X119788982Y-118354180D01*
X119855794Y-118454171D01*
X119940829Y-118539206D01*
X120040820Y-118606018D01*
X120151924Y-118652039D01*
X120269871Y-118675500D01*
X120269872Y-118675500D01*
X120390128Y-118675500D01*
X120390129Y-118675500D01*
X120508076Y-118652039D01*
X120619180Y-118606018D01*
X120719171Y-118539206D01*
X120804206Y-118454171D01*
X120871018Y-118354180D01*
X120897317Y-118290688D01*
X122999500Y-118290688D01*
X122999500Y-118409311D01*
X123030199Y-118523882D01*
X123030201Y-118523887D01*
X123089508Y-118626609D01*
X123089509Y-118626610D01*
X123089511Y-118626613D01*
X123173387Y-118710489D01*
X123276114Y-118769799D01*
X123276115Y-118769799D01*
X123276117Y-118769800D01*
X123333402Y-118785149D01*
X123390688Y-118800499D01*
X123390689Y-118800500D01*
X123390691Y-118800500D01*
X123509311Y-118800500D01*
X123509311Y-118800499D01*
X123623886Y-118769799D01*
X123726613Y-118710489D01*
X123810489Y-118626613D01*
X123869799Y-118523886D01*
X123900499Y-118409311D01*
X123900500Y-118409311D01*
X123900500Y-118290689D01*
X123900499Y-118290688D01*
X123887741Y-118243076D01*
X123869799Y-118176114D01*
X123810489Y-118073387D01*
X123726613Y-117989511D01*
X123726610Y-117989509D01*
X123726609Y-117989508D01*
X123623887Y-117930201D01*
X123623882Y-117930199D01*
X123509311Y-117899500D01*
X123509309Y-117899500D01*
X123390691Y-117899500D01*
X123390689Y-117899500D01*
X123276117Y-117930199D01*
X123276112Y-117930201D01*
X123173390Y-117989508D01*
X123089508Y-118073390D01*
X123030201Y-118176112D01*
X123030199Y-118176117D01*
X122999500Y-118290688D01*
X120897317Y-118290688D01*
X120917039Y-118243076D01*
X120940500Y-118125129D01*
X120940500Y-118004871D01*
X120917039Y-117886924D01*
X120871018Y-117775820D01*
X120804206Y-117675829D01*
X120719171Y-117590794D01*
X120619180Y-117523982D01*
X120619181Y-117523982D01*
X120619179Y-117523981D01*
X120508076Y-117477961D01*
X120508069Y-117477959D01*
X120419215Y-117460285D01*
X120390129Y-117454500D01*
X120269871Y-117454500D01*
X120246538Y-117459141D01*
X120151930Y-117477959D01*
X120151923Y-117477961D01*
X120040820Y-117523981D01*
X119940832Y-117590791D01*
X119855791Y-117675832D01*
X119788981Y-117775820D01*
X119742961Y-117886923D01*
X119742959Y-117886930D01*
X119719500Y-118004871D01*
X108500500Y-118004871D01*
X108500500Y-116040688D01*
X117649500Y-116040688D01*
X117649500Y-116159311D01*
X117680199Y-116273882D01*
X117680201Y-116273887D01*
X117739508Y-116376609D01*
X117739509Y-116376610D01*
X117739511Y-116376613D01*
X117823387Y-116460489D01*
X117926114Y-116519799D01*
X117926115Y-116519799D01*
X117926117Y-116519800D01*
X117983402Y-116535149D01*
X118040688Y-116550499D01*
X118040689Y-116550500D01*
X118040691Y-116550500D01*
X118159311Y-116550500D01*
X118159311Y-116550499D01*
X118273886Y-116519799D01*
X118347690Y-116477188D01*
X125413000Y-116477188D01*
X125413000Y-116595811D01*
X125443699Y-116710382D01*
X125443701Y-116710387D01*
X125503008Y-116813109D01*
X125503009Y-116813110D01*
X125503011Y-116813113D01*
X125586887Y-116896989D01*
X125689614Y-116956299D01*
X125689615Y-116956299D01*
X125689617Y-116956300D01*
X125746902Y-116971649D01*
X125804188Y-116986999D01*
X125804189Y-116987000D01*
X125804191Y-116987000D01*
X125922811Y-116987000D01*
X125922811Y-116986999D01*
X126037386Y-116956299D01*
X126140113Y-116896989D01*
X126223989Y-116813113D01*
X126283299Y-116710386D01*
X126313999Y-116595811D01*
X126314000Y-116595811D01*
X126314000Y-116477189D01*
X126313999Y-116477188D01*
X126283300Y-116362617D01*
X126283298Y-116362612D01*
X126223991Y-116259890D01*
X126223990Y-116259889D01*
X126223989Y-116259887D01*
X126140113Y-116176011D01*
X126140110Y-116176009D01*
X126140109Y-116176008D01*
X126037387Y-116116701D01*
X126037382Y-116116699D01*
X125922811Y-116086000D01*
X125922809Y-116086000D01*
X125804191Y-116086000D01*
X125804189Y-116086000D01*
X125689617Y-116116699D01*
X125689612Y-116116701D01*
X125586890Y-116176008D01*
X125503008Y-116259890D01*
X125443701Y-116362612D01*
X125443699Y-116362617D01*
X125413000Y-116477188D01*
X118347690Y-116477188D01*
X118376613Y-116460489D01*
X118460489Y-116376613D01*
X118519799Y-116273886D01*
X118550499Y-116159311D01*
X118550500Y-116159311D01*
X118550500Y-116040689D01*
X118550499Y-116040688D01*
X118519800Y-115926117D01*
X118519798Y-115926112D01*
X118460491Y-115823390D01*
X118460490Y-115823389D01*
X118460489Y-115823387D01*
X118376613Y-115739511D01*
X118376610Y-115739509D01*
X118376609Y-115739508D01*
X118273887Y-115680201D01*
X118273882Y-115680199D01*
X118159311Y-115649500D01*
X118159309Y-115649500D01*
X118040691Y-115649500D01*
X118040689Y-115649500D01*
X117926117Y-115680199D01*
X117926112Y-115680201D01*
X117823390Y-115739508D01*
X117739508Y-115823390D01*
X117680201Y-115926112D01*
X117680199Y-115926117D01*
X117649500Y-116040688D01*
X108500500Y-116040688D01*
X108500500Y-115340688D01*
X127249500Y-115340688D01*
X127249500Y-115459311D01*
X127280199Y-115573882D01*
X127280201Y-115573887D01*
X127339508Y-115676609D01*
X127339509Y-115676610D01*
X127339511Y-115676613D01*
X127423387Y-115760489D01*
X127526114Y-115819799D01*
X127526115Y-115819799D01*
X127526117Y-115819800D01*
X127583402Y-115835149D01*
X127640688Y-115850499D01*
X127640689Y-115850500D01*
X127640691Y-115850500D01*
X127759311Y-115850500D01*
X127759311Y-115850499D01*
X127873886Y-115819799D01*
X127976613Y-115760489D01*
X128060489Y-115676613D01*
X128119799Y-115573886D01*
X128150499Y-115459311D01*
X128150500Y-115459311D01*
X128150500Y-115340689D01*
X128150499Y-115340688D01*
X128119800Y-115226117D01*
X128119798Y-115226112D01*
X128060491Y-115123390D01*
X128060490Y-115123389D01*
X128060489Y-115123387D01*
X127976613Y-115039511D01*
X127976610Y-115039509D01*
X127976609Y-115039508D01*
X127873887Y-114980201D01*
X127873882Y-114980199D01*
X127759311Y-114949500D01*
X127759309Y-114949500D01*
X127640691Y-114949500D01*
X127640689Y-114949500D01*
X127526117Y-114980199D01*
X127526112Y-114980201D01*
X127423390Y-115039508D01*
X127339508Y-115123390D01*
X127280201Y-115226112D01*
X127280199Y-115226117D01*
X127249500Y-115340688D01*
X108500500Y-115340688D01*
X108500500Y-106940688D01*
X152549500Y-106940688D01*
X152549500Y-107059311D01*
X152580199Y-107173882D01*
X152580201Y-107173887D01*
X152639508Y-107276609D01*
X152639509Y-107276610D01*
X152639511Y-107276613D01*
X152723387Y-107360489D01*
X152723389Y-107360490D01*
X152723390Y-107360491D01*
X152809992Y-107410491D01*
X152826114Y-107419799D01*
X152826115Y-107419799D01*
X152826117Y-107419800D01*
X152858666Y-107428522D01*
X152903599Y-107463001D01*
X152910991Y-107519153D01*
X152876512Y-107564086D01*
X152858666Y-107571478D01*
X152826117Y-107580199D01*
X152826112Y-107580201D01*
X152723390Y-107639508D01*
X152639508Y-107723390D01*
X152580201Y-107826112D01*
X152580199Y-107826117D01*
X152549500Y-107940688D01*
X152549500Y-108059311D01*
X152580199Y-108173882D01*
X152580201Y-108173887D01*
X152639508Y-108276609D01*
X152639509Y-108276610D01*
X152639511Y-108276613D01*
X152723387Y-108360489D01*
X152723389Y-108360490D01*
X152723390Y-108360491D01*
X152809992Y-108410491D01*
X152826114Y-108419799D01*
X152826115Y-108419799D01*
X152826117Y-108419800D01*
X152858666Y-108428522D01*
X152903599Y-108463001D01*
X152910991Y-108519153D01*
X152876512Y-108564086D01*
X152858666Y-108571478D01*
X152826117Y-108580199D01*
X152826112Y-108580201D01*
X152723390Y-108639508D01*
X152639508Y-108723390D01*
X152580201Y-108826112D01*
X152580199Y-108826117D01*
X152549500Y-108940688D01*
X152549500Y-109059311D01*
X152580199Y-109173882D01*
X152580201Y-109173887D01*
X152639508Y-109276609D01*
X152639509Y-109276610D01*
X152639511Y-109276613D01*
X152723387Y-109360489D01*
X152723389Y-109360490D01*
X152723390Y-109360491D01*
X152809992Y-109410491D01*
X152826114Y-109419799D01*
X152826115Y-109419799D01*
X152826117Y-109419800D01*
X152858666Y-109428522D01*
X152903599Y-109463001D01*
X152910991Y-109519153D01*
X152876512Y-109564086D01*
X152858666Y-109571478D01*
X152826117Y-109580199D01*
X152826112Y-109580201D01*
X152723390Y-109639508D01*
X152639508Y-109723390D01*
X152580201Y-109826112D01*
X152580199Y-109826117D01*
X152549500Y-109940688D01*
X152549500Y-110059311D01*
X152580199Y-110173882D01*
X152580201Y-110173887D01*
X152639508Y-110276609D01*
X152639509Y-110276610D01*
X152639511Y-110276613D01*
X152723387Y-110360489D01*
X152723389Y-110360490D01*
X152723390Y-110360491D01*
X152809992Y-110410491D01*
X152826114Y-110419799D01*
X152894653Y-110438164D01*
X152939586Y-110472642D01*
X152949500Y-110509642D01*
X152949500Y-110559311D01*
X152980199Y-110673882D01*
X152980201Y-110673887D01*
X153039508Y-110776609D01*
X153039509Y-110776610D01*
X153039511Y-110776613D01*
X153123387Y-110860489D01*
X153123389Y-110860490D01*
X153123390Y-110860491D01*
X153209992Y-110910491D01*
X153226114Y-110919799D01*
X153226115Y-110919799D01*
X153226117Y-110919800D01*
X153283402Y-110935149D01*
X153340688Y-110950499D01*
X153340689Y-110950500D01*
X153340691Y-110950500D01*
X153459311Y-110950500D01*
X153459311Y-110950499D01*
X153573886Y-110919799D01*
X153676613Y-110860489D01*
X153760489Y-110776613D01*
X153819799Y-110673886D01*
X153850499Y-110559311D01*
X153850500Y-110559311D01*
X153850500Y-110440689D01*
X153850499Y-110440688D01*
X153849822Y-110438163D01*
X153819799Y-110326114D01*
X153819798Y-110326112D01*
X153760491Y-110223390D01*
X153760490Y-110223389D01*
X153760489Y-110223387D01*
X153676613Y-110139511D01*
X153676610Y-110139509D01*
X153676609Y-110139508D01*
X153573887Y-110080201D01*
X153573882Y-110080199D01*
X153541333Y-110071478D01*
X153496400Y-110037000D01*
X153489008Y-109980847D01*
X153523486Y-109935914D01*
X153541333Y-109928522D01*
X153573882Y-109919800D01*
X153573881Y-109919800D01*
X153573886Y-109919799D01*
X153676613Y-109860489D01*
X153760489Y-109776613D01*
X153819799Y-109673886D01*
X153850499Y-109559311D01*
X153850500Y-109559311D01*
X153850500Y-109440689D01*
X153850499Y-109440688D01*
X153819800Y-109326117D01*
X153819798Y-109326112D01*
X153760491Y-109223390D01*
X153760490Y-109223389D01*
X153760489Y-109223387D01*
X153676613Y-109139511D01*
X153676610Y-109139509D01*
X153676609Y-109139508D01*
X153573887Y-109080201D01*
X153573882Y-109080199D01*
X153541333Y-109071478D01*
X153496400Y-109037000D01*
X153489008Y-108980847D01*
X153523486Y-108935914D01*
X153541333Y-108928522D01*
X153573882Y-108919800D01*
X153573881Y-108919800D01*
X153573886Y-108919799D01*
X153676613Y-108860489D01*
X153760489Y-108776613D01*
X153819799Y-108673886D01*
X153850499Y-108559311D01*
X153850500Y-108559311D01*
X153850500Y-108440689D01*
X153850499Y-108440688D01*
X153819800Y-108326117D01*
X153819798Y-108326112D01*
X153760491Y-108223390D01*
X153760490Y-108223389D01*
X153760489Y-108223387D01*
X153676613Y-108139511D01*
X153676610Y-108139509D01*
X153676609Y-108139508D01*
X153573887Y-108080201D01*
X153573882Y-108080199D01*
X153541333Y-108071478D01*
X153496400Y-108037000D01*
X153489008Y-107980847D01*
X153523486Y-107935914D01*
X153541333Y-107928522D01*
X153573882Y-107919800D01*
X153573881Y-107919800D01*
X153573886Y-107919799D01*
X153676613Y-107860489D01*
X153760489Y-107776613D01*
X153819799Y-107673886D01*
X153850499Y-107559311D01*
X153850500Y-107559311D01*
X153850500Y-107490688D01*
X162149500Y-107490688D01*
X162149500Y-107609311D01*
X162180199Y-107723882D01*
X162180201Y-107723887D01*
X162239508Y-107826609D01*
X162239509Y-107826610D01*
X162239511Y-107826613D01*
X162323387Y-107910489D01*
X162323389Y-107910490D01*
X162323390Y-107910491D01*
X162375698Y-107940691D01*
X162426114Y-107969799D01*
X162426115Y-107969799D01*
X162426117Y-107969800D01*
X162458666Y-107978522D01*
X162503599Y-108013001D01*
X162510991Y-108069153D01*
X162476512Y-108114086D01*
X162458666Y-108121478D01*
X162426117Y-108130199D01*
X162426112Y-108130201D01*
X162323390Y-108189508D01*
X162239508Y-108273390D01*
X162180201Y-108376112D01*
X162180199Y-108376117D01*
X162149500Y-108490688D01*
X162149500Y-108609311D01*
X162180199Y-108723882D01*
X162180201Y-108723887D01*
X162239508Y-108826609D01*
X162239509Y-108826610D01*
X162239511Y-108826613D01*
X162323387Y-108910489D01*
X162323389Y-108910490D01*
X162323390Y-108910491D01*
X162375698Y-108940691D01*
X162426114Y-108969799D01*
X162426115Y-108969799D01*
X162426117Y-108969800D01*
X162458666Y-108978522D01*
X162503599Y-109013001D01*
X162510991Y-109069153D01*
X162476512Y-109114086D01*
X162458666Y-109121478D01*
X162426117Y-109130199D01*
X162426112Y-109130201D01*
X162323390Y-109189508D01*
X162239508Y-109273390D01*
X162180201Y-109376112D01*
X162180199Y-109376117D01*
X162149500Y-109490688D01*
X162149500Y-109609311D01*
X162180199Y-109723882D01*
X162180201Y-109723887D01*
X162239508Y-109826609D01*
X162239509Y-109826610D01*
X162239511Y-109826613D01*
X162323387Y-109910489D01*
X162323389Y-109910490D01*
X162323390Y-109910491D01*
X162392687Y-109950500D01*
X162426114Y-109969799D01*
X162426115Y-109969799D01*
X162426117Y-109969800D01*
X162458666Y-109978522D01*
X162503599Y-110013001D01*
X162510991Y-110069153D01*
X162476512Y-110114086D01*
X162458666Y-110121478D01*
X162426117Y-110130199D01*
X162426112Y-110130201D01*
X162323390Y-110189508D01*
X162239508Y-110273390D01*
X162180201Y-110376112D01*
X162180199Y-110376117D01*
X162149500Y-110490688D01*
X162149500Y-110609311D01*
X162180199Y-110723882D01*
X162180201Y-110723887D01*
X162239508Y-110826609D01*
X162239509Y-110826610D01*
X162239511Y-110826613D01*
X162323387Y-110910489D01*
X162323389Y-110910490D01*
X162323390Y-110910491D01*
X162392687Y-110950500D01*
X162426114Y-110969799D01*
X162426115Y-110969799D01*
X162426117Y-110969800D01*
X162483402Y-110985149D01*
X162540688Y-111000499D01*
X162540689Y-111000500D01*
X162540691Y-111000500D01*
X162659311Y-111000500D01*
X162659311Y-111000499D01*
X162773886Y-110969799D01*
X162876613Y-110910489D01*
X162960489Y-110826613D01*
X163019799Y-110723886D01*
X163050499Y-110609311D01*
X163050500Y-110609311D01*
X163050500Y-110559642D01*
X163072174Y-110507316D01*
X163105345Y-110488164D01*
X163173886Y-110469799D01*
X163276613Y-110410489D01*
X163360489Y-110326613D01*
X163419799Y-110223886D01*
X163450499Y-110109311D01*
X163450500Y-110109311D01*
X163450500Y-109990689D01*
X163450499Y-109990688D01*
X163439730Y-109950499D01*
X163419799Y-109876114D01*
X163410778Y-109860489D01*
X163360491Y-109773390D01*
X163360490Y-109773389D01*
X163360489Y-109773387D01*
X163276613Y-109689511D01*
X163276610Y-109689509D01*
X163276609Y-109689508D01*
X163173887Y-109630201D01*
X163173882Y-109630199D01*
X163141333Y-109621478D01*
X163096400Y-109587000D01*
X163089008Y-109530847D01*
X163123486Y-109485914D01*
X163141333Y-109478522D01*
X163173882Y-109469800D01*
X163173881Y-109469800D01*
X163173886Y-109469799D01*
X163276613Y-109410489D01*
X163360489Y-109326613D01*
X163419799Y-109223886D01*
X163450499Y-109109311D01*
X163450500Y-109109311D01*
X163450500Y-108990689D01*
X163450499Y-108990688D01*
X163419800Y-108876117D01*
X163419798Y-108876112D01*
X163360491Y-108773390D01*
X163360490Y-108773389D01*
X163360489Y-108773387D01*
X163276613Y-108689511D01*
X163276610Y-108689509D01*
X163276609Y-108689508D01*
X163173887Y-108630201D01*
X163173882Y-108630199D01*
X163141333Y-108621478D01*
X163096400Y-108587000D01*
X163089008Y-108530847D01*
X163123486Y-108485914D01*
X163141333Y-108478522D01*
X163173882Y-108469800D01*
X163173881Y-108469800D01*
X163173886Y-108469799D01*
X163276613Y-108410489D01*
X163360489Y-108326613D01*
X163419799Y-108223886D01*
X163450499Y-108109311D01*
X163450500Y-108109311D01*
X163450500Y-107990689D01*
X163450499Y-107990688D01*
X163419800Y-107876117D01*
X163419798Y-107876112D01*
X163360491Y-107773390D01*
X163360490Y-107773389D01*
X163360489Y-107773387D01*
X163276613Y-107689511D01*
X163276610Y-107689509D01*
X163276609Y-107689508D01*
X163173887Y-107630201D01*
X163173882Y-107630199D01*
X163141333Y-107621478D01*
X163096400Y-107587000D01*
X163089008Y-107530847D01*
X163123486Y-107485914D01*
X163141333Y-107478522D01*
X163173882Y-107469800D01*
X163173881Y-107469800D01*
X163173886Y-107469799D01*
X163276613Y-107410489D01*
X163360489Y-107326613D01*
X163419799Y-107223886D01*
X163450499Y-107109311D01*
X163450500Y-107109311D01*
X163450500Y-106990689D01*
X163450499Y-106990688D01*
X163450410Y-106990357D01*
X163419799Y-106876114D01*
X163360489Y-106773387D01*
X163276613Y-106689511D01*
X163276610Y-106689509D01*
X163276609Y-106689508D01*
X163173887Y-106630201D01*
X163173882Y-106630199D01*
X163059311Y-106599500D01*
X163059309Y-106599500D01*
X162940691Y-106599500D01*
X162940689Y-106599500D01*
X162826117Y-106630199D01*
X162826112Y-106630201D01*
X162723390Y-106689508D01*
X162639508Y-106773390D01*
X162580201Y-106876112D01*
X162580199Y-106876117D01*
X162549500Y-106990688D01*
X162549500Y-107040357D01*
X162527826Y-107092683D01*
X162494653Y-107111835D01*
X162426117Y-107130199D01*
X162426112Y-107130201D01*
X162323390Y-107189508D01*
X162239508Y-107273390D01*
X162180201Y-107376112D01*
X162180199Y-107376117D01*
X162149500Y-107490688D01*
X153850500Y-107490688D01*
X153850500Y-107440689D01*
X153850499Y-107440688D01*
X153819800Y-107326117D01*
X153819798Y-107326112D01*
X153760491Y-107223390D01*
X153760490Y-107223389D01*
X153760489Y-107223387D01*
X153676613Y-107139511D01*
X153676610Y-107139509D01*
X153676609Y-107139508D01*
X153573887Y-107080201D01*
X153573882Y-107080199D01*
X153505347Y-107061835D01*
X153460414Y-107027356D01*
X153450500Y-106990357D01*
X153450500Y-106940689D01*
X153450499Y-106940688D01*
X153419800Y-106826117D01*
X153419798Y-106826112D01*
X153360491Y-106723390D01*
X153360490Y-106723389D01*
X153360489Y-106723387D01*
X153276613Y-106639511D01*
X153276610Y-106639509D01*
X153276609Y-106639508D01*
X153173887Y-106580201D01*
X153173882Y-106580199D01*
X153059311Y-106549500D01*
X153059309Y-106549500D01*
X152940691Y-106549500D01*
X152940689Y-106549500D01*
X152826117Y-106580199D01*
X152826112Y-106580201D01*
X152723390Y-106639508D01*
X152639508Y-106723390D01*
X152580201Y-106826112D01*
X152580199Y-106826117D01*
X152549500Y-106940688D01*
X108500500Y-106940688D01*
X108500500Y-98440688D01*
X152549500Y-98440688D01*
X152549500Y-98559311D01*
X152580199Y-98673882D01*
X152580201Y-98673887D01*
X152639508Y-98776609D01*
X152639509Y-98776610D01*
X152639511Y-98776613D01*
X152723387Y-98860489D01*
X152826114Y-98919799D01*
X152826115Y-98919799D01*
X152826117Y-98919800D01*
X152858666Y-98928522D01*
X152903599Y-98963001D01*
X152910991Y-99019153D01*
X152876512Y-99064086D01*
X152858666Y-99071478D01*
X152826117Y-99080199D01*
X152826112Y-99080201D01*
X152723390Y-99139508D01*
X152639508Y-99223390D01*
X152580201Y-99326112D01*
X152580199Y-99326117D01*
X152549500Y-99440688D01*
X152549500Y-99559311D01*
X152580199Y-99673882D01*
X152580201Y-99673887D01*
X152639508Y-99776609D01*
X152639509Y-99776610D01*
X152639511Y-99776613D01*
X152723387Y-99860489D01*
X152826114Y-99919799D01*
X152826115Y-99919799D01*
X152826117Y-99919800D01*
X152858666Y-99928522D01*
X152903599Y-99963001D01*
X152910991Y-100019153D01*
X152876512Y-100064086D01*
X152858666Y-100071478D01*
X152826117Y-100080199D01*
X152826112Y-100080201D01*
X152723390Y-100139508D01*
X152639508Y-100223390D01*
X152580201Y-100326112D01*
X152580199Y-100326117D01*
X152549500Y-100440688D01*
X152549500Y-100559311D01*
X152580199Y-100673882D01*
X152580201Y-100673887D01*
X152639508Y-100776609D01*
X152639509Y-100776610D01*
X152639511Y-100776613D01*
X152723387Y-100860489D01*
X152826114Y-100919799D01*
X152826115Y-100919799D01*
X152826117Y-100919800D01*
X152858666Y-100928522D01*
X152903599Y-100963001D01*
X152910991Y-101019153D01*
X152876512Y-101064086D01*
X152858666Y-101071478D01*
X152826117Y-101080199D01*
X152826112Y-101080201D01*
X152723390Y-101139508D01*
X152639508Y-101223390D01*
X152580201Y-101326112D01*
X152580199Y-101326117D01*
X152549500Y-101440688D01*
X152549500Y-101559311D01*
X152580199Y-101673882D01*
X152580201Y-101673887D01*
X152639508Y-101776609D01*
X152639509Y-101776610D01*
X152639511Y-101776613D01*
X152723387Y-101860489D01*
X152826114Y-101919799D01*
X152826115Y-101919799D01*
X152826117Y-101919800D01*
X152858666Y-101928522D01*
X152903599Y-101963001D01*
X152910991Y-102019153D01*
X152876512Y-102064086D01*
X152858666Y-102071478D01*
X152826117Y-102080199D01*
X152826112Y-102080201D01*
X152723390Y-102139508D01*
X152639508Y-102223390D01*
X152580201Y-102326112D01*
X152580199Y-102326117D01*
X152549500Y-102440688D01*
X152549500Y-102559311D01*
X152580199Y-102673882D01*
X152580201Y-102673887D01*
X152639508Y-102776609D01*
X152639509Y-102776610D01*
X152639511Y-102776613D01*
X152723387Y-102860489D01*
X152723389Y-102860490D01*
X152723390Y-102860491D01*
X152809992Y-102910491D01*
X152826114Y-102919799D01*
X152826115Y-102919799D01*
X152826117Y-102919800D01*
X152858666Y-102928522D01*
X152903599Y-102963001D01*
X152910991Y-103019153D01*
X152876512Y-103064086D01*
X152858666Y-103071478D01*
X152826117Y-103080199D01*
X152826112Y-103080201D01*
X152723390Y-103139508D01*
X152639508Y-103223390D01*
X152580201Y-103326112D01*
X152580199Y-103326117D01*
X152549500Y-103440688D01*
X152549500Y-103559311D01*
X152580199Y-103673882D01*
X152580201Y-103673887D01*
X152639508Y-103776609D01*
X152639509Y-103776610D01*
X152639511Y-103776613D01*
X152723387Y-103860489D01*
X152723389Y-103860490D01*
X152723390Y-103860491D01*
X152809992Y-103910491D01*
X152826114Y-103919799D01*
X152826115Y-103919799D01*
X152826117Y-103919800D01*
X152858666Y-103928522D01*
X152903599Y-103963001D01*
X152910991Y-104019153D01*
X152876512Y-104064086D01*
X152858666Y-104071478D01*
X152826117Y-104080199D01*
X152826112Y-104080201D01*
X152723390Y-104139508D01*
X152639508Y-104223390D01*
X152580201Y-104326112D01*
X152580199Y-104326117D01*
X152549500Y-104440688D01*
X152549500Y-104559311D01*
X152580199Y-104673882D01*
X152580201Y-104673887D01*
X152639508Y-104776609D01*
X152639509Y-104776610D01*
X152639511Y-104776613D01*
X152723387Y-104860489D01*
X152723389Y-104860490D01*
X152723390Y-104860491D01*
X152809992Y-104910491D01*
X152826114Y-104919799D01*
X152826115Y-104919799D01*
X152826117Y-104919800D01*
X152858666Y-104928522D01*
X152903599Y-104963001D01*
X152910991Y-105019153D01*
X152876512Y-105064086D01*
X152858666Y-105071478D01*
X152826117Y-105080199D01*
X152826112Y-105080201D01*
X152723390Y-105139508D01*
X152639508Y-105223390D01*
X152580201Y-105326112D01*
X152580199Y-105326117D01*
X152549500Y-105440688D01*
X152549500Y-105559311D01*
X152580199Y-105673882D01*
X152580201Y-105673887D01*
X152639508Y-105776609D01*
X152639509Y-105776610D01*
X152639511Y-105776613D01*
X152723387Y-105860489D01*
X152723389Y-105860490D01*
X152723390Y-105860491D01*
X152809992Y-105910491D01*
X152826114Y-105919799D01*
X152894653Y-105938164D01*
X152939586Y-105972642D01*
X152949500Y-106009642D01*
X152949500Y-106059311D01*
X152980199Y-106173882D01*
X152980201Y-106173887D01*
X153039508Y-106276609D01*
X153039509Y-106276610D01*
X153039511Y-106276613D01*
X153123387Y-106360489D01*
X153123389Y-106360490D01*
X153123390Y-106360491D01*
X153209992Y-106410491D01*
X153226114Y-106419799D01*
X153226115Y-106419799D01*
X153226117Y-106419800D01*
X153283402Y-106435149D01*
X153340688Y-106450499D01*
X153340689Y-106450500D01*
X153340691Y-106450500D01*
X153459311Y-106450500D01*
X153459311Y-106450499D01*
X153573886Y-106419799D01*
X153676613Y-106360489D01*
X153760489Y-106276613D01*
X153819799Y-106173886D01*
X153850499Y-106059311D01*
X153850500Y-106059311D01*
X153850500Y-105940689D01*
X153850499Y-105940688D01*
X153849822Y-105938163D01*
X153819799Y-105826114D01*
X153819798Y-105826112D01*
X153760491Y-105723390D01*
X153760490Y-105723389D01*
X153760489Y-105723387D01*
X153676613Y-105639511D01*
X153676610Y-105639509D01*
X153676609Y-105639508D01*
X153573887Y-105580201D01*
X153573882Y-105580199D01*
X153541333Y-105571478D01*
X153496400Y-105537000D01*
X153489008Y-105480847D01*
X153523486Y-105435914D01*
X153541333Y-105428522D01*
X153573882Y-105419800D01*
X153573881Y-105419800D01*
X153573886Y-105419799D01*
X153676613Y-105360489D01*
X153760489Y-105276613D01*
X153819799Y-105173886D01*
X153850499Y-105059311D01*
X153850500Y-105059311D01*
X153850500Y-104940689D01*
X153850499Y-104940688D01*
X153819800Y-104826117D01*
X153819798Y-104826112D01*
X153760491Y-104723390D01*
X153760490Y-104723389D01*
X153760489Y-104723387D01*
X153676613Y-104639511D01*
X153676610Y-104639509D01*
X153676609Y-104639508D01*
X153573887Y-104580201D01*
X153573882Y-104580199D01*
X153541333Y-104571478D01*
X153496400Y-104537000D01*
X153489008Y-104480847D01*
X153523486Y-104435914D01*
X153541333Y-104428522D01*
X153573882Y-104419800D01*
X153573881Y-104419800D01*
X153573886Y-104419799D01*
X153676613Y-104360489D01*
X153760489Y-104276613D01*
X153819799Y-104173886D01*
X153850499Y-104059311D01*
X153850500Y-104059311D01*
X153850500Y-103940689D01*
X153850499Y-103940688D01*
X153819800Y-103826117D01*
X153819798Y-103826112D01*
X153760491Y-103723390D01*
X153760490Y-103723389D01*
X153760489Y-103723387D01*
X153676613Y-103639511D01*
X153676610Y-103639509D01*
X153676609Y-103639508D01*
X153573887Y-103580201D01*
X153573882Y-103580199D01*
X153541333Y-103571478D01*
X153496400Y-103537000D01*
X153489008Y-103480847D01*
X153523486Y-103435914D01*
X153541333Y-103428522D01*
X153573882Y-103419800D01*
X153573881Y-103419800D01*
X153573886Y-103419799D01*
X153676613Y-103360489D01*
X153760489Y-103276613D01*
X153819799Y-103173886D01*
X153850499Y-103059311D01*
X153850500Y-103059311D01*
X153850500Y-102990688D01*
X162149500Y-102990688D01*
X162149500Y-103109311D01*
X162180199Y-103223882D01*
X162180201Y-103223887D01*
X162239508Y-103326609D01*
X162239509Y-103326610D01*
X162239511Y-103326613D01*
X162323387Y-103410489D01*
X162323389Y-103410490D01*
X162323390Y-103410491D01*
X162375698Y-103440691D01*
X162426114Y-103469799D01*
X162426115Y-103469799D01*
X162426117Y-103469800D01*
X162458666Y-103478522D01*
X162503599Y-103513001D01*
X162510991Y-103569153D01*
X162476512Y-103614086D01*
X162458666Y-103621478D01*
X162426117Y-103630199D01*
X162426112Y-103630201D01*
X162323390Y-103689508D01*
X162239508Y-103773390D01*
X162180201Y-103876112D01*
X162180199Y-103876117D01*
X162149500Y-103990688D01*
X162149500Y-104109311D01*
X162180199Y-104223882D01*
X162180201Y-104223887D01*
X162239508Y-104326609D01*
X162239509Y-104326610D01*
X162239511Y-104326613D01*
X162323387Y-104410489D01*
X162323389Y-104410490D01*
X162323390Y-104410491D01*
X162375698Y-104440691D01*
X162426114Y-104469799D01*
X162426115Y-104469799D01*
X162426117Y-104469800D01*
X162458666Y-104478522D01*
X162503599Y-104513001D01*
X162510991Y-104569153D01*
X162476512Y-104614086D01*
X162458666Y-104621478D01*
X162426117Y-104630199D01*
X162426112Y-104630201D01*
X162323390Y-104689508D01*
X162239508Y-104773390D01*
X162180201Y-104876112D01*
X162180199Y-104876117D01*
X162149500Y-104990688D01*
X162149500Y-105109311D01*
X162180199Y-105223882D01*
X162180201Y-105223887D01*
X162239508Y-105326609D01*
X162239509Y-105326610D01*
X162239511Y-105326613D01*
X162323387Y-105410489D01*
X162323389Y-105410490D01*
X162323390Y-105410491D01*
X162375698Y-105440691D01*
X162426114Y-105469799D01*
X162426115Y-105469799D01*
X162426117Y-105469800D01*
X162458666Y-105478522D01*
X162503599Y-105513001D01*
X162510991Y-105569153D01*
X162476512Y-105614086D01*
X162458666Y-105621478D01*
X162426117Y-105630199D01*
X162426112Y-105630201D01*
X162323390Y-105689508D01*
X162239508Y-105773390D01*
X162180201Y-105876112D01*
X162180199Y-105876117D01*
X162149500Y-105990688D01*
X162149500Y-106109311D01*
X162180199Y-106223882D01*
X162180201Y-106223887D01*
X162239508Y-106326609D01*
X162239509Y-106326610D01*
X162239511Y-106326613D01*
X162323387Y-106410489D01*
X162323389Y-106410490D01*
X162323390Y-106410491D01*
X162392687Y-106450500D01*
X162426114Y-106469799D01*
X162426115Y-106469799D01*
X162426117Y-106469800D01*
X162483402Y-106485149D01*
X162540688Y-106500499D01*
X162540689Y-106500500D01*
X162540691Y-106500500D01*
X162659311Y-106500500D01*
X162659311Y-106500499D01*
X162773886Y-106469799D01*
X162876613Y-106410489D01*
X162960489Y-106326613D01*
X163019799Y-106223886D01*
X163050499Y-106109311D01*
X163050500Y-106109311D01*
X163050500Y-106059642D01*
X163072174Y-106007316D01*
X163105345Y-105988164D01*
X163173886Y-105969799D01*
X163276613Y-105910489D01*
X163360489Y-105826613D01*
X163419799Y-105723886D01*
X163450499Y-105609311D01*
X163450500Y-105609311D01*
X163450500Y-105490689D01*
X163450499Y-105490688D01*
X163419800Y-105376117D01*
X163419798Y-105376112D01*
X163360491Y-105273390D01*
X163360490Y-105273389D01*
X163360489Y-105273387D01*
X163276613Y-105189511D01*
X163276610Y-105189509D01*
X163276609Y-105189508D01*
X163173887Y-105130201D01*
X163173882Y-105130199D01*
X163141333Y-105121478D01*
X163096400Y-105087000D01*
X163089008Y-105030847D01*
X163123486Y-104985914D01*
X163141333Y-104978522D01*
X163173882Y-104969800D01*
X163173881Y-104969800D01*
X163173886Y-104969799D01*
X163276613Y-104910489D01*
X163360489Y-104826613D01*
X163419799Y-104723886D01*
X163450499Y-104609311D01*
X163450500Y-104609311D01*
X163450500Y-104490689D01*
X163450499Y-104490688D01*
X163419800Y-104376117D01*
X163419798Y-104376112D01*
X163360491Y-104273390D01*
X163360490Y-104273389D01*
X163360489Y-104273387D01*
X163276613Y-104189511D01*
X163276610Y-104189509D01*
X163276609Y-104189508D01*
X163173887Y-104130201D01*
X163173882Y-104130199D01*
X163141333Y-104121478D01*
X163096400Y-104087000D01*
X163089008Y-104030847D01*
X163123486Y-103985914D01*
X163141333Y-103978522D01*
X163173882Y-103969800D01*
X163173881Y-103969800D01*
X163173886Y-103969799D01*
X163276613Y-103910489D01*
X163360489Y-103826613D01*
X163419799Y-103723886D01*
X163450499Y-103609311D01*
X163450500Y-103609311D01*
X163450500Y-103490689D01*
X163450499Y-103490688D01*
X163419800Y-103376117D01*
X163419798Y-103376112D01*
X163360491Y-103273390D01*
X163360490Y-103273389D01*
X163360489Y-103273387D01*
X163276613Y-103189511D01*
X163276610Y-103189509D01*
X163276609Y-103189508D01*
X163173887Y-103130201D01*
X163173882Y-103130199D01*
X163141333Y-103121478D01*
X163096400Y-103087000D01*
X163089008Y-103030847D01*
X163123486Y-102985914D01*
X163141333Y-102978522D01*
X163173882Y-102969800D01*
X163173881Y-102969800D01*
X163173886Y-102969799D01*
X163276613Y-102910489D01*
X163360489Y-102826613D01*
X163419799Y-102723886D01*
X163450499Y-102609311D01*
X163450500Y-102609311D01*
X163450500Y-102490689D01*
X163450499Y-102490688D01*
X163450410Y-102490357D01*
X163419799Y-102376114D01*
X163360489Y-102273387D01*
X163276613Y-102189511D01*
X163276610Y-102189509D01*
X163276609Y-102189508D01*
X163173887Y-102130201D01*
X163173882Y-102130199D01*
X163059311Y-102099500D01*
X163059309Y-102099500D01*
X162940691Y-102099500D01*
X162940689Y-102099500D01*
X162826117Y-102130199D01*
X162826112Y-102130201D01*
X162723390Y-102189508D01*
X162639508Y-102273390D01*
X162580201Y-102376112D01*
X162580199Y-102376117D01*
X162549500Y-102490688D01*
X162549500Y-102540357D01*
X162527826Y-102592683D01*
X162494653Y-102611835D01*
X162426117Y-102630199D01*
X162426112Y-102630201D01*
X162323390Y-102689508D01*
X162239508Y-102773390D01*
X162180201Y-102876112D01*
X162180199Y-102876117D01*
X162149500Y-102990688D01*
X153850500Y-102990688D01*
X153850500Y-102940689D01*
X153850499Y-102940688D01*
X153819800Y-102826117D01*
X153819798Y-102826112D01*
X153760491Y-102723390D01*
X153760490Y-102723389D01*
X153760489Y-102723387D01*
X153676613Y-102639511D01*
X153676610Y-102639509D01*
X153676609Y-102639508D01*
X153573887Y-102580201D01*
X153573882Y-102580199D01*
X153505347Y-102561835D01*
X153460414Y-102527356D01*
X153450500Y-102490357D01*
X153450500Y-102440689D01*
X153450499Y-102440688D01*
X153419800Y-102326117D01*
X153419798Y-102326112D01*
X153360491Y-102223390D01*
X153360490Y-102223389D01*
X153360489Y-102223387D01*
X153276613Y-102139511D01*
X153276610Y-102139509D01*
X153276609Y-102139508D01*
X153173887Y-102080201D01*
X153173882Y-102080199D01*
X153141333Y-102071478D01*
X153096400Y-102037000D01*
X153089008Y-101980847D01*
X153123486Y-101935914D01*
X153141333Y-101928522D01*
X153173882Y-101919800D01*
X153173881Y-101919800D01*
X153173886Y-101919799D01*
X153276613Y-101860489D01*
X153360489Y-101776613D01*
X153419799Y-101673886D01*
X153450499Y-101559311D01*
X153450500Y-101559311D01*
X153450500Y-101509642D01*
X153472174Y-101457316D01*
X153505345Y-101438164D01*
X153573886Y-101419799D01*
X153676613Y-101360489D01*
X153760489Y-101276613D01*
X153819799Y-101173886D01*
X153850499Y-101059311D01*
X153850500Y-101059311D01*
X153850500Y-100940689D01*
X153850499Y-100940688D01*
X153819800Y-100826117D01*
X153819798Y-100826112D01*
X153760491Y-100723390D01*
X153760490Y-100723389D01*
X153760489Y-100723387D01*
X153676613Y-100639511D01*
X153676610Y-100639509D01*
X153676609Y-100639508D01*
X153573887Y-100580201D01*
X153573882Y-100580199D01*
X153541333Y-100571478D01*
X153496400Y-100537000D01*
X153489008Y-100480847D01*
X153523486Y-100435914D01*
X153541333Y-100428522D01*
X153573882Y-100419800D01*
X153573881Y-100419800D01*
X153573886Y-100419799D01*
X153676613Y-100360489D01*
X153760489Y-100276613D01*
X153819799Y-100173886D01*
X153850499Y-100059311D01*
X153850500Y-100059311D01*
X153850500Y-99940689D01*
X153850499Y-99940688D01*
X153819800Y-99826117D01*
X153819798Y-99826112D01*
X153760491Y-99723390D01*
X153760490Y-99723389D01*
X153760489Y-99723387D01*
X153676613Y-99639511D01*
X153676610Y-99639509D01*
X153676609Y-99639508D01*
X153573887Y-99580201D01*
X153573882Y-99580199D01*
X153541333Y-99571478D01*
X153496400Y-99537000D01*
X153489008Y-99480847D01*
X153523486Y-99435914D01*
X153541333Y-99428522D01*
X153573882Y-99419800D01*
X153573881Y-99419800D01*
X153573886Y-99419799D01*
X153676613Y-99360489D01*
X153760489Y-99276613D01*
X153819799Y-99173886D01*
X153850499Y-99059311D01*
X153850500Y-99059311D01*
X153850500Y-98940689D01*
X153850499Y-98940688D01*
X153819800Y-98826117D01*
X153819798Y-98826112D01*
X153760491Y-98723390D01*
X153760490Y-98723389D01*
X153760489Y-98723387D01*
X153676613Y-98639511D01*
X153676610Y-98639509D01*
X153676609Y-98639508D01*
X153573887Y-98580201D01*
X153573882Y-98580199D01*
X153541333Y-98571478D01*
X153496400Y-98537000D01*
X153489008Y-98480847D01*
X153523486Y-98435914D01*
X153541333Y-98428522D01*
X153573882Y-98419800D01*
X153573881Y-98419800D01*
X153573886Y-98419799D01*
X153676613Y-98360489D01*
X153760489Y-98276613D01*
X153819799Y-98173886D01*
X153850499Y-98059311D01*
X153850500Y-98059311D01*
X153850500Y-97940689D01*
X153850499Y-97940688D01*
X162149500Y-97940688D01*
X162149500Y-98059311D01*
X162180199Y-98173882D01*
X162180201Y-98173887D01*
X162239508Y-98276609D01*
X162239509Y-98276610D01*
X162239511Y-98276613D01*
X162323387Y-98360489D01*
X162426114Y-98419799D01*
X162426115Y-98419799D01*
X162426117Y-98419800D01*
X162458666Y-98428522D01*
X162503599Y-98463001D01*
X162510991Y-98519153D01*
X162476512Y-98564086D01*
X162458666Y-98571478D01*
X162426117Y-98580199D01*
X162426112Y-98580201D01*
X162323390Y-98639508D01*
X162239508Y-98723390D01*
X162180201Y-98826112D01*
X162180199Y-98826117D01*
X162149500Y-98940688D01*
X162149500Y-99059311D01*
X162180199Y-99173882D01*
X162180201Y-99173887D01*
X162239508Y-99276609D01*
X162239509Y-99276610D01*
X162239511Y-99276613D01*
X162323387Y-99360489D01*
X162426114Y-99419799D01*
X162426115Y-99419799D01*
X162426117Y-99419800D01*
X162458666Y-99428522D01*
X162503599Y-99463001D01*
X162510991Y-99519153D01*
X162476512Y-99564086D01*
X162458666Y-99571478D01*
X162426117Y-99580199D01*
X162426112Y-99580201D01*
X162323390Y-99639508D01*
X162239508Y-99723390D01*
X162180201Y-99826112D01*
X162180199Y-99826117D01*
X162149500Y-99940688D01*
X162149500Y-100059311D01*
X162180199Y-100173882D01*
X162180201Y-100173887D01*
X162239508Y-100276609D01*
X162239509Y-100276610D01*
X162239511Y-100276613D01*
X162323387Y-100360489D01*
X162426114Y-100419799D01*
X162426115Y-100419799D01*
X162426117Y-100419800D01*
X162458666Y-100428522D01*
X162503599Y-100463001D01*
X162510991Y-100519153D01*
X162476512Y-100564086D01*
X162458666Y-100571478D01*
X162426117Y-100580199D01*
X162426112Y-100580201D01*
X162323390Y-100639508D01*
X162239508Y-100723390D01*
X162180201Y-100826112D01*
X162180199Y-100826117D01*
X162149500Y-100940688D01*
X162149500Y-101059311D01*
X162180199Y-101173882D01*
X162180201Y-101173887D01*
X162239508Y-101276609D01*
X162239509Y-101276610D01*
X162239511Y-101276613D01*
X162323387Y-101360489D01*
X162426114Y-101419799D01*
X162494653Y-101438164D01*
X162539586Y-101472642D01*
X162549500Y-101509642D01*
X162549500Y-101559311D01*
X162580199Y-101673882D01*
X162580201Y-101673887D01*
X162639508Y-101776609D01*
X162639509Y-101776610D01*
X162639511Y-101776613D01*
X162723387Y-101860489D01*
X162826114Y-101919799D01*
X162826115Y-101919799D01*
X162826117Y-101919800D01*
X162858668Y-101928522D01*
X162940688Y-101950499D01*
X162940689Y-101950500D01*
X162940691Y-101950500D01*
X163059311Y-101950500D01*
X163059311Y-101950499D01*
X163173886Y-101919799D01*
X163276613Y-101860489D01*
X163360489Y-101776613D01*
X163419799Y-101673886D01*
X163450499Y-101559311D01*
X163450500Y-101559311D01*
X163450500Y-101440689D01*
X163450499Y-101440688D01*
X163449822Y-101438163D01*
X163419799Y-101326114D01*
X163419798Y-101326112D01*
X163360491Y-101223390D01*
X163360490Y-101223389D01*
X163360489Y-101223387D01*
X163276613Y-101139511D01*
X163276610Y-101139509D01*
X163276609Y-101139508D01*
X163173887Y-101080201D01*
X163173882Y-101080199D01*
X163141333Y-101071478D01*
X163096400Y-101037000D01*
X163089008Y-100980847D01*
X163123486Y-100935914D01*
X163141333Y-100928522D01*
X163173882Y-100919800D01*
X163173881Y-100919800D01*
X163173886Y-100919799D01*
X163276613Y-100860489D01*
X163360489Y-100776613D01*
X163419799Y-100673886D01*
X163450499Y-100559311D01*
X163450500Y-100559311D01*
X163450500Y-100440689D01*
X163450499Y-100440688D01*
X163419800Y-100326117D01*
X163419798Y-100326112D01*
X163360491Y-100223390D01*
X163360490Y-100223389D01*
X163360489Y-100223387D01*
X163276613Y-100139511D01*
X163276610Y-100139509D01*
X163276609Y-100139508D01*
X163173887Y-100080201D01*
X163173882Y-100080199D01*
X163141333Y-100071478D01*
X163096400Y-100037000D01*
X163089008Y-99980847D01*
X163123486Y-99935914D01*
X163141333Y-99928522D01*
X163173882Y-99919800D01*
X163173881Y-99919800D01*
X163173886Y-99919799D01*
X163276613Y-99860489D01*
X163360489Y-99776613D01*
X163419799Y-99673886D01*
X163450499Y-99559311D01*
X163450500Y-99559311D01*
X163450500Y-99440689D01*
X163450499Y-99440688D01*
X163419800Y-99326117D01*
X163419798Y-99326112D01*
X163360491Y-99223390D01*
X163360490Y-99223389D01*
X163360489Y-99223387D01*
X163276613Y-99139511D01*
X163276610Y-99139509D01*
X163276609Y-99139508D01*
X163173887Y-99080201D01*
X163173882Y-99080199D01*
X163141333Y-99071478D01*
X163096400Y-99037000D01*
X163089008Y-98980847D01*
X163123486Y-98935914D01*
X163141333Y-98928522D01*
X163173882Y-98919800D01*
X163173881Y-98919800D01*
X163173886Y-98919799D01*
X163276613Y-98860489D01*
X163360489Y-98776613D01*
X163419799Y-98673886D01*
X163450499Y-98559311D01*
X163450500Y-98559311D01*
X163450500Y-98440689D01*
X163450499Y-98440688D01*
X163419800Y-98326117D01*
X163419798Y-98326112D01*
X163360491Y-98223390D01*
X163360490Y-98223389D01*
X163360489Y-98223387D01*
X163276613Y-98139511D01*
X163276610Y-98139509D01*
X163276609Y-98139508D01*
X163173887Y-98080201D01*
X163173882Y-98080199D01*
X163105347Y-98061835D01*
X163060414Y-98027356D01*
X163050500Y-97990357D01*
X163050500Y-97940689D01*
X163050499Y-97940688D01*
X163019800Y-97826117D01*
X163019798Y-97826112D01*
X162960491Y-97723390D01*
X162960490Y-97723389D01*
X162960489Y-97723387D01*
X162876613Y-97639511D01*
X162876610Y-97639509D01*
X162876609Y-97639508D01*
X162773887Y-97580201D01*
X162773882Y-97580199D01*
X162659311Y-97549500D01*
X162659309Y-97549500D01*
X162540691Y-97549500D01*
X162540689Y-97549500D01*
X162426117Y-97580199D01*
X162426112Y-97580201D01*
X162323390Y-97639508D01*
X162239508Y-97723390D01*
X162180201Y-97826112D01*
X162180199Y-97826117D01*
X162149500Y-97940688D01*
X153850499Y-97940688D01*
X153819800Y-97826117D01*
X153819798Y-97826112D01*
X153760491Y-97723390D01*
X153760490Y-97723389D01*
X153760489Y-97723387D01*
X153676613Y-97639511D01*
X153676610Y-97639509D01*
X153676609Y-97639508D01*
X153573887Y-97580201D01*
X153573882Y-97580199D01*
X153459311Y-97549500D01*
X153459309Y-97549500D01*
X153340691Y-97549500D01*
X153340689Y-97549500D01*
X153226117Y-97580199D01*
X153226112Y-97580201D01*
X153123390Y-97639508D01*
X153039508Y-97723390D01*
X152980201Y-97826112D01*
X152980199Y-97826117D01*
X152949500Y-97940688D01*
X152949500Y-97990357D01*
X152927826Y-98042683D01*
X152894653Y-98061835D01*
X152826117Y-98080199D01*
X152826112Y-98080201D01*
X152723390Y-98139508D01*
X152639508Y-98223390D01*
X152580201Y-98326112D01*
X152580199Y-98326117D01*
X152549500Y-98440688D01*
X108500500Y-98440688D01*
X108500500Y-93940688D01*
X152549500Y-93940688D01*
X152549500Y-94059311D01*
X152580199Y-94173882D01*
X152580201Y-94173887D01*
X152639508Y-94276609D01*
X152639509Y-94276610D01*
X152639511Y-94276613D01*
X152723387Y-94360489D01*
X152723389Y-94360490D01*
X152723390Y-94360491D01*
X152779155Y-94392687D01*
X152826114Y-94419799D01*
X152826115Y-94419799D01*
X152826117Y-94419800D01*
X152858666Y-94428522D01*
X152903599Y-94463001D01*
X152910991Y-94519153D01*
X152876512Y-94564086D01*
X152858666Y-94571478D01*
X152826117Y-94580199D01*
X152826112Y-94580201D01*
X152723390Y-94639508D01*
X152639508Y-94723390D01*
X152580201Y-94826112D01*
X152580199Y-94826117D01*
X152549500Y-94940688D01*
X152549500Y-95059311D01*
X152580199Y-95173882D01*
X152580201Y-95173887D01*
X152639508Y-95276609D01*
X152639509Y-95276610D01*
X152639511Y-95276613D01*
X152723387Y-95360489D01*
X152826114Y-95419799D01*
X152826115Y-95419799D01*
X152826117Y-95419800D01*
X152858666Y-95428522D01*
X152903599Y-95463001D01*
X152910991Y-95519153D01*
X152876512Y-95564086D01*
X152858666Y-95571478D01*
X152826117Y-95580199D01*
X152826112Y-95580201D01*
X152723390Y-95639508D01*
X152639508Y-95723390D01*
X152580201Y-95826112D01*
X152580199Y-95826117D01*
X152549500Y-95940688D01*
X152549500Y-96059311D01*
X152580199Y-96173882D01*
X152580201Y-96173887D01*
X152639508Y-96276609D01*
X152639509Y-96276610D01*
X152639511Y-96276613D01*
X152723387Y-96360489D01*
X152826114Y-96419799D01*
X152826115Y-96419799D01*
X152826117Y-96419800D01*
X152858666Y-96428522D01*
X152903599Y-96463001D01*
X152910991Y-96519153D01*
X152876512Y-96564086D01*
X152858666Y-96571478D01*
X152826117Y-96580199D01*
X152826112Y-96580201D01*
X152723390Y-96639508D01*
X152639508Y-96723390D01*
X152580201Y-96826112D01*
X152580199Y-96826117D01*
X152549500Y-96940688D01*
X152549500Y-97059311D01*
X152580199Y-97173882D01*
X152580201Y-97173887D01*
X152639508Y-97276609D01*
X152639509Y-97276610D01*
X152639511Y-97276613D01*
X152723387Y-97360489D01*
X152826114Y-97419799D01*
X152826115Y-97419799D01*
X152826117Y-97419800D01*
X152883402Y-97435149D01*
X152940688Y-97450499D01*
X152940689Y-97450500D01*
X152940691Y-97450500D01*
X153059311Y-97450500D01*
X153059311Y-97450499D01*
X153173886Y-97419799D01*
X153276613Y-97360489D01*
X153360489Y-97276613D01*
X153419799Y-97173886D01*
X153450499Y-97059311D01*
X153450500Y-97059311D01*
X153450500Y-97009642D01*
X153472174Y-96957316D01*
X153505345Y-96938164D01*
X153573886Y-96919799D01*
X153676613Y-96860489D01*
X153760489Y-96776613D01*
X153819799Y-96673886D01*
X153850499Y-96559311D01*
X153850500Y-96559311D01*
X153850500Y-96440689D01*
X153850499Y-96440688D01*
X153819800Y-96326117D01*
X153819798Y-96326112D01*
X153760491Y-96223390D01*
X153760490Y-96223389D01*
X153760489Y-96223387D01*
X153676613Y-96139511D01*
X153676610Y-96139509D01*
X153676609Y-96139508D01*
X153573887Y-96080201D01*
X153573882Y-96080199D01*
X153541333Y-96071478D01*
X153496400Y-96037000D01*
X153489008Y-95980847D01*
X153523486Y-95935914D01*
X153541333Y-95928522D01*
X153573882Y-95919800D01*
X153573881Y-95919800D01*
X153573886Y-95919799D01*
X153676613Y-95860489D01*
X153760489Y-95776613D01*
X153819799Y-95673886D01*
X153850499Y-95559311D01*
X153850500Y-95559311D01*
X153850500Y-95440689D01*
X153850499Y-95440688D01*
X153819800Y-95326117D01*
X153819798Y-95326112D01*
X153760491Y-95223390D01*
X153760490Y-95223389D01*
X153760489Y-95223387D01*
X153676613Y-95139511D01*
X153676610Y-95139509D01*
X153676609Y-95139508D01*
X153573887Y-95080201D01*
X153573882Y-95080199D01*
X153541333Y-95071478D01*
X153496400Y-95037000D01*
X153489008Y-94980847D01*
X153523486Y-94935914D01*
X153541333Y-94928522D01*
X153573882Y-94919800D01*
X153573881Y-94919800D01*
X153573886Y-94919799D01*
X153676613Y-94860489D01*
X153760489Y-94776613D01*
X153781230Y-94740688D01*
X155249500Y-94740688D01*
X155249500Y-94859311D01*
X155280199Y-94973882D01*
X155280201Y-94973887D01*
X155339508Y-95076609D01*
X155339509Y-95076610D01*
X155339511Y-95076613D01*
X155423387Y-95160489D01*
X155423389Y-95160490D01*
X155423390Y-95160491D01*
X155526112Y-95219798D01*
X155526114Y-95219799D01*
X155526115Y-95219799D01*
X155526117Y-95219800D01*
X155583402Y-95235149D01*
X155640688Y-95250499D01*
X155640689Y-95250500D01*
X155640691Y-95250500D01*
X155759311Y-95250500D01*
X155759311Y-95250499D01*
X155873886Y-95219799D01*
X155976613Y-95160489D01*
X156060489Y-95076613D01*
X156114771Y-94982593D01*
X156159703Y-94948116D01*
X156215855Y-94955508D01*
X156222814Y-94960159D01*
X156324995Y-95019153D01*
X156326114Y-95019799D01*
X156326115Y-95019799D01*
X156326117Y-95019800D01*
X156383402Y-95035149D01*
X156440688Y-95050499D01*
X156440689Y-95050500D01*
X156440691Y-95050500D01*
X156559311Y-95050500D01*
X156559311Y-95050499D01*
X156673886Y-95019799D01*
X156776613Y-94960489D01*
X156860489Y-94876613D01*
X156919799Y-94773886D01*
X156950499Y-94659311D01*
X156950500Y-94659311D01*
X156950500Y-94540689D01*
X156950499Y-94540688D01*
X156919800Y-94426117D01*
X156919796Y-94426108D01*
X156910414Y-94409857D01*
X156900500Y-94372858D01*
X156900500Y-88596544D01*
X156922174Y-88544218D01*
X165544218Y-79922174D01*
X165596544Y-79900500D01*
X168187987Y-79900500D01*
X168240313Y-79922174D01*
X168261987Y-79974500D01*
X168240313Y-80026826D01*
X168224987Y-80038586D01*
X168154086Y-80079520D01*
X168079518Y-80154089D01*
X159179517Y-89054090D01*
X159126792Y-89145412D01*
X159126793Y-89145413D01*
X159099500Y-89247273D01*
X159099500Y-94472858D01*
X159089586Y-94509857D01*
X159080203Y-94526108D01*
X159080199Y-94526117D01*
X159049500Y-94640688D01*
X159049500Y-94759311D01*
X159080199Y-94873882D01*
X159080201Y-94873887D01*
X159139508Y-94976609D01*
X159139509Y-94976610D01*
X159139511Y-94976613D01*
X159223387Y-95060489D01*
X159223389Y-95060490D01*
X159223390Y-95060491D01*
X159326112Y-95119798D01*
X159326114Y-95119799D01*
X159326115Y-95119799D01*
X159326117Y-95119800D01*
X159383402Y-95135149D01*
X159440688Y-95150499D01*
X159440689Y-95150500D01*
X159440691Y-95150500D01*
X159559311Y-95150500D01*
X159559311Y-95150499D01*
X159673886Y-95119799D01*
X159776613Y-95060489D01*
X159860489Y-94976613D01*
X159919799Y-94873886D01*
X159950499Y-94759311D01*
X159950500Y-94759311D01*
X159950500Y-94640689D01*
X159950499Y-94640688D01*
X159919800Y-94526117D01*
X159919796Y-94526108D01*
X159910414Y-94509857D01*
X159900500Y-94472858D01*
X159900500Y-93440688D01*
X162149500Y-93440688D01*
X162149500Y-93559311D01*
X162180199Y-93673882D01*
X162180201Y-93673887D01*
X162239508Y-93776609D01*
X162239509Y-93776610D01*
X162239511Y-93776613D01*
X162323387Y-93860489D01*
X162426114Y-93919799D01*
X162426115Y-93919799D01*
X162426117Y-93919800D01*
X162458666Y-93928522D01*
X162503599Y-93963001D01*
X162510991Y-94019153D01*
X162476512Y-94064086D01*
X162458666Y-94071478D01*
X162426117Y-94080199D01*
X162426112Y-94080201D01*
X162323390Y-94139508D01*
X162239508Y-94223390D01*
X162180201Y-94326112D01*
X162180199Y-94326117D01*
X162149500Y-94440688D01*
X162149500Y-94559311D01*
X162180199Y-94673882D01*
X162180201Y-94673887D01*
X162239508Y-94776609D01*
X162239509Y-94776610D01*
X162239511Y-94776613D01*
X162323387Y-94860489D01*
X162323389Y-94860490D01*
X162323390Y-94860491D01*
X162351307Y-94876609D01*
X162426114Y-94919799D01*
X162426115Y-94919799D01*
X162426117Y-94919800D01*
X162458666Y-94928522D01*
X162503599Y-94963001D01*
X162510991Y-95019153D01*
X162476512Y-95064086D01*
X162458666Y-95071478D01*
X162426117Y-95080199D01*
X162426112Y-95080201D01*
X162323390Y-95139508D01*
X162239508Y-95223390D01*
X162180201Y-95326112D01*
X162180199Y-95326117D01*
X162149500Y-95440688D01*
X162149500Y-95559311D01*
X162180199Y-95673882D01*
X162180201Y-95673887D01*
X162239508Y-95776609D01*
X162239509Y-95776610D01*
X162239511Y-95776613D01*
X162323387Y-95860489D01*
X162426114Y-95919799D01*
X162426115Y-95919799D01*
X162426117Y-95919800D01*
X162458666Y-95928522D01*
X162503599Y-95963001D01*
X162510991Y-96019153D01*
X162476512Y-96064086D01*
X162458666Y-96071478D01*
X162426117Y-96080199D01*
X162426112Y-96080201D01*
X162323390Y-96139508D01*
X162239508Y-96223390D01*
X162180201Y-96326112D01*
X162180199Y-96326117D01*
X162149500Y-96440688D01*
X162149500Y-96559311D01*
X162180199Y-96673882D01*
X162180201Y-96673887D01*
X162239508Y-96776609D01*
X162239509Y-96776610D01*
X162239511Y-96776613D01*
X162323387Y-96860489D01*
X162426114Y-96919799D01*
X162494653Y-96938164D01*
X162539586Y-96972642D01*
X162549500Y-97009642D01*
X162549500Y-97059311D01*
X162580199Y-97173882D01*
X162580201Y-97173887D01*
X162639508Y-97276609D01*
X162639509Y-97276610D01*
X162639511Y-97276613D01*
X162723387Y-97360489D01*
X162826114Y-97419799D01*
X162826115Y-97419799D01*
X162826117Y-97419800D01*
X162883402Y-97435149D01*
X162940688Y-97450499D01*
X162940689Y-97450500D01*
X162940691Y-97450500D01*
X163059311Y-97450500D01*
X163059311Y-97450499D01*
X163173886Y-97419799D01*
X163276613Y-97360489D01*
X163360489Y-97276613D01*
X163419799Y-97173886D01*
X163450499Y-97059311D01*
X163450500Y-97059311D01*
X163450500Y-96940689D01*
X163450499Y-96940688D01*
X163449822Y-96938163D01*
X163419799Y-96826114D01*
X163419798Y-96826112D01*
X163360491Y-96723390D01*
X163360490Y-96723389D01*
X163360489Y-96723387D01*
X163276613Y-96639511D01*
X163276610Y-96639509D01*
X163276609Y-96639508D01*
X163173887Y-96580201D01*
X163173882Y-96580199D01*
X163141333Y-96571478D01*
X163096400Y-96537000D01*
X163089008Y-96480847D01*
X163123486Y-96435914D01*
X163141333Y-96428522D01*
X163173882Y-96419800D01*
X163173881Y-96419800D01*
X163173886Y-96419799D01*
X163276613Y-96360489D01*
X163360489Y-96276613D01*
X163419799Y-96173886D01*
X163450499Y-96059311D01*
X163450500Y-96059311D01*
X163450500Y-95940689D01*
X163450499Y-95940688D01*
X163419800Y-95826117D01*
X163419798Y-95826112D01*
X163360491Y-95723390D01*
X163360490Y-95723389D01*
X163360489Y-95723387D01*
X163276613Y-95639511D01*
X163276610Y-95639509D01*
X163276609Y-95639508D01*
X163173887Y-95580201D01*
X163173882Y-95580199D01*
X163141333Y-95571478D01*
X163096400Y-95537000D01*
X163089008Y-95480847D01*
X163123486Y-95435914D01*
X163141333Y-95428522D01*
X163173882Y-95419800D01*
X163173881Y-95419800D01*
X163173886Y-95419799D01*
X163276613Y-95360489D01*
X163360489Y-95276613D01*
X163419799Y-95173886D01*
X163450499Y-95059311D01*
X163450500Y-95059311D01*
X163450500Y-94940689D01*
X163450499Y-94940688D01*
X163419800Y-94826117D01*
X163419798Y-94826112D01*
X163360491Y-94723390D01*
X163360490Y-94723389D01*
X163360489Y-94723387D01*
X163276613Y-94639511D01*
X163276610Y-94639509D01*
X163276609Y-94639508D01*
X163173887Y-94580201D01*
X163173882Y-94580199D01*
X163141333Y-94571478D01*
X163096400Y-94537000D01*
X163089008Y-94480847D01*
X163123486Y-94435914D01*
X163141333Y-94428522D01*
X163173882Y-94419800D01*
X163173881Y-94419800D01*
X163173886Y-94419799D01*
X163276613Y-94360489D01*
X163360489Y-94276613D01*
X163419799Y-94173886D01*
X163450499Y-94059311D01*
X163450500Y-94059311D01*
X163450500Y-93940689D01*
X163450499Y-93940688D01*
X163419800Y-93826117D01*
X163419798Y-93826112D01*
X163360491Y-93723390D01*
X163360490Y-93723389D01*
X163360489Y-93723387D01*
X163276613Y-93639511D01*
X163276610Y-93639509D01*
X163276609Y-93639508D01*
X163173887Y-93580201D01*
X163173882Y-93580199D01*
X163105347Y-93561835D01*
X163060414Y-93527356D01*
X163050500Y-93490357D01*
X163050500Y-93440689D01*
X163050499Y-93440688D01*
X163019800Y-93326117D01*
X163019798Y-93326112D01*
X162960491Y-93223390D01*
X162960490Y-93223389D01*
X162960489Y-93223387D01*
X162876613Y-93139511D01*
X162876610Y-93139509D01*
X162876609Y-93139508D01*
X162773887Y-93080201D01*
X162773882Y-93080199D01*
X162659311Y-93049500D01*
X162659309Y-93049500D01*
X162540691Y-93049500D01*
X162540689Y-93049500D01*
X162426117Y-93080199D01*
X162426112Y-93080201D01*
X162323390Y-93139508D01*
X162239508Y-93223390D01*
X162180201Y-93326112D01*
X162180199Y-93326117D01*
X162149500Y-93440688D01*
X159900500Y-93440688D01*
X159900500Y-89496544D01*
X159922174Y-89444218D01*
X167491521Y-81874871D01*
X189719500Y-81874871D01*
X189719500Y-81995128D01*
X189742959Y-82113069D01*
X189742961Y-82113076D01*
X189788981Y-82224179D01*
X189855791Y-82324167D01*
X189855794Y-82324171D01*
X189940829Y-82409206D01*
X190040820Y-82476018D01*
X190151924Y-82522039D01*
X190269871Y-82545500D01*
X190269872Y-82545500D01*
X190390128Y-82545500D01*
X190390129Y-82545500D01*
X190508076Y-82522039D01*
X190619180Y-82476018D01*
X190719171Y-82409206D01*
X190804206Y-82324171D01*
X190871018Y-82224180D01*
X190917039Y-82113076D01*
X190940500Y-81995129D01*
X190940500Y-81874871D01*
X190917039Y-81756924D01*
X190871018Y-81645820D01*
X190804206Y-81545829D01*
X190719171Y-81460794D01*
X190619180Y-81393982D01*
X190619181Y-81393982D01*
X190619179Y-81393981D01*
X190508076Y-81347961D01*
X190508069Y-81347959D01*
X190419215Y-81330285D01*
X190390129Y-81324500D01*
X190269871Y-81324500D01*
X190246538Y-81329141D01*
X190151930Y-81347959D01*
X190151923Y-81347961D01*
X190040820Y-81393981D01*
X189940832Y-81460791D01*
X189855791Y-81545832D01*
X189788981Y-81645820D01*
X189742961Y-81756923D01*
X189742959Y-81756930D01*
X189719500Y-81874871D01*
X167491521Y-81874871D01*
X168544218Y-80822174D01*
X168596544Y-80800500D01*
X201703455Y-80800500D01*
X201755781Y-80822174D01*
X203677826Y-82744219D01*
X203699500Y-82796545D01*
X203699500Y-118903454D01*
X203677826Y-118955780D01*
X198449812Y-124183794D01*
X198397486Y-124205468D01*
X198345160Y-124183794D01*
X198304069Y-124142703D01*
X198304067Y-124142701D01*
X198259719Y-124106961D01*
X198259715Y-124106959D01*
X198259712Y-124106957D01*
X198180420Y-124070747D01*
X198135342Y-124050161D01*
X198135340Y-124050160D01*
X198135338Y-124050160D01*
X198000000Y-124030701D01*
X197864661Y-124050160D01*
X197864658Y-124050160D01*
X197740281Y-124106960D01*
X197695934Y-124142697D01*
X197695933Y-124142698D01*
X197560807Y-124277826D01*
X197508481Y-124299500D01*
X190974500Y-124299500D01*
X190922174Y-124277826D01*
X190900500Y-124225500D01*
X190900500Y-122227140D01*
X190910414Y-122190140D01*
X190919799Y-122173886D01*
X190950499Y-122059311D01*
X190950500Y-122059311D01*
X190950500Y-121940689D01*
X190950499Y-121940688D01*
X190919800Y-121826117D01*
X190919798Y-121826112D01*
X190860491Y-121723390D01*
X190860490Y-121723389D01*
X190860489Y-121723387D01*
X190776613Y-121639511D01*
X190776610Y-121639509D01*
X190776609Y-121639508D01*
X190673887Y-121580201D01*
X190673882Y-121580199D01*
X190559311Y-121549500D01*
X190559309Y-121549500D01*
X190440691Y-121549500D01*
X190440689Y-121549500D01*
X190326117Y-121580199D01*
X190326112Y-121580201D01*
X190223390Y-121639508D01*
X190139508Y-121723390D01*
X190080201Y-121826112D01*
X190080199Y-121826117D01*
X190049500Y-121940688D01*
X190049500Y-122059311D01*
X190080199Y-122173882D01*
X190080200Y-122173884D01*
X190080201Y-122173886D01*
X190089585Y-122190140D01*
X190099500Y-122227140D01*
X190099500Y-124225500D01*
X190077826Y-124277826D01*
X190025500Y-124299500D01*
X188852727Y-124299500D01*
X188747273Y-124299500D01*
X188713319Y-124308597D01*
X188645410Y-124326793D01*
X188645406Y-124326795D01*
X188630702Y-124335286D01*
X188630699Y-124335288D01*
X188554086Y-124379520D01*
X188479518Y-124454089D01*
X188340943Y-124592662D01*
X188288616Y-124614336D01*
X188245121Y-124600203D01*
X188184092Y-124555862D01*
X188184084Y-124555858D01*
X188063434Y-124516658D01*
X188063433Y-124516658D01*
X187936567Y-124516658D01*
X187936565Y-124516658D01*
X187815915Y-124555858D01*
X187815907Y-124555862D01*
X187739093Y-124611671D01*
X187411675Y-124939090D01*
X187355860Y-125015911D01*
X187355858Y-125015915D01*
X187316658Y-125136565D01*
X187316658Y-125225500D01*
X187294984Y-125277826D01*
X187242658Y-125299500D01*
X187220941Y-125299500D01*
X187068220Y-125340421D01*
X187068214Y-125340424D01*
X186931283Y-125419480D01*
X186819480Y-125531283D01*
X186740424Y-125668214D01*
X186740421Y-125668220D01*
X186699500Y-125820940D01*
X186699500Y-125979059D01*
X186740421Y-126131779D01*
X186740422Y-126131781D01*
X186740423Y-126131784D01*
X186819480Y-126268716D01*
X186931284Y-126380520D01*
X187068216Y-126459577D01*
X187220940Y-126500499D01*
X187220941Y-126500500D01*
X187325500Y-126500500D01*
X187377826Y-126522174D01*
X187399500Y-126574500D01*
X187399500Y-126679059D01*
X187440421Y-126831779D01*
X187440422Y-126831781D01*
X187440423Y-126831784D01*
X187519480Y-126968716D01*
X187631284Y-127080520D01*
X187768216Y-127159577D01*
X187920940Y-127200499D01*
X187920941Y-127200500D01*
X187920943Y-127200500D01*
X188079059Y-127200500D01*
X188079059Y-127200499D01*
X188169953Y-127176144D01*
X188236469Y-127158322D01*
X188237057Y-127160519D01*
X188286142Y-127160509D01*
X188310163Y-127176556D01*
X189479519Y-128345912D01*
X189479520Y-128345913D01*
X189554087Y-128420480D01*
X189645413Y-128473207D01*
X189747270Y-128500499D01*
X189747271Y-128500500D01*
X189747273Y-128500500D01*
X192472859Y-128500500D01*
X192509860Y-128510415D01*
X192526109Y-128519797D01*
X192526117Y-128519800D01*
X192583402Y-128535149D01*
X192640688Y-128550499D01*
X192640689Y-128550500D01*
X192640691Y-128550500D01*
X192759311Y-128550500D01*
X192759311Y-128550499D01*
X192873886Y-128519799D01*
X192873888Y-128519797D01*
X192873890Y-128519797D01*
X192890140Y-128510415D01*
X192927141Y-128500500D01*
X198952726Y-128500500D01*
X198952727Y-128500500D01*
X199054588Y-128473207D01*
X199145913Y-128420480D01*
X206045910Y-121520481D01*
X206045913Y-121520480D01*
X206120480Y-121445913D01*
X206173207Y-121354587D01*
X206174302Y-121350500D01*
X206200501Y-121252727D01*
X206200501Y-121147273D01*
X206200501Y-121142744D01*
X206200500Y-121142726D01*
X206200500Y-81958698D01*
X206200501Y-81958685D01*
X206200501Y-81847271D01*
X206200500Y-81847270D01*
X206173208Y-81745415D01*
X206173205Y-81745408D01*
X206164005Y-81729474D01*
X206146843Y-81699750D01*
X206120480Y-81654087D01*
X206045913Y-81579520D01*
X206043334Y-81576941D01*
X206043323Y-81576931D01*
X204400500Y-79934108D01*
X202745913Y-78279520D01*
X202745910Y-78279518D01*
X202745909Y-78279517D01*
X202654592Y-78226795D01*
X202654588Y-78226793D01*
X202552727Y-78199500D01*
X164952727Y-78199500D01*
X164847273Y-78199500D01*
X164796342Y-78213146D01*
X164745411Y-78226793D01*
X164745407Y-78226795D01*
X164699750Y-78253156D01*
X164654090Y-78279517D01*
X155379517Y-87554090D01*
X155326792Y-87645412D01*
X155326793Y-87645413D01*
X155299500Y-87747273D01*
X155299500Y-94572858D01*
X155289586Y-94609857D01*
X155280203Y-94626108D01*
X155280199Y-94626117D01*
X155249500Y-94740688D01*
X153781230Y-94740688D01*
X153819799Y-94673886D01*
X153850499Y-94559311D01*
X153850500Y-94559311D01*
X153850500Y-94440689D01*
X153850499Y-94440688D01*
X153819800Y-94326117D01*
X153819798Y-94326112D01*
X153760491Y-94223390D01*
X153760490Y-94223389D01*
X153760489Y-94223387D01*
X153676613Y-94139511D01*
X153676610Y-94139509D01*
X153676609Y-94139508D01*
X153573887Y-94080201D01*
X153573882Y-94080199D01*
X153541333Y-94071478D01*
X153496400Y-94037000D01*
X153489008Y-93980847D01*
X153523486Y-93935914D01*
X153541333Y-93928522D01*
X153573882Y-93919800D01*
X153573881Y-93919800D01*
X153573886Y-93919799D01*
X153676613Y-93860489D01*
X153760489Y-93776613D01*
X153819799Y-93673886D01*
X153850499Y-93559311D01*
X153850500Y-93559311D01*
X153850500Y-93440689D01*
X153850499Y-93440688D01*
X153819800Y-93326117D01*
X153819798Y-93326112D01*
X153760491Y-93223390D01*
X153760490Y-93223389D01*
X153760489Y-93223387D01*
X153676613Y-93139511D01*
X153676610Y-93139509D01*
X153676609Y-93139508D01*
X153573887Y-93080201D01*
X153573882Y-93080199D01*
X153459311Y-93049500D01*
X153459309Y-93049500D01*
X153340691Y-93049500D01*
X153340689Y-93049500D01*
X153226117Y-93080199D01*
X153226112Y-93080201D01*
X153123390Y-93139508D01*
X153039508Y-93223390D01*
X152980201Y-93326112D01*
X152980199Y-93326117D01*
X152949500Y-93440688D01*
X152949500Y-93490357D01*
X152927826Y-93542683D01*
X152894653Y-93561835D01*
X152826117Y-93580199D01*
X152826112Y-93580201D01*
X152723390Y-93639508D01*
X152639508Y-93723390D01*
X152580201Y-93826112D01*
X152580199Y-93826117D01*
X152549500Y-93940688D01*
X108500500Y-93940688D01*
X108500500Y-81874871D01*
X119719500Y-81874871D01*
X119719500Y-81995128D01*
X119742959Y-82113069D01*
X119742961Y-82113076D01*
X119788981Y-82224179D01*
X119855791Y-82324167D01*
X119855794Y-82324171D01*
X119940829Y-82409206D01*
X120040820Y-82476018D01*
X120151924Y-82522039D01*
X120269871Y-82545500D01*
X120269872Y-82545500D01*
X120390128Y-82545500D01*
X120390129Y-82545500D01*
X120508076Y-82522039D01*
X120619180Y-82476018D01*
X120719171Y-82409206D01*
X120804206Y-82324171D01*
X120871018Y-82224180D01*
X120917039Y-82113076D01*
X120940500Y-81995129D01*
X120940500Y-81874871D01*
X120917039Y-81756924D01*
X120871018Y-81645820D01*
X120804206Y-81545829D01*
X120719171Y-81460794D01*
X120619180Y-81393982D01*
X120619181Y-81393982D01*
X120619179Y-81393981D01*
X120508076Y-81347961D01*
X120508069Y-81347959D01*
X120419215Y-81330285D01*
X120390129Y-81324500D01*
X120269871Y-81324500D01*
X120246538Y-81329141D01*
X120151930Y-81347959D01*
X120151923Y-81347961D01*
X120040820Y-81393981D01*
X119940832Y-81460791D01*
X119855791Y-81545832D01*
X119788981Y-81645820D01*
X119742961Y-81756923D01*
X119742959Y-81756930D01*
X119719500Y-81874871D01*
X108500500Y-81874871D01*
X108500500Y-80002236D01*
X108500635Y-79997768D01*
X108504486Y-79934108D01*
X108518454Y-79703176D01*
X108519528Y-79694328D01*
X108572328Y-79406211D01*
X108574458Y-79397568D01*
X108661597Y-79117931D01*
X108664754Y-79109604D01*
X108784971Y-78842493D01*
X108789115Y-78834599D01*
X108940636Y-78583952D01*
X108945712Y-78576599D01*
X109126343Y-78346039D01*
X109132254Y-78339367D01*
X109339367Y-78132254D01*
X109346039Y-78126343D01*
X109576599Y-77945711D01*
X109583953Y-77940636D01*
X109630926Y-77912240D01*
X109834599Y-77789115D01*
X109842493Y-77784971D01*
X110109604Y-77664754D01*
X110117931Y-77661597D01*
X110397568Y-77574458D01*
X110406211Y-77572328D01*
X110694328Y-77519528D01*
X110703176Y-77518454D01*
X110997768Y-77500634D01*
X111002236Y-77500500D01*
X111065892Y-77500500D01*
X204934108Y-77500500D01*
X204997764Y-77500500D01*
X205002231Y-77500634D01*
G37*
%TD.AperFunction*%
%TD*%
M02*
