M48
; DRILL file {KiCad 9.0.6} date 2026-03-23T14:47:46-0400
; FORMAT={-:-/ absolute / metric / decimal}
; #@! TF.CreationDate,2026-03-23T14:47:46-04:00
; #@! TF.GenerationSoftware,Kicad,Pcbnew,9.0.6
; #@! TF.FileFunction,Plated,1,4,PTH
FMAT,2
METRIC
; #@! TA.AperFunction,Plated,PTH,ViaDrill
T1C0.300
; #@! TA.AperFunction,Plated,PTH,ComponentDrill
T2C0.450
; #@! TA.AperFunction,Plated,PTH,ComponentDrill
T3C0.700
; #@! TA.AperFunction,Plated,PTH,ComponentDrill
T4C2.000
%
G90
G05
T1
X5.1Y42.6
X5.27Y24.5
X5.5Y55.3
X5.8Y3.1
X10.1Y20.9
X11.7Y13.3
X11.7Y12.8
X12.8Y16.0
X14.2Y17.4
X15.45Y18.65
X17.1Y17.5
X17.1Y16.1
X17.863Y20.463
X19.7Y21.6
X20.9Y37.4
X20.9Y3.4
X21.0Y44.6
X21.0Y30.0
X21.125Y51.925
X21.4Y22.25
X25.6Y20.0
X27.0Y56.2
X28.15Y37.375
X29.8Y12.2
X30.4Y44.6
X30.7Y30.2
X30.7Y2.6
X30.85Y52.525
X32.7Y35.25
X35.25Y22.875
X36.3Y10.8
X37.3Y40.325
X38.0Y16.5
X39.5Y47.975
X40.1Y24.1
X40.4Y55.9
X43.65Y25.2
X45.0Y43.0
X45.0Y42.0
X45.0Y41.0
X45.0Y40.0
X45.0Y38.5
X45.0Y37.5
X45.0Y36.5
X45.0Y35.5
X45.0Y34.5
X45.0Y33.5
X45.0Y32.5
X45.0Y31.5
X45.0Y30.0
X45.0Y29.0
X45.0Y28.0
X45.0Y27.0
X45.4Y45.1
X45.4Y43.5
X45.4Y42.5
X45.4Y41.5
X45.4Y40.5
X45.4Y39.0
X45.4Y38.0
X45.4Y37.0
X45.4Y36.0
X45.4Y34.0
X45.4Y33.0
X45.4Y32.0
X45.4Y31.0
X45.4Y29.5
X45.4Y28.5
X45.4Y27.5
X45.4Y26.5
X45.8Y25.65
X45.8Y10.6
X46.8Y22.1
X47.0Y42.4
X47.5Y26.9
X47.7Y42.2
X48.4Y52.9
X48.5Y42.4
X48.5Y27.7
X48.5Y26.1
X50.0Y47.6
X50.0Y41.3
X50.0Y30.7
X50.449Y1.9
X51.0Y25.2
X51.4Y27.5
X51.5Y42.3
X51.9Y16.2
X52.2Y27.5
X53.275Y20.46
X53.9Y44.5
X54.1Y58.7
X54.6Y43.5
X54.6Y42.5
X54.6Y41.5
X54.6Y40.5
X54.6Y39.0
X54.6Y38.0
X54.6Y37.0
X54.6Y36.0
X54.6Y33.95
X54.6Y32.95
X54.6Y31.95
X54.6Y30.95
X54.6Y29.45
X54.6Y28.45
X54.6Y27.45
X54.6Y26.45
X55.0Y43.0
X55.0Y42.0
X55.0Y41.0
X55.0Y40.0
X55.0Y38.5
X55.0Y37.5
X55.0Y36.5
X55.0Y35.5
X55.0Y34.45
X55.0Y33.45
X55.0Y32.45
X55.0Y31.45
X55.0Y29.95
X55.0Y28.95
X55.0Y27.95
X55.0Y26.95
X56.0Y10.5
X56.5Y25.3
X57.8Y56.5
X59.975Y47.925
X61.6Y22.45
X63.375Y12.345
X64.6Y40.2
X65.525Y52.25
X67.3Y30.2
X67.4Y2.1
X67.981Y22.538
X68.8Y44.55
X69.975Y35.275
X70.3Y19.3
X70.5Y8.6
X72.2Y55.2
X73.725Y37.325
X73.9Y22.9
X75.2Y12.1
X76.0Y3.5
X76.7Y17.9
X77.0Y59.1
X77.767Y44.706
X78.5Y21.5
X78.725Y52.325
X79.2Y37.4
X79.5Y30.2
X80.2Y16.2
X82.5Y15.0
X82.7Y11.2
X84.7Y15.4
X84.7Y8.9
X86.252Y55.048
X86.4Y14.4
X86.7Y10.0
X86.7Y6.4
X89.4Y14.0
X90.6Y52.2
X90.88Y15.885
X93.4Y54.3
X93.5Y42.2
X93.7Y31.3
X94.3Y18.8
X98.2Y57.5
X98.5Y2.3
X98.6Y13.7
X99.049Y34.823
T2
X79.3Y11.1
X80.0Y11.8
X80.0Y10.4
T3
X89.0Y11.1
X90.0Y12.1
X90.0Y10.1
T4
X80.0Y2.0
X90.0Y2.0
M30
