%TF.GenerationSoftware,KiCad,Pcbnew,9.0.5*%
%TF.CreationDate,2025-11-03T13:17:14-05:00*%
%TF.ProjectId,ephys-test-module-64,65706879-732d-4746-9573-742d6d6f6475,D*%
%TF.SameCoordinates,Original*%
%TF.FileFunction,Copper,L2,Bot*%
%TF.FilePolarity,Positive*%
%FSLAX46Y46*%
G04 Gerber Fmt 4.6, Leading zero omitted, Abs format (unit mm)*
G04 Created by KiCad (PCBNEW 9.0.5) date 2025-11-03 13:17:14*
%MOMM*%
%LPD*%
G01*
G04 APERTURE LIST*
G04 Aperture macros list*
%AMRoundRect*
0 Rectangle with rounded corners*
0 $1 Rounding radius*
0 $2 $3 $4 $5 $6 $7 $8 $9 X,Y pos of 4 corners*
0 Add a 4 corners polygon primitive as box body*
4,1,4,$2,$3,$4,$5,$6,$7,$8,$9,$2,$3,0*
0 Add four circle primitives for the rounded corners*
1,1,$1+$1,$2,$3*
1,1,$1+$1,$4,$5*
1,1,$1+$1,$6,$7*
1,1,$1+$1,$8,$9*
0 Add four rect primitives between the rounded corners*
20,1,$1+$1,$2,$3,$4,$5,0*
20,1,$1+$1,$4,$5,$6,$7,0*
20,1,$1+$1,$6,$7,$8,$9,0*
20,1,$1+$1,$8,$9,$2,$3,0*%
G04 Aperture macros list end*
%TA.AperFunction,ComponentPad*%
%ADD10C,4.800000*%
%TD*%
%TA.AperFunction,ComponentPad*%
%ADD11RoundRect,0.200000X-0.282843X0.000000X0.000000X-0.282843X0.282843X0.000000X0.000000X0.282843X0*%
%TD*%
%TA.AperFunction,ComponentPad*%
%ADD12C,0.800000*%
%TD*%
%TA.AperFunction,ComponentPad*%
%ADD13RoundRect,0.275000X0.388909X0.000000X0.000000X0.388909X-0.388909X0.000000X0.000000X-0.388909X0*%
%TD*%
%TA.AperFunction,ComponentPad*%
%ADD14C,1.100000*%
%TD*%
%TA.AperFunction,SMDPad,CuDef*%
%ADD15R,2.273000X0.410000*%
%TD*%
%TA.AperFunction,ViaPad*%
%ADD16C,0.500000*%
%TD*%
%TA.AperFunction,Conductor*%
%ADD17C,0.400000*%
%TD*%
%TA.AperFunction,Conductor*%
%ADD18C,0.200000*%
%TD*%
%TA.AperFunction,Conductor*%
%ADD19C,0.150000*%
%TD*%
G04 APERTURE END LIST*
D10*
%TO.P,TP1,1,1*%
%TO.N,/Headstage Interface/E_{stim}*%
X153000000Y-134000000D03*
%TD*%
%TO.P,TP2,1,1*%
%TO.N,GND*%
X163000000Y-134000000D03*
%TD*%
%TO.P,TP4,1,1*%
%TO.N,GND*%
X163000000Y-80000000D03*
%TD*%
D11*
%TO.P,LD1,1,A*%
%TO.N,/Headstage Interface/A*%
X153000000Y-85300000D03*
D12*
%TO.P,LD1,2,NC*%
%TO.N,unconnected-(LD1-NC-Pad2)*%
X152300000Y-86000000D03*
%TO.P,LD1,3,C*%
%TO.N,/Headstage Interface/K_{0}*%
X153000000Y-86700000D03*
%TD*%
D13*
%TO.P,LD2,1,A*%
%TO.N,/Headstage Interface/A*%
X163000000Y-87000000D03*
D14*
%TO.P,LD2,2,NC*%
%TO.N,unconnected-(LD2-NC-Pad2)*%
X164000000Y-86000000D03*
%TO.P,LD2,3,C*%
%TO.N,/Headstage Interface/K_{1}*%
X163000000Y-85000000D03*
%TD*%
D10*
%TO.P,TP3,1,1*%
%TO.N,/Headstage Interface/A*%
X153000000Y-80000000D03*
%TD*%
D15*
%TO.P,J2,1,Pin_1*%
%TO.N,GND*%
X125863500Y-84400000D03*
%TO.P,J2,2,Pin_2*%
X120136500Y-84400000D03*
%TO.P,J2,3,Pin_3*%
X125863500Y-85200000D03*
%TO.P,J2,4,Pin_4*%
X120136500Y-85200000D03*
%TO.P,J2,5,Pin_5*%
%TO.N,/Headstage Interface/B4.E_{0}*%
X125863500Y-86000000D03*
%TO.P,J2,6,Pin_6*%
%TO.N,/Headstage Interface/B0.E_{0}*%
X120136500Y-86000000D03*
%TO.P,J2,7,Pin_7*%
%TO.N,/Headstage Interface/B4.E_{1}*%
X125863500Y-86800000D03*
%TO.P,J2,8,Pin_8*%
%TO.N,/Headstage Interface/B0.E_{1}*%
X120136500Y-86800000D03*
%TO.P,J2,9,Pin_9*%
%TO.N,/Headstage Interface/B4.E_{2}*%
X125863500Y-87600000D03*
%TO.P,J2,10,Pin_10*%
%TO.N,/Headstage Interface/B0.E_{2}*%
X120136500Y-87600000D03*
%TO.P,J2,11,Pin_11*%
%TO.N,/Headstage Interface/B4.E_{3}*%
X125863500Y-88400000D03*
%TO.P,J2,12,Pin_12*%
%TO.N,/Headstage Interface/B0.E_{3}*%
X120136500Y-88400000D03*
%TO.P,J2,13,Pin_13*%
%TO.N,/Headstage Interface/B4.E_{4}*%
X125863500Y-89200000D03*
%TO.P,J2,14,Pin_14*%
%TO.N,/Headstage Interface/B0.E_{4}*%
X120136500Y-89200000D03*
%TO.P,J2,15,Pin_15*%
%TO.N,/Headstage Interface/B4.E_{5}*%
X125863500Y-90000000D03*
%TO.P,J2,16,Pin_16*%
%TO.N,/Headstage Interface/B0.E_{5}*%
X120136500Y-90000000D03*
%TO.P,J2,17,Pin_17*%
%TO.N,/Headstage Interface/B4.E_{6}*%
X125863500Y-90800000D03*
%TO.P,J2,18,Pin_18*%
%TO.N,/Headstage Interface/B0.E_{6}*%
X120136500Y-90800000D03*
%TO.P,J2,19,Pin_19*%
%TO.N,/Headstage Interface/B4.E_{7}*%
X125863500Y-91600000D03*
%TO.P,J2,20,Pin_20*%
%TO.N,/Headstage Interface/B0.E_{7}*%
X120136500Y-91600000D03*
%TO.P,J2,21,Pin_21*%
%TO.N,GND*%
X125863500Y-92400000D03*
%TO.P,J2,22,Pin_22*%
X120136500Y-92400000D03*
%TO.P,J2,23,Pin_23*%
%TO.N,/Headstage Interface/B5.E_{0}*%
X125863500Y-93200000D03*
%TO.P,J2,24,Pin_24*%
%TO.N,/Headstage Interface/B1.E_{0}*%
X120136500Y-93200000D03*
%TO.P,J2,25,Pin_25*%
%TO.N,/Headstage Interface/B5.E_{1}*%
X125863500Y-94000000D03*
%TO.P,J2,26,Pin_26*%
%TO.N,/Headstage Interface/B1.E_{1}*%
X120136500Y-94000000D03*
%TO.P,J2,27,Pin_27*%
%TO.N,/Headstage Interface/B5.E_{2}*%
X125863500Y-94800000D03*
%TO.P,J2,28,Pin_28*%
%TO.N,/Headstage Interface/B1.E_{2}*%
X120136500Y-94800000D03*
%TO.P,J2,29,Pin_29*%
%TO.N,/Headstage Interface/B5.E_{3}*%
X125863500Y-95600000D03*
%TO.P,J2,30,Pin_30*%
%TO.N,/Headstage Interface/B1.E_{3}*%
X120136500Y-95600000D03*
%TO.P,J2,31,Pin_31*%
%TO.N,/Headstage Interface/B5.E_{4}*%
X125863500Y-96400000D03*
%TO.P,J2,32,Pin_32*%
%TO.N,/Headstage Interface/B1.E_{4}*%
X120136500Y-96400000D03*
%TO.P,J2,33,Pin_33*%
%TO.N,/Headstage Interface/B5.E_{5}*%
X125863500Y-97200000D03*
%TO.P,J2,34,Pin_34*%
%TO.N,/Headstage Interface/B1.E_{5}*%
X120136500Y-97200000D03*
%TO.P,J2,35,Pin_35*%
%TO.N,/Headstage Interface/B5.E_{6}*%
X125863500Y-98000000D03*
%TO.P,J2,36,Pin_36*%
%TO.N,/Headstage Interface/B1.E_{6}*%
X120136500Y-98000000D03*
%TO.P,J2,37,Pin_37*%
%TO.N,/Headstage Interface/B5.E_{7}*%
X125863500Y-98800000D03*
%TO.P,J2,38,Pin_38*%
%TO.N,/Headstage Interface/B1.E_{7}*%
X120136500Y-98800000D03*
%TO.P,J2,39,Pin_39*%
%TO.N,GND*%
X125863500Y-99600000D03*
%TO.P,J2,40,Pin_40*%
X120136500Y-99600000D03*
%TO.P,J2,41,Pin_41*%
%TO.N,/Headstage Interface/B6.E_{0}*%
X125863500Y-100400000D03*
%TO.P,J2,42,Pin_42*%
%TO.N,/Headstage Interface/B2.E_{0}*%
X120136500Y-100400000D03*
%TO.P,J2,43,Pin_43*%
%TO.N,/Headstage Interface/B6.E_{1}*%
X125863500Y-101200000D03*
%TO.P,J2,44,Pin_44*%
%TO.N,/Headstage Interface/B2.E_{1}*%
X120136500Y-101200000D03*
%TO.P,J2,45,Pin_45*%
%TO.N,/Headstage Interface/B6.E_{2}*%
X125863500Y-102000000D03*
%TO.P,J2,46,Pin_46*%
%TO.N,/Headstage Interface/B2.E_{2}*%
X120136500Y-102000000D03*
%TO.P,J2,47,Pin_47*%
%TO.N,/Headstage Interface/B6.E_{3}*%
X125863500Y-102800000D03*
%TO.P,J2,48,Pin_48*%
%TO.N,/Headstage Interface/B2.E_{3}*%
X120136500Y-102800000D03*
%TO.P,J2,49,Pin_49*%
%TO.N,/Headstage Interface/B6.E_{4}*%
X125863500Y-103600000D03*
%TO.P,J2,50,Pin_50*%
%TO.N,/Headstage Interface/B2.E_{4}*%
X120136500Y-103600000D03*
%TO.P,J2,51,Pin_51*%
%TO.N,/Headstage Interface/B6.E_{5}*%
X125863500Y-104400000D03*
%TO.P,J2,52,Pin_52*%
%TO.N,/Headstage Interface/B2.E_{5}*%
X120136500Y-104400000D03*
%TO.P,J2,53,Pin_53*%
%TO.N,/Headstage Interface/B6.E_{6}*%
X125863500Y-105200000D03*
%TO.P,J2,54,Pin_54*%
%TO.N,/Headstage Interface/B2.E_{6}*%
X120136500Y-105200000D03*
%TO.P,J2,55,Pin_55*%
%TO.N,/Headstage Interface/B6.E_{7}*%
X125863500Y-106000000D03*
%TO.P,J2,56,Pin_56*%
%TO.N,/Headstage Interface/B2.E_{7}*%
X120136500Y-106000000D03*
%TO.P,J2,57,Pin_57*%
%TO.N,GND*%
X125863500Y-106800000D03*
%TO.P,J2,58,Pin_58*%
X120136500Y-106800000D03*
%TO.P,J2,59,Pin_59*%
%TO.N,/Headstage Interface/B7.E_{0}*%
X125863500Y-107600000D03*
%TO.P,J2,60,Pin_60*%
%TO.N,/Headstage Interface/B3.E_{0}*%
X120136500Y-107600000D03*
%TO.P,J2,61,Pin_61*%
%TO.N,/Headstage Interface/B7.E_{1}*%
X125863500Y-108400000D03*
%TO.P,J2,62,Pin_62*%
%TO.N,/Headstage Interface/B3.E_{1}*%
X120136500Y-108400000D03*
%TO.P,J2,63,Pin_63*%
%TO.N,/Headstage Interface/B7.E_{2}*%
X125863500Y-109200000D03*
%TO.P,J2,64,Pin_64*%
%TO.N,/Headstage Interface/B3.E_{2}*%
X120136500Y-109200000D03*
%TO.P,J2,65,Pin_65*%
%TO.N,/Headstage Interface/B7.E_{3}*%
X125863500Y-110000000D03*
%TO.P,J2,66,Pin_66*%
%TO.N,/Headstage Interface/B3.E_{3}*%
X120136500Y-110000000D03*
%TO.P,J2,67,Pin_67*%
%TO.N,/Headstage Interface/B7.E_{4}*%
X125863500Y-110800000D03*
%TO.P,J2,68,Pin_68*%
%TO.N,/Headstage Interface/B3.E_{4}*%
X120136500Y-110800000D03*
%TO.P,J2,69,Pin_69*%
%TO.N,/Headstage Interface/B7.E_{5}*%
X125863500Y-111600000D03*
%TO.P,J2,70,Pin_70*%
%TO.N,/Headstage Interface/B3.E_{5}*%
X120136500Y-111600000D03*
%TO.P,J2,71,Pin_71*%
%TO.N,/Headstage Interface/B7.E_{6}*%
X125863500Y-112400000D03*
%TO.P,J2,72,Pin_72*%
%TO.N,/Headstage Interface/B3.E_{6}*%
X120136500Y-112400000D03*
%TO.P,J2,73,Pin_73*%
%TO.N,/Headstage Interface/B7.E_{7}*%
X125863500Y-113200000D03*
%TO.P,J2,74,Pin_74*%
%TO.N,/Headstage Interface/B3.E_{7}*%
X120136500Y-113200000D03*
%TO.P,J2,75,Pin_75*%
%TO.N,GND*%
X125863500Y-114000000D03*
%TO.P,J2,76,Pin_76*%
X120136500Y-114000000D03*
%TO.P,J2,77,Pin_77*%
%TO.N,/Test Signal Interface/SCL*%
X125863500Y-114800000D03*
%TO.P,J2,78,Pin_78*%
%TO.N,/Test Signal Interface/WP*%
X120136500Y-114800000D03*
%TO.P,J2,79,Pin_79*%
%TO.N,/Test Signal Interface/SDA*%
X125863500Y-115600000D03*
%TO.P,J2,80,Pin_80*%
%TO.N,VCC*%
X120136500Y-115600000D03*
%TD*%
%TO.P,J3,1,Pin_1*%
%TO.N,GND*%
X195863500Y-84400000D03*
%TO.P,J3,2,Pin_2*%
X190136500Y-84400000D03*
%TO.P,J3,3,Pin_3*%
X195863500Y-85200000D03*
%TO.P,J3,4,Pin_4*%
X190136500Y-85200000D03*
%TO.P,J3,5,Pin_5*%
%TO.N,/Headstage Interface/B12.E_{0}*%
X195863500Y-86000000D03*
%TO.P,J3,6,Pin_6*%
%TO.N,/Headstage Interface/B8.E_{0}*%
X190136500Y-86000000D03*
%TO.P,J3,7,Pin_7*%
%TO.N,/Headstage Interface/B12.E_{1}*%
X195863500Y-86800000D03*
%TO.P,J3,8,Pin_8*%
%TO.N,/Headstage Interface/B8.E_{1}*%
X190136500Y-86800000D03*
%TO.P,J3,9,Pin_9*%
%TO.N,/Headstage Interface/B12.E_{2}*%
X195863500Y-87600000D03*
%TO.P,J3,10,Pin_10*%
%TO.N,/Headstage Interface/B8.E_{2}*%
X190136500Y-87600000D03*
%TO.P,J3,11,Pin_11*%
%TO.N,/Headstage Interface/B12.E_{3}*%
X195863500Y-88400000D03*
%TO.P,J3,12,Pin_12*%
%TO.N,/Headstage Interface/B8.E_{3}*%
X190136500Y-88400000D03*
%TO.P,J3,13,Pin_13*%
%TO.N,/Headstage Interface/B12.E_{4}*%
X195863500Y-89200000D03*
%TO.P,J3,14,Pin_14*%
%TO.N,/Headstage Interface/B8.E_{4}*%
X190136500Y-89200000D03*
%TO.P,J3,15,Pin_15*%
%TO.N,/Headstage Interface/B12.E_{5}*%
X195863500Y-90000000D03*
%TO.P,J3,16,Pin_16*%
%TO.N,/Headstage Interface/B8.E_{5}*%
X190136500Y-90000000D03*
%TO.P,J3,17,Pin_17*%
%TO.N,/Headstage Interface/B12.E_{6}*%
X195863500Y-90800000D03*
%TO.P,J3,18,Pin_18*%
%TO.N,/Headstage Interface/B8.E_{6}*%
X190136500Y-90800000D03*
%TO.P,J3,19,Pin_19*%
%TO.N,/Headstage Interface/B12.E_{7}*%
X195863500Y-91600000D03*
%TO.P,J3,20,Pin_20*%
%TO.N,/Headstage Interface/B8.E_{7}*%
X190136500Y-91600000D03*
%TO.P,J3,21,Pin_21*%
%TO.N,GND*%
X195863500Y-92400000D03*
%TO.P,J3,22,Pin_22*%
X190136500Y-92400000D03*
%TO.P,J3,23,Pin_23*%
%TO.N,/Headstage Interface/B13.E_{0}*%
X195863500Y-93200000D03*
%TO.P,J3,24,Pin_24*%
%TO.N,/Headstage Interface/B9.E_{0}*%
X190136500Y-93200000D03*
%TO.P,J3,25,Pin_25*%
%TO.N,/Headstage Interface/B13.E_{1}*%
X195863500Y-94000000D03*
%TO.P,J3,26,Pin_26*%
%TO.N,/Headstage Interface/B9.E_{1}*%
X190136500Y-94000000D03*
%TO.P,J3,27,Pin_27*%
%TO.N,/Headstage Interface/B13.E_{2}*%
X195863500Y-94800000D03*
%TO.P,J3,28,Pin_28*%
%TO.N,/Headstage Interface/B9.E_{2}*%
X190136500Y-94800000D03*
%TO.P,J3,29,Pin_29*%
%TO.N,/Headstage Interface/B13.E_{3}*%
X195863500Y-95600000D03*
%TO.P,J3,30,Pin_30*%
%TO.N,/Headstage Interface/B9.E_{3}*%
X190136500Y-95600000D03*
%TO.P,J3,31,Pin_31*%
%TO.N,/Headstage Interface/B13.E_{4}*%
X195863500Y-96400000D03*
%TO.P,J3,32,Pin_32*%
%TO.N,/Headstage Interface/B9.E_{4}*%
X190136500Y-96400000D03*
%TO.P,J3,33,Pin_33*%
%TO.N,/Headstage Interface/B13.E_{5}*%
X195863500Y-97200000D03*
%TO.P,J3,34,Pin_34*%
%TO.N,/Headstage Interface/B9.E_{5}*%
X190136500Y-97200000D03*
%TO.P,J3,35,Pin_35*%
%TO.N,/Headstage Interface/B13.E_{6}*%
X195863500Y-98000000D03*
%TO.P,J3,36,Pin_36*%
%TO.N,/Headstage Interface/B9.E_{6}*%
X190136500Y-98000000D03*
%TO.P,J3,37,Pin_37*%
%TO.N,/Headstage Interface/B13.E_{7}*%
X195863500Y-98800000D03*
%TO.P,J3,38,Pin_38*%
%TO.N,/Headstage Interface/B9.E_{7}*%
X190136500Y-98800000D03*
%TO.P,J3,39,Pin_39*%
%TO.N,GND*%
X195863500Y-99600000D03*
%TO.P,J3,40,Pin_40*%
X190136500Y-99600000D03*
%TO.P,J3,41,Pin_41*%
%TO.N,/Headstage Interface/B14.E_{0}*%
X195863500Y-100400000D03*
%TO.P,J3,42,Pin_42*%
%TO.N,/Headstage Interface/B10.E_{0}*%
X190136500Y-100400000D03*
%TO.P,J3,43,Pin_43*%
%TO.N,/Headstage Interface/B14.E_{1}*%
X195863500Y-101200000D03*
%TO.P,J3,44,Pin_44*%
%TO.N,/Headstage Interface/B10.E_{1}*%
X190136500Y-101200000D03*
%TO.P,J3,45,Pin_45*%
%TO.N,/Headstage Interface/B14.E_{2}*%
X195863500Y-102000000D03*
%TO.P,J3,46,Pin_46*%
%TO.N,/Headstage Interface/B10.E_{2}*%
X190136500Y-102000000D03*
%TO.P,J3,47,Pin_47*%
%TO.N,/Headstage Interface/B14.E_{3}*%
X195863500Y-102800000D03*
%TO.P,J3,48,Pin_48*%
%TO.N,/Headstage Interface/B10.E_{3}*%
X190136500Y-102800000D03*
%TO.P,J3,49,Pin_49*%
%TO.N,/Headstage Interface/B14.E_{4}*%
X195863500Y-103600000D03*
%TO.P,J3,50,Pin_50*%
%TO.N,/Headstage Interface/B10.E_{4}*%
X190136500Y-103600000D03*
%TO.P,J3,51,Pin_51*%
%TO.N,/Headstage Interface/B14.E_{5}*%
X195863500Y-104400000D03*
%TO.P,J3,52,Pin_52*%
%TO.N,/Headstage Interface/B10.E_{5}*%
X190136500Y-104400000D03*
%TO.P,J3,53,Pin_53*%
%TO.N,/Headstage Interface/B14.E_{6}*%
X195863500Y-105200000D03*
%TO.P,J3,54,Pin_54*%
%TO.N,/Headstage Interface/B10.E_{6}*%
X190136500Y-105200000D03*
%TO.P,J3,55,Pin_55*%
%TO.N,/Headstage Interface/B14.E_{7}*%
X195863500Y-106000000D03*
%TO.P,J3,56,Pin_56*%
%TO.N,/Headstage Interface/B10.E_{7}*%
X190136500Y-106000000D03*
%TO.P,J3,57,Pin_57*%
%TO.N,GND*%
X195863500Y-106800000D03*
%TO.P,J3,58,Pin_58*%
X190136500Y-106800000D03*
%TO.P,J3,59,Pin_59*%
%TO.N,/Headstage Interface/B15.E_{0}*%
X195863500Y-107600000D03*
%TO.P,J3,60,Pin_60*%
%TO.N,/Headstage Interface/B11.E_{0}*%
X190136500Y-107600000D03*
%TO.P,J3,61,Pin_61*%
%TO.N,/Headstage Interface/B15.E_{1}*%
X195863500Y-108400000D03*
%TO.P,J3,62,Pin_62*%
%TO.N,/Headstage Interface/B11.E_{1}*%
X190136500Y-108400000D03*
%TO.P,J3,63,Pin_63*%
%TO.N,/Headstage Interface/B15.E_{2}*%
X195863500Y-109200000D03*
%TO.P,J3,64,Pin_64*%
%TO.N,/Headstage Interface/B11.E_{2}*%
X190136500Y-109200000D03*
%TO.P,J3,65,Pin_65*%
%TO.N,/Headstage Interface/B15.E_{3}*%
X195863500Y-110000000D03*
%TO.P,J3,66,Pin_66*%
%TO.N,/Headstage Interface/B11.E_{3}*%
X190136500Y-110000000D03*
%TO.P,J3,67,Pin_67*%
%TO.N,/Headstage Interface/B15.E_{4}*%
X195863500Y-110800000D03*
%TO.P,J3,68,Pin_68*%
%TO.N,/Headstage Interface/B11.E_{4}*%
X190136500Y-110800000D03*
%TO.P,J3,69,Pin_69*%
%TO.N,/Headstage Interface/B15.E_{5}*%
X195863500Y-111600000D03*
%TO.P,J3,70,Pin_70*%
%TO.N,/Headstage Interface/B11.E_{5}*%
X190136500Y-111600000D03*
%TO.P,J3,71,Pin_71*%
%TO.N,/Headstage Interface/B15.E_{6}*%
X195863500Y-112400000D03*
%TO.P,J3,72,Pin_72*%
%TO.N,/Headstage Interface/B11.E_{6}*%
X190136500Y-112400000D03*
%TO.P,J3,73,Pin_73*%
%TO.N,/Headstage Interface/B15.E_{7}*%
X195863500Y-113200000D03*
%TO.P,J3,74,Pin_74*%
%TO.N,/Headstage Interface/B11.E_{7}*%
X190136500Y-113200000D03*
%TO.P,J3,75,Pin_75*%
%TO.N,GND*%
X195863500Y-114000000D03*
%TO.P,J3,76,Pin_76*%
X190136500Y-114000000D03*
%TO.P,J3,77,Pin_77*%
%TO.N,REF*%
X195863500Y-114800000D03*
%TO.P,J3,78,Pin_78*%
%TO.N,unconnected-(J3-Pin_78-Pad78)*%
X190136500Y-114800000D03*
%TO.P,J3,79,Pin_79*%
%TO.N,unconnected-(J3-Pin_79-Pad79)*%
X195863500Y-115600000D03*
%TO.P,J3,80,Pin_80*%
%TO.N,unconnected-(J3-Pin_80-Pad80)*%
X190136500Y-115600000D03*
%TD*%
D16*
%TO.N,GND*%
X157900000Y-95700000D03*
X169600000Y-114550000D03*
X202300000Y-124800000D03*
X145300000Y-96675000D03*
X172600000Y-96800000D03*
X113500000Y-81700000D03*
X175981000Y-114462000D03*
X128900000Y-99600000D03*
X151650000Y-111800000D03*
X143250000Y-114125000D03*
X113269807Y-112500000D03*
X153400000Y-91900000D03*
X133600000Y-117000000D03*
X147500000Y-89025000D03*
X187500000Y-92500000D03*
X135000000Y-80800000D03*
X164500000Y-111700000D03*
X173525000Y-84750000D03*
X181725000Y-99675000D03*
X148400000Y-81100000D03*
X113800000Y-133900000D03*
X172997000Y-124013000D03*
X138700000Y-106800000D03*
X187200000Y-99600000D03*
X176800000Y-92450000D03*
X179700000Y-132600000D03*
X203200000Y-107500000D03*
X138400000Y-92400000D03*
X186725000Y-84675000D03*
X149375000Y-122707000D03*
X175300000Y-106800000D03*
X187500000Y-106800000D03*
X136150000Y-99625000D03*
X128900000Y-133600000D03*
X140700000Y-101750000D03*
X113100000Y-94400000D03*
X177975000Y-101725000D03*
X158000000Y-106300000D03*
X159400000Y-113200000D03*
X203000000Y-80900000D03*
X159177000Y-121916000D03*
X153800000Y-111350000D03*
X155250000Y-94650000D03*
X167975000Y-89075000D03*
X129125000Y-85075000D03*
X193900000Y-134700000D03*
X148100000Y-112900000D03*
X187904000Y-114173000D03*
X138850000Y-84475000D03*
X184300000Y-116500000D03*
X202900000Y-91100000D03*
X129000000Y-107000000D03*
X129400000Y-114750000D03*
X129000000Y-92400000D03*
X155250000Y-109400000D03*
X184900000Y-80200000D03*
X174067445Y-80221652D03*
X161900000Y-92500000D03*
X141900000Y-133000000D03*
%TO.N,VCC*%
X120800000Y-121000000D03*
X123450000Y-118350000D03*
X119700000Y-124200000D03*
X119700000Y-123700000D03*
X122200000Y-119600000D03*
%TO.N,/Headstage Interface/B7.E_{7}*%
X150100000Y-110500000D03*
%TO.N,/Headstage Interface/B5.E_{0}*%
X149450000Y-98000000D03*
%TO.N,/Headstage Interface/B5.E_{2}*%
X149450000Y-99000000D03*
%TO.N,/Headstage Interface/B7.E_{3}*%
X150050000Y-108500000D03*
%TO.N,/Headstage Interface/B7.E_{1}*%
X150050000Y-107500000D03*
%TO.N,/Headstage Interface/B5.E_{5}*%
X150050000Y-100500000D03*
%TO.N,/Headstage Interface/B4.E_{7}*%
X150050000Y-97000000D03*
%TO.N,/Headstage Interface/B4.E_{5}*%
X150050000Y-96000000D03*
%TO.N,/Headstage Interface/B4.E_{2}*%
X149500000Y-94500000D03*
%TO.N,/Headstage Interface/B6.E_{2}*%
X149450000Y-103500000D03*
%TO.N,/Headstage Interface/E_{stim}*%
X154020000Y-114223000D03*
%TO.N,/Headstage Interface/B4.E_{3}*%
X150000000Y-95000000D03*
%TO.N,/Headstage Interface/B7.E_{5}*%
X150100000Y-109500000D03*
%TO.N,/Headstage Interface/B7.E_{0}*%
X149450000Y-107000000D03*
%TO.N,/Headstage Interface/B7.E_{4}*%
X149500000Y-109000000D03*
%TO.N,/Headstage Interface/B4.E_{6}*%
X149450000Y-96500000D03*
%TO.N,/Headstage Interface/B6.E_{5}*%
X150050000Y-105000000D03*
%TO.N,/Headstage Interface/B7.E_{6}*%
X149500000Y-110000000D03*
%TO.N,/Headstage Interface/B7.E_{2}*%
X149450000Y-108000000D03*
%TO.N,/Headstage Interface/B5.E_{7}*%
X150050000Y-101500000D03*
%TO.N,/Headstage Interface/B6.E_{7}*%
X150050000Y-106000000D03*
%TO.N,/Headstage Interface/B6.E_{0}*%
X149450000Y-102500000D03*
%TO.N,/Headstage Interface/B5.E_{1}*%
X150050000Y-98500000D03*
%TO.N,/Headstage Interface/B4.E_{4}*%
X149450000Y-95500000D03*
%TO.N,/Headstage Interface/B4.E_{0}*%
X149850000Y-93200000D03*
%TO.N,REF*%
X193464000Y-115836000D03*
X188054000Y-115836000D03*
X162360000Y-111510000D03*
%TO.N,/Headstage Interface/B6.E_{6}*%
X149450000Y-105500000D03*
%TO.N,/Headstage Interface/B6.E_{1}*%
X150050000Y-103000000D03*
%TO.N,/Headstage Interface/B5.E_{6}*%
X149450000Y-101000000D03*
%TO.N,/Headstage Interface/B6.E_{4}*%
X149450000Y-104500000D03*
%TO.N,/Headstage Interface/B5.E_{4}*%
X149450000Y-100000000D03*
%TO.N,/Headstage Interface/B5.E_{3}*%
X150050000Y-99500000D03*
%TO.N,/Headstage Interface/B4.E_{1}*%
X150150000Y-94000000D03*
%TO.N,/Headstage Interface/B6.E_{3}*%
X150050000Y-104000000D03*
%TO.N,/Headstage Interface/B8.E_{2}*%
X165850000Y-94500000D03*
%TO.N,/Test Signal Interface/SDA*%
X125863500Y-116536500D03*
X125100000Y-120900000D03*
X125100000Y-119500000D03*
%TO.N,/Headstage Interface/B10.E_{4}*%
X165950000Y-104550000D03*
%TO.N,/Headstage Interface/B8.E_{7}*%
X166500000Y-97000000D03*
%TO.N,/Test Signal Interface/SCL*%
X127700000Y-115400000D03*
%TO.N,/Headstage Interface/B8.E_{3}*%
X166450000Y-95000000D03*
%TO.N,/Headstage Interface/B11.E_{5}*%
X166550000Y-109550000D03*
%TO.N,/Headstage Interface/B8.E_{4}*%
X165900000Y-95500000D03*
%TO.N,/Headstage Interface/B9.E_{1}*%
X166500000Y-98500000D03*
%TO.N,/Headstage Interface/B8.E_{0}*%
X165850000Y-93500000D03*
%TO.N,/Headstage Interface/B9.E_{0}*%
X165900000Y-98000000D03*
%TO.N,/Headstage Interface/B9.E_{5}*%
X166500000Y-100500000D03*
%TO.N,/Headstage Interface/B10.E_{3}*%
X166550000Y-104050000D03*
%TO.N,/Headstage Interface/B11.E_{4}*%
X166050000Y-109050000D03*
%TO.N,/Headstage Interface/B10.E_{1}*%
X166550000Y-103050000D03*
%TO.N,/Headstage Interface/B10.E_{2}*%
X165950000Y-103550000D03*
%TO.N,/Headstage Interface/B10.E_{7}*%
X166550000Y-106050000D03*
%TO.N,/Headstage Interface/B9.E_{3}*%
X166500000Y-99500000D03*
%TO.N,/Headstage Interface/B9.E_{4}*%
X165900000Y-100000000D03*
%TO.N,/Headstage Interface/B11.E_{0}*%
X166000000Y-107050000D03*
%TO.N,/Headstage Interface/B11.E_{6}*%
X165900000Y-110050000D03*
%TO.N,/Headstage Interface/B9.E_{6}*%
X165900000Y-101000000D03*
%TO.N,/Headstage Interface/B8.E_{1}*%
X166450000Y-94000000D03*
%TO.N,/Headstage Interface/B11.E_{1}*%
X166600000Y-107550000D03*
%TO.N,/Headstage Interface/B8.E_{6}*%
X165900000Y-96500000D03*
%TO.N,/Headstage Interface/B11.E_{3}*%
X166600000Y-108550000D03*
%TO.N,/Headstage Interface/B9.E_{7}*%
X166500000Y-101500000D03*
%TO.N,/Headstage Interface/B9.E_{2}*%
X165900000Y-99000000D03*
%TO.N,/Headstage Interface/B8.E_{5}*%
X166500000Y-96000000D03*
%TO.N,/Headstage Interface/B11.E_{7}*%
X166550000Y-110550000D03*
%TO.N,/Headstage Interface/B10.E_{6}*%
X165950000Y-105550000D03*
%TO.N,/Headstage Interface/B10.E_{0}*%
X165950000Y-102550000D03*
%TO.N,/Headstage Interface/B10.E_{5}*%
X166550000Y-105050000D03*
%TO.N,/Headstage Interface/B11.E_{2}*%
X166000000Y-108050000D03*
%TO.N,/Test Signal Interface/WP*%
X118100000Y-116100000D03*
%TD*%
D17*
%TO.N,VCC*%
X119700000Y-124200000D02*
X119700000Y-122100000D01*
X123450000Y-118350000D02*
X123450000Y-117550000D01*
X121500000Y-115600000D02*
X120136500Y-115600000D01*
X123450000Y-117550000D02*
X121500000Y-115600000D01*
X119700000Y-122100000D02*
X120800000Y-121000000D01*
X120800000Y-121000000D02*
X122200000Y-119600000D01*
X122200000Y-119600000D02*
X123450000Y-118350000D01*
D18*
%TO.N,/Headstage Interface/B7.E_{7}*%
X150100000Y-110500000D02*
X144400000Y-110500000D01*
X141700000Y-113200000D02*
X125863500Y-113200000D01*
X141700000Y-113200000D02*
X144400000Y-110500000D01*
%TO.N,/Headstage Interface/B5.E_{0}*%
X145500002Y-98000000D02*
X140700002Y-93200000D01*
X149450000Y-98000000D02*
X145500002Y-98000000D01*
X140700002Y-93200000D02*
X125863500Y-93200000D01*
%TO.N,/Headstage Interface/B5.E_{2}*%
X140087176Y-94800000D02*
X144287176Y-99000000D01*
X144287176Y-99000000D02*
X149450000Y-99000000D01*
X125863500Y-94800000D02*
X140087176Y-94800000D01*
%TO.N,/Headstage Interface/B7.E_{3}*%
X125863500Y-110000000D02*
X140999998Y-110000000D01*
X150050000Y-108500000D02*
X142499998Y-108500000D01*
X140999998Y-110000000D02*
X142499998Y-108500000D01*
%TO.N,/Headstage Interface/B7.E_{1}*%
X150050000Y-107500000D02*
X141500000Y-107500000D01*
X125863500Y-108400000D02*
X140600000Y-108400000D01*
X140600000Y-108400000D02*
X141500000Y-107500000D01*
%TO.N,/Headstage Interface/B5.E_{5}*%
X139187176Y-97200000D02*
X142487176Y-100500000D01*
X142487176Y-100500000D02*
X150050000Y-100500000D01*
X125863500Y-97200000D02*
X139187176Y-97200000D01*
%TO.N,/Headstage Interface/B4.E_{7}*%
X141400000Y-91600000D02*
X125863500Y-91600000D01*
X150050000Y-97000000D02*
X146800000Y-97000000D01*
X146800000Y-97000000D02*
X141400000Y-91600000D01*
%TO.N,/Headstage Interface/B4.E_{5}*%
X142000000Y-90000000D02*
X125863500Y-90000000D01*
X150050000Y-96000000D02*
X148000000Y-96000000D01*
X148000000Y-96000000D02*
X142000000Y-90000000D01*
%TO.N,/Headstage Interface/B4.E_{2}*%
X142600000Y-87600000D02*
X125863500Y-87600000D01*
X149500000Y-94500000D02*
X142600000Y-87600000D01*
%TO.N,/Headstage Interface/B6.E_{2}*%
X149450000Y-103500000D02*
X139199998Y-103500000D01*
X139199998Y-103500000D02*
X137699998Y-102000000D01*
X137699998Y-102000000D02*
X125863500Y-102000000D01*
%TO.N,/Headstage Interface/E_{stim}*%
X154020000Y-114223000D02*
X153000000Y-115243000D01*
X153000000Y-115243000D02*
X153000000Y-134000000D01*
%TO.N,/Headstage Interface/B4.E_{3}*%
X149100000Y-95000000D02*
X142500000Y-88400000D01*
X150000000Y-95000000D02*
X149100000Y-95000000D01*
X142500000Y-88400000D02*
X125863500Y-88400000D01*
%TO.N,/Headstage Interface/B7.E_{5}*%
X125863500Y-111600000D02*
X141400000Y-111600000D01*
X141400000Y-111600000D02*
X143500000Y-109500000D01*
X150100000Y-109500000D02*
X143500000Y-109500000D01*
%TO.N,/Headstage Interface/B7.E_{0}*%
X140599998Y-107600000D02*
X141199998Y-107000000D01*
X125863500Y-107600000D02*
X140599998Y-107600000D01*
X149450000Y-107000000D02*
X141199998Y-107000000D01*
%TO.N,/Headstage Interface/B7.E_{4}*%
X149500000Y-109000000D02*
X143200000Y-109000000D01*
X125863500Y-110800000D02*
X141400000Y-110800000D01*
X141400000Y-110800000D02*
X143200000Y-109000000D01*
%TO.N,/Headstage Interface/B4.E_{6}*%
X149450000Y-96500000D02*
X147400000Y-96500000D01*
X141700000Y-90800000D02*
X125863500Y-90800000D01*
X147400000Y-96500000D02*
X141700000Y-90800000D01*
%TO.N,/Headstage Interface/B6.E_{5}*%
X150050000Y-105000000D02*
X137699996Y-105000000D01*
X137099996Y-104400000D02*
X125863500Y-104400000D01*
X137699996Y-105000000D02*
X137099996Y-104400000D01*
%TO.N,/Headstage Interface/B7.E_{6}*%
X144000000Y-110000000D02*
X149500000Y-110000000D01*
X125931750Y-112468250D02*
X141531750Y-112468250D01*
X141531750Y-112468250D02*
X144000000Y-110000000D01*
%TO.N,/Headstage Interface/B7.E_{2}*%
X140800000Y-109200000D02*
X142000000Y-108000000D01*
X140800000Y-109200000D02*
X125863500Y-109200000D01*
X149450000Y-108000000D02*
X142000000Y-108000000D01*
%TO.N,/Headstage Interface/B5.E_{7}*%
X141687180Y-101500000D02*
X150050000Y-101500000D01*
X138987180Y-98800000D02*
X141687180Y-101500000D01*
X125863500Y-98800000D02*
X138987180Y-98800000D01*
%TO.N,/Headstage Interface/B6.E_{7}*%
X125863500Y-106000000D02*
X150050000Y-106000000D01*
%TO.N,/Headstage Interface/B6.E_{0}*%
X138300000Y-100400000D02*
X125863500Y-100400000D01*
X149450000Y-102500000D02*
X140400000Y-102500000D01*
X140400000Y-102500000D02*
X138300000Y-100400000D01*
%TO.N,/Headstage Interface/B5.E_{1}*%
X144900004Y-98500000D02*
X150050000Y-98500000D01*
X140400004Y-94000000D02*
X144900004Y-98500000D01*
X125863500Y-94000000D02*
X140400004Y-94000000D01*
%TO.N,/Headstage Interface/B4.E_{4}*%
X149450000Y-95500000D02*
X148500000Y-95500000D01*
X142200000Y-89200000D02*
X125863500Y-89200000D01*
X148500000Y-95500000D02*
X142200000Y-89200000D01*
%TO.N,/Headstage Interface/B4.E_{0}*%
X149850000Y-93200000D02*
X142650000Y-86000000D01*
X142650000Y-86000000D02*
X125863500Y-86000000D01*
D17*
%TO.N,REF*%
X194457000Y-114800000D02*
X195863500Y-114800000D01*
X162360000Y-111510000D02*
X166686000Y-115836000D01*
X193483000Y-115774000D02*
X194457000Y-114800000D01*
X193483000Y-115817000D02*
X193483000Y-115774000D01*
X166686000Y-115836000D02*
X188054000Y-115836000D01*
X193464000Y-115836000D02*
X193483000Y-115817000D01*
%TO.N,/Headstage Interface/A*%
X153000000Y-85300000D02*
X157000000Y-85300000D01*
X157000000Y-85300000D02*
X158700000Y-87000000D01*
D18*
X153000000Y-79000000D02*
X153000000Y-85300000D01*
D17*
X158700000Y-87000000D02*
X163000000Y-87000000D01*
D18*
%TO.N,/Headstage Interface/B6.E_{6}*%
X137099996Y-105200000D02*
X125863500Y-105200000D01*
X149450000Y-105500000D02*
X137399996Y-105500000D01*
X137399996Y-105500000D02*
X137099996Y-105200000D01*
%TO.N,/Headstage Interface/B6.E_{1}*%
X139800000Y-103000000D02*
X138000000Y-101200000D01*
X138000000Y-101200000D02*
X125863500Y-101200000D01*
X150050000Y-103000000D02*
X139800000Y-103000000D01*
%TO.N,/Headstage Interface/B5.E_{6}*%
X125863500Y-98000000D02*
X139087178Y-98000000D01*
X139087178Y-98000000D02*
X142087178Y-101000000D01*
X142087178Y-101000000D02*
X149450000Y-101000000D01*
%TO.N,/Headstage Interface/B6.E_{4}*%
X149450000Y-104500000D02*
X137999996Y-104500000D01*
X137099996Y-103600000D02*
X125863500Y-103600000D01*
X137999996Y-104500000D02*
X137099996Y-103600000D01*
%TO.N,/Headstage Interface/B5.E_{4}*%
X143087178Y-100000000D02*
X149450000Y-100000000D01*
X125863500Y-96400000D02*
X139487178Y-96400000D01*
X139487178Y-96400000D02*
X143087178Y-100000000D01*
%TO.N,/Headstage Interface/B5.E_{3}*%
X139787178Y-95600000D02*
X143687178Y-99500000D01*
X143687178Y-99500000D02*
X150050000Y-99500000D01*
X125863500Y-95600000D02*
X139787178Y-95600000D01*
%TO.N,/Headstage Interface/B4.E_{1}*%
X142600000Y-86800000D02*
X125863500Y-86800000D01*
X150150000Y-94000000D02*
X149800000Y-94000000D01*
X149800000Y-94000000D02*
X142600000Y-86800000D01*
%TO.N,/Headstage Interface/B6.E_{3}*%
X150050000Y-104000000D02*
X138599994Y-104000000D01*
X138599994Y-104000000D02*
X137399994Y-102800000D01*
X137399994Y-102800000D02*
X125863500Y-102800000D01*
%TO.N,/Headstage Interface/B8.E_{2}*%
X174325002Y-87600000D02*
X190136500Y-87600000D01*
X165850000Y-94500000D02*
X167425002Y-94500000D01*
X167425002Y-94500000D02*
X174325002Y-87600000D01*
D19*
%TO.N,/Test Signal Interface/SDA*%
X125863500Y-116536500D02*
X125863500Y-115600000D01*
X125100000Y-120900000D02*
X125100000Y-119500000D01*
D18*
%TO.N,/Headstage Interface/B10.E_{4}*%
X165950000Y-104550000D02*
X180800000Y-104550000D01*
X181750000Y-103600000D02*
X190136500Y-103600000D01*
X180800000Y-104550000D02*
X181750000Y-103600000D01*
%TO.N,/Headstage Interface/B8.E_{7}*%
X171200000Y-97000000D02*
X176600000Y-91600000D01*
X176600000Y-91600000D02*
X190136500Y-91600000D01*
X166500000Y-97000000D02*
X171200000Y-97000000D01*
D19*
%TO.N,/Test Signal Interface/SCL*%
X125863500Y-114800000D02*
X127100000Y-114800000D01*
X127100000Y-114800000D02*
X127700000Y-115400000D01*
D18*
%TO.N,/Headstage Interface/B8.E_{3}*%
X174675000Y-88400000D02*
X190136500Y-88400000D01*
X168075000Y-95000000D02*
X174675000Y-88400000D01*
X166450000Y-95000000D02*
X168075000Y-95000000D01*
%TO.N,/Headstage Interface/B11.E_{5}*%
X168350000Y-109550000D02*
X170400000Y-111600000D01*
X166550000Y-109550000D02*
X168350000Y-109550000D01*
X170400000Y-111600000D02*
X190136500Y-111600000D01*
%TO.N,/Headstage Interface/B8.E_{4}*%
X168724998Y-95500000D02*
X175024998Y-89200000D01*
X165900000Y-95500000D02*
X168724998Y-95500000D01*
X175024998Y-89200000D02*
X190136500Y-89200000D01*
%TO.N,/Headstage Interface/B9.E_{1}*%
X173013152Y-98525000D02*
X166300000Y-98525000D01*
X177538152Y-94000000D02*
X173013152Y-98525000D01*
X190136500Y-94000000D02*
X177538152Y-94000000D01*
%TO.N,/Headstage Interface/B8.E_{0}*%
X165850002Y-93500000D02*
X173350002Y-86000000D01*
X165850000Y-93500000D02*
X165850002Y-93500000D01*
X173350002Y-86000000D02*
X190136500Y-86000000D01*
%TO.N,/Headstage Interface/B9.E_{0}*%
X172350002Y-98000000D02*
X177150002Y-93200000D01*
X177150002Y-93200000D02*
X190136500Y-93200000D01*
X165900000Y-98000000D02*
X172350002Y-98000000D01*
%TO.N,/Headstage Interface/B9.E_{5}*%
X166500000Y-100500000D02*
X175725000Y-100500000D01*
X175725000Y-100500000D02*
X179025000Y-97200000D01*
X179025000Y-97200000D02*
X190136500Y-97200000D01*
%TO.N,/Headstage Interface/B10.E_{3}*%
X181600000Y-102800000D02*
X190136500Y-102800000D01*
X180350000Y-104050000D02*
X181600000Y-102800000D01*
X166550000Y-104050000D02*
X180350000Y-104050000D01*
%TO.N,/Headstage Interface/B11.E_{4}*%
X166050000Y-109050000D02*
X168950000Y-109050000D01*
X170700000Y-110800000D02*
X190136500Y-110800000D01*
X168950000Y-109050000D02*
X170700000Y-110800000D01*
%TO.N,/Headstage Interface/B10.E_{1}*%
X166550000Y-103050000D02*
X179125000Y-103050000D01*
X179125000Y-103050000D02*
X180975000Y-101200000D01*
X180975000Y-101200000D02*
X190136500Y-101200000D01*
%TO.N,/Headstage Interface/B10.E_{2}*%
X181350000Y-102000000D02*
X190136500Y-102000000D01*
X179800000Y-103550000D02*
X181350000Y-102000000D01*
X165950000Y-103550000D02*
X179800000Y-103550000D01*
%TO.N,/Headstage Interface/B10.E_{7}*%
X166550000Y-106050000D02*
X190086500Y-106050000D01*
X190086500Y-106050000D02*
X190136500Y-106000000D01*
%TO.N,/Headstage Interface/B9.E_{3}*%
X174275000Y-99500000D02*
X178175000Y-95600000D01*
X166500000Y-99500000D02*
X174275000Y-99500000D01*
X178175000Y-95600000D02*
X190136500Y-95600000D01*
%TO.N,/Headstage Interface/B9.E_{4}*%
X178600000Y-96400000D02*
X190136500Y-96400000D01*
X165900000Y-100000000D02*
X175000000Y-100000000D01*
X175000000Y-100000000D02*
X178600000Y-96400000D01*
%TO.N,/Headstage Interface/B11.E_{0}*%
X171950000Y-107625000D02*
X190111500Y-107625000D01*
X190111500Y-107625000D02*
X190136500Y-107600000D01*
X166000000Y-107050000D02*
X171375000Y-107050000D01*
X171375000Y-107050000D02*
X171950000Y-107625000D01*
%TO.N,/Headstage Interface/B11.E_{6}*%
X165900000Y-110050000D02*
X167825000Y-110050000D01*
X167825000Y-110050000D02*
X170175000Y-112400000D01*
X170175000Y-112400000D02*
X190136500Y-112400000D01*
%TO.N,/Headstage Interface/B9.E_{6}*%
X165900000Y-101000000D02*
X176425000Y-101000000D01*
X176425000Y-101000000D02*
X179425000Y-98000000D01*
X179425000Y-98000000D02*
X190136500Y-98000000D01*
%TO.N,/Headstage Interface/B8.E_{1}*%
X166625000Y-94000000D02*
X173825000Y-86800000D01*
X166450000Y-94000000D02*
X166625000Y-94000000D01*
X173825000Y-86800000D02*
X190136500Y-86800000D01*
%TO.N,/Headstage Interface/B11.E_{1}*%
X170725000Y-107550000D02*
X171450000Y-108275000D01*
X171450000Y-108275000D02*
X190011500Y-108275000D01*
X190011500Y-108275000D02*
X190136500Y-108400000D01*
X166600000Y-107550000D02*
X170725000Y-107550000D01*
%TO.N,/Headstage Interface/B8.E_{6}*%
X170449998Y-96500000D02*
X176149998Y-90800000D01*
X165900000Y-96500000D02*
X170449998Y-96500000D01*
X176149998Y-90800000D02*
X190136500Y-90800000D01*
%TO.N,/Headstage Interface/B11.E_{3}*%
X169475000Y-108550000D02*
X170925000Y-110000000D01*
X170925000Y-110000000D02*
X190136500Y-110000000D01*
X166600000Y-108550000D02*
X169475000Y-108550000D01*
%TO.N,/Headstage Interface/B9.E_{7}*%
X179725000Y-98800000D02*
X190136500Y-98800000D01*
X177025000Y-101500000D02*
X179725000Y-98800000D01*
X166500000Y-101500000D02*
X177025000Y-101500000D01*
%TO.N,/Headstage Interface/B9.E_{2}*%
X173675000Y-99000000D02*
X177875000Y-94800000D01*
X177875000Y-94800000D02*
X190136500Y-94800000D01*
X165900000Y-99000000D02*
X173675000Y-99000000D01*
%TO.N,/Headstage Interface/B8.E_{5}*%
X169675000Y-96000000D02*
X175675000Y-90000000D01*
X166500000Y-96000000D02*
X169675000Y-96000000D01*
X175675000Y-90000000D02*
X190136500Y-90000000D01*
%TO.N,/Headstage Interface/B11.E_{7}*%
X167300000Y-110550000D02*
X169950000Y-113200000D01*
X169950000Y-113200000D02*
X190136500Y-113200000D01*
X166550000Y-110550000D02*
X167300000Y-110550000D01*
%TO.N,/Headstage Interface/B10.E_{6}*%
X182100000Y-105200000D02*
X181750000Y-105550000D01*
X190136500Y-105200000D02*
X182100000Y-105200000D01*
X181750000Y-105550000D02*
X165950000Y-105550000D01*
%TO.N,/Headstage Interface/B10.E_{0}*%
X165950000Y-102550000D02*
X178525000Y-102550000D01*
X180675000Y-100400000D02*
X190136500Y-100400000D01*
X178525000Y-102550000D02*
X180675000Y-100400000D01*
%TO.N,/Headstage Interface/B10.E_{5}*%
X166550000Y-105050000D02*
X181225000Y-105050000D01*
X181875000Y-104400000D02*
X190136500Y-104400000D01*
X181225000Y-105050000D02*
X181875000Y-104400000D01*
%TO.N,/Headstage Interface/B11.E_{2}*%
X166000000Y-108050000D02*
X170050000Y-108050000D01*
X171200000Y-109200000D02*
X190136500Y-109200000D01*
X170050000Y-108050000D02*
X171200000Y-109200000D01*
D19*
%TO.N,/Test Signal Interface/WP*%
X118100000Y-115300000D02*
X118100000Y-116100000D01*
X118600000Y-114800000D02*
X120136500Y-114800000D01*
X118600000Y-114800000D02*
X118100000Y-115300000D01*
%TD*%
%TA.AperFunction,Conductor*%
%TO.N,GND*%
G36*
X151924833Y-77522174D02*
G01*
X151946507Y-77574500D01*
X151924833Y-77626826D01*
X151904616Y-77641170D01*
X151862212Y-77661592D01*
X151740108Y-77720394D01*
X151492793Y-77875792D01*
X151264431Y-78057905D01*
X151057905Y-78264431D01*
X150875792Y-78492793D01*
X150720394Y-78740108D01*
X150593661Y-79003269D01*
X150497201Y-79278941D01*
X150497195Y-79278959D01*
X150432202Y-79563710D01*
X150432202Y-79563714D01*
X150399500Y-79853959D01*
X150399500Y-80146041D01*
X150418186Y-80311895D01*
X150432202Y-80436289D01*
X150497195Y-80721040D01*
X150497201Y-80721058D01*
X150593661Y-80996730D01*
X150720394Y-81259891D01*
X150720395Y-81259893D01*
X150875792Y-81507206D01*
X151057902Y-81735565D01*
X151264435Y-81942098D01*
X151492794Y-82124208D01*
X151740107Y-82279605D01*
X151832649Y-82324171D01*
X152003269Y-82406338D01*
X152202407Y-82476018D01*
X152278955Y-82502803D01*
X152278958Y-82502803D01*
X152278959Y-82502804D01*
X152363237Y-82522040D01*
X152563714Y-82567798D01*
X152633787Y-82575693D01*
X152683355Y-82603088D01*
X152699500Y-82649227D01*
X152699500Y-84720613D01*
X152677826Y-84772939D01*
X152411675Y-85039090D01*
X152355860Y-85115911D01*
X152355858Y-85115915D01*
X152316658Y-85236565D01*
X152316658Y-85325500D01*
X152294984Y-85377826D01*
X152242658Y-85399500D01*
X152220941Y-85399500D01*
X152068220Y-85440421D01*
X152068214Y-85440424D01*
X151931283Y-85519480D01*
X151819480Y-85631283D01*
X151740424Y-85768214D01*
X151740421Y-85768220D01*
X151699500Y-85920940D01*
X151699500Y-86079059D01*
X151740421Y-86231779D01*
X151740422Y-86231781D01*
X151740423Y-86231784D01*
X151819480Y-86368716D01*
X151931284Y-86480520D01*
X152068216Y-86559577D01*
X152220940Y-86600499D01*
X152220941Y-86600500D01*
X152325500Y-86600500D01*
X152377826Y-86622174D01*
X152399500Y-86674500D01*
X152399500Y-86779059D01*
X152440421Y-86931779D01*
X152440422Y-86931781D01*
X152440423Y-86931784D01*
X152519480Y-87068716D01*
X152631284Y-87180520D01*
X152768216Y-87259577D01*
X152920940Y-87300499D01*
X152920941Y-87300500D01*
X152920943Y-87300500D01*
X153079059Y-87300500D01*
X153079059Y-87300499D01*
X153231784Y-87259577D01*
X153368716Y-87180520D01*
X153480520Y-87068716D01*
X153559577Y-86931784D01*
X153600499Y-86779059D01*
X153600500Y-86779059D01*
X153600500Y-86620941D01*
X153600499Y-86620940D01*
X153584056Y-86559575D01*
X153559577Y-86468216D01*
X153480520Y-86331284D01*
X153368716Y-86219480D01*
X153231784Y-86140423D01*
X153231781Y-86140422D01*
X153231779Y-86140421D01*
X153115877Y-86109365D01*
X153070944Y-86074887D01*
X153063552Y-86018734D01*
X153098030Y-85973801D01*
X153112158Y-85967510D01*
X153184090Y-85944139D01*
X153260909Y-85888326D01*
X153427060Y-85722173D01*
X153479386Y-85700500D01*
X156803455Y-85700500D01*
X156855781Y-85722174D01*
X158454087Y-87320480D01*
X158545412Y-87373207D01*
X158647273Y-87400500D01*
X162308480Y-87400500D01*
X162360806Y-87422174D01*
X162695933Y-87757299D01*
X162740281Y-87793039D01*
X162740285Y-87793041D01*
X162740287Y-87793042D01*
X162765946Y-87804759D01*
X162864658Y-87849839D01*
X163000000Y-87869299D01*
X163135342Y-87849839D01*
X163259719Y-87793039D01*
X163304067Y-87757301D01*
X163757299Y-87304067D01*
X163793039Y-87259719D01*
X163849839Y-87135342D01*
X163869299Y-87000000D01*
X163849839Y-86864658D01*
X163844943Y-86853939D01*
X163842921Y-86797340D01*
X163881514Y-86755887D01*
X163922370Y-86751126D01*
X163922467Y-86750144D01*
X163926080Y-86750500D01*
X163926082Y-86750500D01*
X164073916Y-86750500D01*
X164073918Y-86750500D01*
X164218913Y-86721658D01*
X164355495Y-86665084D01*
X164478416Y-86582951D01*
X164582951Y-86478416D01*
X164665084Y-86355495D01*
X164721658Y-86218913D01*
X164750500Y-86073918D01*
X164750500Y-85926082D01*
X164721658Y-85781087D01*
X164719241Y-85775253D01*
X164665084Y-85644505D01*
X164582951Y-85521584D01*
X164478415Y-85417048D01*
X164355494Y-85334915D01*
X164218917Y-85278343D01*
X164218907Y-85278340D01*
X164121811Y-85259026D01*
X164073918Y-85249500D01*
X163926082Y-85249500D01*
X163815523Y-85271492D01*
X163759974Y-85260443D01*
X163728508Y-85213351D01*
X163728508Y-85184477D01*
X163750500Y-85073916D01*
X163750500Y-84950210D01*
X188700000Y-84950210D01*
X188700000Y-85100000D01*
X190036500Y-85100000D01*
X190236500Y-85100000D01*
X191572999Y-85100000D01*
X191572999Y-84950210D01*
X194427000Y-84950210D01*
X194427000Y-85100000D01*
X195763500Y-85100000D01*
X195963500Y-85100000D01*
X197299999Y-85100000D01*
X197299999Y-84950207D01*
X197297091Y-84925131D01*
X197297089Y-84925126D01*
X197255039Y-84829890D01*
X197253731Y-84773268D01*
X197255039Y-84770110D01*
X197297089Y-84674875D01*
X197300000Y-84649789D01*
X197300000Y-84500000D01*
X195963500Y-84500000D01*
X195963500Y-85100000D01*
X195763500Y-85100000D01*
X195763500Y-84500000D01*
X194427001Y-84500000D01*
X194427001Y-84649792D01*
X194429908Y-84674868D01*
X194429910Y-84674874D01*
X194471960Y-84770109D01*
X194473268Y-84826731D01*
X194471960Y-84829889D01*
X194429910Y-84925123D01*
X194427000Y-84950210D01*
X191572999Y-84950210D01*
X191572999Y-84950207D01*
X191570091Y-84925131D01*
X191570089Y-84925126D01*
X191528039Y-84829890D01*
X191526731Y-84773268D01*
X191528039Y-84770110D01*
X191570089Y-84674875D01*
X191573000Y-84649789D01*
X191573000Y-84500000D01*
X190236500Y-84500000D01*
X190236500Y-85100000D01*
X190036500Y-85100000D01*
X190036500Y-84500000D01*
X188700001Y-84500000D01*
X188700001Y-84649792D01*
X188702908Y-84674868D01*
X188702910Y-84674874D01*
X188744960Y-84770109D01*
X188746268Y-84826731D01*
X188744960Y-84829889D01*
X188702910Y-84925123D01*
X188700000Y-84950210D01*
X163750500Y-84950210D01*
X163750500Y-84926083D01*
X163731365Y-84829889D01*
X163721658Y-84781087D01*
X163665084Y-84644505D01*
X163582951Y-84521584D01*
X163478416Y-84417049D01*
X163355495Y-84334916D01*
X163355496Y-84334916D01*
X163355494Y-84334915D01*
X163218917Y-84278343D01*
X163218907Y-84278340D01*
X163121811Y-84259026D01*
X163073918Y-84249500D01*
X162926082Y-84249500D01*
X162884977Y-84257676D01*
X162781092Y-84278340D01*
X162781082Y-84278343D01*
X162644505Y-84334915D01*
X162521584Y-84417048D01*
X162521583Y-84417050D01*
X162417050Y-84521583D01*
X162417048Y-84521584D01*
X162334915Y-84644505D01*
X162278343Y-84781082D01*
X162278340Y-84781092D01*
X162249500Y-84926083D01*
X162249500Y-85073916D01*
X162278340Y-85218907D01*
X162278343Y-85218917D01*
X162334915Y-85355494D01*
X162417048Y-85478415D01*
X162521584Y-85582951D01*
X162644505Y-85665084D01*
X162777033Y-85719979D01*
X162781087Y-85721658D01*
X162926082Y-85750500D01*
X162926084Y-85750500D01*
X163073916Y-85750500D01*
X163073918Y-85750500D01*
X163184477Y-85728508D01*
X163240026Y-85739557D01*
X163271492Y-85786649D01*
X163271492Y-85815523D01*
X163249500Y-85926083D01*
X163249500Y-86073920D01*
X163249856Y-86077533D01*
X163248515Y-86077665D01*
X163238321Y-86128867D01*
X163191223Y-86160324D01*
X163146061Y-86155056D01*
X163135342Y-86150161D01*
X163135340Y-86150160D01*
X163135339Y-86150160D01*
X163000000Y-86130701D01*
X162864661Y-86150160D01*
X162864658Y-86150160D01*
X162740281Y-86206960D01*
X162695934Y-86242697D01*
X162695933Y-86242698D01*
X162360808Y-86577826D01*
X162308482Y-86599500D01*
X158896545Y-86599500D01*
X158844219Y-86577826D01*
X158047475Y-85781082D01*
X157245913Y-84979520D01*
X157245910Y-84979518D01*
X157245909Y-84979517D01*
X157154592Y-84926795D01*
X157154588Y-84926793D01*
X157148385Y-84925131D01*
X157052727Y-84899500D01*
X157052726Y-84899500D01*
X153479387Y-84899500D01*
X153427061Y-84877826D01*
X153322174Y-84772939D01*
X153300500Y-84720613D01*
X153300500Y-84150210D01*
X188700000Y-84150210D01*
X188700000Y-84300000D01*
X190036500Y-84300000D01*
X190236500Y-84300000D01*
X191572999Y-84300000D01*
X191572999Y-84150210D01*
X194427000Y-84150210D01*
X194427000Y-84300000D01*
X195763500Y-84300000D01*
X195963500Y-84300000D01*
X197299999Y-84300000D01*
X197299999Y-84150207D01*
X197297091Y-84125131D01*
X197297089Y-84125125D01*
X197251786Y-84022521D01*
X197172478Y-83943213D01*
X197069875Y-83897910D01*
X197069876Y-83897910D01*
X197044789Y-83895000D01*
X195963500Y-83895000D01*
X195963500Y-84300000D01*
X195763500Y-84300000D01*
X195763500Y-83895000D01*
X194682207Y-83895000D01*
X194657131Y-83897908D01*
X194657125Y-83897910D01*
X194554521Y-83943213D01*
X194475213Y-84022521D01*
X194429910Y-84125124D01*
X194427000Y-84150210D01*
X191572999Y-84150210D01*
X191572999Y-84150207D01*
X191570091Y-84125131D01*
X191570089Y-84125125D01*
X191524786Y-84022521D01*
X191445478Y-83943213D01*
X191342875Y-83897910D01*
X191342876Y-83897910D01*
X191317789Y-83895000D01*
X190236500Y-83895000D01*
X190236500Y-84300000D01*
X190036500Y-84300000D01*
X190036500Y-83895000D01*
X188955207Y-83895000D01*
X188930131Y-83897908D01*
X188930125Y-83897910D01*
X188827521Y-83943213D01*
X188748213Y-84022521D01*
X188702910Y-84125124D01*
X188700000Y-84150210D01*
X153300500Y-84150210D01*
X153300500Y-82649227D01*
X153322174Y-82596901D01*
X153366212Y-82575693D01*
X153436286Y-82567798D01*
X153721045Y-82502803D01*
X153845207Y-82459357D01*
X153996730Y-82406338D01*
X153996734Y-82406335D01*
X153996737Y-82406335D01*
X154259893Y-82279605D01*
X154507206Y-82124208D01*
X154735565Y-81942098D01*
X154942098Y-81735565D01*
X155124208Y-81507206D01*
X155279605Y-81259893D01*
X155406335Y-80996737D01*
X155406335Y-80996734D01*
X155406338Y-80996730D01*
X155459357Y-80845207D01*
X155502803Y-80721045D01*
X155567798Y-80436286D01*
X155600500Y-80146041D01*
X155600500Y-79853959D01*
X155567798Y-79563714D01*
X155502803Y-79278955D01*
X155446464Y-79117946D01*
X155406338Y-79003269D01*
X155279605Y-78740108D01*
X155279605Y-78740107D01*
X155124208Y-78492794D01*
X154942098Y-78264435D01*
X154735565Y-78057902D01*
X154507206Y-77875792D01*
X154259893Y-77720395D01*
X154095384Y-77641171D01*
X154057646Y-77598940D01*
X154060821Y-77542392D01*
X154103053Y-77504653D01*
X154127493Y-77500500D01*
X161646191Y-77500500D01*
X161698517Y-77522174D01*
X161720191Y-77574500D01*
X161698517Y-77626826D01*
X161685561Y-77637158D01*
X161435125Y-77794516D01*
X161198030Y-77983593D01*
X161161523Y-78020101D01*
X162080761Y-78939339D01*
X161939339Y-79080761D01*
X161020101Y-78161523D01*
X160983593Y-78198030D01*
X160794516Y-78435125D01*
X160633173Y-78691902D01*
X160501593Y-78965130D01*
X160401437Y-79251358D01*
X160401432Y-79251374D01*
X160333954Y-79547016D01*
X160333954Y-79547017D01*
X160300000Y-79848374D01*
X160300000Y-80151625D01*
X160333954Y-80452982D01*
X160333954Y-80452983D01*
X160401432Y-80748625D01*
X160401437Y-80748641D01*
X160501593Y-81034869D01*
X160633173Y-81308097D01*
X160794516Y-81564874D01*
X160983593Y-81801969D01*
X161020101Y-81838477D01*
X161939339Y-80919238D01*
X162080761Y-81060660D01*
X161161523Y-81979899D01*
X161198030Y-82016406D01*
X161435125Y-82205483D01*
X161691902Y-82366826D01*
X161965130Y-82498406D01*
X162251358Y-82598562D01*
X162251374Y-82598567D01*
X162547016Y-82666045D01*
X162848375Y-82700000D01*
X163151625Y-82700000D01*
X163452982Y-82666045D01*
X163452983Y-82666045D01*
X163748625Y-82598567D01*
X163748641Y-82598562D01*
X164034869Y-82498406D01*
X164308097Y-82366826D01*
X164564874Y-82205483D01*
X164801969Y-82016406D01*
X164838477Y-81979899D01*
X164733449Y-81874871D01*
X189719500Y-81874871D01*
X189719500Y-81995128D01*
X189742959Y-82113069D01*
X189742961Y-82113076D01*
X189788981Y-82224179D01*
X189788982Y-82224180D01*
X189855794Y-82324171D01*
X189940829Y-82409206D01*
X190040820Y-82476018D01*
X190151924Y-82522039D01*
X190269871Y-82545500D01*
X190269872Y-82545500D01*
X190390128Y-82545500D01*
X190390129Y-82545500D01*
X190508076Y-82522039D01*
X190619180Y-82476018D01*
X190719171Y-82409206D01*
X190804206Y-82324171D01*
X190871018Y-82224180D01*
X190917039Y-82113076D01*
X190940500Y-81995129D01*
X190940500Y-81874871D01*
X190917039Y-81756924D01*
X190871018Y-81645820D01*
X190804206Y-81545829D01*
X190719171Y-81460794D01*
X190619180Y-81393982D01*
X190619181Y-81393982D01*
X190619179Y-81393981D01*
X190508076Y-81347961D01*
X190508069Y-81347959D01*
X190419215Y-81330285D01*
X190390129Y-81324500D01*
X190269871Y-81324500D01*
X190246538Y-81329141D01*
X190151930Y-81347959D01*
X190151923Y-81347961D01*
X190040820Y-81393981D01*
X189940832Y-81460791D01*
X189855791Y-81545832D01*
X189788981Y-81645820D01*
X189742961Y-81756923D01*
X189742959Y-81756930D01*
X189719500Y-81874871D01*
X164733449Y-81874871D01*
X163919238Y-81060660D01*
X164060660Y-80919238D01*
X164979899Y-81838477D01*
X164999466Y-81818910D01*
X165016406Y-81801969D01*
X165205483Y-81564874D01*
X165366826Y-81308097D01*
X165498406Y-81034869D01*
X165598562Y-80748641D01*
X165598567Y-80748625D01*
X165666045Y-80452983D01*
X165666045Y-80452982D01*
X165700000Y-80151625D01*
X165700000Y-79848374D01*
X165666045Y-79547017D01*
X165666045Y-79547016D01*
X165598567Y-79251374D01*
X165598562Y-79251358D01*
X165498406Y-78965130D01*
X165366826Y-78691902D01*
X165205483Y-78435125D01*
X165016406Y-78198030D01*
X164979899Y-78161523D01*
X164060660Y-79080761D01*
X163919238Y-78939339D01*
X164838477Y-78020101D01*
X164801969Y-77983593D01*
X164564874Y-77794516D01*
X164314439Y-77637158D01*
X164281664Y-77590967D01*
X164291151Y-77535130D01*
X164337342Y-77502355D01*
X164353809Y-77500500D01*
X204934108Y-77500500D01*
X204997764Y-77500500D01*
X205002231Y-77500634D01*
X205296821Y-77518454D01*
X205305673Y-77519528D01*
X205593784Y-77572327D01*
X205602435Y-77574460D01*
X205882062Y-77661595D01*
X205890401Y-77664757D01*
X206014024Y-77720395D01*
X206157497Y-77784967D01*
X206165409Y-77789120D01*
X206416046Y-77940636D01*
X206423400Y-77945712D01*
X206653951Y-78126336D01*
X206660640Y-78132262D01*
X206867737Y-78339359D01*
X206873663Y-78346048D01*
X207054287Y-78576599D01*
X207059363Y-78583953D01*
X207210879Y-78834590D01*
X207215032Y-78842502D01*
X207335239Y-79109590D01*
X207338407Y-79117946D01*
X207425536Y-79397552D01*
X207427675Y-79406228D01*
X207480469Y-79694317D01*
X207481546Y-79703188D01*
X207499365Y-79997768D01*
X207499500Y-80002236D01*
X207499500Y-133997763D01*
X207499365Y-134002231D01*
X207481546Y-134296811D01*
X207480469Y-134305682D01*
X207427675Y-134593771D01*
X207425536Y-134602447D01*
X207338407Y-134882053D01*
X207335239Y-134890409D01*
X207215032Y-135157497D01*
X207210879Y-135165409D01*
X207059363Y-135416046D01*
X207054287Y-135423400D01*
X206873663Y-135653951D01*
X206867737Y-135660640D01*
X206660640Y-135867737D01*
X206653951Y-135873663D01*
X206423400Y-136054287D01*
X206416046Y-136059363D01*
X206165409Y-136210879D01*
X206157497Y-136215032D01*
X205890409Y-136335239D01*
X205882053Y-136338407D01*
X205602447Y-136425536D01*
X205593771Y-136427675D01*
X205305682Y-136480469D01*
X205296811Y-136481546D01*
X205002232Y-136499365D01*
X204997764Y-136499500D01*
X164353809Y-136499500D01*
X164301483Y-136477826D01*
X164279809Y-136425500D01*
X164301483Y-136373174D01*
X164314439Y-136362842D01*
X164564874Y-136205483D01*
X164801969Y-136016406D01*
X164838477Y-135979899D01*
X163919238Y-135060660D01*
X164060660Y-134919238D01*
X164979899Y-135838477D01*
X165016406Y-135801969D01*
X165205483Y-135564874D01*
X165366826Y-135308097D01*
X165498406Y-135034869D01*
X165598562Y-134748641D01*
X165598567Y-134748625D01*
X165666045Y-134452983D01*
X165666045Y-134452982D01*
X165700000Y-134151625D01*
X165700000Y-133848374D01*
X165666045Y-133547017D01*
X165666045Y-133547016D01*
X165598567Y-133251374D01*
X165598562Y-133251358D01*
X165498406Y-132965130D01*
X165366826Y-132691902D01*
X165205483Y-132435125D01*
X165016406Y-132198030D01*
X164979899Y-132161523D01*
X164060660Y-133080761D01*
X163919238Y-132939339D01*
X164838477Y-132020101D01*
X164801969Y-131983593D01*
X164564874Y-131794516D01*
X164308097Y-131633173D01*
X164034869Y-131501593D01*
X163748641Y-131401437D01*
X163748625Y-131401432D01*
X163452983Y-131333954D01*
X163151625Y-131300000D01*
X162848375Y-131300000D01*
X162547017Y-131333954D01*
X162547016Y-131333954D01*
X162251374Y-131401432D01*
X162251358Y-131401437D01*
X161965130Y-131501593D01*
X161691902Y-131633173D01*
X161435125Y-131794516D01*
X161198030Y-131983593D01*
X161161523Y-132020101D01*
X162080761Y-132939339D01*
X161939339Y-133080761D01*
X161020101Y-132161523D01*
X160983593Y-132198030D01*
X160794516Y-132435125D01*
X160633173Y-132691902D01*
X160501593Y-132965130D01*
X160401437Y-133251358D01*
X160401432Y-133251374D01*
X160333954Y-133547016D01*
X160333954Y-133547017D01*
X160300000Y-133848374D01*
X160300000Y-134151625D01*
X160333954Y-134452982D01*
X160333954Y-134452983D01*
X160401432Y-134748625D01*
X160401437Y-134748641D01*
X160501593Y-135034869D01*
X160633173Y-135308097D01*
X160794516Y-135564874D01*
X160983593Y-135801969D01*
X161020101Y-135838477D01*
X161939339Y-134919238D01*
X162080761Y-135060660D01*
X161161523Y-135979899D01*
X161198030Y-136016406D01*
X161435125Y-136205483D01*
X161685561Y-136362842D01*
X161718336Y-136409033D01*
X161708849Y-136464870D01*
X161662658Y-136497645D01*
X161646191Y-136499500D01*
X154127493Y-136499500D01*
X154075167Y-136477826D01*
X154053493Y-136425500D01*
X154075167Y-136373174D01*
X154095383Y-136358829D01*
X154259893Y-136279605D01*
X154507206Y-136124208D01*
X154735565Y-135942098D01*
X154942098Y-135735565D01*
X155124208Y-135507206D01*
X155279605Y-135259893D01*
X155406335Y-134996737D01*
X155406335Y-134996734D01*
X155406338Y-134996730D01*
X155459357Y-134845207D01*
X155502803Y-134721045D01*
X155567798Y-134436286D01*
X155600500Y-134146041D01*
X155600500Y-133853959D01*
X155567798Y-133563714D01*
X155502803Y-133278955D01*
X155435972Y-133087961D01*
X155406338Y-133003269D01*
X155279605Y-132740108D01*
X155279605Y-132740107D01*
X155124208Y-132492794D01*
X154942098Y-132264435D01*
X154735565Y-132057902D01*
X154735563Y-132057900D01*
X154722278Y-132047305D01*
X154722277Y-132047305D01*
X154507206Y-131875792D01*
X154259893Y-131720395D01*
X154259891Y-131720394D01*
X153996730Y-131593661D01*
X153721058Y-131497201D01*
X153721040Y-131497195D01*
X153436291Y-131432203D01*
X153436289Y-131432202D01*
X153436286Y-131432202D01*
X153398049Y-131427893D01*
X153366213Y-131424306D01*
X153316644Y-131396908D01*
X153300500Y-131350771D01*
X153300500Y-118004871D01*
X189719500Y-118004871D01*
X189719500Y-118125129D01*
X189724681Y-118151178D01*
X189742959Y-118243069D01*
X189742961Y-118243076D01*
X189788981Y-118354179D01*
X189788982Y-118354180D01*
X189855794Y-118454171D01*
X189940829Y-118539206D01*
X190040820Y-118606018D01*
X190151924Y-118652039D01*
X190269871Y-118675500D01*
X190269872Y-118675500D01*
X190390128Y-118675500D01*
X190390129Y-118675500D01*
X190508076Y-118652039D01*
X190619180Y-118606018D01*
X190719171Y-118539206D01*
X190804206Y-118454171D01*
X190871018Y-118354180D01*
X190917039Y-118243076D01*
X190940500Y-118125129D01*
X190940500Y-118004871D01*
X190917039Y-117886924D01*
X190871018Y-117775820D01*
X190804206Y-117675829D01*
X190719171Y-117590794D01*
X190619180Y-117523982D01*
X190619181Y-117523982D01*
X190619179Y-117523981D01*
X190508076Y-117477961D01*
X190508069Y-117477959D01*
X190419215Y-117460285D01*
X190390129Y-117454500D01*
X190269871Y-117454500D01*
X190246538Y-117459141D01*
X190151930Y-117477959D01*
X190151923Y-117477961D01*
X190040820Y-117523981D01*
X189940832Y-117590791D01*
X189855791Y-117675832D01*
X189788981Y-117775820D01*
X189742961Y-117886923D01*
X189742959Y-117886930D01*
X189719500Y-118004871D01*
X153300500Y-118004871D01*
X153300500Y-115398123D01*
X153322174Y-115345797D01*
X153972797Y-114695174D01*
X154025123Y-114673500D01*
X154079311Y-114673500D01*
X154079311Y-114673499D01*
X154193886Y-114642799D01*
X154296613Y-114583489D01*
X154380489Y-114499613D01*
X154439799Y-114396886D01*
X154470499Y-114282311D01*
X154470500Y-114282311D01*
X154470500Y-114163689D01*
X154470499Y-114163688D01*
X154439800Y-114049117D01*
X154439798Y-114049112D01*
X154380491Y-113946390D01*
X154380490Y-113946389D01*
X154380489Y-113946387D01*
X154296613Y-113862511D01*
X154296610Y-113862509D01*
X154296609Y-113862508D01*
X154193887Y-113803201D01*
X154193882Y-113803199D01*
X154079311Y-113772500D01*
X154079309Y-113772500D01*
X153960691Y-113772500D01*
X153960689Y-113772500D01*
X153846117Y-113803199D01*
X153846112Y-113803201D01*
X153743390Y-113862508D01*
X153659508Y-113946390D01*
X153600201Y-114049112D01*
X153600199Y-114049117D01*
X153569500Y-114163688D01*
X153569500Y-114217877D01*
X153547826Y-114270203D01*
X152759540Y-115058488D01*
X152719979Y-115127009D01*
X152719977Y-115127014D01*
X152699500Y-115203435D01*
X152699500Y-131350771D01*
X152677826Y-131403097D01*
X152633787Y-131424306D01*
X152596731Y-131428481D01*
X152563714Y-131432202D01*
X152563711Y-131432202D01*
X152563708Y-131432203D01*
X152278959Y-131497195D01*
X152278941Y-131497201D01*
X152003269Y-131593661D01*
X151740108Y-131720394D01*
X151492793Y-131875792D01*
X151264431Y-132057905D01*
X151057905Y-132264431D01*
X150875792Y-132492793D01*
X150720394Y-132740108D01*
X150593661Y-133003269D01*
X150497201Y-133278941D01*
X150497195Y-133278959D01*
X150432202Y-133563710D01*
X150432202Y-133563714D01*
X150399500Y-133853959D01*
X150399500Y-134146041D01*
X150416487Y-134296811D01*
X150432202Y-134436289D01*
X150497195Y-134721040D01*
X150497201Y-134721058D01*
X150593661Y-134996730D01*
X150720394Y-135259891D01*
X150720395Y-135259893D01*
X150875792Y-135507206D01*
X151057902Y-135735565D01*
X151264435Y-135942098D01*
X151492794Y-136124208D01*
X151740107Y-136279605D01*
X151904615Y-136358828D01*
X151942354Y-136401060D01*
X151939179Y-136457608D01*
X151896947Y-136495347D01*
X151872507Y-136499500D01*
X111002236Y-136499500D01*
X110997768Y-136499365D01*
X110703188Y-136481546D01*
X110694317Y-136480469D01*
X110406228Y-136427675D01*
X110397552Y-136425536D01*
X110397436Y-136425500D01*
X110117946Y-136338407D01*
X110109590Y-136335239D01*
X109842502Y-136215032D01*
X109834590Y-136210879D01*
X109583953Y-136059363D01*
X109576599Y-136054287D01*
X109346048Y-135873663D01*
X109339359Y-135867737D01*
X109132262Y-135660640D01*
X109126336Y-135653951D01*
X108945712Y-135423400D01*
X108940636Y-135416046D01*
X108819063Y-135214941D01*
X108789119Y-135165407D01*
X108784967Y-135157497D01*
X108744625Y-135067860D01*
X108664757Y-134890401D01*
X108661595Y-134882062D01*
X108574460Y-134602435D01*
X108572327Y-134593784D01*
X108519528Y-134305673D01*
X108518454Y-134296821D01*
X108500635Y-134002231D01*
X108500500Y-133997763D01*
X108500500Y-118004871D01*
X119719500Y-118004871D01*
X119719500Y-118125129D01*
X119724681Y-118151178D01*
X119742959Y-118243069D01*
X119742961Y-118243076D01*
X119788981Y-118354179D01*
X119788982Y-118354180D01*
X119855794Y-118454171D01*
X119940829Y-118539206D01*
X120040820Y-118606018D01*
X120151924Y-118652039D01*
X120269871Y-118675500D01*
X120269872Y-118675500D01*
X120390128Y-118675500D01*
X120390129Y-118675500D01*
X120508076Y-118652039D01*
X120619180Y-118606018D01*
X120719171Y-118539206D01*
X120804206Y-118454171D01*
X120871018Y-118354180D01*
X120917039Y-118243076D01*
X120940500Y-118125129D01*
X120940500Y-118004871D01*
X120917039Y-117886924D01*
X120871018Y-117775820D01*
X120804206Y-117675829D01*
X120719171Y-117590794D01*
X120619180Y-117523982D01*
X120619181Y-117523982D01*
X120619179Y-117523981D01*
X120508076Y-117477961D01*
X120508069Y-117477959D01*
X120419215Y-117460285D01*
X120390129Y-117454500D01*
X120269871Y-117454500D01*
X120246538Y-117459141D01*
X120151930Y-117477959D01*
X120151923Y-117477961D01*
X120040820Y-117523981D01*
X119940832Y-117590791D01*
X119855791Y-117675832D01*
X119788981Y-117775820D01*
X119742961Y-117886923D01*
X119742959Y-117886930D01*
X119719500Y-118004871D01*
X108500500Y-118004871D01*
X108500500Y-116040688D01*
X117649500Y-116040688D01*
X117649500Y-116159311D01*
X117680199Y-116273882D01*
X117680201Y-116273887D01*
X117739508Y-116376609D01*
X117739509Y-116376610D01*
X117739511Y-116376613D01*
X117823387Y-116460489D01*
X117926114Y-116519799D01*
X117926115Y-116519799D01*
X117926117Y-116519800D01*
X117983402Y-116535149D01*
X118040688Y-116550499D01*
X118040689Y-116550500D01*
X118040691Y-116550500D01*
X118159311Y-116550500D01*
X118159311Y-116550499D01*
X118273886Y-116519799D01*
X118376613Y-116460489D01*
X118460489Y-116376613D01*
X118519799Y-116273886D01*
X118550499Y-116159311D01*
X118550500Y-116159311D01*
X118550500Y-116040689D01*
X118550499Y-116040688D01*
X118546503Y-116025776D01*
X118519799Y-115926114D01*
X118476143Y-115850500D01*
X118460491Y-115823390D01*
X118460490Y-115823389D01*
X118460489Y-115823387D01*
X118397174Y-115760072D01*
X118375500Y-115707746D01*
X118375500Y-115444767D01*
X118397174Y-115392441D01*
X118692442Y-115097174D01*
X118744768Y-115075500D01*
X118766414Y-115075500D01*
X118818740Y-115097174D01*
X118827941Y-115108386D01*
X118851699Y-115143942D01*
X118859497Y-115155611D01*
X118857430Y-115156991D01*
X118875245Y-115200000D01*
X118857430Y-115243008D01*
X118859497Y-115244389D01*
X118811133Y-115316767D01*
X118805359Y-115345797D01*
X118799500Y-115375252D01*
X118799500Y-115824748D01*
X118807255Y-115863736D01*
X118811133Y-115883232D01*
X118831602Y-115913865D01*
X118855448Y-115949552D01*
X118899560Y-115979027D01*
X118921767Y-115993866D01*
X118921768Y-115993866D01*
X118921769Y-115993867D01*
X118980252Y-116005500D01*
X118980254Y-116005500D01*
X121292750Y-116005500D01*
X121296363Y-116005144D01*
X121296476Y-116006298D01*
X121348150Y-116016560D01*
X121359383Y-116025776D01*
X123027826Y-117694219D01*
X123049500Y-117746545D01*
X123049500Y-118122858D01*
X123043867Y-118151178D01*
X123042011Y-118155658D01*
X123030201Y-118176114D01*
X123024088Y-118198924D01*
X123022231Y-118203409D01*
X123017072Y-118208567D01*
X123006190Y-118227415D01*
X122077415Y-119156190D01*
X122044245Y-119175342D01*
X122026113Y-119180201D01*
X122026112Y-119180201D01*
X121923390Y-119239508D01*
X121839508Y-119323390D01*
X121780201Y-119426112D01*
X121780201Y-119426113D01*
X121775342Y-119444245D01*
X121756190Y-119477415D01*
X120677415Y-120556190D01*
X120644245Y-120575342D01*
X120626113Y-120580201D01*
X120626112Y-120580201D01*
X120523390Y-120639508D01*
X120439508Y-120723390D01*
X120380201Y-120826112D01*
X120380201Y-120826113D01*
X120375342Y-120844245D01*
X120356190Y-120877415D01*
X119379517Y-121854090D01*
X119326792Y-121945412D01*
X119326793Y-121945413D01*
X119299500Y-122047273D01*
X119299500Y-123472858D01*
X119289586Y-123509857D01*
X119280203Y-123526108D01*
X119280199Y-123526117D01*
X119249500Y-123640688D01*
X119249500Y-123759311D01*
X119280199Y-123873882D01*
X119280200Y-123873884D01*
X119280201Y-123873886D01*
X119289585Y-123890140D01*
X119299500Y-123927140D01*
X119299500Y-123972858D01*
X119289586Y-124009857D01*
X119280203Y-124026108D01*
X119280199Y-124026117D01*
X119249500Y-124140688D01*
X119249500Y-124259311D01*
X119280199Y-124373882D01*
X119280201Y-124373887D01*
X119339508Y-124476609D01*
X119339509Y-124476610D01*
X119339511Y-124476613D01*
X119423387Y-124560489D01*
X119526114Y-124619799D01*
X119526115Y-124619799D01*
X119526117Y-124619800D01*
X119583402Y-124635149D01*
X119640688Y-124650499D01*
X119640689Y-124650500D01*
X119640691Y-124650500D01*
X119759311Y-124650500D01*
X119759311Y-124650499D01*
X119873886Y-124619799D01*
X119976613Y-124560489D01*
X120060489Y-124476613D01*
X120119799Y-124373886D01*
X120150499Y-124259311D01*
X120150500Y-124259311D01*
X120150500Y-124140689D01*
X120150499Y-124140688D01*
X120119800Y-124026117D01*
X120119796Y-124026108D01*
X120110414Y-124009857D01*
X120100500Y-123972858D01*
X120100500Y-123927140D01*
X120110414Y-123890140D01*
X120119799Y-123873886D01*
X120150499Y-123759311D01*
X120150500Y-123759311D01*
X120150500Y-123640689D01*
X120150499Y-123640688D01*
X120119800Y-123526117D01*
X120119796Y-123526108D01*
X120110414Y-123509857D01*
X120100500Y-123472858D01*
X120100500Y-122296544D01*
X120122173Y-122244219D01*
X120922585Y-121443806D01*
X120955756Y-121424656D01*
X120973886Y-121419799D01*
X121076613Y-121360489D01*
X121160489Y-121276613D01*
X121219799Y-121173886D01*
X121224656Y-121155756D01*
X121243806Y-121122585D01*
X122322585Y-120043806D01*
X122355756Y-120024656D01*
X122373886Y-120019799D01*
X122476613Y-119960489D01*
X122560489Y-119876613D01*
X122619799Y-119773886D01*
X122624656Y-119755756D01*
X122643806Y-119722585D01*
X122925703Y-119440688D01*
X124649500Y-119440688D01*
X124649500Y-119559311D01*
X124680199Y-119673882D01*
X124680201Y-119673887D01*
X124739508Y-119776609D01*
X124739509Y-119776610D01*
X124739511Y-119776613D01*
X124802826Y-119839928D01*
X124824500Y-119892253D01*
X124824500Y-120507746D01*
X124802826Y-120560072D01*
X124739508Y-120623390D01*
X124680201Y-120726112D01*
X124680199Y-120726117D01*
X124649500Y-120840688D01*
X124649500Y-120959311D01*
X124680199Y-121073882D01*
X124680201Y-121073887D01*
X124739508Y-121176609D01*
X124739509Y-121176610D01*
X124739511Y-121176613D01*
X124823387Y-121260489D01*
X124926114Y-121319799D01*
X124926115Y-121319799D01*
X124926117Y-121319800D01*
X124983402Y-121335149D01*
X125040688Y-121350499D01*
X125040689Y-121350500D01*
X125040691Y-121350500D01*
X125159311Y-121350500D01*
X125159311Y-121350499D01*
X125273886Y-121319799D01*
X125376613Y-121260489D01*
X125460489Y-121176613D01*
X125519799Y-121073886D01*
X125550499Y-120959311D01*
X125550500Y-120959311D01*
X125550500Y-120840689D01*
X125550499Y-120840688D01*
X125546593Y-120826112D01*
X125519799Y-120726114D01*
X125518225Y-120723387D01*
X125460491Y-120623390D01*
X125460490Y-120623389D01*
X125460489Y-120623387D01*
X125397174Y-120560072D01*
X125375500Y-120507746D01*
X125375500Y-119892253D01*
X125397173Y-119839928D01*
X125460489Y-119776613D01*
X125519799Y-119673886D01*
X125550499Y-119559311D01*
X125550500Y-119559311D01*
X125550500Y-119440689D01*
X125550499Y-119440688D01*
X125546593Y-119426112D01*
X125519799Y-119326114D01*
X125518225Y-119323387D01*
X125460491Y-119223390D01*
X125460490Y-119223389D01*
X125460489Y-119223387D01*
X125376613Y-119139511D01*
X125376610Y-119139509D01*
X125376609Y-119139508D01*
X125273887Y-119080201D01*
X125273882Y-119080199D01*
X125159311Y-119049500D01*
X125159309Y-119049500D01*
X125040691Y-119049500D01*
X125040689Y-119049500D01*
X124926117Y-119080199D01*
X124926112Y-119080201D01*
X124823390Y-119139508D01*
X124739508Y-119223390D01*
X124680201Y-119326112D01*
X124680199Y-119326117D01*
X124649500Y-119440688D01*
X122925703Y-119440688D01*
X123572585Y-118793806D01*
X123605756Y-118774656D01*
X123623886Y-118769799D01*
X123726613Y-118710489D01*
X123810489Y-118626613D01*
X123869799Y-118523886D01*
X123900499Y-118409311D01*
X123900500Y-118409311D01*
X123900500Y-118290689D01*
X123900499Y-118290688D01*
X123887741Y-118243076D01*
X123883545Y-118227415D01*
X123869800Y-118176117D01*
X123869796Y-118176108D01*
X123860414Y-118159857D01*
X123850500Y-118122858D01*
X123850500Y-117497271D01*
X123850499Y-117497270D01*
X123823208Y-117395417D01*
X123823207Y-117395413D01*
X123770480Y-117304087D01*
X123695913Y-117229520D01*
X121745913Y-115279520D01*
X121745910Y-115279518D01*
X121745909Y-115279517D01*
X121654592Y-115226795D01*
X121654588Y-115226793D01*
X121652046Y-115226112D01*
X121552727Y-115199500D01*
X121552726Y-115199500D01*
X121522623Y-115199500D01*
X121470297Y-115177826D01*
X121448623Y-115125500D01*
X121459365Y-115090087D01*
X121459077Y-115089968D01*
X121460292Y-115087032D01*
X121461096Y-115084385D01*
X121461160Y-115084288D01*
X121461867Y-115083231D01*
X121473500Y-115024748D01*
X121473500Y-114575252D01*
X121461867Y-114516769D01*
X121461866Y-114516767D01*
X121461866Y-114516766D01*
X121459077Y-114510032D01*
X121462457Y-114508631D01*
X121453971Y-114465920D01*
X121474221Y-114428044D01*
X121524785Y-114377480D01*
X121570089Y-114274875D01*
X121573000Y-114249792D01*
X124427001Y-114249792D01*
X124429908Y-114274868D01*
X124429910Y-114274874D01*
X124475213Y-114377478D01*
X124525780Y-114428045D01*
X124547454Y-114480371D01*
X124538733Y-114509128D01*
X124540922Y-114510035D01*
X124538133Y-114516767D01*
X124536595Y-114524500D01*
X124528253Y-114566442D01*
X124526500Y-114575253D01*
X124526500Y-115024746D01*
X124538133Y-115083232D01*
X124554942Y-115108387D01*
X124578699Y-115143942D01*
X124586497Y-115155611D01*
X124584430Y-115156991D01*
X124602245Y-115200000D01*
X124584430Y-115243008D01*
X124586497Y-115244389D01*
X124538133Y-115316767D01*
X124532359Y-115345797D01*
X124526500Y-115375252D01*
X124526500Y-115824748D01*
X124534255Y-115863736D01*
X124538133Y-115883232D01*
X124558602Y-115913865D01*
X124582448Y-115949552D01*
X124626560Y-115979027D01*
X124648767Y-115993866D01*
X124648768Y-115993866D01*
X124648769Y-115993867D01*
X124707252Y-116005500D01*
X125514000Y-116005500D01*
X125566326Y-116027174D01*
X125588000Y-116079500D01*
X125588000Y-116144246D01*
X125566326Y-116196572D01*
X125503008Y-116259890D01*
X125443701Y-116362612D01*
X125443699Y-116362617D01*
X125413000Y-116477188D01*
X125413000Y-116595811D01*
X125443699Y-116710382D01*
X125443701Y-116710387D01*
X125503008Y-116813109D01*
X125503009Y-116813110D01*
X125503011Y-116813113D01*
X125586887Y-116896989D01*
X125689614Y-116956299D01*
X125689615Y-116956299D01*
X125689617Y-116956300D01*
X125746902Y-116971649D01*
X125804188Y-116986999D01*
X125804189Y-116987000D01*
X125804191Y-116987000D01*
X125922811Y-116987000D01*
X125922811Y-116986999D01*
X126037386Y-116956299D01*
X126140113Y-116896989D01*
X126223989Y-116813113D01*
X126283299Y-116710386D01*
X126313999Y-116595811D01*
X126314000Y-116595811D01*
X126314000Y-116477189D01*
X126313999Y-116477188D01*
X126283300Y-116362617D01*
X126283298Y-116362612D01*
X126223991Y-116259890D01*
X126223990Y-116259889D01*
X126223989Y-116259887D01*
X126160674Y-116196572D01*
X126139000Y-116144246D01*
X126139000Y-116079500D01*
X126160674Y-116027174D01*
X126213000Y-116005500D01*
X127019746Y-116005500D01*
X127019748Y-116005500D01*
X127078231Y-115993867D01*
X127144552Y-115949552D01*
X127188867Y-115883231D01*
X127200500Y-115824748D01*
X127200500Y-115712011D01*
X127222174Y-115659685D01*
X127274500Y-115638011D01*
X127326826Y-115659685D01*
X127338588Y-115675014D01*
X127339508Y-115676609D01*
X127339511Y-115676613D01*
X127423387Y-115760489D01*
X127526114Y-115819799D01*
X127526115Y-115819799D01*
X127526117Y-115819800D01*
X127583402Y-115835149D01*
X127640688Y-115850499D01*
X127640689Y-115850500D01*
X127640691Y-115850500D01*
X127759311Y-115850500D01*
X127759311Y-115850499D01*
X127873886Y-115819799D01*
X127976613Y-115760489D01*
X128060489Y-115676613D01*
X128119799Y-115573886D01*
X128150499Y-115459311D01*
X128150500Y-115459311D01*
X128150500Y-115340689D01*
X128150499Y-115340688D01*
X128144089Y-115316767D01*
X128124326Y-115243008D01*
X128119800Y-115226117D01*
X128119798Y-115226112D01*
X128060491Y-115123390D01*
X128060490Y-115123389D01*
X128060489Y-115123387D01*
X127976613Y-115039511D01*
X127976610Y-115039509D01*
X127976609Y-115039508D01*
X127873887Y-114980201D01*
X127873882Y-114980199D01*
X127759311Y-114949500D01*
X127759309Y-114949500D01*
X127669768Y-114949500D01*
X127617442Y-114927826D01*
X127256059Y-114566444D01*
X127256057Y-114566442D01*
X127228106Y-114554865D01*
X127193888Y-114522208D01*
X127192930Y-114522849D01*
X127192030Y-114521503D01*
X127191767Y-114520183D01*
X127189455Y-114517977D01*
X127186575Y-114511850D01*
X127186542Y-114511157D01*
X127186076Y-114510031D01*
X127186482Y-114509862D01*
X127185492Y-114488693D01*
X127180962Y-114465958D01*
X127184150Y-114459990D01*
X127183930Y-114455275D01*
X127190560Y-114447994D01*
X127201220Y-114428045D01*
X127251785Y-114377480D01*
X127297089Y-114274875D01*
X127300000Y-114249789D01*
X127300000Y-114100000D01*
X124427001Y-114100000D01*
X124427001Y-114249792D01*
X121573000Y-114249792D01*
X121573000Y-114249789D01*
X121573000Y-114100000D01*
X118700001Y-114100000D01*
X118700001Y-114249792D01*
X118702908Y-114274868D01*
X118702910Y-114274874D01*
X118748213Y-114377478D01*
X118768909Y-114398174D01*
X118790583Y-114450500D01*
X118768909Y-114502826D01*
X118716583Y-114524500D01*
X118545200Y-114524500D01*
X118443944Y-114566440D01*
X118443941Y-114566442D01*
X117943942Y-115066443D01*
X117866442Y-115143943D01*
X117824500Y-115245200D01*
X117824500Y-115707746D01*
X117802826Y-115760072D01*
X117739508Y-115823390D01*
X117680201Y-115926112D01*
X117680199Y-115926117D01*
X117649500Y-116040688D01*
X108500500Y-116040688D01*
X108500500Y-113750210D01*
X118700000Y-113750210D01*
X118700000Y-113900000D01*
X121572999Y-113900000D01*
X121572999Y-113750210D01*
X124427000Y-113750210D01*
X124427000Y-113900000D01*
X127299999Y-113900000D01*
X127299999Y-113750207D01*
X127297091Y-113725131D01*
X127297089Y-113725125D01*
X127251785Y-113622518D01*
X127247912Y-113616864D01*
X127251068Y-113614701D01*
X127234417Y-113574500D01*
X127256091Y-113522174D01*
X127308417Y-113500500D01*
X141739564Y-113500500D01*
X141739564Y-113500499D01*
X141815989Y-113480021D01*
X141884511Y-113440460D01*
X141940460Y-113384511D01*
X143874283Y-111450688D01*
X161909500Y-111450688D01*
X161909500Y-111569311D01*
X161940199Y-111683882D01*
X161940201Y-111683887D01*
X161999508Y-111786609D01*
X161999509Y-111786610D01*
X161999511Y-111786613D01*
X162083387Y-111870489D01*
X162083389Y-111870490D01*
X162083390Y-111870491D01*
X162123009Y-111893365D01*
X162186114Y-111929799D01*
X162204242Y-111934656D01*
X162237415Y-111953808D01*
X166440087Y-116156480D01*
X166440089Y-116156481D01*
X166440090Y-116156482D01*
X166473915Y-116176011D01*
X166531412Y-116209207D01*
X166633273Y-116236500D01*
X166738727Y-116236500D01*
X187826859Y-116236500D01*
X187863860Y-116246415D01*
X187880109Y-116255797D01*
X187880117Y-116255800D01*
X187937402Y-116271149D01*
X187994688Y-116286499D01*
X187994689Y-116286500D01*
X187994691Y-116286500D01*
X188113311Y-116286500D01*
X188113311Y-116286499D01*
X188227886Y-116255799D01*
X188330613Y-116196489D01*
X188414489Y-116112613D01*
X188473799Y-116009886D01*
X188504499Y-115895311D01*
X188504500Y-115895311D01*
X188504500Y-115776689D01*
X188504499Y-115776688D01*
X188473800Y-115662117D01*
X188473798Y-115662112D01*
X188414491Y-115559390D01*
X188414490Y-115559389D01*
X188414489Y-115559387D01*
X188330613Y-115475511D01*
X188330610Y-115475509D01*
X188330609Y-115475508D01*
X188227887Y-115416201D01*
X188227882Y-115416199D01*
X188113311Y-115385500D01*
X188113309Y-115385500D01*
X187994691Y-115385500D01*
X187994689Y-115385500D01*
X187880117Y-115416199D01*
X187880109Y-115416202D01*
X187863860Y-115425585D01*
X187826859Y-115435500D01*
X166882545Y-115435500D01*
X166830219Y-115413826D01*
X165666185Y-114249792D01*
X188700001Y-114249792D01*
X188702908Y-114274868D01*
X188702910Y-114274874D01*
X188748213Y-114377478D01*
X188798780Y-114428045D01*
X188820454Y-114480371D01*
X188811733Y-114509128D01*
X188813922Y-114510035D01*
X188811133Y-114516767D01*
X188809595Y-114524500D01*
X188801253Y-114566442D01*
X188799500Y-114575253D01*
X188799500Y-115024746D01*
X188811133Y-115083232D01*
X188827942Y-115108387D01*
X188851699Y-115143942D01*
X188859497Y-115155611D01*
X188857430Y-115156991D01*
X188875245Y-115200000D01*
X188857430Y-115243008D01*
X188859497Y-115244389D01*
X188811133Y-115316767D01*
X188805359Y-115345797D01*
X188799500Y-115375252D01*
X188799500Y-115824748D01*
X188807255Y-115863736D01*
X188811133Y-115883232D01*
X188831602Y-115913865D01*
X188855448Y-115949552D01*
X188899560Y-115979027D01*
X188921767Y-115993866D01*
X188921768Y-115993866D01*
X188921769Y-115993867D01*
X188980252Y-116005500D01*
X188980254Y-116005500D01*
X191292746Y-116005500D01*
X191292748Y-116005500D01*
X191351231Y-115993867D01*
X191417552Y-115949552D01*
X191461867Y-115883231D01*
X191473500Y-115824748D01*
X191473500Y-115776688D01*
X193013500Y-115776688D01*
X193013500Y-115895311D01*
X193044199Y-116009882D01*
X193044201Y-116009887D01*
X193103508Y-116112609D01*
X193103509Y-116112610D01*
X193103511Y-116112613D01*
X193187387Y-116196489D01*
X193187389Y-116196490D01*
X193187390Y-116196491D01*
X193290112Y-116255798D01*
X193290114Y-116255799D01*
X193290115Y-116255799D01*
X193290117Y-116255800D01*
X193347402Y-116271149D01*
X193404688Y-116286499D01*
X193404689Y-116286500D01*
X193404691Y-116286500D01*
X193523311Y-116286500D01*
X193523311Y-116286499D01*
X193637886Y-116255799D01*
X193740613Y-116196489D01*
X193824489Y-116112613D01*
X193883799Y-116009886D01*
X193904396Y-115933014D01*
X193923545Y-115899846D01*
X194400175Y-115423217D01*
X194452500Y-115401544D01*
X194504826Y-115423218D01*
X194526500Y-115475544D01*
X194526500Y-115824748D01*
X194534255Y-115863736D01*
X194538133Y-115883232D01*
X194558602Y-115913865D01*
X194582448Y-115949552D01*
X194626560Y-115979027D01*
X194648767Y-115993866D01*
X194648768Y-115993866D01*
X194648769Y-115993867D01*
X194707252Y-116005500D01*
X194707254Y-116005500D01*
X197019746Y-116005500D01*
X197019748Y-116005500D01*
X197078231Y-115993867D01*
X197144552Y-115949552D01*
X197188867Y-115883231D01*
X197200500Y-115824748D01*
X197200500Y-115375252D01*
X197188867Y-115316769D01*
X197144552Y-115250448D01*
X197144551Y-115250447D01*
X197140503Y-115244389D01*
X197142569Y-115243008D01*
X197124755Y-115200000D01*
X197142569Y-115156991D01*
X197140503Y-115155611D01*
X197148300Y-115143943D01*
X197188867Y-115083231D01*
X197200500Y-115024748D01*
X197200500Y-114575252D01*
X197188867Y-114516769D01*
X197188866Y-114516767D01*
X197188866Y-114516766D01*
X197186077Y-114510032D01*
X197189457Y-114508631D01*
X197180971Y-114465920D01*
X197201221Y-114428044D01*
X197251785Y-114377480D01*
X197297089Y-114274875D01*
X197300000Y-114249789D01*
X197300000Y-114100000D01*
X194427001Y-114100000D01*
X194427001Y-114249792D01*
X194429908Y-114274868D01*
X194429910Y-114274874D01*
X194441516Y-114301159D01*
X194442824Y-114357781D01*
X194403711Y-114398744D01*
X194392979Y-114402525D01*
X194302412Y-114426793D01*
X194302411Y-114426793D01*
X194302409Y-114426794D01*
X194302407Y-114426795D01*
X194211090Y-114479517D01*
X193259835Y-115430770D01*
X193244511Y-115442529D01*
X193187388Y-115475510D01*
X193103508Y-115559390D01*
X193044201Y-115662112D01*
X193044199Y-115662117D01*
X193013500Y-115776688D01*
X191473500Y-115776688D01*
X191473500Y-115375252D01*
X191461867Y-115316769D01*
X191417552Y-115250448D01*
X191417551Y-115250447D01*
X191413503Y-115244389D01*
X191415569Y-115243008D01*
X191397755Y-115200000D01*
X191415569Y-115156991D01*
X191413503Y-115155611D01*
X191421300Y-115143943D01*
X191461867Y-115083231D01*
X191473500Y-115024748D01*
X191473500Y-114575252D01*
X191461867Y-114516769D01*
X191461866Y-114516767D01*
X191461866Y-114516766D01*
X191459077Y-114510032D01*
X191462457Y-114508631D01*
X191453971Y-114465920D01*
X191474221Y-114428044D01*
X191524785Y-114377480D01*
X191570089Y-114274875D01*
X191573000Y-114249789D01*
X191573000Y-114100000D01*
X188700001Y-114100000D01*
X188700001Y-114249792D01*
X165666185Y-114249792D01*
X162803808Y-111387415D01*
X162784656Y-111354242D01*
X162779799Y-111336114D01*
X162720489Y-111233387D01*
X162636613Y-111149511D01*
X162636610Y-111149509D01*
X162636609Y-111149508D01*
X162533887Y-111090201D01*
X162533882Y-111090199D01*
X162419311Y-111059500D01*
X162419309Y-111059500D01*
X162300691Y-111059500D01*
X162300689Y-111059500D01*
X162186117Y-111090199D01*
X162186112Y-111090201D01*
X162083390Y-111149508D01*
X161999508Y-111233390D01*
X161940201Y-111336112D01*
X161940199Y-111336117D01*
X161909500Y-111450688D01*
X143874283Y-111450688D01*
X144502797Y-110822174D01*
X144555123Y-110800500D01*
X149732746Y-110800500D01*
X149785071Y-110822173D01*
X149823387Y-110860489D01*
X149823389Y-110860490D01*
X149823390Y-110860491D01*
X149909992Y-110910491D01*
X149926114Y-110919799D01*
X149926115Y-110919799D01*
X149926117Y-110919800D01*
X149983402Y-110935149D01*
X150040688Y-110950499D01*
X150040689Y-110950500D01*
X150040691Y-110950500D01*
X150159311Y-110950500D01*
X150159311Y-110950499D01*
X150273886Y-110919799D01*
X150376613Y-110860489D01*
X150460489Y-110776613D01*
X150519799Y-110673886D01*
X150550499Y-110559311D01*
X150550500Y-110559311D01*
X150550500Y-110440689D01*
X150550499Y-110440688D01*
X150519800Y-110326117D01*
X150519798Y-110326112D01*
X150460491Y-110223390D01*
X150460490Y-110223389D01*
X150460489Y-110223387D01*
X150376613Y-110139511D01*
X150376610Y-110139509D01*
X150376609Y-110139508D01*
X150273887Y-110080201D01*
X150273882Y-110080199D01*
X150241333Y-110071478D01*
X150234297Y-110066079D01*
X150225473Y-110065193D01*
X150212572Y-110049409D01*
X150196400Y-110037000D01*
X150195242Y-110028206D01*
X150189630Y-110021340D01*
X150191668Y-110001056D01*
X150190303Y-109990688D01*
X165449500Y-109990688D01*
X165449500Y-110109311D01*
X165480199Y-110223882D01*
X165480201Y-110223887D01*
X165539508Y-110326609D01*
X165539509Y-110326610D01*
X165539511Y-110326613D01*
X165623387Y-110410489D01*
X165623389Y-110410490D01*
X165623390Y-110410491D01*
X165723644Y-110468373D01*
X165726114Y-110469799D01*
X165726115Y-110469799D01*
X165726117Y-110469800D01*
X165756071Y-110477826D01*
X165840688Y-110500499D01*
X165840689Y-110500500D01*
X165840691Y-110500500D01*
X165959310Y-110500500D01*
X165995916Y-110490691D01*
X166006346Y-110487896D01*
X166062499Y-110495288D01*
X166096978Y-110540220D01*
X166099500Y-110559374D01*
X166099500Y-110609311D01*
X166130199Y-110723882D01*
X166130201Y-110723887D01*
X166189508Y-110826609D01*
X166189509Y-110826610D01*
X166189511Y-110826613D01*
X166273387Y-110910489D01*
X166273389Y-110910490D01*
X166273390Y-110910491D01*
X166342687Y-110950500D01*
X166376114Y-110969799D01*
X166376115Y-110969799D01*
X166376117Y-110969800D01*
X166433402Y-110985149D01*
X166490688Y-111000499D01*
X166490689Y-111000500D01*
X166490691Y-111000500D01*
X166609311Y-111000500D01*
X166609311Y-111000499D01*
X166723886Y-110969799D01*
X166826613Y-110910489D01*
X166864929Y-110872173D01*
X166917254Y-110850500D01*
X167144877Y-110850500D01*
X167197203Y-110872174D01*
X169709540Y-113384511D01*
X169765489Y-113440460D01*
X169834011Y-113480021D01*
X169834012Y-113480021D01*
X169834014Y-113480022D01*
X169845994Y-113483232D01*
X169910435Y-113500499D01*
X169910436Y-113500500D01*
X169910438Y-113500500D01*
X188691583Y-113500500D01*
X188743909Y-113522174D01*
X188765583Y-113574500D01*
X188748931Y-113614701D01*
X188752088Y-113616864D01*
X188748214Y-113622518D01*
X188702910Y-113725124D01*
X188700000Y-113750210D01*
X188700000Y-113900000D01*
X191572999Y-113900000D01*
X191572999Y-113750210D01*
X194427000Y-113750210D01*
X194427000Y-113900000D01*
X197299999Y-113900000D01*
X197299999Y-113750207D01*
X197297091Y-113725131D01*
X197297089Y-113725125D01*
X197251786Y-113622521D01*
X197201219Y-113571954D01*
X197179545Y-113519628D01*
X197188275Y-113490874D01*
X197186078Y-113489964D01*
X197188866Y-113483232D01*
X197188865Y-113483232D01*
X197188867Y-113483231D01*
X197200500Y-113424748D01*
X197200500Y-112975252D01*
X197188867Y-112916769D01*
X197144552Y-112850448D01*
X197144551Y-112850447D01*
X197140503Y-112844389D01*
X197142569Y-112843008D01*
X197124755Y-112800000D01*
X197142569Y-112756991D01*
X197140503Y-112755611D01*
X197158573Y-112728569D01*
X197188867Y-112683231D01*
X197200500Y-112624748D01*
X197200500Y-112175252D01*
X197188867Y-112116769D01*
X197144552Y-112050448D01*
X197144551Y-112050447D01*
X197140503Y-112044389D01*
X197142569Y-112043008D01*
X197124755Y-112000000D01*
X197142569Y-111956991D01*
X197140503Y-111955611D01*
X197152072Y-111938298D01*
X197188867Y-111883231D01*
X197200500Y-111824748D01*
X197200500Y-111375252D01*
X197188867Y-111316769D01*
X197176636Y-111298465D01*
X197140503Y-111244389D01*
X197142569Y-111243008D01*
X197124755Y-111200000D01*
X197142569Y-111156991D01*
X197140503Y-111155611D01*
X197162846Y-111122174D01*
X197188867Y-111083231D01*
X197200500Y-111024748D01*
X197200500Y-110575252D01*
X197188867Y-110516769D01*
X197176636Y-110498465D01*
X197140503Y-110444389D01*
X197142569Y-110443008D01*
X197124755Y-110400000D01*
X197142569Y-110356991D01*
X197140503Y-110355611D01*
X197146621Y-110346456D01*
X197188867Y-110283231D01*
X197200500Y-110224748D01*
X197200500Y-109775252D01*
X197188867Y-109716769D01*
X197170653Y-109689511D01*
X197155353Y-109666613D01*
X197144552Y-109650448D01*
X197144551Y-109650447D01*
X197140503Y-109644389D01*
X197142569Y-109643008D01*
X197124755Y-109600000D01*
X197142569Y-109556991D01*
X197140503Y-109555611D01*
X197162846Y-109522174D01*
X197188867Y-109483231D01*
X197200500Y-109424748D01*
X197200500Y-108975252D01*
X197188867Y-108916769D01*
X197176636Y-108898465D01*
X197156529Y-108868373D01*
X197144552Y-108850448D01*
X197144551Y-108850447D01*
X197140503Y-108844389D01*
X197142569Y-108843008D01*
X197124755Y-108800000D01*
X197142569Y-108756991D01*
X197140503Y-108755611D01*
X197152072Y-108738298D01*
X197188867Y-108683231D01*
X197200500Y-108624748D01*
X197200500Y-108175252D01*
X197188867Y-108116769D01*
X197183882Y-108109309D01*
X197140503Y-108044389D01*
X197142569Y-108043008D01*
X197124755Y-108000000D01*
X197142569Y-107956991D01*
X197140503Y-107955611D01*
X197150473Y-107940691D01*
X197188867Y-107883231D01*
X197200500Y-107824748D01*
X197200500Y-107375252D01*
X197188867Y-107316769D01*
X197188866Y-107316767D01*
X197188866Y-107316766D01*
X197186077Y-107310032D01*
X197189457Y-107308631D01*
X197180971Y-107265920D01*
X197201221Y-107228044D01*
X197251785Y-107177480D01*
X197297089Y-107074875D01*
X197300000Y-107049789D01*
X197300000Y-106900000D01*
X194427001Y-106900000D01*
X194427001Y-107049792D01*
X194429908Y-107074868D01*
X194429910Y-107074874D01*
X194475213Y-107177478D01*
X194525780Y-107228045D01*
X194547454Y-107280371D01*
X194538733Y-107309128D01*
X194540922Y-107310035D01*
X194538133Y-107316767D01*
X194536175Y-107326613D01*
X194526500Y-107375252D01*
X194526500Y-107824748D01*
X194533609Y-107860489D01*
X194538133Y-107883232D01*
X194586497Y-107955611D01*
X194584430Y-107956991D01*
X194602245Y-108000000D01*
X194584430Y-108043008D01*
X194586497Y-108044389D01*
X194538133Y-108116767D01*
X194538133Y-108116769D01*
X194526500Y-108175252D01*
X194526500Y-108624748D01*
X194534255Y-108663736D01*
X194538133Y-108683232D01*
X194586497Y-108755611D01*
X194584430Y-108756991D01*
X194602245Y-108800000D01*
X194584430Y-108843008D01*
X194586497Y-108844389D01*
X194582448Y-108850447D01*
X194582448Y-108850448D01*
X194575739Y-108860489D01*
X194538133Y-108916767D01*
X194531423Y-108950500D01*
X194526500Y-108975252D01*
X194526500Y-109424748D01*
X194529626Y-109440462D01*
X194538133Y-109483232D01*
X194586497Y-109555611D01*
X194584430Y-109556991D01*
X194602245Y-109600000D01*
X194584430Y-109643008D01*
X194586497Y-109644389D01*
X194582448Y-109650447D01*
X194582448Y-109650448D01*
X194574528Y-109662299D01*
X194538133Y-109716767D01*
X194538133Y-109716769D01*
X194526500Y-109775252D01*
X194526500Y-110224748D01*
X194534255Y-110263736D01*
X194538133Y-110283232D01*
X194550622Y-110301922D01*
X194580379Y-110346456D01*
X194586497Y-110355611D01*
X194584430Y-110356991D01*
X194602245Y-110400000D01*
X194584430Y-110443008D01*
X194586497Y-110444389D01*
X194538133Y-110516767D01*
X194538133Y-110516769D01*
X194526500Y-110575252D01*
X194526500Y-111024748D01*
X194529626Y-111040462D01*
X194538133Y-111083232D01*
X194586497Y-111155611D01*
X194584430Y-111156991D01*
X194602245Y-111200000D01*
X194584430Y-111243008D01*
X194586497Y-111244389D01*
X194538133Y-111316767D01*
X194538133Y-111316769D01*
X194526500Y-111375252D01*
X194526500Y-111824748D01*
X194534255Y-111863736D01*
X194538133Y-111883232D01*
X194586497Y-111955611D01*
X194584430Y-111956991D01*
X194602245Y-112000000D01*
X194584430Y-112043008D01*
X194586497Y-112044389D01*
X194538133Y-112116767D01*
X194538133Y-112116769D01*
X194526500Y-112175252D01*
X194526500Y-112624748D01*
X194532072Y-112652761D01*
X194538133Y-112683232D01*
X194586497Y-112755611D01*
X194584430Y-112756991D01*
X194602245Y-112800000D01*
X194584430Y-112843008D01*
X194586497Y-112844389D01*
X194538133Y-112916767D01*
X194526500Y-112975253D01*
X194526500Y-113424746D01*
X194538133Y-113483233D01*
X194540923Y-113489968D01*
X194537543Y-113491367D01*
X194546026Y-113534092D01*
X194525779Y-113571954D01*
X194475214Y-113622519D01*
X194429910Y-113725124D01*
X194427000Y-113750210D01*
X191572999Y-113750210D01*
X191572999Y-113750207D01*
X191570091Y-113725131D01*
X191570089Y-113725125D01*
X191524786Y-113622521D01*
X191474219Y-113571954D01*
X191452545Y-113519628D01*
X191461275Y-113490874D01*
X191459078Y-113489964D01*
X191461866Y-113483232D01*
X191461865Y-113483232D01*
X191461867Y-113483231D01*
X191473500Y-113424748D01*
X191473500Y-112975252D01*
X191461867Y-112916769D01*
X191417552Y-112850448D01*
X191417551Y-112850447D01*
X191413503Y-112844389D01*
X191415569Y-112843008D01*
X191397755Y-112800000D01*
X191415569Y-112756991D01*
X191413503Y-112755611D01*
X191431573Y-112728569D01*
X191461867Y-112683231D01*
X191473500Y-112624748D01*
X191473500Y-112175252D01*
X191461867Y-112116769D01*
X191417552Y-112050448D01*
X191417551Y-112050447D01*
X191413503Y-112044389D01*
X191415569Y-112043008D01*
X191397755Y-112000000D01*
X191415569Y-111956991D01*
X191413503Y-111955611D01*
X191425072Y-111938298D01*
X191461867Y-111883231D01*
X191473500Y-111824748D01*
X191473500Y-111375252D01*
X191461867Y-111316769D01*
X191449636Y-111298465D01*
X191413503Y-111244389D01*
X191415569Y-111243008D01*
X191397755Y-111200000D01*
X191415569Y-111156991D01*
X191413503Y-111155611D01*
X191435846Y-111122174D01*
X191461867Y-111083231D01*
X191473500Y-111024748D01*
X191473500Y-110575252D01*
X191461867Y-110516769D01*
X191449636Y-110498465D01*
X191413503Y-110444389D01*
X191415569Y-110443008D01*
X191397755Y-110400000D01*
X191415569Y-110356991D01*
X191413503Y-110355611D01*
X191419621Y-110346456D01*
X191461867Y-110283231D01*
X191473500Y-110224748D01*
X191473500Y-109775252D01*
X191461867Y-109716769D01*
X191443653Y-109689511D01*
X191428353Y-109666613D01*
X191417552Y-109650448D01*
X191417551Y-109650447D01*
X191413503Y-109644389D01*
X191415569Y-109643008D01*
X191397755Y-109600000D01*
X191415569Y-109556991D01*
X191413503Y-109555611D01*
X191435846Y-109522174D01*
X191461867Y-109483231D01*
X191473500Y-109424748D01*
X191473500Y-108975252D01*
X191461867Y-108916769D01*
X191449636Y-108898465D01*
X191429529Y-108868373D01*
X191417552Y-108850448D01*
X191417551Y-108850447D01*
X191413503Y-108844389D01*
X191415569Y-108843008D01*
X191397755Y-108800000D01*
X191415569Y-108756991D01*
X191413503Y-108755611D01*
X191425072Y-108738298D01*
X191461867Y-108683231D01*
X191473500Y-108624748D01*
X191473500Y-108175252D01*
X191461867Y-108116769D01*
X191456882Y-108109309D01*
X191413503Y-108044389D01*
X191415569Y-108043008D01*
X191397755Y-108000000D01*
X191415569Y-107956991D01*
X191413503Y-107955611D01*
X191423473Y-107940691D01*
X191461867Y-107883231D01*
X191473500Y-107824748D01*
X191473500Y-107375252D01*
X191461867Y-107316769D01*
X191461866Y-107316767D01*
X191461866Y-107316766D01*
X191459077Y-107310032D01*
X191462457Y-107308631D01*
X191453971Y-107265920D01*
X191474221Y-107228044D01*
X191524785Y-107177480D01*
X191570089Y-107074875D01*
X191573000Y-107049789D01*
X191573000Y-106900000D01*
X188700001Y-106900000D01*
X188700001Y-107049792D01*
X188702908Y-107074868D01*
X188702910Y-107074874D01*
X188748213Y-107177478D01*
X188768909Y-107198174D01*
X188790583Y-107250500D01*
X188768909Y-107302826D01*
X188716583Y-107324500D01*
X172105123Y-107324500D01*
X172052797Y-107302826D01*
X171559511Y-106809540D01*
X171490990Y-106769979D01*
X171490985Y-106769977D01*
X171414564Y-106749500D01*
X171414562Y-106749500D01*
X166367254Y-106749500D01*
X166314929Y-106727827D01*
X166307079Y-106719977D01*
X166276613Y-106689511D01*
X166276610Y-106689509D01*
X166276609Y-106689508D01*
X166173887Y-106630201D01*
X166173882Y-106630199D01*
X166059311Y-106599500D01*
X166059309Y-106599500D01*
X165940691Y-106599500D01*
X165940689Y-106599500D01*
X165826117Y-106630199D01*
X165826112Y-106630201D01*
X165723390Y-106689508D01*
X165639508Y-106773390D01*
X165580201Y-106876112D01*
X165580199Y-106876117D01*
X165549500Y-106990688D01*
X165549500Y-107109311D01*
X165580199Y-107223882D01*
X165580201Y-107223887D01*
X165639508Y-107326609D01*
X165639509Y-107326610D01*
X165639511Y-107326613D01*
X165723387Y-107410489D01*
X165723389Y-107410490D01*
X165723390Y-107410491D01*
X165775694Y-107440689D01*
X165826114Y-107469799D01*
X165826115Y-107469799D01*
X165826117Y-107469800D01*
X165858666Y-107478522D01*
X165903599Y-107513001D01*
X165910991Y-107569153D01*
X165876512Y-107614086D01*
X165858666Y-107621478D01*
X165826117Y-107630199D01*
X165826112Y-107630201D01*
X165723390Y-107689508D01*
X165639508Y-107773390D01*
X165580201Y-107876112D01*
X165580199Y-107876117D01*
X165549500Y-107990688D01*
X165549500Y-108109311D01*
X165580199Y-108223882D01*
X165580201Y-108223887D01*
X165639508Y-108326609D01*
X165639509Y-108326610D01*
X165639511Y-108326613D01*
X165723387Y-108410489D01*
X165723389Y-108410490D01*
X165723390Y-108410491D01*
X165775694Y-108440689D01*
X165826114Y-108469799D01*
X165883666Y-108485220D01*
X165928599Y-108519698D01*
X165935992Y-108575850D01*
X165901513Y-108620784D01*
X165883672Y-108628175D01*
X165876116Y-108630200D01*
X165876112Y-108630201D01*
X165773390Y-108689508D01*
X165689508Y-108773390D01*
X165630201Y-108876112D01*
X165630199Y-108876117D01*
X165599500Y-108990688D01*
X165599500Y-109109311D01*
X165630199Y-109223882D01*
X165630201Y-109223887D01*
X165689508Y-109326609D01*
X165689509Y-109326610D01*
X165689511Y-109326613D01*
X165773387Y-109410489D01*
X165773389Y-109410490D01*
X165773390Y-109410491D01*
X165798081Y-109424746D01*
X165863679Y-109462620D01*
X165898157Y-109507552D01*
X165890765Y-109563705D01*
X165845832Y-109598183D01*
X165844930Y-109598363D01*
X165726117Y-109630199D01*
X165726112Y-109630201D01*
X165623390Y-109689508D01*
X165539508Y-109773390D01*
X165480201Y-109876112D01*
X165480199Y-109876117D01*
X165449500Y-109990688D01*
X150190303Y-109990688D01*
X150189008Y-109980847D01*
X150194406Y-109973811D01*
X150195293Y-109964987D01*
X150210295Y-109953104D01*
X150223486Y-109935914D01*
X150239146Y-109929144D01*
X150240240Y-109928814D01*
X150273886Y-109919799D01*
X150376613Y-109860489D01*
X150460489Y-109776613D01*
X150519799Y-109673886D01*
X150550499Y-109559311D01*
X150550500Y-109559311D01*
X150550500Y-109440689D01*
X150550499Y-109440688D01*
X150550438Y-109440462D01*
X150519799Y-109326114D01*
X150460489Y-109223387D01*
X150376613Y-109139511D01*
X150376610Y-109139509D01*
X150376609Y-109139508D01*
X150273887Y-109080201D01*
X150273882Y-109080199D01*
X150216333Y-109064779D01*
X150171400Y-109030301D01*
X150164008Y-108974148D01*
X150198486Y-108929215D01*
X150216330Y-108921823D01*
X150223886Y-108919799D01*
X150326613Y-108860489D01*
X150410489Y-108776613D01*
X150469799Y-108673886D01*
X150500499Y-108559311D01*
X150500500Y-108559311D01*
X150500500Y-108440689D01*
X150500499Y-108440688D01*
X150496161Y-108424500D01*
X150469799Y-108326114D01*
X150410489Y-108223387D01*
X150326613Y-108139511D01*
X150326610Y-108139509D01*
X150326609Y-108139508D01*
X150223887Y-108080201D01*
X150223882Y-108080199D01*
X150191333Y-108071478D01*
X150146400Y-108037000D01*
X150139008Y-107980847D01*
X150173486Y-107935914D01*
X150191333Y-107928522D01*
X150223882Y-107919800D01*
X150223881Y-107919800D01*
X150223886Y-107919799D01*
X150326613Y-107860489D01*
X150410489Y-107776613D01*
X150469799Y-107673886D01*
X150500499Y-107559311D01*
X150500500Y-107559311D01*
X150500500Y-107440689D01*
X150500499Y-107440688D01*
X150496161Y-107424500D01*
X150469799Y-107326114D01*
X150464404Y-107316769D01*
X150410491Y-107223390D01*
X150410490Y-107223389D01*
X150410489Y-107223387D01*
X150326613Y-107139511D01*
X150326610Y-107139509D01*
X150326609Y-107139508D01*
X150223887Y-107080201D01*
X150223882Y-107080199D01*
X150109311Y-107049500D01*
X150109309Y-107049500D01*
X149990691Y-107049500D01*
X149990689Y-107049500D01*
X149985880Y-107050133D01*
X149985552Y-107047646D01*
X149937477Y-107041299D01*
X149903014Y-106996353D01*
X149900500Y-106977227D01*
X149900500Y-106940689D01*
X149900499Y-106940688D01*
X149869800Y-106826117D01*
X149869798Y-106826112D01*
X149810491Y-106723390D01*
X149810490Y-106723389D01*
X149810489Y-106723387D01*
X149726613Y-106639511D01*
X149726610Y-106639509D01*
X149726609Y-106639508D01*
X149623887Y-106580201D01*
X149623882Y-106580199D01*
X149509311Y-106549500D01*
X149509309Y-106549500D01*
X149390691Y-106549500D01*
X149390689Y-106549500D01*
X149276117Y-106580199D01*
X149276112Y-106580201D01*
X149173390Y-106639508D01*
X149135071Y-106677827D01*
X149082746Y-106699500D01*
X141160434Y-106699500D01*
X141084012Y-106719977D01*
X141084007Y-106719979D01*
X141032877Y-106749500D01*
X141015486Y-106759540D01*
X140497201Y-107277826D01*
X140444875Y-107299500D01*
X127308417Y-107299500D01*
X127256091Y-107277826D01*
X127234417Y-107225500D01*
X127251068Y-107185298D01*
X127247912Y-107183136D01*
X127251785Y-107177481D01*
X127297089Y-107074875D01*
X127300000Y-107049789D01*
X127300000Y-106900000D01*
X124427001Y-106900000D01*
X124427001Y-107049792D01*
X124429908Y-107074868D01*
X124429910Y-107074874D01*
X124475213Y-107177478D01*
X124525780Y-107228045D01*
X124547454Y-107280371D01*
X124538733Y-107309128D01*
X124540922Y-107310035D01*
X124538133Y-107316767D01*
X124536175Y-107326613D01*
X124526500Y-107375252D01*
X124526500Y-107824748D01*
X124533609Y-107860489D01*
X124538133Y-107883232D01*
X124586497Y-107955611D01*
X124584430Y-107956991D01*
X124602245Y-108000000D01*
X124584430Y-108043008D01*
X124586497Y-108044389D01*
X124538133Y-108116767D01*
X124538133Y-108116769D01*
X124526500Y-108175252D01*
X124526500Y-108624748D01*
X124534255Y-108663736D01*
X124538133Y-108683232D01*
X124586497Y-108755611D01*
X124584430Y-108756991D01*
X124602245Y-108800000D01*
X124584430Y-108843008D01*
X124586497Y-108844389D01*
X124582448Y-108850447D01*
X124582448Y-108850448D01*
X124575739Y-108860489D01*
X124538133Y-108916767D01*
X124531423Y-108950500D01*
X124526500Y-108975252D01*
X124526500Y-109424748D01*
X124529626Y-109440462D01*
X124538133Y-109483232D01*
X124586497Y-109555611D01*
X124584430Y-109556991D01*
X124602245Y-109600000D01*
X124584430Y-109643008D01*
X124586497Y-109644389D01*
X124582448Y-109650447D01*
X124582448Y-109650448D01*
X124574528Y-109662299D01*
X124538133Y-109716767D01*
X124538133Y-109716769D01*
X124526500Y-109775252D01*
X124526500Y-110224748D01*
X124534255Y-110263736D01*
X124538133Y-110283232D01*
X124550622Y-110301922D01*
X124580379Y-110346456D01*
X124586497Y-110355611D01*
X124584430Y-110356991D01*
X124602245Y-110400000D01*
X124584430Y-110443008D01*
X124586497Y-110444389D01*
X124538133Y-110516767D01*
X124538133Y-110516769D01*
X124526500Y-110575252D01*
X124526500Y-111024748D01*
X124529626Y-111040462D01*
X124538133Y-111083232D01*
X124586497Y-111155611D01*
X124584430Y-111156991D01*
X124602245Y-111200000D01*
X124584430Y-111243008D01*
X124586497Y-111244389D01*
X124538133Y-111316767D01*
X124538133Y-111316769D01*
X124526500Y-111375252D01*
X124526500Y-111824748D01*
X124534255Y-111863736D01*
X124538133Y-111883232D01*
X124586497Y-111955611D01*
X124584430Y-111956991D01*
X124602245Y-112000000D01*
X124584430Y-112043008D01*
X124586497Y-112044389D01*
X124538133Y-112116767D01*
X124538133Y-112116769D01*
X124526500Y-112175252D01*
X124526500Y-112624748D01*
X124532072Y-112652761D01*
X124538133Y-112683232D01*
X124586497Y-112755611D01*
X124584430Y-112756991D01*
X124602245Y-112800000D01*
X124584430Y-112843008D01*
X124586497Y-112844389D01*
X124538133Y-112916767D01*
X124526500Y-112975253D01*
X124526500Y-113424746D01*
X124538133Y-113483233D01*
X124540923Y-113489968D01*
X124537543Y-113491367D01*
X124546026Y-113534092D01*
X124525779Y-113571954D01*
X124475214Y-113622519D01*
X124429910Y-113725124D01*
X124427000Y-113750210D01*
X121572999Y-113750210D01*
X121572999Y-113750207D01*
X121570091Y-113725131D01*
X121570089Y-113725125D01*
X121524786Y-113622521D01*
X121474219Y-113571954D01*
X121452545Y-113519628D01*
X121461275Y-113490874D01*
X121459078Y-113489964D01*
X121461866Y-113483232D01*
X121461865Y-113483232D01*
X121461867Y-113483231D01*
X121473500Y-113424748D01*
X121473500Y-112975252D01*
X121461867Y-112916769D01*
X121417552Y-112850448D01*
X121417551Y-112850447D01*
X121413503Y-112844389D01*
X121415569Y-112843008D01*
X121397755Y-112800000D01*
X121415569Y-112756991D01*
X121413503Y-112755611D01*
X121431573Y-112728569D01*
X121461867Y-112683231D01*
X121473500Y-112624748D01*
X121473500Y-112175252D01*
X121461867Y-112116769D01*
X121417552Y-112050448D01*
X121417551Y-112050447D01*
X121413503Y-112044389D01*
X121415569Y-112043008D01*
X121397755Y-112000000D01*
X121415569Y-111956991D01*
X121413503Y-111955611D01*
X121425072Y-111938298D01*
X121461867Y-111883231D01*
X121473500Y-111824748D01*
X121473500Y-111375252D01*
X121461867Y-111316769D01*
X121449636Y-111298465D01*
X121413503Y-111244389D01*
X121415569Y-111243008D01*
X121397755Y-111200000D01*
X121415569Y-111156991D01*
X121413503Y-111155611D01*
X121435846Y-111122174D01*
X121461867Y-111083231D01*
X121473500Y-111024748D01*
X121473500Y-110575252D01*
X121461867Y-110516769D01*
X121449636Y-110498465D01*
X121413503Y-110444389D01*
X121415569Y-110443008D01*
X121397755Y-110400000D01*
X121415569Y-110356991D01*
X121413503Y-110355611D01*
X121419621Y-110346456D01*
X121461867Y-110283231D01*
X121473500Y-110224748D01*
X121473500Y-109775252D01*
X121461867Y-109716769D01*
X121443653Y-109689511D01*
X121428353Y-109666613D01*
X121417552Y-109650448D01*
X121417551Y-109650447D01*
X121413503Y-109644389D01*
X121415569Y-109643008D01*
X121397755Y-109600000D01*
X121415569Y-109556991D01*
X121413503Y-109555611D01*
X121435846Y-109522174D01*
X121461867Y-109483231D01*
X121473500Y-109424748D01*
X121473500Y-108975252D01*
X121461867Y-108916769D01*
X121449636Y-108898465D01*
X121429529Y-108868373D01*
X121417552Y-108850448D01*
X121417551Y-108850447D01*
X121413503Y-108844389D01*
X121415569Y-108843008D01*
X121397755Y-108800000D01*
X121415569Y-108756991D01*
X121413503Y-108755611D01*
X121425072Y-108738298D01*
X121461867Y-108683231D01*
X121473500Y-108624748D01*
X121473500Y-108175252D01*
X121461867Y-108116769D01*
X121456882Y-108109309D01*
X121413503Y-108044389D01*
X121415569Y-108043008D01*
X121397755Y-108000000D01*
X121415569Y-107956991D01*
X121413503Y-107955611D01*
X121423473Y-107940691D01*
X121461867Y-107883231D01*
X121473500Y-107824748D01*
X121473500Y-107375252D01*
X121461867Y-107316769D01*
X121461866Y-107316767D01*
X121461866Y-107316766D01*
X121459077Y-107310032D01*
X121462457Y-107308631D01*
X121453971Y-107265920D01*
X121474221Y-107228044D01*
X121524785Y-107177480D01*
X121570089Y-107074875D01*
X121573000Y-107049789D01*
X121573000Y-106900000D01*
X118700001Y-106900000D01*
X118700001Y-107049792D01*
X118702908Y-107074868D01*
X118702910Y-107074874D01*
X118748213Y-107177478D01*
X118798780Y-107228045D01*
X118820454Y-107280371D01*
X118811733Y-107309128D01*
X118813922Y-107310035D01*
X118811133Y-107316767D01*
X118809175Y-107326613D01*
X118799500Y-107375252D01*
X118799500Y-107824748D01*
X118806609Y-107860489D01*
X118811133Y-107883232D01*
X118859497Y-107955611D01*
X118857430Y-107956991D01*
X118875245Y-108000000D01*
X118857430Y-108043008D01*
X118859497Y-108044389D01*
X118811133Y-108116767D01*
X118811133Y-108116769D01*
X118799500Y-108175252D01*
X118799500Y-108624748D01*
X118807255Y-108663736D01*
X118811133Y-108683232D01*
X118859497Y-108755611D01*
X118857430Y-108756991D01*
X118875245Y-108800000D01*
X118857430Y-108843008D01*
X118859497Y-108844389D01*
X118855448Y-108850447D01*
X118855448Y-108850448D01*
X118848739Y-108860489D01*
X118811133Y-108916767D01*
X118804423Y-108950500D01*
X118799500Y-108975252D01*
X118799500Y-109424748D01*
X118802626Y-109440462D01*
X118811133Y-109483232D01*
X118859497Y-109555611D01*
X118857430Y-109556991D01*
X118875245Y-109600000D01*
X118857430Y-109643008D01*
X118859497Y-109644389D01*
X118855448Y-109650447D01*
X118855448Y-109650448D01*
X118847528Y-109662299D01*
X118811133Y-109716767D01*
X118811133Y-109716769D01*
X118799500Y-109775252D01*
X118799500Y-110224748D01*
X118807255Y-110263736D01*
X118811133Y-110283232D01*
X118823622Y-110301922D01*
X118853379Y-110346456D01*
X118859497Y-110355611D01*
X118857430Y-110356991D01*
X118875245Y-110400000D01*
X118857430Y-110443008D01*
X118859497Y-110444389D01*
X118811133Y-110516767D01*
X118811133Y-110516769D01*
X118799500Y-110575252D01*
X118799500Y-111024748D01*
X118802626Y-111040462D01*
X118811133Y-111083232D01*
X118859497Y-111155611D01*
X118857430Y-111156991D01*
X118875245Y-111200000D01*
X118857430Y-111243008D01*
X118859497Y-111244389D01*
X118811133Y-111316767D01*
X118811133Y-111316769D01*
X118799500Y-111375252D01*
X118799500Y-111824748D01*
X118807255Y-111863736D01*
X118811133Y-111883232D01*
X118859497Y-111955611D01*
X118857430Y-111956991D01*
X118875245Y-112000000D01*
X118857430Y-112043008D01*
X118859497Y-112044389D01*
X118811133Y-112116767D01*
X118811133Y-112116769D01*
X118799500Y-112175252D01*
X118799500Y-112624748D01*
X118805072Y-112652761D01*
X118811133Y-112683232D01*
X118859497Y-112755611D01*
X118857430Y-112756991D01*
X118875245Y-112800000D01*
X118857430Y-112843008D01*
X118859497Y-112844389D01*
X118811133Y-112916767D01*
X118799500Y-112975253D01*
X118799500Y-113424746D01*
X118811133Y-113483233D01*
X118813923Y-113489968D01*
X118810543Y-113491367D01*
X118819026Y-113534092D01*
X118798779Y-113571954D01*
X118748214Y-113622519D01*
X118702910Y-113725124D01*
X118700000Y-113750210D01*
X108500500Y-113750210D01*
X108500500Y-106550210D01*
X118700000Y-106550210D01*
X118700000Y-106700000D01*
X121572999Y-106700000D01*
X121572999Y-106550210D01*
X124427000Y-106550210D01*
X124427000Y-106700000D01*
X127299999Y-106700000D01*
X127299999Y-106550207D01*
X127297091Y-106525131D01*
X127297089Y-106525125D01*
X127251785Y-106422518D01*
X127247912Y-106416864D01*
X127251068Y-106414701D01*
X127234417Y-106374500D01*
X127256091Y-106322174D01*
X127308417Y-106300500D01*
X149682746Y-106300500D01*
X149735071Y-106322173D01*
X149773387Y-106360489D01*
X149773389Y-106360490D01*
X149773390Y-106360491D01*
X149859992Y-106410491D01*
X149876114Y-106419799D01*
X149876115Y-106419799D01*
X149876117Y-106419800D01*
X149893658Y-106424500D01*
X149990688Y-106450499D01*
X149990689Y-106450500D01*
X149990691Y-106450500D01*
X150109311Y-106450500D01*
X150109311Y-106450499D01*
X150223886Y-106419799D01*
X150326613Y-106360489D01*
X150410489Y-106276613D01*
X150469799Y-106173886D01*
X150500499Y-106059311D01*
X150500500Y-106059311D01*
X150500500Y-105940689D01*
X150500499Y-105940688D01*
X150469800Y-105826117D01*
X150469798Y-105826112D01*
X150410491Y-105723390D01*
X150410490Y-105723389D01*
X150410489Y-105723387D01*
X150326613Y-105639511D01*
X150326610Y-105639509D01*
X150326609Y-105639508D01*
X150223887Y-105580201D01*
X150223882Y-105580199D01*
X150191333Y-105571478D01*
X150146400Y-105537000D01*
X150139008Y-105480847D01*
X150173486Y-105435914D01*
X150191333Y-105428522D01*
X150223882Y-105419800D01*
X150223881Y-105419800D01*
X150223886Y-105419799D01*
X150326613Y-105360489D01*
X150410489Y-105276613D01*
X150469799Y-105173886D01*
X150500499Y-105059311D01*
X150500500Y-105059311D01*
X150500500Y-104940689D01*
X150500499Y-104940688D01*
X150494089Y-104916767D01*
X150474290Y-104842873D01*
X150469800Y-104826117D01*
X150469798Y-104826112D01*
X150410491Y-104723390D01*
X150410490Y-104723389D01*
X150410489Y-104723387D01*
X150326613Y-104639511D01*
X150326610Y-104639509D01*
X150326609Y-104639508D01*
X150223887Y-104580201D01*
X150223882Y-104580199D01*
X150191333Y-104571478D01*
X150146400Y-104537000D01*
X150139008Y-104480847D01*
X150173486Y-104435914D01*
X150191333Y-104428522D01*
X150223882Y-104419800D01*
X150223881Y-104419800D01*
X150223886Y-104419799D01*
X150326613Y-104360489D01*
X150410489Y-104276613D01*
X150469799Y-104173886D01*
X150500499Y-104059311D01*
X150500500Y-104059311D01*
X150500500Y-103940689D01*
X150500499Y-103940688D01*
X150469800Y-103826117D01*
X150469798Y-103826112D01*
X150410491Y-103723390D01*
X150410490Y-103723389D01*
X150410489Y-103723387D01*
X150326613Y-103639511D01*
X150326610Y-103639509D01*
X150326609Y-103639508D01*
X150223887Y-103580201D01*
X150223882Y-103580199D01*
X150191333Y-103571478D01*
X150146400Y-103537000D01*
X150139008Y-103480847D01*
X150173486Y-103435914D01*
X150191333Y-103428522D01*
X150223882Y-103419800D01*
X150223881Y-103419800D01*
X150223886Y-103419799D01*
X150326613Y-103360489D01*
X150410489Y-103276613D01*
X150469799Y-103173886D01*
X150500499Y-103059311D01*
X150500500Y-103059311D01*
X150500500Y-102940689D01*
X150500499Y-102940688D01*
X150469800Y-102826117D01*
X150469798Y-102826112D01*
X150410491Y-102723390D01*
X150410490Y-102723389D01*
X150410489Y-102723387D01*
X150326613Y-102639511D01*
X150326610Y-102639509D01*
X150326609Y-102639508D01*
X150223887Y-102580201D01*
X150223882Y-102580199D01*
X150138492Y-102557319D01*
X150109311Y-102549500D01*
X150109309Y-102549500D01*
X149990691Y-102549500D01*
X149990689Y-102549500D01*
X149985880Y-102550133D01*
X149985552Y-102547646D01*
X149937477Y-102541299D01*
X149903014Y-102496353D01*
X149902269Y-102490688D01*
X165499500Y-102490688D01*
X165499500Y-102609311D01*
X165530199Y-102723882D01*
X165530201Y-102723887D01*
X165589508Y-102826609D01*
X165589509Y-102826610D01*
X165589511Y-102826613D01*
X165673387Y-102910489D01*
X165673389Y-102910490D01*
X165673390Y-102910491D01*
X165725694Y-102940689D01*
X165776114Y-102969799D01*
X165776115Y-102969799D01*
X165776117Y-102969800D01*
X165808666Y-102978522D01*
X165853599Y-103013001D01*
X165860991Y-103069153D01*
X165826512Y-103114086D01*
X165808666Y-103121478D01*
X165776117Y-103130199D01*
X165776112Y-103130201D01*
X165673390Y-103189508D01*
X165589508Y-103273390D01*
X165530201Y-103376112D01*
X165530199Y-103376117D01*
X165499500Y-103490688D01*
X165499500Y-103609311D01*
X165530199Y-103723882D01*
X165530201Y-103723887D01*
X165589508Y-103826609D01*
X165589509Y-103826610D01*
X165589511Y-103826613D01*
X165673387Y-103910489D01*
X165673389Y-103910490D01*
X165673390Y-103910491D01*
X165725694Y-103940689D01*
X165776114Y-103969799D01*
X165776115Y-103969799D01*
X165776117Y-103969800D01*
X165808666Y-103978522D01*
X165853599Y-104013001D01*
X165860991Y-104069153D01*
X165826512Y-104114086D01*
X165808666Y-104121478D01*
X165776117Y-104130199D01*
X165776112Y-104130201D01*
X165673390Y-104189508D01*
X165589508Y-104273390D01*
X165530201Y-104376112D01*
X165530199Y-104376117D01*
X165499500Y-104490688D01*
X165499500Y-104609311D01*
X165530199Y-104723882D01*
X165530201Y-104723887D01*
X165589508Y-104826609D01*
X165589509Y-104826610D01*
X165589511Y-104826613D01*
X165673387Y-104910489D01*
X165673389Y-104910490D01*
X165673390Y-104910491D01*
X165725694Y-104940689D01*
X165776114Y-104969799D01*
X165776115Y-104969799D01*
X165776117Y-104969800D01*
X165808666Y-104978522D01*
X165853599Y-105013001D01*
X165860991Y-105069153D01*
X165826512Y-105114086D01*
X165808666Y-105121478D01*
X165776117Y-105130199D01*
X165776112Y-105130201D01*
X165673390Y-105189508D01*
X165589508Y-105273390D01*
X165530201Y-105376112D01*
X165530199Y-105376117D01*
X165499500Y-105490688D01*
X165499500Y-105609311D01*
X165530199Y-105723882D01*
X165530201Y-105723887D01*
X165589508Y-105826609D01*
X165589509Y-105826610D01*
X165589511Y-105826613D01*
X165673387Y-105910489D01*
X165673389Y-105910490D01*
X165673390Y-105910491D01*
X165725694Y-105940689D01*
X165776114Y-105969799D01*
X165776115Y-105969799D01*
X165776117Y-105969800D01*
X165833402Y-105985149D01*
X165890688Y-106000499D01*
X165890689Y-106000500D01*
X165890691Y-106000500D01*
X166009311Y-106000500D01*
X166014120Y-105999867D01*
X166014448Y-106002363D01*
X166062489Y-106008680D01*
X166096975Y-106053607D01*
X166099500Y-106072772D01*
X166099500Y-106109311D01*
X166130199Y-106223882D01*
X166130201Y-106223887D01*
X166189508Y-106326609D01*
X166189509Y-106326610D01*
X166189511Y-106326613D01*
X166273387Y-106410489D01*
X166273389Y-106410490D01*
X166273390Y-106410491D01*
X166342687Y-106450500D01*
X166376114Y-106469799D01*
X166376115Y-106469799D01*
X166376117Y-106469800D01*
X166433402Y-106485149D01*
X166490688Y-106500499D01*
X166490689Y-106500500D01*
X166490691Y-106500500D01*
X166609311Y-106500500D01*
X166609311Y-106500499D01*
X166723886Y-106469799D01*
X166826613Y-106410489D01*
X166864929Y-106372173D01*
X166917254Y-106350500D01*
X188666447Y-106350500D01*
X188718773Y-106372174D01*
X188740447Y-106424500D01*
X188734142Y-106454389D01*
X188702911Y-106525122D01*
X188702910Y-106525123D01*
X188700000Y-106550210D01*
X188700000Y-106700000D01*
X191572999Y-106700000D01*
X191572999Y-106550210D01*
X194427000Y-106550210D01*
X194427000Y-106700000D01*
X197299999Y-106700000D01*
X197299999Y-106550207D01*
X197297091Y-106525131D01*
X197297089Y-106525125D01*
X197251786Y-106422521D01*
X197201219Y-106371954D01*
X197179545Y-106319628D01*
X197188275Y-106290874D01*
X197186078Y-106289964D01*
X197188866Y-106283232D01*
X197188865Y-106283232D01*
X197188867Y-106283231D01*
X197200500Y-106224748D01*
X197200500Y-105775252D01*
X197188867Y-105716769D01*
X197176636Y-105698465D01*
X197140503Y-105644389D01*
X197142569Y-105643008D01*
X197124755Y-105600000D01*
X197142569Y-105556991D01*
X197140503Y-105555611D01*
X197144587Y-105549500D01*
X197188867Y-105483231D01*
X197200500Y-105424748D01*
X197200500Y-104975252D01*
X197188867Y-104916769D01*
X197176636Y-104898465D01*
X197140503Y-104844389D01*
X197142569Y-104843008D01*
X197124755Y-104800000D01*
X197142569Y-104756991D01*
X197140503Y-104755611D01*
X197144587Y-104749500D01*
X197188867Y-104683231D01*
X197200500Y-104624748D01*
X197200500Y-104175252D01*
X197188867Y-104116769D01*
X197187074Y-104114086D01*
X197140503Y-104044389D01*
X197142569Y-104043008D01*
X197124755Y-104000000D01*
X197142569Y-103956991D01*
X197140503Y-103955611D01*
X197150473Y-103940691D01*
X197188867Y-103883231D01*
X197200500Y-103824748D01*
X197200500Y-103375252D01*
X197188867Y-103316769D01*
X197176636Y-103298465D01*
X197162035Y-103276613D01*
X197144552Y-103250448D01*
X197144551Y-103250447D01*
X197140503Y-103244389D01*
X197142569Y-103243008D01*
X197124755Y-103200000D01*
X197142569Y-103156991D01*
X197140503Y-103155611D01*
X197162178Y-103123174D01*
X197188867Y-103083231D01*
X197200500Y-103024748D01*
X197200500Y-102575252D01*
X197188867Y-102516769D01*
X197176636Y-102498465D01*
X197162445Y-102477227D01*
X197144552Y-102450448D01*
X197144551Y-102450447D01*
X197140503Y-102444389D01*
X197142569Y-102443008D01*
X197124755Y-102400000D01*
X197142569Y-102356991D01*
X197140503Y-102355611D01*
X197162846Y-102322174D01*
X197188867Y-102283231D01*
X197200500Y-102224748D01*
X197200500Y-101775252D01*
X197188867Y-101716769D01*
X197176636Y-101698465D01*
X197140503Y-101644389D01*
X197142569Y-101643008D01*
X197124755Y-101600000D01*
X197142569Y-101556991D01*
X197140503Y-101555611D01*
X197162846Y-101522174D01*
X197188867Y-101483231D01*
X197200500Y-101424748D01*
X197200500Y-100975252D01*
X197188867Y-100916769D01*
X197176636Y-100898465D01*
X197156529Y-100868373D01*
X197144552Y-100850448D01*
X197144551Y-100850447D01*
X197140503Y-100844389D01*
X197142569Y-100843008D01*
X197124755Y-100800000D01*
X197142569Y-100756991D01*
X197140503Y-100755611D01*
X197162846Y-100722174D01*
X197188867Y-100683231D01*
X197200500Y-100624748D01*
X197200500Y-100175252D01*
X197188867Y-100116769D01*
X197188866Y-100116767D01*
X197188866Y-100116766D01*
X197186077Y-100110032D01*
X197189457Y-100108631D01*
X197180971Y-100065920D01*
X197201221Y-100028044D01*
X197251785Y-99977480D01*
X197297089Y-99874875D01*
X197300000Y-99849789D01*
X197300000Y-99700000D01*
X194427001Y-99700000D01*
X194427001Y-99849792D01*
X194429908Y-99874868D01*
X194429910Y-99874874D01*
X194475213Y-99977478D01*
X194525780Y-100028045D01*
X194547454Y-100080371D01*
X194538733Y-100109128D01*
X194540922Y-100110035D01*
X194538133Y-100116767D01*
X194526500Y-100175253D01*
X194526500Y-100624746D01*
X194538133Y-100683232D01*
X194586497Y-100755611D01*
X194584430Y-100756991D01*
X194602245Y-100800000D01*
X194584430Y-100843008D01*
X194586497Y-100844389D01*
X194538133Y-100916767D01*
X194531423Y-100950500D01*
X194526500Y-100975252D01*
X194526500Y-101424748D01*
X194534255Y-101463736D01*
X194538133Y-101483232D01*
X194586497Y-101555611D01*
X194584430Y-101556991D01*
X194602245Y-101600000D01*
X194584430Y-101643008D01*
X194586497Y-101644389D01*
X194538133Y-101716767D01*
X194533420Y-101740462D01*
X194526500Y-101775252D01*
X194526500Y-102224748D01*
X194534255Y-102263736D01*
X194538133Y-102283232D01*
X194586497Y-102355611D01*
X194584430Y-102356991D01*
X194602245Y-102400000D01*
X194584430Y-102443008D01*
X194586497Y-102444389D01*
X194538133Y-102516767D01*
X194533254Y-102541299D01*
X194526595Y-102574777D01*
X194526500Y-102575253D01*
X194526500Y-103024746D01*
X194538133Y-103083232D01*
X194586497Y-103155611D01*
X194584430Y-103156991D01*
X194602245Y-103200000D01*
X194584430Y-103243008D01*
X194586497Y-103244389D01*
X194538133Y-103316767D01*
X194538133Y-103316769D01*
X194526500Y-103375252D01*
X194526500Y-103824748D01*
X194526871Y-103826613D01*
X194538133Y-103883232D01*
X194586497Y-103955611D01*
X194584430Y-103956991D01*
X194602245Y-104000000D01*
X194584430Y-104043008D01*
X194586497Y-104044389D01*
X194538133Y-104116767D01*
X194526500Y-104175253D01*
X194526500Y-104624746D01*
X194538133Y-104683232D01*
X194549672Y-104700500D01*
X194582413Y-104749500D01*
X194586497Y-104755611D01*
X194584430Y-104756991D01*
X194602245Y-104800000D01*
X194584430Y-104843008D01*
X194586497Y-104844389D01*
X194538133Y-104916767D01*
X194530377Y-104955757D01*
X194526500Y-104975252D01*
X194526500Y-105424748D01*
X194534255Y-105463736D01*
X194538133Y-105483232D01*
X194549672Y-105500500D01*
X194582413Y-105549500D01*
X194586497Y-105555611D01*
X194584430Y-105556991D01*
X194602245Y-105600000D01*
X194584430Y-105643008D01*
X194586497Y-105644389D01*
X194538133Y-105716767D01*
X194526500Y-105775253D01*
X194526500Y-106224746D01*
X194538133Y-106283233D01*
X194540923Y-106289968D01*
X194537543Y-106291367D01*
X194546026Y-106334092D01*
X194525779Y-106371954D01*
X194475214Y-106422519D01*
X194429910Y-106525124D01*
X194427000Y-106550210D01*
X191572999Y-106550210D01*
X191572999Y-106550207D01*
X191570091Y-106525131D01*
X191570089Y-106525125D01*
X191524786Y-106422521D01*
X191474219Y-106371954D01*
X191452545Y-106319628D01*
X191461275Y-106290874D01*
X191459078Y-106289964D01*
X191461866Y-106283232D01*
X191461865Y-106283232D01*
X191461867Y-106283231D01*
X191473500Y-106224748D01*
X191473500Y-105775252D01*
X191461867Y-105716769D01*
X191449636Y-105698465D01*
X191413503Y-105644389D01*
X191415569Y-105643008D01*
X191397755Y-105600000D01*
X191415569Y-105556991D01*
X191413503Y-105555611D01*
X191417587Y-105549500D01*
X191461867Y-105483231D01*
X191473500Y-105424748D01*
X191473500Y-104975252D01*
X191461867Y-104916769D01*
X191449636Y-104898465D01*
X191413503Y-104844389D01*
X191415569Y-104843008D01*
X191397755Y-104800000D01*
X191415569Y-104756991D01*
X191413503Y-104755611D01*
X191417587Y-104749500D01*
X191461867Y-104683231D01*
X191473500Y-104624748D01*
X191473500Y-104175252D01*
X191461867Y-104116769D01*
X191460074Y-104114086D01*
X191413503Y-104044389D01*
X191415569Y-104043008D01*
X191397755Y-104000000D01*
X191415569Y-103956991D01*
X191413503Y-103955611D01*
X191423473Y-103940691D01*
X191461867Y-103883231D01*
X191473500Y-103824748D01*
X191473500Y-103375252D01*
X191461867Y-103316769D01*
X191449636Y-103298465D01*
X191435035Y-103276613D01*
X191417552Y-103250448D01*
X191417551Y-103250447D01*
X191413503Y-103244389D01*
X191415569Y-103243008D01*
X191397755Y-103200000D01*
X191415569Y-103156991D01*
X191413503Y-103155611D01*
X191435178Y-103123174D01*
X191461867Y-103083231D01*
X191473500Y-103024748D01*
X191473500Y-102575252D01*
X191461867Y-102516769D01*
X191449636Y-102498465D01*
X191435445Y-102477227D01*
X191417552Y-102450448D01*
X191417551Y-102450447D01*
X191413503Y-102444389D01*
X191415569Y-102443008D01*
X191397755Y-102400000D01*
X191415569Y-102356991D01*
X191413503Y-102355611D01*
X191435846Y-102322174D01*
X191461867Y-102283231D01*
X191473500Y-102224748D01*
X191473500Y-101775252D01*
X191461867Y-101716769D01*
X191449636Y-101698465D01*
X191413503Y-101644389D01*
X191415569Y-101643008D01*
X191397755Y-101600000D01*
X191415569Y-101556991D01*
X191413503Y-101555611D01*
X191435846Y-101522174D01*
X191461867Y-101483231D01*
X191473500Y-101424748D01*
X191473500Y-100975252D01*
X191461867Y-100916769D01*
X191449636Y-100898465D01*
X191429529Y-100868373D01*
X191417552Y-100850448D01*
X191417551Y-100850447D01*
X191413503Y-100844389D01*
X191415569Y-100843008D01*
X191397755Y-100800000D01*
X191415569Y-100756991D01*
X191413503Y-100755611D01*
X191435846Y-100722174D01*
X191461867Y-100683231D01*
X191473500Y-100624748D01*
X191473500Y-100175252D01*
X191461867Y-100116769D01*
X191461866Y-100116767D01*
X191461866Y-100116766D01*
X191459077Y-100110032D01*
X191462457Y-100108631D01*
X191453971Y-100065920D01*
X191474221Y-100028044D01*
X191524785Y-99977480D01*
X191570089Y-99874875D01*
X191573000Y-99849789D01*
X191573000Y-99700000D01*
X188700001Y-99700000D01*
X188700001Y-99849792D01*
X188702908Y-99874868D01*
X188702910Y-99874874D01*
X188748214Y-99977481D01*
X188752088Y-99983136D01*
X188748931Y-99985298D01*
X188765583Y-100025500D01*
X188743909Y-100077826D01*
X188691583Y-100099500D01*
X180635436Y-100099500D01*
X180559014Y-100119977D01*
X180559009Y-100119979D01*
X180507879Y-100149500D01*
X180490488Y-100159540D01*
X178422203Y-102227826D01*
X178369877Y-102249500D01*
X166317254Y-102249500D01*
X166264929Y-102227827D01*
X166260489Y-102223387D01*
X166226613Y-102189511D01*
X166226610Y-102189509D01*
X166226609Y-102189508D01*
X166123887Y-102130201D01*
X166123882Y-102130199D01*
X166009311Y-102099500D01*
X166009309Y-102099500D01*
X165890691Y-102099500D01*
X165890689Y-102099500D01*
X165776117Y-102130199D01*
X165776112Y-102130201D01*
X165673390Y-102189508D01*
X165589508Y-102273390D01*
X165530201Y-102376112D01*
X165530199Y-102376117D01*
X165499500Y-102490688D01*
X149902269Y-102490688D01*
X149900500Y-102477227D01*
X149900500Y-102440689D01*
X149900499Y-102440688D01*
X149869800Y-102326117D01*
X149869798Y-102326112D01*
X149810491Y-102223390D01*
X149810490Y-102223389D01*
X149810489Y-102223387D01*
X149726613Y-102139511D01*
X149726610Y-102139509D01*
X149726609Y-102139508D01*
X149623887Y-102080201D01*
X149623882Y-102080199D01*
X149509311Y-102049500D01*
X149509309Y-102049500D01*
X149390691Y-102049500D01*
X149390689Y-102049500D01*
X149276117Y-102080199D01*
X149276112Y-102080201D01*
X149173390Y-102139508D01*
X149135071Y-102177827D01*
X149082746Y-102199500D01*
X140555123Y-102199500D01*
X140502797Y-102177826D01*
X138484511Y-100159540D01*
X138467121Y-100149500D01*
X138415990Y-100119979D01*
X138415985Y-100119977D01*
X138339564Y-100099500D01*
X138339562Y-100099500D01*
X127308417Y-100099500D01*
X127256091Y-100077826D01*
X127234417Y-100025500D01*
X127251068Y-99985298D01*
X127247912Y-99983136D01*
X127251785Y-99977481D01*
X127297089Y-99874875D01*
X127300000Y-99849789D01*
X127300000Y-99700000D01*
X124427001Y-99700000D01*
X124427001Y-99849792D01*
X124429908Y-99874868D01*
X124429910Y-99874874D01*
X124475213Y-99977478D01*
X124525780Y-100028045D01*
X124547454Y-100080371D01*
X124538733Y-100109128D01*
X124540922Y-100110035D01*
X124538133Y-100116767D01*
X124526500Y-100175253D01*
X124526500Y-100624746D01*
X124538133Y-100683232D01*
X124586497Y-100755611D01*
X124584430Y-100756991D01*
X124602245Y-100800000D01*
X124584430Y-100843008D01*
X124586497Y-100844389D01*
X124538133Y-100916767D01*
X124531423Y-100950500D01*
X124526500Y-100975252D01*
X124526500Y-101424748D01*
X124534255Y-101463736D01*
X124538133Y-101483232D01*
X124586497Y-101555611D01*
X124584430Y-101556991D01*
X124602245Y-101600000D01*
X124584430Y-101643008D01*
X124586497Y-101644389D01*
X124538133Y-101716767D01*
X124533420Y-101740462D01*
X124526500Y-101775252D01*
X124526500Y-102224748D01*
X124534255Y-102263736D01*
X124538133Y-102283232D01*
X124586497Y-102355611D01*
X124584430Y-102356991D01*
X124602245Y-102400000D01*
X124584430Y-102443008D01*
X124586497Y-102444389D01*
X124538133Y-102516767D01*
X124533254Y-102541299D01*
X124526595Y-102574777D01*
X124526500Y-102575253D01*
X124526500Y-103024746D01*
X124538133Y-103083232D01*
X124586497Y-103155611D01*
X124584430Y-103156991D01*
X124602245Y-103200000D01*
X124584430Y-103243008D01*
X124586497Y-103244389D01*
X124538133Y-103316767D01*
X124538133Y-103316769D01*
X124526500Y-103375252D01*
X124526500Y-103824748D01*
X124526871Y-103826613D01*
X124538133Y-103883232D01*
X124586497Y-103955611D01*
X124584430Y-103956991D01*
X124602245Y-104000000D01*
X124584430Y-104043008D01*
X124586497Y-104044389D01*
X124538133Y-104116767D01*
X124526500Y-104175253D01*
X124526500Y-104624746D01*
X124538133Y-104683232D01*
X124549672Y-104700500D01*
X124582413Y-104749500D01*
X124586497Y-104755611D01*
X124584430Y-104756991D01*
X124602245Y-104800000D01*
X124584430Y-104843008D01*
X124586497Y-104844389D01*
X124538133Y-104916767D01*
X124530377Y-104955757D01*
X124526500Y-104975252D01*
X124526500Y-105424748D01*
X124534255Y-105463736D01*
X124538133Y-105483232D01*
X124549672Y-105500500D01*
X124582413Y-105549500D01*
X124586497Y-105555611D01*
X124584430Y-105556991D01*
X124602245Y-105600000D01*
X124584430Y-105643008D01*
X124586497Y-105644389D01*
X124538133Y-105716767D01*
X124526500Y-105775253D01*
X124526500Y-106224746D01*
X124538133Y-106283233D01*
X124540923Y-106289968D01*
X124537543Y-106291367D01*
X124546026Y-106334092D01*
X124525779Y-106371954D01*
X124475214Y-106422519D01*
X124429910Y-106525124D01*
X124427000Y-106550210D01*
X121572999Y-106550210D01*
X121572999Y-106550207D01*
X121570091Y-106525131D01*
X121570089Y-106525125D01*
X121524786Y-106422521D01*
X121474219Y-106371954D01*
X121452545Y-106319628D01*
X121461275Y-106290874D01*
X121459078Y-106289964D01*
X121461866Y-106283232D01*
X121461865Y-106283232D01*
X121461867Y-106283231D01*
X121473500Y-106224748D01*
X121473500Y-105775252D01*
X121461867Y-105716769D01*
X121449636Y-105698465D01*
X121413503Y-105644389D01*
X121415569Y-105643008D01*
X121397755Y-105600000D01*
X121415569Y-105556991D01*
X121413503Y-105555611D01*
X121417587Y-105549500D01*
X121461867Y-105483231D01*
X121473500Y-105424748D01*
X121473500Y-104975252D01*
X121461867Y-104916769D01*
X121449636Y-104898465D01*
X121413503Y-104844389D01*
X121415569Y-104843008D01*
X121397755Y-104800000D01*
X121415569Y-104756991D01*
X121413503Y-104755611D01*
X121417587Y-104749500D01*
X121461867Y-104683231D01*
X121473500Y-104624748D01*
X121473500Y-104175252D01*
X121461867Y-104116769D01*
X121460074Y-104114086D01*
X121413503Y-104044389D01*
X121415569Y-104043008D01*
X121397755Y-104000000D01*
X121415569Y-103956991D01*
X121413503Y-103955611D01*
X121423473Y-103940691D01*
X121461867Y-103883231D01*
X121473500Y-103824748D01*
X121473500Y-103375252D01*
X121461867Y-103316769D01*
X121449636Y-103298465D01*
X121435035Y-103276613D01*
X121417552Y-103250448D01*
X121417551Y-103250447D01*
X121413503Y-103244389D01*
X121415569Y-103243008D01*
X121397755Y-103200000D01*
X121415569Y-103156991D01*
X121413503Y-103155611D01*
X121435178Y-103123174D01*
X121461867Y-103083231D01*
X121473500Y-103024748D01*
X121473500Y-102575252D01*
X121461867Y-102516769D01*
X121449636Y-102498465D01*
X121435445Y-102477227D01*
X121417552Y-102450448D01*
X121417551Y-102450447D01*
X121413503Y-102444389D01*
X121415569Y-102443008D01*
X121397755Y-102400000D01*
X121415569Y-102356991D01*
X121413503Y-102355611D01*
X121435846Y-102322174D01*
X121461867Y-102283231D01*
X121473500Y-102224748D01*
X121473500Y-101775252D01*
X121461867Y-101716769D01*
X121449636Y-101698465D01*
X121413503Y-101644389D01*
X121415569Y-101643008D01*
X121397755Y-101600000D01*
X121415569Y-101556991D01*
X121413503Y-101555611D01*
X121435846Y-101522174D01*
X121461867Y-101483231D01*
X121473500Y-101424748D01*
X121473500Y-100975252D01*
X121461867Y-100916769D01*
X121449636Y-100898465D01*
X121429529Y-100868373D01*
X121417552Y-100850448D01*
X121417551Y-100850447D01*
X121413503Y-100844389D01*
X121415569Y-100843008D01*
X121397755Y-100800000D01*
X121415569Y-100756991D01*
X121413503Y-100755611D01*
X121435846Y-100722174D01*
X121461867Y-100683231D01*
X121473500Y-100624748D01*
X121473500Y-100175252D01*
X121461867Y-100116769D01*
X121461866Y-100116767D01*
X121461866Y-100116766D01*
X121459077Y-100110032D01*
X121462457Y-100108631D01*
X121453971Y-100065920D01*
X121474221Y-100028044D01*
X121524785Y-99977480D01*
X121570089Y-99874875D01*
X121573000Y-99849789D01*
X121573000Y-99700000D01*
X118700001Y-99700000D01*
X118700001Y-99849792D01*
X118702908Y-99874868D01*
X118702910Y-99874874D01*
X118748213Y-99977478D01*
X118798780Y-100028045D01*
X118820454Y-100080371D01*
X118811733Y-100109128D01*
X118813922Y-100110035D01*
X118811133Y-100116767D01*
X118799500Y-100175253D01*
X118799500Y-100624746D01*
X118811133Y-100683232D01*
X118859497Y-100755611D01*
X118857430Y-100756991D01*
X118875245Y-100800000D01*
X118857430Y-100843008D01*
X118859497Y-100844389D01*
X118811133Y-100916767D01*
X118804423Y-100950500D01*
X118799500Y-100975252D01*
X118799500Y-101424748D01*
X118807255Y-101463736D01*
X118811133Y-101483232D01*
X118859497Y-101555611D01*
X118857430Y-101556991D01*
X118875245Y-101600000D01*
X118857430Y-101643008D01*
X118859497Y-101644389D01*
X118811133Y-101716767D01*
X118806420Y-101740462D01*
X118799500Y-101775252D01*
X118799500Y-102224748D01*
X118807255Y-102263736D01*
X118811133Y-102283232D01*
X118859497Y-102355611D01*
X118857430Y-102356991D01*
X118875245Y-102400000D01*
X118857430Y-102443008D01*
X118859497Y-102444389D01*
X118811133Y-102516767D01*
X118806254Y-102541299D01*
X118799595Y-102574777D01*
X118799500Y-102575253D01*
X118799500Y-103024746D01*
X118811133Y-103083232D01*
X118859497Y-103155611D01*
X118857430Y-103156991D01*
X118875245Y-103200000D01*
X118857430Y-103243008D01*
X118859497Y-103244389D01*
X118811133Y-103316767D01*
X118811133Y-103316769D01*
X118799500Y-103375252D01*
X118799500Y-103824748D01*
X118799871Y-103826613D01*
X118811133Y-103883232D01*
X118859497Y-103955611D01*
X118857430Y-103956991D01*
X118875245Y-104000000D01*
X118857430Y-104043008D01*
X118859497Y-104044389D01*
X118811133Y-104116767D01*
X118799500Y-104175253D01*
X118799500Y-104624746D01*
X118811133Y-104683232D01*
X118822672Y-104700500D01*
X118855413Y-104749500D01*
X118859497Y-104755611D01*
X118857430Y-104756991D01*
X118875245Y-104800000D01*
X118857430Y-104843008D01*
X118859497Y-104844389D01*
X118811133Y-104916767D01*
X118803377Y-104955757D01*
X118799500Y-104975252D01*
X118799500Y-105424748D01*
X118807255Y-105463736D01*
X118811133Y-105483232D01*
X118822672Y-105500500D01*
X118855413Y-105549500D01*
X118859497Y-105555611D01*
X118857430Y-105556991D01*
X118875245Y-105600000D01*
X118857430Y-105643008D01*
X118859497Y-105644389D01*
X118811133Y-105716767D01*
X118799500Y-105775253D01*
X118799500Y-106224746D01*
X118811133Y-106283233D01*
X118813923Y-106289968D01*
X118810543Y-106291367D01*
X118819026Y-106334092D01*
X118798779Y-106371954D01*
X118748214Y-106422519D01*
X118702910Y-106525124D01*
X118700000Y-106550210D01*
X108500500Y-106550210D01*
X108500500Y-99350210D01*
X118700000Y-99350210D01*
X118700000Y-99500000D01*
X121572999Y-99500000D01*
X121572999Y-99350210D01*
X124427000Y-99350210D01*
X124427000Y-99500000D01*
X127299999Y-99500000D01*
X127299999Y-99350207D01*
X127297091Y-99325131D01*
X127297089Y-99325125D01*
X127251785Y-99222518D01*
X127247912Y-99216864D01*
X127251068Y-99214701D01*
X127234417Y-99174500D01*
X127256091Y-99122174D01*
X127308417Y-99100500D01*
X138832057Y-99100500D01*
X138884383Y-99122174D01*
X141502669Y-101740460D01*
X141571192Y-101780022D01*
X141647618Y-101800500D01*
X141726742Y-101800500D01*
X149682746Y-101800500D01*
X149735071Y-101822173D01*
X149773387Y-101860489D01*
X149876114Y-101919799D01*
X149876115Y-101919799D01*
X149876117Y-101919800D01*
X149933402Y-101935149D01*
X149990688Y-101950499D01*
X149990689Y-101950500D01*
X149990691Y-101950500D01*
X150109311Y-101950500D01*
X150109311Y-101950499D01*
X150223886Y-101919799D01*
X150326613Y-101860489D01*
X150410489Y-101776613D01*
X150469799Y-101673886D01*
X150500499Y-101559311D01*
X150500500Y-101559311D01*
X150500500Y-101440689D01*
X150500499Y-101440688D01*
X150496227Y-101424746D01*
X150469799Y-101326114D01*
X150469798Y-101326112D01*
X150410491Y-101223390D01*
X150410490Y-101223389D01*
X150410489Y-101223387D01*
X150326613Y-101139511D01*
X150326610Y-101139509D01*
X150326609Y-101139508D01*
X150223887Y-101080201D01*
X150223882Y-101080199D01*
X150191333Y-101071478D01*
X150146400Y-101037000D01*
X150139008Y-100980847D01*
X150173486Y-100935914D01*
X150191333Y-100928522D01*
X150223214Y-100919979D01*
X150223886Y-100919799D01*
X150326613Y-100860489D01*
X150410489Y-100776613D01*
X150469799Y-100673886D01*
X150500499Y-100559311D01*
X150500500Y-100559311D01*
X150500500Y-100440689D01*
X150500499Y-100440688D01*
X150469800Y-100326117D01*
X150469798Y-100326112D01*
X150410491Y-100223390D01*
X150410490Y-100223389D01*
X150410489Y-100223387D01*
X150326613Y-100139511D01*
X150326610Y-100139509D01*
X150326609Y-100139508D01*
X150223887Y-100080201D01*
X150223882Y-100080199D01*
X150191333Y-100071478D01*
X150146400Y-100037000D01*
X150139008Y-99980847D01*
X150173486Y-99935914D01*
X150191333Y-99928522D01*
X150223882Y-99919800D01*
X150223881Y-99919800D01*
X150223886Y-99919799D01*
X150326613Y-99860489D01*
X150410489Y-99776613D01*
X150469799Y-99673886D01*
X150500499Y-99559311D01*
X150500500Y-99559311D01*
X150500500Y-99440689D01*
X150500499Y-99440688D01*
X150469800Y-99326117D01*
X150469798Y-99326112D01*
X150410491Y-99223390D01*
X150410490Y-99223389D01*
X150410489Y-99223387D01*
X150326613Y-99139511D01*
X150326610Y-99139509D01*
X150326609Y-99139508D01*
X150223887Y-99080201D01*
X150223882Y-99080199D01*
X150191333Y-99071478D01*
X150146400Y-99037000D01*
X150139008Y-98980847D01*
X150173486Y-98935914D01*
X150191333Y-98928522D01*
X150223882Y-98919800D01*
X150223881Y-98919800D01*
X150223886Y-98919799D01*
X150326613Y-98860489D01*
X150410489Y-98776613D01*
X150469799Y-98673886D01*
X150500499Y-98559311D01*
X150500500Y-98559311D01*
X150500500Y-98440689D01*
X150500499Y-98440688D01*
X150496429Y-98425500D01*
X150469799Y-98326114D01*
X150445040Y-98283231D01*
X150410491Y-98223390D01*
X150410490Y-98223389D01*
X150410489Y-98223387D01*
X150326613Y-98139511D01*
X150326610Y-98139509D01*
X150326609Y-98139508D01*
X150223887Y-98080201D01*
X150223882Y-98080199D01*
X150109311Y-98049500D01*
X150109309Y-98049500D01*
X149990691Y-98049500D01*
X149990689Y-98049500D01*
X149985880Y-98050133D01*
X149985552Y-98047646D01*
X149983725Y-98047405D01*
X149974500Y-98051227D01*
X149956640Y-98043829D01*
X149937477Y-98041299D01*
X149931401Y-98033374D01*
X149922174Y-98029553D01*
X149914776Y-98011693D01*
X149903014Y-97996353D01*
X149900500Y-97977227D01*
X149900500Y-97940689D01*
X149900499Y-97940688D01*
X165449500Y-97940688D01*
X165449500Y-98059311D01*
X165480199Y-98173882D01*
X165480201Y-98173887D01*
X165539508Y-98276609D01*
X165539509Y-98276610D01*
X165539511Y-98276613D01*
X165623387Y-98360489D01*
X165623389Y-98360490D01*
X165623390Y-98360491D01*
X165691821Y-98400000D01*
X165726114Y-98419799D01*
X165726115Y-98419799D01*
X165726117Y-98419800D01*
X165758666Y-98428522D01*
X165803599Y-98463001D01*
X165810991Y-98519153D01*
X165776512Y-98564086D01*
X165758666Y-98571478D01*
X165726117Y-98580199D01*
X165726112Y-98580201D01*
X165623390Y-98639508D01*
X165539508Y-98723390D01*
X165480201Y-98826112D01*
X165480199Y-98826117D01*
X165449500Y-98940688D01*
X165449500Y-99059311D01*
X165480199Y-99173882D01*
X165480201Y-99173887D01*
X165539508Y-99276609D01*
X165539509Y-99276610D01*
X165539511Y-99276613D01*
X165623387Y-99360489D01*
X165726114Y-99419799D01*
X165726115Y-99419799D01*
X165726117Y-99419800D01*
X165758666Y-99428522D01*
X165803599Y-99463001D01*
X165810991Y-99519153D01*
X165776512Y-99564086D01*
X165758666Y-99571478D01*
X165726117Y-99580199D01*
X165726112Y-99580201D01*
X165623390Y-99639508D01*
X165539508Y-99723390D01*
X165480201Y-99826112D01*
X165480199Y-99826117D01*
X165449500Y-99940688D01*
X165449500Y-100059311D01*
X165480199Y-100173882D01*
X165480201Y-100173887D01*
X165539508Y-100276609D01*
X165539509Y-100276610D01*
X165539511Y-100276613D01*
X165623387Y-100360489D01*
X165726114Y-100419799D01*
X165726115Y-100419799D01*
X165726117Y-100419800D01*
X165758666Y-100428522D01*
X165803599Y-100463001D01*
X165810991Y-100519153D01*
X165776512Y-100564086D01*
X165758666Y-100571478D01*
X165726117Y-100580199D01*
X165726112Y-100580201D01*
X165623390Y-100639508D01*
X165539508Y-100723390D01*
X165480201Y-100826112D01*
X165480199Y-100826117D01*
X165449500Y-100940688D01*
X165449500Y-101059311D01*
X165480199Y-101173882D01*
X165480201Y-101173887D01*
X165539508Y-101276609D01*
X165539509Y-101276610D01*
X165539511Y-101276613D01*
X165623387Y-101360489D01*
X165726114Y-101419799D01*
X165726115Y-101419799D01*
X165726117Y-101419800D01*
X165783402Y-101435149D01*
X165840688Y-101450499D01*
X165840689Y-101450500D01*
X165840691Y-101450500D01*
X165959311Y-101450500D01*
X165964120Y-101449867D01*
X165964448Y-101452363D01*
X166012489Y-101458680D01*
X166046975Y-101503607D01*
X166049500Y-101522772D01*
X166049500Y-101559311D01*
X166080199Y-101673882D01*
X166080201Y-101673887D01*
X166139508Y-101776609D01*
X166139509Y-101776610D01*
X166139511Y-101776613D01*
X166223387Y-101860489D01*
X166326114Y-101919799D01*
X166326115Y-101919799D01*
X166326117Y-101919800D01*
X166383402Y-101935149D01*
X166440688Y-101950499D01*
X166440689Y-101950500D01*
X166440691Y-101950500D01*
X166559311Y-101950500D01*
X166559311Y-101950499D01*
X166673886Y-101919799D01*
X166776613Y-101860489D01*
X166814929Y-101822173D01*
X166867254Y-101800500D01*
X177064564Y-101800500D01*
X177064564Y-101800499D01*
X177140989Y-101780021D01*
X177209511Y-101740460D01*
X177265460Y-101684511D01*
X179827797Y-99122174D01*
X179880123Y-99100500D01*
X188691583Y-99100500D01*
X188743909Y-99122174D01*
X188765583Y-99174500D01*
X188748931Y-99214701D01*
X188752088Y-99216864D01*
X188748214Y-99222518D01*
X188702910Y-99325124D01*
X188700000Y-99350210D01*
X188700000Y-99500000D01*
X191572999Y-99500000D01*
X191572999Y-99350210D01*
X194427000Y-99350210D01*
X194427000Y-99500000D01*
X197299999Y-99500000D01*
X197299999Y-99350207D01*
X197297091Y-99325131D01*
X197297089Y-99325125D01*
X197251786Y-99222521D01*
X197201219Y-99171954D01*
X197179545Y-99119628D01*
X197188275Y-99090874D01*
X197186078Y-99089964D01*
X197188866Y-99083232D01*
X197188865Y-99083232D01*
X197188867Y-99083231D01*
X197200500Y-99024748D01*
X197200500Y-98575252D01*
X197188867Y-98516769D01*
X197176636Y-98498465D01*
X197152940Y-98463001D01*
X197144552Y-98450448D01*
X197144551Y-98450447D01*
X197140503Y-98444389D01*
X197142569Y-98443008D01*
X197124755Y-98400000D01*
X197142569Y-98356991D01*
X197140503Y-98355611D01*
X197162846Y-98322174D01*
X197188867Y-98283231D01*
X197200500Y-98224748D01*
X197200500Y-97775252D01*
X197188867Y-97716769D01*
X197176636Y-97698465D01*
X197140503Y-97644389D01*
X197142569Y-97643008D01*
X197124755Y-97600000D01*
X197142569Y-97556991D01*
X197140503Y-97555611D01*
X197144587Y-97549500D01*
X197188867Y-97483231D01*
X197200500Y-97424748D01*
X197200500Y-96975252D01*
X197188867Y-96916769D01*
X197176636Y-96898465D01*
X197156529Y-96868373D01*
X197144552Y-96850448D01*
X197144551Y-96850447D01*
X197140503Y-96844389D01*
X197142569Y-96843008D01*
X197124755Y-96800000D01*
X197142569Y-96756991D01*
X197140503Y-96755611D01*
X197162846Y-96722174D01*
X197188867Y-96683231D01*
X197200500Y-96624748D01*
X197200500Y-96175252D01*
X197188867Y-96116769D01*
X197176636Y-96098465D01*
X197140503Y-96044389D01*
X197142569Y-96043008D01*
X197124755Y-96000000D01*
X197142569Y-95956991D01*
X197140503Y-95955611D01*
X197150473Y-95940691D01*
X197188867Y-95883231D01*
X197200500Y-95824748D01*
X197200500Y-95375252D01*
X197188867Y-95316769D01*
X197176636Y-95298465D01*
X197162035Y-95276613D01*
X197144552Y-95250448D01*
X197144551Y-95250447D01*
X197140503Y-95244389D01*
X197142569Y-95243008D01*
X197124755Y-95200000D01*
X197142569Y-95156991D01*
X197140503Y-95155611D01*
X197162846Y-95122174D01*
X197188867Y-95083231D01*
X197200500Y-95024748D01*
X197200500Y-94575252D01*
X197188867Y-94516769D01*
X197176636Y-94498465D01*
X197145466Y-94451816D01*
X197144552Y-94450448D01*
X197144551Y-94450447D01*
X197140503Y-94444389D01*
X197142569Y-94443008D01*
X197124755Y-94400000D01*
X197142569Y-94356991D01*
X197140503Y-94355611D01*
X197162846Y-94322174D01*
X197188867Y-94283231D01*
X197200500Y-94224748D01*
X197200500Y-93775252D01*
X197188867Y-93716769D01*
X197176636Y-93698465D01*
X197140503Y-93644389D01*
X197142569Y-93643008D01*
X197124755Y-93600000D01*
X197142569Y-93556991D01*
X197140503Y-93555611D01*
X197144587Y-93549500D01*
X197188867Y-93483231D01*
X197200500Y-93424748D01*
X197200500Y-92975252D01*
X197188867Y-92916769D01*
X197188866Y-92916767D01*
X197188866Y-92916766D01*
X197186077Y-92910032D01*
X197189457Y-92908631D01*
X197180971Y-92865920D01*
X197201221Y-92828044D01*
X197251785Y-92777480D01*
X197297089Y-92674875D01*
X197300000Y-92649789D01*
X197300000Y-92500000D01*
X194427001Y-92500000D01*
X194427001Y-92649792D01*
X194429908Y-92674868D01*
X194429910Y-92674874D01*
X194475213Y-92777478D01*
X194525780Y-92828045D01*
X194547454Y-92880371D01*
X194538733Y-92909128D01*
X194540922Y-92910035D01*
X194538133Y-92916767D01*
X194526500Y-92975253D01*
X194526500Y-93424746D01*
X194538133Y-93483232D01*
X194564154Y-93522174D01*
X194582413Y-93549500D01*
X194586497Y-93555611D01*
X194584430Y-93556991D01*
X194602245Y-93600000D01*
X194584430Y-93643008D01*
X194586497Y-93644389D01*
X194538133Y-93716767D01*
X194526500Y-93775253D01*
X194526500Y-94224746D01*
X194538133Y-94283232D01*
X194586497Y-94355611D01*
X194584430Y-94356991D01*
X194602245Y-94400000D01*
X194584430Y-94443008D01*
X194586497Y-94444389D01*
X194582448Y-94450447D01*
X194582448Y-94450448D01*
X194581654Y-94451636D01*
X194538133Y-94516767D01*
X194538133Y-94516769D01*
X194526500Y-94575252D01*
X194526500Y-95024748D01*
X194533375Y-95059309D01*
X194538133Y-95083232D01*
X194586497Y-95155611D01*
X194584430Y-95156991D01*
X194602245Y-95200000D01*
X194584430Y-95243008D01*
X194586497Y-95244389D01*
X194538133Y-95316767D01*
X194531423Y-95350500D01*
X194526500Y-95375252D01*
X194526500Y-95824748D01*
X194533609Y-95860489D01*
X194538133Y-95883232D01*
X194586497Y-95955611D01*
X194584430Y-95956991D01*
X194602245Y-96000000D01*
X194584430Y-96043008D01*
X194586497Y-96044389D01*
X194538133Y-96116767D01*
X194526500Y-96175253D01*
X194526500Y-96624746D01*
X194538133Y-96683232D01*
X194586497Y-96755611D01*
X194584430Y-96756991D01*
X194602245Y-96800000D01*
X194584430Y-96843008D01*
X194586497Y-96844389D01*
X194538133Y-96916767D01*
X194531549Y-96949867D01*
X194526500Y-96975252D01*
X194526500Y-97424748D01*
X194534255Y-97463736D01*
X194538133Y-97483232D01*
X194549672Y-97500500D01*
X194582413Y-97549500D01*
X194586497Y-97555611D01*
X194584430Y-97556991D01*
X194602245Y-97600000D01*
X194584430Y-97643008D01*
X194586497Y-97644389D01*
X194538133Y-97716767D01*
X194526500Y-97775253D01*
X194526500Y-98224746D01*
X194538133Y-98283232D01*
X194586497Y-98355611D01*
X194584430Y-98356991D01*
X194602245Y-98400000D01*
X194584430Y-98443008D01*
X194586497Y-98444389D01*
X194582448Y-98450447D01*
X194582448Y-98450448D01*
X194574528Y-98462299D01*
X194538133Y-98516767D01*
X194537494Y-98519979D01*
X194526500Y-98575252D01*
X194526500Y-99024748D01*
X194532316Y-99053989D01*
X194538133Y-99083233D01*
X194540923Y-99089968D01*
X194537543Y-99091367D01*
X194546026Y-99134092D01*
X194525779Y-99171954D01*
X194475214Y-99222519D01*
X194429910Y-99325124D01*
X194427000Y-99350210D01*
X191572999Y-99350210D01*
X191572999Y-99350207D01*
X191570091Y-99325131D01*
X191570089Y-99325125D01*
X191524786Y-99222521D01*
X191474219Y-99171954D01*
X191452545Y-99119628D01*
X191461275Y-99090874D01*
X191459078Y-99089964D01*
X191461866Y-99083232D01*
X191461865Y-99083232D01*
X191461867Y-99083231D01*
X191473500Y-99024748D01*
X191473500Y-98575252D01*
X191461867Y-98516769D01*
X191449636Y-98498465D01*
X191425940Y-98463001D01*
X191417552Y-98450448D01*
X191417551Y-98450447D01*
X191413503Y-98444389D01*
X191415569Y-98443008D01*
X191397755Y-98400000D01*
X191415569Y-98356991D01*
X191413503Y-98355611D01*
X191435846Y-98322174D01*
X191461867Y-98283231D01*
X191473500Y-98224748D01*
X191473500Y-97775252D01*
X191461867Y-97716769D01*
X191449636Y-97698465D01*
X191413503Y-97644389D01*
X191415569Y-97643008D01*
X191397755Y-97600000D01*
X191415569Y-97556991D01*
X191413503Y-97555611D01*
X191417587Y-97549500D01*
X191461867Y-97483231D01*
X191473500Y-97424748D01*
X191473500Y-96975252D01*
X191461867Y-96916769D01*
X191449636Y-96898465D01*
X191429529Y-96868373D01*
X191417552Y-96850448D01*
X191417551Y-96850447D01*
X191413503Y-96844389D01*
X191415569Y-96843008D01*
X191397755Y-96800000D01*
X191415569Y-96756991D01*
X191413503Y-96755611D01*
X191435846Y-96722174D01*
X191461867Y-96683231D01*
X191473500Y-96624748D01*
X191473500Y-96175252D01*
X191461867Y-96116769D01*
X191449636Y-96098465D01*
X191413503Y-96044389D01*
X191415569Y-96043008D01*
X191397755Y-96000000D01*
X191415569Y-95956991D01*
X191413503Y-95955611D01*
X191423473Y-95940691D01*
X191461867Y-95883231D01*
X191473500Y-95824748D01*
X191473500Y-95375252D01*
X191461867Y-95316769D01*
X191449636Y-95298465D01*
X191435035Y-95276613D01*
X191417552Y-95250448D01*
X191417551Y-95250447D01*
X191413503Y-95244389D01*
X191415569Y-95243008D01*
X191397755Y-95200000D01*
X191415569Y-95156991D01*
X191413503Y-95155611D01*
X191435846Y-95122174D01*
X191461867Y-95083231D01*
X191473500Y-95024748D01*
X191473500Y-94575252D01*
X191461867Y-94516769D01*
X191449636Y-94498465D01*
X191418466Y-94451816D01*
X191417552Y-94450448D01*
X191417551Y-94450447D01*
X191413503Y-94444389D01*
X191415569Y-94443008D01*
X191397755Y-94400000D01*
X191415569Y-94356991D01*
X191413503Y-94355611D01*
X191435846Y-94322174D01*
X191461867Y-94283231D01*
X191473500Y-94224748D01*
X191473500Y-93775252D01*
X191461867Y-93716769D01*
X191449636Y-93698465D01*
X191413503Y-93644389D01*
X191415569Y-93643008D01*
X191397755Y-93600000D01*
X191415569Y-93556991D01*
X191413503Y-93555611D01*
X191417587Y-93549500D01*
X191461867Y-93483231D01*
X191473500Y-93424748D01*
X191473500Y-92975252D01*
X191461867Y-92916769D01*
X191461866Y-92916767D01*
X191461866Y-92916766D01*
X191459077Y-92910032D01*
X191462457Y-92908631D01*
X191453971Y-92865920D01*
X191474221Y-92828044D01*
X191524785Y-92777480D01*
X191570089Y-92674875D01*
X191573000Y-92649789D01*
X191573000Y-92500000D01*
X188700001Y-92500000D01*
X188700001Y-92649792D01*
X188702908Y-92674868D01*
X188702910Y-92674874D01*
X188748214Y-92777481D01*
X188752088Y-92783136D01*
X188748931Y-92785298D01*
X188765583Y-92825500D01*
X188743909Y-92877826D01*
X188691583Y-92899500D01*
X177110438Y-92899500D01*
X177034016Y-92919977D01*
X177034011Y-92919979D01*
X176965490Y-92959540D01*
X172247205Y-97677826D01*
X172194879Y-97699500D01*
X166267254Y-97699500D01*
X166214929Y-97677827D01*
X166205475Y-97668373D01*
X166176613Y-97639511D01*
X166176610Y-97639509D01*
X166176609Y-97639508D01*
X166073887Y-97580201D01*
X166073882Y-97580199D01*
X165959311Y-97549500D01*
X165959309Y-97549500D01*
X165840691Y-97549500D01*
X165840689Y-97549500D01*
X165726117Y-97580199D01*
X165726112Y-97580201D01*
X165623390Y-97639508D01*
X165539508Y-97723390D01*
X165480201Y-97826112D01*
X165480199Y-97826117D01*
X165449500Y-97940688D01*
X149900499Y-97940688D01*
X149869800Y-97826117D01*
X149869798Y-97826112D01*
X149810491Y-97723390D01*
X149810490Y-97723389D01*
X149810489Y-97723387D01*
X149726613Y-97639511D01*
X149726610Y-97639509D01*
X149726609Y-97639508D01*
X149623887Y-97580201D01*
X149623882Y-97580199D01*
X149509311Y-97549500D01*
X149509309Y-97549500D01*
X149390691Y-97549500D01*
X149390689Y-97549500D01*
X149276117Y-97580199D01*
X149276112Y-97580201D01*
X149173390Y-97639508D01*
X149135071Y-97677827D01*
X149082746Y-97699500D01*
X145655125Y-97699500D01*
X145602799Y-97677826D01*
X140884513Y-92959540D01*
X140815992Y-92919979D01*
X140815987Y-92919977D01*
X140739566Y-92899500D01*
X140739564Y-92899500D01*
X127308417Y-92899500D01*
X127256091Y-92877826D01*
X127234417Y-92825500D01*
X127251068Y-92785298D01*
X127247912Y-92783136D01*
X127251785Y-92777481D01*
X127297089Y-92674875D01*
X127300000Y-92649789D01*
X127300000Y-92500000D01*
X124427001Y-92500000D01*
X124427001Y-92649792D01*
X124429908Y-92674868D01*
X124429910Y-92674874D01*
X124475213Y-92777478D01*
X124525780Y-92828045D01*
X124547454Y-92880371D01*
X124538733Y-92909128D01*
X124540922Y-92910035D01*
X124538133Y-92916767D01*
X124526500Y-92975253D01*
X124526500Y-93424746D01*
X124538133Y-93483232D01*
X124564154Y-93522174D01*
X124582413Y-93549500D01*
X124586497Y-93555611D01*
X124584430Y-93556991D01*
X124602245Y-93600000D01*
X124584430Y-93643008D01*
X124586497Y-93644389D01*
X124538133Y-93716767D01*
X124526500Y-93775253D01*
X124526500Y-94224746D01*
X124538133Y-94283232D01*
X124586497Y-94355611D01*
X124584430Y-94356991D01*
X124602245Y-94400000D01*
X124584430Y-94443008D01*
X124586497Y-94444389D01*
X124582448Y-94450447D01*
X124582448Y-94450448D01*
X124581654Y-94451636D01*
X124538133Y-94516767D01*
X124538133Y-94516769D01*
X124526500Y-94575252D01*
X124526500Y-95024748D01*
X124533375Y-95059309D01*
X124538133Y-95083232D01*
X124586497Y-95155611D01*
X124584430Y-95156991D01*
X124602245Y-95200000D01*
X124584430Y-95243008D01*
X124586497Y-95244389D01*
X124538133Y-95316767D01*
X124531423Y-95350500D01*
X124526500Y-95375252D01*
X124526500Y-95824748D01*
X124533609Y-95860489D01*
X124538133Y-95883232D01*
X124586497Y-95955611D01*
X124584430Y-95956991D01*
X124602245Y-96000000D01*
X124584430Y-96043008D01*
X124586497Y-96044389D01*
X124538133Y-96116767D01*
X124526500Y-96175253D01*
X124526500Y-96624746D01*
X124538133Y-96683232D01*
X124586497Y-96755611D01*
X124584430Y-96756991D01*
X124602245Y-96800000D01*
X124584430Y-96843008D01*
X124586497Y-96844389D01*
X124538133Y-96916767D01*
X124531549Y-96949867D01*
X124526500Y-96975252D01*
X124526500Y-97424748D01*
X124534255Y-97463736D01*
X124538133Y-97483232D01*
X124549672Y-97500500D01*
X124582413Y-97549500D01*
X124586497Y-97555611D01*
X124584430Y-97556991D01*
X124602245Y-97600000D01*
X124584430Y-97643008D01*
X124586497Y-97644389D01*
X124538133Y-97716767D01*
X124526500Y-97775253D01*
X124526500Y-98224746D01*
X124538133Y-98283232D01*
X124586497Y-98355611D01*
X124584430Y-98356991D01*
X124602245Y-98400000D01*
X124584430Y-98443008D01*
X124586497Y-98444389D01*
X124582448Y-98450447D01*
X124582448Y-98450448D01*
X124574528Y-98462299D01*
X124538133Y-98516767D01*
X124537494Y-98519979D01*
X124526500Y-98575252D01*
X124526500Y-99024748D01*
X124532316Y-99053989D01*
X124538133Y-99083233D01*
X124540923Y-99089968D01*
X124537543Y-99091367D01*
X124546026Y-99134092D01*
X124525779Y-99171954D01*
X124475214Y-99222519D01*
X124429910Y-99325124D01*
X124427000Y-99350210D01*
X121572999Y-99350210D01*
X121572999Y-99350207D01*
X121570091Y-99325131D01*
X121570089Y-99325125D01*
X121524786Y-99222521D01*
X121474219Y-99171954D01*
X121452545Y-99119628D01*
X121461275Y-99090874D01*
X121459078Y-99089964D01*
X121461866Y-99083232D01*
X121461865Y-99083232D01*
X121461867Y-99083231D01*
X121473500Y-99024748D01*
X121473500Y-98575252D01*
X121461867Y-98516769D01*
X121449636Y-98498465D01*
X121425940Y-98463001D01*
X121417552Y-98450448D01*
X121417551Y-98450447D01*
X121413503Y-98444389D01*
X121415569Y-98443008D01*
X121397755Y-98400000D01*
X121415569Y-98356991D01*
X121413503Y-98355611D01*
X121435846Y-98322174D01*
X121461867Y-98283231D01*
X121473500Y-98224748D01*
X121473500Y-97775252D01*
X121461867Y-97716769D01*
X121449636Y-97698465D01*
X121413503Y-97644389D01*
X121415569Y-97643008D01*
X121397755Y-97600000D01*
X121415569Y-97556991D01*
X121413503Y-97555611D01*
X121417587Y-97549500D01*
X121461867Y-97483231D01*
X121473500Y-97424748D01*
X121473500Y-96975252D01*
X121461867Y-96916769D01*
X121449636Y-96898465D01*
X121429529Y-96868373D01*
X121417552Y-96850448D01*
X121417551Y-96850447D01*
X121413503Y-96844389D01*
X121415569Y-96843008D01*
X121397755Y-96800000D01*
X121415569Y-96756991D01*
X121413503Y-96755611D01*
X121435846Y-96722174D01*
X121461867Y-96683231D01*
X121473500Y-96624748D01*
X121473500Y-96175252D01*
X121461867Y-96116769D01*
X121449636Y-96098465D01*
X121413503Y-96044389D01*
X121415569Y-96043008D01*
X121397755Y-96000000D01*
X121415569Y-95956991D01*
X121413503Y-95955611D01*
X121423473Y-95940691D01*
X121461867Y-95883231D01*
X121473500Y-95824748D01*
X121473500Y-95375252D01*
X121461867Y-95316769D01*
X121449636Y-95298465D01*
X121435035Y-95276613D01*
X121417552Y-95250448D01*
X121417551Y-95250447D01*
X121413503Y-95244389D01*
X121415569Y-95243008D01*
X121397755Y-95200000D01*
X121415569Y-95156991D01*
X121413503Y-95155611D01*
X121435846Y-95122174D01*
X121461867Y-95083231D01*
X121473500Y-95024748D01*
X121473500Y-94575252D01*
X121461867Y-94516769D01*
X121449636Y-94498465D01*
X121418466Y-94451816D01*
X121417552Y-94450448D01*
X121417551Y-94450447D01*
X121413503Y-94444389D01*
X121415569Y-94443008D01*
X121397755Y-94400000D01*
X121415569Y-94356991D01*
X121413503Y-94355611D01*
X121435846Y-94322174D01*
X121461867Y-94283231D01*
X121473500Y-94224748D01*
X121473500Y-93775252D01*
X121461867Y-93716769D01*
X121449636Y-93698465D01*
X121413503Y-93644389D01*
X121415569Y-93643008D01*
X121397755Y-93600000D01*
X121415569Y-93556991D01*
X121413503Y-93555611D01*
X121417587Y-93549500D01*
X121461867Y-93483231D01*
X121473500Y-93424748D01*
X121473500Y-92975252D01*
X121461867Y-92916769D01*
X121461866Y-92916767D01*
X121461866Y-92916766D01*
X121459077Y-92910032D01*
X121462457Y-92908631D01*
X121453971Y-92865920D01*
X121474221Y-92828044D01*
X121524785Y-92777480D01*
X121570089Y-92674875D01*
X121573000Y-92649789D01*
X121573000Y-92500000D01*
X118700001Y-92500000D01*
X118700001Y-92649792D01*
X118702908Y-92674868D01*
X118702910Y-92674874D01*
X118748213Y-92777478D01*
X118798780Y-92828045D01*
X118820454Y-92880371D01*
X118811733Y-92909128D01*
X118813922Y-92910035D01*
X118811133Y-92916767D01*
X118799500Y-92975253D01*
X118799500Y-93424746D01*
X118811133Y-93483232D01*
X118837154Y-93522174D01*
X118855413Y-93549500D01*
X118859497Y-93555611D01*
X118857430Y-93556991D01*
X118875245Y-93600000D01*
X118857430Y-93643008D01*
X118859497Y-93644389D01*
X118811133Y-93716767D01*
X118799500Y-93775253D01*
X118799500Y-94224746D01*
X118811133Y-94283232D01*
X118859497Y-94355611D01*
X118857430Y-94356991D01*
X118875245Y-94400000D01*
X118857430Y-94443008D01*
X118859497Y-94444389D01*
X118855448Y-94450447D01*
X118855448Y-94450448D01*
X118854654Y-94451636D01*
X118811133Y-94516767D01*
X118811133Y-94516769D01*
X118799500Y-94575252D01*
X118799500Y-95024748D01*
X118806375Y-95059309D01*
X118811133Y-95083232D01*
X118859497Y-95155611D01*
X118857430Y-95156991D01*
X118875245Y-95200000D01*
X118857430Y-95243008D01*
X118859497Y-95244389D01*
X118811133Y-95316767D01*
X118804423Y-95350500D01*
X118799500Y-95375252D01*
X118799500Y-95824748D01*
X118806609Y-95860489D01*
X118811133Y-95883232D01*
X118859497Y-95955611D01*
X118857430Y-95956991D01*
X118875245Y-96000000D01*
X118857430Y-96043008D01*
X118859497Y-96044389D01*
X118811133Y-96116767D01*
X118799500Y-96175253D01*
X118799500Y-96624746D01*
X118811133Y-96683232D01*
X118859497Y-96755611D01*
X118857430Y-96756991D01*
X118875245Y-96800000D01*
X118857430Y-96843008D01*
X118859497Y-96844389D01*
X118811133Y-96916767D01*
X118804549Y-96949867D01*
X118799500Y-96975252D01*
X118799500Y-97424748D01*
X118807255Y-97463736D01*
X118811133Y-97483232D01*
X118822672Y-97500500D01*
X118855413Y-97549500D01*
X118859497Y-97555611D01*
X118857430Y-97556991D01*
X118875245Y-97600000D01*
X118857430Y-97643008D01*
X118859497Y-97644389D01*
X118811133Y-97716767D01*
X118799500Y-97775253D01*
X118799500Y-98224746D01*
X118811133Y-98283232D01*
X118859497Y-98355611D01*
X118857430Y-98356991D01*
X118875245Y-98400000D01*
X118857430Y-98443008D01*
X118859497Y-98444389D01*
X118855448Y-98450447D01*
X118855448Y-98450448D01*
X118847528Y-98462299D01*
X118811133Y-98516767D01*
X118810494Y-98519979D01*
X118799500Y-98575252D01*
X118799500Y-99024748D01*
X118805316Y-99053989D01*
X118811133Y-99083233D01*
X118813923Y-99089968D01*
X118810543Y-99091367D01*
X118819026Y-99134092D01*
X118798779Y-99171954D01*
X118748214Y-99222519D01*
X118702910Y-99325124D01*
X118700000Y-99350210D01*
X108500500Y-99350210D01*
X108500500Y-92150210D01*
X118700000Y-92150210D01*
X118700000Y-92300000D01*
X121572999Y-92300000D01*
X121572999Y-92150210D01*
X124427000Y-92150210D01*
X124427000Y-92300000D01*
X127299999Y-92300000D01*
X127299999Y-92150207D01*
X127297091Y-92125131D01*
X127297089Y-92125125D01*
X127251785Y-92022518D01*
X127247912Y-92016864D01*
X127251068Y-92014701D01*
X127234417Y-91974500D01*
X127256091Y-91922174D01*
X127308417Y-91900500D01*
X141244877Y-91900500D01*
X141297203Y-91922174D01*
X146559540Y-97184511D01*
X146615489Y-97240460D01*
X146684011Y-97280021D01*
X146684012Y-97280021D01*
X146684014Y-97280022D01*
X146722224Y-97290260D01*
X146760435Y-97300499D01*
X146760436Y-97300500D01*
X146760438Y-97300500D01*
X146839562Y-97300500D01*
X149682746Y-97300500D01*
X149735071Y-97322173D01*
X149773387Y-97360489D01*
X149876114Y-97419799D01*
X149876115Y-97419799D01*
X149876117Y-97419800D01*
X149933402Y-97435149D01*
X149990688Y-97450499D01*
X149990689Y-97450500D01*
X149990691Y-97450500D01*
X150109311Y-97450500D01*
X150109311Y-97450499D01*
X150223886Y-97419799D01*
X150326613Y-97360489D01*
X150410489Y-97276613D01*
X150469799Y-97173886D01*
X150500499Y-97059311D01*
X150500500Y-97059311D01*
X150500500Y-96940689D01*
X150500499Y-96940688D01*
X150494089Y-96916767D01*
X150469799Y-96826114D01*
X150451181Y-96793867D01*
X150410491Y-96723390D01*
X150410490Y-96723389D01*
X150410489Y-96723387D01*
X150326613Y-96639511D01*
X150326610Y-96639509D01*
X150326609Y-96639508D01*
X150223887Y-96580201D01*
X150223882Y-96580199D01*
X150191333Y-96571478D01*
X150146400Y-96537000D01*
X150139008Y-96480847D01*
X150173486Y-96435914D01*
X150191333Y-96428522D01*
X150223882Y-96419800D01*
X150223881Y-96419800D01*
X150223886Y-96419799D01*
X150326613Y-96360489D01*
X150410489Y-96276613D01*
X150469799Y-96173886D01*
X150500499Y-96059311D01*
X150500500Y-96059311D01*
X150500500Y-95940689D01*
X150500499Y-95940688D01*
X150469800Y-95826117D01*
X150469798Y-95826112D01*
X150410491Y-95723390D01*
X150410490Y-95723389D01*
X150410489Y-95723387D01*
X150326613Y-95639511D01*
X150326610Y-95639509D01*
X150326609Y-95639508D01*
X150223887Y-95580201D01*
X150223882Y-95580199D01*
X150166333Y-95564779D01*
X150121400Y-95530301D01*
X150114008Y-95474148D01*
X150148486Y-95429215D01*
X150166330Y-95421823D01*
X150173886Y-95419799D01*
X150276613Y-95360489D01*
X150360489Y-95276613D01*
X150419799Y-95173886D01*
X150450499Y-95059311D01*
X150450500Y-95059311D01*
X150450500Y-94940689D01*
X150450499Y-94940688D01*
X150419800Y-94826117D01*
X150419798Y-94826112D01*
X150360491Y-94723390D01*
X150360490Y-94723389D01*
X150360489Y-94723387D01*
X150276613Y-94639511D01*
X150276610Y-94639509D01*
X150276609Y-94639508D01*
X150186320Y-94587380D01*
X150151842Y-94542447D01*
X150159234Y-94486294D01*
X150204167Y-94451816D01*
X150205069Y-94451636D01*
X150245928Y-94440688D01*
X150323886Y-94419799D01*
X150426613Y-94360489D01*
X150510489Y-94276613D01*
X150569799Y-94173886D01*
X150600499Y-94059311D01*
X150600500Y-94059311D01*
X150600500Y-93940689D01*
X150600499Y-93940688D01*
X150569800Y-93826117D01*
X150569798Y-93826112D01*
X150510491Y-93723390D01*
X150510490Y-93723389D01*
X150510489Y-93723387D01*
X150426613Y-93639511D01*
X150426610Y-93639509D01*
X150426609Y-93639508D01*
X150323887Y-93580201D01*
X150323882Y-93580199D01*
X150267040Y-93564968D01*
X150259107Y-93558881D01*
X150249193Y-93557576D01*
X150237431Y-93542248D01*
X150222107Y-93530489D01*
X150220802Y-93520576D01*
X150214714Y-93512642D01*
X150217235Y-93493486D01*
X150214715Y-93474337D01*
X150222107Y-93456490D01*
X150231231Y-93440688D01*
X165399500Y-93440688D01*
X165399500Y-93559311D01*
X165430199Y-93673882D01*
X165430201Y-93673887D01*
X165489508Y-93776609D01*
X165489509Y-93776610D01*
X165489511Y-93776613D01*
X165573387Y-93860489D01*
X165676114Y-93919799D01*
X165676115Y-93919799D01*
X165676117Y-93919800D01*
X165708666Y-93928522D01*
X165753599Y-93963001D01*
X165760991Y-94019153D01*
X165726512Y-94064086D01*
X165708666Y-94071478D01*
X165676117Y-94080199D01*
X165676112Y-94080201D01*
X165573390Y-94139508D01*
X165489508Y-94223390D01*
X165430201Y-94326112D01*
X165430199Y-94326117D01*
X165399500Y-94440688D01*
X165399500Y-94559311D01*
X165430199Y-94673882D01*
X165430201Y-94673887D01*
X165489508Y-94776609D01*
X165489509Y-94776610D01*
X165489511Y-94776613D01*
X165573387Y-94860489D01*
X165676114Y-94919799D01*
X165733666Y-94935220D01*
X165778599Y-94969698D01*
X165785992Y-95025850D01*
X165751513Y-95070784D01*
X165733672Y-95078175D01*
X165726116Y-95080200D01*
X165726112Y-95080201D01*
X165623390Y-95139508D01*
X165539508Y-95223390D01*
X165480201Y-95326112D01*
X165480199Y-95326117D01*
X165449500Y-95440688D01*
X165449500Y-95559311D01*
X165480199Y-95673882D01*
X165480201Y-95673887D01*
X165539508Y-95776609D01*
X165539509Y-95776610D01*
X165539511Y-95776613D01*
X165623387Y-95860489D01*
X165623389Y-95860490D01*
X165623390Y-95860491D01*
X165692687Y-95900500D01*
X165726114Y-95919799D01*
X165726115Y-95919799D01*
X165726117Y-95919800D01*
X165758666Y-95928522D01*
X165803599Y-95963001D01*
X165810991Y-96019153D01*
X165776512Y-96064086D01*
X165758666Y-96071478D01*
X165726117Y-96080199D01*
X165726112Y-96080201D01*
X165623390Y-96139508D01*
X165539508Y-96223390D01*
X165480201Y-96326112D01*
X165480199Y-96326117D01*
X165449500Y-96440688D01*
X165449500Y-96559311D01*
X165480199Y-96673882D01*
X165480201Y-96673887D01*
X165539508Y-96776609D01*
X165539509Y-96776610D01*
X165539511Y-96776613D01*
X165623387Y-96860489D01*
X165623389Y-96860490D01*
X165623390Y-96860491D01*
X165690955Y-96899500D01*
X165726114Y-96919799D01*
X165726115Y-96919799D01*
X165726117Y-96919800D01*
X165783402Y-96935149D01*
X165840688Y-96950499D01*
X165840689Y-96950500D01*
X165840691Y-96950500D01*
X165959311Y-96950500D01*
X165964120Y-96949867D01*
X165964448Y-96952363D01*
X166012489Y-96958680D01*
X166046975Y-97003607D01*
X166049500Y-97022772D01*
X166049500Y-97059311D01*
X166080199Y-97173882D01*
X166080201Y-97173887D01*
X166139508Y-97276609D01*
X166139509Y-97276610D01*
X166139511Y-97276613D01*
X166223387Y-97360489D01*
X166326114Y-97419799D01*
X166326115Y-97419799D01*
X166326117Y-97419800D01*
X166383402Y-97435149D01*
X166440688Y-97450499D01*
X166440689Y-97450500D01*
X166440691Y-97450500D01*
X166559311Y-97450500D01*
X166559311Y-97450499D01*
X166673886Y-97419799D01*
X166776613Y-97360489D01*
X166814929Y-97322173D01*
X166867254Y-97300500D01*
X171239564Y-97300500D01*
X171239564Y-97300499D01*
X171315989Y-97280021D01*
X171384511Y-97240460D01*
X171440460Y-97184511D01*
X176702797Y-91922174D01*
X176755123Y-91900500D01*
X188691583Y-91900500D01*
X188743909Y-91922174D01*
X188765583Y-91974500D01*
X188748931Y-92014701D01*
X188752088Y-92016864D01*
X188748214Y-92022518D01*
X188702910Y-92125124D01*
X188700000Y-92150210D01*
X188700000Y-92300000D01*
X191572999Y-92300000D01*
X191572999Y-92150210D01*
X194427000Y-92150210D01*
X194427000Y-92300000D01*
X197299999Y-92300000D01*
X197299999Y-92150207D01*
X197297091Y-92125131D01*
X197297089Y-92125125D01*
X197251786Y-92022521D01*
X197201219Y-91971954D01*
X197179545Y-91919628D01*
X197188275Y-91890874D01*
X197186078Y-91889964D01*
X197188866Y-91883232D01*
X197188865Y-91883232D01*
X197188867Y-91883231D01*
X197200500Y-91824748D01*
X197200500Y-91375252D01*
X197188867Y-91316769D01*
X197176636Y-91298465D01*
X197140503Y-91244389D01*
X197142569Y-91243008D01*
X197124755Y-91200000D01*
X197142569Y-91156991D01*
X197140503Y-91155611D01*
X197162846Y-91122174D01*
X197188867Y-91083231D01*
X197200500Y-91024748D01*
X197200500Y-90575252D01*
X197188867Y-90516769D01*
X197176636Y-90498465D01*
X197140503Y-90444389D01*
X197142569Y-90443008D01*
X197124755Y-90400000D01*
X197142569Y-90356991D01*
X197140503Y-90355611D01*
X197162846Y-90322174D01*
X197188867Y-90283231D01*
X197200500Y-90224748D01*
X197200500Y-89775252D01*
X197188867Y-89716769D01*
X197187033Y-89714025D01*
X197140503Y-89644389D01*
X197142569Y-89643008D01*
X197124755Y-89600000D01*
X197142569Y-89556991D01*
X197140503Y-89555611D01*
X197162846Y-89522174D01*
X197188867Y-89483231D01*
X197200500Y-89424748D01*
X197200500Y-88975252D01*
X197188867Y-88916769D01*
X197176636Y-88898465D01*
X197140503Y-88844389D01*
X197142569Y-88843008D01*
X197124755Y-88800000D01*
X197142569Y-88756991D01*
X197140503Y-88755611D01*
X197162846Y-88722174D01*
X197188867Y-88683231D01*
X197200500Y-88624748D01*
X197200500Y-88175252D01*
X197188867Y-88116769D01*
X197176636Y-88098465D01*
X197140503Y-88044389D01*
X197142569Y-88043008D01*
X197124755Y-88000000D01*
X197142569Y-87956991D01*
X197140503Y-87955611D01*
X197162846Y-87922174D01*
X197188867Y-87883231D01*
X197200500Y-87824748D01*
X197200500Y-87375252D01*
X197188867Y-87316769D01*
X197176636Y-87298465D01*
X197150742Y-87259712D01*
X197144552Y-87250448D01*
X197144551Y-87250447D01*
X197140503Y-87244389D01*
X197142569Y-87243008D01*
X197124755Y-87200000D01*
X197142569Y-87156991D01*
X197140503Y-87155611D01*
X197154048Y-87135341D01*
X197188867Y-87083231D01*
X197200500Y-87024748D01*
X197200500Y-86575252D01*
X197188867Y-86516769D01*
X197176636Y-86498465D01*
X197140503Y-86444389D01*
X197142569Y-86443008D01*
X197124755Y-86400000D01*
X197142569Y-86356991D01*
X197140503Y-86355611D01*
X197162846Y-86322174D01*
X197188867Y-86283231D01*
X197200500Y-86224748D01*
X197200500Y-85775252D01*
X197188867Y-85716769D01*
X197188866Y-85716767D01*
X197188866Y-85716766D01*
X197186077Y-85710032D01*
X197189457Y-85708631D01*
X197180971Y-85665920D01*
X197201221Y-85628044D01*
X197251785Y-85577480D01*
X197297089Y-85474875D01*
X197300000Y-85449789D01*
X197300000Y-85300000D01*
X194427001Y-85300000D01*
X194427001Y-85449792D01*
X194429908Y-85474868D01*
X194429910Y-85474874D01*
X194475213Y-85577478D01*
X194525780Y-85628045D01*
X194547454Y-85680371D01*
X194538733Y-85709128D01*
X194540922Y-85710035D01*
X194538133Y-85716767D01*
X194537160Y-85721659D01*
X194526500Y-85775252D01*
X194526500Y-86224748D01*
X194530071Y-86242699D01*
X194538133Y-86283232D01*
X194586497Y-86355611D01*
X194584430Y-86356991D01*
X194602245Y-86400000D01*
X194584430Y-86443008D01*
X194586497Y-86444389D01*
X194538133Y-86516767D01*
X194526500Y-86575253D01*
X194526500Y-87024746D01*
X194538133Y-87083232D01*
X194586497Y-87155611D01*
X194584430Y-87156991D01*
X194602245Y-87200000D01*
X194584430Y-87243008D01*
X194586497Y-87244389D01*
X194582448Y-87250447D01*
X194582448Y-87250448D01*
X194576348Y-87259577D01*
X194538133Y-87316767D01*
X194537394Y-87320482D01*
X194526908Y-87373204D01*
X194526500Y-87375253D01*
X194526500Y-87824746D01*
X194538133Y-87883232D01*
X194586497Y-87955611D01*
X194584430Y-87956991D01*
X194602245Y-88000000D01*
X194584430Y-88043008D01*
X194586497Y-88044389D01*
X194538133Y-88116767D01*
X194526500Y-88175253D01*
X194526500Y-88624746D01*
X194538133Y-88683232D01*
X194586497Y-88755611D01*
X194584430Y-88756991D01*
X194602245Y-88800000D01*
X194584430Y-88843008D01*
X194586497Y-88844389D01*
X194538133Y-88916767D01*
X194526500Y-88975253D01*
X194526500Y-89424746D01*
X194538133Y-89483232D01*
X194586497Y-89555611D01*
X194584430Y-89556991D01*
X194602245Y-89600000D01*
X194584430Y-89643008D01*
X194586497Y-89644389D01*
X194538133Y-89716767D01*
X194526500Y-89775253D01*
X194526500Y-90224746D01*
X194538133Y-90283232D01*
X194586497Y-90355611D01*
X194584430Y-90356991D01*
X194602245Y-90400000D01*
X194584430Y-90443008D01*
X194586497Y-90444389D01*
X194538133Y-90516767D01*
X194526500Y-90575253D01*
X194526500Y-91024746D01*
X194538133Y-91083232D01*
X194586497Y-91155611D01*
X194584430Y-91156991D01*
X194602245Y-91200000D01*
X194584430Y-91243008D01*
X194586497Y-91244389D01*
X194538133Y-91316767D01*
X194526500Y-91375253D01*
X194526500Y-91824746D01*
X194538133Y-91883233D01*
X194540923Y-91889968D01*
X194537543Y-91891367D01*
X194546026Y-91934092D01*
X194525779Y-91971954D01*
X194475214Y-92022519D01*
X194429910Y-92125124D01*
X194427000Y-92150210D01*
X191572999Y-92150210D01*
X191572999Y-92150207D01*
X191570091Y-92125131D01*
X191570089Y-92125125D01*
X191524786Y-92022521D01*
X191474219Y-91971954D01*
X191452545Y-91919628D01*
X191461275Y-91890874D01*
X191459078Y-91889964D01*
X191461866Y-91883232D01*
X191461865Y-91883232D01*
X191461867Y-91883231D01*
X191473500Y-91824748D01*
X191473500Y-91375252D01*
X191461867Y-91316769D01*
X191449636Y-91298465D01*
X191413503Y-91244389D01*
X191415569Y-91243008D01*
X191397755Y-91200000D01*
X191415569Y-91156991D01*
X191413503Y-91155611D01*
X191435846Y-91122174D01*
X191461867Y-91083231D01*
X191473500Y-91024748D01*
X191473500Y-90575252D01*
X191461867Y-90516769D01*
X191449636Y-90498465D01*
X191413503Y-90444389D01*
X191415569Y-90443008D01*
X191397755Y-90400000D01*
X191415569Y-90356991D01*
X191413503Y-90355611D01*
X191435846Y-90322174D01*
X191461867Y-90283231D01*
X191473500Y-90224748D01*
X191473500Y-89775252D01*
X191461867Y-89716769D01*
X191460033Y-89714025D01*
X191413503Y-89644389D01*
X191415569Y-89643008D01*
X191397755Y-89600000D01*
X191415569Y-89556991D01*
X191413503Y-89555611D01*
X191435846Y-89522174D01*
X191461867Y-89483231D01*
X191473500Y-89424748D01*
X191473500Y-88975252D01*
X191461867Y-88916769D01*
X191449636Y-88898465D01*
X191413503Y-88844389D01*
X191415569Y-88843008D01*
X191397755Y-88800000D01*
X191415569Y-88756991D01*
X191413503Y-88755611D01*
X191435846Y-88722174D01*
X191461867Y-88683231D01*
X191473500Y-88624748D01*
X191473500Y-88175252D01*
X191461867Y-88116769D01*
X191449636Y-88098465D01*
X191413503Y-88044389D01*
X191415569Y-88043008D01*
X191397755Y-88000000D01*
X191415569Y-87956991D01*
X191413503Y-87955611D01*
X191435846Y-87922174D01*
X191461867Y-87883231D01*
X191473500Y-87824748D01*
X191473500Y-87375252D01*
X191461867Y-87316769D01*
X191449636Y-87298465D01*
X191423742Y-87259712D01*
X191417552Y-87250448D01*
X191417551Y-87250447D01*
X191413503Y-87244389D01*
X191415569Y-87243008D01*
X191397755Y-87200000D01*
X191415569Y-87156991D01*
X191413503Y-87155611D01*
X191427048Y-87135341D01*
X191461867Y-87083231D01*
X191473500Y-87024748D01*
X191473500Y-86575252D01*
X191461867Y-86516769D01*
X191449636Y-86498465D01*
X191413503Y-86444389D01*
X191415569Y-86443008D01*
X191397755Y-86400000D01*
X191415569Y-86356991D01*
X191413503Y-86355611D01*
X191435846Y-86322174D01*
X191461867Y-86283231D01*
X191473500Y-86224748D01*
X191473500Y-85775252D01*
X191461867Y-85716769D01*
X191461866Y-85716767D01*
X191461866Y-85716766D01*
X191459077Y-85710032D01*
X191462457Y-85708631D01*
X191453971Y-85665920D01*
X191474221Y-85628044D01*
X191524785Y-85577480D01*
X191570089Y-85474875D01*
X191573000Y-85449789D01*
X191573000Y-85300000D01*
X188700001Y-85300000D01*
X188700001Y-85449792D01*
X188702908Y-85474868D01*
X188702910Y-85474874D01*
X188748214Y-85577481D01*
X188752088Y-85583136D01*
X188748931Y-85585298D01*
X188765583Y-85625500D01*
X188743909Y-85677826D01*
X188691583Y-85699500D01*
X173389564Y-85699500D01*
X173310440Y-85699500D01*
X173234014Y-85719978D01*
X173234013Y-85719978D01*
X173234011Y-85719979D01*
X173234009Y-85719980D01*
X173165494Y-85759537D01*
X165897205Y-93027826D01*
X165844879Y-93049500D01*
X165790689Y-93049500D01*
X165676117Y-93080199D01*
X165676112Y-93080201D01*
X165573390Y-93139508D01*
X165489508Y-93223390D01*
X165430201Y-93326112D01*
X165430199Y-93326117D01*
X165399500Y-93440688D01*
X150231231Y-93440688D01*
X150240434Y-93424748D01*
X150269799Y-93373886D01*
X150300499Y-93259311D01*
X150300500Y-93259311D01*
X150300500Y-93140689D01*
X150300499Y-93140688D01*
X150269800Y-93026117D01*
X150269798Y-93026112D01*
X150210491Y-92923390D01*
X150210490Y-92923389D01*
X150210489Y-92923387D01*
X150126613Y-92839511D01*
X150126610Y-92839509D01*
X150126609Y-92839508D01*
X150023887Y-92780201D01*
X150023882Y-92780199D01*
X149909311Y-92749500D01*
X149909309Y-92749500D01*
X149855123Y-92749500D01*
X149802797Y-92727826D01*
X142834511Y-85759540D01*
X142818853Y-85750500D01*
X142765990Y-85719979D01*
X142765985Y-85719977D01*
X142689564Y-85699500D01*
X142689562Y-85699500D01*
X127308417Y-85699500D01*
X127256091Y-85677826D01*
X127234417Y-85625500D01*
X127251068Y-85585298D01*
X127247912Y-85583136D01*
X127251785Y-85577481D01*
X127297089Y-85474875D01*
X127300000Y-85449789D01*
X127300000Y-85300000D01*
X124427001Y-85300000D01*
X124427001Y-85449792D01*
X124429908Y-85474868D01*
X124429910Y-85474874D01*
X124475213Y-85577478D01*
X124525780Y-85628045D01*
X124547454Y-85680371D01*
X124538733Y-85709128D01*
X124540922Y-85710035D01*
X124538133Y-85716767D01*
X124537160Y-85721659D01*
X124526500Y-85775252D01*
X124526500Y-86224748D01*
X124530071Y-86242699D01*
X124538133Y-86283232D01*
X124586497Y-86355611D01*
X124584430Y-86356991D01*
X124602245Y-86400000D01*
X124584430Y-86443008D01*
X124586497Y-86444389D01*
X124538133Y-86516767D01*
X124526500Y-86575253D01*
X124526500Y-87024746D01*
X124538133Y-87083232D01*
X124586497Y-87155611D01*
X124584430Y-87156991D01*
X124602245Y-87200000D01*
X124584430Y-87243008D01*
X124586497Y-87244389D01*
X124582448Y-87250447D01*
X124582448Y-87250448D01*
X124576348Y-87259577D01*
X124538133Y-87316767D01*
X124537394Y-87320482D01*
X124526908Y-87373204D01*
X124526500Y-87375253D01*
X124526500Y-87824746D01*
X124538133Y-87883232D01*
X124586497Y-87955611D01*
X124584430Y-87956991D01*
X124602245Y-88000000D01*
X124584430Y-88043008D01*
X124586497Y-88044389D01*
X124538133Y-88116767D01*
X124526500Y-88175253D01*
X124526500Y-88624746D01*
X124538133Y-88683232D01*
X124586497Y-88755611D01*
X124584430Y-88756991D01*
X124602245Y-88800000D01*
X124584430Y-88843008D01*
X124586497Y-88844389D01*
X124538133Y-88916767D01*
X124526500Y-88975253D01*
X124526500Y-89424746D01*
X124538133Y-89483232D01*
X124586497Y-89555611D01*
X124584430Y-89556991D01*
X124602245Y-89600000D01*
X124584430Y-89643008D01*
X124586497Y-89644389D01*
X124538133Y-89716767D01*
X124526500Y-89775253D01*
X124526500Y-90224746D01*
X124538133Y-90283232D01*
X124586497Y-90355611D01*
X124584430Y-90356991D01*
X124602245Y-90400000D01*
X124584430Y-90443008D01*
X124586497Y-90444389D01*
X124538133Y-90516767D01*
X124526500Y-90575253D01*
X124526500Y-91024746D01*
X124538133Y-91083232D01*
X124586497Y-91155611D01*
X124584430Y-91156991D01*
X124602245Y-91200000D01*
X124584430Y-91243008D01*
X124586497Y-91244389D01*
X124538133Y-91316767D01*
X124526500Y-91375253D01*
X124526500Y-91824746D01*
X124538133Y-91883233D01*
X124540923Y-91889968D01*
X124537543Y-91891367D01*
X124546026Y-91934092D01*
X124525779Y-91971954D01*
X124475214Y-92022519D01*
X124429910Y-92125124D01*
X124427000Y-92150210D01*
X121572999Y-92150210D01*
X121572999Y-92150207D01*
X121570091Y-92125131D01*
X121570089Y-92125125D01*
X121524786Y-92022521D01*
X121474219Y-91971954D01*
X121452545Y-91919628D01*
X121461275Y-91890874D01*
X121459078Y-91889964D01*
X121461866Y-91883232D01*
X121461865Y-91883232D01*
X121461867Y-91883231D01*
X121473500Y-91824748D01*
X121473500Y-91375252D01*
X121461867Y-91316769D01*
X121449636Y-91298465D01*
X121413503Y-91244389D01*
X121415569Y-91243008D01*
X121397755Y-91200000D01*
X121415569Y-91156991D01*
X121413503Y-91155611D01*
X121435846Y-91122174D01*
X121461867Y-91083231D01*
X121473500Y-91024748D01*
X121473500Y-90575252D01*
X121461867Y-90516769D01*
X121449636Y-90498465D01*
X121413503Y-90444389D01*
X121415569Y-90443008D01*
X121397755Y-90400000D01*
X121415569Y-90356991D01*
X121413503Y-90355611D01*
X121435846Y-90322174D01*
X121461867Y-90283231D01*
X121473500Y-90224748D01*
X121473500Y-89775252D01*
X121461867Y-89716769D01*
X121460033Y-89714025D01*
X121413503Y-89644389D01*
X121415569Y-89643008D01*
X121397755Y-89600000D01*
X121415569Y-89556991D01*
X121413503Y-89555611D01*
X121435846Y-89522174D01*
X121461867Y-89483231D01*
X121473500Y-89424748D01*
X121473500Y-88975252D01*
X121461867Y-88916769D01*
X121449636Y-88898465D01*
X121413503Y-88844389D01*
X121415569Y-88843008D01*
X121397755Y-88800000D01*
X121415569Y-88756991D01*
X121413503Y-88755611D01*
X121435846Y-88722174D01*
X121461867Y-88683231D01*
X121473500Y-88624748D01*
X121473500Y-88175252D01*
X121461867Y-88116769D01*
X121449636Y-88098465D01*
X121413503Y-88044389D01*
X121415569Y-88043008D01*
X121397755Y-88000000D01*
X121415569Y-87956991D01*
X121413503Y-87955611D01*
X121435846Y-87922174D01*
X121461867Y-87883231D01*
X121473500Y-87824748D01*
X121473500Y-87375252D01*
X121461867Y-87316769D01*
X121449636Y-87298465D01*
X121423742Y-87259712D01*
X121417552Y-87250448D01*
X121417551Y-87250447D01*
X121413503Y-87244389D01*
X121415569Y-87243008D01*
X121397755Y-87200000D01*
X121415569Y-87156991D01*
X121413503Y-87155611D01*
X121427048Y-87135341D01*
X121461867Y-87083231D01*
X121473500Y-87024748D01*
X121473500Y-86575252D01*
X121461867Y-86516769D01*
X121449636Y-86498465D01*
X121413503Y-86444389D01*
X121415569Y-86443008D01*
X121397755Y-86400000D01*
X121415569Y-86356991D01*
X121413503Y-86355611D01*
X121435846Y-86322174D01*
X121461867Y-86283231D01*
X121473500Y-86224748D01*
X121473500Y-85775252D01*
X121461867Y-85716769D01*
X121461866Y-85716767D01*
X121461866Y-85716766D01*
X121459077Y-85710032D01*
X121462457Y-85708631D01*
X121453971Y-85665920D01*
X121474221Y-85628044D01*
X121524785Y-85577480D01*
X121570089Y-85474875D01*
X121573000Y-85449789D01*
X121573000Y-85300000D01*
X118700001Y-85300000D01*
X118700001Y-85449792D01*
X118702908Y-85474868D01*
X118702910Y-85474874D01*
X118748213Y-85577478D01*
X118798780Y-85628045D01*
X118820454Y-85680371D01*
X118811733Y-85709128D01*
X118813922Y-85710035D01*
X118811133Y-85716767D01*
X118810160Y-85721659D01*
X118799500Y-85775252D01*
X118799500Y-86224748D01*
X118803071Y-86242699D01*
X118811133Y-86283232D01*
X118859497Y-86355611D01*
X118857430Y-86356991D01*
X118875245Y-86400000D01*
X118857430Y-86443008D01*
X118859497Y-86444389D01*
X118811133Y-86516767D01*
X118799500Y-86575253D01*
X118799500Y-87024746D01*
X118811133Y-87083232D01*
X118859497Y-87155611D01*
X118857430Y-87156991D01*
X118875245Y-87200000D01*
X118857430Y-87243008D01*
X118859497Y-87244389D01*
X118855448Y-87250447D01*
X118855448Y-87250448D01*
X118849348Y-87259577D01*
X118811133Y-87316767D01*
X118810394Y-87320482D01*
X118799908Y-87373204D01*
X118799500Y-87375253D01*
X118799500Y-87824746D01*
X118811133Y-87883232D01*
X118859497Y-87955611D01*
X118857430Y-87956991D01*
X118875245Y-88000000D01*
X118857430Y-88043008D01*
X118859497Y-88044389D01*
X118811133Y-88116767D01*
X118799500Y-88175253D01*
X118799500Y-88624746D01*
X118811133Y-88683232D01*
X118859497Y-88755611D01*
X118857430Y-88756991D01*
X118875245Y-88800000D01*
X118857430Y-88843008D01*
X118859497Y-88844389D01*
X118811133Y-88916767D01*
X118799500Y-88975253D01*
X118799500Y-89424746D01*
X118811133Y-89483232D01*
X118859497Y-89555611D01*
X118857430Y-89556991D01*
X118875245Y-89600000D01*
X118857430Y-89643008D01*
X118859497Y-89644389D01*
X118811133Y-89716767D01*
X118799500Y-89775253D01*
X118799500Y-90224746D01*
X118811133Y-90283232D01*
X118859497Y-90355611D01*
X118857430Y-90356991D01*
X118875245Y-90400000D01*
X118857430Y-90443008D01*
X118859497Y-90444389D01*
X118811133Y-90516767D01*
X118799500Y-90575253D01*
X118799500Y-91024746D01*
X118811133Y-91083232D01*
X118859497Y-91155611D01*
X118857430Y-91156991D01*
X118875245Y-91200000D01*
X118857430Y-91243008D01*
X118859497Y-91244389D01*
X118811133Y-91316767D01*
X118799500Y-91375253D01*
X118799500Y-91824746D01*
X118811133Y-91883233D01*
X118813923Y-91889968D01*
X118810543Y-91891367D01*
X118819026Y-91934092D01*
X118798779Y-91971954D01*
X118748214Y-92022519D01*
X118702910Y-92125124D01*
X118700000Y-92150210D01*
X108500500Y-92150210D01*
X108500500Y-84950210D01*
X118700000Y-84950210D01*
X118700000Y-85100000D01*
X120036500Y-85100000D01*
X120236500Y-85100000D01*
X121572999Y-85100000D01*
X121572999Y-84950210D01*
X124427000Y-84950210D01*
X124427000Y-85100000D01*
X125763500Y-85100000D01*
X125963500Y-85100000D01*
X127299999Y-85100000D01*
X127299999Y-84950207D01*
X127297091Y-84925131D01*
X127297089Y-84925126D01*
X127255039Y-84829890D01*
X127253731Y-84773268D01*
X127255039Y-84770110D01*
X127297089Y-84674875D01*
X127300000Y-84649789D01*
X127300000Y-84500000D01*
X125963500Y-84500000D01*
X125963500Y-85100000D01*
X125763500Y-85100000D01*
X125763500Y-84500000D01*
X124427001Y-84500000D01*
X124427001Y-84649792D01*
X124429908Y-84674868D01*
X124429910Y-84674874D01*
X124471960Y-84770109D01*
X124473268Y-84826731D01*
X124471960Y-84829889D01*
X124429910Y-84925123D01*
X124427000Y-84950210D01*
X121572999Y-84950210D01*
X121572999Y-84950207D01*
X121570091Y-84925131D01*
X121570089Y-84925126D01*
X121528039Y-84829890D01*
X121526731Y-84773268D01*
X121528039Y-84770110D01*
X121570089Y-84674875D01*
X121573000Y-84649789D01*
X121573000Y-84500000D01*
X120236500Y-84500000D01*
X120236500Y-85100000D01*
X120036500Y-85100000D01*
X120036500Y-84500000D01*
X118700001Y-84500000D01*
X118700001Y-84649792D01*
X118702908Y-84674868D01*
X118702910Y-84674874D01*
X118744960Y-84770109D01*
X118746268Y-84826731D01*
X118744960Y-84829889D01*
X118702910Y-84925123D01*
X118700000Y-84950210D01*
X108500500Y-84950210D01*
X108500500Y-84150210D01*
X118700000Y-84150210D01*
X118700000Y-84300000D01*
X120036500Y-84300000D01*
X120236500Y-84300000D01*
X121572999Y-84300000D01*
X121572999Y-84150210D01*
X124427000Y-84150210D01*
X124427000Y-84300000D01*
X125763500Y-84300000D01*
X125963500Y-84300000D01*
X127299999Y-84300000D01*
X127299999Y-84150207D01*
X127297091Y-84125131D01*
X127297089Y-84125125D01*
X127251786Y-84022521D01*
X127172478Y-83943213D01*
X127069875Y-83897910D01*
X127069876Y-83897910D01*
X127044789Y-83895000D01*
X125963500Y-83895000D01*
X125963500Y-84300000D01*
X125763500Y-84300000D01*
X125763500Y-83895000D01*
X124682207Y-83895000D01*
X124657131Y-83897908D01*
X124657125Y-83897910D01*
X124554521Y-83943213D01*
X124475213Y-84022521D01*
X124429910Y-84125124D01*
X124427000Y-84150210D01*
X121572999Y-84150210D01*
X121572999Y-84150207D01*
X121570091Y-84125131D01*
X121570089Y-84125125D01*
X121524786Y-84022521D01*
X121445478Y-83943213D01*
X121342875Y-83897910D01*
X121342876Y-83897910D01*
X121317789Y-83895000D01*
X120236500Y-83895000D01*
X120236500Y-84300000D01*
X120036500Y-84300000D01*
X120036500Y-83895000D01*
X118955207Y-83895000D01*
X118930131Y-83897908D01*
X118930125Y-83897910D01*
X118827521Y-83943213D01*
X118748213Y-84022521D01*
X118702910Y-84125124D01*
X118700000Y-84150210D01*
X108500500Y-84150210D01*
X108500500Y-81874871D01*
X119719500Y-81874871D01*
X119719500Y-81995128D01*
X119742959Y-82113069D01*
X119742961Y-82113076D01*
X119788981Y-82224179D01*
X119788982Y-82224180D01*
X119855794Y-82324171D01*
X119940829Y-82409206D01*
X120040820Y-82476018D01*
X120151924Y-82522039D01*
X120269871Y-82545500D01*
X120269872Y-82545500D01*
X120390128Y-82545500D01*
X120390129Y-82545500D01*
X120508076Y-82522039D01*
X120619180Y-82476018D01*
X120719171Y-82409206D01*
X120804206Y-82324171D01*
X120871018Y-82224180D01*
X120917039Y-82113076D01*
X120940500Y-81995129D01*
X120940500Y-81874871D01*
X120917039Y-81756924D01*
X120871018Y-81645820D01*
X120804206Y-81545829D01*
X120719171Y-81460794D01*
X120619180Y-81393982D01*
X120619181Y-81393982D01*
X120619179Y-81393981D01*
X120508076Y-81347961D01*
X120508069Y-81347959D01*
X120419215Y-81330285D01*
X120390129Y-81324500D01*
X120269871Y-81324500D01*
X120246538Y-81329141D01*
X120151930Y-81347959D01*
X120151923Y-81347961D01*
X120040820Y-81393981D01*
X119940832Y-81460791D01*
X119855791Y-81545832D01*
X119788981Y-81645820D01*
X119742961Y-81756923D01*
X119742959Y-81756930D01*
X119719500Y-81874871D01*
X108500500Y-81874871D01*
X108500500Y-80002236D01*
X108500635Y-79997768D01*
X108504486Y-79934108D01*
X108518454Y-79703176D01*
X108519528Y-79694328D01*
X108572328Y-79406211D01*
X108574458Y-79397568D01*
X108661597Y-79117931D01*
X108664754Y-79109604D01*
X108784971Y-78842493D01*
X108789115Y-78834599D01*
X108940636Y-78583952D01*
X108945712Y-78576599D01*
X109126343Y-78346039D01*
X109132254Y-78339367D01*
X109339367Y-78132254D01*
X109346039Y-78126343D01*
X109576599Y-77945711D01*
X109583953Y-77940636D01*
X109691218Y-77875792D01*
X109834599Y-77789115D01*
X109842493Y-77784971D01*
X110109604Y-77664754D01*
X110117931Y-77661597D01*
X110397568Y-77574458D01*
X110406211Y-77572328D01*
X110694328Y-77519528D01*
X110703176Y-77518454D01*
X110997768Y-77500634D01*
X111002236Y-77500500D01*
X111065892Y-77500500D01*
X151872507Y-77500500D01*
X151924833Y-77522174D01*
G37*
%TD.AperFunction*%
%TD*%
M02*
