%TF.GenerationSoftware,KiCad,Pcbnew,9.0.3*%
%TF.CreationDate,2025-10-23T14:53:04-04:00*%
%TF.ProjectId,ephys-test-module-64,65706879-732d-4746-9573-742d6d6f6475,D*%
%TF.SameCoordinates,Original*%
%TF.FileFunction,Paste,Top*%
%TF.FilePolarity,Positive*%
%FSLAX46Y46*%
G04 Gerber Fmt 4.6, Leading zero omitted, Abs format (unit mm)*
G04 Created by KiCad (PCBNEW 9.0.3) date 2025-10-23 14:53:04*
%MOMM*%
%LPD*%
G01*
G04 APERTURE LIST*
G04 Aperture macros list*
%AMRoundRect*
0 Rectangle with rounded corners*
0 $1 Rounding radius*
0 $2 $3 $4 $5 $6 $7 $8 $9 X,Y pos of 4 corners*
0 Add a 4 corners polygon primitive as box body*
4,1,4,$2,$3,$4,$5,$6,$7,$8,$9,$2,$3,0*
0 Add four circle primitives for the rounded corners*
1,1,$1+$1,$2,$3*
1,1,$1+$1,$4,$5*
1,1,$1+$1,$6,$7*
1,1,$1+$1,$8,$9*
0 Add four rect primitives between the rounded corners*
20,1,$1+$1,$2,$3,$4,$5,0*
20,1,$1+$1,$4,$5,$6,$7,0*
20,1,$1+$1,$6,$7,$8,$9,0*
20,1,$1+$1,$8,$9,$2,$3,0*%
G04 Aperture macros list end*
%ADD10R,0.800000X0.300000*%
%ADD11R,3.150000X1.000000*%
%ADD12RoundRect,0.135000X-0.135000X-0.185000X0.135000X-0.185000X0.135000X0.185000X-0.135000X0.185000X0*%
%ADD13RoundRect,0.135000X0.135000X0.185000X-0.135000X0.185000X-0.135000X-0.185000X0.135000X-0.185000X0*%
%ADD14RoundRect,0.010000X0.340000X-0.090000X0.340000X0.090000X-0.340000X0.090000X-0.340000X-0.090000X0*%
%ADD15RoundRect,0.150000X0.150000X-0.825000X0.150000X0.825000X-0.150000X0.825000X-0.150000X-0.825000X0*%
%ADD16RoundRect,0.140000X-0.170000X0.140000X-0.170000X-0.140000X0.170000X-0.140000X0.170000X0.140000X0*%
G04 APERTURE END LIST*
D10*
%TO.C,RN8*%
X165200000Y-101500000D03*
X165200000Y-101000000D03*
X165200000Y-100500000D03*
X165200000Y-100000000D03*
X165200000Y-99500000D03*
X165200000Y-99000000D03*
X165200000Y-98500000D03*
X165200000Y-98000000D03*
X163400000Y-98000000D03*
X163400000Y-98500000D03*
X163400000Y-99000000D03*
X163400000Y-99500000D03*
X163400000Y-100000000D03*
X163400000Y-100500000D03*
X163400000Y-101000000D03*
X163400000Y-101500000D03*
%TD*%
D11*
%TO.C,J4*%
X195496000Y-123655000D03*
X190446000Y-123655000D03*
X195496000Y-121115000D03*
X190446000Y-121115000D03*
%TD*%
D12*
%TO.C,R3*%
X122690000Y-120000000D03*
X123710000Y-120000000D03*
%TD*%
D13*
%TO.C,R4*%
X154020000Y-112400000D03*
X153000000Y-112400000D03*
%TD*%
D14*
%TO.C,J1*%
X156460000Y-108800000D03*
X159540000Y-108800000D03*
X156460000Y-108400000D03*
X159540000Y-108400000D03*
X156460000Y-108000000D03*
X159540000Y-108000000D03*
X156460000Y-107600000D03*
X159540000Y-107600000D03*
X156460000Y-107200000D03*
X159540000Y-107200000D03*
X156460000Y-106800000D03*
X159540000Y-106800000D03*
X156460000Y-106400000D03*
X159540000Y-106400000D03*
X156460000Y-106000000D03*
X159540000Y-106000000D03*
X156460000Y-105600000D03*
X159540000Y-105600000D03*
X156460000Y-105200000D03*
X159540000Y-105200000D03*
X156460000Y-104800000D03*
X159540000Y-104800000D03*
X156460000Y-104400000D03*
X159540000Y-104400000D03*
X156460000Y-104000000D03*
X159540000Y-104000000D03*
X156460000Y-103600000D03*
X159540000Y-103600000D03*
X156460000Y-103200000D03*
X159540000Y-103200000D03*
X156460000Y-102800000D03*
X159540000Y-102800000D03*
X156460000Y-102400000D03*
X159540000Y-102400000D03*
X156460000Y-102000000D03*
X159540000Y-102000000D03*
X156460000Y-101600000D03*
X159540000Y-101600000D03*
X156460000Y-101200000D03*
X159540000Y-101200000D03*
X156460000Y-100800000D03*
X159540000Y-100800000D03*
X156460000Y-100400000D03*
X159540000Y-100400000D03*
X156460000Y-100000000D03*
X159540000Y-100000000D03*
X156460000Y-99600000D03*
X159540000Y-99600000D03*
X156460000Y-99200000D03*
X159540000Y-99200000D03*
X156460000Y-98800000D03*
X159540000Y-98800000D03*
X156460000Y-98400000D03*
X159540000Y-98400000D03*
X156460000Y-98000000D03*
X159540000Y-98000000D03*
X156460000Y-97600000D03*
X159540000Y-97600000D03*
X156460000Y-97200000D03*
X159540000Y-97200000D03*
X156460000Y-96800000D03*
X159540000Y-96800000D03*
X156460000Y-96400000D03*
X159540000Y-96400000D03*
X156460000Y-96000000D03*
X159540000Y-96000000D03*
X156460000Y-95600000D03*
X159540000Y-95600000D03*
X156460000Y-95200000D03*
X159540000Y-95200000D03*
%TD*%
D12*
%TO.C,R1*%
X121390000Y-121100000D03*
X122410000Y-121100000D03*
%TD*%
D10*
%TO.C,RN2*%
X152600000Y-106000000D03*
X152600000Y-105500000D03*
X152600000Y-105000000D03*
X152600000Y-104500000D03*
X152600000Y-104000000D03*
X152600000Y-103500000D03*
X152600000Y-103000000D03*
X152600000Y-102500000D03*
X150800000Y-102500000D03*
X150800000Y-103000000D03*
X150800000Y-103500000D03*
X150800000Y-104000000D03*
X150800000Y-104500000D03*
X150800000Y-105000000D03*
X150800000Y-105500000D03*
X150800000Y-106000000D03*
%TD*%
%TO.C,RN3*%
X152600000Y-101500000D03*
X152600000Y-101000000D03*
X152600000Y-100500000D03*
X152600000Y-100000000D03*
X152600000Y-99500000D03*
X152600000Y-99000000D03*
X152600000Y-98500000D03*
X152600000Y-98000000D03*
X150800000Y-98000000D03*
X150800000Y-98500000D03*
X150800000Y-99000000D03*
X150800000Y-99500000D03*
X150800000Y-100000000D03*
X150800000Y-100500000D03*
X150800000Y-101000000D03*
X150800000Y-101500000D03*
%TD*%
D15*
%TO.C,U1*%
X121295000Y-128175000D03*
X122565000Y-128175000D03*
X123835000Y-128175000D03*
X125105000Y-128175000D03*
X125105000Y-123225000D03*
X123835000Y-123225000D03*
X122565000Y-123225000D03*
X121295000Y-123225000D03*
%TD*%
D12*
%TO.C,R2*%
X124090000Y-118800000D03*
X125110000Y-118800000D03*
%TD*%
D10*
%TO.C,RN7*%
X165200000Y-110550000D03*
X165200000Y-110050000D03*
X165200000Y-109550000D03*
X165200000Y-109050000D03*
X165200000Y-108550000D03*
X165200000Y-108050000D03*
X165200000Y-107550000D03*
X165200000Y-107050000D03*
X163400000Y-107050000D03*
X163400000Y-107550000D03*
X163400000Y-108050000D03*
X163400000Y-108550000D03*
X163400000Y-109050000D03*
X163400000Y-109550000D03*
X163400000Y-110050000D03*
X163400000Y-110550000D03*
%TD*%
%TO.C,RN5*%
X165200000Y-106050000D03*
X165200000Y-105550000D03*
X165200000Y-105050000D03*
X165200000Y-104550000D03*
X165200000Y-104050000D03*
X165200000Y-103550000D03*
X165200000Y-103050000D03*
X165200000Y-102550000D03*
X163400000Y-102550000D03*
X163400000Y-103050000D03*
X163400000Y-103550000D03*
X163400000Y-104050000D03*
X163400000Y-104550000D03*
X163400000Y-105050000D03*
X163400000Y-105550000D03*
X163400000Y-106050000D03*
%TD*%
%TO.C,RN6*%
X165200000Y-97000000D03*
X165200000Y-96500000D03*
X165200000Y-96000000D03*
X165200000Y-95500000D03*
X165200000Y-95000000D03*
X165200000Y-94500000D03*
X165200000Y-94000000D03*
X165200000Y-93500000D03*
X163400000Y-93500000D03*
X163400000Y-94000000D03*
X163400000Y-94500000D03*
X163400000Y-95000000D03*
X163400000Y-95500000D03*
X163400000Y-96000000D03*
X163400000Y-96500000D03*
X163400000Y-97000000D03*
%TD*%
%TO.C,RN4*%
X152600000Y-97000000D03*
X152600000Y-96500000D03*
X152600000Y-96000000D03*
X152600000Y-95500000D03*
X152600000Y-95000000D03*
X152600000Y-94500000D03*
X152600000Y-94000000D03*
X152600000Y-93500000D03*
X150800000Y-93500000D03*
X150800000Y-94000000D03*
X150800000Y-94500000D03*
X150800000Y-95000000D03*
X150800000Y-95500000D03*
X150800000Y-96000000D03*
X150800000Y-96500000D03*
X150800000Y-97000000D03*
%TD*%
D16*
%TO.C,C1*%
X119700000Y-125220000D03*
X119700000Y-126180000D03*
%TD*%
D10*
%TO.C,RN1*%
X152600000Y-110500000D03*
X152600000Y-110000000D03*
X152600000Y-109500000D03*
X152600000Y-109000000D03*
X152600000Y-108500000D03*
X152600000Y-108000000D03*
X152600000Y-107500000D03*
X152600000Y-107000000D03*
X150800000Y-107000000D03*
X150800000Y-107500000D03*
X150800000Y-108000000D03*
X150800000Y-108500000D03*
X150800000Y-109000000D03*
X150800000Y-109500000D03*
X150800000Y-110000000D03*
X150800000Y-110500000D03*
%TD*%
M02*
