%TF.GenerationSoftware,KiCad,Pcbnew,9.0.2*%
%TF.CreationDate,2025-07-03T13:43:00-04:00*%
%TF.ProjectId,ephys-test-module-64,65706879-732d-4746-9573-742d6d6f6475,B*%
%TF.SameCoordinates,Original*%
%TF.FileFunction,Legend,Top*%
%TF.FilePolarity,Positive*%
%FSLAX46Y46*%
G04 Gerber Fmt 4.6, Leading zero omitted, Abs format (unit mm)*
G04 Created by KiCad (PCBNEW 9.0.2) date 2025-07-03 13:43:00*
%MOMM*%
%LPD*%
G01*
G04 APERTURE LIST*
%ADD10C,0.150000*%
%ADD11C,0.200000*%
%ADD12C,0.300000*%
%ADD13C,0.120000*%
%ADD14C,0.100000*%
G04 APERTURE END LIST*
D10*
X166000000Y-102000000D02*
G75*
G02*
X148000000Y-102000000I-9000000J0D01*
G01*
X148000000Y-102000000D02*
G75*
G02*
X166000000Y-102000000I9000000J0D01*
G01*
X164553990Y-100642856D02*
X164553990Y-100309523D01*
X164030180Y-100309523D02*
X165030180Y-100309523D01*
X165030180Y-100309523D02*
X165030180Y-100785713D01*
X164030180Y-101166666D02*
X164696847Y-101166666D01*
X164506371Y-101166666D02*
X164601609Y-101214285D01*
X164601609Y-101214285D02*
X164649228Y-101261904D01*
X164649228Y-101261904D02*
X164696847Y-101357142D01*
X164696847Y-101357142D02*
X164696847Y-101452380D01*
X164030180Y-101928571D02*
X164077800Y-101833333D01*
X164077800Y-101833333D02*
X164125419Y-101785714D01*
X164125419Y-101785714D02*
X164220657Y-101738095D01*
X164220657Y-101738095D02*
X164506371Y-101738095D01*
X164506371Y-101738095D02*
X164601609Y-101785714D01*
X164601609Y-101785714D02*
X164649228Y-101833333D01*
X164649228Y-101833333D02*
X164696847Y-101928571D01*
X164696847Y-101928571D02*
X164696847Y-102071428D01*
X164696847Y-102071428D02*
X164649228Y-102166666D01*
X164649228Y-102166666D02*
X164601609Y-102214285D01*
X164601609Y-102214285D02*
X164506371Y-102261904D01*
X164506371Y-102261904D02*
X164220657Y-102261904D01*
X164220657Y-102261904D02*
X164125419Y-102214285D01*
X164125419Y-102214285D02*
X164077800Y-102166666D01*
X164077800Y-102166666D02*
X164030180Y-102071428D01*
X164030180Y-102071428D02*
X164030180Y-101928571D01*
X164696847Y-102690476D02*
X164030180Y-102690476D01*
X164601609Y-102690476D02*
X164649228Y-102738095D01*
X164649228Y-102738095D02*
X164696847Y-102833333D01*
X164696847Y-102833333D02*
X164696847Y-102976190D01*
X164696847Y-102976190D02*
X164649228Y-103071428D01*
X164649228Y-103071428D02*
X164553990Y-103119047D01*
X164553990Y-103119047D02*
X164030180Y-103119047D01*
X164696847Y-103452381D02*
X164696847Y-103833333D01*
X165030180Y-103595238D02*
X164173038Y-103595238D01*
X164173038Y-103595238D02*
X164077800Y-103642857D01*
X164077800Y-103642857D02*
X164030180Y-103738095D01*
X164030180Y-103738095D02*
X164030180Y-103833333D01*
D11*
X152009524Y-119352909D02*
X151885714Y-119291004D01*
X151885714Y-119291004D02*
X151700000Y-119291004D01*
X151700000Y-119291004D02*
X151514286Y-119352909D01*
X151514286Y-119352909D02*
X151390476Y-119476719D01*
X151390476Y-119476719D02*
X151328571Y-119600528D01*
X151328571Y-119600528D02*
X151266667Y-119848147D01*
X151266667Y-119848147D02*
X151266667Y-120033861D01*
X151266667Y-120033861D02*
X151328571Y-120281480D01*
X151328571Y-120281480D02*
X151390476Y-120405290D01*
X151390476Y-120405290D02*
X151514286Y-120529100D01*
X151514286Y-120529100D02*
X151700000Y-120591004D01*
X151700000Y-120591004D02*
X151823809Y-120591004D01*
X151823809Y-120591004D02*
X152009524Y-120529100D01*
X152009524Y-120529100D02*
X152071428Y-120467195D01*
X152071428Y-120467195D02*
X152071428Y-120033861D01*
X152071428Y-120033861D02*
X151823809Y-120033861D01*
X152628571Y-120591004D02*
X152628571Y-119291004D01*
X152628571Y-119291004D02*
X153371428Y-120591004D01*
X153371428Y-120591004D02*
X153371428Y-119291004D01*
X153990476Y-120591004D02*
X153990476Y-119291004D01*
X153990476Y-119291004D02*
X154300000Y-119291004D01*
X154300000Y-119291004D02*
X154485714Y-119352909D01*
X154485714Y-119352909D02*
X154609524Y-119476719D01*
X154609524Y-119476719D02*
X154671429Y-119600528D01*
X154671429Y-119600528D02*
X154733333Y-119848147D01*
X154733333Y-119848147D02*
X154733333Y-120033861D01*
X154733333Y-120033861D02*
X154671429Y-120281480D01*
X154671429Y-120281480D02*
X154609524Y-120405290D01*
X154609524Y-120405290D02*
X154485714Y-120529100D01*
X154485714Y-120529100D02*
X154300000Y-120591004D01*
X154300000Y-120591004D02*
X153990476Y-120591004D01*
D10*
X149853990Y-100785714D02*
X149806371Y-100928571D01*
X149806371Y-100928571D02*
X149758752Y-100976190D01*
X149758752Y-100976190D02*
X149663514Y-101023809D01*
X149663514Y-101023809D02*
X149520657Y-101023809D01*
X149520657Y-101023809D02*
X149425419Y-100976190D01*
X149425419Y-100976190D02*
X149377800Y-100928571D01*
X149377800Y-100928571D02*
X149330180Y-100833333D01*
X149330180Y-100833333D02*
X149330180Y-100452381D01*
X149330180Y-100452381D02*
X150330180Y-100452381D01*
X150330180Y-100452381D02*
X150330180Y-100785714D01*
X150330180Y-100785714D02*
X150282561Y-100880952D01*
X150282561Y-100880952D02*
X150234942Y-100928571D01*
X150234942Y-100928571D02*
X150139704Y-100976190D01*
X150139704Y-100976190D02*
X150044466Y-100976190D01*
X150044466Y-100976190D02*
X149949228Y-100928571D01*
X149949228Y-100928571D02*
X149901609Y-100880952D01*
X149901609Y-100880952D02*
X149853990Y-100785714D01*
X149853990Y-100785714D02*
X149853990Y-100452381D01*
X149330180Y-101880952D02*
X149853990Y-101880952D01*
X149853990Y-101880952D02*
X149949228Y-101833333D01*
X149949228Y-101833333D02*
X149996847Y-101738095D01*
X149996847Y-101738095D02*
X149996847Y-101547619D01*
X149996847Y-101547619D02*
X149949228Y-101452381D01*
X149377800Y-101880952D02*
X149330180Y-101785714D01*
X149330180Y-101785714D02*
X149330180Y-101547619D01*
X149330180Y-101547619D02*
X149377800Y-101452381D01*
X149377800Y-101452381D02*
X149473038Y-101404762D01*
X149473038Y-101404762D02*
X149568276Y-101404762D01*
X149568276Y-101404762D02*
X149663514Y-101452381D01*
X149663514Y-101452381D02*
X149711133Y-101547619D01*
X149711133Y-101547619D02*
X149711133Y-101785714D01*
X149711133Y-101785714D02*
X149758752Y-101880952D01*
X149377800Y-102785714D02*
X149330180Y-102690476D01*
X149330180Y-102690476D02*
X149330180Y-102500000D01*
X149330180Y-102500000D02*
X149377800Y-102404762D01*
X149377800Y-102404762D02*
X149425419Y-102357143D01*
X149425419Y-102357143D02*
X149520657Y-102309524D01*
X149520657Y-102309524D02*
X149806371Y-102309524D01*
X149806371Y-102309524D02*
X149901609Y-102357143D01*
X149901609Y-102357143D02*
X149949228Y-102404762D01*
X149949228Y-102404762D02*
X149996847Y-102500000D01*
X149996847Y-102500000D02*
X149996847Y-102690476D01*
X149996847Y-102690476D02*
X149949228Y-102785714D01*
X149330180Y-103214286D02*
X150330180Y-103214286D01*
X149711133Y-103309524D02*
X149330180Y-103595238D01*
X149996847Y-103595238D02*
X149615895Y-103214286D01*
D11*
X167257142Y-120591004D02*
X166823809Y-119971957D01*
X166514285Y-120591004D02*
X166514285Y-119291004D01*
X166514285Y-119291004D02*
X167009523Y-119291004D01*
X167009523Y-119291004D02*
X167133333Y-119352909D01*
X167133333Y-119352909D02*
X167195238Y-119414814D01*
X167195238Y-119414814D02*
X167257142Y-119538623D01*
X167257142Y-119538623D02*
X167257142Y-119724338D01*
X167257142Y-119724338D02*
X167195238Y-119848147D01*
X167195238Y-119848147D02*
X167133333Y-119910052D01*
X167133333Y-119910052D02*
X167009523Y-119971957D01*
X167009523Y-119971957D02*
X166514285Y-119971957D01*
X167814285Y-119910052D02*
X168247619Y-119910052D01*
X168433333Y-120591004D02*
X167814285Y-120591004D01*
X167814285Y-120591004D02*
X167814285Y-119291004D01*
X167814285Y-119291004D02*
X168433333Y-119291004D01*
X169423809Y-119910052D02*
X168990475Y-119910052D01*
X168990475Y-120591004D02*
X168990475Y-119291004D01*
X168990475Y-119291004D02*
X169609523Y-119291004D01*
X167257142Y-123091004D02*
X166823809Y-122471957D01*
X166514285Y-123091004D02*
X166514285Y-121791004D01*
X166514285Y-121791004D02*
X167009523Y-121791004D01*
X167009523Y-121791004D02*
X167133333Y-121852909D01*
X167133333Y-121852909D02*
X167195238Y-121914814D01*
X167195238Y-121914814D02*
X167257142Y-122038623D01*
X167257142Y-122038623D02*
X167257142Y-122224338D01*
X167257142Y-122224338D02*
X167195238Y-122348147D01*
X167195238Y-122348147D02*
X167133333Y-122410052D01*
X167133333Y-122410052D02*
X167009523Y-122471957D01*
X167009523Y-122471957D02*
X166514285Y-122471957D01*
X167814285Y-122410052D02*
X168247619Y-122410052D01*
X168433333Y-123091004D02*
X167814285Y-123091004D01*
X167814285Y-123091004D02*
X167814285Y-121791004D01*
X167814285Y-121791004D02*
X168433333Y-121791004D01*
X169423809Y-122410052D02*
X168990475Y-122410052D01*
X168990475Y-123091004D02*
X168990475Y-121791004D01*
X168990475Y-121791004D02*
X169609523Y-121791004D01*
X144255387Y-77930504D02*
X144688720Y-79230504D01*
X144688720Y-79230504D02*
X145122054Y-77930504D01*
X145443959Y-79076980D02*
X145939197Y-79076980D01*
X145344911Y-79374123D02*
X145691578Y-78334123D01*
X145691578Y-78334123D02*
X146038244Y-79374123D01*
X146384912Y-78680790D02*
X146384912Y-79374123D01*
X146384912Y-78779838D02*
X146434435Y-78730314D01*
X146434435Y-78730314D02*
X146533483Y-78680790D01*
X146533483Y-78680790D02*
X146682054Y-78680790D01*
X146682054Y-78680790D02*
X146781102Y-78730314D01*
X146781102Y-78730314D02*
X146830626Y-78829361D01*
X146830626Y-78829361D02*
X146830626Y-79374123D01*
X147474435Y-79374123D02*
X147375387Y-79324600D01*
X147375387Y-79324600D02*
X147325864Y-79275076D01*
X147325864Y-79275076D02*
X147276340Y-79176028D01*
X147276340Y-79176028D02*
X147276340Y-78878885D01*
X147276340Y-78878885D02*
X147325864Y-78779838D01*
X147325864Y-78779838D02*
X147375387Y-78730314D01*
X147375387Y-78730314D02*
X147474435Y-78680790D01*
X147474435Y-78680790D02*
X147623006Y-78680790D01*
X147623006Y-78680790D02*
X147722054Y-78730314D01*
X147722054Y-78730314D02*
X147771578Y-78779838D01*
X147771578Y-78779838D02*
X147821102Y-78878885D01*
X147821102Y-78878885D02*
X147821102Y-79176028D01*
X147821102Y-79176028D02*
X147771578Y-79275076D01*
X147771578Y-79275076D02*
X147722054Y-79324600D01*
X147722054Y-79324600D02*
X147623006Y-79374123D01*
X147623006Y-79374123D02*
X147474435Y-79374123D01*
X148712530Y-79374123D02*
X148712530Y-78334123D01*
X148712530Y-79324600D02*
X148613482Y-79374123D01*
X148613482Y-79374123D02*
X148415387Y-79374123D01*
X148415387Y-79374123D02*
X148316339Y-79324600D01*
X148316339Y-79324600D02*
X148266816Y-79275076D01*
X148266816Y-79275076D02*
X148217292Y-79176028D01*
X148217292Y-79176028D02*
X148217292Y-78878885D01*
X148217292Y-78878885D02*
X148266816Y-78779838D01*
X148266816Y-78779838D02*
X148316339Y-78730314D01*
X148316339Y-78730314D02*
X148415387Y-78680790D01*
X148415387Y-78680790D02*
X148613482Y-78680790D01*
X148613482Y-78680790D02*
X148712530Y-78730314D01*
X149603958Y-79324600D02*
X149504910Y-79374123D01*
X149504910Y-79374123D02*
X149306815Y-79374123D01*
X149306815Y-79374123D02*
X149207768Y-79324600D01*
X149207768Y-79324600D02*
X149158244Y-79225552D01*
X149158244Y-79225552D02*
X149158244Y-78829361D01*
X149158244Y-78829361D02*
X149207768Y-78730314D01*
X149207768Y-78730314D02*
X149306815Y-78680790D01*
X149306815Y-78680790D02*
X149504910Y-78680790D01*
X149504910Y-78680790D02*
X149603958Y-78730314D01*
X149603958Y-78730314D02*
X149653482Y-78829361D01*
X149653482Y-78829361D02*
X149653482Y-78928409D01*
X149653482Y-78928409D02*
X149158244Y-79027457D01*
X167122054Y-134492409D02*
X166998244Y-134430504D01*
X166998244Y-134430504D02*
X166812530Y-134430504D01*
X166812530Y-134430504D02*
X166626816Y-134492409D01*
X166626816Y-134492409D02*
X166503006Y-134616219D01*
X166503006Y-134616219D02*
X166441101Y-134740028D01*
X166441101Y-134740028D02*
X166379197Y-134987647D01*
X166379197Y-134987647D02*
X166379197Y-135173361D01*
X166379197Y-135173361D02*
X166441101Y-135420980D01*
X166441101Y-135420980D02*
X166503006Y-135544790D01*
X166503006Y-135544790D02*
X166626816Y-135668600D01*
X166626816Y-135668600D02*
X166812530Y-135730504D01*
X166812530Y-135730504D02*
X166936339Y-135730504D01*
X166936339Y-135730504D02*
X167122054Y-135668600D01*
X167122054Y-135668600D02*
X167183958Y-135606695D01*
X167183958Y-135606695D02*
X167183958Y-135173361D01*
X167183958Y-135173361D02*
X166936339Y-135173361D01*
X167741101Y-135730504D02*
X167741101Y-134430504D01*
X167741101Y-134430504D02*
X168483958Y-135730504D01*
X168483958Y-135730504D02*
X168483958Y-134430504D01*
X169103006Y-135730504D02*
X169103006Y-134430504D01*
X169103006Y-134430504D02*
X169412530Y-134430504D01*
X169412530Y-134430504D02*
X169598244Y-134492409D01*
X169598244Y-134492409D02*
X169722054Y-134616219D01*
X169722054Y-134616219D02*
X169783959Y-134740028D01*
X169783959Y-134740028D02*
X169845863Y-134987647D01*
X169845863Y-134987647D02*
X169845863Y-135173361D01*
X169845863Y-135173361D02*
X169783959Y-135420980D01*
X169783959Y-135420980D02*
X169722054Y-135544790D01*
X169722054Y-135544790D02*
X169598244Y-135668600D01*
X169598244Y-135668600D02*
X169412530Y-135730504D01*
X169412530Y-135730504D02*
X169103006Y-135730504D01*
X152009524Y-121852909D02*
X151885714Y-121791004D01*
X151885714Y-121791004D02*
X151700000Y-121791004D01*
X151700000Y-121791004D02*
X151514286Y-121852909D01*
X151514286Y-121852909D02*
X151390476Y-121976719D01*
X151390476Y-121976719D02*
X151328571Y-122100528D01*
X151328571Y-122100528D02*
X151266667Y-122348147D01*
X151266667Y-122348147D02*
X151266667Y-122533861D01*
X151266667Y-122533861D02*
X151328571Y-122781480D01*
X151328571Y-122781480D02*
X151390476Y-122905290D01*
X151390476Y-122905290D02*
X151514286Y-123029100D01*
X151514286Y-123029100D02*
X151700000Y-123091004D01*
X151700000Y-123091004D02*
X151823809Y-123091004D01*
X151823809Y-123091004D02*
X152009524Y-123029100D01*
X152009524Y-123029100D02*
X152071428Y-122967195D01*
X152071428Y-122967195D02*
X152071428Y-122533861D01*
X152071428Y-122533861D02*
X151823809Y-122533861D01*
X152628571Y-123091004D02*
X152628571Y-121791004D01*
X152628571Y-121791004D02*
X153371428Y-123091004D01*
X153371428Y-123091004D02*
X153371428Y-121791004D01*
X153990476Y-123091004D02*
X153990476Y-121791004D01*
X153990476Y-121791004D02*
X154300000Y-121791004D01*
X154300000Y-121791004D02*
X154485714Y-121852909D01*
X154485714Y-121852909D02*
X154609524Y-121976719D01*
X154609524Y-121976719D02*
X154671429Y-122100528D01*
X154671429Y-122100528D02*
X154733333Y-122348147D01*
X154733333Y-122348147D02*
X154733333Y-122533861D01*
X154733333Y-122533861D02*
X154671429Y-122781480D01*
X154671429Y-122781480D02*
X154609524Y-122905290D01*
X154609524Y-122905290D02*
X154485714Y-123029100D01*
X154485714Y-123029100D02*
X154300000Y-123091004D01*
X154300000Y-123091004D02*
X153990476Y-123091004D01*
X140833333Y-132337577D02*
X141266666Y-133637577D01*
X141266666Y-133637577D02*
X141700000Y-132337577D01*
X142021905Y-133731673D02*
X142170476Y-133781196D01*
X142170476Y-133781196D02*
X142418095Y-133781196D01*
X142418095Y-133781196D02*
X142517143Y-133731673D01*
X142517143Y-133731673D02*
X142566667Y-133682149D01*
X142566667Y-133682149D02*
X142616190Y-133583101D01*
X142616190Y-133583101D02*
X142616190Y-133484053D01*
X142616190Y-133484053D02*
X142566667Y-133385006D01*
X142566667Y-133385006D02*
X142517143Y-133335482D01*
X142517143Y-133335482D02*
X142418095Y-133285958D01*
X142418095Y-133285958D02*
X142220000Y-133236434D01*
X142220000Y-133236434D02*
X142120952Y-133186911D01*
X142120952Y-133186911D02*
X142071429Y-133137387D01*
X142071429Y-133137387D02*
X142021905Y-133038339D01*
X142021905Y-133038339D02*
X142021905Y-132939292D01*
X142021905Y-132939292D02*
X142071429Y-132840244D01*
X142071429Y-132840244D02*
X142120952Y-132790720D01*
X142120952Y-132790720D02*
X142220000Y-132741196D01*
X142220000Y-132741196D02*
X142467619Y-132741196D01*
X142467619Y-132741196D02*
X142616190Y-132790720D01*
X142913333Y-133087863D02*
X143309524Y-133087863D01*
X143061905Y-132741196D02*
X143061905Y-133632625D01*
X143061905Y-133632625D02*
X143111428Y-133731673D01*
X143111428Y-133731673D02*
X143210476Y-133781196D01*
X143210476Y-133781196D02*
X143309524Y-133781196D01*
X143656191Y-133781196D02*
X143656191Y-133087863D01*
X143656191Y-132741196D02*
X143606667Y-132790720D01*
X143606667Y-132790720D02*
X143656191Y-132840244D01*
X143656191Y-132840244D02*
X143705714Y-132790720D01*
X143705714Y-132790720D02*
X143656191Y-132741196D01*
X143656191Y-132741196D02*
X143656191Y-132840244D01*
X144151429Y-133781196D02*
X144151429Y-133087863D01*
X144151429Y-133186911D02*
X144200952Y-133137387D01*
X144200952Y-133137387D02*
X144300000Y-133087863D01*
X144300000Y-133087863D02*
X144448571Y-133087863D01*
X144448571Y-133087863D02*
X144547619Y-133137387D01*
X144547619Y-133137387D02*
X144597143Y-133236434D01*
X144597143Y-133236434D02*
X144597143Y-133781196D01*
X144597143Y-133236434D02*
X144646667Y-133137387D01*
X144646667Y-133137387D02*
X144745714Y-133087863D01*
X144745714Y-133087863D02*
X144894286Y-133087863D01*
X144894286Y-133087863D02*
X144993333Y-133137387D01*
X144993333Y-133137387D02*
X145042857Y-133236434D01*
X145042857Y-133236434D02*
X145042857Y-133781196D01*
X137088095Y-136225742D02*
X137026190Y-136163838D01*
X137026190Y-136163838D02*
X136902381Y-135978123D01*
X136902381Y-135978123D02*
X136840476Y-135854314D01*
X136840476Y-135854314D02*
X136778571Y-135668600D01*
X136778571Y-135668600D02*
X136716666Y-135359076D01*
X136716666Y-135359076D02*
X136716666Y-135111457D01*
X136716666Y-135111457D02*
X136778571Y-134801933D01*
X136778571Y-134801933D02*
X136840476Y-134616219D01*
X136840476Y-134616219D02*
X136902381Y-134492409D01*
X136902381Y-134492409D02*
X137026190Y-134306695D01*
X137026190Y-134306695D02*
X137088095Y-134244790D01*
X137583333Y-135730504D02*
X137583333Y-134430504D01*
X138090953Y-135824600D02*
X138239524Y-135874123D01*
X138239524Y-135874123D02*
X138487143Y-135874123D01*
X138487143Y-135874123D02*
X138586191Y-135824600D01*
X138586191Y-135824600D02*
X138635715Y-135775076D01*
X138635715Y-135775076D02*
X138685238Y-135676028D01*
X138685238Y-135676028D02*
X138685238Y-135576980D01*
X138685238Y-135576980D02*
X138635715Y-135477933D01*
X138635715Y-135477933D02*
X138586191Y-135428409D01*
X138586191Y-135428409D02*
X138487143Y-135378885D01*
X138487143Y-135378885D02*
X138289048Y-135329361D01*
X138289048Y-135329361D02*
X138190000Y-135279838D01*
X138190000Y-135279838D02*
X138140477Y-135230314D01*
X138140477Y-135230314D02*
X138090953Y-135131266D01*
X138090953Y-135131266D02*
X138090953Y-135032219D01*
X138090953Y-135032219D02*
X138140477Y-134933171D01*
X138140477Y-134933171D02*
X138190000Y-134883647D01*
X138190000Y-134883647D02*
X138289048Y-134834123D01*
X138289048Y-134834123D02*
X138536667Y-134834123D01*
X138536667Y-134834123D02*
X138685238Y-134883647D01*
X138982381Y-135180790D02*
X139378572Y-135180790D01*
X139130953Y-134834123D02*
X139130953Y-135725552D01*
X139130953Y-135725552D02*
X139180476Y-135824600D01*
X139180476Y-135824600D02*
X139279524Y-135874123D01*
X139279524Y-135874123D02*
X139378572Y-135874123D01*
X139725239Y-135874123D02*
X139725239Y-135180790D01*
X139725239Y-134834123D02*
X139675715Y-134883647D01*
X139675715Y-134883647D02*
X139725239Y-134933171D01*
X139725239Y-134933171D02*
X139774762Y-134883647D01*
X139774762Y-134883647D02*
X139725239Y-134834123D01*
X139725239Y-134834123D02*
X139725239Y-134933171D01*
X140220477Y-135874123D02*
X140220477Y-135180790D01*
X140220477Y-135279838D02*
X140270000Y-135230314D01*
X140270000Y-135230314D02*
X140369048Y-135180790D01*
X140369048Y-135180790D02*
X140517619Y-135180790D01*
X140517619Y-135180790D02*
X140616667Y-135230314D01*
X140616667Y-135230314D02*
X140666191Y-135329361D01*
X140666191Y-135329361D02*
X140666191Y-135874123D01*
X140666191Y-135329361D02*
X140715715Y-135230314D01*
X140715715Y-135230314D02*
X140814762Y-135180790D01*
X140814762Y-135180790D02*
X140963334Y-135180790D01*
X140963334Y-135180790D02*
X141062381Y-135230314D01*
X141062381Y-135230314D02*
X141111905Y-135329361D01*
X141111905Y-135329361D02*
X141111905Y-135874123D01*
X142783334Y-134863838D02*
X143526191Y-135606695D01*
X143526191Y-134863838D02*
X142783334Y-135606695D01*
X145940477Y-135730504D02*
X145197620Y-135730504D01*
X145569048Y-135730504D02*
X145569048Y-134430504D01*
X145569048Y-134430504D02*
X145445239Y-134616219D01*
X145445239Y-134616219D02*
X145321429Y-134740028D01*
X145321429Y-134740028D02*
X145197620Y-134801933D01*
X146497619Y-135730504D02*
X146497619Y-134430504D01*
X146621429Y-135235266D02*
X146992857Y-135730504D01*
X146992857Y-134863838D02*
X146497619Y-135359076D01*
X147488096Y-135730504D02*
X147797619Y-135730504D01*
X147797619Y-135730504D02*
X147797619Y-135482885D01*
X147797619Y-135482885D02*
X147673810Y-135420980D01*
X147673810Y-135420980D02*
X147550000Y-135297171D01*
X147550000Y-135297171D02*
X147488096Y-135111457D01*
X147488096Y-135111457D02*
X147488096Y-134801933D01*
X147488096Y-134801933D02*
X147550000Y-134616219D01*
X147550000Y-134616219D02*
X147673810Y-134492409D01*
X147673810Y-134492409D02*
X147859524Y-134430504D01*
X147859524Y-134430504D02*
X148107143Y-134430504D01*
X148107143Y-134430504D02*
X148292857Y-134492409D01*
X148292857Y-134492409D02*
X148416667Y-134616219D01*
X148416667Y-134616219D02*
X148478572Y-134801933D01*
X148478572Y-134801933D02*
X148478572Y-135111457D01*
X148478572Y-135111457D02*
X148416667Y-135297171D01*
X148416667Y-135297171D02*
X148292857Y-135420980D01*
X148292857Y-135420980D02*
X148169048Y-135482885D01*
X148169048Y-135482885D02*
X148169048Y-135730504D01*
X148169048Y-135730504D02*
X148478572Y-135730504D01*
X148911905Y-136225742D02*
X148973810Y-136163838D01*
X148973810Y-136163838D02*
X149097619Y-135978123D01*
X149097619Y-135978123D02*
X149159524Y-135854314D01*
X149159524Y-135854314D02*
X149221429Y-135668600D01*
X149221429Y-135668600D02*
X149283333Y-135359076D01*
X149283333Y-135359076D02*
X149283333Y-135111457D01*
X149283333Y-135111457D02*
X149221429Y-134801933D01*
X149221429Y-134801933D02*
X149159524Y-134616219D01*
X149159524Y-134616219D02*
X149097619Y-134492409D01*
X149097619Y-134492409D02*
X148973810Y-134306695D01*
X148973810Y-134306695D02*
X148911905Y-134244790D01*
X167622054Y-78092409D02*
X167498244Y-78030504D01*
X167498244Y-78030504D02*
X167312530Y-78030504D01*
X167312530Y-78030504D02*
X167126816Y-78092409D01*
X167126816Y-78092409D02*
X167003006Y-78216219D01*
X167003006Y-78216219D02*
X166941101Y-78340028D01*
X166941101Y-78340028D02*
X166879197Y-78587647D01*
X166879197Y-78587647D02*
X166879197Y-78773361D01*
X166879197Y-78773361D02*
X166941101Y-79020980D01*
X166941101Y-79020980D02*
X167003006Y-79144790D01*
X167003006Y-79144790D02*
X167126816Y-79268600D01*
X167126816Y-79268600D02*
X167312530Y-79330504D01*
X167312530Y-79330504D02*
X167436339Y-79330504D01*
X167436339Y-79330504D02*
X167622054Y-79268600D01*
X167622054Y-79268600D02*
X167683958Y-79206695D01*
X167683958Y-79206695D02*
X167683958Y-78773361D01*
X167683958Y-78773361D02*
X167436339Y-78773361D01*
X168241101Y-79330504D02*
X168241101Y-78030504D01*
X168241101Y-78030504D02*
X168983958Y-79330504D01*
X168983958Y-79330504D02*
X168983958Y-78030504D01*
X169603006Y-79330504D02*
X169603006Y-78030504D01*
X169603006Y-78030504D02*
X169912530Y-78030504D01*
X169912530Y-78030504D02*
X170098244Y-78092409D01*
X170098244Y-78092409D02*
X170222054Y-78216219D01*
X170222054Y-78216219D02*
X170283959Y-78340028D01*
X170283959Y-78340028D02*
X170345863Y-78587647D01*
X170345863Y-78587647D02*
X170345863Y-78773361D01*
X170345863Y-78773361D02*
X170283959Y-79020980D01*
X170283959Y-79020980D02*
X170222054Y-79144790D01*
X170222054Y-79144790D02*
X170098244Y-79268600D01*
X170098244Y-79268600D02*
X169912530Y-79330504D01*
X169912530Y-79330504D02*
X169603006Y-79330504D01*
D12*
X112602129Y-81843472D02*
X113168796Y-81843472D01*
X113411653Y-82733948D02*
X112602129Y-82733948D01*
X112602129Y-82733948D02*
X112602129Y-81033948D01*
X112602129Y-81033948D02*
X113411653Y-81033948D01*
X114140224Y-81600615D02*
X114140224Y-83300615D01*
X114140224Y-81681567D02*
X114302129Y-81600615D01*
X114302129Y-81600615D02*
X114625939Y-81600615D01*
X114625939Y-81600615D02*
X114787843Y-81681567D01*
X114787843Y-81681567D02*
X114868796Y-81762519D01*
X114868796Y-81762519D02*
X114949748Y-81924424D01*
X114949748Y-81924424D02*
X114949748Y-82410138D01*
X114949748Y-82410138D02*
X114868796Y-82572043D01*
X114868796Y-82572043D02*
X114787843Y-82652996D01*
X114787843Y-82652996D02*
X114625939Y-82733948D01*
X114625939Y-82733948D02*
X114302129Y-82733948D01*
X114302129Y-82733948D02*
X114140224Y-82652996D01*
X115678319Y-82733948D02*
X115678319Y-81033948D01*
X116406891Y-82733948D02*
X116406891Y-81843472D01*
X116406891Y-81843472D02*
X116325938Y-81681567D01*
X116325938Y-81681567D02*
X116164034Y-81600615D01*
X116164034Y-81600615D02*
X115921177Y-81600615D01*
X115921177Y-81600615D02*
X115759272Y-81681567D01*
X115759272Y-81681567D02*
X115678319Y-81762519D01*
X117054510Y-81600615D02*
X117459272Y-82733948D01*
X117864033Y-81600615D02*
X117459272Y-82733948D01*
X117459272Y-82733948D02*
X117297367Y-83138710D01*
X117297367Y-83138710D02*
X117216414Y-83219662D01*
X117216414Y-83219662D02*
X117054510Y-83300615D01*
X118430700Y-82652996D02*
X118592605Y-82733948D01*
X118592605Y-82733948D02*
X118916414Y-82733948D01*
X118916414Y-82733948D02*
X119078319Y-82652996D01*
X119078319Y-82652996D02*
X119159271Y-82491091D01*
X119159271Y-82491091D02*
X119159271Y-82410138D01*
X119159271Y-82410138D02*
X119078319Y-82248234D01*
X119078319Y-82248234D02*
X118916414Y-82167281D01*
X118916414Y-82167281D02*
X118673557Y-82167281D01*
X118673557Y-82167281D02*
X118511652Y-82086329D01*
X118511652Y-82086329D02*
X118430700Y-81924424D01*
X118430700Y-81924424D02*
X118430700Y-81843472D01*
X118430700Y-81843472D02*
X118511652Y-81681567D01*
X118511652Y-81681567D02*
X118673557Y-81600615D01*
X118673557Y-81600615D02*
X118916414Y-81600615D01*
X118916414Y-81600615D02*
X119078319Y-81681567D01*
X120940223Y-81033948D02*
X121911652Y-81033948D01*
X121425938Y-82733948D02*
X121425938Y-81033948D01*
X123125937Y-82652996D02*
X122964033Y-82733948D01*
X122964033Y-82733948D02*
X122640223Y-82733948D01*
X122640223Y-82733948D02*
X122478318Y-82652996D01*
X122478318Y-82652996D02*
X122397366Y-82491091D01*
X122397366Y-82491091D02*
X122397366Y-81843472D01*
X122397366Y-81843472D02*
X122478318Y-81681567D01*
X122478318Y-81681567D02*
X122640223Y-81600615D01*
X122640223Y-81600615D02*
X122964033Y-81600615D01*
X122964033Y-81600615D02*
X123125937Y-81681567D01*
X123125937Y-81681567D02*
X123206890Y-81843472D01*
X123206890Y-81843472D02*
X123206890Y-82005376D01*
X123206890Y-82005376D02*
X122397366Y-82167281D01*
X123854509Y-82652996D02*
X124016414Y-82733948D01*
X124016414Y-82733948D02*
X124340223Y-82733948D01*
X124340223Y-82733948D02*
X124502128Y-82652996D01*
X124502128Y-82652996D02*
X124583080Y-82491091D01*
X124583080Y-82491091D02*
X124583080Y-82410138D01*
X124583080Y-82410138D02*
X124502128Y-82248234D01*
X124502128Y-82248234D02*
X124340223Y-82167281D01*
X124340223Y-82167281D02*
X124097366Y-82167281D01*
X124097366Y-82167281D02*
X123935461Y-82086329D01*
X123935461Y-82086329D02*
X123854509Y-81924424D01*
X123854509Y-81924424D02*
X123854509Y-81843472D01*
X123854509Y-81843472D02*
X123935461Y-81681567D01*
X123935461Y-81681567D02*
X124097366Y-81600615D01*
X124097366Y-81600615D02*
X124340223Y-81600615D01*
X124340223Y-81600615D02*
X124502128Y-81681567D01*
X125068794Y-81600615D02*
X125716413Y-81600615D01*
X125311651Y-81033948D02*
X125311651Y-82491091D01*
X125311651Y-82491091D02*
X125392604Y-82652996D01*
X125392604Y-82652996D02*
X125554509Y-82733948D01*
X125554509Y-82733948D02*
X125716413Y-82733948D01*
X127578318Y-82733948D02*
X127578318Y-81033948D01*
X127578318Y-81033948D02*
X128144985Y-82248234D01*
X128144985Y-82248234D02*
X128711652Y-81033948D01*
X128711652Y-81033948D02*
X128711652Y-82733948D01*
X129764033Y-82733948D02*
X129602128Y-82652996D01*
X129602128Y-82652996D02*
X129521175Y-82572043D01*
X129521175Y-82572043D02*
X129440223Y-82410138D01*
X129440223Y-82410138D02*
X129440223Y-81924424D01*
X129440223Y-81924424D02*
X129521175Y-81762519D01*
X129521175Y-81762519D02*
X129602128Y-81681567D01*
X129602128Y-81681567D02*
X129764033Y-81600615D01*
X129764033Y-81600615D02*
X130006890Y-81600615D01*
X130006890Y-81600615D02*
X130168794Y-81681567D01*
X130168794Y-81681567D02*
X130249747Y-81762519D01*
X130249747Y-81762519D02*
X130330699Y-81924424D01*
X130330699Y-81924424D02*
X130330699Y-82410138D01*
X130330699Y-82410138D02*
X130249747Y-82572043D01*
X130249747Y-82572043D02*
X130168794Y-82652996D01*
X130168794Y-82652996D02*
X130006890Y-82733948D01*
X130006890Y-82733948D02*
X129764033Y-82733948D01*
X131787842Y-82733948D02*
X131787842Y-81033948D01*
X131787842Y-82652996D02*
X131625937Y-82733948D01*
X131625937Y-82733948D02*
X131302128Y-82733948D01*
X131302128Y-82733948D02*
X131140223Y-82652996D01*
X131140223Y-82652996D02*
X131059270Y-82572043D01*
X131059270Y-82572043D02*
X130978318Y-82410138D01*
X130978318Y-82410138D02*
X130978318Y-81924424D01*
X130978318Y-81924424D02*
X131059270Y-81762519D01*
X131059270Y-81762519D02*
X131140223Y-81681567D01*
X131140223Y-81681567D02*
X131302128Y-81600615D01*
X131302128Y-81600615D02*
X131625937Y-81600615D01*
X131625937Y-81600615D02*
X131787842Y-81681567D01*
X133325937Y-81600615D02*
X133325937Y-82733948D01*
X132597365Y-81600615D02*
X132597365Y-82491091D01*
X132597365Y-82491091D02*
X132678318Y-82652996D01*
X132678318Y-82652996D02*
X132840223Y-82733948D01*
X132840223Y-82733948D02*
X133083080Y-82733948D01*
X133083080Y-82733948D02*
X133244984Y-82652996D01*
X133244984Y-82652996D02*
X133325937Y-82572043D01*
X134378318Y-82733948D02*
X134216413Y-82652996D01*
X134216413Y-82652996D02*
X134135460Y-82491091D01*
X134135460Y-82491091D02*
X134135460Y-81033948D01*
X135673555Y-82652996D02*
X135511651Y-82733948D01*
X135511651Y-82733948D02*
X135187841Y-82733948D01*
X135187841Y-82733948D02*
X135025936Y-82652996D01*
X135025936Y-82652996D02*
X134944984Y-82491091D01*
X134944984Y-82491091D02*
X134944984Y-81843472D01*
X134944984Y-81843472D02*
X135025936Y-81681567D01*
X135025936Y-81681567D02*
X135187841Y-81600615D01*
X135187841Y-81600615D02*
X135511651Y-81600615D01*
X135511651Y-81600615D02*
X135673555Y-81681567D01*
X135673555Y-81681567D02*
X135754508Y-81843472D01*
X135754508Y-81843472D02*
X135754508Y-82005376D01*
X135754508Y-82005376D02*
X134944984Y-82167281D01*
X112602129Y-85470853D02*
X112602129Y-83770853D01*
X112602129Y-84580377D02*
X113573558Y-84580377D01*
X113573558Y-85470853D02*
X113573558Y-83770853D01*
X114383081Y-85470853D02*
X114383081Y-84337520D01*
X114383081Y-83770853D02*
X114302129Y-83851805D01*
X114302129Y-83851805D02*
X114383081Y-83932758D01*
X114383081Y-83932758D02*
X114464034Y-83851805D01*
X114464034Y-83851805D02*
X114383081Y-83770853D01*
X114383081Y-83770853D02*
X114383081Y-83932758D01*
X115192605Y-85470853D02*
X115192605Y-84337520D01*
X115192605Y-84661329D02*
X115273558Y-84499424D01*
X115273558Y-84499424D02*
X115354510Y-84418472D01*
X115354510Y-84418472D02*
X115516415Y-84337520D01*
X115516415Y-84337520D02*
X115678320Y-84337520D01*
X116487844Y-85470853D02*
X116325939Y-85389901D01*
X116325939Y-85389901D02*
X116244986Y-85308948D01*
X116244986Y-85308948D02*
X116164034Y-85147043D01*
X116164034Y-85147043D02*
X116164034Y-84661329D01*
X116164034Y-84661329D02*
X116244986Y-84499424D01*
X116244986Y-84499424D02*
X116325939Y-84418472D01*
X116325939Y-84418472D02*
X116487844Y-84337520D01*
X116487844Y-84337520D02*
X116730701Y-84337520D01*
X116730701Y-84337520D02*
X116892605Y-84418472D01*
X116892605Y-84418472D02*
X116973558Y-84499424D01*
X116973558Y-84499424D02*
X117054510Y-84661329D01*
X117054510Y-84661329D02*
X117054510Y-85147043D01*
X117054510Y-85147043D02*
X116973558Y-85308948D01*
X116973558Y-85308948D02*
X116892605Y-85389901D01*
X116892605Y-85389901D02*
X116730701Y-85470853D01*
X116730701Y-85470853D02*
X116487844Y-85470853D01*
X117702129Y-85389901D02*
X117864034Y-85470853D01*
X117864034Y-85470853D02*
X118187843Y-85470853D01*
X118187843Y-85470853D02*
X118349748Y-85389901D01*
X118349748Y-85389901D02*
X118430700Y-85227996D01*
X118430700Y-85227996D02*
X118430700Y-85147043D01*
X118430700Y-85147043D02*
X118349748Y-84985139D01*
X118349748Y-84985139D02*
X118187843Y-84904186D01*
X118187843Y-84904186D02*
X117944986Y-84904186D01*
X117944986Y-84904186D02*
X117783081Y-84823234D01*
X117783081Y-84823234D02*
X117702129Y-84661329D01*
X117702129Y-84661329D02*
X117702129Y-84580377D01*
X117702129Y-84580377D02*
X117783081Y-84418472D01*
X117783081Y-84418472D02*
X117944986Y-84337520D01*
X117944986Y-84337520D02*
X118187843Y-84337520D01*
X118187843Y-84337520D02*
X118349748Y-84418472D01*
X119806890Y-85389901D02*
X119644986Y-85470853D01*
X119644986Y-85470853D02*
X119321176Y-85470853D01*
X119321176Y-85470853D02*
X119159271Y-85389901D01*
X119159271Y-85389901D02*
X119078319Y-85227996D01*
X119078319Y-85227996D02*
X119078319Y-84580377D01*
X119078319Y-84580377D02*
X119159271Y-84418472D01*
X119159271Y-84418472D02*
X119321176Y-84337520D01*
X119321176Y-84337520D02*
X119644986Y-84337520D01*
X119644986Y-84337520D02*
X119806890Y-84418472D01*
X119806890Y-84418472D02*
X119887843Y-84580377D01*
X119887843Y-84580377D02*
X119887843Y-84742281D01*
X119887843Y-84742281D02*
X119078319Y-84904186D01*
X121911652Y-85470853D02*
X121911652Y-83770853D01*
X121911652Y-83770853D02*
X122316414Y-83770853D01*
X122316414Y-83770853D02*
X122559271Y-83851805D01*
X122559271Y-83851805D02*
X122721176Y-84013710D01*
X122721176Y-84013710D02*
X122802129Y-84175615D01*
X122802129Y-84175615D02*
X122883081Y-84499424D01*
X122883081Y-84499424D02*
X122883081Y-84742281D01*
X122883081Y-84742281D02*
X122802129Y-85066091D01*
X122802129Y-85066091D02*
X122721176Y-85227996D01*
X122721176Y-85227996D02*
X122559271Y-85389901D01*
X122559271Y-85389901D02*
X122316414Y-85470853D01*
X122316414Y-85470853D02*
X121911652Y-85470853D01*
X124178319Y-84580377D02*
X123611652Y-84580377D01*
X123611652Y-85470853D02*
X123611652Y-83770853D01*
X123611652Y-83770853D02*
X124421176Y-83770853D01*
X125797367Y-84337520D02*
X125797367Y-85470853D01*
X125392605Y-83689901D02*
X124987843Y-84904186D01*
X124987843Y-84904186D02*
X126040224Y-84904186D01*
X127011653Y-83770853D02*
X127173558Y-83770853D01*
X127173558Y-83770853D02*
X127335462Y-83851805D01*
X127335462Y-83851805D02*
X127416415Y-83932758D01*
X127416415Y-83932758D02*
X127497367Y-84094662D01*
X127497367Y-84094662D02*
X127578320Y-84418472D01*
X127578320Y-84418472D02*
X127578320Y-84823234D01*
X127578320Y-84823234D02*
X127497367Y-85147043D01*
X127497367Y-85147043D02*
X127416415Y-85308948D01*
X127416415Y-85308948D02*
X127335462Y-85389901D01*
X127335462Y-85389901D02*
X127173558Y-85470853D01*
X127173558Y-85470853D02*
X127011653Y-85470853D01*
X127011653Y-85470853D02*
X126849748Y-85389901D01*
X126849748Y-85389901D02*
X126768796Y-85308948D01*
X126768796Y-85308948D02*
X126687843Y-85147043D01*
X126687843Y-85147043D02*
X126606891Y-84823234D01*
X126606891Y-84823234D02*
X126606891Y-84418472D01*
X126606891Y-84418472D02*
X126687843Y-84094662D01*
X126687843Y-84094662D02*
X126768796Y-83932758D01*
X126768796Y-83932758D02*
X126849748Y-83851805D01*
X126849748Y-83851805D02*
X127011653Y-83770853D01*
X130330701Y-83770853D02*
X130006891Y-83770853D01*
X130006891Y-83770853D02*
X129844987Y-83851805D01*
X129844987Y-83851805D02*
X129764034Y-83932758D01*
X129764034Y-83932758D02*
X129602129Y-84175615D01*
X129602129Y-84175615D02*
X129521177Y-84499424D01*
X129521177Y-84499424D02*
X129521177Y-85147043D01*
X129521177Y-85147043D02*
X129602129Y-85308948D01*
X129602129Y-85308948D02*
X129683082Y-85389901D01*
X129683082Y-85389901D02*
X129844987Y-85470853D01*
X129844987Y-85470853D02*
X130168796Y-85470853D01*
X130168796Y-85470853D02*
X130330701Y-85389901D01*
X130330701Y-85389901D02*
X130411653Y-85308948D01*
X130411653Y-85308948D02*
X130492606Y-85147043D01*
X130492606Y-85147043D02*
X130492606Y-84742281D01*
X130492606Y-84742281D02*
X130411653Y-84580377D01*
X130411653Y-84580377D02*
X130330701Y-84499424D01*
X130330701Y-84499424D02*
X130168796Y-84418472D01*
X130168796Y-84418472D02*
X129844987Y-84418472D01*
X129844987Y-84418472D02*
X129683082Y-84499424D01*
X129683082Y-84499424D02*
X129602129Y-84580377D01*
X129602129Y-84580377D02*
X129521177Y-84742281D01*
X131949749Y-84337520D02*
X131949749Y-85470853D01*
X131544987Y-83689901D02*
X131140225Y-84904186D01*
X131140225Y-84904186D02*
X132192606Y-84904186D01*
X135106892Y-85308948D02*
X135025940Y-85389901D01*
X135025940Y-85389901D02*
X134783082Y-85470853D01*
X134783082Y-85470853D02*
X134621178Y-85470853D01*
X134621178Y-85470853D02*
X134378321Y-85389901D01*
X134378321Y-85389901D02*
X134216416Y-85227996D01*
X134216416Y-85227996D02*
X134135463Y-85066091D01*
X134135463Y-85066091D02*
X134054511Y-84742281D01*
X134054511Y-84742281D02*
X134054511Y-84499424D01*
X134054511Y-84499424D02*
X134135463Y-84175615D01*
X134135463Y-84175615D02*
X134216416Y-84013710D01*
X134216416Y-84013710D02*
X134378321Y-83851805D01*
X134378321Y-83851805D02*
X134621178Y-83770853D01*
X134621178Y-83770853D02*
X134783082Y-83770853D01*
X134783082Y-83770853D02*
X135025940Y-83851805D01*
X135025940Y-83851805D02*
X135106892Y-83932758D01*
X135835463Y-85470853D02*
X135835463Y-83770853D01*
X136564035Y-85470853D02*
X136564035Y-84580377D01*
X136564035Y-84580377D02*
X136483082Y-84418472D01*
X136483082Y-84418472D02*
X136321178Y-84337520D01*
X136321178Y-84337520D02*
X136078321Y-84337520D01*
X136078321Y-84337520D02*
X135916416Y-84418472D01*
X135916416Y-84418472D02*
X135835463Y-84499424D01*
X137373558Y-85308948D02*
X137454511Y-85389901D01*
X137454511Y-85389901D02*
X137373558Y-85470853D01*
X137373558Y-85470853D02*
X137292606Y-85389901D01*
X137292606Y-85389901D02*
X137373558Y-85308948D01*
X137373558Y-85308948D02*
X137373558Y-85470853D01*
X113573558Y-88207758D02*
X113006891Y-87398234D01*
X112602129Y-88207758D02*
X112602129Y-86507758D01*
X112602129Y-86507758D02*
X113249748Y-86507758D01*
X113249748Y-86507758D02*
X113411653Y-86588710D01*
X113411653Y-86588710D02*
X113492606Y-86669663D01*
X113492606Y-86669663D02*
X113573558Y-86831567D01*
X113573558Y-86831567D02*
X113573558Y-87074425D01*
X113573558Y-87074425D02*
X113492606Y-87236329D01*
X113492606Y-87236329D02*
X113411653Y-87317282D01*
X113411653Y-87317282D02*
X113249748Y-87398234D01*
X113249748Y-87398234D02*
X112602129Y-87398234D01*
X114949748Y-88126806D02*
X114787844Y-88207758D01*
X114787844Y-88207758D02*
X114464034Y-88207758D01*
X114464034Y-88207758D02*
X114302129Y-88126806D01*
X114302129Y-88126806D02*
X114221177Y-87964901D01*
X114221177Y-87964901D02*
X114221177Y-87317282D01*
X114221177Y-87317282D02*
X114302129Y-87155377D01*
X114302129Y-87155377D02*
X114464034Y-87074425D01*
X114464034Y-87074425D02*
X114787844Y-87074425D01*
X114787844Y-87074425D02*
X114949748Y-87155377D01*
X114949748Y-87155377D02*
X115030701Y-87317282D01*
X115030701Y-87317282D02*
X115030701Y-87479186D01*
X115030701Y-87479186D02*
X114221177Y-87641091D01*
X115597368Y-87074425D02*
X116002130Y-88207758D01*
X116002130Y-88207758D02*
X116406891Y-87074425D01*
X117054510Y-88045853D02*
X117135463Y-88126806D01*
X117135463Y-88126806D02*
X117054510Y-88207758D01*
X117054510Y-88207758D02*
X116973558Y-88126806D01*
X116973558Y-88126806D02*
X117054510Y-88045853D01*
X117054510Y-88045853D02*
X117054510Y-88207758D01*
X119725939Y-87317282D02*
X119968796Y-87398234D01*
X119968796Y-87398234D02*
X120049749Y-87479186D01*
X120049749Y-87479186D02*
X120130701Y-87641091D01*
X120130701Y-87641091D02*
X120130701Y-87883948D01*
X120130701Y-87883948D02*
X120049749Y-88045853D01*
X120049749Y-88045853D02*
X119968796Y-88126806D01*
X119968796Y-88126806D02*
X119806891Y-88207758D01*
X119806891Y-88207758D02*
X119159272Y-88207758D01*
X119159272Y-88207758D02*
X119159272Y-86507758D01*
X119159272Y-86507758D02*
X119725939Y-86507758D01*
X119725939Y-86507758D02*
X119887844Y-86588710D01*
X119887844Y-86588710D02*
X119968796Y-86669663D01*
X119968796Y-86669663D02*
X120049749Y-86831567D01*
X120049749Y-86831567D02*
X120049749Y-86993472D01*
X120049749Y-86993472D02*
X119968796Y-87155377D01*
X119968796Y-87155377D02*
X119887844Y-87236329D01*
X119887844Y-87236329D02*
X119725939Y-87317282D01*
X119725939Y-87317282D02*
X119159272Y-87317282D01*
D10*
X151738095Y-129454819D02*
X152309523Y-129454819D01*
X152023809Y-130454819D02*
X152023809Y-129454819D01*
X152642857Y-130454819D02*
X152642857Y-129454819D01*
X152642857Y-129454819D02*
X153023809Y-129454819D01*
X153023809Y-129454819D02*
X153119047Y-129502438D01*
X153119047Y-129502438D02*
X153166666Y-129550057D01*
X153166666Y-129550057D02*
X153214285Y-129645295D01*
X153214285Y-129645295D02*
X153214285Y-129788152D01*
X153214285Y-129788152D02*
X153166666Y-129883390D01*
X153166666Y-129883390D02*
X153119047Y-129931009D01*
X153119047Y-129931009D02*
X153023809Y-129978628D01*
X153023809Y-129978628D02*
X152642857Y-129978628D01*
X154166666Y-130454819D02*
X153595238Y-130454819D01*
X153880952Y-130454819D02*
X153880952Y-129454819D01*
X153880952Y-129454819D02*
X153785714Y-129597676D01*
X153785714Y-129597676D02*
X153690476Y-129692914D01*
X153690476Y-129692914D02*
X153595238Y-129740533D01*
X161738095Y-129454819D02*
X162309523Y-129454819D01*
X162023809Y-130454819D02*
X162023809Y-129454819D01*
X162642857Y-130454819D02*
X162642857Y-129454819D01*
X162642857Y-129454819D02*
X163023809Y-129454819D01*
X163023809Y-129454819D02*
X163119047Y-129502438D01*
X163119047Y-129502438D02*
X163166666Y-129550057D01*
X163166666Y-129550057D02*
X163214285Y-129645295D01*
X163214285Y-129645295D02*
X163214285Y-129788152D01*
X163214285Y-129788152D02*
X163166666Y-129883390D01*
X163166666Y-129883390D02*
X163119047Y-129931009D01*
X163119047Y-129931009D02*
X163023809Y-129978628D01*
X163023809Y-129978628D02*
X162642857Y-129978628D01*
X163595238Y-129550057D02*
X163642857Y-129502438D01*
X163642857Y-129502438D02*
X163738095Y-129454819D01*
X163738095Y-129454819D02*
X163976190Y-129454819D01*
X163976190Y-129454819D02*
X164071428Y-129502438D01*
X164071428Y-129502438D02*
X164119047Y-129550057D01*
X164119047Y-129550057D02*
X164166666Y-129645295D01*
X164166666Y-129645295D02*
X164166666Y-129740533D01*
X164166666Y-129740533D02*
X164119047Y-129883390D01*
X164119047Y-129883390D02*
X163547619Y-130454819D01*
X163547619Y-130454819D02*
X164166666Y-130454819D01*
X160191666Y-124324819D02*
X160191666Y-125039104D01*
X160191666Y-125039104D02*
X160144047Y-125181961D01*
X160144047Y-125181961D02*
X160048809Y-125277200D01*
X160048809Y-125277200D02*
X159905952Y-125324819D01*
X159905952Y-125324819D02*
X159810714Y-125324819D01*
X161096428Y-124658152D02*
X161096428Y-125324819D01*
X160858333Y-124277200D02*
X160620238Y-124991485D01*
X160620238Y-124991485D02*
X161239285Y-124991485D01*
X120733333Y-120354819D02*
X120400000Y-119878628D01*
X120161905Y-120354819D02*
X120161905Y-119354819D01*
X120161905Y-119354819D02*
X120542857Y-119354819D01*
X120542857Y-119354819D02*
X120638095Y-119402438D01*
X120638095Y-119402438D02*
X120685714Y-119450057D01*
X120685714Y-119450057D02*
X120733333Y-119545295D01*
X120733333Y-119545295D02*
X120733333Y-119688152D01*
X120733333Y-119688152D02*
X120685714Y-119783390D01*
X120685714Y-119783390D02*
X120638095Y-119831009D01*
X120638095Y-119831009D02*
X120542857Y-119878628D01*
X120542857Y-119878628D02*
X120161905Y-119878628D01*
X121066667Y-119354819D02*
X121685714Y-119354819D01*
X121685714Y-119354819D02*
X121352381Y-119735771D01*
X121352381Y-119735771D02*
X121495238Y-119735771D01*
X121495238Y-119735771D02*
X121590476Y-119783390D01*
X121590476Y-119783390D02*
X121638095Y-119831009D01*
X121638095Y-119831009D02*
X121685714Y-119926247D01*
X121685714Y-119926247D02*
X121685714Y-120164342D01*
X121685714Y-120164342D02*
X121638095Y-120259580D01*
X121638095Y-120259580D02*
X121590476Y-120307200D01*
X121590476Y-120307200D02*
X121495238Y-120354819D01*
X121495238Y-120354819D02*
X121209524Y-120354819D01*
X121209524Y-120354819D02*
X121114286Y-120307200D01*
X121114286Y-120307200D02*
X121066667Y-120259580D01*
X165238095Y-82454819D02*
X165809523Y-82454819D01*
X165523809Y-83454819D02*
X165523809Y-82454819D01*
X166142857Y-83454819D02*
X166142857Y-82454819D01*
X166142857Y-82454819D02*
X166523809Y-82454819D01*
X166523809Y-82454819D02*
X166619047Y-82502438D01*
X166619047Y-82502438D02*
X166666666Y-82550057D01*
X166666666Y-82550057D02*
X166714285Y-82645295D01*
X166714285Y-82645295D02*
X166714285Y-82788152D01*
X166714285Y-82788152D02*
X166666666Y-82883390D01*
X166666666Y-82883390D02*
X166619047Y-82931009D01*
X166619047Y-82931009D02*
X166523809Y-82978628D01*
X166523809Y-82978628D02*
X166142857Y-82978628D01*
X167571428Y-82788152D02*
X167571428Y-83454819D01*
X167333333Y-82407200D02*
X167095238Y-83121485D01*
X167095238Y-83121485D02*
X167714285Y-83121485D01*
X153343333Y-113664819D02*
X153010000Y-113188628D01*
X152771905Y-113664819D02*
X152771905Y-112664819D01*
X152771905Y-112664819D02*
X153152857Y-112664819D01*
X153152857Y-112664819D02*
X153248095Y-112712438D01*
X153248095Y-112712438D02*
X153295714Y-112760057D01*
X153295714Y-112760057D02*
X153343333Y-112855295D01*
X153343333Y-112855295D02*
X153343333Y-112998152D01*
X153343333Y-112998152D02*
X153295714Y-113093390D01*
X153295714Y-113093390D02*
X153248095Y-113141009D01*
X153248095Y-113141009D02*
X153152857Y-113188628D01*
X153152857Y-113188628D02*
X152771905Y-113188628D01*
X154200476Y-112998152D02*
X154200476Y-113664819D01*
X153962381Y-112617200D02*
X153724286Y-113331485D01*
X153724286Y-113331485D02*
X154343333Y-113331485D01*
X152233333Y-90054819D02*
X151757143Y-90054819D01*
X151757143Y-90054819D02*
X151757143Y-89054819D01*
X152566667Y-90054819D02*
X152566667Y-89054819D01*
X152566667Y-89054819D02*
X152804762Y-89054819D01*
X152804762Y-89054819D02*
X152947619Y-89102438D01*
X152947619Y-89102438D02*
X153042857Y-89197676D01*
X153042857Y-89197676D02*
X153090476Y-89292914D01*
X153090476Y-89292914D02*
X153138095Y-89483390D01*
X153138095Y-89483390D02*
X153138095Y-89626247D01*
X153138095Y-89626247D02*
X153090476Y-89816723D01*
X153090476Y-89816723D02*
X153042857Y-89911961D01*
X153042857Y-89911961D02*
X152947619Y-90007200D01*
X152947619Y-90007200D02*
X152804762Y-90054819D01*
X152804762Y-90054819D02*
X152566667Y-90054819D01*
X154090476Y-90054819D02*
X153519048Y-90054819D01*
X153804762Y-90054819D02*
X153804762Y-89054819D01*
X153804762Y-89054819D02*
X153709524Y-89197676D01*
X153709524Y-89197676D02*
X153614286Y-89292914D01*
X153614286Y-89292914D02*
X153519048Y-89340533D01*
X160766666Y-108454819D02*
X160766666Y-109169104D01*
X160766666Y-109169104D02*
X160719047Y-109311961D01*
X160719047Y-109311961D02*
X160623809Y-109407200D01*
X160623809Y-109407200D02*
X160480952Y-109454819D01*
X160480952Y-109454819D02*
X160385714Y-109454819D01*
X161766666Y-109454819D02*
X161195238Y-109454819D01*
X161480952Y-109454819D02*
X161480952Y-108454819D01*
X161480952Y-108454819D02*
X161385714Y-108597676D01*
X161385714Y-108597676D02*
X161290476Y-108692914D01*
X161290476Y-108692914D02*
X161195238Y-108740533D01*
X119333333Y-121654819D02*
X119000000Y-121178628D01*
X118761905Y-121654819D02*
X118761905Y-120654819D01*
X118761905Y-120654819D02*
X119142857Y-120654819D01*
X119142857Y-120654819D02*
X119238095Y-120702438D01*
X119238095Y-120702438D02*
X119285714Y-120750057D01*
X119285714Y-120750057D02*
X119333333Y-120845295D01*
X119333333Y-120845295D02*
X119333333Y-120988152D01*
X119333333Y-120988152D02*
X119285714Y-121083390D01*
X119285714Y-121083390D02*
X119238095Y-121131009D01*
X119238095Y-121131009D02*
X119142857Y-121178628D01*
X119142857Y-121178628D02*
X118761905Y-121178628D01*
X120285714Y-121654819D02*
X119714286Y-121654819D01*
X120000000Y-121654819D02*
X120000000Y-120654819D01*
X120000000Y-120654819D02*
X119904762Y-120797676D01*
X119904762Y-120797676D02*
X119809524Y-120892914D01*
X119809524Y-120892914D02*
X119714286Y-120940533D01*
X126054819Y-126461904D02*
X126864342Y-126461904D01*
X126864342Y-126461904D02*
X126959580Y-126414285D01*
X126959580Y-126414285D02*
X127007200Y-126366666D01*
X127007200Y-126366666D02*
X127054819Y-126271428D01*
X127054819Y-126271428D02*
X127054819Y-126080952D01*
X127054819Y-126080952D02*
X127007200Y-125985714D01*
X127007200Y-125985714D02*
X126959580Y-125938095D01*
X126959580Y-125938095D02*
X126864342Y-125890476D01*
X126864342Y-125890476D02*
X126054819Y-125890476D01*
X127054819Y-124890476D02*
X127054819Y-125461904D01*
X127054819Y-125176190D02*
X126054819Y-125176190D01*
X126054819Y-125176190D02*
X126197676Y-125271428D01*
X126197676Y-125271428D02*
X126292914Y-125366666D01*
X126292914Y-125366666D02*
X126340533Y-125461904D01*
X121933333Y-118874819D02*
X121600000Y-118398628D01*
X121361905Y-118874819D02*
X121361905Y-117874819D01*
X121361905Y-117874819D02*
X121742857Y-117874819D01*
X121742857Y-117874819D02*
X121838095Y-117922438D01*
X121838095Y-117922438D02*
X121885714Y-117970057D01*
X121885714Y-117970057D02*
X121933333Y-118065295D01*
X121933333Y-118065295D02*
X121933333Y-118208152D01*
X121933333Y-118208152D02*
X121885714Y-118303390D01*
X121885714Y-118303390D02*
X121838095Y-118351009D01*
X121838095Y-118351009D02*
X121742857Y-118398628D01*
X121742857Y-118398628D02*
X121361905Y-118398628D01*
X122314286Y-117970057D02*
X122361905Y-117922438D01*
X122361905Y-117922438D02*
X122457143Y-117874819D01*
X122457143Y-117874819D02*
X122695238Y-117874819D01*
X122695238Y-117874819D02*
X122790476Y-117922438D01*
X122790476Y-117922438D02*
X122838095Y-117970057D01*
X122838095Y-117970057D02*
X122885714Y-118065295D01*
X122885714Y-118065295D02*
X122885714Y-118160533D01*
X122885714Y-118160533D02*
X122838095Y-118303390D01*
X122838095Y-118303390D02*
X122266667Y-118874819D01*
X122266667Y-118874819D02*
X122885714Y-118874819D01*
X162433333Y-90354819D02*
X161957143Y-90354819D01*
X161957143Y-90354819D02*
X161957143Y-89354819D01*
X162766667Y-90354819D02*
X162766667Y-89354819D01*
X162766667Y-89354819D02*
X163004762Y-89354819D01*
X163004762Y-89354819D02*
X163147619Y-89402438D01*
X163147619Y-89402438D02*
X163242857Y-89497676D01*
X163242857Y-89497676D02*
X163290476Y-89592914D01*
X163290476Y-89592914D02*
X163338095Y-89783390D01*
X163338095Y-89783390D02*
X163338095Y-89926247D01*
X163338095Y-89926247D02*
X163290476Y-90116723D01*
X163290476Y-90116723D02*
X163242857Y-90211961D01*
X163242857Y-90211961D02*
X163147619Y-90307200D01*
X163147619Y-90307200D02*
X163004762Y-90354819D01*
X163004762Y-90354819D02*
X162766667Y-90354819D01*
X163719048Y-89450057D02*
X163766667Y-89402438D01*
X163766667Y-89402438D02*
X163861905Y-89354819D01*
X163861905Y-89354819D02*
X164100000Y-89354819D01*
X164100000Y-89354819D02*
X164195238Y-89402438D01*
X164195238Y-89402438D02*
X164242857Y-89450057D01*
X164242857Y-89450057D02*
X164290476Y-89545295D01*
X164290476Y-89545295D02*
X164290476Y-89640533D01*
X164290476Y-89640533D02*
X164242857Y-89783390D01*
X164242857Y-89783390D02*
X163671429Y-90354819D01*
X163671429Y-90354819D02*
X164290476Y-90354819D01*
X118659580Y-125866666D02*
X118707200Y-125914285D01*
X118707200Y-125914285D02*
X118754819Y-126057142D01*
X118754819Y-126057142D02*
X118754819Y-126152380D01*
X118754819Y-126152380D02*
X118707200Y-126295237D01*
X118707200Y-126295237D02*
X118611961Y-126390475D01*
X118611961Y-126390475D02*
X118516723Y-126438094D01*
X118516723Y-126438094D02*
X118326247Y-126485713D01*
X118326247Y-126485713D02*
X118183390Y-126485713D01*
X118183390Y-126485713D02*
X117992914Y-126438094D01*
X117992914Y-126438094D02*
X117897676Y-126390475D01*
X117897676Y-126390475D02*
X117802438Y-126295237D01*
X117802438Y-126295237D02*
X117754819Y-126152380D01*
X117754819Y-126152380D02*
X117754819Y-126057142D01*
X117754819Y-126057142D02*
X117802438Y-125914285D01*
X117802438Y-125914285D02*
X117850057Y-125866666D01*
X118754819Y-124914285D02*
X118754819Y-125485713D01*
X118754819Y-125199999D02*
X117754819Y-125199999D01*
X117754819Y-125199999D02*
X117897676Y-125295237D01*
X117897676Y-125295237D02*
X117992914Y-125390475D01*
X117992914Y-125390475D02*
X118040533Y-125485713D01*
X155238095Y-82454819D02*
X155809523Y-82454819D01*
X155523809Y-83454819D02*
X155523809Y-82454819D01*
X156142857Y-83454819D02*
X156142857Y-82454819D01*
X156142857Y-82454819D02*
X156523809Y-82454819D01*
X156523809Y-82454819D02*
X156619047Y-82502438D01*
X156619047Y-82502438D02*
X156666666Y-82550057D01*
X156666666Y-82550057D02*
X156714285Y-82645295D01*
X156714285Y-82645295D02*
X156714285Y-82788152D01*
X156714285Y-82788152D02*
X156666666Y-82883390D01*
X156666666Y-82883390D02*
X156619047Y-82931009D01*
X156619047Y-82931009D02*
X156523809Y-82978628D01*
X156523809Y-82978628D02*
X156142857Y-82978628D01*
X157047619Y-82454819D02*
X157666666Y-82454819D01*
X157666666Y-82454819D02*
X157333333Y-82835771D01*
X157333333Y-82835771D02*
X157476190Y-82835771D01*
X157476190Y-82835771D02*
X157571428Y-82883390D01*
X157571428Y-82883390D02*
X157619047Y-82931009D01*
X157619047Y-82931009D02*
X157666666Y-83026247D01*
X157666666Y-83026247D02*
X157666666Y-83264342D01*
X157666666Y-83264342D02*
X157619047Y-83359580D01*
X157619047Y-83359580D02*
X157571428Y-83407200D01*
X157571428Y-83407200D02*
X157476190Y-83454819D01*
X157476190Y-83454819D02*
X157190476Y-83454819D01*
X157190476Y-83454819D02*
X157095238Y-83407200D01*
X157095238Y-83407200D02*
X157047619Y-83359580D01*
D13*
%TO.C,TP1*%
X155700000Y-134000000D02*
G75*
G02*
X150300000Y-134000000I-2700000J0D01*
G01*
X150300000Y-134000000D02*
G75*
G02*
X155700000Y-134000000I2700000J0D01*
G01*
%TO.C,TP2*%
X165700000Y-134000000D02*
G75*
G02*
X160300000Y-134000000I-2700000J0D01*
G01*
X160300000Y-134000000D02*
G75*
G02*
X165700000Y-134000000I2700000J0D01*
G01*
%TO.C,J4*%
X157925000Y-119240000D02*
X157925000Y-118670000D01*
X157925000Y-121780000D02*
X157925000Y-120760000D01*
X157925000Y-123870000D02*
X157925000Y-123300000D01*
X163125000Y-118670000D02*
X157925000Y-118670000D01*
X163125000Y-119240000D02*
X163125000Y-118670000D01*
X163125000Y-121780000D02*
X163125000Y-120760000D01*
X163125000Y-123870000D02*
X157925000Y-123870000D01*
X163125000Y-123870000D02*
X163125000Y-123300000D01*
X164565000Y-123300000D02*
X163125000Y-123300000D01*
%TO.C,R3*%
X123046359Y-119620000D02*
X123353641Y-119620000D01*
X123046359Y-120380000D02*
X123353641Y-120380000D01*
%TO.C,TP4*%
X165700000Y-80000000D02*
G75*
G02*
X160300000Y-80000000I-2700000J0D01*
G01*
X160300000Y-80000000D02*
G75*
G02*
X165700000Y-80000000I2700000J0D01*
G01*
%TO.C,R4*%
X153663641Y-111220000D02*
X153356359Y-111220000D01*
X153663641Y-111980000D02*
X153356359Y-111980000D01*
D14*
%TO.C,LD1*%
X151000000Y-85600000D02*
G75*
G02*
X151000000Y-86400000I2000000J-400000D01*
G01*
X151002787Y-85600000D02*
G75*
G02*
X151002786Y-86400000I-200001J-400000D01*
G01*
%TO.C,J1*%
X156350000Y-93600000D02*
X159650000Y-93600000D01*
X156350000Y-94800000D02*
X156350000Y-93600000D01*
X156350000Y-110400000D02*
X156350000Y-109225000D01*
X159650000Y-93600000D02*
X159650000Y-94800000D01*
X159650000Y-109250000D02*
X159650000Y-110400000D01*
X159650000Y-110450000D02*
X156350000Y-110450000D01*
D13*
%TO.C,R1*%
X121746359Y-120720000D02*
X122053641Y-120720000D01*
X121746359Y-121480000D02*
X122053641Y-121480000D01*
%TO.C,H1*%
D14*
X112600000Y-90400000D02*
X133000000Y-90400000D01*
X133000000Y-98800000D01*
X112600000Y-98800000D01*
X112600000Y-90400000D01*
D13*
%TO.C,U1*%
X120640000Y-125700000D02*
X120640000Y-123750000D01*
X120640000Y-125700000D02*
X120640000Y-127650000D01*
X125760000Y-125700000D02*
X125760000Y-123750000D01*
X125760000Y-125700000D02*
X125760000Y-127650000D01*
X120735000Y-128400000D02*
X120405000Y-128640000D01*
X120405000Y-128160000D01*
X120735000Y-128400000D01*
G36*
X120735000Y-128400000D02*
G01*
X120405000Y-128640000D01*
X120405000Y-128160000D01*
X120735000Y-128400000D01*
G37*
%TO.C,R2*%
X124446359Y-118420000D02*
X124753641Y-118420000D01*
X124446359Y-119180000D02*
X124753641Y-119180000D01*
D14*
%TO.C,LD2*%
X165677230Y-85999999D02*
G75*
G02*
X160317198Y-85999999I-2680016J0D01*
G01*
X160317198Y-85999999D02*
G75*
G02*
X165677230Y-85999999I2680016J0D01*
G01*
D13*
%TO.C,C1*%
X119340000Y-125592164D02*
X119340000Y-125807836D01*
X120060000Y-125592164D02*
X120060000Y-125807836D01*
%TO.C,TP3*%
X155700000Y-80000000D02*
G75*
G02*
X150300000Y-80000000I-2700000J0D01*
G01*
X150300000Y-80000000D02*
G75*
G02*
X155700000Y-80000000I2700000J0D01*
G01*
%TD*%
M02*
