%TF.GenerationSoftware,KiCad,Pcbnew,9.0.6*%
%TF.CreationDate,2026-03-23T09:38:18-04:00*%
%TF.ProjectId,ephys-test-module-64,65706879-732d-4746-9573-742d6d6f6475,F*%
%TF.SameCoordinates,PX66ff300PY82a7440*%
%TF.FileFunction,Paste,Top*%
%TF.FilePolarity,Positive*%
%FSLAX46Y46*%
G04 Gerber Fmt 4.6, Leading zero omitted, Abs format (unit mm)*
G04 Created by KiCad (PCBNEW 9.0.6) date 2026-03-23 09:38:18*
%MOMM*%
%LPD*%
G01*
G04 APERTURE LIST*
G04 Aperture macros list*
%AMRoundRect*
0 Rectangle with rounded corners*
0 $1 Rounding radius*
0 $2 $3 $4 $5 $6 $7 $8 $9 X,Y pos of 4 corners*
0 Add a 4 corners polygon primitive as box body*
4,1,4,$2,$3,$4,$5,$6,$7,$8,$9,$2,$3,0*
0 Add four circle primitives for the rounded corners*
1,1,$1+$1,$2,$3*
1,1,$1+$1,$4,$5*
1,1,$1+$1,$6,$7*
1,1,$1+$1,$8,$9*
0 Add four rect primitives between the rounded corners*
20,1,$1+$1,$2,$3,$4,$5,0*
20,1,$1+$1,$4,$5,$6,$7,0*
20,1,$1+$1,$6,$7,$8,$9,0*
20,1,$1+$1,$8,$9,$2,$3,0*%
G04 Aperture macros list end*
%ADD10R,3.150000X1.000000*%
%ADD11RoundRect,0.135000X-0.135000X-0.185000X0.135000X-0.185000X0.135000X0.185000X-0.135000X0.185000X0*%
%ADD12RoundRect,0.010000X0.340000X-0.090000X0.340000X0.090000X-0.340000X0.090000X-0.340000X-0.090000X0*%
%ADD13RoundRect,0.150000X0.150000X-0.825000X0.150000X0.825000X-0.150000X0.825000X-0.150000X-0.825000X0*%
%ADD14RoundRect,0.140000X-0.170000X0.140000X-0.170000X-0.140000X0.170000X-0.140000X0.170000X0.140000X0*%
G04 APERTURE END LIST*
D10*
%TO.C,J4*%
X82475000Y27814579D03*
X87525000Y27814579D03*
X82475000Y25274579D03*
X87525000Y25274579D03*
X82475000Y22734579D03*
X87525000Y22734579D03*
X82475000Y20194579D03*
X87525000Y20194579D03*
X82475000Y17654579D03*
X87525000Y17654579D03*
%TD*%
D11*
%TO.C,R3*%
X14690000Y17000000D03*
X15710000Y17000000D03*
%TD*%
D12*
%TO.C,J1*%
X48460000Y28200000D03*
X51540000Y28200000D03*
X48460000Y28600000D03*
X51540000Y28600000D03*
X48460000Y29000000D03*
X51540000Y29000000D03*
X48460000Y29400000D03*
X51540000Y29400000D03*
X48460000Y29800000D03*
X51540000Y29800000D03*
X48460000Y30200000D03*
X51540000Y30200000D03*
X48460000Y30600000D03*
X51540000Y30600000D03*
X48460000Y31000000D03*
X51540000Y31000000D03*
X48460000Y31400000D03*
X51540000Y31400000D03*
X48460000Y31800000D03*
X51540000Y31800000D03*
X48460000Y32200000D03*
X51540000Y32200000D03*
X48460000Y32600000D03*
X51540000Y32600000D03*
X48460000Y33000000D03*
X51540000Y33000000D03*
X48460000Y33400000D03*
X51540000Y33400000D03*
X48460000Y33800000D03*
X51540000Y33800000D03*
X48460000Y34200000D03*
X51540000Y34200000D03*
X48460000Y34600000D03*
X51540000Y34600000D03*
X48460000Y35000000D03*
X51540000Y35000000D03*
X48460000Y35400000D03*
X51540000Y35400000D03*
X48460000Y35800000D03*
X51540000Y35800000D03*
X48460000Y36200000D03*
X51540000Y36200000D03*
X48460000Y36600000D03*
X51540000Y36600000D03*
X48460000Y37000000D03*
X51540000Y37000000D03*
X48460000Y37400000D03*
X51540000Y37400000D03*
X48460000Y37800000D03*
X51540000Y37800000D03*
X48460000Y38200000D03*
X51540000Y38200000D03*
X48460000Y38600000D03*
X51540000Y38600000D03*
X48460000Y39000000D03*
X51540000Y39000000D03*
X48460000Y39400000D03*
X51540000Y39400000D03*
X48460000Y39800000D03*
X51540000Y39800000D03*
X48460000Y40200000D03*
X51540000Y40200000D03*
X48460000Y40600000D03*
X51540000Y40600000D03*
X48460000Y41000000D03*
X51540000Y41000000D03*
X48460000Y41400000D03*
X51540000Y41400000D03*
X48460000Y41800000D03*
X51540000Y41800000D03*
%TD*%
D11*
%TO.C,R1*%
X13390000Y15900000D03*
X14410000Y15900000D03*
%TD*%
D13*
%TO.C,U1*%
X13295000Y8825000D03*
X14565000Y8825000D03*
X15835000Y8825000D03*
X17105000Y8825000D03*
X17105000Y13775000D03*
X15835000Y13775000D03*
X14565000Y13775000D03*
X13295000Y13775000D03*
%TD*%
D11*
%TO.C,R2*%
X16090000Y18200000D03*
X17110000Y18200000D03*
%TD*%
D14*
%TO.C,C1*%
X11700000Y11780000D03*
X11700000Y10820000D03*
%TD*%
M02*
