%TF.GenerationSoftware,KiCad,Pcbnew,9.0.6*%
%TF.CreationDate,2026-03-23T09:38:18-04:00*%
%TF.ProjectId,ephys-test-module-64,65706879-732d-4746-9573-742d6d6f6475,F*%
%TF.SameCoordinates,PX66ff300PY82a7440*%
%TF.FileFunction,Soldermask,Top*%
%TF.FilePolarity,Negative*%
%FSLAX46Y46*%
G04 Gerber Fmt 4.6, Leading zero omitted, Abs format (unit mm)*
G04 Created by KiCad (PCBNEW 9.0.6) date 2026-03-23 09:38:18*
%MOMM*%
%LPD*%
G01*
G04 APERTURE LIST*
G04 Aperture macros list*
%AMRoundRect*
0 Rectangle with rounded corners*
0 $1 Rounding radius*
0 $2 $3 $4 $5 $6 $7 $8 $9 X,Y pos of 4 corners*
0 Add a 4 corners polygon primitive as box body*
4,1,4,$2,$3,$4,$5,$6,$7,$8,$9,$2,$3,0*
0 Add four circle primitives for the rounded corners*
1,1,$1+$1,$2,$3*
1,1,$1+$1,$4,$5*
1,1,$1+$1,$6,$7*
1,1,$1+$1,$8,$9*
0 Add four rect primitives between the rounded corners*
20,1,$1+$1,$2,$3,$4,$5,0*
20,1,$1+$1,$4,$5,$6,$7,0*
20,1,$1+$1,$6,$7,$8,$9,0*
20,1,$1+$1,$8,$9,$2,$3,0*%
G04 Aperture macros list end*
%ADD10C,0.000000*%
%ADD11C,3.000000*%
%ADD12R,3.150000X1.000000*%
%ADD13RoundRect,0.135000X-0.135000X-0.185000X0.135000X-0.185000X0.135000X0.185000X-0.135000X0.185000X0*%
%ADD14RoundRect,0.200000X-0.282843X0.000000X0.000000X-0.282843X0.282843X0.000000X0.000000X0.282843X0*%
%ADD15C,0.800000*%
%ADD16RoundRect,0.010000X0.340000X-0.090000X0.340000X0.090000X-0.340000X0.090000X-0.340000X-0.090000X0*%
%ADD17RoundRect,0.150000X0.150000X-0.825000X0.150000X0.825000X-0.150000X0.825000X-0.150000X-0.825000X0*%
%ADD18RoundRect,0.275000X-0.388909X0.000000X0.000000X-0.388909X0.388909X0.000000X0.000000X0.388909X0*%
%ADD19C,1.100000*%
%ADD20RoundRect,0.140000X-0.170000X0.140000X-0.170000X-0.140000X0.170000X-0.140000X0.170000X0.140000X0*%
%ADD21C,1.020000*%
G04 APERTURE END LIST*
%TO.C,J1*%
G36*
X48810000Y41900000D02*
G01*
X48110000Y41900000D01*
X48110000Y41700000D01*
X48810000Y41700000D01*
X48810000Y41900000D01*
G37*
G36*
X48810000Y41500000D02*
G01*
X48110000Y41500000D01*
X48110000Y41300000D01*
X48810000Y41300000D01*
X48810000Y41500000D01*
G37*
G36*
X48810000Y41100000D02*
G01*
X48110000Y41100000D01*
X48110000Y40900000D01*
X48810000Y40900000D01*
X48810000Y41100000D01*
G37*
G36*
X48810000Y40700000D02*
G01*
X48110000Y40700000D01*
X48110000Y40500000D01*
X48810000Y40500000D01*
X48810000Y40700000D01*
G37*
G36*
X48810000Y40300000D02*
G01*
X48110000Y40300000D01*
X48110000Y40100000D01*
X48810000Y40100000D01*
X48810000Y40300000D01*
G37*
G36*
X48810000Y39900000D02*
G01*
X48110000Y39900000D01*
X48110000Y39700000D01*
X48810000Y39700000D01*
X48810000Y39900000D01*
G37*
G36*
X48810000Y39500000D02*
G01*
X48110000Y39500000D01*
X48110000Y39300000D01*
X48810000Y39300000D01*
X48810000Y39500000D01*
G37*
G36*
X48810000Y39100000D02*
G01*
X48110000Y39100000D01*
X48110000Y38900000D01*
X48810000Y38900000D01*
X48810000Y39100000D01*
G37*
G36*
X48810000Y38700000D02*
G01*
X48110000Y38700000D01*
X48110000Y38500000D01*
X48810000Y38500000D01*
X48810000Y38700000D01*
G37*
G36*
X48810000Y38300000D02*
G01*
X48110000Y38300000D01*
X48110000Y38100000D01*
X48810000Y38100000D01*
X48810000Y38300000D01*
G37*
G36*
X48810000Y37900000D02*
G01*
X48110000Y37900000D01*
X48110000Y37700000D01*
X48810000Y37700000D01*
X48810000Y37900000D01*
G37*
G36*
X48810000Y37500000D02*
G01*
X48110000Y37500000D01*
X48110000Y37300000D01*
X48810000Y37300000D01*
X48810000Y37500000D01*
G37*
G36*
X48810000Y37100000D02*
G01*
X48110000Y37100000D01*
X48110000Y36900000D01*
X48810000Y36900000D01*
X48810000Y37100000D01*
G37*
G36*
X48810000Y36700000D02*
G01*
X48110000Y36700000D01*
X48110000Y36500000D01*
X48810000Y36500000D01*
X48810000Y36700000D01*
G37*
G36*
X48810000Y36300000D02*
G01*
X48110000Y36300000D01*
X48110000Y36100000D01*
X48810000Y36100000D01*
X48810000Y36300000D01*
G37*
G36*
X48810000Y35900000D02*
G01*
X48110000Y35900000D01*
X48110000Y35700000D01*
X48810000Y35700000D01*
X48810000Y35900000D01*
G37*
G36*
X48810000Y35500000D02*
G01*
X48110000Y35500000D01*
X48110000Y35300000D01*
X48810000Y35300000D01*
X48810000Y35500000D01*
G37*
G36*
X48810000Y35100000D02*
G01*
X48110000Y35100000D01*
X48110000Y34900000D01*
X48810000Y34900000D01*
X48810000Y35100000D01*
G37*
G36*
X48810000Y34700000D02*
G01*
X48110000Y34700000D01*
X48110000Y34500000D01*
X48810000Y34500000D01*
X48810000Y34700000D01*
G37*
G36*
X48810000Y34300000D02*
G01*
X48110000Y34300000D01*
X48110000Y34100000D01*
X48810000Y34100000D01*
X48810000Y34300000D01*
G37*
G36*
X48810000Y33900000D02*
G01*
X48110000Y33900000D01*
X48110000Y33700000D01*
X48810000Y33700000D01*
X48810000Y33900000D01*
G37*
G36*
X48810000Y33500000D02*
G01*
X48110000Y33500000D01*
X48110000Y33300000D01*
X48810000Y33300000D01*
X48810000Y33500000D01*
G37*
G36*
X48810000Y33100000D02*
G01*
X48110000Y33100000D01*
X48110000Y32900000D01*
X48810000Y32900000D01*
X48810000Y33100000D01*
G37*
G36*
X48810000Y32700000D02*
G01*
X48110000Y32700000D01*
X48110000Y32500000D01*
X48810000Y32500000D01*
X48810000Y32700000D01*
G37*
G36*
X48810000Y32300000D02*
G01*
X48110000Y32300000D01*
X48110000Y32100000D01*
X48810000Y32100000D01*
X48810000Y32300000D01*
G37*
G36*
X48810000Y31900000D02*
G01*
X48110000Y31900000D01*
X48110000Y31700000D01*
X48810000Y31700000D01*
X48810000Y31900000D01*
G37*
G36*
X48810000Y31500000D02*
G01*
X48110000Y31500000D01*
X48110000Y31300000D01*
X48810000Y31300000D01*
X48810000Y31500000D01*
G37*
G36*
X48810000Y31100000D02*
G01*
X48110000Y31100000D01*
X48110000Y30900000D01*
X48810000Y30900000D01*
X48810000Y31100000D01*
G37*
G36*
X48810000Y30700000D02*
G01*
X48110000Y30700000D01*
X48110000Y30500000D01*
X48810000Y30500000D01*
X48810000Y30700000D01*
G37*
G36*
X48810000Y30300000D02*
G01*
X48110000Y30300000D01*
X48110000Y30100000D01*
X48810000Y30100000D01*
X48810000Y30300000D01*
G37*
G36*
X48810000Y29900000D02*
G01*
X48110000Y29900000D01*
X48110000Y29700000D01*
X48810000Y29700000D01*
X48810000Y29900000D01*
G37*
G36*
X48810000Y29500000D02*
G01*
X48110000Y29500000D01*
X48110000Y29300000D01*
X48810000Y29300000D01*
X48810000Y29500000D01*
G37*
G36*
X48810000Y29100000D02*
G01*
X48110000Y29100000D01*
X48110000Y28900000D01*
X48810000Y28900000D01*
X48810000Y29100000D01*
G37*
G36*
X48810000Y28700000D02*
G01*
X48110000Y28700000D01*
X48110000Y28500000D01*
X48810000Y28500000D01*
X48810000Y28700000D01*
G37*
G36*
X51190000Y41700000D02*
G01*
X51890000Y41700000D01*
X51890000Y41900000D01*
X51190000Y41900000D01*
X51190000Y41700000D01*
G37*
G36*
X51190000Y41300000D02*
G01*
X51890000Y41300000D01*
X51890000Y41500000D01*
X51190000Y41500000D01*
X51190000Y41300000D01*
G37*
G36*
X51190000Y40900000D02*
G01*
X51890000Y40900000D01*
X51890000Y41100000D01*
X51190000Y41100000D01*
X51190000Y40900000D01*
G37*
G36*
X51190000Y40500000D02*
G01*
X51890000Y40500000D01*
X51890000Y40700000D01*
X51190000Y40700000D01*
X51190000Y40500000D01*
G37*
G36*
X51190000Y40100000D02*
G01*
X51890000Y40100000D01*
X51890000Y40300000D01*
X51190000Y40300000D01*
X51190000Y40100000D01*
G37*
G36*
X51190000Y39700000D02*
G01*
X51890000Y39700000D01*
X51890000Y39900000D01*
X51190000Y39900000D01*
X51190000Y39700000D01*
G37*
G36*
X51190000Y39300000D02*
G01*
X51890000Y39300000D01*
X51890000Y39500000D01*
X51190000Y39500000D01*
X51190000Y39300000D01*
G37*
G36*
X51190000Y38900000D02*
G01*
X51890000Y38900000D01*
X51890000Y39100000D01*
X51190000Y39100000D01*
X51190000Y38900000D01*
G37*
G36*
X51190000Y38500000D02*
G01*
X51890000Y38500000D01*
X51890000Y38700000D01*
X51190000Y38700000D01*
X51190000Y38500000D01*
G37*
G36*
X51190000Y38100000D02*
G01*
X51890000Y38100000D01*
X51890000Y38300000D01*
X51190000Y38300000D01*
X51190000Y38100000D01*
G37*
G36*
X51190000Y37700000D02*
G01*
X51890000Y37700000D01*
X51890000Y37900000D01*
X51190000Y37900000D01*
X51190000Y37700000D01*
G37*
G36*
X51190000Y37300000D02*
G01*
X51890000Y37300000D01*
X51890000Y37500000D01*
X51190000Y37500000D01*
X51190000Y37300000D01*
G37*
G36*
X51190000Y36900000D02*
G01*
X51890000Y36900000D01*
X51890000Y37100000D01*
X51190000Y37100000D01*
X51190000Y36900000D01*
G37*
G36*
X51190000Y36500000D02*
G01*
X51890000Y36500000D01*
X51890000Y36700000D01*
X51190000Y36700000D01*
X51190000Y36500000D01*
G37*
G36*
X51190000Y36100000D02*
G01*
X51890000Y36100000D01*
X51890000Y36300000D01*
X51190000Y36300000D01*
X51190000Y36100000D01*
G37*
G36*
X51190000Y35700000D02*
G01*
X51890000Y35700000D01*
X51890000Y35900000D01*
X51190000Y35900000D01*
X51190000Y35700000D01*
G37*
G36*
X51190000Y35300000D02*
G01*
X51890000Y35300000D01*
X51890000Y35500000D01*
X51190000Y35500000D01*
X51190000Y35300000D01*
G37*
G36*
X51190000Y34900000D02*
G01*
X51890000Y34900000D01*
X51890000Y35100000D01*
X51190000Y35100000D01*
X51190000Y34900000D01*
G37*
G36*
X51190000Y34500000D02*
G01*
X51890000Y34500000D01*
X51890000Y34700000D01*
X51190000Y34700000D01*
X51190000Y34500000D01*
G37*
G36*
X51190000Y34100000D02*
G01*
X51890000Y34100000D01*
X51890000Y34300000D01*
X51190000Y34300000D01*
X51190000Y34100000D01*
G37*
G36*
X51190000Y33700000D02*
G01*
X51890000Y33700000D01*
X51890000Y33900000D01*
X51190000Y33900000D01*
X51190000Y33700000D01*
G37*
G36*
X51190000Y33300000D02*
G01*
X51890000Y33300000D01*
X51890000Y33500000D01*
X51190000Y33500000D01*
X51190000Y33300000D01*
G37*
G36*
X51190000Y32900000D02*
G01*
X51890000Y32900000D01*
X51890000Y33100000D01*
X51190000Y33100000D01*
X51190000Y32900000D01*
G37*
G36*
X51190000Y32500000D02*
G01*
X51890000Y32500000D01*
X51890000Y32700000D01*
X51190000Y32700000D01*
X51190000Y32500000D01*
G37*
G36*
X51190000Y32100000D02*
G01*
X51890000Y32100000D01*
X51890000Y32300000D01*
X51190000Y32300000D01*
X51190000Y32100000D01*
G37*
G36*
X51190000Y31700000D02*
G01*
X51890000Y31700000D01*
X51890000Y31900000D01*
X51190000Y31900000D01*
X51190000Y31700000D01*
G37*
G36*
X51190000Y31300000D02*
G01*
X51890000Y31300000D01*
X51890000Y31500000D01*
X51190000Y31500000D01*
X51190000Y31300000D01*
G37*
G36*
X51190000Y30900000D02*
G01*
X51890000Y30900000D01*
X51890000Y31100000D01*
X51190000Y31100000D01*
X51190000Y30900000D01*
G37*
G36*
X51190000Y30500000D02*
G01*
X51890000Y30500000D01*
X51890000Y30700000D01*
X51190000Y30700000D01*
X51190000Y30500000D01*
G37*
G36*
X51190000Y30100000D02*
G01*
X51890000Y30100000D01*
X51890000Y30300000D01*
X51190000Y30300000D01*
X51190000Y30100000D01*
G37*
G36*
X51190000Y29700000D02*
G01*
X51890000Y29700000D01*
X51890000Y29900000D01*
X51190000Y29900000D01*
X51190000Y29700000D01*
G37*
G36*
X51190000Y29300000D02*
G01*
X51890000Y29300000D01*
X51890000Y29500000D01*
X51190000Y29500000D01*
X51190000Y29300000D01*
G37*
G36*
X51190000Y28900000D02*
G01*
X51890000Y28900000D01*
X51890000Y29100000D01*
X51190000Y29100000D01*
X51190000Y28900000D01*
G37*
G36*
X51190000Y28500000D02*
G01*
X51890000Y28500000D01*
X51890000Y28700000D01*
X51190000Y28700000D01*
X51190000Y28500000D01*
G37*
G36*
X51190000Y28100000D02*
G01*
X51890000Y28100000D01*
X51890000Y28300000D01*
X51190000Y28300000D01*
X51190000Y28100000D01*
G37*
D10*
%TO.C,G\u002A\u002A\u002A*%
G36*
X59778106Y4602093D02*
G01*
X59955299Y4602039D01*
X59991944Y4589583D01*
X60035330Y4572326D01*
X60073032Y4551380D01*
X60108171Y4524783D01*
X60135022Y4499644D01*
X60170113Y4459319D01*
X60196970Y4416542D01*
X60216847Y4369093D01*
X60225387Y4339688D01*
X60227064Y4332728D01*
X60228533Y4325589D01*
X60229806Y4317616D01*
X60230898Y4308157D01*
X60231823Y4296561D01*
X60232594Y4282173D01*
X60233226Y4264343D01*
X60233732Y4242416D01*
X60234126Y4215741D01*
X60234422Y4183666D01*
X60234634Y4145536D01*
X60234776Y4100701D01*
X60234861Y4048507D01*
X60234904Y3988303D01*
X60234918Y3919434D01*
X60234919Y3891388D01*
X60234913Y3819249D01*
X60234886Y3756047D01*
X60234826Y3701160D01*
X60234717Y3653964D01*
X60234548Y3613838D01*
X60234303Y3580159D01*
X60233969Y3552304D01*
X60233534Y3529651D01*
X60232983Y3511577D01*
X60232303Y3497459D01*
X60231480Y3486676D01*
X60230500Y3478604D01*
X60229351Y3472622D01*
X60228018Y3468105D01*
X60226488Y3464433D01*
X60225569Y3462570D01*
X60208589Y3438701D01*
X60186374Y3421657D01*
X60160634Y3412173D01*
X60133075Y3410981D01*
X60114941Y3415021D01*
X60089214Y3427892D01*
X60068893Y3446712D01*
X60059933Y3460694D01*
X60058346Y3464244D01*
X60056949Y3468511D01*
X60055726Y3474114D01*
X60054660Y3481674D01*
X60053735Y3491809D01*
X60052935Y3505138D01*
X60052243Y3522280D01*
X60051642Y3543855D01*
X60051117Y3570481D01*
X60050651Y3602777D01*
X60050227Y3641364D01*
X60049829Y3686859D01*
X60049441Y3739882D01*
X60049047Y3801052D01*
X60048629Y3870988D01*
X60048505Y3892343D01*
X60046116Y4305798D01*
X60035021Y4326588D01*
X60014718Y4356554D01*
X59988797Y4382483D01*
X59959974Y4401687D01*
X59958365Y4402492D01*
X59949141Y4406886D01*
X59940772Y4410205D01*
X59931734Y4412624D01*
X59920501Y4414320D01*
X59905546Y4415466D01*
X59885343Y4416240D01*
X59858367Y4416817D01*
X59829920Y4417268D01*
X59728440Y4418802D01*
X59727154Y3948845D01*
X59725867Y3478888D01*
X59713191Y3457328D01*
X59695560Y3435998D01*
X59672521Y3420798D01*
X59646317Y3412557D01*
X59619190Y3412102D01*
X59602248Y3416330D01*
X59586223Y3424363D01*
X59571558Y3434926D01*
X59570204Y3436175D01*
X59565843Y3440173D01*
X59561951Y3443700D01*
X59558503Y3447294D01*
X59555472Y3451495D01*
X59552831Y3456839D01*
X59550552Y3463866D01*
X59548611Y3473113D01*
X59546979Y3485119D01*
X59545631Y3500422D01*
X59544539Y3519560D01*
X59543676Y3543071D01*
X59543017Y3571494D01*
X59542534Y3605367D01*
X59542200Y3645228D01*
X59541989Y3691615D01*
X59541874Y3745066D01*
X59541829Y3806120D01*
X59541826Y3875315D01*
X59541839Y3953190D01*
X59541844Y4007467D01*
X59541844Y4534602D01*
X59551983Y4555546D01*
X59565581Y4575308D01*
X59581517Y4589319D01*
X59600913Y4602148D01*
X59778106Y4602093D01*
G37*
G36*
X57330635Y4613248D02*
G01*
X57373578Y4607954D01*
X57385342Y4605310D01*
X57440953Y4586594D01*
X57491192Y4560230D01*
X57535556Y4526794D01*
X57573545Y4486865D01*
X57604658Y4441018D01*
X57628394Y4389830D01*
X57644253Y4333879D01*
X57649453Y4301134D01*
X57650619Y4285539D01*
X57651570Y4260857D01*
X57652301Y4227555D01*
X57652808Y4186105D01*
X57653084Y4136974D01*
X57653127Y4080633D01*
X57652930Y4017550D01*
X57652737Y3983160D01*
X57652354Y3924806D01*
X57651984Y3875181D01*
X57651597Y3833452D01*
X57651160Y3798790D01*
X57650640Y3770362D01*
X57650005Y3747338D01*
X57649223Y3728885D01*
X57648261Y3714174D01*
X57647088Y3702372D01*
X57645670Y3692649D01*
X57643975Y3684173D01*
X57641972Y3676113D01*
X57640600Y3671101D01*
X57621313Y3618475D01*
X57594325Y3569713D01*
X57560568Y3525863D01*
X57520977Y3487974D01*
X57476482Y3457094D01*
X57430885Y3435343D01*
X57384252Y3421147D01*
X57335896Y3412790D01*
X57288923Y3410677D01*
X57259477Y3412996D01*
X57203352Y3425402D01*
X57151114Y3446255D01*
X57103396Y3475014D01*
X57060834Y3511135D01*
X57024063Y3554077D01*
X56993718Y3603297D01*
X56970433Y3658253D01*
X56969671Y3660522D01*
X56967414Y3667433D01*
X56965480Y3674075D01*
X56963842Y3681218D01*
X56962469Y3689638D01*
X56961333Y3700106D01*
X56960404Y3713396D01*
X56959653Y3730282D01*
X56959050Y3751537D01*
X56958567Y3777933D01*
X56958174Y3810244D01*
X56957842Y3849244D01*
X56957541Y3895705D01*
X56957243Y3950400D01*
X56957015Y3994891D01*
X56956925Y4014229D01*
X57144761Y4014229D01*
X57144761Y3717880D01*
X57157417Y3690883D01*
X57178102Y3657193D01*
X57204708Y3630502D01*
X57236130Y3611330D01*
X57271261Y3600196D01*
X57308997Y3597617D01*
X57344507Y3603103D01*
X57381130Y3617090D01*
X57411806Y3638503D01*
X57436734Y3667509D01*
X57451606Y3693981D01*
X57465009Y3722660D01*
X57465009Y4011839D01*
X57465009Y4301019D01*
X57453890Y4328558D01*
X57438116Y4356982D01*
X57415603Y4383413D01*
X57389125Y4404896D01*
X57374390Y4413285D01*
X57345446Y4422968D01*
X57312262Y4427230D01*
X57278573Y4425923D01*
X57248112Y4418901D01*
X57246563Y4418331D01*
X57216051Y4402290D01*
X57188246Y4379180D01*
X57165883Y4351491D01*
X57158145Y4337835D01*
X57144761Y4310578D01*
X57144761Y4014229D01*
X56956925Y4014229D01*
X56956723Y4057381D01*
X56956538Y4111090D01*
X56956474Y4156795D01*
X56956546Y4195274D01*
X56956767Y4227305D01*
X56957152Y4253665D01*
X56957716Y4275132D01*
X56958472Y4292484D01*
X56959434Y4306498D01*
X56959856Y4310578D01*
X56960618Y4317952D01*
X56962036Y4327623D01*
X56963221Y4333967D01*
X56979149Y4389514D01*
X57003206Y4440682D01*
X57034749Y4486746D01*
X57073136Y4526982D01*
X57117724Y4560664D01*
X57167871Y4587068D01*
X57197339Y4598144D01*
X57238897Y4608205D01*
X57284535Y4613286D01*
X57330635Y4613248D01*
G37*
G36*
X58114959Y4602129D02*
G01*
X58152153Y4602033D01*
X58182003Y4601801D01*
X58205620Y4601374D01*
X58224111Y4600693D01*
X58238585Y4599699D01*
X58250149Y4598334D01*
X58259914Y4596538D01*
X58268987Y4594253D01*
X58278477Y4591419D01*
X58279970Y4590954D01*
X58320740Y4576207D01*
X58355648Y4558648D01*
X58387762Y4536406D01*
X58420148Y4507609D01*
X58425906Y4501923D01*
X58454913Y4470512D01*
X58477646Y4439768D01*
X58496151Y4406443D01*
X58512472Y4367291D01*
X58514840Y4360766D01*
X58525942Y4329698D01*
X58527433Y4026826D01*
X58527725Y3965352D01*
X58527939Y3912652D01*
X58528055Y3867940D01*
X58528054Y3830431D01*
X58527917Y3799340D01*
X58527626Y3773880D01*
X58527161Y3753266D01*
X58526504Y3736713D01*
X58525636Y3723435D01*
X58524537Y3712646D01*
X58523188Y3703561D01*
X58521571Y3695395D01*
X58519667Y3687361D01*
X58519200Y3685500D01*
X58500651Y3630855D01*
X58474232Y3581105D01*
X58440631Y3536886D01*
X58400539Y3498838D01*
X58354644Y3467599D01*
X58303637Y3443807D01*
X58248207Y3428100D01*
X58239388Y3426452D01*
X58210223Y3422776D01*
X58172453Y3420348D01*
X58126958Y3419220D01*
X58109837Y3419141D01*
X58022214Y3419141D01*
X58020841Y3193294D01*
X58020522Y3139007D01*
X58020198Y3093418D01*
X58019749Y3055667D01*
X58019053Y3024892D01*
X58017987Y3000232D01*
X58016430Y2980827D01*
X58014261Y2965816D01*
X58011357Y2954339D01*
X58007597Y2945533D01*
X58002859Y2938538D01*
X57997022Y2932495D01*
X57989963Y2926540D01*
X57982248Y2920371D01*
X57960382Y2908422D01*
X57934460Y2903204D01*
X57907430Y2904941D01*
X57884048Y2912909D01*
X57866678Y2924985D01*
X57851958Y2940720D01*
X57850589Y2942696D01*
X57837836Y2961968D01*
X57836824Y3604588D01*
X58021859Y3604588D01*
X58121040Y3606342D01*
X58154387Y3606974D01*
X58179754Y3607656D01*
X58198717Y3608573D01*
X58212855Y3609912D01*
X58223746Y3611860D01*
X58232967Y3614602D01*
X58242096Y3618325D01*
X58248901Y3621439D01*
X58278585Y3639637D01*
X58304552Y3663999D01*
X58324535Y3692143D01*
X58332458Y3709177D01*
X58334525Y3714938D01*
X58336280Y3720816D01*
X58337742Y3727593D01*
X58338934Y3736052D01*
X58339878Y3746977D01*
X58340595Y3761150D01*
X58341106Y3779357D01*
X58341434Y3802378D01*
X58341599Y3830998D01*
X58341624Y3866000D01*
X58341531Y3908168D01*
X58341339Y3958283D01*
X58341073Y4017130D01*
X58341056Y4020766D01*
X58339717Y4305798D01*
X58327050Y4329792D01*
X58308313Y4357215D01*
X58283610Y4381694D01*
X58255788Y4400671D01*
X58240115Y4407865D01*
X58229754Y4411430D01*
X58219360Y4414067D01*
X58207292Y4415912D01*
X58191905Y4417103D01*
X58171557Y4417776D01*
X58144603Y4418070D01*
X58117276Y4418124D01*
X58021859Y4418124D01*
X58021859Y4011356D01*
X58021859Y3604588D01*
X57836824Y3604588D01*
X57836598Y3748197D01*
X57836184Y4011356D01*
X57835361Y4534427D01*
X57845542Y4555458D01*
X57859211Y4575340D01*
X57875116Y4589319D01*
X57894508Y4602148D01*
X58069315Y4602148D01*
X58114959Y4602129D01*
G37*
G36*
X64547111Y4612146D02*
G01*
X64583112Y4605703D01*
X64618980Y4593886D01*
X64650577Y4579712D01*
X64682774Y4560741D01*
X64715124Y4536055D01*
X64745008Y4508008D01*
X64769804Y4478950D01*
X64780534Y4463043D01*
X64790125Y4445643D01*
X64795204Y4431296D01*
X64797097Y4415482D01*
X64797263Y4406012D01*
X64796298Y4386698D01*
X64792586Y4372259D01*
X64784906Y4358135D01*
X64784114Y4356927D01*
X64765289Y4336525D01*
X64741130Y4322298D01*
X64714104Y4315197D01*
X64686680Y4316175D01*
X64681543Y4317375D01*
X64661470Y4325176D01*
X64644229Y4337820D01*
X64627580Y4357134D01*
X64620645Y4367047D01*
X64597024Y4394691D01*
X64568811Y4413951D01*
X64536029Y4424815D01*
X64508084Y4427448D01*
X64478279Y4425476D01*
X64453499Y4418285D01*
X64430087Y4404660D01*
X64422754Y4399114D01*
X64397818Y4373807D01*
X64381308Y4343993D01*
X64373250Y4309724D01*
X64372394Y4291288D01*
X64373413Y4269978D01*
X64376723Y4253675D01*
X64383369Y4237908D01*
X64386046Y4232838D01*
X64395258Y4217514D01*
X64404582Y4204493D01*
X64409529Y4198990D01*
X64415796Y4194079D01*
X64428911Y4184433D01*
X64447871Y4170770D01*
X64471671Y4153806D01*
X64499307Y4134258D01*
X64529775Y4112843D01*
X64551102Y4097927D01*
X64583683Y4074999D01*
X64614739Y4052796D01*
X64643133Y4032156D01*
X64667724Y4013922D01*
X64687374Y3998933D01*
X64700944Y3988031D01*
X64705577Y3983913D01*
X64740956Y3943227D01*
X64769134Y3897161D01*
X64789750Y3847015D01*
X64802444Y3794085D01*
X64806858Y3739670D01*
X64802630Y3685066D01*
X64796573Y3655742D01*
X64780602Y3611010D01*
X64756426Y3567493D01*
X64725393Y3526717D01*
X64688852Y3490211D01*
X64648152Y3459500D01*
X64604642Y3436112D01*
X64601291Y3434691D01*
X64557711Y3420691D01*
X64510149Y3412584D01*
X64461956Y3410683D01*
X64416485Y3415302D01*
X64409447Y3416719D01*
X64372487Y3427409D01*
X64333721Y3443150D01*
X64297815Y3461957D01*
X64286897Y3468824D01*
X64260655Y3488972D01*
X64235517Y3513245D01*
X64212951Y3539770D01*
X64194424Y3566671D01*
X64181402Y3592076D01*
X64175823Y3610707D01*
X64175701Y3637883D01*
X64183852Y3663051D01*
X64199004Y3684788D01*
X64219889Y3701668D01*
X64245236Y3712269D01*
X64269093Y3715280D01*
X64296148Y3711757D01*
X64319470Y3700658D01*
X64340441Y3681186D01*
X64350126Y3668563D01*
X64375830Y3638214D01*
X64404411Y3616781D01*
X64436595Y3603866D01*
X64473112Y3599069D01*
X64477015Y3599020D01*
X64511042Y3602264D01*
X64540776Y3612837D01*
X64568714Y3631708D01*
X64574763Y3636976D01*
X64598101Y3663005D01*
X64612687Y3691654D01*
X64619217Y3724502D01*
X64619727Y3739389D01*
X64616035Y3776328D01*
X64605049Y3807777D01*
X64586283Y3834961D01*
X64578309Y3843195D01*
X64569582Y3850589D01*
X64554120Y3862651D01*
X64533021Y3878566D01*
X64507383Y3897521D01*
X64478302Y3918701D01*
X64446876Y3941293D01*
X64426691Y3955656D01*
X64383423Y3986589D01*
X64347332Y4013077D01*
X64317568Y4035872D01*
X64293284Y4055724D01*
X64273632Y4073383D01*
X64257762Y4089599D01*
X64244826Y4105124D01*
X64233976Y4120708D01*
X64227055Y4132251D01*
X64212294Y4163579D01*
X64199623Y4200510D01*
X64190183Y4239138D01*
X64185115Y4275554D01*
X64185073Y4276134D01*
X64185937Y4328245D01*
X64195539Y4378370D01*
X64213132Y4425726D01*
X64237970Y4469530D01*
X64269307Y4508999D01*
X64306397Y4543352D01*
X64348494Y4571805D01*
X64394852Y4593576D01*
X64444724Y4607883D01*
X64497366Y4613943D01*
X64507298Y4614097D01*
X64547111Y4612146D01*
G37*
G36*
X59066405Y4612726D02*
G01*
X59111560Y4605133D01*
X59167178Y4586367D01*
X59217623Y4559749D01*
X59262379Y4525777D01*
X59300933Y4484947D01*
X59332769Y4437756D01*
X59357374Y4384700D01*
X59365680Y4359947D01*
X59368578Y4349677D01*
X59370917Y4339462D01*
X59372774Y4328109D01*
X59374226Y4314423D01*
X59375350Y4297210D01*
X59376223Y4275277D01*
X59376922Y4247428D01*
X59377523Y4212469D01*
X59378105Y4169207D01*
X59378135Y4166736D01*
X59378617Y4113636D01*
X59378624Y4069946D01*
X59378152Y4035525D01*
X59377200Y4010235D01*
X59375765Y3993937D01*
X59374810Y3988904D01*
X59363144Y3963244D01*
X59343896Y3941895D01*
X59326341Y3930372D01*
X59321633Y3928177D01*
X59316305Y3926354D01*
X59309474Y3924870D01*
X59300257Y3923689D01*
X59287773Y3922777D01*
X59271138Y3922100D01*
X59249471Y3921622D01*
X59221889Y3921311D01*
X59187510Y3921130D01*
X59145452Y3921045D01*
X59094831Y3921023D01*
X59087540Y3921022D01*
X58867067Y3921022D01*
X58868672Y3819451D01*
X58869242Y3785719D01*
X58869858Y3760021D01*
X58870697Y3740829D01*
X58871937Y3726618D01*
X58873753Y3715863D01*
X58876322Y3707036D01*
X58879822Y3698613D01*
X58883563Y3690828D01*
X58904851Y3657301D01*
X58932273Y3629986D01*
X58962742Y3611057D01*
X58978784Y3604353D01*
X58993772Y3600486D01*
X59011467Y3598752D01*
X59030402Y3598431D01*
X59060191Y3600030D01*
X59084811Y3605559D01*
X59107424Y3616227D01*
X59131191Y3633244D01*
X59139490Y3640170D01*
X59167504Y3659220D01*
X59195855Y3669016D01*
X59223940Y3669533D01*
X59251156Y3660746D01*
X59273407Y3645730D01*
X59290656Y3626402D01*
X59300056Y3603872D01*
X59302257Y3576391D01*
X59301817Y3569230D01*
X59298256Y3549269D01*
X59290331Y3531425D01*
X59276798Y3513844D01*
X59256412Y3494669D01*
X59246108Y3486176D01*
X59204835Y3458453D01*
X59158276Y3436531D01*
X59108548Y3420976D01*
X59057765Y3412351D01*
X59008045Y3411219D01*
X58977824Y3414677D01*
X58920433Y3429162D01*
X58867729Y3451440D01*
X58820349Y3481040D01*
X58778930Y3517490D01*
X58744110Y3560318D01*
X58717037Y3607944D01*
X58710595Y3621757D01*
X58705064Y3633999D01*
X58700369Y3645492D01*
X58696438Y3657059D01*
X58693197Y3669524D01*
X58690572Y3683709D01*
X58688489Y3700438D01*
X58686875Y3720534D01*
X58685656Y3744820D01*
X58684759Y3774119D01*
X58684110Y3809254D01*
X58683635Y3851049D01*
X58683261Y3900326D01*
X58682913Y3957908D01*
X58682718Y3991620D01*
X58682385Y4054931D01*
X58682198Y4107436D01*
X58867053Y4107436D01*
X59030402Y4107436D01*
X59193752Y4107436D01*
X59192139Y4206617D01*
X59191557Y4239940D01*
X59190917Y4265280D01*
X59190035Y4284213D01*
X59188724Y4298314D01*
X59186800Y4309159D01*
X59184078Y4318324D01*
X59180372Y4327384D01*
X59177108Y4334477D01*
X59156423Y4368098D01*
X59129508Y4394796D01*
X59097295Y4413979D01*
X59060718Y4425055D01*
X59030402Y4427684D01*
X58990581Y4423397D01*
X58955220Y4410712D01*
X58924740Y4389891D01*
X58899563Y4361194D01*
X58885988Y4337930D01*
X58870278Y4306037D01*
X58868666Y4206736D01*
X58867053Y4107436D01*
X58682198Y4107436D01*
X58682191Y4109438D01*
X58682148Y4155896D01*
X58682268Y4195059D01*
X58682562Y4227683D01*
X58683041Y4254521D01*
X58683718Y4276329D01*
X58684604Y4293861D01*
X58685710Y4307873D01*
X58687049Y4319118D01*
X58687828Y4324049D01*
X58701444Y4378887D01*
X58722757Y4428680D01*
X58752349Y4474545D01*
X58786754Y4513598D01*
X58817670Y4541923D01*
X58848284Y4563920D01*
X58881952Y4581688D01*
X58919218Y4596349D01*
X58965933Y4608420D01*
X59016118Y4613930D01*
X59066405Y4612726D01*
G37*
G36*
X61915443Y4604357D02*
G01*
X61956281Y4603956D01*
X61990039Y4603072D01*
X62017958Y4601550D01*
X62041275Y4599236D01*
X62061230Y4595972D01*
X62079063Y4591604D01*
X62096013Y4585976D01*
X62113319Y4578932D01*
X62130120Y4571301D01*
X62181000Y4542721D01*
X62224680Y4507893D01*
X62261348Y4466632D01*
X62291193Y4418756D01*
X62295111Y4410955D01*
X62302092Y4396595D01*
X62308100Y4383693D01*
X62313208Y4371432D01*
X62317489Y4358998D01*
X62321015Y4345575D01*
X62323861Y4330349D01*
X62326099Y4312505D01*
X62327801Y4291227D01*
X62329042Y4265700D01*
X62329894Y4235110D01*
X62330430Y4198641D01*
X62330723Y4155478D01*
X62330846Y4104807D01*
X62330873Y4045811D01*
X62330873Y4011839D01*
X62330878Y3948759D01*
X62330839Y3894410D01*
X62330677Y3847967D01*
X62330310Y3808602D01*
X62329658Y3775488D01*
X62328641Y3747797D01*
X62327178Y3724703D01*
X62325189Y3705378D01*
X62322594Y3688994D01*
X62319311Y3674726D01*
X62315261Y3661744D01*
X62310364Y3649224D01*
X62304537Y3636336D01*
X62297703Y3622254D01*
X62291834Y3610346D01*
X62263741Y3563808D01*
X62228054Y3522371D01*
X62185690Y3486784D01*
X62137569Y3457798D01*
X62084609Y3436162D01*
X62075021Y3433220D01*
X62061785Y3429684D01*
X62048236Y3426943D01*
X62032762Y3424854D01*
X62013751Y3423274D01*
X61989593Y3422060D01*
X61958677Y3421068D01*
X61930562Y3420396D01*
X61821821Y3418015D01*
X61821821Y3195435D01*
X61821809Y3143484D01*
X61821749Y3100205D01*
X61821604Y3064712D01*
X61821336Y3036116D01*
X61820909Y3013530D01*
X61820286Y2996068D01*
X61819430Y2982842D01*
X61818304Y2972964D01*
X61816871Y2965548D01*
X61815094Y2959706D01*
X61812936Y2954550D01*
X61811683Y2951911D01*
X61795759Y2928988D01*
X61773784Y2913455D01*
X61745810Y2905343D01*
X61734032Y2904233D01*
X61712399Y2904602D01*
X61694887Y2907641D01*
X61690287Y2909321D01*
X61672970Y2921036D01*
X61656664Y2938543D01*
X61644367Y2958280D01*
X61640475Y2968511D01*
X61639819Y2975629D01*
X61639206Y2991683D01*
X61638638Y3016048D01*
X61638113Y3048100D01*
X61637632Y3087215D01*
X61637195Y3132769D01*
X61636802Y3184139D01*
X61636453Y3240699D01*
X61636149Y3301826D01*
X61635888Y3366896D01*
X61635671Y3435285D01*
X61635499Y3506369D01*
X61635370Y3579523D01*
X61635342Y3604588D01*
X61821821Y3604588D01*
X61921003Y3606385D01*
X61954360Y3607033D01*
X61979744Y3607728D01*
X61998741Y3608659D01*
X62012936Y3610012D01*
X62023916Y3611976D01*
X62033264Y3614738D01*
X62042568Y3618485D01*
X62049424Y3621576D01*
X62083074Y3642089D01*
X62110557Y3669811D01*
X62131072Y3703540D01*
X62144460Y3732219D01*
X62144460Y4014229D01*
X62144460Y4296239D01*
X62133614Y4319757D01*
X62113059Y4354364D01*
X62086352Y4381875D01*
X62060018Y4399320D01*
X62029744Y4415734D01*
X61925782Y4417264D01*
X61821821Y4418793D01*
X61821821Y4011690D01*
X61821821Y3604588D01*
X61635342Y3604588D01*
X61635286Y3654123D01*
X61635246Y3729546D01*
X61635251Y3805167D01*
X61635299Y3880363D01*
X61635392Y3954508D01*
X61635501Y4011690D01*
X61635530Y4026980D01*
X61635711Y4097154D01*
X61635937Y4164406D01*
X61636208Y4228112D01*
X61636523Y4287647D01*
X61636883Y4342389D01*
X61637287Y4391712D01*
X61637735Y4434992D01*
X61638229Y4471606D01*
X61638766Y4500930D01*
X61639349Y4522339D01*
X61639976Y4535209D01*
X61640398Y4538667D01*
X61651684Y4562628D01*
X61670170Y4582948D01*
X61690178Y4595553D01*
X61696254Y4597979D01*
X61703369Y4599918D01*
X61712607Y4601424D01*
X61725054Y4602552D01*
X61741794Y4603357D01*
X61763912Y4603893D01*
X61792494Y4604215D01*
X61828623Y4604378D01*
X61866286Y4604433D01*
X61915443Y4604357D01*
G37*
G36*
X62637425Y5119780D02*
G01*
X62661980Y5107026D01*
X62673193Y5097422D01*
X62684804Y5083024D01*
X62693745Y5067049D01*
X62695978Y5060903D01*
X62697466Y5050344D01*
X62698711Y5030298D01*
X62699714Y5000834D01*
X62700471Y4962022D01*
X62700982Y4913931D01*
X62701245Y4856631D01*
X62701283Y4823215D01*
X62701309Y4604538D01*
X62803311Y4604538D01*
X62839482Y4604407D01*
X62867837Y4603937D01*
X62890117Y4603007D01*
X62908062Y4601501D01*
X62923413Y4599298D01*
X62937912Y4596280D01*
X62943121Y4595006D01*
X62998758Y4576321D01*
X63049063Y4549980D01*
X63093513Y4516589D01*
X63131587Y4476752D01*
X63162761Y4431075D01*
X63186512Y4380164D01*
X63202320Y4324624D01*
X63207892Y4288215D01*
X63208836Y4274365D01*
X63209677Y4252324D01*
X63210415Y4222999D01*
X63211052Y4187298D01*
X63211588Y4146127D01*
X63212023Y4100395D01*
X63212358Y4051009D01*
X63212594Y3998875D01*
X63212731Y3944901D01*
X63212770Y3889995D01*
X63212712Y3835063D01*
X63212556Y3781014D01*
X63212305Y3728754D01*
X63211958Y3679190D01*
X63211515Y3633231D01*
X63210979Y3591782D01*
X63210348Y3555752D01*
X63209625Y3526048D01*
X63208809Y3503578D01*
X63207901Y3489247D01*
X63207348Y3485098D01*
X63197587Y3459783D01*
X63181004Y3438417D01*
X63159471Y3422314D01*
X63134857Y3412792D01*
X63109035Y3411166D01*
X63103414Y3411991D01*
X63074817Y3421838D01*
X63051615Y3439065D01*
X63034905Y3462617D01*
X63026815Y3485917D01*
X63025713Y3495524D01*
X63024745Y3513539D01*
X63023908Y3540103D01*
X63023202Y3575356D01*
X63022624Y3619438D01*
X63022172Y3672491D01*
X63021844Y3734654D01*
X63021640Y3806068D01*
X63021556Y3886873D01*
X63021554Y3903333D01*
X63021550Y4296239D01*
X63007791Y4325323D01*
X62986617Y4359342D01*
X62958362Y4386950D01*
X62933131Y4403085D01*
X62924988Y4407240D01*
X62917380Y4410391D01*
X62908844Y4412701D01*
X62897912Y4414333D01*
X62883121Y4415449D01*
X62863005Y4416212D01*
X62836099Y4416784D01*
X62805271Y4417264D01*
X62701309Y4418793D01*
X62701283Y3956010D01*
X62701234Y3868945D01*
X62701098Y3791207D01*
X62700872Y3722566D01*
X62700552Y3662790D01*
X62700137Y3611646D01*
X62699624Y3568905D01*
X62699010Y3534334D01*
X62698293Y3507702D01*
X62697471Y3488777D01*
X62696540Y3477328D01*
X62695974Y3474109D01*
X62686300Y3454247D01*
X62669994Y3435726D01*
X62649880Y3421305D01*
X62635899Y3415377D01*
X62612934Y3410541D01*
X62592880Y3411587D01*
X62579424Y3415348D01*
X62555395Y3427869D01*
X62535442Y3446164D01*
X62524041Y3463994D01*
X62522884Y3466799D01*
X62521832Y3470181D01*
X62520880Y3474580D01*
X62520021Y3480438D01*
X62519252Y3488198D01*
X62518568Y3498299D01*
X62517963Y3511184D01*
X62517433Y3527294D01*
X62516973Y3547071D01*
X62516577Y3570955D01*
X62516242Y3599389D01*
X62515961Y3632814D01*
X62515731Y3671672D01*
X62515546Y3716403D01*
X62515402Y3767449D01*
X62515292Y3825252D01*
X62515214Y3890254D01*
X62515161Y3962895D01*
X62515129Y4043617D01*
X62515112Y4132862D01*
X62515106Y4231070D01*
X62515106Y4267560D01*
X62515109Y4369043D01*
X62515123Y4461407D01*
X62515150Y4545094D01*
X62515198Y4620544D01*
X62515269Y4688198D01*
X62515370Y4748497D01*
X62515504Y4801882D01*
X62515678Y4848794D01*
X62515895Y4889674D01*
X62516160Y4924963D01*
X62516478Y4955102D01*
X62516855Y4980532D01*
X62517294Y5001694D01*
X62517801Y5019028D01*
X62518380Y5032977D01*
X62519037Y5043980D01*
X62519776Y5052478D01*
X62520602Y5058913D01*
X62521519Y5063726D01*
X62522533Y5067357D01*
X62523648Y5070247D01*
X62523881Y5070768D01*
X62539424Y5094549D01*
X62560331Y5111658D01*
X62584820Y5121778D01*
X62611111Y5124591D01*
X62637425Y5119780D01*
G37*
G36*
X63425389Y4611393D02*
G01*
X63450786Y4601384D01*
X63472567Y4585216D01*
X63488672Y4563870D01*
X63494171Y4550886D01*
X63496319Y4543860D01*
X63500967Y4528419D01*
X63507893Y4505311D01*
X63516872Y4475286D01*
X63527683Y4439090D01*
X63540100Y4397474D01*
X63553902Y4351185D01*
X63568864Y4300971D01*
X63584763Y4247581D01*
X63601375Y4191764D01*
X63602289Y4188693D01*
X63618859Y4133025D01*
X63634674Y4079937D01*
X63649517Y4030154D01*
X63663171Y3984402D01*
X63675421Y3943404D01*
X63686048Y3907886D01*
X63694837Y3878573D01*
X63701570Y3856189D01*
X63706031Y3841461D01*
X63708003Y3835111D01*
X63708047Y3834985D01*
X63709800Y3838322D01*
X63714082Y3850152D01*
X63720683Y3869811D01*
X63729393Y3896632D01*
X63740003Y3929950D01*
X63752303Y3969100D01*
X63766083Y4013417D01*
X63781133Y4062234D01*
X63797243Y4114886D01*
X63814205Y4170709D01*
X63822094Y4196801D01*
X63841263Y4260059D01*
X63859364Y4319320D01*
X63876212Y4374006D01*
X63891626Y4423537D01*
X63905420Y4467336D01*
X63917412Y4504824D01*
X63927418Y4535423D01*
X63935256Y4558555D01*
X63940741Y4573641D01*
X63943590Y4579972D01*
X63961166Y4596946D01*
X63984146Y4608207D01*
X64010020Y4613404D01*
X64036278Y4612187D01*
X64060410Y4604204D01*
X64070669Y4597738D01*
X64083879Y4585851D01*
X64095070Y4572805D01*
X64097289Y4569486D01*
X64100296Y4564682D01*
X64102965Y4560252D01*
X64105173Y4555709D01*
X64106799Y4550564D01*
X64107720Y4544327D01*
X64107813Y4536509D01*
X64106955Y4526623D01*
X64105024Y4514178D01*
X64101898Y4498687D01*
X64097453Y4479661D01*
X64091568Y4456610D01*
X64084119Y4429046D01*
X64074985Y4396480D01*
X64064041Y4358423D01*
X64051167Y4314387D01*
X64036240Y4263882D01*
X64019136Y4206421D01*
X63999734Y4141513D01*
X63977910Y4068670D01*
X63953543Y3987404D01*
X63940089Y3942532D01*
X63917828Y3868256D01*
X63895841Y3794860D01*
X63874342Y3723052D01*
X63853540Y3653537D01*
X63833647Y3587023D01*
X63814873Y3524218D01*
X63797431Y3465827D01*
X63781532Y3412558D01*
X63767385Y3365118D01*
X63755204Y3324214D01*
X63745199Y3290552D01*
X63737581Y3264840D01*
X63733751Y3251847D01*
X63718525Y3201487D01*
X63704719Y3159298D01*
X63691831Y3124088D01*
X63679360Y3094662D01*
X63666803Y3069828D01*
X63653659Y3048393D01*
X63640855Y3030948D01*
X63605668Y2993794D01*
X63563547Y2961398D01*
X63516448Y2935001D01*
X63466326Y2915844D01*
X63454285Y2912518D01*
X63426854Y2907075D01*
X63398013Y2904003D01*
X63370420Y2903366D01*
X63346734Y2905227D01*
X63329768Y2909580D01*
X63307882Y2924035D01*
X63291080Y2944935D01*
X63280441Y2970047D01*
X63277039Y2997136D01*
X63279174Y3014552D01*
X63288438Y3040916D01*
X63303143Y3060989D01*
X63324172Y3075427D01*
X63352407Y3084888D01*
X63379404Y3089172D01*
X63404926Y3092533D01*
X63424374Y3097130D01*
X63441234Y3104163D01*
X63458993Y3114834D01*
X63464244Y3118392D01*
X63475241Y3126515D01*
X63484903Y3135273D01*
X63493662Y3145616D01*
X63501951Y3158497D01*
X63510200Y3174867D01*
X63518843Y3195678D01*
X63528311Y3221882D01*
X63539036Y3254432D01*
X63551451Y3294279D01*
X63565987Y3342374D01*
X63566155Y3342935D01*
X63614205Y3503331D01*
X63463666Y4006463D01*
X63443545Y4073852D01*
X63424215Y4138863D01*
X63405853Y4200889D01*
X63388634Y4259320D01*
X63372737Y4313550D01*
X63358336Y4362970D01*
X63345609Y4406971D01*
X63334733Y4444946D01*
X63325883Y4476287D01*
X63319236Y4500385D01*
X63314969Y4516631D01*
X63313258Y4524419D01*
X63313232Y4524803D01*
X63317612Y4547997D01*
X63329110Y4571186D01*
X63345723Y4591500D01*
X63365448Y4606070D01*
X63371991Y4609013D01*
X63398437Y4614263D01*
X63425389Y4611393D01*
G37*
G36*
X61156622Y4612502D02*
G01*
X61199360Y4606731D01*
X61241213Y4594660D01*
X61285433Y4575599D01*
X61286262Y4575192D01*
X61308014Y4563546D01*
X61327021Y4550875D01*
X61346191Y4535006D01*
X61368001Y4514201D01*
X61400191Y4478924D01*
X61425242Y4443452D01*
X61445116Y4404662D01*
X61457939Y4371123D01*
X61470395Y4334477D01*
X61470450Y4157285D01*
X61470504Y3980092D01*
X61457675Y3960696D01*
X61441568Y3942927D01*
X61423902Y3931161D01*
X61418706Y3928775D01*
X61413273Y3926796D01*
X61406704Y3925185D01*
X61398103Y3923906D01*
X61386571Y3922920D01*
X61371212Y3922188D01*
X61351129Y3921674D01*
X61325422Y3921338D01*
X61293196Y3921143D01*
X61253553Y3921051D01*
X61205595Y3921024D01*
X61184595Y3921022D01*
X60966232Y3921022D01*
X60966232Y3823215D01*
X60966324Y3789243D01*
X60966685Y3763234D01*
X60967440Y3743596D01*
X60968716Y3728732D01*
X60970639Y3717050D01*
X60973335Y3706953D01*
X60976049Y3699171D01*
X60991769Y3669337D01*
X61014724Y3642082D01*
X61042588Y3619940D01*
X61055400Y3612673D01*
X61070449Y3605707D01*
X61083644Y3601510D01*
X61098409Y3599407D01*
X61118168Y3598724D01*
X61126356Y3598695D01*
X61154728Y3600115D01*
X61178531Y3605092D01*
X61200616Y3614745D01*
X61223834Y3630192D01*
X61240319Y3643395D01*
X61267536Y3661503D01*
X61294563Y3670098D01*
X61318815Y3669656D01*
X61336934Y3665245D01*
X61351529Y3658259D01*
X61366465Y3646606D01*
X61373552Y3640024D01*
X61390309Y3617935D01*
X61398636Y3592693D01*
X61398474Y3565770D01*
X61389760Y3538635D01*
X61378524Y3520281D01*
X61365251Y3506011D01*
X61345774Y3489462D01*
X61322528Y3472450D01*
X61297947Y3456793D01*
X61280882Y3447425D01*
X61243097Y3431914D01*
X61200369Y3420360D01*
X61155886Y3413289D01*
X61112833Y3411226D01*
X61078446Y3414006D01*
X61021821Y3427154D01*
X60970541Y3447941D01*
X60923553Y3476900D01*
X60879810Y3514561D01*
X60879575Y3514794D01*
X60859867Y3535065D01*
X60845295Y3552091D01*
X60833711Y3568816D01*
X60822966Y3588183D01*
X60816646Y3601007D01*
X60809574Y3615810D01*
X60803471Y3629169D01*
X60798265Y3641886D01*
X60793885Y3654765D01*
X60790260Y3668608D01*
X60787318Y3684218D01*
X60784989Y3702400D01*
X60783199Y3723956D01*
X60781879Y3749689D01*
X60780957Y3780402D01*
X60780362Y3816899D01*
X60780021Y3859982D01*
X60779865Y3910456D01*
X60779821Y3969122D01*
X60779819Y4015603D01*
X60779832Y4076994D01*
X60779864Y4107436D01*
X60965564Y4107436D01*
X61126022Y4107436D01*
X61286481Y4107436D01*
X61286481Y4202853D01*
X61286383Y4236422D01*
X61286003Y4262058D01*
X61285210Y4281387D01*
X61283872Y4296034D01*
X61281858Y4307624D01*
X61279036Y4317784D01*
X61276664Y4324507D01*
X61262581Y4351567D01*
X61241933Y4377821D01*
X61217444Y4400204D01*
X61198568Y4412410D01*
X61186054Y4418475D01*
X61174523Y4422283D01*
X61161116Y4424345D01*
X61142974Y4425171D01*
X61126356Y4425287D01*
X61103380Y4425019D01*
X61087079Y4423869D01*
X61074577Y4421318D01*
X61062998Y4416845D01*
X61053624Y4412146D01*
X61020445Y4389628D01*
X60994133Y4360514D01*
X60981766Y4340292D01*
X60977455Y4331869D01*
X60974187Y4324163D01*
X60971793Y4315702D01*
X60970106Y4305012D01*
X60968960Y4290622D01*
X60968185Y4271058D01*
X60967614Y4244847D01*
X60967093Y4211397D01*
X60965564Y4107436D01*
X60779864Y4107436D01*
X60779887Y4129612D01*
X60780006Y4174241D01*
X60780209Y4211667D01*
X60780520Y4242678D01*
X60780960Y4268057D01*
X60781551Y4288590D01*
X60782314Y4305065D01*
X60783273Y4318265D01*
X60784448Y4328977D01*
X60785862Y4337987D01*
X60787537Y4346081D01*
X60789228Y4353008D01*
X60807393Y4405396D01*
X60833778Y4454341D01*
X60867420Y4498615D01*
X60907354Y4536994D01*
X60952618Y4568253D01*
X60962811Y4573851D01*
X60996416Y4589928D01*
X61027727Y4601018D01*
X61060292Y4608057D01*
X61097660Y4611982D01*
X61109748Y4612665D01*
X61156622Y4612502D01*
G37*
G36*
X61072443Y7971601D02*
G01*
X61103132Y7961366D01*
X61130686Y7943384D01*
X61138027Y7936528D01*
X61140884Y7933515D01*
X61143763Y7930088D01*
X61146834Y7925842D01*
X61150268Y7920372D01*
X61154235Y7913273D01*
X61158904Y7904140D01*
X61164447Y7892568D01*
X61171034Y7878152D01*
X61178835Y7860488D01*
X61188021Y7839170D01*
X61198761Y7813793D01*
X61211227Y7783952D01*
X61225588Y7749243D01*
X61242015Y7709260D01*
X61260678Y7663599D01*
X61281748Y7611854D01*
X61305394Y7553621D01*
X61331788Y7488494D01*
X61361099Y7416069D01*
X61393498Y7335941D01*
X61429156Y7247704D01*
X61462940Y7164079D01*
X61497751Y7077910D01*
X61532878Y6990971D01*
X61568031Y6903977D01*
X61602921Y6817642D01*
X61637260Y6732682D01*
X61670758Y6649812D01*
X61703125Y6569747D01*
X61734074Y6493203D01*
X61763314Y6420893D01*
X61790557Y6353534D01*
X61815514Y6291840D01*
X61837895Y6236527D01*
X61857411Y6188309D01*
X61873773Y6147901D01*
X61880335Y6131705D01*
X61903414Y6074728D01*
X61923150Y6025900D01*
X61939801Y5984514D01*
X61953622Y5949860D01*
X61964869Y5921232D01*
X61973798Y5897921D01*
X61980665Y5879221D01*
X61985727Y5864422D01*
X61989238Y5852818D01*
X61991457Y5843700D01*
X61992637Y5836360D01*
X61993036Y5830092D01*
X61992909Y5824186D01*
X61992720Y5821017D01*
X61991100Y5812227D01*
X61986962Y5795062D01*
X61980533Y5770303D01*
X61972041Y5738733D01*
X61961713Y5701133D01*
X61949775Y5658285D01*
X61936456Y5610970D01*
X61921983Y5559971D01*
X61906582Y5506069D01*
X61890482Y5450046D01*
X61873908Y5392683D01*
X61857090Y5334763D01*
X61840253Y5277068D01*
X61823625Y5220378D01*
X61807433Y5165476D01*
X61791905Y5113144D01*
X61777268Y5064163D01*
X61763749Y5019316D01*
X61751575Y4979383D01*
X61740974Y4945147D01*
X61732173Y4917389D01*
X61725398Y4896892D01*
X61720878Y4884436D01*
X61719694Y4881768D01*
X61701454Y4856282D01*
X61676906Y4836373D01*
X61647955Y4822726D01*
X61616506Y4816026D01*
X61584464Y4816959D01*
X61558931Y4823961D01*
X61552845Y4826464D01*
X61538270Y4832488D01*
X61515546Y4841892D01*
X61485013Y4854535D01*
X61447011Y4870275D01*
X61401882Y4888972D01*
X61349966Y4910484D01*
X61291604Y4934670D01*
X61227135Y4961389D01*
X61156901Y4990500D01*
X61081242Y5021861D01*
X61000499Y5055332D01*
X60915011Y5090771D01*
X60825121Y5128037D01*
X60731168Y5166989D01*
X60633492Y5207486D01*
X60532435Y5249387D01*
X60428337Y5292550D01*
X60321538Y5336835D01*
X60212379Y5382100D01*
X60151272Y5407440D01*
X60040901Y5453206D01*
X59932676Y5498078D01*
X59826936Y5541913D01*
X59724025Y5584571D01*
X59624285Y5625910D01*
X59528058Y5665787D01*
X59435686Y5704062D01*
X59347510Y5740592D01*
X59263874Y5775237D01*
X59185118Y5807854D01*
X59111586Y5838301D01*
X59043619Y5866438D01*
X58981559Y5892122D01*
X58955975Y5902706D01*
X59643462Y5902706D01*
X59647654Y5900780D01*
X59660140Y5895421D01*
X59680383Y5886851D01*
X59707845Y5875296D01*
X59741987Y5860978D01*
X59782271Y5844120D01*
X59828161Y5824946D01*
X59879117Y5803680D01*
X59934602Y5780544D01*
X59994077Y5755763D01*
X60057005Y5729560D01*
X60122847Y5702158D01*
X60191066Y5673781D01*
X60261124Y5644651D01*
X60332482Y5614993D01*
X60404602Y5585031D01*
X60476948Y5554986D01*
X60548980Y5525084D01*
X60620160Y5495546D01*
X60689951Y5466598D01*
X60757814Y5438462D01*
X60823212Y5411361D01*
X60885607Y5385519D01*
X60944460Y5361160D01*
X60999233Y5338507D01*
X61049389Y5317783D01*
X61094390Y5299212D01*
X61133697Y5283017D01*
X61166772Y5269422D01*
X61193078Y5258650D01*
X61212076Y5250925D01*
X61223229Y5246470D01*
X61226123Y5245409D01*
X61227419Y5247954D01*
X61225579Y5251009D01*
X61222048Y5255827D01*
X61213417Y5267754D01*
X61200159Y5286133D01*
X61182748Y5310306D01*
X61161657Y5339616D01*
X61137358Y5373406D01*
X61110325Y5411017D01*
X61081031Y5451791D01*
X61049950Y5495073D01*
X61035575Y5515095D01*
X61003727Y5559415D01*
X60973346Y5601609D01*
X60944916Y5641007D01*
X60918925Y5676939D01*
X60895859Y5708735D01*
X60876203Y5735727D01*
X60861770Y5755434D01*
X61188249Y5755434D01*
X61190348Y5751198D01*
X61197257Y5740394D01*
X61208171Y5724157D01*
X61222285Y5703619D01*
X61238792Y5679915D01*
X61256887Y5654176D01*
X61275766Y5627538D01*
X61294621Y5601132D01*
X61312649Y5576093D01*
X61329043Y5553555D01*
X61342998Y5534650D01*
X61353709Y5520512D01*
X61360369Y5512274D01*
X61362210Y5510637D01*
X61361795Y5515505D01*
X61359762Y5528472D01*
X61356338Y5548256D01*
X61351750Y5573578D01*
X61346222Y5603155D01*
X61341423Y5628266D01*
X61335226Y5660251D01*
X61329618Y5688943D01*
X61325077Y5711926D01*
X61592390Y5711926D01*
X61593263Y5705200D01*
X61595704Y5690596D01*
X61599444Y5669617D01*
X61604212Y5643765D01*
X61609738Y5614544D01*
X61611509Y5605319D01*
X61617201Y5575736D01*
X61622254Y5549413D01*
X61626397Y5527768D01*
X61629360Y5512215D01*
X61630872Y5504169D01*
X61631006Y5503405D01*
X61631366Y5502473D01*
X61632191Y5503634D01*
X61633797Y5507908D01*
X61636502Y5516312D01*
X61640622Y5529865D01*
X61646473Y5549583D01*
X61654373Y5576485D01*
X61664180Y5610020D01*
X61672635Y5639238D01*
X61679991Y5665197D01*
X61685882Y5686558D01*
X61689942Y5701983D01*
X61691802Y5710131D01*
X61691844Y5711058D01*
X61686767Y5711926D01*
X61674223Y5713214D01*
X61656285Y5714726D01*
X61641383Y5715830D01*
X61619096Y5717221D01*
X61604691Y5717550D01*
X61596535Y5716687D01*
X61592996Y5714502D01*
X61592390Y5711926D01*
X61325077Y5711926D01*
X61324852Y5713067D01*
X61321181Y5731347D01*
X61318860Y5742506D01*
X61318149Y5745445D01*
X61312977Y5746541D01*
X61300457Y5748024D01*
X61282746Y5749727D01*
X61262001Y5751485D01*
X61240380Y5753131D01*
X61220040Y5754500D01*
X61203137Y5755426D01*
X61191830Y5755743D01*
X61188249Y5755434D01*
X60861770Y5755434D01*
X60860445Y5757243D01*
X60849070Y5772614D01*
X60842565Y5781171D01*
X60841385Y5782589D01*
X60839490Y5784032D01*
X60836250Y5785472D01*
X60831174Y5786962D01*
X60823768Y5788555D01*
X60813539Y5790306D01*
X60799995Y5792267D01*
X60782642Y5794492D01*
X60760988Y5797034D01*
X60734539Y5799947D01*
X60702804Y5803285D01*
X60665289Y5807101D01*
X60621500Y5811448D01*
X60570946Y5816379D01*
X60513134Y5821949D01*
X60447570Y5828211D01*
X60373762Y5835219D01*
X60291216Y5843025D01*
X60238621Y5847988D01*
X60164255Y5854991D01*
X60092556Y5861722D01*
X60024096Y5868127D01*
X59959447Y5874153D01*
X59899180Y5879749D01*
X59843869Y5884862D01*
X59794084Y5889439D01*
X59750397Y5893427D01*
X59713381Y5896775D01*
X59683608Y5899428D01*
X59661649Y5901336D01*
X59648076Y5902445D01*
X59643462Y5902706D01*
X58955975Y5902706D01*
X58925748Y5915211D01*
X58876530Y5935565D01*
X58834244Y5953041D01*
X58799234Y5967498D01*
X58771842Y5978794D01*
X58752410Y5986788D01*
X58741280Y5991337D01*
X58738833Y5992316D01*
X58708673Y6008541D01*
X58684334Y6031054D01*
X58666450Y6058340D01*
X58655655Y6088884D01*
X58652584Y6121169D01*
X58657869Y6153681D01*
X58664289Y6170513D01*
X58666354Y6174200D01*
X58669719Y6178936D01*
X58674687Y6185011D01*
X58681564Y6192712D01*
X58690653Y6202330D01*
X58702259Y6214152D01*
X58707765Y6219615D01*
X59088877Y6219615D01*
X59093634Y6219130D01*
X59107296Y6217795D01*
X59129250Y6215668D01*
X59158884Y6212808D01*
X59195588Y6209273D01*
X59238747Y6205121D01*
X59287752Y6200413D01*
X59341989Y6195205D01*
X59400847Y6189557D01*
X59463714Y6183527D01*
X59529978Y6177174D01*
X59599027Y6170556D01*
X59670249Y6163732D01*
X59743032Y6156761D01*
X59816764Y6149700D01*
X59890834Y6142610D01*
X59964628Y6135547D01*
X60037537Y6128572D01*
X60108946Y6121742D01*
X60178245Y6115116D01*
X60244822Y6108752D01*
X60308064Y6102710D01*
X60367360Y6097047D01*
X60422098Y6091823D01*
X60471665Y6087096D01*
X60515451Y6082924D01*
X60552842Y6079366D01*
X60583227Y6076481D01*
X60605994Y6074327D01*
X60620531Y6072963D01*
X60626068Y6072460D01*
X60630904Y6074204D01*
X60630848Y6075844D01*
X60627820Y6080352D01*
X60619613Y6092027D01*
X60606647Y6110286D01*
X60589340Y6134548D01*
X60568113Y6164229D01*
X60543384Y6198748D01*
X60515573Y6237522D01*
X60485100Y6279969D01*
X60452383Y6325507D01*
X60417842Y6373554D01*
X60381897Y6423527D01*
X60344966Y6474844D01*
X60307470Y6526922D01*
X60269828Y6579180D01*
X60245101Y6613492D01*
X60566802Y6613492D01*
X60567604Y6611878D01*
X60571200Y6606934D01*
X60579922Y6594859D01*
X60593316Y6576284D01*
X60610928Y6551838D01*
X60632304Y6522154D01*
X60656990Y6487860D01*
X60684532Y6449590D01*
X60714475Y6407972D01*
X60746367Y6363637D01*
X60775149Y6323617D01*
X60808312Y6277575D01*
X60839921Y6233830D01*
X60869525Y6192999D01*
X60896672Y6155699D01*
X60920911Y6122545D01*
X60941788Y6094156D01*
X60958852Y6071147D01*
X60971651Y6054136D01*
X60979734Y6043739D01*
X60982584Y6040551D01*
X60988853Y6039546D01*
X61003113Y6037848D01*
X61023830Y6035605D01*
X61049471Y6032965D01*
X61078504Y6030074D01*
X61109396Y6027079D01*
X61140614Y6024126D01*
X61170626Y6021364D01*
X61197898Y6018938D01*
X61220898Y6016997D01*
X61238094Y6015686D01*
X61247369Y6015166D01*
X61260170Y6015364D01*
X61265566Y6017522D01*
X61265651Y6022539D01*
X61265533Y6022951D01*
X61263556Y6031331D01*
X61260451Y6046347D01*
X61256783Y6065225D01*
X61255526Y6071937D01*
X61250750Y6093327D01*
X61245428Y6110089D01*
X61240309Y6119922D01*
X61239752Y6120518D01*
X61235019Y6124222D01*
X61223270Y6133073D01*
X61205193Y6146564D01*
X61181479Y6164185D01*
X61152818Y6185429D01*
X61119900Y6209788D01*
X61083415Y6236752D01*
X61044053Y6265815D01*
X61002504Y6296467D01*
X60959459Y6328201D01*
X60915606Y6360508D01*
X60871637Y6392880D01*
X60828241Y6424808D01*
X60786109Y6455785D01*
X60745929Y6485302D01*
X60708394Y6512851D01*
X60674191Y6537924D01*
X60644012Y6560012D01*
X60618546Y6578607D01*
X60598484Y6593201D01*
X60584516Y6603286D01*
X60579066Y6607157D01*
X60570243Y6612695D01*
X60566802Y6613492D01*
X60245101Y6613492D01*
X60232458Y6631036D01*
X60195781Y6681906D01*
X60160215Y6731209D01*
X60126180Y6778362D01*
X60094096Y6822784D01*
X60064382Y6863891D01*
X60037457Y6901103D01*
X60013741Y6933835D01*
X59993653Y6961507D01*
X59977612Y6983535D01*
X59966037Y6999338D01*
X59959349Y7008333D01*
X59957878Y7010198D01*
X59956431Y7011237D01*
X59954361Y7011452D01*
X59951298Y7010513D01*
X59946871Y7008091D01*
X59940710Y7003856D01*
X59932444Y6997478D01*
X59921703Y6988628D01*
X59908118Y6976976D01*
X59891316Y6962193D01*
X59870929Y6943950D01*
X59846584Y6921916D01*
X59817914Y6895762D01*
X59784545Y6865158D01*
X59746109Y6829776D01*
X59702235Y6789285D01*
X59652553Y6743355D01*
X59596692Y6691658D01*
X59534281Y6633864D01*
X59518716Y6619447D01*
X59464367Y6569091D01*
X59412019Y6520563D01*
X59362094Y6474256D01*
X59315013Y6430561D01*
X59271200Y6389871D01*
X59231075Y6352579D01*
X59195061Y6319078D01*
X59163581Y6289759D01*
X59137055Y6265016D01*
X59115906Y6245241D01*
X59100557Y6230827D01*
X59091428Y6222166D01*
X59088877Y6219615D01*
X58707765Y6219615D01*
X58716687Y6228468D01*
X58734241Y6245567D01*
X58755225Y6265738D01*
X58779944Y6289270D01*
X58808703Y6316450D01*
X58841806Y6347570D01*
X58879556Y6382916D01*
X58922260Y6422779D01*
X58970221Y6467447D01*
X59023743Y6517209D01*
X59083132Y6572354D01*
X59148691Y6633171D01*
X59220726Y6699949D01*
X59283840Y6758432D01*
X59361633Y6830454D01*
X59435230Y6898489D01*
X59504418Y6962342D01*
X59568984Y7021818D01*
X59628712Y7076722D01*
X59683391Y7126859D01*
X59732806Y7172035D01*
X59776743Y7212054D01*
X59814990Y7246721D01*
X59847332Y7275842D01*
X59873556Y7299221D01*
X59893449Y7316664D01*
X59906796Y7327976D01*
X59913384Y7332962D01*
X59913518Y7333034D01*
X59945905Y7344748D01*
X59979188Y7347179D01*
X60012288Y7340394D01*
X60043799Y7324680D01*
X60050124Y7320215D01*
X60063692Y7310410D01*
X60084051Y7295599D01*
X60110748Y7276112D01*
X60143330Y7252282D01*
X60181345Y7224441D01*
X60224340Y7192921D01*
X60271862Y7158054D01*
X60323460Y7120171D01*
X60378679Y7079605D01*
X60437068Y7036688D01*
X60498173Y6991751D01*
X60561543Y6945127D01*
X60617305Y6904082D01*
X60681838Y6856606D01*
X60744248Y6810758D01*
X60804106Y6766852D01*
X60860979Y6725201D01*
X60914438Y6686118D01*
X60964050Y6649918D01*
X61009384Y6616913D01*
X61050010Y6587417D01*
X61085496Y6561744D01*
X61115411Y6540207D01*
X61139324Y6523119D01*
X61156804Y6510794D01*
X61167420Y6503546D01*
X61170754Y6501630D01*
X61170025Y6506709D01*
X61167577Y6520643D01*
X61165284Y6533198D01*
X61434232Y6533198D01*
X61437115Y6514078D01*
X61438822Y6504037D01*
X61442055Y6486185D01*
X61446522Y6462097D01*
X61451928Y6433349D01*
X61457980Y6401515D01*
X61461938Y6380867D01*
X61483879Y6266775D01*
X61524990Y6236316D01*
X61541842Y6223897D01*
X61555561Y6213912D01*
X61564524Y6207535D01*
X61567177Y6205818D01*
X61566528Y6209577D01*
X61564087Y6216534D01*
X61559185Y6228955D01*
X61551536Y6248055D01*
X61541684Y6272498D01*
X61530172Y6300950D01*
X61517544Y6332074D01*
X61504344Y6364536D01*
X61491116Y6397001D01*
X61478404Y6428133D01*
X61466751Y6456596D01*
X61456703Y6481056D01*
X61448801Y6500177D01*
X61443591Y6512624D01*
X61441921Y6516468D01*
X61434232Y6533198D01*
X61165284Y6533198D01*
X61164411Y6537978D01*
X61429875Y6537978D01*
X61432265Y6535588D01*
X61434655Y6537978D01*
X61432265Y6540367D01*
X61429875Y6537978D01*
X61164411Y6537978D01*
X61163512Y6542902D01*
X61157929Y6572956D01*
X61150930Y6610275D01*
X61142614Y6654330D01*
X61133083Y6704590D01*
X61122438Y6760526D01*
X61110778Y6821608D01*
X61098205Y6887305D01*
X61084820Y6957087D01*
X61070722Y7030426D01*
X61056013Y7106791D01*
X61042721Y7175675D01*
X61023607Y7274765D01*
X61006290Y7364812D01*
X60990709Y7446149D01*
X60976803Y7519109D01*
X60964511Y7584026D01*
X60953771Y7641234D01*
X60944522Y7691066D01*
X60936704Y7733855D01*
X60930254Y7769936D01*
X60925111Y7799642D01*
X60921215Y7823306D01*
X60918504Y7841262D01*
X60916916Y7853844D01*
X60916392Y7861384D01*
X60916518Y7863418D01*
X60925533Y7891982D01*
X60941085Y7919770D01*
X60953603Y7935301D01*
X60979200Y7955938D01*
X61008714Y7968876D01*
X61040383Y7974100D01*
X61072443Y7971601D01*
G37*
%TD*%
D11*
%TO.C,TP1*%
X80000000Y2000000D03*
%TD*%
%TO.C,TP2*%
X90000000Y2000000D03*
%TD*%
D12*
%TO.C,J4*%
X82475000Y27814579D03*
X87525000Y27814579D03*
X82475000Y25274579D03*
X87525000Y25274579D03*
X82475000Y22734579D03*
X87525000Y22734579D03*
X82475000Y20194579D03*
X87525000Y20194579D03*
X82475000Y17654579D03*
X87525000Y17654579D03*
%TD*%
D13*
%TO.C,R3*%
X14690000Y17000000D03*
X15710000Y17000000D03*
%TD*%
D14*
%TO.C,LD1*%
X80000000Y11800000D03*
D15*
X79300000Y11100000D03*
X80000000Y10400000D03*
%TD*%
D16*
%TO.C,J1*%
X48460000Y28200000D03*
X51540000Y28200000D03*
X48460000Y28600000D03*
X51540000Y28600000D03*
X48460000Y29000000D03*
X51540000Y29000000D03*
X48460000Y29400000D03*
X51540000Y29400000D03*
X48460000Y29800000D03*
X51540000Y29800000D03*
X48460000Y30200000D03*
X51540000Y30200000D03*
X48460000Y30600000D03*
X51540000Y30600000D03*
X48460000Y31000000D03*
X51540000Y31000000D03*
X48460000Y31400000D03*
X51540000Y31400000D03*
X48460000Y31800000D03*
X51540000Y31800000D03*
X48460000Y32200000D03*
X51540000Y32200000D03*
X48460000Y32600000D03*
X51540000Y32600000D03*
X48460000Y33000000D03*
X51540000Y33000000D03*
X48460000Y33400000D03*
X51540000Y33400000D03*
X48460000Y33800000D03*
X51540000Y33800000D03*
X48460000Y34200000D03*
X51540000Y34200000D03*
X48460000Y34600000D03*
X51540000Y34600000D03*
X48460000Y35000000D03*
X51540000Y35000000D03*
X48460000Y35400000D03*
X51540000Y35400000D03*
X48460000Y35800000D03*
X51540000Y35800000D03*
X48460000Y36200000D03*
X51540000Y36200000D03*
X48460000Y36600000D03*
X51540000Y36600000D03*
X48460000Y37000000D03*
X51540000Y37000000D03*
X48460000Y37400000D03*
X51540000Y37400000D03*
X48460000Y37800000D03*
X51540000Y37800000D03*
X48460000Y38200000D03*
X51540000Y38200000D03*
X48460000Y38600000D03*
X51540000Y38600000D03*
X48460000Y39000000D03*
X51540000Y39000000D03*
X48460000Y39400000D03*
X51540000Y39400000D03*
X48460000Y39800000D03*
X51540000Y39800000D03*
X48460000Y40200000D03*
X51540000Y40200000D03*
X48460000Y40600000D03*
X51540000Y40600000D03*
X48460000Y41000000D03*
X51540000Y41000000D03*
X48460000Y41400000D03*
X51540000Y41400000D03*
X48460000Y41800000D03*
X51540000Y41800000D03*
%TD*%
D13*
%TO.C,R1*%
X13390000Y15900000D03*
X14410000Y15900000D03*
%TD*%
D17*
%TO.C,U1*%
X13295000Y8825000D03*
X14565000Y8825000D03*
X15835000Y8825000D03*
X17105000Y8825000D03*
X17105000Y13775000D03*
X15835000Y13775000D03*
X14565000Y13775000D03*
X13295000Y13775000D03*
%TD*%
D13*
%TO.C,R2*%
X16090000Y18200000D03*
X17110000Y18200000D03*
%TD*%
D18*
%TO.C,LD2*%
X90000000Y12100000D03*
D19*
X89000000Y11100000D03*
X90000000Y10100000D03*
%TD*%
D20*
%TO.C,C1*%
X11700000Y11780000D03*
X11700000Y10820000D03*
%TD*%
D21*
%TO.C,J2*%
X12330000Y55065000D03*
X12330000Y18935000D03*
%TD*%
%TO.C,J3*%
X82330000Y55065000D03*
X82330000Y18935000D03*
%TD*%
M02*
