%TF.GenerationSoftware,KiCad,Pcbnew,9.0.3*%
%TF.CreationDate,2025-10-01T18:37:08-04:00*%
%TF.ProjectId,ephys-test-module-64,65706879-732d-4746-9573-742d6d6f6475,C*%
%TF.SameCoordinates,Original*%
%TF.FileFunction,AssemblyDrawing,Top*%
%FSLAX46Y46*%
G04 Gerber Fmt 4.6, Leading zero omitted, Abs format (unit mm)*
G04 Created by KiCad (PCBNEW 9.0.3) date 2025-10-01 18:37:08*
%MOMM*%
%LPD*%
G01*
G04 APERTURE LIST*
%ADD10C,0.150000*%
%ADD11C,0.040000*%
%ADD12C,0.100000*%
G04 APERTURE END LIST*
D10*
X192637666Y-121839819D02*
X192637666Y-122554104D01*
X192637666Y-122554104D02*
X192590047Y-122696961D01*
X192590047Y-122696961D02*
X192494809Y-122792200D01*
X192494809Y-122792200D02*
X192351952Y-122839819D01*
X192351952Y-122839819D02*
X192256714Y-122839819D01*
X193542428Y-122173152D02*
X193542428Y-122839819D01*
X193304333Y-121792200D02*
X193066238Y-122506485D01*
X193066238Y-122506485D02*
X193685285Y-122506485D01*
X151738095Y-129454819D02*
X152309523Y-129454819D01*
X152023809Y-130454819D02*
X152023809Y-129454819D01*
X152642857Y-130454819D02*
X152642857Y-129454819D01*
X152642857Y-129454819D02*
X153023809Y-129454819D01*
X153023809Y-129454819D02*
X153119047Y-129502438D01*
X153119047Y-129502438D02*
X153166666Y-129550057D01*
X153166666Y-129550057D02*
X153214285Y-129645295D01*
X153214285Y-129645295D02*
X153214285Y-129788152D01*
X153214285Y-129788152D02*
X153166666Y-129883390D01*
X153166666Y-129883390D02*
X153119047Y-129931009D01*
X153119047Y-129931009D02*
X153023809Y-129978628D01*
X153023809Y-129978628D02*
X152642857Y-129978628D01*
X154166666Y-130454819D02*
X153595238Y-130454819D01*
X153880952Y-130454819D02*
X153880952Y-129454819D01*
X153880952Y-129454819D02*
X153785714Y-129597676D01*
X153785714Y-129597676D02*
X153690476Y-129692914D01*
X153690476Y-129692914D02*
X153595238Y-129740533D01*
X151518804Y-129954819D02*
X154385957Y-129954819D01*
X161738095Y-129454819D02*
X162309523Y-129454819D01*
X162023809Y-130454819D02*
X162023809Y-129454819D01*
X162642857Y-130454819D02*
X162642857Y-129454819D01*
X162642857Y-129454819D02*
X163023809Y-129454819D01*
X163023809Y-129454819D02*
X163119047Y-129502438D01*
X163119047Y-129502438D02*
X163166666Y-129550057D01*
X163166666Y-129550057D02*
X163214285Y-129645295D01*
X163214285Y-129645295D02*
X163214285Y-129788152D01*
X163214285Y-129788152D02*
X163166666Y-129883390D01*
X163166666Y-129883390D02*
X163119047Y-129931009D01*
X163119047Y-129931009D02*
X163023809Y-129978628D01*
X163023809Y-129978628D02*
X162642857Y-129978628D01*
X163595238Y-129550057D02*
X163642857Y-129502438D01*
X163642857Y-129502438D02*
X163738095Y-129454819D01*
X163738095Y-129454819D02*
X163976190Y-129454819D01*
X163976190Y-129454819D02*
X164071428Y-129502438D01*
X164071428Y-129502438D02*
X164119047Y-129550057D01*
X164119047Y-129550057D02*
X164166666Y-129645295D01*
X164166666Y-129645295D02*
X164166666Y-129740533D01*
X164166666Y-129740533D02*
X164119047Y-129883390D01*
X164119047Y-129883390D02*
X163547619Y-130454819D01*
X163547619Y-130454819D02*
X164166666Y-130454819D01*
X161518804Y-129954819D02*
X164391666Y-129954819D01*
D11*
X123156667Y-120118200D02*
X123070000Y-119994391D01*
X123008095Y-120118200D02*
X123008095Y-119858200D01*
X123008095Y-119858200D02*
X123107143Y-119858200D01*
X123107143Y-119858200D02*
X123131905Y-119870581D01*
X123131905Y-119870581D02*
X123144286Y-119882962D01*
X123144286Y-119882962D02*
X123156667Y-119907724D01*
X123156667Y-119907724D02*
X123156667Y-119944867D01*
X123156667Y-119944867D02*
X123144286Y-119969629D01*
X123144286Y-119969629D02*
X123131905Y-119982010D01*
X123131905Y-119982010D02*
X123107143Y-119994391D01*
X123107143Y-119994391D02*
X123008095Y-119994391D01*
X123243333Y-119858200D02*
X123404286Y-119858200D01*
X123404286Y-119858200D02*
X123317619Y-119957248D01*
X123317619Y-119957248D02*
X123354762Y-119957248D01*
X123354762Y-119957248D02*
X123379524Y-119969629D01*
X123379524Y-119969629D02*
X123391905Y-119982010D01*
X123391905Y-119982010D02*
X123404286Y-120006772D01*
X123404286Y-120006772D02*
X123404286Y-120068677D01*
X123404286Y-120068677D02*
X123391905Y-120093439D01*
X123391905Y-120093439D02*
X123379524Y-120105820D01*
X123379524Y-120105820D02*
X123354762Y-120118200D01*
X123354762Y-120118200D02*
X123280476Y-120118200D01*
X123280476Y-120118200D02*
X123255714Y-120105820D01*
X123255714Y-120105820D02*
X123243333Y-120093439D01*
D10*
X165238095Y-82454819D02*
X165809523Y-82454819D01*
X165523809Y-83454819D02*
X165523809Y-82454819D01*
X166142857Y-83454819D02*
X166142857Y-82454819D01*
X166142857Y-82454819D02*
X166523809Y-82454819D01*
X166523809Y-82454819D02*
X166619047Y-82502438D01*
X166619047Y-82502438D02*
X166666666Y-82550057D01*
X166666666Y-82550057D02*
X166714285Y-82645295D01*
X166714285Y-82645295D02*
X166714285Y-82788152D01*
X166714285Y-82788152D02*
X166666666Y-82883390D01*
X166666666Y-82883390D02*
X166619047Y-82931009D01*
X166619047Y-82931009D02*
X166523809Y-82978628D01*
X166523809Y-82978628D02*
X166142857Y-82978628D01*
X167571428Y-82788152D02*
X167571428Y-83454819D01*
X167333333Y-82407200D02*
X167095238Y-83121485D01*
X167095238Y-83121485D02*
X167714285Y-83121485D01*
X165018804Y-82928249D02*
X167933576Y-82928249D01*
D11*
X153466667Y-111718200D02*
X153380000Y-111594391D01*
X153318095Y-111718200D02*
X153318095Y-111458200D01*
X153318095Y-111458200D02*
X153417143Y-111458200D01*
X153417143Y-111458200D02*
X153441905Y-111470581D01*
X153441905Y-111470581D02*
X153454286Y-111482962D01*
X153454286Y-111482962D02*
X153466667Y-111507724D01*
X153466667Y-111507724D02*
X153466667Y-111544867D01*
X153466667Y-111544867D02*
X153454286Y-111569629D01*
X153454286Y-111569629D02*
X153441905Y-111582010D01*
X153441905Y-111582010D02*
X153417143Y-111594391D01*
X153417143Y-111594391D02*
X153318095Y-111594391D01*
X153689524Y-111544867D02*
X153689524Y-111718200D01*
X153627619Y-111445820D02*
X153565714Y-111631534D01*
X153565714Y-111631534D02*
X153726667Y-111631534D01*
D10*
X152333333Y-86454819D02*
X151857143Y-86454819D01*
X151857143Y-86454819D02*
X151857143Y-85454819D01*
X152666667Y-86454819D02*
X152666667Y-85454819D01*
X152666667Y-85454819D02*
X152904762Y-85454819D01*
X152904762Y-85454819D02*
X153047619Y-85502438D01*
X153047619Y-85502438D02*
X153142857Y-85597676D01*
X153142857Y-85597676D02*
X153190476Y-85692914D01*
X153190476Y-85692914D02*
X153238095Y-85883390D01*
X153238095Y-85883390D02*
X153238095Y-86026247D01*
X153238095Y-86026247D02*
X153190476Y-86216723D01*
X153190476Y-86216723D02*
X153142857Y-86311961D01*
X153142857Y-86311961D02*
X153047619Y-86407200D01*
X153047619Y-86407200D02*
X152904762Y-86454819D01*
X152904762Y-86454819D02*
X152666667Y-86454819D01*
X154190476Y-86454819D02*
X153619048Y-86454819D01*
X153904762Y-86454819D02*
X153904762Y-85454819D01*
X153904762Y-85454819D02*
X153809524Y-85597676D01*
X153809524Y-85597676D02*
X153714286Y-85692914D01*
X153714286Y-85692914D02*
X153619048Y-85740533D01*
X157666666Y-101454819D02*
X157666666Y-102169104D01*
X157666666Y-102169104D02*
X157619047Y-102311961D01*
X157619047Y-102311961D02*
X157523809Y-102407200D01*
X157523809Y-102407200D02*
X157380952Y-102454819D01*
X157380952Y-102454819D02*
X157285714Y-102454819D01*
X158666666Y-102454819D02*
X158095238Y-102454819D01*
X158380952Y-102454819D02*
X158380952Y-101454819D01*
X158380952Y-101454819D02*
X158285714Y-101597676D01*
X158285714Y-101597676D02*
X158190476Y-101692914D01*
X158190476Y-101692914D02*
X158095238Y-101740533D01*
D11*
X121856667Y-121218200D02*
X121770000Y-121094391D01*
X121708095Y-121218200D02*
X121708095Y-120958200D01*
X121708095Y-120958200D02*
X121807143Y-120958200D01*
X121807143Y-120958200D02*
X121831905Y-120970581D01*
X121831905Y-120970581D02*
X121844286Y-120982962D01*
X121844286Y-120982962D02*
X121856667Y-121007724D01*
X121856667Y-121007724D02*
X121856667Y-121044867D01*
X121856667Y-121044867D02*
X121844286Y-121069629D01*
X121844286Y-121069629D02*
X121831905Y-121082010D01*
X121831905Y-121082010D02*
X121807143Y-121094391D01*
X121807143Y-121094391D02*
X121708095Y-121094391D01*
X122104286Y-121218200D02*
X121955714Y-121218200D01*
X122030000Y-121218200D02*
X122030000Y-120958200D01*
X122030000Y-120958200D02*
X122005238Y-120995343D01*
X122005238Y-120995343D02*
X121980476Y-121020105D01*
X121980476Y-121020105D02*
X121955714Y-121032486D01*
D10*
X122038095Y-95054819D02*
X122038095Y-94054819D01*
X122038095Y-94531009D02*
X122609523Y-94531009D01*
X122609523Y-95054819D02*
X122609523Y-94054819D01*
X123609523Y-95054819D02*
X123038095Y-95054819D01*
X123323809Y-95054819D02*
X123323809Y-94054819D01*
X123323809Y-94054819D02*
X123228571Y-94197676D01*
X123228571Y-94197676D02*
X123133333Y-94292914D01*
X123133333Y-94292914D02*
X123038095Y-94340533D01*
X122665566Y-126446666D02*
X123458900Y-126446666D01*
X123458900Y-126446666D02*
X123552233Y-126400000D01*
X123552233Y-126400000D02*
X123598900Y-126353333D01*
X123598900Y-126353333D02*
X123645566Y-126260000D01*
X123645566Y-126260000D02*
X123645566Y-126073333D01*
X123645566Y-126073333D02*
X123598900Y-125980000D01*
X123598900Y-125980000D02*
X123552233Y-125933333D01*
X123552233Y-125933333D02*
X123458900Y-125886666D01*
X123458900Y-125886666D02*
X122665566Y-125886666D01*
X123645566Y-124906666D02*
X123645566Y-125466666D01*
X123645566Y-125186666D02*
X122665566Y-125186666D01*
X122665566Y-125186666D02*
X122805566Y-125279999D01*
X122805566Y-125279999D02*
X122898900Y-125373333D01*
X122898900Y-125373333D02*
X122945566Y-125466666D01*
D11*
X124556667Y-118918200D02*
X124470000Y-118794391D01*
X124408095Y-118918200D02*
X124408095Y-118658200D01*
X124408095Y-118658200D02*
X124507143Y-118658200D01*
X124507143Y-118658200D02*
X124531905Y-118670581D01*
X124531905Y-118670581D02*
X124544286Y-118682962D01*
X124544286Y-118682962D02*
X124556667Y-118707724D01*
X124556667Y-118707724D02*
X124556667Y-118744867D01*
X124556667Y-118744867D02*
X124544286Y-118769629D01*
X124544286Y-118769629D02*
X124531905Y-118782010D01*
X124531905Y-118782010D02*
X124507143Y-118794391D01*
X124507143Y-118794391D02*
X124408095Y-118794391D01*
X124655714Y-118682962D02*
X124668095Y-118670581D01*
X124668095Y-118670581D02*
X124692857Y-118658200D01*
X124692857Y-118658200D02*
X124754762Y-118658200D01*
X124754762Y-118658200D02*
X124779524Y-118670581D01*
X124779524Y-118670581D02*
X124791905Y-118682962D01*
X124791905Y-118682962D02*
X124804286Y-118707724D01*
X124804286Y-118707724D02*
X124804286Y-118732486D01*
X124804286Y-118732486D02*
X124791905Y-118769629D01*
X124791905Y-118769629D02*
X124643333Y-118918200D01*
X124643333Y-118918200D02*
X124804286Y-118918200D01*
D10*
X162333333Y-86454819D02*
X161857143Y-86454819D01*
X161857143Y-86454819D02*
X161857143Y-85454819D01*
X162666667Y-86454819D02*
X162666667Y-85454819D01*
X162666667Y-85454819D02*
X162904762Y-85454819D01*
X162904762Y-85454819D02*
X163047619Y-85502438D01*
X163047619Y-85502438D02*
X163142857Y-85597676D01*
X163142857Y-85597676D02*
X163190476Y-85692914D01*
X163190476Y-85692914D02*
X163238095Y-85883390D01*
X163238095Y-85883390D02*
X163238095Y-86026247D01*
X163238095Y-86026247D02*
X163190476Y-86216723D01*
X163190476Y-86216723D02*
X163142857Y-86311961D01*
X163142857Y-86311961D02*
X163047619Y-86407200D01*
X163047619Y-86407200D02*
X162904762Y-86454819D01*
X162904762Y-86454819D02*
X162666667Y-86454819D01*
X163619048Y-85550057D02*
X163666667Y-85502438D01*
X163666667Y-85502438D02*
X163761905Y-85454819D01*
X163761905Y-85454819D02*
X164000000Y-85454819D01*
X164000000Y-85454819D02*
X164095238Y-85502438D01*
X164095238Y-85502438D02*
X164142857Y-85550057D01*
X164142857Y-85550057D02*
X164190476Y-85645295D01*
X164190476Y-85645295D02*
X164190476Y-85740533D01*
X164190476Y-85740533D02*
X164142857Y-85883390D01*
X164142857Y-85883390D02*
X163571429Y-86454819D01*
X163571429Y-86454819D02*
X164190476Y-86454819D01*
D11*
X119789765Y-125741666D02*
X119801670Y-125753570D01*
X119801670Y-125753570D02*
X119813574Y-125789285D01*
X119813574Y-125789285D02*
X119813574Y-125813094D01*
X119813574Y-125813094D02*
X119801670Y-125848808D01*
X119801670Y-125848808D02*
X119777860Y-125872618D01*
X119777860Y-125872618D02*
X119754050Y-125884523D01*
X119754050Y-125884523D02*
X119706431Y-125896427D01*
X119706431Y-125896427D02*
X119670717Y-125896427D01*
X119670717Y-125896427D02*
X119623098Y-125884523D01*
X119623098Y-125884523D02*
X119599289Y-125872618D01*
X119599289Y-125872618D02*
X119575479Y-125848808D01*
X119575479Y-125848808D02*
X119563574Y-125813094D01*
X119563574Y-125813094D02*
X119563574Y-125789285D01*
X119563574Y-125789285D02*
X119575479Y-125753570D01*
X119575479Y-125753570D02*
X119587384Y-125741666D01*
X119813574Y-125503570D02*
X119813574Y-125646427D01*
X119813574Y-125574999D02*
X119563574Y-125574999D01*
X119563574Y-125574999D02*
X119599289Y-125598808D01*
X119599289Y-125598808D02*
X119623098Y-125622618D01*
X119623098Y-125622618D02*
X119635003Y-125646427D01*
D10*
X155238095Y-82454819D02*
X155809523Y-82454819D01*
X155523809Y-83454819D02*
X155523809Y-82454819D01*
X156142857Y-83454819D02*
X156142857Y-82454819D01*
X156142857Y-82454819D02*
X156523809Y-82454819D01*
X156523809Y-82454819D02*
X156619047Y-82502438D01*
X156619047Y-82502438D02*
X156666666Y-82550057D01*
X156666666Y-82550057D02*
X156714285Y-82645295D01*
X156714285Y-82645295D02*
X156714285Y-82788152D01*
X156714285Y-82788152D02*
X156666666Y-82883390D01*
X156666666Y-82883390D02*
X156619047Y-82931009D01*
X156619047Y-82931009D02*
X156523809Y-82978628D01*
X156523809Y-82978628D02*
X156142857Y-82978628D01*
X157047619Y-82454819D02*
X157666666Y-82454819D01*
X157666666Y-82454819D02*
X157333333Y-82835771D01*
X157333333Y-82835771D02*
X157476190Y-82835771D01*
X157476190Y-82835771D02*
X157571428Y-82883390D01*
X157571428Y-82883390D02*
X157619047Y-82931009D01*
X157619047Y-82931009D02*
X157666666Y-83026247D01*
X157666666Y-83026247D02*
X157666666Y-83264342D01*
X157666666Y-83264342D02*
X157619047Y-83359580D01*
X157619047Y-83359580D02*
X157571428Y-83407200D01*
X157571428Y-83407200D02*
X157476190Y-83454819D01*
X157476190Y-83454819D02*
X157190476Y-83454819D01*
X157190476Y-83454819D02*
X157095238Y-83407200D01*
X157095238Y-83407200D02*
X157047619Y-83359580D01*
X155018804Y-82954819D02*
X157891666Y-82954819D01*
D12*
%TO.C,J4*%
X189371000Y-120795000D02*
X190431000Y-120795000D01*
X189371000Y-121435000D02*
X189371000Y-120795000D01*
X189371000Y-123335000D02*
X190431000Y-123335000D01*
X189371000Y-123975000D02*
X189371000Y-123335000D01*
X190431000Y-119845000D02*
X195511000Y-119845000D01*
X190431000Y-121435000D02*
X189371000Y-121435000D01*
X190431000Y-123975000D02*
X189371000Y-123975000D01*
X190431000Y-124925000D02*
X190431000Y-119845000D01*
X194561000Y-124925000D02*
X190431000Y-124925000D01*
X195511000Y-119845000D02*
X195511000Y-123975000D01*
X195511000Y-121435000D02*
X196571000Y-121435000D01*
X195511000Y-123975000D02*
X194561000Y-124925000D01*
X195511000Y-123975000D02*
X196571000Y-123975000D01*
X196571000Y-120795000D02*
X195511000Y-120795000D01*
X196571000Y-121435000D02*
X196571000Y-120795000D01*
X196571000Y-123335000D02*
X195511000Y-123335000D01*
X196571000Y-123975000D02*
X196571000Y-123335000D01*
X151040000Y-133700000D02*
X151040000Y-134300000D01*
X151160000Y-134300000D02*
G75*
G02*
X151040000Y-134300000I-60000J0D01*
G01*
X151160000Y-134300000D02*
X151160000Y-133700000D01*
X151160000Y-133700000D02*
G75*
G03*
X151040000Y-133700000I-60000J0D01*
G01*
X151100000Y-134360000D02*
X154900000Y-134360000D01*
X154900000Y-134240000D02*
G75*
G02*
X154900000Y-134360000I0J-60000D01*
G01*
X154900000Y-134240000D02*
X151100000Y-134240000D01*
X151100000Y-134240000D02*
G75*
G03*
X151100000Y-134360000I0J-60000D01*
G01*
X154900000Y-133640000D02*
X151100000Y-133640000D01*
X151100000Y-133760000D02*
G75*
G02*
X151100000Y-133640000I0J60000D01*
G01*
X151100000Y-133760000D02*
X154900000Y-133760000D01*
X154900000Y-133760000D02*
G75*
G03*
X154900000Y-133640000I0J60000D01*
G01*
X154960000Y-134300000D02*
X154960000Y-133700000D01*
X154840000Y-133700000D02*
G75*
G02*
X154960000Y-133700000I60000J0D01*
G01*
X154840000Y-133700000D02*
X154840000Y-134300000D01*
X154840000Y-134300000D02*
G75*
G03*
X154960000Y-134300000I60000J0D01*
G01*
X161040000Y-133700000D02*
X161040000Y-134300000D01*
X161160000Y-134300000D02*
G75*
G02*
X161040000Y-134300000I-60000J0D01*
G01*
X161160000Y-134300000D02*
X161160000Y-133700000D01*
X161160000Y-133700000D02*
G75*
G03*
X161040000Y-133700000I-60000J0D01*
G01*
X161100000Y-134360000D02*
X164900000Y-134360000D01*
X164900000Y-134240000D02*
G75*
G02*
X164900000Y-134360000I0J-60000D01*
G01*
X164900000Y-134240000D02*
X161100000Y-134240000D01*
X161100000Y-134240000D02*
G75*
G03*
X161100000Y-134360000I0J-60000D01*
G01*
X164900000Y-133640000D02*
X161100000Y-133640000D01*
X161100000Y-133760000D02*
G75*
G02*
X161100000Y-133640000I0J60000D01*
G01*
X161100000Y-133760000D02*
X164900000Y-133760000D01*
X164900000Y-133760000D02*
G75*
G03*
X164900000Y-133640000I0J60000D01*
G01*
X164960000Y-134300000D02*
X164960000Y-133700000D01*
X164840000Y-133700000D02*
G75*
G02*
X164960000Y-133700000I60000J0D01*
G01*
X164840000Y-133700000D02*
X164840000Y-134300000D01*
X164840000Y-134300000D02*
G75*
G03*
X164960000Y-134300000I60000J0D01*
G01*
%TO.C,R3*%
X122675000Y-119730000D02*
X123725000Y-119730000D01*
X122675000Y-120270000D02*
X122675000Y-119730000D01*
X123725000Y-119730000D02*
X123725000Y-120270000D01*
X123725000Y-120270000D02*
X122675000Y-120270000D01*
X161040000Y-79700000D02*
X161040000Y-80300000D01*
X161160000Y-80300000D02*
G75*
G02*
X161040000Y-80300000I-60000J0D01*
G01*
X161160000Y-80300000D02*
X161160000Y-79700000D01*
X161160000Y-79700000D02*
G75*
G03*
X161040000Y-79700000I-60000J0D01*
G01*
X161100000Y-80360000D02*
X164900000Y-80360000D01*
X164900000Y-80240000D02*
G75*
G02*
X164900000Y-80360000I0J-60000D01*
G01*
X164900000Y-80240000D02*
X161100000Y-80240000D01*
X161100000Y-80240000D02*
G75*
G03*
X161100000Y-80360000I0J-60000D01*
G01*
X164900000Y-79640000D02*
X161100000Y-79640000D01*
X161100000Y-79760000D02*
G75*
G02*
X161100000Y-79640000I0J60000D01*
G01*
X161100000Y-79760000D02*
X164900000Y-79760000D01*
X164900000Y-79760000D02*
G75*
G03*
X164900000Y-79640000I0J60000D01*
G01*
X164960000Y-80300000D02*
X164960000Y-79700000D01*
X164840000Y-79700000D02*
G75*
G02*
X164960000Y-79700000I60000J0D01*
G01*
X164840000Y-79700000D02*
X164840000Y-80300000D01*
X164840000Y-80300000D02*
G75*
G03*
X164960000Y-80300000I60000J0D01*
G01*
%TO.C,R4*%
X152985000Y-111330000D02*
X154035000Y-111330000D01*
X152985000Y-111870000D02*
X152985000Y-111330000D01*
X154035000Y-111330000D02*
X154035000Y-111870000D01*
X154035000Y-111870000D02*
X152985000Y-111870000D01*
%TO.C,LD1*%
X151000001Y-85600000D02*
G75*
G02*
X151000000Y-86400000I-200001J-400000D01*
G01*
X151002786Y-85600000D02*
G75*
G02*
X151002786Y-86400000I2000000J-400000D01*
G01*
%TO.C,J1*%
X156300000Y-95500000D02*
X156600000Y-95500000D01*
X156300000Y-108500000D02*
X156600000Y-108500000D01*
X156500000Y-108500000D02*
X156300000Y-108500000D01*
X156600000Y-94000000D02*
X156600000Y-110000000D01*
X159400000Y-94000000D02*
X156600000Y-94000000D01*
X159400000Y-108500000D02*
X159700000Y-108500000D01*
X159400000Y-110000000D02*
X156600000Y-110000000D01*
X159400000Y-110000000D02*
X159400000Y-94000000D01*
X159700000Y-95500000D02*
X159400000Y-95500000D01*
X158900000Y-95100000D02*
X157150000Y-95100000D01*
X157150000Y-108900000D01*
X158900000Y-108900000D01*
X158900000Y-95100000D01*
X159700000Y-93700000D02*
X156300000Y-93700000D01*
X156300000Y-110300000D01*
X159700000Y-110300000D01*
X159700000Y-93700000D01*
%TO.C,R1*%
X121375000Y-120830000D02*
X122425000Y-120830000D01*
X121375000Y-121370000D02*
X121375000Y-120830000D01*
X122425000Y-120830000D02*
X122425000Y-121370000D01*
X122425000Y-121370000D02*
X121375000Y-121370000D01*
%TO.C,H1*%
X112600000Y-90400000D02*
X133000000Y-90400000D01*
X133000000Y-98800000D01*
X112600000Y-98800000D01*
X112600000Y-90400000D01*
%TO.C,U1*%
X120750000Y-123750000D02*
X125650000Y-123750000D01*
X120750000Y-126675000D02*
X120750000Y-123750000D01*
X121725000Y-127650000D02*
X120750000Y-126675000D01*
X125650000Y-123750000D02*
X125650000Y-127650000D01*
X125650000Y-127650000D02*
X121725000Y-127650000D01*
%TO.C,R2*%
X124075000Y-118530000D02*
X125125000Y-118530000D01*
X124075000Y-119070000D02*
X124075000Y-118530000D01*
X125125000Y-118530000D02*
X125125000Y-119070000D01*
X125125000Y-119070000D02*
X124075000Y-119070000D01*
%TO.C,LD2*%
X165650000Y-86000000D02*
G75*
G02*
X160350000Y-86000000I-2650000J0D01*
G01*
X160350000Y-86000000D02*
G75*
G02*
X165650000Y-86000000I2650000J0D01*
G01*
%TO.C,C1*%
X119450000Y-125200000D02*
X119950000Y-125200000D01*
X119450000Y-126200000D02*
X119450000Y-125200000D01*
X119950000Y-125200000D02*
X119950000Y-126200000D01*
X119950000Y-126200000D02*
X119450000Y-126200000D01*
X151040000Y-79700000D02*
X151040000Y-80300000D01*
X151160000Y-80300000D02*
G75*
G02*
X151040000Y-80300000I-60000J0D01*
G01*
X151160000Y-80300000D02*
X151160000Y-79700000D01*
X151160000Y-79700000D02*
G75*
G03*
X151040000Y-79700000I-60000J0D01*
G01*
X151100000Y-80360000D02*
X154900000Y-80360000D01*
X154900000Y-80240000D02*
G75*
G02*
X154900000Y-80360000I0J-60000D01*
G01*
X154900000Y-80240000D02*
X151100000Y-80240000D01*
X151100000Y-80240000D02*
G75*
G03*
X151100000Y-80360000I0J-60000D01*
G01*
X154900000Y-79640000D02*
X151100000Y-79640000D01*
X151100000Y-79760000D02*
G75*
G02*
X151100000Y-79640000I0J60000D01*
G01*
X151100000Y-79760000D02*
X154900000Y-79760000D01*
X154900000Y-79760000D02*
G75*
G03*
X154900000Y-79640000I0J60000D01*
G01*
X154960000Y-80300000D02*
X154960000Y-79700000D01*
X154840000Y-79700000D02*
G75*
G02*
X154960000Y-79700000I60000J0D01*
G01*
X154840000Y-79700000D02*
X154840000Y-80300000D01*
X154840000Y-80300000D02*
G75*
G03*
X154960000Y-80300000I60000J0D01*
G01*
%TD*%
X150075000Y-129354870D02*
X155925000Y-136925000D01*
X150075000Y-136925000D02*
X155925000Y-129354870D01*
X160075000Y-129354870D02*
X165925000Y-136925000D01*
X160075000Y-136925000D02*
X165925000Y-129354870D01*
X160075000Y-77075000D02*
X167809285Y-83549819D01*
X160075000Y-83549819D02*
X167809285Y-77075000D01*
X150075000Y-77075000D02*
X157766615Y-83554768D01*
X150075000Y-83554768D02*
X157766615Y-77075000D01*
M02*
