M48
; DRILL file {KiCad 9.0.7} date 2026-03-17T16:17:17+0000
; FORMAT={-:-/ absolute / inch / decimal}
; #@! TF.CreationDate,2026-03-17T16:17:17+00:00
; #@! TF.GenerationSoftware,Kicad,Pcbnew,9.0.7
; #@! TF.FileFunction,Plated,1,4,PTH
FMAT,2
INCH
; #@! TA.AperFunction,Plated,PTH,ViaDrill
T1C0.0118
; #@! TA.AperFunction,Plated,PTH,ComponentDrill
T2C0.0177
; #@! TA.AperFunction,Plated,PTH,ComponentDrill
T3C0.0276
; #@! TA.AperFunction,Plated,PTH,ComponentDrill
T4C0.0787
%
G90
G05
T1
X0.2008Y1.6772
X0.2075Y0.9646
X0.2165Y2.1772
X0.2283Y0.122
X0.3976Y0.8228
X0.4606Y0.5236
X0.4606Y0.5039
X0.5039Y0.6299
X0.5591Y0.685
X0.6083Y0.7343
X0.6732Y0.689
X0.6732Y0.6339
X0.7033Y0.8056
X0.7756Y0.8504
X0.8228Y1.4724
X0.8228Y0.1339
X0.8268Y1.7559
X0.8268Y1.1811
X0.8317Y2.0443
X0.8425Y0.876
X1.0079Y0.7874
X1.063Y2.2126
X1.1083Y1.4715
X1.1732Y0.4803
X1.1969Y1.7559
X1.2087Y1.189
X1.2146Y2.0679
X1.2874Y1.3878
X1.3346Y0.1575
X1.3878Y0.9006
X1.4685Y1.5876
X1.5551Y1.8888
X1.5787Y0.9488
X1.5906Y2.2008
X1.6289Y0.5627
X1.7185Y0.9921
X1.7717Y1.6929
X1.7717Y1.6535
X1.7717Y1.6142
X1.7717Y1.5748
X1.7717Y1.5157
X1.7717Y1.4764
X1.7717Y1.437
X1.7717Y1.3976
X1.7717Y1.3583
X1.7717Y1.3189
X1.7717Y1.2795
X1.7717Y1.2402
X1.7717Y1.1811
X1.7717Y1.1417
X1.7717Y1.1024
X1.7717Y1.063
X1.7874Y1.7756
X1.7874Y1.7126
X1.7874Y1.6732
X1.7874Y1.6339
X1.7874Y1.5945
X1.7874Y1.5354
X1.7874Y1.4961
X1.7874Y1.4567
X1.7874Y1.4173
X1.7874Y1.3386
X1.7874Y1.2992
X1.7874Y1.2598
X1.7874Y1.2205
X1.7874Y1.1614
X1.7874Y1.122
X1.7874Y1.0827
X1.7874Y1.0433
X1.8031Y1.0098
X1.8425Y0.8701
X1.8504Y1.6693
X1.8701Y1.0591
X1.878Y1.6614
X1.9055Y2.0827
X1.9094Y1.6693
X1.9094Y1.0906
X1.9094Y1.0276
X1.9685Y1.874
X1.9685Y1.626
X1.9685Y1.2087
X2.0079Y0.9921
X2.0118Y0.122
X2.0148Y0.5939
X2.0236Y1.0827
X2.0276Y1.6654
X2.0551Y1.0827
X2.122Y1.752
X2.1299Y2.311
X2.1299Y0.8622
X2.1496Y1.7126
X2.1496Y1.6732
X2.1496Y1.6339
X2.1496Y1.5945
X2.1496Y1.5354
X2.1496Y1.4961
X2.1496Y1.4567
X2.1496Y1.4173
X2.1496Y1.3366
X2.1496Y1.2972
X2.1496Y1.2579
X2.1496Y1.2185
X2.1496Y1.1594
X2.1496Y1.1201
X2.1496Y1.0807
X2.1496Y1.0413
X2.1654Y1.6929
X2.1654Y1.6535
X2.1654Y1.6142
X2.1654Y1.5748
X2.1654Y1.5157
X2.1654Y1.4764
X2.1654Y1.437
X2.1654Y1.3976
X2.1654Y1.3563
X2.1654Y1.3169
X2.1654Y1.2776
X2.1654Y1.2382
X2.1654Y1.1791
X2.1654Y1.1398
X2.1654Y1.1004
X2.1654Y1.061
X2.2244Y0.9961
X2.2441Y0.3465
X2.2756Y2.2244
X2.3268Y0.6929
X2.3612Y1.8868
X2.4252Y0.8839
X2.5433Y1.5827
X2.5589Y0.5113
X2.5797Y2.0571
X2.5984Y0.0787
X2.6496Y1.189
X2.6764Y0.8873
X2.7087Y1.7539
X2.7549Y1.3888
X2.7677Y0.7598
X2.8425Y2.1732
X2.9026Y1.4695
X2.9094Y0.9016
X2.9606Y0.4764
X2.9921Y0.1378
X3.0197Y0.7047
X3.0315Y2.3268
X3.0617Y1.7601
X3.0906Y0.8465
X3.0994Y2.06
X3.1181Y1.4724
X3.1299Y1.189
X3.1575Y0.6378
X3.248Y0.5906
X3.2559Y0.4409
X3.3346Y0.6063
X3.3346Y0.3504
X3.3958Y2.1672
X3.4016Y0.5669
X3.4134Y0.3937
X3.4134Y0.252
X3.5197Y0.5512
X3.5669Y2.0551
X3.578Y0.6254
X3.6772Y2.1378
X3.6811Y1.6614
X3.689Y1.2323
X3.7126Y0.7402
X3.8661Y2.2638
X3.878Y0.0906
X3.8819Y0.5394
X3.8996Y1.371
T2
X3.122Y0.437
X3.1496Y0.4646
X3.1496Y0.4094
T3
X3.5039Y0.437
X3.5433Y0.4764
X3.5433Y0.3976
T4
X3.1496Y0.0787
X3.5433Y0.0787
M30
