%TF.GenerationSoftware,KiCad,Pcbnew,9.0.3*%
%TF.CreationDate,2026-03-16T13:33:51-04:00*%
%TF.ProjectId,ephys-test-module-64,65706879-732d-4746-9573-742d6d6f6475,F*%
%TF.SameCoordinates,Original*%
%TF.FileFunction,Legend,Top*%
%TF.FilePolarity,Positive*%
%FSLAX46Y46*%
G04 Gerber Fmt 4.6, Leading zero omitted, Abs format (unit mm)*
G04 Created by KiCad (PCBNEW 9.0.3) date 2026-03-16 13:33:51*
%MOMM*%
%LPD*%
G01*
G04 APERTURE LIST*
%ADD10C,0.150000*%
%ADD11C,0.200000*%
%ADD12C,0.300000*%
%ADD13C,0.120000*%
%ADD14C,0.100000*%
G04 APERTURE END LIST*
D10*
X193314286Y-126354819D02*
X193314286Y-125354819D01*
X193314286Y-125354819D02*
X193885714Y-126354819D01*
X193885714Y-126354819D02*
X193885714Y-125354819D01*
X194933333Y-126259580D02*
X194885714Y-126307200D01*
X194885714Y-126307200D02*
X194742857Y-126354819D01*
X194742857Y-126354819D02*
X194647619Y-126354819D01*
X194647619Y-126354819D02*
X194504762Y-126307200D01*
X194504762Y-126307200D02*
X194409524Y-126211961D01*
X194409524Y-126211961D02*
X194361905Y-126116723D01*
X194361905Y-126116723D02*
X194314286Y-125926247D01*
X194314286Y-125926247D02*
X194314286Y-125783390D01*
X194314286Y-125783390D02*
X194361905Y-125592914D01*
X194361905Y-125592914D02*
X194409524Y-125497676D01*
X194409524Y-125497676D02*
X194504762Y-125402438D01*
X194504762Y-125402438D02*
X194647619Y-125354819D01*
X194647619Y-125354819D02*
X194742857Y-125354819D01*
X194742857Y-125354819D02*
X194885714Y-125402438D01*
X194885714Y-125402438D02*
X194933333Y-125450057D01*
X184014286Y-126354819D02*
X184014286Y-125354819D01*
X184014286Y-125354819D02*
X184585714Y-126354819D01*
X184585714Y-126354819D02*
X184585714Y-125354819D01*
X185633333Y-126259580D02*
X185585714Y-126307200D01*
X185585714Y-126307200D02*
X185442857Y-126354819D01*
X185442857Y-126354819D02*
X185347619Y-126354819D01*
X185347619Y-126354819D02*
X185204762Y-126307200D01*
X185204762Y-126307200D02*
X185109524Y-126211961D01*
X185109524Y-126211961D02*
X185061905Y-126116723D01*
X185061905Y-126116723D02*
X185014286Y-125926247D01*
X185014286Y-125926247D02*
X185014286Y-125783390D01*
X185014286Y-125783390D02*
X185061905Y-125592914D01*
X185061905Y-125592914D02*
X185109524Y-125497676D01*
X185109524Y-125497676D02*
X185204762Y-125402438D01*
X185204762Y-125402438D02*
X185347619Y-125354819D01*
X185347619Y-125354819D02*
X185442857Y-125354819D01*
X185442857Y-125354819D02*
X185585714Y-125402438D01*
X185585714Y-125402438D02*
X185633333Y-125450057D01*
X200257143Y-128954819D02*
X200257143Y-127954819D01*
X200828571Y-128954819D02*
X200400000Y-128383390D01*
X200828571Y-127954819D02*
X200257143Y-128526247D01*
X201628571Y-129065295D02*
X201171428Y-129065295D01*
X201400000Y-129065295D02*
X201400000Y-128265295D01*
X201400000Y-128265295D02*
X201323809Y-128379580D01*
X201323809Y-128379580D02*
X201247619Y-128455771D01*
X201247619Y-128455771D02*
X201171428Y-128493866D01*
X189857143Y-128454819D02*
X189857143Y-127454819D01*
X190428571Y-128454819D02*
X190000000Y-127883390D01*
X190428571Y-127454819D02*
X189857143Y-128026247D01*
X190961905Y-127765295D02*
X191038095Y-127765295D01*
X191038095Y-127765295D02*
X191114286Y-127803390D01*
X191114286Y-127803390D02*
X191152381Y-127841485D01*
X191152381Y-127841485D02*
X191190476Y-127917676D01*
X191190476Y-127917676D02*
X191228571Y-128070057D01*
X191228571Y-128070057D02*
X191228571Y-128260533D01*
X191228571Y-128260533D02*
X191190476Y-128412914D01*
X191190476Y-128412914D02*
X191152381Y-128489104D01*
X191152381Y-128489104D02*
X191114286Y-128527200D01*
X191114286Y-128527200D02*
X191038095Y-128565295D01*
X191038095Y-128565295D02*
X190961905Y-128565295D01*
X190961905Y-128565295D02*
X190885714Y-128527200D01*
X190885714Y-128527200D02*
X190847619Y-128489104D01*
X190847619Y-128489104D02*
X190809524Y-128412914D01*
X190809524Y-128412914D02*
X190771428Y-128260533D01*
X190771428Y-128260533D02*
X190771428Y-128070057D01*
X190771428Y-128070057D02*
X190809524Y-127917676D01*
X190809524Y-127917676D02*
X190847619Y-127841485D01*
X190847619Y-127841485D02*
X190885714Y-127803390D01*
X190885714Y-127803390D02*
X190961905Y-127765295D01*
X200161905Y-123269104D02*
X200638095Y-123269104D01*
X200066667Y-123554819D02*
X200400000Y-122554819D01*
X200400000Y-122554819D02*
X200733333Y-123554819D01*
X190061905Y-124169104D02*
X190538095Y-124169104D01*
X189966667Y-124454819D02*
X190300000Y-123454819D01*
X190300000Y-123454819D02*
X190633333Y-124454819D01*
D11*
X198859524Y-118732909D02*
X198735714Y-118671004D01*
X198735714Y-118671004D02*
X198550000Y-118671004D01*
X198550000Y-118671004D02*
X198364286Y-118732909D01*
X198364286Y-118732909D02*
X198240476Y-118856719D01*
X198240476Y-118856719D02*
X198178571Y-118980528D01*
X198178571Y-118980528D02*
X198116667Y-119228147D01*
X198116667Y-119228147D02*
X198116667Y-119413861D01*
X198116667Y-119413861D02*
X198178571Y-119661480D01*
X198178571Y-119661480D02*
X198240476Y-119785290D01*
X198240476Y-119785290D02*
X198364286Y-119909100D01*
X198364286Y-119909100D02*
X198550000Y-119971004D01*
X198550000Y-119971004D02*
X198673809Y-119971004D01*
X198673809Y-119971004D02*
X198859524Y-119909100D01*
X198859524Y-119909100D02*
X198921428Y-119847195D01*
X198921428Y-119847195D02*
X198921428Y-119413861D01*
X198921428Y-119413861D02*
X198673809Y-119413861D01*
X199478571Y-119971004D02*
X199478571Y-118671004D01*
X199478571Y-118671004D02*
X200221428Y-119971004D01*
X200221428Y-119971004D02*
X200221428Y-118671004D01*
X200840476Y-119971004D02*
X200840476Y-118671004D01*
X200840476Y-118671004D02*
X201150000Y-118671004D01*
X201150000Y-118671004D02*
X201335714Y-118732909D01*
X201335714Y-118732909D02*
X201459524Y-118856719D01*
X201459524Y-118856719D02*
X201521429Y-118980528D01*
X201521429Y-118980528D02*
X201583333Y-119228147D01*
X201583333Y-119228147D02*
X201583333Y-119413861D01*
X201583333Y-119413861D02*
X201521429Y-119661480D01*
X201521429Y-119661480D02*
X201459524Y-119785290D01*
X201459524Y-119785290D02*
X201335714Y-119909100D01*
X201335714Y-119909100D02*
X201150000Y-119971004D01*
X201150000Y-119971004D02*
X200840476Y-119971004D01*
X187214286Y-119599576D02*
X187833333Y-119599576D01*
X187090476Y-119971004D02*
X187523809Y-118671004D01*
X187523809Y-118671004D02*
X187957143Y-119971004D01*
X186074000Y-117431004D02*
X186074000Y-116131004D01*
X186816857Y-117431004D02*
X186259715Y-116688147D01*
X186816857Y-116131004D02*
X186074000Y-116873861D01*
X187856857Y-117574623D02*
X187262572Y-117574623D01*
X187559715Y-117574623D02*
X187559715Y-116534623D01*
X187559715Y-116534623D02*
X187460667Y-116683195D01*
X187460667Y-116683195D02*
X187361619Y-116782242D01*
X187361619Y-116782242D02*
X187262572Y-116831766D01*
X186074000Y-114931004D02*
X186074000Y-113631004D01*
X186816857Y-114931004D02*
X186259715Y-114188147D01*
X186816857Y-113631004D02*
X186074000Y-114373861D01*
X187510191Y-114034623D02*
X187609238Y-114034623D01*
X187609238Y-114034623D02*
X187708286Y-114084147D01*
X187708286Y-114084147D02*
X187757810Y-114133671D01*
X187757810Y-114133671D02*
X187807334Y-114232719D01*
X187807334Y-114232719D02*
X187856857Y-114430814D01*
X187856857Y-114430814D02*
X187856857Y-114678433D01*
X187856857Y-114678433D02*
X187807334Y-114876528D01*
X187807334Y-114876528D02*
X187757810Y-114975576D01*
X187757810Y-114975576D02*
X187708286Y-115025100D01*
X187708286Y-115025100D02*
X187609238Y-115074623D01*
X187609238Y-115074623D02*
X187510191Y-115074623D01*
X187510191Y-115074623D02*
X187411143Y-115025100D01*
X187411143Y-115025100D02*
X187361619Y-114975576D01*
X187361619Y-114975576D02*
X187312096Y-114876528D01*
X187312096Y-114876528D02*
X187262572Y-114678433D01*
X187262572Y-114678433D02*
X187262572Y-114430814D01*
X187262572Y-114430814D02*
X187312096Y-114232719D01*
X187312096Y-114232719D02*
X187361619Y-114133671D01*
X187361619Y-114133671D02*
X187411143Y-114084147D01*
X187411143Y-114084147D02*
X187510191Y-114034623D01*
X198859524Y-113592909D02*
X198735714Y-113531004D01*
X198735714Y-113531004D02*
X198550000Y-113531004D01*
X198550000Y-113531004D02*
X198364286Y-113592909D01*
X198364286Y-113592909D02*
X198240476Y-113716719D01*
X198240476Y-113716719D02*
X198178571Y-113840528D01*
X198178571Y-113840528D02*
X198116667Y-114088147D01*
X198116667Y-114088147D02*
X198116667Y-114273861D01*
X198116667Y-114273861D02*
X198178571Y-114521480D01*
X198178571Y-114521480D02*
X198240476Y-114645290D01*
X198240476Y-114645290D02*
X198364286Y-114769100D01*
X198364286Y-114769100D02*
X198550000Y-114831004D01*
X198550000Y-114831004D02*
X198673809Y-114831004D01*
X198673809Y-114831004D02*
X198859524Y-114769100D01*
X198859524Y-114769100D02*
X198921428Y-114707195D01*
X198921428Y-114707195D02*
X198921428Y-114273861D01*
X198921428Y-114273861D02*
X198673809Y-114273861D01*
X199478571Y-114831004D02*
X199478571Y-113531004D01*
X199478571Y-113531004D02*
X200221428Y-114831004D01*
X200221428Y-114831004D02*
X200221428Y-113531004D01*
X200840476Y-114831004D02*
X200840476Y-113531004D01*
X200840476Y-113531004D02*
X201150000Y-113531004D01*
X201150000Y-113531004D02*
X201335714Y-113592909D01*
X201335714Y-113592909D02*
X201459524Y-113716719D01*
X201459524Y-113716719D02*
X201521429Y-113840528D01*
X201521429Y-113840528D02*
X201583333Y-114088147D01*
X201583333Y-114088147D02*
X201583333Y-114273861D01*
X201583333Y-114273861D02*
X201521429Y-114521480D01*
X201521429Y-114521480D02*
X201459524Y-114645290D01*
X201459524Y-114645290D02*
X201335714Y-114769100D01*
X201335714Y-114769100D02*
X201150000Y-114831004D01*
X201150000Y-114831004D02*
X200840476Y-114831004D01*
X198859524Y-116092909D02*
X198735714Y-116031004D01*
X198735714Y-116031004D02*
X198550000Y-116031004D01*
X198550000Y-116031004D02*
X198364286Y-116092909D01*
X198364286Y-116092909D02*
X198240476Y-116216719D01*
X198240476Y-116216719D02*
X198178571Y-116340528D01*
X198178571Y-116340528D02*
X198116667Y-116588147D01*
X198116667Y-116588147D02*
X198116667Y-116773861D01*
X198116667Y-116773861D02*
X198178571Y-117021480D01*
X198178571Y-117021480D02*
X198240476Y-117145290D01*
X198240476Y-117145290D02*
X198364286Y-117269100D01*
X198364286Y-117269100D02*
X198550000Y-117331004D01*
X198550000Y-117331004D02*
X198673809Y-117331004D01*
X198673809Y-117331004D02*
X198859524Y-117269100D01*
X198859524Y-117269100D02*
X198921428Y-117207195D01*
X198921428Y-117207195D02*
X198921428Y-116773861D01*
X198921428Y-116773861D02*
X198673809Y-116773861D01*
X199478571Y-117331004D02*
X199478571Y-116031004D01*
X199478571Y-116031004D02*
X200221428Y-117331004D01*
X200221428Y-117331004D02*
X200221428Y-116031004D01*
X200840476Y-117331004D02*
X200840476Y-116031004D01*
X200840476Y-116031004D02*
X201150000Y-116031004D01*
X201150000Y-116031004D02*
X201335714Y-116092909D01*
X201335714Y-116092909D02*
X201459524Y-116216719D01*
X201459524Y-116216719D02*
X201521429Y-116340528D01*
X201521429Y-116340528D02*
X201583333Y-116588147D01*
X201583333Y-116588147D02*
X201583333Y-116773861D01*
X201583333Y-116773861D02*
X201521429Y-117021480D01*
X201521429Y-117021480D02*
X201459524Y-117145290D01*
X201459524Y-117145290D02*
X201335714Y-117269100D01*
X201335714Y-117269100D02*
X201150000Y-117331004D01*
X201150000Y-117331004D02*
X200840476Y-117331004D01*
D10*
X166002777Y-102000000D02*
G75*
G02*
X147997223Y-102000000I-9002777J0D01*
G01*
X147997223Y-102000000D02*
G75*
G02*
X166002777Y-102000000I9002777J0D01*
G01*
X161528990Y-100512856D02*
X161528990Y-100179523D01*
X161005180Y-100179523D02*
X162005180Y-100179523D01*
X162005180Y-100179523D02*
X162005180Y-100655713D01*
X161005180Y-101036666D02*
X161671847Y-101036666D01*
X161481371Y-101036666D02*
X161576609Y-101084285D01*
X161576609Y-101084285D02*
X161624228Y-101131904D01*
X161624228Y-101131904D02*
X161671847Y-101227142D01*
X161671847Y-101227142D02*
X161671847Y-101322380D01*
X161005180Y-101798571D02*
X161052800Y-101703333D01*
X161052800Y-101703333D02*
X161100419Y-101655714D01*
X161100419Y-101655714D02*
X161195657Y-101608095D01*
X161195657Y-101608095D02*
X161481371Y-101608095D01*
X161481371Y-101608095D02*
X161576609Y-101655714D01*
X161576609Y-101655714D02*
X161624228Y-101703333D01*
X161624228Y-101703333D02*
X161671847Y-101798571D01*
X161671847Y-101798571D02*
X161671847Y-101941428D01*
X161671847Y-101941428D02*
X161624228Y-102036666D01*
X161624228Y-102036666D02*
X161576609Y-102084285D01*
X161576609Y-102084285D02*
X161481371Y-102131904D01*
X161481371Y-102131904D02*
X161195657Y-102131904D01*
X161195657Y-102131904D02*
X161100419Y-102084285D01*
X161100419Y-102084285D02*
X161052800Y-102036666D01*
X161052800Y-102036666D02*
X161005180Y-101941428D01*
X161005180Y-101941428D02*
X161005180Y-101798571D01*
X161671847Y-102560476D02*
X161005180Y-102560476D01*
X161576609Y-102560476D02*
X161624228Y-102608095D01*
X161624228Y-102608095D02*
X161671847Y-102703333D01*
X161671847Y-102703333D02*
X161671847Y-102846190D01*
X161671847Y-102846190D02*
X161624228Y-102941428D01*
X161624228Y-102941428D02*
X161528990Y-102989047D01*
X161528990Y-102989047D02*
X161005180Y-102989047D01*
X161671847Y-103322381D02*
X161671847Y-103703333D01*
X162005180Y-103465238D02*
X161148038Y-103465238D01*
X161148038Y-103465238D02*
X161052800Y-103512857D01*
X161052800Y-103512857D02*
X161005180Y-103608095D01*
X161005180Y-103608095D02*
X161005180Y-103703333D01*
D11*
X198859524Y-108612909D02*
X198735714Y-108551004D01*
X198735714Y-108551004D02*
X198550000Y-108551004D01*
X198550000Y-108551004D02*
X198364286Y-108612909D01*
X198364286Y-108612909D02*
X198240476Y-108736719D01*
X198240476Y-108736719D02*
X198178571Y-108860528D01*
X198178571Y-108860528D02*
X198116667Y-109108147D01*
X198116667Y-109108147D02*
X198116667Y-109293861D01*
X198116667Y-109293861D02*
X198178571Y-109541480D01*
X198178571Y-109541480D02*
X198240476Y-109665290D01*
X198240476Y-109665290D02*
X198364286Y-109789100D01*
X198364286Y-109789100D02*
X198550000Y-109851004D01*
X198550000Y-109851004D02*
X198673809Y-109851004D01*
X198673809Y-109851004D02*
X198859524Y-109789100D01*
X198859524Y-109789100D02*
X198921428Y-109727195D01*
X198921428Y-109727195D02*
X198921428Y-109293861D01*
X198921428Y-109293861D02*
X198673809Y-109293861D01*
X199478571Y-109851004D02*
X199478571Y-108551004D01*
X199478571Y-108551004D02*
X200221428Y-109851004D01*
X200221428Y-109851004D02*
X200221428Y-108551004D01*
X200840476Y-109851004D02*
X200840476Y-108551004D01*
X200840476Y-108551004D02*
X201150000Y-108551004D01*
X201150000Y-108551004D02*
X201335714Y-108612909D01*
X201335714Y-108612909D02*
X201459524Y-108736719D01*
X201459524Y-108736719D02*
X201521429Y-108860528D01*
X201521429Y-108860528D02*
X201583333Y-109108147D01*
X201583333Y-109108147D02*
X201583333Y-109293861D01*
X201583333Y-109293861D02*
X201521429Y-109541480D01*
X201521429Y-109541480D02*
X201459524Y-109665290D01*
X201459524Y-109665290D02*
X201335714Y-109789100D01*
X201335714Y-109789100D02*
X201150000Y-109851004D01*
X201150000Y-109851004D02*
X200840476Y-109851004D01*
D10*
X154953990Y-100760714D02*
X154906371Y-100903571D01*
X154906371Y-100903571D02*
X154858752Y-100951190D01*
X154858752Y-100951190D02*
X154763514Y-100998809D01*
X154763514Y-100998809D02*
X154620657Y-100998809D01*
X154620657Y-100998809D02*
X154525419Y-100951190D01*
X154525419Y-100951190D02*
X154477800Y-100903571D01*
X154477800Y-100903571D02*
X154430180Y-100808333D01*
X154430180Y-100808333D02*
X154430180Y-100427381D01*
X154430180Y-100427381D02*
X155430180Y-100427381D01*
X155430180Y-100427381D02*
X155430180Y-100760714D01*
X155430180Y-100760714D02*
X155382561Y-100855952D01*
X155382561Y-100855952D02*
X155334942Y-100903571D01*
X155334942Y-100903571D02*
X155239704Y-100951190D01*
X155239704Y-100951190D02*
X155144466Y-100951190D01*
X155144466Y-100951190D02*
X155049228Y-100903571D01*
X155049228Y-100903571D02*
X155001609Y-100855952D01*
X155001609Y-100855952D02*
X154953990Y-100760714D01*
X154953990Y-100760714D02*
X154953990Y-100427381D01*
X154430180Y-101855952D02*
X154953990Y-101855952D01*
X154953990Y-101855952D02*
X155049228Y-101808333D01*
X155049228Y-101808333D02*
X155096847Y-101713095D01*
X155096847Y-101713095D02*
X155096847Y-101522619D01*
X155096847Y-101522619D02*
X155049228Y-101427381D01*
X154477800Y-101855952D02*
X154430180Y-101760714D01*
X154430180Y-101760714D02*
X154430180Y-101522619D01*
X154430180Y-101522619D02*
X154477800Y-101427381D01*
X154477800Y-101427381D02*
X154573038Y-101379762D01*
X154573038Y-101379762D02*
X154668276Y-101379762D01*
X154668276Y-101379762D02*
X154763514Y-101427381D01*
X154763514Y-101427381D02*
X154811133Y-101522619D01*
X154811133Y-101522619D02*
X154811133Y-101760714D01*
X154811133Y-101760714D02*
X154858752Y-101855952D01*
X154477800Y-102760714D02*
X154430180Y-102665476D01*
X154430180Y-102665476D02*
X154430180Y-102475000D01*
X154430180Y-102475000D02*
X154477800Y-102379762D01*
X154477800Y-102379762D02*
X154525419Y-102332143D01*
X154525419Y-102332143D02*
X154620657Y-102284524D01*
X154620657Y-102284524D02*
X154906371Y-102284524D01*
X154906371Y-102284524D02*
X155001609Y-102332143D01*
X155001609Y-102332143D02*
X155049228Y-102379762D01*
X155049228Y-102379762D02*
X155096847Y-102475000D01*
X155096847Y-102475000D02*
X155096847Y-102665476D01*
X155096847Y-102665476D02*
X155049228Y-102760714D01*
X154430180Y-103189286D02*
X155430180Y-103189286D01*
X154811133Y-103284524D02*
X154430180Y-103570238D01*
X155096847Y-103570238D02*
X154715895Y-103189286D01*
D11*
X185357142Y-109951004D02*
X184923809Y-109331957D01*
X184614285Y-109951004D02*
X184614285Y-108651004D01*
X184614285Y-108651004D02*
X185109523Y-108651004D01*
X185109523Y-108651004D02*
X185233333Y-108712909D01*
X185233333Y-108712909D02*
X185295238Y-108774814D01*
X185295238Y-108774814D02*
X185357142Y-108898623D01*
X185357142Y-108898623D02*
X185357142Y-109084338D01*
X185357142Y-109084338D02*
X185295238Y-109208147D01*
X185295238Y-109208147D02*
X185233333Y-109270052D01*
X185233333Y-109270052D02*
X185109523Y-109331957D01*
X185109523Y-109331957D02*
X184614285Y-109331957D01*
X185914285Y-109270052D02*
X186347619Y-109270052D01*
X186533333Y-109951004D02*
X185914285Y-109951004D01*
X185914285Y-109951004D02*
X185914285Y-108651004D01*
X185914285Y-108651004D02*
X186533333Y-108651004D01*
X187523809Y-109270052D02*
X187090475Y-109270052D01*
X187090475Y-109951004D02*
X187090475Y-108651004D01*
X187090475Y-108651004D02*
X187709523Y-108651004D01*
X185109524Y-111212909D02*
X184985714Y-111151004D01*
X184985714Y-111151004D02*
X184800000Y-111151004D01*
X184800000Y-111151004D02*
X184614286Y-111212909D01*
X184614286Y-111212909D02*
X184490476Y-111336719D01*
X184490476Y-111336719D02*
X184428571Y-111460528D01*
X184428571Y-111460528D02*
X184366667Y-111708147D01*
X184366667Y-111708147D02*
X184366667Y-111893861D01*
X184366667Y-111893861D02*
X184428571Y-112141480D01*
X184428571Y-112141480D02*
X184490476Y-112265290D01*
X184490476Y-112265290D02*
X184614286Y-112389100D01*
X184614286Y-112389100D02*
X184800000Y-112451004D01*
X184800000Y-112451004D02*
X184923809Y-112451004D01*
X184923809Y-112451004D02*
X185109524Y-112389100D01*
X185109524Y-112389100D02*
X185171428Y-112327195D01*
X185171428Y-112327195D02*
X185171428Y-111893861D01*
X185171428Y-111893861D02*
X184923809Y-111893861D01*
X185728571Y-112451004D02*
X185728571Y-111151004D01*
X185728571Y-111151004D02*
X186471428Y-112451004D01*
X186471428Y-112451004D02*
X186471428Y-111151004D01*
X187090476Y-112451004D02*
X187090476Y-111151004D01*
X187090476Y-111151004D02*
X187400000Y-111151004D01*
X187400000Y-111151004D02*
X187585714Y-111212909D01*
X187585714Y-111212909D02*
X187709524Y-111336719D01*
X187709524Y-111336719D02*
X187771429Y-111460528D01*
X187771429Y-111460528D02*
X187833333Y-111708147D01*
X187833333Y-111708147D02*
X187833333Y-111893861D01*
X187833333Y-111893861D02*
X187771429Y-112141480D01*
X187771429Y-112141480D02*
X187709524Y-112265290D01*
X187709524Y-112265290D02*
X187585714Y-112389100D01*
X187585714Y-112389100D02*
X187400000Y-112451004D01*
X187400000Y-112451004D02*
X187090476Y-112451004D01*
X197129524Y-131592409D02*
X197005714Y-131530504D01*
X197005714Y-131530504D02*
X196820000Y-131530504D01*
X196820000Y-131530504D02*
X196634286Y-131592409D01*
X196634286Y-131592409D02*
X196510476Y-131716219D01*
X196510476Y-131716219D02*
X196448571Y-131840028D01*
X196448571Y-131840028D02*
X196386667Y-132087647D01*
X196386667Y-132087647D02*
X196386667Y-132273361D01*
X196386667Y-132273361D02*
X196448571Y-132520980D01*
X196448571Y-132520980D02*
X196510476Y-132644790D01*
X196510476Y-132644790D02*
X196634286Y-132768600D01*
X196634286Y-132768600D02*
X196820000Y-132830504D01*
X196820000Y-132830504D02*
X196943809Y-132830504D01*
X196943809Y-132830504D02*
X197129524Y-132768600D01*
X197129524Y-132768600D02*
X197191428Y-132706695D01*
X197191428Y-132706695D02*
X197191428Y-132273361D01*
X197191428Y-132273361D02*
X196943809Y-132273361D01*
X197748571Y-132830504D02*
X197748571Y-131530504D01*
X197748571Y-131530504D02*
X198491428Y-132830504D01*
X198491428Y-132830504D02*
X198491428Y-131530504D01*
X199110476Y-132830504D02*
X199110476Y-131530504D01*
X199110476Y-131530504D02*
X199420000Y-131530504D01*
X199420000Y-131530504D02*
X199605714Y-131592409D01*
X199605714Y-131592409D02*
X199729524Y-131716219D01*
X199729524Y-131716219D02*
X199791429Y-131840028D01*
X199791429Y-131840028D02*
X199853333Y-132087647D01*
X199853333Y-132087647D02*
X199853333Y-132273361D01*
X199853333Y-132273361D02*
X199791429Y-132520980D01*
X199791429Y-132520980D02*
X199729524Y-132644790D01*
X199729524Y-132644790D02*
X199605714Y-132768600D01*
X199605714Y-132768600D02*
X199420000Y-132830504D01*
X199420000Y-132830504D02*
X199110476Y-132830504D01*
X198859524Y-111112909D02*
X198735714Y-111051004D01*
X198735714Y-111051004D02*
X198550000Y-111051004D01*
X198550000Y-111051004D02*
X198364286Y-111112909D01*
X198364286Y-111112909D02*
X198240476Y-111236719D01*
X198240476Y-111236719D02*
X198178571Y-111360528D01*
X198178571Y-111360528D02*
X198116667Y-111608147D01*
X198116667Y-111608147D02*
X198116667Y-111793861D01*
X198116667Y-111793861D02*
X198178571Y-112041480D01*
X198178571Y-112041480D02*
X198240476Y-112165290D01*
X198240476Y-112165290D02*
X198364286Y-112289100D01*
X198364286Y-112289100D02*
X198550000Y-112351004D01*
X198550000Y-112351004D02*
X198673809Y-112351004D01*
X198673809Y-112351004D02*
X198859524Y-112289100D01*
X198859524Y-112289100D02*
X198921428Y-112227195D01*
X198921428Y-112227195D02*
X198921428Y-111793861D01*
X198921428Y-111793861D02*
X198673809Y-111793861D01*
X199478571Y-112351004D02*
X199478571Y-111051004D01*
X199478571Y-111051004D02*
X200221428Y-112351004D01*
X200221428Y-112351004D02*
X200221428Y-111051004D01*
X200840476Y-112351004D02*
X200840476Y-111051004D01*
X200840476Y-111051004D02*
X201150000Y-111051004D01*
X201150000Y-111051004D02*
X201335714Y-111112909D01*
X201335714Y-111112909D02*
X201459524Y-111236719D01*
X201459524Y-111236719D02*
X201521429Y-111360528D01*
X201521429Y-111360528D02*
X201583333Y-111608147D01*
X201583333Y-111608147D02*
X201583333Y-111793861D01*
X201583333Y-111793861D02*
X201521429Y-112041480D01*
X201521429Y-112041480D02*
X201459524Y-112165290D01*
X201459524Y-112165290D02*
X201335714Y-112289100D01*
X201335714Y-112289100D02*
X201150000Y-112351004D01*
X201150000Y-112351004D02*
X200840476Y-112351004D01*
X185793333Y-129437577D02*
X186226666Y-130737577D01*
X186226666Y-130737577D02*
X186660000Y-129437577D01*
X186981905Y-130831673D02*
X187130476Y-130881196D01*
X187130476Y-130881196D02*
X187378095Y-130881196D01*
X187378095Y-130881196D02*
X187477143Y-130831673D01*
X187477143Y-130831673D02*
X187526667Y-130782149D01*
X187526667Y-130782149D02*
X187576190Y-130683101D01*
X187576190Y-130683101D02*
X187576190Y-130584053D01*
X187576190Y-130584053D02*
X187526667Y-130485006D01*
X187526667Y-130485006D02*
X187477143Y-130435482D01*
X187477143Y-130435482D02*
X187378095Y-130385958D01*
X187378095Y-130385958D02*
X187180000Y-130336434D01*
X187180000Y-130336434D02*
X187080952Y-130286911D01*
X187080952Y-130286911D02*
X187031429Y-130237387D01*
X187031429Y-130237387D02*
X186981905Y-130138339D01*
X186981905Y-130138339D02*
X186981905Y-130039292D01*
X186981905Y-130039292D02*
X187031429Y-129940244D01*
X187031429Y-129940244D02*
X187080952Y-129890720D01*
X187080952Y-129890720D02*
X187180000Y-129841196D01*
X187180000Y-129841196D02*
X187427619Y-129841196D01*
X187427619Y-129841196D02*
X187576190Y-129890720D01*
X187873333Y-130187863D02*
X188269524Y-130187863D01*
X188021905Y-129841196D02*
X188021905Y-130732625D01*
X188021905Y-130732625D02*
X188071428Y-130831673D01*
X188071428Y-130831673D02*
X188170476Y-130881196D01*
X188170476Y-130881196D02*
X188269524Y-130881196D01*
X188616191Y-130881196D02*
X188616191Y-130187863D01*
X188616191Y-129841196D02*
X188566667Y-129890720D01*
X188566667Y-129890720D02*
X188616191Y-129940244D01*
X188616191Y-129940244D02*
X188665714Y-129890720D01*
X188665714Y-129890720D02*
X188616191Y-129841196D01*
X188616191Y-129841196D02*
X188616191Y-129940244D01*
X189111429Y-130881196D02*
X189111429Y-130187863D01*
X189111429Y-130286911D02*
X189160952Y-130237387D01*
X189160952Y-130237387D02*
X189260000Y-130187863D01*
X189260000Y-130187863D02*
X189408571Y-130187863D01*
X189408571Y-130187863D02*
X189507619Y-130237387D01*
X189507619Y-130237387D02*
X189557143Y-130336434D01*
X189557143Y-130336434D02*
X189557143Y-130881196D01*
X189557143Y-130336434D02*
X189606667Y-130237387D01*
X189606667Y-130237387D02*
X189705714Y-130187863D01*
X189705714Y-130187863D02*
X189854286Y-130187863D01*
X189854286Y-130187863D02*
X189953333Y-130237387D01*
X189953333Y-130237387D02*
X190002857Y-130336434D01*
X190002857Y-130336434D02*
X190002857Y-130881196D01*
X183038571Y-133325742D02*
X182976666Y-133263838D01*
X182976666Y-133263838D02*
X182852857Y-133078123D01*
X182852857Y-133078123D02*
X182790952Y-132954314D01*
X182790952Y-132954314D02*
X182729047Y-132768600D01*
X182729047Y-132768600D02*
X182667142Y-132459076D01*
X182667142Y-132459076D02*
X182667142Y-132211457D01*
X182667142Y-132211457D02*
X182729047Y-131901933D01*
X182729047Y-131901933D02*
X182790952Y-131716219D01*
X182790952Y-131716219D02*
X182852857Y-131592409D01*
X182852857Y-131592409D02*
X182976666Y-131406695D01*
X182976666Y-131406695D02*
X183038571Y-131344790D01*
X183533809Y-132830504D02*
X183533809Y-131530504D01*
X184041429Y-132924600D02*
X184190000Y-132974123D01*
X184190000Y-132974123D02*
X184437619Y-132974123D01*
X184437619Y-132974123D02*
X184536667Y-132924600D01*
X184536667Y-132924600D02*
X184586191Y-132875076D01*
X184586191Y-132875076D02*
X184635714Y-132776028D01*
X184635714Y-132776028D02*
X184635714Y-132676980D01*
X184635714Y-132676980D02*
X184586191Y-132577933D01*
X184586191Y-132577933D02*
X184536667Y-132528409D01*
X184536667Y-132528409D02*
X184437619Y-132478885D01*
X184437619Y-132478885D02*
X184239524Y-132429361D01*
X184239524Y-132429361D02*
X184140476Y-132379838D01*
X184140476Y-132379838D02*
X184090953Y-132330314D01*
X184090953Y-132330314D02*
X184041429Y-132231266D01*
X184041429Y-132231266D02*
X184041429Y-132132219D01*
X184041429Y-132132219D02*
X184090953Y-132033171D01*
X184090953Y-132033171D02*
X184140476Y-131983647D01*
X184140476Y-131983647D02*
X184239524Y-131934123D01*
X184239524Y-131934123D02*
X184487143Y-131934123D01*
X184487143Y-131934123D02*
X184635714Y-131983647D01*
X184932857Y-132280790D02*
X185329048Y-132280790D01*
X185081429Y-131934123D02*
X185081429Y-132825552D01*
X185081429Y-132825552D02*
X185130952Y-132924600D01*
X185130952Y-132924600D02*
X185230000Y-132974123D01*
X185230000Y-132974123D02*
X185329048Y-132974123D01*
X185675715Y-132974123D02*
X185675715Y-132280790D01*
X185675715Y-131934123D02*
X185626191Y-131983647D01*
X185626191Y-131983647D02*
X185675715Y-132033171D01*
X185675715Y-132033171D02*
X185725238Y-131983647D01*
X185725238Y-131983647D02*
X185675715Y-131934123D01*
X185675715Y-131934123D02*
X185675715Y-132033171D01*
X186170953Y-132974123D02*
X186170953Y-132280790D01*
X186170953Y-132379838D02*
X186220476Y-132330314D01*
X186220476Y-132330314D02*
X186319524Y-132280790D01*
X186319524Y-132280790D02*
X186468095Y-132280790D01*
X186468095Y-132280790D02*
X186567143Y-132330314D01*
X186567143Y-132330314D02*
X186616667Y-132429361D01*
X186616667Y-132429361D02*
X186616667Y-132974123D01*
X186616667Y-132429361D02*
X186666191Y-132330314D01*
X186666191Y-132330314D02*
X186765238Y-132280790D01*
X186765238Y-132280790D02*
X186913810Y-132280790D01*
X186913810Y-132280790D02*
X187012857Y-132330314D01*
X187012857Y-132330314D02*
X187062381Y-132429361D01*
X187062381Y-132429361D02*
X187062381Y-132974123D01*
X187743334Y-131963838D02*
X188486191Y-132706695D01*
X188486191Y-131963838D02*
X187743334Y-132706695D01*
X189910001Y-132830504D02*
X189167144Y-132830504D01*
X189538572Y-132830504D02*
X189538572Y-131530504D01*
X189538572Y-131530504D02*
X189414763Y-131716219D01*
X189414763Y-131716219D02*
X189290953Y-131840028D01*
X189290953Y-131840028D02*
X189167144Y-131901933D01*
X190467143Y-132830504D02*
X190467143Y-131530504D01*
X190590953Y-132335266D02*
X190962381Y-132830504D01*
X190962381Y-131963838D02*
X190467143Y-132459076D01*
X191457620Y-132830504D02*
X191767143Y-132830504D01*
X191767143Y-132830504D02*
X191767143Y-132582885D01*
X191767143Y-132582885D02*
X191643334Y-132520980D01*
X191643334Y-132520980D02*
X191519524Y-132397171D01*
X191519524Y-132397171D02*
X191457620Y-132211457D01*
X191457620Y-132211457D02*
X191457620Y-131901933D01*
X191457620Y-131901933D02*
X191519524Y-131716219D01*
X191519524Y-131716219D02*
X191643334Y-131592409D01*
X191643334Y-131592409D02*
X191829048Y-131530504D01*
X191829048Y-131530504D02*
X192076667Y-131530504D01*
X192076667Y-131530504D02*
X192262381Y-131592409D01*
X192262381Y-131592409D02*
X192386191Y-131716219D01*
X192386191Y-131716219D02*
X192448096Y-131901933D01*
X192448096Y-131901933D02*
X192448096Y-132211457D01*
X192448096Y-132211457D02*
X192386191Y-132397171D01*
X192386191Y-132397171D02*
X192262381Y-132520980D01*
X192262381Y-132520980D02*
X192138572Y-132582885D01*
X192138572Y-132582885D02*
X192138572Y-132830504D01*
X192138572Y-132830504D02*
X192448096Y-132830504D01*
X192881429Y-133325742D02*
X192943334Y-133263838D01*
X192943334Y-133263838D02*
X193067143Y-133078123D01*
X193067143Y-133078123D02*
X193129048Y-132954314D01*
X193129048Y-132954314D02*
X193190953Y-132768600D01*
X193190953Y-132768600D02*
X193252857Y-132459076D01*
X193252857Y-132459076D02*
X193252857Y-132211457D01*
X193252857Y-132211457D02*
X193190953Y-131901933D01*
X193190953Y-131901933D02*
X193129048Y-131716219D01*
X193129048Y-131716219D02*
X193067143Y-131592409D01*
X193067143Y-131592409D02*
X192943334Y-131406695D01*
X192943334Y-131406695D02*
X192881429Y-131344790D01*
D12*
X112602129Y-81843472D02*
X113168796Y-81843472D01*
X113411653Y-82733948D02*
X112602129Y-82733948D01*
X112602129Y-82733948D02*
X112602129Y-81033948D01*
X112602129Y-81033948D02*
X113411653Y-81033948D01*
X114140224Y-81600615D02*
X114140224Y-83300615D01*
X114140224Y-81681567D02*
X114302129Y-81600615D01*
X114302129Y-81600615D02*
X114625939Y-81600615D01*
X114625939Y-81600615D02*
X114787843Y-81681567D01*
X114787843Y-81681567D02*
X114868796Y-81762519D01*
X114868796Y-81762519D02*
X114949748Y-81924424D01*
X114949748Y-81924424D02*
X114949748Y-82410138D01*
X114949748Y-82410138D02*
X114868796Y-82572043D01*
X114868796Y-82572043D02*
X114787843Y-82652996D01*
X114787843Y-82652996D02*
X114625939Y-82733948D01*
X114625939Y-82733948D02*
X114302129Y-82733948D01*
X114302129Y-82733948D02*
X114140224Y-82652996D01*
X115678319Y-82733948D02*
X115678319Y-81033948D01*
X116406891Y-82733948D02*
X116406891Y-81843472D01*
X116406891Y-81843472D02*
X116325938Y-81681567D01*
X116325938Y-81681567D02*
X116164034Y-81600615D01*
X116164034Y-81600615D02*
X115921177Y-81600615D01*
X115921177Y-81600615D02*
X115759272Y-81681567D01*
X115759272Y-81681567D02*
X115678319Y-81762519D01*
X117054510Y-81600615D02*
X117459272Y-82733948D01*
X117864033Y-81600615D02*
X117459272Y-82733948D01*
X117459272Y-82733948D02*
X117297367Y-83138710D01*
X117297367Y-83138710D02*
X117216414Y-83219662D01*
X117216414Y-83219662D02*
X117054510Y-83300615D01*
X118430700Y-82652996D02*
X118592605Y-82733948D01*
X118592605Y-82733948D02*
X118916414Y-82733948D01*
X118916414Y-82733948D02*
X119078319Y-82652996D01*
X119078319Y-82652996D02*
X119159271Y-82491091D01*
X119159271Y-82491091D02*
X119159271Y-82410138D01*
X119159271Y-82410138D02*
X119078319Y-82248234D01*
X119078319Y-82248234D02*
X118916414Y-82167281D01*
X118916414Y-82167281D02*
X118673557Y-82167281D01*
X118673557Y-82167281D02*
X118511652Y-82086329D01*
X118511652Y-82086329D02*
X118430700Y-81924424D01*
X118430700Y-81924424D02*
X118430700Y-81843472D01*
X118430700Y-81843472D02*
X118511652Y-81681567D01*
X118511652Y-81681567D02*
X118673557Y-81600615D01*
X118673557Y-81600615D02*
X118916414Y-81600615D01*
X118916414Y-81600615D02*
X119078319Y-81681567D01*
X120940223Y-81033948D02*
X121911652Y-81033948D01*
X121425938Y-82733948D02*
X121425938Y-81033948D01*
X123125937Y-82652996D02*
X122964033Y-82733948D01*
X122964033Y-82733948D02*
X122640223Y-82733948D01*
X122640223Y-82733948D02*
X122478318Y-82652996D01*
X122478318Y-82652996D02*
X122397366Y-82491091D01*
X122397366Y-82491091D02*
X122397366Y-81843472D01*
X122397366Y-81843472D02*
X122478318Y-81681567D01*
X122478318Y-81681567D02*
X122640223Y-81600615D01*
X122640223Y-81600615D02*
X122964033Y-81600615D01*
X122964033Y-81600615D02*
X123125937Y-81681567D01*
X123125937Y-81681567D02*
X123206890Y-81843472D01*
X123206890Y-81843472D02*
X123206890Y-82005376D01*
X123206890Y-82005376D02*
X122397366Y-82167281D01*
X123854509Y-82652996D02*
X124016414Y-82733948D01*
X124016414Y-82733948D02*
X124340223Y-82733948D01*
X124340223Y-82733948D02*
X124502128Y-82652996D01*
X124502128Y-82652996D02*
X124583080Y-82491091D01*
X124583080Y-82491091D02*
X124583080Y-82410138D01*
X124583080Y-82410138D02*
X124502128Y-82248234D01*
X124502128Y-82248234D02*
X124340223Y-82167281D01*
X124340223Y-82167281D02*
X124097366Y-82167281D01*
X124097366Y-82167281D02*
X123935461Y-82086329D01*
X123935461Y-82086329D02*
X123854509Y-81924424D01*
X123854509Y-81924424D02*
X123854509Y-81843472D01*
X123854509Y-81843472D02*
X123935461Y-81681567D01*
X123935461Y-81681567D02*
X124097366Y-81600615D01*
X124097366Y-81600615D02*
X124340223Y-81600615D01*
X124340223Y-81600615D02*
X124502128Y-81681567D01*
X125068794Y-81600615D02*
X125716413Y-81600615D01*
X125311651Y-81033948D02*
X125311651Y-82491091D01*
X125311651Y-82491091D02*
X125392604Y-82652996D01*
X125392604Y-82652996D02*
X125554509Y-82733948D01*
X125554509Y-82733948D02*
X125716413Y-82733948D01*
X127578318Y-82733948D02*
X127578318Y-81033948D01*
X127578318Y-81033948D02*
X128144985Y-82248234D01*
X128144985Y-82248234D02*
X128711652Y-81033948D01*
X128711652Y-81033948D02*
X128711652Y-82733948D01*
X129764033Y-82733948D02*
X129602128Y-82652996D01*
X129602128Y-82652996D02*
X129521175Y-82572043D01*
X129521175Y-82572043D02*
X129440223Y-82410138D01*
X129440223Y-82410138D02*
X129440223Y-81924424D01*
X129440223Y-81924424D02*
X129521175Y-81762519D01*
X129521175Y-81762519D02*
X129602128Y-81681567D01*
X129602128Y-81681567D02*
X129764033Y-81600615D01*
X129764033Y-81600615D02*
X130006890Y-81600615D01*
X130006890Y-81600615D02*
X130168794Y-81681567D01*
X130168794Y-81681567D02*
X130249747Y-81762519D01*
X130249747Y-81762519D02*
X130330699Y-81924424D01*
X130330699Y-81924424D02*
X130330699Y-82410138D01*
X130330699Y-82410138D02*
X130249747Y-82572043D01*
X130249747Y-82572043D02*
X130168794Y-82652996D01*
X130168794Y-82652996D02*
X130006890Y-82733948D01*
X130006890Y-82733948D02*
X129764033Y-82733948D01*
X131787842Y-82733948D02*
X131787842Y-81033948D01*
X131787842Y-82652996D02*
X131625937Y-82733948D01*
X131625937Y-82733948D02*
X131302128Y-82733948D01*
X131302128Y-82733948D02*
X131140223Y-82652996D01*
X131140223Y-82652996D02*
X131059270Y-82572043D01*
X131059270Y-82572043D02*
X130978318Y-82410138D01*
X130978318Y-82410138D02*
X130978318Y-81924424D01*
X130978318Y-81924424D02*
X131059270Y-81762519D01*
X131059270Y-81762519D02*
X131140223Y-81681567D01*
X131140223Y-81681567D02*
X131302128Y-81600615D01*
X131302128Y-81600615D02*
X131625937Y-81600615D01*
X131625937Y-81600615D02*
X131787842Y-81681567D01*
X133325937Y-81600615D02*
X133325937Y-82733948D01*
X132597365Y-81600615D02*
X132597365Y-82491091D01*
X132597365Y-82491091D02*
X132678318Y-82652996D01*
X132678318Y-82652996D02*
X132840223Y-82733948D01*
X132840223Y-82733948D02*
X133083080Y-82733948D01*
X133083080Y-82733948D02*
X133244984Y-82652996D01*
X133244984Y-82652996D02*
X133325937Y-82572043D01*
X134378318Y-82733948D02*
X134216413Y-82652996D01*
X134216413Y-82652996D02*
X134135460Y-82491091D01*
X134135460Y-82491091D02*
X134135460Y-81033948D01*
X135673555Y-82652996D02*
X135511651Y-82733948D01*
X135511651Y-82733948D02*
X135187841Y-82733948D01*
X135187841Y-82733948D02*
X135025936Y-82652996D01*
X135025936Y-82652996D02*
X134944984Y-82491091D01*
X134944984Y-82491091D02*
X134944984Y-81843472D01*
X134944984Y-81843472D02*
X135025936Y-81681567D01*
X135025936Y-81681567D02*
X135187841Y-81600615D01*
X135187841Y-81600615D02*
X135511651Y-81600615D01*
X135511651Y-81600615D02*
X135673555Y-81681567D01*
X135673555Y-81681567D02*
X135754508Y-81843472D01*
X135754508Y-81843472D02*
X135754508Y-82005376D01*
X135754508Y-82005376D02*
X134944984Y-82167281D01*
X112602129Y-85470853D02*
X112602129Y-83770853D01*
X112602129Y-84580377D02*
X113573558Y-84580377D01*
X113573558Y-85470853D02*
X113573558Y-83770853D01*
X114383081Y-85470853D02*
X114383081Y-84337520D01*
X114383081Y-83770853D02*
X114302129Y-83851805D01*
X114302129Y-83851805D02*
X114383081Y-83932758D01*
X114383081Y-83932758D02*
X114464034Y-83851805D01*
X114464034Y-83851805D02*
X114383081Y-83770853D01*
X114383081Y-83770853D02*
X114383081Y-83932758D01*
X115192605Y-85470853D02*
X115192605Y-84337520D01*
X115192605Y-84661329D02*
X115273558Y-84499424D01*
X115273558Y-84499424D02*
X115354510Y-84418472D01*
X115354510Y-84418472D02*
X115516415Y-84337520D01*
X115516415Y-84337520D02*
X115678320Y-84337520D01*
X116487844Y-85470853D02*
X116325939Y-85389901D01*
X116325939Y-85389901D02*
X116244986Y-85308948D01*
X116244986Y-85308948D02*
X116164034Y-85147043D01*
X116164034Y-85147043D02*
X116164034Y-84661329D01*
X116164034Y-84661329D02*
X116244986Y-84499424D01*
X116244986Y-84499424D02*
X116325939Y-84418472D01*
X116325939Y-84418472D02*
X116487844Y-84337520D01*
X116487844Y-84337520D02*
X116730701Y-84337520D01*
X116730701Y-84337520D02*
X116892605Y-84418472D01*
X116892605Y-84418472D02*
X116973558Y-84499424D01*
X116973558Y-84499424D02*
X117054510Y-84661329D01*
X117054510Y-84661329D02*
X117054510Y-85147043D01*
X117054510Y-85147043D02*
X116973558Y-85308948D01*
X116973558Y-85308948D02*
X116892605Y-85389901D01*
X116892605Y-85389901D02*
X116730701Y-85470853D01*
X116730701Y-85470853D02*
X116487844Y-85470853D01*
X117702129Y-85389901D02*
X117864034Y-85470853D01*
X117864034Y-85470853D02*
X118187843Y-85470853D01*
X118187843Y-85470853D02*
X118349748Y-85389901D01*
X118349748Y-85389901D02*
X118430700Y-85227996D01*
X118430700Y-85227996D02*
X118430700Y-85147043D01*
X118430700Y-85147043D02*
X118349748Y-84985139D01*
X118349748Y-84985139D02*
X118187843Y-84904186D01*
X118187843Y-84904186D02*
X117944986Y-84904186D01*
X117944986Y-84904186D02*
X117783081Y-84823234D01*
X117783081Y-84823234D02*
X117702129Y-84661329D01*
X117702129Y-84661329D02*
X117702129Y-84580377D01*
X117702129Y-84580377D02*
X117783081Y-84418472D01*
X117783081Y-84418472D02*
X117944986Y-84337520D01*
X117944986Y-84337520D02*
X118187843Y-84337520D01*
X118187843Y-84337520D02*
X118349748Y-84418472D01*
X119806890Y-85389901D02*
X119644986Y-85470853D01*
X119644986Y-85470853D02*
X119321176Y-85470853D01*
X119321176Y-85470853D02*
X119159271Y-85389901D01*
X119159271Y-85389901D02*
X119078319Y-85227996D01*
X119078319Y-85227996D02*
X119078319Y-84580377D01*
X119078319Y-84580377D02*
X119159271Y-84418472D01*
X119159271Y-84418472D02*
X119321176Y-84337520D01*
X119321176Y-84337520D02*
X119644986Y-84337520D01*
X119644986Y-84337520D02*
X119806890Y-84418472D01*
X119806890Y-84418472D02*
X119887843Y-84580377D01*
X119887843Y-84580377D02*
X119887843Y-84742281D01*
X119887843Y-84742281D02*
X119078319Y-84904186D01*
X121911652Y-85470853D02*
X121911652Y-83770853D01*
X121911652Y-83770853D02*
X122316414Y-83770853D01*
X122316414Y-83770853D02*
X122559271Y-83851805D01*
X122559271Y-83851805D02*
X122721176Y-84013710D01*
X122721176Y-84013710D02*
X122802129Y-84175615D01*
X122802129Y-84175615D02*
X122883081Y-84499424D01*
X122883081Y-84499424D02*
X122883081Y-84742281D01*
X122883081Y-84742281D02*
X122802129Y-85066091D01*
X122802129Y-85066091D02*
X122721176Y-85227996D01*
X122721176Y-85227996D02*
X122559271Y-85389901D01*
X122559271Y-85389901D02*
X122316414Y-85470853D01*
X122316414Y-85470853D02*
X121911652Y-85470853D01*
X124178319Y-84580377D02*
X123611652Y-84580377D01*
X123611652Y-85470853D02*
X123611652Y-83770853D01*
X123611652Y-83770853D02*
X124421176Y-83770853D01*
X125797367Y-84337520D02*
X125797367Y-85470853D01*
X125392605Y-83689901D02*
X124987843Y-84904186D01*
X124987843Y-84904186D02*
X126040224Y-84904186D01*
X127011653Y-83770853D02*
X127173558Y-83770853D01*
X127173558Y-83770853D02*
X127335462Y-83851805D01*
X127335462Y-83851805D02*
X127416415Y-83932758D01*
X127416415Y-83932758D02*
X127497367Y-84094662D01*
X127497367Y-84094662D02*
X127578320Y-84418472D01*
X127578320Y-84418472D02*
X127578320Y-84823234D01*
X127578320Y-84823234D02*
X127497367Y-85147043D01*
X127497367Y-85147043D02*
X127416415Y-85308948D01*
X127416415Y-85308948D02*
X127335462Y-85389901D01*
X127335462Y-85389901D02*
X127173558Y-85470853D01*
X127173558Y-85470853D02*
X127011653Y-85470853D01*
X127011653Y-85470853D02*
X126849748Y-85389901D01*
X126849748Y-85389901D02*
X126768796Y-85308948D01*
X126768796Y-85308948D02*
X126687843Y-85147043D01*
X126687843Y-85147043D02*
X126606891Y-84823234D01*
X126606891Y-84823234D02*
X126606891Y-84418472D01*
X126606891Y-84418472D02*
X126687843Y-84094662D01*
X126687843Y-84094662D02*
X126768796Y-83932758D01*
X126768796Y-83932758D02*
X126849748Y-83851805D01*
X126849748Y-83851805D02*
X127011653Y-83770853D01*
X130330701Y-83770853D02*
X130006891Y-83770853D01*
X130006891Y-83770853D02*
X129844987Y-83851805D01*
X129844987Y-83851805D02*
X129764034Y-83932758D01*
X129764034Y-83932758D02*
X129602129Y-84175615D01*
X129602129Y-84175615D02*
X129521177Y-84499424D01*
X129521177Y-84499424D02*
X129521177Y-85147043D01*
X129521177Y-85147043D02*
X129602129Y-85308948D01*
X129602129Y-85308948D02*
X129683082Y-85389901D01*
X129683082Y-85389901D02*
X129844987Y-85470853D01*
X129844987Y-85470853D02*
X130168796Y-85470853D01*
X130168796Y-85470853D02*
X130330701Y-85389901D01*
X130330701Y-85389901D02*
X130411653Y-85308948D01*
X130411653Y-85308948D02*
X130492606Y-85147043D01*
X130492606Y-85147043D02*
X130492606Y-84742281D01*
X130492606Y-84742281D02*
X130411653Y-84580377D01*
X130411653Y-84580377D02*
X130330701Y-84499424D01*
X130330701Y-84499424D02*
X130168796Y-84418472D01*
X130168796Y-84418472D02*
X129844987Y-84418472D01*
X129844987Y-84418472D02*
X129683082Y-84499424D01*
X129683082Y-84499424D02*
X129602129Y-84580377D01*
X129602129Y-84580377D02*
X129521177Y-84742281D01*
X131949749Y-84337520D02*
X131949749Y-85470853D01*
X131544987Y-83689901D02*
X131140225Y-84904186D01*
X131140225Y-84904186D02*
X132192606Y-84904186D01*
X135106892Y-85308948D02*
X135025940Y-85389901D01*
X135025940Y-85389901D02*
X134783082Y-85470853D01*
X134783082Y-85470853D02*
X134621178Y-85470853D01*
X134621178Y-85470853D02*
X134378321Y-85389901D01*
X134378321Y-85389901D02*
X134216416Y-85227996D01*
X134216416Y-85227996D02*
X134135463Y-85066091D01*
X134135463Y-85066091D02*
X134054511Y-84742281D01*
X134054511Y-84742281D02*
X134054511Y-84499424D01*
X134054511Y-84499424D02*
X134135463Y-84175615D01*
X134135463Y-84175615D02*
X134216416Y-84013710D01*
X134216416Y-84013710D02*
X134378321Y-83851805D01*
X134378321Y-83851805D02*
X134621178Y-83770853D01*
X134621178Y-83770853D02*
X134783082Y-83770853D01*
X134783082Y-83770853D02*
X135025940Y-83851805D01*
X135025940Y-83851805D02*
X135106892Y-83932758D01*
X135835463Y-85470853D02*
X135835463Y-83770853D01*
X136564035Y-85470853D02*
X136564035Y-84580377D01*
X136564035Y-84580377D02*
X136483082Y-84418472D01*
X136483082Y-84418472D02*
X136321178Y-84337520D01*
X136321178Y-84337520D02*
X136078321Y-84337520D01*
X136078321Y-84337520D02*
X135916416Y-84418472D01*
X135916416Y-84418472D02*
X135835463Y-84499424D01*
X137373558Y-85308948D02*
X137454511Y-85389901D01*
X137454511Y-85389901D02*
X137373558Y-85470853D01*
X137373558Y-85470853D02*
X137292606Y-85389901D01*
X137292606Y-85389901D02*
X137373558Y-85308948D01*
X137373558Y-85308948D02*
X137373558Y-85470853D01*
X113573558Y-88207758D02*
X113006891Y-87398234D01*
X112602129Y-88207758D02*
X112602129Y-86507758D01*
X112602129Y-86507758D02*
X113249748Y-86507758D01*
X113249748Y-86507758D02*
X113411653Y-86588710D01*
X113411653Y-86588710D02*
X113492606Y-86669663D01*
X113492606Y-86669663D02*
X113573558Y-86831567D01*
X113573558Y-86831567D02*
X113573558Y-87074425D01*
X113573558Y-87074425D02*
X113492606Y-87236329D01*
X113492606Y-87236329D02*
X113411653Y-87317282D01*
X113411653Y-87317282D02*
X113249748Y-87398234D01*
X113249748Y-87398234D02*
X112602129Y-87398234D01*
X114949748Y-88126806D02*
X114787844Y-88207758D01*
X114787844Y-88207758D02*
X114464034Y-88207758D01*
X114464034Y-88207758D02*
X114302129Y-88126806D01*
X114302129Y-88126806D02*
X114221177Y-87964901D01*
X114221177Y-87964901D02*
X114221177Y-87317282D01*
X114221177Y-87317282D02*
X114302129Y-87155377D01*
X114302129Y-87155377D02*
X114464034Y-87074425D01*
X114464034Y-87074425D02*
X114787844Y-87074425D01*
X114787844Y-87074425D02*
X114949748Y-87155377D01*
X114949748Y-87155377D02*
X115030701Y-87317282D01*
X115030701Y-87317282D02*
X115030701Y-87479186D01*
X115030701Y-87479186D02*
X114221177Y-87641091D01*
X115597368Y-87074425D02*
X116002130Y-88207758D01*
X116002130Y-88207758D02*
X116406891Y-87074425D01*
X117054510Y-88045853D02*
X117135463Y-88126806D01*
X117135463Y-88126806D02*
X117054510Y-88207758D01*
X117054510Y-88207758D02*
X116973558Y-88126806D01*
X116973558Y-88126806D02*
X117054510Y-88045853D01*
X117054510Y-88045853D02*
X117054510Y-88207758D01*
X119725939Y-87317282D02*
X119159272Y-87317282D01*
X119159272Y-88207758D02*
X119159272Y-86507758D01*
X119159272Y-86507758D02*
X119968796Y-86507758D01*
D10*
X192666666Y-106260240D02*
X192666666Y-106974525D01*
X192666666Y-106974525D02*
X192619047Y-107117382D01*
X192619047Y-107117382D02*
X192523809Y-107212621D01*
X192523809Y-107212621D02*
X192380952Y-107260240D01*
X192380952Y-107260240D02*
X192285714Y-107260240D01*
X193571428Y-106593573D02*
X193571428Y-107260240D01*
X193333333Y-106212621D02*
X193095238Y-106926906D01*
X193095238Y-106926906D02*
X193714285Y-106926906D01*
X120733333Y-120354819D02*
X120400000Y-119878628D01*
X120161905Y-120354819D02*
X120161905Y-119354819D01*
X120161905Y-119354819D02*
X120542857Y-119354819D01*
X120542857Y-119354819D02*
X120638095Y-119402438D01*
X120638095Y-119402438D02*
X120685714Y-119450057D01*
X120685714Y-119450057D02*
X120733333Y-119545295D01*
X120733333Y-119545295D02*
X120733333Y-119688152D01*
X120733333Y-119688152D02*
X120685714Y-119783390D01*
X120685714Y-119783390D02*
X120638095Y-119831009D01*
X120638095Y-119831009D02*
X120542857Y-119878628D01*
X120542857Y-119878628D02*
X120161905Y-119878628D01*
X121066667Y-119354819D02*
X121685714Y-119354819D01*
X121685714Y-119354819D02*
X121352381Y-119735771D01*
X121352381Y-119735771D02*
X121495238Y-119735771D01*
X121495238Y-119735771D02*
X121590476Y-119783390D01*
X121590476Y-119783390D02*
X121638095Y-119831009D01*
X121638095Y-119831009D02*
X121685714Y-119926247D01*
X121685714Y-119926247D02*
X121685714Y-120164342D01*
X121685714Y-120164342D02*
X121638095Y-120259580D01*
X121638095Y-120259580D02*
X121590476Y-120307200D01*
X121590476Y-120307200D02*
X121495238Y-120354819D01*
X121495238Y-120354819D02*
X121209524Y-120354819D01*
X121209524Y-120354819D02*
X121114286Y-120307200D01*
X121114286Y-120307200D02*
X121066667Y-120259580D01*
X187333333Y-123254819D02*
X186857143Y-123254819D01*
X186857143Y-123254819D02*
X186857143Y-122254819D01*
X187666667Y-123254819D02*
X187666667Y-122254819D01*
X187666667Y-122254819D02*
X187904762Y-122254819D01*
X187904762Y-122254819D02*
X188047619Y-122302438D01*
X188047619Y-122302438D02*
X188142857Y-122397676D01*
X188142857Y-122397676D02*
X188190476Y-122492914D01*
X188190476Y-122492914D02*
X188238095Y-122683390D01*
X188238095Y-122683390D02*
X188238095Y-122826247D01*
X188238095Y-122826247D02*
X188190476Y-123016723D01*
X188190476Y-123016723D02*
X188142857Y-123111961D01*
X188142857Y-123111961D02*
X188047619Y-123207200D01*
X188047619Y-123207200D02*
X187904762Y-123254819D01*
X187904762Y-123254819D02*
X187666667Y-123254819D01*
X189190476Y-123254819D02*
X188619048Y-123254819D01*
X188904762Y-123254819D02*
X188904762Y-122254819D01*
X188904762Y-122254819D02*
X188809524Y-122397676D01*
X188809524Y-122397676D02*
X188714286Y-122492914D01*
X188714286Y-122492914D02*
X188619048Y-122540533D01*
X157666666Y-111379819D02*
X157666666Y-112094104D01*
X157666666Y-112094104D02*
X157619047Y-112236961D01*
X157619047Y-112236961D02*
X157523809Y-112332200D01*
X157523809Y-112332200D02*
X157380952Y-112379819D01*
X157380952Y-112379819D02*
X157285714Y-112379819D01*
X158666666Y-112379819D02*
X158095238Y-112379819D01*
X158380952Y-112379819D02*
X158380952Y-111379819D01*
X158380952Y-111379819D02*
X158285714Y-111522676D01*
X158285714Y-111522676D02*
X158190476Y-111617914D01*
X158190476Y-111617914D02*
X158095238Y-111665533D01*
X119333333Y-121654819D02*
X119000000Y-121178628D01*
X118761905Y-121654819D02*
X118761905Y-120654819D01*
X118761905Y-120654819D02*
X119142857Y-120654819D01*
X119142857Y-120654819D02*
X119238095Y-120702438D01*
X119238095Y-120702438D02*
X119285714Y-120750057D01*
X119285714Y-120750057D02*
X119333333Y-120845295D01*
X119333333Y-120845295D02*
X119333333Y-120988152D01*
X119333333Y-120988152D02*
X119285714Y-121083390D01*
X119285714Y-121083390D02*
X119238095Y-121131009D01*
X119238095Y-121131009D02*
X119142857Y-121178628D01*
X119142857Y-121178628D02*
X118761905Y-121178628D01*
X120285714Y-121654819D02*
X119714286Y-121654819D01*
X120000000Y-121654819D02*
X120000000Y-120654819D01*
X120000000Y-120654819D02*
X119904762Y-120797676D01*
X119904762Y-120797676D02*
X119809524Y-120892914D01*
X119809524Y-120892914D02*
X119714286Y-120940533D01*
X126054819Y-126461904D02*
X126864342Y-126461904D01*
X126864342Y-126461904D02*
X126959580Y-126414285D01*
X126959580Y-126414285D02*
X127007200Y-126366666D01*
X127007200Y-126366666D02*
X127054819Y-126271428D01*
X127054819Y-126271428D02*
X127054819Y-126080952D01*
X127054819Y-126080952D02*
X127007200Y-125985714D01*
X127007200Y-125985714D02*
X126959580Y-125938095D01*
X126959580Y-125938095D02*
X126864342Y-125890476D01*
X126864342Y-125890476D02*
X126054819Y-125890476D01*
X127054819Y-124890476D02*
X127054819Y-125461904D01*
X127054819Y-125176190D02*
X126054819Y-125176190D01*
X126054819Y-125176190D02*
X126197676Y-125271428D01*
X126197676Y-125271428D02*
X126292914Y-125366666D01*
X126292914Y-125366666D02*
X126340533Y-125461904D01*
X121933333Y-118874819D02*
X121600000Y-118398628D01*
X121361905Y-118874819D02*
X121361905Y-117874819D01*
X121361905Y-117874819D02*
X121742857Y-117874819D01*
X121742857Y-117874819D02*
X121838095Y-117922438D01*
X121838095Y-117922438D02*
X121885714Y-117970057D01*
X121885714Y-117970057D02*
X121933333Y-118065295D01*
X121933333Y-118065295D02*
X121933333Y-118208152D01*
X121933333Y-118208152D02*
X121885714Y-118303390D01*
X121885714Y-118303390D02*
X121838095Y-118351009D01*
X121838095Y-118351009D02*
X121742857Y-118398628D01*
X121742857Y-118398628D02*
X121361905Y-118398628D01*
X122314286Y-117970057D02*
X122361905Y-117922438D01*
X122361905Y-117922438D02*
X122457143Y-117874819D01*
X122457143Y-117874819D02*
X122695238Y-117874819D01*
X122695238Y-117874819D02*
X122790476Y-117922438D01*
X122790476Y-117922438D02*
X122838095Y-117970057D01*
X122838095Y-117970057D02*
X122885714Y-118065295D01*
X122885714Y-118065295D02*
X122885714Y-118160533D01*
X122885714Y-118160533D02*
X122838095Y-118303390D01*
X122838095Y-118303390D02*
X122266667Y-118874819D01*
X122266667Y-118874819D02*
X122885714Y-118874819D01*
X197333333Y-122754819D02*
X196857143Y-122754819D01*
X196857143Y-122754819D02*
X196857143Y-121754819D01*
X197666667Y-122754819D02*
X197666667Y-121754819D01*
X197666667Y-121754819D02*
X197904762Y-121754819D01*
X197904762Y-121754819D02*
X198047619Y-121802438D01*
X198047619Y-121802438D02*
X198142857Y-121897676D01*
X198142857Y-121897676D02*
X198190476Y-121992914D01*
X198190476Y-121992914D02*
X198238095Y-122183390D01*
X198238095Y-122183390D02*
X198238095Y-122326247D01*
X198238095Y-122326247D02*
X198190476Y-122516723D01*
X198190476Y-122516723D02*
X198142857Y-122611961D01*
X198142857Y-122611961D02*
X198047619Y-122707200D01*
X198047619Y-122707200D02*
X197904762Y-122754819D01*
X197904762Y-122754819D02*
X197666667Y-122754819D01*
X198619048Y-121850057D02*
X198666667Y-121802438D01*
X198666667Y-121802438D02*
X198761905Y-121754819D01*
X198761905Y-121754819D02*
X199000000Y-121754819D01*
X199000000Y-121754819D02*
X199095238Y-121802438D01*
X199095238Y-121802438D02*
X199142857Y-121850057D01*
X199142857Y-121850057D02*
X199190476Y-121945295D01*
X199190476Y-121945295D02*
X199190476Y-122040533D01*
X199190476Y-122040533D02*
X199142857Y-122183390D01*
X199142857Y-122183390D02*
X198571429Y-122754819D01*
X198571429Y-122754819D02*
X199190476Y-122754819D01*
X118659580Y-125866666D02*
X118707200Y-125914285D01*
X118707200Y-125914285D02*
X118754819Y-126057142D01*
X118754819Y-126057142D02*
X118754819Y-126152380D01*
X118754819Y-126152380D02*
X118707200Y-126295237D01*
X118707200Y-126295237D02*
X118611961Y-126390475D01*
X118611961Y-126390475D02*
X118516723Y-126438094D01*
X118516723Y-126438094D02*
X118326247Y-126485713D01*
X118326247Y-126485713D02*
X118183390Y-126485713D01*
X118183390Y-126485713D02*
X117992914Y-126438094D01*
X117992914Y-126438094D02*
X117897676Y-126390475D01*
X117897676Y-126390475D02*
X117802438Y-126295237D01*
X117802438Y-126295237D02*
X117754819Y-126152380D01*
X117754819Y-126152380D02*
X117754819Y-126057142D01*
X117754819Y-126057142D02*
X117802438Y-125914285D01*
X117802438Y-125914285D02*
X117850057Y-125866666D01*
X118754819Y-124914285D02*
X118754819Y-125485713D01*
X118754819Y-125199999D02*
X117754819Y-125199999D01*
X117754819Y-125199999D02*
X117897676Y-125295237D01*
X117897676Y-125295237D02*
X117992914Y-125390475D01*
X117992914Y-125390475D02*
X118040533Y-125485713D01*
D13*
%TO.C,TP1*%
X189700000Y-135000000D02*
G75*
G02*
X186300000Y-135000000I-1700000J0D01*
G01*
X186300000Y-135000000D02*
G75*
G02*
X189700000Y-135000000I1700000J0D01*
G01*
%TO.C,TP2*%
X199700000Y-135000000D02*
G75*
G02*
X196300000Y-135000000I-1700000J0D01*
G01*
X196300000Y-135000000D02*
G75*
G02*
X199700000Y-135000000I1700000J0D01*
G01*
%TO.C,J4*%
X188960000Y-108375421D02*
X190350000Y-108375421D01*
X190350000Y-107805421D02*
X190350000Y-108375421D01*
X190350000Y-107805421D02*
X195650000Y-107805421D01*
X190350000Y-109995421D02*
X190350000Y-110915421D01*
X190350000Y-112535421D02*
X190350000Y-113455421D01*
X190350000Y-115075421D02*
X190350000Y-115995421D01*
X190350000Y-117615421D02*
X190350000Y-118535421D01*
X190350000Y-120155421D02*
X190350000Y-120725421D01*
X190350000Y-120725421D02*
X195650000Y-120725421D01*
X195650000Y-107805421D02*
X195650000Y-108375421D01*
X195650000Y-109995421D02*
X195650000Y-110915421D01*
X195650000Y-112535421D02*
X195650000Y-113455421D01*
X195650000Y-115075421D02*
X195650000Y-115995421D01*
X195650000Y-117615421D02*
X195650000Y-118535421D01*
X195650000Y-120155421D02*
X195650000Y-120725421D01*
%TO.C,R3*%
X123046359Y-119620000D02*
X123353641Y-119620000D01*
X123046359Y-120380000D02*
X123353641Y-120380000D01*
D14*
%TO.C,LD1*%
X186000000Y-125500000D02*
G75*
G02*
X186000000Y-126300000I2000000J-400000D01*
G01*
X186002787Y-125500000D02*
G75*
G02*
X186002786Y-126300000I-200001J-400000D01*
G01*
%TO.C,J1*%
X156350000Y-93600000D02*
X159650000Y-93600000D01*
X156350000Y-94800000D02*
X156350000Y-93600000D01*
X156350000Y-110400000D02*
X156350000Y-109225000D01*
X159650000Y-93600000D02*
X159650000Y-94800000D01*
X159650000Y-109250000D02*
X159650000Y-110400000D01*
X159650000Y-110450000D02*
X156350000Y-110450000D01*
D13*
%TO.C,R1*%
X121746359Y-120720000D02*
X122053641Y-120720000D01*
X121746359Y-121480000D02*
X122053641Y-121480000D01*
%TO.C,H1*%
D14*
X112600000Y-90400000D02*
X133000000Y-90400000D01*
X133000000Y-98800000D01*
X112600000Y-98800000D01*
X112600000Y-90400000D01*
D13*
%TO.C,U1*%
X120640000Y-125700000D02*
X120640000Y-123750000D01*
X120640000Y-125700000D02*
X120640000Y-127650000D01*
X125760000Y-125700000D02*
X125760000Y-123750000D01*
X125760000Y-125700000D02*
X125760000Y-127650000D01*
X120735000Y-128400000D02*
X120405000Y-128640000D01*
X120405000Y-128160000D01*
X120735000Y-128400000D01*
G36*
X120735000Y-128400000D02*
G01*
X120405000Y-128640000D01*
X120405000Y-128160000D01*
X120735000Y-128400000D01*
G37*
%TO.C,R2*%
X124446359Y-118420000D02*
X124753641Y-118420000D01*
X124446359Y-119180000D02*
X124753641Y-119180000D01*
D14*
%TO.C,LD2*%
X200682802Y-125900001D02*
G75*
G02*
X195322770Y-125900001I-2680016J0D01*
G01*
X195322770Y-125900001D02*
G75*
G02*
X200682802Y-125900001I2680016J0D01*
G01*
D13*
%TO.C,C1*%
X119340000Y-125592164D02*
X119340000Y-125807836D01*
X120060000Y-125592164D02*
X120060000Y-125807836D01*
%TD*%
M02*
