%TF.GenerationSoftware,KiCad,Pcbnew,9.0.6*%
%TF.CreationDate,2026-04-20T13:26:18-04:00*%
%TF.ProjectId,ephys-test-module-64,65706879-732d-4746-9573-742d6d6f6475,F*%
%TF.SameCoordinates,PX66ff300PY82a7440*%
%TF.FileFunction,AssemblyDrawing,Bot*%
%FSLAX46Y46*%
G04 Gerber Fmt 4.6, Leading zero omitted, Abs format (unit mm)*
G04 Created by KiCad (PCBNEW 9.0.6) date 2026-04-20 13:26:18*
%MOMM*%
%LPD*%
G01*
G04 APERTURE LIST*
%ADD10C,0.150000*%
%ADD11C,0.040000*%
%ADD12C,0.100000*%
%ADD13C,0.200000*%
G04 APERTURE END LIST*
D10*
X57054819Y37940477D02*
X56578628Y38273810D01*
X57054819Y38511905D02*
X56054819Y38511905D01*
X56054819Y38511905D02*
X56054819Y38130953D01*
X56054819Y38130953D02*
X56102438Y38035715D01*
X56102438Y38035715D02*
X56150057Y37988096D01*
X56150057Y37988096D02*
X56245295Y37940477D01*
X56245295Y37940477D02*
X56388152Y37940477D01*
X56388152Y37940477D02*
X56483390Y37988096D01*
X56483390Y37988096D02*
X56531009Y38035715D01*
X56531009Y38035715D02*
X56578628Y38130953D01*
X56578628Y38130953D02*
X56578628Y38511905D01*
X57054819Y37511905D02*
X56054819Y37511905D01*
X56054819Y37511905D02*
X57054819Y36940477D01*
X57054819Y36940477D02*
X56054819Y36940477D01*
X56483390Y36321429D02*
X56435771Y36416667D01*
X56435771Y36416667D02*
X56388152Y36464286D01*
X56388152Y36464286D02*
X56292914Y36511905D01*
X56292914Y36511905D02*
X56245295Y36511905D01*
X56245295Y36511905D02*
X56150057Y36464286D01*
X56150057Y36464286D02*
X56102438Y36416667D01*
X56102438Y36416667D02*
X56054819Y36321429D01*
X56054819Y36321429D02*
X56054819Y36130953D01*
X56054819Y36130953D02*
X56102438Y36035715D01*
X56102438Y36035715D02*
X56150057Y35988096D01*
X56150057Y35988096D02*
X56245295Y35940477D01*
X56245295Y35940477D02*
X56292914Y35940477D01*
X56292914Y35940477D02*
X56388152Y35988096D01*
X56388152Y35988096D02*
X56435771Y36035715D01*
X56435771Y36035715D02*
X56483390Y36130953D01*
X56483390Y36130953D02*
X56483390Y36321429D01*
X56483390Y36321429D02*
X56531009Y36416667D01*
X56531009Y36416667D02*
X56578628Y36464286D01*
X56578628Y36464286D02*
X56673866Y36511905D01*
X56673866Y36511905D02*
X56864342Y36511905D01*
X56864342Y36511905D02*
X56959580Y36464286D01*
X56959580Y36464286D02*
X57007200Y36416667D01*
X57007200Y36416667D02*
X57054819Y36321429D01*
X57054819Y36321429D02*
X57054819Y36130953D01*
X57054819Y36130953D02*
X57007200Y36035715D01*
X57007200Y36035715D02*
X56959580Y35988096D01*
X56959580Y35988096D02*
X56864342Y35940477D01*
X56864342Y35940477D02*
X56673866Y35940477D01*
X56673866Y35940477D02*
X56578628Y35988096D01*
X56578628Y35988096D02*
X56531009Y36035715D01*
X56531009Y36035715D02*
X56483390Y36130953D01*
X14454819Y37333334D02*
X15169104Y37333334D01*
X15169104Y37333334D02*
X15311961Y37380953D01*
X15311961Y37380953D02*
X15407200Y37476191D01*
X15407200Y37476191D02*
X15454819Y37619048D01*
X15454819Y37619048D02*
X15454819Y37714286D01*
X14550057Y36904762D02*
X14502438Y36857143D01*
X14502438Y36857143D02*
X14454819Y36761905D01*
X14454819Y36761905D02*
X14454819Y36523810D01*
X14454819Y36523810D02*
X14502438Y36428572D01*
X14502438Y36428572D02*
X14550057Y36380953D01*
X14550057Y36380953D02*
X14645295Y36333334D01*
X14645295Y36333334D02*
X14740533Y36333334D01*
X14740533Y36333334D02*
X14883390Y36380953D01*
X14883390Y36380953D02*
X15454819Y36952381D01*
X15454819Y36952381D02*
X15454819Y36333334D01*
D11*
X49143332Y25081800D02*
X49229999Y25205609D01*
X49291904Y25081800D02*
X49291904Y25341800D01*
X49291904Y25341800D02*
X49192856Y25341800D01*
X49192856Y25341800D02*
X49168094Y25329419D01*
X49168094Y25329419D02*
X49155713Y25317038D01*
X49155713Y25317038D02*
X49143332Y25292276D01*
X49143332Y25292276D02*
X49143332Y25255133D01*
X49143332Y25255133D02*
X49155713Y25230371D01*
X49155713Y25230371D02*
X49168094Y25217990D01*
X49168094Y25217990D02*
X49192856Y25205609D01*
X49192856Y25205609D02*
X49291904Y25205609D01*
X48920475Y25255133D02*
X48920475Y25081800D01*
X48982380Y25354180D02*
X49044285Y25168466D01*
X49044285Y25168466D02*
X48883332Y25168466D01*
D10*
X15961904Y8346333D02*
X15961904Y9346333D01*
X15961904Y8870143D02*
X15390476Y8870143D01*
X15390476Y8346333D02*
X15390476Y9346333D01*
X14390476Y8346333D02*
X14961904Y8346333D01*
X14676190Y8346333D02*
X14676190Y9346333D01*
X14676190Y9346333D02*
X14771428Y9203476D01*
X14771428Y9203476D02*
X14866666Y9108238D01*
X14866666Y9108238D02*
X14961904Y9060619D01*
X43854819Y33440477D02*
X43378628Y33773810D01*
X43854819Y34011905D02*
X42854819Y34011905D01*
X42854819Y34011905D02*
X42854819Y33630953D01*
X42854819Y33630953D02*
X42902438Y33535715D01*
X42902438Y33535715D02*
X42950057Y33488096D01*
X42950057Y33488096D02*
X43045295Y33440477D01*
X43045295Y33440477D02*
X43188152Y33440477D01*
X43188152Y33440477D02*
X43283390Y33488096D01*
X43283390Y33488096D02*
X43331009Y33535715D01*
X43331009Y33535715D02*
X43378628Y33630953D01*
X43378628Y33630953D02*
X43378628Y34011905D01*
X43854819Y33011905D02*
X42854819Y33011905D01*
X42854819Y33011905D02*
X43854819Y32440477D01*
X43854819Y32440477D02*
X42854819Y32440477D01*
X42950057Y32011905D02*
X42902438Y31964286D01*
X42902438Y31964286D02*
X42854819Y31869048D01*
X42854819Y31869048D02*
X42854819Y31630953D01*
X42854819Y31630953D02*
X42902438Y31535715D01*
X42902438Y31535715D02*
X42950057Y31488096D01*
X42950057Y31488096D02*
X43045295Y31440477D01*
X43045295Y31440477D02*
X43140533Y31440477D01*
X43140533Y31440477D02*
X43283390Y31488096D01*
X43283390Y31488096D02*
X43854819Y32059524D01*
X43854819Y32059524D02*
X43854819Y31440477D01*
X43854819Y37940477D02*
X43378628Y38273810D01*
X43854819Y38511905D02*
X42854819Y38511905D01*
X42854819Y38511905D02*
X42854819Y38130953D01*
X42854819Y38130953D02*
X42902438Y38035715D01*
X42902438Y38035715D02*
X42950057Y37988096D01*
X42950057Y37988096D02*
X43045295Y37940477D01*
X43045295Y37940477D02*
X43188152Y37940477D01*
X43188152Y37940477D02*
X43283390Y37988096D01*
X43283390Y37988096D02*
X43331009Y38035715D01*
X43331009Y38035715D02*
X43378628Y38130953D01*
X43378628Y38130953D02*
X43378628Y38511905D01*
X43854819Y37511905D02*
X42854819Y37511905D01*
X42854819Y37511905D02*
X43854819Y36940477D01*
X43854819Y36940477D02*
X42854819Y36940477D01*
X42854819Y36559524D02*
X42854819Y35940477D01*
X42854819Y35940477D02*
X43235771Y36273810D01*
X43235771Y36273810D02*
X43235771Y36130953D01*
X43235771Y36130953D02*
X43283390Y36035715D01*
X43283390Y36035715D02*
X43331009Y35988096D01*
X43331009Y35988096D02*
X43426247Y35940477D01*
X43426247Y35940477D02*
X43664342Y35940477D01*
X43664342Y35940477D02*
X43759580Y35988096D01*
X43759580Y35988096D02*
X43807200Y36035715D01*
X43807200Y36035715D02*
X43854819Y36130953D01*
X43854819Y36130953D02*
X43854819Y36416667D01*
X43854819Y36416667D02*
X43807200Y36511905D01*
X43807200Y36511905D02*
X43759580Y36559524D01*
X57054819Y28890477D02*
X56578628Y29223810D01*
X57054819Y29461905D02*
X56054819Y29461905D01*
X56054819Y29461905D02*
X56054819Y29080953D01*
X56054819Y29080953D02*
X56102438Y28985715D01*
X56102438Y28985715D02*
X56150057Y28938096D01*
X56150057Y28938096D02*
X56245295Y28890477D01*
X56245295Y28890477D02*
X56388152Y28890477D01*
X56388152Y28890477D02*
X56483390Y28938096D01*
X56483390Y28938096D02*
X56531009Y28985715D01*
X56531009Y28985715D02*
X56578628Y29080953D01*
X56578628Y29080953D02*
X56578628Y29461905D01*
X57054819Y28461905D02*
X56054819Y28461905D01*
X56054819Y28461905D02*
X57054819Y27890477D01*
X57054819Y27890477D02*
X56054819Y27890477D01*
X56054819Y27509524D02*
X56054819Y26842858D01*
X56054819Y26842858D02*
X57054819Y27271429D01*
X57054819Y33390477D02*
X56578628Y33723810D01*
X57054819Y33961905D02*
X56054819Y33961905D01*
X56054819Y33961905D02*
X56054819Y33580953D01*
X56054819Y33580953D02*
X56102438Y33485715D01*
X56102438Y33485715D02*
X56150057Y33438096D01*
X56150057Y33438096D02*
X56245295Y33390477D01*
X56245295Y33390477D02*
X56388152Y33390477D01*
X56388152Y33390477D02*
X56483390Y33438096D01*
X56483390Y33438096D02*
X56531009Y33485715D01*
X56531009Y33485715D02*
X56578628Y33580953D01*
X56578628Y33580953D02*
X56578628Y33961905D01*
X57054819Y32961905D02*
X56054819Y32961905D01*
X56054819Y32961905D02*
X57054819Y32390477D01*
X57054819Y32390477D02*
X56054819Y32390477D01*
X56054819Y31438096D02*
X56054819Y31914286D01*
X56054819Y31914286D02*
X56531009Y31961905D01*
X56531009Y31961905D02*
X56483390Y31914286D01*
X56483390Y31914286D02*
X56435771Y31819048D01*
X56435771Y31819048D02*
X56435771Y31580953D01*
X56435771Y31580953D02*
X56483390Y31485715D01*
X56483390Y31485715D02*
X56531009Y31438096D01*
X56531009Y31438096D02*
X56626247Y31390477D01*
X56626247Y31390477D02*
X56864342Y31390477D01*
X56864342Y31390477D02*
X56959580Y31438096D01*
X56959580Y31438096D02*
X57007200Y31485715D01*
X57007200Y31485715D02*
X57054819Y31580953D01*
X57054819Y31580953D02*
X57054819Y31819048D01*
X57054819Y31819048D02*
X57007200Y31914286D01*
X57007200Y31914286D02*
X56959580Y31961905D01*
X57054819Y42440477D02*
X56578628Y42773810D01*
X57054819Y43011905D02*
X56054819Y43011905D01*
X56054819Y43011905D02*
X56054819Y42630953D01*
X56054819Y42630953D02*
X56102438Y42535715D01*
X56102438Y42535715D02*
X56150057Y42488096D01*
X56150057Y42488096D02*
X56245295Y42440477D01*
X56245295Y42440477D02*
X56388152Y42440477D01*
X56388152Y42440477D02*
X56483390Y42488096D01*
X56483390Y42488096D02*
X56531009Y42535715D01*
X56531009Y42535715D02*
X56578628Y42630953D01*
X56578628Y42630953D02*
X56578628Y43011905D01*
X57054819Y42011905D02*
X56054819Y42011905D01*
X56054819Y42011905D02*
X57054819Y41440477D01*
X57054819Y41440477D02*
X56054819Y41440477D01*
X56054819Y40535715D02*
X56054819Y40726191D01*
X56054819Y40726191D02*
X56102438Y40821429D01*
X56102438Y40821429D02*
X56150057Y40869048D01*
X56150057Y40869048D02*
X56292914Y40964286D01*
X56292914Y40964286D02*
X56483390Y41011905D01*
X56483390Y41011905D02*
X56864342Y41011905D01*
X56864342Y41011905D02*
X56959580Y40964286D01*
X56959580Y40964286D02*
X57007200Y40916667D01*
X57007200Y40916667D02*
X57054819Y40821429D01*
X57054819Y40821429D02*
X57054819Y40630953D01*
X57054819Y40630953D02*
X57007200Y40535715D01*
X57007200Y40535715D02*
X56959580Y40488096D01*
X56959580Y40488096D02*
X56864342Y40440477D01*
X56864342Y40440477D02*
X56626247Y40440477D01*
X56626247Y40440477D02*
X56531009Y40488096D01*
X56531009Y40488096D02*
X56483390Y40535715D01*
X56483390Y40535715D02*
X56435771Y40630953D01*
X56435771Y40630953D02*
X56435771Y40821429D01*
X56435771Y40821429D02*
X56483390Y40916667D01*
X56483390Y40916667D02*
X56531009Y40964286D01*
X56531009Y40964286D02*
X56626247Y41011905D01*
X43854819Y42440477D02*
X43378628Y42773810D01*
X43854819Y43011905D02*
X42854819Y43011905D01*
X42854819Y43011905D02*
X42854819Y42630953D01*
X42854819Y42630953D02*
X42902438Y42535715D01*
X42902438Y42535715D02*
X42950057Y42488096D01*
X42950057Y42488096D02*
X43045295Y42440477D01*
X43045295Y42440477D02*
X43188152Y42440477D01*
X43188152Y42440477D02*
X43283390Y42488096D01*
X43283390Y42488096D02*
X43331009Y42535715D01*
X43331009Y42535715D02*
X43378628Y42630953D01*
X43378628Y42630953D02*
X43378628Y43011905D01*
X43854819Y42011905D02*
X42854819Y42011905D01*
X42854819Y42011905D02*
X43854819Y41440477D01*
X43854819Y41440477D02*
X42854819Y41440477D01*
X43188152Y40535715D02*
X43854819Y40535715D01*
X42807200Y40773810D02*
X43521485Y41011905D01*
X43521485Y41011905D02*
X43521485Y40392858D01*
X84454819Y37333334D02*
X85169104Y37333334D01*
X85169104Y37333334D02*
X85311961Y37380953D01*
X85311961Y37380953D02*
X85407200Y37476191D01*
X85407200Y37476191D02*
X85454819Y37619048D01*
X85454819Y37619048D02*
X85454819Y37714286D01*
X84454819Y36952381D02*
X84454819Y36333334D01*
X84454819Y36333334D02*
X84835771Y36666667D01*
X84835771Y36666667D02*
X84835771Y36523810D01*
X84835771Y36523810D02*
X84883390Y36428572D01*
X84883390Y36428572D02*
X84931009Y36380953D01*
X84931009Y36380953D02*
X85026247Y36333334D01*
X85026247Y36333334D02*
X85264342Y36333334D01*
X85264342Y36333334D02*
X85359580Y36380953D01*
X85359580Y36380953D02*
X85407200Y36428572D01*
X85407200Y36428572D02*
X85454819Y36523810D01*
X85454819Y36523810D02*
X85454819Y36809524D01*
X85454819Y36809524D02*
X85407200Y36904762D01*
X85407200Y36904762D02*
X85359580Y36952381D01*
X43854819Y28940477D02*
X43378628Y29273810D01*
X43854819Y29511905D02*
X42854819Y29511905D01*
X42854819Y29511905D02*
X42854819Y29130953D01*
X42854819Y29130953D02*
X42902438Y29035715D01*
X42902438Y29035715D02*
X42950057Y28988096D01*
X42950057Y28988096D02*
X43045295Y28940477D01*
X43045295Y28940477D02*
X43188152Y28940477D01*
X43188152Y28940477D02*
X43283390Y28988096D01*
X43283390Y28988096D02*
X43331009Y29035715D01*
X43331009Y29035715D02*
X43378628Y29130953D01*
X43378628Y29130953D02*
X43378628Y29511905D01*
X43854819Y28511905D02*
X42854819Y28511905D01*
X42854819Y28511905D02*
X43854819Y27940477D01*
X43854819Y27940477D02*
X42854819Y27940477D01*
X43854819Y26940477D02*
X43854819Y27511905D01*
X43854819Y27226191D02*
X42854819Y27226191D01*
X42854819Y27226191D02*
X42997676Y27321429D01*
X42997676Y27321429D02*
X43092914Y27416667D01*
X43092914Y27416667D02*
X43140533Y27511905D01*
D12*
%TO.C,RN8*%
X55800000Y39250000D02*
X57400000Y39250000D01*
X55800000Y35250000D02*
X55800000Y39250000D01*
X57400000Y39250000D02*
X57400000Y35250000D01*
X57400000Y35250000D02*
X55800000Y35250000D01*
%TO.C,J2*%
X11380500Y55635000D02*
X18619500Y55635000D01*
X11380500Y18365000D02*
X11380500Y55635000D01*
X18619500Y55635000D02*
X18619500Y18365000D01*
X18619500Y18365000D02*
X11380500Y18365000D01*
D13*
X19700000Y52600000D02*
G75*
G02*
X19500000Y52600000I-100000J0D01*
G01*
X19500000Y52600000D02*
G75*
G02*
X19700000Y52600000I100000J0D01*
G01*
D12*
%TO.C,R4*%
X48575000Y25470000D02*
X48575000Y24930000D01*
X48575000Y24930000D02*
X49625000Y24930000D01*
X49625000Y25470000D02*
X48575000Y25470000D01*
X49625000Y24930000D02*
X49625000Y25470000D01*
%TO.C,H1*%
X25400000Y13001152D02*
X5000000Y13001152D01*
X5000000Y4601152D01*
X25400000Y4601152D01*
X25400000Y13001152D01*
%TO.C,RN2*%
X42600000Y34750000D02*
X44200000Y34750000D01*
X42600000Y30750000D02*
X42600000Y34750000D01*
X44200000Y34750000D02*
X44200000Y30750000D01*
X44200000Y30750000D02*
X42600000Y30750000D01*
%TO.C,RN3*%
X42600000Y39250000D02*
X44200000Y39250000D01*
X42600000Y35250000D02*
X42600000Y39250000D01*
X44200000Y39250000D02*
X44200000Y35250000D01*
X44200000Y35250000D02*
X42600000Y35250000D01*
%TO.C,RN7*%
X55800000Y30200000D02*
X57400000Y30200000D01*
X55800000Y26200000D02*
X55800000Y30200000D01*
X57400000Y30200000D02*
X57400000Y26200000D01*
X57400000Y26200000D02*
X55800000Y26200000D01*
%TO.C,RN5*%
X55800000Y34700000D02*
X57400000Y34700000D01*
X55800000Y30700000D02*
X55800000Y34700000D01*
X57400000Y34700000D02*
X57400000Y30700000D01*
X57400000Y30700000D02*
X55800000Y30700000D01*
%TO.C,RN6*%
X55800000Y43750000D02*
X57400000Y43750000D01*
X55800000Y39750000D02*
X55800000Y43750000D01*
X57400000Y43750000D02*
X57400000Y39750000D01*
X57400000Y39750000D02*
X55800000Y39750000D01*
%TO.C,RN4*%
X42600000Y43750000D02*
X44200000Y43750000D01*
X42600000Y39750000D02*
X42600000Y43750000D01*
X44200000Y43750000D02*
X44200000Y39750000D01*
X44200000Y39750000D02*
X42600000Y39750000D01*
%TO.C,J3*%
X81380500Y55635000D02*
X88619500Y55635000D01*
X81380500Y18365000D02*
X81380500Y55635000D01*
X88619500Y55635000D02*
X88619500Y18365000D01*
X88619500Y18365000D02*
X81380500Y18365000D01*
D13*
X89700000Y52600000D02*
G75*
G02*
X89500000Y52600000I-100000J0D01*
G01*
X89500000Y52600000D02*
G75*
G02*
X89700000Y52600000I100000J0D01*
G01*
D12*
%TO.C,RN1*%
X42600000Y30250000D02*
X44200000Y30250000D01*
X42600000Y26250000D02*
X42600000Y30250000D01*
X44200000Y30250000D02*
X44200000Y26250000D01*
X44200000Y26250000D02*
X42600000Y26250000D01*
%TD*%
M02*
