%TF.GenerationSoftware,KiCad,Pcbnew,9.0.3*%
%TF.CreationDate,2026-03-16T13:33:51-04:00*%
%TF.ProjectId,ephys-test-module-64,65706879-732d-4746-9573-742d6d6f6475,F*%
%TF.SameCoordinates,Original*%
%TF.FileFunction,Legend,Bot*%
%TF.FilePolarity,Positive*%
%FSLAX46Y46*%
G04 Gerber Fmt 4.6, Leading zero omitted, Abs format (unit mm)*
G04 Created by KiCad (PCBNEW 9.0.3) date 2026-03-16 13:33:51*
%MOMM*%
%LPD*%
G01*
G04 APERTURE LIST*
%ADD10C,0.150000*%
%ADD11C,0.120000*%
%ADD12C,0.200000*%
G04 APERTURE END LIST*
D10*
X168490476Y-100179819D02*
X168823809Y-99703628D01*
X169061904Y-100179819D02*
X169061904Y-99179819D01*
X169061904Y-99179819D02*
X168680952Y-99179819D01*
X168680952Y-99179819D02*
X168585714Y-99227438D01*
X168585714Y-99227438D02*
X168538095Y-99275057D01*
X168538095Y-99275057D02*
X168490476Y-99370295D01*
X168490476Y-99370295D02*
X168490476Y-99513152D01*
X168490476Y-99513152D02*
X168538095Y-99608390D01*
X168538095Y-99608390D02*
X168585714Y-99656009D01*
X168585714Y-99656009D02*
X168680952Y-99703628D01*
X168680952Y-99703628D02*
X169061904Y-99703628D01*
X168061904Y-100179819D02*
X168061904Y-99179819D01*
X168061904Y-99179819D02*
X167490476Y-100179819D01*
X167490476Y-100179819D02*
X167490476Y-99179819D01*
X166871428Y-99608390D02*
X166966666Y-99560771D01*
X166966666Y-99560771D02*
X167014285Y-99513152D01*
X167014285Y-99513152D02*
X167061904Y-99417914D01*
X167061904Y-99417914D02*
X167061904Y-99370295D01*
X167061904Y-99370295D02*
X167014285Y-99275057D01*
X167014285Y-99275057D02*
X166966666Y-99227438D01*
X166966666Y-99227438D02*
X166871428Y-99179819D01*
X166871428Y-99179819D02*
X166680952Y-99179819D01*
X166680952Y-99179819D02*
X166585714Y-99227438D01*
X166585714Y-99227438D02*
X166538095Y-99275057D01*
X166538095Y-99275057D02*
X166490476Y-99370295D01*
X166490476Y-99370295D02*
X166490476Y-99417914D01*
X166490476Y-99417914D02*
X166538095Y-99513152D01*
X166538095Y-99513152D02*
X166585714Y-99560771D01*
X166585714Y-99560771D02*
X166680952Y-99608390D01*
X166680952Y-99608390D02*
X166871428Y-99608390D01*
X166871428Y-99608390D02*
X166966666Y-99656009D01*
X166966666Y-99656009D02*
X167014285Y-99703628D01*
X167014285Y-99703628D02*
X167061904Y-99798866D01*
X167061904Y-99798866D02*
X167061904Y-99989342D01*
X167061904Y-99989342D02*
X167014285Y-100084580D01*
X167014285Y-100084580D02*
X166966666Y-100132200D01*
X166966666Y-100132200D02*
X166871428Y-100179819D01*
X166871428Y-100179819D02*
X166680952Y-100179819D01*
X166680952Y-100179819D02*
X166585714Y-100132200D01*
X166585714Y-100132200D02*
X166538095Y-100084580D01*
X166538095Y-100084580D02*
X166490476Y-99989342D01*
X166490476Y-99989342D02*
X166490476Y-99798866D01*
X166490476Y-99798866D02*
X166538095Y-99703628D01*
X166538095Y-99703628D02*
X166585714Y-99656009D01*
X166585714Y-99656009D02*
X166680952Y-99608390D01*
X123533333Y-119654819D02*
X123533333Y-120369104D01*
X123533333Y-120369104D02*
X123580952Y-120511961D01*
X123580952Y-120511961D02*
X123676190Y-120607200D01*
X123676190Y-120607200D02*
X123819047Y-120654819D01*
X123819047Y-120654819D02*
X123914285Y-120654819D01*
X123104761Y-119750057D02*
X123057142Y-119702438D01*
X123057142Y-119702438D02*
X122961904Y-119654819D01*
X122961904Y-119654819D02*
X122723809Y-119654819D01*
X122723809Y-119654819D02*
X122628571Y-119702438D01*
X122628571Y-119702438D02*
X122580952Y-119750057D01*
X122580952Y-119750057D02*
X122533333Y-119845295D01*
X122533333Y-119845295D02*
X122533333Y-119940533D01*
X122533333Y-119940533D02*
X122580952Y-120083390D01*
X122580952Y-120083390D02*
X123152380Y-120654819D01*
X123152380Y-120654819D02*
X122533333Y-120654819D01*
X157266666Y-113864819D02*
X157599999Y-113388628D01*
X157838094Y-113864819D02*
X157838094Y-112864819D01*
X157838094Y-112864819D02*
X157457142Y-112864819D01*
X157457142Y-112864819D02*
X157361904Y-112912438D01*
X157361904Y-112912438D02*
X157314285Y-112960057D01*
X157314285Y-112960057D02*
X157266666Y-113055295D01*
X157266666Y-113055295D02*
X157266666Y-113198152D01*
X157266666Y-113198152D02*
X157314285Y-113293390D01*
X157314285Y-113293390D02*
X157361904Y-113341009D01*
X157361904Y-113341009D02*
X157457142Y-113388628D01*
X157457142Y-113388628D02*
X157838094Y-113388628D01*
X156409523Y-113198152D02*
X156409523Y-113864819D01*
X156647618Y-112817200D02*
X156885713Y-113531485D01*
X156885713Y-113531485D02*
X156266666Y-113531485D01*
X148690476Y-104679819D02*
X149023809Y-104203628D01*
X149261904Y-104679819D02*
X149261904Y-103679819D01*
X149261904Y-103679819D02*
X148880952Y-103679819D01*
X148880952Y-103679819D02*
X148785714Y-103727438D01*
X148785714Y-103727438D02*
X148738095Y-103775057D01*
X148738095Y-103775057D02*
X148690476Y-103870295D01*
X148690476Y-103870295D02*
X148690476Y-104013152D01*
X148690476Y-104013152D02*
X148738095Y-104108390D01*
X148738095Y-104108390D02*
X148785714Y-104156009D01*
X148785714Y-104156009D02*
X148880952Y-104203628D01*
X148880952Y-104203628D02*
X149261904Y-104203628D01*
X148261904Y-104679819D02*
X148261904Y-103679819D01*
X148261904Y-103679819D02*
X147690476Y-104679819D01*
X147690476Y-104679819D02*
X147690476Y-103679819D01*
X147261904Y-103775057D02*
X147214285Y-103727438D01*
X147214285Y-103727438D02*
X147119047Y-103679819D01*
X147119047Y-103679819D02*
X146880952Y-103679819D01*
X146880952Y-103679819D02*
X146785714Y-103727438D01*
X146785714Y-103727438D02*
X146738095Y-103775057D01*
X146738095Y-103775057D02*
X146690476Y-103870295D01*
X146690476Y-103870295D02*
X146690476Y-103965533D01*
X146690476Y-103965533D02*
X146738095Y-104108390D01*
X146738095Y-104108390D02*
X147309523Y-104679819D01*
X147309523Y-104679819D02*
X146690476Y-104679819D01*
X148690476Y-100179819D02*
X149023809Y-99703628D01*
X149261904Y-100179819D02*
X149261904Y-99179819D01*
X149261904Y-99179819D02*
X148880952Y-99179819D01*
X148880952Y-99179819D02*
X148785714Y-99227438D01*
X148785714Y-99227438D02*
X148738095Y-99275057D01*
X148738095Y-99275057D02*
X148690476Y-99370295D01*
X148690476Y-99370295D02*
X148690476Y-99513152D01*
X148690476Y-99513152D02*
X148738095Y-99608390D01*
X148738095Y-99608390D02*
X148785714Y-99656009D01*
X148785714Y-99656009D02*
X148880952Y-99703628D01*
X148880952Y-99703628D02*
X149261904Y-99703628D01*
X148261904Y-100179819D02*
X148261904Y-99179819D01*
X148261904Y-99179819D02*
X147690476Y-100179819D01*
X147690476Y-100179819D02*
X147690476Y-99179819D01*
X147309523Y-99179819D02*
X146690476Y-99179819D01*
X146690476Y-99179819D02*
X147023809Y-99560771D01*
X147023809Y-99560771D02*
X146880952Y-99560771D01*
X146880952Y-99560771D02*
X146785714Y-99608390D01*
X146785714Y-99608390D02*
X146738095Y-99656009D01*
X146738095Y-99656009D02*
X146690476Y-99751247D01*
X146690476Y-99751247D02*
X146690476Y-99989342D01*
X146690476Y-99989342D02*
X146738095Y-100084580D01*
X146738095Y-100084580D02*
X146785714Y-100132200D01*
X146785714Y-100132200D02*
X146880952Y-100179819D01*
X146880952Y-100179819D02*
X147166666Y-100179819D01*
X147166666Y-100179819D02*
X147261904Y-100132200D01*
X147261904Y-100132200D02*
X147309523Y-100084580D01*
X168490476Y-109229819D02*
X168823809Y-108753628D01*
X169061904Y-109229819D02*
X169061904Y-108229819D01*
X169061904Y-108229819D02*
X168680952Y-108229819D01*
X168680952Y-108229819D02*
X168585714Y-108277438D01*
X168585714Y-108277438D02*
X168538095Y-108325057D01*
X168538095Y-108325057D02*
X168490476Y-108420295D01*
X168490476Y-108420295D02*
X168490476Y-108563152D01*
X168490476Y-108563152D02*
X168538095Y-108658390D01*
X168538095Y-108658390D02*
X168585714Y-108706009D01*
X168585714Y-108706009D02*
X168680952Y-108753628D01*
X168680952Y-108753628D02*
X169061904Y-108753628D01*
X168061904Y-109229819D02*
X168061904Y-108229819D01*
X168061904Y-108229819D02*
X167490476Y-109229819D01*
X167490476Y-109229819D02*
X167490476Y-108229819D01*
X167109523Y-108229819D02*
X166442857Y-108229819D01*
X166442857Y-108229819D02*
X166871428Y-109229819D01*
X168490476Y-104729819D02*
X168823809Y-104253628D01*
X169061904Y-104729819D02*
X169061904Y-103729819D01*
X169061904Y-103729819D02*
X168680952Y-103729819D01*
X168680952Y-103729819D02*
X168585714Y-103777438D01*
X168585714Y-103777438D02*
X168538095Y-103825057D01*
X168538095Y-103825057D02*
X168490476Y-103920295D01*
X168490476Y-103920295D02*
X168490476Y-104063152D01*
X168490476Y-104063152D02*
X168538095Y-104158390D01*
X168538095Y-104158390D02*
X168585714Y-104206009D01*
X168585714Y-104206009D02*
X168680952Y-104253628D01*
X168680952Y-104253628D02*
X169061904Y-104253628D01*
X168061904Y-104729819D02*
X168061904Y-103729819D01*
X168061904Y-103729819D02*
X167490476Y-104729819D01*
X167490476Y-104729819D02*
X167490476Y-103729819D01*
X166538095Y-103729819D02*
X167014285Y-103729819D01*
X167014285Y-103729819D02*
X167061904Y-104206009D01*
X167061904Y-104206009D02*
X167014285Y-104158390D01*
X167014285Y-104158390D02*
X166919047Y-104110771D01*
X166919047Y-104110771D02*
X166680952Y-104110771D01*
X166680952Y-104110771D02*
X166585714Y-104158390D01*
X166585714Y-104158390D02*
X166538095Y-104206009D01*
X166538095Y-104206009D02*
X166490476Y-104301247D01*
X166490476Y-104301247D02*
X166490476Y-104539342D01*
X166490476Y-104539342D02*
X166538095Y-104634580D01*
X166538095Y-104634580D02*
X166585714Y-104682200D01*
X166585714Y-104682200D02*
X166680952Y-104729819D01*
X166680952Y-104729819D02*
X166919047Y-104729819D01*
X166919047Y-104729819D02*
X167014285Y-104682200D01*
X167014285Y-104682200D02*
X167061904Y-104634580D01*
X168490476Y-95679819D02*
X168823809Y-95203628D01*
X169061904Y-95679819D02*
X169061904Y-94679819D01*
X169061904Y-94679819D02*
X168680952Y-94679819D01*
X168680952Y-94679819D02*
X168585714Y-94727438D01*
X168585714Y-94727438D02*
X168538095Y-94775057D01*
X168538095Y-94775057D02*
X168490476Y-94870295D01*
X168490476Y-94870295D02*
X168490476Y-95013152D01*
X168490476Y-95013152D02*
X168538095Y-95108390D01*
X168538095Y-95108390D02*
X168585714Y-95156009D01*
X168585714Y-95156009D02*
X168680952Y-95203628D01*
X168680952Y-95203628D02*
X169061904Y-95203628D01*
X168061904Y-95679819D02*
X168061904Y-94679819D01*
X168061904Y-94679819D02*
X167490476Y-95679819D01*
X167490476Y-95679819D02*
X167490476Y-94679819D01*
X166585714Y-94679819D02*
X166776190Y-94679819D01*
X166776190Y-94679819D02*
X166871428Y-94727438D01*
X166871428Y-94727438D02*
X166919047Y-94775057D01*
X166919047Y-94775057D02*
X167014285Y-94917914D01*
X167014285Y-94917914D02*
X167061904Y-95108390D01*
X167061904Y-95108390D02*
X167061904Y-95489342D01*
X167061904Y-95489342D02*
X167014285Y-95584580D01*
X167014285Y-95584580D02*
X166966666Y-95632200D01*
X166966666Y-95632200D02*
X166871428Y-95679819D01*
X166871428Y-95679819D02*
X166680952Y-95679819D01*
X166680952Y-95679819D02*
X166585714Y-95632200D01*
X166585714Y-95632200D02*
X166538095Y-95584580D01*
X166538095Y-95584580D02*
X166490476Y-95489342D01*
X166490476Y-95489342D02*
X166490476Y-95251247D01*
X166490476Y-95251247D02*
X166538095Y-95156009D01*
X166538095Y-95156009D02*
X166585714Y-95108390D01*
X166585714Y-95108390D02*
X166680952Y-95060771D01*
X166680952Y-95060771D02*
X166871428Y-95060771D01*
X166871428Y-95060771D02*
X166966666Y-95108390D01*
X166966666Y-95108390D02*
X167014285Y-95156009D01*
X167014285Y-95156009D02*
X167061904Y-95251247D01*
X148690476Y-95679819D02*
X149023809Y-95203628D01*
X149261904Y-95679819D02*
X149261904Y-94679819D01*
X149261904Y-94679819D02*
X148880952Y-94679819D01*
X148880952Y-94679819D02*
X148785714Y-94727438D01*
X148785714Y-94727438D02*
X148738095Y-94775057D01*
X148738095Y-94775057D02*
X148690476Y-94870295D01*
X148690476Y-94870295D02*
X148690476Y-95013152D01*
X148690476Y-95013152D02*
X148738095Y-95108390D01*
X148738095Y-95108390D02*
X148785714Y-95156009D01*
X148785714Y-95156009D02*
X148880952Y-95203628D01*
X148880952Y-95203628D02*
X149261904Y-95203628D01*
X148261904Y-95679819D02*
X148261904Y-94679819D01*
X148261904Y-94679819D02*
X147690476Y-95679819D01*
X147690476Y-95679819D02*
X147690476Y-94679819D01*
X146785714Y-95013152D02*
X146785714Y-95679819D01*
X147023809Y-94632200D02*
X147261904Y-95346485D01*
X147261904Y-95346485D02*
X146642857Y-95346485D01*
X193533333Y-119654819D02*
X193533333Y-120369104D01*
X193533333Y-120369104D02*
X193580952Y-120511961D01*
X193580952Y-120511961D02*
X193676190Y-120607200D01*
X193676190Y-120607200D02*
X193819047Y-120654819D01*
X193819047Y-120654819D02*
X193914285Y-120654819D01*
X193152380Y-119654819D02*
X192533333Y-119654819D01*
X192533333Y-119654819D02*
X192866666Y-120035771D01*
X192866666Y-120035771D02*
X192723809Y-120035771D01*
X192723809Y-120035771D02*
X192628571Y-120083390D01*
X192628571Y-120083390D02*
X192580952Y-120131009D01*
X192580952Y-120131009D02*
X192533333Y-120226247D01*
X192533333Y-120226247D02*
X192533333Y-120464342D01*
X192533333Y-120464342D02*
X192580952Y-120559580D01*
X192580952Y-120559580D02*
X192628571Y-120607200D01*
X192628571Y-120607200D02*
X192723809Y-120654819D01*
X192723809Y-120654819D02*
X193009523Y-120654819D01*
X193009523Y-120654819D02*
X193104761Y-120607200D01*
X193104761Y-120607200D02*
X193152380Y-120559580D01*
X148690476Y-109179819D02*
X149023809Y-108703628D01*
X149261904Y-109179819D02*
X149261904Y-108179819D01*
X149261904Y-108179819D02*
X148880952Y-108179819D01*
X148880952Y-108179819D02*
X148785714Y-108227438D01*
X148785714Y-108227438D02*
X148738095Y-108275057D01*
X148738095Y-108275057D02*
X148690476Y-108370295D01*
X148690476Y-108370295D02*
X148690476Y-108513152D01*
X148690476Y-108513152D02*
X148738095Y-108608390D01*
X148738095Y-108608390D02*
X148785714Y-108656009D01*
X148785714Y-108656009D02*
X148880952Y-108703628D01*
X148880952Y-108703628D02*
X149261904Y-108703628D01*
X148261904Y-109179819D02*
X148261904Y-108179819D01*
X148261904Y-108179819D02*
X147690476Y-109179819D01*
X147690476Y-109179819D02*
X147690476Y-108179819D01*
X146690476Y-109179819D02*
X147261904Y-109179819D01*
X146976190Y-109179819D02*
X146976190Y-108179819D01*
X146976190Y-108179819D02*
X147071428Y-108322676D01*
X147071428Y-108322676D02*
X147166666Y-108417914D01*
X147166666Y-108417914D02*
X147261904Y-108465533D01*
D11*
%TO.C,RN8*%
X165100000Y-97630000D02*
X164100000Y-97630000D01*
X165100000Y-101870000D02*
X164100000Y-101870000D01*
D12*
%TO.C,J2*%
X119380500Y-81365000D02*
X119380500Y-83845000D01*
X119380500Y-118635000D02*
X119380500Y-116155000D01*
X121600000Y-81365000D02*
X126619500Y-81365000D01*
X121600000Y-118635000D02*
X126619500Y-118635000D01*
X126619500Y-81365000D02*
X126619500Y-83845000D01*
X126619500Y-118635000D02*
X126619500Y-116155000D01*
X127700000Y-84400000D02*
G75*
G02*
X127500000Y-84400000I-100000J0D01*
G01*
X127500000Y-84400000D02*
G75*
G02*
X127700000Y-84400000I100000J0D01*
G01*
D11*
%TO.C,R4*%
X156946359Y-111420000D02*
X157253641Y-111420000D01*
X156946359Y-112180000D02*
X157253641Y-112180000D01*
%TO.C,RN2*%
X151900000Y-102130000D02*
X150900000Y-102130000D01*
X151900000Y-106370000D02*
X150900000Y-106370000D01*
%TO.C,RN3*%
X151900000Y-97630000D02*
X150900000Y-97630000D01*
X151900000Y-101870000D02*
X150900000Y-101870000D01*
%TO.C,RN7*%
X165100000Y-106680000D02*
X164100000Y-106680000D01*
X165100000Y-110920000D02*
X164100000Y-110920000D01*
%TO.C,RN5*%
X165100000Y-102180000D02*
X164100000Y-102180000D01*
X165100000Y-106420000D02*
X164100000Y-106420000D01*
%TO.C,RN6*%
X165100000Y-93130000D02*
X164100000Y-93130000D01*
X165100000Y-97370000D02*
X164100000Y-97370000D01*
%TO.C,RN4*%
X151900000Y-93130000D02*
X150900000Y-93130000D01*
X151900000Y-97370000D02*
X150900000Y-97370000D01*
D12*
%TO.C,J3*%
X189380500Y-81365000D02*
X189380500Y-83845000D01*
X189380500Y-118635000D02*
X189380500Y-116155000D01*
X191600000Y-81365000D02*
X196619500Y-81365000D01*
X191600000Y-118635000D02*
X196619500Y-118635000D01*
X196619500Y-81365000D02*
X196619500Y-83845000D01*
X196619500Y-118635000D02*
X196619500Y-116155000D01*
X197700000Y-84400000D02*
G75*
G02*
X197500000Y-84400000I-100000J0D01*
G01*
X197500000Y-84400000D02*
G75*
G02*
X197700000Y-84400000I100000J0D01*
G01*
D11*
%TO.C,RN1*%
X151900000Y-106630000D02*
X150900000Y-106630000D01*
X151900000Y-110870000D02*
X150900000Y-110870000D01*
%TD*%
M02*
