M48
; DRILL file {KiCad 9.0.0-rc1} date 2025-01-31T14:13:43-0500
; FORMAT={-:-/ absolute / inch / decimal}
; #@! TF.CreationDate,2025-01-31T14:13:43-05:00
; #@! TF.GenerationSoftware,Kicad,Pcbnew,9.0.0-rc1
; #@! TF.FileFunction,Plated,1,2,PTH
FMAT,2
INCH
; #@! TA.AperFunction,Plated,PTH,ViaDrill
T1C0.0079
; #@! TA.AperFunction,Plated,PTH,ComponentDrill
T2C0.0177
; #@! TA.AperFunction,Plated,PTH,ComponentDrill
T3C0.0276
; #@! TA.AperFunction,Plated,PTH,ComponentDrill
T4C0.0551
%
G90
G05
T1
X4.4528Y-3.7165
X4.4594Y-4.4291
X4.4685Y-3.2165
X4.4803Y-5.2717
X5.0276Y-4.5197
X5.0276Y-4.5512
X5.0748Y-3.9213
X5.0748Y-5.2598
X5.0787Y-3.6378
X5.0787Y-4.2126
X5.0886Y-4.8563
X5.1378Y-4.9055
X5.1535Y-4.7717
X5.1535Y-4.815
X5.1929Y-4.9606
X5.2598Y-4.6063
X5.2992Y-5.0039
X5.315Y-3.1811
X5.3189Y-5.0039
X5.4606Y-4.2047
X5.5157Y-3.9213
X5.5669Y-3.6417
X5.5866Y-5.2362
X5.8307Y-4.4449
X5.8425Y-3.1929
X5.9843Y-4.811
X6.0394Y-3.6181
X6.0827Y-3.7953
X6.0827Y-3.8268
X6.0827Y-3.8583
X6.0827Y-3.8898
X6.0827Y-3.9213
X6.0827Y-3.9528
X6.0827Y-3.9843
X6.0827Y-4.0157
X6.0827Y-4.0472
X6.0827Y-4.0787
X6.0827Y-4.1102
X6.0827Y-4.1417
X6.0827Y-4.1732
X6.0827Y-4.2047
X6.0827Y-4.2362
X6.0827Y-4.2677
X6.1102Y-3.7795
X6.1102Y-3.811
X6.1102Y-3.8425
X6.1102Y-3.874
X6.1102Y-3.9055
X6.1102Y-3.937
X6.1102Y-3.9685
X6.1102Y-4.0
X6.1102Y-4.0315
X6.1102Y-4.063
X6.1102Y-4.0945
X6.1102Y-4.126
X6.1102Y-4.1575
X6.1102Y-4.189
X6.1102Y-4.2205
X6.1102Y-4.252
X6.2165Y-3.7677
X6.2205Y-4.185
X6.2756Y-4.4567
X6.3307Y-3.7638
X6.3307Y-3.7953
X6.3307Y-3.8268
X6.3307Y-3.8583
X6.3307Y-3.8898
X6.3307Y-3.9213
X6.3307Y-3.9528
X6.3307Y-3.9843
X6.3307Y-4.0157
X6.3307Y-4.0472
X6.3307Y-4.0787
X6.3307Y-4.1102
X6.3307Y-4.1417
X6.3307Y-4.1732
X6.3307Y-4.2047
X6.3307Y-4.2362
X6.3543Y-5.2087
X6.3583Y-3.7795
X6.3583Y-3.811
X6.3583Y-3.8425
X6.3583Y-3.874
X6.3583Y-3.9055
X6.3583Y-3.937
X6.3583Y-3.9685
X6.3583Y-4.0
X6.3583Y-4.0315
X6.3583Y-4.063
X6.3583Y-4.0945
X6.3583Y-4.126
X6.3583Y-4.1575
X6.3583Y-4.189
X6.3583Y-4.2205
X6.3583Y-4.252
X6.374Y-3.6417
X6.5669Y-4.3976
X6.853Y-3.1583
X6.8701Y-3.6378
X6.9016Y-4.2047
X6.9094Y-3.9213
X7.0748Y-5.2205
X7.2559Y-4.5866
X7.2795Y-3.1575
X7.3701Y-3.9213
X7.3819Y-3.6417
X7.3819Y-4.2047
X7.4803Y-5.189
X7.9882Y-3.5866
X7.9921Y-3.185
X8.0Y-4.2323
X8.0Y-5.1024
T2
X5.9961Y-3.3858
X6.0236Y-3.3583
X6.0236Y-3.4134
T3
X6.4173Y-3.3465
X6.4173Y-3.4252
X6.4567Y-3.3858
T4
X6.0236Y-3.1102
X6.0236Y-5.315
X6.4173Y-3.1102
X6.4173Y-5.315
M30
