%TF.GenerationSoftware,KiCad,Pcbnew,9.0.7*%
%TF.CreationDate,2026-03-17T16:17:13+00:00*%
%TF.ProjectId,ephys-test-module-64,65706879-732d-4746-9573-742d6d6f6475,F*%
%TF.SameCoordinates,PX66ff300PY82a7440*%
%TF.FileFunction,Copper,L1,Top*%
%TF.FilePolarity,Positive*%
%FSLAX46Y46*%
G04 Gerber Fmt 4.6, Leading zero omitted, Abs format (unit mm)*
G04 Created by KiCad (PCBNEW 9.0.7) date 2026-03-17 16:17:13*
%MOMM*%
%LPD*%
G01*
G04 APERTURE LIST*
G04 Aperture macros list*
%AMRoundRect*
0 Rectangle with rounded corners*
0 $1 Rounding radius*
0 $2 $3 $4 $5 $6 $7 $8 $9 X,Y pos of 4 corners*
0 Add a 4 corners polygon primitive as box body*
4,1,4,$2,$3,$4,$5,$6,$7,$8,$9,$2,$3,0*
0 Add four circle primitives for the rounded corners*
1,1,$1+$1,$2,$3*
1,1,$1+$1,$4,$5*
1,1,$1+$1,$6,$7*
1,1,$1+$1,$8,$9*
0 Add four rect primitives between the rounded corners*
20,1,$1+$1,$2,$3,$4,$5,0*
20,1,$1+$1,$4,$5,$6,$7,0*
20,1,$1+$1,$6,$7,$8,$9,0*
20,1,$1+$1,$8,$9,$2,$3,0*%
G04 Aperture macros list end*
%TA.AperFunction,ComponentPad*%
%ADD10C,3.000000*%
%TD*%
%TA.AperFunction,SMDPad,CuDef*%
%ADD11R,3.150000X1.000000*%
%TD*%
%TA.AperFunction,SMDPad,CuDef*%
%ADD12RoundRect,0.135000X-0.135000X-0.185000X0.135000X-0.185000X0.135000X0.185000X-0.135000X0.185000X0*%
%TD*%
%TA.AperFunction,ComponentPad*%
%ADD13RoundRect,0.200000X-0.282843X0.000000X0.000000X-0.282843X0.282843X0.000000X0.000000X0.282843X0*%
%TD*%
%TA.AperFunction,ComponentPad*%
%ADD14C,0.800000*%
%TD*%
%TA.AperFunction,SMDPad,CuDef*%
%ADD15RoundRect,0.010000X0.340000X-0.090000X0.340000X0.090000X-0.340000X0.090000X-0.340000X-0.090000X0*%
%TD*%
%TA.AperFunction,SMDPad,CuDef*%
%ADD16RoundRect,0.150000X0.150000X-0.825000X0.150000X0.825000X-0.150000X0.825000X-0.150000X-0.825000X0*%
%TD*%
%TA.AperFunction,ComponentPad*%
%ADD17RoundRect,0.275000X-0.388909X0.000000X0.000000X-0.388909X0.388909X0.000000X0.000000X0.388909X0*%
%TD*%
%TA.AperFunction,ComponentPad*%
%ADD18C,1.100000*%
%TD*%
%TA.AperFunction,SMDPad,CuDef*%
%ADD19RoundRect,0.140000X-0.170000X0.140000X-0.170000X-0.140000X0.170000X-0.140000X0.170000X0.140000X0*%
%TD*%
%TA.AperFunction,ViaPad*%
%ADD20C,0.500000*%
%TD*%
%TA.AperFunction,Conductor*%
%ADD21C,0.400000*%
%TD*%
%TA.AperFunction,Conductor*%
%ADD22C,0.150000*%
%TD*%
%TA.AperFunction,Conductor*%
%ADD23C,0.200000*%
%TD*%
G04 APERTURE END LIST*
D10*
%TO.P,TP1,1,1*%
%TO.N,/Headstage Interface/E_{stim}*%
X80000000Y2000000D03*
%TD*%
%TO.P,TP2,1,1*%
%TO.N,GND*%
X90000000Y2000000D03*
%TD*%
D11*
%TO.P,J4,1,Pin_1*%
%TO.N,/Headstage Interface/REF*%
X82475000Y27814579D03*
%TO.P,J4,2,Pin_2*%
%TO.N,GND*%
X87525000Y27814579D03*
%TO.P,J4,3,Pin_3*%
X82475000Y25274579D03*
%TO.P,J4,4,Pin_4*%
X87525000Y25274579D03*
%TO.P,J4,5,Pin_5*%
%TO.N,/Headstage Interface/K_{0}*%
X82475000Y22734579D03*
%TO.P,J4,6,Pin_6*%
%TO.N,GND*%
X87525000Y22734579D03*
%TO.P,J4,7,Pin_7*%
%TO.N,/Headstage Interface/K_{1}*%
X82475000Y20194579D03*
%TO.P,J4,8,Pin_8*%
%TO.N,GND*%
X87525000Y20194579D03*
%TO.P,J4,9,Pin_9*%
%TO.N,/Headstage Interface/A*%
X82475000Y17654579D03*
%TO.P,J4,10,Pin_10*%
%TO.N,GND*%
X87525000Y17654579D03*
%TD*%
D12*
%TO.P,R3,1*%
%TO.N,VCC*%
X14690000Y17000000D03*
%TO.P,R3,2*%
%TO.N,/Test Signal Interface/SCL*%
X15710000Y17000000D03*
%TD*%
D13*
%TO.P,LD1,1,A*%
%TO.N,/Headstage Interface/A*%
X80000000Y11800000D03*
D14*
%TO.P,LD1,2,NC*%
%TO.N,unconnected-(LD1-NC-Pad2)*%
X79300000Y11100000D03*
%TO.P,LD1,3,C*%
%TO.N,/Headstage Interface/K_{0}*%
X80000000Y10400000D03*
%TD*%
D15*
%TO.P,J1,1,Pin_1*%
%TO.N,/Headstage Interface/E_{stim}*%
X48460000Y28200000D03*
%TO.P,J1,2,Pin_2*%
%TO.N,GND*%
X51540000Y28200000D03*
%TO.P,J1,3,Pin_3*%
%TO.N,/Headstage Interface/E0*%
X48460000Y28600000D03*
%TO.P,J1,4,Pin_4*%
%TO.N,/Headstage Interface/REF*%
X51540000Y28600000D03*
%TO.P,J1,5,Pin_5*%
%TO.N,/Headstage Interface/E2*%
X48460000Y29000000D03*
%TO.P,J1,6,Pin_6*%
%TO.N,/Headstage Interface/E1*%
X51540000Y29000000D03*
%TO.P,J1,7,Pin_7*%
%TO.N,/Headstage Interface/E4*%
X48460000Y29400000D03*
%TO.P,J1,8,Pin_8*%
%TO.N,/Headstage Interface/E3*%
X51540000Y29400000D03*
%TO.P,J1,9,Pin_9*%
%TO.N,/Headstage Interface/E6*%
X48460000Y29800000D03*
%TO.P,J1,10,Pin_10*%
%TO.N,/Headstage Interface/E5*%
X51540000Y29800000D03*
%TO.P,J1,11,Pin_11*%
%TO.N,/Headstage Interface/E8*%
X48460000Y30200000D03*
%TO.P,J1,12,Pin_12*%
%TO.N,/Headstage Interface/E7*%
X51540000Y30200000D03*
%TO.P,J1,13,Pin_13*%
%TO.N,/Headstage Interface/E10*%
X48460000Y30600000D03*
%TO.P,J1,14,Pin_14*%
%TO.N,/Headstage Interface/E9*%
X51540000Y30600000D03*
%TO.P,J1,15,Pin_15*%
%TO.N,/Headstage Interface/E12*%
X48460000Y31000000D03*
%TO.P,J1,16,Pin_16*%
%TO.N,/Headstage Interface/E11*%
X51540000Y31000000D03*
%TO.P,J1,17,Pin_17*%
%TO.N,/Headstage Interface/E14*%
X48460000Y31400000D03*
%TO.P,J1,18,Pin_18*%
%TO.N,/Headstage Interface/E13*%
X51540000Y31400000D03*
%TO.P,J1,19,Pin_19*%
%TO.N,/Headstage Interface/E16*%
X48460000Y31800000D03*
%TO.P,J1,20,Pin_20*%
%TO.N,/Headstage Interface/E15*%
X51540000Y31800000D03*
%TO.P,J1,21,Pin_21*%
%TO.N,/Headstage Interface/E18*%
X48460000Y32200000D03*
%TO.P,J1,22,Pin_22*%
%TO.N,/Headstage Interface/E17*%
X51540000Y32200000D03*
%TO.P,J1,23,Pin_23*%
%TO.N,/Headstage Interface/E20*%
X48460000Y32600000D03*
%TO.P,J1,24,Pin_24*%
%TO.N,/Headstage Interface/E19*%
X51540000Y32600000D03*
%TO.P,J1,25,Pin_25*%
%TO.N,/Headstage Interface/E22*%
X48460000Y33000000D03*
%TO.P,J1,26,Pin_26*%
%TO.N,/Headstage Interface/E21*%
X51540000Y33000000D03*
%TO.P,J1,27,Pin_27*%
%TO.N,/Headstage Interface/E24*%
X48460000Y33400000D03*
%TO.P,J1,28,Pin_28*%
%TO.N,/Headstage Interface/E23*%
X51540000Y33400000D03*
%TO.P,J1,29,Pin_29*%
%TO.N,/Headstage Interface/E26*%
X48460000Y33800000D03*
%TO.P,J1,30,Pin_30*%
%TO.N,/Headstage Interface/E25*%
X51540000Y33800000D03*
%TO.P,J1,31,Pin_31*%
%TO.N,/Headstage Interface/E28*%
X48460000Y34200000D03*
%TO.P,J1,32,Pin_32*%
%TO.N,/Headstage Interface/E27*%
X51540000Y34200000D03*
%TO.P,J1,33,Pin_33*%
%TO.N,/Headstage Interface/E30*%
X48460000Y34600000D03*
%TO.P,J1,34,Pin_34*%
%TO.N,/Headstage Interface/E29*%
X51540000Y34600000D03*
%TO.P,J1,35,Pin_35*%
%TO.N,/Headstage Interface/E32*%
X48460000Y35000000D03*
%TO.P,J1,36,Pin_36*%
%TO.N,/Headstage Interface/E31*%
X51540000Y35000000D03*
%TO.P,J1,37,Pin_37*%
%TO.N,/Headstage Interface/E34*%
X48460000Y35400000D03*
%TO.P,J1,38,Pin_38*%
%TO.N,/Headstage Interface/E33*%
X51540000Y35400000D03*
%TO.P,J1,39,Pin_39*%
%TO.N,/Headstage Interface/E36*%
X48460000Y35800000D03*
%TO.P,J1,40,Pin_40*%
%TO.N,/Headstage Interface/E35*%
X51540000Y35800000D03*
%TO.P,J1,41,Pin_41*%
%TO.N,/Headstage Interface/E38*%
X48460000Y36200000D03*
%TO.P,J1,42,Pin_42*%
%TO.N,/Headstage Interface/E37*%
X51540000Y36200000D03*
%TO.P,J1,43,Pin_43*%
%TO.N,/Headstage Interface/E40*%
X48460000Y36600000D03*
%TO.P,J1,44,Pin_44*%
%TO.N,/Headstage Interface/E39*%
X51540000Y36600000D03*
%TO.P,J1,45,Pin_45*%
%TO.N,/Headstage Interface/E42*%
X48460000Y37000000D03*
%TO.P,J1,46,Pin_46*%
%TO.N,/Headstage Interface/E41*%
X51540000Y37000000D03*
%TO.P,J1,47,Pin_47*%
%TO.N,/Headstage Interface/E44*%
X48460000Y37400000D03*
%TO.P,J1,48,Pin_48*%
%TO.N,/Headstage Interface/E43*%
X51540000Y37400000D03*
%TO.P,J1,49,Pin_49*%
%TO.N,/Headstage Interface/E46*%
X48460000Y37800000D03*
%TO.P,J1,50,Pin_50*%
%TO.N,/Headstage Interface/E45*%
X51540000Y37800000D03*
%TO.P,J1,51,Pin_51*%
%TO.N,/Headstage Interface/E48*%
X48460000Y38200000D03*
%TO.P,J1,52,Pin_52*%
%TO.N,/Headstage Interface/E47*%
X51540000Y38200000D03*
%TO.P,J1,53,Pin_53*%
%TO.N,/Headstage Interface/E50*%
X48460000Y38600000D03*
%TO.P,J1,54,Pin_54*%
%TO.N,/Headstage Interface/E49*%
X51540000Y38600000D03*
%TO.P,J1,55,Pin_55*%
%TO.N,/Headstage Interface/E52*%
X48460000Y39000000D03*
%TO.P,J1,56,Pin_56*%
%TO.N,/Headstage Interface/E51*%
X51540000Y39000000D03*
%TO.P,J1,57,Pin_57*%
%TO.N,/Headstage Interface/E54*%
X48460000Y39400000D03*
%TO.P,J1,58,Pin_58*%
%TO.N,/Headstage Interface/E53*%
X51540000Y39400000D03*
%TO.P,J1,59,Pin_59*%
%TO.N,/Headstage Interface/E56*%
X48460000Y39800000D03*
%TO.P,J1,60,Pin_60*%
%TO.N,/Headstage Interface/E55*%
X51540000Y39800000D03*
%TO.P,J1,61,Pin_61*%
%TO.N,/Headstage Interface/E58*%
X48460000Y40200000D03*
%TO.P,J1,62,Pin_62*%
%TO.N,/Headstage Interface/E57*%
X51540000Y40200000D03*
%TO.P,J1,63,Pin_63*%
%TO.N,/Headstage Interface/E60*%
X48460000Y40600000D03*
%TO.P,J1,64,Pin_64*%
%TO.N,/Headstage Interface/E59*%
X51540000Y40600000D03*
%TO.P,J1,65,Pin_65*%
%TO.N,/Headstage Interface/E62*%
X48460000Y41000000D03*
%TO.P,J1,66,Pin_66*%
%TO.N,/Headstage Interface/E61*%
X51540000Y41000000D03*
%TO.P,J1,67,Pin_67*%
%TO.N,/Headstage Interface/K_{0}*%
X48460000Y41400000D03*
%TO.P,J1,68,Pin_68*%
%TO.N,/Headstage Interface/E63*%
X51540000Y41400000D03*
%TO.P,J1,69,Pin_69*%
%TO.N,/Headstage Interface/K_{1}*%
X48460000Y41800000D03*
%TO.P,J1,70,Pin_70*%
%TO.N,/Headstage Interface/A*%
X51540000Y41800000D03*
%TD*%
D12*
%TO.P,R1,1*%
%TO.N,VCC*%
X13390000Y15900000D03*
%TO.P,R1,2*%
%TO.N,/Test Signal Interface/WP*%
X14410000Y15900000D03*
%TD*%
D16*
%TO.P,U1,1,A0*%
%TO.N,GND*%
X13295000Y8825000D03*
%TO.P,U1,2,A1*%
X14565000Y8825000D03*
%TO.P,U1,3,A2*%
X15835000Y8825000D03*
%TO.P,U1,4,GND*%
X17105000Y8825000D03*
%TO.P,U1,5,SDA*%
%TO.N,/Test Signal Interface/SDA*%
X17105000Y13775000D03*
%TO.P,U1,6,SCL*%
%TO.N,/Test Signal Interface/SCL*%
X15835000Y13775000D03*
%TO.P,U1,7,WP*%
%TO.N,/Test Signal Interface/WP*%
X14565000Y13775000D03*
%TO.P,U1,8,VCC*%
%TO.N,VCC*%
X13295000Y13775000D03*
%TD*%
D12*
%TO.P,R2,1*%
%TO.N,VCC*%
X16090000Y18200000D03*
%TO.P,R2,2*%
%TO.N,/Test Signal Interface/SDA*%
X17110000Y18200000D03*
%TD*%
D17*
%TO.P,LD2,1,A*%
%TO.N,/Headstage Interface/A*%
X90000000Y12100000D03*
D18*
%TO.P,LD2,2,NC*%
%TO.N,unconnected-(LD2-NC-Pad2)*%
X89000000Y11100000D03*
%TO.P,LD2,3,C*%
%TO.N,/Headstage Interface/K_{1}*%
X90000000Y10100000D03*
%TD*%
D19*
%TO.P,C1,1*%
%TO.N,VCC*%
X11700000Y11780000D03*
%TO.P,C1,2*%
%TO.N,GND*%
X11700000Y10820000D03*
%TD*%
D20*
%TO.N,GND*%
X51000000Y25200000D03*
X50000000Y41300000D03*
X61600000Y22450000D03*
X86700000Y10000000D03*
X98600000Y13700000D03*
X37300000Y40325000D03*
X64600000Y40200000D03*
X5500000Y55300000D03*
X67981000Y22538000D03*
X20900000Y37400000D03*
X43650000Y25200000D03*
X66000000Y2000000D03*
X35250000Y22875000D03*
X76000000Y3500000D03*
X5269807Y24500000D03*
X45400000Y45100000D03*
X25600000Y20000000D03*
X76700000Y17900000D03*
X39500000Y47975000D03*
X48400000Y52900000D03*
X77766525Y44706285D03*
X27000000Y56200000D03*
X56500000Y25300000D03*
X46800000Y22100000D03*
X65525000Y52250000D03*
X73725000Y37325000D03*
X82700000Y11200000D03*
X40400000Y55900000D03*
X90880000Y15884579D03*
X5800000Y3100000D03*
X75200000Y12100000D03*
X64997000Y12987000D03*
X30700000Y30200000D03*
X79200000Y37400000D03*
X51400000Y27500000D03*
X99048965Y34822817D03*
X68800000Y44550000D03*
X51100000Y3100000D03*
X59100000Y17600000D03*
X93700000Y31300000D03*
X30400000Y44600000D03*
X78725000Y52325000D03*
X41375000Y14293000D03*
X67300000Y30200000D03*
X79500000Y30200000D03*
X54100000Y21900000D03*
X28150000Y37375000D03*
X94300000Y18800000D03*
X20900000Y3400000D03*
X32700000Y35250000D03*
X5100000Y42600000D03*
X77000000Y59100000D03*
X69975000Y35275000D03*
X50000000Y30700000D03*
X93400000Y54300000D03*
X57000000Y8800000D03*
X98200000Y57500000D03*
X57800000Y56500000D03*
X51177000Y15084000D03*
X45800000Y25650000D03*
X47000000Y42400000D03*
X59975000Y47925000D03*
X21125000Y51925000D03*
X86700000Y6400000D03*
X29800000Y12200000D03*
X40100000Y24100000D03*
X78500000Y21500000D03*
X30850000Y52525000D03*
X70300000Y19300000D03*
X93500000Y42200000D03*
X21000000Y30000000D03*
X21400000Y22250000D03*
X21000000Y44600000D03*
X86400000Y14400000D03*
X47500000Y26900000D03*
X90600000Y52200000D03*
X72200000Y55200000D03*
X98500000Y2300000D03*
X53900000Y44500000D03*
X33900000Y4000000D03*
X54100000Y58700000D03*
X86252340Y55048011D03*
X50000000Y47600000D03*
%TO.N,VCC*%
X12800000Y16000000D03*
X15450000Y18650000D03*
X11700000Y12800000D03*
X11700000Y13300000D03*
X14200000Y17400000D03*
%TO.N,/Headstage Interface/K_{0}*%
X84700000Y8900000D03*
X84700000Y15400000D03*
X47700000Y42200000D03*
%TO.N,/Headstage Interface/E_{stim}*%
X48500000Y26100000D03*
X48500000Y27700000D03*
%TO.N,/Headstage Interface/K_{1}*%
X48500000Y42400000D03*
X89400000Y14000000D03*
X80200000Y16200000D03*
%TO.N,/Headstage Interface/REF*%
X73900000Y22900000D03*
X52200000Y27500000D03*
%TO.N,/Headstage Interface/A*%
X51500000Y42300000D03*
X82500000Y15000000D03*
%TO.N,/Test Signal Interface/SDA*%
X17863500Y20463500D03*
X17100000Y16100000D03*
X17100000Y17500000D03*
%TO.N,/Test Signal Interface/SCL*%
X19700000Y21600000D03*
%TO.N,/Test Signal Interface/WP*%
X10100000Y20900000D03*
%TO.N,/Headstage Interface/E0*%
X45400000Y26500000D03*
%TO.N,/Headstage Interface/E8*%
X45400000Y28500000D03*
%TO.N,/Headstage Interface/E12*%
X45400000Y29500000D03*
%TO.N,/Headstage Interface/E4*%
X45400000Y27500000D03*
%TO.N,/Headstage Interface/E14*%
X45000000Y30000000D03*
%TO.N,/Headstage Interface/E6*%
X45000000Y28000000D03*
%TO.N,/Headstage Interface/E2*%
X45000000Y27000000D03*
%TO.N,/Headstage Interface/E10*%
X45000000Y29000000D03*
%TO.N,/Headstage Interface/E46*%
X45400000Y39000000D03*
%TO.N,/Headstage Interface/E42*%
X45400000Y38000000D03*
%TO.N,/Headstage Interface/E36*%
X45000000Y36500000D03*
%TO.N,/Headstage Interface/E48*%
X45000000Y40000000D03*
%TO.N,/Headstage Interface/E52*%
X45000000Y41000000D03*
%TO.N,/Headstage Interface/E58*%
X45400000Y42500000D03*
%TO.N,/Headstage Interface/E26*%
X45000000Y33500000D03*
%TO.N,/Headstage Interface/E56*%
X45000000Y42000000D03*
%TO.N,/Headstage Interface/E50*%
X45400000Y40500000D03*
%TO.N,/Headstage Interface/E20*%
X45400000Y32000000D03*
%TO.N,/Headstage Interface/E32*%
X45000000Y35500000D03*
%TO.N,/Headstage Interface/E16*%
X45400000Y31000000D03*
%TO.N,/Headstage Interface/E30*%
X45000000Y34500000D03*
%TO.N,/Headstage Interface/E44*%
X45000000Y38500000D03*
%TO.N,/Headstage Interface/E54*%
X45400000Y41500000D03*
%TO.N,/Headstage Interface/E62*%
X45400000Y43500000D03*
%TO.N,/Headstage Interface/E18*%
X45000000Y31500000D03*
%TO.N,/Headstage Interface/E28*%
X45400000Y34000000D03*
%TO.N,/Headstage Interface/E34*%
X45400000Y36000000D03*
%TO.N,/Headstage Interface/E22*%
X45000000Y32500000D03*
%TO.N,/Headstage Interface/E38*%
X45400000Y37000000D03*
%TO.N,/Headstage Interface/E40*%
X45000000Y37500000D03*
%TO.N,/Headstage Interface/E60*%
X45000000Y43000000D03*
%TO.N,/Headstage Interface/E24*%
X45400000Y33000000D03*
%TO.N,/Headstage Interface/E19*%
X55000000Y31450000D03*
%TO.N,/Headstage Interface/E25*%
X54600000Y32950000D03*
%TO.N,/Headstage Interface/E5*%
X54600000Y27450000D03*
%TO.N,/Headstage Interface/E45*%
X55000000Y38500000D03*
%TO.N,/Headstage Interface/E29*%
X54600000Y33950000D03*
%TO.N,/Headstage Interface/E41*%
X55000000Y37500000D03*
%TO.N,/Headstage Interface/E9*%
X54600000Y28450000D03*
%TO.N,/Headstage Interface/E57*%
X55000000Y42000000D03*
%TO.N,/Headstage Interface/E59*%
X54600000Y42500000D03*
%TO.N,/Headstage Interface/E39*%
X54600000Y37000000D03*
%TO.N,/Headstage Interface/E55*%
X54600000Y41500000D03*
%TO.N,/Headstage Interface/E21*%
X54600000Y31950000D03*
%TO.N,/Headstage Interface/E15*%
X55000000Y29950000D03*
%TO.N,/Headstage Interface/E47*%
X54600000Y39000000D03*
%TO.N,/Headstage Interface/E7*%
X55000000Y27950000D03*
%TO.N,/Headstage Interface/E35*%
X54600000Y36000000D03*
%TO.N,/Headstage Interface/E49*%
X55000000Y40000000D03*
%TO.N,/Headstage Interface/E11*%
X55000000Y28950000D03*
%TO.N,/Headstage Interface/E17*%
X54600000Y30950000D03*
%TO.N,/Headstage Interface/E3*%
X55000000Y26950000D03*
%TO.N,/Headstage Interface/E33*%
X55000000Y35500000D03*
%TO.N,/Headstage Interface/E61*%
X55000000Y43000000D03*
%TO.N,/Headstage Interface/E37*%
X55000000Y36500000D03*
%TO.N,/Headstage Interface/E31*%
X55000000Y34450000D03*
%TO.N,/Headstage Interface/E27*%
X55000000Y33450000D03*
%TO.N,/Headstage Interface/E43*%
X54600000Y38000000D03*
%TO.N,/Headstage Interface/E23*%
X55000000Y32450000D03*
%TO.N,/Headstage Interface/E63*%
X54600000Y43500000D03*
%TO.N,/Headstage Interface/E53*%
X55000000Y41000000D03*
%TO.N,/Headstage Interface/E51*%
X54600000Y40500000D03*
%TO.N,/Headstage Interface/E1*%
X54600000Y26450000D03*
%TO.N,/Headstage Interface/E13*%
X54600000Y29450000D03*
%TD*%
D21*
%TO.N,VCC*%
X11700000Y11780000D02*
X11700000Y13300000D01*
D22*
X14600000Y17000000D02*
X14200000Y17400000D01*
X12900000Y15900000D02*
X12800000Y16000000D01*
X13390000Y15900000D02*
X12900000Y15900000D01*
D21*
X11700000Y13300000D02*
X11700000Y12600000D01*
X11700000Y12600000D02*
X11700000Y12800000D01*
D22*
X15900000Y18200000D02*
X15450000Y18650000D01*
D21*
X12175000Y13775000D02*
X11700000Y13300000D01*
X13295000Y13775000D02*
X12175000Y13775000D01*
D23*
%TO.N,/Headstage Interface/K_{0}*%
X47700000Y42200000D02*
X47700000Y41600000D01*
D21*
X84700000Y15400000D02*
X84700000Y21300000D01*
X83265421Y22734579D02*
X82446000Y22734579D01*
X84700000Y21300000D02*
X83265421Y22734579D01*
D23*
X47900000Y41400000D02*
X48460000Y41400000D01*
X47700000Y41600000D02*
X47900000Y41400000D01*
D22*
%TO.N,/Headstage Interface/E_{stim}*%
X48500000Y28160000D02*
X48460000Y28200000D01*
D23*
X48460000Y28200000D02*
X48460000Y27740000D01*
X48460000Y27740000D02*
X48500000Y27700000D01*
D21*
%TO.N,/Headstage Interface/K_{1}*%
X81494579Y20194579D02*
X82446000Y20194579D01*
D23*
X48460000Y41800000D02*
X48460000Y42360000D01*
X48460000Y42360000D02*
X48500000Y42400000D01*
D21*
X80200000Y16200000D02*
X80200000Y18900000D01*
X80200000Y18900000D02*
X81494579Y20194579D01*
%TO.N,/Headstage Interface/REF*%
X73900000Y22900000D02*
X78814579Y27814579D01*
X78814579Y27814579D02*
X82446000Y27814579D01*
D22*
X51540000Y28600000D02*
X51900000Y28600000D01*
X52000000Y28500000D02*
X51900000Y28600000D01*
X52200000Y28300000D02*
X52200000Y27500000D01*
X52000000Y28500000D02*
X52200000Y28300000D01*
D21*
%TO.N,/Headstage Interface/A*%
X82500000Y15000000D02*
X82500000Y17600579D01*
X82500000Y17600579D02*
X82446000Y17654579D01*
D23*
X51540000Y42260000D02*
X51500000Y42300000D01*
X51540000Y41800000D02*
X51540000Y42260000D01*
D22*
%TO.N,/Test Signal Interface/SDA*%
X17863500Y20463500D02*
X17863500Y18563500D01*
X17863500Y18563500D02*
X17500000Y18200000D01*
X17100000Y17500000D02*
X17100000Y17600000D01*
X17100000Y17600000D02*
X17110000Y17610000D01*
X17105000Y13775000D02*
X17105000Y16095000D01*
X17500000Y18200000D02*
X17110000Y18200000D01*
X17110000Y17610000D02*
X17110000Y18200000D01*
X17105000Y16095000D02*
X17100000Y16100000D01*
%TO.N,/Test Signal Interface/SCL*%
X15910000Y16800000D02*
X15710000Y17000000D01*
X15835000Y13775000D02*
X15835000Y16875000D01*
X19700000Y21600000D02*
X19700000Y18800000D01*
X17700000Y16800000D02*
X15910000Y16800000D01*
X19700000Y18800000D02*
X17700000Y16800000D01*
%TO.N,/Test Signal Interface/WP*%
X13510000Y16800000D02*
X14410000Y15900000D01*
X10100000Y19000000D02*
X12300000Y16800000D01*
X10100000Y20900000D02*
X10100000Y19000000D01*
X14565000Y13775000D02*
X14565000Y15745000D01*
X12300000Y16800000D02*
X13510000Y16800000D01*
%TO.N,/Headstage Interface/E0*%
X46038394Y26500000D02*
X45400000Y26500000D01*
X48138394Y28600000D02*
X46038394Y26500000D01*
X48460000Y28600000D02*
X48138394Y28600000D01*
%TO.N,/Headstage Interface/E8*%
X46283252Y28500000D02*
X47983252Y30200000D01*
X47983252Y30200000D02*
X48460000Y30200000D01*
X45400000Y28500000D02*
X46283252Y28500000D01*
%TO.N,/Headstage Interface/E12*%
X46400000Y29500000D02*
X47900000Y31000000D01*
X47900000Y31000000D02*
X48460000Y31000000D01*
X45400000Y29500000D02*
X46400000Y29500000D01*
%TO.N,/Headstage Interface/E4*%
X45400000Y27500000D02*
X46238394Y27500000D01*
X46238394Y27500000D02*
X48138394Y29400000D01*
X48138394Y29400000D02*
X48460000Y29400000D01*
%TO.N,/Headstage Interface/E14*%
X46400000Y30000000D02*
X47800000Y31400000D01*
X47800000Y31400000D02*
X48460000Y31400000D01*
X45000000Y30000000D02*
X46400000Y30000000D01*
%TO.N,/Headstage Interface/E6*%
X48000000Y29800000D02*
X48460000Y29800000D01*
X46200000Y28000000D02*
X48000000Y29800000D01*
X45000000Y28000000D02*
X46200000Y28000000D01*
%TO.N,/Headstage Interface/E2*%
X45000000Y27000000D02*
X46138394Y27000000D01*
X46138394Y27000000D02*
X48138394Y29000000D01*
X48138394Y29000000D02*
X48460000Y29000000D01*
%TO.N,/Headstage Interface/E10*%
X48000000Y30600000D02*
X48460000Y30600000D01*
X45000000Y29000000D02*
X46400000Y29000000D01*
X46400000Y29000000D02*
X48000000Y30600000D01*
%TO.N,/Headstage Interface/E46*%
X47300000Y37800000D02*
X46100000Y39000000D01*
X48460000Y37800000D02*
X47300000Y37800000D01*
X46100000Y39000000D02*
X45400000Y39000000D01*
%TO.N,/Headstage Interface/E42*%
X45400000Y38000000D02*
X46000000Y38000000D01*
X47000000Y37000000D02*
X48460000Y37000000D01*
X46000000Y38000000D02*
X47000000Y37000000D01*
%TO.N,/Headstage Interface/E36*%
X46916748Y35800000D02*
X48460000Y35800000D01*
X46216748Y36500000D02*
X46916748Y35800000D01*
X45000000Y36500000D02*
X46216748Y36500000D01*
%TO.N,/Headstage Interface/E48*%
X45000000Y40000000D02*
X45700000Y40000000D01*
X45700000Y40000000D02*
X47500000Y38200000D01*
X47500000Y38200000D02*
X48460000Y38200000D01*
%TO.N,/Headstage Interface/E52*%
X45000000Y41000000D02*
X45700000Y41000000D01*
X47700000Y39000000D02*
X48460000Y39000000D01*
X45700000Y41000000D02*
X47700000Y39000000D01*
%TO.N,/Headstage Interface/E58*%
X45400000Y42500000D02*
X45413992Y42500000D01*
X45413992Y42500000D02*
X47713992Y40200000D01*
X47713992Y40200000D02*
X48460000Y40200000D01*
%TO.N,/Headstage Interface/E26*%
X46700000Y33800000D02*
X48460000Y33800000D01*
X46400000Y33500000D02*
X46700000Y33800000D01*
X45000000Y33500000D02*
X46400000Y33500000D01*
%TO.N,/Headstage Interface/E56*%
X45000000Y42000000D02*
X45530740Y42000000D01*
X47730740Y39800000D02*
X48460000Y39800000D01*
X45530740Y42000000D02*
X47730740Y39800000D01*
%TO.N,/Headstage Interface/E50*%
X47600000Y38600000D02*
X48460000Y38600000D01*
X45700000Y40500000D02*
X47600000Y38600000D01*
X45400000Y40500000D02*
X45700000Y40500000D01*
%TO.N,/Headstage Interface/E20*%
X46700000Y32000000D02*
X45400000Y32000000D01*
X47300000Y32600000D02*
X46700000Y32000000D01*
X48460000Y32600000D02*
X47300000Y32600000D01*
%TO.N,/Headstage Interface/E32*%
X45000000Y35500000D02*
X46200000Y35500000D01*
X46200000Y35500000D02*
X46700000Y35000000D01*
X46700000Y35000000D02*
X48460000Y35000000D01*
%TO.N,/Headstage Interface/E16*%
X46800000Y31000000D02*
X47600000Y31800000D01*
X45400000Y31000000D02*
X46800000Y31000000D01*
X47600000Y31800000D02*
X48460000Y31800000D01*
%TO.N,/Headstage Interface/E30*%
X45000000Y34500000D02*
X46400000Y34500000D01*
X46500000Y34600000D02*
X48460000Y34600000D01*
X46400000Y34500000D02*
X46500000Y34600000D01*
%TO.N,/Headstage Interface/E44*%
X47200000Y37400000D02*
X48460000Y37400000D01*
X45000000Y38500000D02*
X46100000Y38500000D01*
X46100000Y38500000D02*
X47200000Y37400000D01*
%TO.N,/Headstage Interface/E54*%
X45600000Y41500000D02*
X45400000Y41500000D01*
X47700000Y39400000D02*
X45600000Y41500000D01*
X48460000Y39400000D02*
X47700000Y39400000D01*
%TO.N,/Headstage Interface/E62*%
X45400000Y43500000D02*
X45629000Y43271000D01*
X46206996Y42473500D02*
X47680496Y41000000D01*
X45629000Y43271000D02*
X45642992Y43271000D01*
X47680496Y41000000D02*
X48460000Y41000000D01*
X45642992Y43271000D02*
X46206996Y42706996D01*
X46206996Y42706996D02*
X46206996Y42473500D01*
%TO.N,/Headstage Interface/E18*%
X47500000Y32200000D02*
X48460000Y32200000D01*
X45000000Y31500000D02*
X46800000Y31500000D01*
X46800000Y31500000D02*
X47500000Y32200000D01*
%TO.N,/Headstage Interface/E28*%
X45400000Y34000000D02*
X46400000Y34000000D01*
X46600000Y34200000D02*
X48460000Y34200000D01*
X46400000Y34000000D02*
X46600000Y34200000D01*
%TO.N,/Headstage Interface/E34*%
X46900000Y35400000D02*
X48460000Y35400000D01*
X46300000Y36000000D02*
X46900000Y35400000D01*
X45400000Y36000000D02*
X46300000Y36000000D01*
%TO.N,/Headstage Interface/E22*%
X45000000Y32500000D02*
X46600000Y32500000D01*
X47100000Y33000000D02*
X48460000Y33000000D01*
X46600000Y32500000D02*
X47100000Y33000000D01*
%TO.N,/Headstage Interface/E38*%
X45400000Y37000000D02*
X46100000Y37000000D01*
X46900000Y36200000D02*
X48460000Y36200000D01*
X46100000Y37000000D02*
X46900000Y36200000D01*
%TO.N,/Headstage Interface/E40*%
X46116748Y37500000D02*
X47016748Y36600000D01*
X47016748Y36600000D02*
X48460000Y36600000D01*
X45000000Y37500000D02*
X46116748Y37500000D01*
%TO.N,/Headstage Interface/E60*%
X45865370Y42431874D02*
X47697244Y40600000D01*
X45530740Y43000000D02*
X45865370Y42665370D01*
X45000000Y43000000D02*
X45530740Y43000000D01*
X47697244Y40600000D02*
X48460000Y40600000D01*
X45865370Y42665370D02*
X45865370Y42431874D01*
%TO.N,/Headstage Interface/E24*%
X46900000Y33400000D02*
X48460000Y33400000D01*
X45400000Y33000000D02*
X46500000Y33000000D01*
X46500000Y33000000D02*
X46900000Y33400000D01*
%TO.N,/Headstage Interface/E19*%
X52900000Y32600000D02*
X54050000Y31450000D01*
X54050000Y31450000D02*
X55000000Y31450000D01*
X51540000Y32600000D02*
X52900000Y32600000D01*
%TO.N,/Headstage Interface/E25*%
X51540000Y33800000D02*
X53400000Y33800000D01*
X54250000Y32950000D02*
X54600000Y32950000D01*
X53400000Y33800000D02*
X54250000Y32950000D01*
%TO.N,/Headstage Interface/E5*%
X51900000Y29800000D02*
X54250000Y27450000D01*
X54250000Y27450000D02*
X54600000Y27450000D01*
X51540000Y29800000D02*
X51900000Y29800000D01*
%TO.N,/Headstage Interface/E45*%
X53050000Y37800000D02*
X53750000Y38500000D01*
X53750000Y38500000D02*
X55000000Y38500000D01*
X51540000Y37800000D02*
X53050000Y37800000D01*
%TO.N,/Headstage Interface/E29*%
X54600000Y33950000D02*
X53950000Y34600000D01*
X53950000Y34600000D02*
X51540000Y34600000D01*
%TO.N,/Headstage Interface/E41*%
X53200000Y37000000D02*
X51540000Y37000000D01*
X55000000Y37500000D02*
X53700000Y37500000D01*
X53700000Y37500000D02*
X53200000Y37000000D01*
%TO.N,/Headstage Interface/E9*%
X51540000Y30600000D02*
X52000000Y30600000D01*
X52000000Y30600000D02*
X54150000Y28450000D01*
X54150000Y28450000D02*
X54600000Y28450000D01*
%TO.N,/Headstage Interface/E57*%
X52450000Y40200000D02*
X54250000Y42000000D01*
X54250000Y42000000D02*
X55000000Y42000000D01*
X51540000Y40200000D02*
X52450000Y40200000D01*
%TO.N,/Headstage Interface/E59*%
X52350000Y40600000D02*
X54250000Y42500000D01*
X51540000Y40600000D02*
X52350000Y40600000D01*
X54250000Y42500000D02*
X54600000Y42500000D01*
%TO.N,/Headstage Interface/E39*%
X53300000Y36600000D02*
X53700000Y37000000D01*
X51540000Y36600000D02*
X53300000Y36600000D01*
X53700000Y37000000D02*
X54600000Y37000000D01*
%TO.N,/Headstage Interface/E55*%
X54200000Y41500000D02*
X54600000Y41500000D01*
X52500000Y39800000D02*
X54200000Y41500000D01*
X51540000Y39800000D02*
X52500000Y39800000D01*
%TO.N,/Headstage Interface/E21*%
X51540000Y33000000D02*
X53000000Y33000000D01*
X54050000Y31950000D02*
X54600000Y31950000D01*
X53000000Y33000000D02*
X54050000Y31950000D01*
%TO.N,/Headstage Interface/E15*%
X52100000Y31800000D02*
X53950000Y29950000D01*
X51540000Y31800000D02*
X52100000Y31800000D01*
X53950000Y29950000D02*
X55000000Y29950000D01*
%TO.N,/Headstage Interface/E47*%
X51540000Y38200000D02*
X52950000Y38200000D01*
X53750000Y39000000D02*
X54600000Y39000000D01*
X52950000Y38200000D02*
X53750000Y39000000D01*
%TO.N,/Headstage Interface/E7*%
X51540000Y30200000D02*
X52000000Y30200000D01*
X52000000Y30200000D02*
X54250000Y27950000D01*
X54250000Y27950000D02*
X55000000Y27950000D01*
%TO.N,/Headstage Interface/E35*%
X51540000Y35800000D02*
X53500000Y35800000D01*
X53700000Y36000000D02*
X53500000Y35800000D01*
X54600000Y36000000D02*
X53700000Y36000000D01*
%TO.N,/Headstage Interface/E49*%
X52800000Y38600000D02*
X54200000Y40000000D01*
X54200000Y40000000D02*
X55000000Y40000000D01*
X51540000Y38600000D02*
X52800000Y38600000D01*
%TO.N,/Headstage Interface/E11*%
X52000000Y31000000D02*
X54050000Y28950000D01*
X54050000Y28950000D02*
X55000000Y28950000D01*
X51540000Y31000000D02*
X52000000Y31000000D01*
%TO.N,/Headstage Interface/E17*%
X51540000Y32200000D02*
X52700000Y32200000D01*
X52700000Y32200000D02*
X53950000Y30950000D01*
X53950000Y30950000D02*
X54600000Y30950000D01*
%TO.N,/Headstage Interface/E3*%
X51900000Y29400000D02*
X54350000Y26950000D01*
X54350000Y26950000D02*
X55000000Y26950000D01*
X51540000Y29400000D02*
X51900000Y29400000D01*
%TO.N,/Headstage Interface/E33*%
X55000000Y35500000D02*
X53700000Y35500000D01*
X53700000Y35500000D02*
X53600000Y35400000D01*
X51540000Y35400000D02*
X53600000Y35400000D01*
%TO.N,/Headstage Interface/E61*%
X51540000Y41000000D02*
X52250000Y41000000D01*
X54250000Y43000000D02*
X55000000Y43000000D01*
X52250000Y41000000D02*
X54250000Y43000000D01*
%TO.N,/Headstage Interface/E37*%
X53700000Y36500000D02*
X53400000Y36200000D01*
X55000000Y36500000D02*
X53700000Y36500000D01*
X53400000Y36200000D02*
X51540000Y36200000D01*
%TO.N,/Headstage Interface/E31*%
X54450000Y35000000D02*
X55000000Y34450000D01*
X51540000Y35000000D02*
X54450000Y35000000D01*
%TO.N,/Headstage Interface/E27*%
X54450000Y33450000D02*
X53700000Y34200000D01*
X51540000Y34200000D02*
X53700000Y34200000D01*
X55000000Y33450000D02*
X54450000Y33450000D01*
%TO.N,/Headstage Interface/E43*%
X51540000Y37400000D02*
X53150000Y37400000D01*
X53750000Y38000000D02*
X54600000Y38000000D01*
X53150000Y37400000D02*
X53750000Y38000000D01*
%TO.N,/Headstage Interface/E23*%
X54250000Y32450000D02*
X55000000Y32450000D01*
X51540000Y33400000D02*
X53300000Y33400000D01*
X53300000Y33400000D02*
X54250000Y32450000D01*
%TO.N,/Headstage Interface/E63*%
X54600000Y43500000D02*
X54250000Y43500000D01*
X54250000Y43500000D02*
X52150000Y41400000D01*
X52150000Y41400000D02*
X51540000Y41400000D01*
%TO.N,/Headstage Interface/E53*%
X54200000Y41000000D02*
X55000000Y41000000D01*
X52600000Y39400000D02*
X54200000Y41000000D01*
X51540000Y39400000D02*
X52600000Y39400000D01*
%TO.N,/Headstage Interface/E51*%
X52650000Y39000000D02*
X54150000Y40500000D01*
X51540000Y39000000D02*
X52650000Y39000000D01*
X54150000Y40500000D02*
X54600000Y40500000D01*
%TO.N,/Headstage Interface/E1*%
X54466748Y26450000D02*
X54600000Y26450000D01*
X51916748Y29000000D02*
X54466748Y26450000D01*
X51540000Y29000000D02*
X51916748Y29000000D01*
%TO.N,/Headstage Interface/E13*%
X51540000Y31400000D02*
X52100000Y31400000D01*
X52100000Y31400000D02*
X54050000Y29450000D01*
X54050000Y29450000D02*
X54600000Y29450000D01*
%TD*%
%TA.AperFunction,Conductor*%
%TO.N,GND*%
G36*
X97002231Y59499366D02*
G01*
X97296821Y59481546D01*
X97305673Y59480472D01*
X97593784Y59427673D01*
X97602435Y59425540D01*
X97882062Y59338405D01*
X97890401Y59335243D01*
X98157497Y59215033D01*
X98165409Y59210880D01*
X98416046Y59059364D01*
X98423400Y59054288D01*
X98653951Y58873664D01*
X98660640Y58867738D01*
X98867737Y58660641D01*
X98873663Y58653952D01*
X99054287Y58423401D01*
X99059363Y58416047D01*
X99210879Y58165410D01*
X99215032Y58157498D01*
X99335239Y57890410D01*
X99338407Y57882054D01*
X99425536Y57602448D01*
X99427675Y57593772D01*
X99480469Y57305683D01*
X99481546Y57296812D01*
X99499365Y57002232D01*
X99499500Y56997764D01*
X99499500Y3002237D01*
X99499365Y2997769D01*
X99481546Y2703189D01*
X99480469Y2694318D01*
X99427675Y2406229D01*
X99425536Y2397553D01*
X99338407Y2117947D01*
X99335239Y2109591D01*
X99215032Y1842503D01*
X99210879Y1834591D01*
X99059363Y1583954D01*
X99054287Y1576600D01*
X98873663Y1346049D01*
X98867737Y1339360D01*
X98660640Y1132263D01*
X98653951Y1126337D01*
X98423400Y945713D01*
X98416046Y940637D01*
X98165409Y789121D01*
X98157497Y784968D01*
X97890409Y664761D01*
X97882053Y661593D01*
X97602447Y574464D01*
X97593771Y572325D01*
X97305682Y519531D01*
X97296811Y518454D01*
X97002232Y500635D01*
X96997764Y500500D01*
X91220633Y500500D01*
X91168307Y522174D01*
X91146633Y574500D01*
X91168307Y626826D01*
X91175586Y633209D01*
X91189367Y643784D01*
X91202080Y656498D01*
X90636184Y1222395D01*
X90637463Y1223249D01*
X90776751Y1362537D01*
X90777605Y1363817D01*
X91343502Y797920D01*
X91356217Y810634D01*
X91356218Y810636D01*
X91499854Y997826D01*
X91499858Y997832D01*
X91617835Y1202173D01*
X91617838Y1202181D01*
X91708129Y1420165D01*
X91708133Y1420176D01*
X91769202Y1648091D01*
X91800000Y1882024D01*
X91800000Y2117977D01*
X91769202Y2351910D01*
X91708133Y2579825D01*
X91708129Y2579836D01*
X91617838Y2797820D01*
X91617835Y2797828D01*
X91499858Y3002169D01*
X91499854Y3002175D01*
X91356214Y3189370D01*
X91343502Y3202082D01*
X90777604Y2636185D01*
X90776751Y2637463D01*
X90637463Y2776751D01*
X90636183Y2777606D01*
X91202081Y3343503D01*
X91189369Y3356215D01*
X91002174Y3499855D01*
X91002168Y3499859D01*
X90797827Y3617836D01*
X90797819Y3617839D01*
X90579835Y3708130D01*
X90579824Y3708134D01*
X90351908Y3769203D01*
X90351909Y3769203D01*
X90117976Y3800000D01*
X89882024Y3800000D01*
X89648090Y3769203D01*
X89420175Y3708134D01*
X89420164Y3708130D01*
X89202180Y3617839D01*
X89202172Y3617836D01*
X88997831Y3499859D01*
X88997825Y3499855D01*
X88810641Y3356224D01*
X88810635Y3356219D01*
X88797918Y3343503D01*
X89363815Y2777606D01*
X89362537Y2776751D01*
X89223249Y2637463D01*
X89222394Y2636185D01*
X88656497Y3202082D01*
X88643781Y3189365D01*
X88643776Y3189359D01*
X88500145Y3002175D01*
X88500141Y3002169D01*
X88382164Y2797828D01*
X88382161Y2797820D01*
X88291870Y2579836D01*
X88291866Y2579825D01*
X88230797Y2351910D01*
X88200000Y2117977D01*
X88200000Y1882024D01*
X88230797Y1648091D01*
X88291866Y1420176D01*
X88291870Y1420165D01*
X88382161Y1202181D01*
X88382164Y1202173D01*
X88500141Y997832D01*
X88500145Y997826D01*
X88643785Y810631D01*
X88656497Y797919D01*
X89222394Y1363817D01*
X89223249Y1362537D01*
X89362537Y1223249D01*
X89363815Y1222395D01*
X88797918Y656498D01*
X88810631Y643785D01*
X88824416Y633207D01*
X88852734Y584158D01*
X88838074Y529451D01*
X88789025Y501133D01*
X88779367Y500500D01*
X81057188Y500500D01*
X81004862Y522174D01*
X80983188Y574500D01*
X81004862Y626826D01*
X81012140Y633208D01*
X81123618Y718748D01*
X81123619Y718750D01*
X81123624Y718753D01*
X81281247Y876376D01*
X81416948Y1053226D01*
X81528405Y1246274D01*
X81613710Y1452219D01*
X81671404Y1667537D01*
X81700500Y1888543D01*
X81700500Y2111457D01*
X81671404Y2332463D01*
X81613710Y2547781D01*
X81528405Y2753726D01*
X81416948Y2946774D01*
X81405594Y2961571D01*
X81281252Y3123619D01*
X81123618Y3281253D01*
X80946776Y3416947D01*
X80946770Y3416951D01*
X80753725Y3528406D01*
X80753717Y3528409D01*
X80547782Y3613710D01*
X80332461Y3671405D01*
X80169647Y3692840D01*
X80111457Y3700500D01*
X79888543Y3700500D01*
X79837122Y3693731D01*
X79667538Y3671405D01*
X79452217Y3613710D01*
X79246282Y3528409D01*
X79246274Y3528406D01*
X79053229Y3416951D01*
X79053223Y3416947D01*
X78876381Y3281253D01*
X78718747Y3123619D01*
X78583053Y2946777D01*
X78583049Y2946771D01*
X78471594Y2753726D01*
X78471591Y2753718D01*
X78386290Y2547783D01*
X78328595Y2332462D01*
X78304367Y2148422D01*
X78300355Y2117947D01*
X78299500Y2111456D01*
X78299500Y1888545D01*
X78328595Y1667539D01*
X78386290Y1452218D01*
X78471591Y1246283D01*
X78471594Y1246275D01*
X78583049Y1053230D01*
X78583053Y1053224D01*
X78718747Y876382D01*
X78876381Y718748D01*
X78987860Y633208D01*
X79016179Y584159D01*
X79001520Y529452D01*
X78952471Y501133D01*
X78942812Y500500D01*
X3002236Y500500D01*
X2997768Y500635D01*
X2703188Y518454D01*
X2694317Y519531D01*
X2406228Y572325D01*
X2397552Y574464D01*
X2397436Y574500D01*
X2117946Y661593D01*
X2109590Y664761D01*
X1842502Y784968D01*
X1834590Y789121D01*
X1583953Y940637D01*
X1576599Y945713D01*
X1346048Y1126337D01*
X1339359Y1132263D01*
X1132262Y1339360D01*
X1126336Y1346049D01*
X945712Y1576600D01*
X940636Y1583954D01*
X789120Y1834591D01*
X784967Y1842503D01*
X764245Y1888545D01*
X664757Y2109599D01*
X661595Y2117938D01*
X574460Y2397565D01*
X572327Y2406216D01*
X519528Y2694327D01*
X518454Y2703179D01*
X500635Y2997769D01*
X500500Y3002237D01*
X500500Y7945795D01*
X12695001Y7945795D01*
X12697850Y7915398D01*
X12697852Y7915389D01*
X12742652Y7787357D01*
X12823207Y7678209D01*
X12823208Y7678208D01*
X12932356Y7597653D01*
X12932355Y7597653D01*
X13060385Y7552854D01*
X13060393Y7552852D01*
X13090803Y7550001D01*
X13195000Y7550001D01*
X13395000Y7550001D01*
X13499194Y7550001D01*
X13499205Y7550002D01*
X13529602Y7552851D01*
X13529611Y7552853D01*
X13657643Y7597653D01*
X13766791Y7678208D01*
X13766792Y7678209D01*
X13847345Y7787354D01*
X13860152Y7823953D01*
X13897892Y7866184D01*
X13954440Y7869361D01*
X13996671Y7831621D01*
X13999848Y7823953D01*
X14012654Y7787354D01*
X14093207Y7678209D01*
X14093208Y7678208D01*
X14202356Y7597653D01*
X14202355Y7597653D01*
X14330385Y7552854D01*
X14330393Y7552852D01*
X14360803Y7550001D01*
X14465000Y7550001D01*
X14665000Y7550001D01*
X14769194Y7550001D01*
X14769205Y7550002D01*
X14799602Y7552851D01*
X14799611Y7552853D01*
X14927643Y7597653D01*
X15036791Y7678208D01*
X15036792Y7678209D01*
X15117345Y7787354D01*
X15130152Y7823953D01*
X15167892Y7866184D01*
X15224440Y7869361D01*
X15266671Y7831621D01*
X15269848Y7823953D01*
X15282654Y7787354D01*
X15363207Y7678209D01*
X15363208Y7678208D01*
X15472356Y7597653D01*
X15472355Y7597653D01*
X15600385Y7552854D01*
X15600393Y7552852D01*
X15630803Y7550001D01*
X15735000Y7550001D01*
X15935000Y7550001D01*
X16039194Y7550001D01*
X16039205Y7550002D01*
X16069602Y7552851D01*
X16069611Y7552853D01*
X16197643Y7597653D01*
X16306791Y7678208D01*
X16306792Y7678209D01*
X16387345Y7787354D01*
X16400152Y7823953D01*
X16437892Y7866184D01*
X16494440Y7869361D01*
X16536671Y7831621D01*
X16539848Y7823953D01*
X16552654Y7787354D01*
X16633207Y7678209D01*
X16633208Y7678208D01*
X16742356Y7597653D01*
X16742355Y7597653D01*
X16870385Y7552854D01*
X16870393Y7552852D01*
X16900803Y7550001D01*
X17005000Y7550001D01*
X17205000Y7550001D01*
X17309194Y7550001D01*
X17309205Y7550002D01*
X17339602Y7552851D01*
X17339611Y7552853D01*
X17467643Y7597653D01*
X17576791Y7678208D01*
X17576792Y7678209D01*
X17657347Y7787357D01*
X17702146Y7915386D01*
X17702148Y7915394D01*
X17704999Y7945802D01*
X17705000Y7945803D01*
X17705000Y8725000D01*
X17205000Y8725000D01*
X17205000Y7550001D01*
X17005000Y7550001D01*
X17005000Y8725000D01*
X16480498Y8725000D01*
X16470001Y8720652D01*
X16469996Y8720655D01*
X16469991Y8720652D01*
X16459497Y8725000D01*
X15935000Y8725000D01*
X15935000Y7550001D01*
X15735000Y7550001D01*
X15735000Y8725000D01*
X15210498Y8725000D01*
X15200001Y8720652D01*
X15199996Y8720655D01*
X15199991Y8720652D01*
X15189497Y8725000D01*
X14665000Y8725000D01*
X14665000Y7550001D01*
X14465000Y7550001D01*
X14465000Y8725000D01*
X13940498Y8725000D01*
X13930001Y8720652D01*
X13929996Y8720655D01*
X13929991Y8720652D01*
X13919497Y8725000D01*
X13395000Y8725000D01*
X13395000Y7550001D01*
X13195000Y7550001D01*
X13195000Y8725000D01*
X12695001Y8725000D01*
X12695001Y7945795D01*
X500500Y7945795D01*
X500500Y9704199D01*
X12695000Y9704199D01*
X12695000Y8925000D01*
X13195000Y8925000D01*
X13395000Y8925000D01*
X13919494Y8925000D01*
X13929990Y8929349D01*
X13929994Y8929348D01*
X13929998Y8929349D01*
X13940498Y8925000D01*
X14465000Y8925000D01*
X14665000Y8925000D01*
X15189494Y8925000D01*
X15199990Y8929349D01*
X15199994Y8929348D01*
X15199998Y8929349D01*
X15210498Y8925000D01*
X15735000Y8925000D01*
X15935000Y8925000D01*
X16459494Y8925000D01*
X16469990Y8929349D01*
X16469994Y8929348D01*
X16469998Y8929349D01*
X16480498Y8925000D01*
X17005000Y8925000D01*
X17205000Y8925000D01*
X17704999Y8925000D01*
X17704999Y8959312D01*
X84249500Y8959312D01*
X84249500Y8840689D01*
X84280199Y8726118D01*
X84280201Y8726113D01*
X84339508Y8623391D01*
X84339509Y8623390D01*
X84339511Y8623387D01*
X84423387Y8539511D01*
X84526114Y8480201D01*
X84526115Y8480201D01*
X84526117Y8480200D01*
X84583402Y8464851D01*
X84640688Y8449501D01*
X84640689Y8449500D01*
X84640691Y8449500D01*
X84759311Y8449500D01*
X84759311Y8449501D01*
X84873886Y8480201D01*
X84976613Y8539511D01*
X85060489Y8623387D01*
X85119799Y8726114D01*
X85150499Y8840689D01*
X85150500Y8840689D01*
X85150500Y8959311D01*
X85150499Y8959312D01*
X85119800Y9073883D01*
X85119798Y9073888D01*
X85060491Y9176610D01*
X85060490Y9176611D01*
X85060489Y9176613D01*
X84976613Y9260489D01*
X84976610Y9260491D01*
X84976609Y9260492D01*
X84873887Y9319799D01*
X84873882Y9319801D01*
X84759311Y9350500D01*
X84759309Y9350500D01*
X84640691Y9350500D01*
X84640689Y9350500D01*
X84526117Y9319801D01*
X84526112Y9319799D01*
X84423390Y9260492D01*
X84339508Y9176610D01*
X84280201Y9073888D01*
X84280199Y9073883D01*
X84249500Y8959312D01*
X17704999Y8959312D01*
X17704999Y9704194D01*
X17704998Y9704206D01*
X17702149Y9734603D01*
X17702147Y9734612D01*
X17657347Y9862644D01*
X17576792Y9971792D01*
X17576791Y9971793D01*
X17467643Y10052348D01*
X17467644Y10052348D01*
X17339614Y10097147D01*
X17339606Y10097149D01*
X17309198Y10100000D01*
X17205000Y10100000D01*
X17205000Y8925000D01*
X17005000Y8925000D01*
X17005000Y10100000D01*
X16900806Y10100000D01*
X16900793Y10099999D01*
X16870397Y10097150D01*
X16870388Y10097148D01*
X16742356Y10052348D01*
X16633208Y9971793D01*
X16633207Y9971792D01*
X16552653Y9862645D01*
X16539847Y9826047D01*
X16502107Y9783816D01*
X16445559Y9780641D01*
X16403328Y9818381D01*
X16400153Y9826047D01*
X16387346Y9862645D01*
X16306792Y9971792D01*
X16306791Y9971793D01*
X16197643Y10052348D01*
X16197644Y10052348D01*
X16069614Y10097147D01*
X16069606Y10097149D01*
X16039198Y10100000D01*
X15935000Y10100000D01*
X15935000Y8925000D01*
X15735000Y8925000D01*
X15735000Y10100000D01*
X15630806Y10100000D01*
X15630793Y10099999D01*
X15600397Y10097150D01*
X15600388Y10097148D01*
X15472356Y10052348D01*
X15363208Y9971793D01*
X15363207Y9971792D01*
X15282653Y9862645D01*
X15269847Y9826047D01*
X15232107Y9783816D01*
X15175559Y9780641D01*
X15133328Y9818381D01*
X15130153Y9826047D01*
X15117346Y9862645D01*
X15036792Y9971792D01*
X15036791Y9971793D01*
X14927643Y10052348D01*
X14927644Y10052348D01*
X14799614Y10097147D01*
X14799606Y10097149D01*
X14769198Y10100000D01*
X14665000Y10100000D01*
X14665000Y8925000D01*
X14465000Y8925000D01*
X14465000Y10100000D01*
X14360806Y10100000D01*
X14360793Y10099999D01*
X14330397Y10097150D01*
X14330388Y10097148D01*
X14202356Y10052348D01*
X14093208Y9971793D01*
X14093207Y9971792D01*
X14012653Y9862645D01*
X13999847Y9826047D01*
X13962107Y9783816D01*
X13905559Y9780641D01*
X13863328Y9818381D01*
X13860153Y9826047D01*
X13847346Y9862645D01*
X13766792Y9971792D01*
X13766791Y9971793D01*
X13657643Y10052348D01*
X13657644Y10052348D01*
X13529614Y10097147D01*
X13529606Y10097149D01*
X13499198Y10100000D01*
X13395000Y10100000D01*
X13395000Y8925000D01*
X13195000Y8925000D01*
X13195000Y10100000D01*
X13090806Y10100000D01*
X13090793Y10099999D01*
X13060397Y10097150D01*
X13060388Y10097148D01*
X12932356Y10052348D01*
X12823208Y9971793D01*
X12823207Y9971792D01*
X12742652Y9862644D01*
X12697853Y9734615D01*
X12697851Y9734607D01*
X12695000Y9704199D01*
X500500Y9704199D01*
X500500Y10626993D01*
X11090001Y10626993D01*
X11092786Y10597279D01*
X11092787Y10597272D01*
X11136594Y10472081D01*
X11215358Y10365360D01*
X11215359Y10365359D01*
X11322080Y10286595D01*
X11447268Y10242789D01*
X11447273Y10242788D01*
X11477002Y10240001D01*
X11600000Y10240001D01*
X11800000Y10240001D01*
X11922993Y10240001D01*
X11923007Y10240002D01*
X11952721Y10242787D01*
X11952728Y10242788D01*
X12077919Y10286595D01*
X12184640Y10365359D01*
X12184641Y10365360D01*
X12263405Y10472081D01*
X12307211Y10597269D01*
X12307212Y10597274D01*
X12309999Y10627003D01*
X12310000Y10627004D01*
X12310000Y10720000D01*
X11800000Y10720000D01*
X11800000Y10240001D01*
X11600000Y10240001D01*
X11600000Y10720000D01*
X11090001Y10720000D01*
X11090001Y10626993D01*
X500500Y10626993D01*
X500500Y11012998D01*
X11090000Y11012998D01*
X11090000Y10920000D01*
X12309999Y10920000D01*
X12309999Y11012993D01*
X12309998Y11013008D01*
X12307213Y11042722D01*
X12307212Y11042729D01*
X12266364Y11159466D01*
X12263406Y11167920D01*
X12255184Y11179060D01*
X78699500Y11179060D01*
X78699500Y11020941D01*
X78740421Y10868221D01*
X78740422Y10868219D01*
X78740423Y10868216D01*
X78819480Y10731284D01*
X78931284Y10619480D01*
X79068216Y10540423D01*
X79220940Y10499501D01*
X79220941Y10499500D01*
X79325500Y10499500D01*
X79377826Y10477826D01*
X79399500Y10425500D01*
X79399500Y10320941D01*
X79440421Y10168221D01*
X79440422Y10168219D01*
X79440423Y10168216D01*
X79519480Y10031284D01*
X79631284Y9919480D01*
X79768216Y9840423D01*
X79920940Y9799501D01*
X79920941Y9799500D01*
X79920943Y9799500D01*
X80079059Y9799500D01*
X80079059Y9799501D01*
X80231784Y9840423D01*
X80368716Y9919480D01*
X80480520Y10031284D01*
X80559577Y10168216D01*
X80600499Y10320941D01*
X80600500Y10320941D01*
X80600500Y10479059D01*
X80600499Y10479060D01*
X80584056Y10540425D01*
X80559577Y10631784D01*
X80480520Y10768716D01*
X80368716Y10880520D01*
X80231784Y10959577D01*
X80231781Y10959578D01*
X80231779Y10959579D01*
X80115877Y10990635D01*
X80070944Y11025113D01*
X80063552Y11081266D01*
X80098030Y11126199D01*
X80112158Y11132490D01*
X80184090Y11155861D01*
X80208943Y11173918D01*
X88249500Y11173918D01*
X88249500Y11026082D01*
X88250523Y11020941D01*
X88278340Y10881093D01*
X88278343Y10881083D01*
X88334915Y10744506D01*
X88413435Y10626993D01*
X88417049Y10621584D01*
X88521584Y10517049D01*
X88644505Y10434916D01*
X88781087Y10378342D01*
X88926082Y10349500D01*
X88926084Y10349500D01*
X89073916Y10349500D01*
X89073918Y10349500D01*
X89184477Y10371492D01*
X89240026Y10360443D01*
X89271492Y10313351D01*
X89271492Y10284477D01*
X89249500Y10173917D01*
X89249500Y10026084D01*
X89278340Y9881093D01*
X89278343Y9881083D01*
X89334915Y9744506D01*
X89361848Y9704199D01*
X89417049Y9621584D01*
X89521584Y9517049D01*
X89644505Y9434916D01*
X89781087Y9378342D01*
X89926082Y9349500D01*
X89926084Y9349500D01*
X90073916Y9349500D01*
X90073918Y9349500D01*
X90218913Y9378342D01*
X90355495Y9434916D01*
X90478416Y9517049D01*
X90582951Y9621584D01*
X90665084Y9744505D01*
X90721658Y9881087D01*
X90750500Y10026082D01*
X90750500Y10173918D01*
X90721658Y10318913D01*
X90708988Y10349500D01*
X90665084Y10455495D01*
X90582951Y10578416D01*
X90478415Y10682952D01*
X90355494Y10765085D01*
X90218917Y10821657D01*
X90218907Y10821660D01*
X90121811Y10840974D01*
X90073918Y10850500D01*
X89926082Y10850500D01*
X89815523Y10828508D01*
X89759974Y10839557D01*
X89728508Y10886649D01*
X89728508Y10915523D01*
X89749477Y11020941D01*
X89750500Y11026082D01*
X89750500Y11173918D01*
X89750500Y11173921D01*
X89750144Y11177533D01*
X89751489Y11177666D01*
X89761667Y11228852D01*
X89808757Y11260321D01*
X89853938Y11255057D01*
X89864658Y11250161D01*
X90000000Y11230701D01*
X90135342Y11250161D01*
X90259719Y11306961D01*
X90304067Y11342699D01*
X90757299Y11795933D01*
X90793039Y11840281D01*
X90849839Y11964658D01*
X90869299Y12100000D01*
X90849839Y12235342D01*
X90793039Y12359719D01*
X90757301Y12404067D01*
X90304067Y12857299D01*
X90259719Y12893039D01*
X90259715Y12893041D01*
X90259712Y12893043D01*
X90180420Y12929253D01*
X90135342Y12949839D01*
X90135340Y12949840D01*
X90135338Y12949840D01*
X90000000Y12969299D01*
X89864661Y12949840D01*
X89864658Y12949840D01*
X89740281Y12893040D01*
X89695934Y12857303D01*
X89695933Y12857302D01*
X89242703Y12404070D01*
X89206959Y12359716D01*
X89206957Y12359713D01*
X89150161Y12235342D01*
X89150160Y12235339D01*
X89130701Y12100000D01*
X89150160Y11964662D01*
X89150160Y11964659D01*
X89155056Y11953940D01*
X89157077Y11897339D01*
X89118483Y11855887D01*
X89077629Y11851122D01*
X89077533Y11850144D01*
X89073920Y11850500D01*
X89073918Y11850500D01*
X88926082Y11850500D01*
X88884977Y11842324D01*
X88781092Y11821660D01*
X88781082Y11821657D01*
X88644505Y11765085D01*
X88521584Y11682952D01*
X88521583Y11682950D01*
X88417050Y11578417D01*
X88417048Y11578416D01*
X88334915Y11455495D01*
X88278343Y11318918D01*
X88278340Y11318908D01*
X88260427Y11228852D01*
X88249500Y11173918D01*
X80208943Y11173918D01*
X80260909Y11211674D01*
X80588325Y11539091D01*
X80644139Y11615910D01*
X80683342Y11736567D01*
X80683342Y11863433D01*
X80651999Y11959900D01*
X80644141Y11984085D01*
X80644137Y11984093D01*
X80588328Y12060907D01*
X80260909Y12388325D01*
X80239244Y12404066D01*
X80184090Y12444139D01*
X80184088Y12444140D01*
X80184084Y12444142D01*
X80063434Y12483342D01*
X80063433Y12483342D01*
X79936567Y12483342D01*
X79936565Y12483342D01*
X79815915Y12444142D01*
X79815907Y12444138D01*
X79739093Y12388329D01*
X79411675Y12060910D01*
X79355860Y11984089D01*
X79355858Y11984085D01*
X79316658Y11863435D01*
X79316658Y11774500D01*
X79294984Y11722174D01*
X79242658Y11700500D01*
X79220941Y11700500D01*
X79068220Y11659579D01*
X79068214Y11659576D01*
X78931283Y11580520D01*
X78819480Y11468717D01*
X78740424Y11331786D01*
X78740421Y11331780D01*
X78699500Y11179060D01*
X12255184Y11179060D01*
X12184641Y11274641D01*
X12184640Y11274642D01*
X12139641Y11307853D01*
X12110410Y11356364D01*
X12124044Y11411336D01*
X12131252Y11419713D01*
X12153224Y11441684D01*
X12203972Y11550513D01*
X12210500Y11600099D01*
X12210499Y11959900D01*
X12203972Y12009487D01*
X12153224Y12118316D01*
X12122174Y12149366D01*
X12100500Y12201692D01*
X12100500Y12572860D01*
X12110414Y12609860D01*
X12119799Y12626114D01*
X12150499Y12740689D01*
X12150500Y12740689D01*
X12150500Y12859311D01*
X12150499Y12859312D01*
X12119800Y12973883D01*
X12119796Y12973892D01*
X12110414Y12990143D01*
X12100500Y13027142D01*
X12100500Y13072860D01*
X12110414Y13109860D01*
X12119799Y13126114D01*
X12124656Y13144244D01*
X12143806Y13177415D01*
X12319219Y13352826D01*
X12371545Y13374500D01*
X12720500Y13374500D01*
X12772826Y13352826D01*
X12794500Y13300500D01*
X12794500Y12916736D01*
X12804427Y12848607D01*
X12804427Y12848606D01*
X12855801Y12743518D01*
X12855802Y12743517D01*
X12938517Y12660802D01*
X13043607Y12609427D01*
X13111740Y12599500D01*
X13111746Y12599500D01*
X13478254Y12599500D01*
X13478260Y12599500D01*
X13546393Y12609427D01*
X13651483Y12660802D01*
X13734198Y12743517D01*
X13785573Y12848607D01*
X13795500Y12916740D01*
X13795500Y14633260D01*
X13785573Y14701393D01*
X13734198Y14806483D01*
X13651483Y14889198D01*
X13651482Y14889199D01*
X13546394Y14940573D01*
X13478264Y14950500D01*
X13478260Y14950500D01*
X13111740Y14950500D01*
X13111735Y14950500D01*
X13043606Y14940573D01*
X13043605Y14940573D01*
X12938517Y14889199D01*
X12855801Y14806483D01*
X12804427Y14701395D01*
X12804427Y14701394D01*
X12794500Y14633265D01*
X12794500Y14249500D01*
X12772826Y14197174D01*
X12720500Y14175500D01*
X12122273Y14175500D01*
X12071343Y14161854D01*
X12020412Y14148207D01*
X12009225Y14141748D01*
X11998037Y14135288D01*
X11929086Y14095480D01*
X11577415Y13743810D01*
X11544245Y13724658D01*
X11526113Y13719799D01*
X11526112Y13719799D01*
X11423390Y13660492D01*
X11339508Y13576610D01*
X11280201Y13473888D01*
X11280199Y13473883D01*
X11249500Y13359312D01*
X11249500Y13240689D01*
X11280199Y13126118D01*
X11280200Y13126116D01*
X11280201Y13126114D01*
X11289585Y13109860D01*
X11299500Y13072860D01*
X11299500Y13027142D01*
X11289586Y12990143D01*
X11280203Y12973892D01*
X11280199Y12973883D01*
X11249500Y12859312D01*
X11249500Y12740689D01*
X11280199Y12626118D01*
X11280200Y12626116D01*
X11280201Y12626114D01*
X11289585Y12609860D01*
X11299500Y12572860D01*
X11299500Y12201692D01*
X11277826Y12149366D01*
X11246776Y12118317D01*
X11196027Y12009486D01*
X11189500Y11959900D01*
X11189500Y11600101D01*
X11196027Y11550515D01*
X11196028Y11550513D01*
X11246776Y11441684D01*
X11268741Y11419719D01*
X11290415Y11367393D01*
X11268741Y11315067D01*
X11260359Y11307853D01*
X11215357Y11274640D01*
X11136594Y11167920D01*
X11092788Y11042732D01*
X11092787Y11042727D01*
X11090000Y11012998D01*
X500500Y11012998D01*
X500500Y20959312D01*
X9649500Y20959312D01*
X9649500Y20840689D01*
X9680199Y20726118D01*
X9680201Y20726113D01*
X9739508Y20623391D01*
X9739509Y20623390D01*
X9739511Y20623387D01*
X9802826Y20560072D01*
X9824500Y20507747D01*
X9824500Y18945200D01*
X9865063Y18847273D01*
X9866443Y18843942D01*
X12066443Y16643942D01*
X12143942Y16566443D01*
X12245200Y16524500D01*
X12531289Y16524500D01*
X12583615Y16502826D01*
X12605289Y16450500D01*
X12583615Y16398174D01*
X12568289Y16386414D01*
X12523390Y16360492D01*
X12439508Y16276610D01*
X12380201Y16173888D01*
X12380199Y16173883D01*
X12349500Y16059312D01*
X12349500Y15940689D01*
X12380199Y15826118D01*
X12380201Y15826113D01*
X12439508Y15723391D01*
X12439509Y15723390D01*
X12439511Y15723387D01*
X12523387Y15639511D01*
X12523389Y15639510D01*
X12523390Y15639509D01*
X12579155Y15607313D01*
X12626114Y15580201D01*
X12626115Y15580201D01*
X12626117Y15580200D01*
X12649693Y15573883D01*
X12740688Y15549501D01*
X12740689Y15549500D01*
X12740691Y15549500D01*
X12859309Y15549500D01*
X12890607Y15557887D01*
X12946758Y15550496D01*
X12971002Y15524043D01*
X12972223Y15524897D01*
X12975933Y15519598D01*
X12975935Y15519596D01*
X13059596Y15435935D01*
X13166827Y15385932D01*
X13215684Y15379500D01*
X13215686Y15379500D01*
X13564314Y15379500D01*
X13564316Y15379500D01*
X13613173Y15385932D01*
X13720404Y15435935D01*
X13804065Y15519596D01*
X13832933Y15581505D01*
X13874690Y15619768D01*
X13931273Y15617298D01*
X13967066Y15581505D01*
X13972567Y15569709D01*
X13995933Y15519598D01*
X13995935Y15519596D01*
X14079596Y15435935D01*
X14186827Y15385932D01*
X14225158Y15380886D01*
X14274208Y15352568D01*
X14289500Y15307519D01*
X14289500Y14974982D01*
X14267826Y14922656D01*
X14248001Y14908502D01*
X14208520Y14889201D01*
X14208517Y14889199D01*
X14125801Y14806483D01*
X14074427Y14701395D01*
X14074427Y14701394D01*
X14064500Y14633265D01*
X14064500Y12916736D01*
X14074427Y12848607D01*
X14074427Y12848606D01*
X14125801Y12743518D01*
X14125802Y12743517D01*
X14208517Y12660802D01*
X14313607Y12609427D01*
X14381740Y12599500D01*
X14381746Y12599500D01*
X14748254Y12599500D01*
X14748260Y12599500D01*
X14816393Y12609427D01*
X14921483Y12660802D01*
X15004198Y12743517D01*
X15055573Y12848607D01*
X15065500Y12916740D01*
X15065500Y14633260D01*
X15055573Y14701393D01*
X15004198Y14806483D01*
X14921483Y14889198D01*
X14921482Y14889199D01*
X14921479Y14889201D01*
X14881999Y14908502D01*
X14844509Y14950955D01*
X14840500Y14974982D01*
X14840500Y15538435D01*
X14847433Y15569709D01*
X14874068Y15626827D01*
X14880500Y15675684D01*
X14880500Y16124316D01*
X14874068Y16173173D01*
X14824065Y16280404D01*
X14751295Y16353174D01*
X14729621Y16405500D01*
X14751295Y16457826D01*
X14803621Y16479500D01*
X14864314Y16479500D01*
X14864316Y16479500D01*
X14913173Y16485932D01*
X15020404Y16535935D01*
X15104065Y16619596D01*
X15132933Y16681505D01*
X15174690Y16719768D01*
X15231273Y16717298D01*
X15267066Y16681505D01*
X15274709Y16665114D01*
X15295933Y16619598D01*
X15295935Y16619596D01*
X15379596Y16535935D01*
X15486827Y16485932D01*
X15495156Y16484836D01*
X15544205Y16456521D01*
X15559500Y16411469D01*
X15559500Y14974982D01*
X15537826Y14922656D01*
X15518001Y14908502D01*
X15478520Y14889201D01*
X15478517Y14889199D01*
X15395801Y14806483D01*
X15344427Y14701395D01*
X15344427Y14701394D01*
X15334500Y14633265D01*
X15334500Y12916736D01*
X15344427Y12848607D01*
X15344427Y12848606D01*
X15395801Y12743518D01*
X15395802Y12743517D01*
X15478517Y12660802D01*
X15583607Y12609427D01*
X15651740Y12599500D01*
X15651746Y12599500D01*
X16018254Y12599500D01*
X16018260Y12599500D01*
X16086393Y12609427D01*
X16191483Y12660802D01*
X16274198Y12743517D01*
X16325573Y12848607D01*
X16335500Y12916740D01*
X16335500Y14633260D01*
X16325573Y14701393D01*
X16274198Y14806483D01*
X16191483Y14889198D01*
X16191482Y14889199D01*
X16191479Y14889201D01*
X16151999Y14908502D01*
X16114509Y14950955D01*
X16110500Y14974982D01*
X16110500Y16450500D01*
X16132174Y16502826D01*
X16184500Y16524500D01*
X16708747Y16524500D01*
X16761073Y16502826D01*
X16782747Y16450500D01*
X16761073Y16398176D01*
X16749312Y16386414D01*
X16739508Y16376610D01*
X16680201Y16273888D01*
X16680199Y16273883D01*
X16649500Y16159312D01*
X16649500Y16040689D01*
X16680199Y15926118D01*
X16680201Y15926113D01*
X16739508Y15823391D01*
X16739509Y15823390D01*
X16739511Y15823387D01*
X16807826Y15755072D01*
X16829500Y15702747D01*
X16829500Y14974982D01*
X16807826Y14922656D01*
X16788001Y14908502D01*
X16748520Y14889201D01*
X16748517Y14889199D01*
X16665801Y14806483D01*
X16614427Y14701395D01*
X16614427Y14701394D01*
X16604500Y14633265D01*
X16604500Y12916736D01*
X16614427Y12848607D01*
X16614427Y12848606D01*
X16665801Y12743518D01*
X16665802Y12743517D01*
X16748517Y12660802D01*
X16853607Y12609427D01*
X16921740Y12599500D01*
X16921746Y12599500D01*
X17288254Y12599500D01*
X17288260Y12599500D01*
X17356393Y12609427D01*
X17461483Y12660802D01*
X17544198Y12743517D01*
X17595573Y12848607D01*
X17605500Y12916740D01*
X17605500Y14059312D01*
X88949500Y14059312D01*
X88949500Y13940689D01*
X88980199Y13826118D01*
X88980201Y13826113D01*
X89039508Y13723391D01*
X89039509Y13723390D01*
X89039511Y13723387D01*
X89123387Y13639511D01*
X89226114Y13580201D01*
X89226115Y13580201D01*
X89226117Y13580200D01*
X89283402Y13564851D01*
X89340688Y13549501D01*
X89340689Y13549500D01*
X89340691Y13549500D01*
X89459311Y13549500D01*
X89459311Y13549501D01*
X89573886Y13580201D01*
X89676613Y13639511D01*
X89760489Y13723387D01*
X89819799Y13826114D01*
X89850499Y13940689D01*
X89850500Y13940689D01*
X89850500Y14059311D01*
X89850499Y14059312D01*
X89819800Y14173883D01*
X89819798Y14173888D01*
X89760491Y14276610D01*
X89760490Y14276611D01*
X89760489Y14276613D01*
X89676613Y14360489D01*
X89676610Y14360491D01*
X89676609Y14360492D01*
X89573887Y14419799D01*
X89573882Y14419801D01*
X89459311Y14450500D01*
X89459309Y14450500D01*
X89340691Y14450500D01*
X89340689Y14450500D01*
X89226117Y14419801D01*
X89226112Y14419799D01*
X89123390Y14360492D01*
X89039508Y14276610D01*
X88980201Y14173888D01*
X88980199Y14173883D01*
X88949500Y14059312D01*
X17605500Y14059312D01*
X17605500Y14633260D01*
X17595573Y14701393D01*
X17544198Y14806483D01*
X17461483Y14889198D01*
X17461482Y14889199D01*
X17461479Y14889201D01*
X17421999Y14908502D01*
X17384509Y14950955D01*
X17380500Y14974982D01*
X17380500Y15712747D01*
X17402173Y15765072D01*
X17460489Y15823387D01*
X17519799Y15926114D01*
X17550499Y16040689D01*
X17550500Y16040689D01*
X17550500Y16159311D01*
X17550499Y16159312D01*
X17546593Y16173888D01*
X17544700Y16180952D01*
X17527538Y16245006D01*
X17523705Y16259312D01*
X79749500Y16259312D01*
X79749500Y16140689D01*
X79780199Y16026118D01*
X79780201Y16026113D01*
X79839508Y15923391D01*
X79839509Y15923390D01*
X79839511Y15923387D01*
X79923387Y15839511D01*
X79923389Y15839510D01*
X79923390Y15839509D01*
X79951307Y15823391D01*
X80026114Y15780201D01*
X80026115Y15780201D01*
X80026117Y15780200D01*
X80082572Y15765073D01*
X80140688Y15749501D01*
X80140689Y15749500D01*
X80140691Y15749500D01*
X80259311Y15749500D01*
X80259311Y15749501D01*
X80373886Y15780201D01*
X80476613Y15839511D01*
X80560489Y15923387D01*
X80619799Y16026114D01*
X80650499Y16140689D01*
X80650500Y16140689D01*
X80650500Y16259311D01*
X80650499Y16259312D01*
X80646593Y16273888D01*
X80622431Y16364065D01*
X80619800Y16373883D01*
X80619796Y16373892D01*
X80610414Y16390143D01*
X80600500Y16427142D01*
X80600500Y16997978D01*
X80622174Y17050304D01*
X80674500Y17071978D01*
X80726826Y17050304D01*
X80736026Y17039093D01*
X80755448Y17010027D01*
X80797242Y16982101D01*
X80821767Y16965713D01*
X80821768Y16965713D01*
X80821769Y16965712D01*
X80880252Y16954079D01*
X82025500Y16954079D01*
X82077826Y16932405D01*
X82099500Y16880079D01*
X82099500Y15227142D01*
X82089586Y15190143D01*
X82080203Y15173892D01*
X82080199Y15173883D01*
X82049500Y15059312D01*
X82049500Y14940689D01*
X82080199Y14826118D01*
X82080201Y14826113D01*
X82139508Y14723391D01*
X82139509Y14723390D01*
X82139511Y14723387D01*
X82223387Y14639511D01*
X82326114Y14580201D01*
X82326115Y14580201D01*
X82326117Y14580200D01*
X82383402Y14564851D01*
X82440688Y14549501D01*
X82440689Y14549500D01*
X82440691Y14549500D01*
X82559311Y14549500D01*
X82559311Y14549501D01*
X82673886Y14580201D01*
X82776613Y14639511D01*
X82860489Y14723387D01*
X82919799Y14826114D01*
X82950499Y14940689D01*
X82950500Y14940689D01*
X82950500Y15059311D01*
X82950499Y15059312D01*
X82919800Y15173883D01*
X82919796Y15173892D01*
X82910414Y15190143D01*
X82900500Y15227142D01*
X82900500Y16880079D01*
X82922174Y16932405D01*
X82974500Y16954079D01*
X84069746Y16954079D01*
X84069748Y16954079D01*
X84128231Y16965712D01*
X84184389Y17003237D01*
X84239935Y17014287D01*
X84287028Y16982822D01*
X84299500Y16941708D01*
X84299500Y15627142D01*
X84289586Y15590143D01*
X84280203Y15573892D01*
X84280199Y15573883D01*
X84249500Y15459312D01*
X84249500Y15340689D01*
X84280199Y15226118D01*
X84280201Y15226113D01*
X84339508Y15123391D01*
X84339509Y15123390D01*
X84339511Y15123387D01*
X84423387Y15039511D01*
X84526114Y14980201D01*
X84526115Y14980201D01*
X84526117Y14980200D01*
X84545591Y14974982D01*
X84640688Y14949501D01*
X84640689Y14949500D01*
X84640691Y14949500D01*
X84759311Y14949500D01*
X84759311Y14949501D01*
X84873886Y14980201D01*
X84976613Y15039511D01*
X85060489Y15123387D01*
X85119799Y15226114D01*
X85150499Y15340689D01*
X85150500Y15340689D01*
X85150500Y15459311D01*
X85150499Y15459312D01*
X85119800Y15573883D01*
X85119796Y15573892D01*
X85110414Y15590143D01*
X85100500Y15627142D01*
X85100500Y17109787D01*
X85650001Y17109787D01*
X85652908Y17084711D01*
X85652910Y17084705D01*
X85698213Y16982101D01*
X85777521Y16902793D01*
X85880124Y16857490D01*
X85880123Y16857490D01*
X85905210Y16854580D01*
X87425000Y16854580D01*
X87625000Y16854580D01*
X89144792Y16854580D01*
X89169868Y16857488D01*
X89169874Y16857490D01*
X89272478Y16902793D01*
X89351786Y16982101D01*
X89397089Y17084704D01*
X89400000Y17109790D01*
X89400000Y17554579D01*
X87625000Y17554579D01*
X87625000Y16854580D01*
X87425000Y16854580D01*
X87425000Y17554579D01*
X85650001Y17554579D01*
X85650001Y17109787D01*
X85100500Y17109787D01*
X85100500Y18199369D01*
X85650000Y18199369D01*
X85650000Y17754579D01*
X87425000Y17754579D01*
X87625000Y17754579D01*
X89399999Y17754579D01*
X89399999Y18199372D01*
X89397091Y18224448D01*
X89397089Y18224454D01*
X89351786Y18327058D01*
X89272478Y18406366D01*
X89169875Y18451669D01*
X89169876Y18451669D01*
X89144789Y18454579D01*
X87625000Y18454579D01*
X87625000Y17754579D01*
X87425000Y17754579D01*
X87425000Y18454579D01*
X85905207Y18454579D01*
X85880131Y18451671D01*
X85880125Y18451669D01*
X85777521Y18406366D01*
X85698213Y18327058D01*
X85652910Y18224455D01*
X85650000Y18199369D01*
X85100500Y18199369D01*
X85100500Y19649787D01*
X85650001Y19649787D01*
X85652908Y19624711D01*
X85652910Y19624705D01*
X85698213Y19522101D01*
X85777521Y19442793D01*
X85880124Y19397490D01*
X85880123Y19397490D01*
X85905210Y19394580D01*
X87425000Y19394580D01*
X87625000Y19394580D01*
X89144792Y19394580D01*
X89169868Y19397488D01*
X89169874Y19397490D01*
X89272478Y19442793D01*
X89351786Y19522101D01*
X89397089Y19624704D01*
X89400000Y19649790D01*
X89400000Y20094579D01*
X87625000Y20094579D01*
X87625000Y19394580D01*
X87425000Y19394580D01*
X87425000Y20094579D01*
X85650001Y20094579D01*
X85650001Y19649787D01*
X85100500Y19649787D01*
X85100500Y20739369D01*
X85650000Y20739369D01*
X85650000Y20294579D01*
X87425000Y20294579D01*
X87625000Y20294579D01*
X89399999Y20294579D01*
X89399999Y20739372D01*
X89397091Y20764448D01*
X89397089Y20764454D01*
X89351786Y20867058D01*
X89272478Y20946366D01*
X89169875Y20991669D01*
X89169876Y20991669D01*
X89144789Y20994579D01*
X87625000Y20994579D01*
X87625000Y20294579D01*
X87425000Y20294579D01*
X87425000Y20994579D01*
X85905207Y20994579D01*
X85880131Y20991671D01*
X85880125Y20991669D01*
X85777521Y20946366D01*
X85698213Y20867058D01*
X85652910Y20764455D01*
X85650000Y20739369D01*
X85100500Y20739369D01*
X85100500Y21352727D01*
X85073207Y21454587D01*
X85073207Y21454588D01*
X85020482Y21545910D01*
X85020481Y21545911D01*
X85020480Y21545913D01*
X84376606Y22189787D01*
X85650001Y22189787D01*
X85652908Y22164711D01*
X85652910Y22164705D01*
X85698213Y22062101D01*
X85777521Y21982793D01*
X85880124Y21937490D01*
X85880123Y21937490D01*
X85905210Y21934580D01*
X87425000Y21934580D01*
X87625000Y21934580D01*
X89144792Y21934580D01*
X89169868Y21937488D01*
X89169874Y21937490D01*
X89272478Y21982793D01*
X89351786Y22062101D01*
X89397089Y22164704D01*
X89400000Y22189790D01*
X89400000Y22634579D01*
X87625000Y22634579D01*
X87625000Y21934580D01*
X87425000Y21934580D01*
X87425000Y22634579D01*
X85650001Y22634579D01*
X85650001Y22189787D01*
X84376606Y22189787D01*
X84272174Y22294219D01*
X84250500Y22346545D01*
X84250500Y23254323D01*
X84250500Y23254327D01*
X84245519Y23279369D01*
X85650000Y23279369D01*
X85650000Y22834579D01*
X87425000Y22834579D01*
X87625000Y22834579D01*
X89399999Y22834579D01*
X89399999Y23279372D01*
X89397091Y23304448D01*
X89397089Y23304454D01*
X89351786Y23407058D01*
X89272478Y23486366D01*
X89169875Y23531669D01*
X89169876Y23531669D01*
X89144789Y23534579D01*
X87625000Y23534579D01*
X87625000Y22834579D01*
X87425000Y22834579D01*
X87425000Y23534579D01*
X85905207Y23534579D01*
X85880131Y23531671D01*
X85880125Y23531669D01*
X85777521Y23486366D01*
X85698213Y23407058D01*
X85652910Y23304455D01*
X85650000Y23279369D01*
X84245519Y23279369D01*
X84238867Y23312810D01*
X84194552Y23379131D01*
X84152757Y23407058D01*
X84128232Y23423446D01*
X84128233Y23423446D01*
X84098989Y23429263D01*
X84069748Y23435079D01*
X80880252Y23435079D01*
X80851010Y23429263D01*
X80821767Y23423446D01*
X80755449Y23379132D01*
X80755447Y23379130D01*
X80711133Y23312812D01*
X80699500Y23254326D01*
X80699500Y22214833D01*
X80711133Y22156347D01*
X80740608Y22112236D01*
X80755448Y22090027D01*
X80797242Y22062101D01*
X80821767Y22045713D01*
X80821768Y22045713D01*
X80821769Y22045712D01*
X80880252Y22034079D01*
X83368876Y22034079D01*
X83421202Y22012405D01*
X84277826Y21155781D01*
X84299500Y21103455D01*
X84299500Y20907451D01*
X84277826Y20855125D01*
X84225500Y20833451D01*
X84184387Y20845923D01*
X84128232Y20883446D01*
X84128233Y20883446D01*
X84098989Y20889263D01*
X84069748Y20895079D01*
X80880252Y20895079D01*
X80851010Y20889263D01*
X80821767Y20883446D01*
X80755449Y20839132D01*
X80755447Y20839130D01*
X80711133Y20772812D01*
X80699500Y20714326D01*
X80699500Y19996545D01*
X80677826Y19944219D01*
X79879517Y19145910D01*
X79826793Y19054590D01*
X79826791Y19054585D01*
X79810860Y18995131D01*
X79810861Y18995130D01*
X79799500Y18952728D01*
X79799500Y16427142D01*
X79789586Y16390143D01*
X79780203Y16373892D01*
X79780199Y16373883D01*
X79749500Y16259312D01*
X17523705Y16259312D01*
X17519800Y16273883D01*
X17519798Y16273888D01*
X17460491Y16376610D01*
X17460490Y16376611D01*
X17460489Y16376613D01*
X17438926Y16398176D01*
X17417253Y16450500D01*
X17438927Y16502826D01*
X17491253Y16524500D01*
X17754798Y16524500D01*
X17754800Y16524500D01*
X17856058Y16566443D01*
X17933557Y16643942D01*
X17933556Y16643942D01*
X17968517Y16678903D01*
X17968516Y16678903D01*
X19933557Y18643941D01*
X19955180Y18696144D01*
X19975500Y18745200D01*
X19975500Y21207747D01*
X19997173Y21260072D01*
X20060489Y21323387D01*
X20119799Y21426114D01*
X20150499Y21540689D01*
X20150500Y21540689D01*
X20150500Y21659311D01*
X20150499Y21659312D01*
X20119800Y21773883D01*
X20119798Y21773888D01*
X20060491Y21876610D01*
X20060490Y21876611D01*
X20060489Y21876613D01*
X19976613Y21960489D01*
X19976610Y21960491D01*
X19976609Y21960492D01*
X19873887Y22019799D01*
X19873882Y22019801D01*
X19759311Y22050500D01*
X19759309Y22050500D01*
X19640691Y22050500D01*
X19640689Y22050500D01*
X19526117Y22019801D01*
X19526112Y22019799D01*
X19423390Y21960492D01*
X19339508Y21876610D01*
X19280201Y21773888D01*
X19280199Y21773883D01*
X19249500Y21659312D01*
X19249500Y21540689D01*
X19280199Y21426118D01*
X19280201Y21426113D01*
X19339508Y21323391D01*
X19339509Y21323390D01*
X19339511Y21323387D01*
X19402826Y21260072D01*
X19424500Y21207747D01*
X19424500Y18944768D01*
X19402826Y18892442D01*
X17607559Y17097174D01*
X17555233Y17075500D01*
X17491253Y17075500D01*
X17438927Y17097174D01*
X17417253Y17149500D01*
X17438926Y17201825D01*
X17460489Y17223387D01*
X17519799Y17326114D01*
X17550499Y17440689D01*
X17550500Y17440689D01*
X17550500Y17559311D01*
X17550499Y17559312D01*
X17546593Y17573888D01*
X17519799Y17673886D01*
X17496416Y17714385D01*
X17489024Y17770536D01*
X17496309Y17788196D01*
X17501208Y17796741D01*
X17524065Y17819596D01*
X17566497Y17910592D01*
X17568047Y17913294D01*
X17583096Y17924913D01*
X17603921Y17944848D01*
X17656058Y17966443D01*
X17733557Y18043942D01*
X17733556Y18043942D01*
X18097058Y18407442D01*
X18139000Y18508700D01*
X18139000Y18618300D01*
X18139000Y20071247D01*
X18160673Y20123572D01*
X18223989Y20186887D01*
X18283299Y20289614D01*
X18313999Y20404189D01*
X18314000Y20404189D01*
X18314000Y20522811D01*
X18313999Y20522812D01*
X18283300Y20637383D01*
X18283298Y20637388D01*
X18223991Y20740110D01*
X18223990Y20740111D01*
X18223989Y20740113D01*
X18140113Y20823989D01*
X18140110Y20823991D01*
X18140109Y20823992D01*
X18037387Y20883299D01*
X18037382Y20883301D01*
X17922811Y20914000D01*
X17922809Y20914000D01*
X17804191Y20914000D01*
X17804189Y20914000D01*
X17689617Y20883301D01*
X17689612Y20883299D01*
X17586890Y20823992D01*
X17503008Y20740110D01*
X17443701Y20637388D01*
X17443699Y20637383D01*
X17413000Y20522812D01*
X17413000Y20404189D01*
X17443699Y20289618D01*
X17443701Y20289613D01*
X17503008Y20186891D01*
X17503009Y20186890D01*
X17503011Y20186887D01*
X17566326Y20123572D01*
X17588000Y20071247D01*
X17588000Y18708269D01*
X17566326Y18655943D01*
X17559752Y18649369D01*
X17507426Y18627695D01*
X17455100Y18649369D01*
X17440404Y18664065D01*
X17411344Y18677616D01*
X17333173Y18714068D01*
X17333171Y18714069D01*
X17297178Y18718807D01*
X17284316Y18720500D01*
X16935684Y18720500D01*
X16924318Y18719004D01*
X16886828Y18714069D01*
X16779595Y18664065D01*
X16695935Y18580405D01*
X16667067Y18518496D01*
X16625309Y18480233D01*
X16568726Y18482703D01*
X16532933Y18518496D01*
X16504065Y18580404D01*
X16420404Y18664065D01*
X16313173Y18714068D01*
X16313171Y18714069D01*
X16277178Y18718807D01*
X16264316Y18720500D01*
X15954283Y18720500D01*
X15901957Y18742174D01*
X15882805Y18775345D01*
X15869799Y18823886D01*
X15810489Y18926613D01*
X15726613Y19010489D01*
X15726610Y19010491D01*
X15726609Y19010492D01*
X15623887Y19069799D01*
X15623882Y19069801D01*
X15509311Y19100500D01*
X15509309Y19100500D01*
X15390691Y19100500D01*
X15390689Y19100500D01*
X15276117Y19069801D01*
X15276112Y19069799D01*
X15173390Y19010492D01*
X15089508Y18926610D01*
X15030201Y18823888D01*
X15030199Y18823883D01*
X14999500Y18709312D01*
X14999500Y18590689D01*
X15030199Y18476118D01*
X15030201Y18476113D01*
X15089508Y18373391D01*
X15089509Y18373390D01*
X15089511Y18373387D01*
X15173387Y18289511D01*
X15173389Y18289510D01*
X15173390Y18289509D01*
X15242422Y18249653D01*
X15276114Y18230201D01*
X15276115Y18230201D01*
X15276117Y18230200D01*
X15297558Y18224455D01*
X15390688Y18199501D01*
X15390689Y18199500D01*
X15480232Y18199500D01*
X15532558Y18177826D01*
X15597826Y18112559D01*
X15619500Y18060234D01*
X15619500Y17975684D01*
X15620717Y17966443D01*
X15625931Y17926829D01*
X15628561Y17921189D01*
X15675935Y17819596D01*
X15759596Y17735935D01*
X15866827Y17685932D01*
X15915684Y17679500D01*
X15915686Y17679500D01*
X16264314Y17679500D01*
X16264316Y17679500D01*
X16313173Y17685932D01*
X16420404Y17735935D01*
X16504065Y17819596D01*
X16532933Y17881505D01*
X16550057Y17897196D01*
X16564672Y17915254D01*
X16570425Y17915861D01*
X16574690Y17919768D01*
X16597897Y17918755D01*
X16620998Y17921189D01*
X16625207Y17917563D01*
X16631273Y17917298D01*
X16665023Y17885559D01*
X16666100Y17883576D01*
X16695935Y17819596D01*
X16706722Y17808809D01*
X16711839Y17799391D01*
X16713768Y17781077D01*
X16720816Y17764063D01*
X16717044Y17749988D01*
X16717774Y17743065D01*
X16713910Y17738291D01*
X16710902Y17727064D01*
X16680200Y17673886D01*
X16649500Y17559312D01*
X16649500Y17440689D01*
X16680199Y17326118D01*
X16680201Y17326113D01*
X16739508Y17223391D01*
X16739509Y17223390D01*
X16739511Y17223387D01*
X16761073Y17201825D01*
X16782747Y17149500D01*
X16761073Y17097174D01*
X16708747Y17075500D01*
X16254500Y17075500D01*
X16202174Y17097174D01*
X16180500Y17149500D01*
X16180500Y17224315D01*
X16174068Y17273172D01*
X16174068Y17273173D01*
X16124065Y17380404D01*
X16040404Y17464065D01*
X15933173Y17514068D01*
X15933171Y17514069D01*
X15897178Y17518807D01*
X15884316Y17520500D01*
X15535684Y17520500D01*
X15524318Y17519004D01*
X15486828Y17514069D01*
X15379595Y17464065D01*
X15295935Y17380405D01*
X15295935Y17380404D01*
X15277416Y17340689D01*
X15267067Y17318496D01*
X15225309Y17280233D01*
X15168726Y17282703D01*
X15132933Y17318496D01*
X15129379Y17326118D01*
X15104065Y17380404D01*
X15020404Y17464065D01*
X14913173Y17514068D01*
X14913171Y17514069D01*
X14877178Y17518807D01*
X14864316Y17520500D01*
X14864314Y17520500D01*
X14690886Y17520500D01*
X14638560Y17542174D01*
X14622608Y17569803D01*
X14621654Y17569407D01*
X14619798Y17573888D01*
X14560491Y17676610D01*
X14560490Y17676611D01*
X14560489Y17676613D01*
X14476613Y17760489D01*
X14476610Y17760491D01*
X14476609Y17760492D01*
X14373887Y17819799D01*
X14373882Y17819801D01*
X14259311Y17850500D01*
X14259309Y17850500D01*
X14140691Y17850500D01*
X14140689Y17850500D01*
X14026117Y17819801D01*
X14026112Y17819799D01*
X13923390Y17760492D01*
X13839508Y17676610D01*
X13780201Y17573888D01*
X13780199Y17573883D01*
X13749500Y17459312D01*
X13749500Y17340689D01*
X13780199Y17226118D01*
X13780201Y17226113D01*
X13839508Y17123391D01*
X13839509Y17123390D01*
X13839511Y17123387D01*
X13923387Y17039511D01*
X13923389Y17039510D01*
X13923390Y17039509D01*
X14021574Y16982822D01*
X14026114Y16980201D01*
X14026115Y16980201D01*
X14026117Y16980200D01*
X14080184Y16965713D01*
X14140688Y16949501D01*
X14140689Y16949500D01*
X14140691Y16949500D01*
X14145500Y16949500D01*
X14197826Y16927826D01*
X14219500Y16875500D01*
X14219500Y16775686D01*
X14225931Y16726829D01*
X14225932Y16726827D01*
X14248279Y16678903D01*
X14269751Y16632858D01*
X14272221Y16576274D01*
X14233958Y16534517D01*
X14177374Y16532047D01*
X14150358Y16549258D01*
X13666059Y17033556D01*
X13666058Y17033557D01*
X13651684Y17039511D01*
X13564800Y17075500D01*
X13564799Y17075500D01*
X12444767Y17075500D01*
X12392441Y17097174D01*
X10494485Y18995130D01*
X11719500Y18995130D01*
X11719500Y18874872D01*
X11742959Y18756931D01*
X11742961Y18756924D01*
X11788981Y18645821D01*
X11855791Y18545833D01*
X11855794Y18545829D01*
X11940829Y18460794D01*
X12040820Y18393982D01*
X12151924Y18347961D01*
X12269871Y18324500D01*
X12269872Y18324500D01*
X12390128Y18324500D01*
X12390129Y18324500D01*
X12508076Y18347961D01*
X12619180Y18393982D01*
X12719171Y18460794D01*
X12804206Y18545829D01*
X12871018Y18645820D01*
X12917039Y18756924D01*
X12940500Y18874871D01*
X12940500Y18995129D01*
X12917039Y19113076D01*
X12871018Y19224180D01*
X12804206Y19324171D01*
X12719171Y19409206D01*
X12719167Y19409209D01*
X12619179Y19476019D01*
X12508076Y19522039D01*
X12508069Y19522041D01*
X12419215Y19539715D01*
X12390129Y19545500D01*
X12269871Y19545500D01*
X12246538Y19540859D01*
X12151930Y19522041D01*
X12151923Y19522039D01*
X12040820Y19476019D01*
X11940832Y19409209D01*
X11855791Y19324168D01*
X11788981Y19224180D01*
X11742961Y19113077D01*
X11742959Y19113070D01*
X11719500Y18995130D01*
X10494485Y18995130D01*
X10397174Y19092441D01*
X10375500Y19144767D01*
X10375500Y20507747D01*
X10397173Y20560072D01*
X10460489Y20623387D01*
X10519799Y20726114D01*
X10550499Y20840689D01*
X10550500Y20840689D01*
X10550500Y20959311D01*
X10550499Y20959312D01*
X10541828Y20991671D01*
X10519799Y21073886D01*
X10485030Y21134107D01*
X10460491Y21176610D01*
X10460490Y21176611D01*
X10460489Y21176613D01*
X10376613Y21260489D01*
X10376610Y21260491D01*
X10376609Y21260492D01*
X10273887Y21319799D01*
X10273882Y21319801D01*
X10159311Y21350500D01*
X10159309Y21350500D01*
X10040691Y21350500D01*
X10040689Y21350500D01*
X9926117Y21319801D01*
X9926112Y21319799D01*
X9823390Y21260492D01*
X9739508Y21176610D01*
X9680201Y21073888D01*
X9680199Y21073883D01*
X9649500Y20959312D01*
X500500Y20959312D01*
X500500Y22959312D01*
X73449500Y22959312D01*
X73449500Y22840689D01*
X73480199Y22726118D01*
X73480201Y22726113D01*
X73539508Y22623391D01*
X73539509Y22623390D01*
X73539511Y22623387D01*
X73623387Y22539511D01*
X73726114Y22480201D01*
X73726115Y22480201D01*
X73726117Y22480200D01*
X73783402Y22464851D01*
X73840688Y22449501D01*
X73840689Y22449500D01*
X73840691Y22449500D01*
X73959311Y22449500D01*
X73959311Y22449501D01*
X74073886Y22480201D01*
X74176613Y22539511D01*
X74260489Y22623387D01*
X74319799Y22726114D01*
X74324656Y22744244D01*
X74343806Y22777415D01*
X76296179Y24729787D01*
X80600001Y24729787D01*
X80602908Y24704711D01*
X80602910Y24704705D01*
X80648213Y24602101D01*
X80727521Y24522793D01*
X80830124Y24477490D01*
X80830123Y24477490D01*
X80855210Y24474580D01*
X82375000Y24474580D01*
X82575000Y24474580D01*
X84094792Y24474580D01*
X84119868Y24477488D01*
X84119874Y24477490D01*
X84222478Y24522793D01*
X84301786Y24602101D01*
X84347089Y24704704D01*
X84350000Y24729787D01*
X85650001Y24729787D01*
X85652908Y24704711D01*
X85652910Y24704705D01*
X85698213Y24602101D01*
X85777521Y24522793D01*
X85880124Y24477490D01*
X85880123Y24477490D01*
X85905210Y24474580D01*
X87425000Y24474580D01*
X87625000Y24474580D01*
X89144792Y24474580D01*
X89169868Y24477488D01*
X89169874Y24477490D01*
X89272478Y24522793D01*
X89351786Y24602101D01*
X89397089Y24704704D01*
X89400000Y24729790D01*
X89400000Y25174579D01*
X87625000Y25174579D01*
X87625000Y24474580D01*
X87425000Y24474580D01*
X87425000Y25174579D01*
X85650001Y25174579D01*
X85650001Y24729787D01*
X84350000Y24729787D01*
X84350000Y24729790D01*
X84350000Y25174579D01*
X82575000Y25174579D01*
X82575000Y24474580D01*
X82375000Y24474580D01*
X82375000Y25174579D01*
X80600001Y25174579D01*
X80600001Y24729787D01*
X76296179Y24729787D01*
X77385761Y25819369D01*
X80600000Y25819369D01*
X80600000Y25374579D01*
X82375000Y25374579D01*
X82575000Y25374579D01*
X84349999Y25374579D01*
X84349999Y25819369D01*
X85650000Y25819369D01*
X85650000Y25374579D01*
X87425000Y25374579D01*
X87625000Y25374579D01*
X89399999Y25374579D01*
X89399999Y25819372D01*
X89397091Y25844448D01*
X89397089Y25844454D01*
X89351786Y25947058D01*
X89272478Y26026366D01*
X89169875Y26071669D01*
X89169876Y26071669D01*
X89144789Y26074579D01*
X87625000Y26074579D01*
X87625000Y25374579D01*
X87425000Y25374579D01*
X87425000Y26074579D01*
X85905207Y26074579D01*
X85880131Y26071671D01*
X85880125Y26071669D01*
X85777521Y26026366D01*
X85698213Y25947058D01*
X85652910Y25844455D01*
X85650000Y25819369D01*
X84349999Y25819369D01*
X84349999Y25819372D01*
X84347091Y25844448D01*
X84347089Y25844454D01*
X84301786Y25947058D01*
X84222478Y26026366D01*
X84119875Y26071669D01*
X84119876Y26071669D01*
X84094789Y26074579D01*
X82575000Y26074579D01*
X82575000Y25374579D01*
X82375000Y25374579D01*
X82375000Y26074579D01*
X80855207Y26074579D01*
X80830131Y26071671D01*
X80830125Y26071669D01*
X80727521Y26026366D01*
X80648213Y25947058D01*
X80602910Y25844455D01*
X80600000Y25819369D01*
X77385761Y25819369D01*
X78958798Y27392405D01*
X79011124Y27414079D01*
X80625500Y27414079D01*
X80677826Y27392405D01*
X80699500Y27340079D01*
X80699500Y27294831D01*
X80704481Y27269790D01*
X80711133Y27236347D01*
X80719793Y27223387D01*
X80755448Y27170027D01*
X80797242Y27142101D01*
X80821767Y27125713D01*
X80821768Y27125713D01*
X80821769Y27125712D01*
X80880252Y27114079D01*
X80880254Y27114079D01*
X84069746Y27114079D01*
X84069748Y27114079D01*
X84128231Y27125712D01*
X84194552Y27170027D01*
X84238867Y27236348D01*
X84245518Y27269787D01*
X85650001Y27269787D01*
X85652908Y27244711D01*
X85652910Y27244705D01*
X85698213Y27142101D01*
X85777521Y27062793D01*
X85880124Y27017490D01*
X85880123Y27017490D01*
X85905210Y27014580D01*
X87425000Y27014580D01*
X87625000Y27014580D01*
X89144792Y27014580D01*
X89169868Y27017488D01*
X89169874Y27017490D01*
X89272478Y27062793D01*
X89351786Y27142101D01*
X89397089Y27244704D01*
X89400000Y27269790D01*
X89400000Y27714579D01*
X87625000Y27714579D01*
X87625000Y27014580D01*
X87425000Y27014580D01*
X87425000Y27714579D01*
X85650001Y27714579D01*
X85650001Y27269787D01*
X84245518Y27269787D01*
X84250500Y27294831D01*
X84250500Y28334327D01*
X84245519Y28359369D01*
X85650000Y28359369D01*
X85650000Y27914579D01*
X87425000Y27914579D01*
X87625000Y27914579D01*
X89399999Y27914579D01*
X89399999Y28359372D01*
X89397091Y28384448D01*
X89397089Y28384454D01*
X89351786Y28487058D01*
X89272478Y28566366D01*
X89169875Y28611669D01*
X89169876Y28611669D01*
X89144789Y28614579D01*
X87625000Y28614579D01*
X87625000Y27914579D01*
X87425000Y27914579D01*
X87425000Y28614579D01*
X85905207Y28614579D01*
X85880131Y28611671D01*
X85880125Y28611669D01*
X85777521Y28566366D01*
X85698213Y28487058D01*
X85652910Y28384455D01*
X85650000Y28359369D01*
X84245519Y28359369D01*
X84238867Y28392810D01*
X84194552Y28459131D01*
X84152757Y28487058D01*
X84128232Y28503446D01*
X84128233Y28503446D01*
X84098989Y28509263D01*
X84069748Y28515079D01*
X80880252Y28515079D01*
X80851010Y28509263D01*
X80821767Y28503446D01*
X80755449Y28459132D01*
X80755447Y28459130D01*
X80711133Y28392812D01*
X80699500Y28334326D01*
X80699500Y28289079D01*
X80677826Y28236753D01*
X80625500Y28215079D01*
X78867306Y28215079D01*
X78761852Y28215079D01*
X78710921Y28201433D01*
X78659990Y28187786D01*
X78659986Y28187784D01*
X78568669Y28135062D01*
X73777415Y23343810D01*
X73744245Y23324658D01*
X73726113Y23319799D01*
X73726112Y23319799D01*
X73623390Y23260492D01*
X73539508Y23176610D01*
X73480201Y23073888D01*
X73480199Y23073883D01*
X73449500Y22959312D01*
X500500Y22959312D01*
X500500Y43059312D01*
X44549500Y43059312D01*
X44549500Y42940689D01*
X44580199Y42826118D01*
X44580201Y42826113D01*
X44639508Y42723391D01*
X44639509Y42723390D01*
X44639511Y42723387D01*
X44723387Y42639511D01*
X44723389Y42639510D01*
X44723390Y42639509D01*
X44826112Y42580202D01*
X44826114Y42580201D01*
X44826115Y42580201D01*
X44826117Y42580200D01*
X44858666Y42571478D01*
X44903599Y42536999D01*
X44910991Y42480847D01*
X44876512Y42435914D01*
X44858666Y42428522D01*
X44826117Y42419801D01*
X44826112Y42419799D01*
X44723390Y42360492D01*
X44639508Y42276610D01*
X44580201Y42173888D01*
X44580199Y42173883D01*
X44549500Y42059312D01*
X44549500Y41940689D01*
X44580199Y41826118D01*
X44580201Y41826113D01*
X44639508Y41723391D01*
X44639509Y41723390D01*
X44639511Y41723387D01*
X44723387Y41639511D01*
X44723389Y41639510D01*
X44723390Y41639509D01*
X44756491Y41620398D01*
X44826114Y41580201D01*
X44826115Y41580201D01*
X44826117Y41580200D01*
X44858666Y41571478D01*
X44903599Y41536999D01*
X44910991Y41480847D01*
X44876512Y41435914D01*
X44858666Y41428522D01*
X44826117Y41419801D01*
X44826112Y41419799D01*
X44723390Y41360492D01*
X44639508Y41276610D01*
X44580201Y41173888D01*
X44580199Y41173883D01*
X44549500Y41059312D01*
X44549500Y40940689D01*
X44580199Y40826118D01*
X44580201Y40826113D01*
X44639508Y40723391D01*
X44639509Y40723390D01*
X44639511Y40723387D01*
X44723387Y40639511D01*
X44826114Y40580201D01*
X44826115Y40580201D01*
X44826117Y40580200D01*
X44858666Y40571478D01*
X44903599Y40536999D01*
X44910991Y40480847D01*
X44876512Y40435914D01*
X44858666Y40428522D01*
X44826117Y40419801D01*
X44826112Y40419799D01*
X44723390Y40360492D01*
X44639508Y40276610D01*
X44580201Y40173888D01*
X44580199Y40173883D01*
X44549500Y40059312D01*
X44549500Y39940689D01*
X44580199Y39826118D01*
X44580201Y39826113D01*
X44639508Y39723391D01*
X44639509Y39723390D01*
X44639511Y39723387D01*
X44723387Y39639511D01*
X44723389Y39639510D01*
X44723390Y39639509D01*
X44756491Y39620398D01*
X44826114Y39580201D01*
X44826115Y39580201D01*
X44826117Y39580200D01*
X44856224Y39572133D01*
X44940688Y39549501D01*
X44940689Y39549500D01*
X44940691Y39549500D01*
X45059311Y39549500D01*
X45059311Y39549501D01*
X45173886Y39580201D01*
X45276613Y39639511D01*
X45339928Y39702826D01*
X45392254Y39724500D01*
X45555233Y39724500D01*
X45607559Y39702826D01*
X45908559Y39401826D01*
X45930233Y39349500D01*
X45908559Y39297174D01*
X45856233Y39275500D01*
X45792254Y39275500D01*
X45739928Y39297174D01*
X45676613Y39360489D01*
X45676610Y39360491D01*
X45676609Y39360492D01*
X45573887Y39419799D01*
X45573882Y39419801D01*
X45459311Y39450500D01*
X45459309Y39450500D01*
X45340691Y39450500D01*
X45340689Y39450500D01*
X45226117Y39419801D01*
X45226112Y39419799D01*
X45123390Y39360492D01*
X45039508Y39276610D01*
X44980201Y39173888D01*
X44980199Y39173883D01*
X44949500Y39059312D01*
X44949500Y39009643D01*
X44927826Y38957317D01*
X44894653Y38938165D01*
X44826117Y38919801D01*
X44826112Y38919799D01*
X44723390Y38860492D01*
X44639508Y38776610D01*
X44580201Y38673888D01*
X44580199Y38673883D01*
X44549500Y38559312D01*
X44549500Y38440689D01*
X44580199Y38326118D01*
X44580201Y38326113D01*
X44639508Y38223391D01*
X44639509Y38223390D01*
X44639511Y38223387D01*
X44723387Y38139511D01*
X44723389Y38139510D01*
X44723390Y38139509D01*
X44810411Y38089267D01*
X44826114Y38080201D01*
X44826115Y38080201D01*
X44826117Y38080200D01*
X44858666Y38071478D01*
X44903599Y38036999D01*
X44910991Y37980847D01*
X44876512Y37935914D01*
X44858666Y37928522D01*
X44826117Y37919801D01*
X44826112Y37919799D01*
X44723390Y37860492D01*
X44639508Y37776610D01*
X44580201Y37673888D01*
X44580199Y37673883D01*
X44549500Y37559312D01*
X44549500Y37440689D01*
X44580199Y37326118D01*
X44580201Y37326113D01*
X44639508Y37223391D01*
X44639509Y37223390D01*
X44639511Y37223387D01*
X44723387Y37139511D01*
X44723389Y37139510D01*
X44723390Y37139509D01*
X44773233Y37110732D01*
X44826114Y37080201D01*
X44826115Y37080201D01*
X44826117Y37080200D01*
X44858666Y37071478D01*
X44903599Y37036999D01*
X44910991Y36980847D01*
X44876512Y36935914D01*
X44858666Y36928522D01*
X44826117Y36919801D01*
X44826112Y36919799D01*
X44723390Y36860492D01*
X44639508Y36776610D01*
X44580201Y36673888D01*
X44580199Y36673883D01*
X44549500Y36559312D01*
X44549500Y36440689D01*
X44580199Y36326118D01*
X44580201Y36326113D01*
X44639508Y36223391D01*
X44639509Y36223390D01*
X44639511Y36223387D01*
X44723387Y36139511D01*
X44723389Y36139510D01*
X44723390Y36139509D01*
X44810411Y36089267D01*
X44826114Y36080201D01*
X44826115Y36080201D01*
X44826117Y36080200D01*
X44858666Y36071478D01*
X44903599Y36036999D01*
X44910991Y35980847D01*
X44876512Y35935914D01*
X44858666Y35928522D01*
X44826117Y35919801D01*
X44826112Y35919799D01*
X44723390Y35860492D01*
X44639508Y35776610D01*
X44580201Y35673888D01*
X44580199Y35673883D01*
X44549500Y35559312D01*
X44549500Y35440689D01*
X44580199Y35326118D01*
X44580201Y35326113D01*
X44639508Y35223391D01*
X44639509Y35223390D01*
X44639511Y35223387D01*
X44723387Y35139511D01*
X44723389Y35139510D01*
X44723390Y35139509D01*
X44773233Y35110732D01*
X44826114Y35080201D01*
X44826115Y35080201D01*
X44826117Y35080200D01*
X44858666Y35071478D01*
X44903599Y35036999D01*
X44910991Y34980847D01*
X44876512Y34935914D01*
X44858666Y34928522D01*
X44826117Y34919801D01*
X44826112Y34919799D01*
X44723390Y34860492D01*
X44639508Y34776610D01*
X44580201Y34673888D01*
X44580199Y34673883D01*
X44549500Y34559312D01*
X44549500Y34440689D01*
X44580199Y34326118D01*
X44580201Y34326113D01*
X44639508Y34223391D01*
X44639509Y34223390D01*
X44639511Y34223387D01*
X44723387Y34139511D01*
X44723389Y34139510D01*
X44723390Y34139509D01*
X44810411Y34089267D01*
X44826114Y34080201D01*
X44826115Y34080201D01*
X44826117Y34080200D01*
X44858666Y34071478D01*
X44903599Y34036999D01*
X44910991Y33980847D01*
X44876512Y33935914D01*
X44858666Y33928522D01*
X44826117Y33919801D01*
X44826112Y33919799D01*
X44723390Y33860492D01*
X44639508Y33776610D01*
X44580201Y33673888D01*
X44580199Y33673883D01*
X44549500Y33559312D01*
X44549500Y33440689D01*
X44580199Y33326118D01*
X44580201Y33326113D01*
X44639508Y33223391D01*
X44639509Y33223390D01*
X44639511Y33223387D01*
X44723387Y33139511D01*
X44723389Y33139510D01*
X44723390Y33139509D01*
X44809992Y33089509D01*
X44826114Y33080201D01*
X44826115Y33080201D01*
X44826117Y33080200D01*
X44858666Y33071478D01*
X44903599Y33036999D01*
X44910991Y32980847D01*
X44876512Y32935914D01*
X44858666Y32928522D01*
X44826117Y32919801D01*
X44826112Y32919799D01*
X44723390Y32860492D01*
X44639508Y32776610D01*
X44580201Y32673888D01*
X44580199Y32673883D01*
X44549500Y32559312D01*
X44549500Y32440689D01*
X44580199Y32326118D01*
X44580201Y32326113D01*
X44639508Y32223391D01*
X44639509Y32223390D01*
X44639511Y32223387D01*
X44723387Y32139511D01*
X44723389Y32139510D01*
X44723390Y32139509D01*
X44810411Y32089267D01*
X44826114Y32080201D01*
X44826115Y32080201D01*
X44826117Y32080200D01*
X44858666Y32071478D01*
X44903599Y32036999D01*
X44910991Y31980847D01*
X44876512Y31935914D01*
X44858666Y31928522D01*
X44826117Y31919801D01*
X44826112Y31919799D01*
X44723390Y31860492D01*
X44639508Y31776610D01*
X44580201Y31673888D01*
X44580199Y31673883D01*
X44549500Y31559312D01*
X44549500Y31440689D01*
X44580199Y31326118D01*
X44580201Y31326113D01*
X44639508Y31223391D01*
X44639509Y31223390D01*
X44639511Y31223387D01*
X44723387Y31139511D01*
X44723389Y31139510D01*
X44723390Y31139509D01*
X44809992Y31089509D01*
X44826114Y31080201D01*
X44894653Y31061836D01*
X44939586Y31027358D01*
X44949500Y30990358D01*
X44949500Y30940689D01*
X44980199Y30826118D01*
X44980201Y30826113D01*
X45039508Y30723391D01*
X45039509Y30723390D01*
X45039511Y30723387D01*
X45123387Y30639511D01*
X45123389Y30639510D01*
X45123390Y30639509D01*
X45209992Y30589509D01*
X45226114Y30580201D01*
X45226115Y30580201D01*
X45226117Y30580200D01*
X45283402Y30564851D01*
X45340688Y30549501D01*
X45340689Y30549500D01*
X45340691Y30549500D01*
X45459311Y30549500D01*
X45459311Y30549501D01*
X45573886Y30580201D01*
X45676613Y30639511D01*
X45739928Y30702826D01*
X45792254Y30724500D01*
X46556233Y30724500D01*
X46608559Y30702826D01*
X46630233Y30650500D01*
X46608559Y30598174D01*
X46307559Y30297174D01*
X46255233Y30275500D01*
X45392254Y30275500D01*
X45339928Y30297174D01*
X45326369Y30310733D01*
X45276613Y30360489D01*
X45276610Y30360491D01*
X45276609Y30360492D01*
X45173887Y30419799D01*
X45173882Y30419801D01*
X45059311Y30450500D01*
X45059309Y30450500D01*
X44940691Y30450500D01*
X44940689Y30450500D01*
X44826117Y30419801D01*
X44826112Y30419799D01*
X44723390Y30360492D01*
X44639508Y30276610D01*
X44580201Y30173888D01*
X44580199Y30173883D01*
X44549500Y30059312D01*
X44549500Y29940689D01*
X44580199Y29826118D01*
X44580201Y29826113D01*
X44639508Y29723391D01*
X44639509Y29723390D01*
X44639511Y29723387D01*
X44723387Y29639511D01*
X44723389Y29639510D01*
X44723390Y29639509D01*
X44809992Y29589509D01*
X44826114Y29580201D01*
X44826115Y29580201D01*
X44826117Y29580200D01*
X44858666Y29571478D01*
X44903599Y29536999D01*
X44910991Y29480847D01*
X44876512Y29435914D01*
X44858666Y29428522D01*
X44826117Y29419801D01*
X44826112Y29419799D01*
X44723390Y29360492D01*
X44639508Y29276610D01*
X44580201Y29173888D01*
X44580199Y29173883D01*
X44549500Y29059312D01*
X44549500Y28940689D01*
X44580199Y28826118D01*
X44580201Y28826113D01*
X44639508Y28723391D01*
X44639509Y28723390D01*
X44639511Y28723387D01*
X44723387Y28639511D01*
X44723389Y28639510D01*
X44723390Y28639509D01*
X44809992Y28589509D01*
X44826114Y28580201D01*
X44826115Y28580201D01*
X44826117Y28580200D01*
X44858666Y28571478D01*
X44903599Y28536999D01*
X44910991Y28480847D01*
X44876512Y28435914D01*
X44858666Y28428522D01*
X44826117Y28419801D01*
X44826112Y28419799D01*
X44723390Y28360492D01*
X44639508Y28276610D01*
X44580201Y28173888D01*
X44580199Y28173883D01*
X44549500Y28059312D01*
X44549500Y27940689D01*
X44580199Y27826118D01*
X44580201Y27826113D01*
X44639508Y27723391D01*
X44639509Y27723390D01*
X44639511Y27723387D01*
X44723387Y27639511D01*
X44723389Y27639510D01*
X44723390Y27639509D01*
X44809992Y27589509D01*
X44826114Y27580201D01*
X44826115Y27580201D01*
X44826117Y27580200D01*
X44858666Y27571478D01*
X44903599Y27536999D01*
X44910991Y27480847D01*
X44876512Y27435914D01*
X44858666Y27428522D01*
X44826117Y27419801D01*
X44826112Y27419799D01*
X44723390Y27360492D01*
X44639508Y27276610D01*
X44580201Y27173888D01*
X44580199Y27173883D01*
X44549500Y27059312D01*
X44549500Y26940689D01*
X44580199Y26826118D01*
X44580201Y26826113D01*
X44639508Y26723391D01*
X44639509Y26723390D01*
X44639511Y26723387D01*
X44723387Y26639511D01*
X44723389Y26639510D01*
X44723390Y26639509D01*
X44809992Y26589509D01*
X44826114Y26580201D01*
X44894653Y26561836D01*
X44939586Y26527358D01*
X44949500Y26490358D01*
X44949500Y26440689D01*
X44980199Y26326118D01*
X44980201Y26326113D01*
X45039508Y26223391D01*
X45039509Y26223390D01*
X45039511Y26223387D01*
X45123387Y26139511D01*
X45123389Y26139510D01*
X45123390Y26139509D01*
X45209992Y26089509D01*
X45226114Y26080201D01*
X45226115Y26080201D01*
X45226117Y26080200D01*
X45283402Y26064851D01*
X45340688Y26049501D01*
X45340689Y26049500D01*
X45340691Y26049500D01*
X45459311Y26049500D01*
X45459311Y26049501D01*
X45573886Y26080201D01*
X45676613Y26139511D01*
X45696414Y26159312D01*
X48049500Y26159312D01*
X48049500Y26040689D01*
X48080199Y25926118D01*
X48080201Y25926113D01*
X48139508Y25823391D01*
X48139509Y25823390D01*
X48139511Y25823387D01*
X48223387Y25739511D01*
X48326114Y25680201D01*
X48326115Y25680201D01*
X48326117Y25680200D01*
X48383402Y25664851D01*
X48440688Y25649501D01*
X48440689Y25649500D01*
X48440691Y25649500D01*
X48559311Y25649500D01*
X48559311Y25649501D01*
X48673886Y25680201D01*
X48776613Y25739511D01*
X48860489Y25823387D01*
X48919799Y25926114D01*
X48950499Y26040689D01*
X48950500Y26040689D01*
X48950500Y26159311D01*
X48950499Y26159312D01*
X48919800Y26273883D01*
X48919798Y26273888D01*
X48860491Y26376610D01*
X48860490Y26376611D01*
X48860489Y26376613D01*
X48776613Y26460489D01*
X48776610Y26460491D01*
X48776609Y26460492D01*
X48673887Y26519799D01*
X48673882Y26519801D01*
X48559311Y26550500D01*
X48559309Y26550500D01*
X48440691Y26550500D01*
X48440689Y26550500D01*
X48326117Y26519801D01*
X48326112Y26519799D01*
X48223390Y26460492D01*
X48139508Y26376610D01*
X48080201Y26273888D01*
X48080199Y26273883D01*
X48049500Y26159312D01*
X45696414Y26159312D01*
X45739928Y26202826D01*
X45792254Y26224500D01*
X46093193Y26224500D01*
X46093194Y26224500D01*
X46194452Y26266443D01*
X46271951Y26343942D01*
X46271950Y26343942D01*
X46306911Y26378903D01*
X46306910Y26378903D01*
X47876146Y27948138D01*
X47896088Y27956398D01*
X47914035Y27968389D01*
X47921468Y27966911D01*
X47928471Y27969811D01*
X47969581Y27957341D01*
X48037867Y27911713D01*
X48037868Y27911713D01*
X48038278Y27911439D01*
X48069744Y27864346D01*
X48068644Y27830757D01*
X48049500Y27759312D01*
X48049500Y27640689D01*
X48080199Y27526118D01*
X48080201Y27526113D01*
X48139508Y27423391D01*
X48139509Y27423390D01*
X48139511Y27423387D01*
X48223387Y27339511D01*
X48223389Y27339510D01*
X48223390Y27339509D01*
X48273649Y27310492D01*
X48326114Y27280201D01*
X48326115Y27280201D01*
X48326117Y27280200D01*
X48364968Y27269790D01*
X48440688Y27249501D01*
X48440689Y27249500D01*
X48440691Y27249500D01*
X48559311Y27249500D01*
X48559311Y27249501D01*
X48673886Y27280201D01*
X48776613Y27339511D01*
X48860489Y27423387D01*
X48919799Y27526114D01*
X48950499Y27640689D01*
X48950500Y27640689D01*
X48950500Y27759311D01*
X48950499Y27759312D01*
X48945404Y27778326D01*
X48919799Y27873886D01*
X48919798Y27873888D01*
X48919207Y27876094D01*
X48926599Y27932246D01*
X48949574Y27956777D01*
X48951762Y27958238D01*
X48998287Y28027867D01*
X49005418Y28063718D01*
X50890000Y28063718D01*
X50893007Y28037794D01*
X50939821Y27931773D01*
X51021772Y27849822D01*
X51127793Y27803008D01*
X51153718Y27800000D01*
X51440000Y27800000D01*
X51440000Y28100000D01*
X50890000Y28100000D01*
X50890000Y28063718D01*
X49005418Y28063718D01*
X49010500Y28089267D01*
X49010499Y28310732D01*
X49005417Y28336283D01*
X50890000Y28336283D01*
X50890000Y28300000D01*
X51170551Y28300000D01*
X51177798Y28299644D01*
X51179261Y28299501D01*
X51179262Y28299501D01*
X51179267Y28299500D01*
X51466001Y28299501D01*
X51518326Y28277827D01*
X51540000Y28225501D01*
X51540000Y28200000D01*
X51566000Y28200000D01*
X51618326Y28178326D01*
X51640000Y28126000D01*
X51640000Y27800000D01*
X51724841Y27800000D01*
X51777167Y27778326D01*
X51798841Y27726000D01*
X51788927Y27689000D01*
X51780201Y27673888D01*
X51780199Y27673883D01*
X51749500Y27559312D01*
X51749500Y27440689D01*
X51780199Y27326118D01*
X51780201Y27326113D01*
X51839508Y27223391D01*
X51839509Y27223390D01*
X51839511Y27223387D01*
X51923387Y27139511D01*
X51923389Y27139510D01*
X51923390Y27139509D01*
X51950450Y27123886D01*
X52026114Y27080201D01*
X52026115Y27080201D01*
X52026117Y27080200D01*
X52083402Y27064851D01*
X52140688Y27049501D01*
X52140689Y27049500D01*
X52140691Y27049500D01*
X52259311Y27049500D01*
X52259311Y27049501D01*
X52373886Y27080201D01*
X52476613Y27139511D01*
X52560489Y27223387D01*
X52619799Y27326114D01*
X52650499Y27440689D01*
X52650500Y27440689D01*
X52650500Y27559311D01*
X52650499Y27559312D01*
X52619800Y27673883D01*
X52619798Y27673888D01*
X52581946Y27739449D01*
X52574553Y27795601D01*
X52609032Y27840535D01*
X52665184Y27847928D01*
X52698357Y27828776D01*
X53446930Y27080202D01*
X54140259Y26386873D01*
X54159411Y26353700D01*
X54180199Y26276118D01*
X54180201Y26276113D01*
X54239508Y26173391D01*
X54239509Y26173390D01*
X54239511Y26173387D01*
X54323387Y26089511D01*
X54323389Y26089510D01*
X54323390Y26089509D01*
X54392687Y26049500D01*
X54426114Y26030201D01*
X54426115Y26030201D01*
X54426117Y26030200D01*
X54440426Y26026366D01*
X54540688Y25999501D01*
X54540689Y25999500D01*
X54540691Y25999500D01*
X54659311Y25999500D01*
X54659311Y25999501D01*
X54773886Y26030201D01*
X54876613Y26089511D01*
X54960489Y26173387D01*
X55019799Y26276114D01*
X55050499Y26390689D01*
X55050500Y26390689D01*
X55050500Y26440358D01*
X55072174Y26492684D01*
X55105345Y26511836D01*
X55173886Y26530201D01*
X55276613Y26589511D01*
X55360489Y26673387D01*
X55419799Y26776114D01*
X55450499Y26890689D01*
X55450500Y26890689D01*
X55450500Y27009311D01*
X55450499Y27009312D01*
X55449087Y27014580D01*
X55419799Y27123886D01*
X55410778Y27139511D01*
X55360491Y27226610D01*
X55360490Y27226611D01*
X55360489Y27226613D01*
X55276613Y27310489D01*
X55276610Y27310491D01*
X55276609Y27310492D01*
X55173887Y27369799D01*
X55173882Y27369801D01*
X55141333Y27378522D01*
X55096400Y27413000D01*
X55089008Y27469153D01*
X55123486Y27514086D01*
X55141333Y27521478D01*
X55173882Y27530200D01*
X55173881Y27530200D01*
X55173886Y27530201D01*
X55276613Y27589511D01*
X55360489Y27673387D01*
X55419799Y27776114D01*
X55450499Y27890689D01*
X55450500Y27890689D01*
X55450500Y28009311D01*
X55450499Y28009312D01*
X55419800Y28123883D01*
X55419798Y28123888D01*
X55360491Y28226610D01*
X55360490Y28226611D01*
X55360489Y28226613D01*
X55276613Y28310489D01*
X55276610Y28310491D01*
X55276609Y28310492D01*
X55173887Y28369799D01*
X55173882Y28369801D01*
X55141333Y28378522D01*
X55096400Y28413000D01*
X55089008Y28469153D01*
X55123486Y28514086D01*
X55141333Y28521478D01*
X55173882Y28530200D01*
X55173881Y28530200D01*
X55173886Y28530201D01*
X55276613Y28589511D01*
X55360489Y28673387D01*
X55419799Y28776114D01*
X55450499Y28890689D01*
X55450500Y28890689D01*
X55450500Y29009311D01*
X55450499Y29009312D01*
X55419800Y29123883D01*
X55419798Y29123888D01*
X55360491Y29226610D01*
X55360490Y29226611D01*
X55360489Y29226613D01*
X55276613Y29310489D01*
X55276610Y29310491D01*
X55276609Y29310492D01*
X55173887Y29369799D01*
X55173882Y29369801D01*
X55141333Y29378522D01*
X55096400Y29413000D01*
X55089008Y29469153D01*
X55123486Y29514086D01*
X55141333Y29521478D01*
X55173882Y29530200D01*
X55173881Y29530200D01*
X55173886Y29530201D01*
X55276613Y29589511D01*
X55360489Y29673387D01*
X55419799Y29776114D01*
X55450499Y29890689D01*
X55450500Y29890689D01*
X55450500Y30009311D01*
X55450499Y30009312D01*
X55419800Y30123883D01*
X55419798Y30123888D01*
X55360491Y30226610D01*
X55360490Y30226611D01*
X55360489Y30226613D01*
X55276613Y30310489D01*
X55276610Y30310491D01*
X55276609Y30310492D01*
X55173887Y30369799D01*
X55173882Y30369801D01*
X55059311Y30400500D01*
X55059309Y30400500D01*
X54940691Y30400500D01*
X54940689Y30400500D01*
X54826117Y30369801D01*
X54826112Y30369799D01*
X54723390Y30310492D01*
X54660072Y30247174D01*
X54607746Y30225500D01*
X54094768Y30225500D01*
X54042442Y30247174D01*
X53277779Y31011837D01*
X52491440Y31798175D01*
X52469767Y31850500D01*
X52491441Y31902826D01*
X52543767Y31924500D01*
X52555233Y31924500D01*
X52607559Y31902826D01*
X53716443Y30793942D01*
X53793942Y30716443D01*
X53895200Y30674500D01*
X54207746Y30674500D01*
X54260072Y30652826D01*
X54323387Y30589511D01*
X54323389Y30589510D01*
X54323390Y30589509D01*
X54392687Y30549500D01*
X54426114Y30530201D01*
X54426115Y30530201D01*
X54426117Y30530200D01*
X54483402Y30514851D01*
X54540688Y30499501D01*
X54540689Y30499500D01*
X54540691Y30499500D01*
X54659311Y30499500D01*
X54659311Y30499501D01*
X54773886Y30530201D01*
X54876613Y30589511D01*
X54960489Y30673387D01*
X55019799Y30776114D01*
X55050499Y30890689D01*
X55050500Y30890689D01*
X55050500Y30940358D01*
X55072174Y30992684D01*
X55105345Y31011836D01*
X55173886Y31030201D01*
X55276613Y31089511D01*
X55360489Y31173387D01*
X55419799Y31276114D01*
X55450499Y31390689D01*
X55450500Y31390689D01*
X55450500Y31509311D01*
X55450499Y31509312D01*
X55419800Y31623883D01*
X55419798Y31623888D01*
X55360491Y31726610D01*
X55360490Y31726611D01*
X55360489Y31726613D01*
X55276613Y31810489D01*
X55276610Y31810491D01*
X55276609Y31810492D01*
X55173887Y31869799D01*
X55173882Y31869801D01*
X55141333Y31878522D01*
X55096400Y31913000D01*
X55089008Y31969153D01*
X55123486Y32014086D01*
X55141333Y32021478D01*
X55173882Y32030200D01*
X55173881Y32030200D01*
X55173886Y32030201D01*
X55276613Y32089511D01*
X55360489Y32173387D01*
X55419799Y32276114D01*
X55450499Y32390689D01*
X55450500Y32390689D01*
X55450500Y32509311D01*
X55450499Y32509312D01*
X55419800Y32623883D01*
X55419798Y32623888D01*
X55360491Y32726610D01*
X55360490Y32726611D01*
X55360489Y32726613D01*
X55276613Y32810489D01*
X55276610Y32810491D01*
X55276609Y32810492D01*
X55173887Y32869799D01*
X55173882Y32869801D01*
X55141333Y32878522D01*
X55096400Y32913000D01*
X55089008Y32969153D01*
X55123486Y33014086D01*
X55141333Y33021478D01*
X55173882Y33030200D01*
X55173881Y33030200D01*
X55173886Y33030201D01*
X55276613Y33089511D01*
X55360489Y33173387D01*
X55419799Y33276114D01*
X55450499Y33390689D01*
X55450500Y33390689D01*
X55450500Y33509311D01*
X55450499Y33509312D01*
X55419800Y33623883D01*
X55419798Y33623888D01*
X55360491Y33726610D01*
X55360490Y33726611D01*
X55360489Y33726613D01*
X55276613Y33810489D01*
X55276610Y33810491D01*
X55276609Y33810492D01*
X55173887Y33869799D01*
X55173882Y33869801D01*
X55141333Y33878522D01*
X55096400Y33913000D01*
X55089008Y33969153D01*
X55123486Y34014086D01*
X55141333Y34021478D01*
X55173882Y34030200D01*
X55173881Y34030200D01*
X55173886Y34030201D01*
X55276613Y34089511D01*
X55360489Y34173387D01*
X55419799Y34276114D01*
X55450499Y34390689D01*
X55450500Y34390689D01*
X55450500Y34509311D01*
X55450499Y34509312D01*
X55419800Y34623883D01*
X55419798Y34623888D01*
X55360491Y34726610D01*
X55360490Y34726611D01*
X55360489Y34726613D01*
X55276613Y34810489D01*
X55276610Y34810491D01*
X55276609Y34810492D01*
X55173887Y34869799D01*
X55173882Y34869801D01*
X55059311Y34900500D01*
X55059309Y34900500D01*
X54969768Y34900500D01*
X54917442Y34922174D01*
X54916442Y34923174D01*
X54894768Y34975500D01*
X54916442Y35027826D01*
X54968768Y35049500D01*
X55059311Y35049500D01*
X55059311Y35049501D01*
X55173886Y35080201D01*
X55276613Y35139511D01*
X55360489Y35223387D01*
X55419799Y35326114D01*
X55450499Y35440689D01*
X55450500Y35440689D01*
X55450500Y35559311D01*
X55450499Y35559312D01*
X55419800Y35673883D01*
X55419798Y35673888D01*
X55360491Y35776610D01*
X55360490Y35776611D01*
X55360489Y35776613D01*
X55276613Y35860489D01*
X55276610Y35860491D01*
X55276609Y35860492D01*
X55173887Y35919799D01*
X55173882Y35919801D01*
X55141333Y35928522D01*
X55096400Y35963000D01*
X55089008Y36019153D01*
X55123486Y36064086D01*
X55141333Y36071478D01*
X55173882Y36080200D01*
X55173881Y36080200D01*
X55173886Y36080201D01*
X55276613Y36139511D01*
X55360489Y36223387D01*
X55419799Y36326114D01*
X55450499Y36440689D01*
X55450500Y36440689D01*
X55450500Y36559311D01*
X55450499Y36559312D01*
X55419800Y36673883D01*
X55419798Y36673888D01*
X55360491Y36776610D01*
X55360490Y36776611D01*
X55360489Y36776613D01*
X55276613Y36860489D01*
X55276610Y36860491D01*
X55276609Y36860492D01*
X55173887Y36919799D01*
X55173882Y36919801D01*
X55141333Y36928522D01*
X55096400Y36963000D01*
X55089008Y37019153D01*
X55123486Y37064086D01*
X55141333Y37071478D01*
X55173882Y37080200D01*
X55173881Y37080200D01*
X55173886Y37080201D01*
X55276613Y37139511D01*
X55360489Y37223387D01*
X55419799Y37326114D01*
X55450499Y37440689D01*
X55450500Y37440689D01*
X55450500Y37559311D01*
X55450499Y37559312D01*
X55419800Y37673883D01*
X55419798Y37673888D01*
X55360491Y37776610D01*
X55360490Y37776611D01*
X55360489Y37776613D01*
X55276613Y37860489D01*
X55276610Y37860491D01*
X55276609Y37860492D01*
X55173887Y37919799D01*
X55173882Y37919801D01*
X55141333Y37928522D01*
X55096400Y37963000D01*
X55089008Y38019153D01*
X55123486Y38064086D01*
X55141333Y38071478D01*
X55173882Y38080200D01*
X55173881Y38080200D01*
X55173886Y38080201D01*
X55276613Y38139511D01*
X55360489Y38223387D01*
X55419799Y38326114D01*
X55450499Y38440689D01*
X55450500Y38440689D01*
X55450500Y38559311D01*
X55450499Y38559312D01*
X55419800Y38673883D01*
X55419798Y38673888D01*
X55360491Y38776610D01*
X55360490Y38776611D01*
X55360489Y38776613D01*
X55276613Y38860489D01*
X55276610Y38860491D01*
X55276609Y38860492D01*
X55173887Y38919799D01*
X55173882Y38919801D01*
X55105347Y38938165D01*
X55060414Y38972644D01*
X55050500Y39009643D01*
X55050500Y39059311D01*
X55050499Y39059312D01*
X55019800Y39173883D01*
X55019798Y39173888D01*
X54960491Y39276610D01*
X54960490Y39276611D01*
X54960489Y39276613D01*
X54876613Y39360489D01*
X54876610Y39360491D01*
X54876609Y39360492D01*
X54773887Y39419799D01*
X54773882Y39419801D01*
X54659311Y39450500D01*
X54659309Y39450500D01*
X54540691Y39450500D01*
X54540689Y39450500D01*
X54426117Y39419801D01*
X54426112Y39419799D01*
X54323390Y39360492D01*
X54260072Y39297174D01*
X54207746Y39275500D01*
X54043767Y39275500D01*
X53991441Y39297174D01*
X53969767Y39349500D01*
X53991441Y39401826D01*
X54292441Y39702826D01*
X54344767Y39724500D01*
X54607746Y39724500D01*
X54660072Y39702826D01*
X54723387Y39639511D01*
X54723389Y39639510D01*
X54723390Y39639509D01*
X54756491Y39620398D01*
X54826114Y39580201D01*
X54826115Y39580201D01*
X54826117Y39580200D01*
X54856224Y39572133D01*
X54940688Y39549501D01*
X54940689Y39549500D01*
X54940691Y39549500D01*
X55059311Y39549500D01*
X55059311Y39549501D01*
X55173886Y39580201D01*
X55276613Y39639511D01*
X55360489Y39723387D01*
X55419799Y39826114D01*
X55450499Y39940689D01*
X55450500Y39940689D01*
X55450500Y40059311D01*
X55450499Y40059312D01*
X55419800Y40173883D01*
X55419798Y40173888D01*
X55360491Y40276610D01*
X55360490Y40276611D01*
X55360489Y40276613D01*
X55276613Y40360489D01*
X55276610Y40360491D01*
X55276609Y40360492D01*
X55173887Y40419799D01*
X55173882Y40419801D01*
X55141333Y40428522D01*
X55096400Y40463000D01*
X55089008Y40519153D01*
X55123486Y40564086D01*
X55141333Y40571478D01*
X55173882Y40580200D01*
X55173881Y40580200D01*
X55173886Y40580201D01*
X55276613Y40639511D01*
X55360489Y40723387D01*
X55419799Y40826114D01*
X55450499Y40940689D01*
X55450500Y40940689D01*
X55450500Y41059311D01*
X55450499Y41059312D01*
X55419800Y41173883D01*
X55419798Y41173888D01*
X55360491Y41276610D01*
X55360490Y41276611D01*
X55360489Y41276613D01*
X55276613Y41360489D01*
X55276610Y41360491D01*
X55276609Y41360492D01*
X55173887Y41419799D01*
X55173882Y41419801D01*
X55141333Y41428522D01*
X55096400Y41463000D01*
X55089008Y41519153D01*
X55123486Y41564086D01*
X55141333Y41571478D01*
X55170460Y41579283D01*
X55173886Y41580201D01*
X55276613Y41639511D01*
X55360489Y41723387D01*
X55419799Y41826114D01*
X55450499Y41940689D01*
X55450500Y41940689D01*
X55450500Y42059311D01*
X55450499Y42059312D01*
X55447638Y42069988D01*
X55428694Y42140691D01*
X55419800Y42173883D01*
X55419798Y42173888D01*
X55360491Y42276610D01*
X55360490Y42276611D01*
X55360489Y42276613D01*
X55276613Y42360489D01*
X55276610Y42360491D01*
X55276609Y42360492D01*
X55173887Y42419799D01*
X55173882Y42419801D01*
X55141333Y42428522D01*
X55096400Y42463000D01*
X55089008Y42519153D01*
X55123486Y42564086D01*
X55141333Y42571478D01*
X55173882Y42580200D01*
X55173881Y42580200D01*
X55173886Y42580201D01*
X55276613Y42639511D01*
X55360489Y42723387D01*
X55419799Y42826114D01*
X55450499Y42940689D01*
X55450500Y42940689D01*
X55450500Y43059311D01*
X55450499Y43059312D01*
X55419800Y43173883D01*
X55419798Y43173888D01*
X55360491Y43276610D01*
X55360490Y43276611D01*
X55360489Y43276613D01*
X55276613Y43360489D01*
X55276610Y43360491D01*
X55276609Y43360492D01*
X55173887Y43419799D01*
X55173882Y43419801D01*
X55105347Y43438165D01*
X55060414Y43472644D01*
X55050500Y43509643D01*
X55050500Y43559311D01*
X55050499Y43559312D01*
X55019800Y43673883D01*
X55019798Y43673888D01*
X54960491Y43776610D01*
X54960490Y43776611D01*
X54960489Y43776613D01*
X54876613Y43860489D01*
X54876610Y43860491D01*
X54876609Y43860492D01*
X54773887Y43919799D01*
X54773882Y43919801D01*
X54659311Y43950500D01*
X54659309Y43950500D01*
X54540691Y43950500D01*
X54540689Y43950500D01*
X54426117Y43919801D01*
X54426112Y43919799D01*
X54323390Y43860492D01*
X54260072Y43797174D01*
X54207746Y43775500D01*
X54195200Y43775500D01*
X54123598Y43745843D01*
X54123599Y43745842D01*
X54093942Y43733558D01*
X52216825Y41856441D01*
X52164499Y41834767D01*
X52112173Y41856441D01*
X52091168Y41907151D01*
X52090855Y41907120D01*
X52090753Y41908153D01*
X52090499Y41908767D01*
X52090499Y41910737D01*
X52078288Y41972132D01*
X52042218Y42026113D01*
X52031762Y42041762D01*
X51992863Y42067754D01*
X51961721Y42088563D01*
X51930256Y42135655D01*
X51931356Y42169244D01*
X51950499Y42240689D01*
X51950500Y42240689D01*
X51950500Y42359311D01*
X51950499Y42359312D01*
X51946593Y42373888D01*
X51923705Y42459309D01*
X51919800Y42473883D01*
X51919798Y42473888D01*
X51860491Y42576610D01*
X51860490Y42576611D01*
X51860489Y42576613D01*
X51776613Y42660489D01*
X51776610Y42660491D01*
X51776609Y42660492D01*
X51673887Y42719799D01*
X51673882Y42719801D01*
X51559311Y42750500D01*
X51559309Y42750500D01*
X51440691Y42750500D01*
X51440689Y42750500D01*
X51326117Y42719801D01*
X51326112Y42719799D01*
X51223390Y42660492D01*
X51139508Y42576610D01*
X51080201Y42473888D01*
X51080199Y42473883D01*
X51049500Y42359312D01*
X51049500Y42240689D01*
X51080792Y42123907D01*
X51073400Y42067754D01*
X51050432Y42043229D01*
X51048239Y42041764D01*
X51001713Y41972134D01*
X50989500Y41910733D01*
X50989500Y41689273D01*
X51003135Y41620717D01*
X51001527Y41620398D01*
X51001528Y41579602D01*
X51003135Y41579282D01*
X50989500Y41510733D01*
X50989500Y41289273D01*
X51003135Y41220717D01*
X51001527Y41220398D01*
X51001528Y41179602D01*
X51003135Y41179282D01*
X50989500Y41110733D01*
X50989500Y40889273D01*
X51003135Y40820717D01*
X51001527Y40820398D01*
X51001528Y40779602D01*
X51003135Y40779282D01*
X50989500Y40710733D01*
X50989500Y40489273D01*
X51003135Y40420717D01*
X51001527Y40420398D01*
X51001528Y40379602D01*
X51003135Y40379282D01*
X50989500Y40310733D01*
X50989500Y40089273D01*
X51003135Y40020717D01*
X51001527Y40020398D01*
X51001528Y39979602D01*
X51003135Y39979282D01*
X50989500Y39910733D01*
X50989500Y39689273D01*
X51003135Y39620717D01*
X51001527Y39620398D01*
X51001528Y39579602D01*
X51003135Y39579282D01*
X50989500Y39510733D01*
X50989500Y39289273D01*
X51003135Y39220717D01*
X51001527Y39220398D01*
X51001528Y39179602D01*
X51003135Y39179282D01*
X50989500Y39110733D01*
X50989500Y38889273D01*
X51003135Y38820717D01*
X51001527Y38820398D01*
X51001528Y38779602D01*
X51003135Y38779282D01*
X50989500Y38710733D01*
X50989500Y38489273D01*
X51003135Y38420717D01*
X51001527Y38420398D01*
X51001528Y38379602D01*
X51003135Y38379282D01*
X50989500Y38310733D01*
X50989500Y38089273D01*
X51003135Y38020717D01*
X51001527Y38020398D01*
X51001528Y37979602D01*
X51003135Y37979282D01*
X50989500Y37910733D01*
X50989500Y37689273D01*
X51003135Y37620717D01*
X51001527Y37620398D01*
X51001528Y37579602D01*
X51003135Y37579282D01*
X50989500Y37510733D01*
X50989500Y37289273D01*
X51003135Y37220717D01*
X51001527Y37220398D01*
X51001528Y37179602D01*
X51003135Y37179282D01*
X50989500Y37110733D01*
X50989500Y36889273D01*
X51003135Y36820717D01*
X51001527Y36820398D01*
X51001528Y36779602D01*
X51003135Y36779282D01*
X50989500Y36710733D01*
X50989500Y36489273D01*
X51003135Y36420717D01*
X51001527Y36420398D01*
X51001528Y36379602D01*
X51003135Y36379282D01*
X50989500Y36310733D01*
X50989500Y36089273D01*
X51003135Y36020717D01*
X51001527Y36020398D01*
X51001528Y35979602D01*
X51003135Y35979282D01*
X50989500Y35910733D01*
X50989500Y35689273D01*
X51003135Y35620717D01*
X51001527Y35620398D01*
X51001528Y35579602D01*
X51003135Y35579282D01*
X50989500Y35510733D01*
X50989500Y35289273D01*
X51003135Y35220717D01*
X51001527Y35220398D01*
X51001528Y35179602D01*
X51003135Y35179282D01*
X50989500Y35110733D01*
X50989500Y34889273D01*
X51003135Y34820717D01*
X51001527Y34820398D01*
X51001528Y34779602D01*
X51003135Y34779282D01*
X50989500Y34710733D01*
X50989500Y34489273D01*
X51003135Y34420717D01*
X51001527Y34420398D01*
X51001528Y34379602D01*
X51003135Y34379282D01*
X50989500Y34310733D01*
X50989500Y34089273D01*
X51003135Y34020717D01*
X51001527Y34020398D01*
X51001528Y33979602D01*
X51003135Y33979282D01*
X50989500Y33910733D01*
X50989500Y33689273D01*
X51003135Y33620717D01*
X51001527Y33620398D01*
X51001528Y33579602D01*
X51003135Y33579282D01*
X50989500Y33510733D01*
X50989500Y33289273D01*
X51003135Y33220717D01*
X51001527Y33220398D01*
X51001528Y33179602D01*
X51003135Y33179282D01*
X50989500Y33110733D01*
X50989500Y32889273D01*
X51003135Y32820717D01*
X51001527Y32820398D01*
X51001528Y32779602D01*
X51003135Y32779282D01*
X50989500Y32710733D01*
X50989500Y32489273D01*
X51003135Y32420717D01*
X51001527Y32420398D01*
X51001528Y32379602D01*
X51003135Y32379282D01*
X50989500Y32310733D01*
X50989500Y32089273D01*
X51003135Y32020717D01*
X51001527Y32020398D01*
X51001528Y31979602D01*
X51003135Y31979282D01*
X50989500Y31910733D01*
X50989500Y31689273D01*
X51003135Y31620717D01*
X51001527Y31620398D01*
X51001528Y31579602D01*
X51003135Y31579282D01*
X50989500Y31510733D01*
X50989500Y31289273D01*
X51003135Y31220717D01*
X51001527Y31220398D01*
X51001528Y31179602D01*
X51003135Y31179282D01*
X50989500Y31110733D01*
X50989500Y30889273D01*
X51003135Y30820717D01*
X51001527Y30820398D01*
X51001528Y30779602D01*
X51003135Y30779282D01*
X50989500Y30710733D01*
X50989500Y30489273D01*
X51003135Y30420717D01*
X51001527Y30420398D01*
X51001528Y30379602D01*
X51003135Y30379282D01*
X50989500Y30310733D01*
X50989500Y30089273D01*
X51003135Y30020717D01*
X51001527Y30020398D01*
X51001528Y29979602D01*
X51003135Y29979282D01*
X50989500Y29910733D01*
X50989500Y29689273D01*
X51003135Y29620717D01*
X51001527Y29620398D01*
X51001528Y29579602D01*
X51003135Y29579282D01*
X50989500Y29510733D01*
X50989500Y29289273D01*
X51003135Y29220717D01*
X51001527Y29220398D01*
X51001528Y29179602D01*
X51003135Y29179282D01*
X50989500Y29110733D01*
X50989500Y28889273D01*
X51003135Y28820717D01*
X51001527Y28820398D01*
X51001528Y28779602D01*
X51003135Y28779282D01*
X50989500Y28710733D01*
X50989500Y28548558D01*
X50967826Y28496232D01*
X50939821Y28468228D01*
X50893007Y28362207D01*
X50890000Y28336283D01*
X49005417Y28336283D01*
X48998287Y28372133D01*
X48996681Y28374536D01*
X48994582Y28384042D01*
X48998474Y28406011D01*
X48998474Y28420398D01*
X48996865Y28420718D01*
X48998417Y28428522D01*
X49010500Y28489267D01*
X49010499Y28710732D01*
X48998287Y28772133D01*
X48998286Y28772134D01*
X48996865Y28779283D01*
X48998474Y28779603D01*
X48998474Y28820398D01*
X48996865Y28820718D01*
X48998287Y28827867D01*
X49010500Y28889267D01*
X49010499Y29110732D01*
X48998287Y29172133D01*
X48998286Y29172134D01*
X48996865Y29179283D01*
X48998474Y29179603D01*
X48998474Y29220398D01*
X48996865Y29220718D01*
X48998287Y29227867D01*
X49010500Y29289267D01*
X49010499Y29510732D01*
X48998287Y29572133D01*
X48998286Y29572134D01*
X48996865Y29579283D01*
X48998474Y29579603D01*
X48998474Y29620398D01*
X48996865Y29620718D01*
X48998287Y29627867D01*
X49010500Y29689267D01*
X49010499Y29910732D01*
X48998287Y29972133D01*
X48998286Y29972134D01*
X48996865Y29979283D01*
X48998474Y29979603D01*
X48998474Y30020398D01*
X48996865Y30020718D01*
X48998287Y30027867D01*
X49010500Y30089267D01*
X49010499Y30310732D01*
X48998287Y30372133D01*
X48998286Y30372134D01*
X48996865Y30379283D01*
X48998474Y30379603D01*
X48998474Y30420398D01*
X48996865Y30420718D01*
X48998287Y30427867D01*
X49010500Y30489267D01*
X49010499Y30710732D01*
X48998287Y30772133D01*
X48998286Y30772134D01*
X48996865Y30779283D01*
X48998474Y30779603D01*
X48998474Y30820398D01*
X48996865Y30820718D01*
X48998287Y30827867D01*
X49010500Y30889267D01*
X49010499Y31110732D01*
X48998287Y31172133D01*
X48998286Y31172134D01*
X48996865Y31179283D01*
X48998474Y31179603D01*
X48998474Y31220398D01*
X48996865Y31220718D01*
X48998287Y31227867D01*
X49010500Y31289267D01*
X49010499Y31510732D01*
X48998287Y31572133D01*
X48998286Y31572134D01*
X48996865Y31579283D01*
X48998474Y31579603D01*
X48998474Y31620398D01*
X48996865Y31620718D01*
X48998287Y31627867D01*
X49010500Y31689267D01*
X49010499Y31910732D01*
X48998287Y31972133D01*
X48998286Y31972134D01*
X48996865Y31979283D01*
X48998474Y31979603D01*
X48998474Y32020398D01*
X48996865Y32020718D01*
X49000103Y32036999D01*
X49010500Y32089267D01*
X49010499Y32310732D01*
X48998287Y32372133D01*
X48998286Y32372134D01*
X48996865Y32379283D01*
X48998474Y32379603D01*
X48998474Y32420398D01*
X48996865Y32420718D01*
X49000837Y32440689D01*
X49010500Y32489267D01*
X49010499Y32710732D01*
X48998287Y32772133D01*
X48998286Y32772134D01*
X48996865Y32779283D01*
X48998474Y32779603D01*
X48998474Y32820398D01*
X48996865Y32820718D01*
X48998287Y32827867D01*
X49010500Y32889267D01*
X49010499Y33110732D01*
X48998287Y33172133D01*
X48998286Y33172134D01*
X48996865Y33179283D01*
X48998474Y33179603D01*
X48998474Y33220398D01*
X48996865Y33220718D01*
X48998287Y33227867D01*
X49010500Y33289267D01*
X49010499Y33510732D01*
X48998287Y33572133D01*
X48998286Y33572134D01*
X48996865Y33579283D01*
X48998474Y33579603D01*
X48998474Y33620398D01*
X48996865Y33620718D01*
X48998287Y33627867D01*
X49010500Y33689267D01*
X49010499Y33910732D01*
X48998287Y33972133D01*
X48998286Y33972134D01*
X48996865Y33979283D01*
X48998474Y33979603D01*
X48998474Y34020398D01*
X48996865Y34020718D01*
X49000103Y34036999D01*
X49010500Y34089267D01*
X49010499Y34310732D01*
X48998287Y34372133D01*
X48998286Y34372134D01*
X48996865Y34379283D01*
X48998474Y34379603D01*
X48998474Y34420398D01*
X48996865Y34420718D01*
X49000837Y34440689D01*
X49010500Y34489267D01*
X49010499Y34710732D01*
X48998287Y34772133D01*
X48998286Y34772134D01*
X48996865Y34779283D01*
X48998474Y34779603D01*
X48998474Y34820398D01*
X48996865Y34820718D01*
X49001511Y34844077D01*
X49010500Y34889267D01*
X49010499Y35110732D01*
X48998287Y35172133D01*
X48998286Y35172134D01*
X48996865Y35179283D01*
X48998474Y35179603D01*
X48998474Y35220398D01*
X48996865Y35220718D01*
X48998287Y35227867D01*
X49010500Y35289267D01*
X49010499Y35510732D01*
X48998287Y35572133D01*
X48998286Y35572134D01*
X48996865Y35579283D01*
X48998474Y35579603D01*
X48998474Y35620398D01*
X48996865Y35620718D01*
X48998287Y35627867D01*
X49010500Y35689267D01*
X49010499Y35910732D01*
X48998287Y35972133D01*
X48998286Y35972134D01*
X48996865Y35979283D01*
X48998474Y35979603D01*
X48998474Y36020398D01*
X48996865Y36020718D01*
X49000103Y36036999D01*
X49010500Y36089267D01*
X49010499Y36310732D01*
X48998287Y36372133D01*
X48998286Y36372134D01*
X48996865Y36379283D01*
X48998474Y36379603D01*
X48998474Y36420398D01*
X48996865Y36420718D01*
X49000837Y36440689D01*
X49010500Y36489267D01*
X49010499Y36710732D01*
X48998287Y36772133D01*
X48998286Y36772134D01*
X48996865Y36779283D01*
X48998474Y36779603D01*
X48998474Y36820398D01*
X48996865Y36820718D01*
X48998287Y36827867D01*
X49010500Y36889267D01*
X49010499Y37110732D01*
X48998287Y37172133D01*
X48998286Y37172134D01*
X48996865Y37179283D01*
X48998474Y37179603D01*
X48998474Y37220398D01*
X48996865Y37220718D01*
X48998287Y37227867D01*
X49010500Y37289267D01*
X49010499Y37510732D01*
X48998287Y37572133D01*
X48998286Y37572134D01*
X48996865Y37579283D01*
X48998474Y37579603D01*
X48998474Y37620398D01*
X48996865Y37620718D01*
X48998287Y37627867D01*
X49010500Y37689267D01*
X49010499Y37910732D01*
X48998287Y37972133D01*
X48998286Y37972134D01*
X48996865Y37979283D01*
X48998474Y37979603D01*
X48998474Y38020398D01*
X48996865Y38020718D01*
X49000103Y38036999D01*
X49010500Y38089267D01*
X49010499Y38310732D01*
X48998287Y38372133D01*
X48998286Y38372134D01*
X48996865Y38379283D01*
X48998474Y38379603D01*
X48998474Y38420398D01*
X48996865Y38420718D01*
X49000837Y38440689D01*
X49010500Y38489267D01*
X49010499Y38710732D01*
X48998287Y38772133D01*
X48998286Y38772134D01*
X48996865Y38779283D01*
X48998474Y38779603D01*
X48998474Y38820398D01*
X48996865Y38820718D01*
X48998287Y38827867D01*
X49010500Y38889267D01*
X49010499Y39110732D01*
X48998287Y39172133D01*
X48998286Y39172134D01*
X48996865Y39179283D01*
X48998474Y39179603D01*
X48998474Y39220398D01*
X48996865Y39220718D01*
X48998287Y39227867D01*
X49010500Y39289267D01*
X49010499Y39510732D01*
X48998287Y39572133D01*
X48998286Y39572134D01*
X48996865Y39579283D01*
X48998474Y39579603D01*
X48998474Y39620398D01*
X48996865Y39620718D01*
X48998287Y39627867D01*
X49010500Y39689267D01*
X49010499Y39910732D01*
X48998287Y39972133D01*
X48998286Y39972134D01*
X48996865Y39979283D01*
X48998474Y39979603D01*
X48998474Y40020398D01*
X48996865Y40020718D01*
X48998287Y40027867D01*
X49010500Y40089267D01*
X49010499Y40310732D01*
X48998287Y40372133D01*
X48998286Y40372134D01*
X48996865Y40379283D01*
X48998474Y40379603D01*
X48998474Y40420398D01*
X48996865Y40420718D01*
X48998417Y40428522D01*
X49010500Y40489267D01*
X49010499Y40710732D01*
X48998287Y40772133D01*
X48998286Y40772134D01*
X48996865Y40779283D01*
X48998474Y40779603D01*
X48998474Y40820398D01*
X48996865Y40820718D01*
X48998287Y40827867D01*
X49010500Y40889267D01*
X49010499Y41110732D01*
X48998287Y41172133D01*
X48998286Y41172134D01*
X48996865Y41179283D01*
X48998474Y41179603D01*
X48998474Y41220398D01*
X48996865Y41220718D01*
X48998287Y41227867D01*
X49010500Y41289267D01*
X49010499Y41510732D01*
X48998287Y41572133D01*
X48998286Y41572134D01*
X48996865Y41579283D01*
X48998474Y41579603D01*
X48998474Y41620398D01*
X48996865Y41620718D01*
X48998287Y41627867D01*
X49010500Y41689267D01*
X49010499Y41910732D01*
X48998287Y41972133D01*
X48951762Y42041762D01*
X48909517Y42069990D01*
X48878052Y42117081D01*
X48886544Y42168517D01*
X48919799Y42226114D01*
X48950499Y42340689D01*
X48950500Y42340689D01*
X48950500Y42459311D01*
X48950499Y42459312D01*
X48946593Y42473888D01*
X48924723Y42555509D01*
X48919800Y42573883D01*
X48919798Y42573888D01*
X48860491Y42676610D01*
X48860490Y42676611D01*
X48860489Y42676613D01*
X48776613Y42760489D01*
X48776610Y42760491D01*
X48776609Y42760492D01*
X48673887Y42819799D01*
X48673882Y42819801D01*
X48559311Y42850500D01*
X48559309Y42850500D01*
X48440691Y42850500D01*
X48440689Y42850500D01*
X48326117Y42819801D01*
X48326112Y42819799D01*
X48223390Y42760492D01*
X48139508Y42676610D01*
X48085229Y42582595D01*
X48040295Y42548116D01*
X47984143Y42555509D01*
X47977181Y42560162D01*
X47873887Y42619799D01*
X47873882Y42619801D01*
X47759311Y42650500D01*
X47759309Y42650500D01*
X47640691Y42650500D01*
X47640689Y42650500D01*
X47526117Y42619801D01*
X47526112Y42619799D01*
X47423390Y42560492D01*
X47339508Y42476610D01*
X47280201Y42373888D01*
X47280199Y42373883D01*
X47249500Y42259312D01*
X47249500Y42140689D01*
X47280199Y42026118D01*
X47280201Y42026113D01*
X47321817Y41954033D01*
X47329210Y41897880D01*
X47294731Y41852947D01*
X47238578Y41845554D01*
X47205405Y41864707D01*
X46504170Y42565942D01*
X46482496Y42618268D01*
X46482496Y42761796D01*
X46445753Y42850500D01*
X46445752Y42850503D01*
X46440553Y42863055D01*
X45872174Y43431434D01*
X45850500Y43483760D01*
X45850500Y43559311D01*
X45850499Y43559312D01*
X45819800Y43673883D01*
X45819798Y43673888D01*
X45760491Y43776610D01*
X45760490Y43776611D01*
X45760489Y43776613D01*
X45676613Y43860489D01*
X45676610Y43860491D01*
X45676609Y43860492D01*
X45573887Y43919799D01*
X45573882Y43919801D01*
X45459311Y43950500D01*
X45459309Y43950500D01*
X45340691Y43950500D01*
X45340689Y43950500D01*
X45226117Y43919801D01*
X45226112Y43919799D01*
X45123390Y43860492D01*
X45039508Y43776610D01*
X44980201Y43673888D01*
X44980199Y43673883D01*
X44949500Y43559312D01*
X44949500Y43509643D01*
X44927826Y43457317D01*
X44894653Y43438165D01*
X44826117Y43419801D01*
X44826112Y43419799D01*
X44723390Y43360492D01*
X44639508Y43276610D01*
X44580201Y43173888D01*
X44580199Y43173883D01*
X44549500Y43059312D01*
X500500Y43059312D01*
X500500Y55125129D01*
X11719500Y55125129D01*
X11719500Y55004872D01*
X11742959Y54886931D01*
X11742961Y54886924D01*
X11788981Y54775821D01*
X11788982Y54775820D01*
X11855794Y54675829D01*
X11940829Y54590794D01*
X12040820Y54523982D01*
X12151924Y54477961D01*
X12269871Y54454500D01*
X12269872Y54454500D01*
X12390128Y54454500D01*
X12390129Y54454500D01*
X12508076Y54477961D01*
X12619180Y54523982D01*
X12719171Y54590794D01*
X12804206Y54675829D01*
X12871018Y54775820D01*
X12917039Y54886924D01*
X12940500Y55004871D01*
X12940500Y55125129D01*
X81719500Y55125129D01*
X81719500Y55004872D01*
X81742959Y54886931D01*
X81742961Y54886924D01*
X81788981Y54775821D01*
X81788982Y54775820D01*
X81855794Y54675829D01*
X81940829Y54590794D01*
X82040820Y54523982D01*
X82151924Y54477961D01*
X82269871Y54454500D01*
X82269872Y54454500D01*
X82390128Y54454500D01*
X82390129Y54454500D01*
X82508076Y54477961D01*
X82619180Y54523982D01*
X82719171Y54590794D01*
X82804206Y54675829D01*
X82871018Y54775820D01*
X82917039Y54886924D01*
X82940500Y55004871D01*
X82940500Y55125129D01*
X82917039Y55243076D01*
X82871018Y55354180D01*
X82804206Y55454171D01*
X82719171Y55539206D01*
X82619180Y55606018D01*
X82619181Y55606018D01*
X82619179Y55606019D01*
X82508076Y55652039D01*
X82508069Y55652041D01*
X82419215Y55669715D01*
X82390129Y55675500D01*
X82269871Y55675500D01*
X82246538Y55670859D01*
X82151930Y55652041D01*
X82151923Y55652039D01*
X82040820Y55606019D01*
X81940832Y55539209D01*
X81855791Y55454168D01*
X81788981Y55354180D01*
X81742961Y55243077D01*
X81742959Y55243070D01*
X81719500Y55125129D01*
X12940500Y55125129D01*
X12917039Y55243076D01*
X12871018Y55354180D01*
X12804206Y55454171D01*
X12719171Y55539206D01*
X12619180Y55606018D01*
X12619181Y55606018D01*
X12619179Y55606019D01*
X12508076Y55652039D01*
X12508069Y55652041D01*
X12419215Y55669715D01*
X12390129Y55675500D01*
X12269871Y55675500D01*
X12246538Y55670859D01*
X12151930Y55652041D01*
X12151923Y55652039D01*
X12040820Y55606019D01*
X11940832Y55539209D01*
X11855791Y55454168D01*
X11788981Y55354180D01*
X11742961Y55243077D01*
X11742959Y55243070D01*
X11719500Y55125129D01*
X500500Y55125129D01*
X500500Y56997764D01*
X500635Y57002232D01*
X510902Y57171969D01*
X518454Y57296824D01*
X519528Y57305672D01*
X572328Y57593789D01*
X574458Y57602432D01*
X661597Y57882069D01*
X664754Y57890396D01*
X784971Y58157507D01*
X789115Y58165401D01*
X940636Y58416048D01*
X945712Y58423401D01*
X1126343Y58653961D01*
X1132254Y58660633D01*
X1339367Y58867746D01*
X1346039Y58873657D01*
X1576599Y59054289D01*
X1583953Y59059364D01*
X1630926Y59087760D01*
X1834599Y59210885D01*
X1842493Y59215029D01*
X2109604Y59335246D01*
X2117931Y59338403D01*
X2397568Y59425542D01*
X2406211Y59427672D01*
X2694328Y59480472D01*
X2703176Y59481546D01*
X2997768Y59499366D01*
X3002236Y59499500D01*
X3065892Y59499500D01*
X96934108Y59499500D01*
X96997764Y59499500D01*
X97002231Y59499366D01*
G37*
%TD.AperFunction*%
%TD*%
M02*
