%TF.GenerationSoftware,KiCad,Pcbnew,9.0.3*%
%TF.CreationDate,2026-03-16T13:33:50-04:00*%
%TF.ProjectId,ephys-test-module-64,65706879-732d-4746-9573-742d6d6f6475,F*%
%TF.SameCoordinates,Original*%
%TF.FileFunction,Copper,L1,Top*%
%TF.FilePolarity,Positive*%
%FSLAX46Y46*%
G04 Gerber Fmt 4.6, Leading zero omitted, Abs format (unit mm)*
G04 Created by KiCad (PCBNEW 9.0.3) date 2026-03-16 13:33:50*
%MOMM*%
%LPD*%
G01*
G04 APERTURE LIST*
G04 Aperture macros list*
%AMRoundRect*
0 Rectangle with rounded corners*
0 $1 Rounding radius*
0 $2 $3 $4 $5 $6 $7 $8 $9 X,Y pos of 4 corners*
0 Add a 4 corners polygon primitive as box body*
4,1,4,$2,$3,$4,$5,$6,$7,$8,$9,$2,$3,0*
0 Add four circle primitives for the rounded corners*
1,1,$1+$1,$2,$3*
1,1,$1+$1,$4,$5*
1,1,$1+$1,$6,$7*
1,1,$1+$1,$8,$9*
0 Add four rect primitives between the rounded corners*
20,1,$1+$1,$2,$3,$4,$5,0*
20,1,$1+$1,$4,$5,$6,$7,0*
20,1,$1+$1,$6,$7,$8,$9,0*
20,1,$1+$1,$8,$9,$2,$3,0*%
G04 Aperture macros list end*
%TA.AperFunction,ComponentPad*%
%ADD10C,3.000000*%
%TD*%
%TA.AperFunction,SMDPad,CuDef*%
%ADD11R,3.150000X1.000000*%
%TD*%
%TA.AperFunction,SMDPad,CuDef*%
%ADD12RoundRect,0.135000X-0.135000X-0.185000X0.135000X-0.185000X0.135000X0.185000X-0.135000X0.185000X0*%
%TD*%
%TA.AperFunction,ComponentPad*%
%ADD13RoundRect,0.200000X-0.282843X0.000000X0.000000X-0.282843X0.282843X0.000000X0.000000X0.282843X0*%
%TD*%
%TA.AperFunction,ComponentPad*%
%ADD14C,0.800000*%
%TD*%
%TA.AperFunction,SMDPad,CuDef*%
%ADD15RoundRect,0.010000X0.340000X-0.090000X0.340000X0.090000X-0.340000X0.090000X-0.340000X-0.090000X0*%
%TD*%
%TA.AperFunction,SMDPad,CuDef*%
%ADD16RoundRect,0.150000X0.150000X-0.825000X0.150000X0.825000X-0.150000X0.825000X-0.150000X-0.825000X0*%
%TD*%
%TA.AperFunction,ComponentPad*%
%ADD17RoundRect,0.275000X-0.388909X0.000000X0.000000X-0.388909X0.388909X0.000000X0.000000X0.388909X0*%
%TD*%
%TA.AperFunction,ComponentPad*%
%ADD18C,1.100000*%
%TD*%
%TA.AperFunction,SMDPad,CuDef*%
%ADD19RoundRect,0.140000X-0.170000X0.140000X-0.170000X-0.140000X0.170000X-0.140000X0.170000X0.140000X0*%
%TD*%
%TA.AperFunction,ViaPad*%
%ADD20C,0.500000*%
%TD*%
%TA.AperFunction,Conductor*%
%ADD21C,0.400000*%
%TD*%
%TA.AperFunction,Conductor*%
%ADD22C,0.150000*%
%TD*%
%TA.AperFunction,Conductor*%
%ADD23C,0.200000*%
%TD*%
G04 APERTURE END LIST*
D10*
%TO.P,TP1,1,1*%
%TO.N,/Headstage Interface/E_{stim}*%
X188000000Y-135000000D03*
%TD*%
%TO.P,TP2,1,1*%
%TO.N,GND*%
X198000000Y-135000000D03*
%TD*%
D11*
%TO.P,J4,1,Pin_1*%
%TO.N,/Headstage Interface/REF*%
X190475000Y-109185421D03*
%TO.P,J4,2,Pin_2*%
%TO.N,GND*%
X195525000Y-109185421D03*
%TO.P,J4,3,Pin_3*%
X190475000Y-111725421D03*
%TO.P,J4,4,Pin_4*%
X195525000Y-111725421D03*
%TO.P,J4,5,Pin_5*%
%TO.N,/Headstage Interface/K_{0}*%
X190475000Y-114265421D03*
%TO.P,J4,6,Pin_6*%
%TO.N,GND*%
X195525000Y-114265421D03*
%TO.P,J4,7,Pin_7*%
%TO.N,/Headstage Interface/K_{1}*%
X190475000Y-116805421D03*
%TO.P,J4,8,Pin_8*%
%TO.N,GND*%
X195525000Y-116805421D03*
%TO.P,J4,9,Pin_9*%
%TO.N,/Headstage Interface/A*%
X190475000Y-119345421D03*
%TO.P,J4,10,Pin_10*%
%TO.N,GND*%
X195525000Y-119345421D03*
%TD*%
D12*
%TO.P,R3,1*%
%TO.N,VCC*%
X122690000Y-120000000D03*
%TO.P,R3,2*%
%TO.N,/Test Signal Interface/SCL*%
X123710000Y-120000000D03*
%TD*%
D13*
%TO.P,LD1,1,A*%
%TO.N,/Headstage Interface/A*%
X188000000Y-125200000D03*
D14*
%TO.P,LD1,2,NC*%
%TO.N,unconnected-(LD1-NC-Pad2)*%
X187300000Y-125900000D03*
%TO.P,LD1,3,C*%
%TO.N,/Headstage Interface/K_{0}*%
X188000000Y-126600000D03*
%TD*%
D15*
%TO.P,J1,1,Pin_1*%
%TO.N,/Headstage Interface/E_{stim}*%
X156460000Y-108800000D03*
%TO.P,J1,2,Pin_2*%
%TO.N,GND*%
X159540000Y-108800000D03*
%TO.P,J1,3,Pin_3*%
%TO.N,/Headstage Interface/E0*%
X156460000Y-108400000D03*
%TO.P,J1,4,Pin_4*%
%TO.N,/Headstage Interface/REF*%
X159540000Y-108400000D03*
%TO.P,J1,5,Pin_5*%
%TO.N,/Headstage Interface/E2*%
X156460000Y-108000000D03*
%TO.P,J1,6,Pin_6*%
%TO.N,/Headstage Interface/E1*%
X159540000Y-108000000D03*
%TO.P,J1,7,Pin_7*%
%TO.N,/Headstage Interface/E4*%
X156460000Y-107600000D03*
%TO.P,J1,8,Pin_8*%
%TO.N,/Headstage Interface/E3*%
X159540000Y-107600000D03*
%TO.P,J1,9,Pin_9*%
%TO.N,/Headstage Interface/E6*%
X156460000Y-107200000D03*
%TO.P,J1,10,Pin_10*%
%TO.N,/Headstage Interface/E5*%
X159540000Y-107200000D03*
%TO.P,J1,11,Pin_11*%
%TO.N,/Headstage Interface/E8*%
X156460000Y-106800000D03*
%TO.P,J1,12,Pin_12*%
%TO.N,/Headstage Interface/E7*%
X159540000Y-106800000D03*
%TO.P,J1,13,Pin_13*%
%TO.N,/Headstage Interface/E10*%
X156460000Y-106400000D03*
%TO.P,J1,14,Pin_14*%
%TO.N,/Headstage Interface/E9*%
X159540000Y-106400000D03*
%TO.P,J1,15,Pin_15*%
%TO.N,/Headstage Interface/E12*%
X156460000Y-106000000D03*
%TO.P,J1,16,Pin_16*%
%TO.N,/Headstage Interface/E11*%
X159540000Y-106000000D03*
%TO.P,J1,17,Pin_17*%
%TO.N,/Headstage Interface/E14*%
X156460000Y-105600000D03*
%TO.P,J1,18,Pin_18*%
%TO.N,/Headstage Interface/E13*%
X159540000Y-105600000D03*
%TO.P,J1,19,Pin_19*%
%TO.N,/Headstage Interface/E16*%
X156460000Y-105200000D03*
%TO.P,J1,20,Pin_20*%
%TO.N,/Headstage Interface/E15*%
X159540000Y-105200000D03*
%TO.P,J1,21,Pin_21*%
%TO.N,/Headstage Interface/E18*%
X156460000Y-104800000D03*
%TO.P,J1,22,Pin_22*%
%TO.N,/Headstage Interface/E17*%
X159540000Y-104800000D03*
%TO.P,J1,23,Pin_23*%
%TO.N,/Headstage Interface/E20*%
X156460000Y-104400000D03*
%TO.P,J1,24,Pin_24*%
%TO.N,/Headstage Interface/E19*%
X159540000Y-104400000D03*
%TO.P,J1,25,Pin_25*%
%TO.N,/Headstage Interface/E22*%
X156460000Y-104000000D03*
%TO.P,J1,26,Pin_26*%
%TO.N,/Headstage Interface/E21*%
X159540000Y-104000000D03*
%TO.P,J1,27,Pin_27*%
%TO.N,/Headstage Interface/E24*%
X156460000Y-103600000D03*
%TO.P,J1,28,Pin_28*%
%TO.N,/Headstage Interface/E23*%
X159540000Y-103600000D03*
%TO.P,J1,29,Pin_29*%
%TO.N,/Headstage Interface/E26*%
X156460000Y-103200000D03*
%TO.P,J1,30,Pin_30*%
%TO.N,/Headstage Interface/E25*%
X159540000Y-103200000D03*
%TO.P,J1,31,Pin_31*%
%TO.N,/Headstage Interface/E28*%
X156460000Y-102800000D03*
%TO.P,J1,32,Pin_32*%
%TO.N,/Headstage Interface/E27*%
X159540000Y-102800000D03*
%TO.P,J1,33,Pin_33*%
%TO.N,/Headstage Interface/E30*%
X156460000Y-102400000D03*
%TO.P,J1,34,Pin_34*%
%TO.N,/Headstage Interface/E29*%
X159540000Y-102400000D03*
%TO.P,J1,35,Pin_35*%
%TO.N,/Headstage Interface/E32*%
X156460000Y-102000000D03*
%TO.P,J1,36,Pin_36*%
%TO.N,/Headstage Interface/E31*%
X159540000Y-102000000D03*
%TO.P,J1,37,Pin_37*%
%TO.N,/Headstage Interface/E34*%
X156460000Y-101600000D03*
%TO.P,J1,38,Pin_38*%
%TO.N,/Headstage Interface/E33*%
X159540000Y-101600000D03*
%TO.P,J1,39,Pin_39*%
%TO.N,/Headstage Interface/E36*%
X156460000Y-101200000D03*
%TO.P,J1,40,Pin_40*%
%TO.N,/Headstage Interface/E35*%
X159540000Y-101200000D03*
%TO.P,J1,41,Pin_41*%
%TO.N,/Headstage Interface/E38*%
X156460000Y-100800000D03*
%TO.P,J1,42,Pin_42*%
%TO.N,/Headstage Interface/E37*%
X159540000Y-100800000D03*
%TO.P,J1,43,Pin_43*%
%TO.N,/Headstage Interface/E40*%
X156460000Y-100400000D03*
%TO.P,J1,44,Pin_44*%
%TO.N,/Headstage Interface/E39*%
X159540000Y-100400000D03*
%TO.P,J1,45,Pin_45*%
%TO.N,/Headstage Interface/E42*%
X156460000Y-100000000D03*
%TO.P,J1,46,Pin_46*%
%TO.N,/Headstage Interface/E41*%
X159540000Y-100000000D03*
%TO.P,J1,47,Pin_47*%
%TO.N,/Headstage Interface/E44*%
X156460000Y-99600000D03*
%TO.P,J1,48,Pin_48*%
%TO.N,/Headstage Interface/E43*%
X159540000Y-99600000D03*
%TO.P,J1,49,Pin_49*%
%TO.N,/Headstage Interface/E46*%
X156460000Y-99200000D03*
%TO.P,J1,50,Pin_50*%
%TO.N,/Headstage Interface/E45*%
X159540000Y-99200000D03*
%TO.P,J1,51,Pin_51*%
%TO.N,/Headstage Interface/E48*%
X156460000Y-98800000D03*
%TO.P,J1,52,Pin_52*%
%TO.N,/Headstage Interface/E47*%
X159540000Y-98800000D03*
%TO.P,J1,53,Pin_53*%
%TO.N,/Headstage Interface/E50*%
X156460000Y-98400000D03*
%TO.P,J1,54,Pin_54*%
%TO.N,/Headstage Interface/E49*%
X159540000Y-98400000D03*
%TO.P,J1,55,Pin_55*%
%TO.N,/Headstage Interface/E52*%
X156460000Y-98000000D03*
%TO.P,J1,56,Pin_56*%
%TO.N,/Headstage Interface/E51*%
X159540000Y-98000000D03*
%TO.P,J1,57,Pin_57*%
%TO.N,/Headstage Interface/E54*%
X156460000Y-97600000D03*
%TO.P,J1,58,Pin_58*%
%TO.N,/Headstage Interface/E53*%
X159540000Y-97600000D03*
%TO.P,J1,59,Pin_59*%
%TO.N,/Headstage Interface/E56*%
X156460000Y-97200000D03*
%TO.P,J1,60,Pin_60*%
%TO.N,/Headstage Interface/E55*%
X159540000Y-97200000D03*
%TO.P,J1,61,Pin_61*%
%TO.N,/Headstage Interface/E58*%
X156460000Y-96800000D03*
%TO.P,J1,62,Pin_62*%
%TO.N,/Headstage Interface/E57*%
X159540000Y-96800000D03*
%TO.P,J1,63,Pin_63*%
%TO.N,/Headstage Interface/E60*%
X156460000Y-96400000D03*
%TO.P,J1,64,Pin_64*%
%TO.N,/Headstage Interface/E59*%
X159540000Y-96400000D03*
%TO.P,J1,65,Pin_65*%
%TO.N,/Headstage Interface/E62*%
X156460000Y-96000000D03*
%TO.P,J1,66,Pin_66*%
%TO.N,/Headstage Interface/E61*%
X159540000Y-96000000D03*
%TO.P,J1,67,Pin_67*%
%TO.N,/Headstage Interface/K_{0}*%
X156460000Y-95600000D03*
%TO.P,J1,68,Pin_68*%
%TO.N,/Headstage Interface/E63*%
X159540000Y-95600000D03*
%TO.P,J1,69,Pin_69*%
%TO.N,/Headstage Interface/K_{1}*%
X156460000Y-95200000D03*
%TO.P,J1,70,Pin_70*%
%TO.N,/Headstage Interface/A*%
X159540000Y-95200000D03*
%TD*%
D12*
%TO.P,R1,1*%
%TO.N,VCC*%
X121390000Y-121100000D03*
%TO.P,R1,2*%
%TO.N,/Test Signal Interface/WP*%
X122410000Y-121100000D03*
%TD*%
D16*
%TO.P,U1,1,A0*%
%TO.N,GND*%
X121295000Y-128175000D03*
%TO.P,U1,2,A1*%
X122565000Y-128175000D03*
%TO.P,U1,3,A2*%
X123835000Y-128175000D03*
%TO.P,U1,4,GND*%
X125105000Y-128175000D03*
%TO.P,U1,5,SDA*%
%TO.N,/Test Signal Interface/SDA*%
X125105000Y-123225000D03*
%TO.P,U1,6,SCL*%
%TO.N,/Test Signal Interface/SCL*%
X123835000Y-123225000D03*
%TO.P,U1,7,WP*%
%TO.N,/Test Signal Interface/WP*%
X122565000Y-123225000D03*
%TO.P,U1,8,VCC*%
%TO.N,VCC*%
X121295000Y-123225000D03*
%TD*%
D12*
%TO.P,R2,1*%
%TO.N,VCC*%
X124090000Y-118800000D03*
%TO.P,R2,2*%
%TO.N,/Test Signal Interface/SDA*%
X125110000Y-118800000D03*
%TD*%
D17*
%TO.P,LD2,1,A*%
%TO.N,/Headstage Interface/A*%
X198000000Y-124900000D03*
D18*
%TO.P,LD2,2,NC*%
%TO.N,unconnected-(LD2-NC-Pad2)*%
X197000000Y-125900000D03*
%TO.P,LD2,3,C*%
%TO.N,/Headstage Interface/K_{1}*%
X198000000Y-126900000D03*
%TD*%
D19*
%TO.P,C1,1*%
%TO.N,VCC*%
X119700000Y-125220000D03*
%TO.P,C1,2*%
%TO.N,GND*%
X119700000Y-126180000D03*
%TD*%
D20*
%TO.N,GND*%
X198880000Y-121115421D03*
X174000000Y-135000000D03*
X184700000Y-119100000D03*
%TO.N,/Headstage Interface/K_{1}*%
X197400000Y-123000000D03*
%TO.N,/Headstage Interface/K_{0}*%
X192700000Y-128100000D03*
%TO.N,/Headstage Interface/A*%
X190500000Y-122000000D03*
%TO.N,/Headstage Interface/K_{1}*%
X188200000Y-120800000D03*
%TO.N,/Headstage Interface/K_{0}*%
X192700000Y-121600000D03*
%TO.N,GND*%
X158000000Y-95700000D03*
X169600000Y-114550000D03*
X194700000Y-127000000D03*
X206600000Y-123300000D03*
X145300000Y-96675000D03*
X172600000Y-96800000D03*
X113500000Y-81700000D03*
X175981000Y-114462000D03*
X128900000Y-99600000D03*
X151650000Y-111800000D03*
X143250000Y-114125000D03*
X183700000Y-132300000D03*
X113269807Y-112500000D03*
X153400000Y-91900000D03*
X133600000Y-117000000D03*
X147500000Y-89025000D03*
X156400000Y-84100000D03*
X187500000Y-92500000D03*
X135000000Y-80800000D03*
X164500000Y-111700000D03*
X154800000Y-114900000D03*
X173525000Y-84750000D03*
X181725000Y-99675000D03*
X190700000Y-125800000D03*
X148400000Y-81100000D03*
X113800000Y-133900000D03*
X183200000Y-124900000D03*
X172997000Y-124013000D03*
X138700000Y-106800000D03*
X187200000Y-99600000D03*
X159400000Y-109500000D03*
X207048965Y-102177183D03*
X176800000Y-92450000D03*
X159100000Y-133900000D03*
X167100000Y-119400000D03*
X201700000Y-105700000D03*
X138400000Y-92400000D03*
X186725000Y-84675000D03*
X149375000Y-122707000D03*
X175300000Y-106800000D03*
X187500000Y-106800000D03*
X162100000Y-115100000D03*
X136150000Y-99625000D03*
X202300000Y-118200000D03*
X128900000Y-133600000D03*
X140700000Y-101750000D03*
X113100000Y-94400000D03*
X185000000Y-77900000D03*
X177975000Y-101725000D03*
X158000000Y-106300000D03*
X201400000Y-82700000D03*
X165000000Y-128200000D03*
X158400000Y-111800000D03*
X206200000Y-79500000D03*
X165800000Y-80500000D03*
X159177000Y-121916000D03*
X153800000Y-111350000D03*
X155000000Y-94600000D03*
X167975000Y-89075000D03*
X129125000Y-85075000D03*
X194700000Y-130600000D03*
X137800000Y-124800000D03*
X148100000Y-112900000D03*
X186400000Y-114300000D03*
X138850000Y-84475000D03*
X178300000Y-117700000D03*
X201500000Y-94800000D03*
X129000000Y-107000000D03*
X129400000Y-114750000D03*
X129000000Y-92400000D03*
X194400000Y-122600000D03*
X155500000Y-110100000D03*
X198600000Y-84800000D03*
X180200000Y-81800000D03*
X206500000Y-134700000D03*
X161900000Y-92500000D03*
X141900000Y-133000000D03*
X162100000Y-78300000D03*
X194252340Y-81951989D03*
X158000000Y-89400000D03*
%TO.N,VCC*%
X120800000Y-121000000D03*
X123450000Y-118350000D03*
X119700000Y-124200000D03*
X119700000Y-123700000D03*
X122200000Y-119600000D03*
%TO.N,/Headstage Interface/K_{0}*%
X155700000Y-94800000D03*
%TO.N,/Headstage Interface/E_{stim}*%
X156500000Y-110900000D03*
X156500000Y-109300000D03*
%TO.N,/Headstage Interface/K_{1}*%
X156500000Y-94600000D03*
%TO.N,/Headstage Interface/REF*%
X181900000Y-114100000D03*
X160200000Y-109500000D03*
%TO.N,/Headstage Interface/A*%
X159500000Y-94700000D03*
%TO.N,/Test Signal Interface/SDA*%
X125863500Y-116536500D03*
X125100000Y-120900000D03*
X125100000Y-119500000D03*
%TO.N,/Test Signal Interface/SCL*%
X127700000Y-115400000D03*
%TO.N,/Test Signal Interface/WP*%
X118100000Y-116100000D03*
%TO.N,/Headstage Interface/E0*%
X153400000Y-110500000D03*
%TO.N,/Headstage Interface/E8*%
X153400000Y-108500000D03*
%TO.N,/Headstage Interface/E12*%
X153400000Y-107500000D03*
%TO.N,/Headstage Interface/E4*%
X153400000Y-109500000D03*
%TO.N,/Headstage Interface/E14*%
X153000000Y-107000000D03*
%TO.N,/Headstage Interface/E6*%
X153000000Y-109000000D03*
%TO.N,/Headstage Interface/E2*%
X153000000Y-110000000D03*
%TO.N,/Headstage Interface/E10*%
X153000000Y-108000000D03*
%TO.N,/Headstage Interface/E46*%
X153400000Y-98000000D03*
%TO.N,/Headstage Interface/E42*%
X153400000Y-99000000D03*
%TO.N,/Headstage Interface/E36*%
X153000000Y-100500000D03*
%TO.N,/Headstage Interface/E48*%
X153000000Y-97000000D03*
%TO.N,/Headstage Interface/E52*%
X153000000Y-96000000D03*
%TO.N,/Headstage Interface/E58*%
X153400000Y-94500000D03*
%TO.N,/Headstage Interface/E26*%
X153000000Y-103500000D03*
%TO.N,/Headstage Interface/E56*%
X153000000Y-95000000D03*
%TO.N,/Headstage Interface/E50*%
X153400000Y-96500000D03*
%TO.N,/Headstage Interface/E20*%
X153400000Y-105000000D03*
%TO.N,/Headstage Interface/E32*%
X153000000Y-101500000D03*
%TO.N,/Headstage Interface/E16*%
X153400000Y-106000000D03*
%TO.N,/Headstage Interface/E30*%
X153000000Y-102500000D03*
%TO.N,/Headstage Interface/E44*%
X153000000Y-98500000D03*
%TO.N,/Headstage Interface/E54*%
X153400000Y-95500000D03*
%TO.N,/Headstage Interface/E62*%
X153400000Y-93500000D03*
%TO.N,/Headstage Interface/E18*%
X153000000Y-105500000D03*
%TO.N,/Headstage Interface/E28*%
X153400000Y-103000000D03*
%TO.N,/Headstage Interface/E34*%
X153400000Y-101000000D03*
%TO.N,/Headstage Interface/E22*%
X153000000Y-104500000D03*
%TO.N,/Headstage Interface/E38*%
X153400000Y-100000000D03*
%TO.N,/Headstage Interface/E40*%
X153000000Y-99500000D03*
%TO.N,/Headstage Interface/E60*%
X153000000Y-94000000D03*
%TO.N,/Headstage Interface/E24*%
X153400000Y-104000000D03*
%TO.N,/Headstage Interface/E19*%
X163000000Y-105550000D03*
%TO.N,/Headstage Interface/E25*%
X162600000Y-104050000D03*
%TO.N,/Headstage Interface/E5*%
X162600000Y-109550000D03*
%TO.N,/Headstage Interface/E45*%
X163000000Y-98500000D03*
%TO.N,/Headstage Interface/E29*%
X162600000Y-103050000D03*
%TO.N,/Headstage Interface/E41*%
X163000000Y-99500000D03*
%TO.N,/Headstage Interface/E9*%
X162600000Y-108550000D03*
%TO.N,/Headstage Interface/E57*%
X163000000Y-95000000D03*
%TO.N,/Headstage Interface/E59*%
X162600000Y-94500000D03*
%TO.N,/Headstage Interface/E39*%
X162600000Y-100000000D03*
%TO.N,/Headstage Interface/E55*%
X162600000Y-95500000D03*
%TO.N,/Headstage Interface/E21*%
X162600000Y-105050000D03*
%TO.N,/Headstage Interface/E15*%
X163000000Y-107050000D03*
%TO.N,/Headstage Interface/E47*%
X162600000Y-98000000D03*
%TO.N,/Headstage Interface/E7*%
X163000000Y-109050000D03*
%TO.N,/Headstage Interface/E35*%
X162600000Y-101000000D03*
%TO.N,/Headstage Interface/E49*%
X163000000Y-97000000D03*
%TO.N,/Headstage Interface/E11*%
X163000000Y-108050000D03*
%TO.N,/Headstage Interface/E17*%
X162600000Y-106050000D03*
%TO.N,/Headstage Interface/E3*%
X163000000Y-110050000D03*
%TO.N,/Headstage Interface/E33*%
X163000000Y-101500000D03*
%TO.N,/Headstage Interface/E61*%
X163000000Y-94000000D03*
%TO.N,/Headstage Interface/E37*%
X163000000Y-100500000D03*
%TO.N,/Headstage Interface/E31*%
X163000000Y-102550000D03*
%TO.N,/Headstage Interface/E27*%
X163000000Y-103550000D03*
%TO.N,/Headstage Interface/E43*%
X162600000Y-99000000D03*
%TO.N,/Headstage Interface/E23*%
X163000000Y-104550000D03*
%TO.N,/Headstage Interface/E63*%
X162600000Y-93500000D03*
%TO.N,/Headstage Interface/E53*%
X163000000Y-96000000D03*
%TO.N,/Headstage Interface/E51*%
X162600000Y-96500000D03*
%TO.N,/Headstage Interface/E1*%
X162600000Y-110550000D03*
%TO.N,/Headstage Interface/E13*%
X162600000Y-107550000D03*
%TD*%
D21*
%TO.N,/Headstage Interface/A*%
X190500000Y-119399421D02*
X190446000Y-119345421D01*
X190500000Y-122000000D02*
X190500000Y-119399421D01*
%TO.N,/Headstage Interface/K_{0}*%
X191265421Y-114265421D02*
X190446000Y-114265421D01*
X192700000Y-121600000D02*
X192700000Y-115700000D01*
X192700000Y-115700000D02*
X191265421Y-114265421D01*
%TO.N,/Headstage Interface/K_{1}*%
X189494579Y-116805421D02*
X190446000Y-116805421D01*
X188200000Y-118100000D02*
X189494579Y-116805421D01*
X188200000Y-120800000D02*
X188200000Y-118100000D01*
%TO.N,VCC*%
X119700000Y-125220000D02*
X119700000Y-123700000D01*
D22*
X122600000Y-120000000D02*
X122200000Y-119600000D01*
X120900000Y-121100000D02*
X120800000Y-121000000D01*
X121390000Y-121100000D02*
X120900000Y-121100000D01*
D21*
X119700000Y-123700000D02*
X119700000Y-124400000D01*
X119700000Y-124400000D02*
X119700000Y-124200000D01*
D22*
X123900000Y-118800000D02*
X123450000Y-118350000D01*
D21*
X120175000Y-123225000D02*
X119700000Y-123700000D01*
X121295000Y-123225000D02*
X120175000Y-123225000D01*
D23*
%TO.N,/Headstage Interface/K_{0}*%
X155700000Y-94800000D02*
X155700000Y-95400000D01*
X155900000Y-95600000D02*
X156460000Y-95600000D01*
X155700000Y-95400000D02*
X155900000Y-95600000D01*
D22*
%TO.N,/Headstage Interface/E_{stim}*%
X156500000Y-108840000D02*
X156460000Y-108800000D01*
D23*
X156460000Y-108800000D02*
X156460000Y-109260000D01*
X156460000Y-109260000D02*
X156500000Y-109300000D01*
%TO.N,/Headstage Interface/K_{1}*%
X156460000Y-95200000D02*
X156460000Y-94640000D01*
X156460000Y-94640000D02*
X156500000Y-94600000D01*
D21*
%TO.N,/Headstage Interface/REF*%
X181900000Y-114100000D02*
X186814579Y-109185421D01*
X186814579Y-109185421D02*
X190446000Y-109185421D01*
D22*
X159540000Y-108400000D02*
X159900000Y-108400000D01*
X160000000Y-108500000D02*
X159900000Y-108400000D01*
X160200000Y-108700000D02*
X160200000Y-109500000D01*
X160000000Y-108500000D02*
X160200000Y-108700000D01*
D23*
%TO.N,/Headstage Interface/A*%
X159540000Y-94740000D02*
X159500000Y-94700000D01*
X159540000Y-95200000D02*
X159540000Y-94740000D01*
D22*
%TO.N,/Test Signal Interface/SDA*%
X125863500Y-116536500D02*
X125863500Y-118436500D01*
X125863500Y-118436500D02*
X125500000Y-118800000D01*
X125100000Y-119500000D02*
X125100000Y-119400000D01*
X125100000Y-119400000D02*
X125110000Y-119390000D01*
X125105000Y-123225000D02*
X125105000Y-120905000D01*
X125500000Y-118800000D02*
X125110000Y-118800000D01*
X125110000Y-119390000D02*
X125110000Y-118800000D01*
X125105000Y-120905000D02*
X125100000Y-120900000D01*
%TO.N,/Test Signal Interface/SCL*%
X123910000Y-120200000D02*
X123710000Y-120000000D01*
X123835000Y-123225000D02*
X123835000Y-120125000D01*
X127700000Y-115400000D02*
X127700000Y-118200000D01*
X125700000Y-120200000D02*
X123910000Y-120200000D01*
X127700000Y-118200000D02*
X125700000Y-120200000D01*
%TO.N,/Test Signal Interface/WP*%
X121510000Y-120200000D02*
X122410000Y-121100000D01*
X118100000Y-118000000D02*
X120300000Y-120200000D01*
X118100000Y-116100000D02*
X118100000Y-118000000D01*
X122565000Y-123225000D02*
X122565000Y-121255000D01*
X120300000Y-120200000D02*
X121510000Y-120200000D01*
%TO.N,/Headstage Interface/E0*%
X154038394Y-110500000D02*
X153400000Y-110500000D01*
X156138394Y-108400000D02*
X154038394Y-110500000D01*
X156460000Y-108400000D02*
X156138394Y-108400000D01*
%TO.N,/Headstage Interface/E8*%
X154283252Y-108500000D02*
X155983252Y-106800000D01*
X155983252Y-106800000D02*
X156460000Y-106800000D01*
X153400000Y-108500000D02*
X154283252Y-108500000D01*
%TO.N,/Headstage Interface/E12*%
X154400000Y-107500000D02*
X155900000Y-106000000D01*
X155900000Y-106000000D02*
X156460000Y-106000000D01*
X153400000Y-107500000D02*
X154400000Y-107500000D01*
%TO.N,/Headstage Interface/E4*%
X153400000Y-109500000D02*
X154238394Y-109500000D01*
X154238394Y-109500000D02*
X156138394Y-107600000D01*
X156138394Y-107600000D02*
X156460000Y-107600000D01*
%TO.N,/Headstage Interface/E14*%
X154400000Y-107000000D02*
X155800000Y-105600000D01*
X155800000Y-105600000D02*
X156460000Y-105600000D01*
X153000000Y-107000000D02*
X154400000Y-107000000D01*
%TO.N,/Headstage Interface/E6*%
X156000000Y-107200000D02*
X156460000Y-107200000D01*
X154200000Y-109000000D02*
X156000000Y-107200000D01*
X153000000Y-109000000D02*
X154200000Y-109000000D01*
%TO.N,/Headstage Interface/E2*%
X153000000Y-110000000D02*
X154138394Y-110000000D01*
X154138394Y-110000000D02*
X156138394Y-108000000D01*
X156138394Y-108000000D02*
X156460000Y-108000000D01*
%TO.N,/Headstage Interface/E10*%
X156000000Y-106400000D02*
X156460000Y-106400000D01*
X153000000Y-108000000D02*
X154400000Y-108000000D01*
X154400000Y-108000000D02*
X156000000Y-106400000D01*
%TO.N,/Headstage Interface/E46*%
X155300000Y-99200000D02*
X154100000Y-98000000D01*
X156460000Y-99200000D02*
X155300000Y-99200000D01*
X154100000Y-98000000D02*
X153400000Y-98000000D01*
%TO.N,/Headstage Interface/E42*%
X153400000Y-99000000D02*
X154000000Y-99000000D01*
X155000000Y-100000000D02*
X156460000Y-100000000D01*
X154000000Y-99000000D02*
X155000000Y-100000000D01*
%TO.N,/Headstage Interface/E36*%
X154916748Y-101200000D02*
X156460000Y-101200000D01*
X154216748Y-100500000D02*
X154916748Y-101200000D01*
X153000000Y-100500000D02*
X154216748Y-100500000D01*
%TO.N,/Headstage Interface/E48*%
X153000000Y-97000000D02*
X153700000Y-97000000D01*
X153700000Y-97000000D02*
X155500000Y-98800000D01*
X155500000Y-98800000D02*
X156460000Y-98800000D01*
%TO.N,/Headstage Interface/E52*%
X153000000Y-96000000D02*
X153700000Y-96000000D01*
X155700000Y-98000000D02*
X156460000Y-98000000D01*
X153700000Y-96000000D02*
X155700000Y-98000000D01*
%TO.N,/Headstage Interface/E58*%
X153400000Y-94500000D02*
X153413992Y-94500000D01*
X153413992Y-94500000D02*
X155713992Y-96800000D01*
X155713992Y-96800000D02*
X156460000Y-96800000D01*
%TO.N,/Headstage Interface/E26*%
X154700000Y-103200000D02*
X156460000Y-103200000D01*
X154400000Y-103500000D02*
X154700000Y-103200000D01*
X153000000Y-103500000D02*
X154400000Y-103500000D01*
%TO.N,/Headstage Interface/E56*%
X153000000Y-95000000D02*
X153530740Y-95000000D01*
X155730740Y-97200000D02*
X156460000Y-97200000D01*
X153530740Y-95000000D02*
X155730740Y-97200000D01*
%TO.N,/Headstage Interface/E50*%
X155600000Y-98400000D02*
X156460000Y-98400000D01*
X153700000Y-96500000D02*
X155600000Y-98400000D01*
X153400000Y-96500000D02*
X153700000Y-96500000D01*
%TO.N,/Headstage Interface/E20*%
X154700000Y-105000000D02*
X153400000Y-105000000D01*
X155300000Y-104400000D02*
X154700000Y-105000000D01*
X156460000Y-104400000D02*
X155300000Y-104400000D01*
%TO.N,/Headstage Interface/E32*%
X153000000Y-101500000D02*
X154200000Y-101500000D01*
X154200000Y-101500000D02*
X154700000Y-102000000D01*
X154700000Y-102000000D02*
X156460000Y-102000000D01*
%TO.N,/Headstage Interface/E16*%
X154800000Y-106000000D02*
X155600000Y-105200000D01*
X153400000Y-106000000D02*
X154800000Y-106000000D01*
X155600000Y-105200000D02*
X156460000Y-105200000D01*
%TO.N,/Headstage Interface/E30*%
X153000000Y-102500000D02*
X154400000Y-102500000D01*
X154500000Y-102400000D02*
X156460000Y-102400000D01*
X154400000Y-102500000D02*
X154500000Y-102400000D01*
%TO.N,/Headstage Interface/E44*%
X155200000Y-99600000D02*
X156460000Y-99600000D01*
X153000000Y-98500000D02*
X154100000Y-98500000D01*
X154100000Y-98500000D02*
X155200000Y-99600000D01*
%TO.N,/Headstage Interface/E54*%
X153600000Y-95500000D02*
X153400000Y-95500000D01*
X155700000Y-97600000D02*
X153600000Y-95500000D01*
X156460000Y-97600000D02*
X155700000Y-97600000D01*
%TO.N,/Headstage Interface/E62*%
X153400000Y-93500000D02*
X153629000Y-93729000D01*
X154206996Y-94526500D02*
X155680496Y-96000000D01*
X153629000Y-93729000D02*
X153642992Y-93729000D01*
X155680496Y-96000000D02*
X156460000Y-96000000D01*
X153642992Y-93729000D02*
X154206996Y-94293004D01*
X154206996Y-94293004D02*
X154206996Y-94526500D01*
%TO.N,/Headstage Interface/E18*%
X155500000Y-104800000D02*
X156460000Y-104800000D01*
X153000000Y-105500000D02*
X154800000Y-105500000D01*
X154800000Y-105500000D02*
X155500000Y-104800000D01*
%TO.N,/Headstage Interface/E28*%
X153400000Y-103000000D02*
X154400000Y-103000000D01*
X154600000Y-102800000D02*
X156460000Y-102800000D01*
X154400000Y-103000000D02*
X154600000Y-102800000D01*
%TO.N,/Headstage Interface/E34*%
X154900000Y-101600000D02*
X156460000Y-101600000D01*
X154300000Y-101000000D02*
X154900000Y-101600000D01*
X153400000Y-101000000D02*
X154300000Y-101000000D01*
%TO.N,/Headstage Interface/E22*%
X153000000Y-104500000D02*
X154600000Y-104500000D01*
X155100000Y-104000000D02*
X156460000Y-104000000D01*
X154600000Y-104500000D02*
X155100000Y-104000000D01*
%TO.N,/Headstage Interface/E38*%
X153400000Y-100000000D02*
X154100000Y-100000000D01*
X154900000Y-100800000D02*
X156460000Y-100800000D01*
X154100000Y-100000000D02*
X154900000Y-100800000D01*
%TO.N,/Headstage Interface/E40*%
X154116748Y-99500000D02*
X155016748Y-100400000D01*
X155016748Y-100400000D02*
X156460000Y-100400000D01*
X153000000Y-99500000D02*
X154116748Y-99500000D01*
%TO.N,/Headstage Interface/E60*%
X153865370Y-94568126D02*
X155697244Y-96400000D01*
X153530740Y-94000000D02*
X153865370Y-94334630D01*
X153000000Y-94000000D02*
X153530740Y-94000000D01*
X155697244Y-96400000D02*
X156460000Y-96400000D01*
X153865370Y-94334630D02*
X153865370Y-94568126D01*
%TO.N,/Headstage Interface/E24*%
X154900000Y-103600000D02*
X156460000Y-103600000D01*
X153400000Y-104000000D02*
X154500000Y-104000000D01*
X154500000Y-104000000D02*
X154900000Y-103600000D01*
%TO.N,/Headstage Interface/E19*%
X160900000Y-104400000D02*
X162050000Y-105550000D01*
X162050000Y-105550000D02*
X163000000Y-105550000D01*
X159540000Y-104400000D02*
X160900000Y-104400000D01*
%TO.N,/Headstage Interface/E25*%
X159540000Y-103200000D02*
X161400000Y-103200000D01*
X162250000Y-104050000D02*
X162600000Y-104050000D01*
X161400000Y-103200000D02*
X162250000Y-104050000D01*
%TO.N,/Headstage Interface/E5*%
X159900000Y-107200000D02*
X162250000Y-109550000D01*
X162250000Y-109550000D02*
X162600000Y-109550000D01*
X159540000Y-107200000D02*
X159900000Y-107200000D01*
%TO.N,/Headstage Interface/E45*%
X161050000Y-99200000D02*
X161750000Y-98500000D01*
X161750000Y-98500000D02*
X163000000Y-98500000D01*
X159540000Y-99200000D02*
X161050000Y-99200000D01*
%TO.N,/Headstage Interface/E29*%
X162600000Y-103050000D02*
X161950000Y-102400000D01*
X161950000Y-102400000D02*
X159540000Y-102400000D01*
%TO.N,/Headstage Interface/E41*%
X161200000Y-100000000D02*
X159540000Y-100000000D01*
X163000000Y-99500000D02*
X161700000Y-99500000D01*
X161700000Y-99500000D02*
X161200000Y-100000000D01*
%TO.N,/Headstage Interface/E9*%
X159540000Y-106400000D02*
X160000000Y-106400000D01*
X160000000Y-106400000D02*
X162150000Y-108550000D01*
X162150000Y-108550000D02*
X162600000Y-108550000D01*
%TO.N,/Headstage Interface/E57*%
X160450000Y-96800000D02*
X162250000Y-95000000D01*
X162250000Y-95000000D02*
X163000000Y-95000000D01*
X159540000Y-96800000D02*
X160450000Y-96800000D01*
%TO.N,/Headstage Interface/E59*%
X160350000Y-96400000D02*
X162250000Y-94500000D01*
X159540000Y-96400000D02*
X160350000Y-96400000D01*
X162250000Y-94500000D02*
X162600000Y-94500000D01*
%TO.N,/Headstage Interface/E39*%
X161300000Y-100400000D02*
X161700000Y-100000000D01*
X159540000Y-100400000D02*
X161300000Y-100400000D01*
X161700000Y-100000000D02*
X162600000Y-100000000D01*
%TO.N,/Headstage Interface/E55*%
X162200000Y-95500000D02*
X162600000Y-95500000D01*
X160500000Y-97200000D02*
X162200000Y-95500000D01*
X159540000Y-97200000D02*
X160500000Y-97200000D01*
%TO.N,/Headstage Interface/E21*%
X159540000Y-104000000D02*
X161000000Y-104000000D01*
X162050000Y-105050000D02*
X162600000Y-105050000D01*
X161000000Y-104000000D02*
X162050000Y-105050000D01*
%TO.N,/Headstage Interface/E15*%
X160100000Y-105200000D02*
X161950000Y-107050000D01*
X159540000Y-105200000D02*
X160100000Y-105200000D01*
X161950000Y-107050000D02*
X163000000Y-107050000D01*
%TO.N,/Headstage Interface/E47*%
X159540000Y-98800000D02*
X160950000Y-98800000D01*
X161750000Y-98000000D02*
X162600000Y-98000000D01*
X160950000Y-98800000D02*
X161750000Y-98000000D01*
%TO.N,/Headstage Interface/E7*%
X159540000Y-106800000D02*
X160000000Y-106800000D01*
X160000000Y-106800000D02*
X162250000Y-109050000D01*
X162250000Y-109050000D02*
X163000000Y-109050000D01*
%TO.N,/Headstage Interface/E35*%
X159540000Y-101200000D02*
X161500000Y-101200000D01*
X161700000Y-101000000D02*
X161500000Y-101200000D01*
X162600000Y-101000000D02*
X161700000Y-101000000D01*
%TO.N,/Headstage Interface/E49*%
X160800000Y-98400000D02*
X162200000Y-97000000D01*
X162200000Y-97000000D02*
X163000000Y-97000000D01*
X159540000Y-98400000D02*
X160800000Y-98400000D01*
%TO.N,/Headstage Interface/E11*%
X160000000Y-106000000D02*
X162050000Y-108050000D01*
X162050000Y-108050000D02*
X163000000Y-108050000D01*
X159540000Y-106000000D02*
X160000000Y-106000000D01*
%TO.N,/Headstage Interface/E17*%
X159540000Y-104800000D02*
X160700000Y-104800000D01*
X160700000Y-104800000D02*
X161950000Y-106050000D01*
X161950000Y-106050000D02*
X162600000Y-106050000D01*
%TO.N,/Headstage Interface/E3*%
X159900000Y-107600000D02*
X162350000Y-110050000D01*
X162350000Y-110050000D02*
X163000000Y-110050000D01*
X159540000Y-107600000D02*
X159900000Y-107600000D01*
%TO.N,/Headstage Interface/E33*%
X163000000Y-101500000D02*
X161700000Y-101500000D01*
X161700000Y-101500000D02*
X161600000Y-101600000D01*
X159540000Y-101600000D02*
X161600000Y-101600000D01*
%TO.N,/Headstage Interface/E61*%
X159540000Y-96000000D02*
X160250000Y-96000000D01*
X162250000Y-94000000D02*
X163000000Y-94000000D01*
X160250000Y-96000000D02*
X162250000Y-94000000D01*
%TO.N,/Headstage Interface/E37*%
X161700000Y-100500000D02*
X161400000Y-100800000D01*
X163000000Y-100500000D02*
X161700000Y-100500000D01*
X161400000Y-100800000D02*
X159540000Y-100800000D01*
%TO.N,/Headstage Interface/E31*%
X162450000Y-102000000D02*
X163000000Y-102550000D01*
X159540000Y-102000000D02*
X162450000Y-102000000D01*
%TO.N,/Headstage Interface/E27*%
X162450000Y-103550000D02*
X161700000Y-102800000D01*
X159540000Y-102800000D02*
X161700000Y-102800000D01*
X163000000Y-103550000D02*
X162450000Y-103550000D01*
%TO.N,/Headstage Interface/E43*%
X159540000Y-99600000D02*
X161150000Y-99600000D01*
X161750000Y-99000000D02*
X162600000Y-99000000D01*
X161150000Y-99600000D02*
X161750000Y-99000000D01*
%TO.N,/Headstage Interface/E23*%
X162250000Y-104550000D02*
X163000000Y-104550000D01*
X159540000Y-103600000D02*
X161300000Y-103600000D01*
X161300000Y-103600000D02*
X162250000Y-104550000D01*
%TO.N,/Headstage Interface/E63*%
X162600000Y-93500000D02*
X162250000Y-93500000D01*
X162250000Y-93500000D02*
X160150000Y-95600000D01*
X160150000Y-95600000D02*
X159540000Y-95600000D01*
%TO.N,/Headstage Interface/E53*%
X162200000Y-96000000D02*
X163000000Y-96000000D01*
X160600000Y-97600000D02*
X162200000Y-96000000D01*
X159540000Y-97600000D02*
X160600000Y-97600000D01*
%TO.N,/Headstage Interface/E51*%
X160650000Y-98000000D02*
X162150000Y-96500000D01*
X159540000Y-98000000D02*
X160650000Y-98000000D01*
X162150000Y-96500000D02*
X162600000Y-96500000D01*
%TO.N,/Headstage Interface/E1*%
X162466748Y-110550000D02*
X162600000Y-110550000D01*
X159916748Y-108000000D02*
X162466748Y-110550000D01*
X159540000Y-108000000D02*
X159916748Y-108000000D01*
%TO.N,/Headstage Interface/E13*%
X159540000Y-105600000D02*
X160100000Y-105600000D01*
X160100000Y-105600000D02*
X162050000Y-107550000D01*
X162050000Y-107550000D02*
X162600000Y-107550000D01*
%TD*%
%TA.AperFunction,Conductor*%
%TO.N,GND*%
G36*
X205002231Y-77500634D02*
G01*
X205296821Y-77518454D01*
X205305673Y-77519528D01*
X205593784Y-77572327D01*
X205602435Y-77574460D01*
X205882062Y-77661595D01*
X205890401Y-77664757D01*
X206157497Y-77784967D01*
X206165409Y-77789120D01*
X206416046Y-77940636D01*
X206423400Y-77945712D01*
X206653951Y-78126336D01*
X206660640Y-78132262D01*
X206867737Y-78339359D01*
X206873663Y-78346048D01*
X207054287Y-78576599D01*
X207059363Y-78583953D01*
X207210879Y-78834590D01*
X207215032Y-78842502D01*
X207335239Y-79109590D01*
X207338407Y-79117946D01*
X207425536Y-79397552D01*
X207427675Y-79406228D01*
X207480469Y-79694317D01*
X207481546Y-79703188D01*
X207499365Y-79997768D01*
X207499500Y-80002236D01*
X207499500Y-133997763D01*
X207499365Y-134002231D01*
X207481546Y-134296811D01*
X207480469Y-134305682D01*
X207427675Y-134593771D01*
X207425536Y-134602447D01*
X207338407Y-134882053D01*
X207335239Y-134890409D01*
X207215032Y-135157497D01*
X207210879Y-135165409D01*
X207059363Y-135416046D01*
X207054287Y-135423400D01*
X206873663Y-135653951D01*
X206867737Y-135660640D01*
X206660640Y-135867737D01*
X206653951Y-135873663D01*
X206423400Y-136054287D01*
X206416046Y-136059363D01*
X206165409Y-136210879D01*
X206157497Y-136215032D01*
X205890409Y-136335239D01*
X205882053Y-136338407D01*
X205602447Y-136425536D01*
X205593771Y-136427675D01*
X205305682Y-136480469D01*
X205296811Y-136481546D01*
X205002232Y-136499365D01*
X204997764Y-136499500D01*
X199220633Y-136499500D01*
X199168307Y-136477826D01*
X199146633Y-136425500D01*
X199168307Y-136373174D01*
X199175586Y-136366791D01*
X199189367Y-136356216D01*
X199202080Y-136343502D01*
X198636184Y-135777605D01*
X198637463Y-135776751D01*
X198776751Y-135637463D01*
X198777605Y-135636183D01*
X199343502Y-136202080D01*
X199356217Y-136189366D01*
X199356218Y-136189364D01*
X199499854Y-136002174D01*
X199499858Y-136002168D01*
X199617835Y-135797827D01*
X199617838Y-135797819D01*
X199708129Y-135579835D01*
X199708133Y-135579824D01*
X199769202Y-135351909D01*
X199800000Y-135117976D01*
X199800000Y-134882023D01*
X199769202Y-134648090D01*
X199708133Y-134420175D01*
X199708129Y-134420164D01*
X199617838Y-134202180D01*
X199617835Y-134202172D01*
X199499858Y-133997831D01*
X199499854Y-133997825D01*
X199356214Y-133810630D01*
X199343502Y-133797918D01*
X198777604Y-134363815D01*
X198776751Y-134362537D01*
X198637463Y-134223249D01*
X198636183Y-134222394D01*
X199202081Y-133656497D01*
X199189369Y-133643785D01*
X199002174Y-133500145D01*
X199002168Y-133500141D01*
X198797827Y-133382164D01*
X198797819Y-133382161D01*
X198579835Y-133291870D01*
X198579824Y-133291866D01*
X198351908Y-133230797D01*
X198351909Y-133230797D01*
X198117976Y-133200000D01*
X197882024Y-133200000D01*
X197648090Y-133230797D01*
X197420175Y-133291866D01*
X197420164Y-133291870D01*
X197202180Y-133382161D01*
X197202172Y-133382164D01*
X196997831Y-133500141D01*
X196997825Y-133500145D01*
X196810641Y-133643776D01*
X196810635Y-133643781D01*
X196797918Y-133656497D01*
X197363815Y-134222394D01*
X197362537Y-134223249D01*
X197223249Y-134362537D01*
X197222394Y-134363815D01*
X196656497Y-133797918D01*
X196643781Y-133810635D01*
X196643776Y-133810641D01*
X196500145Y-133997825D01*
X196500141Y-133997831D01*
X196382164Y-134202172D01*
X196382161Y-134202180D01*
X196291870Y-134420164D01*
X196291866Y-134420175D01*
X196230797Y-134648090D01*
X196200000Y-134882023D01*
X196200000Y-135117976D01*
X196230797Y-135351909D01*
X196291866Y-135579824D01*
X196291870Y-135579835D01*
X196382161Y-135797819D01*
X196382164Y-135797827D01*
X196500141Y-136002168D01*
X196500145Y-136002174D01*
X196643785Y-136189369D01*
X196656497Y-136202081D01*
X197222394Y-135636183D01*
X197223249Y-135637463D01*
X197362537Y-135776751D01*
X197363815Y-135777605D01*
X196797918Y-136343502D01*
X196810631Y-136356215D01*
X196824416Y-136366793D01*
X196852734Y-136415842D01*
X196838074Y-136470549D01*
X196789025Y-136498867D01*
X196779367Y-136499500D01*
X189057188Y-136499500D01*
X189004862Y-136477826D01*
X188983188Y-136425500D01*
X189004862Y-136373174D01*
X189012140Y-136366792D01*
X189123618Y-136281252D01*
X189123619Y-136281250D01*
X189123624Y-136281247D01*
X189281247Y-136123624D01*
X189416948Y-135946774D01*
X189528405Y-135753726D01*
X189613710Y-135547781D01*
X189671404Y-135332463D01*
X189700500Y-135111457D01*
X189700500Y-134888543D01*
X189671404Y-134667537D01*
X189613710Y-134452219D01*
X189528405Y-134246274D01*
X189416948Y-134053226D01*
X189405594Y-134038429D01*
X189281252Y-133876381D01*
X189123618Y-133718747D01*
X188946776Y-133583053D01*
X188946770Y-133583049D01*
X188753725Y-133471594D01*
X188753717Y-133471591D01*
X188547782Y-133386290D01*
X188332461Y-133328595D01*
X188169647Y-133307160D01*
X188111457Y-133299500D01*
X187888543Y-133299500D01*
X187837122Y-133306269D01*
X187667538Y-133328595D01*
X187452217Y-133386290D01*
X187246282Y-133471591D01*
X187246274Y-133471594D01*
X187053229Y-133583049D01*
X187053223Y-133583053D01*
X186876381Y-133718747D01*
X186718747Y-133876381D01*
X186583053Y-134053223D01*
X186583049Y-134053229D01*
X186471594Y-134246274D01*
X186471591Y-134246282D01*
X186386290Y-134452217D01*
X186328595Y-134667538D01*
X186304367Y-134851578D01*
X186300355Y-134882053D01*
X186299500Y-134888544D01*
X186299500Y-135111455D01*
X186328595Y-135332461D01*
X186386290Y-135547782D01*
X186471591Y-135753717D01*
X186471594Y-135753725D01*
X186583049Y-135946770D01*
X186583053Y-135946776D01*
X186718747Y-136123618D01*
X186876381Y-136281252D01*
X186987860Y-136366792D01*
X187016179Y-136415841D01*
X187001520Y-136470548D01*
X186952471Y-136498867D01*
X186942812Y-136499500D01*
X111002236Y-136499500D01*
X110997768Y-136499365D01*
X110703188Y-136481546D01*
X110694317Y-136480469D01*
X110406228Y-136427675D01*
X110397552Y-136425536D01*
X110397436Y-136425500D01*
X110117946Y-136338407D01*
X110109590Y-136335239D01*
X109842502Y-136215032D01*
X109834590Y-136210879D01*
X109583953Y-136059363D01*
X109576599Y-136054287D01*
X109346048Y-135873663D01*
X109339359Y-135867737D01*
X109132262Y-135660640D01*
X109126336Y-135653951D01*
X108945712Y-135423400D01*
X108940636Y-135416046D01*
X108789120Y-135165409D01*
X108784967Y-135157497D01*
X108764245Y-135111455D01*
X108664757Y-134890401D01*
X108661595Y-134882062D01*
X108574460Y-134602435D01*
X108572327Y-134593784D01*
X108519528Y-134305673D01*
X108518454Y-134296821D01*
X108500635Y-134002231D01*
X108500500Y-133997763D01*
X108500500Y-129054205D01*
X120695001Y-129054205D01*
X120697850Y-129084602D01*
X120697852Y-129084611D01*
X120742652Y-129212643D01*
X120823207Y-129321791D01*
X120823208Y-129321792D01*
X120932356Y-129402347D01*
X120932355Y-129402347D01*
X121060385Y-129447146D01*
X121060393Y-129447148D01*
X121090803Y-129449999D01*
X121195000Y-129449999D01*
X121395000Y-129449999D01*
X121499194Y-129449999D01*
X121499205Y-129449998D01*
X121529602Y-129447149D01*
X121529611Y-129447147D01*
X121657643Y-129402347D01*
X121766791Y-129321792D01*
X121766792Y-129321791D01*
X121847345Y-129212646D01*
X121860152Y-129176047D01*
X121897892Y-129133816D01*
X121954440Y-129130639D01*
X121996671Y-129168379D01*
X121999848Y-129176047D01*
X122012654Y-129212646D01*
X122093207Y-129321791D01*
X122093208Y-129321792D01*
X122202356Y-129402347D01*
X122202355Y-129402347D01*
X122330385Y-129447146D01*
X122330393Y-129447148D01*
X122360803Y-129449999D01*
X122465000Y-129449999D01*
X122665000Y-129449999D01*
X122769194Y-129449999D01*
X122769205Y-129449998D01*
X122799602Y-129447149D01*
X122799611Y-129447147D01*
X122927643Y-129402347D01*
X123036791Y-129321792D01*
X123036792Y-129321791D01*
X123117345Y-129212646D01*
X123130152Y-129176047D01*
X123167892Y-129133816D01*
X123224440Y-129130639D01*
X123266671Y-129168379D01*
X123269848Y-129176047D01*
X123282654Y-129212646D01*
X123363207Y-129321791D01*
X123363208Y-129321792D01*
X123472356Y-129402347D01*
X123472355Y-129402347D01*
X123600385Y-129447146D01*
X123600393Y-129447148D01*
X123630803Y-129449999D01*
X123735000Y-129449999D01*
X123935000Y-129449999D01*
X124039194Y-129449999D01*
X124039205Y-129449998D01*
X124069602Y-129447149D01*
X124069611Y-129447147D01*
X124197643Y-129402347D01*
X124306791Y-129321792D01*
X124306792Y-129321791D01*
X124387345Y-129212646D01*
X124400152Y-129176047D01*
X124437892Y-129133816D01*
X124494440Y-129130639D01*
X124536671Y-129168379D01*
X124539848Y-129176047D01*
X124552654Y-129212646D01*
X124633207Y-129321791D01*
X124633208Y-129321792D01*
X124742356Y-129402347D01*
X124742355Y-129402347D01*
X124870385Y-129447146D01*
X124870393Y-129447148D01*
X124900803Y-129449999D01*
X125005000Y-129449999D01*
X125205000Y-129449999D01*
X125309194Y-129449999D01*
X125309205Y-129449998D01*
X125339602Y-129447149D01*
X125339611Y-129447147D01*
X125467643Y-129402347D01*
X125576791Y-129321792D01*
X125576792Y-129321791D01*
X125657347Y-129212643D01*
X125702146Y-129084614D01*
X125702148Y-129084606D01*
X125704999Y-129054198D01*
X125705000Y-129054197D01*
X125705000Y-128275000D01*
X125205000Y-128275000D01*
X125205000Y-129449999D01*
X125005000Y-129449999D01*
X125005000Y-128275000D01*
X124480498Y-128275000D01*
X124470001Y-128279348D01*
X124469996Y-128279345D01*
X124469991Y-128279348D01*
X124459497Y-128275000D01*
X123935000Y-128275000D01*
X123935000Y-129449999D01*
X123735000Y-129449999D01*
X123735000Y-128275000D01*
X123210498Y-128275000D01*
X123200001Y-128279348D01*
X123199996Y-128279345D01*
X123199991Y-128279348D01*
X123189497Y-128275000D01*
X122665000Y-128275000D01*
X122665000Y-129449999D01*
X122465000Y-129449999D01*
X122465000Y-128275000D01*
X121940498Y-128275000D01*
X121930001Y-128279348D01*
X121929996Y-128279345D01*
X121929991Y-128279348D01*
X121919497Y-128275000D01*
X121395000Y-128275000D01*
X121395000Y-129449999D01*
X121195000Y-129449999D01*
X121195000Y-128275000D01*
X120695001Y-128275000D01*
X120695001Y-129054205D01*
X108500500Y-129054205D01*
X108500500Y-127295801D01*
X120695000Y-127295801D01*
X120695000Y-128075000D01*
X121195000Y-128075000D01*
X121395000Y-128075000D01*
X121919494Y-128075000D01*
X121929990Y-128070651D01*
X121929994Y-128070652D01*
X121929998Y-128070651D01*
X121940498Y-128075000D01*
X122465000Y-128075000D01*
X122665000Y-128075000D01*
X123189494Y-128075000D01*
X123199990Y-128070651D01*
X123199994Y-128070652D01*
X123199998Y-128070651D01*
X123210498Y-128075000D01*
X123735000Y-128075000D01*
X123935000Y-128075000D01*
X124459494Y-128075000D01*
X124469990Y-128070651D01*
X124469994Y-128070652D01*
X124469998Y-128070651D01*
X124480498Y-128075000D01*
X125005000Y-128075000D01*
X125205000Y-128075000D01*
X125704999Y-128075000D01*
X125704999Y-128040688D01*
X192249500Y-128040688D01*
X192249500Y-128159311D01*
X192280199Y-128273882D01*
X192280201Y-128273887D01*
X192339508Y-128376609D01*
X192339509Y-128376610D01*
X192339511Y-128376613D01*
X192423387Y-128460489D01*
X192526114Y-128519799D01*
X192526115Y-128519799D01*
X192526117Y-128519800D01*
X192583402Y-128535149D01*
X192640688Y-128550499D01*
X192640689Y-128550500D01*
X192640691Y-128550500D01*
X192759311Y-128550500D01*
X192759311Y-128550499D01*
X192873886Y-128519799D01*
X192976613Y-128460489D01*
X193060489Y-128376613D01*
X193119799Y-128273886D01*
X193150499Y-128159311D01*
X193150500Y-128159311D01*
X193150500Y-128040689D01*
X193150499Y-128040688D01*
X193119800Y-127926117D01*
X193119798Y-127926112D01*
X193060491Y-127823390D01*
X193060490Y-127823389D01*
X193060489Y-127823387D01*
X192976613Y-127739511D01*
X192976610Y-127739509D01*
X192976609Y-127739508D01*
X192873887Y-127680201D01*
X192873882Y-127680199D01*
X192759311Y-127649500D01*
X192759309Y-127649500D01*
X192640691Y-127649500D01*
X192640689Y-127649500D01*
X192526117Y-127680199D01*
X192526112Y-127680201D01*
X192423390Y-127739508D01*
X192339508Y-127823390D01*
X192280201Y-127926112D01*
X192280199Y-127926117D01*
X192249500Y-128040688D01*
X125704999Y-128040688D01*
X125704999Y-127295806D01*
X125704998Y-127295794D01*
X125702149Y-127265397D01*
X125702147Y-127265388D01*
X125657347Y-127137356D01*
X125576792Y-127028208D01*
X125576791Y-127028207D01*
X125467643Y-126947652D01*
X125467644Y-126947652D01*
X125339614Y-126902853D01*
X125339606Y-126902851D01*
X125309198Y-126900000D01*
X125205000Y-126900000D01*
X125205000Y-128075000D01*
X125005000Y-128075000D01*
X125005000Y-126900000D01*
X124900806Y-126900000D01*
X124900793Y-126900001D01*
X124870397Y-126902850D01*
X124870388Y-126902852D01*
X124742356Y-126947652D01*
X124633208Y-127028207D01*
X124633207Y-127028208D01*
X124552653Y-127137355D01*
X124539847Y-127173953D01*
X124502107Y-127216184D01*
X124445559Y-127219359D01*
X124403328Y-127181619D01*
X124400153Y-127173953D01*
X124387346Y-127137355D01*
X124306792Y-127028208D01*
X124306791Y-127028207D01*
X124197643Y-126947652D01*
X124197644Y-126947652D01*
X124069614Y-126902853D01*
X124069606Y-126902851D01*
X124039198Y-126900000D01*
X123935000Y-126900000D01*
X123935000Y-128075000D01*
X123735000Y-128075000D01*
X123735000Y-126900000D01*
X123630806Y-126900000D01*
X123630793Y-126900001D01*
X123600397Y-126902850D01*
X123600388Y-126902852D01*
X123472356Y-126947652D01*
X123363208Y-127028207D01*
X123363207Y-127028208D01*
X123282653Y-127137355D01*
X123269847Y-127173953D01*
X123232107Y-127216184D01*
X123175559Y-127219359D01*
X123133328Y-127181619D01*
X123130153Y-127173953D01*
X123117346Y-127137355D01*
X123036792Y-127028208D01*
X123036791Y-127028207D01*
X122927643Y-126947652D01*
X122927644Y-126947652D01*
X122799614Y-126902853D01*
X122799606Y-126902851D01*
X122769198Y-126900000D01*
X122665000Y-126900000D01*
X122665000Y-128075000D01*
X122465000Y-128075000D01*
X122465000Y-126900000D01*
X122360806Y-126900000D01*
X122360793Y-126900001D01*
X122330397Y-126902850D01*
X122330388Y-126902852D01*
X122202356Y-126947652D01*
X122093208Y-127028207D01*
X122093207Y-127028208D01*
X122012653Y-127137355D01*
X121999847Y-127173953D01*
X121962107Y-127216184D01*
X121905559Y-127219359D01*
X121863328Y-127181619D01*
X121860153Y-127173953D01*
X121847346Y-127137355D01*
X121766792Y-127028208D01*
X121766791Y-127028207D01*
X121657643Y-126947652D01*
X121657644Y-126947652D01*
X121529614Y-126902853D01*
X121529606Y-126902851D01*
X121499198Y-126900000D01*
X121395000Y-126900000D01*
X121395000Y-128075000D01*
X121195000Y-128075000D01*
X121195000Y-126900000D01*
X121090806Y-126900000D01*
X121090793Y-126900001D01*
X121060397Y-126902850D01*
X121060388Y-126902852D01*
X120932356Y-126947652D01*
X120823208Y-127028207D01*
X120823207Y-127028208D01*
X120742652Y-127137356D01*
X120697853Y-127265385D01*
X120697851Y-127265393D01*
X120695000Y-127295801D01*
X108500500Y-127295801D01*
X108500500Y-126373007D01*
X119090001Y-126373007D01*
X119092786Y-126402721D01*
X119092787Y-126402728D01*
X119136594Y-126527919D01*
X119215358Y-126634640D01*
X119215359Y-126634641D01*
X119322080Y-126713405D01*
X119447268Y-126757211D01*
X119447273Y-126757212D01*
X119477002Y-126759999D01*
X119600000Y-126759999D01*
X119800000Y-126759999D01*
X119922993Y-126759999D01*
X119923007Y-126759998D01*
X119952721Y-126757213D01*
X119952728Y-126757212D01*
X120077919Y-126713405D01*
X120184640Y-126634641D01*
X120184641Y-126634640D01*
X120263405Y-126527919D01*
X120307211Y-126402731D01*
X120307212Y-126402726D01*
X120309999Y-126372997D01*
X120310000Y-126372996D01*
X120310000Y-126280000D01*
X119800000Y-126280000D01*
X119800000Y-126759999D01*
X119600000Y-126759999D01*
X119600000Y-126280000D01*
X119090001Y-126280000D01*
X119090001Y-126373007D01*
X108500500Y-126373007D01*
X108500500Y-125987002D01*
X119090000Y-125987002D01*
X119090000Y-126080000D01*
X120309999Y-126080000D01*
X120309999Y-125987007D01*
X120309998Y-125986992D01*
X120307213Y-125957278D01*
X120307212Y-125957271D01*
X120266364Y-125840534D01*
X120263406Y-125832080D01*
X120255184Y-125820940D01*
X186699500Y-125820940D01*
X186699500Y-125979059D01*
X186740421Y-126131779D01*
X186740422Y-126131781D01*
X186740423Y-126131784D01*
X186819480Y-126268716D01*
X186931284Y-126380520D01*
X187068216Y-126459577D01*
X187220940Y-126500499D01*
X187220941Y-126500500D01*
X187325500Y-126500500D01*
X187377826Y-126522174D01*
X187399500Y-126574500D01*
X187399500Y-126679059D01*
X187440421Y-126831779D01*
X187440422Y-126831781D01*
X187440423Y-126831784D01*
X187519480Y-126968716D01*
X187631284Y-127080520D01*
X187768216Y-127159577D01*
X187920940Y-127200499D01*
X187920941Y-127200500D01*
X187920943Y-127200500D01*
X188079059Y-127200500D01*
X188079059Y-127200499D01*
X188231784Y-127159577D01*
X188368716Y-127080520D01*
X188480520Y-126968716D01*
X188559577Y-126831784D01*
X188600499Y-126679059D01*
X188600500Y-126679059D01*
X188600500Y-126520941D01*
X188600499Y-126520940D01*
X188584056Y-126459575D01*
X188559577Y-126368216D01*
X188480520Y-126231284D01*
X188368716Y-126119480D01*
X188231784Y-126040423D01*
X188231781Y-126040422D01*
X188231779Y-126040421D01*
X188115877Y-126009365D01*
X188070944Y-125974887D01*
X188063552Y-125918734D01*
X188098030Y-125873801D01*
X188112158Y-125867510D01*
X188184090Y-125844139D01*
X188208943Y-125826082D01*
X196249500Y-125826082D01*
X196249500Y-125973918D01*
X196250523Y-125979059D01*
X196278340Y-126118907D01*
X196278343Y-126118917D01*
X196334915Y-126255494D01*
X196413435Y-126373007D01*
X196417049Y-126378416D01*
X196521584Y-126482951D01*
X196644505Y-126565084D01*
X196781087Y-126621658D01*
X196926082Y-126650500D01*
X196926084Y-126650500D01*
X197073916Y-126650500D01*
X197073918Y-126650500D01*
X197184477Y-126628508D01*
X197240026Y-126639557D01*
X197271492Y-126686649D01*
X197271492Y-126715523D01*
X197249500Y-126826083D01*
X197249500Y-126973916D01*
X197278340Y-127118907D01*
X197278343Y-127118917D01*
X197334915Y-127255494D01*
X197361848Y-127295801D01*
X197417049Y-127378416D01*
X197521584Y-127482951D01*
X197644505Y-127565084D01*
X197781087Y-127621658D01*
X197926082Y-127650500D01*
X197926084Y-127650500D01*
X198073916Y-127650500D01*
X198073918Y-127650500D01*
X198218913Y-127621658D01*
X198355495Y-127565084D01*
X198478416Y-127482951D01*
X198582951Y-127378416D01*
X198665084Y-127255495D01*
X198721658Y-127118913D01*
X198750500Y-126973918D01*
X198750500Y-126826082D01*
X198721658Y-126681087D01*
X198708988Y-126650500D01*
X198665084Y-126544505D01*
X198582951Y-126421584D01*
X198478415Y-126317048D01*
X198355494Y-126234915D01*
X198218917Y-126178343D01*
X198218907Y-126178340D01*
X198121811Y-126159026D01*
X198073918Y-126149500D01*
X197926082Y-126149500D01*
X197815523Y-126171492D01*
X197759974Y-126160443D01*
X197728508Y-126113351D01*
X197728508Y-126084477D01*
X197749477Y-125979059D01*
X197750500Y-125973918D01*
X197750500Y-125826082D01*
X197750500Y-125826079D01*
X197750144Y-125822467D01*
X197751489Y-125822334D01*
X197761667Y-125771148D01*
X197808757Y-125739679D01*
X197853938Y-125744943D01*
X197864658Y-125749839D01*
X198000000Y-125769299D01*
X198135342Y-125749839D01*
X198259719Y-125693039D01*
X198304067Y-125657301D01*
X198757299Y-125204067D01*
X198793039Y-125159719D01*
X198849839Y-125035342D01*
X198869299Y-124900000D01*
X198849839Y-124764658D01*
X198793039Y-124640281D01*
X198757301Y-124595933D01*
X198304067Y-124142701D01*
X198259719Y-124106961D01*
X198259715Y-124106959D01*
X198259712Y-124106957D01*
X198180420Y-124070747D01*
X198135342Y-124050161D01*
X198135340Y-124050160D01*
X198135338Y-124050160D01*
X198000000Y-124030701D01*
X197864661Y-124050160D01*
X197864658Y-124050160D01*
X197740281Y-124106960D01*
X197695934Y-124142697D01*
X197695933Y-124142698D01*
X197242703Y-124595930D01*
X197206959Y-124640284D01*
X197206957Y-124640287D01*
X197150161Y-124764658D01*
X197150160Y-124764661D01*
X197130701Y-124900000D01*
X197150160Y-125035338D01*
X197150160Y-125035341D01*
X197155056Y-125046060D01*
X197157077Y-125102661D01*
X197118483Y-125144113D01*
X197077629Y-125148878D01*
X197077533Y-125149856D01*
X197073920Y-125149500D01*
X197073918Y-125149500D01*
X196926082Y-125149500D01*
X196884977Y-125157676D01*
X196781092Y-125178340D01*
X196781082Y-125178343D01*
X196644505Y-125234915D01*
X196521584Y-125317048D01*
X196521583Y-125317050D01*
X196417050Y-125421583D01*
X196417048Y-125421584D01*
X196334915Y-125544505D01*
X196278343Y-125681082D01*
X196278340Y-125681092D01*
X196260427Y-125771148D01*
X196249500Y-125826082D01*
X188208943Y-125826082D01*
X188260909Y-125788326D01*
X188588325Y-125460909D01*
X188644139Y-125384090D01*
X188683342Y-125263433D01*
X188683342Y-125136567D01*
X188651999Y-125040100D01*
X188644141Y-125015915D01*
X188644137Y-125015907D01*
X188588328Y-124939093D01*
X188260909Y-124611675D01*
X188239244Y-124595934D01*
X188184090Y-124555861D01*
X188184088Y-124555860D01*
X188184084Y-124555858D01*
X188063434Y-124516658D01*
X188063433Y-124516658D01*
X187936567Y-124516658D01*
X187936565Y-124516658D01*
X187815915Y-124555858D01*
X187815907Y-124555862D01*
X187739093Y-124611671D01*
X187411675Y-124939090D01*
X187355860Y-125015911D01*
X187355858Y-125015915D01*
X187316658Y-125136565D01*
X187316658Y-125225500D01*
X187294984Y-125277826D01*
X187242658Y-125299500D01*
X187220941Y-125299500D01*
X187068220Y-125340421D01*
X187068214Y-125340424D01*
X186931283Y-125419480D01*
X186819480Y-125531283D01*
X186740424Y-125668214D01*
X186740421Y-125668220D01*
X186699500Y-125820940D01*
X120255184Y-125820940D01*
X120184641Y-125725359D01*
X120184640Y-125725358D01*
X120139641Y-125692147D01*
X120110410Y-125643636D01*
X120124044Y-125588664D01*
X120131252Y-125580287D01*
X120153224Y-125558316D01*
X120203972Y-125449487D01*
X120210500Y-125399901D01*
X120210499Y-125040100D01*
X120203972Y-124990513D01*
X120153224Y-124881684D01*
X120122174Y-124850634D01*
X120100500Y-124798308D01*
X120100500Y-124427140D01*
X120110414Y-124390140D01*
X120119799Y-124373886D01*
X120150499Y-124259311D01*
X120150500Y-124259311D01*
X120150500Y-124140689D01*
X120150499Y-124140688D01*
X120119800Y-124026117D01*
X120119796Y-124026108D01*
X120110414Y-124009857D01*
X120100500Y-123972858D01*
X120100500Y-123927140D01*
X120110414Y-123890140D01*
X120119799Y-123873886D01*
X120124656Y-123855756D01*
X120143806Y-123822585D01*
X120319219Y-123647174D01*
X120371545Y-123625500D01*
X120720500Y-123625500D01*
X120772826Y-123647174D01*
X120794500Y-123699500D01*
X120794500Y-124083264D01*
X120804427Y-124151393D01*
X120804427Y-124151394D01*
X120855801Y-124256482D01*
X120855802Y-124256483D01*
X120938517Y-124339198D01*
X121043607Y-124390573D01*
X121111740Y-124400500D01*
X121111746Y-124400500D01*
X121478254Y-124400500D01*
X121478260Y-124400500D01*
X121546393Y-124390573D01*
X121651483Y-124339198D01*
X121734198Y-124256483D01*
X121785573Y-124151393D01*
X121795500Y-124083260D01*
X121795500Y-122366740D01*
X121785573Y-122298607D01*
X121734198Y-122193517D01*
X121651483Y-122110802D01*
X121651482Y-122110801D01*
X121546394Y-122059427D01*
X121478264Y-122049500D01*
X121478260Y-122049500D01*
X121111740Y-122049500D01*
X121111735Y-122049500D01*
X121043606Y-122059427D01*
X121043605Y-122059427D01*
X120938517Y-122110801D01*
X120855801Y-122193517D01*
X120804427Y-122298605D01*
X120804427Y-122298606D01*
X120794500Y-122366735D01*
X120794500Y-122750500D01*
X120772826Y-122802826D01*
X120720500Y-122824500D01*
X120122273Y-122824500D01*
X120071343Y-122838146D01*
X120020412Y-122851793D01*
X120009225Y-122858252D01*
X119998037Y-122864712D01*
X119929086Y-122904520D01*
X119577415Y-123256190D01*
X119544245Y-123275342D01*
X119526113Y-123280201D01*
X119526112Y-123280201D01*
X119423390Y-123339508D01*
X119339508Y-123423390D01*
X119280201Y-123526112D01*
X119280199Y-123526117D01*
X119249500Y-123640688D01*
X119249500Y-123759311D01*
X119280199Y-123873882D01*
X119280200Y-123873884D01*
X119280201Y-123873886D01*
X119289585Y-123890140D01*
X119299500Y-123927140D01*
X119299500Y-123972858D01*
X119289586Y-124009857D01*
X119280203Y-124026108D01*
X119280199Y-124026117D01*
X119249500Y-124140688D01*
X119249500Y-124259311D01*
X119280199Y-124373882D01*
X119280200Y-124373884D01*
X119280201Y-124373886D01*
X119289585Y-124390140D01*
X119299500Y-124427140D01*
X119299500Y-124798308D01*
X119277826Y-124850634D01*
X119246776Y-124881683D01*
X119196027Y-124990514D01*
X119189500Y-125040100D01*
X119189500Y-125399899D01*
X119196027Y-125449485D01*
X119196028Y-125449487D01*
X119246776Y-125558316D01*
X119268741Y-125580281D01*
X119290415Y-125632607D01*
X119268741Y-125684933D01*
X119260359Y-125692147D01*
X119215357Y-125725360D01*
X119136594Y-125832080D01*
X119092788Y-125957268D01*
X119092787Y-125957273D01*
X119090000Y-125987002D01*
X108500500Y-125987002D01*
X108500500Y-116040688D01*
X117649500Y-116040688D01*
X117649500Y-116159311D01*
X117680199Y-116273882D01*
X117680201Y-116273887D01*
X117739508Y-116376609D01*
X117739509Y-116376610D01*
X117739511Y-116376613D01*
X117802826Y-116439928D01*
X117824500Y-116492253D01*
X117824500Y-118054800D01*
X117865063Y-118152727D01*
X117866443Y-118156058D01*
X120066443Y-120356058D01*
X120143942Y-120433557D01*
X120245200Y-120475500D01*
X120531289Y-120475500D01*
X120583615Y-120497174D01*
X120605289Y-120549500D01*
X120583615Y-120601826D01*
X120568289Y-120613586D01*
X120523390Y-120639508D01*
X120439508Y-120723390D01*
X120380201Y-120826112D01*
X120380199Y-120826117D01*
X120349500Y-120940688D01*
X120349500Y-121059311D01*
X120380199Y-121173882D01*
X120380201Y-121173887D01*
X120439508Y-121276609D01*
X120439509Y-121276610D01*
X120439511Y-121276613D01*
X120523387Y-121360489D01*
X120523389Y-121360490D01*
X120523390Y-121360491D01*
X120579155Y-121392687D01*
X120626114Y-121419799D01*
X120626115Y-121419799D01*
X120626117Y-121419800D01*
X120649693Y-121426117D01*
X120740688Y-121450499D01*
X120740689Y-121450500D01*
X120740691Y-121450500D01*
X120859309Y-121450500D01*
X120890607Y-121442113D01*
X120946758Y-121449504D01*
X120971002Y-121475957D01*
X120972223Y-121475103D01*
X120975933Y-121480402D01*
X120975935Y-121480404D01*
X121059596Y-121564065D01*
X121166827Y-121614068D01*
X121215684Y-121620500D01*
X121215686Y-121620500D01*
X121564314Y-121620500D01*
X121564316Y-121620500D01*
X121613173Y-121614068D01*
X121720404Y-121564065D01*
X121804065Y-121480404D01*
X121832933Y-121418495D01*
X121874690Y-121380232D01*
X121931273Y-121382702D01*
X121967066Y-121418495D01*
X121972567Y-121430291D01*
X121995933Y-121480402D01*
X121995935Y-121480404D01*
X122079596Y-121564065D01*
X122186827Y-121614068D01*
X122225158Y-121619114D01*
X122274208Y-121647432D01*
X122289500Y-121692481D01*
X122289500Y-122025018D01*
X122267826Y-122077344D01*
X122248001Y-122091498D01*
X122208520Y-122110799D01*
X122208517Y-122110801D01*
X122125801Y-122193517D01*
X122074427Y-122298605D01*
X122074427Y-122298606D01*
X122064500Y-122366735D01*
X122064500Y-124083264D01*
X122074427Y-124151393D01*
X122074427Y-124151394D01*
X122125801Y-124256482D01*
X122125802Y-124256483D01*
X122208517Y-124339198D01*
X122313607Y-124390573D01*
X122381740Y-124400500D01*
X122381746Y-124400500D01*
X122748254Y-124400500D01*
X122748260Y-124400500D01*
X122816393Y-124390573D01*
X122921483Y-124339198D01*
X123004198Y-124256483D01*
X123055573Y-124151393D01*
X123065500Y-124083260D01*
X123065500Y-122366740D01*
X123055573Y-122298607D01*
X123004198Y-122193517D01*
X122921483Y-122110802D01*
X122921482Y-122110801D01*
X122921479Y-122110799D01*
X122881999Y-122091498D01*
X122844509Y-122049045D01*
X122840500Y-122025018D01*
X122840500Y-121461565D01*
X122847433Y-121430291D01*
X122874068Y-121373173D01*
X122880500Y-121324316D01*
X122880500Y-120875684D01*
X122874068Y-120826827D01*
X122824065Y-120719596D01*
X122751295Y-120646826D01*
X122729621Y-120594500D01*
X122751295Y-120542174D01*
X122803621Y-120520500D01*
X122864314Y-120520500D01*
X122864316Y-120520500D01*
X122913173Y-120514068D01*
X123020404Y-120464065D01*
X123104065Y-120380404D01*
X123132933Y-120318495D01*
X123174690Y-120280232D01*
X123231273Y-120282702D01*
X123267066Y-120318495D01*
X123274709Y-120334886D01*
X123295933Y-120380402D01*
X123295935Y-120380404D01*
X123379596Y-120464065D01*
X123486827Y-120514068D01*
X123495156Y-120515164D01*
X123544205Y-120543479D01*
X123559500Y-120588531D01*
X123559500Y-122025018D01*
X123537826Y-122077344D01*
X123518001Y-122091498D01*
X123478520Y-122110799D01*
X123478517Y-122110801D01*
X123395801Y-122193517D01*
X123344427Y-122298605D01*
X123344427Y-122298606D01*
X123334500Y-122366735D01*
X123334500Y-124083264D01*
X123344427Y-124151393D01*
X123344427Y-124151394D01*
X123395801Y-124256482D01*
X123395802Y-124256483D01*
X123478517Y-124339198D01*
X123583607Y-124390573D01*
X123651740Y-124400500D01*
X123651746Y-124400500D01*
X124018254Y-124400500D01*
X124018260Y-124400500D01*
X124086393Y-124390573D01*
X124191483Y-124339198D01*
X124274198Y-124256483D01*
X124325573Y-124151393D01*
X124335500Y-124083260D01*
X124335500Y-122366740D01*
X124325573Y-122298607D01*
X124274198Y-122193517D01*
X124191483Y-122110802D01*
X124191482Y-122110801D01*
X124191479Y-122110799D01*
X124151999Y-122091498D01*
X124114509Y-122049045D01*
X124110500Y-122025018D01*
X124110500Y-120549500D01*
X124132174Y-120497174D01*
X124184500Y-120475500D01*
X124708747Y-120475500D01*
X124761073Y-120497174D01*
X124782747Y-120549500D01*
X124761073Y-120601824D01*
X124749312Y-120613586D01*
X124739508Y-120623390D01*
X124680201Y-120726112D01*
X124680199Y-120726117D01*
X124649500Y-120840688D01*
X124649500Y-120959311D01*
X124680199Y-121073882D01*
X124680201Y-121073887D01*
X124739508Y-121176609D01*
X124739509Y-121176610D01*
X124739511Y-121176613D01*
X124807826Y-121244928D01*
X124829500Y-121297253D01*
X124829500Y-122025018D01*
X124807826Y-122077344D01*
X124788001Y-122091498D01*
X124748520Y-122110799D01*
X124748517Y-122110801D01*
X124665801Y-122193517D01*
X124614427Y-122298605D01*
X124614427Y-122298606D01*
X124604500Y-122366735D01*
X124604500Y-124083264D01*
X124614427Y-124151393D01*
X124614427Y-124151394D01*
X124665801Y-124256482D01*
X124665802Y-124256483D01*
X124748517Y-124339198D01*
X124853607Y-124390573D01*
X124921740Y-124400500D01*
X124921746Y-124400500D01*
X125288254Y-124400500D01*
X125288260Y-124400500D01*
X125356393Y-124390573D01*
X125461483Y-124339198D01*
X125544198Y-124256483D01*
X125595573Y-124151393D01*
X125605500Y-124083260D01*
X125605500Y-122940688D01*
X196949500Y-122940688D01*
X196949500Y-123059311D01*
X196980199Y-123173882D01*
X196980201Y-123173887D01*
X197039508Y-123276609D01*
X197039509Y-123276610D01*
X197039511Y-123276613D01*
X197123387Y-123360489D01*
X197226114Y-123419799D01*
X197226115Y-123419799D01*
X197226117Y-123419800D01*
X197283402Y-123435149D01*
X197340688Y-123450499D01*
X197340689Y-123450500D01*
X197340691Y-123450500D01*
X197459311Y-123450500D01*
X197459311Y-123450499D01*
X197573886Y-123419799D01*
X197676613Y-123360489D01*
X197760489Y-123276613D01*
X197819799Y-123173886D01*
X197850499Y-123059311D01*
X197850500Y-123059311D01*
X197850500Y-122940689D01*
X197850499Y-122940688D01*
X197819800Y-122826117D01*
X197819798Y-122826112D01*
X197760491Y-122723390D01*
X197760490Y-122723389D01*
X197760489Y-122723387D01*
X197676613Y-122639511D01*
X197676610Y-122639509D01*
X197676609Y-122639508D01*
X197573887Y-122580201D01*
X197573882Y-122580199D01*
X197459311Y-122549500D01*
X197459309Y-122549500D01*
X197340691Y-122549500D01*
X197340689Y-122549500D01*
X197226117Y-122580199D01*
X197226112Y-122580201D01*
X197123390Y-122639508D01*
X197039508Y-122723390D01*
X196980201Y-122826112D01*
X196980199Y-122826117D01*
X196949500Y-122940688D01*
X125605500Y-122940688D01*
X125605500Y-122366740D01*
X125595573Y-122298607D01*
X125544198Y-122193517D01*
X125461483Y-122110802D01*
X125461482Y-122110801D01*
X125461479Y-122110799D01*
X125421999Y-122091498D01*
X125384509Y-122049045D01*
X125380500Y-122025018D01*
X125380500Y-121287253D01*
X125402173Y-121234928D01*
X125460489Y-121176613D01*
X125519799Y-121073886D01*
X125550499Y-120959311D01*
X125550500Y-120959311D01*
X125550500Y-120840689D01*
X125550499Y-120840688D01*
X125546593Y-120826112D01*
X125544700Y-120819048D01*
X125527538Y-120754994D01*
X125523705Y-120740688D01*
X187749500Y-120740688D01*
X187749500Y-120859311D01*
X187780199Y-120973882D01*
X187780201Y-120973887D01*
X187839508Y-121076609D01*
X187839509Y-121076610D01*
X187839511Y-121076613D01*
X187923387Y-121160489D01*
X187923389Y-121160490D01*
X187923390Y-121160491D01*
X187951307Y-121176609D01*
X188026114Y-121219799D01*
X188026115Y-121219799D01*
X188026117Y-121219800D01*
X188082572Y-121234927D01*
X188140688Y-121250499D01*
X188140689Y-121250500D01*
X188140691Y-121250500D01*
X188259311Y-121250500D01*
X188259311Y-121250499D01*
X188373886Y-121219799D01*
X188476613Y-121160489D01*
X188560489Y-121076613D01*
X188619799Y-120973886D01*
X188650499Y-120859311D01*
X188650500Y-120859311D01*
X188650500Y-120740689D01*
X188650499Y-120740688D01*
X188646593Y-120726112D01*
X188622431Y-120635935D01*
X188619800Y-120626117D01*
X188619796Y-120626108D01*
X188610414Y-120609857D01*
X188600500Y-120572858D01*
X188600500Y-120002022D01*
X188622174Y-119949696D01*
X188674500Y-119928022D01*
X188726826Y-119949696D01*
X188736026Y-119960907D01*
X188755448Y-119989973D01*
X188797242Y-120017899D01*
X188821767Y-120034287D01*
X188821768Y-120034287D01*
X188821769Y-120034288D01*
X188880252Y-120045921D01*
X190025500Y-120045921D01*
X190077826Y-120067595D01*
X190099500Y-120119921D01*
X190099500Y-121772858D01*
X190089586Y-121809857D01*
X190080203Y-121826108D01*
X190080199Y-121826117D01*
X190049500Y-121940688D01*
X190049500Y-122059311D01*
X190080199Y-122173882D01*
X190080201Y-122173887D01*
X190139508Y-122276609D01*
X190139509Y-122276610D01*
X190139511Y-122276613D01*
X190223387Y-122360489D01*
X190326114Y-122419799D01*
X190326115Y-122419799D01*
X190326117Y-122419800D01*
X190383402Y-122435149D01*
X190440688Y-122450499D01*
X190440689Y-122450500D01*
X190440691Y-122450500D01*
X190559311Y-122450500D01*
X190559311Y-122450499D01*
X190673886Y-122419799D01*
X190776613Y-122360489D01*
X190860489Y-122276613D01*
X190919799Y-122173886D01*
X190950499Y-122059311D01*
X190950500Y-122059311D01*
X190950500Y-121940689D01*
X190950499Y-121940688D01*
X190919800Y-121826117D01*
X190919796Y-121826108D01*
X190910414Y-121809857D01*
X190900500Y-121772858D01*
X190900500Y-120119921D01*
X190922174Y-120067595D01*
X190974500Y-120045921D01*
X192069746Y-120045921D01*
X192069748Y-120045921D01*
X192128231Y-120034288D01*
X192184389Y-119996763D01*
X192239935Y-119985713D01*
X192287028Y-120017178D01*
X192299500Y-120058292D01*
X192299500Y-121372858D01*
X192289586Y-121409857D01*
X192280203Y-121426108D01*
X192280199Y-121426117D01*
X192249500Y-121540688D01*
X192249500Y-121659311D01*
X192280199Y-121773882D01*
X192280201Y-121773887D01*
X192339508Y-121876609D01*
X192339509Y-121876610D01*
X192339511Y-121876613D01*
X192423387Y-121960489D01*
X192526114Y-122019799D01*
X192526115Y-122019799D01*
X192526117Y-122019800D01*
X192545591Y-122025018D01*
X192640688Y-122050499D01*
X192640689Y-122050500D01*
X192640691Y-122050500D01*
X192759311Y-122050500D01*
X192759311Y-122050499D01*
X192873886Y-122019799D01*
X192976613Y-121960489D01*
X193060489Y-121876613D01*
X193119799Y-121773886D01*
X193150499Y-121659311D01*
X193150500Y-121659311D01*
X193150500Y-121540689D01*
X193150499Y-121540688D01*
X193119800Y-121426117D01*
X193119796Y-121426108D01*
X193110414Y-121409857D01*
X193100500Y-121372858D01*
X193100500Y-119890213D01*
X193650001Y-119890213D01*
X193652908Y-119915289D01*
X193652910Y-119915295D01*
X193698213Y-120017899D01*
X193777521Y-120097207D01*
X193880124Y-120142510D01*
X193880123Y-120142510D01*
X193905210Y-120145420D01*
X195425000Y-120145420D01*
X195625000Y-120145420D01*
X197144792Y-120145420D01*
X197169868Y-120142512D01*
X197169874Y-120142510D01*
X197272478Y-120097207D01*
X197351786Y-120017899D01*
X197397089Y-119915296D01*
X197400000Y-119890210D01*
X197400000Y-119445421D01*
X195625000Y-119445421D01*
X195625000Y-120145420D01*
X195425000Y-120145420D01*
X195425000Y-119445421D01*
X193650001Y-119445421D01*
X193650001Y-119890213D01*
X193100500Y-119890213D01*
X193100500Y-118800631D01*
X193650000Y-118800631D01*
X193650000Y-119245421D01*
X195425000Y-119245421D01*
X195625000Y-119245421D01*
X197399999Y-119245421D01*
X197399999Y-118800628D01*
X197397091Y-118775552D01*
X197397089Y-118775546D01*
X197351786Y-118672942D01*
X197272478Y-118593634D01*
X197169875Y-118548331D01*
X197169876Y-118548331D01*
X197144789Y-118545421D01*
X195625000Y-118545421D01*
X195625000Y-119245421D01*
X195425000Y-119245421D01*
X195425000Y-118545421D01*
X193905207Y-118545421D01*
X193880131Y-118548329D01*
X193880125Y-118548331D01*
X193777521Y-118593634D01*
X193698213Y-118672942D01*
X193652910Y-118775545D01*
X193650000Y-118800631D01*
X193100500Y-118800631D01*
X193100500Y-117350213D01*
X193650001Y-117350213D01*
X193652908Y-117375289D01*
X193652910Y-117375295D01*
X193698213Y-117477899D01*
X193777521Y-117557207D01*
X193880124Y-117602510D01*
X193880123Y-117602510D01*
X193905210Y-117605420D01*
X195425000Y-117605420D01*
X195625000Y-117605420D01*
X197144792Y-117605420D01*
X197169868Y-117602512D01*
X197169874Y-117602510D01*
X197272478Y-117557207D01*
X197351786Y-117477899D01*
X197397089Y-117375296D01*
X197400000Y-117350210D01*
X197400000Y-116905421D01*
X195625000Y-116905421D01*
X195625000Y-117605420D01*
X195425000Y-117605420D01*
X195425000Y-116905421D01*
X193650001Y-116905421D01*
X193650001Y-117350213D01*
X193100500Y-117350213D01*
X193100500Y-116260631D01*
X193650000Y-116260631D01*
X193650000Y-116705421D01*
X195425000Y-116705421D01*
X195625000Y-116705421D01*
X197399999Y-116705421D01*
X197399999Y-116260628D01*
X197397091Y-116235552D01*
X197397089Y-116235546D01*
X197351786Y-116132942D01*
X197272478Y-116053634D01*
X197169875Y-116008331D01*
X197169876Y-116008331D01*
X197144789Y-116005421D01*
X195625000Y-116005421D01*
X195625000Y-116705421D01*
X195425000Y-116705421D01*
X195425000Y-116005421D01*
X193905207Y-116005421D01*
X193880131Y-116008329D01*
X193880125Y-116008331D01*
X193777521Y-116053634D01*
X193698213Y-116132942D01*
X193652910Y-116235545D01*
X193650000Y-116260631D01*
X193100500Y-116260631D01*
X193100500Y-115647273D01*
X193073207Y-115545413D01*
X193073207Y-115545412D01*
X193020482Y-115454090D01*
X193020481Y-115454089D01*
X193020480Y-115454087D01*
X192376606Y-114810213D01*
X193650001Y-114810213D01*
X193652908Y-114835289D01*
X193652910Y-114835295D01*
X193698213Y-114937899D01*
X193777521Y-115017207D01*
X193880124Y-115062510D01*
X193880123Y-115062510D01*
X193905210Y-115065420D01*
X195425000Y-115065420D01*
X195625000Y-115065420D01*
X197144792Y-115065420D01*
X197169868Y-115062512D01*
X197169874Y-115062510D01*
X197272478Y-115017207D01*
X197351786Y-114937899D01*
X197397089Y-114835296D01*
X197400000Y-114810210D01*
X197400000Y-114365421D01*
X195625000Y-114365421D01*
X195625000Y-115065420D01*
X195425000Y-115065420D01*
X195425000Y-114365421D01*
X193650001Y-114365421D01*
X193650001Y-114810213D01*
X192376606Y-114810213D01*
X192272174Y-114705781D01*
X192250500Y-114653455D01*
X192250500Y-113745677D01*
X192250500Y-113745673D01*
X192245519Y-113720631D01*
X193650000Y-113720631D01*
X193650000Y-114165421D01*
X195425000Y-114165421D01*
X195625000Y-114165421D01*
X197399999Y-114165421D01*
X197399999Y-113720628D01*
X197397091Y-113695552D01*
X197397089Y-113695546D01*
X197351786Y-113592942D01*
X197272478Y-113513634D01*
X197169875Y-113468331D01*
X197169876Y-113468331D01*
X197144789Y-113465421D01*
X195625000Y-113465421D01*
X195625000Y-114165421D01*
X195425000Y-114165421D01*
X195425000Y-113465421D01*
X193905207Y-113465421D01*
X193880131Y-113468329D01*
X193880125Y-113468331D01*
X193777521Y-113513634D01*
X193698213Y-113592942D01*
X193652910Y-113695545D01*
X193650000Y-113720631D01*
X192245519Y-113720631D01*
X192238867Y-113687190D01*
X192194552Y-113620869D01*
X192152757Y-113592942D01*
X192128232Y-113576554D01*
X192128233Y-113576554D01*
X192098989Y-113570737D01*
X192069748Y-113564921D01*
X188880252Y-113564921D01*
X188851010Y-113570737D01*
X188821767Y-113576554D01*
X188755449Y-113620868D01*
X188755447Y-113620870D01*
X188711133Y-113687188D01*
X188699500Y-113745674D01*
X188699500Y-114785167D01*
X188711133Y-114843653D01*
X188740608Y-114887764D01*
X188755448Y-114909973D01*
X188797242Y-114937899D01*
X188821767Y-114954287D01*
X188821768Y-114954287D01*
X188821769Y-114954288D01*
X188880252Y-114965921D01*
X191368876Y-114965921D01*
X191421202Y-114987595D01*
X192277826Y-115844219D01*
X192299500Y-115896545D01*
X192299500Y-116092549D01*
X192277826Y-116144875D01*
X192225500Y-116166549D01*
X192184387Y-116154077D01*
X192128232Y-116116554D01*
X192128233Y-116116554D01*
X192098989Y-116110737D01*
X192069748Y-116104921D01*
X188880252Y-116104921D01*
X188851010Y-116110737D01*
X188821767Y-116116554D01*
X188755449Y-116160868D01*
X188755447Y-116160870D01*
X188711133Y-116227188D01*
X188699500Y-116285674D01*
X188699500Y-117003455D01*
X188677826Y-117055781D01*
X187879517Y-117854090D01*
X187826793Y-117945410D01*
X187826791Y-117945415D01*
X187810860Y-118004869D01*
X187810861Y-118004870D01*
X187799500Y-118047272D01*
X187799500Y-120572858D01*
X187789586Y-120609857D01*
X187780203Y-120626108D01*
X187780199Y-120626117D01*
X187749500Y-120740688D01*
X125523705Y-120740688D01*
X125519800Y-120726117D01*
X125519798Y-120726112D01*
X125460491Y-120623390D01*
X125460490Y-120623389D01*
X125460489Y-120623387D01*
X125438926Y-120601824D01*
X125417253Y-120549500D01*
X125438927Y-120497174D01*
X125491253Y-120475500D01*
X125754798Y-120475500D01*
X125754800Y-120475500D01*
X125856058Y-120433557D01*
X125933557Y-120356058D01*
X125933556Y-120356058D01*
X125968517Y-120321097D01*
X125968516Y-120321097D01*
X127933557Y-118356059D01*
X127955180Y-118303856D01*
X127975500Y-118254800D01*
X127975500Y-115792253D01*
X127997173Y-115739928D01*
X128060489Y-115676613D01*
X128119799Y-115573886D01*
X128150499Y-115459311D01*
X128150500Y-115459311D01*
X128150500Y-115340689D01*
X128150499Y-115340688D01*
X128119800Y-115226117D01*
X128119798Y-115226112D01*
X128060491Y-115123390D01*
X128060490Y-115123389D01*
X128060489Y-115123387D01*
X127976613Y-115039511D01*
X127976610Y-115039509D01*
X127976609Y-115039508D01*
X127873887Y-114980201D01*
X127873882Y-114980199D01*
X127759311Y-114949500D01*
X127759309Y-114949500D01*
X127640691Y-114949500D01*
X127640689Y-114949500D01*
X127526117Y-114980199D01*
X127526112Y-114980201D01*
X127423390Y-115039508D01*
X127339508Y-115123390D01*
X127280201Y-115226112D01*
X127280199Y-115226117D01*
X127249500Y-115340688D01*
X127249500Y-115459311D01*
X127280199Y-115573882D01*
X127280201Y-115573887D01*
X127339508Y-115676609D01*
X127339509Y-115676610D01*
X127339511Y-115676613D01*
X127402826Y-115739928D01*
X127424500Y-115792253D01*
X127424500Y-118055232D01*
X127402826Y-118107558D01*
X125607559Y-119902826D01*
X125555233Y-119924500D01*
X125491253Y-119924500D01*
X125438927Y-119902826D01*
X125417253Y-119850500D01*
X125438926Y-119798175D01*
X125460489Y-119776613D01*
X125519799Y-119673886D01*
X125550499Y-119559311D01*
X125550500Y-119559311D01*
X125550500Y-119440689D01*
X125550499Y-119440688D01*
X125546593Y-119426112D01*
X125519799Y-119326114D01*
X125496416Y-119285615D01*
X125489024Y-119229464D01*
X125496309Y-119211804D01*
X125501208Y-119203259D01*
X125524065Y-119180404D01*
X125566497Y-119089408D01*
X125568047Y-119086706D01*
X125583096Y-119075087D01*
X125603921Y-119055152D01*
X125656058Y-119033557D01*
X125733557Y-118956058D01*
X125733556Y-118956058D01*
X126097058Y-118592558D01*
X126139000Y-118491300D01*
X126139000Y-118381700D01*
X126139000Y-116928753D01*
X126160673Y-116876428D01*
X126223989Y-116813113D01*
X126283299Y-116710386D01*
X126313999Y-116595811D01*
X126314000Y-116595811D01*
X126314000Y-116477189D01*
X126313999Y-116477188D01*
X126283300Y-116362617D01*
X126283298Y-116362612D01*
X126223991Y-116259890D01*
X126223990Y-116259889D01*
X126223989Y-116259887D01*
X126140113Y-116176011D01*
X126140110Y-116176009D01*
X126140109Y-116176008D01*
X126037387Y-116116701D01*
X126037382Y-116116699D01*
X125922811Y-116086000D01*
X125922809Y-116086000D01*
X125804191Y-116086000D01*
X125804189Y-116086000D01*
X125689617Y-116116699D01*
X125689612Y-116116701D01*
X125586890Y-116176008D01*
X125503008Y-116259890D01*
X125443701Y-116362612D01*
X125443699Y-116362617D01*
X125413000Y-116477188D01*
X125413000Y-116595811D01*
X125443699Y-116710382D01*
X125443701Y-116710387D01*
X125503008Y-116813109D01*
X125503009Y-116813110D01*
X125503011Y-116813113D01*
X125566326Y-116876428D01*
X125588000Y-116928753D01*
X125588000Y-118291731D01*
X125566326Y-118344057D01*
X125559752Y-118350631D01*
X125507426Y-118372305D01*
X125455100Y-118350631D01*
X125440404Y-118335935D01*
X125411344Y-118322384D01*
X125333173Y-118285932D01*
X125333171Y-118285931D01*
X125297178Y-118281193D01*
X125284316Y-118279500D01*
X124935684Y-118279500D01*
X124924318Y-118280996D01*
X124886828Y-118285931D01*
X124779595Y-118335935D01*
X124695935Y-118419595D01*
X124667067Y-118481504D01*
X124625309Y-118519767D01*
X124568726Y-118517297D01*
X124532933Y-118481504D01*
X124504065Y-118419596D01*
X124420404Y-118335935D01*
X124313173Y-118285932D01*
X124313171Y-118285931D01*
X124277178Y-118281193D01*
X124264316Y-118279500D01*
X123954283Y-118279500D01*
X123901957Y-118257826D01*
X123882805Y-118224655D01*
X123869799Y-118176114D01*
X123810489Y-118073387D01*
X123726613Y-117989511D01*
X123726610Y-117989509D01*
X123726609Y-117989508D01*
X123623887Y-117930201D01*
X123623882Y-117930199D01*
X123509311Y-117899500D01*
X123509309Y-117899500D01*
X123390691Y-117899500D01*
X123390689Y-117899500D01*
X123276117Y-117930199D01*
X123276112Y-117930201D01*
X123173390Y-117989508D01*
X123089508Y-118073390D01*
X123030201Y-118176112D01*
X123030199Y-118176117D01*
X122999500Y-118290688D01*
X122999500Y-118409311D01*
X123030199Y-118523882D01*
X123030201Y-118523887D01*
X123089508Y-118626609D01*
X123089509Y-118626610D01*
X123089511Y-118626613D01*
X123173387Y-118710489D01*
X123173389Y-118710490D01*
X123173390Y-118710491D01*
X123242422Y-118750347D01*
X123276114Y-118769799D01*
X123276115Y-118769799D01*
X123276117Y-118769800D01*
X123297558Y-118775545D01*
X123390688Y-118800499D01*
X123390689Y-118800500D01*
X123480232Y-118800500D01*
X123532558Y-118822174D01*
X123597826Y-118887441D01*
X123619500Y-118939766D01*
X123619500Y-119024316D01*
X123620717Y-119033557D01*
X123625931Y-119073171D01*
X123628561Y-119078811D01*
X123675935Y-119180404D01*
X123759596Y-119264065D01*
X123866827Y-119314068D01*
X123915684Y-119320500D01*
X123915686Y-119320500D01*
X124264314Y-119320500D01*
X124264316Y-119320500D01*
X124313173Y-119314068D01*
X124420404Y-119264065D01*
X124504065Y-119180404D01*
X124532933Y-119118495D01*
X124550057Y-119102804D01*
X124564672Y-119084746D01*
X124570425Y-119084139D01*
X124574690Y-119080232D01*
X124597897Y-119081245D01*
X124620998Y-119078811D01*
X124625207Y-119082437D01*
X124631273Y-119082702D01*
X124665023Y-119114441D01*
X124666100Y-119116424D01*
X124695935Y-119180404D01*
X124706722Y-119191191D01*
X124711839Y-119200609D01*
X124713768Y-119218923D01*
X124720816Y-119235937D01*
X124717044Y-119250012D01*
X124717774Y-119256935D01*
X124713910Y-119261709D01*
X124710902Y-119272936D01*
X124680200Y-119326114D01*
X124649500Y-119440688D01*
X124649500Y-119559311D01*
X124680199Y-119673882D01*
X124680201Y-119673887D01*
X124739508Y-119776609D01*
X124739509Y-119776610D01*
X124739511Y-119776613D01*
X124761073Y-119798175D01*
X124782747Y-119850500D01*
X124761073Y-119902826D01*
X124708747Y-119924500D01*
X124254500Y-119924500D01*
X124202174Y-119902826D01*
X124180500Y-119850500D01*
X124180500Y-119775685D01*
X124174068Y-119726828D01*
X124174068Y-119726827D01*
X124124065Y-119619596D01*
X124040404Y-119535935D01*
X123933173Y-119485932D01*
X123933171Y-119485931D01*
X123897178Y-119481193D01*
X123884316Y-119479500D01*
X123535684Y-119479500D01*
X123524318Y-119480996D01*
X123486828Y-119485931D01*
X123379595Y-119535935D01*
X123295935Y-119619595D01*
X123295935Y-119619596D01*
X123277416Y-119659311D01*
X123267067Y-119681504D01*
X123225309Y-119719767D01*
X123168726Y-119717297D01*
X123132933Y-119681504D01*
X123129379Y-119673882D01*
X123104065Y-119619596D01*
X123020404Y-119535935D01*
X122913173Y-119485932D01*
X122913171Y-119485931D01*
X122877178Y-119481193D01*
X122864316Y-119479500D01*
X122864314Y-119479500D01*
X122690886Y-119479500D01*
X122638560Y-119457826D01*
X122622608Y-119430197D01*
X122621654Y-119430593D01*
X122619798Y-119426112D01*
X122560491Y-119323390D01*
X122560490Y-119323389D01*
X122560489Y-119323387D01*
X122476613Y-119239511D01*
X122476610Y-119239509D01*
X122476609Y-119239508D01*
X122373887Y-119180201D01*
X122373882Y-119180199D01*
X122259311Y-119149500D01*
X122259309Y-119149500D01*
X122140691Y-119149500D01*
X122140689Y-119149500D01*
X122026117Y-119180199D01*
X122026112Y-119180201D01*
X121923390Y-119239508D01*
X121839508Y-119323390D01*
X121780201Y-119426112D01*
X121780199Y-119426117D01*
X121749500Y-119540688D01*
X121749500Y-119659311D01*
X121780199Y-119773882D01*
X121780201Y-119773887D01*
X121839508Y-119876609D01*
X121839509Y-119876610D01*
X121839511Y-119876613D01*
X121923387Y-119960489D01*
X121923389Y-119960490D01*
X121923390Y-119960491D01*
X122021574Y-120017178D01*
X122026114Y-120019799D01*
X122026115Y-120019799D01*
X122026117Y-120019800D01*
X122080184Y-120034287D01*
X122140688Y-120050499D01*
X122140689Y-120050500D01*
X122140691Y-120050500D01*
X122145500Y-120050500D01*
X122197826Y-120072174D01*
X122219500Y-120124500D01*
X122219500Y-120224314D01*
X122225931Y-120273171D01*
X122225932Y-120273173D01*
X122248279Y-120321097D01*
X122269751Y-120367142D01*
X122272221Y-120423726D01*
X122233958Y-120465483D01*
X122177374Y-120467953D01*
X122150358Y-120450742D01*
X121666059Y-119966444D01*
X121666058Y-119966443D01*
X121651684Y-119960489D01*
X121564800Y-119924500D01*
X121564799Y-119924500D01*
X120444767Y-119924500D01*
X120392441Y-119902826D01*
X118494485Y-118004870D01*
X119719500Y-118004870D01*
X119719500Y-118125128D01*
X119742959Y-118243069D01*
X119742961Y-118243076D01*
X119788981Y-118354179D01*
X119855791Y-118454167D01*
X119855794Y-118454171D01*
X119940829Y-118539206D01*
X120040820Y-118606018D01*
X120151924Y-118652039D01*
X120269871Y-118675500D01*
X120269872Y-118675500D01*
X120390128Y-118675500D01*
X120390129Y-118675500D01*
X120508076Y-118652039D01*
X120619180Y-118606018D01*
X120719171Y-118539206D01*
X120804206Y-118454171D01*
X120871018Y-118354180D01*
X120917039Y-118243076D01*
X120940500Y-118125129D01*
X120940500Y-118004871D01*
X120917039Y-117886924D01*
X120871018Y-117775820D01*
X120804206Y-117675829D01*
X120719171Y-117590794D01*
X120719167Y-117590791D01*
X120619179Y-117523981D01*
X120508076Y-117477961D01*
X120508069Y-117477959D01*
X120419215Y-117460285D01*
X120390129Y-117454500D01*
X120269871Y-117454500D01*
X120246538Y-117459141D01*
X120151930Y-117477959D01*
X120151923Y-117477961D01*
X120040820Y-117523981D01*
X119940832Y-117590791D01*
X119855791Y-117675832D01*
X119788981Y-117775820D01*
X119742961Y-117886923D01*
X119742959Y-117886930D01*
X119719500Y-118004870D01*
X118494485Y-118004870D01*
X118397174Y-117907559D01*
X118375500Y-117855233D01*
X118375500Y-116492253D01*
X118397173Y-116439928D01*
X118460489Y-116376613D01*
X118519799Y-116273886D01*
X118550499Y-116159311D01*
X118550500Y-116159311D01*
X118550500Y-116040689D01*
X118550499Y-116040688D01*
X118541828Y-116008329D01*
X118519799Y-115926114D01*
X118485030Y-115865893D01*
X118460491Y-115823390D01*
X118460490Y-115823389D01*
X118460489Y-115823387D01*
X118376613Y-115739511D01*
X118376610Y-115739509D01*
X118376609Y-115739508D01*
X118273887Y-115680201D01*
X118273882Y-115680199D01*
X118159311Y-115649500D01*
X118159309Y-115649500D01*
X118040691Y-115649500D01*
X118040689Y-115649500D01*
X117926117Y-115680199D01*
X117926112Y-115680201D01*
X117823390Y-115739508D01*
X117739508Y-115823390D01*
X117680201Y-115926112D01*
X117680199Y-115926117D01*
X117649500Y-116040688D01*
X108500500Y-116040688D01*
X108500500Y-114040688D01*
X181449500Y-114040688D01*
X181449500Y-114159311D01*
X181480199Y-114273882D01*
X181480201Y-114273887D01*
X181539508Y-114376609D01*
X181539509Y-114376610D01*
X181539511Y-114376613D01*
X181623387Y-114460489D01*
X181726114Y-114519799D01*
X181726115Y-114519799D01*
X181726117Y-114519800D01*
X181783402Y-114535149D01*
X181840688Y-114550499D01*
X181840689Y-114550500D01*
X181840691Y-114550500D01*
X181959311Y-114550500D01*
X181959311Y-114550499D01*
X182073886Y-114519799D01*
X182176613Y-114460489D01*
X182260489Y-114376613D01*
X182319799Y-114273886D01*
X182324656Y-114255756D01*
X182343806Y-114222585D01*
X184296179Y-112270213D01*
X188600001Y-112270213D01*
X188602908Y-112295289D01*
X188602910Y-112295295D01*
X188648213Y-112397899D01*
X188727521Y-112477207D01*
X188830124Y-112522510D01*
X188830123Y-112522510D01*
X188855210Y-112525420D01*
X190375000Y-112525420D01*
X190575000Y-112525420D01*
X192094792Y-112525420D01*
X192119868Y-112522512D01*
X192119874Y-112522510D01*
X192222478Y-112477207D01*
X192301786Y-112397899D01*
X192347089Y-112295296D01*
X192350000Y-112270213D01*
X193650001Y-112270213D01*
X193652908Y-112295289D01*
X193652910Y-112295295D01*
X193698213Y-112397899D01*
X193777521Y-112477207D01*
X193880124Y-112522510D01*
X193880123Y-112522510D01*
X193905210Y-112525420D01*
X195425000Y-112525420D01*
X195625000Y-112525420D01*
X197144792Y-112525420D01*
X197169868Y-112522512D01*
X197169874Y-112522510D01*
X197272478Y-112477207D01*
X197351786Y-112397899D01*
X197397089Y-112295296D01*
X197400000Y-112270210D01*
X197400000Y-111825421D01*
X195625000Y-111825421D01*
X195625000Y-112525420D01*
X195425000Y-112525420D01*
X195425000Y-111825421D01*
X193650001Y-111825421D01*
X193650001Y-112270213D01*
X192350000Y-112270213D01*
X192350000Y-112270210D01*
X192350000Y-111825421D01*
X190575000Y-111825421D01*
X190575000Y-112525420D01*
X190375000Y-112525420D01*
X190375000Y-111825421D01*
X188600001Y-111825421D01*
X188600001Y-112270213D01*
X184296179Y-112270213D01*
X185385761Y-111180631D01*
X188600000Y-111180631D01*
X188600000Y-111625421D01*
X190375000Y-111625421D01*
X190575000Y-111625421D01*
X192349999Y-111625421D01*
X192349999Y-111180631D01*
X193650000Y-111180631D01*
X193650000Y-111625421D01*
X195425000Y-111625421D01*
X195625000Y-111625421D01*
X197399999Y-111625421D01*
X197399999Y-111180628D01*
X197397091Y-111155552D01*
X197397089Y-111155546D01*
X197351786Y-111052942D01*
X197272478Y-110973634D01*
X197169875Y-110928331D01*
X197169876Y-110928331D01*
X197144789Y-110925421D01*
X195625000Y-110925421D01*
X195625000Y-111625421D01*
X195425000Y-111625421D01*
X195425000Y-110925421D01*
X193905207Y-110925421D01*
X193880131Y-110928329D01*
X193880125Y-110928331D01*
X193777521Y-110973634D01*
X193698213Y-111052942D01*
X193652910Y-111155545D01*
X193650000Y-111180631D01*
X192349999Y-111180631D01*
X192349999Y-111180628D01*
X192347091Y-111155552D01*
X192347089Y-111155546D01*
X192301786Y-111052942D01*
X192222478Y-110973634D01*
X192119875Y-110928331D01*
X192119876Y-110928331D01*
X192094789Y-110925421D01*
X190575000Y-110925421D01*
X190575000Y-111625421D01*
X190375000Y-111625421D01*
X190375000Y-110925421D01*
X188855207Y-110925421D01*
X188830131Y-110928329D01*
X188830125Y-110928331D01*
X188727521Y-110973634D01*
X188648213Y-111052942D01*
X188602910Y-111155545D01*
X188600000Y-111180631D01*
X185385761Y-111180631D01*
X186958798Y-109607595D01*
X187011124Y-109585921D01*
X188625500Y-109585921D01*
X188677826Y-109607595D01*
X188699500Y-109659921D01*
X188699500Y-109705169D01*
X188704481Y-109730210D01*
X188711133Y-109763653D01*
X188719793Y-109776613D01*
X188755448Y-109829973D01*
X188797242Y-109857899D01*
X188821767Y-109874287D01*
X188821768Y-109874287D01*
X188821769Y-109874288D01*
X188880252Y-109885921D01*
X188880254Y-109885921D01*
X192069746Y-109885921D01*
X192069748Y-109885921D01*
X192128231Y-109874288D01*
X192194552Y-109829973D01*
X192238867Y-109763652D01*
X192245518Y-109730213D01*
X193650001Y-109730213D01*
X193652908Y-109755289D01*
X193652910Y-109755295D01*
X193698213Y-109857899D01*
X193777521Y-109937207D01*
X193880124Y-109982510D01*
X193880123Y-109982510D01*
X193905210Y-109985420D01*
X195425000Y-109985420D01*
X195625000Y-109985420D01*
X197144792Y-109985420D01*
X197169868Y-109982512D01*
X197169874Y-109982510D01*
X197272478Y-109937207D01*
X197351786Y-109857899D01*
X197397089Y-109755296D01*
X197400000Y-109730210D01*
X197400000Y-109285421D01*
X195625000Y-109285421D01*
X195625000Y-109985420D01*
X195425000Y-109985420D01*
X195425000Y-109285421D01*
X193650001Y-109285421D01*
X193650001Y-109730213D01*
X192245518Y-109730213D01*
X192250500Y-109705169D01*
X192250500Y-108665673D01*
X192245519Y-108640631D01*
X193650000Y-108640631D01*
X193650000Y-109085421D01*
X195425000Y-109085421D01*
X195625000Y-109085421D01*
X197399999Y-109085421D01*
X197399999Y-108640628D01*
X197397091Y-108615552D01*
X197397089Y-108615546D01*
X197351786Y-108512942D01*
X197272478Y-108433634D01*
X197169875Y-108388331D01*
X197169876Y-108388331D01*
X197144789Y-108385421D01*
X195625000Y-108385421D01*
X195625000Y-109085421D01*
X195425000Y-109085421D01*
X195425000Y-108385421D01*
X193905207Y-108385421D01*
X193880131Y-108388329D01*
X193880125Y-108388331D01*
X193777521Y-108433634D01*
X193698213Y-108512942D01*
X193652910Y-108615545D01*
X193650000Y-108640631D01*
X192245519Y-108640631D01*
X192238867Y-108607190D01*
X192194552Y-108540869D01*
X192152757Y-108512942D01*
X192128232Y-108496554D01*
X192128233Y-108496554D01*
X192098989Y-108490737D01*
X192069748Y-108484921D01*
X188880252Y-108484921D01*
X188851010Y-108490737D01*
X188821767Y-108496554D01*
X188755449Y-108540868D01*
X188755447Y-108540870D01*
X188711133Y-108607188D01*
X188699500Y-108665674D01*
X188699500Y-108710921D01*
X188677826Y-108763247D01*
X188625500Y-108784921D01*
X186867306Y-108784921D01*
X186761852Y-108784921D01*
X186710921Y-108798567D01*
X186659990Y-108812214D01*
X186659986Y-108812216D01*
X186568669Y-108864938D01*
X181777415Y-113656190D01*
X181744245Y-113675342D01*
X181726113Y-113680201D01*
X181726112Y-113680201D01*
X181623390Y-113739508D01*
X181539508Y-113823390D01*
X181480201Y-113926112D01*
X181480199Y-113926117D01*
X181449500Y-114040688D01*
X108500500Y-114040688D01*
X108500500Y-93940688D01*
X152549500Y-93940688D01*
X152549500Y-94059311D01*
X152580199Y-94173882D01*
X152580201Y-94173887D01*
X152639508Y-94276609D01*
X152639509Y-94276610D01*
X152639511Y-94276613D01*
X152723387Y-94360489D01*
X152723389Y-94360490D01*
X152723390Y-94360491D01*
X152826112Y-94419798D01*
X152826114Y-94419799D01*
X152826115Y-94419799D01*
X152826117Y-94419800D01*
X152858666Y-94428522D01*
X152903599Y-94463001D01*
X152910991Y-94519153D01*
X152876512Y-94564086D01*
X152858666Y-94571478D01*
X152826117Y-94580199D01*
X152826112Y-94580201D01*
X152723390Y-94639508D01*
X152639508Y-94723390D01*
X152580201Y-94826112D01*
X152580199Y-94826117D01*
X152549500Y-94940688D01*
X152549500Y-95059311D01*
X152580199Y-95173882D01*
X152580201Y-95173887D01*
X152639508Y-95276609D01*
X152639509Y-95276610D01*
X152639511Y-95276613D01*
X152723387Y-95360489D01*
X152723389Y-95360490D01*
X152723390Y-95360491D01*
X152756491Y-95379602D01*
X152826114Y-95419799D01*
X152826115Y-95419799D01*
X152826117Y-95419800D01*
X152858666Y-95428522D01*
X152903599Y-95463001D01*
X152910991Y-95519153D01*
X152876512Y-95564086D01*
X152858666Y-95571478D01*
X152826117Y-95580199D01*
X152826112Y-95580201D01*
X152723390Y-95639508D01*
X152639508Y-95723390D01*
X152580201Y-95826112D01*
X152580199Y-95826117D01*
X152549500Y-95940688D01*
X152549500Y-96059311D01*
X152580199Y-96173882D01*
X152580201Y-96173887D01*
X152639508Y-96276609D01*
X152639509Y-96276610D01*
X152639511Y-96276613D01*
X152723387Y-96360489D01*
X152826114Y-96419799D01*
X152826115Y-96419799D01*
X152826117Y-96419800D01*
X152858666Y-96428522D01*
X152903599Y-96463001D01*
X152910991Y-96519153D01*
X152876512Y-96564086D01*
X152858666Y-96571478D01*
X152826117Y-96580199D01*
X152826112Y-96580201D01*
X152723390Y-96639508D01*
X152639508Y-96723390D01*
X152580201Y-96826112D01*
X152580199Y-96826117D01*
X152549500Y-96940688D01*
X152549500Y-97059311D01*
X152580199Y-97173882D01*
X152580201Y-97173887D01*
X152639508Y-97276609D01*
X152639509Y-97276610D01*
X152639511Y-97276613D01*
X152723387Y-97360489D01*
X152723389Y-97360490D01*
X152723390Y-97360491D01*
X152756491Y-97379602D01*
X152826114Y-97419799D01*
X152826115Y-97419799D01*
X152826117Y-97419800D01*
X152856224Y-97427867D01*
X152940688Y-97450499D01*
X152940689Y-97450500D01*
X152940691Y-97450500D01*
X153059311Y-97450500D01*
X153059311Y-97450499D01*
X153173886Y-97419799D01*
X153276613Y-97360489D01*
X153339928Y-97297174D01*
X153392254Y-97275500D01*
X153555233Y-97275500D01*
X153607559Y-97297174D01*
X153908559Y-97598174D01*
X153930233Y-97650500D01*
X153908559Y-97702826D01*
X153856233Y-97724500D01*
X153792254Y-97724500D01*
X153739928Y-97702826D01*
X153676613Y-97639511D01*
X153676610Y-97639509D01*
X153676609Y-97639508D01*
X153573887Y-97580201D01*
X153573882Y-97580199D01*
X153459311Y-97549500D01*
X153459309Y-97549500D01*
X153340691Y-97549500D01*
X153340689Y-97549500D01*
X153226117Y-97580199D01*
X153226112Y-97580201D01*
X153123390Y-97639508D01*
X153039508Y-97723390D01*
X152980201Y-97826112D01*
X152980199Y-97826117D01*
X152949500Y-97940688D01*
X152949500Y-97990357D01*
X152927826Y-98042683D01*
X152894653Y-98061835D01*
X152826117Y-98080199D01*
X152826112Y-98080201D01*
X152723390Y-98139508D01*
X152639508Y-98223390D01*
X152580201Y-98326112D01*
X152580199Y-98326117D01*
X152549500Y-98440688D01*
X152549500Y-98559311D01*
X152580199Y-98673882D01*
X152580201Y-98673887D01*
X152639508Y-98776609D01*
X152639509Y-98776610D01*
X152639511Y-98776613D01*
X152723387Y-98860489D01*
X152723389Y-98860490D01*
X152723390Y-98860491D01*
X152810411Y-98910733D01*
X152826114Y-98919799D01*
X152826115Y-98919799D01*
X152826117Y-98919800D01*
X152858666Y-98928522D01*
X152903599Y-98963001D01*
X152910991Y-99019153D01*
X152876512Y-99064086D01*
X152858666Y-99071478D01*
X152826117Y-99080199D01*
X152826112Y-99080201D01*
X152723390Y-99139508D01*
X152639508Y-99223390D01*
X152580201Y-99326112D01*
X152580199Y-99326117D01*
X152549500Y-99440688D01*
X152549500Y-99559311D01*
X152580199Y-99673882D01*
X152580201Y-99673887D01*
X152639508Y-99776609D01*
X152639509Y-99776610D01*
X152639511Y-99776613D01*
X152723387Y-99860489D01*
X152723389Y-99860490D01*
X152723390Y-99860491D01*
X152773233Y-99889268D01*
X152826114Y-99919799D01*
X152826115Y-99919799D01*
X152826117Y-99919800D01*
X152858666Y-99928522D01*
X152903599Y-99963001D01*
X152910991Y-100019153D01*
X152876512Y-100064086D01*
X152858666Y-100071478D01*
X152826117Y-100080199D01*
X152826112Y-100080201D01*
X152723390Y-100139508D01*
X152639508Y-100223390D01*
X152580201Y-100326112D01*
X152580199Y-100326117D01*
X152549500Y-100440688D01*
X152549500Y-100559311D01*
X152580199Y-100673882D01*
X152580201Y-100673887D01*
X152639508Y-100776609D01*
X152639509Y-100776610D01*
X152639511Y-100776613D01*
X152723387Y-100860489D01*
X152723389Y-100860490D01*
X152723390Y-100860491D01*
X152810411Y-100910733D01*
X152826114Y-100919799D01*
X152826115Y-100919799D01*
X152826117Y-100919800D01*
X152858666Y-100928522D01*
X152903599Y-100963001D01*
X152910991Y-101019153D01*
X152876512Y-101064086D01*
X152858666Y-101071478D01*
X152826117Y-101080199D01*
X152826112Y-101080201D01*
X152723390Y-101139508D01*
X152639508Y-101223390D01*
X152580201Y-101326112D01*
X152580199Y-101326117D01*
X152549500Y-101440688D01*
X152549500Y-101559311D01*
X152580199Y-101673882D01*
X152580201Y-101673887D01*
X152639508Y-101776609D01*
X152639509Y-101776610D01*
X152639511Y-101776613D01*
X152723387Y-101860489D01*
X152723389Y-101860490D01*
X152723390Y-101860491D01*
X152773233Y-101889268D01*
X152826114Y-101919799D01*
X152826115Y-101919799D01*
X152826117Y-101919800D01*
X152858666Y-101928522D01*
X152903599Y-101963001D01*
X152910991Y-102019153D01*
X152876512Y-102064086D01*
X152858666Y-102071478D01*
X152826117Y-102080199D01*
X152826112Y-102080201D01*
X152723390Y-102139508D01*
X152639508Y-102223390D01*
X152580201Y-102326112D01*
X152580199Y-102326117D01*
X152549500Y-102440688D01*
X152549500Y-102559311D01*
X152580199Y-102673882D01*
X152580201Y-102673887D01*
X152639508Y-102776609D01*
X152639509Y-102776610D01*
X152639511Y-102776613D01*
X152723387Y-102860489D01*
X152723389Y-102860490D01*
X152723390Y-102860491D01*
X152810411Y-102910733D01*
X152826114Y-102919799D01*
X152826115Y-102919799D01*
X152826117Y-102919800D01*
X152858666Y-102928522D01*
X152903599Y-102963001D01*
X152910991Y-103019153D01*
X152876512Y-103064086D01*
X152858666Y-103071478D01*
X152826117Y-103080199D01*
X152826112Y-103080201D01*
X152723390Y-103139508D01*
X152639508Y-103223390D01*
X152580201Y-103326112D01*
X152580199Y-103326117D01*
X152549500Y-103440688D01*
X152549500Y-103559311D01*
X152580199Y-103673882D01*
X152580201Y-103673887D01*
X152639508Y-103776609D01*
X152639509Y-103776610D01*
X152639511Y-103776613D01*
X152723387Y-103860489D01*
X152723389Y-103860490D01*
X152723390Y-103860491D01*
X152809992Y-103910491D01*
X152826114Y-103919799D01*
X152826115Y-103919799D01*
X152826117Y-103919800D01*
X152858666Y-103928522D01*
X152903599Y-103963001D01*
X152910991Y-104019153D01*
X152876512Y-104064086D01*
X152858666Y-104071478D01*
X152826117Y-104080199D01*
X152826112Y-104080201D01*
X152723390Y-104139508D01*
X152639508Y-104223390D01*
X152580201Y-104326112D01*
X152580199Y-104326117D01*
X152549500Y-104440688D01*
X152549500Y-104559311D01*
X152580199Y-104673882D01*
X152580201Y-104673887D01*
X152639508Y-104776609D01*
X152639509Y-104776610D01*
X152639511Y-104776613D01*
X152723387Y-104860489D01*
X152723389Y-104860490D01*
X152723390Y-104860491D01*
X152810411Y-104910733D01*
X152826114Y-104919799D01*
X152826115Y-104919799D01*
X152826117Y-104919800D01*
X152858666Y-104928522D01*
X152903599Y-104963001D01*
X152910991Y-105019153D01*
X152876512Y-105064086D01*
X152858666Y-105071478D01*
X152826117Y-105080199D01*
X152826112Y-105080201D01*
X152723390Y-105139508D01*
X152639508Y-105223390D01*
X152580201Y-105326112D01*
X152580199Y-105326117D01*
X152549500Y-105440688D01*
X152549500Y-105559311D01*
X152580199Y-105673882D01*
X152580201Y-105673887D01*
X152639508Y-105776609D01*
X152639509Y-105776610D01*
X152639511Y-105776613D01*
X152723387Y-105860489D01*
X152723389Y-105860490D01*
X152723390Y-105860491D01*
X152809992Y-105910491D01*
X152826114Y-105919799D01*
X152894653Y-105938164D01*
X152939586Y-105972642D01*
X152949500Y-106009642D01*
X152949500Y-106059311D01*
X152980199Y-106173882D01*
X152980201Y-106173887D01*
X153039508Y-106276609D01*
X153039509Y-106276610D01*
X153039511Y-106276613D01*
X153123387Y-106360489D01*
X153123389Y-106360490D01*
X153123390Y-106360491D01*
X153209992Y-106410491D01*
X153226114Y-106419799D01*
X153226115Y-106419799D01*
X153226117Y-106419800D01*
X153283402Y-106435149D01*
X153340688Y-106450499D01*
X153340689Y-106450500D01*
X153340691Y-106450500D01*
X153459311Y-106450500D01*
X153459311Y-106450499D01*
X153573886Y-106419799D01*
X153676613Y-106360489D01*
X153739928Y-106297174D01*
X153792254Y-106275500D01*
X154556233Y-106275500D01*
X154608559Y-106297174D01*
X154630233Y-106349500D01*
X154608559Y-106401826D01*
X154307559Y-106702826D01*
X154255233Y-106724500D01*
X153392254Y-106724500D01*
X153339928Y-106702826D01*
X153326369Y-106689267D01*
X153276613Y-106639511D01*
X153276610Y-106639509D01*
X153276609Y-106639508D01*
X153173887Y-106580201D01*
X153173882Y-106580199D01*
X153059311Y-106549500D01*
X153059309Y-106549500D01*
X152940691Y-106549500D01*
X152940689Y-106549500D01*
X152826117Y-106580199D01*
X152826112Y-106580201D01*
X152723390Y-106639508D01*
X152639508Y-106723390D01*
X152580201Y-106826112D01*
X152580199Y-106826117D01*
X152549500Y-106940688D01*
X152549500Y-107059311D01*
X152580199Y-107173882D01*
X152580201Y-107173887D01*
X152639508Y-107276609D01*
X152639509Y-107276610D01*
X152639511Y-107276613D01*
X152723387Y-107360489D01*
X152723389Y-107360490D01*
X152723390Y-107360491D01*
X152809992Y-107410491D01*
X152826114Y-107419799D01*
X152826115Y-107419799D01*
X152826117Y-107419800D01*
X152858666Y-107428522D01*
X152903599Y-107463001D01*
X152910991Y-107519153D01*
X152876512Y-107564086D01*
X152858666Y-107571478D01*
X152826117Y-107580199D01*
X152826112Y-107580201D01*
X152723390Y-107639508D01*
X152639508Y-107723390D01*
X152580201Y-107826112D01*
X152580199Y-107826117D01*
X152549500Y-107940688D01*
X152549500Y-108059311D01*
X152580199Y-108173882D01*
X152580201Y-108173887D01*
X152639508Y-108276609D01*
X152639509Y-108276610D01*
X152639511Y-108276613D01*
X152723387Y-108360489D01*
X152723389Y-108360490D01*
X152723390Y-108360491D01*
X152809992Y-108410491D01*
X152826114Y-108419799D01*
X152826115Y-108419799D01*
X152826117Y-108419800D01*
X152858666Y-108428522D01*
X152903599Y-108463001D01*
X152910991Y-108519153D01*
X152876512Y-108564086D01*
X152858666Y-108571478D01*
X152826117Y-108580199D01*
X152826112Y-108580201D01*
X152723390Y-108639508D01*
X152639508Y-108723390D01*
X152580201Y-108826112D01*
X152580199Y-108826117D01*
X152549500Y-108940688D01*
X152549500Y-109059311D01*
X152580199Y-109173882D01*
X152580201Y-109173887D01*
X152639508Y-109276609D01*
X152639509Y-109276610D01*
X152639511Y-109276613D01*
X152723387Y-109360489D01*
X152723389Y-109360490D01*
X152723390Y-109360491D01*
X152809992Y-109410491D01*
X152826114Y-109419799D01*
X152826115Y-109419799D01*
X152826117Y-109419800D01*
X152858666Y-109428522D01*
X152903599Y-109463001D01*
X152910991Y-109519153D01*
X152876512Y-109564086D01*
X152858666Y-109571478D01*
X152826117Y-109580199D01*
X152826112Y-109580201D01*
X152723390Y-109639508D01*
X152639508Y-109723390D01*
X152580201Y-109826112D01*
X152580199Y-109826117D01*
X152549500Y-109940688D01*
X152549500Y-110059311D01*
X152580199Y-110173882D01*
X152580201Y-110173887D01*
X152639508Y-110276609D01*
X152639509Y-110276610D01*
X152639511Y-110276613D01*
X152723387Y-110360489D01*
X152723389Y-110360490D01*
X152723390Y-110360491D01*
X152809992Y-110410491D01*
X152826114Y-110419799D01*
X152894653Y-110438164D01*
X152939586Y-110472642D01*
X152949500Y-110509642D01*
X152949500Y-110559311D01*
X152980199Y-110673882D01*
X152980201Y-110673887D01*
X153039508Y-110776609D01*
X153039509Y-110776610D01*
X153039511Y-110776613D01*
X153123387Y-110860489D01*
X153123389Y-110860490D01*
X153123390Y-110860491D01*
X153209992Y-110910491D01*
X153226114Y-110919799D01*
X153226115Y-110919799D01*
X153226117Y-110919800D01*
X153283402Y-110935149D01*
X153340688Y-110950499D01*
X153340689Y-110950500D01*
X153340691Y-110950500D01*
X153459311Y-110950500D01*
X153459311Y-110950499D01*
X153573886Y-110919799D01*
X153676613Y-110860489D01*
X153696414Y-110840688D01*
X156049500Y-110840688D01*
X156049500Y-110959311D01*
X156080199Y-111073882D01*
X156080201Y-111073887D01*
X156139508Y-111176609D01*
X156139509Y-111176610D01*
X156139511Y-111176613D01*
X156223387Y-111260489D01*
X156326114Y-111319799D01*
X156326115Y-111319799D01*
X156326117Y-111319800D01*
X156383402Y-111335149D01*
X156440688Y-111350499D01*
X156440689Y-111350500D01*
X156440691Y-111350500D01*
X156559311Y-111350500D01*
X156559311Y-111350499D01*
X156673886Y-111319799D01*
X156776613Y-111260489D01*
X156860489Y-111176613D01*
X156919799Y-111073886D01*
X156950499Y-110959311D01*
X156950500Y-110959311D01*
X156950500Y-110840689D01*
X156950499Y-110840688D01*
X156919800Y-110726117D01*
X156919798Y-110726112D01*
X156860491Y-110623390D01*
X156860490Y-110623389D01*
X156860489Y-110623387D01*
X156776613Y-110539511D01*
X156776610Y-110539509D01*
X156776609Y-110539508D01*
X156673887Y-110480201D01*
X156673882Y-110480199D01*
X156559311Y-110449500D01*
X156559309Y-110449500D01*
X156440691Y-110449500D01*
X156440689Y-110449500D01*
X156326117Y-110480199D01*
X156326112Y-110480201D01*
X156223390Y-110539508D01*
X156139508Y-110623390D01*
X156080201Y-110726112D01*
X156080199Y-110726117D01*
X156049500Y-110840688D01*
X153696414Y-110840688D01*
X153739928Y-110797174D01*
X153792254Y-110775500D01*
X154093193Y-110775500D01*
X154093194Y-110775500D01*
X154194452Y-110733557D01*
X154271951Y-110656058D01*
X154271950Y-110656058D01*
X154306911Y-110621097D01*
X154306910Y-110621097D01*
X155876146Y-109051862D01*
X155896088Y-109043602D01*
X155914035Y-109031611D01*
X155921468Y-109033089D01*
X155928471Y-109030189D01*
X155969581Y-109042659D01*
X156037867Y-109088287D01*
X156037868Y-109088287D01*
X156038278Y-109088561D01*
X156069744Y-109135654D01*
X156068644Y-109169243D01*
X156049500Y-109240688D01*
X156049500Y-109359311D01*
X156080199Y-109473882D01*
X156080201Y-109473887D01*
X156139508Y-109576609D01*
X156139509Y-109576610D01*
X156139511Y-109576613D01*
X156223387Y-109660489D01*
X156223389Y-109660490D01*
X156223390Y-109660491D01*
X156273649Y-109689508D01*
X156326114Y-109719799D01*
X156326115Y-109719799D01*
X156326117Y-109719800D01*
X156364968Y-109730210D01*
X156440688Y-109750499D01*
X156440689Y-109750500D01*
X156440691Y-109750500D01*
X156559311Y-109750500D01*
X156559311Y-109750499D01*
X156673886Y-109719799D01*
X156776613Y-109660489D01*
X156860489Y-109576613D01*
X156919799Y-109473886D01*
X156950499Y-109359311D01*
X156950500Y-109359311D01*
X156950500Y-109240689D01*
X156950499Y-109240688D01*
X156945404Y-109221674D01*
X156919799Y-109126114D01*
X156919798Y-109126112D01*
X156919207Y-109123906D01*
X156926599Y-109067754D01*
X156949574Y-109043223D01*
X156951762Y-109041762D01*
X156998287Y-108972133D01*
X157005418Y-108936282D01*
X158890000Y-108936282D01*
X158893007Y-108962206D01*
X158939821Y-109068227D01*
X159021772Y-109150178D01*
X159127793Y-109196992D01*
X159153718Y-109200000D01*
X159440000Y-109200000D01*
X159440000Y-108900000D01*
X158890000Y-108900000D01*
X158890000Y-108936282D01*
X157005418Y-108936282D01*
X157010500Y-108910733D01*
X157010499Y-108689268D01*
X157005417Y-108663717D01*
X158890000Y-108663717D01*
X158890000Y-108700000D01*
X159170551Y-108700000D01*
X159177798Y-108700356D01*
X159179261Y-108700499D01*
X159179262Y-108700499D01*
X159179267Y-108700500D01*
X159466001Y-108700499D01*
X159518326Y-108722173D01*
X159540000Y-108774499D01*
X159540000Y-108800000D01*
X159566000Y-108800000D01*
X159618326Y-108821674D01*
X159640000Y-108874000D01*
X159640000Y-109200000D01*
X159724841Y-109200000D01*
X159777167Y-109221674D01*
X159798841Y-109274000D01*
X159788927Y-109311000D01*
X159780201Y-109326112D01*
X159780199Y-109326117D01*
X159749500Y-109440688D01*
X159749500Y-109559311D01*
X159780199Y-109673882D01*
X159780201Y-109673887D01*
X159839508Y-109776609D01*
X159839509Y-109776610D01*
X159839511Y-109776613D01*
X159923387Y-109860489D01*
X159923389Y-109860490D01*
X159923390Y-109860491D01*
X159950450Y-109876114D01*
X160026114Y-109919799D01*
X160026115Y-109919799D01*
X160026117Y-109919800D01*
X160083402Y-109935149D01*
X160140688Y-109950499D01*
X160140689Y-109950500D01*
X160140691Y-109950500D01*
X160259311Y-109950500D01*
X160259311Y-109950499D01*
X160373886Y-109919799D01*
X160476613Y-109860489D01*
X160560489Y-109776613D01*
X160619799Y-109673886D01*
X160650499Y-109559311D01*
X160650500Y-109559311D01*
X160650500Y-109440689D01*
X160650499Y-109440688D01*
X160619800Y-109326117D01*
X160619798Y-109326112D01*
X160581946Y-109260551D01*
X160574553Y-109204399D01*
X160609032Y-109159465D01*
X160665184Y-109152072D01*
X160698357Y-109171224D01*
X161446930Y-109919798D01*
X162140259Y-110613127D01*
X162159411Y-110646300D01*
X162180199Y-110723882D01*
X162180201Y-110723887D01*
X162239508Y-110826609D01*
X162239509Y-110826610D01*
X162239511Y-110826613D01*
X162323387Y-110910489D01*
X162323389Y-110910490D01*
X162323390Y-110910491D01*
X162392687Y-110950500D01*
X162426114Y-110969799D01*
X162426115Y-110969799D01*
X162426117Y-110969800D01*
X162440426Y-110973634D01*
X162540688Y-111000499D01*
X162540689Y-111000500D01*
X162540691Y-111000500D01*
X162659311Y-111000500D01*
X162659311Y-111000499D01*
X162773886Y-110969799D01*
X162876613Y-110910489D01*
X162960489Y-110826613D01*
X163019799Y-110723886D01*
X163050499Y-110609311D01*
X163050500Y-110609311D01*
X163050500Y-110559642D01*
X163072174Y-110507316D01*
X163105345Y-110488164D01*
X163173886Y-110469799D01*
X163276613Y-110410489D01*
X163360489Y-110326613D01*
X163419799Y-110223886D01*
X163450499Y-110109311D01*
X163450500Y-110109311D01*
X163450500Y-109990689D01*
X163450499Y-109990688D01*
X163449087Y-109985420D01*
X163419799Y-109876114D01*
X163410778Y-109860489D01*
X163360491Y-109773390D01*
X163360490Y-109773389D01*
X163360489Y-109773387D01*
X163276613Y-109689511D01*
X163276610Y-109689509D01*
X163276609Y-109689508D01*
X163173887Y-109630201D01*
X163173882Y-109630199D01*
X163141333Y-109621478D01*
X163096400Y-109587000D01*
X163089008Y-109530847D01*
X163123486Y-109485914D01*
X163141333Y-109478522D01*
X163173882Y-109469800D01*
X163173881Y-109469800D01*
X163173886Y-109469799D01*
X163276613Y-109410489D01*
X163360489Y-109326613D01*
X163419799Y-109223886D01*
X163450499Y-109109311D01*
X163450500Y-109109311D01*
X163450500Y-108990689D01*
X163450499Y-108990688D01*
X163419800Y-108876117D01*
X163419798Y-108876112D01*
X163360491Y-108773390D01*
X163360490Y-108773389D01*
X163360489Y-108773387D01*
X163276613Y-108689511D01*
X163276610Y-108689509D01*
X163276609Y-108689508D01*
X163173887Y-108630201D01*
X163173882Y-108630199D01*
X163141333Y-108621478D01*
X163096400Y-108587000D01*
X163089008Y-108530847D01*
X163123486Y-108485914D01*
X163141333Y-108478522D01*
X163173882Y-108469800D01*
X163173881Y-108469800D01*
X163173886Y-108469799D01*
X163276613Y-108410489D01*
X163360489Y-108326613D01*
X163419799Y-108223886D01*
X163450499Y-108109311D01*
X163450500Y-108109311D01*
X163450500Y-107990689D01*
X163450499Y-107990688D01*
X163419800Y-107876117D01*
X163419798Y-107876112D01*
X163360491Y-107773390D01*
X163360490Y-107773389D01*
X163360489Y-107773387D01*
X163276613Y-107689511D01*
X163276610Y-107689509D01*
X163276609Y-107689508D01*
X163173887Y-107630201D01*
X163173882Y-107630199D01*
X163141333Y-107621478D01*
X163096400Y-107587000D01*
X163089008Y-107530847D01*
X163123486Y-107485914D01*
X163141333Y-107478522D01*
X163173882Y-107469800D01*
X163173881Y-107469800D01*
X163173886Y-107469799D01*
X163276613Y-107410489D01*
X163360489Y-107326613D01*
X163419799Y-107223886D01*
X163450499Y-107109311D01*
X163450500Y-107109311D01*
X163450500Y-106990689D01*
X163450499Y-106990688D01*
X163419800Y-106876117D01*
X163419798Y-106876112D01*
X163360491Y-106773390D01*
X163360490Y-106773389D01*
X163360489Y-106773387D01*
X163276613Y-106689511D01*
X163276610Y-106689509D01*
X163276609Y-106689508D01*
X163173887Y-106630201D01*
X163173882Y-106630199D01*
X163059311Y-106599500D01*
X163059309Y-106599500D01*
X162940691Y-106599500D01*
X162940689Y-106599500D01*
X162826117Y-106630199D01*
X162826112Y-106630201D01*
X162723390Y-106689508D01*
X162660072Y-106752826D01*
X162607746Y-106774500D01*
X162094768Y-106774500D01*
X162042442Y-106752826D01*
X161277779Y-105988163D01*
X160491440Y-105201825D01*
X160469767Y-105149500D01*
X160491441Y-105097174D01*
X160543767Y-105075500D01*
X160555233Y-105075500D01*
X160607559Y-105097174D01*
X161716443Y-106206058D01*
X161793942Y-106283557D01*
X161895200Y-106325500D01*
X162207746Y-106325500D01*
X162260072Y-106347174D01*
X162323387Y-106410489D01*
X162323389Y-106410490D01*
X162323390Y-106410491D01*
X162392687Y-106450500D01*
X162426114Y-106469799D01*
X162426115Y-106469799D01*
X162426117Y-106469800D01*
X162483402Y-106485149D01*
X162540688Y-106500499D01*
X162540689Y-106500500D01*
X162540691Y-106500500D01*
X162659311Y-106500500D01*
X162659311Y-106500499D01*
X162773886Y-106469799D01*
X162876613Y-106410489D01*
X162960489Y-106326613D01*
X163019799Y-106223886D01*
X163050499Y-106109311D01*
X163050500Y-106109311D01*
X163050500Y-106059642D01*
X163072174Y-106007316D01*
X163105345Y-105988164D01*
X163173886Y-105969799D01*
X163276613Y-105910489D01*
X163360489Y-105826613D01*
X163419799Y-105723886D01*
X163450499Y-105609311D01*
X163450500Y-105609311D01*
X163450500Y-105490689D01*
X163450499Y-105490688D01*
X163419800Y-105376117D01*
X163419798Y-105376112D01*
X163360491Y-105273390D01*
X163360490Y-105273389D01*
X163360489Y-105273387D01*
X163276613Y-105189511D01*
X163276610Y-105189509D01*
X163276609Y-105189508D01*
X163173887Y-105130201D01*
X163173882Y-105130199D01*
X163141333Y-105121478D01*
X163096400Y-105087000D01*
X163089008Y-105030847D01*
X163123486Y-104985914D01*
X163141333Y-104978522D01*
X163173882Y-104969800D01*
X163173881Y-104969800D01*
X163173886Y-104969799D01*
X163276613Y-104910489D01*
X163360489Y-104826613D01*
X163419799Y-104723886D01*
X163450499Y-104609311D01*
X163450500Y-104609311D01*
X163450500Y-104490689D01*
X163450499Y-104490688D01*
X163419800Y-104376117D01*
X163419798Y-104376112D01*
X163360491Y-104273390D01*
X163360490Y-104273389D01*
X163360489Y-104273387D01*
X163276613Y-104189511D01*
X163276610Y-104189509D01*
X163276609Y-104189508D01*
X163173887Y-104130201D01*
X163173882Y-104130199D01*
X163141333Y-104121478D01*
X163096400Y-104087000D01*
X163089008Y-104030847D01*
X163123486Y-103985914D01*
X163141333Y-103978522D01*
X163173882Y-103969800D01*
X163173881Y-103969800D01*
X163173886Y-103969799D01*
X163276613Y-103910489D01*
X163360489Y-103826613D01*
X163419799Y-103723886D01*
X163450499Y-103609311D01*
X163450500Y-103609311D01*
X163450500Y-103490689D01*
X163450499Y-103490688D01*
X163419800Y-103376117D01*
X163419798Y-103376112D01*
X163360491Y-103273390D01*
X163360490Y-103273389D01*
X163360489Y-103273387D01*
X163276613Y-103189511D01*
X163276610Y-103189509D01*
X163276609Y-103189508D01*
X163173887Y-103130201D01*
X163173882Y-103130199D01*
X163141333Y-103121478D01*
X163096400Y-103087000D01*
X163089008Y-103030847D01*
X163123486Y-102985914D01*
X163141333Y-102978522D01*
X163173882Y-102969800D01*
X163173881Y-102969800D01*
X163173886Y-102969799D01*
X163276613Y-102910489D01*
X163360489Y-102826613D01*
X163419799Y-102723886D01*
X163450499Y-102609311D01*
X163450500Y-102609311D01*
X163450500Y-102490689D01*
X163450499Y-102490688D01*
X163419800Y-102376117D01*
X163419798Y-102376112D01*
X163360491Y-102273390D01*
X163360490Y-102273389D01*
X163360489Y-102273387D01*
X163276613Y-102189511D01*
X163276610Y-102189509D01*
X163276609Y-102189508D01*
X163173887Y-102130201D01*
X163173882Y-102130199D01*
X163059311Y-102099500D01*
X163059309Y-102099500D01*
X162969768Y-102099500D01*
X162917442Y-102077826D01*
X162916442Y-102076826D01*
X162894768Y-102024500D01*
X162916442Y-101972174D01*
X162968768Y-101950500D01*
X163059311Y-101950500D01*
X163059311Y-101950499D01*
X163173886Y-101919799D01*
X163276613Y-101860489D01*
X163360489Y-101776613D01*
X163419799Y-101673886D01*
X163450499Y-101559311D01*
X163450500Y-101559311D01*
X163450500Y-101440689D01*
X163450499Y-101440688D01*
X163419800Y-101326117D01*
X163419798Y-101326112D01*
X163360491Y-101223390D01*
X163360490Y-101223389D01*
X163360489Y-101223387D01*
X163276613Y-101139511D01*
X163276610Y-101139509D01*
X163276609Y-101139508D01*
X163173887Y-101080201D01*
X163173882Y-101080199D01*
X163141333Y-101071478D01*
X163096400Y-101037000D01*
X163089008Y-100980847D01*
X163123486Y-100935914D01*
X163141333Y-100928522D01*
X163173882Y-100919800D01*
X163173881Y-100919800D01*
X163173886Y-100919799D01*
X163276613Y-100860489D01*
X163360489Y-100776613D01*
X163419799Y-100673886D01*
X163450499Y-100559311D01*
X163450500Y-100559311D01*
X163450500Y-100440689D01*
X163450499Y-100440688D01*
X163419800Y-100326117D01*
X163419798Y-100326112D01*
X163360491Y-100223390D01*
X163360490Y-100223389D01*
X163360489Y-100223387D01*
X163276613Y-100139511D01*
X163276610Y-100139509D01*
X163276609Y-100139508D01*
X163173887Y-100080201D01*
X163173882Y-100080199D01*
X163141333Y-100071478D01*
X163096400Y-100037000D01*
X163089008Y-99980847D01*
X163123486Y-99935914D01*
X163141333Y-99928522D01*
X163173882Y-99919800D01*
X163173881Y-99919800D01*
X163173886Y-99919799D01*
X163276613Y-99860489D01*
X163360489Y-99776613D01*
X163419799Y-99673886D01*
X163450499Y-99559311D01*
X163450500Y-99559311D01*
X163450500Y-99440689D01*
X163450499Y-99440688D01*
X163419800Y-99326117D01*
X163419798Y-99326112D01*
X163360491Y-99223390D01*
X163360490Y-99223389D01*
X163360489Y-99223387D01*
X163276613Y-99139511D01*
X163276610Y-99139509D01*
X163276609Y-99139508D01*
X163173887Y-99080201D01*
X163173882Y-99080199D01*
X163141333Y-99071478D01*
X163096400Y-99037000D01*
X163089008Y-98980847D01*
X163123486Y-98935914D01*
X163141333Y-98928522D01*
X163173882Y-98919800D01*
X163173881Y-98919800D01*
X163173886Y-98919799D01*
X163276613Y-98860489D01*
X163360489Y-98776613D01*
X163419799Y-98673886D01*
X163450499Y-98559311D01*
X163450500Y-98559311D01*
X163450500Y-98440689D01*
X163450499Y-98440688D01*
X163419800Y-98326117D01*
X163419798Y-98326112D01*
X163360491Y-98223390D01*
X163360490Y-98223389D01*
X163360489Y-98223387D01*
X163276613Y-98139511D01*
X163276610Y-98139509D01*
X163276609Y-98139508D01*
X163173887Y-98080201D01*
X163173882Y-98080199D01*
X163105347Y-98061835D01*
X163060414Y-98027356D01*
X163050500Y-97990357D01*
X163050500Y-97940689D01*
X163050499Y-97940688D01*
X163019800Y-97826117D01*
X163019798Y-97826112D01*
X162960491Y-97723390D01*
X162960490Y-97723389D01*
X162960489Y-97723387D01*
X162876613Y-97639511D01*
X162876610Y-97639509D01*
X162876609Y-97639508D01*
X162773887Y-97580201D01*
X162773882Y-97580199D01*
X162659311Y-97549500D01*
X162659309Y-97549500D01*
X162540691Y-97549500D01*
X162540689Y-97549500D01*
X162426117Y-97580199D01*
X162426112Y-97580201D01*
X162323390Y-97639508D01*
X162260072Y-97702826D01*
X162207746Y-97724500D01*
X162043767Y-97724500D01*
X161991441Y-97702826D01*
X161969767Y-97650500D01*
X161991441Y-97598174D01*
X162292441Y-97297174D01*
X162344767Y-97275500D01*
X162607746Y-97275500D01*
X162660072Y-97297174D01*
X162723387Y-97360489D01*
X162723389Y-97360490D01*
X162723390Y-97360491D01*
X162756491Y-97379602D01*
X162826114Y-97419799D01*
X162826115Y-97419799D01*
X162826117Y-97419800D01*
X162856224Y-97427867D01*
X162940688Y-97450499D01*
X162940689Y-97450500D01*
X162940691Y-97450500D01*
X163059311Y-97450500D01*
X163059311Y-97450499D01*
X163173886Y-97419799D01*
X163276613Y-97360489D01*
X163360489Y-97276613D01*
X163419799Y-97173886D01*
X163450499Y-97059311D01*
X163450500Y-97059311D01*
X163450500Y-96940689D01*
X163450499Y-96940688D01*
X163419800Y-96826117D01*
X163419798Y-96826112D01*
X163360491Y-96723390D01*
X163360490Y-96723389D01*
X163360489Y-96723387D01*
X163276613Y-96639511D01*
X163276610Y-96639509D01*
X163276609Y-96639508D01*
X163173887Y-96580201D01*
X163173882Y-96580199D01*
X163141333Y-96571478D01*
X163096400Y-96537000D01*
X163089008Y-96480847D01*
X163123486Y-96435914D01*
X163141333Y-96428522D01*
X163173882Y-96419800D01*
X163173881Y-96419800D01*
X163173886Y-96419799D01*
X163276613Y-96360489D01*
X163360489Y-96276613D01*
X163419799Y-96173886D01*
X163450499Y-96059311D01*
X163450500Y-96059311D01*
X163450500Y-95940689D01*
X163450499Y-95940688D01*
X163419800Y-95826117D01*
X163419798Y-95826112D01*
X163360491Y-95723390D01*
X163360490Y-95723389D01*
X163360489Y-95723387D01*
X163276613Y-95639511D01*
X163276610Y-95639509D01*
X163276609Y-95639508D01*
X163173887Y-95580201D01*
X163173882Y-95580199D01*
X163141333Y-95571478D01*
X163096400Y-95537000D01*
X163089008Y-95480847D01*
X163123486Y-95435914D01*
X163141333Y-95428522D01*
X163170460Y-95420717D01*
X163173886Y-95419799D01*
X163276613Y-95360489D01*
X163360489Y-95276613D01*
X163419799Y-95173886D01*
X163450499Y-95059311D01*
X163450500Y-95059311D01*
X163450500Y-94940689D01*
X163450499Y-94940688D01*
X163447638Y-94930012D01*
X163428694Y-94859309D01*
X163419800Y-94826117D01*
X163419798Y-94826112D01*
X163360491Y-94723390D01*
X163360490Y-94723389D01*
X163360489Y-94723387D01*
X163276613Y-94639511D01*
X163276610Y-94639509D01*
X163276609Y-94639508D01*
X163173887Y-94580201D01*
X163173882Y-94580199D01*
X163141333Y-94571478D01*
X163096400Y-94537000D01*
X163089008Y-94480847D01*
X163123486Y-94435914D01*
X163141333Y-94428522D01*
X163173882Y-94419800D01*
X163173881Y-94419800D01*
X163173886Y-94419799D01*
X163276613Y-94360489D01*
X163360489Y-94276613D01*
X163419799Y-94173886D01*
X163450499Y-94059311D01*
X163450500Y-94059311D01*
X163450500Y-93940689D01*
X163450499Y-93940688D01*
X163419800Y-93826117D01*
X163419798Y-93826112D01*
X163360491Y-93723390D01*
X163360490Y-93723389D01*
X163360489Y-93723387D01*
X163276613Y-93639511D01*
X163276610Y-93639509D01*
X163276609Y-93639508D01*
X163173887Y-93580201D01*
X163173882Y-93580199D01*
X163105347Y-93561835D01*
X163060414Y-93527356D01*
X163050500Y-93490357D01*
X163050500Y-93440689D01*
X163050499Y-93440688D01*
X163019800Y-93326117D01*
X163019798Y-93326112D01*
X162960491Y-93223390D01*
X162960490Y-93223389D01*
X162960489Y-93223387D01*
X162876613Y-93139511D01*
X162876610Y-93139509D01*
X162876609Y-93139508D01*
X162773887Y-93080201D01*
X162773882Y-93080199D01*
X162659311Y-93049500D01*
X162659309Y-93049500D01*
X162540691Y-93049500D01*
X162540689Y-93049500D01*
X162426117Y-93080199D01*
X162426112Y-93080201D01*
X162323390Y-93139508D01*
X162260072Y-93202826D01*
X162207746Y-93224500D01*
X162195200Y-93224500D01*
X162123598Y-93254157D01*
X162123599Y-93254158D01*
X162093942Y-93266442D01*
X160216825Y-95143559D01*
X160164499Y-95165233D01*
X160112173Y-95143559D01*
X160091168Y-95092849D01*
X160090855Y-95092880D01*
X160090753Y-95091847D01*
X160090499Y-95091233D01*
X160090499Y-95089263D01*
X160078288Y-95027868D01*
X160042218Y-94973887D01*
X160031762Y-94958238D01*
X159992863Y-94932246D01*
X159961721Y-94911437D01*
X159930256Y-94864345D01*
X159931356Y-94830756D01*
X159950499Y-94759311D01*
X159950500Y-94759311D01*
X159950500Y-94640689D01*
X159950499Y-94640688D01*
X159946593Y-94626112D01*
X159923705Y-94540691D01*
X159919800Y-94526117D01*
X159919798Y-94526112D01*
X159860491Y-94423390D01*
X159860490Y-94423389D01*
X159860489Y-94423387D01*
X159776613Y-94339511D01*
X159776610Y-94339509D01*
X159776609Y-94339508D01*
X159673887Y-94280201D01*
X159673882Y-94280199D01*
X159559311Y-94249500D01*
X159559309Y-94249500D01*
X159440691Y-94249500D01*
X159440689Y-94249500D01*
X159326117Y-94280199D01*
X159326112Y-94280201D01*
X159223390Y-94339508D01*
X159139508Y-94423390D01*
X159080201Y-94526112D01*
X159080199Y-94526117D01*
X159049500Y-94640688D01*
X159049500Y-94759311D01*
X159080792Y-94876093D01*
X159073400Y-94932246D01*
X159050432Y-94956771D01*
X159048239Y-94958236D01*
X159001713Y-95027866D01*
X158989500Y-95089267D01*
X158989500Y-95310727D01*
X159003135Y-95379283D01*
X159001527Y-95379602D01*
X159001528Y-95420398D01*
X159003135Y-95420718D01*
X158989500Y-95489267D01*
X158989500Y-95710727D01*
X159003135Y-95779283D01*
X159001527Y-95779602D01*
X159001528Y-95820398D01*
X159003135Y-95820718D01*
X158989500Y-95889267D01*
X158989500Y-96110727D01*
X159003135Y-96179283D01*
X159001527Y-96179602D01*
X159001528Y-96220398D01*
X159003135Y-96220718D01*
X158989500Y-96289267D01*
X158989500Y-96510727D01*
X159003135Y-96579283D01*
X159001527Y-96579602D01*
X159001528Y-96620398D01*
X159003135Y-96620718D01*
X158989500Y-96689267D01*
X158989500Y-96910727D01*
X159003135Y-96979283D01*
X159001527Y-96979602D01*
X159001528Y-97020398D01*
X159003135Y-97020718D01*
X158989500Y-97089267D01*
X158989500Y-97310727D01*
X159003135Y-97379283D01*
X159001527Y-97379602D01*
X159001528Y-97420398D01*
X159003135Y-97420718D01*
X158989500Y-97489267D01*
X158989500Y-97710727D01*
X159003135Y-97779283D01*
X159001527Y-97779602D01*
X159001528Y-97820398D01*
X159003135Y-97820718D01*
X158989500Y-97889267D01*
X158989500Y-98110727D01*
X159003135Y-98179283D01*
X159001527Y-98179602D01*
X159001528Y-98220398D01*
X159003135Y-98220718D01*
X158989500Y-98289267D01*
X158989500Y-98510727D01*
X159003135Y-98579283D01*
X159001527Y-98579602D01*
X159001528Y-98620398D01*
X159003135Y-98620718D01*
X158989500Y-98689267D01*
X158989500Y-98910727D01*
X159003135Y-98979283D01*
X159001527Y-98979602D01*
X159001528Y-99020398D01*
X159003135Y-99020718D01*
X158989500Y-99089267D01*
X158989500Y-99310727D01*
X159003135Y-99379283D01*
X159001527Y-99379602D01*
X159001528Y-99420398D01*
X159003135Y-99420718D01*
X158989500Y-99489267D01*
X158989500Y-99710727D01*
X159003135Y-99779283D01*
X159001527Y-99779602D01*
X159001528Y-99820398D01*
X159003135Y-99820718D01*
X158989500Y-99889267D01*
X158989500Y-100110727D01*
X159003135Y-100179283D01*
X159001527Y-100179602D01*
X159001528Y-100220398D01*
X159003135Y-100220718D01*
X158989500Y-100289267D01*
X158989500Y-100510727D01*
X159003135Y-100579283D01*
X159001527Y-100579602D01*
X159001528Y-100620398D01*
X159003135Y-100620718D01*
X158989500Y-100689267D01*
X158989500Y-100910727D01*
X159003135Y-100979283D01*
X159001527Y-100979602D01*
X159001528Y-101020398D01*
X159003135Y-101020718D01*
X158989500Y-101089267D01*
X158989500Y-101310727D01*
X159003135Y-101379283D01*
X159001527Y-101379602D01*
X159001528Y-101420398D01*
X159003135Y-101420718D01*
X158989500Y-101489267D01*
X158989500Y-101710727D01*
X159003135Y-101779283D01*
X159001527Y-101779602D01*
X159001528Y-101820398D01*
X159003135Y-101820718D01*
X158989500Y-101889267D01*
X158989500Y-102110727D01*
X159003135Y-102179283D01*
X159001527Y-102179602D01*
X159001528Y-102220398D01*
X159003135Y-102220718D01*
X158989500Y-102289267D01*
X158989500Y-102510727D01*
X159003135Y-102579283D01*
X159001527Y-102579602D01*
X159001528Y-102620398D01*
X159003135Y-102620718D01*
X158989500Y-102689267D01*
X158989500Y-102910727D01*
X159003135Y-102979283D01*
X159001527Y-102979602D01*
X159001528Y-103020398D01*
X159003135Y-103020718D01*
X158989500Y-103089267D01*
X158989500Y-103310727D01*
X159003135Y-103379283D01*
X159001527Y-103379602D01*
X159001528Y-103420398D01*
X159003135Y-103420718D01*
X158989500Y-103489267D01*
X158989500Y-103710727D01*
X159003135Y-103779283D01*
X159001527Y-103779602D01*
X159001528Y-103820398D01*
X159003135Y-103820718D01*
X158989500Y-103889267D01*
X158989500Y-104110727D01*
X159003135Y-104179283D01*
X159001527Y-104179602D01*
X159001528Y-104220398D01*
X159003135Y-104220718D01*
X158989500Y-104289267D01*
X158989500Y-104510727D01*
X159003135Y-104579283D01*
X159001527Y-104579602D01*
X159001528Y-104620398D01*
X159003135Y-104620718D01*
X158989500Y-104689267D01*
X158989500Y-104910727D01*
X159003135Y-104979283D01*
X159001527Y-104979602D01*
X159001528Y-105020398D01*
X159003135Y-105020718D01*
X158989500Y-105089267D01*
X158989500Y-105310727D01*
X159003135Y-105379283D01*
X159001527Y-105379602D01*
X159001528Y-105420398D01*
X159003135Y-105420718D01*
X158989500Y-105489267D01*
X158989500Y-105710727D01*
X159003135Y-105779283D01*
X159001527Y-105779602D01*
X159001528Y-105820398D01*
X159003135Y-105820718D01*
X158989500Y-105889267D01*
X158989500Y-106110727D01*
X159003135Y-106179283D01*
X159001527Y-106179602D01*
X159001528Y-106220398D01*
X159003135Y-106220718D01*
X158989500Y-106289267D01*
X158989500Y-106510727D01*
X159003135Y-106579283D01*
X159001527Y-106579602D01*
X159001528Y-106620398D01*
X159003135Y-106620718D01*
X158989500Y-106689267D01*
X158989500Y-106910727D01*
X159003135Y-106979283D01*
X159001527Y-106979602D01*
X159001528Y-107020398D01*
X159003135Y-107020718D01*
X158989500Y-107089267D01*
X158989500Y-107310727D01*
X159003135Y-107379283D01*
X159001527Y-107379602D01*
X159001528Y-107420398D01*
X159003135Y-107420718D01*
X158989500Y-107489267D01*
X158989500Y-107710727D01*
X159003135Y-107779283D01*
X159001527Y-107779602D01*
X159001528Y-107820398D01*
X159003135Y-107820718D01*
X158989500Y-107889267D01*
X158989500Y-108110727D01*
X159003135Y-108179283D01*
X159001527Y-108179602D01*
X159001528Y-108220398D01*
X159003135Y-108220718D01*
X158989500Y-108289267D01*
X158989500Y-108451442D01*
X158967826Y-108503768D01*
X158939821Y-108531772D01*
X158893007Y-108637793D01*
X158890000Y-108663717D01*
X157005417Y-108663717D01*
X156998287Y-108627867D01*
X156996681Y-108625464D01*
X156994582Y-108615958D01*
X156998474Y-108593989D01*
X156998474Y-108579602D01*
X156996865Y-108579282D01*
X156998417Y-108571478D01*
X157010500Y-108510733D01*
X157010499Y-108289268D01*
X156998287Y-108227867D01*
X156998286Y-108227866D01*
X156996865Y-108220717D01*
X156998474Y-108220397D01*
X156998474Y-108179602D01*
X156996865Y-108179282D01*
X156998287Y-108172133D01*
X157010500Y-108110733D01*
X157010499Y-107889268D01*
X156998287Y-107827867D01*
X156998286Y-107827866D01*
X156996865Y-107820717D01*
X156998474Y-107820397D01*
X156998474Y-107779602D01*
X156996865Y-107779282D01*
X156998287Y-107772133D01*
X157010500Y-107710733D01*
X157010499Y-107489268D01*
X156998287Y-107427867D01*
X156998286Y-107427866D01*
X156996865Y-107420717D01*
X156998474Y-107420397D01*
X156998474Y-107379602D01*
X156996865Y-107379282D01*
X156998287Y-107372133D01*
X157010500Y-107310733D01*
X157010499Y-107089268D01*
X156998287Y-107027867D01*
X156998286Y-107027866D01*
X156996865Y-107020717D01*
X156998474Y-107020397D01*
X156998474Y-106979602D01*
X156996865Y-106979282D01*
X156998287Y-106972133D01*
X157010500Y-106910733D01*
X157010499Y-106689268D01*
X156998287Y-106627867D01*
X156998286Y-106627866D01*
X156996865Y-106620717D01*
X156998474Y-106620397D01*
X156998474Y-106579602D01*
X156996865Y-106579282D01*
X156998287Y-106572133D01*
X157010500Y-106510733D01*
X157010499Y-106289268D01*
X156998287Y-106227867D01*
X156998286Y-106227866D01*
X156996865Y-106220717D01*
X156998474Y-106220397D01*
X156998474Y-106179602D01*
X156996865Y-106179282D01*
X156998287Y-106172133D01*
X157010500Y-106110733D01*
X157010499Y-105889268D01*
X156998287Y-105827867D01*
X156998286Y-105827866D01*
X156996865Y-105820717D01*
X156998474Y-105820397D01*
X156998474Y-105779602D01*
X156996865Y-105779282D01*
X156998287Y-105772133D01*
X157010500Y-105710733D01*
X157010499Y-105489268D01*
X156998287Y-105427867D01*
X156998286Y-105427866D01*
X156996865Y-105420717D01*
X156998474Y-105420397D01*
X156998474Y-105379602D01*
X156996865Y-105379282D01*
X156998287Y-105372133D01*
X157010500Y-105310733D01*
X157010499Y-105089268D01*
X156998287Y-105027867D01*
X156998286Y-105027866D01*
X156996865Y-105020717D01*
X156998474Y-105020397D01*
X156998474Y-104979602D01*
X156996865Y-104979282D01*
X157000103Y-104963001D01*
X157010500Y-104910733D01*
X157010499Y-104689268D01*
X156998287Y-104627867D01*
X156998286Y-104627866D01*
X156996865Y-104620717D01*
X156998474Y-104620397D01*
X156998474Y-104579602D01*
X156996865Y-104579282D01*
X157000837Y-104559311D01*
X157010500Y-104510733D01*
X157010499Y-104289268D01*
X156998287Y-104227867D01*
X156998286Y-104227866D01*
X156996865Y-104220717D01*
X156998474Y-104220397D01*
X156998474Y-104179602D01*
X156996865Y-104179282D01*
X156998287Y-104172133D01*
X157010500Y-104110733D01*
X157010499Y-103889268D01*
X156998287Y-103827867D01*
X156998286Y-103827866D01*
X156996865Y-103820717D01*
X156998474Y-103820397D01*
X156998474Y-103779602D01*
X156996865Y-103779282D01*
X156998287Y-103772133D01*
X157010500Y-103710733D01*
X157010499Y-103489268D01*
X156998287Y-103427867D01*
X156998286Y-103427866D01*
X156996865Y-103420717D01*
X156998474Y-103420397D01*
X156998474Y-103379602D01*
X156996865Y-103379282D01*
X156998287Y-103372133D01*
X157010500Y-103310733D01*
X157010499Y-103089268D01*
X156998287Y-103027867D01*
X156998286Y-103027866D01*
X156996865Y-103020717D01*
X156998474Y-103020397D01*
X156998474Y-102979602D01*
X156996865Y-102979282D01*
X157000103Y-102963001D01*
X157010500Y-102910733D01*
X157010499Y-102689268D01*
X156998287Y-102627867D01*
X156998286Y-102627866D01*
X156996865Y-102620717D01*
X156998474Y-102620397D01*
X156998474Y-102579602D01*
X156996865Y-102579282D01*
X157000837Y-102559311D01*
X157010500Y-102510733D01*
X157010499Y-102289268D01*
X156998287Y-102227867D01*
X156998286Y-102227866D01*
X156996865Y-102220717D01*
X156998474Y-102220397D01*
X156998474Y-102179602D01*
X156996865Y-102179282D01*
X157001511Y-102155923D01*
X157010500Y-102110733D01*
X157010499Y-101889268D01*
X156998287Y-101827867D01*
X156998286Y-101827866D01*
X156996865Y-101820717D01*
X156998474Y-101820397D01*
X156998474Y-101779602D01*
X156996865Y-101779282D01*
X156998287Y-101772133D01*
X157010500Y-101710733D01*
X157010499Y-101489268D01*
X156998287Y-101427867D01*
X156998286Y-101427866D01*
X156996865Y-101420717D01*
X156998474Y-101420397D01*
X156998474Y-101379602D01*
X156996865Y-101379282D01*
X156998287Y-101372133D01*
X157010500Y-101310733D01*
X157010499Y-101089268D01*
X156998287Y-101027867D01*
X156998286Y-101027866D01*
X156996865Y-101020717D01*
X156998474Y-101020397D01*
X156998474Y-100979602D01*
X156996865Y-100979282D01*
X157000103Y-100963001D01*
X157010500Y-100910733D01*
X157010499Y-100689268D01*
X156998287Y-100627867D01*
X156998286Y-100627866D01*
X156996865Y-100620717D01*
X156998474Y-100620397D01*
X156998474Y-100579602D01*
X156996865Y-100579282D01*
X157000837Y-100559311D01*
X157010500Y-100510733D01*
X157010499Y-100289268D01*
X156998287Y-100227867D01*
X156998286Y-100227866D01*
X156996865Y-100220717D01*
X156998474Y-100220397D01*
X156998474Y-100179602D01*
X156996865Y-100179282D01*
X156998287Y-100172133D01*
X157010500Y-100110733D01*
X157010499Y-99889268D01*
X156998287Y-99827867D01*
X156998286Y-99827866D01*
X156996865Y-99820717D01*
X156998474Y-99820397D01*
X156998474Y-99779602D01*
X156996865Y-99779282D01*
X156998287Y-99772133D01*
X157010500Y-99710733D01*
X157010499Y-99489268D01*
X156998287Y-99427867D01*
X156998286Y-99427866D01*
X156996865Y-99420717D01*
X156998474Y-99420397D01*
X156998474Y-99379602D01*
X156996865Y-99379282D01*
X156998287Y-99372133D01*
X157010500Y-99310733D01*
X157010499Y-99089268D01*
X156998287Y-99027867D01*
X156998286Y-99027866D01*
X156996865Y-99020717D01*
X156998474Y-99020397D01*
X156998474Y-98979602D01*
X156996865Y-98979282D01*
X157000103Y-98963001D01*
X157010500Y-98910733D01*
X157010499Y-98689268D01*
X156998287Y-98627867D01*
X156998286Y-98627866D01*
X156996865Y-98620717D01*
X156998474Y-98620397D01*
X156998474Y-98579602D01*
X156996865Y-98579282D01*
X157000837Y-98559311D01*
X157010500Y-98510733D01*
X157010499Y-98289268D01*
X156998287Y-98227867D01*
X156998286Y-98227866D01*
X156996865Y-98220717D01*
X156998474Y-98220397D01*
X156998474Y-98179602D01*
X156996865Y-98179282D01*
X156998287Y-98172133D01*
X157010500Y-98110733D01*
X157010499Y-97889268D01*
X156998287Y-97827867D01*
X156998286Y-97827866D01*
X156996865Y-97820717D01*
X156998474Y-97820397D01*
X156998474Y-97779602D01*
X156996865Y-97779282D01*
X156998287Y-97772133D01*
X157010500Y-97710733D01*
X157010499Y-97489268D01*
X156998287Y-97427867D01*
X156998286Y-97427866D01*
X156996865Y-97420717D01*
X156998474Y-97420397D01*
X156998474Y-97379602D01*
X156996865Y-97379282D01*
X156998287Y-97372133D01*
X157010500Y-97310733D01*
X157010499Y-97089268D01*
X156998287Y-97027867D01*
X156998286Y-97027866D01*
X156996865Y-97020717D01*
X156998474Y-97020397D01*
X156998474Y-96979602D01*
X156996865Y-96979282D01*
X156998287Y-96972133D01*
X157010500Y-96910733D01*
X157010499Y-96689268D01*
X156998287Y-96627867D01*
X156998286Y-96627866D01*
X156996865Y-96620717D01*
X156998474Y-96620397D01*
X156998474Y-96579602D01*
X156996865Y-96579282D01*
X156998417Y-96571478D01*
X157010500Y-96510733D01*
X157010499Y-96289268D01*
X156998287Y-96227867D01*
X156998286Y-96227866D01*
X156996865Y-96220717D01*
X156998474Y-96220397D01*
X156998474Y-96179602D01*
X156996865Y-96179282D01*
X156998287Y-96172133D01*
X157010500Y-96110733D01*
X157010499Y-95889268D01*
X156998287Y-95827867D01*
X156998286Y-95827866D01*
X156996865Y-95820717D01*
X156998474Y-95820397D01*
X156998474Y-95779602D01*
X156996865Y-95779282D01*
X156998287Y-95772133D01*
X157010500Y-95710733D01*
X157010499Y-95489268D01*
X156998287Y-95427867D01*
X156998286Y-95427866D01*
X156996865Y-95420717D01*
X156998474Y-95420397D01*
X156998474Y-95379602D01*
X156996865Y-95379282D01*
X156998287Y-95372133D01*
X157010500Y-95310733D01*
X157010499Y-95089268D01*
X156998287Y-95027867D01*
X156951762Y-94958238D01*
X156909517Y-94930010D01*
X156878052Y-94882919D01*
X156886544Y-94831483D01*
X156919799Y-94773886D01*
X156950499Y-94659311D01*
X156950500Y-94659311D01*
X156950500Y-94540689D01*
X156950499Y-94540688D01*
X156946593Y-94526112D01*
X156924723Y-94444491D01*
X156919800Y-94426117D01*
X156919798Y-94426112D01*
X156860491Y-94323390D01*
X156860490Y-94323389D01*
X156860489Y-94323387D01*
X156776613Y-94239511D01*
X156776610Y-94239509D01*
X156776609Y-94239508D01*
X156673887Y-94180201D01*
X156673882Y-94180199D01*
X156559311Y-94149500D01*
X156559309Y-94149500D01*
X156440691Y-94149500D01*
X156440689Y-94149500D01*
X156326117Y-94180199D01*
X156326112Y-94180201D01*
X156223390Y-94239508D01*
X156139508Y-94323390D01*
X156085229Y-94417405D01*
X156040295Y-94451884D01*
X155984143Y-94444491D01*
X155977181Y-94439838D01*
X155873887Y-94380201D01*
X155873882Y-94380199D01*
X155759311Y-94349500D01*
X155759309Y-94349500D01*
X155640691Y-94349500D01*
X155640689Y-94349500D01*
X155526117Y-94380199D01*
X155526112Y-94380201D01*
X155423390Y-94439508D01*
X155339508Y-94523390D01*
X155280201Y-94626112D01*
X155280199Y-94626117D01*
X155249500Y-94740688D01*
X155249500Y-94859311D01*
X155280199Y-94973882D01*
X155280201Y-94973887D01*
X155321817Y-95045967D01*
X155329210Y-95102120D01*
X155294731Y-95147053D01*
X155238578Y-95154446D01*
X155205405Y-95135293D01*
X154504170Y-94434058D01*
X154482496Y-94381732D01*
X154482496Y-94238204D01*
X154445753Y-94149500D01*
X154445752Y-94149497D01*
X154440553Y-94136945D01*
X153872174Y-93568566D01*
X153850500Y-93516240D01*
X153850500Y-93440689D01*
X153850499Y-93440688D01*
X153819800Y-93326117D01*
X153819798Y-93326112D01*
X153760491Y-93223390D01*
X153760490Y-93223389D01*
X153760489Y-93223387D01*
X153676613Y-93139511D01*
X153676610Y-93139509D01*
X153676609Y-93139508D01*
X153573887Y-93080201D01*
X153573882Y-93080199D01*
X153459311Y-93049500D01*
X153459309Y-93049500D01*
X153340691Y-93049500D01*
X153340689Y-93049500D01*
X153226117Y-93080199D01*
X153226112Y-93080201D01*
X153123390Y-93139508D01*
X153039508Y-93223390D01*
X152980201Y-93326112D01*
X152980199Y-93326117D01*
X152949500Y-93440688D01*
X152949500Y-93490357D01*
X152927826Y-93542683D01*
X152894653Y-93561835D01*
X152826117Y-93580199D01*
X152826112Y-93580201D01*
X152723390Y-93639508D01*
X152639508Y-93723390D01*
X152580201Y-93826112D01*
X152580199Y-93826117D01*
X152549500Y-93940688D01*
X108500500Y-93940688D01*
X108500500Y-81874871D01*
X119719500Y-81874871D01*
X119719500Y-81995128D01*
X119742959Y-82113069D01*
X119742961Y-82113076D01*
X119788981Y-82224179D01*
X119788982Y-82224180D01*
X119855794Y-82324171D01*
X119940829Y-82409206D01*
X120040820Y-82476018D01*
X120151924Y-82522039D01*
X120269871Y-82545500D01*
X120269872Y-82545500D01*
X120390128Y-82545500D01*
X120390129Y-82545500D01*
X120508076Y-82522039D01*
X120619180Y-82476018D01*
X120719171Y-82409206D01*
X120804206Y-82324171D01*
X120871018Y-82224180D01*
X120917039Y-82113076D01*
X120940500Y-81995129D01*
X120940500Y-81874871D01*
X189719500Y-81874871D01*
X189719500Y-81995128D01*
X189742959Y-82113069D01*
X189742961Y-82113076D01*
X189788981Y-82224179D01*
X189788982Y-82224180D01*
X189855794Y-82324171D01*
X189940829Y-82409206D01*
X190040820Y-82476018D01*
X190151924Y-82522039D01*
X190269871Y-82545500D01*
X190269872Y-82545500D01*
X190390128Y-82545500D01*
X190390129Y-82545500D01*
X190508076Y-82522039D01*
X190619180Y-82476018D01*
X190719171Y-82409206D01*
X190804206Y-82324171D01*
X190871018Y-82224180D01*
X190917039Y-82113076D01*
X190940500Y-81995129D01*
X190940500Y-81874871D01*
X190917039Y-81756924D01*
X190871018Y-81645820D01*
X190804206Y-81545829D01*
X190719171Y-81460794D01*
X190619180Y-81393982D01*
X190619181Y-81393982D01*
X190619179Y-81393981D01*
X190508076Y-81347961D01*
X190508069Y-81347959D01*
X190419215Y-81330285D01*
X190390129Y-81324500D01*
X190269871Y-81324500D01*
X190246538Y-81329141D01*
X190151930Y-81347959D01*
X190151923Y-81347961D01*
X190040820Y-81393981D01*
X189940832Y-81460791D01*
X189855791Y-81545832D01*
X189788981Y-81645820D01*
X189742961Y-81756923D01*
X189742959Y-81756930D01*
X189719500Y-81874871D01*
X120940500Y-81874871D01*
X120917039Y-81756924D01*
X120871018Y-81645820D01*
X120804206Y-81545829D01*
X120719171Y-81460794D01*
X120619180Y-81393982D01*
X120619181Y-81393982D01*
X120619179Y-81393981D01*
X120508076Y-81347961D01*
X120508069Y-81347959D01*
X120419215Y-81330285D01*
X120390129Y-81324500D01*
X120269871Y-81324500D01*
X120246538Y-81329141D01*
X120151930Y-81347959D01*
X120151923Y-81347961D01*
X120040820Y-81393981D01*
X119940832Y-81460791D01*
X119855791Y-81545832D01*
X119788981Y-81645820D01*
X119742961Y-81756923D01*
X119742959Y-81756930D01*
X119719500Y-81874871D01*
X108500500Y-81874871D01*
X108500500Y-80002236D01*
X108500635Y-79997768D01*
X108510902Y-79828031D01*
X108518454Y-79703176D01*
X108519528Y-79694328D01*
X108572328Y-79406211D01*
X108574458Y-79397568D01*
X108661597Y-79117931D01*
X108664754Y-79109604D01*
X108784971Y-78842493D01*
X108789115Y-78834599D01*
X108940636Y-78583952D01*
X108945712Y-78576599D01*
X109126343Y-78346039D01*
X109132254Y-78339367D01*
X109339367Y-78132254D01*
X109346039Y-78126343D01*
X109576599Y-77945711D01*
X109583953Y-77940636D01*
X109630926Y-77912240D01*
X109834599Y-77789115D01*
X109842493Y-77784971D01*
X110109604Y-77664754D01*
X110117931Y-77661597D01*
X110397568Y-77574458D01*
X110406211Y-77572328D01*
X110694328Y-77519528D01*
X110703176Y-77518454D01*
X110997768Y-77500634D01*
X111002236Y-77500500D01*
X111065892Y-77500500D01*
X204934108Y-77500500D01*
X204997764Y-77500500D01*
X205002231Y-77500634D01*
G37*
%TD.AperFunction*%
%TD*%
M02*
