%TF.GenerationSoftware,KiCad,Pcbnew,9.0.0*%
%TF.CreationDate,2025-03-21T15:44:20-04:00*%
%TF.ProjectId,ephys-test-module-64,65706879-732d-4746-9573-742d6d6f6475,B*%
%TF.SameCoordinates,Original*%
%TF.FileFunction,Copper,L1,Top*%
%TF.FilePolarity,Positive*%
%FSLAX46Y46*%
G04 Gerber Fmt 4.6, Leading zero omitted, Abs format (unit mm)*
G04 Created by KiCad (PCBNEW 9.0.0) date 2025-03-21 15:44:20*
%MOMM*%
%LPD*%
G01*
G04 APERTURE LIST*
G04 Aperture macros list*
%AMRoundRect*
0 Rectangle with rounded corners*
0 $1 Rounding radius*
0 $2 $3 $4 $5 $6 $7 $8 $9 X,Y pos of 4 corners*
0 Add a 4 corners polygon primitive as box body*
4,1,4,$2,$3,$4,$5,$6,$7,$8,$9,$2,$3,0*
0 Add four circle primitives for the rounded corners*
1,1,$1+$1,$2,$3*
1,1,$1+$1,$4,$5*
1,1,$1+$1,$6,$7*
1,1,$1+$1,$8,$9*
0 Add four rect primitives between the rounded corners*
20,1,$1+$1,$2,$3,$4,$5,0*
20,1,$1+$1,$4,$5,$6,$7,0*
20,1,$1+$1,$6,$7,$8,$9,0*
20,1,$1+$1,$8,$9,$2,$3,0*%
G04 Aperture macros list end*
%TA.AperFunction,ComponentPad*%
%ADD10C,4.800000*%
%TD*%
%TA.AperFunction,SMDPad,CuDef*%
%ADD11R,3.150000X1.000000*%
%TD*%
%TA.AperFunction,SMDPad,CuDef*%
%ADD12RoundRect,0.135000X-0.135000X-0.185000X0.135000X-0.185000X0.135000X0.185000X-0.135000X0.185000X0*%
%TD*%
%TA.AperFunction,SMDPad,CuDef*%
%ADD13RoundRect,0.135000X0.135000X0.185000X-0.135000X0.185000X-0.135000X-0.185000X0.135000X-0.185000X0*%
%TD*%
%TA.AperFunction,ComponentPad*%
%ADD14RoundRect,0.200000X-0.282843X0.000000X0.000000X-0.282843X0.282843X0.000000X0.000000X0.282843X0*%
%TD*%
%TA.AperFunction,ComponentPad*%
%ADD15C,0.800000*%
%TD*%
%TA.AperFunction,SMDPad,CuDef*%
%ADD16RoundRect,0.010000X0.340000X-0.090000X0.340000X0.090000X-0.340000X0.090000X-0.340000X-0.090000X0*%
%TD*%
%TA.AperFunction,SMDPad,CuDef*%
%ADD17RoundRect,0.150000X0.150000X-0.825000X0.150000X0.825000X-0.150000X0.825000X-0.150000X-0.825000X0*%
%TD*%
%TA.AperFunction,ComponentPad*%
%ADD18RoundRect,0.275000X0.388909X0.000000X0.000000X0.388909X-0.388909X0.000000X0.000000X-0.388909X0*%
%TD*%
%TA.AperFunction,ComponentPad*%
%ADD19C,1.100000*%
%TD*%
%TA.AperFunction,SMDPad,CuDef*%
%ADD20RoundRect,0.140000X-0.170000X0.140000X-0.170000X-0.140000X0.170000X-0.140000X0.170000X0.140000X0*%
%TD*%
%TA.AperFunction,ViaPad*%
%ADD21C,0.400000*%
%TD*%
%TA.AperFunction,Conductor*%
%ADD22C,0.400000*%
%TD*%
%TA.AperFunction,Conductor*%
%ADD23C,0.150000*%
%TD*%
G04 APERTURE END LIST*
D10*
%TO.P,TP1,1,1*%
%TO.N,/Headstage Interface/E_{stim}*%
X153000000Y-134000000D03*
%TD*%
%TO.P,TP2,1,1*%
%TO.N,GND*%
X163000000Y-134000000D03*
%TD*%
D11*
%TO.P,J4,1,Pin_1*%
%TO.N,/Headstage Interface/REF*%
X163050000Y-122540000D03*
%TO.P,J4,2,Pin_2*%
%TO.N,GND*%
X158000000Y-122540000D03*
%TO.P,J4,3,Pin_3*%
%TO.N,/Headstage Interface/REF*%
X163050000Y-120000000D03*
%TO.P,J4,4,Pin_4*%
%TO.N,GND*%
X158000000Y-120000000D03*
%TD*%
D12*
%TO.P,R3,1*%
%TO.N,VCC*%
X122690000Y-120000000D03*
%TO.P,R3,2*%
%TO.N,/Test Signal Interface/SCL*%
X123710000Y-120000000D03*
%TD*%
D10*
%TO.P,TP4,1,1*%
%TO.N,GND*%
X163000000Y-80000000D03*
%TD*%
D13*
%TO.P,R4,1*%
%TO.N,/Headstage Interface/E_{stim}*%
X154020000Y-111600000D03*
%TO.P,R4,2*%
%TO.N,GND*%
X153000000Y-111600000D03*
%TD*%
D14*
%TO.P,LD1,1,A*%
%TO.N,/Headstage Interface/A*%
X153000000Y-85300000D03*
D15*
%TO.P,LD1,2,NC*%
%TO.N,unconnected-(LD1-NC-Pad2)*%
X152300000Y-86000000D03*
%TO.P,LD1,3,C*%
%TO.N,/Headstage Interface/K_{0}*%
X153000000Y-86700000D03*
%TD*%
D16*
%TO.P,J1,1,Pin_1*%
%TO.N,/Headstage Interface/E_{stim}*%
X156460000Y-108800000D03*
%TO.P,J1,2,Pin_2*%
%TO.N,GND*%
X159540000Y-108800000D03*
%TO.P,J1,3,Pin_3*%
%TO.N,/Headstage Interface/B7.E_{7}*%
X156460000Y-108400000D03*
%TO.P,J1,4,Pin_4*%
%TO.N,/Headstage Interface/REF*%
X159540000Y-108400000D03*
%TO.P,J1,5,Pin_5*%
%TO.N,/Headstage Interface/B7.E_{6}*%
X156460000Y-108000000D03*
%TO.P,J1,6,Pin_6*%
%TO.N,/Headstage Interface/B11.E_{7}*%
X159540000Y-108000000D03*
%TO.P,J1,7,Pin_7*%
%TO.N,/Headstage Interface/B7.E_{5}*%
X156460000Y-107600000D03*
%TO.P,J1,8,Pin_8*%
%TO.N,/Headstage Interface/B11.E_{6}*%
X159540000Y-107600000D03*
%TO.P,J1,9,Pin_9*%
%TO.N,/Headstage Interface/B7.E_{4}*%
X156460000Y-107200000D03*
%TO.P,J1,10,Pin_10*%
%TO.N,/Headstage Interface/B11.E_{5}*%
X159540000Y-107200000D03*
%TO.P,J1,11,Pin_11*%
%TO.N,/Headstage Interface/B7.E_{3}*%
X156460000Y-106800000D03*
%TO.P,J1,12,Pin_12*%
%TO.N,/Headstage Interface/B11.E_{4}*%
X159540000Y-106800000D03*
%TO.P,J1,13,Pin_13*%
%TO.N,/Headstage Interface/B7.E_{2}*%
X156460000Y-106400000D03*
%TO.P,J1,14,Pin_14*%
%TO.N,/Headstage Interface/B11.E_{3}*%
X159540000Y-106400000D03*
%TO.P,J1,15,Pin_15*%
%TO.N,/Headstage Interface/B7.E_{1}*%
X156460000Y-106000000D03*
%TO.P,J1,16,Pin_16*%
%TO.N,/Headstage Interface/B11.E_{2}*%
X159540000Y-106000000D03*
%TO.P,J1,17,Pin_17*%
%TO.N,/Headstage Interface/B7.E_{0}*%
X156460000Y-105600000D03*
%TO.P,J1,18,Pin_18*%
%TO.N,/Headstage Interface/B11.E_{1}*%
X159540000Y-105600000D03*
%TO.P,J1,19,Pin_19*%
%TO.N,/Headstage Interface/B6.E_{7}*%
X156460000Y-105200000D03*
%TO.P,J1,20,Pin_20*%
%TO.N,/Headstage Interface/B11.E_{0}*%
X159540000Y-105200000D03*
%TO.P,J1,21,Pin_21*%
%TO.N,/Headstage Interface/B6.E_{6}*%
X156460000Y-104800000D03*
%TO.P,J1,22,Pin_22*%
%TO.N,/Headstage Interface/B10.E_{7}*%
X159540000Y-104800000D03*
%TO.P,J1,23,Pin_23*%
%TO.N,/Headstage Interface/B6.E_{5}*%
X156460000Y-104400000D03*
%TO.P,J1,24,Pin_24*%
%TO.N,/Headstage Interface/B10.E_{6}*%
X159540000Y-104400000D03*
%TO.P,J1,25,Pin_25*%
%TO.N,/Headstage Interface/B6.E_{4}*%
X156460000Y-104000000D03*
%TO.P,J1,26,Pin_26*%
%TO.N,/Headstage Interface/B10.E_{5}*%
X159540000Y-104000000D03*
%TO.P,J1,27,Pin_27*%
%TO.N,/Headstage Interface/B6.E_{3}*%
X156460000Y-103600000D03*
%TO.P,J1,28,Pin_28*%
%TO.N,/Headstage Interface/B10.E_{4}*%
X159540000Y-103600000D03*
%TO.P,J1,29,Pin_29*%
%TO.N,/Headstage Interface/B6.E_{2}*%
X156460000Y-103200000D03*
%TO.P,J1,30,Pin_30*%
%TO.N,/Headstage Interface/B10.E_{3}*%
X159540000Y-103200000D03*
%TO.P,J1,31,Pin_31*%
%TO.N,/Headstage Interface/B6.E_{1}*%
X156460000Y-102800000D03*
%TO.P,J1,32,Pin_32*%
%TO.N,/Headstage Interface/B10.E_{2}*%
X159540000Y-102800000D03*
%TO.P,J1,33,Pin_33*%
%TO.N,/Headstage Interface/B6.E_{0}*%
X156460000Y-102400000D03*
%TO.P,J1,34,Pin_34*%
%TO.N,/Headstage Interface/B10.E_{1}*%
X159540000Y-102400000D03*
%TO.P,J1,35,Pin_35*%
%TO.N,/Headstage Interface/B5.E_{7}*%
X156460000Y-102000000D03*
%TO.P,J1,36,Pin_36*%
%TO.N,/Headstage Interface/B10.E_{0}*%
X159540000Y-102000000D03*
%TO.P,J1,37,Pin_37*%
%TO.N,/Headstage Interface/B5.E_{6}*%
X156460000Y-101600000D03*
%TO.P,J1,38,Pin_38*%
%TO.N,/Headstage Interface/B9.E_{7}*%
X159540000Y-101600000D03*
%TO.P,J1,39,Pin_39*%
%TO.N,/Headstage Interface/B5.E_{5}*%
X156460000Y-101200000D03*
%TO.P,J1,40,Pin_40*%
%TO.N,/Headstage Interface/B9.E_{6}*%
X159540000Y-101200000D03*
%TO.P,J1,41,Pin_41*%
%TO.N,/Headstage Interface/B5.E_{4}*%
X156460000Y-100800000D03*
%TO.P,J1,42,Pin_42*%
%TO.N,/Headstage Interface/B9.E_{5}*%
X159540000Y-100800000D03*
%TO.P,J1,43,Pin_43*%
%TO.N,/Headstage Interface/B5.E_{3}*%
X156460000Y-100400000D03*
%TO.P,J1,44,Pin_44*%
%TO.N,/Headstage Interface/B9.E_{4}*%
X159540000Y-100400000D03*
%TO.P,J1,45,Pin_45*%
%TO.N,/Headstage Interface/B5.E_{2}*%
X156460000Y-100000000D03*
%TO.P,J1,46,Pin_46*%
%TO.N,/Headstage Interface/B9.E_{3}*%
X159540000Y-100000000D03*
%TO.P,J1,47,Pin_47*%
%TO.N,/Headstage Interface/B5.E_{1}*%
X156460000Y-99600000D03*
%TO.P,J1,48,Pin_48*%
%TO.N,/Headstage Interface/B9.E_{2}*%
X159540000Y-99600000D03*
%TO.P,J1,49,Pin_49*%
%TO.N,/Headstage Interface/B5.E_{0}*%
X156460000Y-99200000D03*
%TO.P,J1,50,Pin_50*%
%TO.N,/Headstage Interface/B9.E_{1}*%
X159540000Y-99200000D03*
%TO.P,J1,51,Pin_51*%
%TO.N,/Headstage Interface/B4.E_{7}*%
X156460000Y-98800000D03*
%TO.P,J1,52,Pin_52*%
%TO.N,/Headstage Interface/B9.E_{0}*%
X159540000Y-98800000D03*
%TO.P,J1,53,Pin_53*%
%TO.N,/Headstage Interface/B4.E_{6}*%
X156460000Y-98400000D03*
%TO.P,J1,54,Pin_54*%
%TO.N,/Headstage Interface/B8.E_{7}*%
X159540000Y-98400000D03*
%TO.P,J1,55,Pin_55*%
%TO.N,/Headstage Interface/B4.E_{5}*%
X156460000Y-98000000D03*
%TO.P,J1,56,Pin_56*%
%TO.N,/Headstage Interface/B8.E_{6}*%
X159540000Y-98000000D03*
%TO.P,J1,57,Pin_57*%
%TO.N,/Headstage Interface/B4.E_{4}*%
X156460000Y-97600000D03*
%TO.P,J1,58,Pin_58*%
%TO.N,/Headstage Interface/B8.E_{5}*%
X159540000Y-97600000D03*
%TO.P,J1,59,Pin_59*%
%TO.N,/Headstage Interface/B4.E_{3}*%
X156460000Y-97200000D03*
%TO.P,J1,60,Pin_60*%
%TO.N,/Headstage Interface/B8.E_{4}*%
X159540000Y-97200000D03*
%TO.P,J1,61,Pin_61*%
%TO.N,/Headstage Interface/B4.E_{2}*%
X156460000Y-96800000D03*
%TO.P,J1,62,Pin_62*%
%TO.N,/Headstage Interface/B8.E_{3}*%
X159540000Y-96800000D03*
%TO.P,J1,63,Pin_63*%
%TO.N,/Headstage Interface/B4.E_{1}*%
X156460000Y-96400000D03*
%TO.P,J1,64,Pin_64*%
%TO.N,/Headstage Interface/B8.E_{2}*%
X159540000Y-96400000D03*
%TO.P,J1,65,Pin_65*%
%TO.N,/Headstage Interface/B4.E_{0}*%
X156460000Y-96000000D03*
%TO.P,J1,66,Pin_66*%
%TO.N,/Headstage Interface/B8.E_{1}*%
X159540000Y-96000000D03*
%TO.P,J1,67,Pin_67*%
%TO.N,/Headstage Interface/K_{0}*%
X156460000Y-95600000D03*
%TO.P,J1,68,Pin_68*%
%TO.N,/Headstage Interface/B8.E_{0}*%
X159540000Y-95600000D03*
%TO.P,J1,69,Pin_69*%
%TO.N,/Headstage Interface/K_{1}*%
X156460000Y-95200000D03*
%TO.P,J1,70,Pin_70*%
%TO.N,/Headstage Interface/A*%
X159540000Y-95200000D03*
%TD*%
D12*
%TO.P,R1,1*%
%TO.N,VCC*%
X121390000Y-121100000D03*
%TO.P,R1,2*%
%TO.N,/Test Signal Interface/WP*%
X122410000Y-121100000D03*
%TD*%
D17*
%TO.P,U1,1,A0*%
%TO.N,GND*%
X121295000Y-128175000D03*
%TO.P,U1,2,A1*%
X122565000Y-128175000D03*
%TO.P,U1,3,A2*%
X123835000Y-128175000D03*
%TO.P,U1,4,GND*%
X125105000Y-128175000D03*
%TO.P,U1,5,SDA*%
%TO.N,/Test Signal Interface/SDA*%
X125105000Y-123225000D03*
%TO.P,U1,6,SCL*%
%TO.N,/Test Signal Interface/SCL*%
X123835000Y-123225000D03*
%TO.P,U1,7,WP*%
%TO.N,/Test Signal Interface/WP*%
X122565000Y-123225000D03*
%TO.P,U1,8,VCC*%
%TO.N,VCC*%
X121295000Y-123225000D03*
%TD*%
D12*
%TO.P,R2,1*%
%TO.N,VCC*%
X124090000Y-118800000D03*
%TO.P,R2,2*%
%TO.N,/Test Signal Interface/SDA*%
X125110000Y-118800000D03*
%TD*%
D18*
%TO.P,LD2,1,A*%
%TO.N,/Headstage Interface/A*%
X163000000Y-87000000D03*
D19*
%TO.P,LD2,2,NC*%
%TO.N,unconnected-(LD2-NC-Pad2)*%
X164000000Y-86000000D03*
%TO.P,LD2,3,C*%
%TO.N,/Headstage Interface/K_{1}*%
X163000000Y-85000000D03*
%TD*%
D20*
%TO.P,C1,1*%
%TO.N,VCC*%
X119700000Y-125220000D03*
%TO.P,C1,2*%
%TO.N,GND*%
X119700000Y-126180000D03*
%TD*%
D10*
%TO.P,TP3,1,1*%
%TO.N,/Headstage Interface/A*%
X153000000Y-80000000D03*
%TD*%
D21*
%TO.N,GND*%
X157900000Y-95700000D03*
X202300000Y-124800000D03*
X175500000Y-99600000D03*
X113500000Y-81700000D03*
X128900000Y-99600000D03*
X113269807Y-112500000D03*
X153400000Y-91900000D03*
X133600000Y-117000000D03*
X161400000Y-132300000D03*
X187500000Y-92500000D03*
X135000000Y-80800000D03*
X166800000Y-111700000D03*
X148400000Y-81100000D03*
X113800000Y-133900000D03*
X138700000Y-106800000D03*
X187200000Y-99600000D03*
X179700000Y-132600000D03*
X203200000Y-107500000D03*
X141400000Y-92500000D03*
X152000000Y-122200000D03*
X175300000Y-106800000D03*
X187500000Y-106800000D03*
X140100000Y-99600000D03*
X128900000Y-133600000D03*
X113100000Y-94400000D03*
X158000000Y-106300000D03*
X159400000Y-113200000D03*
X203000000Y-80900000D03*
X174500000Y-92400000D03*
X193900000Y-134700000D03*
X148100000Y-112900000D03*
X184300000Y-116500000D03*
X202900000Y-91100000D03*
X129000000Y-107000000D03*
X129000000Y-92400000D03*
X184900000Y-80200000D03*
X174067445Y-80221652D03*
X161900000Y-92500000D03*
X141900000Y-133000000D03*
%TO.N,VCC*%
X120800000Y-121000000D03*
X123450000Y-118350000D03*
X119700000Y-124200000D03*
X119700000Y-123700000D03*
X122200000Y-119600000D03*
%TO.N,/Headstage Interface/B7.E_{7}*%
X154500000Y-108400000D03*
%TO.N,/Headstage Interface/B5.E_{0}*%
X155200000Y-99200000D03*
%TO.N,/Headstage Interface/B5.E_{2}*%
X155200000Y-100000000D03*
%TO.N,/Headstage Interface/B7.E_{3}*%
X154500000Y-106800000D03*
%TO.N,/Headstage Interface/B7.E_{1}*%
X154500000Y-106000000D03*
%TO.N,/Headstage Interface/B5.E_{5}*%
X154500000Y-101200000D03*
%TO.N,/Headstage Interface/B4.E_{7}*%
X154500000Y-98800000D03*
%TO.N,/Headstage Interface/B4.E_{5}*%
X154500000Y-98000000D03*
%TO.N,/Headstage Interface/B4.E_{2}*%
X155200000Y-96800000D03*
%TO.N,/Headstage Interface/B6.E_{2}*%
X155200000Y-103200000D03*
%TO.N,/Headstage Interface/B4.E_{3}*%
X154500000Y-97200000D03*
%TO.N,/Headstage Interface/B7.E_{5}*%
X154500000Y-107600000D03*
%TO.N,/Headstage Interface/B7.E_{0}*%
X155200000Y-105600000D03*
%TO.N,/Headstage Interface/B7.E_{4}*%
X155200000Y-107200000D03*
%TO.N,/Headstage Interface/B4.E_{6}*%
X155200000Y-98400000D03*
%TO.N,/Headstage Interface/B6.E_{5}*%
X154500000Y-104400000D03*
%TO.N,/Headstage Interface/B7.E_{6}*%
X155200000Y-108000000D03*
%TO.N,/Headstage Interface/B7.E_{2}*%
X155200000Y-106400000D03*
%TO.N,/Headstage Interface/B5.E_{7}*%
X154500000Y-102000000D03*
%TO.N,/Headstage Interface/B6.E_{7}*%
X154500000Y-105200000D03*
%TO.N,/Headstage Interface/B6.E_{0}*%
X155200000Y-102400000D03*
%TO.N,/Headstage Interface/B5.E_{1}*%
X154500000Y-99600000D03*
%TO.N,/Headstage Interface/B4.E_{4}*%
X155200000Y-97600000D03*
%TO.N,/Headstage Interface/B4.E_{0}*%
X155200000Y-96000000D03*
%TO.N,/Headstage Interface/B6.E_{6}*%
X155200000Y-104800000D03*
%TO.N,/Headstage Interface/B6.E_{1}*%
X154500000Y-102800000D03*
%TO.N,/Headstage Interface/B5.E_{6}*%
X155200000Y-101600000D03*
%TO.N,/Headstage Interface/B6.E_{4}*%
X155200000Y-104000000D03*
%TO.N,/Headstage Interface/B5.E_{4}*%
X155200000Y-100800000D03*
%TO.N,/Headstage Interface/B5.E_{3}*%
X154500000Y-100400000D03*
%TO.N,/Headstage Interface/B4.E_{1}*%
X154500000Y-96400000D03*
%TO.N,/Headstage Interface/B6.E_{3}*%
X154500000Y-103600000D03*
%TO.N,/Headstage Interface/B8.E_{2}*%
X160800000Y-96400000D03*
%TO.N,/Test Signal Interface/SDA*%
X125863500Y-116536500D03*
%TO.N,/Headstage Interface/B10.E_{4}*%
X160800000Y-103600000D03*
%TO.N,/Headstage Interface/B8.E_{7}*%
X161500000Y-98400000D03*
%TO.N,/Test Signal Interface/SCL*%
X127700000Y-115400000D03*
%TO.N,/Headstage Interface/B8.E_{3}*%
X161500000Y-96800000D03*
%TO.N,/Headstage Interface/B11.E_{5}*%
X161500000Y-107200000D03*
%TO.N,/Headstage Interface/B8.E_{4}*%
X160800000Y-97200000D03*
%TO.N,/Headstage Interface/B9.E_{1}*%
X161500000Y-99200000D03*
%TO.N,/Headstage Interface/B8.E_{0}*%
X160800000Y-95600000D03*
%TO.N,/Headstage Interface/B9.E_{0}*%
X160800000Y-98800000D03*
%TO.N,/Headstage Interface/B9.E_{5}*%
X161500000Y-100800000D03*
%TO.N,/Headstage Interface/B10.E_{3}*%
X161500000Y-103200000D03*
%TO.N,/Headstage Interface/B11.E_{4}*%
X160800000Y-106800000D03*
%TO.N,/Headstage Interface/B10.E_{1}*%
X161500000Y-102400000D03*
%TO.N,/Headstage Interface/B10.E_{2}*%
X160800000Y-102800000D03*
%TO.N,/Headstage Interface/B10.E_{7}*%
X161500000Y-104800000D03*
%TO.N,/Headstage Interface/B9.E_{3}*%
X161500000Y-100000000D03*
%TO.N,/Headstage Interface/B9.E_{4}*%
X160800000Y-100400000D03*
%TO.N,/Headstage Interface/B11.E_{0}*%
X160800000Y-105200000D03*
%TO.N,/Headstage Interface/B11.E_{6}*%
X160800000Y-107600000D03*
%TO.N,/Headstage Interface/B9.E_{6}*%
X160800000Y-101200000D03*
%TO.N,/Headstage Interface/B8.E_{1}*%
X161500000Y-96000000D03*
%TO.N,/Headstage Interface/B11.E_{1}*%
X161500000Y-105600000D03*
%TO.N,/Headstage Interface/B8.E_{6}*%
X160800000Y-98000000D03*
%TO.N,/Headstage Interface/B11.E_{3}*%
X161500000Y-106400000D03*
%TO.N,/Headstage Interface/B9.E_{7}*%
X161500000Y-101600000D03*
%TO.N,/Headstage Interface/B9.E_{2}*%
X160800000Y-99600000D03*
%TO.N,/Headstage Interface/B8.E_{5}*%
X161500000Y-97600000D03*
%TO.N,/Headstage Interface/B11.E_{7}*%
X161500000Y-108000000D03*
%TO.N,/Headstage Interface/B10.E_{6}*%
X160800000Y-104400000D03*
%TO.N,/Headstage Interface/B10.E_{0}*%
X160800000Y-102000000D03*
%TO.N,/Headstage Interface/B10.E_{5}*%
X161500000Y-104000000D03*
%TO.N,/Headstage Interface/B11.E_{2}*%
X160800000Y-106000000D03*
%TO.N,/Test Signal Interface/WP*%
X118100000Y-116100000D03*
%TD*%
D22*
%TO.N,VCC*%
X119700000Y-125220000D02*
X119700000Y-123700000D01*
D23*
X122600000Y-120000000D02*
X122200000Y-119600000D01*
X120900000Y-121100000D02*
X120800000Y-121000000D01*
X122690000Y-120000000D02*
X122600000Y-120000000D01*
X124090000Y-118800000D02*
X123900000Y-118800000D01*
X121390000Y-121100000D02*
X120900000Y-121100000D01*
D22*
X119700000Y-123700000D02*
X119700000Y-124400000D01*
X119700000Y-124400000D02*
X119700000Y-124200000D01*
D23*
X123900000Y-118800000D02*
X123450000Y-118350000D01*
D22*
X120175000Y-123225000D02*
X119700000Y-123700000D01*
X121295000Y-123225000D02*
X120175000Y-123225000D01*
D23*
%TO.N,/Headstage Interface/B7.E_{7}*%
X156460000Y-108400000D02*
X154500000Y-108400000D01*
%TO.N,/Headstage Interface/B5.E_{0}*%
X156460000Y-99200000D02*
X155200000Y-99200000D01*
%TO.N,/Headstage Interface/B5.E_{2}*%
X156460000Y-100000000D02*
X155200000Y-100000000D01*
%TO.N,/Headstage Interface/B7.E_{3}*%
X156460000Y-106800000D02*
X154500000Y-106800000D01*
%TO.N,/Headstage Interface/B7.E_{1}*%
X156460000Y-106000000D02*
X154500000Y-106000000D01*
%TO.N,/Headstage Interface/B5.E_{5}*%
X156460000Y-101200000D02*
X154500000Y-101200000D01*
%TO.N,/Headstage Interface/B4.E_{7}*%
X156460000Y-98800000D02*
X154500000Y-98800000D01*
D22*
%TO.N,/Headstage Interface/K_{0}*%
X155450000Y-95150000D02*
X154900000Y-94600000D01*
X154900000Y-94600000D02*
X154900000Y-88600000D01*
D23*
X155450000Y-95150000D02*
X155900000Y-95600000D01*
X155900000Y-95600000D02*
X156460000Y-95600000D01*
D22*
X154900000Y-88600000D02*
X153000000Y-86700000D01*
D23*
%TO.N,/Headstage Interface/B4.E_{5}*%
X156460000Y-98000000D02*
X154500000Y-98000000D01*
%TO.N,/Headstage Interface/B4.E_{2}*%
X156460000Y-96800000D02*
X155200000Y-96800000D01*
%TO.N,/Headstage Interface/B6.E_{2}*%
X156460000Y-103200000D02*
X155200000Y-103200000D01*
%TO.N,/Headstage Interface/E_{stim}*%
X153000000Y-131020000D02*
X153000000Y-135000000D01*
D22*
X154020000Y-111600000D02*
X154890000Y-111600000D01*
D23*
X156500000Y-108840000D02*
X156460000Y-108800000D01*
D22*
X156500000Y-109990000D02*
X156500000Y-109500000D01*
X154890000Y-111600000D02*
X156500000Y-109990000D01*
D23*
X156500000Y-109400000D02*
X156500000Y-108840000D01*
X154020000Y-130000000D02*
X153000000Y-131020000D01*
X156500000Y-109400000D02*
X156500000Y-109500000D01*
X154020000Y-111600000D02*
X154020000Y-130000000D01*
%TO.N,/Headstage Interface/B4.E_{3}*%
X156460000Y-97200000D02*
X154500000Y-97200000D01*
%TO.N,/Headstage Interface/B7.E_{5}*%
X156460000Y-107600000D02*
X154500000Y-107600000D01*
%TO.N,/Headstage Interface/B7.E_{0}*%
X156460000Y-105600000D02*
X155200000Y-105600000D01*
%TO.N,/Headstage Interface/B7.E_{4}*%
X156460000Y-107200000D02*
X155200000Y-107200000D01*
%TO.N,/Headstage Interface/B4.E_{6}*%
X156460000Y-98400000D02*
X155200000Y-98400000D01*
%TO.N,/Headstage Interface/B6.E_{5}*%
X156460000Y-104400000D02*
X154500000Y-104400000D01*
%TO.N,/Headstage Interface/B7.E_{6}*%
X156460000Y-108000000D02*
X155200000Y-108000000D01*
%TO.N,/Headstage Interface/K_{1}*%
X156460000Y-95200000D02*
X156460000Y-94500000D01*
D22*
X162800000Y-85000000D02*
X163000000Y-85000000D01*
X156460000Y-91340000D02*
X162800000Y-85000000D01*
X156460000Y-94500000D02*
X156460000Y-91340000D01*
D23*
%TO.N,/Headstage Interface/B7.E_{2}*%
X156460000Y-106400000D02*
X155200000Y-106400000D01*
%TO.N,/Headstage Interface/B5.E_{7}*%
X156460000Y-102000000D02*
X154500000Y-102000000D01*
%TO.N,/Headstage Interface/B6.E_{7}*%
X156460000Y-105200000D02*
X154500000Y-105200000D01*
%TO.N,/Headstage Interface/B6.E_{0}*%
X156460000Y-102400000D02*
X155200000Y-102400000D01*
%TO.N,/Headstage Interface/B5.E_{1}*%
X156460000Y-99600000D02*
X154500000Y-99600000D01*
%TO.N,/Headstage Interface/B4.E_{4}*%
X156460000Y-97600000D02*
X155200000Y-97600000D01*
%TO.N,/Headstage Interface/B4.E_{0}*%
X156460000Y-96000000D02*
X155200000Y-96000000D01*
%TO.N,/Headstage Interface/REF*%
X160800000Y-108400000D02*
X161200000Y-108800000D01*
X159540000Y-108400000D02*
X160800000Y-108400000D01*
D22*
X162970000Y-110570000D02*
X162970000Y-122655000D01*
X161200000Y-108800000D02*
X162970000Y-110570000D01*
D23*
%TO.N,/Headstage Interface/A*%
X159540000Y-95200000D02*
X159540000Y-94700000D01*
D22*
X159540000Y-94700000D02*
X159540000Y-90560000D01*
X159540000Y-90560000D02*
X163000000Y-87100000D01*
X163000000Y-87100000D02*
X163000000Y-87000000D01*
D23*
%TO.N,/Headstage Interface/B6.E_{6}*%
X156460000Y-104800000D02*
X155200000Y-104800000D01*
%TO.N,/Headstage Interface/B6.E_{1}*%
X156460000Y-102800000D02*
X154500000Y-102800000D01*
%TO.N,/Headstage Interface/B5.E_{6}*%
X156460000Y-101600000D02*
X155200000Y-101600000D01*
%TO.N,/Headstage Interface/B6.E_{4}*%
X156460000Y-104000000D02*
X155200000Y-104000000D01*
%TO.N,/Headstage Interface/B5.E_{4}*%
X156460000Y-100800000D02*
X155200000Y-100800000D01*
%TO.N,/Headstage Interface/B5.E_{3}*%
X156460000Y-100400000D02*
X154500000Y-100400000D01*
%TO.N,/Headstage Interface/B4.E_{1}*%
X156460000Y-96400000D02*
X154500000Y-96400000D01*
%TO.N,/Headstage Interface/B6.E_{3}*%
X156460000Y-103600000D02*
X154500000Y-103600000D01*
%TO.N,/Headstage Interface/B8.E_{2}*%
X159540000Y-96400000D02*
X160800000Y-96400000D01*
%TO.N,/Test Signal Interface/SDA*%
X125863500Y-116536500D02*
X125863500Y-118436500D01*
X125863500Y-118436500D02*
X125500000Y-118800000D01*
X125040000Y-123160000D02*
X125105000Y-123225000D01*
X125500000Y-118800000D02*
X125110000Y-118800000D01*
%TO.N,/Headstage Interface/B10.E_{4}*%
X159540000Y-103600000D02*
X160800000Y-103600000D01*
%TO.N,/Headstage Interface/B8.E_{7}*%
X159540000Y-98400000D02*
X161500000Y-98400000D01*
%TO.N,/Test Signal Interface/SCL*%
X127700000Y-118200000D02*
X125900000Y-120000000D01*
X123835000Y-123225000D02*
X123835000Y-120125000D01*
X127700000Y-115400000D02*
X127700000Y-118200000D01*
X123710000Y-119910000D02*
X123710000Y-120000000D01*
X123835000Y-120125000D02*
X123710000Y-120000000D01*
X125900000Y-120000000D02*
X123710000Y-120000000D01*
%TO.N,/Headstage Interface/B8.E_{3}*%
X159540000Y-96800000D02*
X161500000Y-96800000D01*
%TO.N,/Headstage Interface/B11.E_{5}*%
X159540000Y-107200000D02*
X161500000Y-107200000D01*
%TO.N,/Headstage Interface/B8.E_{4}*%
X159540000Y-97200000D02*
X160800000Y-97200000D01*
%TO.N,/Headstage Interface/B9.E_{1}*%
X159540000Y-99200000D02*
X161500000Y-99200000D01*
%TO.N,/Headstage Interface/B8.E_{0}*%
X159540000Y-95600000D02*
X160800000Y-95600000D01*
%TO.N,/Headstage Interface/B9.E_{0}*%
X159540000Y-98800000D02*
X160800000Y-98800000D01*
%TO.N,/Headstage Interface/B9.E_{5}*%
X159540000Y-100800000D02*
X161500000Y-100800000D01*
%TO.N,/Headstage Interface/B10.E_{3}*%
X159540000Y-103200000D02*
X161500000Y-103200000D01*
%TO.N,/Headstage Interface/B11.E_{4}*%
X159540000Y-106800000D02*
X160800000Y-106800000D01*
%TO.N,/Headstage Interface/B10.E_{1}*%
X159540000Y-102400000D02*
X161500000Y-102400000D01*
%TO.N,/Headstage Interface/B10.E_{2}*%
X159540000Y-102800000D02*
X160800000Y-102800000D01*
%TO.N,/Headstage Interface/B10.E_{7}*%
X159540000Y-104800000D02*
X161500000Y-104800000D01*
%TO.N,/Headstage Interface/B9.E_{3}*%
X159540000Y-100000000D02*
X161500000Y-100000000D01*
%TO.N,/Headstage Interface/B9.E_{4}*%
X159540000Y-100400000D02*
X160800000Y-100400000D01*
%TO.N,/Headstage Interface/B11.E_{0}*%
X159540000Y-105200000D02*
X160800000Y-105200000D01*
%TO.N,/Headstage Interface/B11.E_{6}*%
X159540000Y-107600000D02*
X160800000Y-107600000D01*
%TO.N,/Headstage Interface/B9.E_{6}*%
X159540000Y-101200000D02*
X160800000Y-101200000D01*
%TO.N,/Headstage Interface/B8.E_{1}*%
X159540000Y-96000000D02*
X161500000Y-96000000D01*
%TO.N,/Headstage Interface/B11.E_{1}*%
X159540000Y-105600000D02*
X161500000Y-105600000D01*
%TO.N,/Headstage Interface/B8.E_{6}*%
X159540000Y-98000000D02*
X160800000Y-98000000D01*
%TO.N,/Headstage Interface/B11.E_{3}*%
X159540000Y-106400000D02*
X161500000Y-106400000D01*
%TO.N,/Headstage Interface/B9.E_{7}*%
X159540000Y-101600000D02*
X161500000Y-101600000D01*
%TO.N,/Headstage Interface/B9.E_{2}*%
X159540000Y-99600000D02*
X160800000Y-99600000D01*
%TO.N,/Headstage Interface/B8.E_{5}*%
X159540000Y-97600000D02*
X161500000Y-97600000D01*
%TO.N,/Headstage Interface/B11.E_{7}*%
X160600000Y-108000000D02*
X159540000Y-108000000D01*
X161500000Y-108000000D02*
X160500000Y-108000000D01*
X160500000Y-108000000D02*
X160600000Y-108000000D01*
%TO.N,/Headstage Interface/B10.E_{6}*%
X159540000Y-104400000D02*
X160800000Y-104400000D01*
%TO.N,/Headstage Interface/B10.E_{0}*%
X159540000Y-102000000D02*
X160800000Y-102000000D01*
%TO.N,/Headstage Interface/B10.E_{5}*%
X159540000Y-104000000D02*
X161500000Y-104000000D01*
%TO.N,/Headstage Interface/B11.E_{2}*%
X159540000Y-106000000D02*
X160800000Y-106000000D01*
%TO.N,/Test Signal Interface/WP*%
X121510000Y-120200000D02*
X122410000Y-121100000D01*
X118100000Y-118000000D02*
X120300000Y-120200000D01*
X118100000Y-116100000D02*
X118100000Y-118000000D01*
X122565000Y-121255000D02*
X122410000Y-121100000D01*
X122565000Y-123225000D02*
X122565000Y-121255000D01*
X120300000Y-120200000D02*
X121510000Y-120200000D01*
%TD*%
%TA.AperFunction,Conductor*%
%TO.N,GND*%
G36*
X205002065Y-77150615D02*
G01*
X205314905Y-77168184D01*
X205323141Y-77169113D01*
X205629975Y-77221246D01*
X205638058Y-77223091D01*
X205937147Y-77309256D01*
X205944960Y-77311990D01*
X206156227Y-77399500D01*
X206232511Y-77431098D01*
X206239987Y-77434698D01*
X206512398Y-77585254D01*
X206519412Y-77589662D01*
X206580735Y-77633173D01*
X206773239Y-77769762D01*
X206779726Y-77774934D01*
X207011807Y-77982334D01*
X207017665Y-77988192D01*
X207172563Y-78161523D01*
X207225064Y-78220272D01*
X207230237Y-78226760D01*
X207410333Y-78480581D01*
X207414749Y-78487608D01*
X207565301Y-78760012D01*
X207568901Y-78767488D01*
X207688005Y-79055029D01*
X207690746Y-79062862D01*
X207776907Y-79361937D01*
X207778753Y-79370027D01*
X207830885Y-79676852D01*
X207831815Y-79685099D01*
X207849384Y-79997934D01*
X207849500Y-80002083D01*
X207849500Y-133997916D01*
X207849384Y-134002065D01*
X207831815Y-134314900D01*
X207830885Y-134323147D01*
X207778753Y-134629972D01*
X207776907Y-134638062D01*
X207690746Y-134937137D01*
X207688005Y-134944970D01*
X207568901Y-135232511D01*
X207565301Y-135239987D01*
X207414749Y-135512391D01*
X207410333Y-135519418D01*
X207230237Y-135773239D01*
X207225064Y-135779727D01*
X207017670Y-136011802D01*
X207011802Y-136017670D01*
X206779727Y-136225064D01*
X206773239Y-136230237D01*
X206519418Y-136410333D01*
X206512391Y-136414749D01*
X206239987Y-136565301D01*
X206232511Y-136568901D01*
X205944970Y-136688005D01*
X205937137Y-136690746D01*
X205638062Y-136776907D01*
X205629972Y-136778753D01*
X205323147Y-136830885D01*
X205314900Y-136831815D01*
X205002066Y-136849384D01*
X204997917Y-136849500D01*
X111002083Y-136849500D01*
X110997934Y-136849384D01*
X110685099Y-136831815D01*
X110676852Y-136830885D01*
X110370027Y-136778753D01*
X110361937Y-136776907D01*
X110062862Y-136690746D01*
X110055029Y-136688005D01*
X109767488Y-136568901D01*
X109760012Y-136565301D01*
X109487608Y-136414749D01*
X109480581Y-136410333D01*
X109474946Y-136406335D01*
X109353670Y-136320285D01*
X109226760Y-136230237D01*
X109220272Y-136225064D01*
X109107414Y-136124208D01*
X108988192Y-136017665D01*
X108982334Y-136011807D01*
X108774934Y-135779726D01*
X108769762Y-135773239D01*
X108589666Y-135519418D01*
X108585254Y-135512398D01*
X108434698Y-135239987D01*
X108431098Y-135232511D01*
X108333434Y-134996730D01*
X108311990Y-134944960D01*
X108309256Y-134937147D01*
X108223091Y-134638058D01*
X108221246Y-134629972D01*
X108169113Y-134323141D01*
X108168184Y-134314900D01*
X108150616Y-134002065D01*
X108150500Y-133997916D01*
X108150500Y-133853959D01*
X150399500Y-133853959D01*
X150399500Y-134146041D01*
X150401649Y-134165111D01*
X150432202Y-134436289D01*
X150497195Y-134721040D01*
X150497201Y-134721058D01*
X150593661Y-134996730D01*
X150707208Y-135232511D01*
X150720395Y-135259893D01*
X150875792Y-135507206D01*
X151057902Y-135735565D01*
X151264435Y-135942098D01*
X151492794Y-136124208D01*
X151740107Y-136279605D01*
X151921222Y-136366826D01*
X152003269Y-136406338D01*
X152251083Y-136493050D01*
X152278955Y-136502803D01*
X152563714Y-136567798D01*
X152853959Y-136600500D01*
X152853963Y-136600500D01*
X153146037Y-136600500D01*
X153146041Y-136600500D01*
X153436286Y-136567798D01*
X153721045Y-136502803D01*
X153866922Y-136451759D01*
X153996730Y-136406338D01*
X153996734Y-136406335D01*
X153996737Y-136406335D01*
X154259893Y-136279605D01*
X154507206Y-136124208D01*
X154735565Y-135942098D01*
X154942098Y-135735565D01*
X155124208Y-135507206D01*
X155279605Y-135259893D01*
X155406335Y-134996737D01*
X155406335Y-134996734D01*
X155406338Y-134996730D01*
X155469392Y-134816529D01*
X155502803Y-134721045D01*
X155567798Y-134436286D01*
X155600500Y-134146041D01*
X155600500Y-133853959D01*
X155599871Y-133848374D01*
X160300000Y-133848374D01*
X160300000Y-134151625D01*
X160333954Y-134452982D01*
X160333954Y-134452983D01*
X160401432Y-134748625D01*
X160401437Y-134748641D01*
X160501593Y-135034869D01*
X160633173Y-135308097D01*
X160794516Y-135564874D01*
X160983593Y-135801969D01*
X161020101Y-135838477D01*
X161939339Y-134919238D01*
X162080761Y-135060660D01*
X161161523Y-135979899D01*
X161198030Y-136016406D01*
X161435125Y-136205483D01*
X161691902Y-136366826D01*
X161965130Y-136498406D01*
X162251358Y-136598562D01*
X162251374Y-136598567D01*
X162547016Y-136666045D01*
X162848375Y-136700000D01*
X163151625Y-136700000D01*
X163452982Y-136666045D01*
X163452983Y-136666045D01*
X163748625Y-136598567D01*
X163748641Y-136598562D01*
X164034869Y-136498406D01*
X164308097Y-136366826D01*
X164564874Y-136205483D01*
X164801969Y-136016406D01*
X164838477Y-135979899D01*
X163919238Y-135060660D01*
X164060660Y-134919238D01*
X164979899Y-135838477D01*
X165016406Y-135801969D01*
X165205483Y-135564874D01*
X165366826Y-135308097D01*
X165498406Y-135034869D01*
X165598562Y-134748641D01*
X165598567Y-134748625D01*
X165666045Y-134452983D01*
X165666045Y-134452982D01*
X165700000Y-134151625D01*
X165700000Y-133848374D01*
X165666045Y-133547017D01*
X165666045Y-133547016D01*
X165598567Y-133251374D01*
X165598562Y-133251358D01*
X165498406Y-132965130D01*
X165366826Y-132691902D01*
X165205483Y-132435125D01*
X165016406Y-132198030D01*
X164979899Y-132161523D01*
X164060660Y-133080761D01*
X163919238Y-132939339D01*
X164838477Y-132020101D01*
X164801969Y-131983593D01*
X164564874Y-131794516D01*
X164308097Y-131633173D01*
X164034869Y-131501593D01*
X163748641Y-131401437D01*
X163748625Y-131401432D01*
X163452983Y-131333954D01*
X163151625Y-131300000D01*
X162848375Y-131300000D01*
X162547017Y-131333954D01*
X162547016Y-131333954D01*
X162251374Y-131401432D01*
X162251358Y-131401437D01*
X161965130Y-131501593D01*
X161691902Y-131633173D01*
X161435125Y-131794516D01*
X161198030Y-131983593D01*
X161161523Y-132020101D01*
X162080761Y-132939339D01*
X161939339Y-133080761D01*
X161020101Y-132161523D01*
X160983593Y-132198030D01*
X160794516Y-132435125D01*
X160633173Y-132691902D01*
X160501593Y-132965130D01*
X160401437Y-133251358D01*
X160401432Y-133251374D01*
X160333954Y-133547016D01*
X160333954Y-133547017D01*
X160300000Y-133848374D01*
X155599871Y-133848374D01*
X155567798Y-133563714D01*
X155502803Y-133278955D01*
X155435972Y-133087961D01*
X155406338Y-133003269D01*
X155279605Y-132740108D01*
X155279605Y-132740107D01*
X155124208Y-132492794D01*
X154942098Y-132264435D01*
X154735565Y-132057902D01*
X154735563Y-132057900D01*
X154722278Y-132047305D01*
X154722277Y-132047305D01*
X154507206Y-131875792D01*
X154259893Y-131720395D01*
X154259891Y-131720394D01*
X153996730Y-131593661D01*
X153721058Y-131497201D01*
X153721040Y-131497195D01*
X153436289Y-131432202D01*
X153341214Y-131421490D01*
X153291644Y-131394093D01*
X153275500Y-131347955D01*
X153275500Y-131164766D01*
X153297173Y-131112441D01*
X154253557Y-130156058D01*
X154295500Y-130054800D01*
X154295500Y-129945200D01*
X154295500Y-123084792D01*
X156125001Y-123084792D01*
X156127908Y-123109868D01*
X156127910Y-123109874D01*
X156173213Y-123212478D01*
X156252521Y-123291786D01*
X156355124Y-123337089D01*
X156355123Y-123337089D01*
X156380210Y-123339999D01*
X157900000Y-123339999D01*
X158100000Y-123339999D01*
X159619792Y-123339999D01*
X159644868Y-123337091D01*
X159644874Y-123337089D01*
X159747478Y-123291786D01*
X159826786Y-123212478D01*
X159872089Y-123109875D01*
X159875000Y-123084789D01*
X159875000Y-122640000D01*
X158100000Y-122640000D01*
X158100000Y-123339999D01*
X157900000Y-123339999D01*
X157900000Y-122640000D01*
X156125001Y-122640000D01*
X156125001Y-123084792D01*
X154295500Y-123084792D01*
X154295500Y-121995210D01*
X156125000Y-121995210D01*
X156125000Y-122440000D01*
X157900000Y-122440000D01*
X158100000Y-122440000D01*
X159874999Y-122440000D01*
X159874999Y-121995207D01*
X159872091Y-121970131D01*
X159872089Y-121970125D01*
X159826786Y-121867521D01*
X159747478Y-121788213D01*
X159644875Y-121742910D01*
X159644876Y-121742910D01*
X159619789Y-121740000D01*
X158100000Y-121740000D01*
X158100000Y-122440000D01*
X157900000Y-122440000D01*
X157900000Y-121740000D01*
X156380207Y-121740000D01*
X156355131Y-121742908D01*
X156355125Y-121742910D01*
X156252521Y-121788213D01*
X156173213Y-121867521D01*
X156127910Y-121970124D01*
X156125000Y-121995210D01*
X154295500Y-121995210D01*
X154295500Y-120544792D01*
X156125001Y-120544792D01*
X156127908Y-120569868D01*
X156127910Y-120569874D01*
X156173213Y-120672478D01*
X156252521Y-120751786D01*
X156355124Y-120797089D01*
X156355123Y-120797089D01*
X156380210Y-120799999D01*
X157900000Y-120799999D01*
X158100000Y-120799999D01*
X159619792Y-120799999D01*
X159644868Y-120797091D01*
X159644874Y-120797089D01*
X159747478Y-120751786D01*
X159826786Y-120672478D01*
X159872089Y-120569875D01*
X159875000Y-120544789D01*
X159875000Y-120100000D01*
X158100000Y-120100000D01*
X158100000Y-120799999D01*
X157900000Y-120799999D01*
X157900000Y-120100000D01*
X156125001Y-120100000D01*
X156125001Y-120544792D01*
X154295500Y-120544792D01*
X154295500Y-119455210D01*
X156125000Y-119455210D01*
X156125000Y-119900000D01*
X157900000Y-119900000D01*
X158100000Y-119900000D01*
X159874999Y-119900000D01*
X159874999Y-119455207D01*
X159872091Y-119430131D01*
X159872089Y-119430125D01*
X159826786Y-119327521D01*
X159747478Y-119248213D01*
X159644875Y-119202910D01*
X159644876Y-119202910D01*
X159619789Y-119200000D01*
X158100000Y-119200000D01*
X158100000Y-119900000D01*
X157900000Y-119900000D01*
X157900000Y-119200000D01*
X156380207Y-119200000D01*
X156355131Y-119202908D01*
X156355125Y-119202910D01*
X156252521Y-119248213D01*
X156173213Y-119327521D01*
X156127910Y-119430124D01*
X156125000Y-119455210D01*
X154295500Y-119455210D01*
X154295500Y-112136810D01*
X154317174Y-112084484D01*
X154322257Y-112079853D01*
X154329589Y-112073770D01*
X154350404Y-112064065D01*
X154394727Y-112019741D01*
X154397378Y-112017543D01*
X154421398Y-112010119D01*
X154444621Y-112000500D01*
X154942726Y-112000500D01*
X154942727Y-112000500D01*
X155044588Y-111973207D01*
X155135913Y-111920480D01*
X156820480Y-110235913D01*
X156873207Y-110144588D01*
X156900500Y-110042727D01*
X156900500Y-109937273D01*
X156900500Y-109447273D01*
X156900500Y-109447271D01*
X156900499Y-109447270D01*
X156873208Y-109345417D01*
X156873207Y-109345413D01*
X156820480Y-109254087D01*
X156797174Y-109230781D01*
X156775500Y-109178455D01*
X156775500Y-109170227D01*
X156797174Y-109117901D01*
X156835065Y-109097649D01*
X156882131Y-109088288D01*
X156882132Y-109088287D01*
X156882133Y-109088287D01*
X156951762Y-109041762D01*
X156998287Y-108972133D01*
X157005418Y-108936282D01*
X158890000Y-108936282D01*
X158893007Y-108962206D01*
X158939821Y-109068227D01*
X159021772Y-109150178D01*
X159127793Y-109196992D01*
X159153718Y-109200000D01*
X159440000Y-109200000D01*
X159640000Y-109200000D01*
X159926282Y-109200000D01*
X159952206Y-109196992D01*
X160058227Y-109150178D01*
X160140178Y-109068227D01*
X160186992Y-108962206D01*
X160190000Y-108936282D01*
X160190000Y-108900000D01*
X159640000Y-108900000D01*
X159640000Y-109200000D01*
X159440000Y-109200000D01*
X159440000Y-108900000D01*
X158890000Y-108900000D01*
X158890000Y-108936282D01*
X157005418Y-108936282D01*
X157010500Y-108910733D01*
X157010499Y-108789115D01*
X157010499Y-108689272D01*
X157010499Y-108689268D01*
X156998287Y-108627867D01*
X156998286Y-108627866D01*
X156996865Y-108620717D01*
X156998474Y-108620397D01*
X156998474Y-108579602D01*
X156996865Y-108579282D01*
X157001778Y-108554582D01*
X157010500Y-108510733D01*
X157010499Y-108289268D01*
X156998287Y-108227867D01*
X156998286Y-108227866D01*
X156996865Y-108220717D01*
X156998474Y-108220397D01*
X156998474Y-108179602D01*
X156996865Y-108179282D01*
X157001778Y-108154582D01*
X157010500Y-108110733D01*
X157010499Y-107889268D01*
X156998287Y-107827867D01*
X156998286Y-107827866D01*
X156996865Y-107820717D01*
X156998474Y-107820397D01*
X156998474Y-107779602D01*
X156996865Y-107779282D01*
X157001778Y-107754582D01*
X157010500Y-107710733D01*
X157010499Y-107489268D01*
X156998287Y-107427867D01*
X156998286Y-107427866D01*
X156996865Y-107420717D01*
X156998474Y-107420397D01*
X156998474Y-107379602D01*
X156996865Y-107379282D01*
X157001778Y-107354582D01*
X157010500Y-107310733D01*
X157010499Y-107089268D01*
X156998287Y-107027867D01*
X156998286Y-107027866D01*
X156996865Y-107020717D01*
X156998474Y-107020397D01*
X156998474Y-106979602D01*
X156996865Y-106979282D01*
X157001778Y-106954582D01*
X157010500Y-106910733D01*
X157010499Y-106689268D01*
X156998287Y-106627867D01*
X156998286Y-106627866D01*
X156996865Y-106620717D01*
X156998474Y-106620397D01*
X156998474Y-106579602D01*
X156996865Y-106579282D01*
X157001778Y-106554582D01*
X157010500Y-106510733D01*
X157010499Y-106289268D01*
X156998287Y-106227867D01*
X156998286Y-106227866D01*
X156996865Y-106220717D01*
X156998474Y-106220397D01*
X156998474Y-106179602D01*
X156996865Y-106179282D01*
X157001778Y-106154582D01*
X157010500Y-106110733D01*
X157010499Y-105889268D01*
X156998287Y-105827867D01*
X156998286Y-105827866D01*
X156996865Y-105820717D01*
X156998474Y-105820397D01*
X156998474Y-105779602D01*
X156996865Y-105779282D01*
X157001778Y-105754582D01*
X157010500Y-105710733D01*
X157010499Y-105489268D01*
X156998287Y-105427867D01*
X156998286Y-105427866D01*
X156996865Y-105420717D01*
X156998474Y-105420397D01*
X156998474Y-105379602D01*
X156996865Y-105379282D01*
X157001778Y-105354582D01*
X157010500Y-105310733D01*
X157010499Y-105089268D01*
X156998287Y-105027867D01*
X156998286Y-105027866D01*
X156996865Y-105020717D01*
X156998474Y-105020397D01*
X156998474Y-104979602D01*
X156996865Y-104979282D01*
X157001778Y-104954582D01*
X157010500Y-104910733D01*
X157010499Y-104689268D01*
X156998287Y-104627867D01*
X156998286Y-104627866D01*
X156996865Y-104620717D01*
X156998474Y-104620397D01*
X156998474Y-104579602D01*
X156996865Y-104579282D01*
X157001778Y-104554582D01*
X157010500Y-104510733D01*
X157010499Y-104289268D01*
X156998287Y-104227867D01*
X156998286Y-104227866D01*
X156996865Y-104220717D01*
X156998474Y-104220397D01*
X156998474Y-104179602D01*
X156996865Y-104179282D01*
X157001778Y-104154582D01*
X157010500Y-104110733D01*
X157010499Y-103889268D01*
X156998287Y-103827867D01*
X156998286Y-103827866D01*
X156996865Y-103820717D01*
X156998474Y-103820397D01*
X156998474Y-103779602D01*
X156996865Y-103779282D01*
X157001778Y-103754582D01*
X157010500Y-103710733D01*
X157010499Y-103489268D01*
X156998287Y-103427867D01*
X156998286Y-103427866D01*
X156996865Y-103420717D01*
X156998474Y-103420397D01*
X156998474Y-103379602D01*
X156996865Y-103379282D01*
X157001778Y-103354582D01*
X157010500Y-103310733D01*
X157010499Y-103089268D01*
X156998287Y-103027867D01*
X156998286Y-103027866D01*
X156996865Y-103020717D01*
X156998474Y-103020397D01*
X156998474Y-102979602D01*
X156996865Y-102979282D01*
X157001778Y-102954582D01*
X157010500Y-102910733D01*
X157010499Y-102689268D01*
X156998287Y-102627867D01*
X156998286Y-102627866D01*
X156996865Y-102620717D01*
X156998474Y-102620397D01*
X156998474Y-102579602D01*
X156996865Y-102579282D01*
X157001778Y-102554582D01*
X157010500Y-102510733D01*
X157010499Y-102289268D01*
X156998287Y-102227867D01*
X156998286Y-102227866D01*
X156996865Y-102220717D01*
X156998474Y-102220397D01*
X156998474Y-102179602D01*
X156996865Y-102179282D01*
X157001778Y-102154582D01*
X157010500Y-102110733D01*
X157010499Y-101889268D01*
X156998287Y-101827867D01*
X156998286Y-101827866D01*
X156996865Y-101820717D01*
X156998474Y-101820397D01*
X156998474Y-101779602D01*
X156996865Y-101779282D01*
X157001778Y-101754582D01*
X157010500Y-101710733D01*
X157010499Y-101489268D01*
X156998287Y-101427867D01*
X156998286Y-101427866D01*
X156996865Y-101420717D01*
X156998474Y-101420397D01*
X156998474Y-101379602D01*
X156996865Y-101379282D01*
X157001778Y-101354582D01*
X157010500Y-101310733D01*
X157010499Y-101089268D01*
X156998287Y-101027867D01*
X156998286Y-101027866D01*
X156996865Y-101020717D01*
X156998474Y-101020397D01*
X156998474Y-100979602D01*
X156996865Y-100979282D01*
X157001778Y-100954582D01*
X157010500Y-100910733D01*
X157010499Y-100689268D01*
X156998287Y-100627867D01*
X156998286Y-100627866D01*
X156996865Y-100620717D01*
X156998474Y-100620397D01*
X156998474Y-100579602D01*
X156996865Y-100579282D01*
X157001778Y-100554582D01*
X157010500Y-100510733D01*
X157010499Y-100289268D01*
X156998287Y-100227867D01*
X156998286Y-100227866D01*
X156996865Y-100220717D01*
X156998474Y-100220397D01*
X156998474Y-100179602D01*
X156996865Y-100179282D01*
X157001778Y-100154582D01*
X157010500Y-100110733D01*
X157010499Y-99889268D01*
X156998287Y-99827867D01*
X156998286Y-99827866D01*
X156996865Y-99820717D01*
X156998474Y-99820397D01*
X156998474Y-99779602D01*
X156996865Y-99779282D01*
X157001778Y-99754582D01*
X157010500Y-99710733D01*
X157010499Y-99489268D01*
X156998287Y-99427867D01*
X156998286Y-99427866D01*
X156996865Y-99420717D01*
X156998474Y-99420397D01*
X156998474Y-99379602D01*
X156996865Y-99379282D01*
X157001778Y-99354582D01*
X157010500Y-99310733D01*
X157010499Y-99089268D01*
X156998287Y-99027867D01*
X156998286Y-99027866D01*
X156996865Y-99020717D01*
X156998474Y-99020397D01*
X156998474Y-98979602D01*
X156996865Y-98979282D01*
X157001778Y-98954582D01*
X157010500Y-98910733D01*
X157010499Y-98689268D01*
X156998287Y-98627867D01*
X156998286Y-98627866D01*
X156996865Y-98620717D01*
X156998474Y-98620397D01*
X156998474Y-98579602D01*
X156996865Y-98579282D01*
X157001778Y-98554582D01*
X157010500Y-98510733D01*
X157010499Y-98289268D01*
X156998287Y-98227867D01*
X156998286Y-98227866D01*
X156996865Y-98220717D01*
X156998474Y-98220397D01*
X156998474Y-98179602D01*
X156996865Y-98179282D01*
X157001778Y-98154582D01*
X157010500Y-98110733D01*
X157010499Y-97889268D01*
X156998287Y-97827867D01*
X156998286Y-97827866D01*
X156996865Y-97820717D01*
X156998474Y-97820397D01*
X156998474Y-97779602D01*
X156996865Y-97779282D01*
X157001778Y-97754582D01*
X157010500Y-97710733D01*
X157010499Y-97489268D01*
X156998287Y-97427867D01*
X156998286Y-97427866D01*
X156996865Y-97420717D01*
X156998474Y-97420397D01*
X156998474Y-97379602D01*
X156996865Y-97379282D01*
X157001778Y-97354582D01*
X157010500Y-97310733D01*
X157010499Y-97089268D01*
X156998287Y-97027867D01*
X156998286Y-97027866D01*
X156996865Y-97020717D01*
X156998474Y-97020397D01*
X156998474Y-96979602D01*
X156996865Y-96979282D01*
X157001778Y-96954582D01*
X157010500Y-96910733D01*
X157010499Y-96689268D01*
X156998287Y-96627867D01*
X156998286Y-96627866D01*
X156996865Y-96620717D01*
X156998474Y-96620397D01*
X156998474Y-96579602D01*
X156996865Y-96579282D01*
X157001778Y-96554582D01*
X157010500Y-96510733D01*
X157010499Y-96289268D01*
X156998287Y-96227867D01*
X156998286Y-96227866D01*
X156996865Y-96220717D01*
X156998474Y-96220397D01*
X156998474Y-96179602D01*
X156996865Y-96179282D01*
X157001778Y-96154582D01*
X157010500Y-96110733D01*
X157010499Y-95889268D01*
X156998287Y-95827867D01*
X156998286Y-95827866D01*
X156996865Y-95820717D01*
X156998474Y-95820397D01*
X156998474Y-95779602D01*
X156996865Y-95779282D01*
X156998287Y-95772133D01*
X157010500Y-95710733D01*
X157010499Y-95489268D01*
X156998287Y-95427867D01*
X156998286Y-95427866D01*
X156996865Y-95420717D01*
X156998474Y-95420397D01*
X156998474Y-95379602D01*
X156996865Y-95379282D01*
X156998287Y-95372133D01*
X157010500Y-95310733D01*
X157010499Y-95089268D01*
X156998287Y-95027867D01*
X156951762Y-94958238D01*
X156882133Y-94911713D01*
X156820733Y-94899500D01*
X156820732Y-94899500D01*
X156809500Y-94899500D01*
X156757174Y-94877826D01*
X156735500Y-94825500D01*
X156735500Y-94821545D01*
X156757174Y-94769219D01*
X156780480Y-94745913D01*
X156833207Y-94654587D01*
X156860499Y-94552729D01*
X156860500Y-94552729D01*
X156860500Y-91536544D01*
X156882173Y-91484219D01*
X162649708Y-85716683D01*
X162702033Y-85695010D01*
X162730351Y-85700643D01*
X162781082Y-85721656D01*
X162781087Y-85721658D01*
X162926082Y-85750500D01*
X162926084Y-85750500D01*
X163073916Y-85750500D01*
X163073918Y-85750500D01*
X163184477Y-85728508D01*
X163240026Y-85739557D01*
X163271492Y-85786649D01*
X163271492Y-85815523D01*
X163249500Y-85926083D01*
X163249500Y-86073920D01*
X163249856Y-86077533D01*
X163248515Y-86077665D01*
X163238321Y-86128867D01*
X163191223Y-86160324D01*
X163146061Y-86155056D01*
X163135342Y-86150161D01*
X163135340Y-86150160D01*
X163135339Y-86150160D01*
X163000000Y-86130701D01*
X162864661Y-86150160D01*
X162864658Y-86150160D01*
X162740281Y-86206960D01*
X162695934Y-86242697D01*
X162695933Y-86242698D01*
X162242703Y-86695930D01*
X162242701Y-86695933D01*
X162221969Y-86721659D01*
X162206959Y-86740284D01*
X162206957Y-86740287D01*
X162150161Y-86864658D01*
X162150160Y-86864661D01*
X162130701Y-87000000D01*
X162150160Y-87135338D01*
X162150160Y-87135341D01*
X162206599Y-87258927D01*
X162208620Y-87315528D01*
X162191612Y-87341993D01*
X159219517Y-90314090D01*
X159166792Y-90405412D01*
X159166793Y-90405413D01*
X159139500Y-90507273D01*
X159139500Y-94752727D01*
X159158886Y-94825080D01*
X159151494Y-94881232D01*
X159122978Y-94906241D01*
X159123928Y-94907663D01*
X159048239Y-94958237D01*
X159048237Y-94958239D01*
X159001713Y-95027866D01*
X158989500Y-95089267D01*
X158989500Y-95310727D01*
X159003135Y-95379283D01*
X159001527Y-95379602D01*
X159001528Y-95420398D01*
X159003135Y-95420718D01*
X158989500Y-95489267D01*
X158989500Y-95710727D01*
X159003135Y-95779283D01*
X159001527Y-95779602D01*
X159001528Y-95820398D01*
X159003135Y-95820718D01*
X158989500Y-95889267D01*
X158989500Y-96110727D01*
X159003135Y-96179283D01*
X159001527Y-96179602D01*
X159001528Y-96220398D01*
X159003135Y-96220718D01*
X158989500Y-96289267D01*
X158989500Y-96510727D01*
X159003135Y-96579283D01*
X159001527Y-96579602D01*
X159001528Y-96620398D01*
X159003135Y-96620718D01*
X158989500Y-96689267D01*
X158989500Y-96910727D01*
X159003135Y-96979283D01*
X159001527Y-96979602D01*
X159001528Y-97020398D01*
X159003135Y-97020718D01*
X158989500Y-97089267D01*
X158989500Y-97310727D01*
X159003135Y-97379283D01*
X159001527Y-97379602D01*
X159001528Y-97420398D01*
X159003135Y-97420718D01*
X158989500Y-97489267D01*
X158989500Y-97710727D01*
X159003135Y-97779283D01*
X159001527Y-97779602D01*
X159001528Y-97820398D01*
X159003135Y-97820718D01*
X158989500Y-97889267D01*
X158989500Y-98110727D01*
X159003135Y-98179283D01*
X159001527Y-98179602D01*
X159001528Y-98220398D01*
X159003135Y-98220718D01*
X158989500Y-98289267D01*
X158989500Y-98510727D01*
X159003135Y-98579283D01*
X159001527Y-98579602D01*
X159001528Y-98620398D01*
X159003135Y-98620718D01*
X158989500Y-98689267D01*
X158989500Y-98910727D01*
X159003135Y-98979283D01*
X159001527Y-98979602D01*
X159001528Y-99020398D01*
X159003135Y-99020718D01*
X158989500Y-99089267D01*
X158989500Y-99310727D01*
X159003135Y-99379283D01*
X159001527Y-99379602D01*
X159001528Y-99420398D01*
X159003135Y-99420718D01*
X158989500Y-99489267D01*
X158989500Y-99710727D01*
X159003135Y-99779283D01*
X159001527Y-99779602D01*
X159001528Y-99820398D01*
X159003135Y-99820718D01*
X158989500Y-99889267D01*
X158989500Y-100110727D01*
X159003135Y-100179283D01*
X159001527Y-100179602D01*
X159001528Y-100220398D01*
X159003135Y-100220718D01*
X158989500Y-100289267D01*
X158989500Y-100510727D01*
X159003135Y-100579283D01*
X159001527Y-100579602D01*
X159001528Y-100620398D01*
X159003135Y-100620718D01*
X158989500Y-100689267D01*
X158989500Y-100910727D01*
X159003135Y-100979283D01*
X159001527Y-100979602D01*
X159001528Y-101020398D01*
X159003135Y-101020718D01*
X158989500Y-101089267D01*
X158989500Y-101310727D01*
X159003135Y-101379283D01*
X159001527Y-101379602D01*
X159001528Y-101420398D01*
X159003135Y-101420718D01*
X158989500Y-101489267D01*
X158989500Y-101710727D01*
X159003135Y-101779283D01*
X159001527Y-101779602D01*
X159001528Y-101820398D01*
X159003135Y-101820718D01*
X158989500Y-101889267D01*
X158989500Y-102110727D01*
X159003135Y-102179283D01*
X159001527Y-102179602D01*
X159001528Y-102220398D01*
X159003135Y-102220718D01*
X158989500Y-102289267D01*
X158989500Y-102510727D01*
X159003135Y-102579283D01*
X159001527Y-102579602D01*
X159001528Y-102620398D01*
X159003135Y-102620718D01*
X158989500Y-102689267D01*
X158989500Y-102910727D01*
X159003135Y-102979283D01*
X159001527Y-102979602D01*
X159001528Y-103020398D01*
X159003135Y-103020718D01*
X158989500Y-103089267D01*
X158989500Y-103310727D01*
X159003135Y-103379283D01*
X159001527Y-103379602D01*
X159001528Y-103420398D01*
X159003135Y-103420718D01*
X158989500Y-103489267D01*
X158989500Y-103710727D01*
X159003135Y-103779283D01*
X159001527Y-103779602D01*
X159001528Y-103820398D01*
X159003135Y-103820718D01*
X158989500Y-103889267D01*
X158989500Y-104110727D01*
X159003135Y-104179283D01*
X159001527Y-104179602D01*
X159001528Y-104220398D01*
X159003135Y-104220718D01*
X158989500Y-104289267D01*
X158989500Y-104510727D01*
X159003135Y-104579283D01*
X159001527Y-104579602D01*
X159001528Y-104620398D01*
X159003135Y-104620718D01*
X158989500Y-104689267D01*
X158989500Y-104910727D01*
X159003135Y-104979283D01*
X159001527Y-104979602D01*
X159001528Y-105020398D01*
X159003135Y-105020718D01*
X158989500Y-105089267D01*
X158989500Y-105310727D01*
X159003135Y-105379283D01*
X159001527Y-105379602D01*
X159001528Y-105420398D01*
X159003135Y-105420718D01*
X158989500Y-105489267D01*
X158989500Y-105710727D01*
X159003135Y-105779283D01*
X159001527Y-105779602D01*
X159001528Y-105820398D01*
X159003135Y-105820718D01*
X158989500Y-105889267D01*
X158989500Y-106110727D01*
X159003135Y-106179283D01*
X159001527Y-106179602D01*
X159001528Y-106220398D01*
X159003135Y-106220718D01*
X158989500Y-106289267D01*
X158989500Y-106510727D01*
X159003135Y-106579283D01*
X159001527Y-106579602D01*
X159001528Y-106620398D01*
X159003135Y-106620718D01*
X158989500Y-106689267D01*
X158989500Y-106910727D01*
X159003135Y-106979283D01*
X159001527Y-106979602D01*
X159001528Y-107020398D01*
X159003135Y-107020718D01*
X158989500Y-107089267D01*
X158989500Y-107310727D01*
X159003135Y-107379283D01*
X159001527Y-107379602D01*
X159001528Y-107420398D01*
X159003135Y-107420718D01*
X158989500Y-107489267D01*
X158989500Y-107710727D01*
X159003135Y-107779283D01*
X159001527Y-107779602D01*
X159001528Y-107820398D01*
X159003135Y-107820718D01*
X158989500Y-107889267D01*
X158989500Y-108110727D01*
X159003135Y-108179283D01*
X159001527Y-108179602D01*
X159001528Y-108220398D01*
X159003135Y-108220718D01*
X158989500Y-108289267D01*
X158989500Y-108451442D01*
X158967826Y-108503768D01*
X158939821Y-108531772D01*
X158893007Y-108637793D01*
X158890000Y-108663717D01*
X158890000Y-108700000D01*
X159170551Y-108700000D01*
X159177798Y-108700356D01*
X159179261Y-108700499D01*
X159179262Y-108700499D01*
X159179267Y-108700500D01*
X159900732Y-108700499D01*
X159900738Y-108700499D01*
X159902191Y-108700356D01*
X159909438Y-108700000D01*
X160190000Y-108700000D01*
X160192826Y-108697174D01*
X160245152Y-108675500D01*
X160655233Y-108675500D01*
X160707559Y-108697174D01*
X160777826Y-108767441D01*
X160799500Y-108819767D01*
X160799500Y-108852727D01*
X160821888Y-108936282D01*
X160826793Y-108954588D01*
X160826795Y-108954592D01*
X160879517Y-109045909D01*
X160879518Y-109045910D01*
X160879520Y-109045913D01*
X162547826Y-110714219D01*
X162569500Y-110766544D01*
X162569500Y-119225500D01*
X162547826Y-119277826D01*
X162495500Y-119299500D01*
X161455252Y-119299500D01*
X161426010Y-119305316D01*
X161396767Y-119311133D01*
X161330449Y-119355447D01*
X161330447Y-119355449D01*
X161286133Y-119421767D01*
X161282009Y-119442500D01*
X161274500Y-119480252D01*
X161274500Y-120519748D01*
X161279481Y-120544789D01*
X161286133Y-120578232D01*
X161301899Y-120601826D01*
X161330448Y-120644552D01*
X161372242Y-120672478D01*
X161396767Y-120688866D01*
X161396768Y-120688866D01*
X161396769Y-120688867D01*
X161455252Y-120700500D01*
X162495500Y-120700500D01*
X162547826Y-120722174D01*
X162569500Y-120774500D01*
X162569500Y-121765500D01*
X162547826Y-121817826D01*
X162495500Y-121839500D01*
X161455252Y-121839500D01*
X161426010Y-121845316D01*
X161396767Y-121851133D01*
X161330449Y-121895447D01*
X161330447Y-121895449D01*
X161286133Y-121961767D01*
X161274500Y-122020253D01*
X161274500Y-123059746D01*
X161286133Y-123118232D01*
X161315608Y-123162343D01*
X161330448Y-123184552D01*
X161372242Y-123212478D01*
X161396767Y-123228866D01*
X161396768Y-123228866D01*
X161396769Y-123228867D01*
X161455252Y-123240500D01*
X161455254Y-123240500D01*
X164644746Y-123240500D01*
X164644748Y-123240500D01*
X164703231Y-123228867D01*
X164769552Y-123184552D01*
X164813867Y-123118231D01*
X164825500Y-123059748D01*
X164825500Y-122020252D01*
X164813867Y-121961769D01*
X164769552Y-121895448D01*
X164727757Y-121867521D01*
X164703232Y-121851133D01*
X164703233Y-121851133D01*
X164673989Y-121845316D01*
X164644748Y-121839500D01*
X164644746Y-121839500D01*
X163444500Y-121839500D01*
X163392174Y-121817826D01*
X163370500Y-121765500D01*
X163370500Y-120774500D01*
X163392174Y-120722174D01*
X163444500Y-120700500D01*
X164644746Y-120700500D01*
X164644748Y-120700500D01*
X164703231Y-120688867D01*
X164769552Y-120644552D01*
X164813867Y-120578231D01*
X164825500Y-120519748D01*
X164825500Y-119480252D01*
X164813867Y-119421769D01*
X164769552Y-119355448D01*
X164727757Y-119327521D01*
X164703232Y-119311133D01*
X164703233Y-119311133D01*
X164673989Y-119305316D01*
X164644748Y-119299500D01*
X164644746Y-119299500D01*
X163444500Y-119299500D01*
X163392174Y-119277826D01*
X163370500Y-119225500D01*
X163370500Y-118004871D01*
X189719500Y-118004871D01*
X189719500Y-118125128D01*
X189742959Y-118243069D01*
X189742961Y-118243076D01*
X189788981Y-118354179D01*
X189855791Y-118454167D01*
X189855794Y-118454171D01*
X189940829Y-118539206D01*
X190040820Y-118606018D01*
X190151924Y-118652039D01*
X190269871Y-118675500D01*
X190269872Y-118675500D01*
X190390128Y-118675500D01*
X190390129Y-118675500D01*
X190508076Y-118652039D01*
X190619180Y-118606018D01*
X190719171Y-118539206D01*
X190804206Y-118454171D01*
X190871018Y-118354180D01*
X190917039Y-118243076D01*
X190940500Y-118125129D01*
X190940500Y-118004871D01*
X190917039Y-117886924D01*
X190871018Y-117775820D01*
X190804206Y-117675829D01*
X190719171Y-117590794D01*
X190619180Y-117523982D01*
X190619181Y-117523982D01*
X190619179Y-117523981D01*
X190508076Y-117477961D01*
X190508069Y-117477959D01*
X190419215Y-117460285D01*
X190390129Y-117454500D01*
X190269871Y-117454500D01*
X190246538Y-117459141D01*
X190151930Y-117477959D01*
X190151923Y-117477961D01*
X190040820Y-117523981D01*
X189940832Y-117590791D01*
X189855791Y-117675832D01*
X189788981Y-117775820D01*
X189742961Y-117886923D01*
X189742959Y-117886930D01*
X189719500Y-118004871D01*
X163370500Y-118004871D01*
X163370500Y-110517273D01*
X163343207Y-110415413D01*
X163343207Y-110415412D01*
X163290482Y-110324090D01*
X163290481Y-110324089D01*
X163290480Y-110324087D01*
X161493217Y-108526824D01*
X161471544Y-108474500D01*
X161493218Y-108422174D01*
X161545544Y-108400500D01*
X161552729Y-108400500D01*
X161552729Y-108400499D01*
X161654587Y-108373207D01*
X161745913Y-108320480D01*
X161820480Y-108245913D01*
X161873207Y-108154587D01*
X161900499Y-108052729D01*
X161900500Y-108052729D01*
X161900500Y-107947271D01*
X161900499Y-107947270D01*
X161884957Y-107889267D01*
X161873207Y-107845413D01*
X161820480Y-107754087D01*
X161745913Y-107679520D01*
X161719179Y-107664085D01*
X161684702Y-107619153D01*
X161692094Y-107563000D01*
X161719180Y-107535914D01*
X161745913Y-107520480D01*
X161820480Y-107445913D01*
X161873207Y-107354587D01*
X161900499Y-107252729D01*
X161900500Y-107252729D01*
X161900500Y-107147271D01*
X161900499Y-107147270D01*
X161884957Y-107089267D01*
X161873207Y-107045413D01*
X161820480Y-106954087D01*
X161745913Y-106879520D01*
X161719179Y-106864085D01*
X161684702Y-106819153D01*
X161692094Y-106763000D01*
X161719180Y-106735914D01*
X161745913Y-106720480D01*
X161820480Y-106645913D01*
X161873207Y-106554587D01*
X161900499Y-106452729D01*
X161900500Y-106452729D01*
X161900500Y-106347271D01*
X161900499Y-106347270D01*
X161884957Y-106289267D01*
X161873207Y-106245413D01*
X161820480Y-106154087D01*
X161745913Y-106079520D01*
X161719179Y-106064085D01*
X161684702Y-106019153D01*
X161692094Y-105963000D01*
X161719180Y-105935914D01*
X161745913Y-105920480D01*
X161820480Y-105845913D01*
X161873207Y-105754587D01*
X161900499Y-105652729D01*
X161900500Y-105652729D01*
X161900500Y-105547271D01*
X161900499Y-105547270D01*
X161884957Y-105489267D01*
X161873207Y-105445413D01*
X161820480Y-105354087D01*
X161745913Y-105279520D01*
X161719179Y-105264085D01*
X161684702Y-105219153D01*
X161692094Y-105163000D01*
X161719180Y-105135914D01*
X161745913Y-105120480D01*
X161820480Y-105045913D01*
X161873207Y-104954587D01*
X161900499Y-104852729D01*
X161900500Y-104852729D01*
X161900500Y-104747271D01*
X161900499Y-104747270D01*
X161884957Y-104689267D01*
X161873207Y-104645413D01*
X161820480Y-104554087D01*
X161745913Y-104479520D01*
X161719179Y-104464085D01*
X161684702Y-104419153D01*
X161692094Y-104363000D01*
X161719180Y-104335914D01*
X161745913Y-104320480D01*
X161820480Y-104245913D01*
X161873207Y-104154587D01*
X161900499Y-104052729D01*
X161900500Y-104052729D01*
X161900500Y-103947271D01*
X161900499Y-103947270D01*
X161884957Y-103889267D01*
X161873207Y-103845413D01*
X161820480Y-103754087D01*
X161745913Y-103679520D01*
X161719179Y-103664085D01*
X161684702Y-103619153D01*
X161692094Y-103563000D01*
X161719180Y-103535914D01*
X161745913Y-103520480D01*
X161820480Y-103445913D01*
X161873207Y-103354587D01*
X161900499Y-103252729D01*
X161900500Y-103252729D01*
X161900500Y-103147271D01*
X161900499Y-103147270D01*
X161884957Y-103089267D01*
X161873207Y-103045413D01*
X161820480Y-102954087D01*
X161745913Y-102879520D01*
X161719179Y-102864085D01*
X161684702Y-102819153D01*
X161692094Y-102763000D01*
X161719180Y-102735914D01*
X161745913Y-102720480D01*
X161820480Y-102645913D01*
X161873207Y-102554587D01*
X161900499Y-102452729D01*
X161900500Y-102452729D01*
X161900500Y-102347271D01*
X161900499Y-102347270D01*
X161884957Y-102289267D01*
X161873207Y-102245413D01*
X161820480Y-102154087D01*
X161745913Y-102079520D01*
X161719179Y-102064085D01*
X161684702Y-102019153D01*
X161692094Y-101963000D01*
X161719180Y-101935914D01*
X161745913Y-101920480D01*
X161820480Y-101845913D01*
X161873207Y-101754587D01*
X161900499Y-101652729D01*
X161900500Y-101652729D01*
X161900500Y-101547271D01*
X161900499Y-101547270D01*
X161884957Y-101489267D01*
X161873207Y-101445413D01*
X161820480Y-101354087D01*
X161745913Y-101279520D01*
X161719179Y-101264085D01*
X161684702Y-101219153D01*
X161692094Y-101163000D01*
X161719180Y-101135914D01*
X161745913Y-101120480D01*
X161820480Y-101045913D01*
X161873207Y-100954587D01*
X161900499Y-100852729D01*
X161900500Y-100852729D01*
X161900500Y-100747271D01*
X161900499Y-100747270D01*
X161884957Y-100689267D01*
X161873207Y-100645413D01*
X161820480Y-100554087D01*
X161745913Y-100479520D01*
X161719179Y-100464085D01*
X161684702Y-100419153D01*
X161692094Y-100363000D01*
X161719180Y-100335914D01*
X161745913Y-100320480D01*
X161820480Y-100245913D01*
X161873207Y-100154587D01*
X161900499Y-100052729D01*
X161900500Y-100052729D01*
X161900500Y-99947271D01*
X161900499Y-99947270D01*
X161884957Y-99889267D01*
X161873207Y-99845413D01*
X161820480Y-99754087D01*
X161745913Y-99679520D01*
X161719179Y-99664085D01*
X161684702Y-99619153D01*
X161692094Y-99563000D01*
X161719180Y-99535914D01*
X161745913Y-99520480D01*
X161820480Y-99445913D01*
X161873207Y-99354587D01*
X161900499Y-99252729D01*
X161900500Y-99252729D01*
X161900500Y-99147271D01*
X161900499Y-99147270D01*
X161884957Y-99089267D01*
X161873207Y-99045413D01*
X161820480Y-98954087D01*
X161745913Y-98879520D01*
X161719179Y-98864085D01*
X161684702Y-98819153D01*
X161692094Y-98763000D01*
X161719180Y-98735914D01*
X161745913Y-98720480D01*
X161820480Y-98645913D01*
X161873207Y-98554587D01*
X161900499Y-98452729D01*
X161900500Y-98452729D01*
X161900500Y-98347271D01*
X161900499Y-98347270D01*
X161884957Y-98289267D01*
X161873207Y-98245413D01*
X161820480Y-98154087D01*
X161745913Y-98079520D01*
X161719179Y-98064085D01*
X161684702Y-98019153D01*
X161692094Y-97963000D01*
X161719180Y-97935914D01*
X161745913Y-97920480D01*
X161820480Y-97845913D01*
X161873207Y-97754587D01*
X161900499Y-97652729D01*
X161900500Y-97652729D01*
X161900500Y-97547271D01*
X161900499Y-97547270D01*
X161884957Y-97489267D01*
X161873207Y-97445413D01*
X161820480Y-97354087D01*
X161745913Y-97279520D01*
X161719179Y-97264085D01*
X161684702Y-97219153D01*
X161692094Y-97163000D01*
X161719180Y-97135914D01*
X161745913Y-97120480D01*
X161820480Y-97045913D01*
X161873207Y-96954587D01*
X161900499Y-96852729D01*
X161900500Y-96852729D01*
X161900500Y-96747271D01*
X161900499Y-96747270D01*
X161884957Y-96689267D01*
X161873207Y-96645413D01*
X161820480Y-96554087D01*
X161745913Y-96479520D01*
X161719179Y-96464085D01*
X161684702Y-96419153D01*
X161692094Y-96363000D01*
X161719180Y-96335914D01*
X161745913Y-96320480D01*
X161820480Y-96245913D01*
X161873207Y-96154587D01*
X161900499Y-96052729D01*
X161900500Y-96052729D01*
X161900500Y-95947271D01*
X161900499Y-95947270D01*
X161884957Y-95889267D01*
X161873207Y-95845413D01*
X161820480Y-95754087D01*
X161745913Y-95679520D01*
X161688499Y-95646372D01*
X161654591Y-95626795D01*
X161654582Y-95626791D01*
X161552729Y-95599500D01*
X161552727Y-95599500D01*
X161447273Y-95599500D01*
X161447271Y-95599500D01*
X161345417Y-95626791D01*
X161345404Y-95626796D01*
X161311499Y-95646372D01*
X161255347Y-95653764D01*
X161210414Y-95619285D01*
X161200500Y-95582286D01*
X161200500Y-95547271D01*
X161200499Y-95547270D01*
X161184957Y-95489267D01*
X161173207Y-95445413D01*
X161120480Y-95354087D01*
X161045913Y-95279520D01*
X160995649Y-95250500D01*
X160954591Y-95226795D01*
X160954582Y-95226791D01*
X160852729Y-95199500D01*
X160852727Y-95199500D01*
X160747273Y-95199500D01*
X160747271Y-95199500D01*
X160645417Y-95226791D01*
X160645408Y-95226795D01*
X160554086Y-95279520D01*
X160530781Y-95302826D01*
X160478455Y-95324500D01*
X160164500Y-95324500D01*
X160112174Y-95302826D01*
X160090500Y-95250500D01*
X160090499Y-95089272D01*
X160090499Y-95089268D01*
X160078287Y-95027867D01*
X160031762Y-94958238D01*
X159962133Y-94911713D01*
X159956072Y-94907663D01*
X159957379Y-94905706D01*
X159924223Y-94872549D01*
X159921113Y-94825080D01*
X159940499Y-94752729D01*
X159940500Y-94752729D01*
X159940500Y-90756544D01*
X159962173Y-90704219D01*
X162796426Y-87869965D01*
X162848751Y-87848292D01*
X162859310Y-87849838D01*
X162859419Y-87849086D01*
X162890498Y-87853554D01*
X163000000Y-87869299D01*
X163135342Y-87849839D01*
X163259719Y-87793039D01*
X163304067Y-87757301D01*
X163757299Y-87304067D01*
X163793039Y-87259719D01*
X163849839Y-87135342D01*
X163869299Y-87000000D01*
X163849839Y-86864658D01*
X163844943Y-86853939D01*
X163842921Y-86797340D01*
X163881514Y-86755887D01*
X163922370Y-86751126D01*
X163922467Y-86750144D01*
X163926080Y-86750500D01*
X163926082Y-86750500D01*
X164073916Y-86750500D01*
X164073918Y-86750500D01*
X164218913Y-86721658D01*
X164355495Y-86665084D01*
X164478416Y-86582951D01*
X164582951Y-86478416D01*
X164665084Y-86355495D01*
X164721658Y-86218913D01*
X164750500Y-86073918D01*
X164750500Y-85926082D01*
X164721658Y-85781087D01*
X164708988Y-85750500D01*
X164665084Y-85644505D01*
X164582951Y-85521584D01*
X164478415Y-85417048D01*
X164355494Y-85334915D01*
X164218917Y-85278343D01*
X164218907Y-85278340D01*
X164121811Y-85259026D01*
X164073918Y-85249500D01*
X163926082Y-85249500D01*
X163815523Y-85271492D01*
X163759974Y-85260443D01*
X163728508Y-85213351D01*
X163728508Y-85184477D01*
X163742147Y-85115910D01*
X163750500Y-85073918D01*
X163750500Y-84926082D01*
X163721658Y-84781087D01*
X163665084Y-84644505D01*
X163582951Y-84521584D01*
X163478416Y-84417049D01*
X163355495Y-84334916D01*
X163355496Y-84334916D01*
X163355494Y-84334915D01*
X163218917Y-84278343D01*
X163218907Y-84278340D01*
X163121811Y-84259026D01*
X163073918Y-84249500D01*
X162926082Y-84249500D01*
X162884977Y-84257676D01*
X162781092Y-84278340D01*
X162781082Y-84278343D01*
X162644505Y-84334915D01*
X162521584Y-84417048D01*
X162521583Y-84417050D01*
X162417050Y-84521583D01*
X162417048Y-84521584D01*
X162334915Y-84644505D01*
X162278343Y-84781082D01*
X162278340Y-84781092D01*
X162249500Y-84926083D01*
X162249500Y-84953455D01*
X162227826Y-85005781D01*
X156139517Y-91094090D01*
X156086792Y-91185412D01*
X156086793Y-91185413D01*
X156059500Y-91287273D01*
X156059500Y-94552729D01*
X156086791Y-94654582D01*
X156086795Y-94654591D01*
X156139520Y-94745913D01*
X156162826Y-94769219D01*
X156184500Y-94821545D01*
X156184500Y-94825500D01*
X156162826Y-94877826D01*
X156110505Y-94899500D01*
X156099273Y-94899500D01*
X156037866Y-94911713D01*
X155968239Y-94958237D01*
X155968237Y-94958239D01*
X155945033Y-94992966D01*
X155897940Y-95024431D01*
X155842392Y-95013381D01*
X155819419Y-94988853D01*
X155801743Y-94958237D01*
X155770480Y-94904087D01*
X155322174Y-94455781D01*
X155300500Y-94403455D01*
X155300500Y-88547273D01*
X155275387Y-88453549D01*
X155273207Y-88445413D01*
X155273207Y-88445412D01*
X155246843Y-88399750D01*
X155220480Y-88354087D01*
X155145913Y-88279520D01*
X155143334Y-88276941D01*
X155143323Y-88276931D01*
X153622174Y-86755781D01*
X153600500Y-86703455D01*
X153600500Y-86620941D01*
X153600499Y-86620940D01*
X153584056Y-86559575D01*
X153559577Y-86468216D01*
X153480520Y-86331284D01*
X153368716Y-86219480D01*
X153231784Y-86140423D01*
X153231781Y-86140422D01*
X153231779Y-86140421D01*
X153115877Y-86109365D01*
X153070944Y-86074887D01*
X153063552Y-86018734D01*
X153098030Y-85973801D01*
X153112158Y-85967510D01*
X153184090Y-85944139D01*
X153260909Y-85888326D01*
X153588325Y-85560909D01*
X153644139Y-85484090D01*
X153683342Y-85363433D01*
X153683342Y-85236567D01*
X153644139Y-85115910D01*
X153613630Y-85073918D01*
X153588328Y-85039093D01*
X153260909Y-84711675D01*
X153184091Y-84655862D01*
X153184090Y-84655861D01*
X153184088Y-84655860D01*
X153184084Y-84655858D01*
X153063434Y-84616658D01*
X153063433Y-84616658D01*
X152936567Y-84616658D01*
X152936565Y-84616658D01*
X152815915Y-84655858D01*
X152815907Y-84655862D01*
X152739093Y-84711671D01*
X152411675Y-85039090D01*
X152355860Y-85115911D01*
X152355858Y-85115915D01*
X152316658Y-85236565D01*
X152316658Y-85325500D01*
X152294984Y-85377826D01*
X152242658Y-85399500D01*
X152220941Y-85399500D01*
X152068220Y-85440421D01*
X152068214Y-85440424D01*
X151931283Y-85519480D01*
X151819480Y-85631283D01*
X151740424Y-85768214D01*
X151740421Y-85768220D01*
X151699500Y-85920940D01*
X151699500Y-86079059D01*
X151740421Y-86231779D01*
X151740422Y-86231781D01*
X151740423Y-86231784D01*
X151819480Y-86368716D01*
X151931284Y-86480520D01*
X152068216Y-86559577D01*
X152220940Y-86600499D01*
X152220941Y-86600500D01*
X152325500Y-86600500D01*
X152377826Y-86622174D01*
X152399500Y-86674500D01*
X152399500Y-86779059D01*
X152440421Y-86931779D01*
X152440422Y-86931781D01*
X152440423Y-86931784D01*
X152519480Y-87068716D01*
X152631284Y-87180520D01*
X152768216Y-87259577D01*
X152920940Y-87300499D01*
X152920941Y-87300500D01*
X152920943Y-87300500D01*
X153003455Y-87300500D01*
X153055781Y-87322174D01*
X154477826Y-88744218D01*
X154499500Y-88796544D01*
X154499500Y-94547273D01*
X154499500Y-94652727D01*
X154524469Y-94745913D01*
X154526793Y-94754588D01*
X154526795Y-94754592D01*
X154579517Y-94845909D01*
X154579518Y-94845910D01*
X154579520Y-94845913D01*
X154894491Y-95160884D01*
X155206781Y-95473174D01*
X155228455Y-95525500D01*
X155206781Y-95577826D01*
X155154455Y-95599500D01*
X155147271Y-95599500D01*
X155045417Y-95626791D01*
X155045408Y-95626795D01*
X154954086Y-95679520D01*
X154879520Y-95754086D01*
X154826795Y-95845408D01*
X154826791Y-95845417D01*
X154799500Y-95947270D01*
X154799500Y-95982286D01*
X154777826Y-96034612D01*
X154725500Y-96056286D01*
X154688501Y-96046372D01*
X154654595Y-96026796D01*
X154654582Y-96026791D01*
X154552729Y-95999500D01*
X154552727Y-95999500D01*
X154447273Y-95999500D01*
X154447271Y-95999500D01*
X154345417Y-96026791D01*
X154345408Y-96026795D01*
X154254086Y-96079520D01*
X154179520Y-96154086D01*
X154126795Y-96245408D01*
X154126791Y-96245417D01*
X154099500Y-96347270D01*
X154099500Y-96452729D01*
X154126791Y-96554582D01*
X154126795Y-96554591D01*
X154141051Y-96579283D01*
X154179520Y-96645913D01*
X154254087Y-96720480D01*
X154280820Y-96735914D01*
X154315298Y-96780848D01*
X154307905Y-96837001D01*
X154280820Y-96864086D01*
X154254085Y-96879521D01*
X154179520Y-96954086D01*
X154126795Y-97045408D01*
X154126791Y-97045417D01*
X154099500Y-97147270D01*
X154099500Y-97252729D01*
X154126791Y-97354582D01*
X154126795Y-97354591D01*
X154141051Y-97379283D01*
X154179520Y-97445913D01*
X154254087Y-97520480D01*
X154280820Y-97535914D01*
X154315298Y-97580848D01*
X154307905Y-97637001D01*
X154280820Y-97664086D01*
X154254085Y-97679521D01*
X154179520Y-97754086D01*
X154126795Y-97845408D01*
X154126791Y-97845417D01*
X154099500Y-97947270D01*
X154099500Y-98052729D01*
X154126791Y-98154582D01*
X154126795Y-98154591D01*
X154141051Y-98179283D01*
X154179520Y-98245913D01*
X154254087Y-98320480D01*
X154280820Y-98335914D01*
X154315298Y-98380848D01*
X154307905Y-98437001D01*
X154280820Y-98464086D01*
X154254085Y-98479521D01*
X154179520Y-98554086D01*
X154126795Y-98645408D01*
X154126791Y-98645417D01*
X154099500Y-98747270D01*
X154099500Y-98852729D01*
X154126791Y-98954582D01*
X154126795Y-98954591D01*
X154141051Y-98979283D01*
X154179520Y-99045913D01*
X154254087Y-99120480D01*
X154280820Y-99135914D01*
X154315298Y-99180848D01*
X154307905Y-99237001D01*
X154280820Y-99264086D01*
X154254085Y-99279521D01*
X154179520Y-99354086D01*
X154126795Y-99445408D01*
X154126791Y-99445417D01*
X154099500Y-99547270D01*
X154099500Y-99652729D01*
X154126791Y-99754582D01*
X154126795Y-99754591D01*
X154141051Y-99779283D01*
X154179520Y-99845913D01*
X154254087Y-99920480D01*
X154280820Y-99935914D01*
X154315298Y-99980848D01*
X154307905Y-100037001D01*
X154280820Y-100064086D01*
X154254085Y-100079521D01*
X154179520Y-100154086D01*
X154126795Y-100245408D01*
X154126791Y-100245417D01*
X154099500Y-100347270D01*
X154099500Y-100452729D01*
X154126791Y-100554582D01*
X154126795Y-100554591D01*
X154141051Y-100579283D01*
X154179520Y-100645913D01*
X154254087Y-100720480D01*
X154280820Y-100735914D01*
X154315298Y-100780848D01*
X154307905Y-100837001D01*
X154280820Y-100864086D01*
X154254085Y-100879521D01*
X154179520Y-100954086D01*
X154126795Y-101045408D01*
X154126791Y-101045417D01*
X154099500Y-101147270D01*
X154099500Y-101252729D01*
X154126791Y-101354582D01*
X154126795Y-101354591D01*
X154141051Y-101379283D01*
X154179520Y-101445913D01*
X154254087Y-101520480D01*
X154280820Y-101535914D01*
X154315298Y-101580848D01*
X154307905Y-101637001D01*
X154280820Y-101664086D01*
X154254085Y-101679521D01*
X154179520Y-101754086D01*
X154126795Y-101845408D01*
X154126791Y-101845417D01*
X154099500Y-101947270D01*
X154099500Y-102052729D01*
X154126791Y-102154582D01*
X154126795Y-102154591D01*
X154141051Y-102179283D01*
X154179520Y-102245913D01*
X154254087Y-102320480D01*
X154280820Y-102335914D01*
X154315298Y-102380848D01*
X154307905Y-102437001D01*
X154280820Y-102464086D01*
X154254085Y-102479521D01*
X154179520Y-102554086D01*
X154126795Y-102645408D01*
X154126791Y-102645417D01*
X154099500Y-102747270D01*
X154099500Y-102852729D01*
X154126791Y-102954582D01*
X154126795Y-102954591D01*
X154141051Y-102979283D01*
X154179520Y-103045913D01*
X154254087Y-103120480D01*
X154280820Y-103135914D01*
X154315298Y-103180848D01*
X154307905Y-103237001D01*
X154280820Y-103264086D01*
X154254085Y-103279521D01*
X154179520Y-103354086D01*
X154126795Y-103445408D01*
X154126791Y-103445417D01*
X154099500Y-103547270D01*
X154099500Y-103652729D01*
X154126791Y-103754582D01*
X154126795Y-103754591D01*
X154141051Y-103779283D01*
X154179520Y-103845913D01*
X154254087Y-103920480D01*
X154280820Y-103935914D01*
X154315298Y-103980848D01*
X154307905Y-104037001D01*
X154280820Y-104064086D01*
X154254085Y-104079521D01*
X154179520Y-104154086D01*
X154126795Y-104245408D01*
X154126791Y-104245417D01*
X154099500Y-104347270D01*
X154099500Y-104452729D01*
X154126791Y-104554582D01*
X154126795Y-104554591D01*
X154141051Y-104579283D01*
X154179520Y-104645913D01*
X154254087Y-104720480D01*
X154280820Y-104735914D01*
X154315298Y-104780848D01*
X154307905Y-104837001D01*
X154280820Y-104864086D01*
X154254085Y-104879521D01*
X154179520Y-104954086D01*
X154126795Y-105045408D01*
X154126791Y-105045417D01*
X154099500Y-105147270D01*
X154099500Y-105252729D01*
X154126791Y-105354582D01*
X154126795Y-105354591D01*
X154141051Y-105379283D01*
X154179520Y-105445913D01*
X154254087Y-105520480D01*
X154280820Y-105535914D01*
X154315298Y-105580848D01*
X154307905Y-105637001D01*
X154280820Y-105664086D01*
X154254085Y-105679521D01*
X154179520Y-105754086D01*
X154126795Y-105845408D01*
X154126791Y-105845417D01*
X154099500Y-105947270D01*
X154099500Y-106052729D01*
X154126791Y-106154582D01*
X154126795Y-106154591D01*
X154141051Y-106179283D01*
X154179520Y-106245913D01*
X154254087Y-106320480D01*
X154280820Y-106335914D01*
X154315298Y-106380848D01*
X154307905Y-106437001D01*
X154280820Y-106464086D01*
X154254085Y-106479521D01*
X154179520Y-106554086D01*
X154126795Y-106645408D01*
X154126791Y-106645417D01*
X154099500Y-106747270D01*
X154099500Y-106852729D01*
X154126791Y-106954582D01*
X154126795Y-106954591D01*
X154141051Y-106979283D01*
X154179520Y-107045913D01*
X154254087Y-107120480D01*
X154280820Y-107135914D01*
X154315298Y-107180848D01*
X154307905Y-107237001D01*
X154280820Y-107264086D01*
X154254085Y-107279521D01*
X154179520Y-107354086D01*
X154126795Y-107445408D01*
X154126791Y-107445417D01*
X154099500Y-107547270D01*
X154099500Y-107652729D01*
X154126791Y-107754582D01*
X154126795Y-107754591D01*
X154141051Y-107779283D01*
X154179520Y-107845913D01*
X154254087Y-107920480D01*
X154280820Y-107935914D01*
X154315298Y-107980848D01*
X154307905Y-108037001D01*
X154280820Y-108064086D01*
X154254085Y-108079521D01*
X154179520Y-108154086D01*
X154126795Y-108245408D01*
X154126791Y-108245417D01*
X154099500Y-108347270D01*
X154099500Y-108452729D01*
X154126791Y-108554582D01*
X154126795Y-108554591D01*
X154141235Y-108579602D01*
X154179520Y-108645913D01*
X154254087Y-108720480D01*
X154345413Y-108773207D01*
X154447270Y-108800499D01*
X154447271Y-108800500D01*
X154447273Y-108800500D01*
X154552729Y-108800500D01*
X154552729Y-108800499D01*
X154654587Y-108773207D01*
X154745913Y-108720480D01*
X154769219Y-108697174D01*
X154821545Y-108675500D01*
X155835500Y-108675500D01*
X155887826Y-108697174D01*
X155909500Y-108749500D01*
X155909500Y-108910727D01*
X155909501Y-108910732D01*
X155921713Y-108972133D01*
X155968238Y-109041762D01*
X156037867Y-109088287D01*
X156099267Y-109100500D01*
X156150501Y-109100499D01*
X156172173Y-109109476D01*
X156202825Y-109122172D01*
X156202826Y-109122173D01*
X156212821Y-109146304D01*
X156222730Y-109170227D01*
X156224500Y-109174499D01*
X156224500Y-109178455D01*
X156202826Y-109230781D01*
X156179520Y-109254086D01*
X156126795Y-109345408D01*
X156126791Y-109345417D01*
X156099500Y-109447270D01*
X156099500Y-109793455D01*
X156077826Y-109845781D01*
X154745781Y-111177826D01*
X154693455Y-111199500D01*
X154444621Y-111199500D01*
X154392295Y-111177826D01*
X154350404Y-111135935D01*
X154281778Y-111103934D01*
X154243173Y-111085932D01*
X154243171Y-111085931D01*
X154207178Y-111081193D01*
X154194316Y-111079500D01*
X153845684Y-111079500D01*
X153834318Y-111080996D01*
X153796828Y-111085931D01*
X153689595Y-111135935D01*
X153623870Y-111201660D01*
X153571543Y-111223334D01*
X153519218Y-111201660D01*
X153512004Y-111193277D01*
X153446065Y-111103935D01*
X153446064Y-111103934D01*
X153340556Y-111026064D01*
X153216791Y-110982757D01*
X153216786Y-110982756D01*
X153187388Y-110980000D01*
X153100000Y-110980000D01*
X153100000Y-112220000D01*
X153187387Y-112220000D01*
X153187388Y-112219999D01*
X153216786Y-112217243D01*
X153216791Y-112217242D01*
X153340556Y-112173935D01*
X153446064Y-112096065D01*
X153446065Y-112096064D01*
X153512004Y-112006722D01*
X153514721Y-112005084D01*
X153515730Y-112002077D01*
X153538611Y-111990689D01*
X153560515Y-111977491D01*
X153563595Y-111978255D01*
X153566435Y-111976842D01*
X153583203Y-111983118D01*
X153615487Y-111991125D01*
X153620132Y-111994851D01*
X153622063Y-111996532D01*
X153689596Y-112064065D01*
X153711224Y-112074150D01*
X153719088Y-112080996D01*
X153727412Y-112097722D01*
X153740037Y-112111499D01*
X153743201Y-112129448D01*
X153744323Y-112131701D01*
X153743848Y-112133115D01*
X153744500Y-112136810D01*
X153744500Y-129855233D01*
X153722826Y-129907559D01*
X152766442Y-130863943D01*
X152724500Y-130965200D01*
X152724500Y-131347955D01*
X152702826Y-131400281D01*
X152658786Y-131421490D01*
X152563710Y-131432202D01*
X152278959Y-131497195D01*
X152278941Y-131497201D01*
X152003269Y-131593661D01*
X151740108Y-131720394D01*
X151492793Y-131875792D01*
X151264431Y-132057905D01*
X151057905Y-132264431D01*
X150875792Y-132492793D01*
X150720394Y-132740108D01*
X150593661Y-133003269D01*
X150497201Y-133278941D01*
X150497195Y-133278959D01*
X150432202Y-133563710D01*
X150432202Y-133563714D01*
X150399500Y-133853959D01*
X108150500Y-133853959D01*
X108150500Y-129054205D01*
X120695001Y-129054205D01*
X120697850Y-129084602D01*
X120697852Y-129084611D01*
X120742652Y-129212643D01*
X120823207Y-129321791D01*
X120823208Y-129321792D01*
X120932356Y-129402347D01*
X120932355Y-129402347D01*
X121060385Y-129447146D01*
X121060393Y-129447148D01*
X121090803Y-129449999D01*
X121195000Y-129449999D01*
X121395000Y-129449999D01*
X121499194Y-129449999D01*
X121499205Y-129449998D01*
X121529602Y-129447149D01*
X121529611Y-129447147D01*
X121657643Y-129402347D01*
X121766791Y-129321792D01*
X121766792Y-129321791D01*
X121847345Y-129212646D01*
X121860152Y-129176047D01*
X121897892Y-129133816D01*
X121954440Y-129130639D01*
X121996671Y-129168379D01*
X121999848Y-129176047D01*
X122012654Y-129212646D01*
X122093207Y-129321791D01*
X122093208Y-129321792D01*
X122202356Y-129402347D01*
X122202355Y-129402347D01*
X122330385Y-129447146D01*
X122330393Y-129447148D01*
X122360803Y-129449999D01*
X122465000Y-129449999D01*
X122665000Y-129449999D01*
X122769194Y-129449999D01*
X122769205Y-129449998D01*
X122799602Y-129447149D01*
X122799611Y-129447147D01*
X122927643Y-129402347D01*
X123036791Y-129321792D01*
X123036792Y-129321791D01*
X123117345Y-129212646D01*
X123130152Y-129176047D01*
X123167892Y-129133816D01*
X123224440Y-129130639D01*
X123266671Y-129168379D01*
X123269848Y-129176047D01*
X123282654Y-129212646D01*
X123363207Y-129321791D01*
X123363208Y-129321792D01*
X123472356Y-129402347D01*
X123472355Y-129402347D01*
X123600385Y-129447146D01*
X123600393Y-129447148D01*
X123630803Y-129449999D01*
X123735000Y-129449999D01*
X123935000Y-129449999D01*
X124039194Y-129449999D01*
X124039205Y-129449998D01*
X124069602Y-129447149D01*
X124069611Y-129447147D01*
X124197643Y-129402347D01*
X124306791Y-129321792D01*
X124306792Y-129321791D01*
X124387345Y-129212646D01*
X124400152Y-129176047D01*
X124437892Y-129133816D01*
X124494440Y-129130639D01*
X124536671Y-129168379D01*
X124539848Y-129176047D01*
X124552654Y-129212646D01*
X124633207Y-129321791D01*
X124633208Y-129321792D01*
X124742356Y-129402347D01*
X124742355Y-129402347D01*
X124870385Y-129447146D01*
X124870393Y-129447148D01*
X124900803Y-129449999D01*
X125005000Y-129449999D01*
X125205000Y-129449999D01*
X125309194Y-129449999D01*
X125309205Y-129449998D01*
X125339602Y-129447149D01*
X125339611Y-129447147D01*
X125467643Y-129402347D01*
X125576791Y-129321792D01*
X125576792Y-129321791D01*
X125657347Y-129212643D01*
X125702146Y-129084614D01*
X125702148Y-129084606D01*
X125704999Y-129054198D01*
X125705000Y-129054197D01*
X125705000Y-128275000D01*
X125205000Y-128275000D01*
X125205000Y-129449999D01*
X125005000Y-129449999D01*
X125005000Y-128275000D01*
X124480498Y-128275000D01*
X124470001Y-128279348D01*
X124469996Y-128279345D01*
X124469991Y-128279348D01*
X124459497Y-128275000D01*
X123935000Y-128275000D01*
X123935000Y-129449999D01*
X123735000Y-129449999D01*
X123735000Y-128275000D01*
X123210498Y-128275000D01*
X123200001Y-128279348D01*
X123199996Y-128279345D01*
X123199991Y-128279348D01*
X123189497Y-128275000D01*
X122665000Y-128275000D01*
X122665000Y-129449999D01*
X122465000Y-129449999D01*
X122465000Y-128275000D01*
X121940498Y-128275000D01*
X121930001Y-128279348D01*
X121929996Y-128279345D01*
X121929991Y-128279348D01*
X121919497Y-128275000D01*
X121395000Y-128275000D01*
X121395000Y-129449999D01*
X121195000Y-129449999D01*
X121195000Y-128275000D01*
X120695001Y-128275000D01*
X120695001Y-129054205D01*
X108150500Y-129054205D01*
X108150500Y-127295801D01*
X120695000Y-127295801D01*
X120695000Y-128075000D01*
X121195000Y-128075000D01*
X121395000Y-128075000D01*
X121919494Y-128075000D01*
X121929990Y-128070651D01*
X121929994Y-128070652D01*
X121929998Y-128070651D01*
X121940498Y-128075000D01*
X122465000Y-128075000D01*
X122665000Y-128075000D01*
X123189494Y-128075000D01*
X123199990Y-128070651D01*
X123199994Y-128070652D01*
X123199998Y-128070651D01*
X123210498Y-128075000D01*
X123735000Y-128075000D01*
X123935000Y-128075000D01*
X124459494Y-128075000D01*
X124469990Y-128070651D01*
X124469994Y-128070652D01*
X124469998Y-128070651D01*
X124480498Y-128075000D01*
X125005000Y-128075000D01*
X125205000Y-128075000D01*
X125704999Y-128075000D01*
X125704999Y-127295806D01*
X125704998Y-127295794D01*
X125702149Y-127265397D01*
X125702147Y-127265388D01*
X125657347Y-127137356D01*
X125576792Y-127028208D01*
X125576791Y-127028207D01*
X125467643Y-126947652D01*
X125467644Y-126947652D01*
X125339614Y-126902853D01*
X125339606Y-126902851D01*
X125309198Y-126900000D01*
X125205000Y-126900000D01*
X125205000Y-128075000D01*
X125005000Y-128075000D01*
X125005000Y-126900000D01*
X124900806Y-126900000D01*
X124900793Y-126900001D01*
X124870397Y-126902850D01*
X124870388Y-126902852D01*
X124742356Y-126947652D01*
X124633208Y-127028207D01*
X124633207Y-127028208D01*
X124552653Y-127137355D01*
X124539847Y-127173953D01*
X124502107Y-127216184D01*
X124445559Y-127219359D01*
X124403328Y-127181619D01*
X124400153Y-127173953D01*
X124387346Y-127137355D01*
X124306792Y-127028208D01*
X124306791Y-127028207D01*
X124197643Y-126947652D01*
X124197644Y-126947652D01*
X124069614Y-126902853D01*
X124069606Y-126902851D01*
X124039198Y-126900000D01*
X123935000Y-126900000D01*
X123935000Y-128075000D01*
X123735000Y-128075000D01*
X123735000Y-126900000D01*
X123630806Y-126900000D01*
X123630793Y-126900001D01*
X123600397Y-126902850D01*
X123600388Y-126902852D01*
X123472356Y-126947652D01*
X123363208Y-127028207D01*
X123363207Y-127028208D01*
X123282653Y-127137355D01*
X123269847Y-127173953D01*
X123232107Y-127216184D01*
X123175559Y-127219359D01*
X123133328Y-127181619D01*
X123130153Y-127173953D01*
X123117346Y-127137355D01*
X123036792Y-127028208D01*
X123036791Y-127028207D01*
X122927643Y-126947652D01*
X122927644Y-126947652D01*
X122799614Y-126902853D01*
X122799606Y-126902851D01*
X122769198Y-126900000D01*
X122665000Y-126900000D01*
X122665000Y-128075000D01*
X122465000Y-128075000D01*
X122465000Y-126900000D01*
X122360806Y-126900000D01*
X122360793Y-126900001D01*
X122330397Y-126902850D01*
X122330388Y-126902852D01*
X122202356Y-126947652D01*
X122093208Y-127028207D01*
X122093207Y-127028208D01*
X122012653Y-127137355D01*
X121999847Y-127173953D01*
X121962107Y-127216184D01*
X121905559Y-127219359D01*
X121863328Y-127181619D01*
X121860153Y-127173953D01*
X121847346Y-127137355D01*
X121766792Y-127028208D01*
X121766791Y-127028207D01*
X121657643Y-126947652D01*
X121657644Y-126947652D01*
X121529614Y-126902853D01*
X121529606Y-126902851D01*
X121499198Y-126900000D01*
X121395000Y-126900000D01*
X121395000Y-128075000D01*
X121195000Y-128075000D01*
X121195000Y-126900000D01*
X121090806Y-126900000D01*
X121090793Y-126900001D01*
X121060397Y-126902850D01*
X121060388Y-126902852D01*
X120932356Y-126947652D01*
X120823208Y-127028207D01*
X120823207Y-127028208D01*
X120742652Y-127137356D01*
X120697853Y-127265385D01*
X120697851Y-127265393D01*
X120695000Y-127295801D01*
X108150500Y-127295801D01*
X108150500Y-126373007D01*
X119090001Y-126373007D01*
X119092786Y-126402721D01*
X119092787Y-126402728D01*
X119136594Y-126527919D01*
X119215358Y-126634640D01*
X119215359Y-126634641D01*
X119322080Y-126713405D01*
X119447268Y-126757211D01*
X119447273Y-126757212D01*
X119477002Y-126759999D01*
X119600000Y-126759999D01*
X119800000Y-126759999D01*
X119922993Y-126759999D01*
X119923007Y-126759998D01*
X119952721Y-126757213D01*
X119952728Y-126757212D01*
X120077919Y-126713405D01*
X120184640Y-126634641D01*
X120184641Y-126634640D01*
X120263405Y-126527919D01*
X120307211Y-126402731D01*
X120307212Y-126402726D01*
X120309999Y-126372997D01*
X120310000Y-126372996D01*
X120310000Y-126280000D01*
X119800000Y-126280000D01*
X119800000Y-126759999D01*
X119600000Y-126759999D01*
X119600000Y-126280000D01*
X119090001Y-126280000D01*
X119090001Y-126373007D01*
X108150500Y-126373007D01*
X108150500Y-125987002D01*
X119090000Y-125987002D01*
X119090000Y-126080000D01*
X120309999Y-126080000D01*
X120309999Y-125987007D01*
X120309998Y-125986992D01*
X120307213Y-125957278D01*
X120307212Y-125957271D01*
X120263405Y-125832080D01*
X120184641Y-125725359D01*
X120184640Y-125725358D01*
X120139641Y-125692147D01*
X120110410Y-125643636D01*
X120124044Y-125588664D01*
X120131252Y-125580287D01*
X120153224Y-125558316D01*
X120203972Y-125449487D01*
X120210500Y-125399901D01*
X120210499Y-125040100D01*
X120203972Y-124990513D01*
X120153224Y-124881684D01*
X120122174Y-124850634D01*
X120100500Y-124798308D01*
X120100500Y-123896545D01*
X120122174Y-123844219D01*
X120319219Y-123647174D01*
X120371545Y-123625500D01*
X120720500Y-123625500D01*
X120772826Y-123647174D01*
X120794500Y-123699500D01*
X120794500Y-124083264D01*
X120804427Y-124151393D01*
X120804427Y-124151394D01*
X120855801Y-124256482D01*
X120855802Y-124256483D01*
X120938517Y-124339198D01*
X121043607Y-124390573D01*
X121111740Y-124400500D01*
X121111746Y-124400500D01*
X121478254Y-124400500D01*
X121478260Y-124400500D01*
X121546393Y-124390573D01*
X121651483Y-124339198D01*
X121734198Y-124256483D01*
X121785573Y-124151393D01*
X121795500Y-124083260D01*
X121795500Y-122366740D01*
X121785573Y-122298607D01*
X121734198Y-122193517D01*
X121651483Y-122110802D01*
X121651482Y-122110801D01*
X121546394Y-122059427D01*
X121478264Y-122049500D01*
X121478260Y-122049500D01*
X121111740Y-122049500D01*
X121111735Y-122049500D01*
X121043606Y-122059427D01*
X121043605Y-122059427D01*
X120938517Y-122110801D01*
X120855801Y-122193517D01*
X120804427Y-122298605D01*
X120804427Y-122298606D01*
X120794500Y-122366735D01*
X120794500Y-122750500D01*
X120772826Y-122802826D01*
X120720500Y-122824500D01*
X120122271Y-122824500D01*
X120020417Y-122851791D01*
X120020408Y-122851795D01*
X119963761Y-122884501D01*
X119929086Y-122904520D01*
X119379517Y-123454090D01*
X119326792Y-123545412D01*
X119326793Y-123545413D01*
X119299500Y-123647273D01*
X119299500Y-124798308D01*
X119277826Y-124850634D01*
X119246776Y-124881683D01*
X119196027Y-124990514D01*
X119189500Y-125040100D01*
X119189500Y-125399899D01*
X119196027Y-125449485D01*
X119196028Y-125449487D01*
X119246776Y-125558316D01*
X119268741Y-125580281D01*
X119290415Y-125632607D01*
X119268741Y-125684933D01*
X119260359Y-125692147D01*
X119215357Y-125725360D01*
X119136594Y-125832080D01*
X119092788Y-125957268D01*
X119092787Y-125957273D01*
X119090000Y-125987002D01*
X108150500Y-125987002D01*
X108150500Y-116047270D01*
X117699500Y-116047270D01*
X117699500Y-116152729D01*
X117726791Y-116254582D01*
X117726795Y-116254591D01*
X117779520Y-116345913D01*
X117802826Y-116369219D01*
X117824500Y-116421545D01*
X117824500Y-118054800D01*
X117866443Y-118156058D01*
X120066443Y-120356058D01*
X120143942Y-120433557D01*
X120245200Y-120475500D01*
X120647961Y-120475500D01*
X120700287Y-120497174D01*
X120721961Y-120549500D01*
X120700287Y-120601826D01*
X120667114Y-120620978D01*
X120645417Y-120626791D01*
X120645408Y-120626795D01*
X120554086Y-120679520D01*
X120479520Y-120754086D01*
X120426795Y-120845408D01*
X120426791Y-120845417D01*
X120399500Y-120947270D01*
X120399500Y-121052729D01*
X120426791Y-121154582D01*
X120426792Y-121154585D01*
X120426793Y-121154587D01*
X120479520Y-121245913D01*
X120554087Y-121320480D01*
X120645413Y-121373207D01*
X120747270Y-121400499D01*
X120747271Y-121400500D01*
X120747273Y-121400500D01*
X120852726Y-121400500D01*
X120852727Y-121400500D01*
X120869149Y-121396099D01*
X120925300Y-121403489D01*
X120955369Y-121436302D01*
X120967150Y-121461565D01*
X120975935Y-121480404D01*
X121059596Y-121564065D01*
X121166827Y-121614068D01*
X121215684Y-121620500D01*
X121215686Y-121620500D01*
X121564314Y-121620500D01*
X121564316Y-121620500D01*
X121613173Y-121614068D01*
X121720404Y-121564065D01*
X121804065Y-121480404D01*
X121832933Y-121418495D01*
X121874690Y-121380232D01*
X121931273Y-121382702D01*
X121967067Y-121418496D01*
X121995933Y-121480402D01*
X121995935Y-121480404D01*
X122079596Y-121564065D01*
X122186827Y-121614068D01*
X122225158Y-121619114D01*
X122274208Y-121647432D01*
X122289500Y-121692481D01*
X122289500Y-122025018D01*
X122267826Y-122077344D01*
X122248001Y-122091498D01*
X122208520Y-122110799D01*
X122208517Y-122110801D01*
X122125801Y-122193517D01*
X122074427Y-122298605D01*
X122074427Y-122298606D01*
X122064500Y-122366735D01*
X122064500Y-124083264D01*
X122074427Y-124151393D01*
X122074427Y-124151394D01*
X122125801Y-124256482D01*
X122125802Y-124256483D01*
X122208517Y-124339198D01*
X122313607Y-124390573D01*
X122381740Y-124400500D01*
X122381746Y-124400500D01*
X122748254Y-124400500D01*
X122748260Y-124400500D01*
X122816393Y-124390573D01*
X122921483Y-124339198D01*
X123004198Y-124256483D01*
X123055573Y-124151393D01*
X123065500Y-124083260D01*
X123065500Y-122366740D01*
X123055573Y-122298607D01*
X123004198Y-122193517D01*
X122921483Y-122110802D01*
X122921482Y-122110801D01*
X122921479Y-122110799D01*
X122881999Y-122091498D01*
X122844509Y-122049045D01*
X122840500Y-122025018D01*
X122840500Y-121461565D01*
X122847433Y-121430291D01*
X122861325Y-121400500D01*
X122874068Y-121373173D01*
X122880500Y-121324316D01*
X122880500Y-120875684D01*
X122874068Y-120826827D01*
X122824065Y-120719596D01*
X122751295Y-120646826D01*
X122729621Y-120594500D01*
X122751295Y-120542174D01*
X122803621Y-120520500D01*
X122864314Y-120520500D01*
X122864316Y-120520500D01*
X122913173Y-120514068D01*
X123020404Y-120464065D01*
X123104065Y-120380404D01*
X123132933Y-120318495D01*
X123174690Y-120280232D01*
X123231273Y-120282702D01*
X123267067Y-120318496D01*
X123295933Y-120380402D01*
X123295935Y-120380404D01*
X123379596Y-120464065D01*
X123486827Y-120514068D01*
X123495156Y-120515164D01*
X123544205Y-120543479D01*
X123559500Y-120588531D01*
X123559500Y-122025018D01*
X123537826Y-122077344D01*
X123518001Y-122091498D01*
X123478520Y-122110799D01*
X123478517Y-122110801D01*
X123395801Y-122193517D01*
X123344427Y-122298605D01*
X123344427Y-122298606D01*
X123334500Y-122366735D01*
X123334500Y-124083264D01*
X123344427Y-124151393D01*
X123344427Y-124151394D01*
X123395801Y-124256482D01*
X123395802Y-124256483D01*
X123478517Y-124339198D01*
X123583607Y-124390573D01*
X123651740Y-124400500D01*
X123651746Y-124400500D01*
X124018254Y-124400500D01*
X124018260Y-124400500D01*
X124086393Y-124390573D01*
X124191483Y-124339198D01*
X124274198Y-124256483D01*
X124325573Y-124151393D01*
X124335500Y-124083260D01*
X124335500Y-122366740D01*
X124335499Y-122366735D01*
X124604500Y-122366735D01*
X124604500Y-124083264D01*
X124614427Y-124151393D01*
X124614427Y-124151394D01*
X124665801Y-124256482D01*
X124665802Y-124256483D01*
X124748517Y-124339198D01*
X124853607Y-124390573D01*
X124921740Y-124400500D01*
X124921746Y-124400500D01*
X125288254Y-124400500D01*
X125288260Y-124400500D01*
X125356393Y-124390573D01*
X125461483Y-124339198D01*
X125544198Y-124256483D01*
X125595573Y-124151393D01*
X125605500Y-124083260D01*
X125605500Y-122366740D01*
X125595573Y-122298607D01*
X125544198Y-122193517D01*
X125461483Y-122110802D01*
X125461482Y-122110801D01*
X125356394Y-122059427D01*
X125288264Y-122049500D01*
X125288260Y-122049500D01*
X124921740Y-122049500D01*
X124921735Y-122049500D01*
X124853606Y-122059427D01*
X124853605Y-122059427D01*
X124748517Y-122110801D01*
X124665801Y-122193517D01*
X124614427Y-122298605D01*
X124614427Y-122298606D01*
X124604500Y-122366735D01*
X124335499Y-122366735D01*
X124325573Y-122298607D01*
X124274198Y-122193517D01*
X124191483Y-122110802D01*
X124191482Y-122110801D01*
X124191479Y-122110799D01*
X124151999Y-122091498D01*
X124114509Y-122049045D01*
X124110500Y-122025018D01*
X124110500Y-120423109D01*
X124117891Y-120390871D01*
X124121917Y-120382551D01*
X124124065Y-120380404D01*
X124153294Y-120317721D01*
X124153517Y-120317262D01*
X124174316Y-120298748D01*
X124194816Y-120279963D01*
X124195568Y-120279830D01*
X124195822Y-120279605D01*
X124196592Y-120279649D01*
X124220126Y-120275500D01*
X125954798Y-120275500D01*
X125954800Y-120275500D01*
X126056058Y-120233557D01*
X126133557Y-120156058D01*
X126133556Y-120156058D01*
X126168517Y-120121097D01*
X126168516Y-120121097D01*
X127933557Y-118356059D01*
X127945841Y-118326400D01*
X127957907Y-118297273D01*
X127975500Y-118254800D01*
X127975500Y-115721545D01*
X127997174Y-115669219D01*
X128020480Y-115645913D01*
X128073207Y-115554587D01*
X128100499Y-115452729D01*
X128100500Y-115452729D01*
X128100500Y-115347271D01*
X128100499Y-115347270D01*
X128073208Y-115245417D01*
X128073207Y-115245413D01*
X128020480Y-115154087D01*
X127945913Y-115079520D01*
X127854591Y-115026795D01*
X127854582Y-115026791D01*
X127752729Y-114999500D01*
X127752727Y-114999500D01*
X127647273Y-114999500D01*
X127647271Y-114999500D01*
X127545417Y-115026791D01*
X127545408Y-115026795D01*
X127454086Y-115079520D01*
X127379520Y-115154086D01*
X127326795Y-115245408D01*
X127326791Y-115245417D01*
X127299500Y-115347270D01*
X127299500Y-115452729D01*
X127326791Y-115554582D01*
X127326795Y-115554591D01*
X127379520Y-115645913D01*
X127402826Y-115669219D01*
X127424500Y-115721545D01*
X127424500Y-118055232D01*
X127402826Y-118107558D01*
X125807559Y-119702826D01*
X125755233Y-119724500D01*
X124220126Y-119724500D01*
X124167800Y-119702826D01*
X124153059Y-119681773D01*
X124124066Y-119619598D01*
X124124065Y-119619596D01*
X124040404Y-119535935D01*
X123933173Y-119485932D01*
X123933171Y-119485931D01*
X123897178Y-119481193D01*
X123884316Y-119479500D01*
X123535684Y-119479500D01*
X123524318Y-119480996D01*
X123486828Y-119485931D01*
X123379595Y-119535935D01*
X123295935Y-119619595D01*
X123267067Y-119681504D01*
X123225309Y-119719767D01*
X123168726Y-119717297D01*
X123132933Y-119681504D01*
X123119514Y-119652727D01*
X123104065Y-119619596D01*
X123020404Y-119535935D01*
X122913173Y-119485932D01*
X122913171Y-119485931D01*
X122877178Y-119481193D01*
X122864316Y-119479500D01*
X122864314Y-119479500D01*
X122635611Y-119479500D01*
X122583285Y-119457826D01*
X122571525Y-119442500D01*
X122521266Y-119355449D01*
X122520480Y-119354087D01*
X122445913Y-119279520D01*
X122419144Y-119264065D01*
X122354591Y-119226795D01*
X122354582Y-119226791D01*
X122252729Y-119199500D01*
X122252727Y-119199500D01*
X122147273Y-119199500D01*
X122147271Y-119199500D01*
X122045417Y-119226791D01*
X122045408Y-119226795D01*
X121954086Y-119279520D01*
X121879520Y-119354086D01*
X121826795Y-119445408D01*
X121826791Y-119445417D01*
X121799500Y-119547270D01*
X121799500Y-119652729D01*
X121826791Y-119754582D01*
X121826792Y-119754585D01*
X121826793Y-119754587D01*
X121879520Y-119845913D01*
X121954087Y-119920480D01*
X122045413Y-119973207D01*
X122147273Y-120000500D01*
X122147278Y-120000500D01*
X122152080Y-120001133D01*
X122151818Y-120003117D01*
X122197826Y-120022174D01*
X122219500Y-120074500D01*
X122219500Y-120224314D01*
X122225931Y-120273171D01*
X122269751Y-120367142D01*
X122272221Y-120423726D01*
X122233958Y-120465483D01*
X122177374Y-120467953D01*
X122150358Y-120450742D01*
X121666059Y-119966444D01*
X121666057Y-119966442D01*
X121606742Y-119941873D01*
X121564800Y-119924500D01*
X121564799Y-119924500D01*
X120444767Y-119924500D01*
X120392441Y-119902826D01*
X118494486Y-118004871D01*
X119719500Y-118004871D01*
X119719500Y-118125128D01*
X119742959Y-118243069D01*
X119742961Y-118243076D01*
X119788981Y-118354179D01*
X119855791Y-118454167D01*
X119855794Y-118454171D01*
X119940829Y-118539206D01*
X120040820Y-118606018D01*
X120151924Y-118652039D01*
X120269871Y-118675500D01*
X120269872Y-118675500D01*
X120390128Y-118675500D01*
X120390129Y-118675500D01*
X120508076Y-118652039D01*
X120619180Y-118606018D01*
X120719171Y-118539206D01*
X120804206Y-118454171D01*
X120871018Y-118354180D01*
X120894591Y-118297270D01*
X123049500Y-118297270D01*
X123049500Y-118402729D01*
X123076791Y-118504582D01*
X123076792Y-118504585D01*
X123076793Y-118504587D01*
X123129520Y-118595913D01*
X123204087Y-118670480D01*
X123295413Y-118723207D01*
X123397270Y-118750499D01*
X123397271Y-118750500D01*
X123397273Y-118750500D01*
X123430233Y-118750500D01*
X123482559Y-118772174D01*
X123597826Y-118887441D01*
X123619500Y-118939767D01*
X123619500Y-119024316D01*
X123620717Y-119033557D01*
X123625931Y-119073171D01*
X123625932Y-119073173D01*
X123675935Y-119180404D01*
X123759596Y-119264065D01*
X123866827Y-119314068D01*
X123915684Y-119320500D01*
X123915686Y-119320500D01*
X124264314Y-119320500D01*
X124264316Y-119320500D01*
X124313173Y-119314068D01*
X124420404Y-119264065D01*
X124504065Y-119180404D01*
X124532933Y-119118495D01*
X124574690Y-119080232D01*
X124631273Y-119082702D01*
X124667067Y-119118496D01*
X124695933Y-119180402D01*
X124695935Y-119180404D01*
X124779596Y-119264065D01*
X124886827Y-119314068D01*
X124935684Y-119320500D01*
X124935686Y-119320500D01*
X125284314Y-119320500D01*
X125284316Y-119320500D01*
X125333173Y-119314068D01*
X125440404Y-119264065D01*
X125524065Y-119180404D01*
X125565174Y-119092244D01*
X125603921Y-119055152D01*
X125656058Y-119033557D01*
X125733557Y-118956058D01*
X125733556Y-118956058D01*
X126097058Y-118592558D01*
X126139000Y-118491300D01*
X126139000Y-118381700D01*
X126139000Y-116858045D01*
X126160674Y-116805719D01*
X126183980Y-116782413D01*
X126236707Y-116691087D01*
X126263999Y-116589229D01*
X126264000Y-116589229D01*
X126264000Y-116483771D01*
X126263999Y-116483770D01*
X126236708Y-116381917D01*
X126236707Y-116381913D01*
X126183980Y-116290587D01*
X126109413Y-116216020D01*
X126018091Y-116163295D01*
X126018082Y-116163291D01*
X125916229Y-116136000D01*
X125916227Y-116136000D01*
X125810773Y-116136000D01*
X125810771Y-116136000D01*
X125708917Y-116163291D01*
X125708908Y-116163295D01*
X125617586Y-116216020D01*
X125543020Y-116290586D01*
X125490295Y-116381908D01*
X125490291Y-116381917D01*
X125463000Y-116483770D01*
X125463000Y-116589229D01*
X125490291Y-116691082D01*
X125490295Y-116691091D01*
X125543020Y-116782413D01*
X125566326Y-116805719D01*
X125588000Y-116858045D01*
X125588000Y-118291731D01*
X125566326Y-118344057D01*
X125559752Y-118350631D01*
X125507426Y-118372305D01*
X125455100Y-118350631D01*
X125440404Y-118335935D01*
X125411344Y-118322384D01*
X125333173Y-118285932D01*
X125333171Y-118285931D01*
X125297178Y-118281193D01*
X125284316Y-118279500D01*
X124935684Y-118279500D01*
X124924318Y-118280996D01*
X124886828Y-118285931D01*
X124779595Y-118335935D01*
X124695935Y-118419595D01*
X124667067Y-118481504D01*
X124625309Y-118519767D01*
X124568726Y-118517297D01*
X124532933Y-118481504D01*
X124504065Y-118419596D01*
X124420404Y-118335935D01*
X124313173Y-118285932D01*
X124313171Y-118285931D01*
X124277178Y-118281193D01*
X124264316Y-118279500D01*
X123915684Y-118279500D01*
X123912456Y-118279924D01*
X123857750Y-118265262D01*
X123831325Y-118225710D01*
X123823207Y-118195413D01*
X123770480Y-118104087D01*
X123695913Y-118029520D01*
X123653220Y-118004871D01*
X123604591Y-117976795D01*
X123604582Y-117976791D01*
X123502729Y-117949500D01*
X123502727Y-117949500D01*
X123397273Y-117949500D01*
X123397271Y-117949500D01*
X123295417Y-117976791D01*
X123295408Y-117976795D01*
X123204086Y-118029520D01*
X123129520Y-118104086D01*
X123076795Y-118195408D01*
X123076791Y-118195417D01*
X123049500Y-118297270D01*
X120894591Y-118297270D01*
X120917039Y-118243076D01*
X120940500Y-118125129D01*
X120940500Y-118004871D01*
X120917039Y-117886924D01*
X120871018Y-117775820D01*
X120804206Y-117675829D01*
X120719171Y-117590794D01*
X120619180Y-117523982D01*
X120619181Y-117523982D01*
X120619179Y-117523981D01*
X120508076Y-117477961D01*
X120508069Y-117477959D01*
X120419215Y-117460285D01*
X120390129Y-117454500D01*
X120269871Y-117454500D01*
X120246538Y-117459141D01*
X120151930Y-117477959D01*
X120151923Y-117477961D01*
X120040820Y-117523981D01*
X119940832Y-117590791D01*
X119855791Y-117675832D01*
X119788981Y-117775820D01*
X119742961Y-117886923D01*
X119742959Y-117886930D01*
X119719500Y-118004871D01*
X118494486Y-118004871D01*
X118397174Y-117907559D01*
X118375500Y-117855233D01*
X118375500Y-116421545D01*
X118397174Y-116369219D01*
X118420480Y-116345913D01*
X118473207Y-116254587D01*
X118500499Y-116152729D01*
X118500500Y-116152729D01*
X118500500Y-116047271D01*
X118500499Y-116047270D01*
X118473208Y-115945417D01*
X118473207Y-115945413D01*
X118420480Y-115854087D01*
X118345913Y-115779520D01*
X118254591Y-115726795D01*
X118254582Y-115726791D01*
X118152729Y-115699500D01*
X118152727Y-115699500D01*
X118047273Y-115699500D01*
X118047271Y-115699500D01*
X117945417Y-115726791D01*
X117945408Y-115726795D01*
X117854086Y-115779520D01*
X117779520Y-115854086D01*
X117726795Y-115945408D01*
X117726791Y-115945417D01*
X117699500Y-116047270D01*
X108150500Y-116047270D01*
X108150500Y-111837388D01*
X152430000Y-111837388D01*
X152432756Y-111866786D01*
X152432757Y-111866791D01*
X152476064Y-111990556D01*
X152553934Y-112096064D01*
X152553935Y-112096065D01*
X152659443Y-112173935D01*
X152783208Y-112217242D01*
X152783213Y-112217243D01*
X152812611Y-112219999D01*
X152812613Y-112220000D01*
X152900000Y-112220000D01*
X152900000Y-111700000D01*
X152430000Y-111700000D01*
X152430000Y-111837388D01*
X108150500Y-111837388D01*
X108150500Y-111362611D01*
X152430000Y-111362611D01*
X152430000Y-111500000D01*
X152900000Y-111500000D01*
X152900000Y-110980000D01*
X152812611Y-110980000D01*
X152783213Y-110982756D01*
X152783208Y-110982757D01*
X152659443Y-111026064D01*
X152553935Y-111103934D01*
X152553934Y-111103935D01*
X152476064Y-111209443D01*
X152432757Y-111333208D01*
X152432756Y-111333213D01*
X152430000Y-111362611D01*
X108150500Y-111362611D01*
X108150500Y-81874871D01*
X119719500Y-81874871D01*
X119719500Y-81995128D01*
X119742959Y-82113069D01*
X119742961Y-82113076D01*
X119788981Y-82224179D01*
X119788982Y-82224180D01*
X119855794Y-82324171D01*
X119940829Y-82409206D01*
X120040820Y-82476018D01*
X120151924Y-82522039D01*
X120269871Y-82545500D01*
X120269872Y-82545500D01*
X120390128Y-82545500D01*
X120390129Y-82545500D01*
X120508076Y-82522039D01*
X120619180Y-82476018D01*
X120719171Y-82409206D01*
X120804206Y-82324171D01*
X120871018Y-82224180D01*
X120917039Y-82113076D01*
X120940500Y-81995129D01*
X120940500Y-81874871D01*
X120917039Y-81756924D01*
X120871018Y-81645820D01*
X120804206Y-81545829D01*
X120719171Y-81460794D01*
X120619180Y-81393982D01*
X120619181Y-81393982D01*
X120619179Y-81393981D01*
X120508076Y-81347961D01*
X120508069Y-81347959D01*
X120419215Y-81330285D01*
X120390129Y-81324500D01*
X120269871Y-81324500D01*
X120246538Y-81329141D01*
X120151930Y-81347959D01*
X120151923Y-81347961D01*
X120040820Y-81393981D01*
X119940832Y-81460791D01*
X119855791Y-81545832D01*
X119788981Y-81645820D01*
X119742961Y-81756923D01*
X119742959Y-81756930D01*
X119719500Y-81874871D01*
X108150500Y-81874871D01*
X108150500Y-80002083D01*
X108150616Y-79997934D01*
X108158701Y-79853959D01*
X150399500Y-79853959D01*
X150399500Y-80146041D01*
X150418186Y-80311895D01*
X150432202Y-80436289D01*
X150497195Y-80721040D01*
X150497201Y-80721058D01*
X150593661Y-80996730D01*
X150720394Y-81259891D01*
X150720395Y-81259893D01*
X150875792Y-81507206D01*
X151057902Y-81735565D01*
X151264435Y-81942098D01*
X151492794Y-82124208D01*
X151740107Y-82279605D01*
X151832649Y-82324171D01*
X152003269Y-82406338D01*
X152202407Y-82476018D01*
X152278955Y-82502803D01*
X152278958Y-82502803D01*
X152278959Y-82502804D01*
X152363237Y-82522040D01*
X152563714Y-82567798D01*
X152853959Y-82600500D01*
X152853963Y-82600500D01*
X153146037Y-82600500D01*
X153146041Y-82600500D01*
X153436286Y-82567798D01*
X153721045Y-82502803D01*
X153845207Y-82459357D01*
X153996730Y-82406338D01*
X153996734Y-82406335D01*
X153996737Y-82406335D01*
X154259893Y-82279605D01*
X154507206Y-82124208D01*
X154735565Y-81942098D01*
X154942098Y-81735565D01*
X155124208Y-81507206D01*
X155279605Y-81259893D01*
X155406335Y-80996737D01*
X155406335Y-80996734D01*
X155406338Y-80996730D01*
X155459357Y-80845207D01*
X155502803Y-80721045D01*
X155567798Y-80436286D01*
X155600500Y-80146041D01*
X155600500Y-79853959D01*
X155599871Y-79848374D01*
X160300000Y-79848374D01*
X160300000Y-80151625D01*
X160333954Y-80452982D01*
X160333954Y-80452983D01*
X160401432Y-80748625D01*
X160401437Y-80748641D01*
X160501593Y-81034869D01*
X160633173Y-81308097D01*
X160794516Y-81564874D01*
X160983593Y-81801969D01*
X161020101Y-81838477D01*
X161939339Y-80919238D01*
X162080761Y-81060660D01*
X161161523Y-81979899D01*
X161198030Y-82016406D01*
X161435125Y-82205483D01*
X161691902Y-82366826D01*
X161965130Y-82498406D01*
X162251358Y-82598562D01*
X162251374Y-82598567D01*
X162547016Y-82666045D01*
X162848375Y-82700000D01*
X163151625Y-82700000D01*
X163452982Y-82666045D01*
X163452983Y-82666045D01*
X163748625Y-82598567D01*
X163748641Y-82598562D01*
X164034869Y-82498406D01*
X164308097Y-82366826D01*
X164564874Y-82205483D01*
X164801969Y-82016406D01*
X164838477Y-81979899D01*
X164733449Y-81874871D01*
X189719500Y-81874871D01*
X189719500Y-81995128D01*
X189742959Y-82113069D01*
X189742961Y-82113076D01*
X189788981Y-82224179D01*
X189788982Y-82224180D01*
X189855794Y-82324171D01*
X189940829Y-82409206D01*
X190040820Y-82476018D01*
X190151924Y-82522039D01*
X190269871Y-82545500D01*
X190269872Y-82545500D01*
X190390128Y-82545500D01*
X190390129Y-82545500D01*
X190508076Y-82522039D01*
X190619180Y-82476018D01*
X190719171Y-82409206D01*
X190804206Y-82324171D01*
X190871018Y-82224180D01*
X190917039Y-82113076D01*
X190940500Y-81995129D01*
X190940500Y-81874871D01*
X190917039Y-81756924D01*
X190871018Y-81645820D01*
X190804206Y-81545829D01*
X190719171Y-81460794D01*
X190619180Y-81393982D01*
X190619181Y-81393982D01*
X190619179Y-81393981D01*
X190508076Y-81347961D01*
X190508069Y-81347959D01*
X190419215Y-81330285D01*
X190390129Y-81324500D01*
X190269871Y-81324500D01*
X190246538Y-81329141D01*
X190151930Y-81347959D01*
X190151923Y-81347961D01*
X190040820Y-81393981D01*
X189940832Y-81460791D01*
X189855791Y-81545832D01*
X189788981Y-81645820D01*
X189742961Y-81756923D01*
X189742959Y-81756930D01*
X189719500Y-81874871D01*
X164733449Y-81874871D01*
X163919238Y-81060660D01*
X164060660Y-80919238D01*
X164979899Y-81838477D01*
X164999466Y-81818910D01*
X165016406Y-81801969D01*
X165205483Y-81564874D01*
X165366826Y-81308097D01*
X165498406Y-81034869D01*
X165598562Y-80748641D01*
X165598567Y-80748625D01*
X165666045Y-80452983D01*
X165666045Y-80452982D01*
X165700000Y-80151625D01*
X165700000Y-79848374D01*
X165666045Y-79547017D01*
X165666045Y-79547016D01*
X165598567Y-79251374D01*
X165598562Y-79251358D01*
X165498406Y-78965130D01*
X165366826Y-78691902D01*
X165205483Y-78435125D01*
X165016406Y-78198030D01*
X164979899Y-78161523D01*
X164060660Y-79080761D01*
X163919238Y-78939339D01*
X164838477Y-78020101D01*
X164801969Y-77983593D01*
X164564874Y-77794516D01*
X164308097Y-77633173D01*
X164034869Y-77501593D01*
X163748641Y-77401437D01*
X163748625Y-77401432D01*
X163452983Y-77333954D01*
X163151625Y-77300000D01*
X162848375Y-77300000D01*
X162547017Y-77333954D01*
X162547016Y-77333954D01*
X162251374Y-77401432D01*
X162251358Y-77401437D01*
X161965130Y-77501593D01*
X161691902Y-77633173D01*
X161435125Y-77794516D01*
X161198030Y-77983593D01*
X161161523Y-78020101D01*
X162080761Y-78939339D01*
X161939339Y-79080761D01*
X161020101Y-78161523D01*
X160983593Y-78198030D01*
X160794516Y-78435125D01*
X160633173Y-78691902D01*
X160501593Y-78965130D01*
X160401437Y-79251358D01*
X160401432Y-79251374D01*
X160333954Y-79547016D01*
X160333954Y-79547017D01*
X160300000Y-79848374D01*
X155599871Y-79848374D01*
X155567798Y-79563714D01*
X155502803Y-79278955D01*
X155435972Y-79087961D01*
X155406338Y-79003269D01*
X155292791Y-78767488D01*
X155279605Y-78740107D01*
X155124208Y-78492794D01*
X154942098Y-78264435D01*
X154735565Y-78057902D01*
X154735563Y-78057900D01*
X154722278Y-78047305D01*
X154722277Y-78047305D01*
X154507206Y-77875792D01*
X154259893Y-77720395D01*
X154259891Y-77720394D01*
X153996730Y-77593661D01*
X153721058Y-77497201D01*
X153721040Y-77497195D01*
X153436289Y-77432202D01*
X153311895Y-77418186D01*
X153146041Y-77399500D01*
X152853959Y-77399500D01*
X152708836Y-77415851D01*
X152563710Y-77432202D01*
X152278959Y-77497195D01*
X152278941Y-77497201D01*
X152003269Y-77593661D01*
X151740108Y-77720394D01*
X151492793Y-77875792D01*
X151264431Y-78057905D01*
X151057905Y-78264431D01*
X150875792Y-78492793D01*
X150720394Y-78740108D01*
X150593661Y-79003269D01*
X150497201Y-79278941D01*
X150497195Y-79278959D01*
X150432202Y-79563710D01*
X150413515Y-79729568D01*
X150399500Y-79853959D01*
X108158701Y-79853959D01*
X108168184Y-79685092D01*
X108169114Y-79676852D01*
X108169911Y-79672166D01*
X108221247Y-79370020D01*
X108223092Y-79361937D01*
X108309258Y-79062846D01*
X108311988Y-79055044D01*
X108431100Y-78767481D01*
X108434694Y-78760019D01*
X108585259Y-78487593D01*
X108589656Y-78480595D01*
X108769769Y-78226750D01*
X108774927Y-78220281D01*
X108982342Y-77988183D01*
X108988183Y-77982342D01*
X109220281Y-77774927D01*
X109226750Y-77769769D01*
X109480595Y-77589656D01*
X109487593Y-77585259D01*
X109760019Y-77434694D01*
X109767481Y-77431100D01*
X110055044Y-77311988D01*
X110062846Y-77309258D01*
X110361945Y-77223090D01*
X110370020Y-77221247D01*
X110676860Y-77169113D01*
X110685092Y-77168184D01*
X110997934Y-77150615D01*
X111002083Y-77150500D01*
X111034351Y-77150500D01*
X204965649Y-77150500D01*
X204997917Y-77150500D01*
X205002065Y-77150615D01*
G37*
%TD.AperFunction*%
%TD*%
M02*
