%TF.GenerationSoftware,KiCad,Pcbnew,9.0.3*%
%TF.CreationDate,2025-10-23T14:53:04-04:00*%
%TF.ProjectId,ephys-test-module-64,65706879-732d-4746-9573-742d6d6f6475,D*%
%TF.SameCoordinates,Original*%
%TF.FileFunction,Copper,L1,Top*%
%TF.FilePolarity,Positive*%
%FSLAX46Y46*%
G04 Gerber Fmt 4.6, Leading zero omitted, Abs format (unit mm)*
G04 Created by KiCad (PCBNEW 9.0.3) date 2025-10-23 14:53:04*
%MOMM*%
%LPD*%
G01*
G04 APERTURE LIST*
G04 Aperture macros list*
%AMRoundRect*
0 Rectangle with rounded corners*
0 $1 Rounding radius*
0 $2 $3 $4 $5 $6 $7 $8 $9 X,Y pos of 4 corners*
0 Add a 4 corners polygon primitive as box body*
4,1,4,$2,$3,$4,$5,$6,$7,$8,$9,$2,$3,0*
0 Add four circle primitives for the rounded corners*
1,1,$1+$1,$2,$3*
1,1,$1+$1,$4,$5*
1,1,$1+$1,$6,$7*
1,1,$1+$1,$8,$9*
0 Add four rect primitives between the rounded corners*
20,1,$1+$1,$2,$3,$4,$5,0*
20,1,$1+$1,$4,$5,$6,$7,0*
20,1,$1+$1,$6,$7,$8,$9,0*
20,1,$1+$1,$8,$9,$2,$3,0*%
G04 Aperture macros list end*
%TA.AperFunction,ComponentPad*%
%ADD10C,4.800000*%
%TD*%
%TA.AperFunction,SMDPad,CuDef*%
%ADD11R,0.800000X0.300000*%
%TD*%
%TA.AperFunction,SMDPad,CuDef*%
%ADD12R,3.150000X1.000000*%
%TD*%
%TA.AperFunction,SMDPad,CuDef*%
%ADD13RoundRect,0.135000X-0.135000X-0.185000X0.135000X-0.185000X0.135000X0.185000X-0.135000X0.185000X0*%
%TD*%
%TA.AperFunction,SMDPad,CuDef*%
%ADD14RoundRect,0.135000X0.135000X0.185000X-0.135000X0.185000X-0.135000X-0.185000X0.135000X-0.185000X0*%
%TD*%
%TA.AperFunction,ComponentPad*%
%ADD15RoundRect,0.200000X-0.282843X0.000000X0.000000X-0.282843X0.282843X0.000000X0.000000X0.282843X0*%
%TD*%
%TA.AperFunction,ComponentPad*%
%ADD16C,0.800000*%
%TD*%
%TA.AperFunction,SMDPad,CuDef*%
%ADD17RoundRect,0.010000X0.340000X-0.090000X0.340000X0.090000X-0.340000X0.090000X-0.340000X-0.090000X0*%
%TD*%
%TA.AperFunction,SMDPad,CuDef*%
%ADD18RoundRect,0.150000X0.150000X-0.825000X0.150000X0.825000X-0.150000X0.825000X-0.150000X-0.825000X0*%
%TD*%
%TA.AperFunction,ComponentPad*%
%ADD19RoundRect,0.275000X0.388909X0.000000X0.000000X0.388909X-0.388909X0.000000X0.000000X-0.388909X0*%
%TD*%
%TA.AperFunction,ComponentPad*%
%ADD20C,1.100000*%
%TD*%
%TA.AperFunction,SMDPad,CuDef*%
%ADD21RoundRect,0.140000X-0.170000X0.140000X-0.170000X-0.140000X0.170000X-0.140000X0.170000X0.140000X0*%
%TD*%
%TA.AperFunction,ViaPad*%
%ADD22C,0.400000*%
%TD*%
%TA.AperFunction,Conductor*%
%ADD23C,0.150000*%
%TD*%
%TA.AperFunction,Conductor*%
%ADD24C,0.400000*%
%TD*%
G04 APERTURE END LIST*
D10*
%TO.P,TP3,1,1*%
%TO.N,/Headstage Interface/A*%
X153000000Y-80000000D03*
%TD*%
%TO.P,TP4,1,1*%
%TO.N,GND*%
X163000000Y-80000000D03*
%TD*%
%TO.P,TP1,1,1*%
%TO.N,/Headstage Interface/E_{stim}*%
X153000000Y-134000000D03*
%TD*%
%TO.P,TP2,1,1*%
%TO.N,GND*%
X163000000Y-134000000D03*
%TD*%
D11*
%TO.P,RN8,1,R1.1*%
%TO.N,/Headstage Interface/B9.E_{7}*%
X165200000Y-101500000D03*
%TO.P,RN8,2,R2.1*%
%TO.N,/Headstage Interface/B9.E_{6}*%
X165200000Y-101000000D03*
%TO.P,RN8,3,R3.1*%
%TO.N,/Headstage Interface/B9.E_{5}*%
X165200000Y-100500000D03*
%TO.P,RN8,4,R4.1*%
%TO.N,/Headstage Interface/B9.E_{4}*%
X165200000Y-100000000D03*
%TO.P,RN8,5,R5.1*%
%TO.N,/Headstage Interface/B9.E_{3}*%
X165200000Y-99500000D03*
%TO.P,RN8,6,R6.1*%
%TO.N,/Headstage Interface/B9.E_{2}*%
X165200000Y-99000000D03*
%TO.P,RN8,7,R7.1*%
%TO.N,/Headstage Interface/B9.E_{1}*%
X165200000Y-98500000D03*
%TO.P,RN8,8,R8.1*%
%TO.N,/Headstage Interface/B9.E_{0}*%
X165200000Y-98000000D03*
%TO.P,RN8,9,R8.2*%
%TO.N,/Headstage Interface/E47*%
X163400000Y-98000000D03*
%TO.P,RN8,10,R7.2*%
%TO.N,/Headstage Interface/E45*%
X163400000Y-98500000D03*
%TO.P,RN8,11,R6.2*%
%TO.N,/Headstage Interface/E43*%
X163400000Y-99000000D03*
%TO.P,RN8,12,R5.2*%
%TO.N,/Headstage Interface/E41*%
X163400000Y-99500000D03*
%TO.P,RN8,13,R4.2*%
%TO.N,/Headstage Interface/E39*%
X163400000Y-100000000D03*
%TO.P,RN8,14,R3.2*%
%TO.N,/Headstage Interface/E37*%
X163400000Y-100500000D03*
%TO.P,RN8,15,R2.2*%
%TO.N,/Headstage Interface/E35*%
X163400000Y-101000000D03*
%TO.P,RN8,16,R1.2*%
%TO.N,/Headstage Interface/E33*%
X163400000Y-101500000D03*
%TD*%
D12*
%TO.P,J4,1,Pin_1*%
%TO.N,REF*%
X195496000Y-123655000D03*
%TO.P,J4,2,Pin_2*%
%TO.N,GND*%
X190446000Y-123655000D03*
%TO.P,J4,3,Pin_3*%
%TO.N,REF*%
X195496000Y-121115000D03*
%TO.P,J4,4,Pin_4*%
%TO.N,GND*%
X190446000Y-121115000D03*
%TD*%
D13*
%TO.P,R3,1*%
%TO.N,VCC*%
X122690000Y-120000000D03*
%TO.P,R3,2*%
%TO.N,/Test Signal Interface/SCL*%
X123710000Y-120000000D03*
%TD*%
D14*
%TO.P,R4,1*%
%TO.N,/Headstage Interface/E_{stim}*%
X154020000Y-112400000D03*
%TO.P,R4,2*%
%TO.N,GND*%
X153000000Y-112400000D03*
%TD*%
D15*
%TO.P,LD1,1,A*%
%TO.N,/Headstage Interface/A*%
X153000000Y-85300000D03*
D16*
%TO.P,LD1,2,NC*%
%TO.N,unconnected-(LD1-NC-Pad2)*%
X152300000Y-86000000D03*
%TO.P,LD1,3,C*%
%TO.N,/Headstage Interface/K_{0}*%
X153000000Y-86700000D03*
%TD*%
D17*
%TO.P,J1,1,Pin_1*%
%TO.N,/Headstage Interface/E_{stim}*%
X156460000Y-108800000D03*
%TO.P,J1,2,Pin_2*%
%TO.N,GND*%
X159540000Y-108800000D03*
%TO.P,J1,3,Pin_3*%
%TO.N,/Headstage Interface/E0*%
X156460000Y-108400000D03*
%TO.P,J1,4,Pin_4*%
%TO.N,REF*%
X159540000Y-108400000D03*
%TO.P,J1,5,Pin_5*%
%TO.N,/Headstage Interface/E2*%
X156460000Y-108000000D03*
%TO.P,J1,6,Pin_6*%
%TO.N,/Headstage Interface/E1*%
X159540000Y-108000000D03*
%TO.P,J1,7,Pin_7*%
%TO.N,/Headstage Interface/E4*%
X156460000Y-107600000D03*
%TO.P,J1,8,Pin_8*%
%TO.N,/Headstage Interface/E3*%
X159540000Y-107600000D03*
%TO.P,J1,9,Pin_9*%
%TO.N,/Headstage Interface/E6*%
X156460000Y-107200000D03*
%TO.P,J1,10,Pin_10*%
%TO.N,/Headstage Interface/E5*%
X159540000Y-107200000D03*
%TO.P,J1,11,Pin_11*%
%TO.N,/Headstage Interface/E8*%
X156460000Y-106800000D03*
%TO.P,J1,12,Pin_12*%
%TO.N,/Headstage Interface/E7*%
X159540000Y-106800000D03*
%TO.P,J1,13,Pin_13*%
%TO.N,/Headstage Interface/E10*%
X156460000Y-106400000D03*
%TO.P,J1,14,Pin_14*%
%TO.N,/Headstage Interface/E9*%
X159540000Y-106400000D03*
%TO.P,J1,15,Pin_15*%
%TO.N,/Headstage Interface/E12*%
X156460000Y-106000000D03*
%TO.P,J1,16,Pin_16*%
%TO.N,/Headstage Interface/E11*%
X159540000Y-106000000D03*
%TO.P,J1,17,Pin_17*%
%TO.N,/Headstage Interface/E14*%
X156460000Y-105600000D03*
%TO.P,J1,18,Pin_18*%
%TO.N,/Headstage Interface/E13*%
X159540000Y-105600000D03*
%TO.P,J1,19,Pin_19*%
%TO.N,/Headstage Interface/E16*%
X156460000Y-105200000D03*
%TO.P,J1,20,Pin_20*%
%TO.N,/Headstage Interface/E15*%
X159540000Y-105200000D03*
%TO.P,J1,21,Pin_21*%
%TO.N,/Headstage Interface/E18*%
X156460000Y-104800000D03*
%TO.P,J1,22,Pin_22*%
%TO.N,/Headstage Interface/E17*%
X159540000Y-104800000D03*
%TO.P,J1,23,Pin_23*%
%TO.N,/Headstage Interface/E20*%
X156460000Y-104400000D03*
%TO.P,J1,24,Pin_24*%
%TO.N,/Headstage Interface/E19*%
X159540000Y-104400000D03*
%TO.P,J1,25,Pin_25*%
%TO.N,/Headstage Interface/E22*%
X156460000Y-104000000D03*
%TO.P,J1,26,Pin_26*%
%TO.N,/Headstage Interface/E21*%
X159540000Y-104000000D03*
%TO.P,J1,27,Pin_27*%
%TO.N,/Headstage Interface/E24*%
X156460000Y-103600000D03*
%TO.P,J1,28,Pin_28*%
%TO.N,/Headstage Interface/E23*%
X159540000Y-103600000D03*
%TO.P,J1,29,Pin_29*%
%TO.N,/Headstage Interface/E26*%
X156460000Y-103200000D03*
%TO.P,J1,30,Pin_30*%
%TO.N,/Headstage Interface/E25*%
X159540000Y-103200000D03*
%TO.P,J1,31,Pin_31*%
%TO.N,/Headstage Interface/E28*%
X156460000Y-102800000D03*
%TO.P,J1,32,Pin_32*%
%TO.N,/Headstage Interface/E27*%
X159540000Y-102800000D03*
%TO.P,J1,33,Pin_33*%
%TO.N,/Headstage Interface/E30*%
X156460000Y-102400000D03*
%TO.P,J1,34,Pin_34*%
%TO.N,/Headstage Interface/E29*%
X159540000Y-102400000D03*
%TO.P,J1,35,Pin_35*%
%TO.N,/Headstage Interface/E32*%
X156460000Y-102000000D03*
%TO.P,J1,36,Pin_36*%
%TO.N,/Headstage Interface/E31*%
X159540000Y-102000000D03*
%TO.P,J1,37,Pin_37*%
%TO.N,/Headstage Interface/E34*%
X156460000Y-101600000D03*
%TO.P,J1,38,Pin_38*%
%TO.N,/Headstage Interface/E33*%
X159540000Y-101600000D03*
%TO.P,J1,39,Pin_39*%
%TO.N,/Headstage Interface/E36*%
X156460000Y-101200000D03*
%TO.P,J1,40,Pin_40*%
%TO.N,/Headstage Interface/E35*%
X159540000Y-101200000D03*
%TO.P,J1,41,Pin_41*%
%TO.N,/Headstage Interface/E38*%
X156460000Y-100800000D03*
%TO.P,J1,42,Pin_42*%
%TO.N,/Headstage Interface/E37*%
X159540000Y-100800000D03*
%TO.P,J1,43,Pin_43*%
%TO.N,/Headstage Interface/E40*%
X156460000Y-100400000D03*
%TO.P,J1,44,Pin_44*%
%TO.N,/Headstage Interface/E39*%
X159540000Y-100400000D03*
%TO.P,J1,45,Pin_45*%
%TO.N,/Headstage Interface/E42*%
X156460000Y-100000000D03*
%TO.P,J1,46,Pin_46*%
%TO.N,/Headstage Interface/E41*%
X159540000Y-100000000D03*
%TO.P,J1,47,Pin_47*%
%TO.N,/Headstage Interface/E44*%
X156460000Y-99600000D03*
%TO.P,J1,48,Pin_48*%
%TO.N,/Headstage Interface/E43*%
X159540000Y-99600000D03*
%TO.P,J1,49,Pin_49*%
%TO.N,/Headstage Interface/E46*%
X156460000Y-99200000D03*
%TO.P,J1,50,Pin_50*%
%TO.N,/Headstage Interface/E45*%
X159540000Y-99200000D03*
%TO.P,J1,51,Pin_51*%
%TO.N,/Headstage Interface/E48*%
X156460000Y-98800000D03*
%TO.P,J1,52,Pin_52*%
%TO.N,/Headstage Interface/E47*%
X159540000Y-98800000D03*
%TO.P,J1,53,Pin_53*%
%TO.N,/Headstage Interface/E50*%
X156460000Y-98400000D03*
%TO.P,J1,54,Pin_54*%
%TO.N,/Headstage Interface/E49*%
X159540000Y-98400000D03*
%TO.P,J1,55,Pin_55*%
%TO.N,/Headstage Interface/E52*%
X156460000Y-98000000D03*
%TO.P,J1,56,Pin_56*%
%TO.N,/Headstage Interface/E51*%
X159540000Y-98000000D03*
%TO.P,J1,57,Pin_57*%
%TO.N,/Headstage Interface/E54*%
X156460000Y-97600000D03*
%TO.P,J1,58,Pin_58*%
%TO.N,/Headstage Interface/E53*%
X159540000Y-97600000D03*
%TO.P,J1,59,Pin_59*%
%TO.N,/Headstage Interface/E56*%
X156460000Y-97200000D03*
%TO.P,J1,60,Pin_60*%
%TO.N,/Headstage Interface/E55*%
X159540000Y-97200000D03*
%TO.P,J1,61,Pin_61*%
%TO.N,/Headstage Interface/E58*%
X156460000Y-96800000D03*
%TO.P,J1,62,Pin_62*%
%TO.N,/Headstage Interface/E57*%
X159540000Y-96800000D03*
%TO.P,J1,63,Pin_63*%
%TO.N,/Headstage Interface/E60*%
X156460000Y-96400000D03*
%TO.P,J1,64,Pin_64*%
%TO.N,/Headstage Interface/E59*%
X159540000Y-96400000D03*
%TO.P,J1,65,Pin_65*%
%TO.N,/Headstage Interface/E62*%
X156460000Y-96000000D03*
%TO.P,J1,66,Pin_66*%
%TO.N,/Headstage Interface/E61*%
X159540000Y-96000000D03*
%TO.P,J1,67,Pin_67*%
%TO.N,/Headstage Interface/K_{0}*%
X156460000Y-95600000D03*
%TO.P,J1,68,Pin_68*%
%TO.N,/Headstage Interface/E63*%
X159540000Y-95600000D03*
%TO.P,J1,69,Pin_69*%
%TO.N,/Headstage Interface/K_{1}*%
X156460000Y-95200000D03*
%TO.P,J1,70,Pin_70*%
%TO.N,/Headstage Interface/A*%
X159540000Y-95200000D03*
%TD*%
D13*
%TO.P,R1,1*%
%TO.N,VCC*%
X121390000Y-121100000D03*
%TO.P,R1,2*%
%TO.N,/Test Signal Interface/WP*%
X122410000Y-121100000D03*
%TD*%
D11*
%TO.P,RN2,1,R1.1*%
%TO.N,/Headstage Interface/E16*%
X152600000Y-106000000D03*
%TO.P,RN2,2,R2.1*%
%TO.N,/Headstage Interface/E18*%
X152600000Y-105500000D03*
%TO.P,RN2,3,R3.1*%
%TO.N,/Headstage Interface/E20*%
X152600000Y-105000000D03*
%TO.P,RN2,4,R4.1*%
%TO.N,/Headstage Interface/E22*%
X152600000Y-104500000D03*
%TO.P,RN2,5,R5.1*%
%TO.N,/Headstage Interface/E24*%
X152600000Y-104000000D03*
%TO.P,RN2,6,R6.1*%
%TO.N,/Headstage Interface/E26*%
X152600000Y-103500000D03*
%TO.P,RN2,7,R7.1*%
%TO.N,/Headstage Interface/E28*%
X152600000Y-103000000D03*
%TO.P,RN2,8,R8.1*%
%TO.N,/Headstage Interface/E30*%
X152600000Y-102500000D03*
%TO.P,RN2,9,R8.2*%
%TO.N,/Headstage Interface/B6.E_{0}*%
X150800000Y-102500000D03*
%TO.P,RN2,10,R7.2*%
%TO.N,/Headstage Interface/B6.E_{1}*%
X150800000Y-103000000D03*
%TO.P,RN2,11,R6.2*%
%TO.N,/Headstage Interface/B6.E_{2}*%
X150800000Y-103500000D03*
%TO.P,RN2,12,R5.2*%
%TO.N,/Headstage Interface/B6.E_{3}*%
X150800000Y-104000000D03*
%TO.P,RN2,13,R4.2*%
%TO.N,/Headstage Interface/B6.E_{4}*%
X150800000Y-104500000D03*
%TO.P,RN2,14,R3.2*%
%TO.N,/Headstage Interface/B6.E_{5}*%
X150800000Y-105000000D03*
%TO.P,RN2,15,R2.2*%
%TO.N,/Headstage Interface/B6.E_{6}*%
X150800000Y-105500000D03*
%TO.P,RN2,16,R1.2*%
%TO.N,/Headstage Interface/B6.E_{7}*%
X150800000Y-106000000D03*
%TD*%
%TO.P,RN3,1,R1.1*%
%TO.N,/Headstage Interface/E32*%
X152600000Y-101500000D03*
%TO.P,RN3,2,R2.1*%
%TO.N,/Headstage Interface/E34*%
X152600000Y-101000000D03*
%TO.P,RN3,3,R3.1*%
%TO.N,/Headstage Interface/E36*%
X152600000Y-100500000D03*
%TO.P,RN3,4,R4.1*%
%TO.N,/Headstage Interface/E38*%
X152600000Y-100000000D03*
%TO.P,RN3,5,R5.1*%
%TO.N,/Headstage Interface/E40*%
X152600000Y-99500000D03*
%TO.P,RN3,6,R6.1*%
%TO.N,/Headstage Interface/E42*%
X152600000Y-99000000D03*
%TO.P,RN3,7,R7.1*%
%TO.N,/Headstage Interface/E44*%
X152600000Y-98500000D03*
%TO.P,RN3,8,R8.1*%
%TO.N,/Headstage Interface/E46*%
X152600000Y-98000000D03*
%TO.P,RN3,9,R8.2*%
%TO.N,/Headstage Interface/B5.E_{0}*%
X150800000Y-98000000D03*
%TO.P,RN3,10,R7.2*%
%TO.N,/Headstage Interface/B5.E_{1}*%
X150800000Y-98500000D03*
%TO.P,RN3,11,R6.2*%
%TO.N,/Headstage Interface/B5.E_{2}*%
X150800000Y-99000000D03*
%TO.P,RN3,12,R5.2*%
%TO.N,/Headstage Interface/B5.E_{3}*%
X150800000Y-99500000D03*
%TO.P,RN3,13,R4.2*%
%TO.N,/Headstage Interface/B5.E_{4}*%
X150800000Y-100000000D03*
%TO.P,RN3,14,R3.2*%
%TO.N,/Headstage Interface/B5.E_{5}*%
X150800000Y-100500000D03*
%TO.P,RN3,15,R2.2*%
%TO.N,/Headstage Interface/B5.E_{6}*%
X150800000Y-101000000D03*
%TO.P,RN3,16,R1.2*%
%TO.N,/Headstage Interface/B5.E_{7}*%
X150800000Y-101500000D03*
%TD*%
D18*
%TO.P,U1,1,A0*%
%TO.N,GND*%
X121295000Y-128175000D03*
%TO.P,U1,2,A1*%
X122565000Y-128175000D03*
%TO.P,U1,3,A2*%
X123835000Y-128175000D03*
%TO.P,U1,4,GND*%
X125105000Y-128175000D03*
%TO.P,U1,5,SDA*%
%TO.N,/Test Signal Interface/SDA*%
X125105000Y-123225000D03*
%TO.P,U1,6,SCL*%
%TO.N,/Test Signal Interface/SCL*%
X123835000Y-123225000D03*
%TO.P,U1,7,WP*%
%TO.N,/Test Signal Interface/WP*%
X122565000Y-123225000D03*
%TO.P,U1,8,VCC*%
%TO.N,VCC*%
X121295000Y-123225000D03*
%TD*%
D13*
%TO.P,R2,1*%
%TO.N,VCC*%
X124090000Y-118800000D03*
%TO.P,R2,2*%
%TO.N,/Test Signal Interface/SDA*%
X125110000Y-118800000D03*
%TD*%
D11*
%TO.P,RN7,1,R1.1*%
%TO.N,/Headstage Interface/B11.E_{7}*%
X165200000Y-110550000D03*
%TO.P,RN7,2,R2.1*%
%TO.N,/Headstage Interface/B11.E_{6}*%
X165200000Y-110050000D03*
%TO.P,RN7,3,R3.1*%
%TO.N,/Headstage Interface/B11.E_{5}*%
X165200000Y-109550000D03*
%TO.P,RN7,4,R4.1*%
%TO.N,/Headstage Interface/B11.E_{4}*%
X165200000Y-109050000D03*
%TO.P,RN7,5,R5.1*%
%TO.N,/Headstage Interface/B11.E_{3}*%
X165200000Y-108550000D03*
%TO.P,RN7,6,R6.1*%
%TO.N,/Headstage Interface/B11.E_{2}*%
X165200000Y-108050000D03*
%TO.P,RN7,7,R7.1*%
%TO.N,/Headstage Interface/B11.E_{1}*%
X165200000Y-107550000D03*
%TO.P,RN7,8,R8.1*%
%TO.N,/Headstage Interface/B11.E_{0}*%
X165200000Y-107050000D03*
%TO.P,RN7,9,R8.2*%
%TO.N,/Headstage Interface/E15*%
X163400000Y-107050000D03*
%TO.P,RN7,10,R7.2*%
%TO.N,/Headstage Interface/E13*%
X163400000Y-107550000D03*
%TO.P,RN7,11,R6.2*%
%TO.N,/Headstage Interface/E11*%
X163400000Y-108050000D03*
%TO.P,RN7,12,R5.2*%
%TO.N,/Headstage Interface/E9*%
X163400000Y-108550000D03*
%TO.P,RN7,13,R4.2*%
%TO.N,/Headstage Interface/E7*%
X163400000Y-109050000D03*
%TO.P,RN7,14,R3.2*%
%TO.N,/Headstage Interface/E5*%
X163400000Y-109550000D03*
%TO.P,RN7,15,R2.2*%
%TO.N,/Headstage Interface/E3*%
X163400000Y-110050000D03*
%TO.P,RN7,16,R1.2*%
%TO.N,/Headstage Interface/E1*%
X163400000Y-110550000D03*
%TD*%
%TO.P,RN5,1,R1.1*%
%TO.N,/Headstage Interface/B10.E_{7}*%
X165200000Y-106050000D03*
%TO.P,RN5,2,R2.1*%
%TO.N,/Headstage Interface/B10.E_{6}*%
X165200000Y-105550000D03*
%TO.P,RN5,3,R3.1*%
%TO.N,/Headstage Interface/B10.E_{5}*%
X165200000Y-105050000D03*
%TO.P,RN5,4,R4.1*%
%TO.N,/Headstage Interface/B10.E_{4}*%
X165200000Y-104550000D03*
%TO.P,RN5,5,R5.1*%
%TO.N,/Headstage Interface/B10.E_{3}*%
X165200000Y-104050000D03*
%TO.P,RN5,6,R6.1*%
%TO.N,/Headstage Interface/B10.E_{2}*%
X165200000Y-103550000D03*
%TO.P,RN5,7,R7.1*%
%TO.N,/Headstage Interface/B10.E_{1}*%
X165200000Y-103050000D03*
%TO.P,RN5,8,R8.1*%
%TO.N,/Headstage Interface/B10.E_{0}*%
X165200000Y-102550000D03*
%TO.P,RN5,9,R8.2*%
%TO.N,/Headstage Interface/E31*%
X163400000Y-102550000D03*
%TO.P,RN5,10,R7.2*%
%TO.N,/Headstage Interface/E29*%
X163400000Y-103050000D03*
%TO.P,RN5,11,R6.2*%
%TO.N,/Headstage Interface/E27*%
X163400000Y-103550000D03*
%TO.P,RN5,12,R5.2*%
%TO.N,/Headstage Interface/E25*%
X163400000Y-104050000D03*
%TO.P,RN5,13,R4.2*%
%TO.N,/Headstage Interface/E23*%
X163400000Y-104550000D03*
%TO.P,RN5,14,R3.2*%
%TO.N,/Headstage Interface/E21*%
X163400000Y-105050000D03*
%TO.P,RN5,15,R2.2*%
%TO.N,/Headstage Interface/E19*%
X163400000Y-105550000D03*
%TO.P,RN5,16,R1.2*%
%TO.N,/Headstage Interface/E17*%
X163400000Y-106050000D03*
%TD*%
%TO.P,RN6,1,R1.1*%
%TO.N,/Headstage Interface/B8.E_{7}*%
X165200000Y-97000000D03*
%TO.P,RN6,2,R2.1*%
%TO.N,/Headstage Interface/B8.E_{6}*%
X165200000Y-96500000D03*
%TO.P,RN6,3,R3.1*%
%TO.N,/Headstage Interface/B8.E_{5}*%
X165200000Y-96000000D03*
%TO.P,RN6,4,R4.1*%
%TO.N,/Headstage Interface/B8.E_{4}*%
X165200000Y-95500000D03*
%TO.P,RN6,5,R5.1*%
%TO.N,/Headstage Interface/B8.E_{3}*%
X165200000Y-95000000D03*
%TO.P,RN6,6,R6.1*%
%TO.N,/Headstage Interface/B8.E_{2}*%
X165200000Y-94500000D03*
%TO.P,RN6,7,R7.1*%
%TO.N,/Headstage Interface/B8.E_{1}*%
X165200000Y-94000000D03*
%TO.P,RN6,8,R8.1*%
%TO.N,/Headstage Interface/B8.E_{0}*%
X165200000Y-93500000D03*
%TO.P,RN6,9,R8.2*%
%TO.N,/Headstage Interface/E63*%
X163400000Y-93500000D03*
%TO.P,RN6,10,R7.2*%
%TO.N,/Headstage Interface/E61*%
X163400000Y-94000000D03*
%TO.P,RN6,11,R6.2*%
%TO.N,/Headstage Interface/E59*%
X163400000Y-94500000D03*
%TO.P,RN6,12,R5.2*%
%TO.N,/Headstage Interface/E57*%
X163400000Y-95000000D03*
%TO.P,RN6,13,R4.2*%
%TO.N,/Headstage Interface/E55*%
X163400000Y-95500000D03*
%TO.P,RN6,14,R3.2*%
%TO.N,/Headstage Interface/E53*%
X163400000Y-96000000D03*
%TO.P,RN6,15,R2.2*%
%TO.N,/Headstage Interface/E51*%
X163400000Y-96500000D03*
%TO.P,RN6,16,R1.2*%
%TO.N,/Headstage Interface/E49*%
X163400000Y-97000000D03*
%TD*%
D19*
%TO.P,LD2,1,A*%
%TO.N,/Headstage Interface/A*%
X163000000Y-87000000D03*
D20*
%TO.P,LD2,2,NC*%
%TO.N,unconnected-(LD2-NC-Pad2)*%
X164000000Y-86000000D03*
%TO.P,LD2,3,C*%
%TO.N,/Headstage Interface/K_{1}*%
X163000000Y-85000000D03*
%TD*%
D11*
%TO.P,RN4,1,R1.1*%
%TO.N,/Headstage Interface/E48*%
X152600000Y-97000000D03*
%TO.P,RN4,2,R2.1*%
%TO.N,/Headstage Interface/E50*%
X152600000Y-96500000D03*
%TO.P,RN4,3,R3.1*%
%TO.N,/Headstage Interface/E52*%
X152600000Y-96000000D03*
%TO.P,RN4,4,R4.1*%
%TO.N,/Headstage Interface/E54*%
X152600000Y-95500000D03*
%TO.P,RN4,5,R5.1*%
%TO.N,/Headstage Interface/E56*%
X152600000Y-95000000D03*
%TO.P,RN4,6,R6.1*%
%TO.N,/Headstage Interface/E58*%
X152600000Y-94500000D03*
%TO.P,RN4,7,R7.1*%
%TO.N,/Headstage Interface/E60*%
X152600000Y-94000000D03*
%TO.P,RN4,8,R8.1*%
%TO.N,/Headstage Interface/E62*%
X152600000Y-93500000D03*
%TO.P,RN4,9,R8.2*%
%TO.N,/Headstage Interface/B4.E_{0}*%
X150800000Y-93500000D03*
%TO.P,RN4,10,R7.2*%
%TO.N,/Headstage Interface/B4.E_{1}*%
X150800000Y-94000000D03*
%TO.P,RN4,11,R6.2*%
%TO.N,/Headstage Interface/B4.E_{2}*%
X150800000Y-94500000D03*
%TO.P,RN4,12,R5.2*%
%TO.N,/Headstage Interface/B4.E_{3}*%
X150800000Y-95000000D03*
%TO.P,RN4,13,R4.2*%
%TO.N,/Headstage Interface/B4.E_{4}*%
X150800000Y-95500000D03*
%TO.P,RN4,14,R3.2*%
%TO.N,/Headstage Interface/B4.E_{5}*%
X150800000Y-96000000D03*
%TO.P,RN4,15,R2.2*%
%TO.N,/Headstage Interface/B4.E_{6}*%
X150800000Y-96500000D03*
%TO.P,RN4,16,R1.2*%
%TO.N,/Headstage Interface/B4.E_{7}*%
X150800000Y-97000000D03*
%TD*%
D21*
%TO.P,C1,1*%
%TO.N,VCC*%
X119700000Y-125220000D03*
%TO.P,C1,2*%
%TO.N,GND*%
X119700000Y-126180000D03*
%TD*%
D11*
%TO.P,RN1,1,R1.1*%
%TO.N,/Headstage Interface/E0*%
X152600000Y-110500000D03*
%TO.P,RN1,2,R2.1*%
%TO.N,/Headstage Interface/E2*%
X152600000Y-110000000D03*
%TO.P,RN1,3,R3.1*%
%TO.N,/Headstage Interface/E4*%
X152600000Y-109500000D03*
%TO.P,RN1,4,R4.1*%
%TO.N,/Headstage Interface/E6*%
X152600000Y-109000000D03*
%TO.P,RN1,5,R5.1*%
%TO.N,/Headstage Interface/E8*%
X152600000Y-108500000D03*
%TO.P,RN1,6,R6.1*%
%TO.N,/Headstage Interface/E10*%
X152600000Y-108000000D03*
%TO.P,RN1,7,R7.1*%
%TO.N,/Headstage Interface/E12*%
X152600000Y-107500000D03*
%TO.P,RN1,8,R8.1*%
%TO.N,/Headstage Interface/E14*%
X152600000Y-107000000D03*
%TO.P,RN1,9,R8.2*%
%TO.N,/Headstage Interface/B7.E_{0}*%
X150800000Y-107000000D03*
%TO.P,RN1,10,R7.2*%
%TO.N,/Headstage Interface/B7.E_{1}*%
X150800000Y-107500000D03*
%TO.P,RN1,11,R6.2*%
%TO.N,/Headstage Interface/B7.E_{2}*%
X150800000Y-108000000D03*
%TO.P,RN1,12,R5.2*%
%TO.N,/Headstage Interface/B7.E_{3}*%
X150800000Y-108500000D03*
%TO.P,RN1,13,R4.2*%
%TO.N,/Headstage Interface/B7.E_{4}*%
X150800000Y-109000000D03*
%TO.P,RN1,14,R3.2*%
%TO.N,/Headstage Interface/B7.E_{5}*%
X150800000Y-109500000D03*
%TO.P,RN1,15,R2.2*%
%TO.N,/Headstage Interface/B7.E_{6}*%
X150800000Y-110000000D03*
%TO.P,RN1,16,R1.2*%
%TO.N,/Headstage Interface/B7.E_{7}*%
X150800000Y-110500000D03*
%TD*%
D22*
%TO.N,GND*%
X157900000Y-95700000D03*
X169600000Y-114550000D03*
X202300000Y-124800000D03*
X145300000Y-96675000D03*
X172600000Y-96800000D03*
X113500000Y-81700000D03*
X175981000Y-114462000D03*
X128900000Y-99600000D03*
X151650000Y-111800000D03*
X143250000Y-114125000D03*
X113269807Y-112500000D03*
X153400000Y-91900000D03*
X133600000Y-117000000D03*
X147500000Y-89025000D03*
X187500000Y-92500000D03*
X135000000Y-80800000D03*
X166800000Y-111700000D03*
X173525000Y-84750000D03*
X181725000Y-99675000D03*
X148400000Y-81100000D03*
X113800000Y-133900000D03*
X172997000Y-124013000D03*
X138700000Y-106800000D03*
X187200000Y-99600000D03*
X176800000Y-92450000D03*
X179700000Y-132600000D03*
X203200000Y-107500000D03*
X138400000Y-92400000D03*
X186725000Y-84675000D03*
X149375000Y-122707000D03*
X175300000Y-106800000D03*
X187500000Y-106800000D03*
X136150000Y-99625000D03*
X128900000Y-133600000D03*
X140700000Y-101750000D03*
X113100000Y-94400000D03*
X177975000Y-101725000D03*
X158000000Y-106300000D03*
X159400000Y-113200000D03*
X203000000Y-80900000D03*
X159177000Y-121916000D03*
X153800000Y-111350000D03*
X155250000Y-94650000D03*
X167975000Y-89075000D03*
X129125000Y-85075000D03*
X193900000Y-134700000D03*
X148100000Y-112900000D03*
X187904000Y-114173000D03*
X138850000Y-84475000D03*
X184300000Y-116500000D03*
X202900000Y-91100000D03*
X129000000Y-107000000D03*
X129400000Y-114750000D03*
X129000000Y-92400000D03*
X155250000Y-109400000D03*
X184900000Y-80200000D03*
X174067445Y-80221652D03*
X161900000Y-92500000D03*
X141900000Y-133000000D03*
%TO.N,VCC*%
X120800000Y-121000000D03*
X123450000Y-118350000D03*
X119700000Y-124200000D03*
X119700000Y-123700000D03*
X122200000Y-119600000D03*
%TO.N,/Headstage Interface/B7.E_{7}*%
X150100000Y-110500000D03*
%TO.N,/Headstage Interface/B5.E_{0}*%
X149450000Y-98000000D03*
%TO.N,/Headstage Interface/B5.E_{2}*%
X149450000Y-99000000D03*
%TO.N,/Headstage Interface/B7.E_{3}*%
X150050000Y-108500000D03*
%TO.N,/Headstage Interface/B7.E_{1}*%
X150050000Y-107500000D03*
%TO.N,/Headstage Interface/B5.E_{5}*%
X150050000Y-100500000D03*
%TO.N,/Headstage Interface/B4.E_{7}*%
X150050000Y-97000000D03*
%TO.N,/Headstage Interface/B4.E_{5}*%
X150050000Y-96000000D03*
%TO.N,/Headstage Interface/B4.E_{2}*%
X149500000Y-94500000D03*
%TO.N,/Headstage Interface/B6.E_{2}*%
X149450000Y-103500000D03*
%TO.N,/Headstage Interface/E_{stim}*%
X154020000Y-114223000D03*
%TO.N,/Headstage Interface/B4.E_{3}*%
X150000000Y-95000000D03*
%TO.N,/Headstage Interface/B7.E_{5}*%
X150100000Y-109500000D03*
%TO.N,/Headstage Interface/B7.E_{0}*%
X149450000Y-107000000D03*
%TO.N,/Headstage Interface/B7.E_{4}*%
X149500000Y-109000000D03*
%TO.N,/Headstage Interface/B4.E_{6}*%
X149450000Y-96500000D03*
%TO.N,/Headstage Interface/B6.E_{5}*%
X150050000Y-105000000D03*
%TO.N,/Headstage Interface/B7.E_{6}*%
X149500000Y-110000000D03*
%TO.N,/Headstage Interface/B7.E_{2}*%
X149450000Y-108000000D03*
%TO.N,/Headstage Interface/B5.E_{7}*%
X150050000Y-101500000D03*
%TO.N,/Headstage Interface/B6.E_{7}*%
X150050000Y-106000000D03*
%TO.N,/Headstage Interface/B6.E_{0}*%
X149450000Y-102500000D03*
%TO.N,/Headstage Interface/B5.E_{1}*%
X150050000Y-98500000D03*
%TO.N,/Headstage Interface/B4.E_{4}*%
X149450000Y-95500000D03*
%TO.N,/Headstage Interface/B4.E_{0}*%
X149850000Y-93200000D03*
%TO.N,REF*%
X193464000Y-115836000D03*
X188054000Y-115836000D03*
X163885000Y-111510000D03*
%TO.N,/Headstage Interface/B6.E_{6}*%
X149450000Y-105500000D03*
%TO.N,/Headstage Interface/B6.E_{1}*%
X150050000Y-103000000D03*
%TO.N,/Headstage Interface/B5.E_{6}*%
X149450000Y-101000000D03*
%TO.N,/Headstage Interface/B6.E_{4}*%
X149450000Y-104500000D03*
%TO.N,/Headstage Interface/B5.E_{4}*%
X149450000Y-100000000D03*
%TO.N,/Headstage Interface/B5.E_{3}*%
X150050000Y-99500000D03*
%TO.N,/Headstage Interface/B4.E_{1}*%
X150150000Y-94000000D03*
%TO.N,/Headstage Interface/B6.E_{3}*%
X150050000Y-104000000D03*
%TO.N,/Headstage Interface/B8.E_{2}*%
X165850000Y-94500000D03*
%TO.N,/Test Signal Interface/SDA*%
X125863500Y-116536500D03*
X125100000Y-120900000D03*
X125100000Y-119700000D03*
%TO.N,/Headstage Interface/B10.E_{4}*%
X165950000Y-104550000D03*
%TO.N,/Headstage Interface/B8.E_{7}*%
X166500000Y-97000000D03*
%TO.N,/Test Signal Interface/SCL*%
X127700000Y-115400000D03*
%TO.N,/Headstage Interface/B8.E_{3}*%
X166450000Y-95000000D03*
%TO.N,/Headstage Interface/B11.E_{5}*%
X166550000Y-109550000D03*
%TO.N,/Headstage Interface/B8.E_{4}*%
X165900000Y-95500000D03*
%TO.N,/Headstage Interface/B9.E_{1}*%
X166500000Y-98500000D03*
%TO.N,/Headstage Interface/B8.E_{0}*%
X165850000Y-93500000D03*
%TO.N,/Headstage Interface/B9.E_{0}*%
X165900000Y-98000000D03*
%TO.N,/Headstage Interface/B9.E_{5}*%
X166500000Y-100500000D03*
%TO.N,/Headstage Interface/B10.E_{3}*%
X166550000Y-104050000D03*
%TO.N,/Headstage Interface/B11.E_{4}*%
X166050000Y-109050000D03*
%TO.N,/Headstage Interface/B10.E_{1}*%
X166550000Y-103050000D03*
%TO.N,/Headstage Interface/B10.E_{2}*%
X165950000Y-103550000D03*
%TO.N,/Headstage Interface/B10.E_{7}*%
X166550000Y-106050000D03*
%TO.N,/Headstage Interface/B9.E_{3}*%
X166500000Y-99500000D03*
%TO.N,/Headstage Interface/B9.E_{4}*%
X165900000Y-100000000D03*
%TO.N,/Headstage Interface/B11.E_{0}*%
X166000000Y-107050000D03*
%TO.N,/Headstage Interface/B11.E_{6}*%
X165900000Y-110050000D03*
%TO.N,/Headstage Interface/B9.E_{6}*%
X165900000Y-101000000D03*
%TO.N,/Headstage Interface/B8.E_{1}*%
X166450000Y-94000000D03*
%TO.N,/Headstage Interface/B11.E_{1}*%
X166600000Y-107550000D03*
%TO.N,/Headstage Interface/B8.E_{6}*%
X165900000Y-96500000D03*
%TO.N,/Headstage Interface/B11.E_{3}*%
X166600000Y-108550000D03*
%TO.N,/Headstage Interface/B9.E_{7}*%
X166500000Y-101500000D03*
%TO.N,/Headstage Interface/B9.E_{2}*%
X165900000Y-99000000D03*
%TO.N,/Headstage Interface/B8.E_{5}*%
X166500000Y-96000000D03*
%TO.N,/Headstage Interface/B11.E_{7}*%
X166550000Y-110550000D03*
%TO.N,/Headstage Interface/B10.E_{6}*%
X165950000Y-105550000D03*
%TO.N,/Headstage Interface/B10.E_{0}*%
X165950000Y-102550000D03*
%TO.N,/Headstage Interface/B10.E_{5}*%
X166550000Y-105050000D03*
%TO.N,/Headstage Interface/B11.E_{2}*%
X166000000Y-108050000D03*
%TO.N,/Test Signal Interface/WP*%
X118100000Y-116100000D03*
%TD*%
D23*
%TO.N,REF*%
X160350000Y-108400000D02*
X160700000Y-108750000D01*
X160700000Y-108750000D02*
X160700000Y-109850000D01*
X159540000Y-108400000D02*
X160350000Y-108400000D01*
X160700000Y-109850000D02*
X160925000Y-110075000D01*
D24*
%TO.N,VCC*%
X119700000Y-125220000D02*
X119700000Y-123700000D01*
D23*
X122600000Y-120000000D02*
X122200000Y-119600000D01*
X120900000Y-121100000D02*
X120800000Y-121000000D01*
X121390000Y-121100000D02*
X120900000Y-121100000D01*
D24*
X119700000Y-123700000D02*
X119700000Y-124400000D01*
X119700000Y-124400000D02*
X119700000Y-124200000D01*
D23*
X123900000Y-118800000D02*
X123450000Y-118350000D01*
D24*
X120175000Y-123225000D02*
X119700000Y-123700000D01*
X121295000Y-123225000D02*
X120175000Y-123225000D01*
D23*
%TO.N,/Headstage Interface/B7.E_{7}*%
X150800000Y-110500000D02*
X150100000Y-110500000D01*
%TO.N,/Headstage Interface/B5.E_{0}*%
X150750000Y-98000000D02*
X149450000Y-98000000D01*
%TO.N,/Headstage Interface/B5.E_{2}*%
X150750000Y-99000000D02*
X149450000Y-99000000D01*
%TO.N,/Headstage Interface/B7.E_{3}*%
X150750000Y-108500000D02*
X150050000Y-108500000D01*
%TO.N,/Headstage Interface/B7.E_{1}*%
X150750000Y-107500000D02*
X150050000Y-107500000D01*
%TO.N,/Headstage Interface/B5.E_{5}*%
X150750000Y-100500000D02*
X150050000Y-100500000D01*
%TO.N,/Headstage Interface/B4.E_{7}*%
X150750000Y-97000000D02*
X150050000Y-97000000D01*
%TO.N,/Headstage Interface/K_{0}*%
X156460000Y-95600000D02*
X156100000Y-95600000D01*
D24*
X154900000Y-88600000D02*
X153000000Y-86700000D01*
D23*
X155800000Y-94100000D02*
X155800000Y-95300000D01*
X156100000Y-95600000D02*
X155800000Y-95300000D01*
D24*
X155800000Y-94100000D02*
X154900000Y-93200000D01*
X154900000Y-93200000D02*
X154900000Y-88600000D01*
D23*
%TO.N,/Headstage Interface/B4.E_{5}*%
X150750000Y-96000000D02*
X150050000Y-96000000D01*
%TO.N,/Headstage Interface/B4.E_{2}*%
X150800000Y-94500000D02*
X149500000Y-94500000D01*
%TO.N,/Headstage Interface/B6.E_{2}*%
X150750000Y-103500000D02*
X149450000Y-103500000D01*
D24*
%TO.N,/Headstage Interface/E_{stim}*%
X154020000Y-112400000D02*
X154850000Y-112400000D01*
X154850000Y-112400000D02*
X156500000Y-110750000D01*
D23*
X156500000Y-108840000D02*
X156460000Y-108800000D01*
X156500000Y-109400000D02*
X156500000Y-108840000D01*
X154020000Y-112400000D02*
X154020000Y-114223000D01*
X156500000Y-109400000D02*
X156500000Y-109500000D01*
D24*
X156500000Y-110750000D02*
X156500000Y-109500000D01*
D23*
%TO.N,/Headstage Interface/B4.E_{3}*%
X150800000Y-95000000D02*
X150000000Y-95000000D01*
%TO.N,/Headstage Interface/B7.E_{5}*%
X150800000Y-109500000D02*
X150100000Y-109500000D01*
%TO.N,/Headstage Interface/B7.E_{0}*%
X150750000Y-107000000D02*
X149450000Y-107000000D01*
%TO.N,/Headstage Interface/B7.E_{4}*%
X150800000Y-109000000D02*
X149500000Y-109000000D01*
%TO.N,/Headstage Interface/B4.E_{6}*%
X150750000Y-96500000D02*
X149450000Y-96500000D01*
%TO.N,/Headstage Interface/B6.E_{5}*%
X150750000Y-105000000D02*
X150050000Y-105000000D01*
%TO.N,/Headstage Interface/B7.E_{6}*%
X150800000Y-110000000D02*
X149500000Y-110000000D01*
D24*
%TO.N,/Headstage Interface/K_{1}*%
X156460000Y-93600000D02*
X156460000Y-91340000D01*
D23*
X156460000Y-95200000D02*
X156460000Y-93600000D01*
D24*
X156460000Y-91340000D02*
X162800000Y-85000000D01*
D23*
%TO.N,/Headstage Interface/B7.E_{2}*%
X150750000Y-108000000D02*
X149450000Y-108000000D01*
%TO.N,/Headstage Interface/B5.E_{7}*%
X150750000Y-101500000D02*
X150050000Y-101500000D01*
%TO.N,/Headstage Interface/B6.E_{7}*%
X150750000Y-106000000D02*
X150050000Y-106000000D01*
%TO.N,/Headstage Interface/B6.E_{0}*%
X150750000Y-102500000D02*
X149450000Y-102500000D01*
%TO.N,/Headstage Interface/B5.E_{1}*%
X150750000Y-98500000D02*
X150050000Y-98500000D01*
%TO.N,/Headstage Interface/B4.E_{4}*%
X150750000Y-95500000D02*
X149450000Y-95500000D01*
%TO.N,/Headstage Interface/B4.E_{0}*%
X149850000Y-93200000D02*
X150150000Y-93500000D01*
X150150000Y-93500000D02*
X150850000Y-93500000D01*
D24*
%TO.N,REF*%
X160925000Y-110075000D02*
X162360000Y-111510000D01*
X193464000Y-115836000D02*
X188054000Y-115836000D01*
X162360000Y-111510000D02*
X163885000Y-111510000D01*
X194063000Y-115836000D02*
X193464000Y-115836000D01*
X195496000Y-117269000D02*
X194063000Y-115836000D01*
X195496000Y-121115000D02*
X195496000Y-117269000D01*
X195496000Y-121115000D02*
X195496000Y-123655000D01*
D23*
%TO.N,/Headstage Interface/A*%
X159540000Y-95200000D02*
X159540000Y-94700000D01*
D24*
X159540000Y-94700000D02*
X159540000Y-90560000D01*
X159540000Y-90560000D02*
X163000000Y-87100000D01*
D23*
%TO.N,/Headstage Interface/B6.E_{6}*%
X150750000Y-105500000D02*
X149450000Y-105500000D01*
%TO.N,/Headstage Interface/B6.E_{1}*%
X150750000Y-103000000D02*
X150050000Y-103000000D01*
%TO.N,/Headstage Interface/B5.E_{6}*%
X150750000Y-101000000D02*
X149450000Y-101000000D01*
%TO.N,/Headstage Interface/B6.E_{4}*%
X150750000Y-104500000D02*
X149450000Y-104500000D01*
%TO.N,/Headstage Interface/B5.E_{4}*%
X150750000Y-100000000D02*
X149450000Y-100000000D01*
%TO.N,/Headstage Interface/B5.E_{3}*%
X150750000Y-99500000D02*
X150050000Y-99500000D01*
%TO.N,/Headstage Interface/B4.E_{1}*%
X150850000Y-94000000D02*
X150150000Y-94000000D01*
%TO.N,/Headstage Interface/B6.E_{3}*%
X150750000Y-104000000D02*
X150050000Y-104000000D01*
%TO.N,/Headstage Interface/B8.E_{2}*%
X165150000Y-94500000D02*
X165850000Y-94500000D01*
%TO.N,/Test Signal Interface/SDA*%
X125863500Y-116536500D02*
X125863500Y-118436500D01*
X125863500Y-118436500D02*
X125500000Y-118800000D01*
X125110000Y-119390000D02*
X125110000Y-118800000D01*
X125100000Y-119400000D02*
X125110000Y-119390000D01*
X125105000Y-123225000D02*
X125105000Y-120905000D01*
X125100000Y-119700000D02*
X125100000Y-119400000D01*
X125500000Y-118800000D02*
X125110000Y-118800000D01*
X125105000Y-120905000D02*
X125100000Y-120900000D01*
%TO.N,/Headstage Interface/B10.E_{4}*%
X165250000Y-104550000D02*
X165950000Y-104550000D01*
%TO.N,/Headstage Interface/B8.E_{7}*%
X165200000Y-97000000D02*
X166500000Y-97000000D01*
%TO.N,/Test Signal Interface/SCL*%
X123910000Y-120200000D02*
X123710000Y-120000000D01*
X123835000Y-123225000D02*
X123835000Y-120125000D01*
X127700000Y-115400000D02*
X127700000Y-118200000D01*
X125700000Y-120200000D02*
X123910000Y-120200000D01*
X127700000Y-118200000D02*
X125700000Y-120200000D01*
%TO.N,/Headstage Interface/B8.E_{3}*%
X165150000Y-95000000D02*
X166450000Y-95000000D01*
%TO.N,/Headstage Interface/B11.E_{5}*%
X165250000Y-109550000D02*
X166550000Y-109550000D01*
%TO.N,/Headstage Interface/B8.E_{4}*%
X165200000Y-95500000D02*
X165900000Y-95500000D01*
%TO.N,/Headstage Interface/B9.E_{1}*%
X165200000Y-98500000D02*
X166500000Y-98500000D01*
%TO.N,/Headstage Interface/B8.E_{0}*%
X165150000Y-93500000D02*
X165850000Y-93500000D01*
%TO.N,/Headstage Interface/B9.E_{0}*%
X165200000Y-98000000D02*
X165900000Y-98000000D01*
%TO.N,/Headstage Interface/B9.E_{5}*%
X165200000Y-100500000D02*
X166500000Y-100500000D01*
%TO.N,/Headstage Interface/B10.E_{3}*%
X165250000Y-104050000D02*
X166550000Y-104050000D01*
%TO.N,/Headstage Interface/B11.E_{4}*%
X165250000Y-109050000D02*
X166050000Y-109050000D01*
%TO.N,/Headstage Interface/B10.E_{1}*%
X165250000Y-103050000D02*
X166550000Y-103050000D01*
%TO.N,/Headstage Interface/B10.E_{2}*%
X165250000Y-103550000D02*
X165950000Y-103550000D01*
%TO.N,/Headstage Interface/B10.E_{7}*%
X165250000Y-106050000D02*
X166550000Y-106050000D01*
%TO.N,/Headstage Interface/B9.E_{3}*%
X165200000Y-99500000D02*
X166500000Y-99500000D01*
%TO.N,/Headstage Interface/B9.E_{4}*%
X165200000Y-100000000D02*
X165900000Y-100000000D01*
%TO.N,/Headstage Interface/B11.E_{0}*%
X165300000Y-107050000D02*
X166000000Y-107050000D01*
%TO.N,/Headstage Interface/B11.E_{6}*%
X165200000Y-110050000D02*
X165900000Y-110050000D01*
%TO.N,/Headstage Interface/B9.E_{6}*%
X165200000Y-101000000D02*
X165900000Y-101000000D01*
%TO.N,/Headstage Interface/B8.E_{1}*%
X165150000Y-94000000D02*
X166450000Y-94000000D01*
%TO.N,/Headstage Interface/B11.E_{1}*%
X165300000Y-107550000D02*
X166600000Y-107550000D01*
%TO.N,/Headstage Interface/B8.E_{6}*%
X165200000Y-96500000D02*
X165900000Y-96500000D01*
%TO.N,/Headstage Interface/B11.E_{3}*%
X165300000Y-108550000D02*
X166600000Y-108550000D01*
%TO.N,/Headstage Interface/B9.E_{7}*%
X165200000Y-101500000D02*
X166500000Y-101500000D01*
%TO.N,/Headstage Interface/B9.E_{2}*%
X165200000Y-99000000D02*
X165900000Y-99000000D01*
%TO.N,/Headstage Interface/B8.E_{5}*%
X165200000Y-96000000D02*
X166500000Y-96000000D01*
%TO.N,/Headstage Interface/B11.E_{7}*%
X166550000Y-110550000D02*
X165200000Y-110550000D01*
%TO.N,/Headstage Interface/B10.E_{6}*%
X165250000Y-105550000D02*
X165950000Y-105550000D01*
%TO.N,/Headstage Interface/B10.E_{0}*%
X165250000Y-102550000D02*
X165950000Y-102550000D01*
%TO.N,/Headstage Interface/B10.E_{5}*%
X165250000Y-105050000D02*
X166550000Y-105050000D01*
%TO.N,/Headstage Interface/B11.E_{2}*%
X165300000Y-108050000D02*
X166000000Y-108050000D01*
%TO.N,/Test Signal Interface/WP*%
X121510000Y-120200000D02*
X122410000Y-121100000D01*
X118100000Y-118000000D02*
X120300000Y-120200000D01*
X118100000Y-116100000D02*
X118100000Y-118000000D01*
X122565000Y-123225000D02*
X122565000Y-121255000D01*
X120300000Y-120200000D02*
X121510000Y-120200000D01*
%TO.N,/Headstage Interface/E0*%
X155200000Y-108400000D02*
X156460000Y-108400000D01*
X152600000Y-110500000D02*
X153100000Y-110500000D01*
X153100000Y-110500000D02*
X155200000Y-108400000D01*
%TO.N,/Headstage Interface/E8*%
X154800000Y-106800000D02*
X156460000Y-106800000D01*
X153100000Y-108500000D02*
X154800000Y-106800000D01*
X152600000Y-108500000D02*
X153100000Y-108500000D01*
%TO.N,/Headstage Interface/E12*%
X154600000Y-106000000D02*
X156460000Y-106000000D01*
X152600000Y-107500000D02*
X153100000Y-107500000D01*
X153100000Y-107500000D02*
X154600000Y-106000000D01*
%TO.N,/Headstage Interface/E4*%
X153100000Y-109500000D02*
X155000000Y-107600000D01*
X152600000Y-109500000D02*
X153100000Y-109500000D01*
X155000000Y-107600000D02*
X156460000Y-107600000D01*
%TO.N,/Headstage Interface/E14*%
X153100000Y-107000000D02*
X154500000Y-105600000D01*
X152600000Y-107000000D02*
X153100000Y-107000000D01*
X154500000Y-105600000D02*
X156460000Y-105600000D01*
%TO.N,/Headstage Interface/E6*%
X154900000Y-107200000D02*
X156460000Y-107200000D01*
X152600000Y-109000000D02*
X153100000Y-109000000D01*
X153100000Y-109000000D02*
X154900000Y-107200000D01*
%TO.N,/Headstage Interface/E2*%
X152600000Y-110000000D02*
X153100000Y-110000000D01*
X153100000Y-110000000D02*
X155100000Y-108000000D01*
X155100000Y-108000000D02*
X156460000Y-108000000D01*
%TO.N,/Headstage Interface/E10*%
X154700000Y-106400000D02*
X156460000Y-106400000D01*
X153100000Y-108000000D02*
X154700000Y-106400000D01*
X152600000Y-108000000D02*
X153100000Y-108000000D01*
%TO.N,/Headstage Interface/E46*%
X153400000Y-98000000D02*
X154600000Y-99200000D01*
X152600000Y-98000000D02*
X153400000Y-98000000D01*
X154600000Y-99200000D02*
X156460000Y-99200000D01*
%TO.N,/Headstage Interface/E42*%
X154400000Y-100000000D02*
X156460000Y-100000000D01*
X152600000Y-99000000D02*
X153400000Y-99000000D01*
X153400000Y-99000000D02*
X154400000Y-100000000D01*
%TO.N,/Headstage Interface/E36*%
X152600000Y-100500000D02*
X153400000Y-100500000D01*
X153400000Y-100500000D02*
X154100000Y-101200000D01*
X154100000Y-101200000D02*
X156460000Y-101200000D01*
%TO.N,/Headstage Interface/E48*%
X153000000Y-97000000D02*
X154800000Y-98800000D01*
X152600000Y-97000000D02*
X153000000Y-97000000D01*
X154800000Y-98800000D02*
X156460000Y-98800000D01*
%TO.N,/Headstage Interface/E52*%
X152600000Y-96000000D02*
X153150000Y-96000000D01*
X153150000Y-96000000D02*
X155150000Y-98000000D01*
X155150000Y-98000000D02*
X156460000Y-98000000D01*
%TO.N,/Headstage Interface/E58*%
X156460000Y-96800000D02*
X155600000Y-96800000D01*
X153300000Y-94500000D02*
X152600000Y-94500000D01*
X155600000Y-96800000D02*
X153300000Y-94500000D01*
%TO.N,/Headstage Interface/E26*%
X152600000Y-103500000D02*
X153200000Y-103500000D01*
X153500000Y-103200000D02*
X156460000Y-103200000D01*
X153200000Y-103500000D02*
X153500000Y-103200000D01*
%TO.N,/Headstage Interface/E56*%
X153300000Y-95000000D02*
X155500000Y-97200000D01*
X152600000Y-95000000D02*
X153300000Y-95000000D01*
X155500000Y-97200000D02*
X156460000Y-97200000D01*
%TO.N,/Headstage Interface/E50*%
X155000000Y-98400000D02*
X156460000Y-98400000D01*
X152600000Y-96500000D02*
X153100000Y-96500000D01*
X153100000Y-96500000D02*
X155000000Y-98400000D01*
%TO.N,/Headstage Interface/E20*%
X152600000Y-105000000D02*
X153200000Y-105000000D01*
X153800000Y-104400000D02*
X156460000Y-104400000D01*
X153200000Y-105000000D02*
X153800000Y-104400000D01*
%TO.N,/Headstage Interface/E32*%
X152600000Y-101500000D02*
X153400000Y-101500000D01*
X153400000Y-101500000D02*
X153900000Y-102000000D01*
X153900000Y-102000000D02*
X156460000Y-102000000D01*
%TO.N,/Headstage Interface/E16*%
X152600000Y-106000000D02*
X153200000Y-106000000D01*
X154000000Y-105200000D02*
X156460000Y-105200000D01*
X153200000Y-106000000D02*
X154000000Y-105200000D01*
%TO.N,/Headstage Interface/E30*%
X153200000Y-102500000D02*
X152600000Y-102500000D01*
X156460000Y-102400000D02*
X153300000Y-102400000D01*
X153300000Y-102400000D02*
X153200000Y-102500000D01*
%TO.N,/Headstage Interface/E44*%
X152600000Y-98500000D02*
X153400000Y-98500000D01*
X153400000Y-98500000D02*
X154500000Y-99600000D01*
X154500000Y-99600000D02*
X156460000Y-99600000D01*
%TO.N,/Headstage Interface/E54*%
X152600000Y-95500000D02*
X153200000Y-95500000D01*
X153200000Y-95500000D02*
X155300000Y-97600000D01*
X155300000Y-97600000D02*
X156460000Y-97600000D01*
%TO.N,/Headstage Interface/E62*%
X153300000Y-93500000D02*
X152600000Y-93500000D01*
X155800000Y-96000000D02*
X153300000Y-93500000D01*
X156460000Y-96000000D02*
X155800000Y-96000000D01*
%TO.N,/Headstage Interface/E18*%
X152600000Y-105500000D02*
X153200000Y-105500000D01*
X153900000Y-104800000D02*
X156460000Y-104800000D01*
X153200000Y-105500000D02*
X153900000Y-104800000D01*
%TO.N,/Headstage Interface/E28*%
X153400000Y-102800000D02*
X156460000Y-102800000D01*
X153200000Y-103000000D02*
X153400000Y-102800000D01*
X152600000Y-103000000D02*
X153200000Y-103000000D01*
%TO.N,/Headstage Interface/E34*%
X152600000Y-101000000D02*
X153400000Y-101000000D01*
X154000000Y-101600000D02*
X156460000Y-101600000D01*
X153400000Y-101000000D02*
X154000000Y-101600000D01*
%TO.N,/Headstage Interface/E22*%
X153200000Y-104500000D02*
X153700000Y-104000000D01*
X152600000Y-104500000D02*
X153200000Y-104500000D01*
X153700000Y-104000000D02*
X156460000Y-104000000D01*
%TO.N,/Headstage Interface/E38*%
X154200000Y-100800000D02*
X156460000Y-100800000D01*
X152600000Y-100000000D02*
X153400000Y-100000000D01*
X153400000Y-100000000D02*
X154200000Y-100800000D01*
%TO.N,/Headstage Interface/E40*%
X152600000Y-99500000D02*
X153400000Y-99500000D01*
X154300000Y-100400000D02*
X156460000Y-100400000D01*
X153400000Y-99500000D02*
X154300000Y-100400000D01*
%TO.N,/Headstage Interface/E60*%
X153300000Y-94000000D02*
X152600000Y-94000000D01*
X156460000Y-96400000D02*
X155700000Y-96400000D01*
X155700000Y-96400000D02*
X153300000Y-94000000D01*
%TO.N,/Headstage Interface/E24*%
X152600000Y-104000000D02*
X153200000Y-104000000D01*
X153200000Y-104000000D02*
X153600000Y-103600000D01*
X153600000Y-103600000D02*
X156460000Y-103600000D01*
%TO.N,/Headstage Interface/E19*%
X159540000Y-104400000D02*
X161400000Y-104400000D01*
X162550000Y-105550000D02*
X163400000Y-105550000D01*
X161400000Y-104400000D02*
X162550000Y-105550000D01*
%TO.N,/Headstage Interface/E25*%
X159540000Y-103200000D02*
X161750000Y-103200000D01*
X162600000Y-104050000D02*
X163400000Y-104050000D01*
X161750000Y-103200000D02*
X162600000Y-104050000D01*
%TO.N,/Headstage Interface/E5*%
X160650000Y-107200000D02*
X163000000Y-109550000D01*
X163000000Y-109550000D02*
X163400000Y-109550000D01*
X159540000Y-107200000D02*
X160650000Y-107200000D01*
%TO.N,/Headstage Interface/E45*%
X161050000Y-99200000D02*
X161750000Y-98500000D01*
X161750000Y-98500000D02*
X163400000Y-98500000D01*
X159540000Y-99200000D02*
X161050000Y-99200000D01*
%TO.N,/Headstage Interface/E29*%
X162050000Y-102400000D02*
X162700000Y-103050000D01*
X162700000Y-103050000D02*
X163400000Y-103050000D01*
X159540000Y-102400000D02*
X162050000Y-102400000D01*
%TO.N,/Headstage Interface/E41*%
X161200000Y-100000000D02*
X159540000Y-100000000D01*
X161700000Y-99500000D02*
X161200000Y-100000000D01*
X163400000Y-99500000D02*
X161700000Y-99500000D01*
%TO.N,/Headstage Interface/E9*%
X159540000Y-106400000D02*
X160850000Y-106400000D01*
X163000000Y-108550000D02*
X163400000Y-108550000D01*
X160850000Y-106400000D02*
X163000000Y-108550000D01*
%TO.N,/Headstage Interface/E57*%
X160450000Y-96800000D02*
X162250000Y-95000000D01*
X162250000Y-95000000D02*
X163400000Y-95000000D01*
X159540000Y-96800000D02*
X160450000Y-96800000D01*
%TO.N,/Headstage Interface/E59*%
X160350000Y-96400000D02*
X162250000Y-94500000D01*
X159540000Y-96400000D02*
X160350000Y-96400000D01*
X162250000Y-94500000D02*
X163400000Y-94500000D01*
%TO.N,/Headstage Interface/E39*%
X161300000Y-100400000D02*
X161700000Y-100000000D01*
X159540000Y-100400000D02*
X161300000Y-100400000D01*
X161700000Y-100000000D02*
X163400000Y-100000000D01*
%TO.N,/Headstage Interface/E55*%
X162200000Y-95500000D02*
X163400000Y-95500000D01*
X160500000Y-97200000D02*
X162200000Y-95500000D01*
X159540000Y-97200000D02*
X160500000Y-97200000D01*
%TO.N,/Headstage Interface/E21*%
X161500000Y-104000000D02*
X162550000Y-105050000D01*
X159540000Y-104000000D02*
X161500000Y-104000000D01*
X162550000Y-105050000D02*
X163400000Y-105050000D01*
%TO.N,/Headstage Interface/E15*%
X161100000Y-105200000D02*
X162950000Y-107050000D01*
X159540000Y-105200000D02*
X161100000Y-105200000D01*
X162950000Y-107050000D02*
X163400000Y-107050000D01*
%TO.N,/Headstage Interface/E47*%
X159540000Y-98800000D02*
X160950000Y-98800000D01*
X161750000Y-98000000D02*
X163400000Y-98000000D01*
X160950000Y-98800000D02*
X161750000Y-98000000D01*
%TO.N,/Headstage Interface/E7*%
X159540000Y-106800000D02*
X160750000Y-106800000D01*
X160750000Y-106800000D02*
X163000000Y-109050000D01*
X163000000Y-109050000D02*
X163400000Y-109050000D01*
%TO.N,/Headstage Interface/E35*%
X159540000Y-101200000D02*
X161500000Y-101200000D01*
X161700000Y-101000000D02*
X161500000Y-101200000D01*
X163400000Y-101000000D02*
X161700000Y-101000000D01*
%TO.N,/Headstage Interface/E49*%
X160800000Y-98400000D02*
X162200000Y-97000000D01*
X162200000Y-97000000D02*
X163400000Y-97000000D01*
X159540000Y-98400000D02*
X160800000Y-98400000D01*
%TO.N,/Headstage Interface/E11*%
X159540000Y-106000000D02*
X160900000Y-106000000D01*
X160900000Y-106000000D02*
X162950000Y-108050000D01*
X162950000Y-108050000D02*
X163400000Y-108050000D01*
%TO.N,/Headstage Interface/E17*%
X161250000Y-104800000D02*
X162500000Y-106050000D01*
X162500000Y-106050000D02*
X163400000Y-106050000D01*
X159540000Y-104800000D02*
X161250000Y-104800000D01*
%TO.N,/Headstage Interface/E3*%
X163000000Y-110050000D02*
X163400000Y-110050000D01*
X160550000Y-107600000D02*
X163000000Y-110050000D01*
X159540000Y-107600000D02*
X160550000Y-107600000D01*
%TO.N,/Headstage Interface/E33*%
X161700000Y-101500000D02*
X161600000Y-101600000D01*
X163400000Y-101500000D02*
X161700000Y-101500000D01*
X159540000Y-101600000D02*
X161600000Y-101600000D01*
%TO.N,/Headstage Interface/E61*%
X159540000Y-96000000D02*
X160250000Y-96000000D01*
X162250000Y-94000000D02*
X163400000Y-94000000D01*
X160250000Y-96000000D02*
X162250000Y-94000000D01*
%TO.N,/Headstage Interface/E37*%
X161700000Y-100500000D02*
X161400000Y-100800000D01*
X163400000Y-100500000D02*
X161700000Y-100500000D01*
X161400000Y-100800000D02*
X159540000Y-100800000D01*
%TO.N,/Headstage Interface/E31*%
X162150000Y-102000000D02*
X162700000Y-102550000D01*
X159540000Y-102000000D02*
X162150000Y-102000000D01*
X162700000Y-102550000D02*
X163400000Y-102550000D01*
%TO.N,/Headstage Interface/E27*%
X162650000Y-103550000D02*
X163400000Y-103550000D01*
X161900000Y-102800000D02*
X162650000Y-103550000D01*
X159540000Y-102800000D02*
X161900000Y-102800000D01*
%TO.N,/Headstage Interface/E43*%
X159540000Y-99600000D02*
X161150000Y-99600000D01*
X161750000Y-99000000D02*
X163400000Y-99000000D01*
X161150000Y-99600000D02*
X161750000Y-99000000D01*
%TO.N,/Headstage Interface/E23*%
X159540000Y-103600000D02*
X161650000Y-103600000D01*
X162600000Y-104550000D02*
X163400000Y-104550000D01*
X161650000Y-103600000D02*
X162600000Y-104550000D01*
%TO.N,/Headstage Interface/E63*%
X159540000Y-95600000D02*
X160150000Y-95600000D01*
X160150000Y-95600000D02*
X162250000Y-93500000D01*
X162250000Y-93500000D02*
X163400000Y-93500000D01*
%TO.N,/Headstage Interface/E53*%
X162200000Y-96000000D02*
X163400000Y-96000000D01*
X160600000Y-97600000D02*
X162200000Y-96000000D01*
X159540000Y-97600000D02*
X160600000Y-97600000D01*
%TO.N,/Headstage Interface/E51*%
X160650000Y-98000000D02*
X162150000Y-96500000D01*
X159540000Y-98000000D02*
X160650000Y-98000000D01*
X162150000Y-96500000D02*
X163400000Y-96500000D01*
%TO.N,/Headstage Interface/E1*%
X163050000Y-110550000D02*
X163400000Y-110550000D01*
X160500000Y-108000000D02*
X163050000Y-110550000D01*
X159540000Y-108000000D02*
X160500000Y-108000000D01*
%TO.N,/Headstage Interface/E13*%
X159540000Y-105600000D02*
X161000000Y-105600000D01*
X161000000Y-105600000D02*
X162950000Y-107550000D01*
X162950000Y-107550000D02*
X163400000Y-107550000D01*
%TD*%
%TA.AperFunction,Conductor*%
%TO.N,GND*%
G36*
X205002065Y-77150615D02*
G01*
X205314905Y-77168184D01*
X205323141Y-77169113D01*
X205629975Y-77221246D01*
X205638058Y-77223091D01*
X205937147Y-77309256D01*
X205944960Y-77311990D01*
X206156227Y-77399500D01*
X206232511Y-77431098D01*
X206239987Y-77434698D01*
X206512398Y-77585254D01*
X206519412Y-77589662D01*
X206580735Y-77633173D01*
X206773239Y-77769762D01*
X206779726Y-77774934D01*
X207011807Y-77982334D01*
X207017665Y-77988192D01*
X207172563Y-78161523D01*
X207225064Y-78220272D01*
X207230237Y-78226760D01*
X207410333Y-78480581D01*
X207414749Y-78487608D01*
X207565301Y-78760012D01*
X207568901Y-78767488D01*
X207688005Y-79055029D01*
X207690746Y-79062862D01*
X207776907Y-79361937D01*
X207778753Y-79370027D01*
X207830885Y-79676852D01*
X207831815Y-79685099D01*
X207849384Y-79997934D01*
X207849500Y-80002083D01*
X207849500Y-133997916D01*
X207849384Y-134002065D01*
X207831815Y-134314900D01*
X207830885Y-134323147D01*
X207778753Y-134629972D01*
X207776907Y-134638062D01*
X207690746Y-134937137D01*
X207688005Y-134944970D01*
X207568901Y-135232511D01*
X207565301Y-135239987D01*
X207414749Y-135512391D01*
X207410333Y-135519418D01*
X207230237Y-135773239D01*
X207225064Y-135779727D01*
X207017670Y-136011802D01*
X207011802Y-136017670D01*
X206779727Y-136225064D01*
X206773239Y-136230237D01*
X206519418Y-136410333D01*
X206512391Y-136414749D01*
X206239987Y-136565301D01*
X206232511Y-136568901D01*
X205944970Y-136688005D01*
X205937137Y-136690746D01*
X205638062Y-136776907D01*
X205629972Y-136778753D01*
X205323147Y-136830885D01*
X205314900Y-136831815D01*
X205002066Y-136849384D01*
X204997917Y-136849500D01*
X111002083Y-136849500D01*
X110997934Y-136849384D01*
X110685099Y-136831815D01*
X110676852Y-136830885D01*
X110370027Y-136778753D01*
X110361937Y-136776907D01*
X110062862Y-136690746D01*
X110055029Y-136688005D01*
X109767488Y-136568901D01*
X109760012Y-136565301D01*
X109487608Y-136414749D01*
X109480581Y-136410333D01*
X109474946Y-136406335D01*
X109353670Y-136320285D01*
X109226760Y-136230237D01*
X109220272Y-136225064D01*
X109107414Y-136124208D01*
X108988192Y-136017665D01*
X108982334Y-136011807D01*
X108774934Y-135779726D01*
X108769762Y-135773239D01*
X108589666Y-135519418D01*
X108585254Y-135512398D01*
X108434698Y-135239987D01*
X108431098Y-135232511D01*
X108333434Y-134996730D01*
X108311990Y-134944960D01*
X108309256Y-134937147D01*
X108223091Y-134638058D01*
X108221246Y-134629972D01*
X108169113Y-134323141D01*
X108168184Y-134314900D01*
X108150616Y-134002065D01*
X108150500Y-133997916D01*
X108150500Y-133853959D01*
X150399500Y-133853959D01*
X150399500Y-134146041D01*
X150401649Y-134165111D01*
X150432202Y-134436289D01*
X150497195Y-134721040D01*
X150497201Y-134721058D01*
X150593661Y-134996730D01*
X150707208Y-135232511D01*
X150720395Y-135259893D01*
X150875792Y-135507206D01*
X151057902Y-135735565D01*
X151264435Y-135942098D01*
X151492794Y-136124208D01*
X151740107Y-136279605D01*
X151921222Y-136366826D01*
X152003269Y-136406338D01*
X152251083Y-136493050D01*
X152278955Y-136502803D01*
X152563714Y-136567798D01*
X152853959Y-136600500D01*
X152853963Y-136600500D01*
X153146037Y-136600500D01*
X153146041Y-136600500D01*
X153436286Y-136567798D01*
X153721045Y-136502803D01*
X153866922Y-136451759D01*
X153996730Y-136406338D01*
X153996734Y-136406335D01*
X153996737Y-136406335D01*
X154259893Y-136279605D01*
X154507206Y-136124208D01*
X154735565Y-135942098D01*
X154942098Y-135735565D01*
X155124208Y-135507206D01*
X155279605Y-135259893D01*
X155406335Y-134996737D01*
X155406335Y-134996734D01*
X155406338Y-134996730D01*
X155469392Y-134816529D01*
X155502803Y-134721045D01*
X155567798Y-134436286D01*
X155600500Y-134146041D01*
X155600500Y-133853959D01*
X155599871Y-133848374D01*
X160300000Y-133848374D01*
X160300000Y-134151625D01*
X160333954Y-134452982D01*
X160333954Y-134452983D01*
X160401432Y-134748625D01*
X160401437Y-134748641D01*
X160501593Y-135034869D01*
X160633173Y-135308097D01*
X160794516Y-135564874D01*
X160983593Y-135801969D01*
X161020101Y-135838477D01*
X161939339Y-134919238D01*
X162080761Y-135060660D01*
X161161523Y-135979899D01*
X161198030Y-136016406D01*
X161435125Y-136205483D01*
X161691902Y-136366826D01*
X161965130Y-136498406D01*
X162251358Y-136598562D01*
X162251374Y-136598567D01*
X162547016Y-136666045D01*
X162848375Y-136700000D01*
X163151625Y-136700000D01*
X163452982Y-136666045D01*
X163452983Y-136666045D01*
X163748625Y-136598567D01*
X163748641Y-136598562D01*
X164034869Y-136498406D01*
X164308097Y-136366826D01*
X164564874Y-136205483D01*
X164801969Y-136016406D01*
X164838477Y-135979899D01*
X163919238Y-135060660D01*
X164060660Y-134919238D01*
X164979899Y-135838477D01*
X165016406Y-135801969D01*
X165205483Y-135564874D01*
X165366826Y-135308097D01*
X165498406Y-135034869D01*
X165598562Y-134748641D01*
X165598567Y-134748625D01*
X165666045Y-134452983D01*
X165666045Y-134452982D01*
X165700000Y-134151625D01*
X165700000Y-133848374D01*
X165666045Y-133547017D01*
X165666045Y-133547016D01*
X165598567Y-133251374D01*
X165598562Y-133251358D01*
X165498406Y-132965130D01*
X165366826Y-132691902D01*
X165205483Y-132435125D01*
X165016406Y-132198030D01*
X164979899Y-132161523D01*
X164060660Y-133080761D01*
X163919238Y-132939339D01*
X164838477Y-132020101D01*
X164801969Y-131983593D01*
X164564874Y-131794516D01*
X164308097Y-131633173D01*
X164034869Y-131501593D01*
X163748641Y-131401437D01*
X163748625Y-131401432D01*
X163452983Y-131333954D01*
X163151625Y-131300000D01*
X162848375Y-131300000D01*
X162547017Y-131333954D01*
X162547016Y-131333954D01*
X162251374Y-131401432D01*
X162251358Y-131401437D01*
X161965130Y-131501593D01*
X161691902Y-131633173D01*
X161435125Y-131794516D01*
X161198030Y-131983593D01*
X161161523Y-132020101D01*
X162080761Y-132939339D01*
X161939339Y-133080761D01*
X161020101Y-132161523D01*
X160983593Y-132198030D01*
X160794516Y-132435125D01*
X160633173Y-132691902D01*
X160501593Y-132965130D01*
X160401437Y-133251358D01*
X160401432Y-133251374D01*
X160333954Y-133547016D01*
X160333954Y-133547017D01*
X160300000Y-133848374D01*
X155599871Y-133848374D01*
X155567798Y-133563714D01*
X155502803Y-133278955D01*
X155435972Y-133087961D01*
X155406338Y-133003269D01*
X155279605Y-132740108D01*
X155279605Y-132740107D01*
X155124208Y-132492794D01*
X154942098Y-132264435D01*
X154735565Y-132057902D01*
X154735563Y-132057900D01*
X154722278Y-132047305D01*
X154722277Y-132047305D01*
X154507206Y-131875792D01*
X154259893Y-131720395D01*
X154259891Y-131720394D01*
X153996730Y-131593661D01*
X153721058Y-131497201D01*
X153721040Y-131497195D01*
X153436289Y-131432202D01*
X153311895Y-131418186D01*
X153146041Y-131399500D01*
X152853959Y-131399500D01*
X152708836Y-131415851D01*
X152563710Y-131432202D01*
X152278959Y-131497195D01*
X152278941Y-131497201D01*
X152003269Y-131593661D01*
X151740108Y-131720394D01*
X151492793Y-131875792D01*
X151264431Y-132057905D01*
X151057905Y-132264431D01*
X150875792Y-132492793D01*
X150720394Y-132740108D01*
X150593661Y-133003269D01*
X150497201Y-133278941D01*
X150497195Y-133278959D01*
X150432202Y-133563710D01*
X150432202Y-133563714D01*
X150399500Y-133853959D01*
X108150500Y-133853959D01*
X108150500Y-129054205D01*
X120695001Y-129054205D01*
X120697850Y-129084602D01*
X120697852Y-129084611D01*
X120742652Y-129212643D01*
X120823207Y-129321791D01*
X120823208Y-129321792D01*
X120932356Y-129402347D01*
X120932355Y-129402347D01*
X121060385Y-129447146D01*
X121060393Y-129447148D01*
X121090803Y-129449999D01*
X121195000Y-129449999D01*
X121395000Y-129449999D01*
X121499194Y-129449999D01*
X121499205Y-129449998D01*
X121529602Y-129447149D01*
X121529611Y-129447147D01*
X121657643Y-129402347D01*
X121766791Y-129321792D01*
X121766792Y-129321791D01*
X121847345Y-129212646D01*
X121860152Y-129176047D01*
X121897892Y-129133816D01*
X121954440Y-129130639D01*
X121996671Y-129168379D01*
X121999848Y-129176047D01*
X122012654Y-129212646D01*
X122093207Y-129321791D01*
X122093208Y-129321792D01*
X122202356Y-129402347D01*
X122202355Y-129402347D01*
X122330385Y-129447146D01*
X122330393Y-129447148D01*
X122360803Y-129449999D01*
X122465000Y-129449999D01*
X122665000Y-129449999D01*
X122769194Y-129449999D01*
X122769205Y-129449998D01*
X122799602Y-129447149D01*
X122799611Y-129447147D01*
X122927643Y-129402347D01*
X123036791Y-129321792D01*
X123036792Y-129321791D01*
X123117345Y-129212646D01*
X123130152Y-129176047D01*
X123167892Y-129133816D01*
X123224440Y-129130639D01*
X123266671Y-129168379D01*
X123269848Y-129176047D01*
X123282654Y-129212646D01*
X123363207Y-129321791D01*
X123363208Y-129321792D01*
X123472356Y-129402347D01*
X123472355Y-129402347D01*
X123600385Y-129447146D01*
X123600393Y-129447148D01*
X123630803Y-129449999D01*
X123735000Y-129449999D01*
X123935000Y-129449999D01*
X124039194Y-129449999D01*
X124039205Y-129449998D01*
X124069602Y-129447149D01*
X124069611Y-129447147D01*
X124197643Y-129402347D01*
X124306791Y-129321792D01*
X124306792Y-129321791D01*
X124387345Y-129212646D01*
X124400152Y-129176047D01*
X124437892Y-129133816D01*
X124494440Y-129130639D01*
X124536671Y-129168379D01*
X124539848Y-129176047D01*
X124552654Y-129212646D01*
X124633207Y-129321791D01*
X124633208Y-129321792D01*
X124742356Y-129402347D01*
X124742355Y-129402347D01*
X124870385Y-129447146D01*
X124870393Y-129447148D01*
X124900803Y-129449999D01*
X125005000Y-129449999D01*
X125205000Y-129449999D01*
X125309194Y-129449999D01*
X125309205Y-129449998D01*
X125339602Y-129447149D01*
X125339611Y-129447147D01*
X125467643Y-129402347D01*
X125576791Y-129321792D01*
X125576792Y-129321791D01*
X125657347Y-129212643D01*
X125702146Y-129084614D01*
X125702148Y-129084606D01*
X125704999Y-129054198D01*
X125705000Y-129054197D01*
X125705000Y-128275000D01*
X125205000Y-128275000D01*
X125205000Y-129449999D01*
X125005000Y-129449999D01*
X125005000Y-128275000D01*
X124480498Y-128275000D01*
X124470001Y-128279348D01*
X124469996Y-128279345D01*
X124469991Y-128279348D01*
X124459497Y-128275000D01*
X123935000Y-128275000D01*
X123935000Y-129449999D01*
X123735000Y-129449999D01*
X123735000Y-128275000D01*
X123210498Y-128275000D01*
X123200001Y-128279348D01*
X123199996Y-128279345D01*
X123199991Y-128279348D01*
X123189497Y-128275000D01*
X122665000Y-128275000D01*
X122665000Y-129449999D01*
X122465000Y-129449999D01*
X122465000Y-128275000D01*
X121940498Y-128275000D01*
X121930001Y-128279348D01*
X121929996Y-128279345D01*
X121929991Y-128279348D01*
X121919497Y-128275000D01*
X121395000Y-128275000D01*
X121395000Y-129449999D01*
X121195000Y-129449999D01*
X121195000Y-128275000D01*
X120695001Y-128275000D01*
X120695001Y-129054205D01*
X108150500Y-129054205D01*
X108150500Y-127295801D01*
X120695000Y-127295801D01*
X120695000Y-128075000D01*
X121195000Y-128075000D01*
X121395000Y-128075000D01*
X121919494Y-128075000D01*
X121929990Y-128070651D01*
X121929994Y-128070652D01*
X121929998Y-128070651D01*
X121940498Y-128075000D01*
X122465000Y-128075000D01*
X122665000Y-128075000D01*
X123189494Y-128075000D01*
X123199990Y-128070651D01*
X123199994Y-128070652D01*
X123199998Y-128070651D01*
X123210498Y-128075000D01*
X123735000Y-128075000D01*
X123935000Y-128075000D01*
X124459494Y-128075000D01*
X124469990Y-128070651D01*
X124469994Y-128070652D01*
X124469998Y-128070651D01*
X124480498Y-128075000D01*
X125005000Y-128075000D01*
X125205000Y-128075000D01*
X125704999Y-128075000D01*
X125704999Y-127295806D01*
X125704998Y-127295794D01*
X125702149Y-127265397D01*
X125702147Y-127265388D01*
X125657347Y-127137356D01*
X125576792Y-127028208D01*
X125576791Y-127028207D01*
X125467643Y-126947652D01*
X125467644Y-126947652D01*
X125339614Y-126902853D01*
X125339606Y-126902851D01*
X125309198Y-126900000D01*
X125205000Y-126900000D01*
X125205000Y-128075000D01*
X125005000Y-128075000D01*
X125005000Y-126900000D01*
X124900806Y-126900000D01*
X124900793Y-126900001D01*
X124870397Y-126902850D01*
X124870388Y-126902852D01*
X124742356Y-126947652D01*
X124633208Y-127028207D01*
X124633207Y-127028208D01*
X124552653Y-127137355D01*
X124539847Y-127173953D01*
X124502107Y-127216184D01*
X124445559Y-127219359D01*
X124403328Y-127181619D01*
X124400153Y-127173953D01*
X124387346Y-127137355D01*
X124306792Y-127028208D01*
X124306791Y-127028207D01*
X124197643Y-126947652D01*
X124197644Y-126947652D01*
X124069614Y-126902853D01*
X124069606Y-126902851D01*
X124039198Y-126900000D01*
X123935000Y-126900000D01*
X123935000Y-128075000D01*
X123735000Y-128075000D01*
X123735000Y-126900000D01*
X123630806Y-126900000D01*
X123630793Y-126900001D01*
X123600397Y-126902850D01*
X123600388Y-126902852D01*
X123472356Y-126947652D01*
X123363208Y-127028207D01*
X123363207Y-127028208D01*
X123282653Y-127137355D01*
X123269847Y-127173953D01*
X123232107Y-127216184D01*
X123175559Y-127219359D01*
X123133328Y-127181619D01*
X123130153Y-127173953D01*
X123117346Y-127137355D01*
X123036792Y-127028208D01*
X123036791Y-127028207D01*
X122927643Y-126947652D01*
X122927644Y-126947652D01*
X122799614Y-126902853D01*
X122799606Y-126902851D01*
X122769198Y-126900000D01*
X122665000Y-126900000D01*
X122665000Y-128075000D01*
X122465000Y-128075000D01*
X122465000Y-126900000D01*
X122360806Y-126900000D01*
X122360793Y-126900001D01*
X122330397Y-126902850D01*
X122330388Y-126902852D01*
X122202356Y-126947652D01*
X122093208Y-127028207D01*
X122093207Y-127028208D01*
X122012653Y-127137355D01*
X121999847Y-127173953D01*
X121962107Y-127216184D01*
X121905559Y-127219359D01*
X121863328Y-127181619D01*
X121860153Y-127173953D01*
X121847346Y-127137355D01*
X121766792Y-127028208D01*
X121766791Y-127028207D01*
X121657643Y-126947652D01*
X121657644Y-126947652D01*
X121529614Y-126902853D01*
X121529606Y-126902851D01*
X121499198Y-126900000D01*
X121395000Y-126900000D01*
X121395000Y-128075000D01*
X121195000Y-128075000D01*
X121195000Y-126900000D01*
X121090806Y-126900000D01*
X121090793Y-126900001D01*
X121060397Y-126902850D01*
X121060388Y-126902852D01*
X120932356Y-126947652D01*
X120823208Y-127028207D01*
X120823207Y-127028208D01*
X120742652Y-127137356D01*
X120697853Y-127265385D01*
X120697851Y-127265393D01*
X120695000Y-127295801D01*
X108150500Y-127295801D01*
X108150500Y-126373007D01*
X119090001Y-126373007D01*
X119092786Y-126402721D01*
X119092787Y-126402728D01*
X119136594Y-126527919D01*
X119215358Y-126634640D01*
X119215359Y-126634641D01*
X119322080Y-126713405D01*
X119447268Y-126757211D01*
X119447273Y-126757212D01*
X119477002Y-126759999D01*
X119600000Y-126759999D01*
X119800000Y-126759999D01*
X119922993Y-126759999D01*
X119923007Y-126759998D01*
X119952721Y-126757213D01*
X119952728Y-126757212D01*
X120077919Y-126713405D01*
X120184640Y-126634641D01*
X120184641Y-126634640D01*
X120263405Y-126527919D01*
X120307211Y-126402731D01*
X120307212Y-126402726D01*
X120309999Y-126372997D01*
X120310000Y-126372996D01*
X120310000Y-126280000D01*
X119800000Y-126280000D01*
X119800000Y-126759999D01*
X119600000Y-126759999D01*
X119600000Y-126280000D01*
X119090001Y-126280000D01*
X119090001Y-126373007D01*
X108150500Y-126373007D01*
X108150500Y-125987002D01*
X119090000Y-125987002D01*
X119090000Y-126080000D01*
X120309999Y-126080000D01*
X120309999Y-125987007D01*
X120309998Y-125986992D01*
X120307213Y-125957278D01*
X120307212Y-125957271D01*
X120263405Y-125832080D01*
X120184641Y-125725359D01*
X120184640Y-125725358D01*
X120139641Y-125692147D01*
X120110410Y-125643636D01*
X120124044Y-125588664D01*
X120131252Y-125580287D01*
X120153224Y-125558316D01*
X120203972Y-125449487D01*
X120210500Y-125399901D01*
X120210499Y-125040100D01*
X120203972Y-124990513D01*
X120153224Y-124881684D01*
X120122174Y-124850634D01*
X120100500Y-124798308D01*
X120100500Y-123896545D01*
X120122174Y-123844219D01*
X120319219Y-123647174D01*
X120371545Y-123625500D01*
X120720500Y-123625500D01*
X120772826Y-123647174D01*
X120794500Y-123699500D01*
X120794500Y-124083264D01*
X120804427Y-124151393D01*
X120804427Y-124151394D01*
X120855801Y-124256482D01*
X120855802Y-124256483D01*
X120938517Y-124339198D01*
X121043607Y-124390573D01*
X121111740Y-124400500D01*
X121111746Y-124400500D01*
X121478254Y-124400500D01*
X121478260Y-124400500D01*
X121546393Y-124390573D01*
X121651483Y-124339198D01*
X121734198Y-124256483D01*
X121785573Y-124151393D01*
X121795500Y-124083260D01*
X121795500Y-122366740D01*
X121785573Y-122298607D01*
X121734198Y-122193517D01*
X121651483Y-122110802D01*
X121651482Y-122110801D01*
X121546394Y-122059427D01*
X121478264Y-122049500D01*
X121478260Y-122049500D01*
X121111740Y-122049500D01*
X121111735Y-122049500D01*
X121043606Y-122059427D01*
X121043605Y-122059427D01*
X120938517Y-122110801D01*
X120855801Y-122193517D01*
X120804427Y-122298605D01*
X120804427Y-122298606D01*
X120794500Y-122366735D01*
X120794500Y-122750500D01*
X120772826Y-122802826D01*
X120720500Y-122824500D01*
X120122271Y-122824500D01*
X120020417Y-122851791D01*
X120020408Y-122851795D01*
X119929086Y-122904520D01*
X119379517Y-123454090D01*
X119326792Y-123545412D01*
X119326793Y-123545413D01*
X119299500Y-123647273D01*
X119299500Y-124798308D01*
X119277826Y-124850634D01*
X119246776Y-124881683D01*
X119196027Y-124990514D01*
X119189500Y-125040100D01*
X119189500Y-125399899D01*
X119196027Y-125449485D01*
X119196028Y-125449487D01*
X119246776Y-125558316D01*
X119268741Y-125580281D01*
X119290415Y-125632607D01*
X119268741Y-125684933D01*
X119260359Y-125692147D01*
X119215357Y-125725360D01*
X119136594Y-125832080D01*
X119092788Y-125957268D01*
X119092787Y-125957273D01*
X119090000Y-125987002D01*
X108150500Y-125987002D01*
X108150500Y-116047270D01*
X117699500Y-116047270D01*
X117699500Y-116152729D01*
X117726791Y-116254582D01*
X117726795Y-116254591D01*
X117779520Y-116345913D01*
X117802826Y-116369219D01*
X117824500Y-116421545D01*
X117824500Y-118054800D01*
X117866443Y-118156058D01*
X120066443Y-120356058D01*
X120143942Y-120433557D01*
X120245200Y-120475500D01*
X120647961Y-120475500D01*
X120700287Y-120497174D01*
X120721961Y-120549500D01*
X120700287Y-120601826D01*
X120667114Y-120620978D01*
X120645417Y-120626791D01*
X120645408Y-120626795D01*
X120554086Y-120679520D01*
X120479520Y-120754086D01*
X120426795Y-120845408D01*
X120426791Y-120845417D01*
X120399500Y-120947270D01*
X120399500Y-121052729D01*
X120426791Y-121154582D01*
X120426795Y-121154591D01*
X120444867Y-121185893D01*
X120479520Y-121245913D01*
X120554087Y-121320480D01*
X120645413Y-121373207D01*
X120747270Y-121400499D01*
X120747271Y-121400500D01*
X120747273Y-121400500D01*
X120852726Y-121400500D01*
X120852727Y-121400500D01*
X120869149Y-121396099D01*
X120925300Y-121403489D01*
X120955369Y-121436302D01*
X120967150Y-121461565D01*
X120975935Y-121480404D01*
X121059596Y-121564065D01*
X121166827Y-121614068D01*
X121215684Y-121620500D01*
X121215686Y-121620500D01*
X121564314Y-121620500D01*
X121564316Y-121620500D01*
X121613173Y-121614068D01*
X121720404Y-121564065D01*
X121804065Y-121480404D01*
X121832933Y-121418495D01*
X121874690Y-121380232D01*
X121931273Y-121382702D01*
X121967067Y-121418496D01*
X121995933Y-121480402D01*
X121995935Y-121480404D01*
X122079596Y-121564065D01*
X122186827Y-121614068D01*
X122225158Y-121619114D01*
X122274208Y-121647432D01*
X122289500Y-121692481D01*
X122289500Y-122025018D01*
X122267826Y-122077344D01*
X122248001Y-122091498D01*
X122208520Y-122110799D01*
X122208517Y-122110801D01*
X122125801Y-122193517D01*
X122074427Y-122298605D01*
X122074427Y-122298606D01*
X122064500Y-122366735D01*
X122064500Y-124083264D01*
X122074427Y-124151393D01*
X122074427Y-124151394D01*
X122125801Y-124256482D01*
X122125802Y-124256483D01*
X122208517Y-124339198D01*
X122313607Y-124390573D01*
X122381740Y-124400500D01*
X122381746Y-124400500D01*
X122748254Y-124400500D01*
X122748260Y-124400500D01*
X122816393Y-124390573D01*
X122921483Y-124339198D01*
X123004198Y-124256483D01*
X123055573Y-124151393D01*
X123065500Y-124083260D01*
X123065500Y-122366740D01*
X123055573Y-122298607D01*
X123004198Y-122193517D01*
X122921483Y-122110802D01*
X122921482Y-122110801D01*
X122921479Y-122110799D01*
X122881999Y-122091498D01*
X122844509Y-122049045D01*
X122840500Y-122025018D01*
X122840500Y-121461565D01*
X122847433Y-121430291D01*
X122861325Y-121400500D01*
X122874068Y-121373173D01*
X122880500Y-121324316D01*
X122880500Y-120875684D01*
X122874068Y-120826827D01*
X122824065Y-120719596D01*
X122751295Y-120646826D01*
X122729621Y-120594500D01*
X122751295Y-120542174D01*
X122803621Y-120520500D01*
X122864314Y-120520500D01*
X122864316Y-120520500D01*
X122913173Y-120514068D01*
X123020404Y-120464065D01*
X123104065Y-120380404D01*
X123132933Y-120318495D01*
X123174690Y-120280232D01*
X123231273Y-120282702D01*
X123267066Y-120318495D01*
X123274709Y-120334886D01*
X123295933Y-120380402D01*
X123295935Y-120380404D01*
X123379596Y-120464065D01*
X123486827Y-120514068D01*
X123495156Y-120515164D01*
X123544205Y-120543479D01*
X123559500Y-120588531D01*
X123559500Y-122025018D01*
X123537826Y-122077344D01*
X123518001Y-122091498D01*
X123478520Y-122110799D01*
X123478517Y-122110801D01*
X123395801Y-122193517D01*
X123344427Y-122298605D01*
X123344427Y-122298606D01*
X123334500Y-122366735D01*
X123334500Y-124083264D01*
X123344427Y-124151393D01*
X123344427Y-124151394D01*
X123395801Y-124256482D01*
X123395802Y-124256483D01*
X123478517Y-124339198D01*
X123583607Y-124390573D01*
X123651740Y-124400500D01*
X123651746Y-124400500D01*
X124018254Y-124400500D01*
X124018260Y-124400500D01*
X124086393Y-124390573D01*
X124191483Y-124339198D01*
X124274198Y-124256483D01*
X124325573Y-124151393D01*
X124335500Y-124083260D01*
X124335500Y-122366740D01*
X124325573Y-122298607D01*
X124274198Y-122193517D01*
X124191483Y-122110802D01*
X124191482Y-122110801D01*
X124191479Y-122110799D01*
X124151999Y-122091498D01*
X124114509Y-122049045D01*
X124110500Y-122025018D01*
X124110500Y-120549500D01*
X124132174Y-120497174D01*
X124184500Y-120475500D01*
X124779455Y-120475500D01*
X124831781Y-120497174D01*
X124853455Y-120549500D01*
X124831781Y-120601826D01*
X124779520Y-120654086D01*
X124726795Y-120745408D01*
X124726791Y-120745417D01*
X124699500Y-120847270D01*
X124699500Y-120952729D01*
X124726791Y-121054582D01*
X124726795Y-121054591D01*
X124779520Y-121145913D01*
X124807826Y-121174219D01*
X124829500Y-121226545D01*
X124829500Y-122025018D01*
X124807826Y-122077344D01*
X124788001Y-122091498D01*
X124748520Y-122110799D01*
X124748517Y-122110801D01*
X124665801Y-122193517D01*
X124614427Y-122298605D01*
X124614427Y-122298606D01*
X124604500Y-122366735D01*
X124604500Y-124083264D01*
X124614427Y-124151393D01*
X124614427Y-124151394D01*
X124665801Y-124256482D01*
X124665802Y-124256483D01*
X124748517Y-124339198D01*
X124853607Y-124390573D01*
X124921740Y-124400500D01*
X124921746Y-124400500D01*
X125288254Y-124400500D01*
X125288260Y-124400500D01*
X125356393Y-124390573D01*
X125461483Y-124339198D01*
X125544198Y-124256483D01*
X125571912Y-124199792D01*
X188571001Y-124199792D01*
X188573908Y-124224868D01*
X188573910Y-124224874D01*
X188619213Y-124327478D01*
X188698521Y-124406786D01*
X188801124Y-124452089D01*
X188801123Y-124452089D01*
X188826210Y-124454999D01*
X190346000Y-124454999D01*
X190546000Y-124454999D01*
X192065792Y-124454999D01*
X192090868Y-124452091D01*
X192090874Y-124452089D01*
X192193478Y-124406786D01*
X192272786Y-124327478D01*
X192318089Y-124224875D01*
X192321000Y-124199789D01*
X192321000Y-123755000D01*
X190546000Y-123755000D01*
X190546000Y-124454999D01*
X190346000Y-124454999D01*
X190346000Y-123755000D01*
X188571001Y-123755000D01*
X188571001Y-124199792D01*
X125571912Y-124199792D01*
X125595573Y-124151393D01*
X125605500Y-124083260D01*
X125605500Y-123110210D01*
X188571000Y-123110210D01*
X188571000Y-123555000D01*
X190346000Y-123555000D01*
X190546000Y-123555000D01*
X192320999Y-123555000D01*
X192320999Y-123110207D01*
X192318091Y-123085131D01*
X192318089Y-123085125D01*
X192272786Y-122982521D01*
X192193478Y-122903213D01*
X192090875Y-122857910D01*
X192090876Y-122857910D01*
X192065789Y-122855000D01*
X190546000Y-122855000D01*
X190546000Y-123555000D01*
X190346000Y-123555000D01*
X190346000Y-122855000D01*
X188826207Y-122855000D01*
X188801131Y-122857908D01*
X188801125Y-122857910D01*
X188698521Y-122903213D01*
X188619213Y-122982521D01*
X188573910Y-123085124D01*
X188571000Y-123110210D01*
X125605500Y-123110210D01*
X125605500Y-122366740D01*
X125595573Y-122298607D01*
X125544198Y-122193517D01*
X125461483Y-122110802D01*
X125461482Y-122110801D01*
X125461479Y-122110799D01*
X125421999Y-122091498D01*
X125384509Y-122049045D01*
X125380500Y-122025018D01*
X125380500Y-121659792D01*
X188571001Y-121659792D01*
X188573908Y-121684868D01*
X188573910Y-121684874D01*
X188619213Y-121787478D01*
X188698521Y-121866786D01*
X188801124Y-121912089D01*
X188801123Y-121912089D01*
X188826210Y-121914999D01*
X190346000Y-121914999D01*
X190546000Y-121914999D01*
X192065792Y-121914999D01*
X192090868Y-121912091D01*
X192090874Y-121912089D01*
X192193478Y-121866786D01*
X192272786Y-121787478D01*
X192318089Y-121684875D01*
X192321000Y-121659789D01*
X192321000Y-121215000D01*
X190546000Y-121215000D01*
X190546000Y-121914999D01*
X190346000Y-121914999D01*
X190346000Y-121215000D01*
X188571001Y-121215000D01*
X188571001Y-121659792D01*
X125380500Y-121659792D01*
X125380500Y-121216545D01*
X125399716Y-121166798D01*
X125400910Y-121165482D01*
X125420480Y-121145913D01*
X125473207Y-121054587D01*
X125500499Y-120952729D01*
X125500500Y-120952729D01*
X125500500Y-120847271D01*
X125500499Y-120847270D01*
X125500002Y-120845417D01*
X125473207Y-120745413D01*
X125420480Y-120654087D01*
X125368219Y-120601826D01*
X125355123Y-120570210D01*
X188571000Y-120570210D01*
X188571000Y-121015000D01*
X190346000Y-121015000D01*
X190546000Y-121015000D01*
X192320999Y-121015000D01*
X192320999Y-120570207D01*
X192318091Y-120545131D01*
X192318089Y-120545125D01*
X192272786Y-120442521D01*
X192193478Y-120363213D01*
X192090875Y-120317910D01*
X192090876Y-120317910D01*
X192065789Y-120315000D01*
X190546000Y-120315000D01*
X190546000Y-121015000D01*
X190346000Y-121015000D01*
X190346000Y-120315000D01*
X188826207Y-120315000D01*
X188801131Y-120317908D01*
X188801125Y-120317910D01*
X188698521Y-120363213D01*
X188619213Y-120442521D01*
X188573910Y-120545124D01*
X188571000Y-120570210D01*
X125355123Y-120570210D01*
X125346545Y-120549500D01*
X125368219Y-120497174D01*
X125420545Y-120475500D01*
X125754798Y-120475500D01*
X125754800Y-120475500D01*
X125856058Y-120433557D01*
X125933557Y-120356058D01*
X125933556Y-120356058D01*
X125968517Y-120321097D01*
X125968516Y-120321097D01*
X127933557Y-118356059D01*
X127945841Y-118326400D01*
X127957907Y-118297273D01*
X127975500Y-118254800D01*
X127975500Y-118004871D01*
X189719500Y-118004871D01*
X189719500Y-118125128D01*
X189742959Y-118243069D01*
X189742961Y-118243076D01*
X189788981Y-118354179D01*
X189855791Y-118454167D01*
X189855794Y-118454171D01*
X189940829Y-118539206D01*
X190040820Y-118606018D01*
X190151924Y-118652039D01*
X190269871Y-118675500D01*
X190269872Y-118675500D01*
X190390128Y-118675500D01*
X190390129Y-118675500D01*
X190508076Y-118652039D01*
X190619180Y-118606018D01*
X190719171Y-118539206D01*
X190804206Y-118454171D01*
X190871018Y-118354180D01*
X190917039Y-118243076D01*
X190940500Y-118125129D01*
X190940500Y-118004871D01*
X190917039Y-117886924D01*
X190871018Y-117775820D01*
X190804206Y-117675829D01*
X190719171Y-117590794D01*
X190619180Y-117523982D01*
X190619181Y-117523982D01*
X190619179Y-117523981D01*
X190508076Y-117477961D01*
X190508069Y-117477959D01*
X190419215Y-117460285D01*
X190390129Y-117454500D01*
X190269871Y-117454500D01*
X190246538Y-117459141D01*
X190151930Y-117477959D01*
X190151923Y-117477961D01*
X190040820Y-117523981D01*
X189940832Y-117590791D01*
X189855791Y-117675832D01*
X189788981Y-117775820D01*
X189742961Y-117886923D01*
X189742959Y-117886930D01*
X189719500Y-118004871D01*
X127975500Y-118004871D01*
X127975500Y-115783270D01*
X187653500Y-115783270D01*
X187653500Y-115888729D01*
X187680791Y-115990582D01*
X187680792Y-115990585D01*
X187680793Y-115990587D01*
X187733520Y-116081913D01*
X187808087Y-116156480D01*
X187899413Y-116209207D01*
X188001270Y-116236499D01*
X188001271Y-116236500D01*
X188001273Y-116236500D01*
X188106727Y-116236500D01*
X193411273Y-116236500D01*
X193516727Y-116236500D01*
X193866455Y-116236500D01*
X193918781Y-116258174D01*
X195073826Y-117413219D01*
X195095500Y-117465545D01*
X195095500Y-120340500D01*
X195073826Y-120392826D01*
X195021500Y-120414500D01*
X193901252Y-120414500D01*
X193872010Y-120420316D01*
X193842767Y-120426133D01*
X193776449Y-120470447D01*
X193776447Y-120470449D01*
X193732133Y-120536767D01*
X193720500Y-120595253D01*
X193720500Y-121634746D01*
X193732133Y-121693232D01*
X193761608Y-121737343D01*
X193776448Y-121759552D01*
X193818242Y-121787478D01*
X193842767Y-121803866D01*
X193842768Y-121803866D01*
X193842769Y-121803867D01*
X193901252Y-121815500D01*
X195021500Y-121815500D01*
X195073826Y-121837174D01*
X195095500Y-121889500D01*
X195095500Y-122880500D01*
X195073826Y-122932826D01*
X195021500Y-122954500D01*
X193901252Y-122954500D01*
X193872010Y-122960316D01*
X193842767Y-122966133D01*
X193776449Y-123010447D01*
X193776447Y-123010449D01*
X193732133Y-123076767D01*
X193720500Y-123135253D01*
X193720500Y-124174746D01*
X193732133Y-124233232D01*
X193761608Y-124277343D01*
X193776448Y-124299552D01*
X193818242Y-124327478D01*
X193842767Y-124343866D01*
X193842768Y-124343866D01*
X193842769Y-124343867D01*
X193901252Y-124355500D01*
X193901254Y-124355500D01*
X197090746Y-124355500D01*
X197090748Y-124355500D01*
X197149231Y-124343867D01*
X197215552Y-124299552D01*
X197259867Y-124233231D01*
X197271500Y-124174748D01*
X197271500Y-123135252D01*
X197259867Y-123076769D01*
X197215552Y-123010448D01*
X197173757Y-122982521D01*
X197149232Y-122966133D01*
X197149233Y-122966133D01*
X197119989Y-122960316D01*
X197090748Y-122954500D01*
X197090746Y-122954500D01*
X195970500Y-122954500D01*
X195918174Y-122932826D01*
X195896500Y-122880500D01*
X195896500Y-121889500D01*
X195918174Y-121837174D01*
X195970500Y-121815500D01*
X197090746Y-121815500D01*
X197090748Y-121815500D01*
X197149231Y-121803867D01*
X197215552Y-121759552D01*
X197259867Y-121693231D01*
X197271500Y-121634748D01*
X197271500Y-120595252D01*
X197259867Y-120536769D01*
X197215552Y-120470448D01*
X197193343Y-120455608D01*
X197149232Y-120426133D01*
X197149233Y-120426133D01*
X197119989Y-120420316D01*
X197090748Y-120414500D01*
X197090746Y-120414500D01*
X195970500Y-120414500D01*
X195918174Y-120392826D01*
X195896500Y-120340500D01*
X195896500Y-117216273D01*
X195869207Y-117114413D01*
X195869207Y-117114412D01*
X195816482Y-117023090D01*
X195816481Y-117023089D01*
X195816480Y-117023087D01*
X194308913Y-115515520D01*
X194308910Y-115515518D01*
X194308909Y-115515517D01*
X194217592Y-115462795D01*
X194217588Y-115462793D01*
X194217581Y-115462791D01*
X194115727Y-115435500D01*
X193516727Y-115435500D01*
X188106727Y-115435500D01*
X188001273Y-115435500D01*
X188001271Y-115435500D01*
X187899417Y-115462791D01*
X187899408Y-115462795D01*
X187808086Y-115515520D01*
X187733520Y-115590086D01*
X187680795Y-115681408D01*
X187680791Y-115681417D01*
X187653500Y-115783270D01*
X127975500Y-115783270D01*
X127975500Y-115721545D01*
X127997174Y-115669219D01*
X128020480Y-115645913D01*
X128073207Y-115554587D01*
X128100499Y-115452729D01*
X128100500Y-115452729D01*
X128100500Y-115347271D01*
X128100499Y-115347270D01*
X128073208Y-115245417D01*
X128073207Y-115245413D01*
X128020480Y-115154087D01*
X127945913Y-115079520D01*
X127854591Y-115026795D01*
X127854582Y-115026791D01*
X127752729Y-114999500D01*
X127752727Y-114999500D01*
X127647273Y-114999500D01*
X127647271Y-114999500D01*
X127545417Y-115026791D01*
X127545408Y-115026795D01*
X127454086Y-115079520D01*
X127379520Y-115154086D01*
X127326795Y-115245408D01*
X127326791Y-115245417D01*
X127299500Y-115347270D01*
X127299500Y-115452729D01*
X127326791Y-115554582D01*
X127326795Y-115554591D01*
X127379520Y-115645913D01*
X127402826Y-115669219D01*
X127424500Y-115721545D01*
X127424500Y-118055232D01*
X127402826Y-118107558D01*
X125607559Y-119902826D01*
X125555233Y-119924500D01*
X125550912Y-119924500D01*
X125498586Y-119902826D01*
X125476912Y-119850500D01*
X125479434Y-119831347D01*
X125494348Y-119775685D01*
X125500499Y-119752729D01*
X125500500Y-119752729D01*
X125500500Y-119647271D01*
X125500499Y-119647270D01*
X125473208Y-119545417D01*
X125473207Y-119545413D01*
X125420480Y-119454087D01*
X125407174Y-119440781D01*
X125385500Y-119388455D01*
X125385500Y-119336810D01*
X125407174Y-119284484D01*
X125428224Y-119269744D01*
X125440404Y-119264065D01*
X125524065Y-119180404D01*
X125565174Y-119092244D01*
X125603921Y-119055152D01*
X125656058Y-119033557D01*
X125733557Y-118956058D01*
X125733556Y-118956058D01*
X126097058Y-118592558D01*
X126139000Y-118491300D01*
X126139000Y-118381700D01*
X126139000Y-116858045D01*
X126160674Y-116805719D01*
X126183980Y-116782413D01*
X126236707Y-116691087D01*
X126263999Y-116589229D01*
X126264000Y-116589229D01*
X126264000Y-116483771D01*
X126263999Y-116483770D01*
X126236708Y-116381917D01*
X126236707Y-116381913D01*
X126183980Y-116290587D01*
X126109413Y-116216020D01*
X126097607Y-116209204D01*
X126018091Y-116163295D01*
X126018082Y-116163291D01*
X125916229Y-116136000D01*
X125916227Y-116136000D01*
X125810773Y-116136000D01*
X125810771Y-116136000D01*
X125708917Y-116163291D01*
X125708908Y-116163295D01*
X125617586Y-116216020D01*
X125543020Y-116290586D01*
X125490295Y-116381908D01*
X125490291Y-116381917D01*
X125463000Y-116483770D01*
X125463000Y-116589229D01*
X125490291Y-116691082D01*
X125490295Y-116691091D01*
X125543020Y-116782413D01*
X125566326Y-116805719D01*
X125588000Y-116858045D01*
X125588000Y-118291731D01*
X125566326Y-118344057D01*
X125559752Y-118350631D01*
X125507426Y-118372305D01*
X125455100Y-118350631D01*
X125440404Y-118335935D01*
X125411344Y-118322384D01*
X125333173Y-118285932D01*
X125333171Y-118285931D01*
X125297178Y-118281193D01*
X125284316Y-118279500D01*
X124935684Y-118279500D01*
X124924318Y-118280996D01*
X124886828Y-118285931D01*
X124779595Y-118335935D01*
X124695935Y-118419595D01*
X124667067Y-118481504D01*
X124625309Y-118519767D01*
X124568726Y-118517297D01*
X124532933Y-118481504D01*
X124504065Y-118419596D01*
X124420404Y-118335935D01*
X124313173Y-118285932D01*
X124313171Y-118285931D01*
X124277178Y-118281193D01*
X124264316Y-118279500D01*
X123915684Y-118279500D01*
X123912456Y-118279924D01*
X123857750Y-118265262D01*
X123831325Y-118225710D01*
X123823207Y-118195413D01*
X123770480Y-118104087D01*
X123695913Y-118029520D01*
X123653220Y-118004871D01*
X123604591Y-117976795D01*
X123604582Y-117976791D01*
X123502729Y-117949500D01*
X123502727Y-117949500D01*
X123397273Y-117949500D01*
X123397271Y-117949500D01*
X123295417Y-117976791D01*
X123295408Y-117976795D01*
X123204086Y-118029520D01*
X123129520Y-118104086D01*
X123076795Y-118195408D01*
X123076791Y-118195417D01*
X123049500Y-118297270D01*
X123049500Y-118402729D01*
X123076791Y-118504582D01*
X123076792Y-118504585D01*
X123076793Y-118504587D01*
X123129520Y-118595913D01*
X123204087Y-118670480D01*
X123295413Y-118723207D01*
X123397270Y-118750499D01*
X123397271Y-118750500D01*
X123397273Y-118750500D01*
X123430233Y-118750500D01*
X123482559Y-118772174D01*
X123597826Y-118887441D01*
X123619500Y-118939767D01*
X123619500Y-119024316D01*
X123620717Y-119033557D01*
X123625931Y-119073171D01*
X123625932Y-119073173D01*
X123675935Y-119180404D01*
X123759596Y-119264065D01*
X123866827Y-119314068D01*
X123915684Y-119320500D01*
X123915686Y-119320500D01*
X124264314Y-119320500D01*
X124264316Y-119320500D01*
X124313173Y-119314068D01*
X124420404Y-119264065D01*
X124504065Y-119180404D01*
X124532933Y-119118495D01*
X124574690Y-119080232D01*
X124631273Y-119082702D01*
X124667067Y-119118496D01*
X124695933Y-119180402D01*
X124779597Y-119264066D01*
X124782819Y-119265568D01*
X124784746Y-119267671D01*
X124784899Y-119267778D01*
X124784875Y-119267811D01*
X124821085Y-119307323D01*
X124825530Y-119334330D01*
X124825326Y-119343203D01*
X124824500Y-119345200D01*
X124824500Y-119379319D01*
X124824481Y-119380149D01*
X124813356Y-119405357D01*
X124802826Y-119430781D01*
X124779520Y-119454086D01*
X124726795Y-119545408D01*
X124726791Y-119545417D01*
X124699500Y-119647270D01*
X124699500Y-119752729D01*
X124720566Y-119831347D01*
X124713174Y-119887500D01*
X124668241Y-119921978D01*
X124649088Y-119924500D01*
X124254500Y-119924500D01*
X124202174Y-119902826D01*
X124180500Y-119850500D01*
X124180500Y-119775685D01*
X124177723Y-119754587D01*
X124174068Y-119726827D01*
X124124065Y-119619596D01*
X124040404Y-119535935D01*
X123933173Y-119485932D01*
X123933171Y-119485931D01*
X123897178Y-119481193D01*
X123884316Y-119479500D01*
X123535684Y-119479500D01*
X123524318Y-119480996D01*
X123486828Y-119485931D01*
X123379595Y-119535935D01*
X123295935Y-119619595D01*
X123267067Y-119681504D01*
X123225309Y-119719767D01*
X123168726Y-119717297D01*
X123132933Y-119681504D01*
X123116970Y-119647271D01*
X123104065Y-119619596D01*
X123020404Y-119535935D01*
X122913173Y-119485932D01*
X122913171Y-119485931D01*
X122877178Y-119481193D01*
X122864316Y-119479500D01*
X122864314Y-119479500D01*
X122635611Y-119479500D01*
X122583285Y-119457826D01*
X122571525Y-119442500D01*
X122558019Y-119419107D01*
X122520480Y-119354087D01*
X122445913Y-119279520D01*
X122428977Y-119269742D01*
X122354591Y-119226795D01*
X122354582Y-119226791D01*
X122252729Y-119199500D01*
X122252727Y-119199500D01*
X122147273Y-119199500D01*
X122147271Y-119199500D01*
X122045417Y-119226791D01*
X122045408Y-119226795D01*
X121954086Y-119279520D01*
X121879520Y-119354086D01*
X121826795Y-119445408D01*
X121826791Y-119445417D01*
X121799500Y-119547270D01*
X121799500Y-119652729D01*
X121826791Y-119754582D01*
X121826792Y-119754585D01*
X121826793Y-119754587D01*
X121879520Y-119845913D01*
X121954087Y-119920480D01*
X122045413Y-119973207D01*
X122147273Y-120000500D01*
X122147278Y-120000500D01*
X122152080Y-120001133D01*
X122151818Y-120003117D01*
X122197826Y-120022174D01*
X122219500Y-120074500D01*
X122219500Y-120224314D01*
X122225931Y-120273171D01*
X122225932Y-120273173D01*
X122248279Y-120321097D01*
X122269751Y-120367142D01*
X122272221Y-120423726D01*
X122233958Y-120465483D01*
X122177374Y-120467953D01*
X122150358Y-120450742D01*
X121666059Y-119966444D01*
X121666057Y-119966442D01*
X121606742Y-119941873D01*
X121564800Y-119924500D01*
X121564799Y-119924500D01*
X120444767Y-119924500D01*
X120392441Y-119902826D01*
X118494486Y-118004871D01*
X119719500Y-118004871D01*
X119719500Y-118125128D01*
X119742959Y-118243069D01*
X119742961Y-118243076D01*
X119788981Y-118354179D01*
X119855791Y-118454167D01*
X119855794Y-118454171D01*
X119940829Y-118539206D01*
X120040820Y-118606018D01*
X120151924Y-118652039D01*
X120269871Y-118675500D01*
X120269872Y-118675500D01*
X120390128Y-118675500D01*
X120390129Y-118675500D01*
X120508076Y-118652039D01*
X120619180Y-118606018D01*
X120719171Y-118539206D01*
X120804206Y-118454171D01*
X120871018Y-118354180D01*
X120917039Y-118243076D01*
X120940500Y-118125129D01*
X120940500Y-118004871D01*
X120917039Y-117886924D01*
X120871018Y-117775820D01*
X120804206Y-117675829D01*
X120719171Y-117590794D01*
X120619180Y-117523982D01*
X120619181Y-117523982D01*
X120619179Y-117523981D01*
X120508076Y-117477961D01*
X120508069Y-117477959D01*
X120419215Y-117460285D01*
X120390129Y-117454500D01*
X120269871Y-117454500D01*
X120246538Y-117459141D01*
X120151930Y-117477959D01*
X120151923Y-117477961D01*
X120040820Y-117523981D01*
X119940832Y-117590791D01*
X119855791Y-117675832D01*
X119788981Y-117775820D01*
X119742961Y-117886923D01*
X119742959Y-117886930D01*
X119719500Y-118004871D01*
X118494486Y-118004871D01*
X118397174Y-117907559D01*
X118375500Y-117855233D01*
X118375500Y-116421545D01*
X118397174Y-116369219D01*
X118420480Y-116345913D01*
X118473207Y-116254587D01*
X118500499Y-116152729D01*
X118500500Y-116152729D01*
X118500500Y-116047271D01*
X118500499Y-116047270D01*
X118473208Y-115945417D01*
X118473207Y-115945413D01*
X118420480Y-115854087D01*
X118345913Y-115779520D01*
X118254591Y-115726795D01*
X118254582Y-115726791D01*
X118152729Y-115699500D01*
X118152727Y-115699500D01*
X118047273Y-115699500D01*
X118047271Y-115699500D01*
X117945417Y-115726791D01*
X117945408Y-115726795D01*
X117854086Y-115779520D01*
X117779520Y-115854086D01*
X117726795Y-115945408D01*
X117726791Y-115945417D01*
X117699500Y-116047270D01*
X108150500Y-116047270D01*
X108150500Y-112637388D01*
X152430000Y-112637388D01*
X152432756Y-112666786D01*
X152432757Y-112666791D01*
X152476064Y-112790556D01*
X152553934Y-112896064D01*
X152553935Y-112896065D01*
X152659443Y-112973935D01*
X152783208Y-113017242D01*
X152783213Y-113017243D01*
X152812611Y-113019999D01*
X152812613Y-113020000D01*
X152900000Y-113020000D01*
X152900000Y-112500000D01*
X152430000Y-112500000D01*
X152430000Y-112637388D01*
X108150500Y-112637388D01*
X108150500Y-112162611D01*
X152430000Y-112162611D01*
X152430000Y-112300000D01*
X152900000Y-112300000D01*
X152900000Y-111780000D01*
X152812611Y-111780000D01*
X152783213Y-111782756D01*
X152783208Y-111782757D01*
X152659443Y-111826064D01*
X152553935Y-111903934D01*
X152553934Y-111903935D01*
X152476064Y-112009443D01*
X152432757Y-112133208D01*
X152432756Y-112133213D01*
X152430000Y-112162611D01*
X108150500Y-112162611D01*
X108150500Y-106947270D01*
X149049500Y-106947270D01*
X149049500Y-107052729D01*
X149076791Y-107154582D01*
X149076795Y-107154591D01*
X149123438Y-107235379D01*
X149129520Y-107245913D01*
X149204087Y-107320480D01*
X149295413Y-107373207D01*
X149397270Y-107400499D01*
X149397271Y-107400500D01*
X149397273Y-107400500D01*
X149502729Y-107400500D01*
X149502729Y-107400499D01*
X149551476Y-107387438D01*
X149556347Y-107386133D01*
X149566260Y-107387438D01*
X149575500Y-107383611D01*
X149593347Y-107391003D01*
X149612500Y-107393525D01*
X149618587Y-107401458D01*
X149627826Y-107405285D01*
X149635218Y-107423133D01*
X149646978Y-107438458D01*
X149649500Y-107457611D01*
X149649500Y-107542388D01*
X149627826Y-107594714D01*
X149575500Y-107616388D01*
X149556348Y-107613867D01*
X149502727Y-107599500D01*
X149397273Y-107599500D01*
X149397271Y-107599500D01*
X149295417Y-107626791D01*
X149295408Y-107626795D01*
X149204086Y-107679520D01*
X149129520Y-107754086D01*
X149076795Y-107845408D01*
X149076791Y-107845417D01*
X149049500Y-107947270D01*
X149049500Y-108052729D01*
X149076791Y-108154582D01*
X149076795Y-108154591D01*
X149123438Y-108235379D01*
X149129520Y-108245913D01*
X149204087Y-108320480D01*
X149295413Y-108373207D01*
X149397270Y-108400499D01*
X149397271Y-108400500D01*
X149397273Y-108400500D01*
X149502729Y-108400500D01*
X149502729Y-108400499D01*
X149551476Y-108387438D01*
X149556347Y-108386133D01*
X149566260Y-108387438D01*
X149575500Y-108383611D01*
X149593347Y-108391003D01*
X149612500Y-108393525D01*
X149618587Y-108401458D01*
X149627826Y-108405285D01*
X149635218Y-108423133D01*
X149646978Y-108438458D01*
X149649500Y-108457611D01*
X149649500Y-108528991D01*
X149627826Y-108581317D01*
X149575500Y-108602991D01*
X149556350Y-108600470D01*
X149552729Y-108599500D01*
X149552727Y-108599500D01*
X149447273Y-108599500D01*
X149447271Y-108599500D01*
X149345417Y-108626791D01*
X149345408Y-108626795D01*
X149254086Y-108679520D01*
X149179520Y-108754086D01*
X149126795Y-108845408D01*
X149126791Y-108845417D01*
X149099500Y-108947270D01*
X149099500Y-109052729D01*
X149126791Y-109154582D01*
X149126795Y-109154591D01*
X149173438Y-109235379D01*
X149179520Y-109245913D01*
X149254087Y-109320480D01*
X149345413Y-109373207D01*
X149447270Y-109400499D01*
X149447271Y-109400500D01*
X149447273Y-109400500D01*
X149552729Y-109400500D01*
X149552729Y-109400499D01*
X149601476Y-109387438D01*
X149606347Y-109386133D01*
X149616260Y-109387438D01*
X149625500Y-109383611D01*
X149643347Y-109391003D01*
X149662500Y-109393525D01*
X149668587Y-109401458D01*
X149677826Y-109405285D01*
X149685218Y-109423133D01*
X149696978Y-109438458D01*
X149699500Y-109457611D01*
X149699500Y-109542388D01*
X149677826Y-109594714D01*
X149625500Y-109616388D01*
X149606348Y-109613867D01*
X149552727Y-109599500D01*
X149447273Y-109599500D01*
X149447271Y-109599500D01*
X149345417Y-109626791D01*
X149345408Y-109626795D01*
X149254086Y-109679520D01*
X149179520Y-109754086D01*
X149126795Y-109845408D01*
X149126791Y-109845417D01*
X149099500Y-109947270D01*
X149099500Y-110052729D01*
X149126791Y-110154582D01*
X149126795Y-110154591D01*
X149170095Y-110229588D01*
X149179520Y-110245913D01*
X149254087Y-110320480D01*
X149345413Y-110373207D01*
X149447270Y-110400499D01*
X149447271Y-110400500D01*
X149447273Y-110400500D01*
X149552729Y-110400500D01*
X149552729Y-110400499D01*
X149586384Y-110391481D01*
X149606347Y-110386133D01*
X149662500Y-110393525D01*
X149696978Y-110438458D01*
X149699500Y-110457611D01*
X149699500Y-110552729D01*
X149726791Y-110654582D01*
X149726795Y-110654591D01*
X149764414Y-110719748D01*
X149779520Y-110745913D01*
X149854087Y-110820480D01*
X149945413Y-110873207D01*
X150047270Y-110900499D01*
X150047271Y-110900500D01*
X150047273Y-110900500D01*
X150152729Y-110900500D01*
X150152729Y-110900499D01*
X150254587Y-110873207D01*
X150291920Y-110851652D01*
X150343353Y-110843160D01*
X150380252Y-110850500D01*
X150380255Y-110850500D01*
X151219746Y-110850500D01*
X151219748Y-110850500D01*
X151278231Y-110838867D01*
X151344552Y-110794552D01*
X151388867Y-110728231D01*
X151400500Y-110669748D01*
X151400500Y-110330252D01*
X151388867Y-110271769D01*
X151388866Y-110271768D01*
X151387445Y-110264621D01*
X151391628Y-110263788D01*
X151391527Y-110236191D01*
X151387445Y-110235379D01*
X151398503Y-110179786D01*
X151400500Y-110169748D01*
X151400500Y-109830252D01*
X151388867Y-109771769D01*
X151388866Y-109771768D01*
X151387445Y-109764621D01*
X151391628Y-109763788D01*
X151391527Y-109736191D01*
X151387445Y-109735379D01*
X151399370Y-109675428D01*
X151400500Y-109669748D01*
X151400500Y-109330252D01*
X151388867Y-109271769D01*
X151388866Y-109271768D01*
X151387445Y-109264621D01*
X151391628Y-109263788D01*
X151391527Y-109236191D01*
X151387445Y-109235379D01*
X151399098Y-109176795D01*
X151400500Y-109169748D01*
X151400500Y-108830252D01*
X151388867Y-108771769D01*
X151388866Y-108771768D01*
X151387445Y-108764621D01*
X151391628Y-108763788D01*
X151391527Y-108736191D01*
X151387445Y-108735379D01*
X151390555Y-108719746D01*
X151400500Y-108669748D01*
X151400500Y-108330252D01*
X151388867Y-108271769D01*
X151388866Y-108271768D01*
X151387445Y-108264621D01*
X151391628Y-108263788D01*
X151391527Y-108236191D01*
X151387445Y-108235379D01*
X151388939Y-108227867D01*
X151400500Y-108169748D01*
X151400500Y-107830252D01*
X151388867Y-107771769D01*
X151388866Y-107771768D01*
X151387445Y-107764621D01*
X151391628Y-107763788D01*
X151391527Y-107736191D01*
X151387445Y-107735379D01*
X151390555Y-107719746D01*
X151400500Y-107669748D01*
X151400500Y-107330252D01*
X151388867Y-107271769D01*
X151388866Y-107271768D01*
X151387445Y-107264621D01*
X151391628Y-107263788D01*
X151391527Y-107236191D01*
X151387445Y-107235379D01*
X151388867Y-107228231D01*
X151400500Y-107169748D01*
X151400500Y-106830252D01*
X151388867Y-106771769D01*
X151377961Y-106755448D01*
X151373573Y-106748881D01*
X151344552Y-106705448D01*
X151305749Y-106679520D01*
X151278232Y-106661133D01*
X151278233Y-106661133D01*
X151248989Y-106655316D01*
X151219748Y-106649500D01*
X150380252Y-106649500D01*
X150351010Y-106655316D01*
X150321767Y-106661133D01*
X150249388Y-106709497D01*
X150247778Y-106707088D01*
X150205744Y-106724500D01*
X149771545Y-106724500D01*
X149719219Y-106702826D01*
X149695913Y-106679520D01*
X149604591Y-106626795D01*
X149604582Y-106626791D01*
X149502729Y-106599500D01*
X149502727Y-106599500D01*
X149397273Y-106599500D01*
X149397271Y-106599500D01*
X149295417Y-106626791D01*
X149295408Y-106626795D01*
X149204086Y-106679520D01*
X149129520Y-106754086D01*
X149076795Y-106845408D01*
X149076791Y-106845417D01*
X149049500Y-106947270D01*
X108150500Y-106947270D01*
X108150500Y-102447270D01*
X149049500Y-102447270D01*
X149049500Y-102552729D01*
X149076791Y-102654582D01*
X149076795Y-102654591D01*
X149123438Y-102735379D01*
X149129520Y-102745913D01*
X149204087Y-102820480D01*
X149295413Y-102873207D01*
X149397270Y-102900499D01*
X149397271Y-102900500D01*
X149397273Y-102900500D01*
X149502729Y-102900500D01*
X149502729Y-102900499D01*
X149551476Y-102887438D01*
X149556347Y-102886133D01*
X149566260Y-102887438D01*
X149575500Y-102883611D01*
X149593347Y-102891003D01*
X149612500Y-102893525D01*
X149618587Y-102901458D01*
X149627826Y-102905285D01*
X149635218Y-102923133D01*
X149646978Y-102938458D01*
X149649500Y-102957611D01*
X149649500Y-103042388D01*
X149627826Y-103094714D01*
X149575500Y-103116388D01*
X149556348Y-103113867D01*
X149502727Y-103099500D01*
X149397273Y-103099500D01*
X149397271Y-103099500D01*
X149295417Y-103126791D01*
X149295408Y-103126795D01*
X149204086Y-103179520D01*
X149129520Y-103254086D01*
X149076795Y-103345408D01*
X149076791Y-103345417D01*
X149049500Y-103447270D01*
X149049500Y-103552729D01*
X149076791Y-103654582D01*
X149076795Y-103654591D01*
X149123438Y-103735379D01*
X149129520Y-103745913D01*
X149204087Y-103820480D01*
X149295413Y-103873207D01*
X149397270Y-103900499D01*
X149397271Y-103900500D01*
X149397273Y-103900500D01*
X149502729Y-103900500D01*
X149502729Y-103900499D01*
X149551476Y-103887438D01*
X149556347Y-103886133D01*
X149566260Y-103887438D01*
X149575500Y-103883611D01*
X149593347Y-103891003D01*
X149612500Y-103893525D01*
X149618587Y-103901458D01*
X149627826Y-103905285D01*
X149635218Y-103923133D01*
X149646978Y-103938458D01*
X149649500Y-103957611D01*
X149649500Y-104042388D01*
X149627826Y-104094714D01*
X149575500Y-104116388D01*
X149556348Y-104113867D01*
X149502727Y-104099500D01*
X149397273Y-104099500D01*
X149397271Y-104099500D01*
X149295417Y-104126791D01*
X149295408Y-104126795D01*
X149204086Y-104179520D01*
X149129520Y-104254086D01*
X149076795Y-104345408D01*
X149076791Y-104345417D01*
X149049500Y-104447270D01*
X149049500Y-104552729D01*
X149076791Y-104654582D01*
X149076795Y-104654591D01*
X149123438Y-104735379D01*
X149129520Y-104745913D01*
X149204087Y-104820480D01*
X149295413Y-104873207D01*
X149397270Y-104900499D01*
X149397271Y-104900500D01*
X149397273Y-104900500D01*
X149502729Y-104900500D01*
X149502729Y-104900499D01*
X149551476Y-104887438D01*
X149556347Y-104886133D01*
X149566260Y-104887438D01*
X149575500Y-104883611D01*
X149593347Y-104891003D01*
X149612500Y-104893525D01*
X149618587Y-104901458D01*
X149627826Y-104905285D01*
X149635218Y-104923133D01*
X149646978Y-104938458D01*
X149649500Y-104957611D01*
X149649500Y-105042388D01*
X149627826Y-105094714D01*
X149575500Y-105116388D01*
X149556348Y-105113867D01*
X149502727Y-105099500D01*
X149397273Y-105099500D01*
X149397271Y-105099500D01*
X149295417Y-105126791D01*
X149295408Y-105126795D01*
X149204086Y-105179520D01*
X149129520Y-105254086D01*
X149076795Y-105345408D01*
X149076791Y-105345417D01*
X149049500Y-105447270D01*
X149049500Y-105552729D01*
X149076791Y-105654582D01*
X149076795Y-105654591D01*
X149123438Y-105735379D01*
X149129520Y-105745913D01*
X149204087Y-105820480D01*
X149295413Y-105873207D01*
X149397270Y-105900499D01*
X149397271Y-105900500D01*
X149397273Y-105900500D01*
X149502729Y-105900500D01*
X149502729Y-105900499D01*
X149544650Y-105889267D01*
X149556347Y-105886133D01*
X149612500Y-105893525D01*
X149646978Y-105938458D01*
X149649500Y-105957611D01*
X149649500Y-106052729D01*
X149676791Y-106154582D01*
X149676795Y-106154591D01*
X149714414Y-106219748D01*
X149729520Y-106245913D01*
X149804087Y-106320480D01*
X149895413Y-106373207D01*
X149997270Y-106400499D01*
X149997271Y-106400500D01*
X149997273Y-106400500D01*
X150102726Y-106400500D01*
X150102727Y-106400500D01*
X150204587Y-106373207D01*
X150256565Y-106343197D01*
X150312718Y-106335803D01*
X150321706Y-106338854D01*
X150321768Y-106338866D01*
X150321769Y-106338867D01*
X150380252Y-106350500D01*
X150380254Y-106350500D01*
X151219746Y-106350500D01*
X151219748Y-106350500D01*
X151278231Y-106338867D01*
X151344552Y-106294552D01*
X151388867Y-106228231D01*
X151400500Y-106169748D01*
X151400500Y-105830252D01*
X151388867Y-105771769D01*
X151388866Y-105771768D01*
X151387445Y-105764621D01*
X151391628Y-105763788D01*
X151391527Y-105736191D01*
X151387445Y-105735379D01*
X151388867Y-105728231D01*
X151400500Y-105669748D01*
X151400500Y-105330252D01*
X151388867Y-105271769D01*
X151388866Y-105271768D01*
X151387445Y-105264621D01*
X151391628Y-105263788D01*
X151391527Y-105236191D01*
X151387445Y-105235379D01*
X151400500Y-105169746D01*
X151400500Y-104830253D01*
X151398812Y-104821769D01*
X151388867Y-104771769D01*
X151388866Y-104771768D01*
X151387445Y-104764621D01*
X151391628Y-104763788D01*
X151391527Y-104736191D01*
X151387445Y-104735379D01*
X151388867Y-104728231D01*
X151400500Y-104669748D01*
X151400500Y-104330252D01*
X151388867Y-104271769D01*
X151388866Y-104271768D01*
X151387445Y-104264621D01*
X151391628Y-104263788D01*
X151391527Y-104236191D01*
X151387445Y-104235379D01*
X151390361Y-104220718D01*
X151400500Y-104169748D01*
X151400500Y-103830252D01*
X151388867Y-103771769D01*
X151388866Y-103771768D01*
X151387445Y-103764621D01*
X151391628Y-103763788D01*
X151391527Y-103736191D01*
X151387445Y-103735379D01*
X151388867Y-103728231D01*
X151400500Y-103669748D01*
X151400500Y-103330252D01*
X151388867Y-103271769D01*
X151388866Y-103271768D01*
X151387445Y-103264621D01*
X151391628Y-103263788D01*
X151391527Y-103236191D01*
X151387445Y-103235379D01*
X151400500Y-103169746D01*
X151400500Y-102830253D01*
X151398812Y-102821769D01*
X151388867Y-102771769D01*
X151388866Y-102771768D01*
X151387445Y-102764621D01*
X151391628Y-102763788D01*
X151391527Y-102736191D01*
X151387445Y-102735379D01*
X151388867Y-102728231D01*
X151400500Y-102669748D01*
X151400500Y-102330252D01*
X151388867Y-102271769D01*
X151378960Y-102256943D01*
X151365428Y-102236691D01*
X151344552Y-102205448D01*
X151320803Y-102189579D01*
X151278232Y-102161133D01*
X151278233Y-102161133D01*
X151243165Y-102154158D01*
X151219748Y-102149500D01*
X150380252Y-102149500D01*
X150356835Y-102154158D01*
X150321767Y-102161133D01*
X150249388Y-102209497D01*
X150247778Y-102207088D01*
X150205744Y-102224500D01*
X149771545Y-102224500D01*
X149719219Y-102202826D01*
X149695913Y-102179520D01*
X149604591Y-102126795D01*
X149604582Y-102126791D01*
X149502729Y-102099500D01*
X149502727Y-102099500D01*
X149397273Y-102099500D01*
X149397271Y-102099500D01*
X149295417Y-102126791D01*
X149295408Y-102126795D01*
X149204086Y-102179520D01*
X149129520Y-102254086D01*
X149076795Y-102345408D01*
X149076791Y-102345417D01*
X149049500Y-102447270D01*
X108150500Y-102447270D01*
X108150500Y-97947270D01*
X149049500Y-97947270D01*
X149049500Y-98052729D01*
X149076791Y-98154582D01*
X149076795Y-98154591D01*
X149091051Y-98179283D01*
X149129520Y-98245913D01*
X149204087Y-98320480D01*
X149295413Y-98373207D01*
X149397270Y-98400499D01*
X149397271Y-98400500D01*
X149397273Y-98400500D01*
X149502729Y-98400500D01*
X149502729Y-98400499D01*
X149551476Y-98387438D01*
X149556347Y-98386133D01*
X149566260Y-98387438D01*
X149575500Y-98383611D01*
X149593347Y-98391003D01*
X149612500Y-98393525D01*
X149618587Y-98401458D01*
X149627826Y-98405285D01*
X149635218Y-98423133D01*
X149646978Y-98438458D01*
X149649500Y-98457611D01*
X149649500Y-98542388D01*
X149627826Y-98594714D01*
X149575500Y-98616388D01*
X149556348Y-98613867D01*
X149502727Y-98599500D01*
X149397273Y-98599500D01*
X149397271Y-98599500D01*
X149295417Y-98626791D01*
X149295408Y-98626795D01*
X149204086Y-98679520D01*
X149129520Y-98754086D01*
X149076795Y-98845408D01*
X149076791Y-98845417D01*
X149049500Y-98947270D01*
X149049500Y-99052729D01*
X149076791Y-99154582D01*
X149076795Y-99154591D01*
X149091188Y-99179520D01*
X149129520Y-99245913D01*
X149204087Y-99320480D01*
X149295413Y-99373207D01*
X149397270Y-99400499D01*
X149397271Y-99400500D01*
X149397273Y-99400500D01*
X149502729Y-99400500D01*
X149502729Y-99400499D01*
X149551476Y-99387438D01*
X149556347Y-99386133D01*
X149566260Y-99387438D01*
X149575500Y-99383611D01*
X149593347Y-99391003D01*
X149612500Y-99393525D01*
X149618587Y-99401458D01*
X149627826Y-99405285D01*
X149635218Y-99423133D01*
X149646978Y-99438458D01*
X149649500Y-99457611D01*
X149649500Y-99542388D01*
X149627826Y-99594714D01*
X149575500Y-99616388D01*
X149556348Y-99613867D01*
X149502727Y-99599500D01*
X149397273Y-99599500D01*
X149397271Y-99599500D01*
X149295417Y-99626791D01*
X149295408Y-99626795D01*
X149204086Y-99679520D01*
X149129520Y-99754086D01*
X149076795Y-99845408D01*
X149076791Y-99845417D01*
X149049500Y-99947270D01*
X149049500Y-100052729D01*
X149076791Y-100154582D01*
X149076795Y-100154591D01*
X149091051Y-100179283D01*
X149129520Y-100245913D01*
X149204087Y-100320480D01*
X149295413Y-100373207D01*
X149397270Y-100400499D01*
X149397271Y-100400500D01*
X149397273Y-100400500D01*
X149502729Y-100400500D01*
X149502729Y-100400499D01*
X149551476Y-100387438D01*
X149556347Y-100386133D01*
X149566260Y-100387438D01*
X149575500Y-100383611D01*
X149593347Y-100391003D01*
X149612500Y-100393525D01*
X149618587Y-100401458D01*
X149627826Y-100405285D01*
X149635218Y-100423133D01*
X149646978Y-100438458D01*
X149649500Y-100457611D01*
X149649500Y-100542388D01*
X149627826Y-100594714D01*
X149575500Y-100616388D01*
X149556348Y-100613867D01*
X149502727Y-100599500D01*
X149397273Y-100599500D01*
X149397271Y-100599500D01*
X149295417Y-100626791D01*
X149295408Y-100626795D01*
X149204086Y-100679520D01*
X149129520Y-100754086D01*
X149076795Y-100845408D01*
X149076791Y-100845417D01*
X149049500Y-100947270D01*
X149049500Y-101052729D01*
X149076791Y-101154582D01*
X149076795Y-101154591D01*
X149091188Y-101179520D01*
X149129520Y-101245913D01*
X149204087Y-101320480D01*
X149295413Y-101373207D01*
X149397270Y-101400499D01*
X149397271Y-101400500D01*
X149397273Y-101400500D01*
X149502729Y-101400500D01*
X149502729Y-101400499D01*
X149536384Y-101391481D01*
X149556347Y-101386133D01*
X149612500Y-101393525D01*
X149646978Y-101438458D01*
X149649500Y-101457611D01*
X149649500Y-101552729D01*
X149676791Y-101654582D01*
X149676792Y-101654585D01*
X149676793Y-101654587D01*
X149729520Y-101745913D01*
X149804087Y-101820480D01*
X149895413Y-101873207D01*
X149997270Y-101900499D01*
X149997271Y-101900500D01*
X149997273Y-101900500D01*
X150102726Y-101900500D01*
X150102727Y-101900500D01*
X150204587Y-101873207D01*
X150256565Y-101843197D01*
X150312718Y-101835803D01*
X150321706Y-101838854D01*
X150321768Y-101838866D01*
X150321769Y-101838867D01*
X150380252Y-101850500D01*
X150380254Y-101850500D01*
X151219746Y-101850500D01*
X151219748Y-101850500D01*
X151278231Y-101838867D01*
X151344552Y-101794552D01*
X151388867Y-101728231D01*
X151400500Y-101669748D01*
X151400500Y-101330252D01*
X151388867Y-101271769D01*
X151388866Y-101271768D01*
X151387445Y-101264621D01*
X151391628Y-101263788D01*
X151391527Y-101236191D01*
X151387445Y-101235379D01*
X151400500Y-101169746D01*
X151400500Y-100830253D01*
X151387445Y-100764621D01*
X151391628Y-100763788D01*
X151391527Y-100736191D01*
X151387445Y-100735379D01*
X151400500Y-100669746D01*
X151400500Y-100330253D01*
X151392348Y-100289272D01*
X151388867Y-100271769D01*
X151388866Y-100271768D01*
X151387445Y-100264621D01*
X151391628Y-100263788D01*
X151391527Y-100236191D01*
X151387445Y-100235379D01*
X151390361Y-100220718D01*
X151400500Y-100169748D01*
X151400500Y-99830252D01*
X151388867Y-99771769D01*
X151388866Y-99771768D01*
X151387445Y-99764621D01*
X151391628Y-99763788D01*
X151391527Y-99736191D01*
X151387445Y-99735379D01*
X151388867Y-99728231D01*
X151400500Y-99669748D01*
X151400500Y-99330252D01*
X151388867Y-99271769D01*
X151388866Y-99271768D01*
X151387445Y-99264621D01*
X151391628Y-99263788D01*
X151391527Y-99236191D01*
X151387445Y-99235379D01*
X151400500Y-99169746D01*
X151400500Y-98830253D01*
X151387445Y-98764621D01*
X151391628Y-98763788D01*
X151391527Y-98736191D01*
X151387445Y-98735379D01*
X151400500Y-98669746D01*
X151400500Y-98330253D01*
X151392348Y-98289272D01*
X151388867Y-98271769D01*
X151388866Y-98271768D01*
X151387445Y-98264621D01*
X151391628Y-98263788D01*
X151391527Y-98236191D01*
X151387445Y-98235379D01*
X151390361Y-98220718D01*
X151400500Y-98169748D01*
X151400500Y-97830252D01*
X151388867Y-97771769D01*
X151344552Y-97705448D01*
X151305749Y-97679520D01*
X151278232Y-97661133D01*
X151278233Y-97661133D01*
X151248989Y-97655316D01*
X151219748Y-97649500D01*
X150380252Y-97649500D01*
X150351010Y-97655316D01*
X150321767Y-97661133D01*
X150249388Y-97709497D01*
X150247778Y-97707088D01*
X150205744Y-97724500D01*
X149771545Y-97724500D01*
X149719219Y-97702826D01*
X149695913Y-97679520D01*
X149604591Y-97626795D01*
X149604582Y-97626791D01*
X149502729Y-97599500D01*
X149502727Y-97599500D01*
X149397273Y-97599500D01*
X149397271Y-97599500D01*
X149295417Y-97626791D01*
X149295408Y-97626795D01*
X149204086Y-97679520D01*
X149129520Y-97754086D01*
X149076795Y-97845408D01*
X149076791Y-97845417D01*
X149049500Y-97947270D01*
X108150500Y-97947270D01*
X108150500Y-95447270D01*
X149049500Y-95447270D01*
X149049500Y-95552729D01*
X149076791Y-95654582D01*
X149076795Y-95654591D01*
X149091188Y-95679520D01*
X149129520Y-95745913D01*
X149204087Y-95820480D01*
X149295413Y-95873207D01*
X149397270Y-95900499D01*
X149397271Y-95900500D01*
X149397273Y-95900500D01*
X149502729Y-95900500D01*
X149502729Y-95900499D01*
X149551476Y-95887438D01*
X149556347Y-95886133D01*
X149566260Y-95887438D01*
X149575500Y-95883611D01*
X149593347Y-95891003D01*
X149612500Y-95893525D01*
X149618587Y-95901458D01*
X149627826Y-95905285D01*
X149635218Y-95923133D01*
X149646978Y-95938458D01*
X149649500Y-95957611D01*
X149649500Y-96042388D01*
X149627826Y-96094714D01*
X149575500Y-96116388D01*
X149556348Y-96113867D01*
X149502727Y-96099500D01*
X149397273Y-96099500D01*
X149397271Y-96099500D01*
X149295417Y-96126791D01*
X149295408Y-96126795D01*
X149204086Y-96179520D01*
X149129520Y-96254086D01*
X149076795Y-96345408D01*
X149076791Y-96345417D01*
X149049500Y-96447270D01*
X149049500Y-96552729D01*
X149076791Y-96654582D01*
X149076795Y-96654591D01*
X149091188Y-96679520D01*
X149129520Y-96745913D01*
X149204087Y-96820480D01*
X149295413Y-96873207D01*
X149397270Y-96900499D01*
X149397271Y-96900500D01*
X149397273Y-96900500D01*
X149502729Y-96900500D01*
X149502729Y-96900499D01*
X149536384Y-96891481D01*
X149556347Y-96886133D01*
X149612500Y-96893525D01*
X149646978Y-96938458D01*
X149649500Y-96957611D01*
X149649500Y-97052729D01*
X149676791Y-97154582D01*
X149676792Y-97154585D01*
X149676793Y-97154587D01*
X149729520Y-97245913D01*
X149804087Y-97320480D01*
X149895413Y-97373207D01*
X149997270Y-97400499D01*
X149997271Y-97400500D01*
X149997273Y-97400500D01*
X150102726Y-97400500D01*
X150102727Y-97400500D01*
X150204587Y-97373207D01*
X150256565Y-97343197D01*
X150312718Y-97335803D01*
X150321706Y-97338854D01*
X150321768Y-97338866D01*
X150321769Y-97338867D01*
X150380252Y-97350500D01*
X150380254Y-97350500D01*
X151219746Y-97350500D01*
X151219748Y-97350500D01*
X151278231Y-97338867D01*
X151344552Y-97294552D01*
X151388867Y-97228231D01*
X151400500Y-97169748D01*
X151400500Y-96830252D01*
X151388867Y-96771769D01*
X151388866Y-96771768D01*
X151387445Y-96764621D01*
X151391628Y-96763788D01*
X151391527Y-96736191D01*
X151387445Y-96735379D01*
X151400500Y-96669746D01*
X151400500Y-96330253D01*
X151392348Y-96289272D01*
X151388867Y-96271769D01*
X151388866Y-96271768D01*
X151387445Y-96264621D01*
X151391628Y-96263788D01*
X151391527Y-96236191D01*
X151387445Y-96235379D01*
X151390361Y-96220718D01*
X151400500Y-96169748D01*
X151400500Y-95830252D01*
X151388867Y-95771769D01*
X151388866Y-95771768D01*
X151387445Y-95764621D01*
X151391628Y-95763788D01*
X151391527Y-95736191D01*
X151387445Y-95735379D01*
X151388867Y-95728231D01*
X151400500Y-95669748D01*
X151400500Y-95330252D01*
X151388867Y-95271769D01*
X151388866Y-95271768D01*
X151387445Y-95264621D01*
X151391628Y-95263788D01*
X151391527Y-95236191D01*
X151387445Y-95235379D01*
X151400500Y-95169746D01*
X151400500Y-94830253D01*
X151387445Y-94764621D01*
X151391628Y-94763788D01*
X151391527Y-94736191D01*
X151387445Y-94735379D01*
X151400500Y-94669746D01*
X151400500Y-94330253D01*
X151387445Y-94264621D01*
X151391628Y-94263788D01*
X151391527Y-94236191D01*
X151387445Y-94235379D01*
X151400500Y-94169746D01*
X151400500Y-93830253D01*
X151387445Y-93764621D01*
X151391628Y-93763788D01*
X151391527Y-93736191D01*
X151387445Y-93735379D01*
X151399370Y-93675428D01*
X151400500Y-93669748D01*
X151400500Y-93330252D01*
X151388867Y-93271769D01*
X151344552Y-93205448D01*
X151305749Y-93179520D01*
X151278232Y-93161133D01*
X151278233Y-93161133D01*
X151246770Y-93154875D01*
X151219748Y-93149500D01*
X150380252Y-93149500D01*
X150325608Y-93160369D01*
X150270059Y-93149319D01*
X150239694Y-93106944D01*
X150223207Y-93045413D01*
X150170480Y-92954087D01*
X150095913Y-92879520D01*
X150004591Y-92826795D01*
X150004582Y-92826791D01*
X149902729Y-92799500D01*
X149902727Y-92799500D01*
X149797273Y-92799500D01*
X149797271Y-92799500D01*
X149695417Y-92826791D01*
X149695408Y-92826795D01*
X149604086Y-92879520D01*
X149529520Y-92954086D01*
X149476795Y-93045408D01*
X149476791Y-93045417D01*
X149449500Y-93147270D01*
X149449500Y-93252729D01*
X149476791Y-93354582D01*
X149476792Y-93354585D01*
X149476793Y-93354587D01*
X149529520Y-93445913D01*
X149604087Y-93520480D01*
X149695413Y-93573207D01*
X149797270Y-93600499D01*
X149797271Y-93600500D01*
X149797273Y-93600500D01*
X149804455Y-93600500D01*
X149856781Y-93622174D01*
X149878455Y-93674500D01*
X149856781Y-93726826D01*
X149829520Y-93754086D01*
X149776795Y-93845408D01*
X149776791Y-93845417D01*
X149749500Y-93947270D01*
X149749500Y-94055786D01*
X149727826Y-94108112D01*
X149675500Y-94129786D01*
X149656348Y-94127265D01*
X149654587Y-94126793D01*
X149552727Y-94099500D01*
X149447273Y-94099500D01*
X149447271Y-94099500D01*
X149345417Y-94126791D01*
X149345408Y-94126795D01*
X149254086Y-94179520D01*
X149179520Y-94254086D01*
X149126795Y-94345408D01*
X149126791Y-94345417D01*
X149099500Y-94447270D01*
X149099500Y-94552729D01*
X149126791Y-94654582D01*
X149126795Y-94654591D01*
X149141188Y-94679520D01*
X149179520Y-94745913D01*
X149254087Y-94820480D01*
X149345413Y-94873207D01*
X149447270Y-94900499D01*
X149447271Y-94900500D01*
X149525500Y-94900500D01*
X149577826Y-94922174D01*
X149599500Y-94974500D01*
X149599500Y-95028991D01*
X149577826Y-95081317D01*
X149525500Y-95102991D01*
X149506350Y-95100470D01*
X149502729Y-95099500D01*
X149502727Y-95099500D01*
X149397273Y-95099500D01*
X149397271Y-95099500D01*
X149295417Y-95126791D01*
X149295408Y-95126795D01*
X149204086Y-95179520D01*
X149129520Y-95254086D01*
X149076795Y-95345408D01*
X149076791Y-95345417D01*
X149049500Y-95447270D01*
X108150500Y-95447270D01*
X108150500Y-85920940D01*
X151699500Y-85920940D01*
X151699500Y-86079059D01*
X151740421Y-86231779D01*
X151740422Y-86231781D01*
X151740423Y-86231784D01*
X151819480Y-86368716D01*
X151931284Y-86480520D01*
X152068216Y-86559577D01*
X152220940Y-86600499D01*
X152220941Y-86600500D01*
X152325500Y-86600500D01*
X152377826Y-86622174D01*
X152399500Y-86674500D01*
X152399500Y-86779059D01*
X152440421Y-86931779D01*
X152440422Y-86931781D01*
X152440423Y-86931784D01*
X152519480Y-87068716D01*
X152631284Y-87180520D01*
X152768216Y-87259577D01*
X152920940Y-87300499D01*
X152920941Y-87300500D01*
X152920943Y-87300500D01*
X153003455Y-87300500D01*
X153055781Y-87322174D01*
X154477826Y-88744218D01*
X154499500Y-88796544D01*
X154499500Y-93147273D01*
X154499500Y-93252727D01*
X154520272Y-93330252D01*
X154526793Y-93354588D01*
X154526795Y-93354592D01*
X154579517Y-93445909D01*
X154579518Y-93445910D01*
X154579520Y-93445913D01*
X155502826Y-94369219D01*
X155524500Y-94421544D01*
X155524500Y-95156233D01*
X155502826Y-95208559D01*
X155450500Y-95230233D01*
X155398174Y-95208559D01*
X154435528Y-94245913D01*
X153456058Y-93266443D01*
X153456053Y-93266441D01*
X153439393Y-93259540D01*
X153422940Y-93252725D01*
X153354800Y-93224500D01*
X153354799Y-93224500D01*
X153194256Y-93224500D01*
X153152221Y-93207088D01*
X153150612Y-93209497D01*
X153078232Y-93161133D01*
X153078233Y-93161133D01*
X153046770Y-93154875D01*
X153019748Y-93149500D01*
X152180252Y-93149500D01*
X152153230Y-93154875D01*
X152121767Y-93161133D01*
X152055449Y-93205447D01*
X152055447Y-93205449D01*
X152011133Y-93271767D01*
X152011133Y-93271769D01*
X151999500Y-93330252D01*
X151999500Y-93669748D01*
X152000630Y-93675428D01*
X152012555Y-93735379D01*
X152008448Y-93736195D01*
X152008448Y-93763804D01*
X152012555Y-93764621D01*
X151999500Y-93830253D01*
X151999500Y-94169746D01*
X152012555Y-94235379D01*
X152008448Y-94236195D01*
X152008448Y-94263804D01*
X152012555Y-94264621D01*
X151999500Y-94330253D01*
X151999500Y-94669746D01*
X152012555Y-94735379D01*
X152008448Y-94736195D01*
X152008448Y-94763804D01*
X152012555Y-94764621D01*
X151999500Y-94830253D01*
X151999500Y-95169746D01*
X152012555Y-95235379D01*
X152008448Y-95236195D01*
X152008448Y-95263804D01*
X152012555Y-95264621D01*
X152011133Y-95271768D01*
X152011133Y-95271769D01*
X151999500Y-95330252D01*
X151999500Y-95669748D01*
X152011133Y-95728231D01*
X152012555Y-95735379D01*
X152008448Y-95736195D01*
X152008448Y-95763804D01*
X152012555Y-95764621D01*
X152011133Y-95771768D01*
X152011133Y-95771769D01*
X151999500Y-95830252D01*
X151999500Y-96169748D01*
X152009639Y-96220718D01*
X152012555Y-96235379D01*
X152008448Y-96236195D01*
X152008448Y-96263804D01*
X152012555Y-96264621D01*
X152011133Y-96271768D01*
X152011133Y-96271769D01*
X152007652Y-96289272D01*
X151999500Y-96330253D01*
X151999500Y-96669746D01*
X152012555Y-96735379D01*
X152008448Y-96736195D01*
X152008448Y-96763804D01*
X152012555Y-96764621D01*
X151999500Y-96830253D01*
X151999500Y-97169746D01*
X152011133Y-97228232D01*
X152022948Y-97245913D01*
X152055448Y-97294552D01*
X152094250Y-97320479D01*
X152121767Y-97338866D01*
X152121768Y-97338866D01*
X152121769Y-97338867D01*
X152180252Y-97350500D01*
X152930233Y-97350500D01*
X152982559Y-97372174D01*
X153147016Y-97536631D01*
X153168690Y-97588957D01*
X153147016Y-97641283D01*
X153094690Y-97662957D01*
X153080254Y-97661535D01*
X153019748Y-97649500D01*
X152180252Y-97649500D01*
X152151010Y-97655316D01*
X152121767Y-97661133D01*
X152055449Y-97705447D01*
X152055447Y-97705449D01*
X152011133Y-97771767D01*
X152003377Y-97810757D01*
X151999500Y-97830252D01*
X151999500Y-98169748D01*
X152009639Y-98220718D01*
X152012555Y-98235379D01*
X152008448Y-98236195D01*
X152008448Y-98263804D01*
X152012555Y-98264621D01*
X152011133Y-98271768D01*
X152011133Y-98271769D01*
X152007652Y-98289272D01*
X151999500Y-98330253D01*
X151999500Y-98669746D01*
X152012555Y-98735379D01*
X152008448Y-98736195D01*
X152008448Y-98763804D01*
X152012555Y-98764621D01*
X151999500Y-98830253D01*
X151999500Y-99169746D01*
X152012555Y-99235379D01*
X152008448Y-99236195D01*
X152008448Y-99263804D01*
X152012555Y-99264621D01*
X152011133Y-99271768D01*
X152011133Y-99271769D01*
X151999500Y-99330252D01*
X151999500Y-99669748D01*
X152011133Y-99728231D01*
X152012555Y-99735379D01*
X152008448Y-99736195D01*
X152008448Y-99763804D01*
X152012555Y-99764621D01*
X152011133Y-99771768D01*
X152011133Y-99771769D01*
X151999500Y-99830252D01*
X151999500Y-100169748D01*
X152009639Y-100220718D01*
X152012555Y-100235379D01*
X152008448Y-100236195D01*
X152008448Y-100263804D01*
X152012555Y-100264621D01*
X152011133Y-100271768D01*
X152011133Y-100271769D01*
X152007652Y-100289272D01*
X151999500Y-100330253D01*
X151999500Y-100669746D01*
X152012555Y-100735379D01*
X152008448Y-100736195D01*
X152008448Y-100763804D01*
X152012555Y-100764621D01*
X151999500Y-100830253D01*
X151999500Y-101169746D01*
X152012555Y-101235379D01*
X152008448Y-101236195D01*
X152008448Y-101263804D01*
X152012555Y-101264621D01*
X151999500Y-101330253D01*
X151999500Y-101669746D01*
X152011133Y-101728232D01*
X152022948Y-101745913D01*
X152055448Y-101794552D01*
X152094127Y-101820397D01*
X152121767Y-101838866D01*
X152121768Y-101838866D01*
X152121769Y-101838867D01*
X152180252Y-101850500D01*
X152180254Y-101850500D01*
X153019746Y-101850500D01*
X153019748Y-101850500D01*
X153078231Y-101838867D01*
X153144552Y-101794552D01*
X153144551Y-101794552D01*
X153150612Y-101790503D01*
X153152221Y-101792911D01*
X153194256Y-101775500D01*
X153255233Y-101775500D01*
X153307559Y-101797174D01*
X153508558Y-101998174D01*
X153530232Y-102050500D01*
X153508558Y-102102826D01*
X153456232Y-102124500D01*
X153245200Y-102124500D01*
X153173598Y-102154158D01*
X153144825Y-102166076D01*
X153088188Y-102166076D01*
X153081378Y-102162436D01*
X153078232Y-102161133D01*
X153043165Y-102154158D01*
X153019748Y-102149500D01*
X152180252Y-102149500D01*
X152156835Y-102154158D01*
X152121767Y-102161133D01*
X152055449Y-102205447D01*
X152055447Y-102205449D01*
X152011133Y-102271767D01*
X152003377Y-102310757D01*
X151999500Y-102330252D01*
X151999500Y-102669748D01*
X152011133Y-102728231D01*
X152012555Y-102735379D01*
X152008448Y-102736195D01*
X152008448Y-102763804D01*
X152012555Y-102764621D01*
X152011133Y-102771768D01*
X152011133Y-102771769D01*
X152001188Y-102821769D01*
X151999500Y-102830253D01*
X151999500Y-103169746D01*
X152012555Y-103235379D01*
X152008448Y-103236195D01*
X152008448Y-103263804D01*
X152012555Y-103264621D01*
X152011133Y-103271768D01*
X152011133Y-103271769D01*
X151999500Y-103330252D01*
X151999500Y-103669748D01*
X152011133Y-103728231D01*
X152012555Y-103735379D01*
X152008448Y-103736195D01*
X152008448Y-103763804D01*
X152012555Y-103764621D01*
X152011133Y-103771768D01*
X152011133Y-103771769D01*
X151999500Y-103830252D01*
X151999500Y-104169748D01*
X152009639Y-104220718D01*
X152012555Y-104235379D01*
X152008448Y-104236195D01*
X152008448Y-104263804D01*
X152012555Y-104264621D01*
X152011133Y-104271768D01*
X152011133Y-104271769D01*
X151999500Y-104330252D01*
X151999500Y-104669748D01*
X152011133Y-104728231D01*
X152012555Y-104735379D01*
X152008448Y-104736195D01*
X152008448Y-104763804D01*
X152012555Y-104764621D01*
X152011133Y-104771768D01*
X152011133Y-104771769D01*
X152001188Y-104821769D01*
X151999500Y-104830253D01*
X151999500Y-105169746D01*
X152012555Y-105235379D01*
X152008448Y-105236195D01*
X152008448Y-105263804D01*
X152012555Y-105264621D01*
X152011133Y-105271768D01*
X152011133Y-105271769D01*
X151999500Y-105330252D01*
X151999500Y-105669748D01*
X152011133Y-105728231D01*
X152012555Y-105735379D01*
X152008448Y-105736195D01*
X152008448Y-105763804D01*
X152012555Y-105764621D01*
X152011133Y-105771768D01*
X152011133Y-105771769D01*
X151999500Y-105830252D01*
X151999500Y-106169748D01*
X152001397Y-106179283D01*
X152011133Y-106228232D01*
X152022948Y-106245913D01*
X152055448Y-106294552D01*
X152094250Y-106320479D01*
X152121767Y-106338866D01*
X152121768Y-106338866D01*
X152121769Y-106338867D01*
X152180252Y-106350500D01*
X152180254Y-106350500D01*
X153019746Y-106350500D01*
X153019748Y-106350500D01*
X153078231Y-106338867D01*
X153144552Y-106294552D01*
X153144551Y-106294552D01*
X153150612Y-106290503D01*
X153152221Y-106292911D01*
X153194256Y-106275500D01*
X153256232Y-106275500D01*
X153308558Y-106297174D01*
X153330232Y-106349500D01*
X153308558Y-106401826D01*
X153081943Y-106628440D01*
X153029617Y-106650114D01*
X153022364Y-106649758D01*
X153019750Y-106649500D01*
X153019748Y-106649500D01*
X152180252Y-106649500D01*
X152151010Y-106655316D01*
X152121767Y-106661133D01*
X152055449Y-106705447D01*
X152055447Y-106705449D01*
X152011133Y-106771767D01*
X152003377Y-106810757D01*
X151999500Y-106830252D01*
X151999500Y-107169748D01*
X152011133Y-107228231D01*
X152012555Y-107235379D01*
X152008448Y-107236195D01*
X152008448Y-107263804D01*
X152012555Y-107264621D01*
X152011133Y-107271768D01*
X152011133Y-107271769D01*
X151999500Y-107330252D01*
X151999500Y-107669748D01*
X152009445Y-107719746D01*
X152012555Y-107735379D01*
X152008448Y-107736195D01*
X152008448Y-107763804D01*
X152012555Y-107764621D01*
X152011133Y-107771768D01*
X152011133Y-107771769D01*
X151999500Y-107830252D01*
X151999500Y-108169748D01*
X152011061Y-108227867D01*
X152012555Y-108235379D01*
X152008448Y-108236195D01*
X152008448Y-108263804D01*
X152012555Y-108264621D01*
X152011133Y-108271768D01*
X152011133Y-108271769D01*
X151999500Y-108330252D01*
X151999500Y-108669748D01*
X152009445Y-108719746D01*
X152012555Y-108735379D01*
X152008448Y-108736195D01*
X152008448Y-108763804D01*
X152012555Y-108764621D01*
X152011133Y-108771768D01*
X152011133Y-108771769D01*
X151999500Y-108830252D01*
X151999500Y-109169748D01*
X152000902Y-109176795D01*
X152012555Y-109235379D01*
X152008448Y-109236195D01*
X152008448Y-109263804D01*
X152012555Y-109264621D01*
X152011133Y-109271768D01*
X152011133Y-109271769D01*
X151999500Y-109330252D01*
X151999500Y-109669748D01*
X152000630Y-109675428D01*
X152012555Y-109735379D01*
X152008448Y-109736195D01*
X152008448Y-109763804D01*
X152012555Y-109764621D01*
X152011133Y-109771768D01*
X152011133Y-109771769D01*
X151999500Y-109830252D01*
X151999500Y-110169748D01*
X152001497Y-110179786D01*
X152012555Y-110235379D01*
X152008448Y-110236195D01*
X152008448Y-110263804D01*
X152012555Y-110264621D01*
X152011133Y-110271768D01*
X152011133Y-110271769D01*
X151999500Y-110330252D01*
X151999500Y-110669748D01*
X152006429Y-110704582D01*
X152011133Y-110728232D01*
X152014692Y-110733558D01*
X152055448Y-110794552D01*
X152067683Y-110802727D01*
X152121767Y-110838866D01*
X152121768Y-110838866D01*
X152121769Y-110838867D01*
X152180252Y-110850500D01*
X152180254Y-110850500D01*
X153019746Y-110850500D01*
X153019748Y-110850500D01*
X153078231Y-110838867D01*
X153144552Y-110794552D01*
X153145759Y-110792744D01*
X153149105Y-110789998D01*
X153149706Y-110789398D01*
X153149765Y-110789457D01*
X153178972Y-110765487D01*
X153226228Y-110745913D01*
X153256058Y-110733557D01*
X153333557Y-110656058D01*
X153333556Y-110656058D01*
X155292442Y-108697174D01*
X155344768Y-108675500D01*
X155835500Y-108675500D01*
X155887826Y-108697174D01*
X155909500Y-108749500D01*
X155909500Y-108910727D01*
X155909501Y-108910732D01*
X155921713Y-108972133D01*
X155968238Y-109041762D01*
X156037867Y-109088287D01*
X156099267Y-109100500D01*
X156150501Y-109100499D01*
X156172173Y-109109476D01*
X156202825Y-109122172D01*
X156202826Y-109122173D01*
X156215521Y-109152824D01*
X156224029Y-109173363D01*
X156224500Y-109174499D01*
X156224500Y-109178455D01*
X156202826Y-109230781D01*
X156179520Y-109254086D01*
X156126795Y-109345408D01*
X156126791Y-109345417D01*
X156099500Y-109447270D01*
X156099500Y-110553455D01*
X156077826Y-110605781D01*
X154705781Y-111977826D01*
X154653455Y-111999500D01*
X154444621Y-111999500D01*
X154392295Y-111977826D01*
X154350404Y-111935935D01*
X154243173Y-111885932D01*
X154243171Y-111885931D01*
X154207178Y-111881193D01*
X154194316Y-111879500D01*
X153845684Y-111879500D01*
X153834318Y-111880996D01*
X153796828Y-111885931D01*
X153689595Y-111935935D01*
X153623870Y-112001660D01*
X153571543Y-112023334D01*
X153519218Y-112001660D01*
X153512004Y-111993277D01*
X153446065Y-111903935D01*
X153446064Y-111903934D01*
X153340556Y-111826064D01*
X153216791Y-111782757D01*
X153216786Y-111782756D01*
X153187388Y-111780000D01*
X153100000Y-111780000D01*
X153100000Y-113020000D01*
X153187387Y-113020000D01*
X153187388Y-113019999D01*
X153216786Y-113017243D01*
X153216791Y-113017242D01*
X153340556Y-112973935D01*
X153446064Y-112896065D01*
X153446065Y-112896064D01*
X153512004Y-112806722D01*
X153514721Y-112805084D01*
X153515730Y-112802077D01*
X153538611Y-112790689D01*
X153560515Y-112777491D01*
X153563595Y-112778255D01*
X153566435Y-112776842D01*
X153583203Y-112783118D01*
X153615487Y-112791125D01*
X153620132Y-112794851D01*
X153622063Y-112796532D01*
X153689596Y-112864065D01*
X153711224Y-112874150D01*
X153719088Y-112880996D01*
X153727412Y-112897722D01*
X153740037Y-112911499D01*
X153743201Y-112929448D01*
X153744323Y-112931701D01*
X153743848Y-112933115D01*
X153744500Y-112936810D01*
X153744500Y-113901455D01*
X153722826Y-113953781D01*
X153699520Y-113977086D01*
X153646795Y-114068408D01*
X153646791Y-114068417D01*
X153619500Y-114170270D01*
X153619500Y-114275729D01*
X153646791Y-114377582D01*
X153646792Y-114377585D01*
X153646793Y-114377587D01*
X153699520Y-114468913D01*
X153774087Y-114543480D01*
X153865413Y-114596207D01*
X153967270Y-114623499D01*
X153967271Y-114623500D01*
X153967273Y-114623500D01*
X154072729Y-114623500D01*
X154072729Y-114623499D01*
X154174587Y-114596207D01*
X154265913Y-114543480D01*
X154340480Y-114468913D01*
X154393207Y-114377587D01*
X154420499Y-114275729D01*
X154420500Y-114275729D01*
X154420500Y-114170271D01*
X154420499Y-114170270D01*
X154393208Y-114068417D01*
X154393207Y-114068413D01*
X154340480Y-113977087D01*
X154317174Y-113953781D01*
X154295500Y-113901455D01*
X154295500Y-112936810D01*
X154317174Y-112884484D01*
X154322257Y-112879853D01*
X154329589Y-112873770D01*
X154350404Y-112864065D01*
X154394727Y-112819741D01*
X154397378Y-112817543D01*
X154421398Y-112810119D01*
X154444621Y-112800500D01*
X154902726Y-112800500D01*
X154902727Y-112800500D01*
X155004588Y-112773207D01*
X155095913Y-112720480D01*
X156820480Y-110995913D01*
X156846699Y-110950500D01*
X156873207Y-110904587D01*
X156900499Y-110802729D01*
X156900500Y-110802729D01*
X156900500Y-109447271D01*
X156900499Y-109447270D01*
X156880654Y-109373208D01*
X156873207Y-109345413D01*
X156820480Y-109254087D01*
X156797174Y-109230781D01*
X156775500Y-109178455D01*
X156775500Y-109170227D01*
X156797174Y-109117901D01*
X156835065Y-109097649D01*
X156882131Y-109088288D01*
X156882132Y-109088287D01*
X156882133Y-109088287D01*
X156951762Y-109041762D01*
X156998287Y-108972133D01*
X157005418Y-108936282D01*
X158890000Y-108936282D01*
X158893007Y-108962206D01*
X158939821Y-109068227D01*
X159021772Y-109150178D01*
X159127793Y-109196992D01*
X159153718Y-109200000D01*
X159440000Y-109200000D01*
X159640000Y-109200000D01*
X159926282Y-109200000D01*
X159952206Y-109196992D01*
X160058227Y-109150178D01*
X160140178Y-109068227D01*
X160186992Y-108962206D01*
X160190000Y-108936282D01*
X160190000Y-108900000D01*
X159640000Y-108900000D01*
X159640000Y-109200000D01*
X159440000Y-109200000D01*
X159440000Y-108900000D01*
X158890000Y-108900000D01*
X158890000Y-108936282D01*
X157005418Y-108936282D01*
X157010500Y-108910733D01*
X157010499Y-108800000D01*
X157010499Y-108689272D01*
X157010499Y-108689268D01*
X156998287Y-108627867D01*
X156998286Y-108627866D01*
X156996865Y-108620717D01*
X156998474Y-108620397D01*
X156998474Y-108579602D01*
X156996865Y-108579282D01*
X157002147Y-108552727D01*
X157010500Y-108510733D01*
X157010499Y-108289268D01*
X156998287Y-108227867D01*
X156998286Y-108227866D01*
X156996865Y-108220717D01*
X156998474Y-108220397D01*
X156998474Y-108179602D01*
X156996865Y-108179282D01*
X157001778Y-108154582D01*
X157010500Y-108110733D01*
X157010499Y-107889268D01*
X156998287Y-107827867D01*
X156998286Y-107827866D01*
X156996865Y-107820717D01*
X156998474Y-107820397D01*
X156998474Y-107779602D01*
X156996865Y-107779282D01*
X156999781Y-107764621D01*
X157010500Y-107710733D01*
X157010499Y-107489268D01*
X156998287Y-107427867D01*
X156998286Y-107427866D01*
X156996865Y-107420717D01*
X156998474Y-107420397D01*
X156998474Y-107379602D01*
X156996865Y-107379282D01*
X156998287Y-107372133D01*
X157010500Y-107310733D01*
X157010499Y-107089268D01*
X156998287Y-107027867D01*
X156998286Y-107027866D01*
X156996865Y-107020717D01*
X156998474Y-107020397D01*
X156998474Y-106979602D01*
X156996865Y-106979282D01*
X156998287Y-106972133D01*
X157010500Y-106910733D01*
X157010499Y-106689268D01*
X156998287Y-106627867D01*
X156998286Y-106627866D01*
X156996865Y-106620717D01*
X156998474Y-106620397D01*
X156998474Y-106579602D01*
X156996865Y-106579282D01*
X156998287Y-106572133D01*
X157010500Y-106510733D01*
X157010499Y-106289268D01*
X156998287Y-106227867D01*
X156998286Y-106227866D01*
X156996865Y-106220717D01*
X156998474Y-106220397D01*
X156998474Y-106179602D01*
X156996865Y-106179282D01*
X157001778Y-106154582D01*
X157010500Y-106110733D01*
X157010499Y-105889268D01*
X156998287Y-105827867D01*
X156998286Y-105827866D01*
X156996865Y-105820717D01*
X156998474Y-105820397D01*
X156998474Y-105779602D01*
X156996865Y-105779282D01*
X156999781Y-105764621D01*
X157010500Y-105710733D01*
X157010499Y-105489268D01*
X156998287Y-105427867D01*
X156998286Y-105427866D01*
X156996865Y-105420717D01*
X156998474Y-105420397D01*
X156998474Y-105379602D01*
X156996865Y-105379282D01*
X156998616Y-105370479D01*
X157010500Y-105310733D01*
X157010499Y-105089268D01*
X156998287Y-105027867D01*
X156998286Y-105027866D01*
X156996865Y-105020717D01*
X156998474Y-105020397D01*
X156998474Y-104979602D01*
X156996865Y-104979282D01*
X156998287Y-104972133D01*
X157010500Y-104910733D01*
X157010499Y-104689268D01*
X156998287Y-104627867D01*
X156998286Y-104627866D01*
X156996865Y-104620717D01*
X156998474Y-104620397D01*
X156998474Y-104579602D01*
X156996865Y-104579282D01*
X156998287Y-104572133D01*
X157010500Y-104510733D01*
X157010499Y-104289268D01*
X156998287Y-104227867D01*
X156998286Y-104227866D01*
X156996865Y-104220717D01*
X156998474Y-104220397D01*
X156998474Y-104179602D01*
X156996865Y-104179282D01*
X157001777Y-104154587D01*
X157010500Y-104110733D01*
X157010499Y-103889268D01*
X156998287Y-103827867D01*
X156998286Y-103827866D01*
X156996865Y-103820717D01*
X156998474Y-103820397D01*
X156998474Y-103779602D01*
X156996865Y-103779282D01*
X156999781Y-103764621D01*
X157010500Y-103710733D01*
X157010499Y-103489268D01*
X156998287Y-103427867D01*
X156998286Y-103427866D01*
X156996865Y-103420717D01*
X156998474Y-103420397D01*
X156998474Y-103379602D01*
X156996865Y-103379282D01*
X156998616Y-103370479D01*
X157010500Y-103310733D01*
X157010499Y-103089268D01*
X156998287Y-103027867D01*
X156998286Y-103027866D01*
X156996865Y-103020717D01*
X156998474Y-103020397D01*
X156998474Y-102979602D01*
X156996865Y-102979282D01*
X156998287Y-102972133D01*
X157010500Y-102910733D01*
X157010499Y-102689268D01*
X156998287Y-102627867D01*
X156998286Y-102627866D01*
X156996865Y-102620717D01*
X156998474Y-102620397D01*
X156998474Y-102579602D01*
X156996865Y-102579282D01*
X156998287Y-102572133D01*
X157010500Y-102510733D01*
X157010499Y-102289268D01*
X156998287Y-102227867D01*
X156998286Y-102227866D01*
X156996865Y-102220717D01*
X156998474Y-102220397D01*
X156998474Y-102179602D01*
X156996865Y-102179282D01*
X157001862Y-102154158D01*
X157010500Y-102110733D01*
X157010499Y-101889268D01*
X156998287Y-101827867D01*
X156998286Y-101827866D01*
X156996865Y-101820717D01*
X156998474Y-101820397D01*
X156998474Y-101779602D01*
X156996865Y-101779282D01*
X157003502Y-101745913D01*
X157010500Y-101710733D01*
X157010499Y-101489268D01*
X156998287Y-101427867D01*
X156998286Y-101427866D01*
X156996865Y-101420717D01*
X156998474Y-101420397D01*
X156998474Y-101379602D01*
X156996865Y-101379282D01*
X156998287Y-101372133D01*
X157010500Y-101310733D01*
X157010499Y-101089268D01*
X156998287Y-101027867D01*
X156998286Y-101027866D01*
X156996865Y-101020717D01*
X156998474Y-101020397D01*
X156998474Y-100979602D01*
X156996865Y-100979282D01*
X156998287Y-100972133D01*
X157010500Y-100910733D01*
X157010499Y-100689268D01*
X156998287Y-100627867D01*
X156998286Y-100627866D01*
X156996865Y-100620717D01*
X156998474Y-100620397D01*
X156998474Y-100579602D01*
X156996865Y-100579282D01*
X156998287Y-100572133D01*
X157010500Y-100510733D01*
X157010499Y-100289268D01*
X156998287Y-100227867D01*
X156998286Y-100227866D01*
X156996865Y-100220717D01*
X156998474Y-100220397D01*
X156998474Y-100179602D01*
X156996865Y-100179282D01*
X157001778Y-100154582D01*
X157010500Y-100110733D01*
X157010499Y-99889268D01*
X156998287Y-99827867D01*
X156998286Y-99827866D01*
X156996865Y-99820717D01*
X156998474Y-99820397D01*
X156998474Y-99779602D01*
X156996865Y-99779282D01*
X156999781Y-99764621D01*
X157010500Y-99710733D01*
X157010499Y-99489268D01*
X156998287Y-99427867D01*
X156998286Y-99427866D01*
X156996865Y-99420717D01*
X156998474Y-99420397D01*
X156998474Y-99379602D01*
X156996865Y-99379282D01*
X156998287Y-99372133D01*
X157010500Y-99310733D01*
X157010499Y-99089268D01*
X156998287Y-99027867D01*
X156998286Y-99027866D01*
X156996865Y-99020717D01*
X156998474Y-99020397D01*
X156998474Y-98979602D01*
X156996865Y-98979282D01*
X156998287Y-98972133D01*
X157010500Y-98910733D01*
X157010499Y-98689268D01*
X156998287Y-98627867D01*
X156998286Y-98627866D01*
X156996865Y-98620717D01*
X156998474Y-98620397D01*
X156998474Y-98579602D01*
X156996865Y-98579282D01*
X156998287Y-98572133D01*
X157010500Y-98510733D01*
X157010499Y-98289268D01*
X156998287Y-98227867D01*
X156998286Y-98227866D01*
X156996865Y-98220717D01*
X156998474Y-98220397D01*
X156998474Y-98179602D01*
X156996865Y-98179282D01*
X157001778Y-98154582D01*
X157010500Y-98110733D01*
X157010499Y-97889268D01*
X156998287Y-97827867D01*
X156998286Y-97827866D01*
X156996865Y-97820717D01*
X156998474Y-97820397D01*
X156998474Y-97779602D01*
X156996865Y-97779282D01*
X156998360Y-97771767D01*
X157010500Y-97710733D01*
X157010499Y-97489268D01*
X156998287Y-97427867D01*
X156998286Y-97427866D01*
X156996865Y-97420717D01*
X156998474Y-97420397D01*
X156998474Y-97379602D01*
X156996865Y-97379282D01*
X156998287Y-97372133D01*
X157010500Y-97310733D01*
X157010499Y-97089268D01*
X156998287Y-97027867D01*
X156998286Y-97027866D01*
X156996865Y-97020717D01*
X156998474Y-97020397D01*
X156998474Y-96979602D01*
X156996865Y-96979282D01*
X156998287Y-96972133D01*
X157010500Y-96910733D01*
X157010499Y-96689268D01*
X156998287Y-96627867D01*
X156998286Y-96627866D01*
X156996865Y-96620717D01*
X156998474Y-96620397D01*
X156998474Y-96579602D01*
X156996865Y-96579282D01*
X157000394Y-96561540D01*
X157010500Y-96510733D01*
X157010499Y-96289268D01*
X156998287Y-96227867D01*
X156998286Y-96227866D01*
X156996865Y-96220717D01*
X156998474Y-96220397D01*
X156998474Y-96179602D01*
X156996865Y-96179282D01*
X157001778Y-96154582D01*
X157010500Y-96110733D01*
X157010499Y-95889268D01*
X156998287Y-95827867D01*
X156998286Y-95827866D01*
X156996865Y-95820717D01*
X156998474Y-95820397D01*
X156998474Y-95779602D01*
X156996865Y-95779282D01*
X156999781Y-95764621D01*
X157010500Y-95710733D01*
X157010499Y-95489268D01*
X156998287Y-95427867D01*
X156998286Y-95427866D01*
X156996865Y-95420717D01*
X156998474Y-95420397D01*
X156998474Y-95379602D01*
X156996865Y-95379282D01*
X156998287Y-95372133D01*
X157010500Y-95310733D01*
X157010499Y-95089268D01*
X156998287Y-95027867D01*
X156951762Y-94958238D01*
X156882133Y-94911713D01*
X156820733Y-94899500D01*
X156820732Y-94899500D01*
X156809500Y-94899500D01*
X156757174Y-94877826D01*
X156735500Y-94825500D01*
X156735500Y-93921545D01*
X156757174Y-93869219D01*
X156780480Y-93845913D01*
X156833207Y-93754587D01*
X156860499Y-93652729D01*
X156860500Y-93652729D01*
X156860500Y-91536544D01*
X156882173Y-91484219D01*
X162649708Y-85716683D01*
X162702033Y-85695010D01*
X162730351Y-85700643D01*
X162781082Y-85721656D01*
X162781087Y-85721658D01*
X162926082Y-85750500D01*
X162926084Y-85750500D01*
X163073916Y-85750500D01*
X163073918Y-85750500D01*
X163184477Y-85728508D01*
X163240026Y-85739557D01*
X163271492Y-85786649D01*
X163271492Y-85815523D01*
X163249500Y-85926083D01*
X163249500Y-86073920D01*
X163249856Y-86077533D01*
X163248515Y-86077665D01*
X163238321Y-86128867D01*
X163191223Y-86160324D01*
X163146061Y-86155056D01*
X163135342Y-86150161D01*
X163135340Y-86150160D01*
X163135339Y-86150160D01*
X163000000Y-86130701D01*
X162864661Y-86150160D01*
X162864658Y-86150160D01*
X162740281Y-86206960D01*
X162695934Y-86242697D01*
X162695933Y-86242698D01*
X162242703Y-86695930D01*
X162242701Y-86695933D01*
X162221969Y-86721659D01*
X162206959Y-86740284D01*
X162206957Y-86740287D01*
X162150161Y-86864658D01*
X162150160Y-86864661D01*
X162130701Y-87000000D01*
X162150160Y-87135338D01*
X162150160Y-87135341D01*
X162206599Y-87258927D01*
X162208620Y-87315528D01*
X162191612Y-87341993D01*
X159219517Y-90314090D01*
X159166792Y-90405412D01*
X159166793Y-90405413D01*
X159139500Y-90507273D01*
X159139500Y-94752727D01*
X159158886Y-94825080D01*
X159151494Y-94881232D01*
X159122978Y-94906241D01*
X159123928Y-94907663D01*
X159048239Y-94958237D01*
X159048237Y-94958239D01*
X159001713Y-95027866D01*
X158989500Y-95089267D01*
X158989500Y-95310727D01*
X159003135Y-95379283D01*
X159001527Y-95379602D01*
X159001528Y-95420398D01*
X159003135Y-95420718D01*
X158989500Y-95489267D01*
X158989500Y-95710727D01*
X159003135Y-95779283D01*
X159001527Y-95779602D01*
X159001528Y-95820398D01*
X159003135Y-95820718D01*
X158989500Y-95889267D01*
X158989500Y-96110727D01*
X159003135Y-96179283D01*
X159001527Y-96179602D01*
X159001528Y-96220398D01*
X159003135Y-96220718D01*
X158989500Y-96289267D01*
X158989500Y-96510727D01*
X159003135Y-96579283D01*
X159001527Y-96579602D01*
X159001528Y-96620398D01*
X159003135Y-96620718D01*
X158989500Y-96689267D01*
X158989500Y-96910727D01*
X159003135Y-96979283D01*
X159001527Y-96979602D01*
X159001528Y-97020398D01*
X159003135Y-97020718D01*
X158989500Y-97089267D01*
X158989500Y-97310727D01*
X159003135Y-97379283D01*
X159001527Y-97379602D01*
X159001528Y-97420398D01*
X159003135Y-97420718D01*
X158989500Y-97489267D01*
X158989500Y-97710727D01*
X159003135Y-97779283D01*
X159001527Y-97779602D01*
X159001528Y-97820398D01*
X159003135Y-97820718D01*
X158989500Y-97889267D01*
X158989500Y-98110727D01*
X159003135Y-98179283D01*
X159001527Y-98179602D01*
X159001528Y-98220398D01*
X159003135Y-98220718D01*
X158989500Y-98289267D01*
X158989500Y-98510727D01*
X159003135Y-98579283D01*
X159001527Y-98579602D01*
X159001528Y-98620398D01*
X159003135Y-98620718D01*
X158989500Y-98689267D01*
X158989500Y-98910727D01*
X159003135Y-98979283D01*
X159001527Y-98979602D01*
X159001528Y-99020398D01*
X159003135Y-99020718D01*
X158989500Y-99089267D01*
X158989500Y-99310727D01*
X159003135Y-99379283D01*
X159001527Y-99379602D01*
X159001528Y-99420398D01*
X159003135Y-99420718D01*
X158989500Y-99489267D01*
X158989500Y-99710727D01*
X159003135Y-99779283D01*
X159001527Y-99779602D01*
X159001528Y-99820398D01*
X159003135Y-99820718D01*
X158989500Y-99889267D01*
X158989500Y-100110727D01*
X159003135Y-100179283D01*
X159001527Y-100179602D01*
X159001528Y-100220398D01*
X159003135Y-100220718D01*
X158989500Y-100289267D01*
X158989500Y-100510727D01*
X159003135Y-100579283D01*
X159001527Y-100579602D01*
X159001528Y-100620398D01*
X159003135Y-100620718D01*
X158989500Y-100689267D01*
X158989500Y-100910727D01*
X159003135Y-100979283D01*
X159001527Y-100979602D01*
X159001528Y-101020398D01*
X159003135Y-101020718D01*
X158989500Y-101089267D01*
X158989500Y-101310727D01*
X159003135Y-101379283D01*
X159001527Y-101379602D01*
X159001528Y-101420398D01*
X159003135Y-101420718D01*
X158989500Y-101489267D01*
X158989500Y-101710727D01*
X159003135Y-101779283D01*
X159001527Y-101779602D01*
X159001528Y-101820398D01*
X159003135Y-101820718D01*
X158989500Y-101889267D01*
X158989500Y-102110727D01*
X159003135Y-102179283D01*
X159001527Y-102179602D01*
X159001528Y-102220398D01*
X159003135Y-102220718D01*
X158989500Y-102289267D01*
X158989500Y-102510727D01*
X159003135Y-102579283D01*
X159001527Y-102579602D01*
X159001528Y-102620398D01*
X159003135Y-102620718D01*
X158989500Y-102689267D01*
X158989500Y-102910727D01*
X159003135Y-102979283D01*
X159001527Y-102979602D01*
X159001528Y-103020398D01*
X159003135Y-103020718D01*
X158989500Y-103089267D01*
X158989500Y-103310727D01*
X159003135Y-103379283D01*
X159001527Y-103379602D01*
X159001528Y-103420398D01*
X159003135Y-103420718D01*
X158989500Y-103489267D01*
X158989500Y-103710727D01*
X159003135Y-103779283D01*
X159001527Y-103779602D01*
X159001528Y-103820398D01*
X159003135Y-103820718D01*
X158989500Y-103889267D01*
X158989500Y-104110727D01*
X159003135Y-104179283D01*
X159001527Y-104179602D01*
X159001528Y-104220398D01*
X159003135Y-104220718D01*
X158989500Y-104289267D01*
X158989500Y-104510727D01*
X159003135Y-104579283D01*
X159001527Y-104579602D01*
X159001528Y-104620398D01*
X159003135Y-104620718D01*
X158989500Y-104689267D01*
X158989500Y-104910727D01*
X159003135Y-104979283D01*
X159001527Y-104979602D01*
X159001528Y-105020398D01*
X159003135Y-105020718D01*
X158989500Y-105089267D01*
X158989500Y-105310727D01*
X159003135Y-105379283D01*
X159001527Y-105379602D01*
X159001528Y-105420398D01*
X159003135Y-105420718D01*
X158989500Y-105489267D01*
X158989500Y-105710727D01*
X159003135Y-105779283D01*
X159001527Y-105779602D01*
X159001528Y-105820398D01*
X159003135Y-105820718D01*
X158989500Y-105889267D01*
X158989500Y-106110727D01*
X159003135Y-106179283D01*
X159001527Y-106179602D01*
X159001528Y-106220398D01*
X159003135Y-106220718D01*
X158989500Y-106289267D01*
X158989500Y-106510727D01*
X159003135Y-106579283D01*
X159001527Y-106579602D01*
X159001528Y-106620398D01*
X159003135Y-106620718D01*
X158989500Y-106689267D01*
X158989500Y-106910727D01*
X159003135Y-106979283D01*
X159001527Y-106979602D01*
X159001528Y-107020398D01*
X159003135Y-107020718D01*
X158989500Y-107089267D01*
X158989500Y-107310727D01*
X159003135Y-107379283D01*
X159001527Y-107379602D01*
X159001528Y-107420398D01*
X159003135Y-107420718D01*
X158989500Y-107489267D01*
X158989500Y-107710727D01*
X159003135Y-107779283D01*
X159001527Y-107779602D01*
X159001528Y-107820398D01*
X159003135Y-107820718D01*
X158989500Y-107889267D01*
X158989500Y-108110727D01*
X159003135Y-108179283D01*
X159001527Y-108179602D01*
X159001528Y-108220398D01*
X159003135Y-108220718D01*
X158989500Y-108289267D01*
X158989500Y-108451442D01*
X158967826Y-108503768D01*
X158939821Y-108531772D01*
X158893007Y-108637793D01*
X158890000Y-108663717D01*
X158890000Y-108700000D01*
X159170551Y-108700000D01*
X159177798Y-108700356D01*
X159179261Y-108700499D01*
X159179262Y-108700499D01*
X159179267Y-108700500D01*
X159900732Y-108700499D01*
X159900738Y-108700499D01*
X159902191Y-108700356D01*
X159909438Y-108700000D01*
X160214224Y-108700000D01*
X160225184Y-108695459D01*
X160277512Y-108717127D01*
X160402826Y-108842441D01*
X160424500Y-108894767D01*
X160424500Y-109904800D01*
X160462804Y-109997273D01*
X160466443Y-110006058D01*
X160505561Y-110045176D01*
X160507990Y-110048173D01*
X160515029Y-110071901D01*
X160524500Y-110094766D01*
X160524500Y-110127727D01*
X160538449Y-110179786D01*
X160551793Y-110229588D01*
X160551795Y-110229592D01*
X160604517Y-110320909D01*
X160604518Y-110320910D01*
X160604520Y-110320913D01*
X162039519Y-111755912D01*
X162039520Y-111755913D01*
X162114087Y-111830480D01*
X162205413Y-111883207D01*
X162307270Y-111910499D01*
X162307271Y-111910500D01*
X162307273Y-111910500D01*
X163937729Y-111910500D01*
X163937729Y-111910499D01*
X164039587Y-111883207D01*
X164130913Y-111830480D01*
X164205480Y-111755913D01*
X164258207Y-111664587D01*
X164285499Y-111562729D01*
X164285500Y-111562729D01*
X164285500Y-111457271D01*
X164285499Y-111457270D01*
X164258208Y-111355417D01*
X164258207Y-111355413D01*
X164205480Y-111264087D01*
X164130913Y-111189520D01*
X164039591Y-111136795D01*
X164039582Y-111136791D01*
X163937729Y-111109500D01*
X163937727Y-111109500D01*
X162556545Y-111109500D01*
X162504219Y-111087826D01*
X161854851Y-110438458D01*
X161170913Y-109754520D01*
X161170910Y-109754518D01*
X161170909Y-109754517D01*
X161079592Y-109701795D01*
X161079589Y-109701794D01*
X161079588Y-109701793D01*
X161079586Y-109701792D01*
X161079585Y-109701792D01*
X161030346Y-109688598D01*
X160985414Y-109654119D01*
X160975500Y-109617120D01*
X160975500Y-109043767D01*
X160997174Y-108991441D01*
X161049500Y-108969767D01*
X161101826Y-108991441D01*
X162777826Y-110667441D01*
X162798037Y-110716235D01*
X162799143Y-110716127D01*
X162799499Y-110719742D01*
X162799500Y-110719746D01*
X162799500Y-110719748D01*
X162801188Y-110728232D01*
X162811133Y-110778232D01*
X162822948Y-110795913D01*
X162855448Y-110844552D01*
X162894250Y-110870479D01*
X162921767Y-110888866D01*
X162921768Y-110888866D01*
X162921769Y-110888867D01*
X162980252Y-110900500D01*
X162980254Y-110900500D01*
X163819746Y-110900500D01*
X163819748Y-110900500D01*
X163878231Y-110888867D01*
X163944552Y-110844552D01*
X163988867Y-110778231D01*
X164000500Y-110719748D01*
X164000500Y-110380252D01*
X163988867Y-110321769D01*
X163988866Y-110321768D01*
X163987445Y-110314621D01*
X163991628Y-110313788D01*
X163991527Y-110286191D01*
X163987445Y-110285379D01*
X163991574Y-110264621D01*
X164000500Y-110219748D01*
X164000500Y-109880252D01*
X163988867Y-109821769D01*
X163988866Y-109821768D01*
X163987445Y-109814621D01*
X163991628Y-109813788D01*
X163991527Y-109786191D01*
X163987445Y-109785379D01*
X163991574Y-109764621D01*
X164000500Y-109719748D01*
X164000500Y-109380252D01*
X163988867Y-109321769D01*
X163988866Y-109321768D01*
X163987445Y-109314621D01*
X163991628Y-109313788D01*
X163991527Y-109286191D01*
X163987445Y-109285379D01*
X163991574Y-109264621D01*
X164000500Y-109219748D01*
X164000500Y-108880252D01*
X163988867Y-108821769D01*
X163988866Y-108821768D01*
X163987445Y-108814621D01*
X163991628Y-108813788D01*
X163991527Y-108786191D01*
X163987445Y-108785379D01*
X163991574Y-108764621D01*
X164000500Y-108719748D01*
X164000500Y-108380252D01*
X163988867Y-108321769D01*
X163988866Y-108321768D01*
X163987445Y-108314621D01*
X163991628Y-108313788D01*
X163991527Y-108286191D01*
X163987445Y-108285379D01*
X163991574Y-108264621D01*
X164000500Y-108219748D01*
X164000500Y-107880252D01*
X163988867Y-107821769D01*
X163988866Y-107821768D01*
X163987445Y-107814621D01*
X163991628Y-107813788D01*
X163991527Y-107786191D01*
X163987445Y-107785379D01*
X163991574Y-107764621D01*
X164000500Y-107719748D01*
X164000500Y-107380252D01*
X163988867Y-107321769D01*
X163988866Y-107321768D01*
X163987445Y-107314621D01*
X163991628Y-107313788D01*
X163991527Y-107286191D01*
X163987445Y-107285379D01*
X163991574Y-107264621D01*
X164000500Y-107219748D01*
X164000500Y-106880252D01*
X164599500Y-106880252D01*
X164599500Y-107219748D01*
X164608426Y-107264621D01*
X164612555Y-107285379D01*
X164608448Y-107286195D01*
X164608448Y-107313804D01*
X164612555Y-107314621D01*
X164611133Y-107321768D01*
X164611133Y-107321769D01*
X164599500Y-107380252D01*
X164599500Y-107719748D01*
X164608426Y-107764621D01*
X164612555Y-107785379D01*
X164608448Y-107786195D01*
X164608448Y-107813804D01*
X164612555Y-107814621D01*
X164611133Y-107821768D01*
X164611133Y-107821769D01*
X164599500Y-107880252D01*
X164599500Y-108219748D01*
X164608426Y-108264621D01*
X164612555Y-108285379D01*
X164608448Y-108286195D01*
X164608448Y-108313804D01*
X164612555Y-108314621D01*
X164611133Y-108321768D01*
X164611133Y-108321769D01*
X164599500Y-108380252D01*
X164599500Y-108719748D01*
X164608426Y-108764621D01*
X164612555Y-108785379D01*
X164608448Y-108786195D01*
X164608448Y-108813804D01*
X164612555Y-108814621D01*
X164611133Y-108821768D01*
X164611133Y-108821769D01*
X164599500Y-108880252D01*
X164599500Y-109219748D01*
X164608426Y-109264621D01*
X164612555Y-109285379D01*
X164608448Y-109286195D01*
X164608448Y-109313804D01*
X164612555Y-109314621D01*
X164611133Y-109321768D01*
X164611133Y-109321769D01*
X164599500Y-109380252D01*
X164599500Y-109719748D01*
X164608426Y-109764621D01*
X164612555Y-109785379D01*
X164608448Y-109786195D01*
X164608448Y-109813804D01*
X164612555Y-109814621D01*
X164611133Y-109821768D01*
X164611133Y-109821769D01*
X164599500Y-109880252D01*
X164599500Y-110219748D01*
X164608426Y-110264621D01*
X164612555Y-110285379D01*
X164608448Y-110286195D01*
X164608448Y-110313804D01*
X164612555Y-110314621D01*
X164611133Y-110321768D01*
X164611133Y-110321769D01*
X164599500Y-110380252D01*
X164599500Y-110719748D01*
X164601188Y-110728232D01*
X164611133Y-110778232D01*
X164622948Y-110795913D01*
X164655448Y-110844552D01*
X164694250Y-110870479D01*
X164721767Y-110888866D01*
X164721768Y-110888866D01*
X164721769Y-110888867D01*
X164780252Y-110900500D01*
X164780254Y-110900500D01*
X165619746Y-110900500D01*
X165619748Y-110900500D01*
X165678231Y-110888867D01*
X165733925Y-110851653D01*
X165750612Y-110840503D01*
X165752221Y-110842911D01*
X165794256Y-110825500D01*
X166228455Y-110825500D01*
X166280781Y-110847174D01*
X166304087Y-110870480D01*
X166395413Y-110923207D01*
X166497270Y-110950499D01*
X166497271Y-110950500D01*
X166497273Y-110950500D01*
X166602729Y-110950500D01*
X166602729Y-110950499D01*
X166704587Y-110923207D01*
X166795913Y-110870480D01*
X166870480Y-110795913D01*
X166923207Y-110704587D01*
X166950499Y-110602729D01*
X166950500Y-110602729D01*
X166950500Y-110497271D01*
X166950499Y-110497270D01*
X166923208Y-110395417D01*
X166923207Y-110395413D01*
X166870480Y-110304087D01*
X166795913Y-110229520D01*
X166752728Y-110204587D01*
X166704591Y-110176795D01*
X166704582Y-110176791D01*
X166602729Y-110149500D01*
X166602727Y-110149500D01*
X166497273Y-110149500D01*
X166395413Y-110176793D01*
X166395412Y-110176793D01*
X166393652Y-110177265D01*
X166383737Y-110175959D01*
X166374500Y-110179786D01*
X166356653Y-110172393D01*
X166337500Y-110169872D01*
X166331412Y-110161938D01*
X166322174Y-110158112D01*
X166314781Y-110140264D01*
X166303021Y-110124938D01*
X166300500Y-110105786D01*
X166300500Y-109994213D01*
X166322174Y-109941887D01*
X166374500Y-109920213D01*
X166393653Y-109922735D01*
X166395411Y-109923206D01*
X166395413Y-109923207D01*
X166497270Y-109950499D01*
X166497271Y-109950500D01*
X166497273Y-109950500D01*
X166602729Y-109950500D01*
X166602729Y-109950499D01*
X166704587Y-109923207D01*
X166795913Y-109870480D01*
X166870480Y-109795913D01*
X166923207Y-109704587D01*
X166950499Y-109602729D01*
X166950500Y-109602729D01*
X166950500Y-109497271D01*
X166950499Y-109497270D01*
X166923208Y-109395417D01*
X166923207Y-109395413D01*
X166870480Y-109304087D01*
X166795913Y-109229520D01*
X166707466Y-109178455D01*
X166704591Y-109176795D01*
X166704582Y-109176791D01*
X166602729Y-109149500D01*
X166602727Y-109149500D01*
X166524500Y-109149500D01*
X166472174Y-109127826D01*
X166450500Y-109075500D01*
X166450500Y-109021008D01*
X166472174Y-108968682D01*
X166524500Y-108947008D01*
X166543655Y-108949530D01*
X166547273Y-108950500D01*
X166652729Y-108950500D01*
X166652729Y-108950499D01*
X166754587Y-108923207D01*
X166845913Y-108870480D01*
X166920480Y-108795913D01*
X166973207Y-108704587D01*
X167000499Y-108602729D01*
X167000500Y-108602729D01*
X167000500Y-108497271D01*
X167000499Y-108497270D01*
X166973208Y-108395417D01*
X166973207Y-108395413D01*
X166920480Y-108304087D01*
X166845913Y-108229520D01*
X166838825Y-108225428D01*
X166754591Y-108176795D01*
X166754582Y-108176791D01*
X166652729Y-108149500D01*
X166652727Y-108149500D01*
X166547273Y-108149500D01*
X166493652Y-108163867D01*
X166483737Y-108162561D01*
X166474500Y-108166388D01*
X166456651Y-108158994D01*
X166437499Y-108156473D01*
X166431412Y-108148540D01*
X166422174Y-108144714D01*
X166414781Y-108126866D01*
X166403021Y-108111540D01*
X166400500Y-108092388D01*
X166400500Y-108007611D01*
X166422174Y-107955285D01*
X166474500Y-107933611D01*
X166493653Y-107936133D01*
X166524960Y-107944521D01*
X166547270Y-107950499D01*
X166547271Y-107950500D01*
X166547273Y-107950500D01*
X166652729Y-107950500D01*
X166652729Y-107950499D01*
X166754587Y-107923207D01*
X166845913Y-107870480D01*
X166920480Y-107795913D01*
X166973207Y-107704587D01*
X167000499Y-107602729D01*
X167000500Y-107602729D01*
X167000500Y-107497271D01*
X167000499Y-107497270D01*
X166973208Y-107395417D01*
X166973207Y-107395413D01*
X166920480Y-107304087D01*
X166845913Y-107229520D01*
X166802728Y-107204587D01*
X166754591Y-107176795D01*
X166754582Y-107176791D01*
X166652729Y-107149500D01*
X166652727Y-107149500D01*
X166547273Y-107149500D01*
X166493652Y-107163867D01*
X166437499Y-107156473D01*
X166403021Y-107111540D01*
X166400500Y-107092388D01*
X166400500Y-106997271D01*
X166400499Y-106997270D01*
X166395679Y-106979283D01*
X166373207Y-106895413D01*
X166320480Y-106804087D01*
X166245913Y-106729520D01*
X166237218Y-106724500D01*
X166154591Y-106676795D01*
X166154582Y-106676791D01*
X166052729Y-106649500D01*
X166052727Y-106649500D01*
X165947273Y-106649500D01*
X165947271Y-106649500D01*
X165845417Y-106676791D01*
X165845408Y-106676795D01*
X165768006Y-106721483D01*
X165711853Y-106728875D01*
X165689894Y-106718926D01*
X165678231Y-106711133D01*
X165657895Y-106707088D01*
X165619748Y-106699500D01*
X164780252Y-106699500D01*
X164751010Y-106705316D01*
X164721767Y-106711133D01*
X164655449Y-106755447D01*
X164655447Y-106755449D01*
X164611133Y-106821767D01*
X164609445Y-106830253D01*
X164599500Y-106880252D01*
X164000500Y-106880252D01*
X163988867Y-106821769D01*
X163944552Y-106755448D01*
X163905749Y-106729520D01*
X163878232Y-106711133D01*
X163878233Y-106711133D01*
X163848989Y-106705316D01*
X163819748Y-106699500D01*
X163819746Y-106699500D01*
X163019768Y-106699500D01*
X162967442Y-106677826D01*
X162741442Y-106451826D01*
X162719768Y-106399500D01*
X162741442Y-106347174D01*
X162793768Y-106325500D01*
X162805744Y-106325500D01*
X162847778Y-106342911D01*
X162849388Y-106340503D01*
X162921767Y-106388866D01*
X162921768Y-106388866D01*
X162921769Y-106388867D01*
X162980252Y-106400500D01*
X162980254Y-106400500D01*
X163819746Y-106400500D01*
X163819748Y-106400500D01*
X163878231Y-106388867D01*
X163944552Y-106344552D01*
X163988867Y-106278231D01*
X164000500Y-106219748D01*
X164000500Y-105880252D01*
X163988867Y-105821769D01*
X163988866Y-105821768D01*
X163987445Y-105814621D01*
X163991628Y-105813788D01*
X163991527Y-105786191D01*
X163987445Y-105785379D01*
X163991574Y-105764621D01*
X164000500Y-105719748D01*
X164000500Y-105380252D01*
X163988867Y-105321769D01*
X163988866Y-105321768D01*
X163987445Y-105314621D01*
X163991628Y-105313788D01*
X163991527Y-105286191D01*
X163987445Y-105285379D01*
X163991574Y-105264621D01*
X164000500Y-105219748D01*
X164000500Y-104880252D01*
X163988867Y-104821769D01*
X163988866Y-104821768D01*
X163987445Y-104814621D01*
X163991628Y-104813788D01*
X163991527Y-104786191D01*
X163987445Y-104785379D01*
X163991574Y-104764621D01*
X164000500Y-104719748D01*
X164000500Y-104380252D01*
X163988867Y-104321769D01*
X163988866Y-104321768D01*
X163987445Y-104314621D01*
X163991628Y-104313788D01*
X163991527Y-104286191D01*
X163987445Y-104285379D01*
X163991574Y-104264621D01*
X164000500Y-104219748D01*
X164000500Y-103880252D01*
X163988867Y-103821769D01*
X163988866Y-103821768D01*
X163987445Y-103814621D01*
X163991628Y-103813788D01*
X163991527Y-103786191D01*
X163987445Y-103785379D01*
X163991574Y-103764621D01*
X164000500Y-103719748D01*
X164000500Y-103380252D01*
X163988867Y-103321769D01*
X163988866Y-103321768D01*
X163987445Y-103314621D01*
X163991628Y-103313788D01*
X163991527Y-103286191D01*
X163987445Y-103285379D01*
X163991574Y-103264621D01*
X164000500Y-103219748D01*
X164000500Y-102880252D01*
X163988867Y-102821769D01*
X163988866Y-102821768D01*
X163987445Y-102814621D01*
X163991628Y-102813788D01*
X163991527Y-102786191D01*
X163987445Y-102785379D01*
X163991574Y-102764621D01*
X164000500Y-102719748D01*
X164000500Y-102380252D01*
X164599500Y-102380252D01*
X164599500Y-102719748D01*
X164608426Y-102764621D01*
X164612555Y-102785379D01*
X164608448Y-102786195D01*
X164608448Y-102813804D01*
X164612555Y-102814621D01*
X164611133Y-102821768D01*
X164611133Y-102821769D01*
X164599500Y-102880252D01*
X164599500Y-103219748D01*
X164608426Y-103264621D01*
X164612555Y-103285379D01*
X164608448Y-103286195D01*
X164608448Y-103313804D01*
X164612555Y-103314621D01*
X164611133Y-103321768D01*
X164611133Y-103321769D01*
X164599500Y-103380252D01*
X164599500Y-103719748D01*
X164608426Y-103764621D01*
X164612555Y-103785379D01*
X164608448Y-103786195D01*
X164608448Y-103813804D01*
X164612555Y-103814621D01*
X164611133Y-103821768D01*
X164611133Y-103821769D01*
X164599500Y-103880252D01*
X164599500Y-104219748D01*
X164608426Y-104264621D01*
X164612555Y-104285379D01*
X164608448Y-104286195D01*
X164608448Y-104313804D01*
X164612555Y-104314621D01*
X164611133Y-104321768D01*
X164611133Y-104321769D01*
X164599500Y-104380252D01*
X164599500Y-104719748D01*
X164608426Y-104764621D01*
X164612555Y-104785379D01*
X164608448Y-104786195D01*
X164608448Y-104813804D01*
X164612555Y-104814621D01*
X164611133Y-104821768D01*
X164611133Y-104821769D01*
X164599500Y-104880252D01*
X164599500Y-105219748D01*
X164608426Y-105264621D01*
X164612555Y-105285379D01*
X164608448Y-105286195D01*
X164608448Y-105313804D01*
X164612555Y-105314621D01*
X164611133Y-105321768D01*
X164611133Y-105321769D01*
X164599500Y-105380252D01*
X164599500Y-105719748D01*
X164608426Y-105764621D01*
X164612555Y-105785379D01*
X164608448Y-105786195D01*
X164608448Y-105813804D01*
X164612555Y-105814621D01*
X164611133Y-105821768D01*
X164611133Y-105821769D01*
X164599500Y-105880252D01*
X164599500Y-106219748D01*
X164601188Y-106228232D01*
X164611133Y-106278232D01*
X164639363Y-106320479D01*
X164655448Y-106344552D01*
X164664350Y-106350500D01*
X164721767Y-106388866D01*
X164721768Y-106388866D01*
X164721769Y-106388867D01*
X164780252Y-106400500D01*
X164780254Y-106400500D01*
X165619746Y-106400500D01*
X165619748Y-106400500D01*
X165678231Y-106388867D01*
X165721075Y-106360238D01*
X165750612Y-106340503D01*
X165752221Y-106342911D01*
X165794256Y-106325500D01*
X166228455Y-106325500D01*
X166280781Y-106347174D01*
X166304087Y-106370480D01*
X166395413Y-106423207D01*
X166497270Y-106450499D01*
X166497271Y-106450500D01*
X166497273Y-106450500D01*
X166602729Y-106450500D01*
X166602729Y-106450499D01*
X166704587Y-106423207D01*
X166795913Y-106370480D01*
X166870480Y-106295913D01*
X166923207Y-106204587D01*
X166950499Y-106102729D01*
X166950500Y-106102729D01*
X166950500Y-105997271D01*
X166950499Y-105997270D01*
X166923208Y-105895417D01*
X166923207Y-105895413D01*
X166870480Y-105804087D01*
X166795913Y-105729520D01*
X166752728Y-105704587D01*
X166704591Y-105676795D01*
X166704582Y-105676791D01*
X166602729Y-105649500D01*
X166602727Y-105649500D01*
X166497273Y-105649500D01*
X166443652Y-105663867D01*
X166433737Y-105662561D01*
X166424500Y-105666388D01*
X166406651Y-105658994D01*
X166387499Y-105656473D01*
X166381412Y-105648540D01*
X166372174Y-105644714D01*
X166364781Y-105626866D01*
X166353021Y-105611540D01*
X166350500Y-105592388D01*
X166350500Y-105507611D01*
X166372174Y-105455285D01*
X166424500Y-105433611D01*
X166443653Y-105436133D01*
X166474960Y-105444521D01*
X166497270Y-105450499D01*
X166497271Y-105450500D01*
X166497273Y-105450500D01*
X166602729Y-105450500D01*
X166602729Y-105450499D01*
X166704587Y-105423207D01*
X166795913Y-105370480D01*
X166870480Y-105295913D01*
X166923207Y-105204587D01*
X166950499Y-105102729D01*
X166950500Y-105102729D01*
X166950500Y-104997271D01*
X166950499Y-104997270D01*
X166945679Y-104979283D01*
X166923207Y-104895413D01*
X166870480Y-104804087D01*
X166795913Y-104729520D01*
X166752728Y-104704587D01*
X166704591Y-104676795D01*
X166704582Y-104676791D01*
X166602729Y-104649500D01*
X166602727Y-104649500D01*
X166497273Y-104649500D01*
X166443652Y-104663867D01*
X166433737Y-104662561D01*
X166424500Y-104666388D01*
X166406651Y-104658994D01*
X166387499Y-104656473D01*
X166381412Y-104648540D01*
X166372174Y-104644714D01*
X166364781Y-104626866D01*
X166353021Y-104611540D01*
X166350500Y-104592388D01*
X166350500Y-104507611D01*
X166372174Y-104455285D01*
X166424500Y-104433611D01*
X166443653Y-104436133D01*
X166474960Y-104444521D01*
X166497270Y-104450499D01*
X166497271Y-104450500D01*
X166497273Y-104450500D01*
X166602729Y-104450500D01*
X166602729Y-104450499D01*
X166704587Y-104423207D01*
X166795913Y-104370480D01*
X166870480Y-104295913D01*
X166923207Y-104204587D01*
X166950499Y-104102729D01*
X166950500Y-104102729D01*
X166950500Y-103997271D01*
X166950499Y-103997270D01*
X166923208Y-103895417D01*
X166923207Y-103895413D01*
X166870480Y-103804087D01*
X166795913Y-103729520D01*
X166752728Y-103704587D01*
X166704591Y-103676795D01*
X166704582Y-103676791D01*
X166602729Y-103649500D01*
X166602727Y-103649500D01*
X166497273Y-103649500D01*
X166443652Y-103663867D01*
X166433737Y-103662561D01*
X166424500Y-103666388D01*
X166406651Y-103658994D01*
X166387499Y-103656473D01*
X166381412Y-103648540D01*
X166372174Y-103644714D01*
X166364781Y-103626866D01*
X166353021Y-103611540D01*
X166350500Y-103592388D01*
X166350500Y-103507611D01*
X166372174Y-103455285D01*
X166424500Y-103433611D01*
X166443653Y-103436133D01*
X166474960Y-103444521D01*
X166497270Y-103450499D01*
X166497271Y-103450500D01*
X166497273Y-103450500D01*
X166602729Y-103450500D01*
X166602729Y-103450499D01*
X166704587Y-103423207D01*
X166795913Y-103370480D01*
X166870480Y-103295913D01*
X166923207Y-103204587D01*
X166950499Y-103102729D01*
X166950500Y-103102729D01*
X166950500Y-102997271D01*
X166950499Y-102997270D01*
X166945679Y-102979283D01*
X166923207Y-102895413D01*
X166870480Y-102804087D01*
X166795913Y-102729520D01*
X166752728Y-102704587D01*
X166704591Y-102676795D01*
X166704582Y-102676791D01*
X166602729Y-102649500D01*
X166602727Y-102649500D01*
X166497273Y-102649500D01*
X166443652Y-102663867D01*
X166387499Y-102656473D01*
X166353021Y-102611540D01*
X166350500Y-102592388D01*
X166350500Y-102497271D01*
X166350499Y-102497270D01*
X166323208Y-102395417D01*
X166323207Y-102395413D01*
X166270480Y-102304087D01*
X166195913Y-102229520D01*
X166187218Y-102224500D01*
X166104591Y-102176795D01*
X166104582Y-102176791D01*
X166002729Y-102149500D01*
X166002727Y-102149500D01*
X165897273Y-102149500D01*
X165897271Y-102149500D01*
X165795417Y-102176791D01*
X165795413Y-102176793D01*
X165743431Y-102206804D01*
X165687278Y-102214195D01*
X165678291Y-102211145D01*
X165657895Y-102207088D01*
X165619748Y-102199500D01*
X164780252Y-102199500D01*
X164751010Y-102205316D01*
X164721767Y-102211133D01*
X164655449Y-102255447D01*
X164655447Y-102255449D01*
X164611133Y-102321767D01*
X164609445Y-102330253D01*
X164599500Y-102380252D01*
X164000500Y-102380252D01*
X163988867Y-102321769D01*
X163944552Y-102255448D01*
X163892576Y-102220718D01*
X163878232Y-102211133D01*
X163878233Y-102211133D01*
X163848989Y-102205316D01*
X163819748Y-102199500D01*
X162980252Y-102199500D01*
X162951010Y-102205316D01*
X162921767Y-102211133D01*
X162869745Y-102245894D01*
X162814196Y-102256943D01*
X162776307Y-102236691D01*
X162639116Y-102099500D01*
X162441440Y-101901825D01*
X162419767Y-101849500D01*
X162441441Y-101797174D01*
X162493767Y-101775500D01*
X162805744Y-101775500D01*
X162847778Y-101792911D01*
X162849388Y-101790503D01*
X162921767Y-101838866D01*
X162921768Y-101838866D01*
X162921769Y-101838867D01*
X162980252Y-101850500D01*
X162980254Y-101850500D01*
X163819746Y-101850500D01*
X163819748Y-101850500D01*
X163878231Y-101838867D01*
X163944552Y-101794552D01*
X163988867Y-101728231D01*
X164000500Y-101669748D01*
X164000500Y-101330252D01*
X163988867Y-101271769D01*
X163988866Y-101271768D01*
X163987445Y-101264621D01*
X163991628Y-101263788D01*
X163991527Y-101236191D01*
X163987445Y-101235379D01*
X164000500Y-101169746D01*
X164000500Y-100830253D01*
X163987445Y-100764621D01*
X163991628Y-100763788D01*
X163991527Y-100736191D01*
X163987445Y-100735379D01*
X164000500Y-100669746D01*
X164000500Y-100330253D01*
X163992348Y-100289272D01*
X163988867Y-100271769D01*
X163988866Y-100271768D01*
X163987445Y-100264621D01*
X163991628Y-100263788D01*
X163991527Y-100236191D01*
X163987445Y-100235379D01*
X163990361Y-100220718D01*
X164000500Y-100169748D01*
X164000500Y-99830252D01*
X163988867Y-99771769D01*
X163988866Y-99771768D01*
X163987445Y-99764621D01*
X163991628Y-99763788D01*
X163991527Y-99736191D01*
X163987445Y-99735379D01*
X163988867Y-99728231D01*
X164000500Y-99669748D01*
X164000500Y-99330252D01*
X163988867Y-99271769D01*
X163988866Y-99271768D01*
X163987445Y-99264621D01*
X163991628Y-99263788D01*
X163991527Y-99236191D01*
X163987445Y-99235379D01*
X164000500Y-99169746D01*
X164000500Y-98830253D01*
X163987445Y-98764621D01*
X163991628Y-98763788D01*
X163991527Y-98736191D01*
X163987445Y-98735379D01*
X164000500Y-98669746D01*
X164000500Y-98330253D01*
X163992348Y-98289272D01*
X163988867Y-98271769D01*
X163988866Y-98271768D01*
X163987445Y-98264621D01*
X163991628Y-98263788D01*
X163991527Y-98236191D01*
X163987445Y-98235379D01*
X163990361Y-98220718D01*
X164000500Y-98169748D01*
X164000500Y-97830252D01*
X164599500Y-97830252D01*
X164599500Y-98169748D01*
X164609639Y-98220718D01*
X164612555Y-98235379D01*
X164608448Y-98236195D01*
X164608448Y-98263804D01*
X164612555Y-98264621D01*
X164611133Y-98271768D01*
X164611133Y-98271769D01*
X164607652Y-98289272D01*
X164599500Y-98330253D01*
X164599500Y-98669746D01*
X164612555Y-98735379D01*
X164608448Y-98736195D01*
X164608448Y-98763804D01*
X164612555Y-98764621D01*
X164599500Y-98830253D01*
X164599500Y-99169746D01*
X164612555Y-99235379D01*
X164608448Y-99236195D01*
X164608448Y-99263804D01*
X164612555Y-99264621D01*
X164611133Y-99271768D01*
X164611133Y-99271769D01*
X164599500Y-99330252D01*
X164599500Y-99669748D01*
X164611133Y-99728231D01*
X164612555Y-99735379D01*
X164608448Y-99736195D01*
X164608448Y-99763804D01*
X164612555Y-99764621D01*
X164611133Y-99771768D01*
X164611133Y-99771769D01*
X164599500Y-99830252D01*
X164599500Y-100169748D01*
X164609639Y-100220718D01*
X164612555Y-100235379D01*
X164608448Y-100236195D01*
X164608448Y-100263804D01*
X164612555Y-100264621D01*
X164611133Y-100271768D01*
X164611133Y-100271769D01*
X164607652Y-100289272D01*
X164599500Y-100330253D01*
X164599500Y-100669746D01*
X164612555Y-100735379D01*
X164608448Y-100736195D01*
X164608448Y-100763804D01*
X164612555Y-100764621D01*
X164599500Y-100830253D01*
X164599500Y-101169746D01*
X164612555Y-101235379D01*
X164608448Y-101236195D01*
X164608448Y-101263804D01*
X164612555Y-101264621D01*
X164599500Y-101330253D01*
X164599500Y-101669746D01*
X164611133Y-101728232D01*
X164622948Y-101745913D01*
X164655448Y-101794552D01*
X164694127Y-101820397D01*
X164721767Y-101838866D01*
X164721768Y-101838866D01*
X164721769Y-101838867D01*
X164780252Y-101850500D01*
X164780254Y-101850500D01*
X165619746Y-101850500D01*
X165619748Y-101850500D01*
X165678231Y-101838867D01*
X165744552Y-101794552D01*
X165744551Y-101794552D01*
X165750612Y-101790503D01*
X165752221Y-101792911D01*
X165794256Y-101775500D01*
X166178455Y-101775500D01*
X166230781Y-101797174D01*
X166254087Y-101820480D01*
X166345413Y-101873207D01*
X166447270Y-101900499D01*
X166447271Y-101900500D01*
X166447273Y-101900500D01*
X166552729Y-101900500D01*
X166552729Y-101900499D01*
X166654587Y-101873207D01*
X166745913Y-101820480D01*
X166820480Y-101745913D01*
X166873207Y-101654587D01*
X166900499Y-101552729D01*
X166900500Y-101552729D01*
X166900500Y-101447271D01*
X166900499Y-101447270D01*
X166880654Y-101373208D01*
X166873207Y-101345413D01*
X166820480Y-101254087D01*
X166745913Y-101179520D01*
X166702719Y-101154582D01*
X166654591Y-101126795D01*
X166654582Y-101126791D01*
X166552729Y-101099500D01*
X166552727Y-101099500D01*
X166447273Y-101099500D01*
X166393652Y-101113867D01*
X166383737Y-101112561D01*
X166374500Y-101116388D01*
X166356651Y-101108994D01*
X166337499Y-101106473D01*
X166331412Y-101098540D01*
X166322174Y-101094714D01*
X166314781Y-101076866D01*
X166303021Y-101061540D01*
X166300500Y-101042388D01*
X166300500Y-100957611D01*
X166322174Y-100905285D01*
X166374500Y-100883611D01*
X166393653Y-100886133D01*
X166424960Y-100894521D01*
X166447270Y-100900499D01*
X166447271Y-100900500D01*
X166447273Y-100900500D01*
X166552729Y-100900500D01*
X166552729Y-100900499D01*
X166654587Y-100873207D01*
X166745913Y-100820480D01*
X166820480Y-100745913D01*
X166873207Y-100654587D01*
X166900499Y-100552729D01*
X166900500Y-100552729D01*
X166900500Y-100447271D01*
X166900499Y-100447270D01*
X166880654Y-100373208D01*
X166873207Y-100345413D01*
X166820480Y-100254087D01*
X166745913Y-100179520D01*
X166702719Y-100154582D01*
X166654591Y-100126795D01*
X166654582Y-100126791D01*
X166552729Y-100099500D01*
X166552727Y-100099500D01*
X166447273Y-100099500D01*
X166393652Y-100113867D01*
X166383737Y-100112561D01*
X166374500Y-100116388D01*
X166356651Y-100108994D01*
X166337499Y-100106473D01*
X166331412Y-100098540D01*
X166322174Y-100094714D01*
X166314781Y-100076866D01*
X166303021Y-100061540D01*
X166300500Y-100042388D01*
X166300500Y-99957611D01*
X166322174Y-99905285D01*
X166374500Y-99883611D01*
X166393653Y-99886133D01*
X166424960Y-99894521D01*
X166447270Y-99900499D01*
X166447271Y-99900500D01*
X166447273Y-99900500D01*
X166552729Y-99900500D01*
X166552729Y-99900499D01*
X166654587Y-99873207D01*
X166745913Y-99820480D01*
X166820480Y-99745913D01*
X166873207Y-99654587D01*
X166900499Y-99552729D01*
X166900500Y-99552729D01*
X166900500Y-99447271D01*
X166900499Y-99447270D01*
X166880654Y-99373208D01*
X166873207Y-99345413D01*
X166820480Y-99254087D01*
X166745913Y-99179520D01*
X166702719Y-99154582D01*
X166654591Y-99126795D01*
X166654582Y-99126791D01*
X166552729Y-99099500D01*
X166552727Y-99099500D01*
X166447273Y-99099500D01*
X166393652Y-99113867D01*
X166383737Y-99112561D01*
X166374500Y-99116388D01*
X166356651Y-99108994D01*
X166337499Y-99106473D01*
X166331412Y-99098540D01*
X166322174Y-99094714D01*
X166314781Y-99076866D01*
X166303021Y-99061540D01*
X166300500Y-99042388D01*
X166300500Y-98957611D01*
X166322174Y-98905285D01*
X166374500Y-98883611D01*
X166393653Y-98886133D01*
X166424960Y-98894521D01*
X166447270Y-98900499D01*
X166447271Y-98900500D01*
X166447273Y-98900500D01*
X166552729Y-98900500D01*
X166552729Y-98900499D01*
X166654587Y-98873207D01*
X166745913Y-98820480D01*
X166820480Y-98745913D01*
X166873207Y-98654587D01*
X166900499Y-98552729D01*
X166900500Y-98552729D01*
X166900500Y-98447271D01*
X166900499Y-98447270D01*
X166880654Y-98373208D01*
X166873207Y-98345413D01*
X166820480Y-98254087D01*
X166745913Y-98179520D01*
X166702719Y-98154582D01*
X166654591Y-98126795D01*
X166654582Y-98126791D01*
X166552729Y-98099500D01*
X166552727Y-98099500D01*
X166447273Y-98099500D01*
X166393652Y-98113867D01*
X166337499Y-98106473D01*
X166303021Y-98061540D01*
X166300500Y-98042388D01*
X166300500Y-97947271D01*
X166300499Y-97947270D01*
X166284957Y-97889267D01*
X166273207Y-97845413D01*
X166220480Y-97754087D01*
X166145913Y-97679520D01*
X166114066Y-97661133D01*
X166054591Y-97626795D01*
X166054582Y-97626791D01*
X165952729Y-97599500D01*
X165952727Y-97599500D01*
X165847273Y-97599500D01*
X165847271Y-97599500D01*
X165745417Y-97626791D01*
X165745413Y-97626793D01*
X165708076Y-97648348D01*
X165656642Y-97656838D01*
X165619748Y-97649500D01*
X164780252Y-97649500D01*
X164751010Y-97655316D01*
X164721767Y-97661133D01*
X164655449Y-97705447D01*
X164655447Y-97705449D01*
X164611133Y-97771767D01*
X164603377Y-97810757D01*
X164599500Y-97830252D01*
X164000500Y-97830252D01*
X163988867Y-97771769D01*
X163944552Y-97705448D01*
X163905749Y-97679520D01*
X163878232Y-97661133D01*
X163878233Y-97661133D01*
X163848989Y-97655316D01*
X163819748Y-97649500D01*
X162980252Y-97649500D01*
X162951010Y-97655316D01*
X162921767Y-97661133D01*
X162849388Y-97709497D01*
X162847778Y-97707088D01*
X162805744Y-97724500D01*
X162043767Y-97724500D01*
X161991441Y-97702826D01*
X161969767Y-97650500D01*
X161991441Y-97598174D01*
X162292441Y-97297174D01*
X162344767Y-97275500D01*
X162805744Y-97275500D01*
X162847778Y-97292911D01*
X162849388Y-97290503D01*
X162921767Y-97338866D01*
X162921768Y-97338866D01*
X162921769Y-97338867D01*
X162980252Y-97350500D01*
X162980254Y-97350500D01*
X163819746Y-97350500D01*
X163819748Y-97350500D01*
X163878231Y-97338867D01*
X163944552Y-97294552D01*
X163988867Y-97228231D01*
X164000500Y-97169748D01*
X164000500Y-96830252D01*
X163988867Y-96771769D01*
X163988866Y-96771768D01*
X163987445Y-96764621D01*
X163991628Y-96763788D01*
X163991527Y-96736191D01*
X163987445Y-96735379D01*
X164000500Y-96669746D01*
X164000500Y-96330253D01*
X163992348Y-96289272D01*
X163988867Y-96271769D01*
X163988866Y-96271768D01*
X163987445Y-96264621D01*
X163991628Y-96263788D01*
X163991527Y-96236191D01*
X163987445Y-96235379D01*
X163990361Y-96220718D01*
X164000500Y-96169748D01*
X164000500Y-95830252D01*
X163988867Y-95771769D01*
X163988866Y-95771768D01*
X163987445Y-95764621D01*
X163991628Y-95763788D01*
X163991527Y-95736191D01*
X163987445Y-95735379D01*
X163988867Y-95728231D01*
X164000500Y-95669748D01*
X164000500Y-95330252D01*
X163988867Y-95271769D01*
X163988866Y-95271768D01*
X163987445Y-95264621D01*
X163991628Y-95263788D01*
X163991527Y-95236191D01*
X163987445Y-95235379D01*
X164000500Y-95169746D01*
X164000500Y-94830253D01*
X163987445Y-94764621D01*
X163991628Y-94763788D01*
X163991527Y-94736191D01*
X163987445Y-94735379D01*
X164000500Y-94669746D01*
X164000500Y-94330253D01*
X163987445Y-94264621D01*
X163991628Y-94263788D01*
X163991527Y-94236191D01*
X163987445Y-94235379D01*
X164000500Y-94169746D01*
X164000500Y-93830253D01*
X163987445Y-93764621D01*
X163991628Y-93763788D01*
X163991527Y-93736191D01*
X163987445Y-93735379D01*
X163999370Y-93675428D01*
X164000500Y-93669748D01*
X164000500Y-93330252D01*
X164599500Y-93330252D01*
X164599500Y-93669748D01*
X164600630Y-93675428D01*
X164612555Y-93735379D01*
X164608448Y-93736195D01*
X164608448Y-93763804D01*
X164612555Y-93764621D01*
X164599500Y-93830253D01*
X164599500Y-94169746D01*
X164612555Y-94235379D01*
X164608448Y-94236195D01*
X164608448Y-94263804D01*
X164612555Y-94264621D01*
X164599500Y-94330253D01*
X164599500Y-94669746D01*
X164612555Y-94735379D01*
X164608448Y-94736195D01*
X164608448Y-94763804D01*
X164612555Y-94764621D01*
X164599500Y-94830253D01*
X164599500Y-95169746D01*
X164612555Y-95235379D01*
X164608448Y-95236195D01*
X164608448Y-95263804D01*
X164612555Y-95264621D01*
X164611133Y-95271768D01*
X164611133Y-95271769D01*
X164599500Y-95330252D01*
X164599500Y-95669748D01*
X164611133Y-95728231D01*
X164612555Y-95735379D01*
X164608448Y-95736195D01*
X164608448Y-95763804D01*
X164612555Y-95764621D01*
X164611133Y-95771768D01*
X164611133Y-95771769D01*
X164599500Y-95830252D01*
X164599500Y-96169748D01*
X164609639Y-96220718D01*
X164612555Y-96235379D01*
X164608448Y-96236195D01*
X164608448Y-96263804D01*
X164612555Y-96264621D01*
X164611133Y-96271768D01*
X164611133Y-96271769D01*
X164607652Y-96289272D01*
X164599500Y-96330253D01*
X164599500Y-96669746D01*
X164612555Y-96735379D01*
X164608448Y-96736195D01*
X164608448Y-96763804D01*
X164612555Y-96764621D01*
X164599500Y-96830253D01*
X164599500Y-97169746D01*
X164611133Y-97228232D01*
X164622948Y-97245913D01*
X164655448Y-97294552D01*
X164694250Y-97320479D01*
X164721767Y-97338866D01*
X164721768Y-97338866D01*
X164721769Y-97338867D01*
X164780252Y-97350500D01*
X164780254Y-97350500D01*
X165619746Y-97350500D01*
X165619748Y-97350500D01*
X165678231Y-97338867D01*
X165744552Y-97294552D01*
X165744551Y-97294552D01*
X165750612Y-97290503D01*
X165752221Y-97292911D01*
X165794256Y-97275500D01*
X166178455Y-97275500D01*
X166230781Y-97297174D01*
X166254087Y-97320480D01*
X166345413Y-97373207D01*
X166447270Y-97400499D01*
X166447271Y-97400500D01*
X166447273Y-97400500D01*
X166552729Y-97400500D01*
X166552729Y-97400499D01*
X166654587Y-97373207D01*
X166745913Y-97320480D01*
X166820480Y-97245913D01*
X166873207Y-97154587D01*
X166900499Y-97052729D01*
X166900500Y-97052729D01*
X166900500Y-96947271D01*
X166900499Y-96947270D01*
X166890707Y-96910727D01*
X166873207Y-96845413D01*
X166820480Y-96754087D01*
X166745913Y-96679520D01*
X166702719Y-96654582D01*
X166654591Y-96626795D01*
X166654582Y-96626791D01*
X166552729Y-96599500D01*
X166552727Y-96599500D01*
X166447273Y-96599500D01*
X166393652Y-96613867D01*
X166383737Y-96612561D01*
X166374500Y-96616388D01*
X166356651Y-96608994D01*
X166337499Y-96606473D01*
X166331412Y-96598540D01*
X166322174Y-96594714D01*
X166314781Y-96576866D01*
X166303021Y-96561540D01*
X166300500Y-96542388D01*
X166300500Y-96457611D01*
X166322174Y-96405285D01*
X166374500Y-96383611D01*
X166393653Y-96386133D01*
X166424960Y-96394521D01*
X166447270Y-96400499D01*
X166447271Y-96400500D01*
X166447273Y-96400500D01*
X166552729Y-96400500D01*
X166552729Y-96400499D01*
X166654587Y-96373207D01*
X166745913Y-96320480D01*
X166820480Y-96245913D01*
X166873207Y-96154587D01*
X166900499Y-96052729D01*
X166900500Y-96052729D01*
X166900500Y-95947271D01*
X166900499Y-95947270D01*
X166884957Y-95889267D01*
X166873207Y-95845413D01*
X166820480Y-95754087D01*
X166745913Y-95679520D01*
X166702719Y-95654582D01*
X166654591Y-95626795D01*
X166654582Y-95626791D01*
X166552729Y-95599500D01*
X166552727Y-95599500D01*
X166447273Y-95599500D01*
X166393652Y-95613867D01*
X166383737Y-95612561D01*
X166374500Y-95616388D01*
X166356651Y-95608994D01*
X166337499Y-95606473D01*
X166331412Y-95598540D01*
X166322174Y-95594714D01*
X166314781Y-95576866D01*
X166303021Y-95561540D01*
X166300500Y-95542388D01*
X166300500Y-95471008D01*
X166322174Y-95418682D01*
X166374500Y-95397008D01*
X166393655Y-95399530D01*
X166397273Y-95400500D01*
X166502729Y-95400500D01*
X166502729Y-95400499D01*
X166604587Y-95373207D01*
X166695913Y-95320480D01*
X166770480Y-95245913D01*
X166823207Y-95154587D01*
X166850499Y-95052729D01*
X166850500Y-95052729D01*
X166850500Y-94947271D01*
X166850499Y-94947270D01*
X166839505Y-94906241D01*
X166823207Y-94845413D01*
X166770480Y-94754087D01*
X166695913Y-94679520D01*
X166652719Y-94654582D01*
X166604591Y-94626795D01*
X166604582Y-94626791D01*
X166502729Y-94599500D01*
X166502727Y-94599500D01*
X166397273Y-94599500D01*
X166343652Y-94613867D01*
X166333737Y-94612561D01*
X166324500Y-94616388D01*
X166306651Y-94608994D01*
X166287499Y-94606473D01*
X166281412Y-94598540D01*
X166272174Y-94594714D01*
X166264781Y-94576866D01*
X166253021Y-94561540D01*
X166250500Y-94542388D01*
X166250500Y-94457611D01*
X166272174Y-94405285D01*
X166324500Y-94383611D01*
X166343653Y-94386133D01*
X166374960Y-94394521D01*
X166397270Y-94400499D01*
X166397271Y-94400500D01*
X166397273Y-94400500D01*
X166502729Y-94400500D01*
X166502729Y-94400499D01*
X166604587Y-94373207D01*
X166695913Y-94320480D01*
X166770480Y-94245913D01*
X166823207Y-94154587D01*
X166850499Y-94052729D01*
X166850500Y-94052729D01*
X166850500Y-93947271D01*
X166850499Y-93947270D01*
X166823208Y-93845417D01*
X166823207Y-93845413D01*
X166770480Y-93754087D01*
X166695913Y-93679520D01*
X166649506Y-93652727D01*
X166604591Y-93626795D01*
X166604582Y-93626791D01*
X166502729Y-93599500D01*
X166502727Y-93599500D01*
X166397273Y-93599500D01*
X166343652Y-93613867D01*
X166287499Y-93606473D01*
X166253021Y-93561540D01*
X166250500Y-93542388D01*
X166250500Y-93447271D01*
X166250499Y-93447270D01*
X166250135Y-93445913D01*
X166223207Y-93345413D01*
X166170480Y-93254087D01*
X166095913Y-93179520D01*
X166064066Y-93161133D01*
X166004591Y-93126795D01*
X166004582Y-93126791D01*
X165902729Y-93099500D01*
X165902727Y-93099500D01*
X165797273Y-93099500D01*
X165797271Y-93099500D01*
X165695417Y-93126791D01*
X165695414Y-93126792D01*
X165695413Y-93126793D01*
X165670889Y-93140951D01*
X165623466Y-93148781D01*
X165623361Y-93149856D01*
X165619749Y-93149500D01*
X165619748Y-93149500D01*
X164780252Y-93149500D01*
X164753230Y-93154875D01*
X164721767Y-93161133D01*
X164655449Y-93205447D01*
X164655447Y-93205449D01*
X164611133Y-93271767D01*
X164611133Y-93271769D01*
X164599500Y-93330252D01*
X164000500Y-93330252D01*
X163988867Y-93271769D01*
X163944552Y-93205448D01*
X163905749Y-93179520D01*
X163878232Y-93161133D01*
X163878233Y-93161133D01*
X163846770Y-93154875D01*
X163819748Y-93149500D01*
X162980252Y-93149500D01*
X162953230Y-93154875D01*
X162921767Y-93161133D01*
X162849388Y-93209497D01*
X162847778Y-93207088D01*
X162805744Y-93224500D01*
X162195200Y-93224500D01*
X162127055Y-93252727D01*
X162127054Y-93252727D01*
X162093943Y-93266441D01*
X160216825Y-95143559D01*
X160164499Y-95165233D01*
X160112173Y-95143559D01*
X160091168Y-95092849D01*
X160090855Y-95092880D01*
X160090753Y-95091847D01*
X160090499Y-95091233D01*
X160090499Y-95089263D01*
X160078288Y-95027868D01*
X160042628Y-94974500D01*
X160031762Y-94958238D01*
X159962133Y-94911713D01*
X159956072Y-94907663D01*
X159957379Y-94905706D01*
X159924223Y-94872549D01*
X159921113Y-94825080D01*
X159940499Y-94752729D01*
X159940500Y-94752729D01*
X159940500Y-90756544D01*
X159962173Y-90704219D01*
X162796426Y-87869965D01*
X162848751Y-87848292D01*
X162859310Y-87849838D01*
X162859419Y-87849086D01*
X162890498Y-87853554D01*
X163000000Y-87869299D01*
X163135342Y-87849839D01*
X163259719Y-87793039D01*
X163304067Y-87757301D01*
X163757299Y-87304067D01*
X163793039Y-87259719D01*
X163849839Y-87135342D01*
X163869299Y-87000000D01*
X163849839Y-86864658D01*
X163844943Y-86853939D01*
X163842921Y-86797340D01*
X163881514Y-86755887D01*
X163922370Y-86751126D01*
X163922467Y-86750144D01*
X163926080Y-86750500D01*
X163926082Y-86750500D01*
X164073916Y-86750500D01*
X164073918Y-86750500D01*
X164218913Y-86721658D01*
X164355495Y-86665084D01*
X164478416Y-86582951D01*
X164582951Y-86478416D01*
X164665084Y-86355495D01*
X164721658Y-86218913D01*
X164750500Y-86073918D01*
X164750500Y-85926082D01*
X164721658Y-85781087D01*
X164708988Y-85750500D01*
X164665084Y-85644505D01*
X164582951Y-85521584D01*
X164478415Y-85417048D01*
X164355494Y-85334915D01*
X164218917Y-85278343D01*
X164218907Y-85278340D01*
X164121811Y-85259026D01*
X164073918Y-85249500D01*
X163926082Y-85249500D01*
X163815523Y-85271492D01*
X163759974Y-85260443D01*
X163728508Y-85213351D01*
X163728508Y-85184477D01*
X163742147Y-85115910D01*
X163750500Y-85073918D01*
X163750500Y-84926082D01*
X163721658Y-84781087D01*
X163665084Y-84644505D01*
X163582951Y-84521584D01*
X163478416Y-84417049D01*
X163355495Y-84334916D01*
X163355496Y-84334916D01*
X163355494Y-84334915D01*
X163218917Y-84278343D01*
X163218907Y-84278340D01*
X163121811Y-84259026D01*
X163073918Y-84249500D01*
X162926082Y-84249500D01*
X162884977Y-84257676D01*
X162781092Y-84278340D01*
X162781082Y-84278343D01*
X162644505Y-84334915D01*
X162521584Y-84417048D01*
X162521583Y-84417050D01*
X162417050Y-84521583D01*
X162417048Y-84521584D01*
X162334915Y-84644505D01*
X162278343Y-84781082D01*
X162278340Y-84781092D01*
X162249500Y-84926083D01*
X162249500Y-84953455D01*
X162227826Y-85005781D01*
X156139517Y-91094090D01*
X156086792Y-91185412D01*
X156086793Y-91185413D01*
X156059500Y-91287273D01*
X156059500Y-93614455D01*
X156037826Y-93666781D01*
X155985500Y-93688455D01*
X155933174Y-93666781D01*
X155322174Y-93055781D01*
X155300500Y-93003455D01*
X155300500Y-88547273D01*
X155275387Y-88453549D01*
X155273207Y-88445413D01*
X155273207Y-88445412D01*
X155246843Y-88399750D01*
X155220480Y-88354087D01*
X155145913Y-88279520D01*
X155143334Y-88276941D01*
X155143323Y-88276931D01*
X153622174Y-86755781D01*
X153600500Y-86703455D01*
X153600500Y-86620941D01*
X153600499Y-86620940D01*
X153584056Y-86559575D01*
X153559577Y-86468216D01*
X153480520Y-86331284D01*
X153368716Y-86219480D01*
X153231784Y-86140423D01*
X153231781Y-86140422D01*
X153231779Y-86140421D01*
X153115877Y-86109365D01*
X153070944Y-86074887D01*
X153063552Y-86018734D01*
X153098030Y-85973801D01*
X153112158Y-85967510D01*
X153184090Y-85944139D01*
X153260909Y-85888326D01*
X153588325Y-85560909D01*
X153644139Y-85484090D01*
X153683342Y-85363433D01*
X153683342Y-85236567D01*
X153644139Y-85115910D01*
X153613630Y-85073918D01*
X153588328Y-85039093D01*
X153260909Y-84711675D01*
X153184091Y-84655862D01*
X153184090Y-84655861D01*
X153184088Y-84655860D01*
X153184084Y-84655858D01*
X153063434Y-84616658D01*
X153063433Y-84616658D01*
X152936567Y-84616658D01*
X152936565Y-84616658D01*
X152815915Y-84655858D01*
X152815907Y-84655862D01*
X152739093Y-84711671D01*
X152411675Y-85039090D01*
X152355860Y-85115911D01*
X152355858Y-85115915D01*
X152316658Y-85236565D01*
X152316658Y-85325500D01*
X152294984Y-85377826D01*
X152242658Y-85399500D01*
X152220941Y-85399500D01*
X152068220Y-85440421D01*
X152068214Y-85440424D01*
X151931283Y-85519480D01*
X151819480Y-85631283D01*
X151740424Y-85768214D01*
X151740421Y-85768220D01*
X151699500Y-85920940D01*
X108150500Y-85920940D01*
X108150500Y-81874871D01*
X119719500Y-81874871D01*
X119719500Y-81995128D01*
X119742959Y-82113069D01*
X119742961Y-82113076D01*
X119788981Y-82224179D01*
X119788982Y-82224180D01*
X119855794Y-82324171D01*
X119940829Y-82409206D01*
X120040820Y-82476018D01*
X120151924Y-82522039D01*
X120269871Y-82545500D01*
X120269872Y-82545500D01*
X120390128Y-82545500D01*
X120390129Y-82545500D01*
X120508076Y-82522039D01*
X120619180Y-82476018D01*
X120719171Y-82409206D01*
X120804206Y-82324171D01*
X120871018Y-82224180D01*
X120917039Y-82113076D01*
X120940500Y-81995129D01*
X120940500Y-81874871D01*
X120917039Y-81756924D01*
X120871018Y-81645820D01*
X120804206Y-81545829D01*
X120719171Y-81460794D01*
X120619180Y-81393982D01*
X120619181Y-81393982D01*
X120619179Y-81393981D01*
X120508076Y-81347961D01*
X120508069Y-81347959D01*
X120419215Y-81330285D01*
X120390129Y-81324500D01*
X120269871Y-81324500D01*
X120246538Y-81329141D01*
X120151930Y-81347959D01*
X120151923Y-81347961D01*
X120040820Y-81393981D01*
X119940832Y-81460791D01*
X119855791Y-81545832D01*
X119788981Y-81645820D01*
X119742961Y-81756923D01*
X119742959Y-81756930D01*
X119719500Y-81874871D01*
X108150500Y-81874871D01*
X108150500Y-80002083D01*
X108150616Y-79997934D01*
X108158701Y-79853959D01*
X150399500Y-79853959D01*
X150399500Y-80146041D01*
X150418186Y-80311895D01*
X150432202Y-80436289D01*
X150497195Y-80721040D01*
X150497201Y-80721058D01*
X150593661Y-80996730D01*
X150720394Y-81259891D01*
X150720395Y-81259893D01*
X150875792Y-81507206D01*
X151057902Y-81735565D01*
X151264435Y-81942098D01*
X151492794Y-82124208D01*
X151740107Y-82279605D01*
X151832649Y-82324171D01*
X152003269Y-82406338D01*
X152202407Y-82476018D01*
X152278955Y-82502803D01*
X152278958Y-82502803D01*
X152278959Y-82502804D01*
X152363237Y-82522040D01*
X152563714Y-82567798D01*
X152853959Y-82600500D01*
X152853963Y-82600500D01*
X153146037Y-82600500D01*
X153146041Y-82600500D01*
X153436286Y-82567798D01*
X153721045Y-82502803D01*
X153845207Y-82459357D01*
X153996730Y-82406338D01*
X153996734Y-82406335D01*
X153996737Y-82406335D01*
X154259893Y-82279605D01*
X154507206Y-82124208D01*
X154735565Y-81942098D01*
X154942098Y-81735565D01*
X155124208Y-81507206D01*
X155279605Y-81259893D01*
X155406335Y-80996737D01*
X155406335Y-80996734D01*
X155406338Y-80996730D01*
X155459357Y-80845207D01*
X155502803Y-80721045D01*
X155567798Y-80436286D01*
X155600500Y-80146041D01*
X155600500Y-79853959D01*
X155599871Y-79848374D01*
X160300000Y-79848374D01*
X160300000Y-80151625D01*
X160333954Y-80452982D01*
X160333954Y-80452983D01*
X160401432Y-80748625D01*
X160401437Y-80748641D01*
X160501593Y-81034869D01*
X160633173Y-81308097D01*
X160794516Y-81564874D01*
X160983593Y-81801969D01*
X161020101Y-81838477D01*
X161939339Y-80919238D01*
X162080761Y-81060660D01*
X161161523Y-81979899D01*
X161198030Y-82016406D01*
X161435125Y-82205483D01*
X161691902Y-82366826D01*
X161965130Y-82498406D01*
X162251358Y-82598562D01*
X162251374Y-82598567D01*
X162547016Y-82666045D01*
X162848375Y-82700000D01*
X163151625Y-82700000D01*
X163452982Y-82666045D01*
X163452983Y-82666045D01*
X163748625Y-82598567D01*
X163748641Y-82598562D01*
X164034869Y-82498406D01*
X164308097Y-82366826D01*
X164564874Y-82205483D01*
X164801969Y-82016406D01*
X164838477Y-81979899D01*
X164733449Y-81874871D01*
X189719500Y-81874871D01*
X189719500Y-81995128D01*
X189742959Y-82113069D01*
X189742961Y-82113076D01*
X189788981Y-82224179D01*
X189788982Y-82224180D01*
X189855794Y-82324171D01*
X189940829Y-82409206D01*
X190040820Y-82476018D01*
X190151924Y-82522039D01*
X190269871Y-82545500D01*
X190269872Y-82545500D01*
X190390128Y-82545500D01*
X190390129Y-82545500D01*
X190508076Y-82522039D01*
X190619180Y-82476018D01*
X190719171Y-82409206D01*
X190804206Y-82324171D01*
X190871018Y-82224180D01*
X190917039Y-82113076D01*
X190940500Y-81995129D01*
X190940500Y-81874871D01*
X190917039Y-81756924D01*
X190871018Y-81645820D01*
X190804206Y-81545829D01*
X190719171Y-81460794D01*
X190619180Y-81393982D01*
X190619181Y-81393982D01*
X190619179Y-81393981D01*
X190508076Y-81347961D01*
X190508069Y-81347959D01*
X190419215Y-81330285D01*
X190390129Y-81324500D01*
X190269871Y-81324500D01*
X190246538Y-81329141D01*
X190151930Y-81347959D01*
X190151923Y-81347961D01*
X190040820Y-81393981D01*
X189940832Y-81460791D01*
X189855791Y-81545832D01*
X189788981Y-81645820D01*
X189742961Y-81756923D01*
X189742959Y-81756930D01*
X189719500Y-81874871D01*
X164733449Y-81874871D01*
X163919238Y-81060660D01*
X164060660Y-80919238D01*
X164979899Y-81838477D01*
X164999466Y-81818910D01*
X165016406Y-81801969D01*
X165205483Y-81564874D01*
X165366826Y-81308097D01*
X165498406Y-81034869D01*
X165598562Y-80748641D01*
X165598567Y-80748625D01*
X165666045Y-80452983D01*
X165666045Y-80452982D01*
X165700000Y-80151625D01*
X165700000Y-79848374D01*
X165666045Y-79547017D01*
X165666045Y-79547016D01*
X165598567Y-79251374D01*
X165598562Y-79251358D01*
X165498406Y-78965130D01*
X165366826Y-78691902D01*
X165205483Y-78435125D01*
X165016406Y-78198030D01*
X164979899Y-78161523D01*
X164060660Y-79080761D01*
X163919238Y-78939339D01*
X164838477Y-78020101D01*
X164801969Y-77983593D01*
X164564874Y-77794516D01*
X164308097Y-77633173D01*
X164034869Y-77501593D01*
X163748641Y-77401437D01*
X163748625Y-77401432D01*
X163452983Y-77333954D01*
X163151625Y-77300000D01*
X162848375Y-77300000D01*
X162547017Y-77333954D01*
X162547016Y-77333954D01*
X162251374Y-77401432D01*
X162251358Y-77401437D01*
X161965130Y-77501593D01*
X161691902Y-77633173D01*
X161435125Y-77794516D01*
X161198030Y-77983593D01*
X161161523Y-78020101D01*
X162080761Y-78939339D01*
X161939339Y-79080761D01*
X161020101Y-78161523D01*
X160983593Y-78198030D01*
X160794516Y-78435125D01*
X160633173Y-78691902D01*
X160501593Y-78965130D01*
X160401437Y-79251358D01*
X160401432Y-79251374D01*
X160333954Y-79547016D01*
X160333954Y-79547017D01*
X160300000Y-79848374D01*
X155599871Y-79848374D01*
X155567798Y-79563714D01*
X155502803Y-79278955D01*
X155435972Y-79087961D01*
X155406338Y-79003269D01*
X155292791Y-78767488D01*
X155279605Y-78740107D01*
X155124208Y-78492794D01*
X154942098Y-78264435D01*
X154735565Y-78057902D01*
X154735563Y-78057900D01*
X154722278Y-78047305D01*
X154722277Y-78047305D01*
X154507206Y-77875792D01*
X154259893Y-77720395D01*
X154259891Y-77720394D01*
X153996730Y-77593661D01*
X153721058Y-77497201D01*
X153721040Y-77497195D01*
X153436289Y-77432202D01*
X153311895Y-77418186D01*
X153146041Y-77399500D01*
X152853959Y-77399500D01*
X152708836Y-77415851D01*
X152563710Y-77432202D01*
X152278959Y-77497195D01*
X152278941Y-77497201D01*
X152003269Y-77593661D01*
X151740108Y-77720394D01*
X151492793Y-77875792D01*
X151264431Y-78057905D01*
X151057905Y-78264431D01*
X150875792Y-78492793D01*
X150720394Y-78740108D01*
X150593661Y-79003269D01*
X150497201Y-79278941D01*
X150497195Y-79278959D01*
X150432202Y-79563710D01*
X150413515Y-79729568D01*
X150399500Y-79853959D01*
X108158701Y-79853959D01*
X108168184Y-79685092D01*
X108169114Y-79676852D01*
X108169911Y-79672166D01*
X108221247Y-79370020D01*
X108223092Y-79361937D01*
X108309258Y-79062846D01*
X108311988Y-79055044D01*
X108431100Y-78767481D01*
X108434694Y-78760019D01*
X108585259Y-78487593D01*
X108589656Y-78480595D01*
X108769769Y-78226750D01*
X108774927Y-78220281D01*
X108982342Y-77988183D01*
X108988183Y-77982342D01*
X109220281Y-77774927D01*
X109226750Y-77769769D01*
X109480595Y-77589656D01*
X109487593Y-77585259D01*
X109760019Y-77434694D01*
X109767481Y-77431100D01*
X110055044Y-77311988D01*
X110062846Y-77309258D01*
X110361945Y-77223090D01*
X110370020Y-77221247D01*
X110676860Y-77169113D01*
X110685092Y-77168184D01*
X110997934Y-77150615D01*
X111002083Y-77150500D01*
X111034351Y-77150500D01*
X204965649Y-77150500D01*
X204997917Y-77150500D01*
X205002065Y-77150615D01*
G37*
%TD.AperFunction*%
%TD*%
M02*
