%TF.GenerationSoftware,KiCad,Pcbnew,9.0.3*%
%TF.CreationDate,2025-10-23T14:53:04-04:00*%
%TF.ProjectId,ephys-test-module-64,65706879-732d-4746-9573-742d6d6f6475,D*%
%TF.SameCoordinates,Original*%
%TF.FileFunction,Copper,L2,Bot*%
%TF.FilePolarity,Positive*%
%FSLAX46Y46*%
G04 Gerber Fmt 4.6, Leading zero omitted, Abs format (unit mm)*
G04 Created by KiCad (PCBNEW 9.0.3) date 2025-10-23 14:53:04*
%MOMM*%
%LPD*%
G01*
G04 APERTURE LIST*
G04 Aperture macros list*
%AMRoundRect*
0 Rectangle with rounded corners*
0 $1 Rounding radius*
0 $2 $3 $4 $5 $6 $7 $8 $9 X,Y pos of 4 corners*
0 Add a 4 corners polygon primitive as box body*
4,1,4,$2,$3,$4,$5,$6,$7,$8,$9,$2,$3,0*
0 Add four circle primitives for the rounded corners*
1,1,$1+$1,$2,$3*
1,1,$1+$1,$4,$5*
1,1,$1+$1,$6,$7*
1,1,$1+$1,$8,$9*
0 Add four rect primitives between the rounded corners*
20,1,$1+$1,$2,$3,$4,$5,0*
20,1,$1+$1,$4,$5,$6,$7,0*
20,1,$1+$1,$6,$7,$8,$9,0*
20,1,$1+$1,$8,$9,$2,$3,0*%
G04 Aperture macros list end*
%TA.AperFunction,ComponentPad*%
%ADD10C,4.800000*%
%TD*%
%TA.AperFunction,ComponentPad*%
%ADD11RoundRect,0.200000X-0.282843X0.000000X0.000000X-0.282843X0.282843X0.000000X0.000000X0.282843X0*%
%TD*%
%TA.AperFunction,ComponentPad*%
%ADD12C,0.800000*%
%TD*%
%TA.AperFunction,ComponentPad*%
%ADD13RoundRect,0.275000X0.388909X0.000000X0.000000X0.388909X-0.388909X0.000000X0.000000X-0.388909X0*%
%TD*%
%TA.AperFunction,ComponentPad*%
%ADD14C,1.100000*%
%TD*%
%TA.AperFunction,SMDPad,CuDef*%
%ADD15R,2.273000X0.410000*%
%TD*%
%TA.AperFunction,ViaPad*%
%ADD16C,0.400000*%
%TD*%
%TA.AperFunction,Conductor*%
%ADD17C,0.400000*%
%TD*%
%TA.AperFunction,Conductor*%
%ADD18C,0.150000*%
%TD*%
G04 APERTURE END LIST*
D10*
%TO.P,TP3,1,1*%
%TO.N,/Headstage Interface/A*%
X153000000Y-80000000D03*
%TD*%
%TO.P,TP4,1,1*%
%TO.N,GND*%
X163000000Y-80000000D03*
%TD*%
%TO.P,TP1,1,1*%
%TO.N,/Headstage Interface/E_{stim}*%
X153000000Y-134000000D03*
%TD*%
%TO.P,TP2,1,1*%
%TO.N,GND*%
X163000000Y-134000000D03*
%TD*%
D11*
%TO.P,LD1,1,A*%
%TO.N,/Headstage Interface/A*%
X153000000Y-85300000D03*
D12*
%TO.P,LD1,2,NC*%
%TO.N,unconnected-(LD1-NC-Pad2)*%
X152300000Y-86000000D03*
%TO.P,LD1,3,C*%
%TO.N,/Headstage Interface/K_{0}*%
X153000000Y-86700000D03*
%TD*%
D13*
%TO.P,LD2,1,A*%
%TO.N,/Headstage Interface/A*%
X163000000Y-87000000D03*
D14*
%TO.P,LD2,2,NC*%
%TO.N,unconnected-(LD2-NC-Pad2)*%
X164000000Y-86000000D03*
%TO.P,LD2,3,C*%
%TO.N,/Headstage Interface/K_{1}*%
X163000000Y-85000000D03*
%TD*%
D15*
%TO.P,J2,1,Pin_1*%
%TO.N,GND*%
X125863500Y-84400000D03*
%TO.P,J2,2,Pin_2*%
X120136500Y-84400000D03*
%TO.P,J2,3,Pin_3*%
X125863500Y-85200000D03*
%TO.P,J2,4,Pin_4*%
X120136500Y-85200000D03*
%TO.P,J2,5,Pin_5*%
%TO.N,/Headstage Interface/B4.E_{0}*%
X125863500Y-86000000D03*
%TO.P,J2,6,Pin_6*%
%TO.N,/Headstage Interface/B0.E_{0}*%
X120136500Y-86000000D03*
%TO.P,J2,7,Pin_7*%
%TO.N,/Headstage Interface/B4.E_{1}*%
X125863500Y-86800000D03*
%TO.P,J2,8,Pin_8*%
%TO.N,/Headstage Interface/B0.E_{1}*%
X120136500Y-86800000D03*
%TO.P,J2,9,Pin_9*%
%TO.N,/Headstage Interface/B4.E_{2}*%
X125863500Y-87600000D03*
%TO.P,J2,10,Pin_10*%
%TO.N,/Headstage Interface/B0.E_{2}*%
X120136500Y-87600000D03*
%TO.P,J2,11,Pin_11*%
%TO.N,/Headstage Interface/B4.E_{3}*%
X125863500Y-88400000D03*
%TO.P,J2,12,Pin_12*%
%TO.N,/Headstage Interface/B0.E_{3}*%
X120136500Y-88400000D03*
%TO.P,J2,13,Pin_13*%
%TO.N,/Headstage Interface/B4.E_{4}*%
X125863500Y-89200000D03*
%TO.P,J2,14,Pin_14*%
%TO.N,/Headstage Interface/B0.E_{4}*%
X120136500Y-89200000D03*
%TO.P,J2,15,Pin_15*%
%TO.N,/Headstage Interface/B4.E_{5}*%
X125863500Y-90000000D03*
%TO.P,J2,16,Pin_16*%
%TO.N,/Headstage Interface/B0.E_{5}*%
X120136500Y-90000000D03*
%TO.P,J2,17,Pin_17*%
%TO.N,/Headstage Interface/B4.E_{6}*%
X125863500Y-90800000D03*
%TO.P,J2,18,Pin_18*%
%TO.N,/Headstage Interface/B0.E_{6}*%
X120136500Y-90800000D03*
%TO.P,J2,19,Pin_19*%
%TO.N,/Headstage Interface/B4.E_{7}*%
X125863500Y-91600000D03*
%TO.P,J2,20,Pin_20*%
%TO.N,/Headstage Interface/B0.E_{7}*%
X120136500Y-91600000D03*
%TO.P,J2,21,Pin_21*%
%TO.N,GND*%
X125863500Y-92400000D03*
%TO.P,J2,22,Pin_22*%
X120136500Y-92400000D03*
%TO.P,J2,23,Pin_23*%
%TO.N,/Headstage Interface/B5.E_{0}*%
X125863500Y-93200000D03*
%TO.P,J2,24,Pin_24*%
%TO.N,/Headstage Interface/B1.E_{0}*%
X120136500Y-93200000D03*
%TO.P,J2,25,Pin_25*%
%TO.N,/Headstage Interface/B5.E_{1}*%
X125863500Y-94000000D03*
%TO.P,J2,26,Pin_26*%
%TO.N,/Headstage Interface/B1.E_{1}*%
X120136500Y-94000000D03*
%TO.P,J2,27,Pin_27*%
%TO.N,/Headstage Interface/B5.E_{2}*%
X125863500Y-94800000D03*
%TO.P,J2,28,Pin_28*%
%TO.N,/Headstage Interface/B1.E_{2}*%
X120136500Y-94800000D03*
%TO.P,J2,29,Pin_29*%
%TO.N,/Headstage Interface/B5.E_{3}*%
X125863500Y-95600000D03*
%TO.P,J2,30,Pin_30*%
%TO.N,/Headstage Interface/B1.E_{3}*%
X120136500Y-95600000D03*
%TO.P,J2,31,Pin_31*%
%TO.N,/Headstage Interface/B5.E_{4}*%
X125863500Y-96400000D03*
%TO.P,J2,32,Pin_32*%
%TO.N,/Headstage Interface/B1.E_{4}*%
X120136500Y-96400000D03*
%TO.P,J2,33,Pin_33*%
%TO.N,/Headstage Interface/B5.E_{5}*%
X125863500Y-97200000D03*
%TO.P,J2,34,Pin_34*%
%TO.N,/Headstage Interface/B1.E_{5}*%
X120136500Y-97200000D03*
%TO.P,J2,35,Pin_35*%
%TO.N,/Headstage Interface/B5.E_{6}*%
X125863500Y-98000000D03*
%TO.P,J2,36,Pin_36*%
%TO.N,/Headstage Interface/B1.E_{6}*%
X120136500Y-98000000D03*
%TO.P,J2,37,Pin_37*%
%TO.N,/Headstage Interface/B5.E_{7}*%
X125863500Y-98800000D03*
%TO.P,J2,38,Pin_38*%
%TO.N,/Headstage Interface/B1.E_{7}*%
X120136500Y-98800000D03*
%TO.P,J2,39,Pin_39*%
%TO.N,GND*%
X125863500Y-99600000D03*
%TO.P,J2,40,Pin_40*%
X120136500Y-99600000D03*
%TO.P,J2,41,Pin_41*%
%TO.N,/Headstage Interface/B6.E_{0}*%
X125863500Y-100400000D03*
%TO.P,J2,42,Pin_42*%
%TO.N,/Headstage Interface/B2.E_{0}*%
X120136500Y-100400000D03*
%TO.P,J2,43,Pin_43*%
%TO.N,/Headstage Interface/B6.E_{1}*%
X125863500Y-101200000D03*
%TO.P,J2,44,Pin_44*%
%TO.N,/Headstage Interface/B2.E_{1}*%
X120136500Y-101200000D03*
%TO.P,J2,45,Pin_45*%
%TO.N,/Headstage Interface/B6.E_{2}*%
X125863500Y-102000000D03*
%TO.P,J2,46,Pin_46*%
%TO.N,/Headstage Interface/B2.E_{2}*%
X120136500Y-102000000D03*
%TO.P,J2,47,Pin_47*%
%TO.N,/Headstage Interface/B6.E_{3}*%
X125863500Y-102800000D03*
%TO.P,J2,48,Pin_48*%
%TO.N,/Headstage Interface/B2.E_{3}*%
X120136500Y-102800000D03*
%TO.P,J2,49,Pin_49*%
%TO.N,/Headstage Interface/B6.E_{4}*%
X125863500Y-103600000D03*
%TO.P,J2,50,Pin_50*%
%TO.N,/Headstage Interface/B2.E_{4}*%
X120136500Y-103600000D03*
%TO.P,J2,51,Pin_51*%
%TO.N,/Headstage Interface/B6.E_{5}*%
X125863500Y-104400000D03*
%TO.P,J2,52,Pin_52*%
%TO.N,/Headstage Interface/B2.E_{5}*%
X120136500Y-104400000D03*
%TO.P,J2,53,Pin_53*%
%TO.N,/Headstage Interface/B6.E_{6}*%
X125863500Y-105200000D03*
%TO.P,J2,54,Pin_54*%
%TO.N,/Headstage Interface/B2.E_{6}*%
X120136500Y-105200000D03*
%TO.P,J2,55,Pin_55*%
%TO.N,/Headstage Interface/B6.E_{7}*%
X125863500Y-106000000D03*
%TO.P,J2,56,Pin_56*%
%TO.N,/Headstage Interface/B2.E_{7}*%
X120136500Y-106000000D03*
%TO.P,J2,57,Pin_57*%
%TO.N,GND*%
X125863500Y-106800000D03*
%TO.P,J2,58,Pin_58*%
X120136500Y-106800000D03*
%TO.P,J2,59,Pin_59*%
%TO.N,/Headstage Interface/B7.E_{0}*%
X125863500Y-107600000D03*
%TO.P,J2,60,Pin_60*%
%TO.N,/Headstage Interface/B3.E_{0}*%
X120136500Y-107600000D03*
%TO.P,J2,61,Pin_61*%
%TO.N,/Headstage Interface/B7.E_{1}*%
X125863500Y-108400000D03*
%TO.P,J2,62,Pin_62*%
%TO.N,/Headstage Interface/B3.E_{1}*%
X120136500Y-108400000D03*
%TO.P,J2,63,Pin_63*%
%TO.N,/Headstage Interface/B7.E_{2}*%
X125863500Y-109200000D03*
%TO.P,J2,64,Pin_64*%
%TO.N,/Headstage Interface/B3.E_{2}*%
X120136500Y-109200000D03*
%TO.P,J2,65,Pin_65*%
%TO.N,/Headstage Interface/B7.E_{3}*%
X125863500Y-110000000D03*
%TO.P,J2,66,Pin_66*%
%TO.N,/Headstage Interface/B3.E_{3}*%
X120136500Y-110000000D03*
%TO.P,J2,67,Pin_67*%
%TO.N,/Headstage Interface/B7.E_{4}*%
X125863500Y-110800000D03*
%TO.P,J2,68,Pin_68*%
%TO.N,/Headstage Interface/B3.E_{4}*%
X120136500Y-110800000D03*
%TO.P,J2,69,Pin_69*%
%TO.N,/Headstage Interface/B7.E_{5}*%
X125863500Y-111600000D03*
%TO.P,J2,70,Pin_70*%
%TO.N,/Headstage Interface/B3.E_{5}*%
X120136500Y-111600000D03*
%TO.P,J2,71,Pin_71*%
%TO.N,/Headstage Interface/B7.E_{6}*%
X125863500Y-112400000D03*
%TO.P,J2,72,Pin_72*%
%TO.N,/Headstage Interface/B3.E_{6}*%
X120136500Y-112400000D03*
%TO.P,J2,73,Pin_73*%
%TO.N,/Headstage Interface/B7.E_{7}*%
X125863500Y-113200000D03*
%TO.P,J2,74,Pin_74*%
%TO.N,/Headstage Interface/B3.E_{7}*%
X120136500Y-113200000D03*
%TO.P,J2,75,Pin_75*%
%TO.N,GND*%
X125863500Y-114000000D03*
%TO.P,J2,76,Pin_76*%
X120136500Y-114000000D03*
%TO.P,J2,77,Pin_77*%
%TO.N,/Test Signal Interface/SCL*%
X125863500Y-114800000D03*
%TO.P,J2,78,Pin_78*%
%TO.N,/Test Signal Interface/WP*%
X120136500Y-114800000D03*
%TO.P,J2,79,Pin_79*%
%TO.N,/Test Signal Interface/SDA*%
X125863500Y-115600000D03*
%TO.P,J2,80,Pin_80*%
%TO.N,VCC*%
X120136500Y-115600000D03*
%TD*%
%TO.P,J3,1,Pin_1*%
%TO.N,GND*%
X195863500Y-84400000D03*
%TO.P,J3,2,Pin_2*%
X190136500Y-84400000D03*
%TO.P,J3,3,Pin_3*%
X195863500Y-85200000D03*
%TO.P,J3,4,Pin_4*%
X190136500Y-85200000D03*
%TO.P,J3,5,Pin_5*%
%TO.N,/Headstage Interface/B12.E_{0}*%
X195863500Y-86000000D03*
%TO.P,J3,6,Pin_6*%
%TO.N,/Headstage Interface/B8.E_{0}*%
X190136500Y-86000000D03*
%TO.P,J3,7,Pin_7*%
%TO.N,/Headstage Interface/B12.E_{1}*%
X195863500Y-86800000D03*
%TO.P,J3,8,Pin_8*%
%TO.N,/Headstage Interface/B8.E_{1}*%
X190136500Y-86800000D03*
%TO.P,J3,9,Pin_9*%
%TO.N,/Headstage Interface/B12.E_{2}*%
X195863500Y-87600000D03*
%TO.P,J3,10,Pin_10*%
%TO.N,/Headstage Interface/B8.E_{2}*%
X190136500Y-87600000D03*
%TO.P,J3,11,Pin_11*%
%TO.N,/Headstage Interface/B12.E_{3}*%
X195863500Y-88400000D03*
%TO.P,J3,12,Pin_12*%
%TO.N,/Headstage Interface/B8.E_{3}*%
X190136500Y-88400000D03*
%TO.P,J3,13,Pin_13*%
%TO.N,/Headstage Interface/B12.E_{4}*%
X195863500Y-89200000D03*
%TO.P,J3,14,Pin_14*%
%TO.N,/Headstage Interface/B8.E_{4}*%
X190136500Y-89200000D03*
%TO.P,J3,15,Pin_15*%
%TO.N,/Headstage Interface/B12.E_{5}*%
X195863500Y-90000000D03*
%TO.P,J3,16,Pin_16*%
%TO.N,/Headstage Interface/B8.E_{5}*%
X190136500Y-90000000D03*
%TO.P,J3,17,Pin_17*%
%TO.N,/Headstage Interface/B12.E_{6}*%
X195863500Y-90800000D03*
%TO.P,J3,18,Pin_18*%
%TO.N,/Headstage Interface/B8.E_{6}*%
X190136500Y-90800000D03*
%TO.P,J3,19,Pin_19*%
%TO.N,/Headstage Interface/B12.E_{7}*%
X195863500Y-91600000D03*
%TO.P,J3,20,Pin_20*%
%TO.N,/Headstage Interface/B8.E_{7}*%
X190136500Y-91600000D03*
%TO.P,J3,21,Pin_21*%
%TO.N,GND*%
X195863500Y-92400000D03*
%TO.P,J3,22,Pin_22*%
X190136500Y-92400000D03*
%TO.P,J3,23,Pin_23*%
%TO.N,/Headstage Interface/B13.E_{0}*%
X195863500Y-93200000D03*
%TO.P,J3,24,Pin_24*%
%TO.N,/Headstage Interface/B9.E_{0}*%
X190136500Y-93200000D03*
%TO.P,J3,25,Pin_25*%
%TO.N,/Headstage Interface/B13.E_{1}*%
X195863500Y-94000000D03*
%TO.P,J3,26,Pin_26*%
%TO.N,/Headstage Interface/B9.E_{1}*%
X190136500Y-94000000D03*
%TO.P,J3,27,Pin_27*%
%TO.N,/Headstage Interface/B13.E_{2}*%
X195863500Y-94800000D03*
%TO.P,J3,28,Pin_28*%
%TO.N,/Headstage Interface/B9.E_{2}*%
X190136500Y-94800000D03*
%TO.P,J3,29,Pin_29*%
%TO.N,/Headstage Interface/B13.E_{3}*%
X195863500Y-95600000D03*
%TO.P,J3,30,Pin_30*%
%TO.N,/Headstage Interface/B9.E_{3}*%
X190136500Y-95600000D03*
%TO.P,J3,31,Pin_31*%
%TO.N,/Headstage Interface/B13.E_{4}*%
X195863500Y-96400000D03*
%TO.P,J3,32,Pin_32*%
%TO.N,/Headstage Interface/B9.E_{4}*%
X190136500Y-96400000D03*
%TO.P,J3,33,Pin_33*%
%TO.N,/Headstage Interface/B13.E_{5}*%
X195863500Y-97200000D03*
%TO.P,J3,34,Pin_34*%
%TO.N,/Headstage Interface/B9.E_{5}*%
X190136500Y-97200000D03*
%TO.P,J3,35,Pin_35*%
%TO.N,/Headstage Interface/B13.E_{6}*%
X195863500Y-98000000D03*
%TO.P,J3,36,Pin_36*%
%TO.N,/Headstage Interface/B9.E_{6}*%
X190136500Y-98000000D03*
%TO.P,J3,37,Pin_37*%
%TO.N,/Headstage Interface/B13.E_{7}*%
X195863500Y-98800000D03*
%TO.P,J3,38,Pin_38*%
%TO.N,/Headstage Interface/B9.E_{7}*%
X190136500Y-98800000D03*
%TO.P,J3,39,Pin_39*%
%TO.N,GND*%
X195863500Y-99600000D03*
%TO.P,J3,40,Pin_40*%
X190136500Y-99600000D03*
%TO.P,J3,41,Pin_41*%
%TO.N,/Headstage Interface/B14.E_{0}*%
X195863500Y-100400000D03*
%TO.P,J3,42,Pin_42*%
%TO.N,/Headstage Interface/B10.E_{0}*%
X190136500Y-100400000D03*
%TO.P,J3,43,Pin_43*%
%TO.N,/Headstage Interface/B14.E_{1}*%
X195863500Y-101200000D03*
%TO.P,J3,44,Pin_44*%
%TO.N,/Headstage Interface/B10.E_{1}*%
X190136500Y-101200000D03*
%TO.P,J3,45,Pin_45*%
%TO.N,/Headstage Interface/B14.E_{2}*%
X195863500Y-102000000D03*
%TO.P,J3,46,Pin_46*%
%TO.N,/Headstage Interface/B10.E_{2}*%
X190136500Y-102000000D03*
%TO.P,J3,47,Pin_47*%
%TO.N,/Headstage Interface/B14.E_{3}*%
X195863500Y-102800000D03*
%TO.P,J3,48,Pin_48*%
%TO.N,/Headstage Interface/B10.E_{3}*%
X190136500Y-102800000D03*
%TO.P,J3,49,Pin_49*%
%TO.N,/Headstage Interface/B14.E_{4}*%
X195863500Y-103600000D03*
%TO.P,J3,50,Pin_50*%
%TO.N,/Headstage Interface/B10.E_{4}*%
X190136500Y-103600000D03*
%TO.P,J3,51,Pin_51*%
%TO.N,/Headstage Interface/B14.E_{5}*%
X195863500Y-104400000D03*
%TO.P,J3,52,Pin_52*%
%TO.N,/Headstage Interface/B10.E_{5}*%
X190136500Y-104400000D03*
%TO.P,J3,53,Pin_53*%
%TO.N,/Headstage Interface/B14.E_{6}*%
X195863500Y-105200000D03*
%TO.P,J3,54,Pin_54*%
%TO.N,/Headstage Interface/B10.E_{6}*%
X190136500Y-105200000D03*
%TO.P,J3,55,Pin_55*%
%TO.N,/Headstage Interface/B14.E_{7}*%
X195863500Y-106000000D03*
%TO.P,J3,56,Pin_56*%
%TO.N,/Headstage Interface/B10.E_{7}*%
X190136500Y-106000000D03*
%TO.P,J3,57,Pin_57*%
%TO.N,GND*%
X195863500Y-106800000D03*
%TO.P,J3,58,Pin_58*%
X190136500Y-106800000D03*
%TO.P,J3,59,Pin_59*%
%TO.N,/Headstage Interface/B15.E_{0}*%
X195863500Y-107600000D03*
%TO.P,J3,60,Pin_60*%
%TO.N,/Headstage Interface/B11.E_{0}*%
X190136500Y-107600000D03*
%TO.P,J3,61,Pin_61*%
%TO.N,/Headstage Interface/B15.E_{1}*%
X195863500Y-108400000D03*
%TO.P,J3,62,Pin_62*%
%TO.N,/Headstage Interface/B11.E_{1}*%
X190136500Y-108400000D03*
%TO.P,J3,63,Pin_63*%
%TO.N,/Headstage Interface/B15.E_{2}*%
X195863500Y-109200000D03*
%TO.P,J3,64,Pin_64*%
%TO.N,/Headstage Interface/B11.E_{2}*%
X190136500Y-109200000D03*
%TO.P,J3,65,Pin_65*%
%TO.N,/Headstage Interface/B15.E_{3}*%
X195863500Y-110000000D03*
%TO.P,J3,66,Pin_66*%
%TO.N,/Headstage Interface/B11.E_{3}*%
X190136500Y-110000000D03*
%TO.P,J3,67,Pin_67*%
%TO.N,/Headstage Interface/B15.E_{4}*%
X195863500Y-110800000D03*
%TO.P,J3,68,Pin_68*%
%TO.N,/Headstage Interface/B11.E_{4}*%
X190136500Y-110800000D03*
%TO.P,J3,69,Pin_69*%
%TO.N,/Headstage Interface/B15.E_{5}*%
X195863500Y-111600000D03*
%TO.P,J3,70,Pin_70*%
%TO.N,/Headstage Interface/B11.E_{5}*%
X190136500Y-111600000D03*
%TO.P,J3,71,Pin_71*%
%TO.N,/Headstage Interface/B15.E_{6}*%
X195863500Y-112400000D03*
%TO.P,J3,72,Pin_72*%
%TO.N,/Headstage Interface/B11.E_{6}*%
X190136500Y-112400000D03*
%TO.P,J3,73,Pin_73*%
%TO.N,/Headstage Interface/B15.E_{7}*%
X195863500Y-113200000D03*
%TO.P,J3,74,Pin_74*%
%TO.N,/Headstage Interface/B11.E_{7}*%
X190136500Y-113200000D03*
%TO.P,J3,75,Pin_75*%
%TO.N,GND*%
X195863500Y-114000000D03*
%TO.P,J3,76,Pin_76*%
X190136500Y-114000000D03*
%TO.P,J3,77,Pin_77*%
%TO.N,REF*%
X195863500Y-114800000D03*
%TO.P,J3,78,Pin_78*%
%TO.N,unconnected-(J3-Pin_78-Pad78)*%
X190136500Y-114800000D03*
%TO.P,J3,79,Pin_79*%
%TO.N,unconnected-(J3-Pin_79-Pad79)*%
X195863500Y-115600000D03*
%TO.P,J3,80,Pin_80*%
%TO.N,unconnected-(J3-Pin_80-Pad80)*%
X190136500Y-115600000D03*
%TD*%
D16*
%TO.N,GND*%
X157900000Y-95700000D03*
X169600000Y-114550000D03*
X202300000Y-124800000D03*
X145300000Y-96675000D03*
X172600000Y-96800000D03*
X113500000Y-81700000D03*
X175981000Y-114462000D03*
X128900000Y-99600000D03*
X151650000Y-111800000D03*
X143250000Y-114125000D03*
X113269807Y-112500000D03*
X153400000Y-91900000D03*
X133600000Y-117000000D03*
X147500000Y-89025000D03*
X187500000Y-92500000D03*
X135000000Y-80800000D03*
X166800000Y-111700000D03*
X173525000Y-84750000D03*
X181725000Y-99675000D03*
X148400000Y-81100000D03*
X113800000Y-133900000D03*
X172997000Y-124013000D03*
X138700000Y-106800000D03*
X187200000Y-99600000D03*
X176800000Y-92450000D03*
X179700000Y-132600000D03*
X203200000Y-107500000D03*
X138400000Y-92400000D03*
X186725000Y-84675000D03*
X149375000Y-122707000D03*
X175300000Y-106800000D03*
X187500000Y-106800000D03*
X136150000Y-99625000D03*
X128900000Y-133600000D03*
X140700000Y-101750000D03*
X113100000Y-94400000D03*
X177975000Y-101725000D03*
X158000000Y-106300000D03*
X159400000Y-113200000D03*
X203000000Y-80900000D03*
X159177000Y-121916000D03*
X153800000Y-111350000D03*
X155250000Y-94650000D03*
X167975000Y-89075000D03*
X129125000Y-85075000D03*
X193900000Y-134700000D03*
X148100000Y-112900000D03*
X187904000Y-114173000D03*
X138850000Y-84475000D03*
X184300000Y-116500000D03*
X202900000Y-91100000D03*
X129000000Y-107000000D03*
X129400000Y-114750000D03*
X129000000Y-92400000D03*
X155250000Y-109400000D03*
X184900000Y-80200000D03*
X174067445Y-80221652D03*
X161900000Y-92500000D03*
X141900000Y-133000000D03*
%TO.N,VCC*%
X120800000Y-121000000D03*
X123450000Y-118350000D03*
X119700000Y-124200000D03*
X119700000Y-123700000D03*
X122200000Y-119600000D03*
%TO.N,/Headstage Interface/B7.E_{7}*%
X150100000Y-110500000D03*
%TO.N,/Headstage Interface/B5.E_{0}*%
X149450000Y-98000000D03*
%TO.N,/Headstage Interface/B5.E_{2}*%
X149450000Y-99000000D03*
%TO.N,/Headstage Interface/B7.E_{3}*%
X150050000Y-108500000D03*
%TO.N,/Headstage Interface/B7.E_{1}*%
X150050000Y-107500000D03*
%TO.N,/Headstage Interface/B5.E_{5}*%
X150050000Y-100500000D03*
%TO.N,/Headstage Interface/B4.E_{7}*%
X150050000Y-97000000D03*
%TO.N,/Headstage Interface/B4.E_{5}*%
X150050000Y-96000000D03*
%TO.N,/Headstage Interface/B4.E_{2}*%
X149500000Y-94500000D03*
%TO.N,/Headstage Interface/B6.E_{2}*%
X149450000Y-103500000D03*
%TO.N,/Headstage Interface/E_{stim}*%
X154020000Y-114223000D03*
%TO.N,/Headstage Interface/B4.E_{3}*%
X150000000Y-95000000D03*
%TO.N,/Headstage Interface/B7.E_{5}*%
X150100000Y-109500000D03*
%TO.N,/Headstage Interface/B7.E_{0}*%
X149450000Y-107000000D03*
%TO.N,/Headstage Interface/B7.E_{4}*%
X149500000Y-109000000D03*
%TO.N,/Headstage Interface/B4.E_{6}*%
X149450000Y-96500000D03*
%TO.N,/Headstage Interface/B6.E_{5}*%
X150050000Y-105000000D03*
%TO.N,/Headstage Interface/B7.E_{6}*%
X149500000Y-110000000D03*
%TO.N,/Headstage Interface/B7.E_{2}*%
X149450000Y-108000000D03*
%TO.N,/Headstage Interface/B5.E_{7}*%
X150050000Y-101500000D03*
%TO.N,/Headstage Interface/B6.E_{7}*%
X150050000Y-106000000D03*
%TO.N,/Headstage Interface/B6.E_{0}*%
X149450000Y-102500000D03*
%TO.N,/Headstage Interface/B5.E_{1}*%
X150050000Y-98500000D03*
%TO.N,/Headstage Interface/B4.E_{4}*%
X149450000Y-95500000D03*
%TO.N,/Headstage Interface/B4.E_{0}*%
X149850000Y-93200000D03*
%TO.N,REF*%
X193464000Y-115836000D03*
X188054000Y-115836000D03*
X163885000Y-111510000D03*
%TO.N,/Headstage Interface/B6.E_{6}*%
X149450000Y-105500000D03*
%TO.N,/Headstage Interface/B6.E_{1}*%
X150050000Y-103000000D03*
%TO.N,/Headstage Interface/B5.E_{6}*%
X149450000Y-101000000D03*
%TO.N,/Headstage Interface/B6.E_{4}*%
X149450000Y-104500000D03*
%TO.N,/Headstage Interface/B5.E_{4}*%
X149450000Y-100000000D03*
%TO.N,/Headstage Interface/B5.E_{3}*%
X150050000Y-99500000D03*
%TO.N,/Headstage Interface/B4.E_{1}*%
X150150000Y-94000000D03*
%TO.N,/Headstage Interface/B6.E_{3}*%
X150050000Y-104000000D03*
%TO.N,/Headstage Interface/B8.E_{2}*%
X165850000Y-94500000D03*
%TO.N,/Test Signal Interface/SDA*%
X125863500Y-116536500D03*
X125100000Y-120900000D03*
X125100000Y-119700000D03*
%TO.N,/Headstage Interface/B10.E_{4}*%
X165950000Y-104550000D03*
%TO.N,/Headstage Interface/B8.E_{7}*%
X166500000Y-97000000D03*
%TO.N,/Test Signal Interface/SCL*%
X127700000Y-115400000D03*
%TO.N,/Headstage Interface/B8.E_{3}*%
X166450000Y-95000000D03*
%TO.N,/Headstage Interface/B11.E_{5}*%
X166550000Y-109550000D03*
%TO.N,/Headstage Interface/B8.E_{4}*%
X165900000Y-95500000D03*
%TO.N,/Headstage Interface/B9.E_{1}*%
X166500000Y-98500000D03*
%TO.N,/Headstage Interface/B8.E_{0}*%
X165850000Y-93500000D03*
%TO.N,/Headstage Interface/B9.E_{0}*%
X165900000Y-98000000D03*
%TO.N,/Headstage Interface/B9.E_{5}*%
X166500000Y-100500000D03*
%TO.N,/Headstage Interface/B10.E_{3}*%
X166550000Y-104050000D03*
%TO.N,/Headstage Interface/B11.E_{4}*%
X166050000Y-109050000D03*
%TO.N,/Headstage Interface/B10.E_{1}*%
X166550000Y-103050000D03*
%TO.N,/Headstage Interface/B10.E_{2}*%
X165950000Y-103550000D03*
%TO.N,/Headstage Interface/B10.E_{7}*%
X166550000Y-106050000D03*
%TO.N,/Headstage Interface/B9.E_{3}*%
X166500000Y-99500000D03*
%TO.N,/Headstage Interface/B9.E_{4}*%
X165900000Y-100000000D03*
%TO.N,/Headstage Interface/B11.E_{0}*%
X166000000Y-107050000D03*
%TO.N,/Headstage Interface/B11.E_{6}*%
X165900000Y-110050000D03*
%TO.N,/Headstage Interface/B9.E_{6}*%
X165900000Y-101000000D03*
%TO.N,/Headstage Interface/B8.E_{1}*%
X166450000Y-94000000D03*
%TO.N,/Headstage Interface/B11.E_{1}*%
X166600000Y-107550000D03*
%TO.N,/Headstage Interface/B8.E_{6}*%
X165900000Y-96500000D03*
%TO.N,/Headstage Interface/B11.E_{3}*%
X166600000Y-108550000D03*
%TO.N,/Headstage Interface/B9.E_{7}*%
X166500000Y-101500000D03*
%TO.N,/Headstage Interface/B9.E_{2}*%
X165900000Y-99000000D03*
%TO.N,/Headstage Interface/B8.E_{5}*%
X166500000Y-96000000D03*
%TO.N,/Headstage Interface/B11.E_{7}*%
X166550000Y-110550000D03*
%TO.N,/Headstage Interface/B10.E_{6}*%
X165950000Y-105550000D03*
%TO.N,/Headstage Interface/B10.E_{0}*%
X165950000Y-102550000D03*
%TO.N,/Headstage Interface/B10.E_{5}*%
X166550000Y-105050000D03*
%TO.N,/Headstage Interface/B11.E_{2}*%
X166000000Y-108050000D03*
%TO.N,/Test Signal Interface/WP*%
X118100000Y-116100000D03*
%TD*%
D17*
%TO.N,VCC*%
X119700000Y-124200000D02*
X119700000Y-122100000D01*
X123450000Y-118350000D02*
X123450000Y-117550000D01*
X121500000Y-115600000D02*
X120136500Y-115600000D01*
X123450000Y-117550000D02*
X121500000Y-115600000D01*
X119700000Y-122100000D02*
X120800000Y-121000000D01*
X120800000Y-121000000D02*
X122200000Y-119600000D01*
X122200000Y-119600000D02*
X123450000Y-118350000D01*
D18*
%TO.N,/Headstage Interface/B7.E_{7}*%
X150100000Y-110500000D02*
X144400000Y-110500000D01*
X141700000Y-113200000D02*
X125863500Y-113200000D01*
X141700000Y-113200000D02*
X144400000Y-110500000D01*
%TO.N,/Headstage Interface/B5.E_{0}*%
X145500002Y-98000000D02*
X140700002Y-93200000D01*
X149450000Y-98000000D02*
X145500002Y-98000000D01*
X140700002Y-93200000D02*
X125863500Y-93200000D01*
%TO.N,/Headstage Interface/B5.E_{2}*%
X140087176Y-94800000D02*
X144287176Y-99000000D01*
X144287176Y-99000000D02*
X149450000Y-99000000D01*
X125863500Y-94800000D02*
X140087176Y-94800000D01*
%TO.N,/Headstage Interface/B7.E_{3}*%
X125863500Y-110000000D02*
X140999998Y-110000000D01*
X150050000Y-108500000D02*
X142499998Y-108500000D01*
X140999998Y-110000000D02*
X142499998Y-108500000D01*
%TO.N,/Headstage Interface/B7.E_{1}*%
X150050000Y-107500000D02*
X141500000Y-107500000D01*
X125863500Y-108400000D02*
X140600000Y-108400000D01*
X140600000Y-108400000D02*
X141500000Y-107500000D01*
%TO.N,/Headstage Interface/B5.E_{5}*%
X139187176Y-97200000D02*
X142487176Y-100500000D01*
X142487176Y-100500000D02*
X150050000Y-100500000D01*
X125863500Y-97200000D02*
X139187176Y-97200000D01*
%TO.N,/Headstage Interface/B4.E_{7}*%
X141400000Y-91600000D02*
X125863500Y-91600000D01*
X150050000Y-97000000D02*
X146800000Y-97000000D01*
X146800000Y-97000000D02*
X141400000Y-91600000D01*
%TO.N,/Headstage Interface/B4.E_{5}*%
X142000000Y-90000000D02*
X125863500Y-90000000D01*
X150050000Y-96000000D02*
X148000000Y-96000000D01*
X148000000Y-96000000D02*
X142000000Y-90000000D01*
%TO.N,/Headstage Interface/B4.E_{2}*%
X142600000Y-87600000D02*
X125863500Y-87600000D01*
X149500000Y-94500000D02*
X142600000Y-87600000D01*
%TO.N,/Headstage Interface/B6.E_{2}*%
X149450000Y-103500000D02*
X139199998Y-103500000D01*
X139199998Y-103500000D02*
X137699998Y-102000000D01*
X137699998Y-102000000D02*
X125863500Y-102000000D01*
%TO.N,/Headstage Interface/E_{stim}*%
X154020000Y-114223000D02*
X153000000Y-115243000D01*
X153000000Y-115243000D02*
X153000000Y-134000000D01*
%TO.N,/Headstage Interface/B4.E_{3}*%
X149100000Y-95000000D02*
X142500000Y-88400000D01*
X150000000Y-95000000D02*
X149100000Y-95000000D01*
X142500000Y-88400000D02*
X125863500Y-88400000D01*
%TO.N,/Headstage Interface/B7.E_{5}*%
X125863500Y-111600000D02*
X141400000Y-111600000D01*
X141400000Y-111600000D02*
X143500000Y-109500000D01*
X150100000Y-109500000D02*
X143500000Y-109500000D01*
%TO.N,/Headstage Interface/B7.E_{0}*%
X140599998Y-107600000D02*
X141199998Y-107000000D01*
X125863500Y-107600000D02*
X140599998Y-107600000D01*
X149450000Y-107000000D02*
X141199998Y-107000000D01*
%TO.N,/Headstage Interface/B7.E_{4}*%
X149500000Y-109000000D02*
X143200000Y-109000000D01*
X125863500Y-110800000D02*
X141400000Y-110800000D01*
X141400000Y-110800000D02*
X143200000Y-109000000D01*
%TO.N,/Headstage Interface/B4.E_{6}*%
X149450000Y-96500000D02*
X147400000Y-96500000D01*
X141700000Y-90800000D02*
X125863500Y-90800000D01*
X147400000Y-96500000D02*
X141700000Y-90800000D01*
%TO.N,/Headstage Interface/B6.E_{5}*%
X150050000Y-105000000D02*
X137699996Y-105000000D01*
X137099996Y-104400000D02*
X125863500Y-104400000D01*
X137699996Y-105000000D02*
X137099996Y-104400000D01*
%TO.N,/Headstage Interface/B7.E_{6}*%
X144000000Y-110000000D02*
X149500000Y-110000000D01*
X125931750Y-112468250D02*
X141531750Y-112468250D01*
X141531750Y-112468250D02*
X144000000Y-110000000D01*
%TO.N,/Headstage Interface/B7.E_{2}*%
X140800000Y-109200000D02*
X142000000Y-108000000D01*
X140800000Y-109200000D02*
X125863500Y-109200000D01*
X149450000Y-108000000D02*
X142000000Y-108000000D01*
%TO.N,/Headstage Interface/B5.E_{7}*%
X141687180Y-101500000D02*
X150050000Y-101500000D01*
X138987180Y-98800000D02*
X141687180Y-101500000D01*
X125863500Y-98800000D02*
X138987180Y-98800000D01*
%TO.N,/Headstage Interface/B6.E_{7}*%
X125863500Y-106000000D02*
X150050000Y-106000000D01*
%TO.N,/Headstage Interface/B6.E_{0}*%
X138300000Y-100400000D02*
X125863500Y-100400000D01*
X149450000Y-102500000D02*
X140400000Y-102500000D01*
X140400000Y-102500000D02*
X138300000Y-100400000D01*
%TO.N,/Headstage Interface/B5.E_{1}*%
X144900004Y-98500000D02*
X150050000Y-98500000D01*
X140400004Y-94000000D02*
X144900004Y-98500000D01*
X125863500Y-94000000D02*
X140400004Y-94000000D01*
%TO.N,/Headstage Interface/B4.E_{4}*%
X149450000Y-95500000D02*
X148500000Y-95500000D01*
X142200000Y-89200000D02*
X125863500Y-89200000D01*
X148500000Y-95500000D02*
X142200000Y-89200000D01*
%TO.N,/Headstage Interface/B4.E_{0}*%
X149850000Y-93200000D02*
X142650000Y-86000000D01*
X142650000Y-86000000D02*
X125863500Y-86000000D01*
D17*
%TO.N,REF*%
X194457000Y-114800000D02*
X195863500Y-114800000D01*
X193483000Y-115774000D02*
X194457000Y-114800000D01*
X193483000Y-115817000D02*
X193483000Y-115774000D01*
X193464000Y-115836000D02*
X193483000Y-115817000D01*
X168211000Y-115836000D02*
X163885000Y-111510000D01*
X188054000Y-115836000D02*
X168211000Y-115836000D01*
%TO.N,/Headstage Interface/A*%
X153000000Y-85300000D02*
X157000000Y-85300000D01*
X157000000Y-85300000D02*
X158700000Y-87000000D01*
D18*
X153000000Y-79000000D02*
X153000000Y-85300000D01*
D17*
X158700000Y-87000000D02*
X163000000Y-87000000D01*
D18*
%TO.N,/Headstage Interface/B6.E_{6}*%
X137099996Y-105200000D02*
X125863500Y-105200000D01*
X149450000Y-105500000D02*
X137399996Y-105500000D01*
X137399996Y-105500000D02*
X137099996Y-105200000D01*
%TO.N,/Headstage Interface/B6.E_{1}*%
X139800000Y-103000000D02*
X138000000Y-101200000D01*
X138000000Y-101200000D02*
X125863500Y-101200000D01*
X150050000Y-103000000D02*
X139800000Y-103000000D01*
%TO.N,/Headstage Interface/B5.E_{6}*%
X125863500Y-98000000D02*
X139087178Y-98000000D01*
X139087178Y-98000000D02*
X142087178Y-101000000D01*
X142087178Y-101000000D02*
X149450000Y-101000000D01*
%TO.N,/Headstage Interface/B6.E_{4}*%
X149450000Y-104500000D02*
X137999996Y-104500000D01*
X137099996Y-103600000D02*
X125863500Y-103600000D01*
X137999996Y-104500000D02*
X137099996Y-103600000D01*
%TO.N,/Headstage Interface/B5.E_{4}*%
X143087178Y-100000000D02*
X149450000Y-100000000D01*
X125863500Y-96400000D02*
X139487178Y-96400000D01*
X139487178Y-96400000D02*
X143087178Y-100000000D01*
%TO.N,/Headstage Interface/B5.E_{3}*%
X139787178Y-95600000D02*
X143687178Y-99500000D01*
X143687178Y-99500000D02*
X150050000Y-99500000D01*
X125863500Y-95600000D02*
X139787178Y-95600000D01*
%TO.N,/Headstage Interface/B4.E_{1}*%
X142600000Y-86800000D02*
X125863500Y-86800000D01*
X150150000Y-94000000D02*
X149800000Y-94000000D01*
X149800000Y-94000000D02*
X142600000Y-86800000D01*
%TO.N,/Headstage Interface/B6.E_{3}*%
X150050000Y-104000000D02*
X138599994Y-104000000D01*
X138599994Y-104000000D02*
X137399994Y-102800000D01*
X137399994Y-102800000D02*
X125863500Y-102800000D01*
%TO.N,/Headstage Interface/B8.E_{2}*%
X174325002Y-87600000D02*
X190136500Y-87600000D01*
X165850000Y-94500000D02*
X167425002Y-94500000D01*
X167425002Y-94500000D02*
X174325002Y-87600000D01*
%TO.N,/Test Signal Interface/SDA*%
X125863500Y-116536500D02*
X125863500Y-115600000D01*
X125100000Y-120900000D02*
X125100000Y-119700000D01*
%TO.N,/Headstage Interface/B10.E_{4}*%
X165950000Y-104550000D02*
X180800000Y-104550000D01*
X181750000Y-103600000D02*
X190136500Y-103600000D01*
X180800000Y-104550000D02*
X181750000Y-103600000D01*
%TO.N,/Headstage Interface/B8.E_{7}*%
X171200000Y-97000000D02*
X176600000Y-91600000D01*
X176600000Y-91600000D02*
X190136500Y-91600000D01*
X166500000Y-97000000D02*
X171200000Y-97000000D01*
%TO.N,/Test Signal Interface/SCL*%
X125863500Y-114800000D02*
X127100000Y-114800000D01*
X127100000Y-114800000D02*
X127700000Y-115400000D01*
%TO.N,/Headstage Interface/B8.E_{3}*%
X174675000Y-88400000D02*
X190136500Y-88400000D01*
X168075000Y-95000000D02*
X174675000Y-88400000D01*
X166450000Y-95000000D02*
X168075000Y-95000000D01*
%TO.N,/Headstage Interface/B11.E_{5}*%
X168350000Y-109550000D02*
X170400000Y-111600000D01*
X166550000Y-109550000D02*
X168350000Y-109550000D01*
X170400000Y-111600000D02*
X190136500Y-111600000D01*
%TO.N,/Headstage Interface/B8.E_{4}*%
X168724998Y-95500000D02*
X175024998Y-89200000D01*
X165900000Y-95500000D02*
X168724998Y-95500000D01*
X175024998Y-89200000D02*
X190136500Y-89200000D01*
%TO.N,/Headstage Interface/B9.E_{1}*%
X173013152Y-98525000D02*
X166300000Y-98525000D01*
X177538152Y-94000000D02*
X173013152Y-98525000D01*
X190136500Y-94000000D02*
X177538152Y-94000000D01*
%TO.N,/Headstage Interface/B8.E_{0}*%
X165850002Y-93500000D02*
X173350002Y-86000000D01*
X165850000Y-93500000D02*
X165850002Y-93500000D01*
X173350002Y-86000000D02*
X190136500Y-86000000D01*
%TO.N,/Headstage Interface/B9.E_{0}*%
X172350002Y-98000000D02*
X177150002Y-93200000D01*
X177150002Y-93200000D02*
X190136500Y-93200000D01*
X165900000Y-98000000D02*
X172350002Y-98000000D01*
%TO.N,/Headstage Interface/B9.E_{5}*%
X166500000Y-100500000D02*
X175725000Y-100500000D01*
X175725000Y-100500000D02*
X179025000Y-97200000D01*
X179025000Y-97200000D02*
X190136500Y-97200000D01*
%TO.N,/Headstage Interface/B10.E_{3}*%
X181600000Y-102800000D02*
X190136500Y-102800000D01*
X180350000Y-104050000D02*
X181600000Y-102800000D01*
X166550000Y-104050000D02*
X180350000Y-104050000D01*
%TO.N,/Headstage Interface/B11.E_{4}*%
X166050000Y-109050000D02*
X168950000Y-109050000D01*
X170700000Y-110800000D02*
X190136500Y-110800000D01*
X168950000Y-109050000D02*
X170700000Y-110800000D01*
%TO.N,/Headstage Interface/B10.E_{1}*%
X166550000Y-103050000D02*
X179125000Y-103050000D01*
X179125000Y-103050000D02*
X180975000Y-101200000D01*
X180975000Y-101200000D02*
X190136500Y-101200000D01*
%TO.N,/Headstage Interface/B10.E_{2}*%
X181350000Y-102000000D02*
X190136500Y-102000000D01*
X179800000Y-103550000D02*
X181350000Y-102000000D01*
X165950000Y-103550000D02*
X179800000Y-103550000D01*
%TO.N,/Headstage Interface/B10.E_{7}*%
X166550000Y-106050000D02*
X190086500Y-106050000D01*
X190086500Y-106050000D02*
X190136500Y-106000000D01*
%TO.N,/Headstage Interface/B9.E_{3}*%
X174275000Y-99500000D02*
X178175000Y-95600000D01*
X166500000Y-99500000D02*
X174275000Y-99500000D01*
X178175000Y-95600000D02*
X190136500Y-95600000D01*
%TO.N,/Headstage Interface/B9.E_{4}*%
X178600000Y-96400000D02*
X190136500Y-96400000D01*
X165900000Y-100000000D02*
X175000000Y-100000000D01*
X175000000Y-100000000D02*
X178600000Y-96400000D01*
%TO.N,/Headstage Interface/B11.E_{0}*%
X171950000Y-107625000D02*
X190111500Y-107625000D01*
X190111500Y-107625000D02*
X190136500Y-107600000D01*
X166000000Y-107050000D02*
X171375000Y-107050000D01*
X171375000Y-107050000D02*
X171950000Y-107625000D01*
%TO.N,/Headstage Interface/B11.E_{6}*%
X165900000Y-110050000D02*
X167825000Y-110050000D01*
X167825000Y-110050000D02*
X170175000Y-112400000D01*
X170175000Y-112400000D02*
X190136500Y-112400000D01*
%TO.N,/Headstage Interface/B9.E_{6}*%
X165900000Y-101000000D02*
X176425000Y-101000000D01*
X176425000Y-101000000D02*
X179425000Y-98000000D01*
X179425000Y-98000000D02*
X190136500Y-98000000D01*
%TO.N,/Headstage Interface/B8.E_{1}*%
X166625000Y-94000000D02*
X173825000Y-86800000D01*
X166450000Y-94000000D02*
X166625000Y-94000000D01*
X173825000Y-86800000D02*
X190136500Y-86800000D01*
%TO.N,/Headstage Interface/B11.E_{1}*%
X170725000Y-107550000D02*
X171450000Y-108275000D01*
X171450000Y-108275000D02*
X190011500Y-108275000D01*
X190011500Y-108275000D02*
X190136500Y-108400000D01*
X166600000Y-107550000D02*
X170725000Y-107550000D01*
%TO.N,/Headstage Interface/B8.E_{6}*%
X170449998Y-96500000D02*
X176149998Y-90800000D01*
X165900000Y-96500000D02*
X170449998Y-96500000D01*
X176149998Y-90800000D02*
X190136500Y-90800000D01*
%TO.N,/Headstage Interface/B11.E_{3}*%
X169475000Y-108550000D02*
X170925000Y-110000000D01*
X170925000Y-110000000D02*
X190136500Y-110000000D01*
X166600000Y-108550000D02*
X169475000Y-108550000D01*
%TO.N,/Headstage Interface/B9.E_{7}*%
X179725000Y-98800000D02*
X190136500Y-98800000D01*
X177025000Y-101500000D02*
X179725000Y-98800000D01*
X166500000Y-101500000D02*
X177025000Y-101500000D01*
%TO.N,/Headstage Interface/B9.E_{2}*%
X173675000Y-99000000D02*
X177875000Y-94800000D01*
X177875000Y-94800000D02*
X190136500Y-94800000D01*
X165900000Y-99000000D02*
X173675000Y-99000000D01*
%TO.N,/Headstage Interface/B8.E_{5}*%
X169675000Y-96000000D02*
X175675000Y-90000000D01*
X166500000Y-96000000D02*
X169675000Y-96000000D01*
X175675000Y-90000000D02*
X190136500Y-90000000D01*
%TO.N,/Headstage Interface/B11.E_{7}*%
X167300000Y-110550000D02*
X169950000Y-113200000D01*
X169950000Y-113200000D02*
X190136500Y-113200000D01*
X166550000Y-110550000D02*
X167300000Y-110550000D01*
%TO.N,/Headstage Interface/B10.E_{6}*%
X182100000Y-105200000D02*
X181750000Y-105550000D01*
X190136500Y-105200000D02*
X182100000Y-105200000D01*
X181750000Y-105550000D02*
X165950000Y-105550000D01*
%TO.N,/Headstage Interface/B10.E_{0}*%
X165950000Y-102550000D02*
X178525000Y-102550000D01*
X180675000Y-100400000D02*
X190136500Y-100400000D01*
X178525000Y-102550000D02*
X180675000Y-100400000D01*
%TO.N,/Headstage Interface/B10.E_{5}*%
X166550000Y-105050000D02*
X181225000Y-105050000D01*
X181875000Y-104400000D02*
X190136500Y-104400000D01*
X181225000Y-105050000D02*
X181875000Y-104400000D01*
%TO.N,/Headstage Interface/B11.E_{2}*%
X166000000Y-108050000D02*
X170050000Y-108050000D01*
X171200000Y-109200000D02*
X190136500Y-109200000D01*
X170050000Y-108050000D02*
X171200000Y-109200000D01*
%TO.N,/Test Signal Interface/WP*%
X118100000Y-115300000D02*
X118100000Y-116100000D01*
X118600000Y-114800000D02*
X120136500Y-114800000D01*
X118600000Y-114800000D02*
X118100000Y-115300000D01*
%TD*%
%TA.AperFunction,Conductor*%
%TO.N,GND*%
G36*
X205002065Y-77150615D02*
G01*
X205314905Y-77168184D01*
X205323141Y-77169113D01*
X205629975Y-77221246D01*
X205638058Y-77223091D01*
X205937147Y-77309256D01*
X205944960Y-77311990D01*
X206156227Y-77399500D01*
X206232511Y-77431098D01*
X206239987Y-77434698D01*
X206512398Y-77585254D01*
X206519412Y-77589662D01*
X206580735Y-77633173D01*
X206773239Y-77769762D01*
X206779726Y-77774934D01*
X207011807Y-77982334D01*
X207017665Y-77988192D01*
X207172563Y-78161523D01*
X207225064Y-78220272D01*
X207230237Y-78226760D01*
X207410333Y-78480581D01*
X207414749Y-78487608D01*
X207565301Y-78760012D01*
X207568901Y-78767488D01*
X207688005Y-79055029D01*
X207690746Y-79062862D01*
X207776907Y-79361937D01*
X207778753Y-79370027D01*
X207830885Y-79676852D01*
X207831815Y-79685099D01*
X207849384Y-79997934D01*
X207849500Y-80002083D01*
X207849500Y-133997916D01*
X207849384Y-134002065D01*
X207831815Y-134314900D01*
X207830885Y-134323147D01*
X207778753Y-134629972D01*
X207776907Y-134638062D01*
X207690746Y-134937137D01*
X207688005Y-134944970D01*
X207568901Y-135232511D01*
X207565301Y-135239987D01*
X207414749Y-135512391D01*
X207410333Y-135519418D01*
X207230237Y-135773239D01*
X207225064Y-135779727D01*
X207017670Y-136011802D01*
X207011802Y-136017670D01*
X206779727Y-136225064D01*
X206773239Y-136230237D01*
X206519418Y-136410333D01*
X206512391Y-136414749D01*
X206239987Y-136565301D01*
X206232511Y-136568901D01*
X205944970Y-136688005D01*
X205937137Y-136690746D01*
X205638062Y-136776907D01*
X205629972Y-136778753D01*
X205323147Y-136830885D01*
X205314900Y-136831815D01*
X205002066Y-136849384D01*
X204997917Y-136849500D01*
X111002083Y-136849500D01*
X110997934Y-136849384D01*
X110685099Y-136831815D01*
X110676852Y-136830885D01*
X110370027Y-136778753D01*
X110361937Y-136776907D01*
X110062862Y-136690746D01*
X110055029Y-136688005D01*
X109767488Y-136568901D01*
X109760012Y-136565301D01*
X109487608Y-136414749D01*
X109480581Y-136410333D01*
X109474946Y-136406335D01*
X109353670Y-136320285D01*
X109226760Y-136230237D01*
X109220272Y-136225064D01*
X109107414Y-136124208D01*
X108988192Y-136017665D01*
X108982334Y-136011807D01*
X108774934Y-135779726D01*
X108769762Y-135773239D01*
X108589666Y-135519418D01*
X108585254Y-135512398D01*
X108434698Y-135239987D01*
X108431098Y-135232511D01*
X108333434Y-134996730D01*
X108311990Y-134944960D01*
X108309256Y-134937147D01*
X108223091Y-134638058D01*
X108221246Y-134629972D01*
X108169113Y-134323141D01*
X108168184Y-134314900D01*
X108150616Y-134002065D01*
X108150500Y-133997916D01*
X108150500Y-133853959D01*
X150399500Y-133853959D01*
X150399500Y-134146041D01*
X150401649Y-134165111D01*
X150432202Y-134436289D01*
X150497195Y-134721040D01*
X150497201Y-134721058D01*
X150593661Y-134996730D01*
X150707208Y-135232511D01*
X150720395Y-135259893D01*
X150875792Y-135507206D01*
X151057902Y-135735565D01*
X151264435Y-135942098D01*
X151492794Y-136124208D01*
X151740107Y-136279605D01*
X151921222Y-136366826D01*
X152003269Y-136406338D01*
X152251083Y-136493050D01*
X152278955Y-136502803D01*
X152563714Y-136567798D01*
X152853959Y-136600500D01*
X152853963Y-136600500D01*
X153146037Y-136600500D01*
X153146041Y-136600500D01*
X153436286Y-136567798D01*
X153721045Y-136502803D01*
X153866922Y-136451759D01*
X153996730Y-136406338D01*
X153996734Y-136406335D01*
X153996737Y-136406335D01*
X154259893Y-136279605D01*
X154507206Y-136124208D01*
X154735565Y-135942098D01*
X154942098Y-135735565D01*
X155124208Y-135507206D01*
X155279605Y-135259893D01*
X155406335Y-134996737D01*
X155406335Y-134996734D01*
X155406338Y-134996730D01*
X155469392Y-134816529D01*
X155502803Y-134721045D01*
X155567798Y-134436286D01*
X155600500Y-134146041D01*
X155600500Y-133853959D01*
X155599871Y-133848374D01*
X160300000Y-133848374D01*
X160300000Y-134151625D01*
X160333954Y-134452982D01*
X160333954Y-134452983D01*
X160401432Y-134748625D01*
X160401437Y-134748641D01*
X160501593Y-135034869D01*
X160633173Y-135308097D01*
X160794516Y-135564874D01*
X160983593Y-135801969D01*
X161020101Y-135838477D01*
X161939339Y-134919238D01*
X162080761Y-135060660D01*
X161161523Y-135979899D01*
X161198030Y-136016406D01*
X161435125Y-136205483D01*
X161691902Y-136366826D01*
X161965130Y-136498406D01*
X162251358Y-136598562D01*
X162251374Y-136598567D01*
X162547016Y-136666045D01*
X162848375Y-136700000D01*
X163151625Y-136700000D01*
X163452982Y-136666045D01*
X163452983Y-136666045D01*
X163748625Y-136598567D01*
X163748641Y-136598562D01*
X164034869Y-136498406D01*
X164308097Y-136366826D01*
X164564874Y-136205483D01*
X164801969Y-136016406D01*
X164838477Y-135979899D01*
X163919238Y-135060660D01*
X164060660Y-134919238D01*
X164979899Y-135838477D01*
X165016406Y-135801969D01*
X165205483Y-135564874D01*
X165366826Y-135308097D01*
X165498406Y-135034869D01*
X165598562Y-134748641D01*
X165598567Y-134748625D01*
X165666045Y-134452983D01*
X165666045Y-134452982D01*
X165700000Y-134151625D01*
X165700000Y-133848374D01*
X165666045Y-133547017D01*
X165666045Y-133547016D01*
X165598567Y-133251374D01*
X165598562Y-133251358D01*
X165498406Y-132965130D01*
X165366826Y-132691902D01*
X165205483Y-132435125D01*
X165016406Y-132198030D01*
X164979899Y-132161523D01*
X164060660Y-133080761D01*
X163919238Y-132939339D01*
X164838477Y-132020101D01*
X164801969Y-131983593D01*
X164564874Y-131794516D01*
X164308097Y-131633173D01*
X164034869Y-131501593D01*
X163748641Y-131401437D01*
X163748625Y-131401432D01*
X163452983Y-131333954D01*
X163151625Y-131300000D01*
X162848375Y-131300000D01*
X162547017Y-131333954D01*
X162547016Y-131333954D01*
X162251374Y-131401432D01*
X162251358Y-131401437D01*
X161965130Y-131501593D01*
X161691902Y-131633173D01*
X161435125Y-131794516D01*
X161198030Y-131983593D01*
X161161523Y-132020101D01*
X162080761Y-132939339D01*
X161939339Y-133080761D01*
X161020101Y-132161523D01*
X160983593Y-132198030D01*
X160794516Y-132435125D01*
X160633173Y-132691902D01*
X160501593Y-132965130D01*
X160401437Y-133251358D01*
X160401432Y-133251374D01*
X160333954Y-133547016D01*
X160333954Y-133547017D01*
X160300000Y-133848374D01*
X155599871Y-133848374D01*
X155567798Y-133563714D01*
X155502803Y-133278955D01*
X155435972Y-133087961D01*
X155406338Y-133003269D01*
X155279605Y-132740108D01*
X155279605Y-132740107D01*
X155124208Y-132492794D01*
X154942098Y-132264435D01*
X154735565Y-132057902D01*
X154735563Y-132057900D01*
X154722278Y-132047305D01*
X154722277Y-132047305D01*
X154507206Y-131875792D01*
X154259893Y-131720395D01*
X154259891Y-131720394D01*
X153996730Y-131593661D01*
X153721058Y-131497201D01*
X153721040Y-131497195D01*
X153436289Y-131432202D01*
X153341214Y-131421490D01*
X153291644Y-131394093D01*
X153275500Y-131347955D01*
X153275500Y-118004871D01*
X189719500Y-118004871D01*
X189719500Y-118125128D01*
X189742959Y-118243069D01*
X189742961Y-118243076D01*
X189788981Y-118354179D01*
X189821420Y-118402727D01*
X189855794Y-118454171D01*
X189940829Y-118539206D01*
X190040820Y-118606018D01*
X190151924Y-118652039D01*
X190269871Y-118675500D01*
X190269872Y-118675500D01*
X190390128Y-118675500D01*
X190390129Y-118675500D01*
X190508076Y-118652039D01*
X190619180Y-118606018D01*
X190719171Y-118539206D01*
X190804206Y-118454171D01*
X190871018Y-118354180D01*
X190917039Y-118243076D01*
X190940500Y-118125129D01*
X190940500Y-118004871D01*
X190917039Y-117886924D01*
X190871018Y-117775820D01*
X190804206Y-117675829D01*
X190719171Y-117590794D01*
X190619180Y-117523982D01*
X190619181Y-117523982D01*
X190619179Y-117523981D01*
X190508076Y-117477961D01*
X190508069Y-117477959D01*
X190419215Y-117460285D01*
X190390129Y-117454500D01*
X190269871Y-117454500D01*
X190246538Y-117459141D01*
X190151930Y-117477959D01*
X190151923Y-117477961D01*
X190040820Y-117523981D01*
X189940832Y-117590791D01*
X189855791Y-117675832D01*
X189788981Y-117775820D01*
X189742961Y-117886923D01*
X189742959Y-117886930D01*
X189719500Y-118004871D01*
X153275500Y-118004871D01*
X153275500Y-115387767D01*
X153297174Y-115335441D01*
X153987441Y-114645174D01*
X154039767Y-114623500D01*
X154072729Y-114623500D01*
X154072729Y-114623499D01*
X154174587Y-114596207D01*
X154265913Y-114543480D01*
X154340480Y-114468913D01*
X154393207Y-114377587D01*
X154420499Y-114275729D01*
X154420500Y-114275729D01*
X154420500Y-114170271D01*
X154420499Y-114170270D01*
X154393208Y-114068417D01*
X154393207Y-114068413D01*
X154340480Y-113977087D01*
X154265913Y-113902520D01*
X154261548Y-113900000D01*
X154174591Y-113849795D01*
X154174582Y-113849791D01*
X154072729Y-113822500D01*
X154072727Y-113822500D01*
X153967273Y-113822500D01*
X153967271Y-113822500D01*
X153865417Y-113849791D01*
X153865408Y-113849795D01*
X153774086Y-113902520D01*
X153699520Y-113977086D01*
X153646795Y-114068408D01*
X153646791Y-114068417D01*
X153619500Y-114170270D01*
X153619500Y-114203233D01*
X153597826Y-114255559D01*
X152766442Y-115086943D01*
X152724500Y-115188200D01*
X152724500Y-131347955D01*
X152702826Y-131400281D01*
X152658786Y-131421490D01*
X152563710Y-131432202D01*
X152278959Y-131497195D01*
X152278941Y-131497201D01*
X152003269Y-131593661D01*
X151740108Y-131720394D01*
X151492793Y-131875792D01*
X151264431Y-132057905D01*
X151057905Y-132264431D01*
X150875792Y-132492793D01*
X150720394Y-132740108D01*
X150593661Y-133003269D01*
X150497201Y-133278941D01*
X150497195Y-133278959D01*
X150432202Y-133563710D01*
X150432202Y-133563714D01*
X150399500Y-133853959D01*
X108150500Y-133853959D01*
X108150500Y-118004871D01*
X119719500Y-118004871D01*
X119719500Y-118125128D01*
X119742959Y-118243069D01*
X119742961Y-118243076D01*
X119788981Y-118354179D01*
X119821420Y-118402727D01*
X119855794Y-118454171D01*
X119940829Y-118539206D01*
X120040820Y-118606018D01*
X120151924Y-118652039D01*
X120269871Y-118675500D01*
X120269872Y-118675500D01*
X120390128Y-118675500D01*
X120390129Y-118675500D01*
X120508076Y-118652039D01*
X120619180Y-118606018D01*
X120719171Y-118539206D01*
X120804206Y-118454171D01*
X120871018Y-118354180D01*
X120917039Y-118243076D01*
X120940500Y-118125129D01*
X120940500Y-118004871D01*
X120917039Y-117886924D01*
X120871018Y-117775820D01*
X120804206Y-117675829D01*
X120719171Y-117590794D01*
X120619180Y-117523982D01*
X120619181Y-117523982D01*
X120619179Y-117523981D01*
X120508076Y-117477961D01*
X120508069Y-117477959D01*
X120419215Y-117460285D01*
X120390129Y-117454500D01*
X120269871Y-117454500D01*
X120246538Y-117459141D01*
X120151930Y-117477959D01*
X120151923Y-117477961D01*
X120040820Y-117523981D01*
X119940832Y-117590791D01*
X119855791Y-117675832D01*
X119788981Y-117775820D01*
X119742961Y-117886923D01*
X119742959Y-117886930D01*
X119719500Y-118004871D01*
X108150500Y-118004871D01*
X108150500Y-116047270D01*
X117699500Y-116047270D01*
X117699500Y-116152729D01*
X117726791Y-116254582D01*
X117726795Y-116254591D01*
X117779520Y-116345913D01*
X117854087Y-116420480D01*
X117945413Y-116473207D01*
X118047270Y-116500499D01*
X118047271Y-116500500D01*
X118047273Y-116500500D01*
X118152729Y-116500500D01*
X118152729Y-116500499D01*
X118254587Y-116473207D01*
X118345913Y-116420480D01*
X118420480Y-116345913D01*
X118473207Y-116254587D01*
X118500499Y-116152729D01*
X118500500Y-116152729D01*
X118500500Y-116047271D01*
X118500499Y-116047270D01*
X118495114Y-116027174D01*
X118473207Y-115945413D01*
X118420480Y-115854087D01*
X118397174Y-115830781D01*
X118375500Y-115778455D01*
X118375500Y-115444767D01*
X118397174Y-115392441D01*
X118692442Y-115097174D01*
X118744768Y-115075500D01*
X118766414Y-115075500D01*
X118818740Y-115097174D01*
X118827941Y-115108386D01*
X118851699Y-115143942D01*
X118859497Y-115155611D01*
X118857430Y-115156991D01*
X118875245Y-115200000D01*
X118857430Y-115243008D01*
X118859497Y-115244389D01*
X118811133Y-115316767D01*
X118799500Y-115375253D01*
X118799500Y-115824746D01*
X118811133Y-115883232D01*
X118840608Y-115927343D01*
X118855448Y-115949552D01*
X118888427Y-115971588D01*
X118921767Y-115993866D01*
X118921768Y-115993866D01*
X118921769Y-115993867D01*
X118980252Y-116005500D01*
X118980254Y-116005500D01*
X121292750Y-116005500D01*
X121296363Y-116005144D01*
X121296476Y-116006298D01*
X121348150Y-116016560D01*
X121359383Y-116025776D01*
X123027826Y-117694219D01*
X123049500Y-117746545D01*
X123049500Y-118153455D01*
X123027826Y-118205781D01*
X119379517Y-121854090D01*
X119326792Y-121945412D01*
X119326793Y-121945413D01*
X119299500Y-122047273D01*
X119299500Y-124252729D01*
X119326791Y-124354582D01*
X119326792Y-124354585D01*
X119326793Y-124354587D01*
X119379520Y-124445913D01*
X119454087Y-124520480D01*
X119545413Y-124573207D01*
X119647270Y-124600499D01*
X119647271Y-124600500D01*
X119647273Y-124600500D01*
X119752729Y-124600500D01*
X119752729Y-124600499D01*
X119854587Y-124573207D01*
X119945913Y-124520480D01*
X120020480Y-124445913D01*
X120073207Y-124354587D01*
X120100499Y-124252729D01*
X120100500Y-124252729D01*
X120100500Y-122296545D01*
X120122174Y-122244219D01*
X122719123Y-119647270D01*
X124699500Y-119647270D01*
X124699500Y-119752729D01*
X124726791Y-119854582D01*
X124726795Y-119854591D01*
X124779520Y-119945913D01*
X124802826Y-119969219D01*
X124824500Y-120021545D01*
X124824500Y-120578455D01*
X124802826Y-120630781D01*
X124779520Y-120654086D01*
X124726795Y-120745408D01*
X124726791Y-120745417D01*
X124699500Y-120847270D01*
X124699500Y-120952729D01*
X124726791Y-121054582D01*
X124726792Y-121054585D01*
X124726793Y-121054587D01*
X124779520Y-121145913D01*
X124854087Y-121220480D01*
X124945413Y-121273207D01*
X125047270Y-121300499D01*
X125047271Y-121300500D01*
X125047273Y-121300500D01*
X125152729Y-121300500D01*
X125152729Y-121300499D01*
X125254587Y-121273207D01*
X125345913Y-121220480D01*
X125420480Y-121145913D01*
X125473207Y-121054587D01*
X125500499Y-120952729D01*
X125500500Y-120952729D01*
X125500500Y-120847271D01*
X125500499Y-120847270D01*
X125473208Y-120745417D01*
X125473207Y-120745413D01*
X125420480Y-120654087D01*
X125397174Y-120630781D01*
X125375500Y-120578455D01*
X125375500Y-120021545D01*
X125397174Y-119969219D01*
X125420480Y-119945913D01*
X125473207Y-119854587D01*
X125500499Y-119752729D01*
X125500500Y-119752729D01*
X125500500Y-119647271D01*
X125500499Y-119647270D01*
X125473208Y-119545417D01*
X125473207Y-119545413D01*
X125420480Y-119454087D01*
X125345913Y-119379520D01*
X125254591Y-119326795D01*
X125254582Y-119326791D01*
X125152729Y-119299500D01*
X125152727Y-119299500D01*
X125047273Y-119299500D01*
X125047271Y-119299500D01*
X124945417Y-119326791D01*
X124945408Y-119326795D01*
X124854086Y-119379520D01*
X124779520Y-119454086D01*
X124726795Y-119545408D01*
X124726791Y-119545417D01*
X124699500Y-119647270D01*
X122719123Y-119647270D01*
X122776296Y-119590097D01*
X122986873Y-119379520D01*
X123770480Y-118595913D01*
X123823207Y-118504588D01*
X123850500Y-118402727D01*
X123850500Y-118297273D01*
X123850500Y-117497273D01*
X123850500Y-117497271D01*
X123850499Y-117497270D01*
X123823208Y-117395417D01*
X123823207Y-117395413D01*
X123770480Y-117304087D01*
X123695913Y-117229520D01*
X121745913Y-115279520D01*
X121745910Y-115279518D01*
X121745909Y-115279517D01*
X121654592Y-115226795D01*
X121654588Y-115226793D01*
X121552727Y-115199500D01*
X121552726Y-115199500D01*
X121522623Y-115199500D01*
X121470297Y-115177826D01*
X121448623Y-115125500D01*
X121459365Y-115090087D01*
X121459077Y-115089968D01*
X121460292Y-115087032D01*
X121461096Y-115084385D01*
X121461160Y-115084288D01*
X121461867Y-115083231D01*
X121473500Y-115024748D01*
X121473500Y-114575252D01*
X121461867Y-114516769D01*
X121461866Y-114516767D01*
X121461866Y-114516766D01*
X121459077Y-114510032D01*
X121462457Y-114508631D01*
X121453971Y-114465920D01*
X121474221Y-114428044D01*
X121524785Y-114377480D01*
X121570089Y-114274875D01*
X121573000Y-114249792D01*
X124427001Y-114249792D01*
X124429908Y-114274868D01*
X124429910Y-114274874D01*
X124475213Y-114377478D01*
X124525780Y-114428045D01*
X124547454Y-114480371D01*
X124538733Y-114509128D01*
X124540922Y-114510035D01*
X124538133Y-114516767D01*
X124536595Y-114524500D01*
X124526500Y-114575252D01*
X124526500Y-115024748D01*
X124534255Y-115063736D01*
X124538133Y-115083232D01*
X124554942Y-115108387D01*
X124578699Y-115143942D01*
X124586497Y-115155611D01*
X124584430Y-115156991D01*
X124602245Y-115200000D01*
X124584430Y-115243008D01*
X124586497Y-115244389D01*
X124538133Y-115316767D01*
X124526500Y-115375253D01*
X124526500Y-115824746D01*
X124538133Y-115883232D01*
X124567608Y-115927343D01*
X124582448Y-115949552D01*
X124615427Y-115971588D01*
X124648767Y-115993866D01*
X124648768Y-115993866D01*
X124648769Y-115993867D01*
X124707252Y-116005500D01*
X125514000Y-116005500D01*
X125566326Y-116027174D01*
X125588000Y-116079500D01*
X125588000Y-116214955D01*
X125566326Y-116267281D01*
X125543020Y-116290586D01*
X125490295Y-116381908D01*
X125490291Y-116381917D01*
X125463000Y-116483770D01*
X125463000Y-116589229D01*
X125490291Y-116691082D01*
X125490292Y-116691085D01*
X125490293Y-116691087D01*
X125543020Y-116782413D01*
X125617587Y-116856980D01*
X125708913Y-116909707D01*
X125810770Y-116936999D01*
X125810771Y-116937000D01*
X125810773Y-116937000D01*
X125916229Y-116937000D01*
X125916229Y-116936999D01*
X126018087Y-116909707D01*
X126109413Y-116856980D01*
X126183980Y-116782413D01*
X126236707Y-116691087D01*
X126263999Y-116589229D01*
X126264000Y-116589229D01*
X126264000Y-116483771D01*
X126263999Y-116483770D01*
X126247040Y-116420479D01*
X126236707Y-116381913D01*
X126183980Y-116290587D01*
X126160674Y-116267281D01*
X126139000Y-116214955D01*
X126139000Y-116079500D01*
X126160674Y-116027174D01*
X126213000Y-116005500D01*
X127019746Y-116005500D01*
X127019748Y-116005500D01*
X127078231Y-115993867D01*
X127144552Y-115949552D01*
X127188867Y-115883231D01*
X127200500Y-115824748D01*
X127200500Y-115612013D01*
X127222174Y-115559687D01*
X127274500Y-115538013D01*
X127326826Y-115559687D01*
X127338585Y-115575012D01*
X127379520Y-115645913D01*
X127454087Y-115720480D01*
X127545413Y-115773207D01*
X127647270Y-115800499D01*
X127647271Y-115800500D01*
X127647273Y-115800500D01*
X127752729Y-115800500D01*
X127752729Y-115800499D01*
X127854587Y-115773207D01*
X127945913Y-115720480D01*
X128020480Y-115645913D01*
X128073207Y-115554587D01*
X128100499Y-115452729D01*
X128100500Y-115452729D01*
X128100500Y-115347271D01*
X128100499Y-115347270D01*
X128097329Y-115335441D01*
X128073207Y-115245413D01*
X128020480Y-115154087D01*
X127945913Y-115079520D01*
X127923263Y-115066443D01*
X127854591Y-115026795D01*
X127854582Y-115026791D01*
X127752729Y-114999500D01*
X127752727Y-114999500D01*
X127719768Y-114999500D01*
X127667442Y-114977826D01*
X127256059Y-114566444D01*
X127256057Y-114566442D01*
X127228106Y-114554865D01*
X127193888Y-114522208D01*
X127192930Y-114522849D01*
X127192030Y-114521503D01*
X127191767Y-114520183D01*
X127189455Y-114517977D01*
X127186575Y-114511850D01*
X127186542Y-114511157D01*
X127186076Y-114510031D01*
X127186482Y-114509862D01*
X127185492Y-114488693D01*
X127180962Y-114465958D01*
X127184150Y-114459990D01*
X127183930Y-114455275D01*
X127190560Y-114447994D01*
X127201220Y-114428045D01*
X127251785Y-114377480D01*
X127297089Y-114274875D01*
X127300000Y-114249789D01*
X127300000Y-114100000D01*
X124427001Y-114100000D01*
X124427001Y-114249792D01*
X121573000Y-114249792D01*
X121573000Y-114249789D01*
X121573000Y-114100000D01*
X118700001Y-114100000D01*
X118700001Y-114249792D01*
X118702908Y-114274868D01*
X118702910Y-114274874D01*
X118748213Y-114377478D01*
X118768909Y-114398174D01*
X118790583Y-114450500D01*
X118768909Y-114502826D01*
X118716583Y-114524500D01*
X118545200Y-114524500D01*
X118443944Y-114566440D01*
X118443941Y-114566442D01*
X117943942Y-115066443D01*
X117866442Y-115143943D01*
X117824500Y-115245200D01*
X117824500Y-115778455D01*
X117802826Y-115830781D01*
X117779520Y-115854086D01*
X117726795Y-115945408D01*
X117726791Y-115945417D01*
X117699500Y-116047270D01*
X108150500Y-116047270D01*
X108150500Y-113750210D01*
X118700000Y-113750210D01*
X118700000Y-113900000D01*
X121572999Y-113900000D01*
X121572999Y-113750210D01*
X124427000Y-113750210D01*
X124427000Y-113900000D01*
X127299999Y-113900000D01*
X127299999Y-113750207D01*
X127297091Y-113725131D01*
X127297089Y-113725125D01*
X127251786Y-113622521D01*
X127231091Y-113601826D01*
X127209417Y-113549500D01*
X127231091Y-113497174D01*
X127283417Y-113475500D01*
X141754798Y-113475500D01*
X141754800Y-113475500D01*
X141856058Y-113433557D01*
X141933557Y-113356058D01*
X141933556Y-113356058D01*
X141968517Y-113321097D01*
X141968516Y-113321097D01*
X143832342Y-111457273D01*
X163484500Y-111457273D01*
X163484500Y-111562727D01*
X163511793Y-111664588D01*
X163511795Y-111664592D01*
X163564517Y-111755909D01*
X163564518Y-111755910D01*
X163564520Y-111755913D01*
X167965087Y-116156480D01*
X168056412Y-116209207D01*
X168158273Y-116236500D01*
X168158274Y-116236500D01*
X188106729Y-116236500D01*
X188106729Y-116236499D01*
X188208587Y-116209207D01*
X188299913Y-116156480D01*
X188374480Y-116081913D01*
X188427207Y-115990587D01*
X188454499Y-115888729D01*
X188454500Y-115888729D01*
X188454500Y-115783271D01*
X188454499Y-115783270D01*
X188437674Y-115720479D01*
X188427207Y-115681413D01*
X188374480Y-115590087D01*
X188299913Y-115515520D01*
X188208591Y-115462795D01*
X188208582Y-115462791D01*
X188106729Y-115435500D01*
X188106727Y-115435500D01*
X168407545Y-115435500D01*
X168355219Y-115413826D01*
X167191185Y-114249792D01*
X188700001Y-114249792D01*
X188702908Y-114274868D01*
X188702910Y-114274874D01*
X188748213Y-114377478D01*
X188798780Y-114428045D01*
X188820454Y-114480371D01*
X188811733Y-114509128D01*
X188813922Y-114510035D01*
X188811133Y-114516767D01*
X188809595Y-114524500D01*
X188799500Y-114575252D01*
X188799500Y-115024748D01*
X188807255Y-115063736D01*
X188811133Y-115083232D01*
X188827942Y-115108387D01*
X188851699Y-115143942D01*
X188859497Y-115155611D01*
X188857430Y-115156991D01*
X188875245Y-115200000D01*
X188857430Y-115243008D01*
X188859497Y-115244389D01*
X188811133Y-115316767D01*
X188799500Y-115375253D01*
X188799500Y-115824746D01*
X188811133Y-115883232D01*
X188840608Y-115927343D01*
X188855448Y-115949552D01*
X188888427Y-115971588D01*
X188921767Y-115993866D01*
X188921768Y-115993866D01*
X188921769Y-115993867D01*
X188980252Y-116005500D01*
X188980254Y-116005500D01*
X191292746Y-116005500D01*
X191292748Y-116005500D01*
X191351231Y-115993867D01*
X191417552Y-115949552D01*
X191461867Y-115883231D01*
X191473500Y-115824748D01*
X191473500Y-115783273D01*
X193063500Y-115783273D01*
X193063500Y-115888727D01*
X193078689Y-115945413D01*
X193090793Y-115990588D01*
X193090795Y-115990592D01*
X193143517Y-116081909D01*
X193143518Y-116081910D01*
X193143520Y-116081913D01*
X193218087Y-116156480D01*
X193309412Y-116209207D01*
X193411273Y-116236500D01*
X193411274Y-116236500D01*
X193516726Y-116236500D01*
X193516727Y-116236500D01*
X193618588Y-116209207D01*
X193709913Y-116156480D01*
X193803480Y-116062913D01*
X193856207Y-115971588D01*
X193856207Y-115971586D01*
X193857351Y-115969606D01*
X193869107Y-115954284D01*
X194400175Y-115423217D01*
X194452500Y-115401544D01*
X194504826Y-115423218D01*
X194526500Y-115475544D01*
X194526500Y-115824746D01*
X194538133Y-115883232D01*
X194567608Y-115927343D01*
X194582448Y-115949552D01*
X194615427Y-115971588D01*
X194648767Y-115993866D01*
X194648768Y-115993866D01*
X194648769Y-115993867D01*
X194707252Y-116005500D01*
X194707254Y-116005500D01*
X197019746Y-116005500D01*
X197019748Y-116005500D01*
X197078231Y-115993867D01*
X197144552Y-115949552D01*
X197188867Y-115883231D01*
X197200500Y-115824748D01*
X197200500Y-115375252D01*
X197188867Y-115316769D01*
X197144552Y-115250448D01*
X197144551Y-115250447D01*
X197140503Y-115244389D01*
X197142569Y-115243008D01*
X197124755Y-115200000D01*
X197142569Y-115156991D01*
X197140503Y-115155611D01*
X197148300Y-115143943D01*
X197188867Y-115083231D01*
X197200500Y-115024748D01*
X197200500Y-114575252D01*
X197188867Y-114516769D01*
X197188866Y-114516767D01*
X197188866Y-114516766D01*
X197186077Y-114510032D01*
X197189457Y-114508631D01*
X197180971Y-114465920D01*
X197201221Y-114428044D01*
X197251785Y-114377480D01*
X197297089Y-114274875D01*
X197300000Y-114249789D01*
X197300000Y-114100000D01*
X194427001Y-114100000D01*
X194427001Y-114249792D01*
X194429908Y-114274868D01*
X194429910Y-114274874D01*
X194441516Y-114301159D01*
X194442824Y-114357781D01*
X194403711Y-114398744D01*
X194392979Y-114402525D01*
X194302412Y-114426793D01*
X194302411Y-114426793D01*
X194302409Y-114426794D01*
X194302407Y-114426795D01*
X194211090Y-114479517D01*
X193162517Y-115528090D01*
X193109793Y-115619410D01*
X193109792Y-115619414D01*
X193097767Y-115664290D01*
X193097604Y-115664682D01*
X193097622Y-115664825D01*
X193095105Y-115673941D01*
X193090793Y-115681412D01*
X193063500Y-115783273D01*
X191473500Y-115783273D01*
X191473500Y-115375252D01*
X191461867Y-115316769D01*
X191417552Y-115250448D01*
X191417551Y-115250447D01*
X191413503Y-115244389D01*
X191415569Y-115243008D01*
X191397755Y-115200000D01*
X191415569Y-115156991D01*
X191413503Y-115155611D01*
X191421300Y-115143943D01*
X191461867Y-115083231D01*
X191473500Y-115024748D01*
X191473500Y-114575252D01*
X191461867Y-114516769D01*
X191461866Y-114516767D01*
X191461866Y-114516766D01*
X191459077Y-114510032D01*
X191462457Y-114508631D01*
X191453971Y-114465920D01*
X191474221Y-114428044D01*
X191524785Y-114377480D01*
X191570089Y-114274875D01*
X191573000Y-114249789D01*
X191573000Y-114100000D01*
X188700001Y-114100000D01*
X188700001Y-114249792D01*
X167191185Y-114249792D01*
X167063067Y-114121674D01*
X165616893Y-112675500D01*
X164130913Y-111189520D01*
X164130910Y-111189518D01*
X164130909Y-111189517D01*
X164039592Y-111136795D01*
X164039588Y-111136793D01*
X163937727Y-111109500D01*
X163832273Y-111109500D01*
X163781342Y-111123146D01*
X163730411Y-111136793D01*
X163730407Y-111136795D01*
X163639090Y-111189517D01*
X163564517Y-111264090D01*
X163511795Y-111355407D01*
X163511793Y-111355411D01*
X163511793Y-111355412D01*
X163484500Y-111457273D01*
X143832342Y-111457273D01*
X144492442Y-110797174D01*
X144544768Y-110775500D01*
X149778455Y-110775500D01*
X149830781Y-110797174D01*
X149854087Y-110820480D01*
X149945413Y-110873207D01*
X150047270Y-110900499D01*
X150047271Y-110900500D01*
X150047273Y-110900500D01*
X150152729Y-110900500D01*
X150152729Y-110900499D01*
X150254587Y-110873207D01*
X150345913Y-110820480D01*
X150420480Y-110745913D01*
X150473207Y-110654587D01*
X150500499Y-110552729D01*
X150500500Y-110552729D01*
X150500500Y-110447271D01*
X150500499Y-110447270D01*
X150494051Y-110423207D01*
X150473207Y-110345413D01*
X150420480Y-110254087D01*
X150345913Y-110179520D01*
X150302728Y-110154587D01*
X150254591Y-110126795D01*
X150254582Y-110126791D01*
X150152729Y-110099500D01*
X150152727Y-110099500D01*
X150047273Y-110099500D01*
X149993652Y-110113867D01*
X149983737Y-110112561D01*
X149974500Y-110116388D01*
X149956651Y-110108994D01*
X149937499Y-110106473D01*
X149931412Y-110098540D01*
X149922174Y-110094714D01*
X149914781Y-110076866D01*
X149903021Y-110061540D01*
X149900500Y-110042388D01*
X149900500Y-109997270D01*
X165499500Y-109997270D01*
X165499500Y-110102729D01*
X165526791Y-110204582D01*
X165526795Y-110204591D01*
X165569287Y-110278189D01*
X165579520Y-110295913D01*
X165654087Y-110370480D01*
X165745413Y-110423207D01*
X165847270Y-110450499D01*
X165847271Y-110450500D01*
X165847273Y-110450500D01*
X165952729Y-110450500D01*
X165952729Y-110450499D01*
X166054587Y-110423207D01*
X166054588Y-110423206D01*
X166056347Y-110422735D01*
X166112500Y-110430127D01*
X166146978Y-110475060D01*
X166149500Y-110494213D01*
X166149500Y-110602729D01*
X166176791Y-110704582D01*
X166176795Y-110704591D01*
X166217735Y-110775500D01*
X166229520Y-110795913D01*
X166304087Y-110870480D01*
X166395413Y-110923207D01*
X166497270Y-110950499D01*
X166497271Y-110950500D01*
X166497273Y-110950500D01*
X166602729Y-110950500D01*
X166602729Y-110950499D01*
X166704587Y-110923207D01*
X166795913Y-110870480D01*
X166819219Y-110847174D01*
X166871545Y-110825500D01*
X167155233Y-110825500D01*
X167207559Y-110847174D01*
X169716443Y-113356058D01*
X169793942Y-113433557D01*
X169895200Y-113475500D01*
X188716583Y-113475500D01*
X188768909Y-113497174D01*
X188790583Y-113549500D01*
X188768909Y-113601826D01*
X188748213Y-113622521D01*
X188702910Y-113725124D01*
X188700000Y-113750210D01*
X188700000Y-113900000D01*
X191572999Y-113900000D01*
X191572999Y-113750210D01*
X194427000Y-113750210D01*
X194427000Y-113900000D01*
X197299999Y-113900000D01*
X197299999Y-113750207D01*
X197297091Y-113725131D01*
X197297089Y-113725125D01*
X197251786Y-113622521D01*
X197201219Y-113571954D01*
X197179545Y-113519628D01*
X197188275Y-113490874D01*
X197186078Y-113489964D01*
X197188866Y-113483232D01*
X197188865Y-113483232D01*
X197188867Y-113483231D01*
X197200500Y-113424748D01*
X197200500Y-112975252D01*
X197188867Y-112916769D01*
X197179550Y-112902826D01*
X197140503Y-112844389D01*
X197142569Y-112843008D01*
X197124755Y-112800000D01*
X197142569Y-112756991D01*
X197140503Y-112755611D01*
X197148429Y-112743750D01*
X197188867Y-112683231D01*
X197200500Y-112624748D01*
X197200500Y-112175252D01*
X197188867Y-112116769D01*
X197179550Y-112102826D01*
X197140503Y-112044389D01*
X197142569Y-112043008D01*
X197124755Y-112000000D01*
X197142569Y-111956991D01*
X197140503Y-111955611D01*
X197172661Y-111907485D01*
X197188867Y-111883231D01*
X197200500Y-111824748D01*
X197200500Y-111375252D01*
X197188867Y-111316769D01*
X197179550Y-111302826D01*
X197140503Y-111244389D01*
X197142569Y-111243008D01*
X197124755Y-111200000D01*
X197142569Y-111156991D01*
X197140503Y-111155611D01*
X197144587Y-111149500D01*
X197188867Y-111083231D01*
X197200500Y-111024748D01*
X197200500Y-110575252D01*
X197188867Y-110516769D01*
X197179550Y-110502826D01*
X197160997Y-110475060D01*
X197144552Y-110450448D01*
X197144551Y-110450447D01*
X197140503Y-110444389D01*
X197142569Y-110443008D01*
X197124755Y-110400000D01*
X197142569Y-110356991D01*
X197140503Y-110355611D01*
X197147318Y-110345413D01*
X197188867Y-110283231D01*
X197200500Y-110224748D01*
X197200500Y-109775252D01*
X197188867Y-109716769D01*
X197179550Y-109702826D01*
X197147320Y-109654591D01*
X197144552Y-109650448D01*
X197144551Y-109650447D01*
X197140503Y-109644389D01*
X197142569Y-109643008D01*
X197124755Y-109600000D01*
X197142569Y-109556991D01*
X197140503Y-109555611D01*
X197172661Y-109507485D01*
X197188867Y-109483231D01*
X197200500Y-109424748D01*
X197200500Y-108975252D01*
X197188867Y-108916769D01*
X197182760Y-108907630D01*
X197140503Y-108844389D01*
X197142569Y-108843008D01*
X197124755Y-108800000D01*
X197142569Y-108756991D01*
X197140503Y-108755611D01*
X197146984Y-108745913D01*
X197188867Y-108683231D01*
X197200500Y-108624748D01*
X197200500Y-108175252D01*
X197188867Y-108116769D01*
X197188612Y-108116388D01*
X197162204Y-108076866D01*
X197144552Y-108050448D01*
X197144551Y-108050447D01*
X197140503Y-108044389D01*
X197142569Y-108043008D01*
X197124755Y-108000000D01*
X197142569Y-107956991D01*
X197140503Y-107955611D01*
X197144587Y-107949500D01*
X197188867Y-107883231D01*
X197200500Y-107824748D01*
X197200500Y-107375252D01*
X197188867Y-107316769D01*
X197188866Y-107316767D01*
X197188866Y-107316766D01*
X197186077Y-107310032D01*
X197189457Y-107308631D01*
X197180971Y-107265920D01*
X197201221Y-107228044D01*
X197251785Y-107177480D01*
X197297089Y-107074875D01*
X197300000Y-107049789D01*
X197300000Y-106900000D01*
X194427001Y-106900000D01*
X194427001Y-107049792D01*
X194429908Y-107074868D01*
X194429910Y-107074874D01*
X194475213Y-107177478D01*
X194525780Y-107228045D01*
X194547454Y-107280371D01*
X194538733Y-107309128D01*
X194540922Y-107310035D01*
X194538133Y-107316767D01*
X194532085Y-107347174D01*
X194526500Y-107375252D01*
X194526500Y-107824748D01*
X194533023Y-107857539D01*
X194538133Y-107883232D01*
X194549671Y-107900499D01*
X194582413Y-107949500D01*
X194586497Y-107955611D01*
X194584430Y-107956991D01*
X194602245Y-108000000D01*
X194584430Y-108043008D01*
X194586497Y-108044389D01*
X194538133Y-108116767D01*
X194530611Y-108154587D01*
X194526500Y-108175252D01*
X194526500Y-108624748D01*
X194532118Y-108652991D01*
X194538133Y-108683232D01*
X194554942Y-108708387D01*
X194580016Y-108745913D01*
X194586497Y-108755611D01*
X194584430Y-108756991D01*
X194602245Y-108800000D01*
X194584430Y-108843008D01*
X194586497Y-108844389D01*
X194538133Y-108916767D01*
X194536851Y-108923214D01*
X194526500Y-108975252D01*
X194526500Y-109424748D01*
X194531886Y-109451826D01*
X194538133Y-109483232D01*
X194586497Y-109555611D01*
X194584430Y-109556991D01*
X194602245Y-109600000D01*
X194584430Y-109643008D01*
X194586497Y-109644389D01*
X194582448Y-109650447D01*
X194582448Y-109650448D01*
X194579680Y-109654591D01*
X194538133Y-109716767D01*
X194532336Y-109745913D01*
X194526500Y-109775252D01*
X194526500Y-110224748D01*
X194528253Y-110233559D01*
X194538133Y-110283232D01*
X194554339Y-110307485D01*
X194579682Y-110345413D01*
X194586497Y-110355611D01*
X194584430Y-110356991D01*
X194602245Y-110400000D01*
X194584430Y-110443008D01*
X194586497Y-110444389D01*
X194582448Y-110450447D01*
X194582448Y-110450448D01*
X194581527Y-110451826D01*
X194538133Y-110516767D01*
X194530980Y-110552729D01*
X194526500Y-110575252D01*
X194526500Y-111024748D01*
X194528253Y-111033559D01*
X194538133Y-111083232D01*
X194567309Y-111126895D01*
X194582413Y-111149500D01*
X194586497Y-111155611D01*
X194584430Y-111156991D01*
X194602245Y-111200000D01*
X194584430Y-111243008D01*
X194586497Y-111244389D01*
X194538133Y-111316767D01*
X194538133Y-111316769D01*
X194526500Y-111375252D01*
X194526500Y-111824748D01*
X194528253Y-111833559D01*
X194538133Y-111883232D01*
X194586497Y-111955611D01*
X194584430Y-111956991D01*
X194602245Y-112000000D01*
X194584430Y-112043008D01*
X194586497Y-112044389D01*
X194538133Y-112116767D01*
X194538133Y-112116769D01*
X194526500Y-112175252D01*
X194526500Y-112624748D01*
X194534255Y-112663736D01*
X194538133Y-112683232D01*
X194586497Y-112755611D01*
X194584430Y-112756991D01*
X194602245Y-112800000D01*
X194584430Y-112843008D01*
X194586497Y-112844389D01*
X194538133Y-112916767D01*
X194526500Y-112975253D01*
X194526500Y-113424746D01*
X194538133Y-113483233D01*
X194540923Y-113489968D01*
X194537543Y-113491367D01*
X194546026Y-113534092D01*
X194525779Y-113571954D01*
X194475214Y-113622519D01*
X194429910Y-113725124D01*
X194427000Y-113750210D01*
X191572999Y-113750210D01*
X191572999Y-113750207D01*
X191570091Y-113725131D01*
X191570089Y-113725125D01*
X191524786Y-113622521D01*
X191474219Y-113571954D01*
X191452545Y-113519628D01*
X191461275Y-113490874D01*
X191459078Y-113489964D01*
X191461866Y-113483232D01*
X191461865Y-113483232D01*
X191461867Y-113483231D01*
X191473500Y-113424748D01*
X191473500Y-112975252D01*
X191461867Y-112916769D01*
X191452550Y-112902826D01*
X191413503Y-112844389D01*
X191415569Y-112843008D01*
X191397755Y-112800000D01*
X191415569Y-112756991D01*
X191413503Y-112755611D01*
X191421429Y-112743750D01*
X191461867Y-112683231D01*
X191473500Y-112624748D01*
X191473500Y-112175252D01*
X191461867Y-112116769D01*
X191452550Y-112102826D01*
X191413503Y-112044389D01*
X191415569Y-112043008D01*
X191397755Y-112000000D01*
X191415569Y-111956991D01*
X191413503Y-111955611D01*
X191445661Y-111907485D01*
X191461867Y-111883231D01*
X191473500Y-111824748D01*
X191473500Y-111375252D01*
X191461867Y-111316769D01*
X191452550Y-111302826D01*
X191413503Y-111244389D01*
X191415569Y-111243008D01*
X191397755Y-111200000D01*
X191415569Y-111156991D01*
X191413503Y-111155611D01*
X191417587Y-111149500D01*
X191461867Y-111083231D01*
X191473500Y-111024748D01*
X191473500Y-110575252D01*
X191461867Y-110516769D01*
X191452550Y-110502826D01*
X191433997Y-110475060D01*
X191417552Y-110450448D01*
X191417551Y-110450447D01*
X191413503Y-110444389D01*
X191415569Y-110443008D01*
X191397755Y-110400000D01*
X191415569Y-110356991D01*
X191413503Y-110355611D01*
X191420318Y-110345413D01*
X191461867Y-110283231D01*
X191473500Y-110224748D01*
X191473500Y-109775252D01*
X191461867Y-109716769D01*
X191452550Y-109702826D01*
X191420320Y-109654591D01*
X191417552Y-109650448D01*
X191417551Y-109650447D01*
X191413503Y-109644389D01*
X191415569Y-109643008D01*
X191397755Y-109600000D01*
X191415569Y-109556991D01*
X191413503Y-109555611D01*
X191445661Y-109507485D01*
X191461867Y-109483231D01*
X191473500Y-109424748D01*
X191473500Y-108975252D01*
X191461867Y-108916769D01*
X191455760Y-108907630D01*
X191413503Y-108844389D01*
X191415569Y-108843008D01*
X191397755Y-108800000D01*
X191415569Y-108756991D01*
X191413503Y-108755611D01*
X191419984Y-108745913D01*
X191461867Y-108683231D01*
X191473500Y-108624748D01*
X191473500Y-108175252D01*
X191461867Y-108116769D01*
X191461612Y-108116388D01*
X191435204Y-108076866D01*
X191417552Y-108050448D01*
X191417551Y-108050447D01*
X191413503Y-108044389D01*
X191415569Y-108043008D01*
X191397755Y-108000000D01*
X191415569Y-107956991D01*
X191413503Y-107955611D01*
X191417587Y-107949500D01*
X191461867Y-107883231D01*
X191473500Y-107824748D01*
X191473500Y-107375252D01*
X191461867Y-107316769D01*
X191461866Y-107316767D01*
X191461866Y-107316766D01*
X191459077Y-107310032D01*
X191462457Y-107308631D01*
X191453971Y-107265920D01*
X191474221Y-107228044D01*
X191524785Y-107177480D01*
X191570089Y-107074875D01*
X191573000Y-107049789D01*
X191573000Y-106900000D01*
X188700001Y-106900000D01*
X188700001Y-107049792D01*
X188702908Y-107074868D01*
X188702910Y-107074874D01*
X188748213Y-107177478D01*
X188793909Y-107223174D01*
X188815583Y-107275500D01*
X188793909Y-107327826D01*
X188741583Y-107349500D01*
X172094768Y-107349500D01*
X172042442Y-107327826D01*
X171531059Y-106816444D01*
X171531057Y-106816442D01*
X171501228Y-106804087D01*
X171501226Y-106804086D01*
X171429800Y-106774500D01*
X171429799Y-106774500D01*
X166321545Y-106774500D01*
X166269219Y-106752826D01*
X166245913Y-106729520D01*
X166154591Y-106676795D01*
X166154582Y-106676791D01*
X166052729Y-106649500D01*
X166052727Y-106649500D01*
X165947273Y-106649500D01*
X165947271Y-106649500D01*
X165845417Y-106676791D01*
X165845408Y-106676795D01*
X165754086Y-106729520D01*
X165679520Y-106804086D01*
X165626795Y-106895408D01*
X165626791Y-106895417D01*
X165599500Y-106997270D01*
X165599500Y-107102729D01*
X165626791Y-107204582D01*
X165626795Y-107204591D01*
X165667735Y-107275500D01*
X165679520Y-107295913D01*
X165754087Y-107370480D01*
X165845413Y-107423207D01*
X165947270Y-107450499D01*
X165947271Y-107450500D01*
X165947273Y-107450500D01*
X166052729Y-107450500D01*
X166052729Y-107450499D01*
X166101476Y-107437438D01*
X166106347Y-107436133D01*
X166116260Y-107437438D01*
X166125500Y-107433611D01*
X166143347Y-107441003D01*
X166162500Y-107443525D01*
X166168587Y-107451458D01*
X166177826Y-107455285D01*
X166185218Y-107473133D01*
X166196978Y-107488458D01*
X166199500Y-107507611D01*
X166199500Y-107592388D01*
X166177826Y-107644714D01*
X166125500Y-107666388D01*
X166106348Y-107663867D01*
X166052727Y-107649500D01*
X165947273Y-107649500D01*
X165947271Y-107649500D01*
X165845417Y-107676791D01*
X165845408Y-107676795D01*
X165754086Y-107729520D01*
X165679520Y-107804086D01*
X165626795Y-107895408D01*
X165626791Y-107895417D01*
X165599500Y-107997270D01*
X165599500Y-108102729D01*
X165626791Y-108204582D01*
X165626792Y-108204585D01*
X165626793Y-108204587D01*
X165679520Y-108295913D01*
X165754087Y-108370480D01*
X165845413Y-108423207D01*
X165947270Y-108450499D01*
X165947271Y-108450500D01*
X165947273Y-108450500D01*
X166052729Y-108450500D01*
X166052729Y-108450499D01*
X166101476Y-108437438D01*
X166106347Y-108436133D01*
X166116260Y-108437438D01*
X166125500Y-108433611D01*
X166143347Y-108441003D01*
X166162500Y-108443525D01*
X166168587Y-108451458D01*
X166177826Y-108455285D01*
X166185218Y-108473133D01*
X166196978Y-108488458D01*
X166199500Y-108507611D01*
X166199500Y-108578991D01*
X166177826Y-108631317D01*
X166125500Y-108652991D01*
X166106350Y-108650470D01*
X166102729Y-108649500D01*
X166102727Y-108649500D01*
X165997273Y-108649500D01*
X165997271Y-108649500D01*
X165895417Y-108676791D01*
X165895408Y-108676795D01*
X165804086Y-108729520D01*
X165729520Y-108804086D01*
X165676795Y-108895408D01*
X165676791Y-108895417D01*
X165649500Y-108997270D01*
X165649500Y-109102729D01*
X165676791Y-109204582D01*
X165676792Y-109204585D01*
X165676793Y-109204587D01*
X165729520Y-109295913D01*
X165804087Y-109370480D01*
X165895413Y-109423207D01*
X165997270Y-109450499D01*
X165997271Y-109450500D01*
X166075500Y-109450500D01*
X166127826Y-109472174D01*
X166149500Y-109524500D01*
X166149500Y-109605786D01*
X166127826Y-109658112D01*
X166075500Y-109679786D01*
X166056348Y-109677265D01*
X166054587Y-109676793D01*
X165952727Y-109649500D01*
X165847273Y-109649500D01*
X165847271Y-109649500D01*
X165745417Y-109676791D01*
X165745408Y-109676795D01*
X165654086Y-109729520D01*
X165579520Y-109804086D01*
X165526795Y-109895408D01*
X165526791Y-109895417D01*
X165499500Y-109997270D01*
X149900500Y-109997270D01*
X149900500Y-109957611D01*
X149922174Y-109905285D01*
X149974500Y-109883611D01*
X149993653Y-109886133D01*
X150024960Y-109894521D01*
X150047270Y-109900499D01*
X150047271Y-109900500D01*
X150047273Y-109900500D01*
X150152729Y-109900500D01*
X150152729Y-109900499D01*
X150254587Y-109873207D01*
X150345913Y-109820480D01*
X150420480Y-109745913D01*
X150473207Y-109654587D01*
X150500499Y-109552729D01*
X150500500Y-109552729D01*
X150500500Y-109447271D01*
X150500499Y-109447270D01*
X150494464Y-109424748D01*
X150473207Y-109345413D01*
X150420480Y-109254087D01*
X150345913Y-109179520D01*
X150302728Y-109154587D01*
X150254591Y-109126795D01*
X150254582Y-109126791D01*
X150152729Y-109099500D01*
X150152727Y-109099500D01*
X150047273Y-109099500D01*
X149993652Y-109113867D01*
X149983737Y-109112561D01*
X149974500Y-109116388D01*
X149956651Y-109108994D01*
X149937499Y-109106473D01*
X149931412Y-109098540D01*
X149922174Y-109094714D01*
X149914781Y-109076866D01*
X149903021Y-109061540D01*
X149900500Y-109042388D01*
X149900500Y-108971008D01*
X149922174Y-108918682D01*
X149974500Y-108897008D01*
X149993655Y-108899530D01*
X149997273Y-108900500D01*
X150102729Y-108900500D01*
X150102729Y-108900499D01*
X150204587Y-108873207D01*
X150295913Y-108820480D01*
X150370480Y-108745913D01*
X150423207Y-108654587D01*
X150450499Y-108552729D01*
X150450500Y-108552729D01*
X150450500Y-108447271D01*
X150450499Y-108447270D01*
X150444051Y-108423207D01*
X150423207Y-108345413D01*
X150370480Y-108254087D01*
X150295913Y-108179520D01*
X150252728Y-108154587D01*
X150204591Y-108126795D01*
X150204582Y-108126791D01*
X150102729Y-108099500D01*
X150102727Y-108099500D01*
X149997273Y-108099500D01*
X149943652Y-108113867D01*
X149933737Y-108112561D01*
X149924500Y-108116388D01*
X149906651Y-108108994D01*
X149887499Y-108106473D01*
X149881412Y-108098540D01*
X149872174Y-108094714D01*
X149864781Y-108076866D01*
X149853021Y-108061540D01*
X149850500Y-108042388D01*
X149850500Y-107957611D01*
X149872174Y-107905285D01*
X149924500Y-107883611D01*
X149943653Y-107886133D01*
X149974960Y-107894521D01*
X149997270Y-107900499D01*
X149997271Y-107900500D01*
X149997273Y-107900500D01*
X150102729Y-107900500D01*
X150102729Y-107900499D01*
X150204587Y-107873207D01*
X150295913Y-107820480D01*
X150370480Y-107745913D01*
X150423207Y-107654587D01*
X150450499Y-107552729D01*
X150450500Y-107552729D01*
X150450500Y-107447271D01*
X150450499Y-107447270D01*
X150444051Y-107423207D01*
X150423207Y-107345413D01*
X150370480Y-107254087D01*
X150295913Y-107179520D01*
X150252728Y-107154587D01*
X150204591Y-107126795D01*
X150204582Y-107126791D01*
X150102729Y-107099500D01*
X150102727Y-107099500D01*
X149997273Y-107099500D01*
X149943652Y-107113867D01*
X149887499Y-107106473D01*
X149853021Y-107061540D01*
X149850500Y-107042388D01*
X149850500Y-106947271D01*
X149850499Y-106947270D01*
X149823208Y-106845417D01*
X149823207Y-106845413D01*
X149770480Y-106754087D01*
X149695913Y-106679520D01*
X149643917Y-106649500D01*
X149604591Y-106626795D01*
X149604582Y-106626791D01*
X149502729Y-106599500D01*
X149502727Y-106599500D01*
X149397273Y-106599500D01*
X149397271Y-106599500D01*
X149295417Y-106626791D01*
X149295408Y-106626795D01*
X149204086Y-106679520D01*
X149180781Y-106702826D01*
X149128455Y-106724500D01*
X141145198Y-106724500D01*
X141073770Y-106754087D01*
X141073769Y-106754087D01*
X141043941Y-106766441D01*
X141043938Y-106766443D01*
X140507557Y-107302826D01*
X140455231Y-107324500D01*
X127283417Y-107324500D01*
X127231091Y-107302826D01*
X127209417Y-107250500D01*
X127231091Y-107198174D01*
X127251786Y-107177478D01*
X127297089Y-107074875D01*
X127300000Y-107049789D01*
X127300000Y-106900000D01*
X124427001Y-106900000D01*
X124427001Y-107049792D01*
X124429908Y-107074868D01*
X124429910Y-107074874D01*
X124475213Y-107177478D01*
X124525780Y-107228045D01*
X124547454Y-107280371D01*
X124538733Y-107309128D01*
X124540922Y-107310035D01*
X124538133Y-107316767D01*
X124532085Y-107347174D01*
X124526500Y-107375252D01*
X124526500Y-107824748D01*
X124533023Y-107857539D01*
X124538133Y-107883232D01*
X124549671Y-107900499D01*
X124582413Y-107949500D01*
X124586497Y-107955611D01*
X124584430Y-107956991D01*
X124602245Y-108000000D01*
X124584430Y-108043008D01*
X124586497Y-108044389D01*
X124538133Y-108116767D01*
X124530611Y-108154587D01*
X124526500Y-108175252D01*
X124526500Y-108624748D01*
X124532118Y-108652991D01*
X124538133Y-108683232D01*
X124554942Y-108708387D01*
X124580016Y-108745913D01*
X124586497Y-108755611D01*
X124584430Y-108756991D01*
X124602245Y-108800000D01*
X124584430Y-108843008D01*
X124586497Y-108844389D01*
X124538133Y-108916767D01*
X124536851Y-108923214D01*
X124526500Y-108975252D01*
X124526500Y-109424748D01*
X124531886Y-109451826D01*
X124538133Y-109483232D01*
X124586497Y-109555611D01*
X124584430Y-109556991D01*
X124602245Y-109600000D01*
X124584430Y-109643008D01*
X124586497Y-109644389D01*
X124582448Y-109650447D01*
X124582448Y-109650448D01*
X124579680Y-109654591D01*
X124538133Y-109716767D01*
X124532336Y-109745913D01*
X124526500Y-109775252D01*
X124526500Y-110224748D01*
X124528253Y-110233559D01*
X124538133Y-110283232D01*
X124554339Y-110307485D01*
X124579682Y-110345413D01*
X124586497Y-110355611D01*
X124584430Y-110356991D01*
X124602245Y-110400000D01*
X124584430Y-110443008D01*
X124586497Y-110444389D01*
X124582448Y-110450447D01*
X124582448Y-110450448D01*
X124581527Y-110451826D01*
X124538133Y-110516767D01*
X124530980Y-110552729D01*
X124526500Y-110575252D01*
X124526500Y-111024748D01*
X124528253Y-111033559D01*
X124538133Y-111083232D01*
X124567309Y-111126895D01*
X124582413Y-111149500D01*
X124586497Y-111155611D01*
X124584430Y-111156991D01*
X124602245Y-111200000D01*
X124584430Y-111243008D01*
X124586497Y-111244389D01*
X124538133Y-111316767D01*
X124538133Y-111316769D01*
X124526500Y-111375252D01*
X124526500Y-111824748D01*
X124528253Y-111833559D01*
X124538133Y-111883232D01*
X124586497Y-111955611D01*
X124584430Y-111956991D01*
X124602245Y-112000000D01*
X124584430Y-112043008D01*
X124586497Y-112044389D01*
X124538133Y-112116767D01*
X124538133Y-112116769D01*
X124526500Y-112175252D01*
X124526500Y-112624748D01*
X124534255Y-112663736D01*
X124538133Y-112683232D01*
X124586497Y-112755611D01*
X124584430Y-112756991D01*
X124602245Y-112800000D01*
X124584430Y-112843008D01*
X124586497Y-112844389D01*
X124538133Y-112916767D01*
X124526500Y-112975253D01*
X124526500Y-113424746D01*
X124538133Y-113483233D01*
X124540923Y-113489968D01*
X124537543Y-113491367D01*
X124546026Y-113534092D01*
X124525779Y-113571954D01*
X124475214Y-113622519D01*
X124429910Y-113725124D01*
X124427000Y-113750210D01*
X121572999Y-113750210D01*
X121572999Y-113750207D01*
X121570091Y-113725131D01*
X121570089Y-113725125D01*
X121524786Y-113622521D01*
X121474219Y-113571954D01*
X121452545Y-113519628D01*
X121461275Y-113490874D01*
X121459078Y-113489964D01*
X121461866Y-113483232D01*
X121461865Y-113483232D01*
X121461867Y-113483231D01*
X121473500Y-113424748D01*
X121473500Y-112975252D01*
X121461867Y-112916769D01*
X121452550Y-112902826D01*
X121413503Y-112844389D01*
X121415569Y-112843008D01*
X121397755Y-112800000D01*
X121415569Y-112756991D01*
X121413503Y-112755611D01*
X121421429Y-112743750D01*
X121461867Y-112683231D01*
X121473500Y-112624748D01*
X121473500Y-112175252D01*
X121461867Y-112116769D01*
X121452550Y-112102826D01*
X121413503Y-112044389D01*
X121415569Y-112043008D01*
X121397755Y-112000000D01*
X121415569Y-111956991D01*
X121413503Y-111955611D01*
X121445661Y-111907485D01*
X121461867Y-111883231D01*
X121473500Y-111824748D01*
X121473500Y-111375252D01*
X121461867Y-111316769D01*
X121452550Y-111302826D01*
X121413503Y-111244389D01*
X121415569Y-111243008D01*
X121397755Y-111200000D01*
X121415569Y-111156991D01*
X121413503Y-111155611D01*
X121417587Y-111149500D01*
X121461867Y-111083231D01*
X121473500Y-111024748D01*
X121473500Y-110575252D01*
X121461867Y-110516769D01*
X121452550Y-110502826D01*
X121433997Y-110475060D01*
X121417552Y-110450448D01*
X121417551Y-110450447D01*
X121413503Y-110444389D01*
X121415569Y-110443008D01*
X121397755Y-110400000D01*
X121415569Y-110356991D01*
X121413503Y-110355611D01*
X121420318Y-110345413D01*
X121461867Y-110283231D01*
X121473500Y-110224748D01*
X121473500Y-109775252D01*
X121461867Y-109716769D01*
X121452550Y-109702826D01*
X121420320Y-109654591D01*
X121417552Y-109650448D01*
X121417551Y-109650447D01*
X121413503Y-109644389D01*
X121415569Y-109643008D01*
X121397755Y-109600000D01*
X121415569Y-109556991D01*
X121413503Y-109555611D01*
X121445661Y-109507485D01*
X121461867Y-109483231D01*
X121473500Y-109424748D01*
X121473500Y-108975252D01*
X121461867Y-108916769D01*
X121455760Y-108907630D01*
X121413503Y-108844389D01*
X121415569Y-108843008D01*
X121397755Y-108800000D01*
X121415569Y-108756991D01*
X121413503Y-108755611D01*
X121419984Y-108745913D01*
X121461867Y-108683231D01*
X121473500Y-108624748D01*
X121473500Y-108175252D01*
X121461867Y-108116769D01*
X121461612Y-108116388D01*
X121435204Y-108076866D01*
X121417552Y-108050448D01*
X121417551Y-108050447D01*
X121413503Y-108044389D01*
X121415569Y-108043008D01*
X121397755Y-108000000D01*
X121415569Y-107956991D01*
X121413503Y-107955611D01*
X121417587Y-107949500D01*
X121461867Y-107883231D01*
X121473500Y-107824748D01*
X121473500Y-107375252D01*
X121461867Y-107316769D01*
X121461866Y-107316767D01*
X121461866Y-107316766D01*
X121459077Y-107310032D01*
X121462457Y-107308631D01*
X121453971Y-107265920D01*
X121474221Y-107228044D01*
X121524785Y-107177480D01*
X121570089Y-107074875D01*
X121573000Y-107049789D01*
X121573000Y-106900000D01*
X118700001Y-106900000D01*
X118700001Y-107049792D01*
X118702908Y-107074868D01*
X118702910Y-107074874D01*
X118748213Y-107177478D01*
X118798780Y-107228045D01*
X118820454Y-107280371D01*
X118811733Y-107309128D01*
X118813922Y-107310035D01*
X118811133Y-107316767D01*
X118805085Y-107347174D01*
X118799500Y-107375252D01*
X118799500Y-107824748D01*
X118806023Y-107857539D01*
X118811133Y-107883232D01*
X118822671Y-107900499D01*
X118855413Y-107949500D01*
X118859497Y-107955611D01*
X118857430Y-107956991D01*
X118875245Y-108000000D01*
X118857430Y-108043008D01*
X118859497Y-108044389D01*
X118811133Y-108116767D01*
X118803611Y-108154587D01*
X118799500Y-108175252D01*
X118799500Y-108624748D01*
X118805118Y-108652991D01*
X118811133Y-108683232D01*
X118827942Y-108708387D01*
X118853016Y-108745913D01*
X118859497Y-108755611D01*
X118857430Y-108756991D01*
X118875245Y-108800000D01*
X118857430Y-108843008D01*
X118859497Y-108844389D01*
X118811133Y-108916767D01*
X118809851Y-108923214D01*
X118799500Y-108975252D01*
X118799500Y-109424748D01*
X118804886Y-109451826D01*
X118811133Y-109483232D01*
X118859497Y-109555611D01*
X118857430Y-109556991D01*
X118875245Y-109600000D01*
X118857430Y-109643008D01*
X118859497Y-109644389D01*
X118855448Y-109650447D01*
X118855448Y-109650448D01*
X118852680Y-109654591D01*
X118811133Y-109716767D01*
X118805336Y-109745913D01*
X118799500Y-109775252D01*
X118799500Y-110224748D01*
X118801253Y-110233559D01*
X118811133Y-110283232D01*
X118827339Y-110307485D01*
X118852682Y-110345413D01*
X118859497Y-110355611D01*
X118857430Y-110356991D01*
X118875245Y-110400000D01*
X118857430Y-110443008D01*
X118859497Y-110444389D01*
X118855448Y-110450447D01*
X118855448Y-110450448D01*
X118854527Y-110451826D01*
X118811133Y-110516767D01*
X118803980Y-110552729D01*
X118799500Y-110575252D01*
X118799500Y-111024748D01*
X118801253Y-111033559D01*
X118811133Y-111083232D01*
X118840309Y-111126895D01*
X118855413Y-111149500D01*
X118859497Y-111155611D01*
X118857430Y-111156991D01*
X118875245Y-111200000D01*
X118857430Y-111243008D01*
X118859497Y-111244389D01*
X118811133Y-111316767D01*
X118811133Y-111316769D01*
X118799500Y-111375252D01*
X118799500Y-111824748D01*
X118801253Y-111833559D01*
X118811133Y-111883232D01*
X118859497Y-111955611D01*
X118857430Y-111956991D01*
X118875245Y-112000000D01*
X118857430Y-112043008D01*
X118859497Y-112044389D01*
X118811133Y-112116767D01*
X118811133Y-112116769D01*
X118799500Y-112175252D01*
X118799500Y-112624748D01*
X118807255Y-112663736D01*
X118811133Y-112683232D01*
X118859497Y-112755611D01*
X118857430Y-112756991D01*
X118875245Y-112800000D01*
X118857430Y-112843008D01*
X118859497Y-112844389D01*
X118811133Y-112916767D01*
X118799500Y-112975253D01*
X118799500Y-113424746D01*
X118811133Y-113483233D01*
X118813923Y-113489968D01*
X118810543Y-113491367D01*
X118819026Y-113534092D01*
X118798779Y-113571954D01*
X118748214Y-113622519D01*
X118702910Y-113725124D01*
X118700000Y-113750210D01*
X108150500Y-113750210D01*
X108150500Y-106550210D01*
X118700000Y-106550210D01*
X118700000Y-106700000D01*
X121572999Y-106700000D01*
X121572999Y-106550210D01*
X124427000Y-106550210D01*
X124427000Y-106700000D01*
X127299999Y-106700000D01*
X127299999Y-106550207D01*
X127297091Y-106525131D01*
X127297089Y-106525125D01*
X127251786Y-106422521D01*
X127231091Y-106401826D01*
X127209417Y-106349500D01*
X127231091Y-106297174D01*
X127283417Y-106275500D01*
X149728455Y-106275500D01*
X149780781Y-106297174D01*
X149804087Y-106320480D01*
X149895413Y-106373207D01*
X149997270Y-106400499D01*
X149997271Y-106400500D01*
X149997273Y-106400500D01*
X150102729Y-106400500D01*
X150102729Y-106400499D01*
X150204587Y-106373207D01*
X150295913Y-106320480D01*
X150370480Y-106245913D01*
X150423207Y-106154587D01*
X150450499Y-106052729D01*
X150450500Y-106052729D01*
X150450500Y-105947271D01*
X150450499Y-105947270D01*
X150444051Y-105923207D01*
X150423207Y-105845413D01*
X150370480Y-105754087D01*
X150295913Y-105679520D01*
X150241620Y-105648174D01*
X150204591Y-105626795D01*
X150204582Y-105626791D01*
X150102729Y-105599500D01*
X150102727Y-105599500D01*
X149997273Y-105599500D01*
X149943652Y-105613867D01*
X149933737Y-105612561D01*
X149924500Y-105616388D01*
X149906651Y-105608994D01*
X149887499Y-105606473D01*
X149881412Y-105598540D01*
X149872174Y-105594714D01*
X149864781Y-105576866D01*
X149853021Y-105561540D01*
X149850500Y-105542388D01*
X149850500Y-105457611D01*
X149872174Y-105405285D01*
X149924500Y-105383611D01*
X149943653Y-105386133D01*
X149974960Y-105394521D01*
X149997270Y-105400499D01*
X149997271Y-105400500D01*
X149997273Y-105400500D01*
X150102729Y-105400500D01*
X150102729Y-105400499D01*
X150204587Y-105373207D01*
X150295913Y-105320480D01*
X150370480Y-105245913D01*
X150423207Y-105154587D01*
X150450499Y-105052729D01*
X150450500Y-105052729D01*
X150450500Y-104947271D01*
X150450499Y-104947270D01*
X150444051Y-104923207D01*
X150423207Y-104845413D01*
X150370480Y-104754087D01*
X150295913Y-104679520D01*
X150252728Y-104654587D01*
X150204591Y-104626795D01*
X150204582Y-104626791D01*
X150102729Y-104599500D01*
X150102727Y-104599500D01*
X149997273Y-104599500D01*
X149943652Y-104613867D01*
X149933737Y-104612561D01*
X149924500Y-104616388D01*
X149906651Y-104608994D01*
X149887499Y-104606473D01*
X149881412Y-104598540D01*
X149872174Y-104594714D01*
X149864781Y-104576866D01*
X149853021Y-104561540D01*
X149850500Y-104542388D01*
X149850500Y-104457611D01*
X149872174Y-104405285D01*
X149924500Y-104383611D01*
X149943653Y-104386133D01*
X149974960Y-104394521D01*
X149997270Y-104400499D01*
X149997271Y-104400500D01*
X149997273Y-104400500D01*
X150102729Y-104400500D01*
X150102729Y-104400499D01*
X150204587Y-104373207D01*
X150295913Y-104320480D01*
X150370480Y-104245913D01*
X150423207Y-104154587D01*
X150450499Y-104052729D01*
X150450500Y-104052729D01*
X150450500Y-103947271D01*
X150450499Y-103947270D01*
X150444051Y-103923207D01*
X150423207Y-103845413D01*
X150370480Y-103754087D01*
X150295913Y-103679520D01*
X150241620Y-103648174D01*
X150204591Y-103626795D01*
X150204582Y-103626791D01*
X150102729Y-103599500D01*
X150102727Y-103599500D01*
X149997273Y-103599500D01*
X149943652Y-103613867D01*
X149933737Y-103612561D01*
X149924500Y-103616388D01*
X149906651Y-103608994D01*
X149887499Y-103606473D01*
X149881412Y-103598540D01*
X149872174Y-103594714D01*
X149864781Y-103576866D01*
X149853021Y-103561540D01*
X149850500Y-103542388D01*
X149850500Y-103457611D01*
X149872174Y-103405285D01*
X149924500Y-103383611D01*
X149943653Y-103386133D01*
X149974960Y-103394521D01*
X149997270Y-103400499D01*
X149997271Y-103400500D01*
X149997273Y-103400500D01*
X150102729Y-103400500D01*
X150102729Y-103400499D01*
X150204587Y-103373207D01*
X150295913Y-103320480D01*
X150370480Y-103245913D01*
X150423207Y-103154587D01*
X150450499Y-103052729D01*
X150450500Y-103052729D01*
X150450500Y-102947271D01*
X150450499Y-102947270D01*
X150444051Y-102923207D01*
X150423207Y-102845413D01*
X150370480Y-102754087D01*
X150295913Y-102679520D01*
X150241620Y-102648174D01*
X150204591Y-102626795D01*
X150204582Y-102626791D01*
X150102729Y-102599500D01*
X150102727Y-102599500D01*
X149997273Y-102599500D01*
X149943652Y-102613867D01*
X149933737Y-102612561D01*
X149924500Y-102616388D01*
X149906651Y-102608994D01*
X149887499Y-102606473D01*
X149881412Y-102598540D01*
X149872174Y-102594714D01*
X149864781Y-102576866D01*
X149853021Y-102561540D01*
X149850500Y-102542388D01*
X149850500Y-102497270D01*
X165549500Y-102497270D01*
X165549500Y-102602729D01*
X165576791Y-102704582D01*
X165576792Y-102704585D01*
X165576793Y-102704587D01*
X165629520Y-102795913D01*
X165704087Y-102870480D01*
X165795413Y-102923207D01*
X165897270Y-102950499D01*
X165897271Y-102950500D01*
X165897273Y-102950500D01*
X166002729Y-102950500D01*
X166002729Y-102950499D01*
X166051476Y-102937438D01*
X166056347Y-102936133D01*
X166066260Y-102937438D01*
X166075500Y-102933611D01*
X166093347Y-102941003D01*
X166112500Y-102943525D01*
X166118587Y-102951458D01*
X166127826Y-102955285D01*
X166135218Y-102973133D01*
X166146978Y-102988458D01*
X166149500Y-103007611D01*
X166149500Y-103092388D01*
X166127826Y-103144714D01*
X166075500Y-103166388D01*
X166056348Y-103163867D01*
X166002727Y-103149500D01*
X165897273Y-103149500D01*
X165897271Y-103149500D01*
X165795417Y-103176791D01*
X165795408Y-103176795D01*
X165704086Y-103229520D01*
X165629520Y-103304086D01*
X165576795Y-103395408D01*
X165576791Y-103395417D01*
X165549500Y-103497270D01*
X165549500Y-103602729D01*
X165576791Y-103704582D01*
X165576792Y-103704585D01*
X165576793Y-103704587D01*
X165629520Y-103795913D01*
X165704087Y-103870480D01*
X165795413Y-103923207D01*
X165897270Y-103950499D01*
X165897271Y-103950500D01*
X165897273Y-103950500D01*
X166002729Y-103950500D01*
X166002729Y-103950499D01*
X166051476Y-103937438D01*
X166056347Y-103936133D01*
X166066260Y-103937438D01*
X166075500Y-103933611D01*
X166093347Y-103941003D01*
X166112500Y-103943525D01*
X166118587Y-103951458D01*
X166127826Y-103955285D01*
X166135218Y-103973133D01*
X166146978Y-103988458D01*
X166149500Y-104007611D01*
X166149500Y-104092388D01*
X166127826Y-104144714D01*
X166075500Y-104166388D01*
X166056348Y-104163867D01*
X166002727Y-104149500D01*
X165897273Y-104149500D01*
X165897271Y-104149500D01*
X165795417Y-104176791D01*
X165795408Y-104176795D01*
X165704086Y-104229520D01*
X165629520Y-104304086D01*
X165576795Y-104395408D01*
X165576791Y-104395417D01*
X165549500Y-104497270D01*
X165549500Y-104602729D01*
X165576791Y-104704582D01*
X165576795Y-104704591D01*
X165605371Y-104754086D01*
X165629520Y-104795913D01*
X165704087Y-104870480D01*
X165795413Y-104923207D01*
X165897270Y-104950499D01*
X165897271Y-104950500D01*
X165897273Y-104950500D01*
X166002729Y-104950500D01*
X166002729Y-104950499D01*
X166051476Y-104937438D01*
X166056347Y-104936133D01*
X166066260Y-104937438D01*
X166075500Y-104933611D01*
X166093347Y-104941003D01*
X166112500Y-104943525D01*
X166118587Y-104951458D01*
X166127826Y-104955285D01*
X166135218Y-104973133D01*
X166146978Y-104988458D01*
X166149500Y-105007611D01*
X166149500Y-105092388D01*
X166127826Y-105144714D01*
X166075500Y-105166388D01*
X166056348Y-105163867D01*
X166002727Y-105149500D01*
X165897273Y-105149500D01*
X165897271Y-105149500D01*
X165795417Y-105176791D01*
X165795408Y-105176795D01*
X165704086Y-105229520D01*
X165629520Y-105304086D01*
X165576795Y-105395408D01*
X165576791Y-105395417D01*
X165549500Y-105497270D01*
X165549500Y-105602729D01*
X165576791Y-105704582D01*
X165576795Y-105704591D01*
X165588290Y-105724500D01*
X165629520Y-105795913D01*
X165704087Y-105870480D01*
X165795413Y-105923207D01*
X165897270Y-105950499D01*
X165897271Y-105950500D01*
X165897273Y-105950500D01*
X166002729Y-105950500D01*
X166002729Y-105950499D01*
X166036384Y-105941481D01*
X166056347Y-105936133D01*
X166112500Y-105943525D01*
X166146978Y-105988458D01*
X166149500Y-106007611D01*
X166149500Y-106102729D01*
X166176791Y-106204582D01*
X166176795Y-106204591D01*
X166217735Y-106275500D01*
X166229520Y-106295913D01*
X166304087Y-106370480D01*
X166395413Y-106423207D01*
X166497270Y-106450499D01*
X166497271Y-106450500D01*
X166497273Y-106450500D01*
X166602729Y-106450500D01*
X166602729Y-106450499D01*
X166704587Y-106423207D01*
X166795913Y-106370480D01*
X166819219Y-106347174D01*
X166871545Y-106325500D01*
X188677486Y-106325500D01*
X188729812Y-106347174D01*
X188751486Y-106399500D01*
X188745181Y-106429390D01*
X188702910Y-106525124D01*
X188700000Y-106550210D01*
X188700000Y-106700000D01*
X191572999Y-106700000D01*
X191572999Y-106550210D01*
X194427000Y-106550210D01*
X194427000Y-106700000D01*
X197299999Y-106700000D01*
X197299999Y-106550207D01*
X197297091Y-106525131D01*
X197297089Y-106525125D01*
X197251786Y-106422521D01*
X197201219Y-106371954D01*
X197179545Y-106319628D01*
X197188275Y-106290874D01*
X197186078Y-106289964D01*
X197188866Y-106283232D01*
X197188865Y-106283232D01*
X197188867Y-106283231D01*
X197200500Y-106224748D01*
X197200500Y-105775252D01*
X197188867Y-105716769D01*
X197179550Y-105702826D01*
X197161243Y-105675428D01*
X197144552Y-105650448D01*
X197144551Y-105650447D01*
X197140503Y-105644389D01*
X197142569Y-105643008D01*
X197124755Y-105600000D01*
X197142569Y-105556991D01*
X197140503Y-105555611D01*
X197149339Y-105542388D01*
X197188867Y-105483231D01*
X197200500Y-105424748D01*
X197200500Y-104975252D01*
X197188867Y-104916769D01*
X197182760Y-104907630D01*
X197157937Y-104870480D01*
X197144552Y-104850448D01*
X197144551Y-104850447D01*
X197140503Y-104844389D01*
X197142569Y-104843008D01*
X197124755Y-104800000D01*
X197142569Y-104756991D01*
X197140503Y-104755611D01*
X197188866Y-104683232D01*
X197188865Y-104683232D01*
X197188867Y-104683231D01*
X197200500Y-104624748D01*
X197200500Y-104175252D01*
X197188867Y-104116769D01*
X197182760Y-104107630D01*
X197146076Y-104052729D01*
X197144552Y-104050448D01*
X197144551Y-104050447D01*
X197140503Y-104044389D01*
X197142569Y-104043008D01*
X197124755Y-104000000D01*
X197142569Y-103956991D01*
X197140503Y-103955611D01*
X197146075Y-103947273D01*
X197188867Y-103883231D01*
X197200500Y-103824748D01*
X197200500Y-103375252D01*
X197188867Y-103316769D01*
X197182760Y-103307630D01*
X197140503Y-103244389D01*
X197142569Y-103243008D01*
X197124755Y-103200000D01*
X197142569Y-103156991D01*
X197140503Y-103155611D01*
X197144587Y-103149500D01*
X197188867Y-103083231D01*
X197200500Y-103024748D01*
X197200500Y-102575252D01*
X197188867Y-102516769D01*
X197182760Y-102507630D01*
X197140503Y-102444389D01*
X197142569Y-102443008D01*
X197124755Y-102400000D01*
X197142569Y-102356991D01*
X197140503Y-102355611D01*
X197147318Y-102345413D01*
X197188867Y-102283231D01*
X197200500Y-102224748D01*
X197200500Y-101775252D01*
X197188867Y-101716769D01*
X197182760Y-101707630D01*
X197167896Y-101685385D01*
X197144552Y-101650448D01*
X197144551Y-101650447D01*
X197140503Y-101644389D01*
X197142569Y-101643008D01*
X197124755Y-101600000D01*
X197142569Y-101556991D01*
X197140503Y-101555611D01*
X197188866Y-101483232D01*
X197188865Y-101483232D01*
X197188867Y-101483231D01*
X197200500Y-101424748D01*
X197200500Y-100975252D01*
X197188867Y-100916769D01*
X197182760Y-100907630D01*
X197140503Y-100844389D01*
X197142569Y-100843008D01*
X197124755Y-100800000D01*
X197142569Y-100756991D01*
X197140503Y-100755611D01*
X197146984Y-100745913D01*
X197188867Y-100683231D01*
X197200500Y-100624748D01*
X197200500Y-100175252D01*
X197188867Y-100116769D01*
X197188866Y-100116767D01*
X197188866Y-100116766D01*
X197186077Y-100110032D01*
X197189457Y-100108631D01*
X197180971Y-100065920D01*
X197201221Y-100028044D01*
X197251785Y-99977480D01*
X197297089Y-99874875D01*
X197300000Y-99849789D01*
X197300000Y-99700000D01*
X194427001Y-99700000D01*
X194427001Y-99849792D01*
X194429908Y-99874868D01*
X194429910Y-99874874D01*
X194475213Y-99977478D01*
X194525780Y-100028045D01*
X194547454Y-100080371D01*
X194538733Y-100109128D01*
X194540922Y-100110035D01*
X194538133Y-100116767D01*
X194531423Y-100150500D01*
X194526500Y-100175252D01*
X194526500Y-100624748D01*
X194532434Y-100654582D01*
X194538133Y-100683232D01*
X194567309Y-100726895D01*
X194580016Y-100745913D01*
X194586497Y-100755611D01*
X194584430Y-100756991D01*
X194602245Y-100800000D01*
X194584430Y-100843008D01*
X194586497Y-100844389D01*
X194538133Y-100916767D01*
X194536851Y-100923214D01*
X194528253Y-100966442D01*
X194526500Y-100975253D01*
X194526500Y-101424746D01*
X194538133Y-101483232D01*
X194586497Y-101555611D01*
X194584430Y-101556991D01*
X194602245Y-101600000D01*
X194584430Y-101643008D01*
X194586497Y-101644389D01*
X194582448Y-101650447D01*
X194582448Y-101650448D01*
X194574528Y-101662299D01*
X194538133Y-101716767D01*
X194534793Y-101733558D01*
X194526500Y-101775252D01*
X194526500Y-102224748D01*
X194532085Y-102252826D01*
X194538133Y-102283232D01*
X194554942Y-102308387D01*
X194579682Y-102345413D01*
X194586497Y-102355611D01*
X194584430Y-102356991D01*
X194602245Y-102400000D01*
X194584430Y-102443008D01*
X194586497Y-102444389D01*
X194538133Y-102516767D01*
X194530377Y-102555757D01*
X194528253Y-102566442D01*
X194526500Y-102575253D01*
X194526500Y-103024746D01*
X194538133Y-103083232D01*
X194551160Y-103102727D01*
X194582413Y-103149500D01*
X194586497Y-103155611D01*
X194584430Y-103156991D01*
X194602245Y-103200000D01*
X194584430Y-103243008D01*
X194586497Y-103244389D01*
X194538133Y-103316767D01*
X194536851Y-103323214D01*
X194526500Y-103375252D01*
X194526500Y-103824748D01*
X194534255Y-103863736D01*
X194538133Y-103883232D01*
X194564845Y-103923208D01*
X194580925Y-103947273D01*
X194586497Y-103955611D01*
X194584430Y-103956991D01*
X194602245Y-104000000D01*
X194584430Y-104043008D01*
X194586497Y-104044389D01*
X194582448Y-104050447D01*
X194582448Y-104050448D01*
X194580925Y-104052727D01*
X194538133Y-104116767D01*
X194536068Y-104127151D01*
X194526500Y-104175252D01*
X194526500Y-104624748D01*
X194532435Y-104654587D01*
X194538133Y-104683232D01*
X194586497Y-104755611D01*
X194584430Y-104756991D01*
X194602245Y-104800000D01*
X194584430Y-104843008D01*
X194586497Y-104844389D01*
X194582448Y-104850447D01*
X194582448Y-104850448D01*
X194574528Y-104862299D01*
X194538133Y-104916767D01*
X194532811Y-104943525D01*
X194526922Y-104973133D01*
X194526500Y-104975253D01*
X194526500Y-105424746D01*
X194538133Y-105483232D01*
X194586497Y-105555611D01*
X194584430Y-105556991D01*
X194602245Y-105600000D01*
X194584430Y-105643008D01*
X194586497Y-105644389D01*
X194582448Y-105650447D01*
X194582448Y-105650448D01*
X194574528Y-105662299D01*
X194538133Y-105716767D01*
X194526500Y-105775253D01*
X194526500Y-106224746D01*
X194538133Y-106283233D01*
X194540923Y-106289968D01*
X194537543Y-106291367D01*
X194546026Y-106334092D01*
X194525779Y-106371954D01*
X194475214Y-106422519D01*
X194429910Y-106525124D01*
X194427000Y-106550210D01*
X191572999Y-106550210D01*
X191572999Y-106550207D01*
X191570091Y-106525131D01*
X191570089Y-106525125D01*
X191524786Y-106422521D01*
X191474219Y-106371954D01*
X191452545Y-106319628D01*
X191461275Y-106290874D01*
X191459078Y-106289964D01*
X191461866Y-106283232D01*
X191461865Y-106283232D01*
X191461867Y-106283231D01*
X191473500Y-106224748D01*
X191473500Y-105775252D01*
X191461867Y-105716769D01*
X191452550Y-105702826D01*
X191434243Y-105675428D01*
X191417552Y-105650448D01*
X191417551Y-105650447D01*
X191413503Y-105644389D01*
X191415569Y-105643008D01*
X191397755Y-105600000D01*
X191415569Y-105556991D01*
X191413503Y-105555611D01*
X191422339Y-105542388D01*
X191461867Y-105483231D01*
X191473500Y-105424748D01*
X191473500Y-104975252D01*
X191461867Y-104916769D01*
X191455760Y-104907630D01*
X191430937Y-104870480D01*
X191417552Y-104850448D01*
X191417551Y-104850447D01*
X191413503Y-104844389D01*
X191415569Y-104843008D01*
X191397755Y-104800000D01*
X191415569Y-104756991D01*
X191413503Y-104755611D01*
X191461866Y-104683232D01*
X191461865Y-104683232D01*
X191461867Y-104683231D01*
X191473500Y-104624748D01*
X191473500Y-104175252D01*
X191461867Y-104116769D01*
X191455760Y-104107630D01*
X191419076Y-104052729D01*
X191417552Y-104050448D01*
X191417551Y-104050447D01*
X191413503Y-104044389D01*
X191415569Y-104043008D01*
X191397755Y-104000000D01*
X191415569Y-103956991D01*
X191413503Y-103955611D01*
X191419075Y-103947273D01*
X191461867Y-103883231D01*
X191473500Y-103824748D01*
X191473500Y-103375252D01*
X191461867Y-103316769D01*
X191455760Y-103307630D01*
X191413503Y-103244389D01*
X191415569Y-103243008D01*
X191397755Y-103200000D01*
X191415569Y-103156991D01*
X191413503Y-103155611D01*
X191417587Y-103149500D01*
X191461867Y-103083231D01*
X191473500Y-103024748D01*
X191473500Y-102575252D01*
X191461867Y-102516769D01*
X191455760Y-102507630D01*
X191413503Y-102444389D01*
X191415569Y-102443008D01*
X191397755Y-102400000D01*
X191415569Y-102356991D01*
X191413503Y-102355611D01*
X191420318Y-102345413D01*
X191461867Y-102283231D01*
X191473500Y-102224748D01*
X191473500Y-101775252D01*
X191461867Y-101716769D01*
X191455760Y-101707630D01*
X191440896Y-101685385D01*
X191417552Y-101650448D01*
X191417551Y-101650447D01*
X191413503Y-101644389D01*
X191415569Y-101643008D01*
X191397755Y-101600000D01*
X191415569Y-101556991D01*
X191413503Y-101555611D01*
X191461866Y-101483232D01*
X191461865Y-101483232D01*
X191461867Y-101483231D01*
X191473500Y-101424748D01*
X191473500Y-100975252D01*
X191461867Y-100916769D01*
X191455760Y-100907630D01*
X191413503Y-100844389D01*
X191415569Y-100843008D01*
X191397755Y-100800000D01*
X191415569Y-100756991D01*
X191413503Y-100755611D01*
X191419984Y-100745913D01*
X191461867Y-100683231D01*
X191473500Y-100624748D01*
X191473500Y-100175252D01*
X191461867Y-100116769D01*
X191461866Y-100116767D01*
X191461866Y-100116766D01*
X191459077Y-100110032D01*
X191462457Y-100108631D01*
X191453971Y-100065920D01*
X191474221Y-100028044D01*
X191524785Y-99977480D01*
X191570089Y-99874875D01*
X191573000Y-99849789D01*
X191573000Y-99700000D01*
X188700001Y-99700000D01*
X188700001Y-99849792D01*
X188702908Y-99874868D01*
X188702910Y-99874874D01*
X188748213Y-99977478D01*
X188768909Y-99998174D01*
X188790583Y-100050500D01*
X188768909Y-100102826D01*
X188716583Y-100124500D01*
X180620200Y-100124500D01*
X180548598Y-100154158D01*
X180518945Y-100166440D01*
X180518942Y-100166442D01*
X178432559Y-102252826D01*
X178380233Y-102274500D01*
X166271545Y-102274500D01*
X166219219Y-102252826D01*
X166195913Y-102229520D01*
X166104591Y-102176795D01*
X166104582Y-102176791D01*
X166002729Y-102149500D01*
X166002727Y-102149500D01*
X165897273Y-102149500D01*
X165897271Y-102149500D01*
X165795417Y-102176791D01*
X165795408Y-102176795D01*
X165704086Y-102229520D01*
X165629520Y-102304086D01*
X165576795Y-102395408D01*
X165576791Y-102395417D01*
X165549500Y-102497270D01*
X149850500Y-102497270D01*
X149850500Y-102447271D01*
X149850499Y-102447270D01*
X149825939Y-102355611D01*
X149823207Y-102345413D01*
X149770480Y-102254087D01*
X149695913Y-102179520D01*
X149643917Y-102149500D01*
X149604591Y-102126795D01*
X149604582Y-102126791D01*
X149502729Y-102099500D01*
X149502727Y-102099500D01*
X149397273Y-102099500D01*
X149397271Y-102099500D01*
X149295417Y-102126791D01*
X149295408Y-102126795D01*
X149204086Y-102179520D01*
X149180781Y-102202826D01*
X149128455Y-102224500D01*
X140544768Y-102224500D01*
X140492442Y-102202826D01*
X138456059Y-100166444D01*
X138456058Y-100166443D01*
X138430989Y-100156059D01*
X138354800Y-100124500D01*
X138354799Y-100124500D01*
X127283417Y-100124500D01*
X127231091Y-100102826D01*
X127209417Y-100050500D01*
X127231091Y-99998174D01*
X127251786Y-99977478D01*
X127297089Y-99874875D01*
X127300000Y-99849789D01*
X127300000Y-99700000D01*
X124427001Y-99700000D01*
X124427001Y-99849792D01*
X124429908Y-99874868D01*
X124429910Y-99874874D01*
X124475213Y-99977478D01*
X124525780Y-100028045D01*
X124547454Y-100080371D01*
X124538733Y-100109128D01*
X124540922Y-100110035D01*
X124538133Y-100116767D01*
X124531423Y-100150500D01*
X124526500Y-100175252D01*
X124526500Y-100624748D01*
X124532434Y-100654582D01*
X124538133Y-100683232D01*
X124567309Y-100726895D01*
X124580016Y-100745913D01*
X124586497Y-100755611D01*
X124584430Y-100756991D01*
X124602245Y-100800000D01*
X124584430Y-100843008D01*
X124586497Y-100844389D01*
X124538133Y-100916767D01*
X124536851Y-100923214D01*
X124528253Y-100966442D01*
X124526500Y-100975253D01*
X124526500Y-101424746D01*
X124538133Y-101483232D01*
X124586497Y-101555611D01*
X124584430Y-101556991D01*
X124602245Y-101600000D01*
X124584430Y-101643008D01*
X124586497Y-101644389D01*
X124582448Y-101650447D01*
X124582448Y-101650448D01*
X124574528Y-101662299D01*
X124538133Y-101716767D01*
X124534793Y-101733558D01*
X124526500Y-101775252D01*
X124526500Y-102224748D01*
X124532085Y-102252826D01*
X124538133Y-102283232D01*
X124554942Y-102308387D01*
X124579682Y-102345413D01*
X124586497Y-102355611D01*
X124584430Y-102356991D01*
X124602245Y-102400000D01*
X124584430Y-102443008D01*
X124586497Y-102444389D01*
X124538133Y-102516767D01*
X124530377Y-102555757D01*
X124528253Y-102566442D01*
X124526500Y-102575253D01*
X124526500Y-103024746D01*
X124538133Y-103083232D01*
X124551160Y-103102727D01*
X124582413Y-103149500D01*
X124586497Y-103155611D01*
X124584430Y-103156991D01*
X124602245Y-103200000D01*
X124584430Y-103243008D01*
X124586497Y-103244389D01*
X124538133Y-103316767D01*
X124536851Y-103323214D01*
X124526500Y-103375252D01*
X124526500Y-103824748D01*
X124534255Y-103863736D01*
X124538133Y-103883232D01*
X124564845Y-103923208D01*
X124580925Y-103947273D01*
X124586497Y-103955611D01*
X124584430Y-103956991D01*
X124602245Y-104000000D01*
X124584430Y-104043008D01*
X124586497Y-104044389D01*
X124582448Y-104050447D01*
X124582448Y-104050448D01*
X124580925Y-104052727D01*
X124538133Y-104116767D01*
X124536068Y-104127151D01*
X124526500Y-104175252D01*
X124526500Y-104624748D01*
X124532435Y-104654587D01*
X124538133Y-104683232D01*
X124586497Y-104755611D01*
X124584430Y-104756991D01*
X124602245Y-104800000D01*
X124584430Y-104843008D01*
X124586497Y-104844389D01*
X124582448Y-104850447D01*
X124582448Y-104850448D01*
X124574528Y-104862299D01*
X124538133Y-104916767D01*
X124532811Y-104943525D01*
X124526922Y-104973133D01*
X124526500Y-104975253D01*
X124526500Y-105424746D01*
X124538133Y-105483232D01*
X124586497Y-105555611D01*
X124584430Y-105556991D01*
X124602245Y-105600000D01*
X124584430Y-105643008D01*
X124586497Y-105644389D01*
X124582448Y-105650447D01*
X124582448Y-105650448D01*
X124574528Y-105662299D01*
X124538133Y-105716767D01*
X124526500Y-105775253D01*
X124526500Y-106224746D01*
X124538133Y-106283233D01*
X124540923Y-106289968D01*
X124537543Y-106291367D01*
X124546026Y-106334092D01*
X124525779Y-106371954D01*
X124475214Y-106422519D01*
X124429910Y-106525124D01*
X124427000Y-106550210D01*
X121572999Y-106550210D01*
X121572999Y-106550207D01*
X121570091Y-106525131D01*
X121570089Y-106525125D01*
X121524786Y-106422521D01*
X121474219Y-106371954D01*
X121452545Y-106319628D01*
X121461275Y-106290874D01*
X121459078Y-106289964D01*
X121461866Y-106283232D01*
X121461865Y-106283232D01*
X121461867Y-106283231D01*
X121473500Y-106224748D01*
X121473500Y-105775252D01*
X121461867Y-105716769D01*
X121452550Y-105702826D01*
X121434243Y-105675428D01*
X121417552Y-105650448D01*
X121417551Y-105650447D01*
X121413503Y-105644389D01*
X121415569Y-105643008D01*
X121397755Y-105600000D01*
X121415569Y-105556991D01*
X121413503Y-105555611D01*
X121422339Y-105542388D01*
X121461867Y-105483231D01*
X121473500Y-105424748D01*
X121473500Y-104975252D01*
X121461867Y-104916769D01*
X121455760Y-104907630D01*
X121430937Y-104870480D01*
X121417552Y-104850448D01*
X121417551Y-104850447D01*
X121413503Y-104844389D01*
X121415569Y-104843008D01*
X121397755Y-104800000D01*
X121415569Y-104756991D01*
X121413503Y-104755611D01*
X121461866Y-104683232D01*
X121461865Y-104683232D01*
X121461867Y-104683231D01*
X121473500Y-104624748D01*
X121473500Y-104175252D01*
X121461867Y-104116769D01*
X121455760Y-104107630D01*
X121419076Y-104052729D01*
X121417552Y-104050448D01*
X121417551Y-104050447D01*
X121413503Y-104044389D01*
X121415569Y-104043008D01*
X121397755Y-104000000D01*
X121415569Y-103956991D01*
X121413503Y-103955611D01*
X121419075Y-103947273D01*
X121461867Y-103883231D01*
X121473500Y-103824748D01*
X121473500Y-103375252D01*
X121461867Y-103316769D01*
X121455760Y-103307630D01*
X121413503Y-103244389D01*
X121415569Y-103243008D01*
X121397755Y-103200000D01*
X121415569Y-103156991D01*
X121413503Y-103155611D01*
X121417587Y-103149500D01*
X121461867Y-103083231D01*
X121473500Y-103024748D01*
X121473500Y-102575252D01*
X121461867Y-102516769D01*
X121455760Y-102507630D01*
X121413503Y-102444389D01*
X121415569Y-102443008D01*
X121397755Y-102400000D01*
X121415569Y-102356991D01*
X121413503Y-102355611D01*
X121420318Y-102345413D01*
X121461867Y-102283231D01*
X121473500Y-102224748D01*
X121473500Y-101775252D01*
X121461867Y-101716769D01*
X121455760Y-101707630D01*
X121440896Y-101685385D01*
X121417552Y-101650448D01*
X121417551Y-101650447D01*
X121413503Y-101644389D01*
X121415569Y-101643008D01*
X121397755Y-101600000D01*
X121415569Y-101556991D01*
X121413503Y-101555611D01*
X121461866Y-101483232D01*
X121461865Y-101483232D01*
X121461867Y-101483231D01*
X121473500Y-101424748D01*
X121473500Y-100975252D01*
X121461867Y-100916769D01*
X121455760Y-100907630D01*
X121413503Y-100844389D01*
X121415569Y-100843008D01*
X121397755Y-100800000D01*
X121415569Y-100756991D01*
X121413503Y-100755611D01*
X121419984Y-100745913D01*
X121461867Y-100683231D01*
X121473500Y-100624748D01*
X121473500Y-100175252D01*
X121461867Y-100116769D01*
X121461866Y-100116767D01*
X121461866Y-100116766D01*
X121459077Y-100110032D01*
X121462457Y-100108631D01*
X121453971Y-100065920D01*
X121474221Y-100028044D01*
X121524785Y-99977480D01*
X121570089Y-99874875D01*
X121573000Y-99849789D01*
X121573000Y-99700000D01*
X118700001Y-99700000D01*
X118700001Y-99849792D01*
X118702908Y-99874868D01*
X118702910Y-99874874D01*
X118748213Y-99977478D01*
X118798780Y-100028045D01*
X118820454Y-100080371D01*
X118811733Y-100109128D01*
X118813922Y-100110035D01*
X118811133Y-100116767D01*
X118804423Y-100150500D01*
X118799500Y-100175252D01*
X118799500Y-100624748D01*
X118805434Y-100654582D01*
X118811133Y-100683232D01*
X118840309Y-100726895D01*
X118853016Y-100745913D01*
X118859497Y-100755611D01*
X118857430Y-100756991D01*
X118875245Y-100800000D01*
X118857430Y-100843008D01*
X118859497Y-100844389D01*
X118811133Y-100916767D01*
X118809851Y-100923214D01*
X118801253Y-100966442D01*
X118799500Y-100975253D01*
X118799500Y-101424746D01*
X118811133Y-101483232D01*
X118859497Y-101555611D01*
X118857430Y-101556991D01*
X118875245Y-101600000D01*
X118857430Y-101643008D01*
X118859497Y-101644389D01*
X118855448Y-101650447D01*
X118855448Y-101650448D01*
X118847528Y-101662299D01*
X118811133Y-101716767D01*
X118807793Y-101733558D01*
X118799500Y-101775252D01*
X118799500Y-102224748D01*
X118805085Y-102252826D01*
X118811133Y-102283232D01*
X118827942Y-102308387D01*
X118852682Y-102345413D01*
X118859497Y-102355611D01*
X118857430Y-102356991D01*
X118875245Y-102400000D01*
X118857430Y-102443008D01*
X118859497Y-102444389D01*
X118811133Y-102516767D01*
X118803377Y-102555757D01*
X118801253Y-102566442D01*
X118799500Y-102575253D01*
X118799500Y-103024746D01*
X118811133Y-103083232D01*
X118824160Y-103102727D01*
X118855413Y-103149500D01*
X118859497Y-103155611D01*
X118857430Y-103156991D01*
X118875245Y-103200000D01*
X118857430Y-103243008D01*
X118859497Y-103244389D01*
X118811133Y-103316767D01*
X118809851Y-103323214D01*
X118799500Y-103375252D01*
X118799500Y-103824748D01*
X118807255Y-103863736D01*
X118811133Y-103883232D01*
X118837845Y-103923208D01*
X118853925Y-103947273D01*
X118859497Y-103955611D01*
X118857430Y-103956991D01*
X118875245Y-104000000D01*
X118857430Y-104043008D01*
X118859497Y-104044389D01*
X118855448Y-104050447D01*
X118855448Y-104050448D01*
X118853925Y-104052727D01*
X118811133Y-104116767D01*
X118809068Y-104127151D01*
X118799500Y-104175252D01*
X118799500Y-104624748D01*
X118805435Y-104654587D01*
X118811133Y-104683232D01*
X118859497Y-104755611D01*
X118857430Y-104756991D01*
X118875245Y-104800000D01*
X118857430Y-104843008D01*
X118859497Y-104844389D01*
X118855448Y-104850447D01*
X118855448Y-104850448D01*
X118847528Y-104862299D01*
X118811133Y-104916767D01*
X118805811Y-104943525D01*
X118799922Y-104973133D01*
X118799500Y-104975253D01*
X118799500Y-105424746D01*
X118811133Y-105483232D01*
X118859497Y-105555611D01*
X118857430Y-105556991D01*
X118875245Y-105600000D01*
X118857430Y-105643008D01*
X118859497Y-105644389D01*
X118855448Y-105650447D01*
X118855448Y-105650448D01*
X118847528Y-105662299D01*
X118811133Y-105716767D01*
X118799500Y-105775253D01*
X118799500Y-106224746D01*
X118811133Y-106283233D01*
X118813923Y-106289968D01*
X118810543Y-106291367D01*
X118819026Y-106334092D01*
X118798779Y-106371954D01*
X118748214Y-106422519D01*
X118702910Y-106525124D01*
X118700000Y-106550210D01*
X108150500Y-106550210D01*
X108150500Y-99350210D01*
X118700000Y-99350210D01*
X118700000Y-99500000D01*
X121572999Y-99500000D01*
X121572999Y-99350210D01*
X124427000Y-99350210D01*
X124427000Y-99500000D01*
X127299999Y-99500000D01*
X127299999Y-99350207D01*
X127297091Y-99325131D01*
X127297089Y-99325125D01*
X127251786Y-99222521D01*
X127231091Y-99201826D01*
X127209417Y-99149500D01*
X127231091Y-99097174D01*
X127283417Y-99075500D01*
X138842413Y-99075500D01*
X138894738Y-99097173D01*
X141531122Y-101733558D01*
X141632380Y-101775500D01*
X141741980Y-101775500D01*
X149728455Y-101775500D01*
X149780781Y-101797174D01*
X149804087Y-101820480D01*
X149895413Y-101873207D01*
X149997270Y-101900499D01*
X149997271Y-101900500D01*
X149997273Y-101900500D01*
X150102729Y-101900500D01*
X150102729Y-101900499D01*
X150204587Y-101873207D01*
X150295913Y-101820480D01*
X150370480Y-101745913D01*
X150423207Y-101654587D01*
X150450499Y-101552729D01*
X150450500Y-101552729D01*
X150450500Y-101447271D01*
X150450499Y-101447270D01*
X150444464Y-101424748D01*
X150423207Y-101345413D01*
X150370480Y-101254087D01*
X150295913Y-101179520D01*
X150245649Y-101150500D01*
X150204591Y-101126795D01*
X150204582Y-101126791D01*
X150102729Y-101099500D01*
X150102727Y-101099500D01*
X149997273Y-101099500D01*
X149943652Y-101113867D01*
X149933737Y-101112561D01*
X149924500Y-101116388D01*
X149906651Y-101108994D01*
X149887499Y-101106473D01*
X149881412Y-101098540D01*
X149872174Y-101094714D01*
X149864781Y-101076866D01*
X149853021Y-101061540D01*
X149850500Y-101042388D01*
X149850500Y-100957611D01*
X149872174Y-100905285D01*
X149924500Y-100883611D01*
X149943653Y-100886133D01*
X149967472Y-100892515D01*
X149997270Y-100900499D01*
X149997271Y-100900500D01*
X149997273Y-100900500D01*
X150102729Y-100900500D01*
X150102729Y-100900499D01*
X150204587Y-100873207D01*
X150295913Y-100820480D01*
X150370480Y-100745913D01*
X150423207Y-100654587D01*
X150450499Y-100552729D01*
X150450500Y-100552729D01*
X150450500Y-100447271D01*
X150450499Y-100447270D01*
X150430654Y-100373208D01*
X150423207Y-100345413D01*
X150370480Y-100254087D01*
X150295913Y-100179520D01*
X150273258Y-100166440D01*
X150204591Y-100126795D01*
X150204582Y-100126791D01*
X150102729Y-100099500D01*
X150102727Y-100099500D01*
X149997273Y-100099500D01*
X149943652Y-100113867D01*
X149933737Y-100112561D01*
X149924500Y-100116388D01*
X149906651Y-100108994D01*
X149887499Y-100106473D01*
X149881412Y-100098540D01*
X149872174Y-100094714D01*
X149864781Y-100076866D01*
X149853021Y-100061540D01*
X149850500Y-100042388D01*
X149850500Y-99957611D01*
X149872174Y-99905285D01*
X149924500Y-99883611D01*
X149943653Y-99886133D01*
X149974960Y-99894521D01*
X149997270Y-99900499D01*
X149997271Y-99900500D01*
X149997273Y-99900500D01*
X150102729Y-99900500D01*
X150102729Y-99900499D01*
X150204587Y-99873207D01*
X150295913Y-99820480D01*
X150370480Y-99745913D01*
X150423207Y-99654587D01*
X150450499Y-99552729D01*
X150450500Y-99552729D01*
X150450500Y-99447271D01*
X150450499Y-99447270D01*
X150430654Y-99373208D01*
X150423207Y-99345413D01*
X150370480Y-99254087D01*
X150295913Y-99179520D01*
X150243917Y-99149500D01*
X150204591Y-99126795D01*
X150204582Y-99126791D01*
X150102729Y-99099500D01*
X150102727Y-99099500D01*
X149997273Y-99099500D01*
X149943652Y-99113867D01*
X149933737Y-99112561D01*
X149924500Y-99116388D01*
X149906651Y-99108994D01*
X149887499Y-99106473D01*
X149881412Y-99098540D01*
X149872174Y-99094714D01*
X149864781Y-99076866D01*
X149853021Y-99061540D01*
X149850500Y-99042388D01*
X149850500Y-98957611D01*
X149872174Y-98905285D01*
X149924500Y-98883611D01*
X149943653Y-98886133D01*
X149974960Y-98894521D01*
X149997270Y-98900499D01*
X149997271Y-98900500D01*
X149997273Y-98900500D01*
X150102729Y-98900500D01*
X150102729Y-98900499D01*
X150204587Y-98873207D01*
X150295913Y-98820480D01*
X150370480Y-98745913D01*
X150423207Y-98654587D01*
X150450499Y-98552729D01*
X150450500Y-98552729D01*
X150450500Y-98447271D01*
X150450499Y-98447270D01*
X150430654Y-98373208D01*
X150423207Y-98345413D01*
X150370480Y-98254087D01*
X150295913Y-98179520D01*
X150204591Y-98126795D01*
X150204582Y-98126791D01*
X150102729Y-98099500D01*
X150102727Y-98099500D01*
X149997273Y-98099500D01*
X149943652Y-98113867D01*
X149933737Y-98112561D01*
X149924500Y-98116388D01*
X149906651Y-98108994D01*
X149887499Y-98106473D01*
X149881412Y-98098540D01*
X149872174Y-98094714D01*
X149864781Y-98076866D01*
X149853021Y-98061540D01*
X149850500Y-98042388D01*
X149850500Y-97947271D01*
X149850499Y-97947270D01*
X165499500Y-97947270D01*
X165499500Y-98052729D01*
X165526791Y-98154582D01*
X165526795Y-98154591D01*
X165569092Y-98227851D01*
X165579520Y-98245913D01*
X165654087Y-98320480D01*
X165745413Y-98373207D01*
X165847270Y-98400499D01*
X165847271Y-98400500D01*
X165950500Y-98400500D01*
X166002826Y-98422174D01*
X166024500Y-98474500D01*
X166024500Y-98525500D01*
X166002826Y-98577826D01*
X165950500Y-98599500D01*
X165847271Y-98599500D01*
X165745417Y-98626791D01*
X165745408Y-98626795D01*
X165654086Y-98679520D01*
X165579520Y-98754086D01*
X165526795Y-98845408D01*
X165526791Y-98845417D01*
X165499500Y-98947270D01*
X165499500Y-99052729D01*
X165526791Y-99154582D01*
X165526795Y-99154591D01*
X165566013Y-99222519D01*
X165579520Y-99245913D01*
X165654087Y-99320480D01*
X165745413Y-99373207D01*
X165847270Y-99400499D01*
X165847271Y-99400500D01*
X165847273Y-99400500D01*
X165952729Y-99400500D01*
X165952729Y-99400499D01*
X166001476Y-99387438D01*
X166006347Y-99386133D01*
X166016260Y-99387438D01*
X166025500Y-99383611D01*
X166043347Y-99391003D01*
X166062500Y-99393525D01*
X166068587Y-99401458D01*
X166077826Y-99405285D01*
X166085218Y-99423133D01*
X166096978Y-99438458D01*
X166099500Y-99457611D01*
X166099500Y-99542388D01*
X166077826Y-99594714D01*
X166025500Y-99616388D01*
X166006348Y-99613867D01*
X165952727Y-99599500D01*
X165847273Y-99599500D01*
X165847271Y-99599500D01*
X165745417Y-99626791D01*
X165745408Y-99626795D01*
X165654086Y-99679520D01*
X165579520Y-99754086D01*
X165526795Y-99845408D01*
X165526791Y-99845417D01*
X165499500Y-99947270D01*
X165499500Y-100052729D01*
X165526791Y-100154582D01*
X165526795Y-100154591D01*
X165541188Y-100179520D01*
X165579520Y-100245913D01*
X165654087Y-100320480D01*
X165745413Y-100373207D01*
X165847270Y-100400499D01*
X165847271Y-100400500D01*
X165847273Y-100400500D01*
X165952729Y-100400500D01*
X165952729Y-100400499D01*
X166001476Y-100387438D01*
X166006347Y-100386133D01*
X166016260Y-100387438D01*
X166025500Y-100383611D01*
X166043347Y-100391003D01*
X166062500Y-100393525D01*
X166068587Y-100401458D01*
X166077826Y-100405285D01*
X166085218Y-100423133D01*
X166096978Y-100438458D01*
X166099500Y-100457611D01*
X166099500Y-100542388D01*
X166077826Y-100594714D01*
X166025500Y-100616388D01*
X166006348Y-100613867D01*
X165952727Y-100599500D01*
X165847273Y-100599500D01*
X165847271Y-100599500D01*
X165745417Y-100626791D01*
X165745408Y-100626795D01*
X165654086Y-100679520D01*
X165579520Y-100754086D01*
X165526795Y-100845408D01*
X165526791Y-100845417D01*
X165499500Y-100947270D01*
X165499500Y-101052729D01*
X165526791Y-101154582D01*
X165526795Y-101154591D01*
X165541188Y-101179520D01*
X165579520Y-101245913D01*
X165654087Y-101320480D01*
X165745413Y-101373207D01*
X165847270Y-101400499D01*
X165847271Y-101400500D01*
X165847273Y-101400500D01*
X165952729Y-101400500D01*
X165952729Y-101400499D01*
X165986384Y-101391481D01*
X166006347Y-101386133D01*
X166062500Y-101393525D01*
X166096978Y-101438458D01*
X166099500Y-101457611D01*
X166099500Y-101552729D01*
X166126791Y-101654582D01*
X166126795Y-101654591D01*
X166162694Y-101716769D01*
X166179520Y-101745913D01*
X166254087Y-101820480D01*
X166345413Y-101873207D01*
X166447270Y-101900499D01*
X166447271Y-101900500D01*
X166447273Y-101900500D01*
X166552729Y-101900500D01*
X166552729Y-101900499D01*
X166654587Y-101873207D01*
X166745913Y-101820480D01*
X166769219Y-101797174D01*
X166821545Y-101775500D01*
X177079798Y-101775500D01*
X177079800Y-101775500D01*
X177181058Y-101733557D01*
X177258557Y-101656058D01*
X177258556Y-101656058D01*
X177293517Y-101621097D01*
X177293516Y-101621097D01*
X179817442Y-99097174D01*
X179869768Y-99075500D01*
X188716583Y-99075500D01*
X188768909Y-99097174D01*
X188790583Y-99149500D01*
X188768909Y-99201826D01*
X188748213Y-99222521D01*
X188702910Y-99325124D01*
X188700000Y-99350210D01*
X188700000Y-99500000D01*
X191572999Y-99500000D01*
X191572999Y-99350210D01*
X194427000Y-99350210D01*
X194427000Y-99500000D01*
X197299999Y-99500000D01*
X197299999Y-99350207D01*
X197297091Y-99325131D01*
X197297089Y-99325125D01*
X197251786Y-99222521D01*
X197201219Y-99171954D01*
X197179545Y-99119628D01*
X197188275Y-99090874D01*
X197186078Y-99089964D01*
X197188866Y-99083232D01*
X197188865Y-99083232D01*
X197188867Y-99083231D01*
X197200500Y-99024748D01*
X197200500Y-98575252D01*
X197188867Y-98516769D01*
X197179550Y-98502826D01*
X197157750Y-98470200D01*
X197144552Y-98450448D01*
X197144551Y-98450447D01*
X197140503Y-98444389D01*
X197142569Y-98443008D01*
X197124755Y-98400000D01*
X197142569Y-98356991D01*
X197140503Y-98355611D01*
X197147318Y-98345413D01*
X197188867Y-98283231D01*
X197200500Y-98224748D01*
X197200500Y-97775252D01*
X197188867Y-97716769D01*
X197182760Y-97707630D01*
X197163978Y-97679520D01*
X197144552Y-97650448D01*
X197144551Y-97650447D01*
X197140503Y-97644389D01*
X197142569Y-97643008D01*
X197124755Y-97600000D01*
X197142569Y-97556991D01*
X197140503Y-97555611D01*
X197188866Y-97483232D01*
X197188865Y-97483232D01*
X197188867Y-97483231D01*
X197200500Y-97424748D01*
X197200500Y-96975252D01*
X197188867Y-96916769D01*
X197182760Y-96907630D01*
X197140503Y-96844389D01*
X197142569Y-96843008D01*
X197124755Y-96800000D01*
X197142569Y-96756991D01*
X197140503Y-96755611D01*
X197146984Y-96745913D01*
X197188867Y-96683231D01*
X197200500Y-96624748D01*
X197200500Y-96175252D01*
X197188867Y-96116769D01*
X197188612Y-96116388D01*
X197146076Y-96052729D01*
X197144552Y-96050448D01*
X197144551Y-96050447D01*
X197140503Y-96044389D01*
X197142569Y-96043008D01*
X197124755Y-96000000D01*
X197142569Y-95956991D01*
X197140503Y-95955611D01*
X197146075Y-95947273D01*
X197188867Y-95883231D01*
X197200500Y-95824748D01*
X197200500Y-95375252D01*
X197188867Y-95316769D01*
X197182760Y-95307630D01*
X197167896Y-95285385D01*
X197144552Y-95250448D01*
X197144551Y-95250447D01*
X197140503Y-95244389D01*
X197142569Y-95243008D01*
X197124755Y-95200000D01*
X197142569Y-95156991D01*
X197140503Y-95155611D01*
X197159761Y-95126791D01*
X197188867Y-95083231D01*
X197200500Y-95024748D01*
X197200500Y-94575252D01*
X197188867Y-94516769D01*
X197182760Y-94507630D01*
X197140503Y-94444389D01*
X197142569Y-94443008D01*
X197124755Y-94400000D01*
X197142569Y-94356991D01*
X197140503Y-94355611D01*
X197147318Y-94345413D01*
X197188867Y-94283231D01*
X197200500Y-94224748D01*
X197200500Y-93775252D01*
X197188867Y-93716769D01*
X197182760Y-93707630D01*
X197147320Y-93654591D01*
X197144552Y-93650448D01*
X197144551Y-93650447D01*
X197140503Y-93644389D01*
X197142569Y-93643008D01*
X197124755Y-93600000D01*
X197142569Y-93556991D01*
X197140503Y-93555611D01*
X197149339Y-93542388D01*
X197188867Y-93483231D01*
X197200500Y-93424748D01*
X197200500Y-92975252D01*
X197188867Y-92916769D01*
X197188866Y-92916767D01*
X197188866Y-92916766D01*
X197186077Y-92910032D01*
X197189457Y-92908631D01*
X197180971Y-92865920D01*
X197201221Y-92828044D01*
X197251785Y-92777480D01*
X197297089Y-92674875D01*
X197300000Y-92649789D01*
X197300000Y-92500000D01*
X194427001Y-92500000D01*
X194427001Y-92649792D01*
X194429908Y-92674868D01*
X194429910Y-92674874D01*
X194475213Y-92777478D01*
X194525780Y-92828045D01*
X194547454Y-92880371D01*
X194538733Y-92909128D01*
X194540922Y-92910035D01*
X194538133Y-92916767D01*
X194538133Y-92916769D01*
X194528253Y-92966442D01*
X194526500Y-92975253D01*
X194526500Y-93424746D01*
X194538133Y-93483232D01*
X194586497Y-93555611D01*
X194584430Y-93556991D01*
X194602245Y-93600000D01*
X194584430Y-93643008D01*
X194586497Y-93644389D01*
X194582448Y-93650447D01*
X194582448Y-93650448D01*
X194579680Y-93654591D01*
X194538133Y-93716767D01*
X194536851Y-93723214D01*
X194528253Y-93766442D01*
X194526500Y-93775253D01*
X194526500Y-94224746D01*
X194538133Y-94283232D01*
X194554942Y-94308387D01*
X194579682Y-94345413D01*
X194586497Y-94355611D01*
X194584430Y-94356991D01*
X194602245Y-94400000D01*
X194584430Y-94443008D01*
X194586497Y-94444389D01*
X194538133Y-94516767D01*
X194530980Y-94552729D01*
X194528253Y-94566442D01*
X194526500Y-94575253D01*
X194526500Y-95024746D01*
X194538133Y-95083232D01*
X194586497Y-95155611D01*
X194584430Y-95156991D01*
X194602245Y-95200000D01*
X194584430Y-95243008D01*
X194586497Y-95244389D01*
X194582448Y-95250447D01*
X194582448Y-95250448D01*
X194574528Y-95262299D01*
X194538133Y-95316767D01*
X194530377Y-95355757D01*
X194526500Y-95375252D01*
X194526500Y-95824748D01*
X194534255Y-95863736D01*
X194538133Y-95883232D01*
X194549671Y-95900499D01*
X194580925Y-95947273D01*
X194586497Y-95955611D01*
X194584430Y-95956991D01*
X194602245Y-96000000D01*
X194584430Y-96043008D01*
X194586497Y-96044389D01*
X194538133Y-96116767D01*
X194531423Y-96150500D01*
X194526500Y-96175252D01*
X194526500Y-96624748D01*
X194532434Y-96654582D01*
X194538133Y-96683232D01*
X194567309Y-96726895D01*
X194580016Y-96745913D01*
X194586497Y-96755611D01*
X194584430Y-96756991D01*
X194602245Y-96800000D01*
X194584430Y-96843008D01*
X194586497Y-96844389D01*
X194538133Y-96916767D01*
X194536851Y-96923214D01*
X194528253Y-96966442D01*
X194526500Y-96975253D01*
X194526500Y-97424746D01*
X194538133Y-97483232D01*
X194586497Y-97555611D01*
X194584430Y-97556991D01*
X194602245Y-97600000D01*
X194584430Y-97643008D01*
X194586497Y-97644389D01*
X194582448Y-97650447D01*
X194582448Y-97650448D01*
X194574528Y-97662299D01*
X194538133Y-97716767D01*
X194536851Y-97723214D01*
X194526500Y-97775252D01*
X194526500Y-98224748D01*
X194532336Y-98254086D01*
X194538133Y-98283232D01*
X194554942Y-98308387D01*
X194579682Y-98345413D01*
X194586497Y-98355611D01*
X194584430Y-98356991D01*
X194602245Y-98400000D01*
X194584430Y-98443008D01*
X194586497Y-98444389D01*
X194582448Y-98450447D01*
X194582448Y-98450448D01*
X194574528Y-98462299D01*
X194538133Y-98516767D01*
X194530980Y-98552729D01*
X194528253Y-98566442D01*
X194526500Y-98575253D01*
X194526500Y-99024746D01*
X194538133Y-99083233D01*
X194540923Y-99089968D01*
X194537543Y-99091367D01*
X194546026Y-99134092D01*
X194525779Y-99171954D01*
X194475214Y-99222519D01*
X194429910Y-99325124D01*
X194427000Y-99350210D01*
X191572999Y-99350210D01*
X191572999Y-99350207D01*
X191570091Y-99325131D01*
X191570089Y-99325125D01*
X191524786Y-99222521D01*
X191474219Y-99171954D01*
X191452545Y-99119628D01*
X191461275Y-99090874D01*
X191459078Y-99089964D01*
X191461866Y-99083232D01*
X191461865Y-99083232D01*
X191461867Y-99083231D01*
X191473500Y-99024748D01*
X191473500Y-98575252D01*
X191461867Y-98516769D01*
X191452550Y-98502826D01*
X191430750Y-98470200D01*
X191417552Y-98450448D01*
X191417551Y-98450447D01*
X191413503Y-98444389D01*
X191415569Y-98443008D01*
X191397755Y-98400000D01*
X191415569Y-98356991D01*
X191413503Y-98355611D01*
X191420318Y-98345413D01*
X191461867Y-98283231D01*
X191473500Y-98224748D01*
X191473500Y-97775252D01*
X191461867Y-97716769D01*
X191455760Y-97707630D01*
X191436978Y-97679520D01*
X191417552Y-97650448D01*
X191417551Y-97650447D01*
X191413503Y-97644389D01*
X191415569Y-97643008D01*
X191397755Y-97600000D01*
X191415569Y-97556991D01*
X191413503Y-97555611D01*
X191461866Y-97483232D01*
X191461865Y-97483232D01*
X191461867Y-97483231D01*
X191473500Y-97424748D01*
X191473500Y-96975252D01*
X191461867Y-96916769D01*
X191455760Y-96907630D01*
X191413503Y-96844389D01*
X191415569Y-96843008D01*
X191397755Y-96800000D01*
X191415569Y-96756991D01*
X191413503Y-96755611D01*
X191419984Y-96745913D01*
X191461867Y-96683231D01*
X191473500Y-96624748D01*
X191473500Y-96175252D01*
X191461867Y-96116769D01*
X191461612Y-96116388D01*
X191419076Y-96052729D01*
X191417552Y-96050448D01*
X191417551Y-96050447D01*
X191413503Y-96044389D01*
X191415569Y-96043008D01*
X191397755Y-96000000D01*
X191415569Y-95956991D01*
X191413503Y-95955611D01*
X191419075Y-95947273D01*
X191461867Y-95883231D01*
X191473500Y-95824748D01*
X191473500Y-95375252D01*
X191461867Y-95316769D01*
X191455760Y-95307630D01*
X191440896Y-95285385D01*
X191417552Y-95250448D01*
X191417551Y-95250447D01*
X191413503Y-95244389D01*
X191415569Y-95243008D01*
X191397755Y-95200000D01*
X191415569Y-95156991D01*
X191413503Y-95155611D01*
X191432761Y-95126791D01*
X191461867Y-95083231D01*
X191473500Y-95024748D01*
X191473500Y-94575252D01*
X191461867Y-94516769D01*
X191455760Y-94507630D01*
X191413503Y-94444389D01*
X191415569Y-94443008D01*
X191397755Y-94400000D01*
X191415569Y-94356991D01*
X191413503Y-94355611D01*
X191420318Y-94345413D01*
X191461867Y-94283231D01*
X191473500Y-94224748D01*
X191473500Y-93775252D01*
X191461867Y-93716769D01*
X191455760Y-93707630D01*
X191420320Y-93654591D01*
X191417552Y-93650448D01*
X191417551Y-93650447D01*
X191413503Y-93644389D01*
X191415569Y-93643008D01*
X191397755Y-93600000D01*
X191415569Y-93556991D01*
X191413503Y-93555611D01*
X191422339Y-93542388D01*
X191461867Y-93483231D01*
X191473500Y-93424748D01*
X191473500Y-92975252D01*
X191461867Y-92916769D01*
X191461866Y-92916767D01*
X191461866Y-92916766D01*
X191459077Y-92910032D01*
X191462457Y-92908631D01*
X191453971Y-92865920D01*
X191474221Y-92828044D01*
X191524785Y-92777480D01*
X191570089Y-92674875D01*
X191573000Y-92649789D01*
X191573000Y-92500000D01*
X188700001Y-92500000D01*
X188700001Y-92649792D01*
X188702908Y-92674868D01*
X188702910Y-92674874D01*
X188748213Y-92777478D01*
X188768909Y-92798174D01*
X188790583Y-92850500D01*
X188768909Y-92902826D01*
X188716583Y-92924500D01*
X177095202Y-92924500D01*
X177023774Y-92954087D01*
X177023773Y-92954087D01*
X176993945Y-92966441D01*
X176993942Y-92966443D01*
X172257561Y-97702826D01*
X172205235Y-97724500D01*
X166221545Y-97724500D01*
X166169219Y-97702826D01*
X166145913Y-97679520D01*
X166054591Y-97626795D01*
X166054582Y-97626791D01*
X165952729Y-97599500D01*
X165952727Y-97599500D01*
X165847273Y-97599500D01*
X165847271Y-97599500D01*
X165745417Y-97626791D01*
X165745408Y-97626795D01*
X165654086Y-97679520D01*
X165579520Y-97754086D01*
X165526795Y-97845408D01*
X165526791Y-97845417D01*
X165499500Y-97947270D01*
X149850499Y-97947270D01*
X149823208Y-97845417D01*
X149823207Y-97845413D01*
X149770480Y-97754087D01*
X149695913Y-97679520D01*
X149645559Y-97650448D01*
X149604591Y-97626795D01*
X149604582Y-97626791D01*
X149502729Y-97599500D01*
X149502727Y-97599500D01*
X149397273Y-97599500D01*
X149397271Y-97599500D01*
X149295417Y-97626791D01*
X149295408Y-97626795D01*
X149204086Y-97679520D01*
X149180781Y-97702826D01*
X149128455Y-97724500D01*
X145644770Y-97724500D01*
X145592444Y-97702826D01*
X140856061Y-92966444D01*
X140856059Y-92966442D01*
X140826230Y-92954087D01*
X140826228Y-92954086D01*
X140754802Y-92924500D01*
X140754801Y-92924500D01*
X127283417Y-92924500D01*
X127231091Y-92902826D01*
X127209417Y-92850500D01*
X127231091Y-92798174D01*
X127251786Y-92777478D01*
X127297089Y-92674875D01*
X127300000Y-92649789D01*
X127300000Y-92500000D01*
X124427001Y-92500000D01*
X124427001Y-92649792D01*
X124429908Y-92674868D01*
X124429910Y-92674874D01*
X124475213Y-92777478D01*
X124525780Y-92828045D01*
X124547454Y-92880371D01*
X124538733Y-92909128D01*
X124540922Y-92910035D01*
X124538133Y-92916767D01*
X124538133Y-92916769D01*
X124528253Y-92966442D01*
X124526500Y-92975253D01*
X124526500Y-93424746D01*
X124538133Y-93483232D01*
X124586497Y-93555611D01*
X124584430Y-93556991D01*
X124602245Y-93600000D01*
X124584430Y-93643008D01*
X124586497Y-93644389D01*
X124582448Y-93650447D01*
X124582448Y-93650448D01*
X124579680Y-93654591D01*
X124538133Y-93716767D01*
X124536851Y-93723214D01*
X124528253Y-93766442D01*
X124526500Y-93775253D01*
X124526500Y-94224746D01*
X124538133Y-94283232D01*
X124554942Y-94308387D01*
X124579682Y-94345413D01*
X124586497Y-94355611D01*
X124584430Y-94356991D01*
X124602245Y-94400000D01*
X124584430Y-94443008D01*
X124586497Y-94444389D01*
X124538133Y-94516767D01*
X124530980Y-94552729D01*
X124528253Y-94566442D01*
X124526500Y-94575253D01*
X124526500Y-95024746D01*
X124538133Y-95083232D01*
X124586497Y-95155611D01*
X124584430Y-95156991D01*
X124602245Y-95200000D01*
X124584430Y-95243008D01*
X124586497Y-95244389D01*
X124582448Y-95250447D01*
X124582448Y-95250448D01*
X124574528Y-95262299D01*
X124538133Y-95316767D01*
X124530377Y-95355757D01*
X124526500Y-95375252D01*
X124526500Y-95824748D01*
X124534255Y-95863736D01*
X124538133Y-95883232D01*
X124549671Y-95900499D01*
X124580925Y-95947273D01*
X124586497Y-95955611D01*
X124584430Y-95956991D01*
X124602245Y-96000000D01*
X124584430Y-96043008D01*
X124586497Y-96044389D01*
X124538133Y-96116767D01*
X124531423Y-96150500D01*
X124526500Y-96175252D01*
X124526500Y-96624748D01*
X124532434Y-96654582D01*
X124538133Y-96683232D01*
X124567309Y-96726895D01*
X124580016Y-96745913D01*
X124586497Y-96755611D01*
X124584430Y-96756991D01*
X124602245Y-96800000D01*
X124584430Y-96843008D01*
X124586497Y-96844389D01*
X124538133Y-96916767D01*
X124536851Y-96923214D01*
X124528253Y-96966442D01*
X124526500Y-96975253D01*
X124526500Y-97424746D01*
X124538133Y-97483232D01*
X124586497Y-97555611D01*
X124584430Y-97556991D01*
X124602245Y-97600000D01*
X124584430Y-97643008D01*
X124586497Y-97644389D01*
X124582448Y-97650447D01*
X124582448Y-97650448D01*
X124574528Y-97662299D01*
X124538133Y-97716767D01*
X124536851Y-97723214D01*
X124526500Y-97775252D01*
X124526500Y-98224748D01*
X124532336Y-98254086D01*
X124538133Y-98283232D01*
X124554942Y-98308387D01*
X124579682Y-98345413D01*
X124586497Y-98355611D01*
X124584430Y-98356991D01*
X124602245Y-98400000D01*
X124584430Y-98443008D01*
X124586497Y-98444389D01*
X124582448Y-98450447D01*
X124582448Y-98450448D01*
X124574528Y-98462299D01*
X124538133Y-98516767D01*
X124530980Y-98552729D01*
X124528253Y-98566442D01*
X124526500Y-98575253D01*
X124526500Y-99024746D01*
X124538133Y-99083233D01*
X124540923Y-99089968D01*
X124537543Y-99091367D01*
X124546026Y-99134092D01*
X124525779Y-99171954D01*
X124475214Y-99222519D01*
X124429910Y-99325124D01*
X124427000Y-99350210D01*
X121572999Y-99350210D01*
X121572999Y-99350207D01*
X121570091Y-99325131D01*
X121570089Y-99325125D01*
X121524786Y-99222521D01*
X121474219Y-99171954D01*
X121452545Y-99119628D01*
X121461275Y-99090874D01*
X121459078Y-99089964D01*
X121461866Y-99083232D01*
X121461865Y-99083232D01*
X121461867Y-99083231D01*
X121473500Y-99024748D01*
X121473500Y-98575252D01*
X121461867Y-98516769D01*
X121452550Y-98502826D01*
X121430750Y-98470200D01*
X121417552Y-98450448D01*
X121417551Y-98450447D01*
X121413503Y-98444389D01*
X121415569Y-98443008D01*
X121397755Y-98400000D01*
X121415569Y-98356991D01*
X121413503Y-98355611D01*
X121420318Y-98345413D01*
X121461867Y-98283231D01*
X121473500Y-98224748D01*
X121473500Y-97775252D01*
X121461867Y-97716769D01*
X121455760Y-97707630D01*
X121436978Y-97679520D01*
X121417552Y-97650448D01*
X121417551Y-97650447D01*
X121413503Y-97644389D01*
X121415569Y-97643008D01*
X121397755Y-97600000D01*
X121415569Y-97556991D01*
X121413503Y-97555611D01*
X121461866Y-97483232D01*
X121461865Y-97483232D01*
X121461867Y-97483231D01*
X121473500Y-97424748D01*
X121473500Y-96975252D01*
X121461867Y-96916769D01*
X121455760Y-96907630D01*
X121413503Y-96844389D01*
X121415569Y-96843008D01*
X121397755Y-96800000D01*
X121415569Y-96756991D01*
X121413503Y-96755611D01*
X121419984Y-96745913D01*
X121461867Y-96683231D01*
X121473500Y-96624748D01*
X121473500Y-96175252D01*
X121461867Y-96116769D01*
X121461612Y-96116388D01*
X121419076Y-96052729D01*
X121417552Y-96050448D01*
X121417551Y-96050447D01*
X121413503Y-96044389D01*
X121415569Y-96043008D01*
X121397755Y-96000000D01*
X121415569Y-95956991D01*
X121413503Y-95955611D01*
X121419075Y-95947273D01*
X121461867Y-95883231D01*
X121473500Y-95824748D01*
X121473500Y-95375252D01*
X121461867Y-95316769D01*
X121455760Y-95307630D01*
X121440896Y-95285385D01*
X121417552Y-95250448D01*
X121417551Y-95250447D01*
X121413503Y-95244389D01*
X121415569Y-95243008D01*
X121397755Y-95200000D01*
X121415569Y-95156991D01*
X121413503Y-95155611D01*
X121432761Y-95126791D01*
X121461867Y-95083231D01*
X121473500Y-95024748D01*
X121473500Y-94575252D01*
X121461867Y-94516769D01*
X121455760Y-94507630D01*
X121413503Y-94444389D01*
X121415569Y-94443008D01*
X121397755Y-94400000D01*
X121415569Y-94356991D01*
X121413503Y-94355611D01*
X121420318Y-94345413D01*
X121461867Y-94283231D01*
X121473500Y-94224748D01*
X121473500Y-93775252D01*
X121461867Y-93716769D01*
X121455760Y-93707630D01*
X121420320Y-93654591D01*
X121417552Y-93650448D01*
X121417551Y-93650447D01*
X121413503Y-93644389D01*
X121415569Y-93643008D01*
X121397755Y-93600000D01*
X121415569Y-93556991D01*
X121413503Y-93555611D01*
X121422339Y-93542388D01*
X121461867Y-93483231D01*
X121473500Y-93424748D01*
X121473500Y-92975252D01*
X121461867Y-92916769D01*
X121461866Y-92916767D01*
X121461866Y-92916766D01*
X121459077Y-92910032D01*
X121462457Y-92908631D01*
X121453971Y-92865920D01*
X121474221Y-92828044D01*
X121524785Y-92777480D01*
X121570089Y-92674875D01*
X121573000Y-92649789D01*
X121573000Y-92500000D01*
X118700001Y-92500000D01*
X118700001Y-92649792D01*
X118702908Y-92674868D01*
X118702910Y-92674874D01*
X118748213Y-92777478D01*
X118798780Y-92828045D01*
X118820454Y-92880371D01*
X118811733Y-92909128D01*
X118813922Y-92910035D01*
X118811133Y-92916767D01*
X118811133Y-92916769D01*
X118801253Y-92966442D01*
X118799500Y-92975253D01*
X118799500Y-93424746D01*
X118811133Y-93483232D01*
X118859497Y-93555611D01*
X118857430Y-93556991D01*
X118875245Y-93600000D01*
X118857430Y-93643008D01*
X118859497Y-93644389D01*
X118855448Y-93650447D01*
X118855448Y-93650448D01*
X118852680Y-93654591D01*
X118811133Y-93716767D01*
X118809851Y-93723214D01*
X118801253Y-93766442D01*
X118799500Y-93775253D01*
X118799500Y-94224746D01*
X118811133Y-94283232D01*
X118827942Y-94308387D01*
X118852682Y-94345413D01*
X118859497Y-94355611D01*
X118857430Y-94356991D01*
X118875245Y-94400000D01*
X118857430Y-94443008D01*
X118859497Y-94444389D01*
X118811133Y-94516767D01*
X118803980Y-94552729D01*
X118801253Y-94566442D01*
X118799500Y-94575253D01*
X118799500Y-95024746D01*
X118811133Y-95083232D01*
X118859497Y-95155611D01*
X118857430Y-95156991D01*
X118875245Y-95200000D01*
X118857430Y-95243008D01*
X118859497Y-95244389D01*
X118855448Y-95250447D01*
X118855448Y-95250448D01*
X118847528Y-95262299D01*
X118811133Y-95316767D01*
X118803377Y-95355757D01*
X118799500Y-95375252D01*
X118799500Y-95824748D01*
X118807255Y-95863736D01*
X118811133Y-95883232D01*
X118822671Y-95900499D01*
X118853925Y-95947273D01*
X118859497Y-95955611D01*
X118857430Y-95956991D01*
X118875245Y-96000000D01*
X118857430Y-96043008D01*
X118859497Y-96044389D01*
X118811133Y-96116767D01*
X118804423Y-96150500D01*
X118799500Y-96175252D01*
X118799500Y-96624748D01*
X118805434Y-96654582D01*
X118811133Y-96683232D01*
X118840309Y-96726895D01*
X118853016Y-96745913D01*
X118859497Y-96755611D01*
X118857430Y-96756991D01*
X118875245Y-96800000D01*
X118857430Y-96843008D01*
X118859497Y-96844389D01*
X118811133Y-96916767D01*
X118809851Y-96923214D01*
X118801253Y-96966442D01*
X118799500Y-96975253D01*
X118799500Y-97424746D01*
X118811133Y-97483232D01*
X118859497Y-97555611D01*
X118857430Y-97556991D01*
X118875245Y-97600000D01*
X118857430Y-97643008D01*
X118859497Y-97644389D01*
X118855448Y-97650447D01*
X118855448Y-97650448D01*
X118847528Y-97662299D01*
X118811133Y-97716767D01*
X118809851Y-97723214D01*
X118799500Y-97775252D01*
X118799500Y-98224748D01*
X118805336Y-98254086D01*
X118811133Y-98283232D01*
X118827942Y-98308387D01*
X118852682Y-98345413D01*
X118859497Y-98355611D01*
X118857430Y-98356991D01*
X118875245Y-98400000D01*
X118857430Y-98443008D01*
X118859497Y-98444389D01*
X118855448Y-98450447D01*
X118855448Y-98450448D01*
X118847528Y-98462299D01*
X118811133Y-98516767D01*
X118803980Y-98552729D01*
X118801253Y-98566442D01*
X118799500Y-98575253D01*
X118799500Y-99024746D01*
X118811133Y-99083233D01*
X118813923Y-99089968D01*
X118810543Y-99091367D01*
X118819026Y-99134092D01*
X118798779Y-99171954D01*
X118748214Y-99222519D01*
X118702910Y-99325124D01*
X118700000Y-99350210D01*
X108150500Y-99350210D01*
X108150500Y-92150210D01*
X118700000Y-92150210D01*
X118700000Y-92300000D01*
X121572999Y-92300000D01*
X121572999Y-92150210D01*
X124427000Y-92150210D01*
X124427000Y-92300000D01*
X127299999Y-92300000D01*
X127299999Y-92150207D01*
X127297091Y-92125131D01*
X127297089Y-92125125D01*
X127251786Y-92022521D01*
X127231091Y-92001826D01*
X127209417Y-91949500D01*
X127231091Y-91897174D01*
X127283417Y-91875500D01*
X141255233Y-91875500D01*
X141307558Y-91897173D01*
X146643941Y-97233557D01*
X146660607Y-97240460D01*
X146745200Y-97275500D01*
X149728455Y-97275500D01*
X149780781Y-97297174D01*
X149804087Y-97320480D01*
X149895413Y-97373207D01*
X149997270Y-97400499D01*
X149997271Y-97400500D01*
X149997273Y-97400500D01*
X150102729Y-97400500D01*
X150102729Y-97400499D01*
X150204587Y-97373207D01*
X150295913Y-97320480D01*
X150370480Y-97245913D01*
X150423207Y-97154587D01*
X150450499Y-97052729D01*
X150450500Y-97052729D01*
X150450500Y-96947271D01*
X150450499Y-96947270D01*
X150442326Y-96916769D01*
X150423207Y-96845413D01*
X150370480Y-96754087D01*
X150295913Y-96679520D01*
X150245649Y-96650500D01*
X150204591Y-96626795D01*
X150204582Y-96626791D01*
X150102729Y-96599500D01*
X150102727Y-96599500D01*
X149997273Y-96599500D01*
X149943652Y-96613867D01*
X149933737Y-96612561D01*
X149924500Y-96616388D01*
X149906651Y-96608994D01*
X149887499Y-96606473D01*
X149881412Y-96598540D01*
X149872174Y-96594714D01*
X149864781Y-96576866D01*
X149853021Y-96561540D01*
X149850500Y-96542388D01*
X149850500Y-96457611D01*
X149872174Y-96405285D01*
X149924500Y-96383611D01*
X149943653Y-96386133D01*
X149974960Y-96394521D01*
X149997270Y-96400499D01*
X149997271Y-96400500D01*
X149997273Y-96400500D01*
X150102729Y-96400500D01*
X150102729Y-96400499D01*
X150204587Y-96373207D01*
X150295913Y-96320480D01*
X150370480Y-96245913D01*
X150423207Y-96154587D01*
X150450499Y-96052729D01*
X150450500Y-96052729D01*
X150450500Y-95947271D01*
X150450499Y-95947270D01*
X150440080Y-95908387D01*
X150423207Y-95845413D01*
X150370480Y-95754087D01*
X150295913Y-95679520D01*
X150245649Y-95650500D01*
X150204591Y-95626795D01*
X150204582Y-95626791D01*
X150102729Y-95599500D01*
X150102727Y-95599500D01*
X149997273Y-95599500D01*
X149943652Y-95613867D01*
X149933737Y-95612561D01*
X149924500Y-95616388D01*
X149906651Y-95608994D01*
X149887499Y-95606473D01*
X149881412Y-95598540D01*
X149872174Y-95594714D01*
X149864781Y-95576866D01*
X149853021Y-95561540D01*
X149850500Y-95542388D01*
X149850500Y-95471008D01*
X149872174Y-95418682D01*
X149924500Y-95397008D01*
X149943655Y-95399530D01*
X149947273Y-95400500D01*
X150052729Y-95400500D01*
X150052729Y-95400499D01*
X150154587Y-95373207D01*
X150245913Y-95320480D01*
X150320480Y-95245913D01*
X150373207Y-95154587D01*
X150400499Y-95052729D01*
X150400500Y-95052729D01*
X150400500Y-94947271D01*
X150400499Y-94947270D01*
X150380654Y-94873208D01*
X150373207Y-94845413D01*
X150320480Y-94754087D01*
X150245913Y-94679520D01*
X150195649Y-94650500D01*
X150154591Y-94626795D01*
X150154582Y-94626791D01*
X150052729Y-94599500D01*
X150052727Y-94599500D01*
X149974500Y-94599500D01*
X149922174Y-94577826D01*
X149900500Y-94525500D01*
X149900500Y-94444213D01*
X149922174Y-94391887D01*
X149974500Y-94370213D01*
X149993653Y-94372735D01*
X149995411Y-94373206D01*
X149995413Y-94373207D01*
X150097270Y-94400499D01*
X150097271Y-94400500D01*
X150097273Y-94400500D01*
X150202729Y-94400500D01*
X150202729Y-94400499D01*
X150304587Y-94373207D01*
X150395913Y-94320480D01*
X150470480Y-94245913D01*
X150523207Y-94154587D01*
X150550499Y-94052729D01*
X150550500Y-94052729D01*
X150550500Y-93947271D01*
X150550499Y-93947270D01*
X150530654Y-93873208D01*
X150523207Y-93845413D01*
X150470480Y-93754087D01*
X150395913Y-93679520D01*
X150345559Y-93650448D01*
X150304591Y-93626795D01*
X150304582Y-93626791D01*
X150202729Y-93599500D01*
X150202727Y-93599500D01*
X150195545Y-93599500D01*
X150173849Y-93590513D01*
X150151104Y-93584669D01*
X150148303Y-93579932D01*
X150143219Y-93577826D01*
X150134232Y-93556129D01*
X150122281Y-93535914D01*
X150123877Y-93531130D01*
X150121545Y-93525500D01*
X150136376Y-93481059D01*
X150139520Y-93476872D01*
X150169123Y-93447270D01*
X165449500Y-93447270D01*
X165449500Y-93552729D01*
X165476791Y-93654582D01*
X165476795Y-93654591D01*
X165512694Y-93716769D01*
X165529520Y-93745913D01*
X165604087Y-93820480D01*
X165695413Y-93873207D01*
X165797270Y-93900499D01*
X165797271Y-93900500D01*
X165797273Y-93900500D01*
X165902729Y-93900500D01*
X165902729Y-93900499D01*
X165951476Y-93887438D01*
X165956347Y-93886133D01*
X165966260Y-93887438D01*
X165975500Y-93883611D01*
X165993347Y-93891003D01*
X166012500Y-93893525D01*
X166018587Y-93901458D01*
X166027826Y-93905285D01*
X166035218Y-93923133D01*
X166046978Y-93938458D01*
X166049500Y-93957611D01*
X166049500Y-94042388D01*
X166027826Y-94094714D01*
X165975500Y-94116388D01*
X165956348Y-94113867D01*
X165902727Y-94099500D01*
X165797273Y-94099500D01*
X165797271Y-94099500D01*
X165695417Y-94126791D01*
X165695408Y-94126795D01*
X165604086Y-94179520D01*
X165529520Y-94254086D01*
X165476795Y-94345408D01*
X165476791Y-94345417D01*
X165449500Y-94447270D01*
X165449500Y-94552729D01*
X165476791Y-94654582D01*
X165476792Y-94654585D01*
X165476793Y-94654587D01*
X165529520Y-94745913D01*
X165604087Y-94820480D01*
X165695413Y-94873207D01*
X165797270Y-94900499D01*
X165797271Y-94900500D01*
X165797273Y-94900500D01*
X165902729Y-94900500D01*
X165902729Y-94900499D01*
X165951476Y-94887438D01*
X165956347Y-94886133D01*
X165966260Y-94887438D01*
X165975500Y-94883611D01*
X165993347Y-94891003D01*
X166012500Y-94893525D01*
X166018587Y-94901458D01*
X166027826Y-94905285D01*
X166035218Y-94923133D01*
X166046978Y-94938458D01*
X166049500Y-94957611D01*
X166049500Y-95028991D01*
X166027826Y-95081317D01*
X165975500Y-95102991D01*
X165956350Y-95100470D01*
X165952729Y-95099500D01*
X165952727Y-95099500D01*
X165847273Y-95099500D01*
X165847271Y-95099500D01*
X165745417Y-95126791D01*
X165745408Y-95126795D01*
X165654086Y-95179520D01*
X165579520Y-95254086D01*
X165526795Y-95345408D01*
X165526791Y-95345417D01*
X165499500Y-95447270D01*
X165499500Y-95552729D01*
X165526791Y-95654582D01*
X165526795Y-95654591D01*
X165541188Y-95679520D01*
X165579520Y-95745913D01*
X165654087Y-95820480D01*
X165745413Y-95873207D01*
X165847270Y-95900499D01*
X165847271Y-95900500D01*
X165847273Y-95900500D01*
X165952729Y-95900500D01*
X165952729Y-95900499D01*
X166001476Y-95887438D01*
X166006347Y-95886133D01*
X166016260Y-95887438D01*
X166025500Y-95883611D01*
X166043347Y-95891003D01*
X166062500Y-95893525D01*
X166068587Y-95901458D01*
X166077826Y-95905285D01*
X166085218Y-95923133D01*
X166096978Y-95938458D01*
X166099500Y-95957611D01*
X166099500Y-96042388D01*
X166077826Y-96094714D01*
X166025500Y-96116388D01*
X166006348Y-96113867D01*
X165952727Y-96099500D01*
X165847273Y-96099500D01*
X165847271Y-96099500D01*
X165745417Y-96126791D01*
X165745408Y-96126795D01*
X165654086Y-96179520D01*
X165579520Y-96254086D01*
X165526795Y-96345408D01*
X165526791Y-96345417D01*
X165499500Y-96447270D01*
X165499500Y-96552729D01*
X165526791Y-96654582D01*
X165526795Y-96654591D01*
X165554644Y-96702826D01*
X165579520Y-96745913D01*
X165654087Y-96820480D01*
X165745413Y-96873207D01*
X165847270Y-96900499D01*
X165847271Y-96900500D01*
X165847273Y-96900500D01*
X165952729Y-96900500D01*
X165952729Y-96900499D01*
X165986384Y-96891481D01*
X166006347Y-96886133D01*
X166062500Y-96893525D01*
X166096978Y-96938458D01*
X166099500Y-96957611D01*
X166099500Y-97052729D01*
X166126791Y-97154582D01*
X166126792Y-97154585D01*
X166126793Y-97154587D01*
X166179520Y-97245913D01*
X166254087Y-97320480D01*
X166345413Y-97373207D01*
X166447270Y-97400499D01*
X166447271Y-97400500D01*
X166447273Y-97400500D01*
X166552729Y-97400500D01*
X166552729Y-97400499D01*
X166654587Y-97373207D01*
X166745913Y-97320480D01*
X166769219Y-97297174D01*
X166821545Y-97275500D01*
X171254798Y-97275500D01*
X171254800Y-97275500D01*
X171356058Y-97233557D01*
X171433557Y-97156058D01*
X171433556Y-97156058D01*
X171468517Y-97121097D01*
X171468516Y-97121097D01*
X176692442Y-91897174D01*
X176744768Y-91875500D01*
X188716583Y-91875500D01*
X188768909Y-91897174D01*
X188790583Y-91949500D01*
X188768909Y-92001826D01*
X188748213Y-92022521D01*
X188702910Y-92125124D01*
X188700000Y-92150210D01*
X188700000Y-92300000D01*
X191572999Y-92300000D01*
X191572999Y-92150210D01*
X194427000Y-92150210D01*
X194427000Y-92300000D01*
X197299999Y-92300000D01*
X197299999Y-92150207D01*
X197297091Y-92125131D01*
X197297089Y-92125125D01*
X197251786Y-92022521D01*
X197201219Y-91971954D01*
X197179545Y-91919628D01*
X197188275Y-91890874D01*
X197186078Y-91889964D01*
X197188866Y-91883232D01*
X197188865Y-91883232D01*
X197188867Y-91883231D01*
X197200500Y-91824748D01*
X197200500Y-91375252D01*
X197188867Y-91316769D01*
X197179550Y-91302826D01*
X197140503Y-91244389D01*
X197142569Y-91243008D01*
X197124755Y-91200000D01*
X197142569Y-91156991D01*
X197140503Y-91155611D01*
X197188866Y-91083232D01*
X197188865Y-91083232D01*
X197188867Y-91083231D01*
X197200500Y-91024748D01*
X197200500Y-90575252D01*
X197188867Y-90516769D01*
X197182760Y-90507630D01*
X197140503Y-90444389D01*
X197142569Y-90443008D01*
X197124755Y-90400000D01*
X197142569Y-90356991D01*
X197140503Y-90355611D01*
X197188866Y-90283232D01*
X197188865Y-90283232D01*
X197188867Y-90283231D01*
X197200500Y-90224748D01*
X197200500Y-89775252D01*
X197188867Y-89716769D01*
X197182760Y-89707630D01*
X197140503Y-89644389D01*
X197142569Y-89643008D01*
X197124755Y-89600000D01*
X197142569Y-89556991D01*
X197140503Y-89555611D01*
X197188866Y-89483232D01*
X197188865Y-89483232D01*
X197188867Y-89483231D01*
X197200500Y-89424748D01*
X197200500Y-88975252D01*
X197188867Y-88916769D01*
X197182760Y-88907630D01*
X197140503Y-88844389D01*
X197142569Y-88843008D01*
X197124755Y-88800000D01*
X197142569Y-88756991D01*
X197140503Y-88755611D01*
X197188866Y-88683232D01*
X197188865Y-88683232D01*
X197188867Y-88683231D01*
X197200500Y-88624748D01*
X197200500Y-88175252D01*
X197188867Y-88116769D01*
X197182760Y-88107630D01*
X197167896Y-88085385D01*
X197144552Y-88050448D01*
X197144551Y-88050447D01*
X197140503Y-88044389D01*
X197142569Y-88043008D01*
X197124755Y-88000000D01*
X197142569Y-87956991D01*
X197140503Y-87955611D01*
X197188866Y-87883232D01*
X197188865Y-87883232D01*
X197188867Y-87883231D01*
X197200500Y-87824748D01*
X197200500Y-87375252D01*
X197188867Y-87316769D01*
X197182760Y-87307630D01*
X197150742Y-87259712D01*
X197144552Y-87250448D01*
X197144551Y-87250447D01*
X197140503Y-87244389D01*
X197142569Y-87243008D01*
X197124755Y-87200000D01*
X197142569Y-87156991D01*
X197140503Y-87155611D01*
X197154048Y-87135341D01*
X197188867Y-87083231D01*
X197200500Y-87024748D01*
X197200500Y-86575252D01*
X197188867Y-86516769D01*
X197182760Y-86507630D01*
X197156423Y-86468214D01*
X197144552Y-86450448D01*
X197144551Y-86450447D01*
X197140503Y-86444389D01*
X197142569Y-86443008D01*
X197124755Y-86400000D01*
X197142569Y-86356991D01*
X197140503Y-86355611D01*
X197188866Y-86283232D01*
X197188865Y-86283232D01*
X197188867Y-86283231D01*
X197200500Y-86224748D01*
X197200500Y-85775252D01*
X197188867Y-85716769D01*
X197188866Y-85716767D01*
X197188866Y-85716766D01*
X197186077Y-85710032D01*
X197189457Y-85708631D01*
X197180971Y-85665920D01*
X197201221Y-85628044D01*
X197251785Y-85577480D01*
X197297089Y-85474875D01*
X197300000Y-85449789D01*
X197300000Y-85300000D01*
X194427001Y-85300000D01*
X194427001Y-85449792D01*
X194429908Y-85474868D01*
X194429910Y-85474874D01*
X194475213Y-85577478D01*
X194525780Y-85628045D01*
X194547454Y-85680371D01*
X194538733Y-85709128D01*
X194540922Y-85710035D01*
X194538133Y-85716767D01*
X194537160Y-85721659D01*
X194526500Y-85775252D01*
X194526500Y-86224748D01*
X194530071Y-86242699D01*
X194538133Y-86283232D01*
X194586497Y-86355611D01*
X194584430Y-86356991D01*
X194602245Y-86400000D01*
X194584430Y-86443008D01*
X194586497Y-86444389D01*
X194582448Y-86450447D01*
X194582448Y-86450448D01*
X194574528Y-86462299D01*
X194538133Y-86516767D01*
X194536851Y-86523214D01*
X194528253Y-86566442D01*
X194526500Y-86575253D01*
X194526500Y-87024746D01*
X194538133Y-87083232D01*
X194586497Y-87155611D01*
X194584430Y-87156991D01*
X194602245Y-87200000D01*
X194584430Y-87243008D01*
X194586497Y-87244389D01*
X194582448Y-87250447D01*
X194582448Y-87250448D01*
X194576348Y-87259577D01*
X194538133Y-87316767D01*
X194536851Y-87323214D01*
X194526908Y-87373204D01*
X194526500Y-87375253D01*
X194526500Y-87824746D01*
X194538133Y-87883232D01*
X194586497Y-87955611D01*
X194584430Y-87956991D01*
X194602245Y-88000000D01*
X194584430Y-88043008D01*
X194586497Y-88044389D01*
X194582448Y-88050447D01*
X194582448Y-88050448D01*
X194574528Y-88062299D01*
X194538133Y-88116767D01*
X194536851Y-88123214D01*
X194528253Y-88166442D01*
X194526500Y-88175253D01*
X194526500Y-88624746D01*
X194538133Y-88683232D01*
X194586497Y-88755611D01*
X194584430Y-88756991D01*
X194602245Y-88800000D01*
X194584430Y-88843008D01*
X194586497Y-88844389D01*
X194538133Y-88916767D01*
X194536851Y-88923214D01*
X194528253Y-88966442D01*
X194526500Y-88975253D01*
X194526500Y-89424746D01*
X194538133Y-89483232D01*
X194586497Y-89555611D01*
X194584430Y-89556991D01*
X194602245Y-89600000D01*
X194584430Y-89643008D01*
X194586497Y-89644389D01*
X194538133Y-89716767D01*
X194536851Y-89723214D01*
X194528253Y-89766442D01*
X194526500Y-89775253D01*
X194526500Y-90224746D01*
X194538133Y-90283232D01*
X194586497Y-90355611D01*
X194584430Y-90356991D01*
X194602245Y-90400000D01*
X194584430Y-90443008D01*
X194586497Y-90444389D01*
X194538133Y-90516767D01*
X194536851Y-90523214D01*
X194528253Y-90566442D01*
X194526500Y-90575253D01*
X194526500Y-91024746D01*
X194538133Y-91083232D01*
X194586497Y-91155611D01*
X194584430Y-91156991D01*
X194602245Y-91200000D01*
X194584430Y-91243008D01*
X194586497Y-91244389D01*
X194538133Y-91316767D01*
X194538133Y-91316769D01*
X194528253Y-91366442D01*
X194526500Y-91375253D01*
X194526500Y-91824746D01*
X194538133Y-91883233D01*
X194540923Y-91889968D01*
X194537543Y-91891367D01*
X194546026Y-91934092D01*
X194525779Y-91971954D01*
X194475214Y-92022519D01*
X194429910Y-92125124D01*
X194427000Y-92150210D01*
X191572999Y-92150210D01*
X191572999Y-92150207D01*
X191570091Y-92125131D01*
X191570089Y-92125125D01*
X191524786Y-92022521D01*
X191474219Y-91971954D01*
X191452545Y-91919628D01*
X191461275Y-91890874D01*
X191459078Y-91889964D01*
X191461866Y-91883232D01*
X191461865Y-91883232D01*
X191461867Y-91883231D01*
X191473500Y-91824748D01*
X191473500Y-91375252D01*
X191461867Y-91316769D01*
X191452550Y-91302826D01*
X191413503Y-91244389D01*
X191415569Y-91243008D01*
X191397755Y-91200000D01*
X191415569Y-91156991D01*
X191413503Y-91155611D01*
X191461866Y-91083232D01*
X191461865Y-91083232D01*
X191461867Y-91083231D01*
X191473500Y-91024748D01*
X191473500Y-90575252D01*
X191461867Y-90516769D01*
X191455760Y-90507630D01*
X191413503Y-90444389D01*
X191415569Y-90443008D01*
X191397755Y-90400000D01*
X191415569Y-90356991D01*
X191413503Y-90355611D01*
X191461866Y-90283232D01*
X191461865Y-90283232D01*
X191461867Y-90283231D01*
X191473500Y-90224748D01*
X191473500Y-89775252D01*
X191461867Y-89716769D01*
X191455760Y-89707630D01*
X191413503Y-89644389D01*
X191415569Y-89643008D01*
X191397755Y-89600000D01*
X191415569Y-89556991D01*
X191413503Y-89555611D01*
X191461866Y-89483232D01*
X191461865Y-89483232D01*
X191461867Y-89483231D01*
X191473500Y-89424748D01*
X191473500Y-88975252D01*
X191461867Y-88916769D01*
X191455760Y-88907630D01*
X191413503Y-88844389D01*
X191415569Y-88843008D01*
X191397755Y-88800000D01*
X191415569Y-88756991D01*
X191413503Y-88755611D01*
X191461866Y-88683232D01*
X191461865Y-88683232D01*
X191461867Y-88683231D01*
X191473500Y-88624748D01*
X191473500Y-88175252D01*
X191461867Y-88116769D01*
X191455760Y-88107630D01*
X191440896Y-88085385D01*
X191417552Y-88050448D01*
X191417551Y-88050447D01*
X191413503Y-88044389D01*
X191415569Y-88043008D01*
X191397755Y-88000000D01*
X191415569Y-87956991D01*
X191413503Y-87955611D01*
X191461866Y-87883232D01*
X191461865Y-87883232D01*
X191461867Y-87883231D01*
X191473500Y-87824748D01*
X191473500Y-87375252D01*
X191461867Y-87316769D01*
X191455760Y-87307630D01*
X191423742Y-87259712D01*
X191417552Y-87250448D01*
X191417551Y-87250447D01*
X191413503Y-87244389D01*
X191415569Y-87243008D01*
X191397755Y-87200000D01*
X191415569Y-87156991D01*
X191413503Y-87155611D01*
X191427048Y-87135341D01*
X191461867Y-87083231D01*
X191473500Y-87024748D01*
X191473500Y-86575252D01*
X191461867Y-86516769D01*
X191455760Y-86507630D01*
X191429423Y-86468214D01*
X191417552Y-86450448D01*
X191417551Y-86450447D01*
X191413503Y-86444389D01*
X191415569Y-86443008D01*
X191397755Y-86400000D01*
X191415569Y-86356991D01*
X191413503Y-86355611D01*
X191461866Y-86283232D01*
X191461865Y-86283232D01*
X191461867Y-86283231D01*
X191473500Y-86224748D01*
X191473500Y-85775252D01*
X191461867Y-85716769D01*
X191461866Y-85716767D01*
X191461866Y-85716766D01*
X191459077Y-85710032D01*
X191462457Y-85708631D01*
X191453971Y-85665920D01*
X191474221Y-85628044D01*
X191524785Y-85577480D01*
X191570089Y-85474875D01*
X191573000Y-85449789D01*
X191573000Y-85300000D01*
X188700001Y-85300000D01*
X188700001Y-85449792D01*
X188702908Y-85474868D01*
X188702910Y-85474874D01*
X188748213Y-85577478D01*
X188768909Y-85598174D01*
X188790583Y-85650500D01*
X188768909Y-85702826D01*
X188716583Y-85724500D01*
X173295202Y-85724500D01*
X173193946Y-85766440D01*
X173193943Y-85766442D01*
X165882561Y-93077826D01*
X165830235Y-93099500D01*
X165797271Y-93099500D01*
X165695417Y-93126791D01*
X165695408Y-93126795D01*
X165604086Y-93179520D01*
X165529520Y-93254086D01*
X165476795Y-93345408D01*
X165476791Y-93345417D01*
X165449500Y-93447270D01*
X150169123Y-93447270D01*
X150170480Y-93445913D01*
X150223207Y-93354587D01*
X150250499Y-93252729D01*
X150250500Y-93252729D01*
X150250500Y-93147271D01*
X150250499Y-93147270D01*
X150223208Y-93045417D01*
X150223207Y-93045413D01*
X150170480Y-92954087D01*
X150095913Y-92879520D01*
X150006754Y-92828044D01*
X150004591Y-92826795D01*
X150004582Y-92826791D01*
X149902729Y-92799500D01*
X149902727Y-92799500D01*
X149869768Y-92799500D01*
X149817442Y-92777826D01*
X142806060Y-85766445D01*
X142806055Y-85766441D01*
X142806051Y-85766440D01*
X142806037Y-85766433D01*
X142704800Y-85724500D01*
X127283417Y-85724500D01*
X127231091Y-85702826D01*
X127209417Y-85650500D01*
X127231091Y-85598174D01*
X127251786Y-85577478D01*
X127297089Y-85474875D01*
X127300000Y-85449789D01*
X127300000Y-85300000D01*
X124427001Y-85300000D01*
X124427001Y-85449792D01*
X124429908Y-85474868D01*
X124429910Y-85474874D01*
X124475213Y-85577478D01*
X124525780Y-85628045D01*
X124547454Y-85680371D01*
X124538733Y-85709128D01*
X124540922Y-85710035D01*
X124538133Y-85716767D01*
X124537160Y-85721659D01*
X124526500Y-85775252D01*
X124526500Y-86224748D01*
X124530071Y-86242699D01*
X124538133Y-86283232D01*
X124586497Y-86355611D01*
X124584430Y-86356991D01*
X124602245Y-86400000D01*
X124584430Y-86443008D01*
X124586497Y-86444389D01*
X124582448Y-86450447D01*
X124582448Y-86450448D01*
X124574528Y-86462299D01*
X124538133Y-86516767D01*
X124536851Y-86523214D01*
X124528253Y-86566442D01*
X124526500Y-86575253D01*
X124526500Y-87024746D01*
X124538133Y-87083232D01*
X124586497Y-87155611D01*
X124584430Y-87156991D01*
X124602245Y-87200000D01*
X124584430Y-87243008D01*
X124586497Y-87244389D01*
X124582448Y-87250447D01*
X124582448Y-87250448D01*
X124576348Y-87259577D01*
X124538133Y-87316767D01*
X124536851Y-87323214D01*
X124526908Y-87373204D01*
X124526500Y-87375253D01*
X124526500Y-87824746D01*
X124538133Y-87883232D01*
X124586497Y-87955611D01*
X124584430Y-87956991D01*
X124602245Y-88000000D01*
X124584430Y-88043008D01*
X124586497Y-88044389D01*
X124582448Y-88050447D01*
X124582448Y-88050448D01*
X124574528Y-88062299D01*
X124538133Y-88116767D01*
X124536851Y-88123214D01*
X124528253Y-88166442D01*
X124526500Y-88175253D01*
X124526500Y-88624746D01*
X124538133Y-88683232D01*
X124586497Y-88755611D01*
X124584430Y-88756991D01*
X124602245Y-88800000D01*
X124584430Y-88843008D01*
X124586497Y-88844389D01*
X124538133Y-88916767D01*
X124536851Y-88923214D01*
X124528253Y-88966442D01*
X124526500Y-88975253D01*
X124526500Y-89424746D01*
X124538133Y-89483232D01*
X124586497Y-89555611D01*
X124584430Y-89556991D01*
X124602245Y-89600000D01*
X124584430Y-89643008D01*
X124586497Y-89644389D01*
X124538133Y-89716767D01*
X124536851Y-89723214D01*
X124528253Y-89766442D01*
X124526500Y-89775253D01*
X124526500Y-90224746D01*
X124538133Y-90283232D01*
X124586497Y-90355611D01*
X124584430Y-90356991D01*
X124602245Y-90400000D01*
X124584430Y-90443008D01*
X124586497Y-90444389D01*
X124538133Y-90516767D01*
X124536851Y-90523214D01*
X124528253Y-90566442D01*
X124526500Y-90575253D01*
X124526500Y-91024746D01*
X124538133Y-91083232D01*
X124586497Y-91155611D01*
X124584430Y-91156991D01*
X124602245Y-91200000D01*
X124584430Y-91243008D01*
X124586497Y-91244389D01*
X124538133Y-91316767D01*
X124538133Y-91316769D01*
X124528253Y-91366442D01*
X124526500Y-91375253D01*
X124526500Y-91824746D01*
X124538133Y-91883233D01*
X124540923Y-91889968D01*
X124537543Y-91891367D01*
X124546026Y-91934092D01*
X124525779Y-91971954D01*
X124475214Y-92022519D01*
X124429910Y-92125124D01*
X124427000Y-92150210D01*
X121572999Y-92150210D01*
X121572999Y-92150207D01*
X121570091Y-92125131D01*
X121570089Y-92125125D01*
X121524786Y-92022521D01*
X121474219Y-91971954D01*
X121452545Y-91919628D01*
X121461275Y-91890874D01*
X121459078Y-91889964D01*
X121461866Y-91883232D01*
X121461865Y-91883232D01*
X121461867Y-91883231D01*
X121473500Y-91824748D01*
X121473500Y-91375252D01*
X121461867Y-91316769D01*
X121452550Y-91302826D01*
X121413503Y-91244389D01*
X121415569Y-91243008D01*
X121397755Y-91200000D01*
X121415569Y-91156991D01*
X121413503Y-91155611D01*
X121461866Y-91083232D01*
X121461865Y-91083232D01*
X121461867Y-91083231D01*
X121473500Y-91024748D01*
X121473500Y-90575252D01*
X121461867Y-90516769D01*
X121455760Y-90507630D01*
X121413503Y-90444389D01*
X121415569Y-90443008D01*
X121397755Y-90400000D01*
X121415569Y-90356991D01*
X121413503Y-90355611D01*
X121461866Y-90283232D01*
X121461865Y-90283232D01*
X121461867Y-90283231D01*
X121473500Y-90224748D01*
X121473500Y-89775252D01*
X121461867Y-89716769D01*
X121455760Y-89707630D01*
X121413503Y-89644389D01*
X121415569Y-89643008D01*
X121397755Y-89600000D01*
X121415569Y-89556991D01*
X121413503Y-89555611D01*
X121461866Y-89483232D01*
X121461865Y-89483232D01*
X121461867Y-89483231D01*
X121473500Y-89424748D01*
X121473500Y-88975252D01*
X121461867Y-88916769D01*
X121455760Y-88907630D01*
X121413503Y-88844389D01*
X121415569Y-88843008D01*
X121397755Y-88800000D01*
X121415569Y-88756991D01*
X121413503Y-88755611D01*
X121461866Y-88683232D01*
X121461865Y-88683232D01*
X121461867Y-88683231D01*
X121473500Y-88624748D01*
X121473500Y-88175252D01*
X121461867Y-88116769D01*
X121455760Y-88107630D01*
X121440896Y-88085385D01*
X121417552Y-88050448D01*
X121417551Y-88050447D01*
X121413503Y-88044389D01*
X121415569Y-88043008D01*
X121397755Y-88000000D01*
X121415569Y-87956991D01*
X121413503Y-87955611D01*
X121461866Y-87883232D01*
X121461865Y-87883232D01*
X121461867Y-87883231D01*
X121473500Y-87824748D01*
X121473500Y-87375252D01*
X121461867Y-87316769D01*
X121455760Y-87307630D01*
X121423742Y-87259712D01*
X121417552Y-87250448D01*
X121417551Y-87250447D01*
X121413503Y-87244389D01*
X121415569Y-87243008D01*
X121397755Y-87200000D01*
X121415569Y-87156991D01*
X121413503Y-87155611D01*
X121427048Y-87135341D01*
X121461867Y-87083231D01*
X121473500Y-87024748D01*
X121473500Y-86575252D01*
X121461867Y-86516769D01*
X121455760Y-86507630D01*
X121429423Y-86468214D01*
X121417552Y-86450448D01*
X121417551Y-86450447D01*
X121413503Y-86444389D01*
X121415569Y-86443008D01*
X121397755Y-86400000D01*
X121415569Y-86356991D01*
X121413503Y-86355611D01*
X121461866Y-86283232D01*
X121461865Y-86283232D01*
X121461867Y-86283231D01*
X121473500Y-86224748D01*
X121473500Y-85775252D01*
X121461867Y-85716769D01*
X121461866Y-85716767D01*
X121461866Y-85716766D01*
X121459077Y-85710032D01*
X121462457Y-85708631D01*
X121453971Y-85665920D01*
X121474221Y-85628044D01*
X121524785Y-85577480D01*
X121570089Y-85474875D01*
X121573000Y-85449789D01*
X121573000Y-85300000D01*
X118700001Y-85300000D01*
X118700001Y-85449792D01*
X118702908Y-85474868D01*
X118702910Y-85474874D01*
X118748213Y-85577478D01*
X118798780Y-85628045D01*
X118820454Y-85680371D01*
X118811733Y-85709128D01*
X118813922Y-85710035D01*
X118811133Y-85716767D01*
X118810160Y-85721659D01*
X118799500Y-85775252D01*
X118799500Y-86224748D01*
X118803071Y-86242699D01*
X118811133Y-86283232D01*
X118859497Y-86355611D01*
X118857430Y-86356991D01*
X118875245Y-86400000D01*
X118857430Y-86443008D01*
X118859497Y-86444389D01*
X118855448Y-86450447D01*
X118855448Y-86450448D01*
X118847528Y-86462299D01*
X118811133Y-86516767D01*
X118809851Y-86523214D01*
X118801253Y-86566442D01*
X118799500Y-86575253D01*
X118799500Y-87024746D01*
X118811133Y-87083232D01*
X118859497Y-87155611D01*
X118857430Y-87156991D01*
X118875245Y-87200000D01*
X118857430Y-87243008D01*
X118859497Y-87244389D01*
X118855448Y-87250447D01*
X118855448Y-87250448D01*
X118849348Y-87259577D01*
X118811133Y-87316767D01*
X118809851Y-87323214D01*
X118799908Y-87373204D01*
X118799500Y-87375253D01*
X118799500Y-87824746D01*
X118811133Y-87883232D01*
X118859497Y-87955611D01*
X118857430Y-87956991D01*
X118875245Y-88000000D01*
X118857430Y-88043008D01*
X118859497Y-88044389D01*
X118855448Y-88050447D01*
X118855448Y-88050448D01*
X118847528Y-88062299D01*
X118811133Y-88116767D01*
X118809851Y-88123214D01*
X118801253Y-88166442D01*
X118799500Y-88175253D01*
X118799500Y-88624746D01*
X118811133Y-88683232D01*
X118859497Y-88755611D01*
X118857430Y-88756991D01*
X118875245Y-88800000D01*
X118857430Y-88843008D01*
X118859497Y-88844389D01*
X118811133Y-88916767D01*
X118809851Y-88923214D01*
X118801253Y-88966442D01*
X118799500Y-88975253D01*
X118799500Y-89424746D01*
X118811133Y-89483232D01*
X118859497Y-89555611D01*
X118857430Y-89556991D01*
X118875245Y-89600000D01*
X118857430Y-89643008D01*
X118859497Y-89644389D01*
X118811133Y-89716767D01*
X118809851Y-89723214D01*
X118801253Y-89766442D01*
X118799500Y-89775253D01*
X118799500Y-90224746D01*
X118811133Y-90283232D01*
X118859497Y-90355611D01*
X118857430Y-90356991D01*
X118875245Y-90400000D01*
X118857430Y-90443008D01*
X118859497Y-90444389D01*
X118811133Y-90516767D01*
X118809851Y-90523214D01*
X118801253Y-90566442D01*
X118799500Y-90575253D01*
X118799500Y-91024746D01*
X118811133Y-91083232D01*
X118859497Y-91155611D01*
X118857430Y-91156991D01*
X118875245Y-91200000D01*
X118857430Y-91243008D01*
X118859497Y-91244389D01*
X118811133Y-91316767D01*
X118811133Y-91316769D01*
X118801253Y-91366442D01*
X118799500Y-91375253D01*
X118799500Y-91824746D01*
X118811133Y-91883233D01*
X118813923Y-91889968D01*
X118810543Y-91891367D01*
X118819026Y-91934092D01*
X118798779Y-91971954D01*
X118748214Y-92022519D01*
X118702910Y-92125124D01*
X118700000Y-92150210D01*
X108150500Y-92150210D01*
X108150500Y-84950210D01*
X118700000Y-84950210D01*
X118700000Y-85100000D01*
X120036500Y-85100000D01*
X120236500Y-85100000D01*
X121572999Y-85100000D01*
X121572999Y-84950210D01*
X124427000Y-84950210D01*
X124427000Y-85100000D01*
X125763500Y-85100000D01*
X125963500Y-85100000D01*
X127299999Y-85100000D01*
X127299999Y-84950207D01*
X127297091Y-84925131D01*
X127297089Y-84925126D01*
X127255039Y-84829890D01*
X127253731Y-84773268D01*
X127255039Y-84770110D01*
X127297089Y-84674875D01*
X127300000Y-84649789D01*
X127300000Y-84500000D01*
X125963500Y-84500000D01*
X125963500Y-85100000D01*
X125763500Y-85100000D01*
X125763500Y-84500000D01*
X124427001Y-84500000D01*
X124427001Y-84649792D01*
X124429908Y-84674868D01*
X124429910Y-84674874D01*
X124471960Y-84770109D01*
X124473268Y-84826731D01*
X124471960Y-84829889D01*
X124429910Y-84925123D01*
X124427000Y-84950210D01*
X121572999Y-84950210D01*
X121572999Y-84950207D01*
X121570091Y-84925131D01*
X121570089Y-84925126D01*
X121528039Y-84829890D01*
X121526731Y-84773268D01*
X121528039Y-84770110D01*
X121570089Y-84674875D01*
X121573000Y-84649789D01*
X121573000Y-84500000D01*
X120236500Y-84500000D01*
X120236500Y-85100000D01*
X120036500Y-85100000D01*
X120036500Y-84500000D01*
X118700001Y-84500000D01*
X118700001Y-84649792D01*
X118702908Y-84674868D01*
X118702910Y-84674874D01*
X118744960Y-84770109D01*
X118746268Y-84826731D01*
X118744960Y-84829889D01*
X118702910Y-84925123D01*
X118700000Y-84950210D01*
X108150500Y-84950210D01*
X108150500Y-84150210D01*
X118700000Y-84150210D01*
X118700000Y-84300000D01*
X120036500Y-84300000D01*
X120236500Y-84300000D01*
X121572999Y-84300000D01*
X121572999Y-84150210D01*
X124427000Y-84150210D01*
X124427000Y-84300000D01*
X125763500Y-84300000D01*
X125963500Y-84300000D01*
X127299999Y-84300000D01*
X127299999Y-84150207D01*
X127297091Y-84125131D01*
X127297089Y-84125125D01*
X127251786Y-84022521D01*
X127172478Y-83943213D01*
X127069875Y-83897910D01*
X127069876Y-83897910D01*
X127044789Y-83895000D01*
X125963500Y-83895000D01*
X125963500Y-84300000D01*
X125763500Y-84300000D01*
X125763500Y-83895000D01*
X124682207Y-83895000D01*
X124657131Y-83897908D01*
X124657125Y-83897910D01*
X124554521Y-83943213D01*
X124475213Y-84022521D01*
X124429910Y-84125124D01*
X124427000Y-84150210D01*
X121572999Y-84150210D01*
X121572999Y-84150207D01*
X121570091Y-84125131D01*
X121570089Y-84125125D01*
X121524786Y-84022521D01*
X121445478Y-83943213D01*
X121342875Y-83897910D01*
X121342876Y-83897910D01*
X121317789Y-83895000D01*
X120236500Y-83895000D01*
X120236500Y-84300000D01*
X120036500Y-84300000D01*
X120036500Y-83895000D01*
X118955207Y-83895000D01*
X118930131Y-83897908D01*
X118930125Y-83897910D01*
X118827521Y-83943213D01*
X118748213Y-84022521D01*
X118702910Y-84125124D01*
X118700000Y-84150210D01*
X108150500Y-84150210D01*
X108150500Y-81874871D01*
X119719500Y-81874871D01*
X119719500Y-81995128D01*
X119742959Y-82113069D01*
X119742961Y-82113076D01*
X119788981Y-82224179D01*
X119788982Y-82224180D01*
X119855794Y-82324171D01*
X119940829Y-82409206D01*
X120040820Y-82476018D01*
X120151924Y-82522039D01*
X120269871Y-82545500D01*
X120269872Y-82545500D01*
X120390128Y-82545500D01*
X120390129Y-82545500D01*
X120508076Y-82522039D01*
X120619180Y-82476018D01*
X120719171Y-82409206D01*
X120804206Y-82324171D01*
X120871018Y-82224180D01*
X120917039Y-82113076D01*
X120940500Y-81995129D01*
X120940500Y-81874871D01*
X120917039Y-81756924D01*
X120871018Y-81645820D01*
X120804206Y-81545829D01*
X120719171Y-81460794D01*
X120619180Y-81393982D01*
X120619181Y-81393982D01*
X120619179Y-81393981D01*
X120508076Y-81347961D01*
X120508069Y-81347959D01*
X120419215Y-81330285D01*
X120390129Y-81324500D01*
X120269871Y-81324500D01*
X120246538Y-81329141D01*
X120151930Y-81347959D01*
X120151923Y-81347961D01*
X120040820Y-81393981D01*
X119940832Y-81460791D01*
X119855791Y-81545832D01*
X119788981Y-81645820D01*
X119742961Y-81756923D01*
X119742959Y-81756930D01*
X119719500Y-81874871D01*
X108150500Y-81874871D01*
X108150500Y-80002083D01*
X108150616Y-79997934D01*
X108158701Y-79853959D01*
X150399500Y-79853959D01*
X150399500Y-80146041D01*
X150418186Y-80311895D01*
X150432202Y-80436289D01*
X150497195Y-80721040D01*
X150497201Y-80721058D01*
X150593661Y-80996730D01*
X150720394Y-81259891D01*
X150720395Y-81259893D01*
X150875792Y-81507206D01*
X151057902Y-81735565D01*
X151264435Y-81942098D01*
X151492794Y-82124208D01*
X151740107Y-82279605D01*
X151832649Y-82324171D01*
X152003269Y-82406338D01*
X152202407Y-82476018D01*
X152278955Y-82502803D01*
X152563714Y-82567798D01*
X152658786Y-82578509D01*
X152708355Y-82605904D01*
X152724500Y-82652043D01*
X152724500Y-84695613D01*
X152702826Y-84747939D01*
X152411675Y-85039090D01*
X152355860Y-85115911D01*
X152355858Y-85115915D01*
X152316658Y-85236565D01*
X152316658Y-85325500D01*
X152294984Y-85377826D01*
X152242658Y-85399500D01*
X152220941Y-85399500D01*
X152068220Y-85440421D01*
X152068214Y-85440424D01*
X151931283Y-85519480D01*
X151819480Y-85631283D01*
X151740424Y-85768214D01*
X151740421Y-85768220D01*
X151699500Y-85920940D01*
X151699500Y-86079059D01*
X151740421Y-86231779D01*
X151740422Y-86231781D01*
X151740423Y-86231784D01*
X151819480Y-86368716D01*
X151931284Y-86480520D01*
X152068216Y-86559577D01*
X152220940Y-86600499D01*
X152220941Y-86600500D01*
X152325500Y-86600500D01*
X152377826Y-86622174D01*
X152399500Y-86674500D01*
X152399500Y-86779059D01*
X152440421Y-86931779D01*
X152440422Y-86931781D01*
X152440423Y-86931784D01*
X152519480Y-87068716D01*
X152631284Y-87180520D01*
X152768216Y-87259577D01*
X152920940Y-87300499D01*
X152920941Y-87300500D01*
X152920943Y-87300500D01*
X153079059Y-87300500D01*
X153079059Y-87300499D01*
X153231784Y-87259577D01*
X153368716Y-87180520D01*
X153480520Y-87068716D01*
X153559577Y-86931784D01*
X153600499Y-86779059D01*
X153600500Y-86779059D01*
X153600500Y-86620941D01*
X153600499Y-86620940D01*
X153585896Y-86566442D01*
X153559577Y-86468216D01*
X153480520Y-86331284D01*
X153368716Y-86219480D01*
X153231784Y-86140423D01*
X153231781Y-86140422D01*
X153231779Y-86140421D01*
X153115877Y-86109365D01*
X153070944Y-86074887D01*
X153063552Y-86018734D01*
X153098030Y-85973801D01*
X153112158Y-85967510D01*
X153184090Y-85944139D01*
X153260909Y-85888326D01*
X153427060Y-85722173D01*
X153479386Y-85700500D01*
X156803455Y-85700500D01*
X156855781Y-85722174D01*
X158454087Y-87320480D01*
X158454089Y-87320481D01*
X158454090Y-87320482D01*
X158518281Y-87357542D01*
X158545412Y-87373207D01*
X158647273Y-87400500D01*
X162308480Y-87400500D01*
X162360806Y-87422174D01*
X162695933Y-87757299D01*
X162740281Y-87793039D01*
X162740285Y-87793041D01*
X162740287Y-87793042D01*
X162765946Y-87804759D01*
X162864658Y-87849839D01*
X163000000Y-87869299D01*
X163135342Y-87849839D01*
X163259719Y-87793039D01*
X163304067Y-87757301D01*
X163757299Y-87304067D01*
X163793039Y-87259719D01*
X163849839Y-87135342D01*
X163869299Y-87000000D01*
X163849839Y-86864658D01*
X163844943Y-86853939D01*
X163842921Y-86797340D01*
X163881514Y-86755887D01*
X163922370Y-86751126D01*
X163922467Y-86750144D01*
X163926080Y-86750500D01*
X163926082Y-86750500D01*
X164073916Y-86750500D01*
X164073918Y-86750500D01*
X164218913Y-86721658D01*
X164355495Y-86665084D01*
X164478416Y-86582951D01*
X164582951Y-86478416D01*
X164665084Y-86355495D01*
X164721658Y-86218913D01*
X164750500Y-86073918D01*
X164750500Y-85926082D01*
X164721658Y-85781087D01*
X164719241Y-85775253D01*
X164665084Y-85644505D01*
X164582951Y-85521584D01*
X164478415Y-85417048D01*
X164355494Y-85334915D01*
X164218917Y-85278343D01*
X164218907Y-85278340D01*
X164121811Y-85259026D01*
X164073918Y-85249500D01*
X163926082Y-85249500D01*
X163815523Y-85271492D01*
X163759974Y-85260443D01*
X163728508Y-85213351D01*
X163728508Y-85184477D01*
X163750500Y-85073916D01*
X163750500Y-84950210D01*
X188700000Y-84950210D01*
X188700000Y-85100000D01*
X190036500Y-85100000D01*
X190236500Y-85100000D01*
X191572999Y-85100000D01*
X191572999Y-84950210D01*
X194427000Y-84950210D01*
X194427000Y-85100000D01*
X195763500Y-85100000D01*
X195963500Y-85100000D01*
X197299999Y-85100000D01*
X197299999Y-84950207D01*
X197297091Y-84925131D01*
X197297089Y-84925126D01*
X197255039Y-84829890D01*
X197253731Y-84773268D01*
X197255039Y-84770110D01*
X197297089Y-84674875D01*
X197300000Y-84649789D01*
X197300000Y-84500000D01*
X195963500Y-84500000D01*
X195963500Y-85100000D01*
X195763500Y-85100000D01*
X195763500Y-84500000D01*
X194427001Y-84500000D01*
X194427001Y-84649792D01*
X194429908Y-84674868D01*
X194429910Y-84674874D01*
X194471960Y-84770109D01*
X194473268Y-84826731D01*
X194471960Y-84829889D01*
X194429910Y-84925123D01*
X194427000Y-84950210D01*
X191572999Y-84950210D01*
X191572999Y-84950207D01*
X191570091Y-84925131D01*
X191570089Y-84925126D01*
X191528039Y-84829890D01*
X191526731Y-84773268D01*
X191528039Y-84770110D01*
X191570089Y-84674875D01*
X191573000Y-84649789D01*
X191573000Y-84500000D01*
X190236500Y-84500000D01*
X190236500Y-85100000D01*
X190036500Y-85100000D01*
X190036500Y-84500000D01*
X188700001Y-84500000D01*
X188700001Y-84649792D01*
X188702908Y-84674868D01*
X188702910Y-84674874D01*
X188744960Y-84770109D01*
X188746268Y-84826731D01*
X188744960Y-84829889D01*
X188702910Y-84925123D01*
X188700000Y-84950210D01*
X163750500Y-84950210D01*
X163750500Y-84926083D01*
X163731365Y-84829889D01*
X163721658Y-84781087D01*
X163665084Y-84644505D01*
X163582951Y-84521584D01*
X163478416Y-84417049D01*
X163355495Y-84334916D01*
X163355496Y-84334916D01*
X163355494Y-84334915D01*
X163218917Y-84278343D01*
X163218907Y-84278340D01*
X163121811Y-84259026D01*
X163073918Y-84249500D01*
X162926082Y-84249500D01*
X162884977Y-84257676D01*
X162781092Y-84278340D01*
X162781082Y-84278343D01*
X162644505Y-84334915D01*
X162521584Y-84417048D01*
X162521583Y-84417050D01*
X162417050Y-84521583D01*
X162417048Y-84521584D01*
X162334915Y-84644505D01*
X162278343Y-84781082D01*
X162278340Y-84781092D01*
X162249500Y-84926083D01*
X162249500Y-85073916D01*
X162278340Y-85218907D01*
X162278343Y-85218917D01*
X162334915Y-85355494D01*
X162417048Y-85478415D01*
X162521584Y-85582951D01*
X162644505Y-85665084D01*
X162769276Y-85716766D01*
X162781087Y-85721658D01*
X162926082Y-85750500D01*
X162926084Y-85750500D01*
X163073916Y-85750500D01*
X163073918Y-85750500D01*
X163184477Y-85728508D01*
X163240026Y-85739557D01*
X163271492Y-85786649D01*
X163271492Y-85815523D01*
X163249500Y-85926083D01*
X163249500Y-86073920D01*
X163249856Y-86077533D01*
X163248515Y-86077665D01*
X163238321Y-86128867D01*
X163191223Y-86160324D01*
X163146061Y-86155056D01*
X163135342Y-86150161D01*
X163135340Y-86150160D01*
X163135339Y-86150160D01*
X163000000Y-86130701D01*
X162864661Y-86150160D01*
X162864658Y-86150160D01*
X162740281Y-86206960D01*
X162695934Y-86242697D01*
X162695933Y-86242698D01*
X162360808Y-86577826D01*
X162308482Y-86599500D01*
X158896545Y-86599500D01*
X158844219Y-86577826D01*
X158047475Y-85781082D01*
X157245913Y-84979520D01*
X157245910Y-84979518D01*
X157245909Y-84979517D01*
X157154592Y-84926795D01*
X157154588Y-84926793D01*
X157148385Y-84925131D01*
X157052727Y-84899500D01*
X157052726Y-84899500D01*
X153479387Y-84899500D01*
X153427061Y-84877826D01*
X153297174Y-84747939D01*
X153275500Y-84695613D01*
X153275500Y-84150210D01*
X188700000Y-84150210D01*
X188700000Y-84300000D01*
X190036500Y-84300000D01*
X190236500Y-84300000D01*
X191572999Y-84300000D01*
X191572999Y-84150210D01*
X194427000Y-84150210D01*
X194427000Y-84300000D01*
X195763500Y-84300000D01*
X195963500Y-84300000D01*
X197299999Y-84300000D01*
X197299999Y-84150207D01*
X197297091Y-84125131D01*
X197297089Y-84125125D01*
X197251786Y-84022521D01*
X197172478Y-83943213D01*
X197069875Y-83897910D01*
X197069876Y-83897910D01*
X197044789Y-83895000D01*
X195963500Y-83895000D01*
X195963500Y-84300000D01*
X195763500Y-84300000D01*
X195763500Y-83895000D01*
X194682207Y-83895000D01*
X194657131Y-83897908D01*
X194657125Y-83897910D01*
X194554521Y-83943213D01*
X194475213Y-84022521D01*
X194429910Y-84125124D01*
X194427000Y-84150210D01*
X191572999Y-84150210D01*
X191572999Y-84150207D01*
X191570091Y-84125131D01*
X191570089Y-84125125D01*
X191524786Y-84022521D01*
X191445478Y-83943213D01*
X191342875Y-83897910D01*
X191342876Y-83897910D01*
X191317789Y-83895000D01*
X190236500Y-83895000D01*
X190236500Y-84300000D01*
X190036500Y-84300000D01*
X190036500Y-83895000D01*
X188955207Y-83895000D01*
X188930131Y-83897908D01*
X188930125Y-83897910D01*
X188827521Y-83943213D01*
X188748213Y-84022521D01*
X188702910Y-84125124D01*
X188700000Y-84150210D01*
X153275500Y-84150210D01*
X153275500Y-82652043D01*
X153297174Y-82599717D01*
X153341213Y-82578509D01*
X153436286Y-82567798D01*
X153721045Y-82502803D01*
X153845207Y-82459357D01*
X153996730Y-82406338D01*
X153996734Y-82406335D01*
X153996737Y-82406335D01*
X154259893Y-82279605D01*
X154507206Y-82124208D01*
X154735565Y-81942098D01*
X154942098Y-81735565D01*
X155124208Y-81507206D01*
X155279605Y-81259893D01*
X155406335Y-80996737D01*
X155406335Y-80996734D01*
X155406338Y-80996730D01*
X155459357Y-80845207D01*
X155502803Y-80721045D01*
X155567798Y-80436286D01*
X155600500Y-80146041D01*
X155600500Y-79853959D01*
X155599871Y-79848374D01*
X160300000Y-79848374D01*
X160300000Y-80151625D01*
X160333954Y-80452982D01*
X160333954Y-80452983D01*
X160401432Y-80748625D01*
X160401437Y-80748641D01*
X160501593Y-81034869D01*
X160633173Y-81308097D01*
X160794516Y-81564874D01*
X160983593Y-81801969D01*
X161020101Y-81838477D01*
X161939339Y-80919238D01*
X162080761Y-81060660D01*
X161161523Y-81979899D01*
X161198030Y-82016406D01*
X161435125Y-82205483D01*
X161691902Y-82366826D01*
X161965130Y-82498406D01*
X162251358Y-82598562D01*
X162251374Y-82598567D01*
X162547016Y-82666045D01*
X162848375Y-82700000D01*
X163151625Y-82700000D01*
X163452982Y-82666045D01*
X163452983Y-82666045D01*
X163748625Y-82598567D01*
X163748641Y-82598562D01*
X164034869Y-82498406D01*
X164308097Y-82366826D01*
X164564874Y-82205483D01*
X164801969Y-82016406D01*
X164838477Y-81979899D01*
X164733449Y-81874871D01*
X189719500Y-81874871D01*
X189719500Y-81995128D01*
X189742959Y-82113069D01*
X189742961Y-82113076D01*
X189788981Y-82224179D01*
X189788982Y-82224180D01*
X189855794Y-82324171D01*
X189940829Y-82409206D01*
X190040820Y-82476018D01*
X190151924Y-82522039D01*
X190269871Y-82545500D01*
X190269872Y-82545500D01*
X190390128Y-82545500D01*
X190390129Y-82545500D01*
X190508076Y-82522039D01*
X190619180Y-82476018D01*
X190719171Y-82409206D01*
X190804206Y-82324171D01*
X190871018Y-82224180D01*
X190917039Y-82113076D01*
X190940500Y-81995129D01*
X190940500Y-81874871D01*
X190917039Y-81756924D01*
X190871018Y-81645820D01*
X190804206Y-81545829D01*
X190719171Y-81460794D01*
X190619180Y-81393982D01*
X190619181Y-81393982D01*
X190619179Y-81393981D01*
X190508076Y-81347961D01*
X190508069Y-81347959D01*
X190419215Y-81330285D01*
X190390129Y-81324500D01*
X190269871Y-81324500D01*
X190246538Y-81329141D01*
X190151930Y-81347959D01*
X190151923Y-81347961D01*
X190040820Y-81393981D01*
X189940832Y-81460791D01*
X189855791Y-81545832D01*
X189788981Y-81645820D01*
X189742961Y-81756923D01*
X189742959Y-81756930D01*
X189719500Y-81874871D01*
X164733449Y-81874871D01*
X163919238Y-81060660D01*
X164060660Y-80919238D01*
X164979899Y-81838477D01*
X164999466Y-81818910D01*
X165016406Y-81801969D01*
X165205483Y-81564874D01*
X165366826Y-81308097D01*
X165498406Y-81034869D01*
X165598562Y-80748641D01*
X165598567Y-80748625D01*
X165666045Y-80452983D01*
X165666045Y-80452982D01*
X165700000Y-80151625D01*
X165700000Y-79848374D01*
X165666045Y-79547017D01*
X165666045Y-79547016D01*
X165598567Y-79251374D01*
X165598562Y-79251358D01*
X165498406Y-78965130D01*
X165366826Y-78691902D01*
X165205483Y-78435125D01*
X165016406Y-78198030D01*
X164979899Y-78161523D01*
X164060660Y-79080761D01*
X163919238Y-78939339D01*
X164838477Y-78020101D01*
X164801969Y-77983593D01*
X164564874Y-77794516D01*
X164308097Y-77633173D01*
X164034869Y-77501593D01*
X163748641Y-77401437D01*
X163748625Y-77401432D01*
X163452983Y-77333954D01*
X163151625Y-77300000D01*
X162848375Y-77300000D01*
X162547017Y-77333954D01*
X162547016Y-77333954D01*
X162251374Y-77401432D01*
X162251358Y-77401437D01*
X161965130Y-77501593D01*
X161691902Y-77633173D01*
X161435125Y-77794516D01*
X161198030Y-77983593D01*
X161161523Y-78020101D01*
X162080761Y-78939339D01*
X161939339Y-79080761D01*
X161020101Y-78161523D01*
X160983593Y-78198030D01*
X160794516Y-78435125D01*
X160633173Y-78691902D01*
X160501593Y-78965130D01*
X160401437Y-79251358D01*
X160401432Y-79251374D01*
X160333954Y-79547016D01*
X160333954Y-79547017D01*
X160300000Y-79848374D01*
X155599871Y-79848374D01*
X155567798Y-79563714D01*
X155502803Y-79278955D01*
X155435972Y-79087961D01*
X155406338Y-79003269D01*
X155292791Y-78767488D01*
X155279605Y-78740107D01*
X155124208Y-78492794D01*
X154942098Y-78264435D01*
X154735565Y-78057902D01*
X154735563Y-78057900D01*
X154722278Y-78047305D01*
X154722277Y-78047305D01*
X154507206Y-77875792D01*
X154259893Y-77720395D01*
X154259891Y-77720394D01*
X153996730Y-77593661D01*
X153721058Y-77497201D01*
X153721040Y-77497195D01*
X153436289Y-77432202D01*
X153311895Y-77418186D01*
X153146041Y-77399500D01*
X152853959Y-77399500D01*
X152708836Y-77415851D01*
X152563710Y-77432202D01*
X152278959Y-77497195D01*
X152278941Y-77497201D01*
X152003269Y-77593661D01*
X151740108Y-77720394D01*
X151492793Y-77875792D01*
X151264431Y-78057905D01*
X151057905Y-78264431D01*
X150875792Y-78492793D01*
X150720394Y-78740108D01*
X150593661Y-79003269D01*
X150497201Y-79278941D01*
X150497195Y-79278959D01*
X150432202Y-79563710D01*
X150413515Y-79729568D01*
X150399500Y-79853959D01*
X108158701Y-79853959D01*
X108168184Y-79685092D01*
X108169114Y-79676852D01*
X108169911Y-79672166D01*
X108221247Y-79370020D01*
X108223092Y-79361937D01*
X108309258Y-79062846D01*
X108311988Y-79055044D01*
X108431100Y-78767481D01*
X108434694Y-78760019D01*
X108585259Y-78487593D01*
X108589656Y-78480595D01*
X108769769Y-78226750D01*
X108774927Y-78220281D01*
X108982342Y-77988183D01*
X108988183Y-77982342D01*
X109220281Y-77774927D01*
X109226750Y-77769769D01*
X109480595Y-77589656D01*
X109487593Y-77585259D01*
X109760019Y-77434694D01*
X109767481Y-77431100D01*
X110055044Y-77311988D01*
X110062846Y-77309258D01*
X110361945Y-77223090D01*
X110370020Y-77221247D01*
X110676860Y-77169113D01*
X110685092Y-77168184D01*
X110997934Y-77150615D01*
X111002083Y-77150500D01*
X111034351Y-77150500D01*
X204965649Y-77150500D01*
X204997917Y-77150500D01*
X205002065Y-77150615D01*
G37*
%TD.AperFunction*%
%TD*%
M02*
