M48
; DRILL file {KiCad 9.0.3} date 2025-10-23T14:53:04-0400
; FORMAT={-:-/ absolute / metric / decimal}
; #@! TF.CreationDate,2025-10-23T14:53:04-04:00
; #@! TF.GenerationSoftware,Kicad,Pcbnew,9.0.3
; #@! TF.FileFunction,Plated,1,2,PTH
FMAT,2
METRIC
; #@! TA.AperFunction,Plated,PTH,ViaDrill
T1C0.200
; #@! TA.AperFunction,Plated,PTH,ComponentDrill
T2C0.450
; #@! TA.AperFunction,Plated,PTH,ComponentDrill
T3C0.700
; #@! TA.AperFunction,Plated,PTH,ComponentDrill
T4C2.800
%
G90
G05
T1
X113.1Y-94.4
X113.27Y-112.5
X113.5Y-81.7
X113.8Y-133.9
X118.1Y-116.1
X119.7Y-123.7
X119.7Y-124.2
X120.8Y-121.0
X122.2Y-119.6
X123.45Y-118.35
X125.1Y-119.7
X125.1Y-120.9
X125.863Y-116.536
X127.7Y-115.4
X128.9Y-99.6
X128.9Y-133.6
X129.0Y-92.4
X129.0Y-107.0
X129.125Y-85.075
X129.4Y-114.75
X133.6Y-117.0
X135.0Y-80.8
X136.15Y-99.625
X138.4Y-92.4
X138.7Y-106.8
X138.85Y-84.475
X140.7Y-101.75
X141.9Y-133.0
X143.25Y-114.125
X145.3Y-96.675
X147.5Y-89.025
X148.1Y-112.9
X148.4Y-81.1
X149.375Y-122.707
X149.45Y-95.5
X149.45Y-96.5
X149.45Y-98.0
X149.45Y-99.0
X149.45Y-100.0
X149.45Y-101.0
X149.45Y-102.5
X149.45Y-103.5
X149.45Y-104.5
X149.45Y-105.5
X149.45Y-107.0
X149.45Y-108.0
X149.5Y-94.5
X149.5Y-109.0
X149.5Y-110.0
X149.85Y-93.2
X150.0Y-95.0
X150.05Y-96.0
X150.05Y-97.0
X150.05Y-98.5
X150.05Y-99.5
X150.05Y-100.5
X150.05Y-101.5
X150.05Y-103.0
X150.05Y-104.0
X150.05Y-105.0
X150.05Y-106.0
X150.05Y-107.5
X150.05Y-108.5
X150.1Y-109.5
X150.1Y-110.5
X150.15Y-94.0
X151.65Y-111.8
X153.4Y-91.9
X153.8Y-111.35
X154.02Y-114.223
X155.25Y-94.65
X155.25Y-109.4
X157.9Y-95.7
X158.0Y-106.3
X159.177Y-121.916
X159.4Y-113.2
X161.9Y-92.5
X163.885Y-111.51
X165.85Y-93.5
X165.85Y-94.5
X165.9Y-95.5
X165.9Y-96.5
X165.9Y-98.0
X165.9Y-99.0
X165.9Y-100.0
X165.9Y-101.0
X165.9Y-110.05
X165.95Y-102.55
X165.95Y-103.55
X165.95Y-104.55
X165.95Y-105.55
X166.0Y-107.05
X166.0Y-108.05
X166.05Y-109.05
X166.45Y-94.0
X166.45Y-95.0
X166.5Y-96.0
X166.5Y-97.0
X166.5Y-98.5
X166.5Y-99.5
X166.5Y-100.5
X166.5Y-101.5
X166.55Y-103.05
X166.55Y-104.05
X166.55Y-105.05
X166.55Y-106.05
X166.55Y-109.55
X166.55Y-110.55
X166.6Y-107.55
X166.6Y-108.55
X166.8Y-111.7
X167.975Y-89.075
X169.6Y-114.55
X172.6Y-96.8
X172.997Y-124.013
X173.525Y-84.75
X174.067Y-80.222
X175.3Y-106.8
X175.981Y-114.462
X176.8Y-92.45
X177.975Y-101.725
X179.7Y-132.6
X181.725Y-99.675
X184.3Y-116.5
X184.9Y-80.2
X186.725Y-84.675
X187.2Y-99.6
X187.5Y-92.5
X187.5Y-106.8
X187.904Y-114.173
X188.054Y-115.836
X193.464Y-115.836
X193.9Y-134.7
X202.3Y-124.8
X202.9Y-91.1
X203.0Y-80.9
X203.2Y-107.5
T2
X152.3Y-86.0
X153.0Y-85.3
X153.0Y-86.7
T3
X163.0Y-85.0
X163.0Y-87.0
X164.0Y-86.0
T4
X153.0Y-80.0
X153.0Y-134.0
X163.0Y-80.0
X163.0Y-134.0
M30
