%TF.GenerationSoftware,KiCad,Pcbnew,9.0.0-rc1*%
%TF.CreationDate,2025-02-06T15:19:43-05:00*%
%TF.ProjectId,ephys-test-module-64,65706879-732d-4746-9573-742d6d6f6475,A*%
%TF.SameCoordinates,Original*%
%TF.FileFunction,Soldermask,Top*%
%TF.FilePolarity,Negative*%
%FSLAX46Y46*%
G04 Gerber Fmt 4.6, Leading zero omitted, Abs format (unit mm)*
G04 Created by KiCad (PCBNEW 9.0.0-rc1) date 2025-02-06 15:19:43*
%MOMM*%
%LPD*%
G01*
G04 APERTURE LIST*
G04 Aperture macros list*
%AMRoundRect*
0 Rectangle with rounded corners*
0 $1 Rounding radius*
0 $2 $3 $4 $5 $6 $7 $8 $9 X,Y pos of 4 corners*
0 Add a 4 corners polygon primitive as box body*
4,1,4,$2,$3,$4,$5,$6,$7,$8,$9,$2,$3,0*
0 Add four circle primitives for the rounded corners*
1,1,$1+$1,$2,$3*
1,1,$1+$1,$4,$5*
1,1,$1+$1,$6,$7*
1,1,$1+$1,$8,$9*
0 Add four rect primitives between the rounded corners*
20,1,$1+$1,$2,$3,$4,$5,0*
20,1,$1+$1,$4,$5,$6,$7,0*
20,1,$1+$1,$6,$7,$8,$9,0*
20,1,$1+$1,$8,$9,$2,$3,0*%
G04 Aperture macros list end*
%ADD10C,0.000000*%
%ADD11C,2.800000*%
%ADD12R,1.000000X2.510000*%
%ADD13RoundRect,0.135000X0.185000X-0.135000X0.185000X0.135000X-0.185000X0.135000X-0.185000X-0.135000X0*%
%ADD14RoundRect,0.135000X0.135000X0.185000X-0.135000X0.185000X-0.135000X-0.185000X0.135000X-0.185000X0*%
%ADD15RoundRect,0.200000X-0.282843X0.000000X0.000000X-0.282843X0.282843X0.000000X0.000000X0.282843X0*%
%ADD16C,0.800000*%
%ADD17RoundRect,0.010000X0.340000X-0.090000X0.340000X0.090000X-0.340000X0.090000X-0.340000X-0.090000X0*%
%ADD18R,3.150000X1.000000*%
%ADD19RoundRect,0.150000X0.825000X0.150000X-0.825000X0.150000X-0.825000X-0.150000X0.825000X-0.150000X0*%
%ADD20RoundRect,0.275000X0.388909X0.000000X0.000000X0.388909X-0.388909X0.000000X0.000000X-0.388909X0*%
%ADD21C,1.100000*%
%ADD22RoundRect,0.140000X-0.140000X-0.170000X0.140000X-0.170000X0.140000X0.170000X-0.140000X0.170000X0*%
%ADD23C,1.020000*%
G04 APERTURE END LIST*
D10*
%TO.C,G\u002A\u002A\u002A*%
G36*
X185419905Y-130541203D02*
G01*
X185524976Y-130556873D01*
X185583922Y-130572831D01*
X185710199Y-130624904D01*
X185821844Y-130693761D01*
X185923049Y-130781436D01*
X186010618Y-130882520D01*
X186079043Y-130992976D01*
X186131929Y-131118639D01*
X186132586Y-131120563D01*
X186165601Y-131217510D01*
X186165601Y-132017319D01*
X186165601Y-132817128D01*
X186132586Y-132914075D01*
X186079724Y-133039948D01*
X186010678Y-133151223D01*
X185923158Y-133252577D01*
X185815234Y-133345634D01*
X185697986Y-133416344D01*
X185571013Y-133464883D01*
X185433911Y-133491425D01*
X185365792Y-133496354D01*
X185307021Y-133497131D01*
X185250958Y-133495526D01*
X185206223Y-133491880D01*
X185190987Y-133489439D01*
X185055802Y-133451705D01*
X184936406Y-133398028D01*
X184828602Y-133326177D01*
X184747459Y-133253686D01*
X184669875Y-133166819D01*
X184609378Y-133076447D01*
X184561466Y-132975031D01*
X184533771Y-132895897D01*
X184505391Y-132805010D01*
X184505391Y-132780773D01*
X184505391Y-132017319D01*
X184505391Y-131253865D01*
X184893177Y-131253865D01*
X184893177Y-132017319D01*
X184893177Y-132780773D01*
X184926069Y-132847424D01*
X184982661Y-132940159D01*
X185051738Y-133012855D01*
X185135265Y-133067309D01*
X185193710Y-133092177D01*
X185270174Y-133109183D01*
X185356261Y-133111618D01*
X185442615Y-133099984D01*
X185519880Y-133074782D01*
X185520128Y-133074668D01*
X185596299Y-133028202D01*
X185666108Y-132963800D01*
X185723234Y-132887761D01*
X185742192Y-132853329D01*
X185777815Y-132780773D01*
X185777815Y-132017319D01*
X185777815Y-131253865D01*
X185742192Y-131181310D01*
X185691930Y-131101646D01*
X185625905Y-131030836D01*
X185550555Y-130975317D01*
X185520128Y-130959246D01*
X185482556Y-130943215D01*
X185448136Y-130933427D01*
X185408596Y-130928423D01*
X185355667Y-130926744D01*
X185335496Y-130926670D01*
X185276809Y-130927623D01*
X185234045Y-130931453D01*
X185198935Y-130939620D01*
X185163208Y-130953583D01*
X185150864Y-130959246D01*
X185077471Y-131004411D01*
X185008772Y-131066305D01*
X184952125Y-131137568D01*
X184925754Y-131184357D01*
X184893177Y-131253865D01*
X184505391Y-131253865D01*
X184505391Y-131229628D01*
X184533771Y-131138741D01*
X184575697Y-131025506D01*
X184627146Y-130928443D01*
X184692618Y-130840012D01*
X184747459Y-130780952D01*
X184834327Y-130703368D01*
X184924699Y-130642871D01*
X185026114Y-130594959D01*
X185105248Y-130567263D01*
X185201161Y-130546295D01*
X185309006Y-130537642D01*
X185419905Y-130541203D01*
G37*
G36*
X189789562Y-130540201D02*
G01*
X189891571Y-130554642D01*
X189940458Y-130567297D01*
X190057806Y-130611166D01*
X190158418Y-130665580D01*
X190248860Y-130734421D01*
X190291889Y-130775032D01*
X190379392Y-130874769D01*
X190447079Y-130980197D01*
X190499336Y-131098355D01*
X190507118Y-131120563D01*
X190539952Y-131217510D01*
X190540133Y-131655888D01*
X190540134Y-131770673D01*
X190539945Y-131863731D01*
X190539433Y-131937573D01*
X190538466Y-131994707D01*
X190536913Y-132037643D01*
X190534642Y-132068892D01*
X190531520Y-132090964D01*
X190527416Y-132106367D01*
X190522198Y-132117613D01*
X190515735Y-132127210D01*
X190515329Y-132127754D01*
X190486479Y-132160115D01*
X190456890Y-132186227D01*
X190448509Y-132191978D01*
X190438688Y-132196789D01*
X190425289Y-132200759D01*
X190406172Y-132203985D01*
X190379200Y-132206567D01*
X190342232Y-132208603D01*
X190293132Y-132210191D01*
X190229759Y-132211432D01*
X190149976Y-132212422D01*
X190051643Y-132213260D01*
X189932622Y-132214046D01*
X189841832Y-132214582D01*
X189260227Y-132217953D01*
X189264059Y-132499363D01*
X189267891Y-132780773D01*
X189306079Y-132861375D01*
X189359939Y-132950504D01*
X189429285Y-133021570D01*
X189516341Y-133076795D01*
X189526602Y-133081766D01*
X189571355Y-133101393D01*
X189608988Y-133112869D01*
X189649568Y-133118275D01*
X189703162Y-133119690D01*
X189710210Y-133119691D01*
X189800185Y-133112602D01*
X189878426Y-133089770D01*
X189952046Y-133048481D01*
X190004347Y-133007396D01*
X190071482Y-132960310D01*
X190136361Y-132937122D01*
X190198626Y-132937854D01*
X190257920Y-132962526D01*
X190293846Y-132990612D01*
X190336976Y-133043916D01*
X190356714Y-133100422D01*
X190353545Y-133159158D01*
X190327952Y-133219148D01*
X190280417Y-133279420D01*
X190211424Y-133339000D01*
X190121456Y-133396914D01*
X190081558Y-133418442D01*
X189975454Y-133461374D01*
X189856584Y-133489338D01*
X189731768Y-133501641D01*
X189607826Y-133497592D01*
X189496596Y-133477834D01*
X189362375Y-133430663D01*
X189241263Y-133363572D01*
X189134573Y-133277812D01*
X189043619Y-133174634D01*
X188969712Y-133055291D01*
X188914904Y-132923294D01*
X188880105Y-132817128D01*
X188880105Y-132017319D01*
X188880105Y-131829485D01*
X189259910Y-131829485D01*
X189710210Y-131829485D01*
X190160510Y-131829485D01*
X190156478Y-131541675D01*
X190152447Y-131253865D01*
X190116974Y-131181419D01*
X190066945Y-131102002D01*
X190001086Y-131031260D01*
X189925886Y-130975684D01*
X189894842Y-130959246D01*
X189857270Y-130943215D01*
X189822849Y-130933427D01*
X189783310Y-130928423D01*
X189730381Y-130926744D01*
X189710210Y-130926670D01*
X189651522Y-130927623D01*
X189608759Y-130931453D01*
X189573649Y-130939620D01*
X189537922Y-130953583D01*
X189525578Y-130959246D01*
X189448467Y-131006992D01*
X189378118Y-131072483D01*
X189321020Y-131149230D01*
X189303446Y-131181419D01*
X189267973Y-131253865D01*
X189263941Y-131541675D01*
X189259910Y-131829485D01*
X188880105Y-131829485D01*
X188880105Y-131217510D01*
X188913120Y-131120563D01*
X188963471Y-130999171D01*
X189028373Y-130891920D01*
X189112277Y-130791671D01*
X189128531Y-130775032D01*
X189216368Y-130697614D01*
X189311125Y-130636543D01*
X189419367Y-130587939D01*
X189479962Y-130567297D01*
X189574414Y-130546529D01*
X189680729Y-130537497D01*
X189789562Y-130540201D01*
G37*
G36*
X195097387Y-130540201D02*
G01*
X195199396Y-130554642D01*
X195248282Y-130567297D01*
X195365631Y-130611166D01*
X195466242Y-130665580D01*
X195556684Y-130734421D01*
X195599714Y-130775032D01*
X195687216Y-130874769D01*
X195754904Y-130980197D01*
X195807160Y-131098355D01*
X195814942Y-131120563D01*
X195847776Y-131217510D01*
X195847958Y-131655888D01*
X195847959Y-131770673D01*
X195847769Y-131863731D01*
X195847257Y-131937573D01*
X195846290Y-131994707D01*
X195844738Y-132037643D01*
X195842466Y-132068892D01*
X195839345Y-132090964D01*
X195835241Y-132106367D01*
X195830023Y-132117613D01*
X195823559Y-132127210D01*
X195823154Y-132127754D01*
X195794304Y-132160115D01*
X195764715Y-132186227D01*
X195756334Y-132191978D01*
X195746513Y-132196789D01*
X195733113Y-132200759D01*
X195713997Y-132203985D01*
X195687024Y-132206567D01*
X195650057Y-132208603D01*
X195600956Y-132210191D01*
X195537584Y-132211432D01*
X195457800Y-132212422D01*
X195359467Y-132213260D01*
X195240446Y-132214046D01*
X195149656Y-132214582D01*
X194568051Y-132217953D01*
X194571883Y-132499363D01*
X194575716Y-132780773D01*
X194613903Y-132861375D01*
X194667763Y-132950504D01*
X194737109Y-133021570D01*
X194824166Y-133076795D01*
X194834427Y-133081766D01*
X194879179Y-133101393D01*
X194916812Y-133112869D01*
X194957392Y-133118275D01*
X195010987Y-133119690D01*
X195018034Y-133119691D01*
X195108009Y-133112602D01*
X195186250Y-133089770D01*
X195259871Y-133048481D01*
X195312171Y-133007396D01*
X195379306Y-132960310D01*
X195444185Y-132937122D01*
X195506451Y-132937854D01*
X195565744Y-132962526D01*
X195601671Y-132990612D01*
X195644800Y-133043916D01*
X195664539Y-133100422D01*
X195661370Y-133159158D01*
X195635776Y-133219148D01*
X195588242Y-133279420D01*
X195519249Y-133339000D01*
X195429281Y-133396914D01*
X195389382Y-133418442D01*
X195283278Y-133461374D01*
X195164408Y-133489338D01*
X195039592Y-133501641D01*
X194915650Y-133497592D01*
X194804421Y-133477834D01*
X194670200Y-133430663D01*
X194549088Y-133363572D01*
X194442398Y-133277812D01*
X194351443Y-133174634D01*
X194277536Y-133055291D01*
X194222728Y-132923294D01*
X194187929Y-132817128D01*
X194187929Y-132017319D01*
X194187929Y-131829485D01*
X194567734Y-131829485D01*
X195018034Y-131829485D01*
X195468335Y-131829485D01*
X195464303Y-131541675D01*
X195460271Y-131253865D01*
X195424798Y-131181419D01*
X195374770Y-131102002D01*
X195308911Y-131031260D01*
X195233710Y-130975684D01*
X195202666Y-130959246D01*
X195165094Y-130943215D01*
X195130674Y-130933427D01*
X195091134Y-130928423D01*
X195038205Y-130926744D01*
X195018034Y-130926670D01*
X194959347Y-130927623D01*
X194916584Y-130931453D01*
X194881474Y-130939620D01*
X194845746Y-130953583D01*
X194833402Y-130959246D01*
X194756291Y-131006992D01*
X194685942Y-131072483D01*
X194628845Y-131149230D01*
X194611270Y-131181419D01*
X194575798Y-131253865D01*
X194571766Y-131541675D01*
X194567734Y-131829485D01*
X194187929Y-131829485D01*
X194187929Y-131217510D01*
X194220945Y-131120563D01*
X194271296Y-130999171D01*
X194336198Y-130891920D01*
X194420102Y-130791671D01*
X194436355Y-130775032D01*
X194524192Y-130697614D01*
X194618949Y-130636543D01*
X194727191Y-130587939D01*
X194787786Y-130567297D01*
X194882239Y-130546529D01*
X194988553Y-130537497D01*
X195097387Y-130540201D01*
G37*
G36*
X192149158Y-130601108D02*
G01*
X192250179Y-130642085D01*
X192335146Y-130688428D01*
X192412241Y-130745233D01*
X192478331Y-130806188D01*
X192566347Y-130907270D01*
X192634769Y-131016956D01*
X192687452Y-131141455D01*
X192688597Y-131144800D01*
X192721613Y-131241747D01*
X192721613Y-132310295D01*
X192721605Y-132495560D01*
X192721557Y-132658125D01*
X192721436Y-132799528D01*
X192721205Y-132921306D01*
X192720831Y-133024997D01*
X192720278Y-133112137D01*
X192719511Y-133184265D01*
X192718497Y-133242916D01*
X192717198Y-133289629D01*
X192715582Y-133325941D01*
X192713613Y-133353389D01*
X192711256Y-133373511D01*
X192708476Y-133387842D01*
X192705238Y-133397922D01*
X192701509Y-133405287D01*
X192697252Y-133411475D01*
X192696627Y-133412314D01*
X192654874Y-133458489D01*
X192610244Y-133484805D01*
X192555110Y-133495169D01*
X192533779Y-133495754D01*
X192473627Y-133489714D01*
X192426440Y-133468989D01*
X192384588Y-133429670D01*
X192370930Y-133412328D01*
X192366561Y-133406074D01*
X192362721Y-133398728D01*
X192359369Y-133388741D01*
X192356457Y-133374560D01*
X192353943Y-133354633D01*
X192351782Y-133327410D01*
X192349929Y-133291339D01*
X192348340Y-133244869D01*
X192346970Y-133186448D01*
X192345775Y-133114524D01*
X192344711Y-133027547D01*
X192343733Y-132923965D01*
X192342797Y-132802227D01*
X192341858Y-132660781D01*
X192340871Y-132498075D01*
X192339885Y-132328487D01*
X192333826Y-131278101D01*
X192298313Y-131205656D01*
X192243336Y-131119665D01*
X192170499Y-131045823D01*
X192085189Y-130989515D01*
X192079077Y-130986461D01*
X192006632Y-130950989D01*
X191718993Y-130946959D01*
X191431355Y-130942929D01*
X191428154Y-132160894D01*
X191427625Y-132359469D01*
X191427124Y-132535241D01*
X191426618Y-132689646D01*
X191426075Y-132824118D01*
X191425463Y-132940091D01*
X191424750Y-133039000D01*
X191423902Y-133122279D01*
X191422888Y-133191362D01*
X191421675Y-133247684D01*
X191420232Y-133292680D01*
X191418525Y-133327783D01*
X191416523Y-133354429D01*
X191414193Y-133374052D01*
X191411503Y-133388086D01*
X191408420Y-133397965D01*
X191404913Y-133405125D01*
X191400948Y-133410999D01*
X191399967Y-133412321D01*
X191371895Y-133444026D01*
X191343308Y-133469431D01*
X191302652Y-133488180D01*
X191250154Y-133497306D01*
X191196592Y-133495881D01*
X191157748Y-133485439D01*
X191113953Y-133455818D01*
X191076542Y-133413296D01*
X191052748Y-133366704D01*
X191049301Y-133353007D01*
X191048391Y-133335825D01*
X191047579Y-133296024D01*
X191046869Y-133235224D01*
X191046264Y-133155042D01*
X191045771Y-133057097D01*
X191045391Y-132943008D01*
X191045131Y-132814392D01*
X191044993Y-132672868D01*
X191044982Y-132520055D01*
X191045103Y-132357570D01*
X191045359Y-132187033D01*
X191045755Y-132010061D01*
X191045790Y-131996998D01*
X191046345Y-131790052D01*
X191046867Y-131605966D01*
X191047386Y-131443364D01*
X191047931Y-131300868D01*
X191048531Y-131177102D01*
X191049215Y-131070690D01*
X191050012Y-130980254D01*
X191050950Y-130904418D01*
X191052059Y-130841806D01*
X191053369Y-130791041D01*
X191054907Y-130750746D01*
X191056703Y-130719545D01*
X191058787Y-130696060D01*
X191061186Y-130678916D01*
X191063931Y-130666736D01*
X191067050Y-130658143D01*
X191070572Y-130651760D01*
X191074270Y-130646554D01*
X191103130Y-130614214D01*
X191132751Y-130588106D01*
X191142337Y-130581567D01*
X191153438Y-130576281D01*
X191168566Y-130572113D01*
X191190228Y-130568932D01*
X191220936Y-130566605D01*
X191263200Y-130564999D01*
X191319528Y-130563980D01*
X191392432Y-130563416D01*
X191484420Y-130563174D01*
X191598004Y-130563121D01*
X191604616Y-130563121D01*
X192042987Y-130563121D01*
X192149158Y-130601108D01*
G37*
G36*
X198834864Y-129248263D02*
G01*
X198882051Y-129268988D01*
X198923903Y-129308305D01*
X198937562Y-129325649D01*
X198943241Y-129333914D01*
X198948003Y-129343596D01*
X198951944Y-129356802D01*
X198955158Y-129375637D01*
X198957739Y-129402207D01*
X198959783Y-129438619D01*
X198961383Y-129486978D01*
X198962635Y-129549391D01*
X198963632Y-129627964D01*
X198964469Y-129724802D01*
X198965242Y-129842012D01*
X198965905Y-129957016D01*
X198969263Y-130554929D01*
X199274923Y-130559753D01*
X199369783Y-130561358D01*
X199444152Y-130563047D01*
X199501772Y-130565165D01*
X199546388Y-130568056D01*
X199581743Y-130572067D01*
X199611581Y-130577541D01*
X199639645Y-130584825D01*
X199669679Y-130594263D01*
X199677529Y-130596864D01*
X199803757Y-130649087D01*
X199915205Y-130717820D01*
X200016656Y-130805673D01*
X200104225Y-130906757D01*
X200172650Y-131017213D01*
X200225535Y-131142876D01*
X200226193Y-131144800D01*
X200259208Y-131241747D01*
X200259208Y-132310295D01*
X200259200Y-132495560D01*
X200259153Y-132658125D01*
X200259031Y-132799528D01*
X200258801Y-132921306D01*
X200258426Y-133024997D01*
X200257873Y-133112137D01*
X200257107Y-133184265D01*
X200256092Y-133242916D01*
X200254794Y-133289629D01*
X200253177Y-133325941D01*
X200251208Y-133353389D01*
X200248851Y-133373511D01*
X200246071Y-133387842D01*
X200242834Y-133397922D01*
X200239104Y-133405287D01*
X200234847Y-133411475D01*
X200234223Y-133412314D01*
X200192470Y-133458489D01*
X200147839Y-133484805D01*
X200092705Y-133495169D01*
X200071374Y-133495754D01*
X200011223Y-133489714D01*
X199964035Y-133468989D01*
X199922183Y-133429670D01*
X199908525Y-133412328D01*
X199904156Y-133406074D01*
X199900317Y-133398728D01*
X199896964Y-133388741D01*
X199894053Y-133374560D01*
X199891539Y-133354633D01*
X199889377Y-133327410D01*
X199887524Y-133291339D01*
X199885935Y-133244869D01*
X199884565Y-133186448D01*
X199883371Y-133114524D01*
X199882306Y-133027547D01*
X199881328Y-132923965D01*
X199880392Y-132802227D01*
X199879453Y-132660781D01*
X199878467Y-132498075D01*
X199877481Y-132328487D01*
X199871422Y-131278101D01*
X199835908Y-131205656D01*
X199780931Y-131119665D01*
X199708094Y-131045823D01*
X199622785Y-130989515D01*
X199616673Y-130986461D01*
X199544227Y-130950989D01*
X199256589Y-130946959D01*
X198968950Y-130942929D01*
X198965749Y-132160894D01*
X198965220Y-132359469D01*
X198964719Y-132535241D01*
X198964214Y-132689646D01*
X198963671Y-132824118D01*
X198963059Y-132940091D01*
X198962345Y-133039000D01*
X198961497Y-133122279D01*
X198960483Y-133191362D01*
X198959271Y-133247684D01*
X198957827Y-133292680D01*
X198956120Y-133327783D01*
X198954118Y-133354429D01*
X198951788Y-133374052D01*
X198949098Y-133388086D01*
X198946016Y-133397965D01*
X198942508Y-133405125D01*
X198938544Y-133410999D01*
X198937562Y-133412321D01*
X198909491Y-133444026D01*
X198880903Y-133469431D01*
X198840248Y-133488180D01*
X198787749Y-133497306D01*
X198734187Y-133495881D01*
X198695344Y-133485439D01*
X198651557Y-133455827D01*
X198614159Y-133413323D01*
X198590377Y-133366752D01*
X198586923Y-133353007D01*
X198586177Y-133336758D01*
X198585495Y-133297576D01*
X198584879Y-133236765D01*
X198584331Y-133155628D01*
X198583855Y-133055469D01*
X198583451Y-132937593D01*
X198583123Y-132803302D01*
X198582873Y-132653901D01*
X198582703Y-132490693D01*
X198582615Y-132314982D01*
X198582611Y-132128071D01*
X198582694Y-131931264D01*
X198582866Y-131725866D01*
X198583130Y-131513179D01*
X198583412Y-131336551D01*
X198583863Y-131080360D01*
X198584289Y-130847291D01*
X198584703Y-130636231D01*
X198585123Y-130446066D01*
X198585563Y-130275681D01*
X198586041Y-130123963D01*
X198586570Y-129989798D01*
X198587167Y-129872071D01*
X198587849Y-129769669D01*
X198588630Y-129681478D01*
X198589526Y-129606384D01*
X198590554Y-129543272D01*
X198591729Y-129491029D01*
X198593066Y-129448541D01*
X198594581Y-129414694D01*
X198596291Y-129388374D01*
X198598211Y-129368466D01*
X198600357Y-129353858D01*
X198602744Y-129343434D01*
X198605388Y-129336081D01*
X198608306Y-129330685D01*
X198611512Y-129326132D01*
X198611865Y-129325658D01*
X198653620Y-129279486D01*
X198698249Y-129253172D01*
X198753379Y-129242809D01*
X198774714Y-129242224D01*
X198834864Y-129248263D01*
G37*
G36*
X203609924Y-130539524D02*
G01*
X203673879Y-130540442D01*
X203721639Y-130543382D01*
X203761231Y-130549653D01*
X203800686Y-130560564D01*
X203848033Y-130577422D01*
X203852290Y-130579025D01*
X203971959Y-130634692D01*
X204080146Y-130706020D01*
X204173143Y-130790039D01*
X204247242Y-130883781D01*
X204261323Y-130906578D01*
X204288183Y-130972277D01*
X204293333Y-131036957D01*
X204277747Y-131096721D01*
X204242401Y-131147676D01*
X204191788Y-131184185D01*
X204124946Y-131206343D01*
X204060536Y-131205630D01*
X204001992Y-131183011D01*
X203952749Y-131139452D01*
X203933554Y-131111609D01*
X203877319Y-131035964D01*
X203808749Y-130980659D01*
X203726860Y-130945154D01*
X203630669Y-130928911D01*
X203597805Y-130927703D01*
X203515141Y-130932140D01*
X203447490Y-130949087D01*
X203387639Y-130981387D01*
X203328375Y-131031889D01*
X203324824Y-131035416D01*
X203267794Y-131107812D01*
X203230141Y-131189013D01*
X203212099Y-131274968D01*
X203213901Y-131361625D01*
X203235779Y-131444932D01*
X203277964Y-131520836D01*
X203295708Y-131542807D01*
X203319191Y-131564991D01*
X203360389Y-131598916D01*
X203416920Y-131642781D01*
X203486404Y-131694780D01*
X203566455Y-131753111D01*
X203654694Y-131815970D01*
X203680700Y-131834246D01*
X203763818Y-131893056D01*
X203843327Y-131950384D01*
X203916299Y-132004038D01*
X203979805Y-132051828D01*
X204030917Y-132091560D01*
X204066707Y-132121042D01*
X204079422Y-132132714D01*
X204163237Y-132230018D01*
X204227908Y-132336571D01*
X204269351Y-132434866D01*
X204284543Y-132479474D01*
X204294889Y-132516869D01*
X204301321Y-132553767D01*
X204304772Y-132596885D01*
X204306174Y-132652939D01*
X204306432Y-132702004D01*
X204303355Y-132807229D01*
X204292540Y-132895498D01*
X204272241Y-132973343D01*
X204240712Y-133047292D01*
X204196208Y-133123875D01*
X204191781Y-133130698D01*
X204107717Y-133238615D01*
X204008931Y-133329566D01*
X203898151Y-133402467D01*
X203778100Y-133456231D01*
X203651505Y-133489772D01*
X203521091Y-133502003D01*
X203389582Y-133491839D01*
X203321865Y-133477394D01*
X203199443Y-133434139D01*
X203084130Y-133371695D01*
X202980391Y-133293189D01*
X202892689Y-133201748D01*
X202855073Y-133150382D01*
X202818033Y-133078633D01*
X202802328Y-133010394D01*
X202807257Y-132948214D01*
X202832120Y-132894640D01*
X202876218Y-132852221D01*
X202938850Y-132823504D01*
X202945396Y-132821672D01*
X203012512Y-132813784D01*
X203071327Y-132828585D01*
X203123002Y-132866457D01*
X203139970Y-132885674D01*
X203192247Y-132948882D01*
X203235455Y-132995801D01*
X203273842Y-133030389D01*
X203311656Y-133056608D01*
X203339800Y-133071972D01*
X203378040Y-133089536D01*
X203412049Y-133100140D01*
X203450543Y-133105512D01*
X203502240Y-133107379D01*
X203519036Y-133107504D01*
X203575008Y-133106824D01*
X203615296Y-133103120D01*
X203648414Y-133094751D01*
X203682875Y-133080074D01*
X203696633Y-133073242D01*
X203775680Y-133021531D01*
X203843569Y-132954258D01*
X203890657Y-132883779D01*
X203903875Y-132854998D01*
X203912268Y-132825823D01*
X203916871Y-132789596D01*
X203918721Y-132739658D01*
X203918941Y-132702004D01*
X203918438Y-132643331D01*
X203916073Y-132602009D01*
X203910557Y-132571159D01*
X203900603Y-132543901D01*
X203884923Y-132513356D01*
X203882972Y-132509822D01*
X203870672Y-132488304D01*
X203858006Y-132468797D01*
X203843007Y-132449687D01*
X203823708Y-132429359D01*
X203798140Y-132406199D01*
X203764338Y-132378592D01*
X203720332Y-132344924D01*
X203664155Y-132303580D01*
X203593841Y-132252946D01*
X203507421Y-132191408D01*
X203415685Y-132126384D01*
X203318091Y-132056563D01*
X203230611Y-131992566D01*
X203155216Y-131935902D01*
X203093877Y-131888079D01*
X203048565Y-131850605D01*
X203021251Y-131824989D01*
X203019840Y-131823426D01*
X202945757Y-131723023D01*
X202886121Y-131607151D01*
X202856719Y-131526527D01*
X202836402Y-131434230D01*
X202827360Y-131331315D01*
X202829626Y-131226838D01*
X202843230Y-131129856D01*
X202855169Y-131084208D01*
X202906363Y-130961805D01*
X202977896Y-130849792D01*
X203067166Y-130750734D01*
X203171575Y-130667194D01*
X203288523Y-130601735D01*
X203379676Y-130567039D01*
X203429104Y-130553440D01*
X203476420Y-130544981D01*
X203529966Y-130540663D01*
X203598086Y-130539491D01*
X203609924Y-130539524D01*
G37*
G36*
X202430300Y-130556672D02*
G01*
X202481428Y-130589272D01*
X202519637Y-130635975D01*
X202540714Y-130693608D01*
X202543511Y-130725273D01*
X202540110Y-130739859D01*
X202530211Y-130776113D01*
X202514274Y-130832485D01*
X202492759Y-130907427D01*
X202466124Y-130999389D01*
X202434830Y-131106822D01*
X202399336Y-131228176D01*
X202360100Y-131361903D01*
X202317583Y-131506454D01*
X202272243Y-131660279D01*
X202224541Y-131821829D01*
X202174935Y-131989555D01*
X202123884Y-132161908D01*
X202071849Y-132337339D01*
X202019288Y-132514298D01*
X201966662Y-132691237D01*
X201914428Y-132866605D01*
X201863047Y-133038855D01*
X201812978Y-133206436D01*
X201764680Y-133367800D01*
X201718613Y-133521397D01*
X201675236Y-133665679D01*
X201635009Y-133799096D01*
X201598390Y-133920099D01*
X201565839Y-134027139D01*
X201537816Y-134118666D01*
X201524367Y-134162262D01*
X201487143Y-134269892D01*
X201446728Y-134359274D01*
X201399723Y-134436391D01*
X201342729Y-134507232D01*
X201307602Y-134543989D01*
X201196614Y-134638708D01*
X201076017Y-134711712D01*
X200947033Y-134762436D01*
X200810887Y-134790311D01*
X200768177Y-134794176D01*
X200716292Y-134796545D01*
X200680044Y-134794767D01*
X200651012Y-134787611D01*
X200620771Y-134773848D01*
X200617595Y-134772186D01*
X200564873Y-134732102D01*
X200532043Y-134678406D01*
X200519818Y-134612307D01*
X200519752Y-134606601D01*
X200527824Y-134540555D01*
X200552907Y-134488898D01*
X200596297Y-134450471D01*
X200659293Y-134424116D01*
X200741366Y-134408879D01*
X200850763Y-134386736D01*
X200943984Y-134346568D01*
X201021111Y-134288322D01*
X201082228Y-134211945D01*
X201098037Y-134184390D01*
X201112275Y-134152317D01*
X201131144Y-134102170D01*
X201153664Y-134037237D01*
X201178856Y-133960810D01*
X201205740Y-133876178D01*
X201233336Y-133786631D01*
X201260665Y-133695459D01*
X201286748Y-133605952D01*
X201310604Y-133521401D01*
X201331254Y-133445095D01*
X201347719Y-133380325D01*
X201359018Y-133330379D01*
X201364174Y-133298550D01*
X201364162Y-133290577D01*
X201359866Y-133274024D01*
X201349067Y-133235852D01*
X201332235Y-133177652D01*
X201309842Y-133101017D01*
X201282357Y-133007538D01*
X201250252Y-132898807D01*
X201213998Y-132776418D01*
X201174064Y-132641961D01*
X201130922Y-132497028D01*
X201085043Y-132343213D01*
X201036897Y-132182106D01*
X200998452Y-132053674D01*
X200948664Y-131887389D01*
X200900608Y-131726738D01*
X200854771Y-131573357D01*
X200811640Y-131428883D01*
X200771702Y-131294951D01*
X200735444Y-131173198D01*
X200703353Y-131065261D01*
X200675916Y-130972775D01*
X200653621Y-130897378D01*
X200636953Y-130840704D01*
X200626401Y-130804392D01*
X200622806Y-130791555D01*
X200613826Y-130719357D01*
X200627148Y-130656349D01*
X200662936Y-130601851D01*
X200670905Y-130593732D01*
X200722729Y-130558446D01*
X200781385Y-130542398D01*
X200841455Y-130544801D01*
X200897522Y-130564868D01*
X200944168Y-130601810D01*
X200968130Y-130636928D01*
X200974300Y-130653806D01*
X200986798Y-130692147D01*
X201005082Y-130750171D01*
X201028610Y-130826100D01*
X201056839Y-130918153D01*
X201089227Y-131024551D01*
X201125231Y-131143515D01*
X201164310Y-131273265D01*
X201205920Y-131412023D01*
X201249520Y-131558007D01*
X201277147Y-131650809D01*
X201321382Y-131799345D01*
X201363711Y-131941022D01*
X201403619Y-132074144D01*
X201440591Y-132197016D01*
X201474113Y-132307942D01*
X201503670Y-132405226D01*
X201528747Y-132487172D01*
X201548829Y-132552084D01*
X201563403Y-132598267D01*
X201571953Y-132624026D01*
X201574046Y-132629014D01*
X201578398Y-132617704D01*
X201589170Y-132584919D01*
X201605824Y-132532400D01*
X201627825Y-132461890D01*
X201654638Y-132375131D01*
X201685726Y-132273864D01*
X201720554Y-132159832D01*
X201758586Y-132034776D01*
X201799287Y-131900438D01*
X201842119Y-131758561D01*
X201858203Y-131705159D01*
X201902276Y-131558751D01*
X201944771Y-131417602D01*
X201985106Y-131283648D01*
X202022698Y-131158824D01*
X202056963Y-131045067D01*
X202087318Y-130944312D01*
X202113181Y-130858495D01*
X202133968Y-130789550D01*
X202149096Y-130739415D01*
X202157982Y-130710023D01*
X202159247Y-130705858D01*
X202189911Y-130634290D01*
X202232481Y-130583326D01*
X202287881Y-130551962D01*
X202306140Y-130546475D01*
X202370466Y-130541348D01*
X202430300Y-130556672D01*
G37*
G36*
X187822917Y-130601108D02*
G01*
X187923939Y-130642085D01*
X188008906Y-130688428D01*
X188086001Y-130745233D01*
X188152090Y-130806188D01*
X188240107Y-130907270D01*
X188308528Y-131016956D01*
X188361212Y-131141455D01*
X188362357Y-131144800D01*
X188395372Y-131241747D01*
X188395372Y-132017319D01*
X188395372Y-132792892D01*
X188362357Y-132889838D01*
X188310016Y-133014785D01*
X188242034Y-133124765D01*
X188154553Y-133225986D01*
X188152090Y-133228450D01*
X188074445Y-133298936D01*
X187996000Y-133354216D01*
X187908479Y-133399432D01*
X187822917Y-133433039D01*
X187789863Y-133444551D01*
X187761441Y-133453474D01*
X187733895Y-133460193D01*
X187703470Y-133465093D01*
X187666409Y-133468560D01*
X187618956Y-133470979D01*
X187557355Y-133472734D01*
X187477851Y-133474211D01*
X187411086Y-133475262D01*
X187105427Y-133479987D01*
X187102069Y-134077761D01*
X187101279Y-134213578D01*
X187100502Y-134327266D01*
X187099644Y-134420929D01*
X187098612Y-134496675D01*
X187097309Y-134556610D01*
X187095641Y-134602840D01*
X187093515Y-134637472D01*
X187090835Y-134662611D01*
X187087506Y-134680365D01*
X187083435Y-134692840D01*
X187078526Y-134702141D01*
X187073726Y-134708989D01*
X187045652Y-134740692D01*
X187017067Y-134766092D01*
X186976412Y-134784840D01*
X186923913Y-134793966D01*
X186870352Y-134792541D01*
X186831508Y-134782099D01*
X186787721Y-134752487D01*
X186750323Y-134709983D01*
X186726541Y-134663412D01*
X186723087Y-134649667D01*
X186722339Y-134633405D01*
X186721654Y-134594215D01*
X186721037Y-134533404D01*
X186720489Y-134452279D01*
X186720012Y-134352151D01*
X186719608Y-134234325D01*
X186719281Y-134100110D01*
X186719032Y-133950814D01*
X186718863Y-133787745D01*
X186718777Y-133612211D01*
X186718776Y-133425520D01*
X186718863Y-133228979D01*
X186719039Y-133023897D01*
X186719307Y-132811582D01*
X186719575Y-132645329D01*
X186720029Y-132389960D01*
X186720455Y-132157710D01*
X186720733Y-132017319D01*
X187104771Y-132017319D01*
X187104771Y-133089790D01*
X187364235Y-133089790D01*
X187455010Y-133089486D01*
X187525518Y-133088395D01*
X187579724Y-133086249D01*
X187621593Y-133082780D01*
X187655089Y-133077720D01*
X187684177Y-133070802D01*
X187695662Y-133067393D01*
X187791140Y-133026301D01*
X187871679Y-132966722D01*
X187938264Y-132887776D01*
X187981677Y-132811069D01*
X187987011Y-132799388D01*
X187991558Y-132787262D01*
X187995380Y-132772765D01*
X187998541Y-132753971D01*
X188001103Y-132728953D01*
X188003129Y-132695786D01*
X188004681Y-132652543D01*
X188005824Y-132597299D01*
X188006619Y-132528127D01*
X188007130Y-132443102D01*
X188007419Y-132340297D01*
X188007550Y-132217787D01*
X188007585Y-132073645D01*
X188007586Y-132017319D01*
X188007570Y-131865093D01*
X188007480Y-131735177D01*
X188007254Y-131625646D01*
X188006829Y-131534573D01*
X188006141Y-131460033D01*
X188005128Y-131400100D01*
X188003727Y-131352846D01*
X188001875Y-131316347D01*
X187999509Y-131288677D01*
X187996567Y-131267908D01*
X187992985Y-131252116D01*
X187988700Y-131239374D01*
X187983651Y-131227756D01*
X187981677Y-131223569D01*
X187925429Y-131128686D01*
X187856004Y-131053868D01*
X187772418Y-130998233D01*
X187695662Y-130967245D01*
X187667232Y-130959493D01*
X187636008Y-130953710D01*
X187598025Y-130949626D01*
X187549317Y-130946974D01*
X187485921Y-130945486D01*
X187403871Y-130944894D01*
X187364235Y-130944848D01*
X187104771Y-130944848D01*
X187104771Y-132017319D01*
X186720733Y-132017319D01*
X186720871Y-131947462D01*
X186721292Y-131758097D01*
X186721735Y-131588499D01*
X186722214Y-131437550D01*
X186722747Y-131304132D01*
X186723348Y-131187128D01*
X186724034Y-131085421D01*
X186724821Y-130997892D01*
X186725464Y-130944848D01*
X186725724Y-130923425D01*
X186726760Y-130860902D01*
X186727945Y-130809204D01*
X186729293Y-130767216D01*
X186730822Y-130733818D01*
X186732548Y-130707894D01*
X186734485Y-130688327D01*
X186736650Y-130673998D01*
X186739059Y-130663790D01*
X186741728Y-130656585D01*
X186744673Y-130651267D01*
X186747909Y-130646717D01*
X186748029Y-130646555D01*
X186776890Y-130614214D01*
X186806510Y-130588106D01*
X186816096Y-130581567D01*
X186827198Y-130576281D01*
X186842325Y-130572113D01*
X186863988Y-130568932D01*
X186894696Y-130566605D01*
X186936959Y-130564999D01*
X186993288Y-130563980D01*
X187066191Y-130563416D01*
X187158180Y-130563174D01*
X187271763Y-130563121D01*
X187278376Y-130563121D01*
X187716746Y-130563121D01*
X187822917Y-130601108D01*
G37*
G36*
X197469101Y-130601108D02*
G01*
X197570122Y-130642085D01*
X197655089Y-130688428D01*
X197732184Y-130745233D01*
X197798273Y-130806188D01*
X197886290Y-130907270D01*
X197954712Y-131016956D01*
X198007395Y-131141455D01*
X198008540Y-131144800D01*
X198041555Y-131241747D01*
X198041555Y-132017319D01*
X198041555Y-132792892D01*
X198008540Y-132889838D01*
X197956200Y-133014785D01*
X197888217Y-133124765D01*
X197800736Y-133225986D01*
X197798273Y-133228450D01*
X197720628Y-133298936D01*
X197642183Y-133354216D01*
X197554662Y-133399432D01*
X197469101Y-133433039D01*
X197436046Y-133444551D01*
X197407624Y-133453474D01*
X197380079Y-133460193D01*
X197349653Y-133465093D01*
X197312592Y-133468560D01*
X197265139Y-133470979D01*
X197203538Y-133472734D01*
X197124034Y-133474211D01*
X197057270Y-133475262D01*
X196751610Y-133479987D01*
X196748253Y-134077761D01*
X196747462Y-134213578D01*
X196746685Y-134327266D01*
X196745828Y-134420929D01*
X196744795Y-134496675D01*
X196743492Y-134556610D01*
X196741824Y-134602840D01*
X196739698Y-134637472D01*
X196737018Y-134662611D01*
X196733689Y-134680365D01*
X196729618Y-134692840D01*
X196724709Y-134702141D01*
X196719910Y-134708989D01*
X196691835Y-134740692D01*
X196663250Y-134766092D01*
X196622595Y-134784840D01*
X196570096Y-134793966D01*
X196516535Y-134792541D01*
X196477691Y-134782099D01*
X196433904Y-134752487D01*
X196396506Y-134709983D01*
X196372724Y-134663412D01*
X196369270Y-134649667D01*
X196368522Y-134633405D01*
X196367838Y-134594215D01*
X196367220Y-134533404D01*
X196366672Y-134452279D01*
X196366195Y-134352151D01*
X196365791Y-134234325D01*
X196365464Y-134100110D01*
X196365215Y-133950814D01*
X196365046Y-133787745D01*
X196364960Y-133612211D01*
X196364959Y-133425520D01*
X196365046Y-133228979D01*
X196365222Y-133023897D01*
X196365490Y-132811582D01*
X196365759Y-132645329D01*
X196366212Y-132389960D01*
X196366638Y-132157710D01*
X196366916Y-132017319D01*
X196750954Y-132017319D01*
X196750954Y-133089790D01*
X197010418Y-133089790D01*
X197101193Y-133089486D01*
X197171701Y-133088395D01*
X197225907Y-133086249D01*
X197267776Y-133082780D01*
X197301272Y-133077720D01*
X197330360Y-133070802D01*
X197341845Y-133067393D01*
X197437323Y-133026301D01*
X197517862Y-132966722D01*
X197584447Y-132887776D01*
X197627860Y-132811069D01*
X197633194Y-132799388D01*
X197637741Y-132787262D01*
X197641563Y-132772765D01*
X197644724Y-132753971D01*
X197647286Y-132728953D01*
X197649312Y-132695786D01*
X197650865Y-132652543D01*
X197652007Y-132597299D01*
X197652803Y-132528127D01*
X197653313Y-132443102D01*
X197653603Y-132340297D01*
X197653733Y-132217787D01*
X197653768Y-132073645D01*
X197653769Y-132017319D01*
X197653753Y-131865093D01*
X197653664Y-131735177D01*
X197653437Y-131625646D01*
X197653012Y-131534573D01*
X197652324Y-131460033D01*
X197651311Y-131400100D01*
X197649910Y-131352846D01*
X197648058Y-131316347D01*
X197645692Y-131288677D01*
X197642750Y-131267908D01*
X197639168Y-131252116D01*
X197634884Y-131239374D01*
X197629834Y-131227756D01*
X197627860Y-131223569D01*
X197571613Y-131128686D01*
X197502187Y-131053868D01*
X197418601Y-130998233D01*
X197341845Y-130967245D01*
X197313416Y-130959493D01*
X197282192Y-130953710D01*
X197244208Y-130949626D01*
X197195500Y-130946974D01*
X197132104Y-130945486D01*
X197050054Y-130944894D01*
X197010418Y-130944848D01*
X196750954Y-130944848D01*
X196750954Y-132017319D01*
X196366916Y-132017319D01*
X196367054Y-131947462D01*
X196367476Y-131758097D01*
X196367918Y-131588499D01*
X196368397Y-131437550D01*
X196368930Y-131304132D01*
X196369531Y-131187128D01*
X196370217Y-131085421D01*
X196371004Y-130997892D01*
X196371647Y-130944848D01*
X196371907Y-130923425D01*
X196372943Y-130860902D01*
X196374128Y-130809204D01*
X196375477Y-130767216D01*
X196377006Y-130733818D01*
X196378731Y-130707894D01*
X196380668Y-130688327D01*
X196382833Y-130673998D01*
X196385242Y-130663790D01*
X196387911Y-130656585D01*
X196390856Y-130651267D01*
X196394092Y-130646717D01*
X196394212Y-130646555D01*
X196423073Y-130614214D01*
X196452693Y-130588106D01*
X196462279Y-130581567D01*
X196473381Y-130576281D01*
X196488508Y-130572113D01*
X196510171Y-130568932D01*
X196540879Y-130566605D01*
X196583143Y-130564999D01*
X196639471Y-130563980D01*
X196712375Y-130563416D01*
X196804363Y-130563174D01*
X196917946Y-130563121D01*
X196924559Y-130563121D01*
X197362929Y-130563121D01*
X197469101Y-130601108D01*
G37*
G36*
X194878670Y-122011175D02*
G01*
X194960789Y-122040560D01*
X194971954Y-122046413D01*
X195026138Y-122083436D01*
X195068853Y-122131320D01*
X195104327Y-122195423D01*
X195120437Y-122234614D01*
X195127567Y-122252667D01*
X195143295Y-122291927D01*
X195167113Y-122351141D01*
X195198513Y-122429055D01*
X195236988Y-122524415D01*
X195282030Y-122635967D01*
X195333132Y-122762458D01*
X195389784Y-122902633D01*
X195451481Y-123055239D01*
X195517714Y-123219022D01*
X195587975Y-123392729D01*
X195661757Y-123575104D01*
X195738552Y-123764896D01*
X195817853Y-123960849D01*
X195899151Y-124161711D01*
X195981939Y-124366226D01*
X196065710Y-124573142D01*
X196149955Y-124781205D01*
X196234168Y-124989161D01*
X196317839Y-125195756D01*
X196400463Y-125399736D01*
X196481530Y-125599848D01*
X196560533Y-125794837D01*
X196636965Y-125983450D01*
X196710318Y-126164433D01*
X196780084Y-126336533D01*
X196845755Y-126498495D01*
X196906824Y-126649066D01*
X196962783Y-126786991D01*
X197013125Y-126911018D01*
X197057341Y-127019892D01*
X197094925Y-127112360D01*
X197125367Y-127187167D01*
X197148162Y-127243060D01*
X197162800Y-127278786D01*
X197167944Y-127291174D01*
X197193334Y-127373947D01*
X197196526Y-127454033D01*
X197177752Y-127537932D01*
X197176799Y-127540732D01*
X197170889Y-127559668D01*
X197158808Y-127599845D01*
X197141151Y-127659230D01*
X197118510Y-127735791D01*
X197091481Y-127827495D01*
X197060656Y-127932310D01*
X197026630Y-128048203D01*
X196989997Y-128173141D01*
X196951349Y-128305092D01*
X196911282Y-128442023D01*
X196870388Y-128581902D01*
X196829263Y-128722696D01*
X196788498Y-128862373D01*
X196748689Y-128998899D01*
X196710430Y-129130243D01*
X196674313Y-129254371D01*
X196640933Y-129369252D01*
X196610883Y-129472852D01*
X196584758Y-129563139D01*
X196563152Y-129638080D01*
X196546657Y-129695643D01*
X196535869Y-129733796D01*
X196532465Y-129746208D01*
X196502836Y-129813004D01*
X196454641Y-129870241D01*
X196392533Y-129915309D01*
X196321167Y-129945596D01*
X196245195Y-129958493D01*
X196169271Y-129951390D01*
X196167470Y-129950948D01*
X196126614Y-129937666D01*
X196083247Y-129919247D01*
X196076582Y-129915928D01*
X196061782Y-129909428D01*
X196025448Y-129894019D01*
X195968442Y-129870058D01*
X195891624Y-129837902D01*
X195795857Y-129797911D01*
X195682001Y-129750441D01*
X195550918Y-129695850D01*
X195403469Y-129634497D01*
X195240515Y-129566738D01*
X195062917Y-129492932D01*
X194871537Y-129413436D01*
X194667236Y-129328609D01*
X194450875Y-129238807D01*
X194223315Y-129144390D01*
X193985418Y-129045714D01*
X193738045Y-128943137D01*
X193482057Y-128837017D01*
X193218316Y-128727713D01*
X192947682Y-128615581D01*
X192671017Y-128500979D01*
X192515601Y-128436615D01*
X192236004Y-128320828D01*
X191961973Y-128207341D01*
X191694368Y-128096510D01*
X191434048Y-127988693D01*
X191181876Y-127884246D01*
X190938711Y-127783524D01*
X190705414Y-127686886D01*
X190482845Y-127594687D01*
X190271865Y-127507283D01*
X190073334Y-127425032D01*
X189888113Y-127348290D01*
X189717063Y-127277413D01*
X189561043Y-127212758D01*
X189484893Y-127181198D01*
X191070419Y-127181198D01*
X191081044Y-127186088D01*
X191112748Y-127199691D01*
X191164213Y-127221459D01*
X191234121Y-127250847D01*
X191321152Y-127287306D01*
X191423989Y-127330291D01*
X191541313Y-127379253D01*
X191671805Y-127433648D01*
X191814147Y-127492927D01*
X191967020Y-127556544D01*
X192129106Y-127623952D01*
X192299085Y-127694604D01*
X192475640Y-127767954D01*
X192657452Y-127843454D01*
X192843202Y-127920559D01*
X193031571Y-127998720D01*
X193221242Y-128077391D01*
X193410896Y-128156026D01*
X193599213Y-128234077D01*
X193784876Y-128310998D01*
X193966566Y-128386242D01*
X194142964Y-128459262D01*
X194312751Y-128529512D01*
X194474610Y-128596443D01*
X194627222Y-128659511D01*
X194769267Y-128718167D01*
X194899428Y-128771865D01*
X195016386Y-128820058D01*
X195118822Y-128862200D01*
X195205418Y-128897743D01*
X195274855Y-128926141D01*
X195325815Y-128946847D01*
X195356978Y-128959314D01*
X195367043Y-128963033D01*
X195360729Y-128953008D01*
X195341318Y-128924859D01*
X195309900Y-128880113D01*
X195267561Y-128820300D01*
X195215392Y-128746947D01*
X195154480Y-128661581D01*
X195085915Y-128565730D01*
X195010785Y-128460923D01*
X194930178Y-128348686D01*
X194845184Y-128230549D01*
X194840840Y-128224516D01*
X194755323Y-128105946D01*
X194673741Y-127993178D01*
X194597220Y-127887750D01*
X194526888Y-127791200D01*
X194463873Y-127705065D01*
X194409303Y-127630882D01*
X194364306Y-127570189D01*
X194361607Y-127566596D01*
X195120300Y-127566596D01*
X195125764Y-127577458D01*
X195143999Y-127605803D01*
X195173531Y-127649503D01*
X195212885Y-127706433D01*
X195260588Y-127774465D01*
X195315165Y-127851473D01*
X195375144Y-127935331D01*
X195394794Y-127962649D01*
X195456374Y-128047926D01*
X195513473Y-128126573D01*
X195564566Y-128196522D01*
X195608128Y-128255702D01*
X195642633Y-128302046D01*
X195666555Y-128333482D01*
X195678369Y-128347943D01*
X195679341Y-128348649D01*
X195678056Y-128336273D01*
X195672614Y-128303020D01*
X195663542Y-128251790D01*
X195651371Y-128185486D01*
X195636627Y-128107010D01*
X195619840Y-128019263D01*
X195611679Y-127977113D01*
X195593848Y-127885997D01*
X195577318Y-127802778D01*
X195562690Y-127730375D01*
X195550562Y-127671707D01*
X195549269Y-127665689D01*
X196172447Y-127665689D01*
X196172893Y-127678731D01*
X196177481Y-127711722D01*
X196185517Y-127761025D01*
X196196309Y-127823005D01*
X196209164Y-127894028D01*
X196223388Y-127970458D01*
X196238288Y-128048659D01*
X196253172Y-128124997D01*
X196267347Y-128195835D01*
X196280118Y-128257540D01*
X196290793Y-128306474D01*
X196298680Y-128339004D01*
X196303084Y-128351494D01*
X196303207Y-128351527D01*
X196308400Y-128340369D01*
X196319303Y-128308880D01*
X196334981Y-128260036D01*
X196354502Y-128196816D01*
X196376932Y-128122196D01*
X196401337Y-128039154D01*
X196403579Y-128031438D01*
X196427923Y-127947155D01*
X196449883Y-127870361D01*
X196468588Y-127804166D01*
X196483165Y-127751682D01*
X196492744Y-127716018D01*
X196496452Y-127700283D01*
X196496469Y-127700005D01*
X196485278Y-127695258D01*
X196455297Y-127689433D01*
X196411917Y-127683100D01*
X196360531Y-127676830D01*
X196306528Y-127671194D01*
X196255301Y-127666763D01*
X196212239Y-127664107D01*
X196182735Y-127663799D01*
X196172447Y-127665689D01*
X195549269Y-127665689D01*
X195541534Y-127629694D01*
X195536203Y-127607253D01*
X195535172Y-127604320D01*
X195521490Y-127601042D01*
X195488662Y-127596481D01*
X195441549Y-127591078D01*
X195385015Y-127585275D01*
X195323921Y-127579516D01*
X195263129Y-127574241D01*
X195207500Y-127569893D01*
X195161898Y-127566915D01*
X195131182Y-127565747D01*
X195120300Y-127566596D01*
X194361607Y-127566596D01*
X194330008Y-127524523D01*
X194307539Y-127495422D01*
X194298025Y-127484424D01*
X194297937Y-127484384D01*
X194284332Y-127482669D01*
X194248410Y-127478890D01*
X194191877Y-127473206D01*
X194116438Y-127465779D01*
X194023802Y-127456768D01*
X193915673Y-127446335D01*
X193793759Y-127434638D01*
X193659765Y-127421838D01*
X193515398Y-127408097D01*
X193362366Y-127393573D01*
X193202373Y-127378428D01*
X193037126Y-127362821D01*
X192868332Y-127346913D01*
X192697697Y-127330864D01*
X192526927Y-127314835D01*
X192357729Y-127298986D01*
X192191810Y-127283476D01*
X192030875Y-127268467D01*
X191876631Y-127254119D01*
X191730784Y-127240592D01*
X191595042Y-127228045D01*
X191471109Y-127216641D01*
X191360693Y-127206538D01*
X191265499Y-127197897D01*
X191187235Y-127190879D01*
X191127607Y-127185644D01*
X191088320Y-127182351D01*
X191071082Y-127181162D01*
X191070419Y-127181198D01*
X189484893Y-127181198D01*
X189420914Y-127154682D01*
X189297537Y-127103540D01*
X189191773Y-127059690D01*
X189104481Y-127023488D01*
X189036522Y-126995290D01*
X188988757Y-126975453D01*
X188962046Y-126964334D01*
X188956620Y-126962055D01*
X188888230Y-126920198D01*
X188835366Y-126862323D01*
X188799773Y-126792350D01*
X188783197Y-126714199D01*
X188787384Y-126631788D01*
X188795050Y-126599241D01*
X188805885Y-126566316D01*
X188819281Y-126538713D01*
X188839020Y-126511307D01*
X188868883Y-126478974D01*
X188901531Y-126447360D01*
X189801665Y-126447360D01*
X189801668Y-126447502D01*
X189814249Y-126449344D01*
X189849701Y-126453338D01*
X189906763Y-126459358D01*
X189984177Y-126467283D01*
X190080683Y-126476988D01*
X190195022Y-126488351D01*
X190325934Y-126501248D01*
X190472159Y-126515556D01*
X190632439Y-126531152D01*
X190805514Y-126547912D01*
X190990124Y-126565714D01*
X191185010Y-126584434D01*
X191388913Y-126603949D01*
X191600573Y-126624135D01*
X191810258Y-126644065D01*
X192028246Y-126664753D01*
X192239726Y-126684828D01*
X192443436Y-126704170D01*
X192638112Y-126722658D01*
X192822494Y-126740174D01*
X192995318Y-126756596D01*
X193155323Y-126771804D01*
X193301246Y-126785680D01*
X193431825Y-126798102D01*
X193545797Y-126808951D01*
X193641901Y-126818106D01*
X193718874Y-126825448D01*
X193775454Y-126830857D01*
X193810379Y-126834212D01*
X193822360Y-126835390D01*
X193829167Y-126828357D01*
X193828419Y-126824792D01*
X193820953Y-126813614D01*
X193800185Y-126783994D01*
X193766989Y-126737152D01*
X193722237Y-126674305D01*
X193666803Y-126596673D01*
X193601557Y-126505473D01*
X193527375Y-126401924D01*
X193445127Y-126287245D01*
X193355688Y-126162653D01*
X193259929Y-126029369D01*
X193158725Y-125888609D01*
X193052946Y-125741593D01*
X192976097Y-125634849D01*
X192866905Y-125483211D01*
X192761173Y-125336372D01*
X192729631Y-125292564D01*
X193481037Y-125292564D01*
X193483041Y-125299014D01*
X193497572Y-125322409D01*
X193522856Y-125360127D01*
X193557116Y-125409547D01*
X193598578Y-125468046D01*
X193621078Y-125499359D01*
X193657784Y-125550269D01*
X193706722Y-125618213D01*
X193765982Y-125700538D01*
X193833657Y-125794593D01*
X193907839Y-125897725D01*
X193986621Y-126007282D01*
X194068095Y-126120612D01*
X194150353Y-126235064D01*
X194199550Y-126303531D01*
X194275630Y-126409392D01*
X194347558Y-126509421D01*
X194414080Y-126601878D01*
X194473943Y-126685022D01*
X194525892Y-126757115D01*
X194568674Y-126816416D01*
X194601035Y-126861184D01*
X194621721Y-126889681D01*
X194629437Y-126900119D01*
X194642444Y-126902999D01*
X194676042Y-126907817D01*
X194726696Y-126914196D01*
X194790870Y-126921760D01*
X194865029Y-126930132D01*
X194945639Y-126938935D01*
X195029164Y-126947792D01*
X195112069Y-126956326D01*
X195190819Y-126964160D01*
X195261879Y-126970917D01*
X195321713Y-126976221D01*
X195366787Y-126979694D01*
X195385927Y-126980769D01*
X195410040Y-126979141D01*
X195416268Y-126967788D01*
X195414114Y-126954891D01*
X195409113Y-126930978D01*
X195401268Y-126890397D01*
X195391956Y-126840343D01*
X195387999Y-126818560D01*
X195378584Y-126767743D01*
X195370102Y-126724462D01*
X195363886Y-126695417D01*
X195362219Y-126688898D01*
X195352139Y-126679932D01*
X195324162Y-126657816D01*
X195279919Y-126623757D01*
X195221038Y-126578966D01*
X195149149Y-126524650D01*
X195065880Y-126462021D01*
X194972860Y-126392285D01*
X194871718Y-126316653D01*
X194764083Y-126236333D01*
X194651583Y-126152535D01*
X194535849Y-126066468D01*
X194418508Y-125979341D01*
X194301189Y-125892362D01*
X194185522Y-125806742D01*
X194073136Y-125723688D01*
X193965658Y-125644411D01*
X193864719Y-125570118D01*
X193771947Y-125502021D01*
X193688971Y-125441326D01*
X193617420Y-125389244D01*
X193558923Y-125346984D01*
X193515109Y-125315754D01*
X193487606Y-125296764D01*
X193481037Y-125292564D01*
X192729631Y-125292564D01*
X192659820Y-125195607D01*
X192563765Y-125062193D01*
X192473926Y-124937405D01*
X192391222Y-124822519D01*
X192316570Y-124718811D01*
X192250890Y-124627558D01*
X192195099Y-124550034D01*
X192150117Y-124487517D01*
X192116862Y-124441281D01*
X192096252Y-124412604D01*
X192090055Y-124403960D01*
X192052295Y-124351069D01*
X190923689Y-125395993D01*
X190783631Y-125525763D01*
X190648680Y-125650994D01*
X190519886Y-125770700D01*
X190398299Y-125883899D01*
X190284969Y-125989604D01*
X190180948Y-126086831D01*
X190087285Y-126174597D01*
X190005031Y-126251916D01*
X189935237Y-126317805D01*
X189878953Y-126371278D01*
X189837229Y-126411351D01*
X189811116Y-126437040D01*
X189801665Y-126447360D01*
X188901531Y-126447360D01*
X188912652Y-126436591D01*
X188920658Y-126429043D01*
X188941651Y-126409432D01*
X188979361Y-126374366D01*
X189032712Y-126324842D01*
X189100624Y-126261860D01*
X189182020Y-126186417D01*
X189275822Y-126099511D01*
X189380952Y-126002141D01*
X189496331Y-125895305D01*
X189620883Y-125780001D01*
X189753529Y-125657228D01*
X189893190Y-125527983D01*
X190038790Y-125393266D01*
X190189250Y-125254073D01*
X190343492Y-125111405D01*
X190358540Y-125097487D01*
X190513198Y-124954415D01*
X190664232Y-124814635D01*
X190810559Y-124679152D01*
X190951095Y-124548971D01*
X191084758Y-124425097D01*
X191210465Y-124308535D01*
X191327132Y-124200292D01*
X191433677Y-124101370D01*
X191529017Y-124012777D01*
X191612068Y-123935517D01*
X191681748Y-123870596D01*
X191736973Y-123819018D01*
X191776661Y-123781788D01*
X191799728Y-123759913D01*
X191800943Y-123758740D01*
X191865782Y-123698425D01*
X191919828Y-123654662D01*
X191967437Y-123625086D01*
X192012965Y-123607331D01*
X192060768Y-123599032D01*
X192097685Y-123597581D01*
X192129955Y-123598168D01*
X192158220Y-123601024D01*
X192185579Y-123607794D01*
X192215134Y-123620121D01*
X192249982Y-123639650D01*
X192293223Y-123668024D01*
X192347959Y-123706887D01*
X192417287Y-123757884D01*
X192460474Y-123789997D01*
X192522746Y-123836267D01*
X192599057Y-123892790D01*
X192688077Y-123958589D01*
X192788477Y-124032690D01*
X192898927Y-124114116D01*
X193018096Y-124201893D01*
X193144655Y-124295044D01*
X193277274Y-124392594D01*
X193414623Y-124493567D01*
X193555371Y-124596988D01*
X193698190Y-124701881D01*
X193841749Y-124807270D01*
X193984719Y-124912180D01*
X194125768Y-125015635D01*
X194263569Y-125116660D01*
X194396789Y-125214278D01*
X194524100Y-125307515D01*
X194644172Y-125395395D01*
X194755674Y-125476941D01*
X194857278Y-125551179D01*
X194947652Y-125617133D01*
X195025467Y-125673827D01*
X195089393Y-125720285D01*
X195138100Y-125755532D01*
X195170259Y-125778593D01*
X195184538Y-125788491D01*
X195185155Y-125788802D01*
X195183299Y-125776737D01*
X195177064Y-125742218D01*
X195166706Y-125686580D01*
X195152481Y-125611157D01*
X195134645Y-125517286D01*
X195113455Y-125406300D01*
X195102952Y-125351480D01*
X195723680Y-125351480D01*
X195724815Y-125364058D01*
X195730131Y-125397892D01*
X195739169Y-125450445D01*
X195751475Y-125519186D01*
X195766592Y-125601578D01*
X195784063Y-125695087D01*
X195803433Y-125797181D01*
X195811460Y-125839073D01*
X195834593Y-125959171D01*
X195853781Y-126057723D01*
X195869585Y-126136998D01*
X195882564Y-126199262D01*
X195893281Y-126246785D01*
X195902294Y-126281835D01*
X195910166Y-126306679D01*
X195917455Y-126323586D01*
X195924724Y-126334824D01*
X195932531Y-126342661D01*
X195936721Y-126345945D01*
X195959385Y-126362859D01*
X195996128Y-126390307D01*
X196041619Y-126424305D01*
X196084407Y-126456294D01*
X196129519Y-126489424D01*
X196167175Y-126515943D01*
X196193434Y-126533153D01*
X196204350Y-126538362D01*
X196200853Y-126526695D01*
X196189042Y-126494663D01*
X196169738Y-126444352D01*
X196143761Y-126377846D01*
X196111933Y-126297230D01*
X196075074Y-126204588D01*
X196034006Y-126102005D01*
X195989550Y-125991567D01*
X195968883Y-125940420D01*
X195923040Y-125827410D01*
X195879880Y-125721623D01*
X195840256Y-125625108D01*
X195805022Y-125539914D01*
X195775028Y-125468088D01*
X195751130Y-125411680D01*
X195734179Y-125372737D01*
X195725028Y-125353308D01*
X195723680Y-125351480D01*
X195102952Y-125351480D01*
X195098454Y-125328006D01*
X195708779Y-125328006D01*
X195714838Y-125334065D01*
X195720897Y-125328006D01*
X195714838Y-125321947D01*
X195708779Y-125328006D01*
X195098454Y-125328006D01*
X195089167Y-125279536D01*
X195062037Y-125138328D01*
X195032320Y-124984011D01*
X195000274Y-124817920D01*
X194966154Y-124641391D01*
X194930216Y-124455758D01*
X194892717Y-124262357D01*
X194858159Y-124084374D01*
X194804315Y-123806702D01*
X194755290Y-123552719D01*
X194711072Y-123322364D01*
X194671648Y-123115576D01*
X194637009Y-122932293D01*
X194607142Y-122772455D01*
X194582036Y-122635999D01*
X194561679Y-122522865D01*
X194546061Y-122432991D01*
X194535169Y-122366316D01*
X194528994Y-122322779D01*
X194527440Y-122304485D01*
X194537139Y-122218940D01*
X194566970Y-122146627D01*
X194617342Y-122086696D01*
X194640915Y-122067745D01*
X194717875Y-122024823D01*
X194797413Y-122005948D01*
X194878670Y-122011175D01*
G37*
%TO.C,J1*%
G36*
X156810000Y-95100000D02*
G01*
X156110000Y-95100000D01*
X156110000Y-95300000D01*
X156810000Y-95300000D01*
X156810000Y-95100000D01*
G37*
G36*
X156810000Y-95500000D02*
G01*
X156110000Y-95500000D01*
X156110000Y-95700000D01*
X156810000Y-95700000D01*
X156810000Y-95500000D01*
G37*
G36*
X156810000Y-95900000D02*
G01*
X156110000Y-95900000D01*
X156110000Y-96100000D01*
X156810000Y-96100000D01*
X156810000Y-95900000D01*
G37*
G36*
X156810000Y-96300000D02*
G01*
X156110000Y-96300000D01*
X156110000Y-96500000D01*
X156810000Y-96500000D01*
X156810000Y-96300000D01*
G37*
G36*
X156810000Y-96700000D02*
G01*
X156110000Y-96700000D01*
X156110000Y-96900000D01*
X156810000Y-96900000D01*
X156810000Y-96700000D01*
G37*
G36*
X156810000Y-97100000D02*
G01*
X156110000Y-97100000D01*
X156110000Y-97300000D01*
X156810000Y-97300000D01*
X156810000Y-97100000D01*
G37*
G36*
X156810000Y-97500000D02*
G01*
X156110000Y-97500000D01*
X156110000Y-97700000D01*
X156810000Y-97700000D01*
X156810000Y-97500000D01*
G37*
G36*
X156810000Y-97900000D02*
G01*
X156110000Y-97900000D01*
X156110000Y-98100000D01*
X156810000Y-98100000D01*
X156810000Y-97900000D01*
G37*
G36*
X156810000Y-98300000D02*
G01*
X156110000Y-98300000D01*
X156110000Y-98500000D01*
X156810000Y-98500000D01*
X156810000Y-98300000D01*
G37*
G36*
X156810000Y-98700000D02*
G01*
X156110000Y-98700000D01*
X156110000Y-98900000D01*
X156810000Y-98900000D01*
X156810000Y-98700000D01*
G37*
G36*
X156810000Y-99100000D02*
G01*
X156110000Y-99100000D01*
X156110000Y-99300000D01*
X156810000Y-99300000D01*
X156810000Y-99100000D01*
G37*
G36*
X156810000Y-99500000D02*
G01*
X156110000Y-99500000D01*
X156110000Y-99700000D01*
X156810000Y-99700000D01*
X156810000Y-99500000D01*
G37*
G36*
X156810000Y-99900000D02*
G01*
X156110000Y-99900000D01*
X156110000Y-100100000D01*
X156810000Y-100100000D01*
X156810000Y-99900000D01*
G37*
G36*
X156810000Y-100300000D02*
G01*
X156110000Y-100300000D01*
X156110000Y-100500000D01*
X156810000Y-100500000D01*
X156810000Y-100300000D01*
G37*
G36*
X156810000Y-100700000D02*
G01*
X156110000Y-100700000D01*
X156110000Y-100900000D01*
X156810000Y-100900000D01*
X156810000Y-100700000D01*
G37*
G36*
X156810000Y-101100000D02*
G01*
X156110000Y-101100000D01*
X156110000Y-101300000D01*
X156810000Y-101300000D01*
X156810000Y-101100000D01*
G37*
G36*
X156810000Y-101500000D02*
G01*
X156110000Y-101500000D01*
X156110000Y-101700000D01*
X156810000Y-101700000D01*
X156810000Y-101500000D01*
G37*
G36*
X156810000Y-101900000D02*
G01*
X156110000Y-101900000D01*
X156110000Y-102100000D01*
X156810000Y-102100000D01*
X156810000Y-101900000D01*
G37*
G36*
X156810000Y-102300000D02*
G01*
X156110000Y-102300000D01*
X156110000Y-102500000D01*
X156810000Y-102500000D01*
X156810000Y-102300000D01*
G37*
G36*
X156810000Y-102700000D02*
G01*
X156110000Y-102700000D01*
X156110000Y-102900000D01*
X156810000Y-102900000D01*
X156810000Y-102700000D01*
G37*
G36*
X156810000Y-103100000D02*
G01*
X156110000Y-103100000D01*
X156110000Y-103300000D01*
X156810000Y-103300000D01*
X156810000Y-103100000D01*
G37*
G36*
X156810000Y-103500000D02*
G01*
X156110000Y-103500000D01*
X156110000Y-103700000D01*
X156810000Y-103700000D01*
X156810000Y-103500000D01*
G37*
G36*
X156810000Y-103900000D02*
G01*
X156110000Y-103900000D01*
X156110000Y-104100000D01*
X156810000Y-104100000D01*
X156810000Y-103900000D01*
G37*
G36*
X156810000Y-104300000D02*
G01*
X156110000Y-104300000D01*
X156110000Y-104500000D01*
X156810000Y-104500000D01*
X156810000Y-104300000D01*
G37*
G36*
X156810000Y-104700000D02*
G01*
X156110000Y-104700000D01*
X156110000Y-104900000D01*
X156810000Y-104900000D01*
X156810000Y-104700000D01*
G37*
G36*
X156810000Y-105100000D02*
G01*
X156110000Y-105100000D01*
X156110000Y-105300000D01*
X156810000Y-105300000D01*
X156810000Y-105100000D01*
G37*
G36*
X156810000Y-105500000D02*
G01*
X156110000Y-105500000D01*
X156110000Y-105700000D01*
X156810000Y-105700000D01*
X156810000Y-105500000D01*
G37*
G36*
X156810000Y-105900000D02*
G01*
X156110000Y-105900000D01*
X156110000Y-106100000D01*
X156810000Y-106100000D01*
X156810000Y-105900000D01*
G37*
G36*
X156810000Y-106300000D02*
G01*
X156110000Y-106300000D01*
X156110000Y-106500000D01*
X156810000Y-106500000D01*
X156810000Y-106300000D01*
G37*
G36*
X156810000Y-106700000D02*
G01*
X156110000Y-106700000D01*
X156110000Y-106900000D01*
X156810000Y-106900000D01*
X156810000Y-106700000D01*
G37*
G36*
X156810000Y-107100000D02*
G01*
X156110000Y-107100000D01*
X156110000Y-107300000D01*
X156810000Y-107300000D01*
X156810000Y-107100000D01*
G37*
G36*
X156810000Y-107500000D02*
G01*
X156110000Y-107500000D01*
X156110000Y-107700000D01*
X156810000Y-107700000D01*
X156810000Y-107500000D01*
G37*
G36*
X156810000Y-107900000D02*
G01*
X156110000Y-107900000D01*
X156110000Y-108100000D01*
X156810000Y-108100000D01*
X156810000Y-107900000D01*
G37*
G36*
X156810000Y-108300000D02*
G01*
X156110000Y-108300000D01*
X156110000Y-108500000D01*
X156810000Y-108500000D01*
X156810000Y-108300000D01*
G37*
G36*
X159190000Y-95300000D02*
G01*
X159890000Y-95300000D01*
X159890000Y-95100000D01*
X159190000Y-95100000D01*
X159190000Y-95300000D01*
G37*
G36*
X159190000Y-95700000D02*
G01*
X159890000Y-95700000D01*
X159890000Y-95500000D01*
X159190000Y-95500000D01*
X159190000Y-95700000D01*
G37*
G36*
X159190000Y-96100000D02*
G01*
X159890000Y-96100000D01*
X159890000Y-95900000D01*
X159190000Y-95900000D01*
X159190000Y-96100000D01*
G37*
G36*
X159190000Y-96500000D02*
G01*
X159890000Y-96500000D01*
X159890000Y-96300000D01*
X159190000Y-96300000D01*
X159190000Y-96500000D01*
G37*
G36*
X159190000Y-96900000D02*
G01*
X159890000Y-96900000D01*
X159890000Y-96700000D01*
X159190000Y-96700000D01*
X159190000Y-96900000D01*
G37*
G36*
X159190000Y-97300000D02*
G01*
X159890000Y-97300000D01*
X159890000Y-97100000D01*
X159190000Y-97100000D01*
X159190000Y-97300000D01*
G37*
G36*
X159190000Y-97700000D02*
G01*
X159890000Y-97700000D01*
X159890000Y-97500000D01*
X159190000Y-97500000D01*
X159190000Y-97700000D01*
G37*
G36*
X159190000Y-98100000D02*
G01*
X159890000Y-98100000D01*
X159890000Y-97900000D01*
X159190000Y-97900000D01*
X159190000Y-98100000D01*
G37*
G36*
X159190000Y-98500000D02*
G01*
X159890000Y-98500000D01*
X159890000Y-98300000D01*
X159190000Y-98300000D01*
X159190000Y-98500000D01*
G37*
G36*
X159190000Y-98900000D02*
G01*
X159890000Y-98900000D01*
X159890000Y-98700000D01*
X159190000Y-98700000D01*
X159190000Y-98900000D01*
G37*
G36*
X159190000Y-99300000D02*
G01*
X159890000Y-99300000D01*
X159890000Y-99100000D01*
X159190000Y-99100000D01*
X159190000Y-99300000D01*
G37*
G36*
X159190000Y-99700000D02*
G01*
X159890000Y-99700000D01*
X159890000Y-99500000D01*
X159190000Y-99500000D01*
X159190000Y-99700000D01*
G37*
G36*
X159190000Y-100100000D02*
G01*
X159890000Y-100100000D01*
X159890000Y-99900000D01*
X159190000Y-99900000D01*
X159190000Y-100100000D01*
G37*
G36*
X159190000Y-100500000D02*
G01*
X159890000Y-100500000D01*
X159890000Y-100300000D01*
X159190000Y-100300000D01*
X159190000Y-100500000D01*
G37*
G36*
X159190000Y-100900000D02*
G01*
X159890000Y-100900000D01*
X159890000Y-100700000D01*
X159190000Y-100700000D01*
X159190000Y-100900000D01*
G37*
G36*
X159190000Y-101300000D02*
G01*
X159890000Y-101300000D01*
X159890000Y-101100000D01*
X159190000Y-101100000D01*
X159190000Y-101300000D01*
G37*
G36*
X159190000Y-101700000D02*
G01*
X159890000Y-101700000D01*
X159890000Y-101500000D01*
X159190000Y-101500000D01*
X159190000Y-101700000D01*
G37*
G36*
X159190000Y-102100000D02*
G01*
X159890000Y-102100000D01*
X159890000Y-101900000D01*
X159190000Y-101900000D01*
X159190000Y-102100000D01*
G37*
G36*
X159190000Y-102500000D02*
G01*
X159890000Y-102500000D01*
X159890000Y-102300000D01*
X159190000Y-102300000D01*
X159190000Y-102500000D01*
G37*
G36*
X159190000Y-102900000D02*
G01*
X159890000Y-102900000D01*
X159890000Y-102700000D01*
X159190000Y-102700000D01*
X159190000Y-102900000D01*
G37*
G36*
X159190000Y-103300000D02*
G01*
X159890000Y-103300000D01*
X159890000Y-103100000D01*
X159190000Y-103100000D01*
X159190000Y-103300000D01*
G37*
G36*
X159190000Y-103700000D02*
G01*
X159890000Y-103700000D01*
X159890000Y-103500000D01*
X159190000Y-103500000D01*
X159190000Y-103700000D01*
G37*
G36*
X159190000Y-104100000D02*
G01*
X159890000Y-104100000D01*
X159890000Y-103900000D01*
X159190000Y-103900000D01*
X159190000Y-104100000D01*
G37*
G36*
X159190000Y-104500000D02*
G01*
X159890000Y-104500000D01*
X159890000Y-104300000D01*
X159190000Y-104300000D01*
X159190000Y-104500000D01*
G37*
G36*
X159190000Y-104900000D02*
G01*
X159890000Y-104900000D01*
X159890000Y-104700000D01*
X159190000Y-104700000D01*
X159190000Y-104900000D01*
G37*
G36*
X159190000Y-105300000D02*
G01*
X159890000Y-105300000D01*
X159890000Y-105100000D01*
X159190000Y-105100000D01*
X159190000Y-105300000D01*
G37*
G36*
X159190000Y-105700000D02*
G01*
X159890000Y-105700000D01*
X159890000Y-105500000D01*
X159190000Y-105500000D01*
X159190000Y-105700000D01*
G37*
G36*
X159190000Y-106100000D02*
G01*
X159890000Y-106100000D01*
X159890000Y-105900000D01*
X159190000Y-105900000D01*
X159190000Y-106100000D01*
G37*
G36*
X159190000Y-106500000D02*
G01*
X159890000Y-106500000D01*
X159890000Y-106300000D01*
X159190000Y-106300000D01*
X159190000Y-106500000D01*
G37*
G36*
X159190000Y-106900000D02*
G01*
X159890000Y-106900000D01*
X159890000Y-106700000D01*
X159190000Y-106700000D01*
X159190000Y-106900000D01*
G37*
G36*
X159190000Y-107300000D02*
G01*
X159890000Y-107300000D01*
X159890000Y-107100000D01*
X159190000Y-107100000D01*
X159190000Y-107300000D01*
G37*
G36*
X159190000Y-107700000D02*
G01*
X159890000Y-107700000D01*
X159890000Y-107500000D01*
X159190000Y-107500000D01*
X159190000Y-107700000D01*
G37*
G36*
X159190000Y-108100000D02*
G01*
X159890000Y-108100000D01*
X159890000Y-107900000D01*
X159190000Y-107900000D01*
X159190000Y-108100000D01*
G37*
G36*
X159190000Y-108500000D02*
G01*
X159890000Y-108500000D01*
X159890000Y-108300000D01*
X159190000Y-108300000D01*
X159190000Y-108500000D01*
G37*
G36*
X159190000Y-108900000D02*
G01*
X159890000Y-108900000D01*
X159890000Y-108700000D01*
X159190000Y-108700000D01*
X159190000Y-108900000D01*
G37*
%TD*%
D11*
%TO.C,TP1*%
X153000000Y-135000000D03*
%TD*%
D12*
%TO.C,JP1*%
X162970000Y-119345000D03*
X160430000Y-122655000D03*
%TD*%
D11*
%TO.C,TP2*%
X163000000Y-135000000D03*
%TD*%
D13*
%TO.C,R3*%
X130900000Y-124110000D03*
X130900000Y-123090000D03*
%TD*%
D11*
%TO.C,TP4*%
X163000000Y-79000000D03*
%TD*%
D14*
%TO.C,R4*%
X154020000Y-111600000D03*
X153000000Y-111600000D03*
%TD*%
D15*
%TO.C,LD1*%
X153000000Y-85300000D03*
D16*
X152300000Y-86000000D03*
X153000000Y-86700000D03*
%TD*%
D17*
%TO.C,J1*%
X156460000Y-108800000D03*
X159540000Y-108800000D03*
X156460000Y-108400000D03*
X159540000Y-108400000D03*
X156460000Y-108000000D03*
X159540000Y-108000000D03*
X156460000Y-107600000D03*
X159540000Y-107600000D03*
X156460000Y-107200000D03*
X159540000Y-107200000D03*
X156460000Y-106800000D03*
X159540000Y-106800000D03*
X156460000Y-106400000D03*
X159540000Y-106400000D03*
X156460000Y-106000000D03*
X159540000Y-106000000D03*
X156460000Y-105600000D03*
X159540000Y-105600000D03*
X156460000Y-105200000D03*
X159540000Y-105200000D03*
X156460000Y-104800000D03*
X159540000Y-104800000D03*
X156460000Y-104400000D03*
X159540000Y-104400000D03*
X156460000Y-104000000D03*
X159540000Y-104000000D03*
X156460000Y-103600000D03*
X159540000Y-103600000D03*
X156460000Y-103200000D03*
X159540000Y-103200000D03*
X156460000Y-102800000D03*
X159540000Y-102800000D03*
X156460000Y-102400000D03*
X159540000Y-102400000D03*
X156460000Y-102000000D03*
X159540000Y-102000000D03*
X156460000Y-101600000D03*
X159540000Y-101600000D03*
X156460000Y-101200000D03*
X159540000Y-101200000D03*
X156460000Y-100800000D03*
X159540000Y-100800000D03*
X156460000Y-100400000D03*
X159540000Y-100400000D03*
X156460000Y-100000000D03*
X159540000Y-100000000D03*
X156460000Y-99600000D03*
X159540000Y-99600000D03*
X156460000Y-99200000D03*
X159540000Y-99200000D03*
X156460000Y-98800000D03*
X159540000Y-98800000D03*
X156460000Y-98400000D03*
X159540000Y-98400000D03*
X156460000Y-98000000D03*
X159540000Y-98000000D03*
X156460000Y-97600000D03*
X159540000Y-97600000D03*
X156460000Y-97200000D03*
X159540000Y-97200000D03*
X156460000Y-96800000D03*
X159540000Y-96800000D03*
X156460000Y-96400000D03*
X159540000Y-96400000D03*
X156460000Y-96000000D03*
X159540000Y-96000000D03*
X156460000Y-95600000D03*
X159540000Y-95600000D03*
X156460000Y-95200000D03*
X159540000Y-95200000D03*
%TD*%
D18*
%TO.C,J4*%
X117275000Y-121760000D03*
X122325000Y-121760000D03*
X117275000Y-124300000D03*
X122325000Y-124300000D03*
X117275000Y-126840000D03*
X122325000Y-126840000D03*
%TD*%
D13*
%TO.C,R1*%
X132000000Y-125410000D03*
X132000000Y-124390000D03*
%TD*%
D19*
%TO.C,U1*%
X139075000Y-125505000D03*
X139075000Y-124235000D03*
X139075000Y-122965000D03*
X139075000Y-121695000D03*
X134125000Y-121695000D03*
X134125000Y-122965000D03*
X134125000Y-124235000D03*
X134125000Y-125505000D03*
%TD*%
D13*
%TO.C,R2*%
X129700000Y-122710000D03*
X129700000Y-121690000D03*
%TD*%
D20*
%TO.C,LD2*%
X163000000Y-87000000D03*
D21*
X164000000Y-86000000D03*
X163000000Y-85000000D03*
%TD*%
D22*
%TO.C,C1*%
X136120000Y-127100000D03*
X137080000Y-127100000D03*
%TD*%
D11*
%TO.C,TP3*%
X153000000Y-79000000D03*
%TD*%
D23*
%TO.C,J2*%
X120330000Y-81935000D03*
X120330000Y-118065000D03*
%TD*%
%TO.C,J3*%
X190330000Y-81935000D03*
X190330000Y-118065000D03*
%TD*%
M02*
