%TF.GenerationSoftware,KiCad,Pcbnew,9.0.0-rc1*%
%TF.CreationDate,2025-02-06T15:19:43-05:00*%
%TF.ProjectId,ephys-test-module-64,65706879-732d-4746-9573-742d6d6f6475,A*%
%TF.SameCoordinates,Original*%
%TF.FileFunction,AssemblyDrawing,Bot*%
%FSLAX46Y46*%
G04 Gerber Fmt 4.6, Leading zero omitted, Abs format (unit mm)*
G04 Created by KiCad (PCBNEW 9.0.0-rc1) date 2025-02-06 15:19:43*
%MOMM*%
%LPD*%
G01*
G04 APERTURE LIST*
%ADD10C,0.150000*%
%ADD11C,0.100000*%
%ADD12C,0.200000*%
G04 APERTURE END LIST*
D10*
X123231009Y-92261905D02*
X123278628Y-92404762D01*
X123278628Y-92404762D02*
X123326247Y-92452381D01*
X123326247Y-92452381D02*
X123421485Y-92500000D01*
X123421485Y-92500000D02*
X123564342Y-92500000D01*
X123564342Y-92500000D02*
X123659580Y-92452381D01*
X123659580Y-92452381D02*
X123707200Y-92404762D01*
X123707200Y-92404762D02*
X123754819Y-92309524D01*
X123754819Y-92309524D02*
X123754819Y-91928572D01*
X123754819Y-91928572D02*
X122754819Y-91928572D01*
X122754819Y-91928572D02*
X122754819Y-92261905D01*
X122754819Y-92261905D02*
X122802438Y-92357143D01*
X122802438Y-92357143D02*
X122850057Y-92404762D01*
X122850057Y-92404762D02*
X122945295Y-92452381D01*
X122945295Y-92452381D02*
X123040533Y-92452381D01*
X123040533Y-92452381D02*
X123135771Y-92404762D01*
X123135771Y-92404762D02*
X123183390Y-92357143D01*
X123183390Y-92357143D02*
X123231009Y-92261905D01*
X123231009Y-92261905D02*
X123231009Y-91928572D01*
X123707200Y-92880953D02*
X123754819Y-93023810D01*
X123754819Y-93023810D02*
X123754819Y-93261905D01*
X123754819Y-93261905D02*
X123707200Y-93357143D01*
X123707200Y-93357143D02*
X123659580Y-93404762D01*
X123659580Y-93404762D02*
X123564342Y-93452381D01*
X123564342Y-93452381D02*
X123469104Y-93452381D01*
X123469104Y-93452381D02*
X123373866Y-93404762D01*
X123373866Y-93404762D02*
X123326247Y-93357143D01*
X123326247Y-93357143D02*
X123278628Y-93261905D01*
X123278628Y-93261905D02*
X123231009Y-93071429D01*
X123231009Y-93071429D02*
X123183390Y-92976191D01*
X123183390Y-92976191D02*
X123135771Y-92928572D01*
X123135771Y-92928572D02*
X123040533Y-92880953D01*
X123040533Y-92880953D02*
X122945295Y-92880953D01*
X122945295Y-92880953D02*
X122850057Y-92928572D01*
X122850057Y-92928572D02*
X122802438Y-92976191D01*
X122802438Y-92976191D02*
X122754819Y-93071429D01*
X122754819Y-93071429D02*
X122754819Y-93309524D01*
X122754819Y-93309524D02*
X122802438Y-93452381D01*
X123231009Y-93880953D02*
X123231009Y-94214286D01*
X123754819Y-94357143D02*
X123754819Y-93880953D01*
X123754819Y-93880953D02*
X122754819Y-93880953D01*
X122754819Y-93880953D02*
X122754819Y-94357143D01*
X123373866Y-94785715D02*
X123373866Y-95547620D01*
X122754819Y-96214286D02*
X122754819Y-96309524D01*
X122754819Y-96309524D02*
X122802438Y-96404762D01*
X122802438Y-96404762D02*
X122850057Y-96452381D01*
X122850057Y-96452381D02*
X122945295Y-96500000D01*
X122945295Y-96500000D02*
X123135771Y-96547619D01*
X123135771Y-96547619D02*
X123373866Y-96547619D01*
X123373866Y-96547619D02*
X123564342Y-96500000D01*
X123564342Y-96500000D02*
X123659580Y-96452381D01*
X123659580Y-96452381D02*
X123707200Y-96404762D01*
X123707200Y-96404762D02*
X123754819Y-96309524D01*
X123754819Y-96309524D02*
X123754819Y-96214286D01*
X123754819Y-96214286D02*
X123707200Y-96119048D01*
X123707200Y-96119048D02*
X123659580Y-96071429D01*
X123659580Y-96071429D02*
X123564342Y-96023810D01*
X123564342Y-96023810D02*
X123373866Y-95976191D01*
X123373866Y-95976191D02*
X123135771Y-95976191D01*
X123135771Y-95976191D02*
X122945295Y-96023810D01*
X122945295Y-96023810D02*
X122850057Y-96071429D01*
X122850057Y-96071429D02*
X122802438Y-96119048D01*
X122802438Y-96119048D02*
X122754819Y-96214286D01*
X123088152Y-97404762D02*
X123754819Y-97404762D01*
X122707200Y-97166667D02*
X123421485Y-96928572D01*
X123421485Y-96928572D02*
X123421485Y-97547619D01*
X122754819Y-98119048D02*
X122754819Y-98214286D01*
X122754819Y-98214286D02*
X122802438Y-98309524D01*
X122802438Y-98309524D02*
X122850057Y-98357143D01*
X122850057Y-98357143D02*
X122945295Y-98404762D01*
X122945295Y-98404762D02*
X123135771Y-98452381D01*
X123135771Y-98452381D02*
X123373866Y-98452381D01*
X123373866Y-98452381D02*
X123564342Y-98404762D01*
X123564342Y-98404762D02*
X123659580Y-98357143D01*
X123659580Y-98357143D02*
X123707200Y-98309524D01*
X123707200Y-98309524D02*
X123754819Y-98214286D01*
X123754819Y-98214286D02*
X123754819Y-98119048D01*
X123754819Y-98119048D02*
X123707200Y-98023810D01*
X123707200Y-98023810D02*
X123659580Y-97976191D01*
X123659580Y-97976191D02*
X123564342Y-97928572D01*
X123564342Y-97928572D02*
X123373866Y-97880953D01*
X123373866Y-97880953D02*
X123135771Y-97880953D01*
X123135771Y-97880953D02*
X122945295Y-97928572D01*
X122945295Y-97928572D02*
X122850057Y-97976191D01*
X122850057Y-97976191D02*
X122802438Y-98023810D01*
X122802438Y-98023810D02*
X122754819Y-98119048D01*
X123373866Y-98880953D02*
X123373866Y-99642858D01*
X122754819Y-100309524D02*
X122754819Y-100404762D01*
X122754819Y-100404762D02*
X122802438Y-100500000D01*
X122802438Y-100500000D02*
X122850057Y-100547619D01*
X122850057Y-100547619D02*
X122945295Y-100595238D01*
X122945295Y-100595238D02*
X123135771Y-100642857D01*
X123135771Y-100642857D02*
X123373866Y-100642857D01*
X123373866Y-100642857D02*
X123564342Y-100595238D01*
X123564342Y-100595238D02*
X123659580Y-100547619D01*
X123659580Y-100547619D02*
X123707200Y-100500000D01*
X123707200Y-100500000D02*
X123754819Y-100404762D01*
X123754819Y-100404762D02*
X123754819Y-100309524D01*
X123754819Y-100309524D02*
X123707200Y-100214286D01*
X123707200Y-100214286D02*
X123659580Y-100166667D01*
X123659580Y-100166667D02*
X123564342Y-100119048D01*
X123564342Y-100119048D02*
X123373866Y-100071429D01*
X123373866Y-100071429D02*
X123135771Y-100071429D01*
X123135771Y-100071429D02*
X122945295Y-100119048D01*
X122945295Y-100119048D02*
X122850057Y-100166667D01*
X122850057Y-100166667D02*
X122802438Y-100214286D01*
X122802438Y-100214286D02*
X122754819Y-100309524D01*
X123754819Y-101595238D02*
X123754819Y-101023810D01*
X123754819Y-101309524D02*
X122754819Y-101309524D01*
X122754819Y-101309524D02*
X122897676Y-101214286D01*
X122897676Y-101214286D02*
X122992914Y-101119048D01*
X122992914Y-101119048D02*
X123040533Y-101023810D01*
X123373866Y-102023810D02*
X123373866Y-102785715D01*
X122754819Y-103166667D02*
X123754819Y-103833333D01*
X122754819Y-103833333D02*
X123754819Y-103166667D01*
X123373866Y-104214286D02*
X123373866Y-104976191D01*
X123754819Y-105452381D02*
X122754819Y-105452381D01*
X122754819Y-105452381D02*
X122754819Y-105690476D01*
X122754819Y-105690476D02*
X122802438Y-105833333D01*
X122802438Y-105833333D02*
X122897676Y-105928571D01*
X122897676Y-105928571D02*
X122992914Y-105976190D01*
X122992914Y-105976190D02*
X123183390Y-106023809D01*
X123183390Y-106023809D02*
X123326247Y-106023809D01*
X123326247Y-106023809D02*
X123516723Y-105976190D01*
X123516723Y-105976190D02*
X123611961Y-105928571D01*
X123611961Y-105928571D02*
X123707200Y-105833333D01*
X123707200Y-105833333D02*
X123754819Y-105690476D01*
X123754819Y-105690476D02*
X123754819Y-105452381D01*
X123373866Y-106452381D02*
X123373866Y-107214286D01*
X123469104Y-107642857D02*
X123469104Y-108119047D01*
X123754819Y-107547619D02*
X122754819Y-107880952D01*
X122754819Y-107880952D02*
X123754819Y-108214285D01*
X193231009Y-92261905D02*
X193278628Y-92404762D01*
X193278628Y-92404762D02*
X193326247Y-92452381D01*
X193326247Y-92452381D02*
X193421485Y-92500000D01*
X193421485Y-92500000D02*
X193564342Y-92500000D01*
X193564342Y-92500000D02*
X193659580Y-92452381D01*
X193659580Y-92452381D02*
X193707200Y-92404762D01*
X193707200Y-92404762D02*
X193754819Y-92309524D01*
X193754819Y-92309524D02*
X193754819Y-91928572D01*
X193754819Y-91928572D02*
X192754819Y-91928572D01*
X192754819Y-91928572D02*
X192754819Y-92261905D01*
X192754819Y-92261905D02*
X192802438Y-92357143D01*
X192802438Y-92357143D02*
X192850057Y-92404762D01*
X192850057Y-92404762D02*
X192945295Y-92452381D01*
X192945295Y-92452381D02*
X193040533Y-92452381D01*
X193040533Y-92452381D02*
X193135771Y-92404762D01*
X193135771Y-92404762D02*
X193183390Y-92357143D01*
X193183390Y-92357143D02*
X193231009Y-92261905D01*
X193231009Y-92261905D02*
X193231009Y-91928572D01*
X193707200Y-92880953D02*
X193754819Y-93023810D01*
X193754819Y-93023810D02*
X193754819Y-93261905D01*
X193754819Y-93261905D02*
X193707200Y-93357143D01*
X193707200Y-93357143D02*
X193659580Y-93404762D01*
X193659580Y-93404762D02*
X193564342Y-93452381D01*
X193564342Y-93452381D02*
X193469104Y-93452381D01*
X193469104Y-93452381D02*
X193373866Y-93404762D01*
X193373866Y-93404762D02*
X193326247Y-93357143D01*
X193326247Y-93357143D02*
X193278628Y-93261905D01*
X193278628Y-93261905D02*
X193231009Y-93071429D01*
X193231009Y-93071429D02*
X193183390Y-92976191D01*
X193183390Y-92976191D02*
X193135771Y-92928572D01*
X193135771Y-92928572D02*
X193040533Y-92880953D01*
X193040533Y-92880953D02*
X192945295Y-92880953D01*
X192945295Y-92880953D02*
X192850057Y-92928572D01*
X192850057Y-92928572D02*
X192802438Y-92976191D01*
X192802438Y-92976191D02*
X192754819Y-93071429D01*
X192754819Y-93071429D02*
X192754819Y-93309524D01*
X192754819Y-93309524D02*
X192802438Y-93452381D01*
X193231009Y-93880953D02*
X193231009Y-94214286D01*
X193754819Y-94357143D02*
X193754819Y-93880953D01*
X193754819Y-93880953D02*
X192754819Y-93880953D01*
X192754819Y-93880953D02*
X192754819Y-94357143D01*
X193373866Y-94785715D02*
X193373866Y-95547620D01*
X192754819Y-96214286D02*
X192754819Y-96309524D01*
X192754819Y-96309524D02*
X192802438Y-96404762D01*
X192802438Y-96404762D02*
X192850057Y-96452381D01*
X192850057Y-96452381D02*
X192945295Y-96500000D01*
X192945295Y-96500000D02*
X193135771Y-96547619D01*
X193135771Y-96547619D02*
X193373866Y-96547619D01*
X193373866Y-96547619D02*
X193564342Y-96500000D01*
X193564342Y-96500000D02*
X193659580Y-96452381D01*
X193659580Y-96452381D02*
X193707200Y-96404762D01*
X193707200Y-96404762D02*
X193754819Y-96309524D01*
X193754819Y-96309524D02*
X193754819Y-96214286D01*
X193754819Y-96214286D02*
X193707200Y-96119048D01*
X193707200Y-96119048D02*
X193659580Y-96071429D01*
X193659580Y-96071429D02*
X193564342Y-96023810D01*
X193564342Y-96023810D02*
X193373866Y-95976191D01*
X193373866Y-95976191D02*
X193135771Y-95976191D01*
X193135771Y-95976191D02*
X192945295Y-96023810D01*
X192945295Y-96023810D02*
X192850057Y-96071429D01*
X192850057Y-96071429D02*
X192802438Y-96119048D01*
X192802438Y-96119048D02*
X192754819Y-96214286D01*
X193088152Y-97404762D02*
X193754819Y-97404762D01*
X192707200Y-97166667D02*
X193421485Y-96928572D01*
X193421485Y-96928572D02*
X193421485Y-97547619D01*
X192754819Y-98119048D02*
X192754819Y-98214286D01*
X192754819Y-98214286D02*
X192802438Y-98309524D01*
X192802438Y-98309524D02*
X192850057Y-98357143D01*
X192850057Y-98357143D02*
X192945295Y-98404762D01*
X192945295Y-98404762D02*
X193135771Y-98452381D01*
X193135771Y-98452381D02*
X193373866Y-98452381D01*
X193373866Y-98452381D02*
X193564342Y-98404762D01*
X193564342Y-98404762D02*
X193659580Y-98357143D01*
X193659580Y-98357143D02*
X193707200Y-98309524D01*
X193707200Y-98309524D02*
X193754819Y-98214286D01*
X193754819Y-98214286D02*
X193754819Y-98119048D01*
X193754819Y-98119048D02*
X193707200Y-98023810D01*
X193707200Y-98023810D02*
X193659580Y-97976191D01*
X193659580Y-97976191D02*
X193564342Y-97928572D01*
X193564342Y-97928572D02*
X193373866Y-97880953D01*
X193373866Y-97880953D02*
X193135771Y-97880953D01*
X193135771Y-97880953D02*
X192945295Y-97928572D01*
X192945295Y-97928572D02*
X192850057Y-97976191D01*
X192850057Y-97976191D02*
X192802438Y-98023810D01*
X192802438Y-98023810D02*
X192754819Y-98119048D01*
X193373866Y-98880953D02*
X193373866Y-99642858D01*
X192754819Y-100309524D02*
X192754819Y-100404762D01*
X192754819Y-100404762D02*
X192802438Y-100500000D01*
X192802438Y-100500000D02*
X192850057Y-100547619D01*
X192850057Y-100547619D02*
X192945295Y-100595238D01*
X192945295Y-100595238D02*
X193135771Y-100642857D01*
X193135771Y-100642857D02*
X193373866Y-100642857D01*
X193373866Y-100642857D02*
X193564342Y-100595238D01*
X193564342Y-100595238D02*
X193659580Y-100547619D01*
X193659580Y-100547619D02*
X193707200Y-100500000D01*
X193707200Y-100500000D02*
X193754819Y-100404762D01*
X193754819Y-100404762D02*
X193754819Y-100309524D01*
X193754819Y-100309524D02*
X193707200Y-100214286D01*
X193707200Y-100214286D02*
X193659580Y-100166667D01*
X193659580Y-100166667D02*
X193564342Y-100119048D01*
X193564342Y-100119048D02*
X193373866Y-100071429D01*
X193373866Y-100071429D02*
X193135771Y-100071429D01*
X193135771Y-100071429D02*
X192945295Y-100119048D01*
X192945295Y-100119048D02*
X192850057Y-100166667D01*
X192850057Y-100166667D02*
X192802438Y-100214286D01*
X192802438Y-100214286D02*
X192754819Y-100309524D01*
X193754819Y-101595238D02*
X193754819Y-101023810D01*
X193754819Y-101309524D02*
X192754819Y-101309524D01*
X192754819Y-101309524D02*
X192897676Y-101214286D01*
X192897676Y-101214286D02*
X192992914Y-101119048D01*
X192992914Y-101119048D02*
X193040533Y-101023810D01*
X193373866Y-102023810D02*
X193373866Y-102785715D01*
X192754819Y-103166667D02*
X193754819Y-103833333D01*
X192754819Y-103833333D02*
X193754819Y-103166667D01*
X193373866Y-104214286D02*
X193373866Y-104976191D01*
X193754819Y-105452381D02*
X192754819Y-105452381D01*
X192754819Y-105452381D02*
X192754819Y-105690476D01*
X192754819Y-105690476D02*
X192802438Y-105833333D01*
X192802438Y-105833333D02*
X192897676Y-105928571D01*
X192897676Y-105928571D02*
X192992914Y-105976190D01*
X192992914Y-105976190D02*
X193183390Y-106023809D01*
X193183390Y-106023809D02*
X193326247Y-106023809D01*
X193326247Y-106023809D02*
X193516723Y-105976190D01*
X193516723Y-105976190D02*
X193611961Y-105928571D01*
X193611961Y-105928571D02*
X193707200Y-105833333D01*
X193707200Y-105833333D02*
X193754819Y-105690476D01*
X193754819Y-105690476D02*
X193754819Y-105452381D01*
X193373866Y-106452381D02*
X193373866Y-107214286D01*
X193469104Y-107642857D02*
X193469104Y-108119047D01*
X193754819Y-107547619D02*
X192754819Y-107880952D01*
X192754819Y-107880952D02*
X193754819Y-108214285D01*
D11*
%TO.C,J2*%
X119380500Y-81365000D02*
X126619500Y-81365000D01*
X119380500Y-118635000D02*
X119380500Y-81365000D01*
X126619500Y-81365000D02*
X126619500Y-118635000D01*
X126619500Y-118635000D02*
X119380500Y-118635000D01*
D12*
X127700000Y-84400000D02*
G75*
G02*
X127500000Y-84400000I-100000J0D01*
G01*
X127500000Y-84400000D02*
G75*
G02*
X127700000Y-84400000I100000J0D01*
G01*
D11*
%TO.C,J3*%
X189380500Y-81365000D02*
X196619500Y-81365000D01*
X189380500Y-118635000D02*
X189380500Y-81365000D01*
X196619500Y-81365000D02*
X196619500Y-118635000D01*
X196619500Y-118635000D02*
X189380500Y-118635000D01*
D12*
X197700000Y-84400000D02*
G75*
G02*
X197500000Y-84400000I-100000J0D01*
G01*
X197500000Y-84400000D02*
G75*
G02*
X197700000Y-84400000I100000J0D01*
G01*
%TD*%
D11*
X150875000Y-132875000D02*
X155125000Y-138049819D01*
X150875000Y-138049819D02*
X155125000Y-132875000D01*
X160875000Y-132875000D02*
X165125000Y-138049819D01*
X160875000Y-138049819D02*
X165125000Y-132875000D01*
X160875000Y-76875000D02*
X165125000Y-82049819D01*
X160875000Y-82049819D02*
X165125000Y-76875000D01*
X150875000Y-76875000D02*
X155125000Y-82054768D01*
X150875000Y-82054768D02*
X155125000Y-76875000D01*
M02*
