%TF.GenerationSoftware,KiCad,Pcbnew,9.0.7*%
%TF.CreationDate,2026-03-17T16:17:14+00:00*%
%TF.ProjectId,ephys-test-module-64,65706879-732d-4746-9573-742d6d6f6475,F*%
%TF.SameCoordinates,PX66ff300PY82a7440*%
%TF.FileFunction,Soldermask,Top*%
%TF.FilePolarity,Negative*%
%FSLAX46Y46*%
G04 Gerber Fmt 4.6, Leading zero omitted, Abs format (unit mm)*
G04 Created by KiCad (PCBNEW 9.0.7) date 2026-03-17 16:17:14*
%MOMM*%
%LPD*%
G01*
G04 APERTURE LIST*
G04 Aperture macros list*
%AMRoundRect*
0 Rectangle with rounded corners*
0 $1 Rounding radius*
0 $2 $3 $4 $5 $6 $7 $8 $9 X,Y pos of 4 corners*
0 Add a 4 corners polygon primitive as box body*
4,1,4,$2,$3,$4,$5,$6,$7,$8,$9,$2,$3,0*
0 Add four circle primitives for the rounded corners*
1,1,$1+$1,$2,$3*
1,1,$1+$1,$4,$5*
1,1,$1+$1,$6,$7*
1,1,$1+$1,$8,$9*
0 Add four rect primitives between the rounded corners*
20,1,$1+$1,$2,$3,$4,$5,0*
20,1,$1+$1,$4,$5,$6,$7,0*
20,1,$1+$1,$6,$7,$8,$9,0*
20,1,$1+$1,$8,$9,$2,$3,0*%
G04 Aperture macros list end*
%ADD10C,0.000000*%
%ADD11C,3.000000*%
%ADD12R,3.150000X1.000000*%
%ADD13RoundRect,0.135000X-0.135000X-0.185000X0.135000X-0.185000X0.135000X0.185000X-0.135000X0.185000X0*%
%ADD14RoundRect,0.200000X-0.282843X0.000000X0.000000X-0.282843X0.282843X0.000000X0.000000X0.282843X0*%
%ADD15C,0.800000*%
%ADD16RoundRect,0.010000X0.340000X-0.090000X0.340000X0.090000X-0.340000X0.090000X-0.340000X-0.090000X0*%
%ADD17RoundRect,0.150000X0.150000X-0.825000X0.150000X0.825000X-0.150000X0.825000X-0.150000X-0.825000X0*%
%ADD18RoundRect,0.275000X-0.388909X0.000000X0.000000X-0.388909X0.388909X0.000000X0.000000X0.388909X0*%
%ADD19C,1.100000*%
%ADD20RoundRect,0.140000X-0.170000X0.140000X-0.170000X-0.140000X0.170000X-0.140000X0.170000X0.140000X0*%
%ADD21C,1.020000*%
G04 APERTURE END LIST*
D10*
%TO.C,G\u002A\u002A\u002A*%
G36*
X75619905Y46258797D02*
G01*
X75724976Y46243127D01*
X75783922Y46227169D01*
X75910199Y46175096D01*
X76021844Y46106239D01*
X76123049Y46018564D01*
X76210618Y45917480D01*
X76279043Y45807024D01*
X76331929Y45681361D01*
X76332586Y45679437D01*
X76365601Y45582490D01*
X76365601Y44782681D01*
X76365601Y43982872D01*
X76332586Y43885925D01*
X76279724Y43760052D01*
X76210678Y43648777D01*
X76123158Y43547423D01*
X76015234Y43454366D01*
X75897986Y43383656D01*
X75771013Y43335117D01*
X75633911Y43308575D01*
X75565792Y43303646D01*
X75507021Y43302869D01*
X75450958Y43304474D01*
X75406223Y43308120D01*
X75390987Y43310561D01*
X75255802Y43348295D01*
X75136406Y43401972D01*
X75028602Y43473823D01*
X74947459Y43546314D01*
X74869875Y43633181D01*
X74809378Y43723553D01*
X74761466Y43824969D01*
X74733771Y43904103D01*
X74705391Y43994990D01*
X74705391Y44019227D01*
X74705391Y44782681D01*
X74705391Y45546135D01*
X75093177Y45546135D01*
X75093177Y44782681D01*
X75093177Y44019227D01*
X75126069Y43952576D01*
X75182661Y43859841D01*
X75251738Y43787145D01*
X75335265Y43732691D01*
X75393710Y43707823D01*
X75470174Y43690817D01*
X75556261Y43688382D01*
X75642615Y43700016D01*
X75719880Y43725218D01*
X75720128Y43725332D01*
X75796299Y43771798D01*
X75866108Y43836200D01*
X75923234Y43912239D01*
X75942192Y43946671D01*
X75977815Y44019227D01*
X75977815Y44782681D01*
X75977815Y45546135D01*
X75942192Y45618690D01*
X75891930Y45698354D01*
X75825905Y45769164D01*
X75750555Y45824683D01*
X75720128Y45840754D01*
X75682556Y45856785D01*
X75648136Y45866573D01*
X75608596Y45871577D01*
X75555667Y45873256D01*
X75535496Y45873330D01*
X75476809Y45872377D01*
X75434045Y45868547D01*
X75398935Y45860380D01*
X75363208Y45846417D01*
X75350864Y45840754D01*
X75277471Y45795589D01*
X75208772Y45733695D01*
X75152125Y45662432D01*
X75125754Y45615643D01*
X75093177Y45546135D01*
X74705391Y45546135D01*
X74705391Y45570372D01*
X74733771Y45661259D01*
X74775697Y45774494D01*
X74827146Y45871557D01*
X74892618Y45959988D01*
X74947459Y46019048D01*
X75034327Y46096632D01*
X75124699Y46157129D01*
X75226114Y46205041D01*
X75305248Y46232737D01*
X75401161Y46253705D01*
X75509006Y46262358D01*
X75619905Y46258797D01*
G37*
G36*
X79989562Y46259799D02*
G01*
X80091571Y46245358D01*
X80140458Y46232703D01*
X80257806Y46188834D01*
X80358418Y46134420D01*
X80448860Y46065579D01*
X80491889Y46024968D01*
X80579392Y45925231D01*
X80647079Y45819803D01*
X80699336Y45701645D01*
X80707118Y45679437D01*
X80739952Y45582490D01*
X80740133Y45144112D01*
X80740134Y45029327D01*
X80739945Y44936269D01*
X80739433Y44862427D01*
X80738466Y44805293D01*
X80736913Y44762357D01*
X80734642Y44731108D01*
X80731520Y44709036D01*
X80727416Y44693633D01*
X80722198Y44682387D01*
X80715735Y44672790D01*
X80715329Y44672246D01*
X80686479Y44639885D01*
X80656890Y44613773D01*
X80648509Y44608022D01*
X80638688Y44603211D01*
X80625289Y44599241D01*
X80606172Y44596015D01*
X80579200Y44593433D01*
X80542232Y44591397D01*
X80493132Y44589809D01*
X80429759Y44588568D01*
X80349976Y44587578D01*
X80251643Y44586740D01*
X80132622Y44585954D01*
X80041832Y44585418D01*
X79460227Y44582047D01*
X79464059Y44300637D01*
X79467891Y44019227D01*
X79506079Y43938625D01*
X79559939Y43849496D01*
X79629285Y43778430D01*
X79716341Y43723205D01*
X79726602Y43718234D01*
X79771355Y43698607D01*
X79808988Y43687131D01*
X79849568Y43681725D01*
X79903162Y43680310D01*
X79910210Y43680309D01*
X80000185Y43687398D01*
X80078426Y43710230D01*
X80152046Y43751519D01*
X80204347Y43792604D01*
X80271482Y43839690D01*
X80336361Y43862878D01*
X80398626Y43862146D01*
X80457920Y43837474D01*
X80493846Y43809388D01*
X80536976Y43756084D01*
X80556714Y43699578D01*
X80553545Y43640842D01*
X80527952Y43580852D01*
X80480417Y43520580D01*
X80411424Y43461000D01*
X80321456Y43403086D01*
X80281558Y43381558D01*
X80175454Y43338626D01*
X80056584Y43310662D01*
X79931768Y43298359D01*
X79807826Y43302408D01*
X79696596Y43322166D01*
X79562375Y43369337D01*
X79441263Y43436428D01*
X79334573Y43522188D01*
X79243619Y43625366D01*
X79169712Y43744709D01*
X79114904Y43876706D01*
X79080105Y43982872D01*
X79080105Y44782681D01*
X79080105Y44970515D01*
X79459910Y44970515D01*
X79910210Y44970515D01*
X80360510Y44970515D01*
X80356478Y45258325D01*
X80352447Y45546135D01*
X80316974Y45618581D01*
X80266945Y45697998D01*
X80201086Y45768740D01*
X80125886Y45824316D01*
X80094842Y45840754D01*
X80057270Y45856785D01*
X80022849Y45866573D01*
X79983310Y45871577D01*
X79930381Y45873256D01*
X79910210Y45873330D01*
X79851522Y45872377D01*
X79808759Y45868547D01*
X79773649Y45860380D01*
X79737922Y45846417D01*
X79725578Y45840754D01*
X79648467Y45793008D01*
X79578118Y45727517D01*
X79521020Y45650770D01*
X79503446Y45618581D01*
X79467973Y45546135D01*
X79463941Y45258325D01*
X79459910Y44970515D01*
X79080105Y44970515D01*
X79080105Y45582490D01*
X79113120Y45679437D01*
X79163471Y45800829D01*
X79228373Y45908080D01*
X79312277Y46008329D01*
X79328531Y46024968D01*
X79416368Y46102386D01*
X79511125Y46163457D01*
X79619367Y46212061D01*
X79679962Y46232703D01*
X79774414Y46253471D01*
X79880729Y46262503D01*
X79989562Y46259799D01*
G37*
G36*
X85297387Y46259799D02*
G01*
X85399396Y46245358D01*
X85448282Y46232703D01*
X85565631Y46188834D01*
X85666242Y46134420D01*
X85756684Y46065579D01*
X85799714Y46024968D01*
X85887216Y45925231D01*
X85954904Y45819803D01*
X86007160Y45701645D01*
X86014942Y45679437D01*
X86047776Y45582490D01*
X86047958Y45144112D01*
X86047959Y45029327D01*
X86047769Y44936269D01*
X86047257Y44862427D01*
X86046290Y44805293D01*
X86044738Y44762357D01*
X86042466Y44731108D01*
X86039345Y44709036D01*
X86035241Y44693633D01*
X86030023Y44682387D01*
X86023559Y44672790D01*
X86023154Y44672246D01*
X85994304Y44639885D01*
X85964715Y44613773D01*
X85956334Y44608022D01*
X85946513Y44603211D01*
X85933113Y44599241D01*
X85913997Y44596015D01*
X85887024Y44593433D01*
X85850057Y44591397D01*
X85800956Y44589809D01*
X85737584Y44588568D01*
X85657800Y44587578D01*
X85559467Y44586740D01*
X85440446Y44585954D01*
X85349656Y44585418D01*
X84768051Y44582047D01*
X84771883Y44300637D01*
X84775716Y44019227D01*
X84813903Y43938625D01*
X84867763Y43849496D01*
X84937109Y43778430D01*
X85024166Y43723205D01*
X85034427Y43718234D01*
X85079179Y43698607D01*
X85116812Y43687131D01*
X85157392Y43681725D01*
X85210987Y43680310D01*
X85218034Y43680309D01*
X85308009Y43687398D01*
X85386250Y43710230D01*
X85459871Y43751519D01*
X85512171Y43792604D01*
X85579306Y43839690D01*
X85644185Y43862878D01*
X85706451Y43862146D01*
X85765744Y43837474D01*
X85801671Y43809388D01*
X85844800Y43756084D01*
X85864539Y43699578D01*
X85861370Y43640842D01*
X85835776Y43580852D01*
X85788242Y43520580D01*
X85719249Y43461000D01*
X85629281Y43403086D01*
X85589382Y43381558D01*
X85483278Y43338626D01*
X85364408Y43310662D01*
X85239592Y43298359D01*
X85115650Y43302408D01*
X85004421Y43322166D01*
X84870200Y43369337D01*
X84749088Y43436428D01*
X84642398Y43522188D01*
X84551443Y43625366D01*
X84477536Y43744709D01*
X84422728Y43876706D01*
X84387929Y43982872D01*
X84387929Y44782681D01*
X84387929Y44970515D01*
X84767734Y44970515D01*
X85218034Y44970515D01*
X85668335Y44970515D01*
X85664303Y45258325D01*
X85660271Y45546135D01*
X85624798Y45618581D01*
X85574770Y45697998D01*
X85508911Y45768740D01*
X85433710Y45824316D01*
X85402666Y45840754D01*
X85365094Y45856785D01*
X85330674Y45866573D01*
X85291134Y45871577D01*
X85238205Y45873256D01*
X85218034Y45873330D01*
X85159347Y45872377D01*
X85116584Y45868547D01*
X85081474Y45860380D01*
X85045746Y45846417D01*
X85033402Y45840754D01*
X84956291Y45793008D01*
X84885942Y45727517D01*
X84828845Y45650770D01*
X84811270Y45618581D01*
X84775798Y45546135D01*
X84771766Y45258325D01*
X84767734Y44970515D01*
X84387929Y44970515D01*
X84387929Y45582490D01*
X84420945Y45679437D01*
X84471296Y45800829D01*
X84536198Y45908080D01*
X84620102Y46008329D01*
X84636355Y46024968D01*
X84724192Y46102386D01*
X84818949Y46163457D01*
X84927191Y46212061D01*
X84987786Y46232703D01*
X85082239Y46253471D01*
X85188553Y46262503D01*
X85297387Y46259799D01*
G37*
G36*
X82349158Y46198892D02*
G01*
X82450179Y46157915D01*
X82535146Y46111572D01*
X82612241Y46054767D01*
X82678331Y45993812D01*
X82766347Y45892730D01*
X82834769Y45783044D01*
X82887452Y45658545D01*
X82888597Y45655200D01*
X82921613Y45558253D01*
X82921613Y44489705D01*
X82921605Y44304440D01*
X82921557Y44141875D01*
X82921436Y44000472D01*
X82921205Y43878694D01*
X82920831Y43775003D01*
X82920278Y43687863D01*
X82919511Y43615735D01*
X82918497Y43557084D01*
X82917198Y43510371D01*
X82915582Y43474059D01*
X82913613Y43446611D01*
X82911256Y43426489D01*
X82908476Y43412158D01*
X82905238Y43402078D01*
X82901509Y43394713D01*
X82897252Y43388525D01*
X82896627Y43387686D01*
X82854874Y43341511D01*
X82810244Y43315195D01*
X82755110Y43304831D01*
X82733779Y43304246D01*
X82673627Y43310286D01*
X82626440Y43331011D01*
X82584588Y43370330D01*
X82570930Y43387672D01*
X82566561Y43393926D01*
X82562721Y43401272D01*
X82559369Y43411259D01*
X82556457Y43425440D01*
X82553943Y43445367D01*
X82551782Y43472590D01*
X82549929Y43508661D01*
X82548340Y43555131D01*
X82546970Y43613552D01*
X82545775Y43685476D01*
X82544711Y43772453D01*
X82543733Y43876035D01*
X82542797Y43997773D01*
X82541858Y44139219D01*
X82540871Y44301925D01*
X82539885Y44471513D01*
X82533826Y45521899D01*
X82498313Y45594344D01*
X82443336Y45680335D01*
X82370499Y45754177D01*
X82285189Y45810485D01*
X82279077Y45813539D01*
X82206632Y45849011D01*
X81918993Y45853041D01*
X81631355Y45857071D01*
X81628154Y44639106D01*
X81627625Y44440531D01*
X81627124Y44264759D01*
X81626618Y44110354D01*
X81626075Y43975882D01*
X81625463Y43859909D01*
X81624750Y43761000D01*
X81623902Y43677721D01*
X81622888Y43608638D01*
X81621675Y43552316D01*
X81620232Y43507320D01*
X81618525Y43472217D01*
X81616523Y43445571D01*
X81614193Y43425948D01*
X81611503Y43411914D01*
X81608420Y43402035D01*
X81604913Y43394875D01*
X81600948Y43389001D01*
X81599967Y43387679D01*
X81571895Y43355974D01*
X81543308Y43330569D01*
X81502652Y43311820D01*
X81450154Y43302694D01*
X81396592Y43304119D01*
X81357748Y43314561D01*
X81313953Y43344182D01*
X81276542Y43386704D01*
X81252748Y43433296D01*
X81249301Y43446993D01*
X81248391Y43464175D01*
X81247579Y43503976D01*
X81246869Y43564776D01*
X81246264Y43644958D01*
X81245771Y43742903D01*
X81245391Y43856992D01*
X81245131Y43985608D01*
X81244993Y44127132D01*
X81244982Y44279945D01*
X81245103Y44442430D01*
X81245359Y44612967D01*
X81245755Y44789939D01*
X81245790Y44803002D01*
X81246345Y45009948D01*
X81246867Y45194034D01*
X81247386Y45356636D01*
X81247931Y45499132D01*
X81248531Y45622898D01*
X81249215Y45729310D01*
X81250012Y45819746D01*
X81250950Y45895582D01*
X81252059Y45958194D01*
X81253369Y46008959D01*
X81254907Y46049254D01*
X81256703Y46080455D01*
X81258787Y46103940D01*
X81261186Y46121084D01*
X81263931Y46133264D01*
X81267050Y46141857D01*
X81270572Y46148240D01*
X81274270Y46153446D01*
X81303130Y46185786D01*
X81332751Y46211894D01*
X81342337Y46218433D01*
X81353438Y46223719D01*
X81368566Y46227887D01*
X81390228Y46231068D01*
X81420936Y46233395D01*
X81463200Y46235001D01*
X81519528Y46236020D01*
X81592432Y46236584D01*
X81684420Y46236826D01*
X81798004Y46236879D01*
X81804616Y46236879D01*
X82242987Y46236879D01*
X82349158Y46198892D01*
G37*
G36*
X89034864Y47551737D02*
G01*
X89082051Y47531012D01*
X89123903Y47491695D01*
X89137562Y47474351D01*
X89143241Y47466086D01*
X89148003Y47456404D01*
X89151944Y47443198D01*
X89155158Y47424363D01*
X89157739Y47397793D01*
X89159783Y47361381D01*
X89161383Y47313022D01*
X89162635Y47250609D01*
X89163632Y47172036D01*
X89164469Y47075198D01*
X89165242Y46957988D01*
X89165905Y46842984D01*
X89169263Y46245071D01*
X89474923Y46240247D01*
X89569783Y46238642D01*
X89644152Y46236953D01*
X89701772Y46234835D01*
X89746388Y46231944D01*
X89781743Y46227933D01*
X89811581Y46222459D01*
X89839645Y46215175D01*
X89869679Y46205737D01*
X89877529Y46203136D01*
X90003757Y46150913D01*
X90115205Y46082180D01*
X90216656Y45994327D01*
X90304225Y45893243D01*
X90372650Y45782787D01*
X90425535Y45657124D01*
X90426193Y45655200D01*
X90459208Y45558253D01*
X90459208Y44489705D01*
X90459200Y44304440D01*
X90459153Y44141875D01*
X90459031Y44000472D01*
X90458801Y43878694D01*
X90458426Y43775003D01*
X90457873Y43687863D01*
X90457107Y43615735D01*
X90456092Y43557084D01*
X90454794Y43510371D01*
X90453177Y43474059D01*
X90451208Y43446611D01*
X90448851Y43426489D01*
X90446071Y43412158D01*
X90442834Y43402078D01*
X90439104Y43394713D01*
X90434847Y43388525D01*
X90434223Y43387686D01*
X90392470Y43341511D01*
X90347839Y43315195D01*
X90292705Y43304831D01*
X90271374Y43304246D01*
X90211223Y43310286D01*
X90164035Y43331011D01*
X90122183Y43370330D01*
X90108525Y43387672D01*
X90104156Y43393926D01*
X90100317Y43401272D01*
X90096964Y43411259D01*
X90094053Y43425440D01*
X90091539Y43445367D01*
X90089377Y43472590D01*
X90087524Y43508661D01*
X90085935Y43555131D01*
X90084565Y43613552D01*
X90083371Y43685476D01*
X90082306Y43772453D01*
X90081328Y43876035D01*
X90080392Y43997773D01*
X90079453Y44139219D01*
X90078467Y44301925D01*
X90077481Y44471513D01*
X90071422Y45521899D01*
X90035908Y45594344D01*
X89980931Y45680335D01*
X89908094Y45754177D01*
X89822785Y45810485D01*
X89816673Y45813539D01*
X89744227Y45849011D01*
X89456589Y45853041D01*
X89168950Y45857071D01*
X89165749Y44639106D01*
X89165220Y44440531D01*
X89164719Y44264759D01*
X89164214Y44110354D01*
X89163671Y43975882D01*
X89163059Y43859909D01*
X89162345Y43761000D01*
X89161497Y43677721D01*
X89160483Y43608638D01*
X89159271Y43552316D01*
X89157827Y43507320D01*
X89156120Y43472217D01*
X89154118Y43445571D01*
X89151788Y43425948D01*
X89149098Y43411914D01*
X89146016Y43402035D01*
X89142508Y43394875D01*
X89138544Y43389001D01*
X89137562Y43387679D01*
X89109491Y43355974D01*
X89080903Y43330569D01*
X89040248Y43311820D01*
X88987749Y43302694D01*
X88934187Y43304119D01*
X88895344Y43314561D01*
X88851557Y43344173D01*
X88814159Y43386677D01*
X88790377Y43433248D01*
X88786923Y43446993D01*
X88786177Y43463242D01*
X88785495Y43502424D01*
X88784879Y43563235D01*
X88784331Y43644372D01*
X88783855Y43744531D01*
X88783451Y43862407D01*
X88783123Y43996698D01*
X88782873Y44146099D01*
X88782703Y44309307D01*
X88782615Y44485018D01*
X88782611Y44671929D01*
X88782694Y44868736D01*
X88782866Y45074134D01*
X88783130Y45286821D01*
X88783412Y45463449D01*
X88783863Y45719640D01*
X88784289Y45952709D01*
X88784703Y46163769D01*
X88785123Y46353934D01*
X88785563Y46524319D01*
X88786041Y46676037D01*
X88786570Y46810202D01*
X88787167Y46927929D01*
X88787849Y47030331D01*
X88788630Y47118522D01*
X88789526Y47193616D01*
X88790554Y47256728D01*
X88791729Y47308971D01*
X88793066Y47351459D01*
X88794581Y47385306D01*
X88796291Y47411626D01*
X88798211Y47431534D01*
X88800357Y47446142D01*
X88802744Y47456566D01*
X88805388Y47463919D01*
X88808306Y47469315D01*
X88811512Y47473868D01*
X88811865Y47474342D01*
X88853620Y47520514D01*
X88898249Y47546828D01*
X88953379Y47557191D01*
X88974714Y47557776D01*
X89034864Y47551737D01*
G37*
G36*
X93809924Y46260476D02*
G01*
X93873879Y46259558D01*
X93921639Y46256618D01*
X93961231Y46250347D01*
X94000686Y46239436D01*
X94048033Y46222578D01*
X94052290Y46220975D01*
X94171959Y46165308D01*
X94280146Y46093980D01*
X94373143Y46009961D01*
X94447242Y45916219D01*
X94461323Y45893422D01*
X94488183Y45827723D01*
X94493333Y45763043D01*
X94477747Y45703279D01*
X94442401Y45652324D01*
X94391788Y45615815D01*
X94324946Y45593657D01*
X94260536Y45594370D01*
X94201992Y45616989D01*
X94152749Y45660548D01*
X94133554Y45688391D01*
X94077319Y45764036D01*
X94008749Y45819341D01*
X93926860Y45854846D01*
X93830669Y45871089D01*
X93797805Y45872297D01*
X93715141Y45867860D01*
X93647490Y45850913D01*
X93587639Y45818613D01*
X93528375Y45768111D01*
X93524824Y45764584D01*
X93467794Y45692188D01*
X93430141Y45610987D01*
X93412099Y45525032D01*
X93413901Y45438375D01*
X93435779Y45355068D01*
X93477964Y45279164D01*
X93495708Y45257193D01*
X93519191Y45235009D01*
X93560389Y45201084D01*
X93616920Y45157219D01*
X93686404Y45105220D01*
X93766455Y45046889D01*
X93854694Y44984030D01*
X93880700Y44965754D01*
X93963818Y44906944D01*
X94043327Y44849616D01*
X94116299Y44795962D01*
X94179805Y44748172D01*
X94230917Y44708440D01*
X94266707Y44678958D01*
X94279422Y44667286D01*
X94363237Y44569982D01*
X94427908Y44463429D01*
X94469351Y44365134D01*
X94484543Y44320526D01*
X94494889Y44283131D01*
X94501321Y44246233D01*
X94504772Y44203115D01*
X94506174Y44147061D01*
X94506432Y44097996D01*
X94503355Y43992771D01*
X94492540Y43904502D01*
X94472241Y43826657D01*
X94440712Y43752708D01*
X94396208Y43676125D01*
X94391781Y43669302D01*
X94307717Y43561385D01*
X94208931Y43470434D01*
X94098151Y43397533D01*
X93978100Y43343769D01*
X93851505Y43310228D01*
X93721091Y43297997D01*
X93589582Y43308161D01*
X93521865Y43322606D01*
X93399443Y43365861D01*
X93284130Y43428305D01*
X93180391Y43506811D01*
X93092689Y43598252D01*
X93055073Y43649618D01*
X93018033Y43721367D01*
X93002328Y43789606D01*
X93007257Y43851786D01*
X93032120Y43905360D01*
X93076218Y43947779D01*
X93138850Y43976496D01*
X93145396Y43978328D01*
X93212512Y43986216D01*
X93271327Y43971415D01*
X93323002Y43933543D01*
X93339970Y43914326D01*
X93392247Y43851118D01*
X93435455Y43804199D01*
X93473842Y43769611D01*
X93511656Y43743392D01*
X93539800Y43728028D01*
X93578040Y43710464D01*
X93612049Y43699860D01*
X93650543Y43694488D01*
X93702240Y43692621D01*
X93719036Y43692496D01*
X93775008Y43693176D01*
X93815296Y43696880D01*
X93848414Y43705249D01*
X93882875Y43719926D01*
X93896633Y43726758D01*
X93975680Y43778469D01*
X94043569Y43845742D01*
X94090657Y43916221D01*
X94103875Y43945002D01*
X94112268Y43974177D01*
X94116871Y44010404D01*
X94118721Y44060342D01*
X94118941Y44097996D01*
X94118438Y44156669D01*
X94116073Y44197991D01*
X94110557Y44228841D01*
X94100603Y44256099D01*
X94084923Y44286644D01*
X94082972Y44290178D01*
X94070672Y44311696D01*
X94058006Y44331203D01*
X94043007Y44350313D01*
X94023708Y44370641D01*
X93998140Y44393801D01*
X93964338Y44421408D01*
X93920332Y44455076D01*
X93864155Y44496420D01*
X93793841Y44547054D01*
X93707421Y44608592D01*
X93615685Y44673616D01*
X93518091Y44743437D01*
X93430611Y44807434D01*
X93355216Y44864098D01*
X93293877Y44911921D01*
X93248565Y44949395D01*
X93221251Y44975011D01*
X93219840Y44976574D01*
X93145757Y45076977D01*
X93086121Y45192849D01*
X93056719Y45273473D01*
X93036402Y45365770D01*
X93027360Y45468685D01*
X93029626Y45573162D01*
X93043230Y45670144D01*
X93055169Y45715792D01*
X93106363Y45838195D01*
X93177896Y45950208D01*
X93267166Y46049266D01*
X93371575Y46132806D01*
X93488523Y46198265D01*
X93579676Y46232961D01*
X93629104Y46246560D01*
X93676420Y46255019D01*
X93729966Y46259337D01*
X93798086Y46260509D01*
X93809924Y46260476D01*
G37*
G36*
X92630300Y46243328D02*
G01*
X92681428Y46210728D01*
X92719637Y46164025D01*
X92740714Y46106392D01*
X92743511Y46074727D01*
X92740110Y46060141D01*
X92730211Y46023887D01*
X92714274Y45967515D01*
X92692759Y45892573D01*
X92666124Y45800611D01*
X92634830Y45693178D01*
X92599336Y45571824D01*
X92560100Y45438097D01*
X92517583Y45293546D01*
X92472243Y45139721D01*
X92424541Y44978171D01*
X92374935Y44810445D01*
X92323884Y44638092D01*
X92271849Y44462661D01*
X92219288Y44285702D01*
X92166662Y44108763D01*
X92114428Y43933395D01*
X92063047Y43761145D01*
X92012978Y43593564D01*
X91964680Y43432200D01*
X91918613Y43278603D01*
X91875236Y43134321D01*
X91835009Y43000904D01*
X91798390Y42879901D01*
X91765839Y42772861D01*
X91737816Y42681334D01*
X91724367Y42637738D01*
X91687143Y42530108D01*
X91646728Y42440726D01*
X91599723Y42363609D01*
X91542729Y42292768D01*
X91507602Y42256011D01*
X91396614Y42161292D01*
X91276017Y42088288D01*
X91147033Y42037564D01*
X91010887Y42009689D01*
X90968177Y42005824D01*
X90916292Y42003455D01*
X90880044Y42005233D01*
X90851012Y42012389D01*
X90820771Y42026152D01*
X90817595Y42027814D01*
X90764873Y42067898D01*
X90732043Y42121594D01*
X90719818Y42187693D01*
X90719752Y42193399D01*
X90727824Y42259445D01*
X90752907Y42311102D01*
X90796297Y42349529D01*
X90859293Y42375884D01*
X90941366Y42391121D01*
X91050763Y42413264D01*
X91143984Y42453432D01*
X91221111Y42511678D01*
X91282228Y42588055D01*
X91298037Y42615610D01*
X91312275Y42647683D01*
X91331144Y42697830D01*
X91353664Y42762763D01*
X91378856Y42839190D01*
X91405740Y42923822D01*
X91433336Y43013369D01*
X91460665Y43104541D01*
X91486748Y43194048D01*
X91510604Y43278599D01*
X91531254Y43354905D01*
X91547719Y43419675D01*
X91559018Y43469621D01*
X91564174Y43501450D01*
X91564162Y43509423D01*
X91559866Y43525976D01*
X91549067Y43564148D01*
X91532235Y43622348D01*
X91509842Y43698983D01*
X91482357Y43792462D01*
X91450252Y43901193D01*
X91413998Y44023582D01*
X91374064Y44158039D01*
X91330922Y44302972D01*
X91285043Y44456787D01*
X91236897Y44617894D01*
X91198452Y44746326D01*
X91148664Y44912611D01*
X91100608Y45073262D01*
X91054771Y45226643D01*
X91011640Y45371117D01*
X90971702Y45505049D01*
X90935444Y45626802D01*
X90903353Y45734739D01*
X90875916Y45827225D01*
X90853621Y45902622D01*
X90836953Y45959296D01*
X90826401Y45995608D01*
X90822806Y46008445D01*
X90813826Y46080643D01*
X90827148Y46143651D01*
X90862936Y46198149D01*
X90870905Y46206268D01*
X90922729Y46241554D01*
X90981385Y46257602D01*
X91041455Y46255199D01*
X91097522Y46235132D01*
X91144168Y46198190D01*
X91168130Y46163072D01*
X91174300Y46146194D01*
X91186798Y46107853D01*
X91205082Y46049829D01*
X91228610Y45973900D01*
X91256839Y45881847D01*
X91289227Y45775449D01*
X91325231Y45656485D01*
X91364310Y45526735D01*
X91405920Y45387977D01*
X91449520Y45241993D01*
X91477147Y45149191D01*
X91521382Y45000655D01*
X91563711Y44858978D01*
X91603619Y44725856D01*
X91640591Y44602984D01*
X91674113Y44492058D01*
X91703670Y44394774D01*
X91728747Y44312828D01*
X91748829Y44247916D01*
X91763403Y44201733D01*
X91771953Y44175974D01*
X91774046Y44170986D01*
X91778398Y44182296D01*
X91789170Y44215081D01*
X91805824Y44267600D01*
X91827825Y44338110D01*
X91854638Y44424869D01*
X91885726Y44526136D01*
X91920554Y44640168D01*
X91958586Y44765224D01*
X91999287Y44899562D01*
X92042119Y45041439D01*
X92058203Y45094841D01*
X92102276Y45241249D01*
X92144771Y45382398D01*
X92185106Y45516352D01*
X92222698Y45641176D01*
X92256963Y45754933D01*
X92287318Y45855688D01*
X92313181Y45941505D01*
X92333968Y46010450D01*
X92349096Y46060585D01*
X92357982Y46089977D01*
X92359247Y46094142D01*
X92389911Y46165710D01*
X92432481Y46216674D01*
X92487881Y46248038D01*
X92506140Y46253525D01*
X92570466Y46258652D01*
X92630300Y46243328D01*
G37*
G36*
X78022917Y46198892D02*
G01*
X78123939Y46157915D01*
X78208906Y46111572D01*
X78286001Y46054767D01*
X78352090Y45993812D01*
X78440107Y45892730D01*
X78508528Y45783044D01*
X78561212Y45658545D01*
X78562357Y45655200D01*
X78595372Y45558253D01*
X78595372Y44782681D01*
X78595372Y44007108D01*
X78562357Y43910162D01*
X78510016Y43785215D01*
X78442034Y43675235D01*
X78354553Y43574014D01*
X78352090Y43571550D01*
X78274445Y43501064D01*
X78196000Y43445784D01*
X78108479Y43400568D01*
X78022917Y43366961D01*
X77989863Y43355449D01*
X77961441Y43346526D01*
X77933895Y43339807D01*
X77903470Y43334907D01*
X77866409Y43331440D01*
X77818956Y43329021D01*
X77757355Y43327266D01*
X77677851Y43325789D01*
X77611086Y43324738D01*
X77305427Y43320013D01*
X77302069Y42722239D01*
X77301279Y42586422D01*
X77300502Y42472734D01*
X77299644Y42379071D01*
X77298612Y42303325D01*
X77297309Y42243390D01*
X77295641Y42197160D01*
X77293515Y42162528D01*
X77290835Y42137389D01*
X77287506Y42119635D01*
X77283435Y42107160D01*
X77278526Y42097859D01*
X77273726Y42091011D01*
X77245652Y42059308D01*
X77217067Y42033908D01*
X77176412Y42015160D01*
X77123913Y42006034D01*
X77070352Y42007459D01*
X77031508Y42017901D01*
X76987721Y42047513D01*
X76950323Y42090017D01*
X76926541Y42136588D01*
X76923087Y42150333D01*
X76922339Y42166595D01*
X76921654Y42205785D01*
X76921037Y42266596D01*
X76920489Y42347721D01*
X76920012Y42447849D01*
X76919608Y42565675D01*
X76919281Y42699890D01*
X76919032Y42849186D01*
X76918863Y43012255D01*
X76918777Y43187789D01*
X76918776Y43374480D01*
X76918863Y43571021D01*
X76919039Y43776103D01*
X76919307Y43988418D01*
X76919575Y44154671D01*
X76920029Y44410040D01*
X76920455Y44642290D01*
X76920733Y44782681D01*
X77304771Y44782681D01*
X77304771Y43710210D01*
X77564235Y43710210D01*
X77655010Y43710514D01*
X77725518Y43711605D01*
X77779724Y43713751D01*
X77821593Y43717220D01*
X77855089Y43722280D01*
X77884177Y43729198D01*
X77895662Y43732607D01*
X77991140Y43773699D01*
X78071679Y43833278D01*
X78138264Y43912224D01*
X78181677Y43988931D01*
X78187011Y44000612D01*
X78191558Y44012738D01*
X78195380Y44027235D01*
X78198541Y44046029D01*
X78201103Y44071047D01*
X78203129Y44104214D01*
X78204681Y44147457D01*
X78205824Y44202701D01*
X78206619Y44271873D01*
X78207130Y44356898D01*
X78207419Y44459703D01*
X78207550Y44582213D01*
X78207585Y44726355D01*
X78207586Y44782681D01*
X78207570Y44934907D01*
X78207480Y45064823D01*
X78207254Y45174354D01*
X78206829Y45265427D01*
X78206141Y45339967D01*
X78205128Y45399900D01*
X78203727Y45447154D01*
X78201875Y45483653D01*
X78199509Y45511323D01*
X78196567Y45532092D01*
X78192985Y45547884D01*
X78188700Y45560626D01*
X78183651Y45572244D01*
X78181677Y45576431D01*
X78125429Y45671314D01*
X78056004Y45746132D01*
X77972418Y45801767D01*
X77895662Y45832755D01*
X77867232Y45840507D01*
X77836008Y45846290D01*
X77798025Y45850374D01*
X77749317Y45853026D01*
X77685921Y45854514D01*
X77603871Y45855106D01*
X77564235Y45855152D01*
X77304771Y45855152D01*
X77304771Y44782681D01*
X76920733Y44782681D01*
X76920871Y44852538D01*
X76921292Y45041903D01*
X76921735Y45211501D01*
X76922214Y45362450D01*
X76922747Y45495868D01*
X76923348Y45612872D01*
X76924034Y45714579D01*
X76924821Y45802108D01*
X76925464Y45855152D01*
X76925724Y45876575D01*
X76926760Y45939098D01*
X76927945Y45990796D01*
X76929293Y46032784D01*
X76930822Y46066182D01*
X76932548Y46092106D01*
X76934485Y46111673D01*
X76936650Y46126002D01*
X76939059Y46136210D01*
X76941728Y46143415D01*
X76944673Y46148733D01*
X76947909Y46153283D01*
X76948029Y46153445D01*
X76976890Y46185786D01*
X77006510Y46211894D01*
X77016096Y46218433D01*
X77027198Y46223719D01*
X77042325Y46227887D01*
X77063988Y46231068D01*
X77094696Y46233395D01*
X77136959Y46235001D01*
X77193288Y46236020D01*
X77266191Y46236584D01*
X77358180Y46236826D01*
X77471763Y46236879D01*
X77478376Y46236879D01*
X77916746Y46236879D01*
X78022917Y46198892D01*
G37*
G36*
X87669101Y46198892D02*
G01*
X87770122Y46157915D01*
X87855089Y46111572D01*
X87932184Y46054767D01*
X87998273Y45993812D01*
X88086290Y45892730D01*
X88154712Y45783044D01*
X88207395Y45658545D01*
X88208540Y45655200D01*
X88241555Y45558253D01*
X88241555Y44782681D01*
X88241555Y44007108D01*
X88208540Y43910162D01*
X88156200Y43785215D01*
X88088217Y43675235D01*
X88000736Y43574014D01*
X87998273Y43571550D01*
X87920628Y43501064D01*
X87842183Y43445784D01*
X87754662Y43400568D01*
X87669101Y43366961D01*
X87636046Y43355449D01*
X87607624Y43346526D01*
X87580079Y43339807D01*
X87549653Y43334907D01*
X87512592Y43331440D01*
X87465139Y43329021D01*
X87403538Y43327266D01*
X87324034Y43325789D01*
X87257270Y43324738D01*
X86951610Y43320013D01*
X86948253Y42722239D01*
X86947462Y42586422D01*
X86946685Y42472734D01*
X86945828Y42379071D01*
X86944795Y42303325D01*
X86943492Y42243390D01*
X86941824Y42197160D01*
X86939698Y42162528D01*
X86937018Y42137389D01*
X86933689Y42119635D01*
X86929618Y42107160D01*
X86924709Y42097859D01*
X86919910Y42091011D01*
X86891835Y42059308D01*
X86863250Y42033908D01*
X86822595Y42015160D01*
X86770096Y42006034D01*
X86716535Y42007459D01*
X86677691Y42017901D01*
X86633904Y42047513D01*
X86596506Y42090017D01*
X86572724Y42136588D01*
X86569270Y42150333D01*
X86568522Y42166595D01*
X86567838Y42205785D01*
X86567220Y42266596D01*
X86566672Y42347721D01*
X86566195Y42447849D01*
X86565791Y42565675D01*
X86565464Y42699890D01*
X86565215Y42849186D01*
X86565046Y43012255D01*
X86564960Y43187789D01*
X86564959Y43374480D01*
X86565046Y43571021D01*
X86565222Y43776103D01*
X86565490Y43988418D01*
X86565759Y44154671D01*
X86566212Y44410040D01*
X86566638Y44642290D01*
X86566916Y44782681D01*
X86950954Y44782681D01*
X86950954Y43710210D01*
X87210418Y43710210D01*
X87301193Y43710514D01*
X87371701Y43711605D01*
X87425907Y43713751D01*
X87467776Y43717220D01*
X87501272Y43722280D01*
X87530360Y43729198D01*
X87541845Y43732607D01*
X87637323Y43773699D01*
X87717862Y43833278D01*
X87784447Y43912224D01*
X87827860Y43988931D01*
X87833194Y44000612D01*
X87837741Y44012738D01*
X87841563Y44027235D01*
X87844724Y44046029D01*
X87847286Y44071047D01*
X87849312Y44104214D01*
X87850865Y44147457D01*
X87852007Y44202701D01*
X87852803Y44271873D01*
X87853313Y44356898D01*
X87853603Y44459703D01*
X87853733Y44582213D01*
X87853768Y44726355D01*
X87853769Y44782681D01*
X87853753Y44934907D01*
X87853664Y45064823D01*
X87853437Y45174354D01*
X87853012Y45265427D01*
X87852324Y45339967D01*
X87851311Y45399900D01*
X87849910Y45447154D01*
X87848058Y45483653D01*
X87845692Y45511323D01*
X87842750Y45532092D01*
X87839168Y45547884D01*
X87834884Y45560626D01*
X87829834Y45572244D01*
X87827860Y45576431D01*
X87771613Y45671314D01*
X87702187Y45746132D01*
X87618601Y45801767D01*
X87541845Y45832755D01*
X87513416Y45840507D01*
X87482192Y45846290D01*
X87444208Y45850374D01*
X87395500Y45853026D01*
X87332104Y45854514D01*
X87250054Y45855106D01*
X87210418Y45855152D01*
X86950954Y45855152D01*
X86950954Y44782681D01*
X86566916Y44782681D01*
X86567054Y44852538D01*
X86567476Y45041903D01*
X86567918Y45211501D01*
X86568397Y45362450D01*
X86568930Y45495868D01*
X86569531Y45612872D01*
X86570217Y45714579D01*
X86571004Y45802108D01*
X86571647Y45855152D01*
X86571907Y45876575D01*
X86572943Y45939098D01*
X86574128Y45990796D01*
X86575477Y46032784D01*
X86577006Y46066182D01*
X86578731Y46092106D01*
X86580668Y46111673D01*
X86582833Y46126002D01*
X86585242Y46136210D01*
X86587911Y46143415D01*
X86590856Y46148733D01*
X86594092Y46153283D01*
X86594212Y46153445D01*
X86623073Y46185786D01*
X86652693Y46211894D01*
X86662279Y46218433D01*
X86673381Y46223719D01*
X86688508Y46227887D01*
X86710171Y46231068D01*
X86740879Y46233395D01*
X86783143Y46235001D01*
X86839471Y46236020D01*
X86912375Y46236584D01*
X87004363Y46236826D01*
X87117946Y46236879D01*
X87124559Y46236879D01*
X87562929Y46236879D01*
X87669101Y46198892D01*
G37*
G36*
X85078670Y54788825D02*
G01*
X85160789Y54759440D01*
X85171954Y54753587D01*
X85226138Y54716564D01*
X85268853Y54668680D01*
X85304327Y54604577D01*
X85320437Y54565386D01*
X85327567Y54547333D01*
X85343295Y54508073D01*
X85367113Y54448859D01*
X85398513Y54370945D01*
X85436988Y54275585D01*
X85482030Y54164033D01*
X85533132Y54037542D01*
X85589784Y53897367D01*
X85651481Y53744761D01*
X85717714Y53580978D01*
X85787975Y53407271D01*
X85861757Y53224896D01*
X85938552Y53035104D01*
X86017853Y52839151D01*
X86099151Y52638289D01*
X86181939Y52433774D01*
X86265710Y52226858D01*
X86349955Y52018795D01*
X86434168Y51810839D01*
X86517839Y51604244D01*
X86600463Y51400264D01*
X86681530Y51200152D01*
X86760533Y51005163D01*
X86836965Y50816550D01*
X86910318Y50635567D01*
X86980084Y50463467D01*
X87045755Y50301505D01*
X87106824Y50150934D01*
X87162783Y50013009D01*
X87213125Y49888982D01*
X87257341Y49780108D01*
X87294925Y49687640D01*
X87325367Y49612833D01*
X87348162Y49556940D01*
X87362800Y49521214D01*
X87367944Y49508826D01*
X87393334Y49426053D01*
X87396526Y49345967D01*
X87377752Y49262068D01*
X87376799Y49259268D01*
X87370889Y49240332D01*
X87358808Y49200155D01*
X87341151Y49140770D01*
X87318510Y49064209D01*
X87291481Y48972505D01*
X87260656Y48867690D01*
X87226630Y48751797D01*
X87189997Y48626859D01*
X87151349Y48494908D01*
X87111282Y48357977D01*
X87070388Y48218098D01*
X87029263Y48077304D01*
X86988498Y47937627D01*
X86948689Y47801101D01*
X86910430Y47669757D01*
X86874313Y47545629D01*
X86840933Y47430748D01*
X86810883Y47327148D01*
X86784758Y47236861D01*
X86763152Y47161920D01*
X86746657Y47104357D01*
X86735869Y47066204D01*
X86732465Y47053792D01*
X86702836Y46986996D01*
X86654641Y46929759D01*
X86592533Y46884691D01*
X86521167Y46854404D01*
X86445195Y46841507D01*
X86369271Y46848610D01*
X86367470Y46849052D01*
X86326614Y46862334D01*
X86283247Y46880753D01*
X86276582Y46884072D01*
X86261782Y46890572D01*
X86225448Y46905981D01*
X86168442Y46929942D01*
X86091624Y46962098D01*
X85995857Y47002089D01*
X85882001Y47049559D01*
X85750918Y47104150D01*
X85603469Y47165503D01*
X85440515Y47233262D01*
X85262917Y47307068D01*
X85071537Y47386564D01*
X84867236Y47471391D01*
X84650875Y47561193D01*
X84423315Y47655610D01*
X84185418Y47754286D01*
X83938045Y47856863D01*
X83682057Y47962983D01*
X83418316Y48072287D01*
X83147682Y48184419D01*
X82871017Y48299021D01*
X82715601Y48363385D01*
X82436004Y48479172D01*
X82161973Y48592659D01*
X81894368Y48703490D01*
X81634048Y48811307D01*
X81381876Y48915754D01*
X81138711Y49016476D01*
X80905414Y49113114D01*
X80682845Y49205313D01*
X80471865Y49292717D01*
X80273334Y49374968D01*
X80088113Y49451710D01*
X79917063Y49522587D01*
X79761043Y49587242D01*
X79684893Y49618802D01*
X81270419Y49618802D01*
X81281044Y49613912D01*
X81312748Y49600309D01*
X81364213Y49578541D01*
X81434121Y49549153D01*
X81521152Y49512694D01*
X81623989Y49469709D01*
X81741313Y49420747D01*
X81871805Y49366352D01*
X82014147Y49307073D01*
X82167020Y49243456D01*
X82329106Y49176048D01*
X82499085Y49105396D01*
X82675640Y49032046D01*
X82857452Y48956546D01*
X83043202Y48879441D01*
X83231571Y48801280D01*
X83421242Y48722609D01*
X83610896Y48643974D01*
X83799213Y48565923D01*
X83984876Y48489002D01*
X84166566Y48413758D01*
X84342964Y48340738D01*
X84512751Y48270488D01*
X84674610Y48203557D01*
X84827222Y48140489D01*
X84969267Y48081833D01*
X85099428Y48028135D01*
X85216386Y47979942D01*
X85318822Y47937800D01*
X85405418Y47902257D01*
X85474855Y47873859D01*
X85525815Y47853153D01*
X85556978Y47840686D01*
X85567043Y47836967D01*
X85560729Y47846992D01*
X85541318Y47875141D01*
X85509900Y47919887D01*
X85467561Y47979700D01*
X85415392Y48053053D01*
X85354480Y48138419D01*
X85285915Y48234270D01*
X85210785Y48339077D01*
X85130178Y48451314D01*
X85045184Y48569451D01*
X85040840Y48575484D01*
X84955323Y48694054D01*
X84873741Y48806822D01*
X84797220Y48912250D01*
X84726888Y49008800D01*
X84663873Y49094935D01*
X84609303Y49169118D01*
X84564306Y49229811D01*
X84561607Y49233404D01*
X85320300Y49233404D01*
X85325764Y49222542D01*
X85343999Y49194197D01*
X85373531Y49150497D01*
X85412885Y49093567D01*
X85460588Y49025535D01*
X85515165Y48948527D01*
X85575144Y48864669D01*
X85594794Y48837351D01*
X85656374Y48752074D01*
X85713473Y48673427D01*
X85764566Y48603478D01*
X85808128Y48544298D01*
X85842633Y48497954D01*
X85866555Y48466518D01*
X85878369Y48452057D01*
X85879341Y48451351D01*
X85878056Y48463727D01*
X85872614Y48496980D01*
X85863542Y48548210D01*
X85851371Y48614514D01*
X85836627Y48692990D01*
X85819840Y48780737D01*
X85811679Y48822887D01*
X85793848Y48914003D01*
X85777318Y48997222D01*
X85762690Y49069625D01*
X85750562Y49128293D01*
X85749269Y49134311D01*
X86372447Y49134311D01*
X86372893Y49121269D01*
X86377481Y49088278D01*
X86385517Y49038975D01*
X86396309Y48976995D01*
X86409164Y48905972D01*
X86423388Y48829542D01*
X86438288Y48751341D01*
X86453172Y48675003D01*
X86467347Y48604165D01*
X86480118Y48542460D01*
X86490793Y48493526D01*
X86498680Y48460996D01*
X86503084Y48448506D01*
X86503207Y48448473D01*
X86508400Y48459631D01*
X86519303Y48491120D01*
X86534981Y48539964D01*
X86554502Y48603184D01*
X86576932Y48677804D01*
X86601337Y48760846D01*
X86603579Y48768562D01*
X86627923Y48852845D01*
X86649883Y48929639D01*
X86668588Y48995834D01*
X86683165Y49048318D01*
X86692744Y49083982D01*
X86696452Y49099717D01*
X86696469Y49099995D01*
X86685278Y49104742D01*
X86655297Y49110567D01*
X86611917Y49116900D01*
X86560531Y49123170D01*
X86506528Y49128806D01*
X86455301Y49133237D01*
X86412239Y49135893D01*
X86382735Y49136201D01*
X86372447Y49134311D01*
X85749269Y49134311D01*
X85741534Y49170306D01*
X85736203Y49192747D01*
X85735172Y49195680D01*
X85721490Y49198958D01*
X85688662Y49203519D01*
X85641549Y49208922D01*
X85585015Y49214725D01*
X85523921Y49220484D01*
X85463129Y49225759D01*
X85407500Y49230107D01*
X85361898Y49233085D01*
X85331182Y49234253D01*
X85320300Y49233404D01*
X84561607Y49233404D01*
X84530008Y49275477D01*
X84507539Y49304578D01*
X84498025Y49315576D01*
X84497937Y49315616D01*
X84484332Y49317331D01*
X84448410Y49321110D01*
X84391877Y49326794D01*
X84316438Y49334221D01*
X84223802Y49343232D01*
X84115673Y49353665D01*
X83993759Y49365362D01*
X83859765Y49378162D01*
X83715398Y49391903D01*
X83562366Y49406427D01*
X83402373Y49421572D01*
X83237126Y49437179D01*
X83068332Y49453087D01*
X82897697Y49469136D01*
X82726927Y49485165D01*
X82557729Y49501014D01*
X82391810Y49516524D01*
X82230875Y49531533D01*
X82076631Y49545881D01*
X81930784Y49559408D01*
X81795042Y49571955D01*
X81671109Y49583359D01*
X81560693Y49593462D01*
X81465499Y49602103D01*
X81387235Y49609121D01*
X81327607Y49614356D01*
X81288320Y49617649D01*
X81271082Y49618838D01*
X81270419Y49618802D01*
X79684893Y49618802D01*
X79620914Y49645318D01*
X79497537Y49696460D01*
X79391773Y49740310D01*
X79304481Y49776512D01*
X79236522Y49804710D01*
X79188757Y49824547D01*
X79162046Y49835666D01*
X79156620Y49837945D01*
X79088230Y49879802D01*
X79035366Y49937677D01*
X78999773Y50007650D01*
X78983197Y50085801D01*
X78987384Y50168212D01*
X78995050Y50200759D01*
X79005885Y50233684D01*
X79019281Y50261287D01*
X79039020Y50288693D01*
X79068883Y50321026D01*
X79101531Y50352640D01*
X80001665Y50352640D01*
X80001668Y50352498D01*
X80014249Y50350656D01*
X80049701Y50346662D01*
X80106763Y50340642D01*
X80184177Y50332717D01*
X80280683Y50323012D01*
X80395022Y50311649D01*
X80525934Y50298752D01*
X80672159Y50284444D01*
X80832439Y50268848D01*
X81005514Y50252088D01*
X81190124Y50234286D01*
X81385010Y50215566D01*
X81588913Y50196051D01*
X81800573Y50175865D01*
X82010258Y50155935D01*
X82228246Y50135247D01*
X82439726Y50115172D01*
X82643436Y50095830D01*
X82838112Y50077342D01*
X83022494Y50059826D01*
X83195318Y50043404D01*
X83355323Y50028196D01*
X83501246Y50014320D01*
X83631825Y50001898D01*
X83745797Y49991049D01*
X83841901Y49981894D01*
X83918874Y49974552D01*
X83975454Y49969143D01*
X84010379Y49965788D01*
X84022360Y49964610D01*
X84029167Y49971643D01*
X84028419Y49975208D01*
X84020953Y49986386D01*
X84000185Y50016006D01*
X83966989Y50062848D01*
X83922237Y50125695D01*
X83866803Y50203327D01*
X83801557Y50294527D01*
X83727375Y50398076D01*
X83645127Y50512755D01*
X83555688Y50637347D01*
X83459929Y50770631D01*
X83358725Y50911391D01*
X83252946Y51058407D01*
X83176097Y51165151D01*
X83066905Y51316789D01*
X82961173Y51463628D01*
X82929631Y51507436D01*
X83681037Y51507436D01*
X83683041Y51500986D01*
X83697572Y51477591D01*
X83722856Y51439873D01*
X83757116Y51390453D01*
X83798578Y51331954D01*
X83821078Y51300641D01*
X83857784Y51249731D01*
X83906722Y51181787D01*
X83965982Y51099462D01*
X84033657Y51005407D01*
X84107839Y50902275D01*
X84186621Y50792718D01*
X84268095Y50679388D01*
X84350353Y50564936D01*
X84399550Y50496469D01*
X84475630Y50390608D01*
X84547558Y50290579D01*
X84614080Y50198122D01*
X84673943Y50114978D01*
X84725892Y50042885D01*
X84768674Y49983584D01*
X84801035Y49938816D01*
X84821721Y49910319D01*
X84829437Y49899881D01*
X84842444Y49897001D01*
X84876042Y49892183D01*
X84926696Y49885804D01*
X84990870Y49878240D01*
X85065029Y49869868D01*
X85145639Y49861065D01*
X85229164Y49852208D01*
X85312069Y49843674D01*
X85390819Y49835840D01*
X85461879Y49829083D01*
X85521713Y49823779D01*
X85566787Y49820306D01*
X85585927Y49819231D01*
X85610040Y49820859D01*
X85616268Y49832212D01*
X85614114Y49845109D01*
X85609113Y49869022D01*
X85601268Y49909603D01*
X85591956Y49959657D01*
X85587999Y49981440D01*
X85578584Y50032257D01*
X85570102Y50075538D01*
X85563886Y50104583D01*
X85562219Y50111102D01*
X85552139Y50120068D01*
X85524162Y50142184D01*
X85479919Y50176243D01*
X85421038Y50221034D01*
X85349149Y50275350D01*
X85265880Y50337979D01*
X85172860Y50407715D01*
X85071718Y50483347D01*
X84964083Y50563667D01*
X84851583Y50647465D01*
X84735849Y50733532D01*
X84618508Y50820659D01*
X84501189Y50907638D01*
X84385522Y50993258D01*
X84273136Y51076312D01*
X84165658Y51155589D01*
X84064719Y51229882D01*
X83971947Y51297979D01*
X83888971Y51358674D01*
X83817420Y51410756D01*
X83758923Y51453016D01*
X83715109Y51484246D01*
X83687606Y51503236D01*
X83681037Y51507436D01*
X82929631Y51507436D01*
X82859820Y51604393D01*
X82763765Y51737807D01*
X82673926Y51862595D01*
X82591222Y51977481D01*
X82516570Y52081189D01*
X82450890Y52172442D01*
X82395099Y52249966D01*
X82350117Y52312483D01*
X82316862Y52358719D01*
X82296252Y52387396D01*
X82290055Y52396040D01*
X82252295Y52448931D01*
X81123689Y51404007D01*
X80983631Y51274237D01*
X80848680Y51149006D01*
X80719886Y51029300D01*
X80598299Y50916101D01*
X80484969Y50810396D01*
X80380948Y50713169D01*
X80287285Y50625403D01*
X80205031Y50548084D01*
X80135237Y50482195D01*
X80078953Y50428722D01*
X80037229Y50388649D01*
X80011116Y50362960D01*
X80001665Y50352640D01*
X79101531Y50352640D01*
X79112652Y50363409D01*
X79120658Y50370957D01*
X79141651Y50390568D01*
X79179361Y50425634D01*
X79232712Y50475158D01*
X79300624Y50538140D01*
X79382020Y50613583D01*
X79475822Y50700489D01*
X79580952Y50797859D01*
X79696331Y50904695D01*
X79820883Y51019999D01*
X79953529Y51142772D01*
X80093190Y51272017D01*
X80238790Y51406734D01*
X80389250Y51545927D01*
X80543492Y51688595D01*
X80558540Y51702513D01*
X80713198Y51845585D01*
X80864232Y51985365D01*
X81010559Y52120848D01*
X81151095Y52251029D01*
X81284758Y52374903D01*
X81410465Y52491465D01*
X81527132Y52599708D01*
X81633677Y52698630D01*
X81729017Y52787223D01*
X81812068Y52864483D01*
X81881748Y52929404D01*
X81936973Y52980982D01*
X81976661Y53018212D01*
X81999728Y53040087D01*
X82000943Y53041260D01*
X82065782Y53101575D01*
X82119828Y53145338D01*
X82167437Y53174914D01*
X82212965Y53192669D01*
X82260768Y53200968D01*
X82297685Y53202419D01*
X82329955Y53201832D01*
X82358220Y53198976D01*
X82385579Y53192206D01*
X82415134Y53179879D01*
X82449982Y53160350D01*
X82493223Y53131976D01*
X82547959Y53093113D01*
X82617287Y53042116D01*
X82660474Y53010003D01*
X82722746Y52963733D01*
X82799057Y52907210D01*
X82888077Y52841411D01*
X82988477Y52767310D01*
X83098927Y52685884D01*
X83218096Y52598107D01*
X83344655Y52504956D01*
X83477274Y52407406D01*
X83614623Y52306433D01*
X83755371Y52203012D01*
X83898190Y52098119D01*
X84041749Y51992730D01*
X84184719Y51887820D01*
X84325768Y51784365D01*
X84463569Y51683340D01*
X84596789Y51585722D01*
X84724100Y51492485D01*
X84844172Y51404605D01*
X84955674Y51323059D01*
X85057278Y51248821D01*
X85147652Y51182867D01*
X85225467Y51126173D01*
X85289393Y51079715D01*
X85338100Y51044468D01*
X85370259Y51021407D01*
X85384538Y51011509D01*
X85385155Y51011198D01*
X85383299Y51023263D01*
X85377064Y51057782D01*
X85366706Y51113420D01*
X85352481Y51188843D01*
X85334645Y51282714D01*
X85313455Y51393700D01*
X85302952Y51448520D01*
X85923680Y51448520D01*
X85924815Y51435942D01*
X85930131Y51402108D01*
X85939169Y51349555D01*
X85951475Y51280814D01*
X85966592Y51198422D01*
X85984063Y51104913D01*
X86003433Y51002819D01*
X86011460Y50960927D01*
X86034593Y50840829D01*
X86053781Y50742277D01*
X86069585Y50663002D01*
X86082564Y50600738D01*
X86093281Y50553215D01*
X86102294Y50518165D01*
X86110166Y50493321D01*
X86117455Y50476414D01*
X86124724Y50465176D01*
X86132531Y50457339D01*
X86136721Y50454055D01*
X86159385Y50437141D01*
X86196128Y50409693D01*
X86241619Y50375695D01*
X86284407Y50343706D01*
X86329519Y50310576D01*
X86367175Y50284057D01*
X86393434Y50266847D01*
X86404350Y50261638D01*
X86400853Y50273305D01*
X86389042Y50305337D01*
X86369738Y50355648D01*
X86343761Y50422154D01*
X86311933Y50502770D01*
X86275074Y50595412D01*
X86234006Y50697995D01*
X86189550Y50808433D01*
X86168883Y50859580D01*
X86123040Y50972590D01*
X86079880Y51078377D01*
X86040256Y51174892D01*
X86005022Y51260086D01*
X85975028Y51331912D01*
X85951130Y51388320D01*
X85934179Y51427263D01*
X85925028Y51446692D01*
X85923680Y51448520D01*
X85302952Y51448520D01*
X85298454Y51471994D01*
X85908779Y51471994D01*
X85914838Y51465935D01*
X85920897Y51471994D01*
X85914838Y51478053D01*
X85908779Y51471994D01*
X85298454Y51471994D01*
X85289167Y51520464D01*
X85262037Y51661672D01*
X85232320Y51815989D01*
X85200274Y51982080D01*
X85166154Y52158609D01*
X85130216Y52344242D01*
X85092717Y52537643D01*
X85058159Y52715626D01*
X85004315Y52993298D01*
X84955290Y53247281D01*
X84911072Y53477636D01*
X84871648Y53684424D01*
X84837009Y53867707D01*
X84807142Y54027545D01*
X84782036Y54164001D01*
X84761679Y54277135D01*
X84746061Y54367009D01*
X84735169Y54433684D01*
X84728994Y54477221D01*
X84727440Y54495515D01*
X84737139Y54581060D01*
X84766970Y54653373D01*
X84817342Y54713304D01*
X84840915Y54732255D01*
X84917875Y54775177D01*
X84997413Y54794052D01*
X85078670Y54788825D01*
G37*
%TO.C,J1*%
G36*
X48810000Y41900000D02*
G01*
X48110000Y41900000D01*
X48110000Y41700000D01*
X48810000Y41700000D01*
X48810000Y41900000D01*
G37*
G36*
X48810000Y41500000D02*
G01*
X48110000Y41500000D01*
X48110000Y41300000D01*
X48810000Y41300000D01*
X48810000Y41500000D01*
G37*
G36*
X48810000Y41100000D02*
G01*
X48110000Y41100000D01*
X48110000Y40900000D01*
X48810000Y40900000D01*
X48810000Y41100000D01*
G37*
G36*
X48810000Y40700000D02*
G01*
X48110000Y40700000D01*
X48110000Y40500000D01*
X48810000Y40500000D01*
X48810000Y40700000D01*
G37*
G36*
X48810000Y40300000D02*
G01*
X48110000Y40300000D01*
X48110000Y40100000D01*
X48810000Y40100000D01*
X48810000Y40300000D01*
G37*
G36*
X48810000Y39900000D02*
G01*
X48110000Y39900000D01*
X48110000Y39700000D01*
X48810000Y39700000D01*
X48810000Y39900000D01*
G37*
G36*
X48810000Y39500000D02*
G01*
X48110000Y39500000D01*
X48110000Y39300000D01*
X48810000Y39300000D01*
X48810000Y39500000D01*
G37*
G36*
X48810000Y39100000D02*
G01*
X48110000Y39100000D01*
X48110000Y38900000D01*
X48810000Y38900000D01*
X48810000Y39100000D01*
G37*
G36*
X48810000Y38700000D02*
G01*
X48110000Y38700000D01*
X48110000Y38500000D01*
X48810000Y38500000D01*
X48810000Y38700000D01*
G37*
G36*
X48810000Y38300000D02*
G01*
X48110000Y38300000D01*
X48110000Y38100000D01*
X48810000Y38100000D01*
X48810000Y38300000D01*
G37*
G36*
X48810000Y37900000D02*
G01*
X48110000Y37900000D01*
X48110000Y37700000D01*
X48810000Y37700000D01*
X48810000Y37900000D01*
G37*
G36*
X48810000Y37500000D02*
G01*
X48110000Y37500000D01*
X48110000Y37300000D01*
X48810000Y37300000D01*
X48810000Y37500000D01*
G37*
G36*
X48810000Y37100000D02*
G01*
X48110000Y37100000D01*
X48110000Y36900000D01*
X48810000Y36900000D01*
X48810000Y37100000D01*
G37*
G36*
X48810000Y36700000D02*
G01*
X48110000Y36700000D01*
X48110000Y36500000D01*
X48810000Y36500000D01*
X48810000Y36700000D01*
G37*
G36*
X48810000Y36300000D02*
G01*
X48110000Y36300000D01*
X48110000Y36100000D01*
X48810000Y36100000D01*
X48810000Y36300000D01*
G37*
G36*
X48810000Y35900000D02*
G01*
X48110000Y35900000D01*
X48110000Y35700000D01*
X48810000Y35700000D01*
X48810000Y35900000D01*
G37*
G36*
X48810000Y35500000D02*
G01*
X48110000Y35500000D01*
X48110000Y35300000D01*
X48810000Y35300000D01*
X48810000Y35500000D01*
G37*
G36*
X48810000Y35100000D02*
G01*
X48110000Y35100000D01*
X48110000Y34900000D01*
X48810000Y34900000D01*
X48810000Y35100000D01*
G37*
G36*
X48810000Y34700000D02*
G01*
X48110000Y34700000D01*
X48110000Y34500000D01*
X48810000Y34500000D01*
X48810000Y34700000D01*
G37*
G36*
X48810000Y34300000D02*
G01*
X48110000Y34300000D01*
X48110000Y34100000D01*
X48810000Y34100000D01*
X48810000Y34300000D01*
G37*
G36*
X48810000Y33900000D02*
G01*
X48110000Y33900000D01*
X48110000Y33700000D01*
X48810000Y33700000D01*
X48810000Y33900000D01*
G37*
G36*
X48810000Y33500000D02*
G01*
X48110000Y33500000D01*
X48110000Y33300000D01*
X48810000Y33300000D01*
X48810000Y33500000D01*
G37*
G36*
X48810000Y33100000D02*
G01*
X48110000Y33100000D01*
X48110000Y32900000D01*
X48810000Y32900000D01*
X48810000Y33100000D01*
G37*
G36*
X48810000Y32700000D02*
G01*
X48110000Y32700000D01*
X48110000Y32500000D01*
X48810000Y32500000D01*
X48810000Y32700000D01*
G37*
G36*
X48810000Y32300000D02*
G01*
X48110000Y32300000D01*
X48110000Y32100000D01*
X48810000Y32100000D01*
X48810000Y32300000D01*
G37*
G36*
X48810000Y31900000D02*
G01*
X48110000Y31900000D01*
X48110000Y31700000D01*
X48810000Y31700000D01*
X48810000Y31900000D01*
G37*
G36*
X48810000Y31500000D02*
G01*
X48110000Y31500000D01*
X48110000Y31300000D01*
X48810000Y31300000D01*
X48810000Y31500000D01*
G37*
G36*
X48810000Y31100000D02*
G01*
X48110000Y31100000D01*
X48110000Y30900000D01*
X48810000Y30900000D01*
X48810000Y31100000D01*
G37*
G36*
X48810000Y30700000D02*
G01*
X48110000Y30700000D01*
X48110000Y30500000D01*
X48810000Y30500000D01*
X48810000Y30700000D01*
G37*
G36*
X48810000Y30300000D02*
G01*
X48110000Y30300000D01*
X48110000Y30100000D01*
X48810000Y30100000D01*
X48810000Y30300000D01*
G37*
G36*
X48810000Y29900000D02*
G01*
X48110000Y29900000D01*
X48110000Y29700000D01*
X48810000Y29700000D01*
X48810000Y29900000D01*
G37*
G36*
X48810000Y29500000D02*
G01*
X48110000Y29500000D01*
X48110000Y29300000D01*
X48810000Y29300000D01*
X48810000Y29500000D01*
G37*
G36*
X48810000Y29100000D02*
G01*
X48110000Y29100000D01*
X48110000Y28900000D01*
X48810000Y28900000D01*
X48810000Y29100000D01*
G37*
G36*
X48810000Y28700000D02*
G01*
X48110000Y28700000D01*
X48110000Y28500000D01*
X48810000Y28500000D01*
X48810000Y28700000D01*
G37*
G36*
X51190000Y41700000D02*
G01*
X51890000Y41700000D01*
X51890000Y41900000D01*
X51190000Y41900000D01*
X51190000Y41700000D01*
G37*
G36*
X51190000Y41300000D02*
G01*
X51890000Y41300000D01*
X51890000Y41500000D01*
X51190000Y41500000D01*
X51190000Y41300000D01*
G37*
G36*
X51190000Y40900000D02*
G01*
X51890000Y40900000D01*
X51890000Y41100000D01*
X51190000Y41100000D01*
X51190000Y40900000D01*
G37*
G36*
X51190000Y40500000D02*
G01*
X51890000Y40500000D01*
X51890000Y40700000D01*
X51190000Y40700000D01*
X51190000Y40500000D01*
G37*
G36*
X51190000Y40100000D02*
G01*
X51890000Y40100000D01*
X51890000Y40300000D01*
X51190000Y40300000D01*
X51190000Y40100000D01*
G37*
G36*
X51190000Y39700000D02*
G01*
X51890000Y39700000D01*
X51890000Y39900000D01*
X51190000Y39900000D01*
X51190000Y39700000D01*
G37*
G36*
X51190000Y39300000D02*
G01*
X51890000Y39300000D01*
X51890000Y39500000D01*
X51190000Y39500000D01*
X51190000Y39300000D01*
G37*
G36*
X51190000Y38900000D02*
G01*
X51890000Y38900000D01*
X51890000Y39100000D01*
X51190000Y39100000D01*
X51190000Y38900000D01*
G37*
G36*
X51190000Y38500000D02*
G01*
X51890000Y38500000D01*
X51890000Y38700000D01*
X51190000Y38700000D01*
X51190000Y38500000D01*
G37*
G36*
X51190000Y38100000D02*
G01*
X51890000Y38100000D01*
X51890000Y38300000D01*
X51190000Y38300000D01*
X51190000Y38100000D01*
G37*
G36*
X51190000Y37700000D02*
G01*
X51890000Y37700000D01*
X51890000Y37900000D01*
X51190000Y37900000D01*
X51190000Y37700000D01*
G37*
G36*
X51190000Y37300000D02*
G01*
X51890000Y37300000D01*
X51890000Y37500000D01*
X51190000Y37500000D01*
X51190000Y37300000D01*
G37*
G36*
X51190000Y36900000D02*
G01*
X51890000Y36900000D01*
X51890000Y37100000D01*
X51190000Y37100000D01*
X51190000Y36900000D01*
G37*
G36*
X51190000Y36500000D02*
G01*
X51890000Y36500000D01*
X51890000Y36700000D01*
X51190000Y36700000D01*
X51190000Y36500000D01*
G37*
G36*
X51190000Y36100000D02*
G01*
X51890000Y36100000D01*
X51890000Y36300000D01*
X51190000Y36300000D01*
X51190000Y36100000D01*
G37*
G36*
X51190000Y35700000D02*
G01*
X51890000Y35700000D01*
X51890000Y35900000D01*
X51190000Y35900000D01*
X51190000Y35700000D01*
G37*
G36*
X51190000Y35300000D02*
G01*
X51890000Y35300000D01*
X51890000Y35500000D01*
X51190000Y35500000D01*
X51190000Y35300000D01*
G37*
G36*
X51190000Y34900000D02*
G01*
X51890000Y34900000D01*
X51890000Y35100000D01*
X51190000Y35100000D01*
X51190000Y34900000D01*
G37*
G36*
X51190000Y34500000D02*
G01*
X51890000Y34500000D01*
X51890000Y34700000D01*
X51190000Y34700000D01*
X51190000Y34500000D01*
G37*
G36*
X51190000Y34100000D02*
G01*
X51890000Y34100000D01*
X51890000Y34300000D01*
X51190000Y34300000D01*
X51190000Y34100000D01*
G37*
G36*
X51190000Y33700000D02*
G01*
X51890000Y33700000D01*
X51890000Y33900000D01*
X51190000Y33900000D01*
X51190000Y33700000D01*
G37*
G36*
X51190000Y33300000D02*
G01*
X51890000Y33300000D01*
X51890000Y33500000D01*
X51190000Y33500000D01*
X51190000Y33300000D01*
G37*
G36*
X51190000Y32900000D02*
G01*
X51890000Y32900000D01*
X51890000Y33100000D01*
X51190000Y33100000D01*
X51190000Y32900000D01*
G37*
G36*
X51190000Y32500000D02*
G01*
X51890000Y32500000D01*
X51890000Y32700000D01*
X51190000Y32700000D01*
X51190000Y32500000D01*
G37*
G36*
X51190000Y32100000D02*
G01*
X51890000Y32100000D01*
X51890000Y32300000D01*
X51190000Y32300000D01*
X51190000Y32100000D01*
G37*
G36*
X51190000Y31700000D02*
G01*
X51890000Y31700000D01*
X51890000Y31900000D01*
X51190000Y31900000D01*
X51190000Y31700000D01*
G37*
G36*
X51190000Y31300000D02*
G01*
X51890000Y31300000D01*
X51890000Y31500000D01*
X51190000Y31500000D01*
X51190000Y31300000D01*
G37*
G36*
X51190000Y30900000D02*
G01*
X51890000Y30900000D01*
X51890000Y31100000D01*
X51190000Y31100000D01*
X51190000Y30900000D01*
G37*
G36*
X51190000Y30500000D02*
G01*
X51890000Y30500000D01*
X51890000Y30700000D01*
X51190000Y30700000D01*
X51190000Y30500000D01*
G37*
G36*
X51190000Y30100000D02*
G01*
X51890000Y30100000D01*
X51890000Y30300000D01*
X51190000Y30300000D01*
X51190000Y30100000D01*
G37*
G36*
X51190000Y29700000D02*
G01*
X51890000Y29700000D01*
X51890000Y29900000D01*
X51190000Y29900000D01*
X51190000Y29700000D01*
G37*
G36*
X51190000Y29300000D02*
G01*
X51890000Y29300000D01*
X51890000Y29500000D01*
X51190000Y29500000D01*
X51190000Y29300000D01*
G37*
G36*
X51190000Y28900000D02*
G01*
X51890000Y28900000D01*
X51890000Y29100000D01*
X51190000Y29100000D01*
X51190000Y28900000D01*
G37*
G36*
X51190000Y28500000D02*
G01*
X51890000Y28500000D01*
X51890000Y28700000D01*
X51190000Y28700000D01*
X51190000Y28500000D01*
G37*
G36*
X51190000Y28100000D02*
G01*
X51890000Y28100000D01*
X51890000Y28300000D01*
X51190000Y28300000D01*
X51190000Y28100000D01*
G37*
%TD*%
D11*
%TO.C,TP1*%
X80000000Y2000000D03*
%TD*%
%TO.C,TP2*%
X90000000Y2000000D03*
%TD*%
D12*
%TO.C,J4*%
X82475000Y27814579D03*
X87525000Y27814579D03*
X82475000Y25274579D03*
X87525000Y25274579D03*
X82475000Y22734579D03*
X87525000Y22734579D03*
X82475000Y20194579D03*
X87525000Y20194579D03*
X82475000Y17654579D03*
X87525000Y17654579D03*
%TD*%
D13*
%TO.C,R3*%
X14690000Y17000000D03*
X15710000Y17000000D03*
%TD*%
D14*
%TO.C,LD1*%
X80000000Y11800000D03*
D15*
X79300000Y11100000D03*
X80000000Y10400000D03*
%TD*%
D16*
%TO.C,J1*%
X48460000Y28200000D03*
X51540000Y28200000D03*
X48460000Y28600000D03*
X51540000Y28600000D03*
X48460000Y29000000D03*
X51540000Y29000000D03*
X48460000Y29400000D03*
X51540000Y29400000D03*
X48460000Y29800000D03*
X51540000Y29800000D03*
X48460000Y30200000D03*
X51540000Y30200000D03*
X48460000Y30600000D03*
X51540000Y30600000D03*
X48460000Y31000000D03*
X51540000Y31000000D03*
X48460000Y31400000D03*
X51540000Y31400000D03*
X48460000Y31800000D03*
X51540000Y31800000D03*
X48460000Y32200000D03*
X51540000Y32200000D03*
X48460000Y32600000D03*
X51540000Y32600000D03*
X48460000Y33000000D03*
X51540000Y33000000D03*
X48460000Y33400000D03*
X51540000Y33400000D03*
X48460000Y33800000D03*
X51540000Y33800000D03*
X48460000Y34200000D03*
X51540000Y34200000D03*
X48460000Y34600000D03*
X51540000Y34600000D03*
X48460000Y35000000D03*
X51540000Y35000000D03*
X48460000Y35400000D03*
X51540000Y35400000D03*
X48460000Y35800000D03*
X51540000Y35800000D03*
X48460000Y36200000D03*
X51540000Y36200000D03*
X48460000Y36600000D03*
X51540000Y36600000D03*
X48460000Y37000000D03*
X51540000Y37000000D03*
X48460000Y37400000D03*
X51540000Y37400000D03*
X48460000Y37800000D03*
X51540000Y37800000D03*
X48460000Y38200000D03*
X51540000Y38200000D03*
X48460000Y38600000D03*
X51540000Y38600000D03*
X48460000Y39000000D03*
X51540000Y39000000D03*
X48460000Y39400000D03*
X51540000Y39400000D03*
X48460000Y39800000D03*
X51540000Y39800000D03*
X48460000Y40200000D03*
X51540000Y40200000D03*
X48460000Y40600000D03*
X51540000Y40600000D03*
X48460000Y41000000D03*
X51540000Y41000000D03*
X48460000Y41400000D03*
X51540000Y41400000D03*
X48460000Y41800000D03*
X51540000Y41800000D03*
%TD*%
D13*
%TO.C,R1*%
X13390000Y15900000D03*
X14410000Y15900000D03*
%TD*%
D17*
%TO.C,U1*%
X13295000Y8825000D03*
X14565000Y8825000D03*
X15835000Y8825000D03*
X17105000Y8825000D03*
X17105000Y13775000D03*
X15835000Y13775000D03*
X14565000Y13775000D03*
X13295000Y13775000D03*
%TD*%
D13*
%TO.C,R2*%
X16090000Y18200000D03*
X17110000Y18200000D03*
%TD*%
D18*
%TO.C,LD2*%
X90000000Y12100000D03*
D19*
X89000000Y11100000D03*
X90000000Y10100000D03*
%TD*%
D20*
%TO.C,C1*%
X11700000Y11780000D03*
X11700000Y10820000D03*
%TD*%
D21*
%TO.C,J2*%
X12330000Y55065000D03*
X12330000Y18935000D03*
%TD*%
%TO.C,J3*%
X82330000Y55065000D03*
X82330000Y18935000D03*
%TD*%
M02*
