%TF.GenerationSoftware,KiCad,Pcbnew,9.0.0-rc1*%
%TF.CreationDate,2025-02-06T15:19:43-05:00*%
%TF.ProjectId,ephys-test-module-64,65706879-732d-4746-9573-742d6d6f6475,A*%
%TF.SameCoordinates,Original*%
%TF.FileFunction,AssemblyDrawing,Top*%
%FSLAX46Y46*%
G04 Gerber Fmt 4.6, Leading zero omitted, Abs format (unit mm)*
G04 Created by KiCad (PCBNEW 9.0.0-rc1) date 2025-02-06 15:19:43*
%MOMM*%
%LPD*%
G01*
G04 APERTURE LIST*
%ADD10C,0.150000*%
%ADD11C,0.040000*%
%ADD12C,0.100000*%
%ADD13C,0.120000*%
G04 APERTURE END LIST*
D10*
X149666666Y-131654819D02*
X150238094Y-131654819D01*
X149952380Y-132654819D02*
X149952380Y-131654819D01*
X150952380Y-132607200D02*
X150857142Y-132654819D01*
X150857142Y-132654819D02*
X150666666Y-132654819D01*
X150666666Y-132654819D02*
X150571428Y-132607200D01*
X150571428Y-132607200D02*
X150523809Y-132511961D01*
X150523809Y-132511961D02*
X150523809Y-132131009D01*
X150523809Y-132131009D02*
X150571428Y-132035771D01*
X150571428Y-132035771D02*
X150666666Y-131988152D01*
X150666666Y-131988152D02*
X150857142Y-131988152D01*
X150857142Y-131988152D02*
X150952380Y-132035771D01*
X150952380Y-132035771D02*
X150999999Y-132131009D01*
X150999999Y-132131009D02*
X150999999Y-132226247D01*
X150999999Y-132226247D02*
X150523809Y-132321485D01*
X151380952Y-132607200D02*
X151476190Y-132654819D01*
X151476190Y-132654819D02*
X151666666Y-132654819D01*
X151666666Y-132654819D02*
X151761904Y-132607200D01*
X151761904Y-132607200D02*
X151809523Y-132511961D01*
X151809523Y-132511961D02*
X151809523Y-132464342D01*
X151809523Y-132464342D02*
X151761904Y-132369104D01*
X151761904Y-132369104D02*
X151666666Y-132321485D01*
X151666666Y-132321485D02*
X151523809Y-132321485D01*
X151523809Y-132321485D02*
X151428571Y-132273866D01*
X151428571Y-132273866D02*
X151380952Y-132178628D01*
X151380952Y-132178628D02*
X151380952Y-132131009D01*
X151380952Y-132131009D02*
X151428571Y-132035771D01*
X151428571Y-132035771D02*
X151523809Y-131988152D01*
X151523809Y-131988152D02*
X151666666Y-131988152D01*
X151666666Y-131988152D02*
X151761904Y-132035771D01*
X152095238Y-131988152D02*
X152476190Y-131988152D01*
X152238095Y-131654819D02*
X152238095Y-132511961D01*
X152238095Y-132511961D02*
X152285714Y-132607200D01*
X152285714Y-132607200D02*
X152380952Y-132654819D01*
X152380952Y-132654819D02*
X152476190Y-132654819D01*
X152809524Y-132654819D02*
X152809524Y-131654819D01*
X152809524Y-131654819D02*
X153190476Y-131654819D01*
X153190476Y-131654819D02*
X153285714Y-131702438D01*
X153285714Y-131702438D02*
X153333333Y-131750057D01*
X153333333Y-131750057D02*
X153380952Y-131845295D01*
X153380952Y-131845295D02*
X153380952Y-131988152D01*
X153380952Y-131988152D02*
X153333333Y-132083390D01*
X153333333Y-132083390D02*
X153285714Y-132131009D01*
X153285714Y-132131009D02*
X153190476Y-132178628D01*
X153190476Y-132178628D02*
X152809524Y-132178628D01*
X153952381Y-132654819D02*
X153857143Y-132607200D01*
X153857143Y-132607200D02*
X153809524Y-132559580D01*
X153809524Y-132559580D02*
X153761905Y-132464342D01*
X153761905Y-132464342D02*
X153761905Y-132178628D01*
X153761905Y-132178628D02*
X153809524Y-132083390D01*
X153809524Y-132083390D02*
X153857143Y-132035771D01*
X153857143Y-132035771D02*
X153952381Y-131988152D01*
X153952381Y-131988152D02*
X154095238Y-131988152D01*
X154095238Y-131988152D02*
X154190476Y-132035771D01*
X154190476Y-132035771D02*
X154238095Y-132083390D01*
X154238095Y-132083390D02*
X154285714Y-132178628D01*
X154285714Y-132178628D02*
X154285714Y-132464342D01*
X154285714Y-132464342D02*
X154238095Y-132559580D01*
X154238095Y-132559580D02*
X154190476Y-132607200D01*
X154190476Y-132607200D02*
X154095238Y-132654819D01*
X154095238Y-132654819D02*
X153952381Y-132654819D01*
X154714286Y-132654819D02*
X154714286Y-131988152D01*
X154714286Y-131654819D02*
X154666667Y-131702438D01*
X154666667Y-131702438D02*
X154714286Y-131750057D01*
X154714286Y-131750057D02*
X154761905Y-131702438D01*
X154761905Y-131702438D02*
X154714286Y-131654819D01*
X154714286Y-131654819D02*
X154714286Y-131750057D01*
X155190476Y-131988152D02*
X155190476Y-132654819D01*
X155190476Y-132083390D02*
X155238095Y-132035771D01*
X155238095Y-132035771D02*
X155333333Y-131988152D01*
X155333333Y-131988152D02*
X155476190Y-131988152D01*
X155476190Y-131988152D02*
X155571428Y-132035771D01*
X155571428Y-132035771D02*
X155619047Y-132131009D01*
X155619047Y-132131009D02*
X155619047Y-132654819D01*
X155952381Y-131988152D02*
X156333333Y-131988152D01*
X156095238Y-131654819D02*
X156095238Y-132511961D01*
X156095238Y-132511961D02*
X156142857Y-132607200D01*
X156142857Y-132607200D02*
X156238095Y-132654819D01*
X156238095Y-132654819D02*
X156333333Y-132654819D01*
X152438095Y-136954819D02*
X153009523Y-136954819D01*
X152723809Y-137954819D02*
X152723809Y-136954819D01*
X153342857Y-137954819D02*
X153342857Y-136954819D01*
X153342857Y-136954819D02*
X153723809Y-136954819D01*
X153723809Y-136954819D02*
X153819047Y-137002438D01*
X153819047Y-137002438D02*
X153866666Y-137050057D01*
X153866666Y-137050057D02*
X153914285Y-137145295D01*
X153914285Y-137145295D02*
X153914285Y-137288152D01*
X153914285Y-137288152D02*
X153866666Y-137383390D01*
X153866666Y-137383390D02*
X153819047Y-137431009D01*
X153819047Y-137431009D02*
X153723809Y-137478628D01*
X153723809Y-137478628D02*
X153342857Y-137478628D01*
X154866666Y-137954819D02*
X154295238Y-137954819D01*
X154580952Y-137954819D02*
X154580952Y-136954819D01*
X154580952Y-136954819D02*
X154485714Y-137097676D01*
X154485714Y-137097676D02*
X154390476Y-137192914D01*
X154390476Y-137192914D02*
X154295238Y-137240533D01*
X152218804Y-137454819D02*
X155085957Y-137454819D01*
X157554819Y-126261905D02*
X158269104Y-126261905D01*
X158269104Y-126261905D02*
X158411961Y-126309524D01*
X158411961Y-126309524D02*
X158507200Y-126404762D01*
X158507200Y-126404762D02*
X158554819Y-126547619D01*
X158554819Y-126547619D02*
X158554819Y-126642857D01*
X157888152Y-125357143D02*
X158554819Y-125357143D01*
X157888152Y-125785714D02*
X158411961Y-125785714D01*
X158411961Y-125785714D02*
X158507200Y-125738095D01*
X158507200Y-125738095D02*
X158554819Y-125642857D01*
X158554819Y-125642857D02*
X158554819Y-125500000D01*
X158554819Y-125500000D02*
X158507200Y-125404762D01*
X158507200Y-125404762D02*
X158459580Y-125357143D01*
X158554819Y-124880952D02*
X157888152Y-124880952D01*
X157983390Y-124880952D02*
X157935771Y-124833333D01*
X157935771Y-124833333D02*
X157888152Y-124738095D01*
X157888152Y-124738095D02*
X157888152Y-124595238D01*
X157888152Y-124595238D02*
X157935771Y-124500000D01*
X157935771Y-124500000D02*
X158031009Y-124452381D01*
X158031009Y-124452381D02*
X158554819Y-124452381D01*
X158031009Y-124452381D02*
X157935771Y-124404762D01*
X157935771Y-124404762D02*
X157888152Y-124309524D01*
X157888152Y-124309524D02*
X157888152Y-124166667D01*
X157888152Y-124166667D02*
X157935771Y-124071428D01*
X157935771Y-124071428D02*
X158031009Y-124023809D01*
X158031009Y-124023809D02*
X158554819Y-124023809D01*
X157888152Y-123547619D02*
X158888152Y-123547619D01*
X157935771Y-123547619D02*
X157888152Y-123452381D01*
X157888152Y-123452381D02*
X157888152Y-123261905D01*
X157888152Y-123261905D02*
X157935771Y-123166667D01*
X157935771Y-123166667D02*
X157983390Y-123119048D01*
X157983390Y-123119048D02*
X158078628Y-123071429D01*
X158078628Y-123071429D02*
X158364342Y-123071429D01*
X158364342Y-123071429D02*
X158459580Y-123119048D01*
X158459580Y-123119048D02*
X158507200Y-123166667D01*
X158507200Y-123166667D02*
X158554819Y-123261905D01*
X158554819Y-123261905D02*
X158554819Y-123452381D01*
X158554819Y-123452381D02*
X158507200Y-123547619D01*
X158507200Y-122261905D02*
X158554819Y-122357143D01*
X158554819Y-122357143D02*
X158554819Y-122547619D01*
X158554819Y-122547619D02*
X158507200Y-122642857D01*
X158507200Y-122642857D02*
X158411961Y-122690476D01*
X158411961Y-122690476D02*
X158031009Y-122690476D01*
X158031009Y-122690476D02*
X157935771Y-122642857D01*
X157935771Y-122642857D02*
X157888152Y-122547619D01*
X157888152Y-122547619D02*
X157888152Y-122357143D01*
X157888152Y-122357143D02*
X157935771Y-122261905D01*
X157935771Y-122261905D02*
X158031009Y-122214286D01*
X158031009Y-122214286D02*
X158126247Y-122214286D01*
X158126247Y-122214286D02*
X158221485Y-122690476D01*
X158554819Y-121785714D02*
X157888152Y-121785714D01*
X158078628Y-121785714D02*
X157983390Y-121738095D01*
X157983390Y-121738095D02*
X157935771Y-121690476D01*
X157935771Y-121690476D02*
X157888152Y-121595238D01*
X157888152Y-121595238D02*
X157888152Y-121500000D01*
X158650057Y-121404762D02*
X158650057Y-120642857D01*
X157650057Y-120452380D02*
X157602438Y-120404761D01*
X157602438Y-120404761D02*
X157554819Y-120309523D01*
X157554819Y-120309523D02*
X157554819Y-120071428D01*
X157554819Y-120071428D02*
X157602438Y-119976190D01*
X157602438Y-119976190D02*
X157650057Y-119928571D01*
X157650057Y-119928571D02*
X157745295Y-119880952D01*
X157745295Y-119880952D02*
X157840533Y-119880952D01*
X157840533Y-119880952D02*
X157983390Y-119928571D01*
X157983390Y-119928571D02*
X158554819Y-120499999D01*
X158554819Y-120499999D02*
X158554819Y-119880952D01*
X158650057Y-119690476D02*
X158650057Y-118928571D01*
X157554819Y-118499999D02*
X157554819Y-118309523D01*
X157554819Y-118309523D02*
X157602438Y-118214285D01*
X157602438Y-118214285D02*
X157697676Y-118119047D01*
X157697676Y-118119047D02*
X157888152Y-118071428D01*
X157888152Y-118071428D02*
X158221485Y-118071428D01*
X158221485Y-118071428D02*
X158411961Y-118119047D01*
X158411961Y-118119047D02*
X158507200Y-118214285D01*
X158507200Y-118214285D02*
X158554819Y-118309523D01*
X158554819Y-118309523D02*
X158554819Y-118499999D01*
X158554819Y-118499999D02*
X158507200Y-118595237D01*
X158507200Y-118595237D02*
X158411961Y-118690475D01*
X158411961Y-118690475D02*
X158221485Y-118738094D01*
X158221485Y-118738094D02*
X157888152Y-118738094D01*
X157888152Y-118738094D02*
X157697676Y-118690475D01*
X157697676Y-118690475D02*
X157602438Y-118595237D01*
X157602438Y-118595237D02*
X157554819Y-118499999D01*
X157888152Y-117642856D02*
X158888152Y-117642856D01*
X157935771Y-117642856D02*
X157888152Y-117547618D01*
X157888152Y-117547618D02*
X157888152Y-117357142D01*
X157888152Y-117357142D02*
X157935771Y-117261904D01*
X157935771Y-117261904D02*
X157983390Y-117214285D01*
X157983390Y-117214285D02*
X158078628Y-117166666D01*
X158078628Y-117166666D02*
X158364342Y-117166666D01*
X158364342Y-117166666D02*
X158459580Y-117214285D01*
X158459580Y-117214285D02*
X158507200Y-117261904D01*
X158507200Y-117261904D02*
X158554819Y-117357142D01*
X158554819Y-117357142D02*
X158554819Y-117547618D01*
X158554819Y-117547618D02*
X158507200Y-117642856D01*
X158507200Y-116357142D02*
X158554819Y-116452380D01*
X158554819Y-116452380D02*
X158554819Y-116642856D01*
X158554819Y-116642856D02*
X158507200Y-116738094D01*
X158507200Y-116738094D02*
X158411961Y-116785713D01*
X158411961Y-116785713D02*
X158031009Y-116785713D01*
X158031009Y-116785713D02*
X157935771Y-116738094D01*
X157935771Y-116738094D02*
X157888152Y-116642856D01*
X157888152Y-116642856D02*
X157888152Y-116452380D01*
X157888152Y-116452380D02*
X157935771Y-116357142D01*
X157935771Y-116357142D02*
X158031009Y-116309523D01*
X158031009Y-116309523D02*
X158126247Y-116309523D01*
X158126247Y-116309523D02*
X158221485Y-116785713D01*
X157888152Y-115880951D02*
X158554819Y-115880951D01*
X157983390Y-115880951D02*
X157935771Y-115833332D01*
X157935771Y-115833332D02*
X157888152Y-115738094D01*
X157888152Y-115738094D02*
X157888152Y-115595237D01*
X157888152Y-115595237D02*
X157935771Y-115499999D01*
X157935771Y-115499999D02*
X158031009Y-115452380D01*
X158031009Y-115452380D02*
X158554819Y-115452380D01*
X160866666Y-120454819D02*
X160866666Y-121169104D01*
X160866666Y-121169104D02*
X160819047Y-121311961D01*
X160819047Y-121311961D02*
X160723809Y-121407200D01*
X160723809Y-121407200D02*
X160580952Y-121454819D01*
X160580952Y-121454819D02*
X160485714Y-121454819D01*
X161342857Y-121454819D02*
X161342857Y-120454819D01*
X161342857Y-120454819D02*
X161723809Y-120454819D01*
X161723809Y-120454819D02*
X161819047Y-120502438D01*
X161819047Y-120502438D02*
X161866666Y-120550057D01*
X161866666Y-120550057D02*
X161914285Y-120645295D01*
X161914285Y-120645295D02*
X161914285Y-120788152D01*
X161914285Y-120788152D02*
X161866666Y-120883390D01*
X161866666Y-120883390D02*
X161819047Y-120931009D01*
X161819047Y-120931009D02*
X161723809Y-120978628D01*
X161723809Y-120978628D02*
X161342857Y-120978628D01*
X162866666Y-121454819D02*
X162295238Y-121454819D01*
X162580952Y-121454819D02*
X162580952Y-120454819D01*
X162580952Y-120454819D02*
X162485714Y-120597676D01*
X162485714Y-120597676D02*
X162390476Y-120692914D01*
X162390476Y-120692914D02*
X162295238Y-120740533D01*
X159666666Y-131654819D02*
X160238094Y-131654819D01*
X159952380Y-132654819D02*
X159952380Y-131654819D01*
X160952380Y-132607200D02*
X160857142Y-132654819D01*
X160857142Y-132654819D02*
X160666666Y-132654819D01*
X160666666Y-132654819D02*
X160571428Y-132607200D01*
X160571428Y-132607200D02*
X160523809Y-132511961D01*
X160523809Y-132511961D02*
X160523809Y-132131009D01*
X160523809Y-132131009D02*
X160571428Y-132035771D01*
X160571428Y-132035771D02*
X160666666Y-131988152D01*
X160666666Y-131988152D02*
X160857142Y-131988152D01*
X160857142Y-131988152D02*
X160952380Y-132035771D01*
X160952380Y-132035771D02*
X160999999Y-132131009D01*
X160999999Y-132131009D02*
X160999999Y-132226247D01*
X160999999Y-132226247D02*
X160523809Y-132321485D01*
X161380952Y-132607200D02*
X161476190Y-132654819D01*
X161476190Y-132654819D02*
X161666666Y-132654819D01*
X161666666Y-132654819D02*
X161761904Y-132607200D01*
X161761904Y-132607200D02*
X161809523Y-132511961D01*
X161809523Y-132511961D02*
X161809523Y-132464342D01*
X161809523Y-132464342D02*
X161761904Y-132369104D01*
X161761904Y-132369104D02*
X161666666Y-132321485D01*
X161666666Y-132321485D02*
X161523809Y-132321485D01*
X161523809Y-132321485D02*
X161428571Y-132273866D01*
X161428571Y-132273866D02*
X161380952Y-132178628D01*
X161380952Y-132178628D02*
X161380952Y-132131009D01*
X161380952Y-132131009D02*
X161428571Y-132035771D01*
X161428571Y-132035771D02*
X161523809Y-131988152D01*
X161523809Y-131988152D02*
X161666666Y-131988152D01*
X161666666Y-131988152D02*
X161761904Y-132035771D01*
X162095238Y-131988152D02*
X162476190Y-131988152D01*
X162238095Y-131654819D02*
X162238095Y-132511961D01*
X162238095Y-132511961D02*
X162285714Y-132607200D01*
X162285714Y-132607200D02*
X162380952Y-132654819D01*
X162380952Y-132654819D02*
X162476190Y-132654819D01*
X162809524Y-132654819D02*
X162809524Y-131654819D01*
X162809524Y-131654819D02*
X163190476Y-131654819D01*
X163190476Y-131654819D02*
X163285714Y-131702438D01*
X163285714Y-131702438D02*
X163333333Y-131750057D01*
X163333333Y-131750057D02*
X163380952Y-131845295D01*
X163380952Y-131845295D02*
X163380952Y-131988152D01*
X163380952Y-131988152D02*
X163333333Y-132083390D01*
X163333333Y-132083390D02*
X163285714Y-132131009D01*
X163285714Y-132131009D02*
X163190476Y-132178628D01*
X163190476Y-132178628D02*
X162809524Y-132178628D01*
X163952381Y-132654819D02*
X163857143Y-132607200D01*
X163857143Y-132607200D02*
X163809524Y-132559580D01*
X163809524Y-132559580D02*
X163761905Y-132464342D01*
X163761905Y-132464342D02*
X163761905Y-132178628D01*
X163761905Y-132178628D02*
X163809524Y-132083390D01*
X163809524Y-132083390D02*
X163857143Y-132035771D01*
X163857143Y-132035771D02*
X163952381Y-131988152D01*
X163952381Y-131988152D02*
X164095238Y-131988152D01*
X164095238Y-131988152D02*
X164190476Y-132035771D01*
X164190476Y-132035771D02*
X164238095Y-132083390D01*
X164238095Y-132083390D02*
X164285714Y-132178628D01*
X164285714Y-132178628D02*
X164285714Y-132464342D01*
X164285714Y-132464342D02*
X164238095Y-132559580D01*
X164238095Y-132559580D02*
X164190476Y-132607200D01*
X164190476Y-132607200D02*
X164095238Y-132654819D01*
X164095238Y-132654819D02*
X163952381Y-132654819D01*
X164714286Y-132654819D02*
X164714286Y-131988152D01*
X164714286Y-131654819D02*
X164666667Y-131702438D01*
X164666667Y-131702438D02*
X164714286Y-131750057D01*
X164714286Y-131750057D02*
X164761905Y-131702438D01*
X164761905Y-131702438D02*
X164714286Y-131654819D01*
X164714286Y-131654819D02*
X164714286Y-131750057D01*
X165190476Y-131988152D02*
X165190476Y-132654819D01*
X165190476Y-132083390D02*
X165238095Y-132035771D01*
X165238095Y-132035771D02*
X165333333Y-131988152D01*
X165333333Y-131988152D02*
X165476190Y-131988152D01*
X165476190Y-131988152D02*
X165571428Y-132035771D01*
X165571428Y-132035771D02*
X165619047Y-132131009D01*
X165619047Y-132131009D02*
X165619047Y-132654819D01*
X165952381Y-131988152D02*
X166333333Y-131988152D01*
X166095238Y-131654819D02*
X166095238Y-132511961D01*
X166095238Y-132511961D02*
X166142857Y-132607200D01*
X166142857Y-132607200D02*
X166238095Y-132654819D01*
X166238095Y-132654819D02*
X166333333Y-132654819D01*
X162438095Y-136954819D02*
X163009523Y-136954819D01*
X162723809Y-137954819D02*
X162723809Y-136954819D01*
X163342857Y-137954819D02*
X163342857Y-136954819D01*
X163342857Y-136954819D02*
X163723809Y-136954819D01*
X163723809Y-136954819D02*
X163819047Y-137002438D01*
X163819047Y-137002438D02*
X163866666Y-137050057D01*
X163866666Y-137050057D02*
X163914285Y-137145295D01*
X163914285Y-137145295D02*
X163914285Y-137288152D01*
X163914285Y-137288152D02*
X163866666Y-137383390D01*
X163866666Y-137383390D02*
X163819047Y-137431009D01*
X163819047Y-137431009D02*
X163723809Y-137478628D01*
X163723809Y-137478628D02*
X163342857Y-137478628D01*
X164295238Y-137050057D02*
X164342857Y-137002438D01*
X164342857Y-137002438D02*
X164438095Y-136954819D01*
X164438095Y-136954819D02*
X164676190Y-136954819D01*
X164676190Y-136954819D02*
X164771428Y-137002438D01*
X164771428Y-137002438D02*
X164819047Y-137050057D01*
X164819047Y-137050057D02*
X164866666Y-137145295D01*
X164866666Y-137145295D02*
X164866666Y-137240533D01*
X164866666Y-137240533D02*
X164819047Y-137383390D01*
X164819047Y-137383390D02*
X164247619Y-137954819D01*
X164247619Y-137954819D02*
X164866666Y-137954819D01*
X162218804Y-137454819D02*
X165091666Y-137454819D01*
X131858152Y-124528571D02*
X132524819Y-124528571D01*
X131477200Y-124766666D02*
X132191485Y-125004761D01*
X132191485Y-125004761D02*
X132191485Y-124385714D01*
X132429580Y-124004761D02*
X132477200Y-123957142D01*
X132477200Y-123957142D02*
X132524819Y-124004761D01*
X132524819Y-124004761D02*
X132477200Y-124052380D01*
X132477200Y-124052380D02*
X132429580Y-124004761D01*
X132429580Y-124004761D02*
X132524819Y-124004761D01*
X131524819Y-123623809D02*
X131524819Y-122957143D01*
X131524819Y-122957143D02*
X132524819Y-123385714D01*
X132524819Y-122576190D02*
X131524819Y-122576190D01*
X132143866Y-122480952D02*
X132524819Y-122195238D01*
X131858152Y-122195238D02*
X132239104Y-122576190D01*
D11*
X131018200Y-123643332D02*
X130894391Y-123729999D01*
X131018200Y-123791904D02*
X130758200Y-123791904D01*
X130758200Y-123791904D02*
X130758200Y-123692856D01*
X130758200Y-123692856D02*
X130770581Y-123668094D01*
X130770581Y-123668094D02*
X130782962Y-123655713D01*
X130782962Y-123655713D02*
X130807724Y-123643332D01*
X130807724Y-123643332D02*
X130844867Y-123643332D01*
X130844867Y-123643332D02*
X130869629Y-123655713D01*
X130869629Y-123655713D02*
X130882010Y-123668094D01*
X130882010Y-123668094D02*
X130894391Y-123692856D01*
X130894391Y-123692856D02*
X130894391Y-123791904D01*
X130758200Y-123556666D02*
X130758200Y-123395713D01*
X130758200Y-123395713D02*
X130857248Y-123482380D01*
X130857248Y-123482380D02*
X130857248Y-123445237D01*
X130857248Y-123445237D02*
X130869629Y-123420475D01*
X130869629Y-123420475D02*
X130882010Y-123408094D01*
X130882010Y-123408094D02*
X130906772Y-123395713D01*
X130906772Y-123395713D02*
X130968677Y-123395713D01*
X130968677Y-123395713D02*
X130993439Y-123408094D01*
X130993439Y-123408094D02*
X131005820Y-123420475D01*
X131005820Y-123420475D02*
X131018200Y-123445237D01*
X131018200Y-123445237D02*
X131018200Y-123519523D01*
X131018200Y-123519523D02*
X131005820Y-123544285D01*
X131005820Y-123544285D02*
X130993439Y-123556666D01*
D10*
X159666666Y-75654819D02*
X160238094Y-75654819D01*
X159952380Y-76654819D02*
X159952380Y-75654819D01*
X160952380Y-76607200D02*
X160857142Y-76654819D01*
X160857142Y-76654819D02*
X160666666Y-76654819D01*
X160666666Y-76654819D02*
X160571428Y-76607200D01*
X160571428Y-76607200D02*
X160523809Y-76511961D01*
X160523809Y-76511961D02*
X160523809Y-76131009D01*
X160523809Y-76131009D02*
X160571428Y-76035771D01*
X160571428Y-76035771D02*
X160666666Y-75988152D01*
X160666666Y-75988152D02*
X160857142Y-75988152D01*
X160857142Y-75988152D02*
X160952380Y-76035771D01*
X160952380Y-76035771D02*
X160999999Y-76131009D01*
X160999999Y-76131009D02*
X160999999Y-76226247D01*
X160999999Y-76226247D02*
X160523809Y-76321485D01*
X161380952Y-76607200D02*
X161476190Y-76654819D01*
X161476190Y-76654819D02*
X161666666Y-76654819D01*
X161666666Y-76654819D02*
X161761904Y-76607200D01*
X161761904Y-76607200D02*
X161809523Y-76511961D01*
X161809523Y-76511961D02*
X161809523Y-76464342D01*
X161809523Y-76464342D02*
X161761904Y-76369104D01*
X161761904Y-76369104D02*
X161666666Y-76321485D01*
X161666666Y-76321485D02*
X161523809Y-76321485D01*
X161523809Y-76321485D02*
X161428571Y-76273866D01*
X161428571Y-76273866D02*
X161380952Y-76178628D01*
X161380952Y-76178628D02*
X161380952Y-76131009D01*
X161380952Y-76131009D02*
X161428571Y-76035771D01*
X161428571Y-76035771D02*
X161523809Y-75988152D01*
X161523809Y-75988152D02*
X161666666Y-75988152D01*
X161666666Y-75988152D02*
X161761904Y-76035771D01*
X162095238Y-75988152D02*
X162476190Y-75988152D01*
X162238095Y-75654819D02*
X162238095Y-76511961D01*
X162238095Y-76511961D02*
X162285714Y-76607200D01*
X162285714Y-76607200D02*
X162380952Y-76654819D01*
X162380952Y-76654819D02*
X162476190Y-76654819D01*
X162809524Y-76654819D02*
X162809524Y-75654819D01*
X162809524Y-75654819D02*
X163190476Y-75654819D01*
X163190476Y-75654819D02*
X163285714Y-75702438D01*
X163285714Y-75702438D02*
X163333333Y-75750057D01*
X163333333Y-75750057D02*
X163380952Y-75845295D01*
X163380952Y-75845295D02*
X163380952Y-75988152D01*
X163380952Y-75988152D02*
X163333333Y-76083390D01*
X163333333Y-76083390D02*
X163285714Y-76131009D01*
X163285714Y-76131009D02*
X163190476Y-76178628D01*
X163190476Y-76178628D02*
X162809524Y-76178628D01*
X163952381Y-76654819D02*
X163857143Y-76607200D01*
X163857143Y-76607200D02*
X163809524Y-76559580D01*
X163809524Y-76559580D02*
X163761905Y-76464342D01*
X163761905Y-76464342D02*
X163761905Y-76178628D01*
X163761905Y-76178628D02*
X163809524Y-76083390D01*
X163809524Y-76083390D02*
X163857143Y-76035771D01*
X163857143Y-76035771D02*
X163952381Y-75988152D01*
X163952381Y-75988152D02*
X164095238Y-75988152D01*
X164095238Y-75988152D02*
X164190476Y-76035771D01*
X164190476Y-76035771D02*
X164238095Y-76083390D01*
X164238095Y-76083390D02*
X164285714Y-76178628D01*
X164285714Y-76178628D02*
X164285714Y-76464342D01*
X164285714Y-76464342D02*
X164238095Y-76559580D01*
X164238095Y-76559580D02*
X164190476Y-76607200D01*
X164190476Y-76607200D02*
X164095238Y-76654819D01*
X164095238Y-76654819D02*
X163952381Y-76654819D01*
X164714286Y-76654819D02*
X164714286Y-75988152D01*
X164714286Y-75654819D02*
X164666667Y-75702438D01*
X164666667Y-75702438D02*
X164714286Y-75750057D01*
X164714286Y-75750057D02*
X164761905Y-75702438D01*
X164761905Y-75702438D02*
X164714286Y-75654819D01*
X164714286Y-75654819D02*
X164714286Y-75750057D01*
X165190476Y-75988152D02*
X165190476Y-76654819D01*
X165190476Y-76083390D02*
X165238095Y-76035771D01*
X165238095Y-76035771D02*
X165333333Y-75988152D01*
X165333333Y-75988152D02*
X165476190Y-75988152D01*
X165476190Y-75988152D02*
X165571428Y-76035771D01*
X165571428Y-76035771D02*
X165619047Y-76131009D01*
X165619047Y-76131009D02*
X165619047Y-76654819D01*
X165952381Y-75988152D02*
X166333333Y-75988152D01*
X166095238Y-75654819D02*
X166095238Y-76511961D01*
X166095238Y-76511961D02*
X166142857Y-76607200D01*
X166142857Y-76607200D02*
X166238095Y-76654819D01*
X166238095Y-76654819D02*
X166333333Y-76654819D01*
X162438095Y-80954819D02*
X163009523Y-80954819D01*
X162723809Y-81954819D02*
X162723809Y-80954819D01*
X163342857Y-81954819D02*
X163342857Y-80954819D01*
X163342857Y-80954819D02*
X163723809Y-80954819D01*
X163723809Y-80954819D02*
X163819047Y-81002438D01*
X163819047Y-81002438D02*
X163866666Y-81050057D01*
X163866666Y-81050057D02*
X163914285Y-81145295D01*
X163914285Y-81145295D02*
X163914285Y-81288152D01*
X163914285Y-81288152D02*
X163866666Y-81383390D01*
X163866666Y-81383390D02*
X163819047Y-81431009D01*
X163819047Y-81431009D02*
X163723809Y-81478628D01*
X163723809Y-81478628D02*
X163342857Y-81478628D01*
X164771428Y-81288152D02*
X164771428Y-81954819D01*
X164533333Y-80907200D02*
X164295238Y-81621485D01*
X164295238Y-81621485D02*
X164914285Y-81621485D01*
X162218804Y-81428249D02*
X165133576Y-81428249D01*
X153390952Y-110884819D02*
X152819524Y-110884819D01*
X153105238Y-110884819D02*
X153105238Y-109884819D01*
X153105238Y-109884819D02*
X153010000Y-110027676D01*
X153010000Y-110027676D02*
X152914762Y-110122914D01*
X152914762Y-110122914D02*
X152819524Y-110170533D01*
X153819524Y-110884819D02*
X153819524Y-109884819D01*
X153914762Y-110503866D02*
X154200476Y-110884819D01*
X154200476Y-110218152D02*
X153819524Y-110599104D01*
D11*
X153466667Y-111718200D02*
X153380000Y-111594391D01*
X153318095Y-111718200D02*
X153318095Y-111458200D01*
X153318095Y-111458200D02*
X153417143Y-111458200D01*
X153417143Y-111458200D02*
X153441905Y-111470581D01*
X153441905Y-111470581D02*
X153454286Y-111482962D01*
X153454286Y-111482962D02*
X153466667Y-111507724D01*
X153466667Y-111507724D02*
X153466667Y-111544867D01*
X153466667Y-111544867D02*
X153454286Y-111569629D01*
X153454286Y-111569629D02*
X153441905Y-111582010D01*
X153441905Y-111582010D02*
X153417143Y-111594391D01*
X153417143Y-111594391D02*
X153318095Y-111594391D01*
X153689524Y-111544867D02*
X153689524Y-111718200D01*
X153627619Y-111445820D02*
X153565714Y-111631534D01*
X153565714Y-111631534D02*
X153726667Y-111631534D01*
X153836425Y-85833333D02*
X153836425Y-85714285D01*
X153836425Y-85714285D02*
X154086425Y-85714285D01*
X153836425Y-85916666D02*
X154086425Y-85916666D01*
X154086425Y-85916666D02*
X154086425Y-85976190D01*
X154086425Y-85976190D02*
X154074520Y-86011904D01*
X154074520Y-86011904D02*
X154050710Y-86035714D01*
X154050710Y-86035714D02*
X154026901Y-86047619D01*
X154026901Y-86047619D02*
X153979282Y-86059523D01*
X153979282Y-86059523D02*
X153943568Y-86059523D01*
X153943568Y-86059523D02*
X153895949Y-86047619D01*
X153895949Y-86047619D02*
X153872139Y-86035714D01*
X153872139Y-86035714D02*
X153848330Y-86011904D01*
X153848330Y-86011904D02*
X153836425Y-85976190D01*
X153836425Y-85976190D02*
X153836425Y-85916666D01*
X153836425Y-86297619D02*
X153836425Y-86154762D01*
X153836425Y-86226190D02*
X154086425Y-86226190D01*
X154086425Y-86226190D02*
X154050710Y-86202381D01*
X154050710Y-86202381D02*
X154026901Y-86178571D01*
X154026901Y-86178571D02*
X154014996Y-86154762D01*
D10*
X154145180Y-91595238D02*
X155145180Y-91595238D01*
X155145180Y-91595238D02*
X155145180Y-91833333D01*
X155145180Y-91833333D02*
X155097561Y-91976190D01*
X155097561Y-91976190D02*
X155002323Y-92071428D01*
X155002323Y-92071428D02*
X154907085Y-92119047D01*
X154907085Y-92119047D02*
X154716609Y-92166666D01*
X154716609Y-92166666D02*
X154573752Y-92166666D01*
X154573752Y-92166666D02*
X154383276Y-92119047D01*
X154383276Y-92119047D02*
X154288038Y-92071428D01*
X154288038Y-92071428D02*
X154192800Y-91976190D01*
X154192800Y-91976190D02*
X154145180Y-91833333D01*
X154145180Y-91833333D02*
X154145180Y-91595238D01*
X154668990Y-92928571D02*
X154668990Y-92595238D01*
X154145180Y-92595238D02*
X155145180Y-92595238D01*
X155145180Y-92595238D02*
X155145180Y-93071428D01*
X154811847Y-93880952D02*
X154145180Y-93880952D01*
X155192800Y-93642857D02*
X154478514Y-93404762D01*
X154478514Y-93404762D02*
X154478514Y-94023809D01*
X155145180Y-94595238D02*
X155145180Y-94690476D01*
X155145180Y-94690476D02*
X155097561Y-94785714D01*
X155097561Y-94785714D02*
X155049942Y-94833333D01*
X155049942Y-94833333D02*
X154954704Y-94880952D01*
X154954704Y-94880952D02*
X154764228Y-94928571D01*
X154764228Y-94928571D02*
X154526133Y-94928571D01*
X154526133Y-94928571D02*
X154335657Y-94880952D01*
X154335657Y-94880952D02*
X154240419Y-94833333D01*
X154240419Y-94833333D02*
X154192800Y-94785714D01*
X154192800Y-94785714D02*
X154145180Y-94690476D01*
X154145180Y-94690476D02*
X154145180Y-94595238D01*
X154145180Y-94595238D02*
X154192800Y-94500000D01*
X154192800Y-94500000D02*
X154240419Y-94452381D01*
X154240419Y-94452381D02*
X154335657Y-94404762D01*
X154335657Y-94404762D02*
X154526133Y-94357143D01*
X154526133Y-94357143D02*
X154764228Y-94357143D01*
X154764228Y-94357143D02*
X154954704Y-94404762D01*
X154954704Y-94404762D02*
X155049942Y-94452381D01*
X155049942Y-94452381D02*
X155097561Y-94500000D01*
X155097561Y-94500000D02*
X155145180Y-94595238D01*
X154240419Y-95928571D02*
X154192800Y-95880952D01*
X154192800Y-95880952D02*
X154145180Y-95738095D01*
X154145180Y-95738095D02*
X154145180Y-95642857D01*
X154145180Y-95642857D02*
X154192800Y-95500000D01*
X154192800Y-95500000D02*
X154288038Y-95404762D01*
X154288038Y-95404762D02*
X154383276Y-95357143D01*
X154383276Y-95357143D02*
X154573752Y-95309524D01*
X154573752Y-95309524D02*
X154716609Y-95309524D01*
X154716609Y-95309524D02*
X154907085Y-95357143D01*
X154907085Y-95357143D02*
X155002323Y-95404762D01*
X155002323Y-95404762D02*
X155097561Y-95500000D01*
X155097561Y-95500000D02*
X155145180Y-95642857D01*
X155145180Y-95642857D02*
X155145180Y-95738095D01*
X155145180Y-95738095D02*
X155097561Y-95880952D01*
X155097561Y-95880952D02*
X155049942Y-95928571D01*
X153764228Y-96642857D02*
X153811847Y-96595238D01*
X153811847Y-96595238D02*
X153954704Y-96500000D01*
X153954704Y-96500000D02*
X154049942Y-96452381D01*
X154049942Y-96452381D02*
X154192800Y-96404762D01*
X154192800Y-96404762D02*
X154430895Y-96357143D01*
X154430895Y-96357143D02*
X154621371Y-96357143D01*
X154621371Y-96357143D02*
X154859466Y-96404762D01*
X154859466Y-96404762D02*
X155002323Y-96452381D01*
X155002323Y-96452381D02*
X155097561Y-96500000D01*
X155097561Y-96500000D02*
X155240419Y-96595238D01*
X155240419Y-96595238D02*
X155288038Y-96642857D01*
X155049942Y-96976191D02*
X155097561Y-97023810D01*
X155097561Y-97023810D02*
X155145180Y-97119048D01*
X155145180Y-97119048D02*
X155145180Y-97357143D01*
X155145180Y-97357143D02*
X155097561Y-97452381D01*
X155097561Y-97452381D02*
X155049942Y-97500000D01*
X155049942Y-97500000D02*
X154954704Y-97547619D01*
X154954704Y-97547619D02*
X154859466Y-97547619D01*
X154859466Y-97547619D02*
X154716609Y-97500000D01*
X154716609Y-97500000D02*
X154145180Y-96928572D01*
X154145180Y-96928572D02*
X154145180Y-97547619D01*
X154240419Y-97976191D02*
X154192800Y-98023810D01*
X154192800Y-98023810D02*
X154145180Y-97976191D01*
X154145180Y-97976191D02*
X154192800Y-97928572D01*
X154192800Y-97928572D02*
X154240419Y-97976191D01*
X154240419Y-97976191D02*
X154145180Y-97976191D01*
X155145180Y-98642857D02*
X155145180Y-98738095D01*
X155145180Y-98738095D02*
X155097561Y-98833333D01*
X155097561Y-98833333D02*
X155049942Y-98880952D01*
X155049942Y-98880952D02*
X154954704Y-98928571D01*
X154954704Y-98928571D02*
X154764228Y-98976190D01*
X154764228Y-98976190D02*
X154526133Y-98976190D01*
X154526133Y-98976190D02*
X154335657Y-98928571D01*
X154335657Y-98928571D02*
X154240419Y-98880952D01*
X154240419Y-98880952D02*
X154192800Y-98833333D01*
X154192800Y-98833333D02*
X154145180Y-98738095D01*
X154145180Y-98738095D02*
X154145180Y-98642857D01*
X154145180Y-98642857D02*
X154192800Y-98547619D01*
X154192800Y-98547619D02*
X154240419Y-98500000D01*
X154240419Y-98500000D02*
X154335657Y-98452381D01*
X154335657Y-98452381D02*
X154526133Y-98404762D01*
X154526133Y-98404762D02*
X154764228Y-98404762D01*
X154764228Y-98404762D02*
X154954704Y-98452381D01*
X154954704Y-98452381D02*
X155049942Y-98500000D01*
X155049942Y-98500000D02*
X155097561Y-98547619D01*
X155097561Y-98547619D02*
X155145180Y-98642857D01*
X153764228Y-99309524D02*
X153811847Y-99357143D01*
X153811847Y-99357143D02*
X153954704Y-99452381D01*
X153954704Y-99452381D02*
X154049942Y-99500000D01*
X154049942Y-99500000D02*
X154192800Y-99547619D01*
X154192800Y-99547619D02*
X154430895Y-99595238D01*
X154430895Y-99595238D02*
X154621371Y-99595238D01*
X154621371Y-99595238D02*
X154859466Y-99547619D01*
X154859466Y-99547619D02*
X155002323Y-99500000D01*
X155002323Y-99500000D02*
X155097561Y-99452381D01*
X155097561Y-99452381D02*
X155240419Y-99357143D01*
X155240419Y-99357143D02*
X155288038Y-99309524D01*
X154526133Y-100071429D02*
X154526133Y-100833334D01*
X155145180Y-101214286D02*
X155145180Y-101880952D01*
X155145180Y-101880952D02*
X154145180Y-101452381D01*
X155145180Y-102452381D02*
X155145180Y-102547619D01*
X155145180Y-102547619D02*
X155097561Y-102642857D01*
X155097561Y-102642857D02*
X155049942Y-102690476D01*
X155049942Y-102690476D02*
X154954704Y-102738095D01*
X154954704Y-102738095D02*
X154764228Y-102785714D01*
X154764228Y-102785714D02*
X154526133Y-102785714D01*
X154526133Y-102785714D02*
X154335657Y-102738095D01*
X154335657Y-102738095D02*
X154240419Y-102690476D01*
X154240419Y-102690476D02*
X154192800Y-102642857D01*
X154192800Y-102642857D02*
X154145180Y-102547619D01*
X154145180Y-102547619D02*
X154145180Y-102452381D01*
X154145180Y-102452381D02*
X154192800Y-102357143D01*
X154192800Y-102357143D02*
X154240419Y-102309524D01*
X154240419Y-102309524D02*
X154335657Y-102261905D01*
X154335657Y-102261905D02*
X154526133Y-102214286D01*
X154526133Y-102214286D02*
X154764228Y-102214286D01*
X154764228Y-102214286D02*
X154954704Y-102261905D01*
X154954704Y-102261905D02*
X155049942Y-102309524D01*
X155049942Y-102309524D02*
X155097561Y-102357143D01*
X155097561Y-102357143D02*
X155145180Y-102452381D01*
X154145180Y-103214286D02*
X155145180Y-103214286D01*
X155145180Y-103214286D02*
X155145180Y-103452381D01*
X155145180Y-103452381D02*
X155097561Y-103595238D01*
X155097561Y-103595238D02*
X155002323Y-103690476D01*
X155002323Y-103690476D02*
X154907085Y-103738095D01*
X154907085Y-103738095D02*
X154716609Y-103785714D01*
X154716609Y-103785714D02*
X154573752Y-103785714D01*
X154573752Y-103785714D02*
X154383276Y-103738095D01*
X154383276Y-103738095D02*
X154288038Y-103690476D01*
X154288038Y-103690476D02*
X154192800Y-103595238D01*
X154192800Y-103595238D02*
X154145180Y-103452381D01*
X154145180Y-103452381D02*
X154145180Y-103214286D01*
X154192800Y-104166667D02*
X154145180Y-104309524D01*
X154145180Y-104309524D02*
X154145180Y-104547619D01*
X154145180Y-104547619D02*
X154192800Y-104642857D01*
X154192800Y-104642857D02*
X154240419Y-104690476D01*
X154240419Y-104690476D02*
X154335657Y-104738095D01*
X154335657Y-104738095D02*
X154430895Y-104738095D01*
X154430895Y-104738095D02*
X154526133Y-104690476D01*
X154526133Y-104690476D02*
X154573752Y-104642857D01*
X154573752Y-104642857D02*
X154621371Y-104547619D01*
X154621371Y-104547619D02*
X154668990Y-104357143D01*
X154668990Y-104357143D02*
X154716609Y-104261905D01*
X154716609Y-104261905D02*
X154764228Y-104214286D01*
X154764228Y-104214286D02*
X154859466Y-104166667D01*
X154859466Y-104166667D02*
X154954704Y-104166667D01*
X154954704Y-104166667D02*
X155049942Y-104214286D01*
X155049942Y-104214286D02*
X155097561Y-104261905D01*
X155097561Y-104261905D02*
X155145180Y-104357143D01*
X155145180Y-104357143D02*
X155145180Y-104595238D01*
X155145180Y-104595238D02*
X155097561Y-104738095D01*
X154526133Y-105166667D02*
X154526133Y-105928572D01*
X155145180Y-106595238D02*
X155145180Y-106690476D01*
X155145180Y-106690476D02*
X155097561Y-106785714D01*
X155097561Y-106785714D02*
X155049942Y-106833333D01*
X155049942Y-106833333D02*
X154954704Y-106880952D01*
X154954704Y-106880952D02*
X154764228Y-106928571D01*
X154764228Y-106928571D02*
X154526133Y-106928571D01*
X154526133Y-106928571D02*
X154335657Y-106880952D01*
X154335657Y-106880952D02*
X154240419Y-106833333D01*
X154240419Y-106833333D02*
X154192800Y-106785714D01*
X154192800Y-106785714D02*
X154145180Y-106690476D01*
X154145180Y-106690476D02*
X154145180Y-106595238D01*
X154145180Y-106595238D02*
X154192800Y-106500000D01*
X154192800Y-106500000D02*
X154240419Y-106452381D01*
X154240419Y-106452381D02*
X154335657Y-106404762D01*
X154335657Y-106404762D02*
X154526133Y-106357143D01*
X154526133Y-106357143D02*
X154764228Y-106357143D01*
X154764228Y-106357143D02*
X154954704Y-106404762D01*
X154954704Y-106404762D02*
X155049942Y-106452381D01*
X155049942Y-106452381D02*
X155097561Y-106500000D01*
X155097561Y-106500000D02*
X155145180Y-106595238D01*
X154240419Y-107357143D02*
X154192800Y-107404762D01*
X154192800Y-107404762D02*
X154145180Y-107357143D01*
X154145180Y-107357143D02*
X154192800Y-107309524D01*
X154192800Y-107309524D02*
X154240419Y-107357143D01*
X154240419Y-107357143D02*
X154145180Y-107357143D01*
X154811847Y-108261904D02*
X154145180Y-108261904D01*
X155192800Y-108023809D02*
X154478514Y-107785714D01*
X154478514Y-107785714D02*
X154478514Y-108404761D01*
X155145180Y-108642857D02*
X154145180Y-108976190D01*
X154145180Y-108976190D02*
X155145180Y-109309523D01*
X153764228Y-109928571D02*
X153811847Y-109880952D01*
X153811847Y-109880952D02*
X153954704Y-109785714D01*
X153954704Y-109785714D02*
X154049942Y-109738095D01*
X154049942Y-109738095D02*
X154192800Y-109690476D01*
X154192800Y-109690476D02*
X154430895Y-109642857D01*
X154430895Y-109642857D02*
X154621371Y-109642857D01*
X154621371Y-109642857D02*
X154859466Y-109690476D01*
X154859466Y-109690476D02*
X155002323Y-109738095D01*
X155002323Y-109738095D02*
X155097561Y-109785714D01*
X155097561Y-109785714D02*
X155240419Y-109880952D01*
X155240419Y-109880952D02*
X155288038Y-109928571D01*
X155145180Y-110785714D02*
X155145180Y-110309524D01*
X155145180Y-110309524D02*
X154668990Y-110261905D01*
X154668990Y-110261905D02*
X154716609Y-110309524D01*
X154716609Y-110309524D02*
X154764228Y-110404762D01*
X154764228Y-110404762D02*
X154764228Y-110642857D01*
X154764228Y-110642857D02*
X154716609Y-110738095D01*
X154716609Y-110738095D02*
X154668990Y-110785714D01*
X154668990Y-110785714D02*
X154573752Y-110833333D01*
X154573752Y-110833333D02*
X154335657Y-110833333D01*
X154335657Y-110833333D02*
X154240419Y-110785714D01*
X154240419Y-110785714D02*
X154192800Y-110738095D01*
X154192800Y-110738095D02*
X154145180Y-110642857D01*
X154145180Y-110642857D02*
X154145180Y-110404762D01*
X154145180Y-110404762D02*
X154192800Y-110309524D01*
X154192800Y-110309524D02*
X154240419Y-110261905D01*
X154145180Y-111785714D02*
X154145180Y-111214286D01*
X154145180Y-111500000D02*
X155145180Y-111500000D01*
X155145180Y-111500000D02*
X155002323Y-111404762D01*
X155002323Y-111404762D02*
X154907085Y-111309524D01*
X154907085Y-111309524D02*
X154859466Y-111214286D01*
X153764228Y-112119048D02*
X153811847Y-112166667D01*
X153811847Y-112166667D02*
X153954704Y-112261905D01*
X153954704Y-112261905D02*
X154049942Y-112309524D01*
X154049942Y-112309524D02*
X154192800Y-112357143D01*
X154192800Y-112357143D02*
X154430895Y-112404762D01*
X154430895Y-112404762D02*
X154621371Y-112404762D01*
X154621371Y-112404762D02*
X154859466Y-112357143D01*
X154859466Y-112357143D02*
X155002323Y-112309524D01*
X155002323Y-112309524D02*
X155097561Y-112261905D01*
X155097561Y-112261905D02*
X155240419Y-112166667D01*
X155240419Y-112166667D02*
X155288038Y-112119048D01*
X161445180Y-101666666D02*
X160730895Y-101666666D01*
X160730895Y-101666666D02*
X160588038Y-101619047D01*
X160588038Y-101619047D02*
X160492800Y-101523809D01*
X160492800Y-101523809D02*
X160445180Y-101380952D01*
X160445180Y-101380952D02*
X160445180Y-101285714D01*
X160445180Y-102666666D02*
X160445180Y-102095238D01*
X160445180Y-102380952D02*
X161445180Y-102380952D01*
X161445180Y-102380952D02*
X161302323Y-102285714D01*
X161302323Y-102285714D02*
X161207085Y-102190476D01*
X161207085Y-102190476D02*
X161159466Y-102095238D01*
X112157141Y-129529580D02*
X112109522Y-129577200D01*
X112109522Y-129577200D02*
X111966665Y-129624819D01*
X111966665Y-129624819D02*
X111871427Y-129624819D01*
X111871427Y-129624819D02*
X111728570Y-129577200D01*
X111728570Y-129577200D02*
X111633332Y-129481961D01*
X111633332Y-129481961D02*
X111585713Y-129386723D01*
X111585713Y-129386723D02*
X111538094Y-129196247D01*
X111538094Y-129196247D02*
X111538094Y-129053390D01*
X111538094Y-129053390D02*
X111585713Y-128862914D01*
X111585713Y-128862914D02*
X111633332Y-128767676D01*
X111633332Y-128767676D02*
X111728570Y-128672438D01*
X111728570Y-128672438D02*
X111871427Y-128624819D01*
X111871427Y-128624819D02*
X111966665Y-128624819D01*
X111966665Y-128624819D02*
X112109522Y-128672438D01*
X112109522Y-128672438D02*
X112157141Y-128720057D01*
X112728570Y-129624819D02*
X112633332Y-129577200D01*
X112633332Y-129577200D02*
X112585713Y-129529580D01*
X112585713Y-129529580D02*
X112538094Y-129434342D01*
X112538094Y-129434342D02*
X112538094Y-129148628D01*
X112538094Y-129148628D02*
X112585713Y-129053390D01*
X112585713Y-129053390D02*
X112633332Y-129005771D01*
X112633332Y-129005771D02*
X112728570Y-128958152D01*
X112728570Y-128958152D02*
X112871427Y-128958152D01*
X112871427Y-128958152D02*
X112966665Y-129005771D01*
X112966665Y-129005771D02*
X113014284Y-129053390D01*
X113014284Y-129053390D02*
X113061903Y-129148628D01*
X113061903Y-129148628D02*
X113061903Y-129434342D01*
X113061903Y-129434342D02*
X113014284Y-129529580D01*
X113014284Y-129529580D02*
X112966665Y-129577200D01*
X112966665Y-129577200D02*
X112871427Y-129624819D01*
X112871427Y-129624819D02*
X112728570Y-129624819D01*
X113490475Y-128958152D02*
X113490475Y-129624819D01*
X113490475Y-129053390D02*
X113538094Y-129005771D01*
X113538094Y-129005771D02*
X113633332Y-128958152D01*
X113633332Y-128958152D02*
X113776189Y-128958152D01*
X113776189Y-128958152D02*
X113871427Y-129005771D01*
X113871427Y-129005771D02*
X113919046Y-129101009D01*
X113919046Y-129101009D02*
X113919046Y-129624819D01*
X114395237Y-128958152D02*
X114395237Y-129624819D01*
X114395237Y-129053390D02*
X114442856Y-129005771D01*
X114442856Y-129005771D02*
X114538094Y-128958152D01*
X114538094Y-128958152D02*
X114680951Y-128958152D01*
X114680951Y-128958152D02*
X114776189Y-129005771D01*
X114776189Y-129005771D02*
X114823808Y-129101009D01*
X114823808Y-129101009D02*
X114823808Y-129624819D01*
X115061904Y-129720057D02*
X115823808Y-129720057D01*
X116252380Y-128624819D02*
X116347618Y-128624819D01*
X116347618Y-128624819D02*
X116442856Y-128672438D01*
X116442856Y-128672438D02*
X116490475Y-128720057D01*
X116490475Y-128720057D02*
X116538094Y-128815295D01*
X116538094Y-128815295D02*
X116585713Y-129005771D01*
X116585713Y-129005771D02*
X116585713Y-129243866D01*
X116585713Y-129243866D02*
X116538094Y-129434342D01*
X116538094Y-129434342D02*
X116490475Y-129529580D01*
X116490475Y-129529580D02*
X116442856Y-129577200D01*
X116442856Y-129577200D02*
X116347618Y-129624819D01*
X116347618Y-129624819D02*
X116252380Y-129624819D01*
X116252380Y-129624819D02*
X116157142Y-129577200D01*
X116157142Y-129577200D02*
X116109523Y-129529580D01*
X116109523Y-129529580D02*
X116061904Y-129434342D01*
X116061904Y-129434342D02*
X116014285Y-129243866D01*
X116014285Y-129243866D02*
X116014285Y-129005771D01*
X116014285Y-129005771D02*
X116061904Y-128815295D01*
X116061904Y-128815295D02*
X116109523Y-128720057D01*
X116109523Y-128720057D02*
X116157142Y-128672438D01*
X116157142Y-128672438D02*
X116252380Y-128624819D01*
X116966666Y-128720057D02*
X117014285Y-128672438D01*
X117014285Y-128672438D02*
X117109523Y-128624819D01*
X117109523Y-128624819D02*
X117347618Y-128624819D01*
X117347618Y-128624819D02*
X117442856Y-128672438D01*
X117442856Y-128672438D02*
X117490475Y-128720057D01*
X117490475Y-128720057D02*
X117538094Y-128815295D01*
X117538094Y-128815295D02*
X117538094Y-128910533D01*
X117538094Y-128910533D02*
X117490475Y-129053390D01*
X117490475Y-129053390D02*
X116919047Y-129624819D01*
X116919047Y-129624819D02*
X117538094Y-129624819D01*
X117871428Y-129624819D02*
X118395237Y-128958152D01*
X117871428Y-128958152D02*
X118395237Y-129624819D01*
X118966666Y-128624819D02*
X119061904Y-128624819D01*
X119061904Y-128624819D02*
X119157142Y-128672438D01*
X119157142Y-128672438D02*
X119204761Y-128720057D01*
X119204761Y-128720057D02*
X119252380Y-128815295D01*
X119252380Y-128815295D02*
X119299999Y-129005771D01*
X119299999Y-129005771D02*
X119299999Y-129243866D01*
X119299999Y-129243866D02*
X119252380Y-129434342D01*
X119252380Y-129434342D02*
X119204761Y-129529580D01*
X119204761Y-129529580D02*
X119157142Y-129577200D01*
X119157142Y-129577200D02*
X119061904Y-129624819D01*
X119061904Y-129624819D02*
X118966666Y-129624819D01*
X118966666Y-129624819D02*
X118871428Y-129577200D01*
X118871428Y-129577200D02*
X118823809Y-129529580D01*
X118823809Y-129529580D02*
X118776190Y-129434342D01*
X118776190Y-129434342D02*
X118728571Y-129243866D01*
X118728571Y-129243866D02*
X118728571Y-129005771D01*
X118728571Y-129005771D02*
X118776190Y-128815295D01*
X118776190Y-128815295D02*
X118823809Y-128720057D01*
X118823809Y-128720057D02*
X118871428Y-128672438D01*
X118871428Y-128672438D02*
X118966666Y-128624819D01*
X119633333Y-128624819D02*
X120252380Y-128624819D01*
X120252380Y-128624819D02*
X119919047Y-129005771D01*
X119919047Y-129005771D02*
X120061904Y-129005771D01*
X120061904Y-129005771D02*
X120157142Y-129053390D01*
X120157142Y-129053390D02*
X120204761Y-129101009D01*
X120204761Y-129101009D02*
X120252380Y-129196247D01*
X120252380Y-129196247D02*
X120252380Y-129434342D01*
X120252380Y-129434342D02*
X120204761Y-129529580D01*
X120204761Y-129529580D02*
X120157142Y-129577200D01*
X120157142Y-129577200D02*
X120061904Y-129624819D01*
X120061904Y-129624819D02*
X119776190Y-129624819D01*
X119776190Y-129624819D02*
X119680952Y-129577200D01*
X119680952Y-129577200D02*
X119633333Y-129529580D01*
X120442857Y-129720057D02*
X121204761Y-129720057D01*
X121633333Y-128624819D02*
X121823809Y-128624819D01*
X121823809Y-128624819D02*
X121919047Y-128672438D01*
X121919047Y-128672438D02*
X122014285Y-128767676D01*
X122014285Y-128767676D02*
X122061904Y-128958152D01*
X122061904Y-128958152D02*
X122061904Y-129291485D01*
X122061904Y-129291485D02*
X122014285Y-129481961D01*
X122014285Y-129481961D02*
X121919047Y-129577200D01*
X121919047Y-129577200D02*
X121823809Y-129624819D01*
X121823809Y-129624819D02*
X121633333Y-129624819D01*
X121633333Y-129624819D02*
X121538095Y-129577200D01*
X121538095Y-129577200D02*
X121442857Y-129481961D01*
X121442857Y-129481961D02*
X121395238Y-129291485D01*
X121395238Y-129291485D02*
X121395238Y-128958152D01*
X121395238Y-128958152D02*
X121442857Y-128767676D01*
X121442857Y-128767676D02*
X121538095Y-128672438D01*
X121538095Y-128672438D02*
X121633333Y-128624819D01*
X122919047Y-129624819D02*
X122919047Y-128624819D01*
X122919047Y-129577200D02*
X122823809Y-129624819D01*
X122823809Y-129624819D02*
X122633333Y-129624819D01*
X122633333Y-129624819D02*
X122538095Y-129577200D01*
X122538095Y-129577200D02*
X122490476Y-129529580D01*
X122490476Y-129529580D02*
X122442857Y-129434342D01*
X122442857Y-129434342D02*
X122442857Y-129148628D01*
X122442857Y-129148628D02*
X122490476Y-129053390D01*
X122490476Y-129053390D02*
X122538095Y-129005771D01*
X122538095Y-129005771D02*
X122633333Y-128958152D01*
X122633333Y-128958152D02*
X122823809Y-128958152D01*
X122823809Y-128958152D02*
X122919047Y-129005771D01*
X123823809Y-129624819D02*
X123823809Y-128624819D01*
X123823809Y-129577200D02*
X123728571Y-129624819D01*
X123728571Y-129624819D02*
X123538095Y-129624819D01*
X123538095Y-129624819D02*
X123442857Y-129577200D01*
X123442857Y-129577200D02*
X123395238Y-129529580D01*
X123395238Y-129529580D02*
X123347619Y-129434342D01*
X123347619Y-129434342D02*
X123347619Y-129148628D01*
X123347619Y-129148628D02*
X123395238Y-129053390D01*
X123395238Y-129053390D02*
X123442857Y-129005771D01*
X123442857Y-129005771D02*
X123538095Y-128958152D01*
X123538095Y-128958152D02*
X123728571Y-128958152D01*
X123728571Y-128958152D02*
X123823809Y-129005771D01*
X124061905Y-129720057D02*
X124823809Y-129720057D01*
X125061905Y-129101009D02*
X125395238Y-129101009D01*
X125538095Y-129624819D02*
X125061905Y-129624819D01*
X125061905Y-129624819D02*
X125061905Y-128624819D01*
X125061905Y-128624819D02*
X125538095Y-128624819D01*
X125871429Y-128958152D02*
X126109524Y-129624819D01*
X126109524Y-129624819D02*
X126347619Y-128958152D01*
X127109524Y-129577200D02*
X127014286Y-129624819D01*
X127014286Y-129624819D02*
X126823810Y-129624819D01*
X126823810Y-129624819D02*
X126728572Y-129577200D01*
X126728572Y-129577200D02*
X126680953Y-129481961D01*
X126680953Y-129481961D02*
X126680953Y-129101009D01*
X126680953Y-129101009D02*
X126728572Y-129005771D01*
X126728572Y-129005771D02*
X126823810Y-128958152D01*
X126823810Y-128958152D02*
X127014286Y-128958152D01*
X127014286Y-128958152D02*
X127109524Y-129005771D01*
X127109524Y-129005771D02*
X127157143Y-129101009D01*
X127157143Y-129101009D02*
X127157143Y-129196247D01*
X127157143Y-129196247D02*
X126680953Y-129291485D01*
X127585715Y-128958152D02*
X127585715Y-129624819D01*
X127585715Y-129053390D02*
X127633334Y-129005771D01*
X127633334Y-129005771D02*
X127728572Y-128958152D01*
X127728572Y-128958152D02*
X127871429Y-128958152D01*
X127871429Y-128958152D02*
X127966667Y-129005771D01*
X127966667Y-129005771D02*
X128014286Y-129101009D01*
X128014286Y-129101009D02*
X128014286Y-129624819D01*
X119254819Y-124633333D02*
X119969104Y-124633333D01*
X119969104Y-124633333D02*
X120111961Y-124680952D01*
X120111961Y-124680952D02*
X120207200Y-124776190D01*
X120207200Y-124776190D02*
X120254819Y-124919047D01*
X120254819Y-124919047D02*
X120254819Y-125014285D01*
X119588152Y-123728571D02*
X120254819Y-123728571D01*
X119207200Y-123966666D02*
X119921485Y-124204761D01*
X119921485Y-124204761D02*
X119921485Y-123585714D01*
X132958152Y-125828571D02*
X133624819Y-125828571D01*
X132577200Y-126066666D02*
X133291485Y-126304761D01*
X133291485Y-126304761D02*
X133291485Y-125685714D01*
X133529580Y-125304761D02*
X133577200Y-125257142D01*
X133577200Y-125257142D02*
X133624819Y-125304761D01*
X133624819Y-125304761D02*
X133577200Y-125352380D01*
X133577200Y-125352380D02*
X133529580Y-125304761D01*
X133529580Y-125304761D02*
X133624819Y-125304761D01*
X132624819Y-124923809D02*
X132624819Y-124257143D01*
X132624819Y-124257143D02*
X133624819Y-124685714D01*
X133624819Y-123876190D02*
X132624819Y-123876190D01*
X133243866Y-123780952D02*
X133624819Y-123495238D01*
X132958152Y-123495238D02*
X133339104Y-123876190D01*
D11*
X132118200Y-124943332D02*
X131994391Y-125029999D01*
X132118200Y-125091904D02*
X131858200Y-125091904D01*
X131858200Y-125091904D02*
X131858200Y-124992856D01*
X131858200Y-124992856D02*
X131870581Y-124968094D01*
X131870581Y-124968094D02*
X131882962Y-124955713D01*
X131882962Y-124955713D02*
X131907724Y-124943332D01*
X131907724Y-124943332D02*
X131944867Y-124943332D01*
X131944867Y-124943332D02*
X131969629Y-124955713D01*
X131969629Y-124955713D02*
X131982010Y-124968094D01*
X131982010Y-124968094D02*
X131994391Y-124992856D01*
X131994391Y-124992856D02*
X131994391Y-125091904D01*
X132118200Y-124695713D02*
X132118200Y-124844285D01*
X132118200Y-124769999D02*
X131858200Y-124769999D01*
X131858200Y-124769999D02*
X131895343Y-124794761D01*
X131895343Y-124794761D02*
X131920105Y-124819523D01*
X131920105Y-124819523D02*
X131932486Y-124844285D01*
D10*
X130433333Y-120369104D02*
X130909523Y-120369104D01*
X130338095Y-120654819D02*
X130671428Y-119654819D01*
X130671428Y-119654819D02*
X131004761Y-120654819D01*
X131195238Y-119654819D02*
X131766666Y-119654819D01*
X131480952Y-120654819D02*
X131480952Y-119654819D01*
X132052381Y-119750057D02*
X132100000Y-119702438D01*
X132100000Y-119702438D02*
X132195238Y-119654819D01*
X132195238Y-119654819D02*
X132433333Y-119654819D01*
X132433333Y-119654819D02*
X132528571Y-119702438D01*
X132528571Y-119702438D02*
X132576190Y-119750057D01*
X132576190Y-119750057D02*
X132623809Y-119845295D01*
X132623809Y-119845295D02*
X132623809Y-119940533D01*
X132623809Y-119940533D02*
X132576190Y-120083390D01*
X132576190Y-120083390D02*
X132004762Y-120654819D01*
X132004762Y-120654819D02*
X132623809Y-120654819D01*
X133480952Y-119988152D02*
X133480952Y-120654819D01*
X133242857Y-119607200D02*
X133004762Y-120321485D01*
X133004762Y-120321485D02*
X133623809Y-120321485D01*
X134576190Y-120559580D02*
X134528571Y-120607200D01*
X134528571Y-120607200D02*
X134385714Y-120654819D01*
X134385714Y-120654819D02*
X134290476Y-120654819D01*
X134290476Y-120654819D02*
X134147619Y-120607200D01*
X134147619Y-120607200D02*
X134052381Y-120511961D01*
X134052381Y-120511961D02*
X134004762Y-120416723D01*
X134004762Y-120416723D02*
X133957143Y-120226247D01*
X133957143Y-120226247D02*
X133957143Y-120083390D01*
X133957143Y-120083390D02*
X134004762Y-119892914D01*
X134004762Y-119892914D02*
X134052381Y-119797676D01*
X134052381Y-119797676D02*
X134147619Y-119702438D01*
X134147619Y-119702438D02*
X134290476Y-119654819D01*
X134290476Y-119654819D02*
X134385714Y-119654819D01*
X134385714Y-119654819D02*
X134528571Y-119702438D01*
X134528571Y-119702438D02*
X134576190Y-119750057D01*
X134957143Y-120607200D02*
X135100000Y-120654819D01*
X135100000Y-120654819D02*
X135338095Y-120654819D01*
X135338095Y-120654819D02*
X135433333Y-120607200D01*
X135433333Y-120607200D02*
X135480952Y-120559580D01*
X135480952Y-120559580D02*
X135528571Y-120464342D01*
X135528571Y-120464342D02*
X135528571Y-120369104D01*
X135528571Y-120369104D02*
X135480952Y-120273866D01*
X135480952Y-120273866D02*
X135433333Y-120226247D01*
X135433333Y-120226247D02*
X135338095Y-120178628D01*
X135338095Y-120178628D02*
X135147619Y-120131009D01*
X135147619Y-120131009D02*
X135052381Y-120083390D01*
X135052381Y-120083390D02*
X135004762Y-120035771D01*
X135004762Y-120035771D02*
X134957143Y-119940533D01*
X134957143Y-119940533D02*
X134957143Y-119845295D01*
X134957143Y-119845295D02*
X135004762Y-119750057D01*
X135004762Y-119750057D02*
X135052381Y-119702438D01*
X135052381Y-119702438D02*
X135147619Y-119654819D01*
X135147619Y-119654819D02*
X135385714Y-119654819D01*
X135385714Y-119654819D02*
X135528571Y-119702438D01*
X136147619Y-119654819D02*
X136242857Y-119654819D01*
X136242857Y-119654819D02*
X136338095Y-119702438D01*
X136338095Y-119702438D02*
X136385714Y-119750057D01*
X136385714Y-119750057D02*
X136433333Y-119845295D01*
X136433333Y-119845295D02*
X136480952Y-120035771D01*
X136480952Y-120035771D02*
X136480952Y-120273866D01*
X136480952Y-120273866D02*
X136433333Y-120464342D01*
X136433333Y-120464342D02*
X136385714Y-120559580D01*
X136385714Y-120559580D02*
X136338095Y-120607200D01*
X136338095Y-120607200D02*
X136242857Y-120654819D01*
X136242857Y-120654819D02*
X136147619Y-120654819D01*
X136147619Y-120654819D02*
X136052381Y-120607200D01*
X136052381Y-120607200D02*
X136004762Y-120559580D01*
X136004762Y-120559580D02*
X135957143Y-120464342D01*
X135957143Y-120464342D02*
X135909524Y-120273866D01*
X135909524Y-120273866D02*
X135909524Y-120035771D01*
X135909524Y-120035771D02*
X135957143Y-119845295D01*
X135957143Y-119845295D02*
X136004762Y-119750057D01*
X136004762Y-119750057D02*
X136052381Y-119702438D01*
X136052381Y-119702438D02*
X136147619Y-119654819D01*
X137433333Y-120654819D02*
X136861905Y-120654819D01*
X137147619Y-120654819D02*
X137147619Y-119654819D01*
X137147619Y-119654819D02*
X137052381Y-119797676D01*
X137052381Y-119797676D02*
X136957143Y-119892914D01*
X136957143Y-119892914D02*
X136861905Y-119940533D01*
X137861905Y-120273866D02*
X138623810Y-120273866D01*
X139052381Y-120607200D02*
X139195238Y-120654819D01*
X139195238Y-120654819D02*
X139433333Y-120654819D01*
X139433333Y-120654819D02*
X139528571Y-120607200D01*
X139528571Y-120607200D02*
X139576190Y-120559580D01*
X139576190Y-120559580D02*
X139623809Y-120464342D01*
X139623809Y-120464342D02*
X139623809Y-120369104D01*
X139623809Y-120369104D02*
X139576190Y-120273866D01*
X139576190Y-120273866D02*
X139528571Y-120226247D01*
X139528571Y-120226247D02*
X139433333Y-120178628D01*
X139433333Y-120178628D02*
X139242857Y-120131009D01*
X139242857Y-120131009D02*
X139147619Y-120083390D01*
X139147619Y-120083390D02*
X139100000Y-120035771D01*
X139100000Y-120035771D02*
X139052381Y-119940533D01*
X139052381Y-119940533D02*
X139052381Y-119845295D01*
X139052381Y-119845295D02*
X139100000Y-119750057D01*
X139100000Y-119750057D02*
X139147619Y-119702438D01*
X139147619Y-119702438D02*
X139242857Y-119654819D01*
X139242857Y-119654819D02*
X139480952Y-119654819D01*
X139480952Y-119654819D02*
X139623809Y-119702438D01*
X140004762Y-120607200D02*
X140147619Y-120654819D01*
X140147619Y-120654819D02*
X140385714Y-120654819D01*
X140385714Y-120654819D02*
X140480952Y-120607200D01*
X140480952Y-120607200D02*
X140528571Y-120559580D01*
X140528571Y-120559580D02*
X140576190Y-120464342D01*
X140576190Y-120464342D02*
X140576190Y-120369104D01*
X140576190Y-120369104D02*
X140528571Y-120273866D01*
X140528571Y-120273866D02*
X140480952Y-120226247D01*
X140480952Y-120226247D02*
X140385714Y-120178628D01*
X140385714Y-120178628D02*
X140195238Y-120131009D01*
X140195238Y-120131009D02*
X140100000Y-120083390D01*
X140100000Y-120083390D02*
X140052381Y-120035771D01*
X140052381Y-120035771D02*
X140004762Y-119940533D01*
X140004762Y-119940533D02*
X140004762Y-119845295D01*
X140004762Y-119845295D02*
X140052381Y-119750057D01*
X140052381Y-119750057D02*
X140100000Y-119702438D01*
X140100000Y-119702438D02*
X140195238Y-119654819D01*
X140195238Y-119654819D02*
X140433333Y-119654819D01*
X140433333Y-119654819D02*
X140576190Y-119702438D01*
X141004762Y-120654819D02*
X141004762Y-119654819D01*
X141004762Y-120131009D02*
X141576190Y-120131009D01*
X141576190Y-120654819D02*
X141576190Y-119654819D01*
X142052381Y-120654819D02*
X142052381Y-119654819D01*
X142052381Y-119654819D02*
X142385714Y-120369104D01*
X142385714Y-120369104D02*
X142719047Y-119654819D01*
X142719047Y-119654819D02*
X142719047Y-120654819D01*
X135853333Y-123065566D02*
X135853333Y-123858900D01*
X135853333Y-123858900D02*
X135900000Y-123952233D01*
X135900000Y-123952233D02*
X135946666Y-123998900D01*
X135946666Y-123998900D02*
X136040000Y-124045566D01*
X136040000Y-124045566D02*
X136226666Y-124045566D01*
X136226666Y-124045566D02*
X136320000Y-123998900D01*
X136320000Y-123998900D02*
X136366666Y-123952233D01*
X136366666Y-123952233D02*
X136413333Y-123858900D01*
X136413333Y-123858900D02*
X136413333Y-123065566D01*
X137393333Y-124045566D02*
X136833333Y-124045566D01*
X137113333Y-124045566D02*
X137113333Y-123065566D01*
X137113333Y-123065566D02*
X137020000Y-123205566D01*
X137020000Y-123205566D02*
X136926667Y-123298900D01*
X136926667Y-123298900D02*
X136833333Y-123345566D01*
X130658152Y-123128571D02*
X131324819Y-123128571D01*
X130277200Y-123366666D02*
X130991485Y-123604761D01*
X130991485Y-123604761D02*
X130991485Y-122985714D01*
X131229580Y-122604761D02*
X131277200Y-122557142D01*
X131277200Y-122557142D02*
X131324819Y-122604761D01*
X131324819Y-122604761D02*
X131277200Y-122652380D01*
X131277200Y-122652380D02*
X131229580Y-122604761D01*
X131229580Y-122604761D02*
X131324819Y-122604761D01*
X130324819Y-122223809D02*
X130324819Y-121557143D01*
X130324819Y-121557143D02*
X131324819Y-121985714D01*
X131324819Y-121176190D02*
X130324819Y-121176190D01*
X130943866Y-121080952D02*
X131324819Y-120795238D01*
X130658152Y-120795238D02*
X131039104Y-121176190D01*
D11*
X129818200Y-122243332D02*
X129694391Y-122329999D01*
X129818200Y-122391904D02*
X129558200Y-122391904D01*
X129558200Y-122391904D02*
X129558200Y-122292856D01*
X129558200Y-122292856D02*
X129570581Y-122268094D01*
X129570581Y-122268094D02*
X129582962Y-122255713D01*
X129582962Y-122255713D02*
X129607724Y-122243332D01*
X129607724Y-122243332D02*
X129644867Y-122243332D01*
X129644867Y-122243332D02*
X129669629Y-122255713D01*
X129669629Y-122255713D02*
X129682010Y-122268094D01*
X129682010Y-122268094D02*
X129694391Y-122292856D01*
X129694391Y-122292856D02*
X129694391Y-122391904D01*
X129582962Y-122144285D02*
X129570581Y-122131904D01*
X129570581Y-122131904D02*
X129558200Y-122107142D01*
X129558200Y-122107142D02*
X129558200Y-122045237D01*
X129558200Y-122045237D02*
X129570581Y-122020475D01*
X129570581Y-122020475D02*
X129582962Y-122008094D01*
X129582962Y-122008094D02*
X129607724Y-121995713D01*
X129607724Y-121995713D02*
X129632486Y-121995713D01*
X129632486Y-121995713D02*
X129669629Y-122008094D01*
X129669629Y-122008094D02*
X129818200Y-122156666D01*
X129818200Y-122156666D02*
X129818200Y-121995713D01*
X161963574Y-86166666D02*
X161963574Y-86285714D01*
X161963574Y-86285714D02*
X161713574Y-86285714D01*
X161963574Y-86083333D02*
X161713574Y-86083333D01*
X161713574Y-86083333D02*
X161713574Y-86023809D01*
X161713574Y-86023809D02*
X161725479Y-85988095D01*
X161725479Y-85988095D02*
X161749289Y-85964285D01*
X161749289Y-85964285D02*
X161773098Y-85952380D01*
X161773098Y-85952380D02*
X161820717Y-85940476D01*
X161820717Y-85940476D02*
X161856431Y-85940476D01*
X161856431Y-85940476D02*
X161904050Y-85952380D01*
X161904050Y-85952380D02*
X161927860Y-85964285D01*
X161927860Y-85964285D02*
X161951670Y-85988095D01*
X161951670Y-85988095D02*
X161963574Y-86023809D01*
X161963574Y-86023809D02*
X161963574Y-86083333D01*
X161737384Y-85845237D02*
X161725479Y-85833333D01*
X161725479Y-85833333D02*
X161713574Y-85809523D01*
X161713574Y-85809523D02*
X161713574Y-85749999D01*
X161713574Y-85749999D02*
X161725479Y-85726190D01*
X161725479Y-85726190D02*
X161737384Y-85714285D01*
X161737384Y-85714285D02*
X161761193Y-85702380D01*
X161761193Y-85702380D02*
X161785003Y-85702380D01*
X161785003Y-85702380D02*
X161820717Y-85714285D01*
X161820717Y-85714285D02*
X161963574Y-85857142D01*
X161963574Y-85857142D02*
X161963574Y-85702380D01*
D10*
X134957143Y-127714819D02*
X135052381Y-127714819D01*
X135052381Y-127714819D02*
X135147619Y-127762438D01*
X135147619Y-127762438D02*
X135195238Y-127810057D01*
X135195238Y-127810057D02*
X135242857Y-127905295D01*
X135242857Y-127905295D02*
X135290476Y-128095771D01*
X135290476Y-128095771D02*
X135290476Y-128333866D01*
X135290476Y-128333866D02*
X135242857Y-128524342D01*
X135242857Y-128524342D02*
X135195238Y-128619580D01*
X135195238Y-128619580D02*
X135147619Y-128667200D01*
X135147619Y-128667200D02*
X135052381Y-128714819D01*
X135052381Y-128714819D02*
X134957143Y-128714819D01*
X134957143Y-128714819D02*
X134861905Y-128667200D01*
X134861905Y-128667200D02*
X134814286Y-128619580D01*
X134814286Y-128619580D02*
X134766667Y-128524342D01*
X134766667Y-128524342D02*
X134719048Y-128333866D01*
X134719048Y-128333866D02*
X134719048Y-128095771D01*
X134719048Y-128095771D02*
X134766667Y-127905295D01*
X134766667Y-127905295D02*
X134814286Y-127810057D01*
X134814286Y-127810057D02*
X134861905Y-127762438D01*
X134861905Y-127762438D02*
X134957143Y-127714819D01*
X135719048Y-128619580D02*
X135766667Y-128667200D01*
X135766667Y-128667200D02*
X135719048Y-128714819D01*
X135719048Y-128714819D02*
X135671429Y-128667200D01*
X135671429Y-128667200D02*
X135719048Y-128619580D01*
X135719048Y-128619580D02*
X135719048Y-128714819D01*
X136719047Y-128714819D02*
X136147619Y-128714819D01*
X136433333Y-128714819D02*
X136433333Y-127714819D01*
X136433333Y-127714819D02*
X136338095Y-127857676D01*
X136338095Y-127857676D02*
X136242857Y-127952914D01*
X136242857Y-127952914D02*
X136147619Y-128000533D01*
X137576190Y-128048152D02*
X137576190Y-128714819D01*
X137147619Y-128048152D02*
X137147619Y-128571961D01*
X137147619Y-128571961D02*
X137195238Y-128667200D01*
X137195238Y-128667200D02*
X137290476Y-128714819D01*
X137290476Y-128714819D02*
X137433333Y-128714819D01*
X137433333Y-128714819D02*
X137528571Y-128667200D01*
X137528571Y-128667200D02*
X137576190Y-128619580D01*
X138385714Y-128191009D02*
X138052381Y-128191009D01*
X138052381Y-128714819D02*
X138052381Y-127714819D01*
X138052381Y-127714819D02*
X138528571Y-127714819D01*
D11*
X136558333Y-127189765D02*
X136546429Y-127201670D01*
X136546429Y-127201670D02*
X136510714Y-127213574D01*
X136510714Y-127213574D02*
X136486905Y-127213574D01*
X136486905Y-127213574D02*
X136451191Y-127201670D01*
X136451191Y-127201670D02*
X136427381Y-127177860D01*
X136427381Y-127177860D02*
X136415476Y-127154050D01*
X136415476Y-127154050D02*
X136403572Y-127106431D01*
X136403572Y-127106431D02*
X136403572Y-127070717D01*
X136403572Y-127070717D02*
X136415476Y-127023098D01*
X136415476Y-127023098D02*
X136427381Y-126999289D01*
X136427381Y-126999289D02*
X136451191Y-126975479D01*
X136451191Y-126975479D02*
X136486905Y-126963574D01*
X136486905Y-126963574D02*
X136510714Y-126963574D01*
X136510714Y-126963574D02*
X136546429Y-126975479D01*
X136546429Y-126975479D02*
X136558333Y-126987384D01*
X136796429Y-127213574D02*
X136653572Y-127213574D01*
X136725000Y-127213574D02*
X136725000Y-126963574D01*
X136725000Y-126963574D02*
X136701191Y-126999289D01*
X136701191Y-126999289D02*
X136677381Y-127023098D01*
X136677381Y-127023098D02*
X136653572Y-127035003D01*
D10*
X149666666Y-75654819D02*
X150238094Y-75654819D01*
X149952380Y-76654819D02*
X149952380Y-75654819D01*
X150952380Y-76607200D02*
X150857142Y-76654819D01*
X150857142Y-76654819D02*
X150666666Y-76654819D01*
X150666666Y-76654819D02*
X150571428Y-76607200D01*
X150571428Y-76607200D02*
X150523809Y-76511961D01*
X150523809Y-76511961D02*
X150523809Y-76131009D01*
X150523809Y-76131009D02*
X150571428Y-76035771D01*
X150571428Y-76035771D02*
X150666666Y-75988152D01*
X150666666Y-75988152D02*
X150857142Y-75988152D01*
X150857142Y-75988152D02*
X150952380Y-76035771D01*
X150952380Y-76035771D02*
X150999999Y-76131009D01*
X150999999Y-76131009D02*
X150999999Y-76226247D01*
X150999999Y-76226247D02*
X150523809Y-76321485D01*
X151380952Y-76607200D02*
X151476190Y-76654819D01*
X151476190Y-76654819D02*
X151666666Y-76654819D01*
X151666666Y-76654819D02*
X151761904Y-76607200D01*
X151761904Y-76607200D02*
X151809523Y-76511961D01*
X151809523Y-76511961D02*
X151809523Y-76464342D01*
X151809523Y-76464342D02*
X151761904Y-76369104D01*
X151761904Y-76369104D02*
X151666666Y-76321485D01*
X151666666Y-76321485D02*
X151523809Y-76321485D01*
X151523809Y-76321485D02*
X151428571Y-76273866D01*
X151428571Y-76273866D02*
X151380952Y-76178628D01*
X151380952Y-76178628D02*
X151380952Y-76131009D01*
X151380952Y-76131009D02*
X151428571Y-76035771D01*
X151428571Y-76035771D02*
X151523809Y-75988152D01*
X151523809Y-75988152D02*
X151666666Y-75988152D01*
X151666666Y-75988152D02*
X151761904Y-76035771D01*
X152095238Y-75988152D02*
X152476190Y-75988152D01*
X152238095Y-75654819D02*
X152238095Y-76511961D01*
X152238095Y-76511961D02*
X152285714Y-76607200D01*
X152285714Y-76607200D02*
X152380952Y-76654819D01*
X152380952Y-76654819D02*
X152476190Y-76654819D01*
X152809524Y-76654819D02*
X152809524Y-75654819D01*
X152809524Y-75654819D02*
X153190476Y-75654819D01*
X153190476Y-75654819D02*
X153285714Y-75702438D01*
X153285714Y-75702438D02*
X153333333Y-75750057D01*
X153333333Y-75750057D02*
X153380952Y-75845295D01*
X153380952Y-75845295D02*
X153380952Y-75988152D01*
X153380952Y-75988152D02*
X153333333Y-76083390D01*
X153333333Y-76083390D02*
X153285714Y-76131009D01*
X153285714Y-76131009D02*
X153190476Y-76178628D01*
X153190476Y-76178628D02*
X152809524Y-76178628D01*
X153952381Y-76654819D02*
X153857143Y-76607200D01*
X153857143Y-76607200D02*
X153809524Y-76559580D01*
X153809524Y-76559580D02*
X153761905Y-76464342D01*
X153761905Y-76464342D02*
X153761905Y-76178628D01*
X153761905Y-76178628D02*
X153809524Y-76083390D01*
X153809524Y-76083390D02*
X153857143Y-76035771D01*
X153857143Y-76035771D02*
X153952381Y-75988152D01*
X153952381Y-75988152D02*
X154095238Y-75988152D01*
X154095238Y-75988152D02*
X154190476Y-76035771D01*
X154190476Y-76035771D02*
X154238095Y-76083390D01*
X154238095Y-76083390D02*
X154285714Y-76178628D01*
X154285714Y-76178628D02*
X154285714Y-76464342D01*
X154285714Y-76464342D02*
X154238095Y-76559580D01*
X154238095Y-76559580D02*
X154190476Y-76607200D01*
X154190476Y-76607200D02*
X154095238Y-76654819D01*
X154095238Y-76654819D02*
X153952381Y-76654819D01*
X154714286Y-76654819D02*
X154714286Y-75988152D01*
X154714286Y-75654819D02*
X154666667Y-75702438D01*
X154666667Y-75702438D02*
X154714286Y-75750057D01*
X154714286Y-75750057D02*
X154761905Y-75702438D01*
X154761905Y-75702438D02*
X154714286Y-75654819D01*
X154714286Y-75654819D02*
X154714286Y-75750057D01*
X155190476Y-75988152D02*
X155190476Y-76654819D01*
X155190476Y-76083390D02*
X155238095Y-76035771D01*
X155238095Y-76035771D02*
X155333333Y-75988152D01*
X155333333Y-75988152D02*
X155476190Y-75988152D01*
X155476190Y-75988152D02*
X155571428Y-76035771D01*
X155571428Y-76035771D02*
X155619047Y-76131009D01*
X155619047Y-76131009D02*
X155619047Y-76654819D01*
X155952381Y-75988152D02*
X156333333Y-75988152D01*
X156095238Y-75654819D02*
X156095238Y-76511961D01*
X156095238Y-76511961D02*
X156142857Y-76607200D01*
X156142857Y-76607200D02*
X156238095Y-76654819D01*
X156238095Y-76654819D02*
X156333333Y-76654819D01*
X152438095Y-80954819D02*
X153009523Y-80954819D01*
X152723809Y-81954819D02*
X152723809Y-80954819D01*
X153342857Y-81954819D02*
X153342857Y-80954819D01*
X153342857Y-80954819D02*
X153723809Y-80954819D01*
X153723809Y-80954819D02*
X153819047Y-81002438D01*
X153819047Y-81002438D02*
X153866666Y-81050057D01*
X153866666Y-81050057D02*
X153914285Y-81145295D01*
X153914285Y-81145295D02*
X153914285Y-81288152D01*
X153914285Y-81288152D02*
X153866666Y-81383390D01*
X153866666Y-81383390D02*
X153819047Y-81431009D01*
X153819047Y-81431009D02*
X153723809Y-81478628D01*
X153723809Y-81478628D02*
X153342857Y-81478628D01*
X154247619Y-80954819D02*
X154866666Y-80954819D01*
X154866666Y-80954819D02*
X154533333Y-81335771D01*
X154533333Y-81335771D02*
X154676190Y-81335771D01*
X154676190Y-81335771D02*
X154771428Y-81383390D01*
X154771428Y-81383390D02*
X154819047Y-81431009D01*
X154819047Y-81431009D02*
X154866666Y-81526247D01*
X154866666Y-81526247D02*
X154866666Y-81764342D01*
X154866666Y-81764342D02*
X154819047Y-81859580D01*
X154819047Y-81859580D02*
X154771428Y-81907200D01*
X154771428Y-81907200D02*
X154676190Y-81954819D01*
X154676190Y-81954819D02*
X154390476Y-81954819D01*
X154390476Y-81954819D02*
X154295238Y-81907200D01*
X154295238Y-81907200D02*
X154247619Y-81859580D01*
X152218804Y-81454819D02*
X155091666Y-81454819D01*
D12*
X151340000Y-134700000D02*
X151340000Y-135300000D01*
X151460000Y-135300000D02*
G75*
G02*
X151340000Y-135300000I-60000J0D01*
G01*
X151460000Y-135300000D02*
X151460000Y-134700000D01*
X151460000Y-134700000D02*
G75*
G03*
X151340000Y-134700000I-60000J0D01*
G01*
X151400000Y-135360000D02*
X154600000Y-135360000D01*
X154600000Y-135240000D02*
G75*
G02*
X154600000Y-135360000I0J-60000D01*
G01*
X154600000Y-135240000D02*
X151400000Y-135240000D01*
X151400000Y-135240000D02*
G75*
G03*
X151400000Y-135360000I0J-60000D01*
G01*
X154600000Y-134640000D02*
X151400000Y-134640000D01*
X151400000Y-134760000D02*
G75*
G02*
X151400000Y-134640000I0J60000D01*
G01*
X151400000Y-134760000D02*
X154600000Y-134760000D01*
X154600000Y-134760000D02*
G75*
G03*
X154600000Y-134640000I0J60000D01*
G01*
X154660000Y-135300000D02*
X154660000Y-134700000D01*
X154540000Y-134700000D02*
G75*
G02*
X154660000Y-134700000I60000J0D01*
G01*
X154540000Y-134700000D02*
X154540000Y-135300000D01*
X154540000Y-135300000D02*
G75*
G03*
X154660000Y-135300000I60000J0D01*
G01*
D13*
%TO.C,TP1*%
D12*
X154490000Y-135000000D02*
G75*
G02*
X151510000Y-135000000I-1490000J0D01*
G01*
X151510000Y-135000000D02*
G75*
G02*
X154490000Y-135000000I1490000J0D01*
G01*
X154510000Y-135000000D02*
G75*
G02*
X151490000Y-135000000I-1510000J0D01*
G01*
X151490000Y-135000000D02*
G75*
G02*
X154510000Y-135000000I1510000J0D01*
G01*
%TO.C,JP1*%
X159160000Y-119730000D02*
X163290000Y-119730000D01*
X159160000Y-122270000D02*
X159160000Y-119730000D01*
X160110000Y-123540000D02*
X160110000Y-122270000D01*
X160750000Y-122270000D02*
X160750000Y-123540000D01*
X160750000Y-123540000D02*
X160110000Y-123540000D01*
X162650000Y-118460000D02*
X162650000Y-119730000D01*
X163290000Y-118460000D02*
X162650000Y-118460000D01*
X163290000Y-119730000D02*
X163290000Y-118460000D01*
X163290000Y-119730000D02*
X164240000Y-120680000D01*
X164240000Y-120680000D02*
X164240000Y-122270000D01*
X164240000Y-122270000D02*
X159160000Y-122270000D01*
X161340000Y-134700000D02*
X161340000Y-135300000D01*
X161460000Y-135300000D02*
G75*
G02*
X161340000Y-135300000I-60000J0D01*
G01*
X161460000Y-135300000D02*
X161460000Y-134700000D01*
X161460000Y-134700000D02*
G75*
G03*
X161340000Y-134700000I-60000J0D01*
G01*
X161400000Y-135360000D02*
X164600000Y-135360000D01*
X164600000Y-135240000D02*
G75*
G02*
X164600000Y-135360000I0J-60000D01*
G01*
X164600000Y-135240000D02*
X161400000Y-135240000D01*
X161400000Y-135240000D02*
G75*
G03*
X161400000Y-135360000I0J-60000D01*
G01*
X164600000Y-134640000D02*
X161400000Y-134640000D01*
X161400000Y-134760000D02*
G75*
G02*
X161400000Y-134640000I0J60000D01*
G01*
X161400000Y-134760000D02*
X164600000Y-134760000D01*
X164600000Y-134760000D02*
G75*
G03*
X164600000Y-134640000I0J60000D01*
G01*
X164660000Y-135300000D02*
X164660000Y-134700000D01*
X164540000Y-134700000D02*
G75*
G02*
X164660000Y-134700000I60000J0D01*
G01*
X164540000Y-134700000D02*
X164540000Y-135300000D01*
X164540000Y-135300000D02*
G75*
G03*
X164660000Y-135300000I60000J0D01*
G01*
D13*
%TO.C,TP2*%
D12*
X164490000Y-135000000D02*
G75*
G02*
X161510000Y-135000000I-1490000J0D01*
G01*
X161510000Y-135000000D02*
G75*
G02*
X164490000Y-135000000I1490000J0D01*
G01*
X164510000Y-135000000D02*
G75*
G02*
X161490000Y-135000000I-1510000J0D01*
G01*
X161490000Y-135000000D02*
G75*
G02*
X164510000Y-135000000I1510000J0D01*
G01*
%TO.C,R3*%
X130630000Y-123075000D02*
X131170000Y-123075000D01*
X130630000Y-124125000D02*
X130630000Y-123075000D01*
X131170000Y-123075000D02*
X131170000Y-124125000D01*
X131170000Y-124125000D02*
X130630000Y-124125000D01*
X161340000Y-78700000D02*
X161340000Y-79300000D01*
X161460000Y-79300000D02*
G75*
G02*
X161340000Y-79300000I-60000J0D01*
G01*
X161460000Y-79300000D02*
X161460000Y-78700000D01*
X161460000Y-78700000D02*
G75*
G03*
X161340000Y-78700000I-60000J0D01*
G01*
X161400000Y-79360000D02*
X164600000Y-79360000D01*
X164600000Y-79240000D02*
G75*
G02*
X164600000Y-79360000I0J-60000D01*
G01*
X164600000Y-79240000D02*
X161400000Y-79240000D01*
X161400000Y-79240000D02*
G75*
G03*
X161400000Y-79360000I0J-60000D01*
G01*
X164600000Y-78640000D02*
X161400000Y-78640000D01*
X161400000Y-78760000D02*
G75*
G02*
X161400000Y-78640000I0J60000D01*
G01*
X161400000Y-78760000D02*
X164600000Y-78760000D01*
X164600000Y-78760000D02*
G75*
G03*
X164600000Y-78640000I0J60000D01*
G01*
X164660000Y-79300000D02*
X164660000Y-78700000D01*
X164540000Y-78700000D02*
G75*
G02*
X164660000Y-78700000I60000J0D01*
G01*
X164540000Y-78700000D02*
X164540000Y-79300000D01*
X164540000Y-79300000D02*
G75*
G03*
X164660000Y-79300000I60000J0D01*
G01*
D13*
%TO.C,TP4*%
D12*
X164490000Y-79000000D02*
G75*
G02*
X161510000Y-79000000I-1490000J0D01*
G01*
X161510000Y-79000000D02*
G75*
G02*
X164490000Y-79000000I1490000J0D01*
G01*
X164510000Y-79000000D02*
G75*
G02*
X161490000Y-79000000I-1510000J0D01*
G01*
X161490000Y-79000000D02*
G75*
G02*
X164510000Y-79000000I1510000J0D01*
G01*
%TO.C,R4*%
X152985000Y-111330000D02*
X154035000Y-111330000D01*
X152985000Y-111870000D02*
X152985000Y-111330000D01*
X154035000Y-111330000D02*
X154035000Y-111870000D01*
X154035000Y-111870000D02*
X152985000Y-111870000D01*
%TO.C,LD1*%
X151000001Y-85600000D02*
G75*
G02*
X151000000Y-86400000I-200001J-400000D01*
G01*
X151002786Y-85600000D02*
G75*
G02*
X151002786Y-86400000I2000000J-400000D01*
G01*
%TO.C,J4*%
X116200000Y-121440000D02*
X116200000Y-122080000D01*
X116200000Y-122080000D02*
X117260000Y-122080000D01*
X116200000Y-123980000D02*
X116200000Y-124620000D01*
X116200000Y-124620000D02*
X117260000Y-124620000D01*
X116200000Y-126520000D02*
X116200000Y-127160000D01*
X116200000Y-127160000D02*
X117260000Y-127160000D01*
X117260000Y-121440000D02*
X116200000Y-121440000D01*
X117260000Y-121440000D02*
X118210000Y-120490000D01*
X117260000Y-123980000D02*
X116200000Y-123980000D01*
X117260000Y-126520000D02*
X116200000Y-126520000D01*
X117260000Y-128110000D02*
X117260000Y-121440000D01*
X118210000Y-120490000D02*
X122340000Y-120490000D01*
X122340000Y-120490000D02*
X122340000Y-128110000D01*
X122340000Y-121440000D02*
X123400000Y-121440000D01*
X122340000Y-123980000D02*
X123400000Y-123980000D01*
X122340000Y-126520000D02*
X123400000Y-126520000D01*
X122340000Y-128110000D02*
X117260000Y-128110000D01*
X123400000Y-121440000D02*
X123400000Y-122080000D01*
X123400000Y-122080000D02*
X122340000Y-122080000D01*
X123400000Y-123980000D02*
X123400000Y-124620000D01*
X123400000Y-124620000D02*
X122340000Y-124620000D01*
X123400000Y-126520000D02*
X123400000Y-127160000D01*
X123400000Y-127160000D02*
X122340000Y-127160000D01*
%TO.C,R1*%
X131730000Y-124375000D02*
X132270000Y-124375000D01*
X131730000Y-125425000D02*
X131730000Y-124375000D01*
X132270000Y-124375000D02*
X132270000Y-125425000D01*
X132270000Y-125425000D02*
X131730000Y-125425000D01*
%TO.C,U1*%
X134650000Y-121150000D02*
X138550000Y-121150000D01*
X134650000Y-126050000D02*
X134650000Y-121150000D01*
X137575000Y-126050000D02*
X134650000Y-126050000D01*
X138550000Y-121150000D02*
X138550000Y-125075000D01*
X138550000Y-125075000D02*
X137575000Y-126050000D01*
%TO.C,R2*%
X129430000Y-121675000D02*
X129970000Y-121675000D01*
X129430000Y-122725000D02*
X129430000Y-121675000D01*
X129970000Y-121675000D02*
X129970000Y-122725000D01*
X129970000Y-122725000D02*
X129430000Y-122725000D01*
%TO.C,LD2*%
X165650000Y-86000000D02*
G75*
G02*
X160350000Y-86000000I-2650000J0D01*
G01*
X160350000Y-86000000D02*
G75*
G02*
X165650000Y-86000000I2650000J0D01*
G01*
%TO.C,C1*%
X136100000Y-126850000D02*
X137100000Y-126850000D01*
X136100000Y-127350000D02*
X136100000Y-126850000D01*
X137100000Y-126850000D02*
X137100000Y-127350000D01*
X137100000Y-127350000D02*
X136100000Y-127350000D01*
X151340000Y-78700000D02*
X151340000Y-79300000D01*
X151460000Y-79300000D02*
G75*
G02*
X151340000Y-79300000I-60000J0D01*
G01*
X151460000Y-79300000D02*
X151460000Y-78700000D01*
X151460000Y-78700000D02*
G75*
G03*
X151340000Y-78700000I-60000J0D01*
G01*
X151400000Y-79360000D02*
X154600000Y-79360000D01*
X154600000Y-79240000D02*
G75*
G02*
X154600000Y-79360000I0J-60000D01*
G01*
X154600000Y-79240000D02*
X151400000Y-79240000D01*
X151400000Y-79240000D02*
G75*
G03*
X151400000Y-79360000I0J-60000D01*
G01*
X154600000Y-78640000D02*
X151400000Y-78640000D01*
X151400000Y-78760000D02*
G75*
G02*
X151400000Y-78640000I0J60000D01*
G01*
X151400000Y-78760000D02*
X154600000Y-78760000D01*
X154600000Y-78760000D02*
G75*
G03*
X154600000Y-78640000I0J60000D01*
G01*
X154660000Y-79300000D02*
X154660000Y-78700000D01*
X154540000Y-78700000D02*
G75*
G02*
X154660000Y-78700000I60000J0D01*
G01*
X154540000Y-78700000D02*
X154540000Y-79300000D01*
X154540000Y-79300000D02*
G75*
G03*
X154660000Y-79300000I60000J0D01*
G01*
D13*
%TO.C,TP3*%
D12*
X154490000Y-79000000D02*
G75*
G02*
X151510000Y-79000000I-1490000J0D01*
G01*
X151510000Y-79000000D02*
G75*
G02*
X154490000Y-79000000I1490000J0D01*
G01*
X154510000Y-79000000D02*
G75*
G02*
X151490000Y-79000000I-1510000J0D01*
G01*
X151490000Y-79000000D02*
G75*
G02*
X154510000Y-79000000I1510000J0D01*
G01*
%TD*%
X150875000Y-132875000D02*
X155125000Y-138049819D01*
X150875000Y-138049819D02*
X155125000Y-132875000D01*
X160875000Y-132875000D02*
X165125000Y-138049819D01*
X160875000Y-138049819D02*
X165125000Y-132875000D01*
X160875000Y-76875000D02*
X165125000Y-82049819D01*
X160875000Y-82049819D02*
X165125000Y-76875000D01*
X150875000Y-76875000D02*
X155125000Y-82054768D01*
X150875000Y-82054768D02*
X155125000Y-76875000D01*
M02*
