%TF.GenerationSoftware,KiCad,Pcbnew,9.0.0-rc1*%
%TF.CreationDate,2025-02-06T15:55:17-05:00*%
%TF.ProjectId,ephys-test-module-64,65706879-732d-4746-9573-742d6d6f6475,A*%
%TF.SameCoordinates,Original*%
%TF.FileFunction,Legend,Top*%
%TF.FilePolarity,Positive*%
%FSLAX46Y46*%
G04 Gerber Fmt 4.6, Leading zero omitted, Abs format (unit mm)*
G04 Created by KiCad (PCBNEW 9.0.0-rc1) date 2025-02-06 15:55:17*
%MOMM*%
%LPD*%
G01*
G04 APERTURE LIST*
%ADD10C,0.150000*%
%ADD11C,0.200000*%
%ADD12C,0.300000*%
%ADD13C,0.100000*%
%ADD14C,0.120000*%
G04 APERTURE END LIST*
D10*
X166000000Y-102000000D02*
G75*
G02*
X148000000Y-102000000I-9000000J0D01*
G01*
X148000000Y-102000000D02*
G75*
G02*
X166000000Y-102000000I9000000J0D01*
G01*
X164553990Y-100642856D02*
X164553990Y-100309523D01*
X164030180Y-100309523D02*
X165030180Y-100309523D01*
X165030180Y-100309523D02*
X165030180Y-100785713D01*
X164030180Y-101166666D02*
X164696847Y-101166666D01*
X164506371Y-101166666D02*
X164601609Y-101214285D01*
X164601609Y-101214285D02*
X164649228Y-101261904D01*
X164649228Y-101261904D02*
X164696847Y-101357142D01*
X164696847Y-101357142D02*
X164696847Y-101452380D01*
X164030180Y-101928571D02*
X164077800Y-101833333D01*
X164077800Y-101833333D02*
X164125419Y-101785714D01*
X164125419Y-101785714D02*
X164220657Y-101738095D01*
X164220657Y-101738095D02*
X164506371Y-101738095D01*
X164506371Y-101738095D02*
X164601609Y-101785714D01*
X164601609Y-101785714D02*
X164649228Y-101833333D01*
X164649228Y-101833333D02*
X164696847Y-101928571D01*
X164696847Y-101928571D02*
X164696847Y-102071428D01*
X164696847Y-102071428D02*
X164649228Y-102166666D01*
X164649228Y-102166666D02*
X164601609Y-102214285D01*
X164601609Y-102214285D02*
X164506371Y-102261904D01*
X164506371Y-102261904D02*
X164220657Y-102261904D01*
X164220657Y-102261904D02*
X164125419Y-102214285D01*
X164125419Y-102214285D02*
X164077800Y-102166666D01*
X164077800Y-102166666D02*
X164030180Y-102071428D01*
X164030180Y-102071428D02*
X164030180Y-101928571D01*
X164696847Y-102690476D02*
X164030180Y-102690476D01*
X164601609Y-102690476D02*
X164649228Y-102738095D01*
X164649228Y-102738095D02*
X164696847Y-102833333D01*
X164696847Y-102833333D02*
X164696847Y-102976190D01*
X164696847Y-102976190D02*
X164649228Y-103071428D01*
X164649228Y-103071428D02*
X164553990Y-103119047D01*
X164553990Y-103119047D02*
X164030180Y-103119047D01*
X164696847Y-103452381D02*
X164696847Y-103833333D01*
X165030180Y-103595238D02*
X164173038Y-103595238D01*
X164173038Y-103595238D02*
X164077800Y-103642857D01*
X164077800Y-103642857D02*
X164030180Y-103738095D01*
X164030180Y-103738095D02*
X164030180Y-103833333D01*
D11*
X155222054Y-120292409D02*
X155098244Y-120230504D01*
X155098244Y-120230504D02*
X154912530Y-120230504D01*
X154912530Y-120230504D02*
X154726816Y-120292409D01*
X154726816Y-120292409D02*
X154603006Y-120416219D01*
X154603006Y-120416219D02*
X154541101Y-120540028D01*
X154541101Y-120540028D02*
X154479197Y-120787647D01*
X154479197Y-120787647D02*
X154479197Y-120973361D01*
X154479197Y-120973361D02*
X154541101Y-121220980D01*
X154541101Y-121220980D02*
X154603006Y-121344790D01*
X154603006Y-121344790D02*
X154726816Y-121468600D01*
X154726816Y-121468600D02*
X154912530Y-121530504D01*
X154912530Y-121530504D02*
X155036339Y-121530504D01*
X155036339Y-121530504D02*
X155222054Y-121468600D01*
X155222054Y-121468600D02*
X155283958Y-121406695D01*
X155283958Y-121406695D02*
X155283958Y-120973361D01*
X155283958Y-120973361D02*
X155036339Y-120973361D01*
X155841101Y-121530504D02*
X155841101Y-120230504D01*
X155841101Y-120230504D02*
X156583958Y-121530504D01*
X156583958Y-121530504D02*
X156583958Y-120230504D01*
X157203006Y-121530504D02*
X157203006Y-120230504D01*
X157203006Y-120230504D02*
X157512530Y-120230504D01*
X157512530Y-120230504D02*
X157698244Y-120292409D01*
X157698244Y-120292409D02*
X157822054Y-120416219D01*
X157822054Y-120416219D02*
X157883959Y-120540028D01*
X157883959Y-120540028D02*
X157945863Y-120787647D01*
X157945863Y-120787647D02*
X157945863Y-120973361D01*
X157945863Y-120973361D02*
X157883959Y-121220980D01*
X157883959Y-121220980D02*
X157822054Y-121344790D01*
X157822054Y-121344790D02*
X157698244Y-121468600D01*
X157698244Y-121468600D02*
X157512530Y-121530504D01*
X157512530Y-121530504D02*
X157203006Y-121530504D01*
D10*
X149853990Y-100785714D02*
X149806371Y-100928571D01*
X149806371Y-100928571D02*
X149758752Y-100976190D01*
X149758752Y-100976190D02*
X149663514Y-101023809D01*
X149663514Y-101023809D02*
X149520657Y-101023809D01*
X149520657Y-101023809D02*
X149425419Y-100976190D01*
X149425419Y-100976190D02*
X149377800Y-100928571D01*
X149377800Y-100928571D02*
X149330180Y-100833333D01*
X149330180Y-100833333D02*
X149330180Y-100452381D01*
X149330180Y-100452381D02*
X150330180Y-100452381D01*
X150330180Y-100452381D02*
X150330180Y-100785714D01*
X150330180Y-100785714D02*
X150282561Y-100880952D01*
X150282561Y-100880952D02*
X150234942Y-100928571D01*
X150234942Y-100928571D02*
X150139704Y-100976190D01*
X150139704Y-100976190D02*
X150044466Y-100976190D01*
X150044466Y-100976190D02*
X149949228Y-100928571D01*
X149949228Y-100928571D02*
X149901609Y-100880952D01*
X149901609Y-100880952D02*
X149853990Y-100785714D01*
X149853990Y-100785714D02*
X149853990Y-100452381D01*
X149330180Y-101880952D02*
X149853990Y-101880952D01*
X149853990Y-101880952D02*
X149949228Y-101833333D01*
X149949228Y-101833333D02*
X149996847Y-101738095D01*
X149996847Y-101738095D02*
X149996847Y-101547619D01*
X149996847Y-101547619D02*
X149949228Y-101452381D01*
X149377800Y-101880952D02*
X149330180Y-101785714D01*
X149330180Y-101785714D02*
X149330180Y-101547619D01*
X149330180Y-101547619D02*
X149377800Y-101452381D01*
X149377800Y-101452381D02*
X149473038Y-101404762D01*
X149473038Y-101404762D02*
X149568276Y-101404762D01*
X149568276Y-101404762D02*
X149663514Y-101452381D01*
X149663514Y-101452381D02*
X149711133Y-101547619D01*
X149711133Y-101547619D02*
X149711133Y-101785714D01*
X149711133Y-101785714D02*
X149758752Y-101880952D01*
X149377800Y-102785714D02*
X149330180Y-102690476D01*
X149330180Y-102690476D02*
X149330180Y-102500000D01*
X149330180Y-102500000D02*
X149377800Y-102404762D01*
X149377800Y-102404762D02*
X149425419Y-102357143D01*
X149425419Y-102357143D02*
X149520657Y-102309524D01*
X149520657Y-102309524D02*
X149806371Y-102309524D01*
X149806371Y-102309524D02*
X149901609Y-102357143D01*
X149901609Y-102357143D02*
X149949228Y-102404762D01*
X149949228Y-102404762D02*
X149996847Y-102500000D01*
X149996847Y-102500000D02*
X149996847Y-102690476D01*
X149996847Y-102690476D02*
X149949228Y-102785714D01*
X149330180Y-103214286D02*
X150330180Y-103214286D01*
X149711133Y-103309524D02*
X149330180Y-103595238D01*
X149996847Y-103595238D02*
X149615895Y-103214286D01*
D11*
X112912530Y-90491004D02*
X112912530Y-91419576D01*
X112912530Y-91419576D02*
X112850625Y-91605290D01*
X112850625Y-91605290D02*
X112726816Y-91729100D01*
X112726816Y-91729100D02*
X112541101Y-91791004D01*
X112541101Y-91791004D02*
X112417292Y-91791004D01*
X113531577Y-91791004D02*
X113531577Y-90491004D01*
X113531577Y-90491004D02*
X114026815Y-90491004D01*
X114026815Y-90491004D02*
X114150625Y-90552909D01*
X114150625Y-90552909D02*
X114212530Y-90614814D01*
X114212530Y-90614814D02*
X114274434Y-90738623D01*
X114274434Y-90738623D02*
X114274434Y-90924338D01*
X114274434Y-90924338D02*
X114212530Y-91048147D01*
X114212530Y-91048147D02*
X114150625Y-91110052D01*
X114150625Y-91110052D02*
X114026815Y-91171957D01*
X114026815Y-91171957D02*
X113531577Y-91171957D01*
X114831577Y-91791004D02*
X114831577Y-90491004D01*
X114831577Y-90491004D02*
X115574434Y-91791004D01*
X115574434Y-91791004D02*
X115574434Y-90491004D01*
X116255387Y-91729100D02*
X116255387Y-91791004D01*
X116255387Y-91791004D02*
X116193482Y-91914814D01*
X116193482Y-91914814D02*
X116131578Y-91976719D01*
X118050625Y-90491004D02*
X118298244Y-90491004D01*
X118298244Y-90491004D02*
X118422054Y-90552909D01*
X118422054Y-90552909D02*
X118545863Y-90676719D01*
X118545863Y-90676719D02*
X118607768Y-90924338D01*
X118607768Y-90924338D02*
X118607768Y-91357671D01*
X118607768Y-91357671D02*
X118545863Y-91605290D01*
X118545863Y-91605290D02*
X118422054Y-91729100D01*
X118422054Y-91729100D02*
X118298244Y-91791004D01*
X118298244Y-91791004D02*
X118050625Y-91791004D01*
X118050625Y-91791004D02*
X117926816Y-91729100D01*
X117926816Y-91729100D02*
X117803006Y-91605290D01*
X117803006Y-91605290D02*
X117741102Y-91357671D01*
X117741102Y-91357671D02*
X117741102Y-90924338D01*
X117741102Y-90924338D02*
X117803006Y-90676719D01*
X117803006Y-90676719D02*
X117926816Y-90552909D01*
X117926816Y-90552909D02*
X118050625Y-90491004D01*
X119164911Y-90924338D02*
X119164911Y-92224338D01*
X119164911Y-90986242D02*
X119288721Y-90924338D01*
X119288721Y-90924338D02*
X119536340Y-90924338D01*
X119536340Y-90924338D02*
X119660149Y-90986242D01*
X119660149Y-90986242D02*
X119722054Y-91048147D01*
X119722054Y-91048147D02*
X119783959Y-91171957D01*
X119783959Y-91171957D02*
X119783959Y-91543385D01*
X119783959Y-91543385D02*
X119722054Y-91667195D01*
X119722054Y-91667195D02*
X119660149Y-91729100D01*
X119660149Y-91729100D02*
X119536340Y-91791004D01*
X119536340Y-91791004D02*
X119288721Y-91791004D01*
X119288721Y-91791004D02*
X119164911Y-91729100D01*
X120836339Y-91729100D02*
X120712530Y-91791004D01*
X120712530Y-91791004D02*
X120464911Y-91791004D01*
X120464911Y-91791004D02*
X120341101Y-91729100D01*
X120341101Y-91729100D02*
X120279197Y-91605290D01*
X120279197Y-91605290D02*
X120279197Y-91110052D01*
X120279197Y-91110052D02*
X120341101Y-90986242D01*
X120341101Y-90986242D02*
X120464911Y-90924338D01*
X120464911Y-90924338D02*
X120712530Y-90924338D01*
X120712530Y-90924338D02*
X120836339Y-90986242D01*
X120836339Y-90986242D02*
X120898244Y-91110052D01*
X120898244Y-91110052D02*
X120898244Y-91233861D01*
X120898244Y-91233861D02*
X120279197Y-91357671D01*
X121455387Y-90924338D02*
X121455387Y-91791004D01*
X121455387Y-91048147D02*
X121517292Y-90986242D01*
X121517292Y-90986242D02*
X121641102Y-90924338D01*
X121641102Y-90924338D02*
X121826816Y-90924338D01*
X121826816Y-90924338D02*
X121950625Y-90986242D01*
X121950625Y-90986242D02*
X122012530Y-91110052D01*
X122012530Y-91110052D02*
X122012530Y-91791004D01*
X123622053Y-91110052D02*
X124055387Y-91110052D01*
X124241101Y-91791004D02*
X123622053Y-91791004D01*
X123622053Y-91791004D02*
X123622053Y-90491004D01*
X123622053Y-90491004D02*
X124241101Y-90491004D01*
X124798243Y-90924338D02*
X124798243Y-92224338D01*
X124798243Y-90986242D02*
X124922053Y-90924338D01*
X124922053Y-90924338D02*
X125169672Y-90924338D01*
X125169672Y-90924338D02*
X125293481Y-90986242D01*
X125293481Y-90986242D02*
X125355386Y-91048147D01*
X125355386Y-91048147D02*
X125417291Y-91171957D01*
X125417291Y-91171957D02*
X125417291Y-91543385D01*
X125417291Y-91543385D02*
X125355386Y-91667195D01*
X125355386Y-91667195D02*
X125293481Y-91729100D01*
X125293481Y-91729100D02*
X125169672Y-91791004D01*
X125169672Y-91791004D02*
X124922053Y-91791004D01*
X124922053Y-91791004D02*
X124798243Y-91729100D01*
X125974433Y-91791004D02*
X125974433Y-90491004D01*
X126531576Y-91791004D02*
X126531576Y-91110052D01*
X126531576Y-91110052D02*
X126469671Y-90986242D01*
X126469671Y-90986242D02*
X126345862Y-90924338D01*
X126345862Y-90924338D02*
X126160148Y-90924338D01*
X126160148Y-90924338D02*
X126036338Y-90986242D01*
X126036338Y-90986242D02*
X125974433Y-91048147D01*
X127026814Y-90924338D02*
X127336338Y-91791004D01*
X127645861Y-90924338D02*
X127336338Y-91791004D01*
X127336338Y-91791004D02*
X127212528Y-92100528D01*
X127212528Y-92100528D02*
X127150623Y-92162433D01*
X127150623Y-92162433D02*
X127026814Y-92224338D01*
X128079195Y-91729100D02*
X128203004Y-91791004D01*
X128203004Y-91791004D02*
X128450623Y-91791004D01*
X128450623Y-91791004D02*
X128574433Y-91729100D01*
X128574433Y-91729100D02*
X128636337Y-91605290D01*
X128636337Y-91605290D02*
X128636337Y-91543385D01*
X128636337Y-91543385D02*
X128574433Y-91419576D01*
X128574433Y-91419576D02*
X128450623Y-91357671D01*
X128450623Y-91357671D02*
X128264909Y-91357671D01*
X128264909Y-91357671D02*
X128141099Y-91295766D01*
X128141099Y-91295766D02*
X128079195Y-91171957D01*
X128079195Y-91171957D02*
X128079195Y-91110052D01*
X128079195Y-91110052D02*
X128141099Y-90986242D01*
X128141099Y-90986242D02*
X128264909Y-90924338D01*
X128264909Y-90924338D02*
X128450623Y-90924338D01*
X128450623Y-90924338D02*
X128574433Y-90986242D01*
X130183956Y-91791004D02*
X130183956Y-90491004D01*
X130803004Y-90924338D02*
X130803004Y-91791004D01*
X130803004Y-91048147D02*
X130864909Y-90986242D01*
X130864909Y-90986242D02*
X130988719Y-90924338D01*
X130988719Y-90924338D02*
X131174433Y-90924338D01*
X131174433Y-90924338D02*
X131298242Y-90986242D01*
X131298242Y-90986242D02*
X131360147Y-91110052D01*
X131360147Y-91110052D02*
X131360147Y-91791004D01*
X132536337Y-91729100D02*
X132412528Y-91791004D01*
X132412528Y-91791004D02*
X132164909Y-91791004D01*
X132164909Y-91791004D02*
X132041099Y-91729100D01*
X132041099Y-91729100D02*
X131979194Y-91667195D01*
X131979194Y-91667195D02*
X131917290Y-91543385D01*
X131917290Y-91543385D02*
X131917290Y-91171957D01*
X131917290Y-91171957D02*
X131979194Y-91048147D01*
X131979194Y-91048147D02*
X132041099Y-90986242D01*
X132041099Y-90986242D02*
X132164909Y-90924338D01*
X132164909Y-90924338D02*
X132412528Y-90924338D01*
X132412528Y-90924338D02*
X132536337Y-90986242D01*
X133093480Y-91667195D02*
X133155385Y-91729100D01*
X133155385Y-91729100D02*
X133093480Y-91791004D01*
X133093480Y-91791004D02*
X133031576Y-91729100D01*
X133031576Y-91729100D02*
X133093480Y-91667195D01*
X133093480Y-91667195D02*
X133093480Y-91791004D01*
X133774433Y-91729100D02*
X133774433Y-91791004D01*
X133774433Y-91791004D02*
X133712528Y-91914814D01*
X133712528Y-91914814D02*
X133650624Y-91976719D01*
X135383957Y-90491004D02*
X135260148Y-90738623D01*
X135879196Y-90614814D02*
X135941100Y-90552909D01*
X135941100Y-90552909D02*
X136064910Y-90491004D01*
X136064910Y-90491004D02*
X136374434Y-90491004D01*
X136374434Y-90491004D02*
X136498243Y-90552909D01*
X136498243Y-90552909D02*
X136560148Y-90614814D01*
X136560148Y-90614814D02*
X136622053Y-90738623D01*
X136622053Y-90738623D02*
X136622053Y-90862433D01*
X136622053Y-90862433D02*
X136560148Y-91048147D01*
X136560148Y-91048147D02*
X135817291Y-91791004D01*
X135817291Y-91791004D02*
X136622053Y-91791004D01*
X137798243Y-90491004D02*
X137179195Y-90491004D01*
X137179195Y-90491004D02*
X137117291Y-91110052D01*
X137117291Y-91110052D02*
X137179195Y-91048147D01*
X137179195Y-91048147D02*
X137303005Y-90986242D01*
X137303005Y-90986242D02*
X137612529Y-90986242D01*
X137612529Y-90986242D02*
X137736338Y-91048147D01*
X137736338Y-91048147D02*
X137798243Y-91110052D01*
X137798243Y-91110052D02*
X137860148Y-91233861D01*
X137860148Y-91233861D02*
X137860148Y-91543385D01*
X137860148Y-91543385D02*
X137798243Y-91667195D01*
X137798243Y-91667195D02*
X137736338Y-91729100D01*
X137736338Y-91729100D02*
X137612529Y-91791004D01*
X137612529Y-91791004D02*
X137303005Y-91791004D01*
X137303005Y-91791004D02*
X137179195Y-91729100D01*
X137179195Y-91729100D02*
X137117291Y-91667195D01*
X166283958Y-121530504D02*
X165850625Y-120911457D01*
X165541101Y-121530504D02*
X165541101Y-120230504D01*
X165541101Y-120230504D02*
X166036339Y-120230504D01*
X166036339Y-120230504D02*
X166160149Y-120292409D01*
X166160149Y-120292409D02*
X166222054Y-120354314D01*
X166222054Y-120354314D02*
X166283958Y-120478123D01*
X166283958Y-120478123D02*
X166283958Y-120663838D01*
X166283958Y-120663838D02*
X166222054Y-120787647D01*
X166222054Y-120787647D02*
X166160149Y-120849552D01*
X166160149Y-120849552D02*
X166036339Y-120911457D01*
X166036339Y-120911457D02*
X165541101Y-120911457D01*
X166841101Y-120849552D02*
X167274435Y-120849552D01*
X167460149Y-121530504D02*
X166841101Y-121530504D01*
X166841101Y-121530504D02*
X166841101Y-120230504D01*
X166841101Y-120230504D02*
X167460149Y-120230504D01*
X168450625Y-120849552D02*
X168017291Y-120849552D01*
X168017291Y-121530504D02*
X168017291Y-120230504D01*
X168017291Y-120230504D02*
X168636339Y-120230504D01*
X112322054Y-126192409D02*
X112198244Y-126130504D01*
X112198244Y-126130504D02*
X112012530Y-126130504D01*
X112012530Y-126130504D02*
X111826816Y-126192409D01*
X111826816Y-126192409D02*
X111703006Y-126316219D01*
X111703006Y-126316219D02*
X111641101Y-126440028D01*
X111641101Y-126440028D02*
X111579197Y-126687647D01*
X111579197Y-126687647D02*
X111579197Y-126873361D01*
X111579197Y-126873361D02*
X111641101Y-127120980D01*
X111641101Y-127120980D02*
X111703006Y-127244790D01*
X111703006Y-127244790D02*
X111826816Y-127368600D01*
X111826816Y-127368600D02*
X112012530Y-127430504D01*
X112012530Y-127430504D02*
X112136339Y-127430504D01*
X112136339Y-127430504D02*
X112322054Y-127368600D01*
X112322054Y-127368600D02*
X112383958Y-127306695D01*
X112383958Y-127306695D02*
X112383958Y-126873361D01*
X112383958Y-126873361D02*
X112136339Y-126873361D01*
X112941101Y-127430504D02*
X112941101Y-126130504D01*
X112941101Y-126130504D02*
X113683958Y-127430504D01*
X113683958Y-127430504D02*
X113683958Y-126130504D01*
X114303006Y-127430504D02*
X114303006Y-126130504D01*
X114303006Y-126130504D02*
X114612530Y-126130504D01*
X114612530Y-126130504D02*
X114798244Y-126192409D01*
X114798244Y-126192409D02*
X114922054Y-126316219D01*
X114922054Y-126316219D02*
X114983959Y-126440028D01*
X114983959Y-126440028D02*
X115045863Y-126687647D01*
X115045863Y-126687647D02*
X115045863Y-126873361D01*
X115045863Y-126873361D02*
X114983959Y-127120980D01*
X114983959Y-127120980D02*
X114922054Y-127244790D01*
X114922054Y-127244790D02*
X114798244Y-127368600D01*
X114798244Y-127368600D02*
X114612530Y-127430504D01*
X114612530Y-127430504D02*
X114303006Y-127430504D01*
X112322054Y-121192409D02*
X112198244Y-121130504D01*
X112198244Y-121130504D02*
X112012530Y-121130504D01*
X112012530Y-121130504D02*
X111826816Y-121192409D01*
X111826816Y-121192409D02*
X111703006Y-121316219D01*
X111703006Y-121316219D02*
X111641101Y-121440028D01*
X111641101Y-121440028D02*
X111579197Y-121687647D01*
X111579197Y-121687647D02*
X111579197Y-121873361D01*
X111579197Y-121873361D02*
X111641101Y-122120980D01*
X111641101Y-122120980D02*
X111703006Y-122244790D01*
X111703006Y-122244790D02*
X111826816Y-122368600D01*
X111826816Y-122368600D02*
X112012530Y-122430504D01*
X112012530Y-122430504D02*
X112136339Y-122430504D01*
X112136339Y-122430504D02*
X112322054Y-122368600D01*
X112322054Y-122368600D02*
X112383958Y-122306695D01*
X112383958Y-122306695D02*
X112383958Y-121873361D01*
X112383958Y-121873361D02*
X112136339Y-121873361D01*
X112941101Y-122430504D02*
X112941101Y-121130504D01*
X112941101Y-121130504D02*
X113683958Y-122430504D01*
X113683958Y-122430504D02*
X113683958Y-121130504D01*
X114303006Y-122430504D02*
X114303006Y-121130504D01*
X114303006Y-121130504D02*
X114612530Y-121130504D01*
X114612530Y-121130504D02*
X114798244Y-121192409D01*
X114798244Y-121192409D02*
X114922054Y-121316219D01*
X114922054Y-121316219D02*
X114983959Y-121440028D01*
X114983959Y-121440028D02*
X115045863Y-121687647D01*
X115045863Y-121687647D02*
X115045863Y-121873361D01*
X115045863Y-121873361D02*
X114983959Y-122120980D01*
X114983959Y-122120980D02*
X114922054Y-122244790D01*
X114922054Y-122244790D02*
X114798244Y-122368600D01*
X114798244Y-122368600D02*
X114612530Y-122430504D01*
X114612530Y-122430504D02*
X114303006Y-122430504D01*
X112322054Y-123692409D02*
X112198244Y-123630504D01*
X112198244Y-123630504D02*
X112012530Y-123630504D01*
X112012530Y-123630504D02*
X111826816Y-123692409D01*
X111826816Y-123692409D02*
X111703006Y-123816219D01*
X111703006Y-123816219D02*
X111641101Y-123940028D01*
X111641101Y-123940028D02*
X111579197Y-124187647D01*
X111579197Y-124187647D02*
X111579197Y-124373361D01*
X111579197Y-124373361D02*
X111641101Y-124620980D01*
X111641101Y-124620980D02*
X111703006Y-124744790D01*
X111703006Y-124744790D02*
X111826816Y-124868600D01*
X111826816Y-124868600D02*
X112012530Y-124930504D01*
X112012530Y-124930504D02*
X112136339Y-124930504D01*
X112136339Y-124930504D02*
X112322054Y-124868600D01*
X112322054Y-124868600D02*
X112383958Y-124806695D01*
X112383958Y-124806695D02*
X112383958Y-124373361D01*
X112383958Y-124373361D02*
X112136339Y-124373361D01*
X112941101Y-124930504D02*
X112941101Y-123630504D01*
X112941101Y-123630504D02*
X113683958Y-124930504D01*
X113683958Y-124930504D02*
X113683958Y-123630504D01*
X114303006Y-124930504D02*
X114303006Y-123630504D01*
X114303006Y-123630504D02*
X114612530Y-123630504D01*
X114612530Y-123630504D02*
X114798244Y-123692409D01*
X114798244Y-123692409D02*
X114922054Y-123816219D01*
X114922054Y-123816219D02*
X114983959Y-123940028D01*
X114983959Y-123940028D02*
X115045863Y-124187647D01*
X115045863Y-124187647D02*
X115045863Y-124373361D01*
X115045863Y-124373361D02*
X114983959Y-124620980D01*
X114983959Y-124620980D02*
X114922054Y-124744790D01*
X114922054Y-124744790D02*
X114798244Y-124868600D01*
X114798244Y-124868600D02*
X114612530Y-124930504D01*
X114612530Y-124930504D02*
X114303006Y-124930504D01*
X124579197Y-122268600D02*
X124764911Y-122330504D01*
X124764911Y-122330504D02*
X125074435Y-122330504D01*
X125074435Y-122330504D02*
X125198244Y-122268600D01*
X125198244Y-122268600D02*
X125260149Y-122206695D01*
X125260149Y-122206695D02*
X125322054Y-122082885D01*
X125322054Y-122082885D02*
X125322054Y-121959076D01*
X125322054Y-121959076D02*
X125260149Y-121835266D01*
X125260149Y-121835266D02*
X125198244Y-121773361D01*
X125198244Y-121773361D02*
X125074435Y-121711457D01*
X125074435Y-121711457D02*
X124826816Y-121649552D01*
X124826816Y-121649552D02*
X124703006Y-121587647D01*
X124703006Y-121587647D02*
X124641101Y-121525742D01*
X124641101Y-121525742D02*
X124579197Y-121401933D01*
X124579197Y-121401933D02*
X124579197Y-121278123D01*
X124579197Y-121278123D02*
X124641101Y-121154314D01*
X124641101Y-121154314D02*
X124703006Y-121092409D01*
X124703006Y-121092409D02*
X124826816Y-121030504D01*
X124826816Y-121030504D02*
X125136339Y-121030504D01*
X125136339Y-121030504D02*
X125322054Y-121092409D01*
X125879196Y-122330504D02*
X125879196Y-121030504D01*
X125879196Y-121030504D02*
X126188720Y-121030504D01*
X126188720Y-121030504D02*
X126374434Y-121092409D01*
X126374434Y-121092409D02*
X126498244Y-121216219D01*
X126498244Y-121216219D02*
X126560149Y-121340028D01*
X126560149Y-121340028D02*
X126622053Y-121587647D01*
X126622053Y-121587647D02*
X126622053Y-121773361D01*
X126622053Y-121773361D02*
X126560149Y-122020980D01*
X126560149Y-122020980D02*
X126498244Y-122144790D01*
X126498244Y-122144790D02*
X126374434Y-122268600D01*
X126374434Y-122268600D02*
X126188720Y-122330504D01*
X126188720Y-122330504D02*
X125879196Y-122330504D01*
X127117292Y-121959076D02*
X127736339Y-121959076D01*
X126993482Y-122330504D02*
X127426815Y-121030504D01*
X127426815Y-121030504D02*
X127860149Y-122330504D01*
X144955387Y-77930504D02*
X145388720Y-79230504D01*
X145388720Y-79230504D02*
X145822054Y-77930504D01*
X146143959Y-79076980D02*
X146639197Y-79076980D01*
X146044911Y-79374123D02*
X146391578Y-78334123D01*
X146391578Y-78334123D02*
X146738244Y-79374123D01*
X147084912Y-78680790D02*
X147084912Y-79374123D01*
X147084912Y-78779838D02*
X147134435Y-78730314D01*
X147134435Y-78730314D02*
X147233483Y-78680790D01*
X147233483Y-78680790D02*
X147382054Y-78680790D01*
X147382054Y-78680790D02*
X147481102Y-78730314D01*
X147481102Y-78730314D02*
X147530626Y-78829361D01*
X147530626Y-78829361D02*
X147530626Y-79374123D01*
X148174435Y-79374123D02*
X148075387Y-79324600D01*
X148075387Y-79324600D02*
X148025864Y-79275076D01*
X148025864Y-79275076D02*
X147976340Y-79176028D01*
X147976340Y-79176028D02*
X147976340Y-78878885D01*
X147976340Y-78878885D02*
X148025864Y-78779838D01*
X148025864Y-78779838D02*
X148075387Y-78730314D01*
X148075387Y-78730314D02*
X148174435Y-78680790D01*
X148174435Y-78680790D02*
X148323006Y-78680790D01*
X148323006Y-78680790D02*
X148422054Y-78730314D01*
X148422054Y-78730314D02*
X148471578Y-78779838D01*
X148471578Y-78779838D02*
X148521102Y-78878885D01*
X148521102Y-78878885D02*
X148521102Y-79176028D01*
X148521102Y-79176028D02*
X148471578Y-79275076D01*
X148471578Y-79275076D02*
X148422054Y-79324600D01*
X148422054Y-79324600D02*
X148323006Y-79374123D01*
X148323006Y-79374123D02*
X148174435Y-79374123D01*
X149412530Y-79374123D02*
X149412530Y-78334123D01*
X149412530Y-79324600D02*
X149313482Y-79374123D01*
X149313482Y-79374123D02*
X149115387Y-79374123D01*
X149115387Y-79374123D02*
X149016339Y-79324600D01*
X149016339Y-79324600D02*
X148966816Y-79275076D01*
X148966816Y-79275076D02*
X148917292Y-79176028D01*
X148917292Y-79176028D02*
X148917292Y-78878885D01*
X148917292Y-78878885D02*
X148966816Y-78779838D01*
X148966816Y-78779838D02*
X149016339Y-78730314D01*
X149016339Y-78730314D02*
X149115387Y-78680790D01*
X149115387Y-78680790D02*
X149313482Y-78680790D01*
X149313482Y-78680790D02*
X149412530Y-78730314D01*
X150303958Y-79324600D02*
X150204910Y-79374123D01*
X150204910Y-79374123D02*
X150006815Y-79374123D01*
X150006815Y-79374123D02*
X149907768Y-79324600D01*
X149907768Y-79324600D02*
X149858244Y-79225552D01*
X149858244Y-79225552D02*
X149858244Y-78829361D01*
X149858244Y-78829361D02*
X149907768Y-78730314D01*
X149907768Y-78730314D02*
X150006815Y-78680790D01*
X150006815Y-78680790D02*
X150204910Y-78680790D01*
X150204910Y-78680790D02*
X150303958Y-78730314D01*
X150303958Y-78730314D02*
X150353482Y-78829361D01*
X150353482Y-78829361D02*
X150353482Y-78928409D01*
X150353482Y-78928409D02*
X149858244Y-79027457D01*
X166622054Y-134492409D02*
X166498244Y-134430504D01*
X166498244Y-134430504D02*
X166312530Y-134430504D01*
X166312530Y-134430504D02*
X166126816Y-134492409D01*
X166126816Y-134492409D02*
X166003006Y-134616219D01*
X166003006Y-134616219D02*
X165941101Y-134740028D01*
X165941101Y-134740028D02*
X165879197Y-134987647D01*
X165879197Y-134987647D02*
X165879197Y-135173361D01*
X165879197Y-135173361D02*
X165941101Y-135420980D01*
X165941101Y-135420980D02*
X166003006Y-135544790D01*
X166003006Y-135544790D02*
X166126816Y-135668600D01*
X166126816Y-135668600D02*
X166312530Y-135730504D01*
X166312530Y-135730504D02*
X166436339Y-135730504D01*
X166436339Y-135730504D02*
X166622054Y-135668600D01*
X166622054Y-135668600D02*
X166683958Y-135606695D01*
X166683958Y-135606695D02*
X166683958Y-135173361D01*
X166683958Y-135173361D02*
X166436339Y-135173361D01*
X167241101Y-135730504D02*
X167241101Y-134430504D01*
X167241101Y-134430504D02*
X167983958Y-135730504D01*
X167983958Y-135730504D02*
X167983958Y-134430504D01*
X168603006Y-135730504D02*
X168603006Y-134430504D01*
X168603006Y-134430504D02*
X168912530Y-134430504D01*
X168912530Y-134430504D02*
X169098244Y-134492409D01*
X169098244Y-134492409D02*
X169222054Y-134616219D01*
X169222054Y-134616219D02*
X169283959Y-134740028D01*
X169283959Y-134740028D02*
X169345863Y-134987647D01*
X169345863Y-134987647D02*
X169345863Y-135173361D01*
X169345863Y-135173361D02*
X169283959Y-135420980D01*
X169283959Y-135420980D02*
X169222054Y-135544790D01*
X169222054Y-135544790D02*
X169098244Y-135668600D01*
X169098244Y-135668600D02*
X168912530Y-135730504D01*
X168912530Y-135730504D02*
X168603006Y-135730504D01*
X124579197Y-124668600D02*
X124764911Y-124730504D01*
X124764911Y-124730504D02*
X125074435Y-124730504D01*
X125074435Y-124730504D02*
X125198244Y-124668600D01*
X125198244Y-124668600D02*
X125260149Y-124606695D01*
X125260149Y-124606695D02*
X125322054Y-124482885D01*
X125322054Y-124482885D02*
X125322054Y-124359076D01*
X125322054Y-124359076D02*
X125260149Y-124235266D01*
X125260149Y-124235266D02*
X125198244Y-124173361D01*
X125198244Y-124173361D02*
X125074435Y-124111457D01*
X125074435Y-124111457D02*
X124826816Y-124049552D01*
X124826816Y-124049552D02*
X124703006Y-123987647D01*
X124703006Y-123987647D02*
X124641101Y-123925742D01*
X124641101Y-123925742D02*
X124579197Y-123801933D01*
X124579197Y-123801933D02*
X124579197Y-123678123D01*
X124579197Y-123678123D02*
X124641101Y-123554314D01*
X124641101Y-123554314D02*
X124703006Y-123492409D01*
X124703006Y-123492409D02*
X124826816Y-123430504D01*
X124826816Y-123430504D02*
X125136339Y-123430504D01*
X125136339Y-123430504D02*
X125322054Y-123492409D01*
X126622053Y-124606695D02*
X126560149Y-124668600D01*
X126560149Y-124668600D02*
X126374434Y-124730504D01*
X126374434Y-124730504D02*
X126250625Y-124730504D01*
X126250625Y-124730504D02*
X126064911Y-124668600D01*
X126064911Y-124668600D02*
X125941101Y-124544790D01*
X125941101Y-124544790D02*
X125879196Y-124420980D01*
X125879196Y-124420980D02*
X125817292Y-124173361D01*
X125817292Y-124173361D02*
X125817292Y-123987647D01*
X125817292Y-123987647D02*
X125879196Y-123740028D01*
X125879196Y-123740028D02*
X125941101Y-123616219D01*
X125941101Y-123616219D02*
X126064911Y-123492409D01*
X126064911Y-123492409D02*
X126250625Y-123430504D01*
X126250625Y-123430504D02*
X126374434Y-123430504D01*
X126374434Y-123430504D02*
X126560149Y-123492409D01*
X126560149Y-123492409D02*
X126622053Y-123554314D01*
X127798244Y-124730504D02*
X127179196Y-124730504D01*
X127179196Y-124730504D02*
X127179196Y-123430504D01*
X143733333Y-132337577D02*
X144166666Y-133637577D01*
X144166666Y-133637577D02*
X144600000Y-132337577D01*
X144921905Y-133731673D02*
X145070476Y-133781196D01*
X145070476Y-133781196D02*
X145318095Y-133781196D01*
X145318095Y-133781196D02*
X145417143Y-133731673D01*
X145417143Y-133731673D02*
X145466667Y-133682149D01*
X145466667Y-133682149D02*
X145516190Y-133583101D01*
X145516190Y-133583101D02*
X145516190Y-133484053D01*
X145516190Y-133484053D02*
X145466667Y-133385006D01*
X145466667Y-133385006D02*
X145417143Y-133335482D01*
X145417143Y-133335482D02*
X145318095Y-133285958D01*
X145318095Y-133285958D02*
X145120000Y-133236434D01*
X145120000Y-133236434D02*
X145020952Y-133186911D01*
X145020952Y-133186911D02*
X144971429Y-133137387D01*
X144971429Y-133137387D02*
X144921905Y-133038339D01*
X144921905Y-133038339D02*
X144921905Y-132939292D01*
X144921905Y-132939292D02*
X144971429Y-132840244D01*
X144971429Y-132840244D02*
X145020952Y-132790720D01*
X145020952Y-132790720D02*
X145120000Y-132741196D01*
X145120000Y-132741196D02*
X145367619Y-132741196D01*
X145367619Y-132741196D02*
X145516190Y-132790720D01*
X145813333Y-133087863D02*
X146209524Y-133087863D01*
X145961905Y-132741196D02*
X145961905Y-133632625D01*
X145961905Y-133632625D02*
X146011428Y-133731673D01*
X146011428Y-133731673D02*
X146110476Y-133781196D01*
X146110476Y-133781196D02*
X146209524Y-133781196D01*
X146556191Y-133781196D02*
X146556191Y-133087863D01*
X146556191Y-132741196D02*
X146506667Y-132790720D01*
X146506667Y-132790720D02*
X146556191Y-132840244D01*
X146556191Y-132840244D02*
X146605714Y-132790720D01*
X146605714Y-132790720D02*
X146556191Y-132741196D01*
X146556191Y-132741196D02*
X146556191Y-132840244D01*
X147051429Y-133781196D02*
X147051429Y-133087863D01*
X147051429Y-133186911D02*
X147100952Y-133137387D01*
X147100952Y-133137387D02*
X147200000Y-133087863D01*
X147200000Y-133087863D02*
X147348571Y-133087863D01*
X147348571Y-133087863D02*
X147447619Y-133137387D01*
X147447619Y-133137387D02*
X147497143Y-133236434D01*
X147497143Y-133236434D02*
X147497143Y-133781196D01*
X147497143Y-133236434D02*
X147546667Y-133137387D01*
X147546667Y-133137387D02*
X147645714Y-133087863D01*
X147645714Y-133087863D02*
X147794286Y-133087863D01*
X147794286Y-133087863D02*
X147893333Y-133137387D01*
X147893333Y-133137387D02*
X147942857Y-133236434D01*
X147942857Y-133236434D02*
X147942857Y-133781196D01*
X142030952Y-136225742D02*
X141969047Y-136163838D01*
X141969047Y-136163838D02*
X141845238Y-135978123D01*
X141845238Y-135978123D02*
X141783333Y-135854314D01*
X141783333Y-135854314D02*
X141721428Y-135668600D01*
X141721428Y-135668600D02*
X141659523Y-135359076D01*
X141659523Y-135359076D02*
X141659523Y-135111457D01*
X141659523Y-135111457D02*
X141721428Y-134801933D01*
X141721428Y-134801933D02*
X141783333Y-134616219D01*
X141783333Y-134616219D02*
X141845238Y-134492409D01*
X141845238Y-134492409D02*
X141969047Y-134306695D01*
X141969047Y-134306695D02*
X142030952Y-134244790D01*
X142526190Y-135730504D02*
X142526190Y-134430504D01*
X143033810Y-135824600D02*
X143182381Y-135874123D01*
X143182381Y-135874123D02*
X143430000Y-135874123D01*
X143430000Y-135874123D02*
X143529048Y-135824600D01*
X143529048Y-135824600D02*
X143578572Y-135775076D01*
X143578572Y-135775076D02*
X143628095Y-135676028D01*
X143628095Y-135676028D02*
X143628095Y-135576980D01*
X143628095Y-135576980D02*
X143578572Y-135477933D01*
X143578572Y-135477933D02*
X143529048Y-135428409D01*
X143529048Y-135428409D02*
X143430000Y-135378885D01*
X143430000Y-135378885D02*
X143231905Y-135329361D01*
X143231905Y-135329361D02*
X143132857Y-135279838D01*
X143132857Y-135279838D02*
X143083334Y-135230314D01*
X143083334Y-135230314D02*
X143033810Y-135131266D01*
X143033810Y-135131266D02*
X143033810Y-135032219D01*
X143033810Y-135032219D02*
X143083334Y-134933171D01*
X143083334Y-134933171D02*
X143132857Y-134883647D01*
X143132857Y-134883647D02*
X143231905Y-134834123D01*
X143231905Y-134834123D02*
X143479524Y-134834123D01*
X143479524Y-134834123D02*
X143628095Y-134883647D01*
X143925238Y-135180790D02*
X144321429Y-135180790D01*
X144073810Y-134834123D02*
X144073810Y-135725552D01*
X144073810Y-135725552D02*
X144123333Y-135824600D01*
X144123333Y-135824600D02*
X144222381Y-135874123D01*
X144222381Y-135874123D02*
X144321429Y-135874123D01*
X144668096Y-135874123D02*
X144668096Y-135180790D01*
X144668096Y-134834123D02*
X144618572Y-134883647D01*
X144618572Y-134883647D02*
X144668096Y-134933171D01*
X144668096Y-134933171D02*
X144717619Y-134883647D01*
X144717619Y-134883647D02*
X144668096Y-134834123D01*
X144668096Y-134834123D02*
X144668096Y-134933171D01*
X145163334Y-135874123D02*
X145163334Y-135180790D01*
X145163334Y-135279838D02*
X145212857Y-135230314D01*
X145212857Y-135230314D02*
X145311905Y-135180790D01*
X145311905Y-135180790D02*
X145460476Y-135180790D01*
X145460476Y-135180790D02*
X145559524Y-135230314D01*
X145559524Y-135230314D02*
X145609048Y-135329361D01*
X145609048Y-135329361D02*
X145609048Y-135874123D01*
X145609048Y-135329361D02*
X145658572Y-135230314D01*
X145658572Y-135230314D02*
X145757619Y-135180790D01*
X145757619Y-135180790D02*
X145906191Y-135180790D01*
X145906191Y-135180790D02*
X146005238Y-135230314D01*
X146005238Y-135230314D02*
X146054762Y-135329361D01*
X146054762Y-135329361D02*
X146054762Y-135874123D01*
X146797620Y-134430504D02*
X146797620Y-134740028D01*
X146488096Y-134616219D02*
X146797620Y-134740028D01*
X146797620Y-134740028D02*
X147107143Y-134616219D01*
X146611905Y-134987647D02*
X146797620Y-134740028D01*
X146797620Y-134740028D02*
X146983334Y-134987647D01*
X148283334Y-135730504D02*
X147540477Y-135730504D01*
X147911905Y-135730504D02*
X147911905Y-134430504D01*
X147911905Y-134430504D02*
X147788096Y-134616219D01*
X147788096Y-134616219D02*
X147664286Y-134740028D01*
X147664286Y-134740028D02*
X147540477Y-134801933D01*
X148840476Y-135730504D02*
X148840476Y-134430504D01*
X148964286Y-135235266D02*
X149335714Y-135730504D01*
X149335714Y-134863838D02*
X148840476Y-135359076D01*
X149769048Y-136225742D02*
X149830953Y-136163838D01*
X149830953Y-136163838D02*
X149954762Y-135978123D01*
X149954762Y-135978123D02*
X150016667Y-135854314D01*
X150016667Y-135854314D02*
X150078572Y-135668600D01*
X150078572Y-135668600D02*
X150140476Y-135359076D01*
X150140476Y-135359076D02*
X150140476Y-135111457D01*
X150140476Y-135111457D02*
X150078572Y-134801933D01*
X150078572Y-134801933D02*
X150016667Y-134616219D01*
X150016667Y-134616219D02*
X149954762Y-134492409D01*
X149954762Y-134492409D02*
X149830953Y-134306695D01*
X149830953Y-134306695D02*
X149769048Y-134244790D01*
X166522054Y-78092409D02*
X166398244Y-78030504D01*
X166398244Y-78030504D02*
X166212530Y-78030504D01*
X166212530Y-78030504D02*
X166026816Y-78092409D01*
X166026816Y-78092409D02*
X165903006Y-78216219D01*
X165903006Y-78216219D02*
X165841101Y-78340028D01*
X165841101Y-78340028D02*
X165779197Y-78587647D01*
X165779197Y-78587647D02*
X165779197Y-78773361D01*
X165779197Y-78773361D02*
X165841101Y-79020980D01*
X165841101Y-79020980D02*
X165903006Y-79144790D01*
X165903006Y-79144790D02*
X166026816Y-79268600D01*
X166026816Y-79268600D02*
X166212530Y-79330504D01*
X166212530Y-79330504D02*
X166336339Y-79330504D01*
X166336339Y-79330504D02*
X166522054Y-79268600D01*
X166522054Y-79268600D02*
X166583958Y-79206695D01*
X166583958Y-79206695D02*
X166583958Y-78773361D01*
X166583958Y-78773361D02*
X166336339Y-78773361D01*
X167141101Y-79330504D02*
X167141101Y-78030504D01*
X167141101Y-78030504D02*
X167883958Y-79330504D01*
X167883958Y-79330504D02*
X167883958Y-78030504D01*
X168503006Y-79330504D02*
X168503006Y-78030504D01*
X168503006Y-78030504D02*
X168812530Y-78030504D01*
X168812530Y-78030504D02*
X168998244Y-78092409D01*
X168998244Y-78092409D02*
X169122054Y-78216219D01*
X169122054Y-78216219D02*
X169183959Y-78340028D01*
X169183959Y-78340028D02*
X169245863Y-78587647D01*
X169245863Y-78587647D02*
X169245863Y-78773361D01*
X169245863Y-78773361D02*
X169183959Y-79020980D01*
X169183959Y-79020980D02*
X169122054Y-79144790D01*
X169122054Y-79144790D02*
X168998244Y-79268600D01*
X168998244Y-79268600D02*
X168812530Y-79330504D01*
X168812530Y-79330504D02*
X168503006Y-79330504D01*
X124517292Y-126130504D02*
X124826816Y-127430504D01*
X124826816Y-127430504D02*
X125074435Y-126501933D01*
X125074435Y-126501933D02*
X125322054Y-127430504D01*
X125322054Y-127430504D02*
X125631578Y-126130504D01*
X126126815Y-127430504D02*
X126126815Y-126130504D01*
X126126815Y-126130504D02*
X126622053Y-126130504D01*
X126622053Y-126130504D02*
X126745863Y-126192409D01*
X126745863Y-126192409D02*
X126807768Y-126254314D01*
X126807768Y-126254314D02*
X126869672Y-126378123D01*
X126869672Y-126378123D02*
X126869672Y-126563838D01*
X126869672Y-126563838D02*
X126807768Y-126687647D01*
X126807768Y-126687647D02*
X126745863Y-126749552D01*
X126745863Y-126749552D02*
X126622053Y-126811457D01*
X126622053Y-126811457D02*
X126126815Y-126811457D01*
D12*
X112602129Y-81843472D02*
X113168796Y-81843472D01*
X113411653Y-82733948D02*
X112602129Y-82733948D01*
X112602129Y-82733948D02*
X112602129Y-81033948D01*
X112602129Y-81033948D02*
X113411653Y-81033948D01*
X114140224Y-81600615D02*
X114140224Y-83300615D01*
X114140224Y-81681567D02*
X114302129Y-81600615D01*
X114302129Y-81600615D02*
X114625939Y-81600615D01*
X114625939Y-81600615D02*
X114787843Y-81681567D01*
X114787843Y-81681567D02*
X114868796Y-81762519D01*
X114868796Y-81762519D02*
X114949748Y-81924424D01*
X114949748Y-81924424D02*
X114949748Y-82410138D01*
X114949748Y-82410138D02*
X114868796Y-82572043D01*
X114868796Y-82572043D02*
X114787843Y-82652996D01*
X114787843Y-82652996D02*
X114625939Y-82733948D01*
X114625939Y-82733948D02*
X114302129Y-82733948D01*
X114302129Y-82733948D02*
X114140224Y-82652996D01*
X115678319Y-82733948D02*
X115678319Y-81033948D01*
X116406891Y-82733948D02*
X116406891Y-81843472D01*
X116406891Y-81843472D02*
X116325938Y-81681567D01*
X116325938Y-81681567D02*
X116164034Y-81600615D01*
X116164034Y-81600615D02*
X115921177Y-81600615D01*
X115921177Y-81600615D02*
X115759272Y-81681567D01*
X115759272Y-81681567D02*
X115678319Y-81762519D01*
X117054510Y-81600615D02*
X117459272Y-82733948D01*
X117864033Y-81600615D02*
X117459272Y-82733948D01*
X117459272Y-82733948D02*
X117297367Y-83138710D01*
X117297367Y-83138710D02*
X117216414Y-83219662D01*
X117216414Y-83219662D02*
X117054510Y-83300615D01*
X118430700Y-82652996D02*
X118592605Y-82733948D01*
X118592605Y-82733948D02*
X118916414Y-82733948D01*
X118916414Y-82733948D02*
X119078319Y-82652996D01*
X119078319Y-82652996D02*
X119159271Y-82491091D01*
X119159271Y-82491091D02*
X119159271Y-82410138D01*
X119159271Y-82410138D02*
X119078319Y-82248234D01*
X119078319Y-82248234D02*
X118916414Y-82167281D01*
X118916414Y-82167281D02*
X118673557Y-82167281D01*
X118673557Y-82167281D02*
X118511652Y-82086329D01*
X118511652Y-82086329D02*
X118430700Y-81924424D01*
X118430700Y-81924424D02*
X118430700Y-81843472D01*
X118430700Y-81843472D02*
X118511652Y-81681567D01*
X118511652Y-81681567D02*
X118673557Y-81600615D01*
X118673557Y-81600615D02*
X118916414Y-81600615D01*
X118916414Y-81600615D02*
X119078319Y-81681567D01*
X120940223Y-81033948D02*
X121911652Y-81033948D01*
X121425938Y-82733948D02*
X121425938Y-81033948D01*
X123125937Y-82652996D02*
X122964033Y-82733948D01*
X122964033Y-82733948D02*
X122640223Y-82733948D01*
X122640223Y-82733948D02*
X122478318Y-82652996D01*
X122478318Y-82652996D02*
X122397366Y-82491091D01*
X122397366Y-82491091D02*
X122397366Y-81843472D01*
X122397366Y-81843472D02*
X122478318Y-81681567D01*
X122478318Y-81681567D02*
X122640223Y-81600615D01*
X122640223Y-81600615D02*
X122964033Y-81600615D01*
X122964033Y-81600615D02*
X123125937Y-81681567D01*
X123125937Y-81681567D02*
X123206890Y-81843472D01*
X123206890Y-81843472D02*
X123206890Y-82005376D01*
X123206890Y-82005376D02*
X122397366Y-82167281D01*
X123854509Y-82652996D02*
X124016414Y-82733948D01*
X124016414Y-82733948D02*
X124340223Y-82733948D01*
X124340223Y-82733948D02*
X124502128Y-82652996D01*
X124502128Y-82652996D02*
X124583080Y-82491091D01*
X124583080Y-82491091D02*
X124583080Y-82410138D01*
X124583080Y-82410138D02*
X124502128Y-82248234D01*
X124502128Y-82248234D02*
X124340223Y-82167281D01*
X124340223Y-82167281D02*
X124097366Y-82167281D01*
X124097366Y-82167281D02*
X123935461Y-82086329D01*
X123935461Y-82086329D02*
X123854509Y-81924424D01*
X123854509Y-81924424D02*
X123854509Y-81843472D01*
X123854509Y-81843472D02*
X123935461Y-81681567D01*
X123935461Y-81681567D02*
X124097366Y-81600615D01*
X124097366Y-81600615D02*
X124340223Y-81600615D01*
X124340223Y-81600615D02*
X124502128Y-81681567D01*
X125068794Y-81600615D02*
X125716413Y-81600615D01*
X125311651Y-81033948D02*
X125311651Y-82491091D01*
X125311651Y-82491091D02*
X125392604Y-82652996D01*
X125392604Y-82652996D02*
X125554509Y-82733948D01*
X125554509Y-82733948D02*
X125716413Y-82733948D01*
X127578318Y-82733948D02*
X127578318Y-81033948D01*
X127578318Y-81033948D02*
X128144985Y-82248234D01*
X128144985Y-82248234D02*
X128711652Y-81033948D01*
X128711652Y-81033948D02*
X128711652Y-82733948D01*
X129764033Y-82733948D02*
X129602128Y-82652996D01*
X129602128Y-82652996D02*
X129521175Y-82572043D01*
X129521175Y-82572043D02*
X129440223Y-82410138D01*
X129440223Y-82410138D02*
X129440223Y-81924424D01*
X129440223Y-81924424D02*
X129521175Y-81762519D01*
X129521175Y-81762519D02*
X129602128Y-81681567D01*
X129602128Y-81681567D02*
X129764033Y-81600615D01*
X129764033Y-81600615D02*
X130006890Y-81600615D01*
X130006890Y-81600615D02*
X130168794Y-81681567D01*
X130168794Y-81681567D02*
X130249747Y-81762519D01*
X130249747Y-81762519D02*
X130330699Y-81924424D01*
X130330699Y-81924424D02*
X130330699Y-82410138D01*
X130330699Y-82410138D02*
X130249747Y-82572043D01*
X130249747Y-82572043D02*
X130168794Y-82652996D01*
X130168794Y-82652996D02*
X130006890Y-82733948D01*
X130006890Y-82733948D02*
X129764033Y-82733948D01*
X131787842Y-82733948D02*
X131787842Y-81033948D01*
X131787842Y-82652996D02*
X131625937Y-82733948D01*
X131625937Y-82733948D02*
X131302128Y-82733948D01*
X131302128Y-82733948D02*
X131140223Y-82652996D01*
X131140223Y-82652996D02*
X131059270Y-82572043D01*
X131059270Y-82572043D02*
X130978318Y-82410138D01*
X130978318Y-82410138D02*
X130978318Y-81924424D01*
X130978318Y-81924424D02*
X131059270Y-81762519D01*
X131059270Y-81762519D02*
X131140223Y-81681567D01*
X131140223Y-81681567D02*
X131302128Y-81600615D01*
X131302128Y-81600615D02*
X131625937Y-81600615D01*
X131625937Y-81600615D02*
X131787842Y-81681567D01*
X133325937Y-81600615D02*
X133325937Y-82733948D01*
X132597365Y-81600615D02*
X132597365Y-82491091D01*
X132597365Y-82491091D02*
X132678318Y-82652996D01*
X132678318Y-82652996D02*
X132840223Y-82733948D01*
X132840223Y-82733948D02*
X133083080Y-82733948D01*
X133083080Y-82733948D02*
X133244984Y-82652996D01*
X133244984Y-82652996D02*
X133325937Y-82572043D01*
X134378318Y-82733948D02*
X134216413Y-82652996D01*
X134216413Y-82652996D02*
X134135460Y-82491091D01*
X134135460Y-82491091D02*
X134135460Y-81033948D01*
X135673555Y-82652996D02*
X135511651Y-82733948D01*
X135511651Y-82733948D02*
X135187841Y-82733948D01*
X135187841Y-82733948D02*
X135025936Y-82652996D01*
X135025936Y-82652996D02*
X134944984Y-82491091D01*
X134944984Y-82491091D02*
X134944984Y-81843472D01*
X134944984Y-81843472D02*
X135025936Y-81681567D01*
X135025936Y-81681567D02*
X135187841Y-81600615D01*
X135187841Y-81600615D02*
X135511651Y-81600615D01*
X135511651Y-81600615D02*
X135673555Y-81681567D01*
X135673555Y-81681567D02*
X135754508Y-81843472D01*
X135754508Y-81843472D02*
X135754508Y-82005376D01*
X135754508Y-82005376D02*
X134944984Y-82167281D01*
X113330701Y-83770853D02*
X113006891Y-83770853D01*
X113006891Y-83770853D02*
X112844987Y-83851805D01*
X112844987Y-83851805D02*
X112764034Y-83932758D01*
X112764034Y-83932758D02*
X112602129Y-84175615D01*
X112602129Y-84175615D02*
X112521177Y-84499424D01*
X112521177Y-84499424D02*
X112521177Y-85147043D01*
X112521177Y-85147043D02*
X112602129Y-85308948D01*
X112602129Y-85308948D02*
X112683082Y-85389901D01*
X112683082Y-85389901D02*
X112844987Y-85470853D01*
X112844987Y-85470853D02*
X113168796Y-85470853D01*
X113168796Y-85470853D02*
X113330701Y-85389901D01*
X113330701Y-85389901D02*
X113411653Y-85308948D01*
X113411653Y-85308948D02*
X113492606Y-85147043D01*
X113492606Y-85147043D02*
X113492606Y-84742281D01*
X113492606Y-84742281D02*
X113411653Y-84580377D01*
X113411653Y-84580377D02*
X113330701Y-84499424D01*
X113330701Y-84499424D02*
X113168796Y-84418472D01*
X113168796Y-84418472D02*
X112844987Y-84418472D01*
X112844987Y-84418472D02*
X112683082Y-84499424D01*
X112683082Y-84499424D02*
X112602129Y-84580377D01*
X112602129Y-84580377D02*
X112521177Y-84742281D01*
X114949749Y-84337520D02*
X114949749Y-85470853D01*
X114544987Y-83689901D02*
X114140225Y-84904186D01*
X114140225Y-84904186D02*
X115192606Y-84904186D01*
X118106892Y-85308948D02*
X118025940Y-85389901D01*
X118025940Y-85389901D02*
X117783082Y-85470853D01*
X117783082Y-85470853D02*
X117621178Y-85470853D01*
X117621178Y-85470853D02*
X117378321Y-85389901D01*
X117378321Y-85389901D02*
X117216416Y-85227996D01*
X117216416Y-85227996D02*
X117135463Y-85066091D01*
X117135463Y-85066091D02*
X117054511Y-84742281D01*
X117054511Y-84742281D02*
X117054511Y-84499424D01*
X117054511Y-84499424D02*
X117135463Y-84175615D01*
X117135463Y-84175615D02*
X117216416Y-84013710D01*
X117216416Y-84013710D02*
X117378321Y-83851805D01*
X117378321Y-83851805D02*
X117621178Y-83770853D01*
X117621178Y-83770853D02*
X117783082Y-83770853D01*
X117783082Y-83770853D02*
X118025940Y-83851805D01*
X118025940Y-83851805D02*
X118106892Y-83932758D01*
X118835463Y-85470853D02*
X118835463Y-83770853D01*
X119564035Y-85470853D02*
X119564035Y-84580377D01*
X119564035Y-84580377D02*
X119483082Y-84418472D01*
X119483082Y-84418472D02*
X119321178Y-84337520D01*
X119321178Y-84337520D02*
X119078321Y-84337520D01*
X119078321Y-84337520D02*
X118916416Y-84418472D01*
X118916416Y-84418472D02*
X118835463Y-84499424D01*
X121102130Y-85470853D02*
X121102130Y-84580377D01*
X121102130Y-84580377D02*
X121021177Y-84418472D01*
X121021177Y-84418472D02*
X120859273Y-84337520D01*
X120859273Y-84337520D02*
X120535463Y-84337520D01*
X120535463Y-84337520D02*
X120373558Y-84418472D01*
X121102130Y-85389901D02*
X120940225Y-85470853D01*
X120940225Y-85470853D02*
X120535463Y-85470853D01*
X120535463Y-85470853D02*
X120373558Y-85389901D01*
X120373558Y-85389901D02*
X120292606Y-85227996D01*
X120292606Y-85227996D02*
X120292606Y-85066091D01*
X120292606Y-85066091D02*
X120373558Y-84904186D01*
X120373558Y-84904186D02*
X120535463Y-84823234D01*
X120535463Y-84823234D02*
X120940225Y-84823234D01*
X120940225Y-84823234D02*
X121102130Y-84742281D01*
X121911653Y-84337520D02*
X121911653Y-85470853D01*
X121911653Y-84499424D02*
X121992606Y-84418472D01*
X121992606Y-84418472D02*
X122154511Y-84337520D01*
X122154511Y-84337520D02*
X122397368Y-84337520D01*
X122397368Y-84337520D02*
X122559272Y-84418472D01*
X122559272Y-84418472D02*
X122640225Y-84580377D01*
X122640225Y-84580377D02*
X122640225Y-85470853D01*
X123449748Y-84337520D02*
X123449748Y-85470853D01*
X123449748Y-84499424D02*
X123530701Y-84418472D01*
X123530701Y-84418472D02*
X123692606Y-84337520D01*
X123692606Y-84337520D02*
X123935463Y-84337520D01*
X123935463Y-84337520D02*
X124097367Y-84418472D01*
X124097367Y-84418472D02*
X124178320Y-84580377D01*
X124178320Y-84580377D02*
X124178320Y-85470853D01*
X125635462Y-85389901D02*
X125473558Y-85470853D01*
X125473558Y-85470853D02*
X125149748Y-85470853D01*
X125149748Y-85470853D02*
X124987843Y-85389901D01*
X124987843Y-85389901D02*
X124906891Y-85227996D01*
X124906891Y-85227996D02*
X124906891Y-84580377D01*
X124906891Y-84580377D02*
X124987843Y-84418472D01*
X124987843Y-84418472D02*
X125149748Y-84337520D01*
X125149748Y-84337520D02*
X125473558Y-84337520D01*
X125473558Y-84337520D02*
X125635462Y-84418472D01*
X125635462Y-84418472D02*
X125716415Y-84580377D01*
X125716415Y-84580377D02*
X125716415Y-84742281D01*
X125716415Y-84742281D02*
X124906891Y-84904186D01*
X126687844Y-85470853D02*
X126525939Y-85389901D01*
X126525939Y-85389901D02*
X126444986Y-85227996D01*
X126444986Y-85227996D02*
X126444986Y-83770853D01*
X129116415Y-86118472D02*
X129035462Y-86037520D01*
X129035462Y-86037520D02*
X128873558Y-85794662D01*
X128873558Y-85794662D02*
X128792605Y-85632758D01*
X128792605Y-85632758D02*
X128711653Y-85389901D01*
X128711653Y-85389901D02*
X128630700Y-84985139D01*
X128630700Y-84985139D02*
X128630700Y-84661329D01*
X128630700Y-84661329D02*
X128711653Y-84256567D01*
X128711653Y-84256567D02*
X128792605Y-84013710D01*
X128792605Y-84013710D02*
X128873558Y-83851805D01*
X128873558Y-83851805D02*
X129035462Y-83608948D01*
X129035462Y-83608948D02*
X129116415Y-83527996D01*
X129764033Y-85470853D02*
X129764033Y-83770853D01*
X129764033Y-84580377D02*
X130735462Y-84580377D01*
X130735462Y-85470853D02*
X130735462Y-83770853D01*
X131544985Y-85470853D02*
X131544985Y-84337520D01*
X131544985Y-83770853D02*
X131464033Y-83851805D01*
X131464033Y-83851805D02*
X131544985Y-83932758D01*
X131544985Y-83932758D02*
X131625938Y-83851805D01*
X131625938Y-83851805D02*
X131544985Y-83770853D01*
X131544985Y-83770853D02*
X131544985Y-83932758D01*
X132354509Y-85470853D02*
X132354509Y-84337520D01*
X132354509Y-84661329D02*
X132435462Y-84499424D01*
X132435462Y-84499424D02*
X132516414Y-84418472D01*
X132516414Y-84418472D02*
X132678319Y-84337520D01*
X132678319Y-84337520D02*
X132840224Y-84337520D01*
X133649748Y-85470853D02*
X133487843Y-85389901D01*
X133487843Y-85389901D02*
X133406890Y-85308948D01*
X133406890Y-85308948D02*
X133325938Y-85147043D01*
X133325938Y-85147043D02*
X133325938Y-84661329D01*
X133325938Y-84661329D02*
X133406890Y-84499424D01*
X133406890Y-84499424D02*
X133487843Y-84418472D01*
X133487843Y-84418472D02*
X133649748Y-84337520D01*
X133649748Y-84337520D02*
X133892605Y-84337520D01*
X133892605Y-84337520D02*
X134054509Y-84418472D01*
X134054509Y-84418472D02*
X134135462Y-84499424D01*
X134135462Y-84499424D02*
X134216414Y-84661329D01*
X134216414Y-84661329D02*
X134216414Y-85147043D01*
X134216414Y-85147043D02*
X134135462Y-85308948D01*
X134135462Y-85308948D02*
X134054509Y-85389901D01*
X134054509Y-85389901D02*
X133892605Y-85470853D01*
X133892605Y-85470853D02*
X133649748Y-85470853D01*
X134864033Y-85389901D02*
X135025938Y-85470853D01*
X135025938Y-85470853D02*
X135349747Y-85470853D01*
X135349747Y-85470853D02*
X135511652Y-85389901D01*
X135511652Y-85389901D02*
X135592604Y-85227996D01*
X135592604Y-85227996D02*
X135592604Y-85147043D01*
X135592604Y-85147043D02*
X135511652Y-84985139D01*
X135511652Y-84985139D02*
X135349747Y-84904186D01*
X135349747Y-84904186D02*
X135106890Y-84904186D01*
X135106890Y-84904186D02*
X134944985Y-84823234D01*
X134944985Y-84823234D02*
X134864033Y-84661329D01*
X134864033Y-84661329D02*
X134864033Y-84580377D01*
X134864033Y-84580377D02*
X134944985Y-84418472D01*
X134944985Y-84418472D02*
X135106890Y-84337520D01*
X135106890Y-84337520D02*
X135349747Y-84337520D01*
X135349747Y-84337520D02*
X135511652Y-84418472D01*
X136968794Y-85389901D02*
X136806890Y-85470853D01*
X136806890Y-85470853D02*
X136483080Y-85470853D01*
X136483080Y-85470853D02*
X136321175Y-85389901D01*
X136321175Y-85389901D02*
X136240223Y-85227996D01*
X136240223Y-85227996D02*
X136240223Y-84580377D01*
X136240223Y-84580377D02*
X136321175Y-84418472D01*
X136321175Y-84418472D02*
X136483080Y-84337520D01*
X136483080Y-84337520D02*
X136806890Y-84337520D01*
X136806890Y-84337520D02*
X136968794Y-84418472D01*
X136968794Y-84418472D02*
X137049747Y-84580377D01*
X137049747Y-84580377D02*
X137049747Y-84742281D01*
X137049747Y-84742281D02*
X136240223Y-84904186D01*
X139073556Y-85470853D02*
X139073556Y-83770853D01*
X139073556Y-83770853D02*
X139478318Y-83770853D01*
X139478318Y-83770853D02*
X139721175Y-83851805D01*
X139721175Y-83851805D02*
X139883080Y-84013710D01*
X139883080Y-84013710D02*
X139964033Y-84175615D01*
X139964033Y-84175615D02*
X140044985Y-84499424D01*
X140044985Y-84499424D02*
X140044985Y-84742281D01*
X140044985Y-84742281D02*
X139964033Y-85066091D01*
X139964033Y-85066091D02*
X139883080Y-85227996D01*
X139883080Y-85227996D02*
X139721175Y-85389901D01*
X139721175Y-85389901D02*
X139478318Y-85470853D01*
X139478318Y-85470853D02*
X139073556Y-85470853D01*
X141340223Y-84580377D02*
X140773556Y-84580377D01*
X140773556Y-85470853D02*
X140773556Y-83770853D01*
X140773556Y-83770853D02*
X141583080Y-83770853D01*
X142959271Y-84337520D02*
X142959271Y-85470853D01*
X142554509Y-83689901D02*
X142149747Y-84904186D01*
X142149747Y-84904186D02*
X143202128Y-84904186D01*
X144173557Y-83770853D02*
X144335462Y-83770853D01*
X144335462Y-83770853D02*
X144497366Y-83851805D01*
X144497366Y-83851805D02*
X144578319Y-83932758D01*
X144578319Y-83932758D02*
X144659271Y-84094662D01*
X144659271Y-84094662D02*
X144740224Y-84418472D01*
X144740224Y-84418472D02*
X144740224Y-84823234D01*
X144740224Y-84823234D02*
X144659271Y-85147043D01*
X144659271Y-85147043D02*
X144578319Y-85308948D01*
X144578319Y-85308948D02*
X144497366Y-85389901D01*
X144497366Y-85389901D02*
X144335462Y-85470853D01*
X144335462Y-85470853D02*
X144173557Y-85470853D01*
X144173557Y-85470853D02*
X144011652Y-85389901D01*
X144011652Y-85389901D02*
X143930700Y-85308948D01*
X143930700Y-85308948D02*
X143849747Y-85147043D01*
X143849747Y-85147043D02*
X143768795Y-84823234D01*
X143768795Y-84823234D02*
X143768795Y-84418472D01*
X143768795Y-84418472D02*
X143849747Y-84094662D01*
X143849747Y-84094662D02*
X143930700Y-83932758D01*
X143930700Y-83932758D02*
X144011652Y-83851805D01*
X144011652Y-83851805D02*
X144173557Y-83770853D01*
X146440224Y-85308948D02*
X146359272Y-85389901D01*
X146359272Y-85389901D02*
X146116414Y-85470853D01*
X146116414Y-85470853D02*
X145954510Y-85470853D01*
X145954510Y-85470853D02*
X145711653Y-85389901D01*
X145711653Y-85389901D02*
X145549748Y-85227996D01*
X145549748Y-85227996D02*
X145468795Y-85066091D01*
X145468795Y-85066091D02*
X145387843Y-84742281D01*
X145387843Y-84742281D02*
X145387843Y-84499424D01*
X145387843Y-84499424D02*
X145468795Y-84175615D01*
X145468795Y-84175615D02*
X145549748Y-84013710D01*
X145549748Y-84013710D02*
X145711653Y-83851805D01*
X145711653Y-83851805D02*
X145954510Y-83770853D01*
X145954510Y-83770853D02*
X146116414Y-83770853D01*
X146116414Y-83770853D02*
X146359272Y-83851805D01*
X146359272Y-83851805D02*
X146440224Y-83932758D01*
X147006891Y-86118472D02*
X147087843Y-86037520D01*
X147087843Y-86037520D02*
X147249748Y-85794662D01*
X147249748Y-85794662D02*
X147330700Y-85632758D01*
X147330700Y-85632758D02*
X147411653Y-85389901D01*
X147411653Y-85389901D02*
X147492605Y-84985139D01*
X147492605Y-84985139D02*
X147492605Y-84661329D01*
X147492605Y-84661329D02*
X147411653Y-84256567D01*
X147411653Y-84256567D02*
X147330700Y-84013710D01*
X147330700Y-84013710D02*
X147249748Y-83851805D01*
X147249748Y-83851805D02*
X147087843Y-83608948D01*
X147087843Y-83608948D02*
X147006891Y-83527996D01*
X113168796Y-87317282D02*
X113411653Y-87398234D01*
X113411653Y-87398234D02*
X113492606Y-87479186D01*
X113492606Y-87479186D02*
X113573558Y-87641091D01*
X113573558Y-87641091D02*
X113573558Y-87883948D01*
X113573558Y-87883948D02*
X113492606Y-88045853D01*
X113492606Y-88045853D02*
X113411653Y-88126806D01*
X113411653Y-88126806D02*
X113249748Y-88207758D01*
X113249748Y-88207758D02*
X112602129Y-88207758D01*
X112602129Y-88207758D02*
X112602129Y-86507758D01*
X112602129Y-86507758D02*
X113168796Y-86507758D01*
X113168796Y-86507758D02*
X113330701Y-86588710D01*
X113330701Y-86588710D02*
X113411653Y-86669663D01*
X113411653Y-86669663D02*
X113492606Y-86831567D01*
X113492606Y-86831567D02*
X113492606Y-86993472D01*
X113492606Y-86993472D02*
X113411653Y-87155377D01*
X113411653Y-87155377D02*
X113330701Y-87236329D01*
X113330701Y-87236329D02*
X113168796Y-87317282D01*
X113168796Y-87317282D02*
X112602129Y-87317282D01*
X114544987Y-88207758D02*
X114383082Y-88126806D01*
X114383082Y-88126806D02*
X114302129Y-88045853D01*
X114302129Y-88045853D02*
X114221177Y-87883948D01*
X114221177Y-87883948D02*
X114221177Y-87398234D01*
X114221177Y-87398234D02*
X114302129Y-87236329D01*
X114302129Y-87236329D02*
X114383082Y-87155377D01*
X114383082Y-87155377D02*
X114544987Y-87074425D01*
X114544987Y-87074425D02*
X114787844Y-87074425D01*
X114787844Y-87074425D02*
X114949748Y-87155377D01*
X114949748Y-87155377D02*
X115030701Y-87236329D01*
X115030701Y-87236329D02*
X115111653Y-87398234D01*
X115111653Y-87398234D02*
X115111653Y-87883948D01*
X115111653Y-87883948D02*
X115030701Y-88045853D01*
X115030701Y-88045853D02*
X114949748Y-88126806D01*
X114949748Y-88126806D02*
X114787844Y-88207758D01*
X114787844Y-88207758D02*
X114544987Y-88207758D01*
X116568796Y-88207758D02*
X116568796Y-87317282D01*
X116568796Y-87317282D02*
X116487843Y-87155377D01*
X116487843Y-87155377D02*
X116325939Y-87074425D01*
X116325939Y-87074425D02*
X116002129Y-87074425D01*
X116002129Y-87074425D02*
X115840224Y-87155377D01*
X116568796Y-88126806D02*
X116406891Y-88207758D01*
X116406891Y-88207758D02*
X116002129Y-88207758D01*
X116002129Y-88207758D02*
X115840224Y-88126806D01*
X115840224Y-88126806D02*
X115759272Y-87964901D01*
X115759272Y-87964901D02*
X115759272Y-87802996D01*
X115759272Y-87802996D02*
X115840224Y-87641091D01*
X115840224Y-87641091D02*
X116002129Y-87560139D01*
X116002129Y-87560139D02*
X116406891Y-87560139D01*
X116406891Y-87560139D02*
X116568796Y-87479186D01*
X117378319Y-88207758D02*
X117378319Y-87074425D01*
X117378319Y-87398234D02*
X117459272Y-87236329D01*
X117459272Y-87236329D02*
X117540224Y-87155377D01*
X117540224Y-87155377D02*
X117702129Y-87074425D01*
X117702129Y-87074425D02*
X117864034Y-87074425D01*
X119159272Y-88207758D02*
X119159272Y-86507758D01*
X119159272Y-88126806D02*
X118997367Y-88207758D01*
X118997367Y-88207758D02*
X118673558Y-88207758D01*
X118673558Y-88207758D02*
X118511653Y-88126806D01*
X118511653Y-88126806D02*
X118430700Y-88045853D01*
X118430700Y-88045853D02*
X118349748Y-87883948D01*
X118349748Y-87883948D02*
X118349748Y-87398234D01*
X118349748Y-87398234D02*
X118430700Y-87236329D01*
X118430700Y-87236329D02*
X118511653Y-87155377D01*
X118511653Y-87155377D02*
X118673558Y-87074425D01*
X118673558Y-87074425D02*
X118997367Y-87074425D01*
X118997367Y-87074425D02*
X119159272Y-87155377D01*
X122235462Y-88207758D02*
X121668795Y-87398234D01*
X121264033Y-88207758D02*
X121264033Y-86507758D01*
X121264033Y-86507758D02*
X121911652Y-86507758D01*
X121911652Y-86507758D02*
X122073557Y-86588710D01*
X122073557Y-86588710D02*
X122154510Y-86669663D01*
X122154510Y-86669663D02*
X122235462Y-86831567D01*
X122235462Y-86831567D02*
X122235462Y-87074425D01*
X122235462Y-87074425D02*
X122154510Y-87236329D01*
X122154510Y-87236329D02*
X122073557Y-87317282D01*
X122073557Y-87317282D02*
X121911652Y-87398234D01*
X121911652Y-87398234D02*
X121264033Y-87398234D01*
X123611652Y-88126806D02*
X123449748Y-88207758D01*
X123449748Y-88207758D02*
X123125938Y-88207758D01*
X123125938Y-88207758D02*
X122964033Y-88126806D01*
X122964033Y-88126806D02*
X122883081Y-87964901D01*
X122883081Y-87964901D02*
X122883081Y-87317282D01*
X122883081Y-87317282D02*
X122964033Y-87155377D01*
X122964033Y-87155377D02*
X123125938Y-87074425D01*
X123125938Y-87074425D02*
X123449748Y-87074425D01*
X123449748Y-87074425D02*
X123611652Y-87155377D01*
X123611652Y-87155377D02*
X123692605Y-87317282D01*
X123692605Y-87317282D02*
X123692605Y-87479186D01*
X123692605Y-87479186D02*
X122883081Y-87641091D01*
X124259272Y-87074425D02*
X124664034Y-88207758D01*
X124664034Y-88207758D02*
X125068795Y-87074425D01*
X125716414Y-88045853D02*
X125797367Y-88126806D01*
X125797367Y-88126806D02*
X125716414Y-88207758D01*
X125716414Y-88207758D02*
X125635462Y-88126806D01*
X125635462Y-88126806D02*
X125716414Y-88045853D01*
X125716414Y-88045853D02*
X125716414Y-88207758D01*
X127740224Y-87722044D02*
X128549748Y-87722044D01*
X127578319Y-88207758D02*
X128144986Y-86507758D01*
X128144986Y-86507758D02*
X128711653Y-88207758D01*
D10*
X160766666Y-108454819D02*
X160766666Y-109169104D01*
X160766666Y-109169104D02*
X160719047Y-109311961D01*
X160719047Y-109311961D02*
X160623809Y-109407200D01*
X160623809Y-109407200D02*
X160480952Y-109454819D01*
X160480952Y-109454819D02*
X160385714Y-109454819D01*
X161766666Y-109454819D02*
X161195238Y-109454819D01*
X161480952Y-109454819D02*
X161480952Y-108454819D01*
X161480952Y-108454819D02*
X161385714Y-108597676D01*
X161385714Y-108597676D02*
X161290476Y-108692914D01*
X161290476Y-108692914D02*
X161195238Y-108740533D01*
X151738095Y-131254819D02*
X152309523Y-131254819D01*
X152023809Y-132254819D02*
X152023809Y-131254819D01*
X152642857Y-132254819D02*
X152642857Y-131254819D01*
X152642857Y-131254819D02*
X153023809Y-131254819D01*
X153023809Y-131254819D02*
X153119047Y-131302438D01*
X153119047Y-131302438D02*
X153166666Y-131350057D01*
X153166666Y-131350057D02*
X153214285Y-131445295D01*
X153214285Y-131445295D02*
X153214285Y-131588152D01*
X153214285Y-131588152D02*
X153166666Y-131683390D01*
X153166666Y-131683390D02*
X153119047Y-131731009D01*
X153119047Y-131731009D02*
X153023809Y-131778628D01*
X153023809Y-131778628D02*
X152642857Y-131778628D01*
X154166666Y-132254819D02*
X153595238Y-132254819D01*
X153880952Y-132254819D02*
X153880952Y-131254819D01*
X153880952Y-131254819D02*
X153785714Y-131397676D01*
X153785714Y-131397676D02*
X153690476Y-131492914D01*
X153690476Y-131492914D02*
X153595238Y-131540533D01*
X159666666Y-117854819D02*
X159666666Y-118569104D01*
X159666666Y-118569104D02*
X159619047Y-118711961D01*
X159619047Y-118711961D02*
X159523809Y-118807200D01*
X159523809Y-118807200D02*
X159380952Y-118854819D01*
X159380952Y-118854819D02*
X159285714Y-118854819D01*
X160142857Y-118854819D02*
X160142857Y-117854819D01*
X160142857Y-117854819D02*
X160523809Y-117854819D01*
X160523809Y-117854819D02*
X160619047Y-117902438D01*
X160619047Y-117902438D02*
X160666666Y-117950057D01*
X160666666Y-117950057D02*
X160714285Y-118045295D01*
X160714285Y-118045295D02*
X160714285Y-118188152D01*
X160714285Y-118188152D02*
X160666666Y-118283390D01*
X160666666Y-118283390D02*
X160619047Y-118331009D01*
X160619047Y-118331009D02*
X160523809Y-118378628D01*
X160523809Y-118378628D02*
X160142857Y-118378628D01*
X161666666Y-118854819D02*
X161095238Y-118854819D01*
X161380952Y-118854819D02*
X161380952Y-117854819D01*
X161380952Y-117854819D02*
X161285714Y-117997676D01*
X161285714Y-117997676D02*
X161190476Y-118092914D01*
X161190476Y-118092914D02*
X161095238Y-118140533D01*
X161738095Y-131254819D02*
X162309523Y-131254819D01*
X162023809Y-132254819D02*
X162023809Y-131254819D01*
X162642857Y-132254819D02*
X162642857Y-131254819D01*
X162642857Y-131254819D02*
X163023809Y-131254819D01*
X163023809Y-131254819D02*
X163119047Y-131302438D01*
X163119047Y-131302438D02*
X163166666Y-131350057D01*
X163166666Y-131350057D02*
X163214285Y-131445295D01*
X163214285Y-131445295D02*
X163214285Y-131588152D01*
X163214285Y-131588152D02*
X163166666Y-131683390D01*
X163166666Y-131683390D02*
X163119047Y-131731009D01*
X163119047Y-131731009D02*
X163023809Y-131778628D01*
X163023809Y-131778628D02*
X162642857Y-131778628D01*
X163595238Y-131350057D02*
X163642857Y-131302438D01*
X163642857Y-131302438D02*
X163738095Y-131254819D01*
X163738095Y-131254819D02*
X163976190Y-131254819D01*
X163976190Y-131254819D02*
X164071428Y-131302438D01*
X164071428Y-131302438D02*
X164119047Y-131350057D01*
X164119047Y-131350057D02*
X164166666Y-131445295D01*
X164166666Y-131445295D02*
X164166666Y-131540533D01*
X164166666Y-131540533D02*
X164119047Y-131683390D01*
X164119047Y-131683390D02*
X163547619Y-132254819D01*
X163547619Y-132254819D02*
X164166666Y-132254819D01*
X131554819Y-121566666D02*
X131078628Y-121899999D01*
X131554819Y-122138094D02*
X130554819Y-122138094D01*
X130554819Y-122138094D02*
X130554819Y-121757142D01*
X130554819Y-121757142D02*
X130602438Y-121661904D01*
X130602438Y-121661904D02*
X130650057Y-121614285D01*
X130650057Y-121614285D02*
X130745295Y-121566666D01*
X130745295Y-121566666D02*
X130888152Y-121566666D01*
X130888152Y-121566666D02*
X130983390Y-121614285D01*
X130983390Y-121614285D02*
X131031009Y-121661904D01*
X131031009Y-121661904D02*
X131078628Y-121757142D01*
X131078628Y-121757142D02*
X131078628Y-122138094D01*
X130554819Y-121233332D02*
X130554819Y-120614285D01*
X130554819Y-120614285D02*
X130935771Y-120947618D01*
X130935771Y-120947618D02*
X130935771Y-120804761D01*
X130935771Y-120804761D02*
X130983390Y-120709523D01*
X130983390Y-120709523D02*
X131031009Y-120661904D01*
X131031009Y-120661904D02*
X131126247Y-120614285D01*
X131126247Y-120614285D02*
X131364342Y-120614285D01*
X131364342Y-120614285D02*
X131459580Y-120661904D01*
X131459580Y-120661904D02*
X131507200Y-120709523D01*
X131507200Y-120709523D02*
X131554819Y-120804761D01*
X131554819Y-120804761D02*
X131554819Y-121090475D01*
X131554819Y-121090475D02*
X131507200Y-121185713D01*
X131507200Y-121185713D02*
X131459580Y-121233332D01*
X161738095Y-81554819D02*
X162309523Y-81554819D01*
X162023809Y-82554819D02*
X162023809Y-81554819D01*
X162642857Y-82554819D02*
X162642857Y-81554819D01*
X162642857Y-81554819D02*
X163023809Y-81554819D01*
X163023809Y-81554819D02*
X163119047Y-81602438D01*
X163119047Y-81602438D02*
X163166666Y-81650057D01*
X163166666Y-81650057D02*
X163214285Y-81745295D01*
X163214285Y-81745295D02*
X163214285Y-81888152D01*
X163214285Y-81888152D02*
X163166666Y-81983390D01*
X163166666Y-81983390D02*
X163119047Y-82031009D01*
X163119047Y-82031009D02*
X163023809Y-82078628D01*
X163023809Y-82078628D02*
X162642857Y-82078628D01*
X164071428Y-81888152D02*
X164071428Y-82554819D01*
X163833333Y-81507200D02*
X163595238Y-82221485D01*
X163595238Y-82221485D02*
X164214285Y-82221485D01*
X153343333Y-113664819D02*
X153010000Y-113188628D01*
X152771905Y-113664819D02*
X152771905Y-112664819D01*
X152771905Y-112664819D02*
X153152857Y-112664819D01*
X153152857Y-112664819D02*
X153248095Y-112712438D01*
X153248095Y-112712438D02*
X153295714Y-112760057D01*
X153295714Y-112760057D02*
X153343333Y-112855295D01*
X153343333Y-112855295D02*
X153343333Y-112998152D01*
X153343333Y-112998152D02*
X153295714Y-113093390D01*
X153295714Y-113093390D02*
X153248095Y-113141009D01*
X153248095Y-113141009D02*
X153152857Y-113188628D01*
X153152857Y-113188628D02*
X152771905Y-113188628D01*
X154200476Y-112998152D02*
X154200476Y-113664819D01*
X153962381Y-112617200D02*
X153724286Y-113331485D01*
X153724286Y-113331485D02*
X154343333Y-113331485D01*
X152233333Y-90054819D02*
X151757143Y-90054819D01*
X151757143Y-90054819D02*
X151757143Y-89054819D01*
X152566667Y-90054819D02*
X152566667Y-89054819D01*
X152566667Y-89054819D02*
X152804762Y-89054819D01*
X152804762Y-89054819D02*
X152947619Y-89102438D01*
X152947619Y-89102438D02*
X153042857Y-89197676D01*
X153042857Y-89197676D02*
X153090476Y-89292914D01*
X153090476Y-89292914D02*
X153138095Y-89483390D01*
X153138095Y-89483390D02*
X153138095Y-89626247D01*
X153138095Y-89626247D02*
X153090476Y-89816723D01*
X153090476Y-89816723D02*
X153042857Y-89911961D01*
X153042857Y-89911961D02*
X152947619Y-90007200D01*
X152947619Y-90007200D02*
X152804762Y-90054819D01*
X152804762Y-90054819D02*
X152566667Y-90054819D01*
X154090476Y-90054819D02*
X153519048Y-90054819D01*
X153804762Y-90054819D02*
X153804762Y-89054819D01*
X153804762Y-89054819D02*
X153709524Y-89197676D01*
X153709524Y-89197676D02*
X153614286Y-89292914D01*
X153614286Y-89292914D02*
X153519048Y-89340533D01*
X119466666Y-128854819D02*
X119466666Y-129569104D01*
X119466666Y-129569104D02*
X119419047Y-129711961D01*
X119419047Y-129711961D02*
X119323809Y-129807200D01*
X119323809Y-129807200D02*
X119180952Y-129854819D01*
X119180952Y-129854819D02*
X119085714Y-129854819D01*
X120371428Y-129188152D02*
X120371428Y-129854819D01*
X120133333Y-128807200D02*
X119895238Y-129521485D01*
X119895238Y-129521485D02*
X120514285Y-129521485D01*
X132554819Y-123066666D02*
X132078628Y-123399999D01*
X132554819Y-123638094D02*
X131554819Y-123638094D01*
X131554819Y-123638094D02*
X131554819Y-123257142D01*
X131554819Y-123257142D02*
X131602438Y-123161904D01*
X131602438Y-123161904D02*
X131650057Y-123114285D01*
X131650057Y-123114285D02*
X131745295Y-123066666D01*
X131745295Y-123066666D02*
X131888152Y-123066666D01*
X131888152Y-123066666D02*
X131983390Y-123114285D01*
X131983390Y-123114285D02*
X132031009Y-123161904D01*
X132031009Y-123161904D02*
X132078628Y-123257142D01*
X132078628Y-123257142D02*
X132078628Y-123638094D01*
X132554819Y-122114285D02*
X132554819Y-122685713D01*
X132554819Y-122399999D02*
X131554819Y-122399999D01*
X131554819Y-122399999D02*
X131697676Y-122495237D01*
X131697676Y-122495237D02*
X131792914Y-122590475D01*
X131792914Y-122590475D02*
X131840533Y-122685713D01*
X135838095Y-119654819D02*
X135838095Y-120464342D01*
X135838095Y-120464342D02*
X135885714Y-120559580D01*
X135885714Y-120559580D02*
X135933333Y-120607200D01*
X135933333Y-120607200D02*
X136028571Y-120654819D01*
X136028571Y-120654819D02*
X136219047Y-120654819D01*
X136219047Y-120654819D02*
X136314285Y-120607200D01*
X136314285Y-120607200D02*
X136361904Y-120559580D01*
X136361904Y-120559580D02*
X136409523Y-120464342D01*
X136409523Y-120464342D02*
X136409523Y-119654819D01*
X137409523Y-120654819D02*
X136838095Y-120654819D01*
X137123809Y-120654819D02*
X137123809Y-119654819D01*
X137123809Y-119654819D02*
X137028571Y-119797676D01*
X137028571Y-119797676D02*
X136933333Y-119892914D01*
X136933333Y-119892914D02*
X136838095Y-119940533D01*
X130154819Y-120266666D02*
X129678628Y-120599999D01*
X130154819Y-120838094D02*
X129154819Y-120838094D01*
X129154819Y-120838094D02*
X129154819Y-120457142D01*
X129154819Y-120457142D02*
X129202438Y-120361904D01*
X129202438Y-120361904D02*
X129250057Y-120314285D01*
X129250057Y-120314285D02*
X129345295Y-120266666D01*
X129345295Y-120266666D02*
X129488152Y-120266666D01*
X129488152Y-120266666D02*
X129583390Y-120314285D01*
X129583390Y-120314285D02*
X129631009Y-120361904D01*
X129631009Y-120361904D02*
X129678628Y-120457142D01*
X129678628Y-120457142D02*
X129678628Y-120838094D01*
X129250057Y-119885713D02*
X129202438Y-119838094D01*
X129202438Y-119838094D02*
X129154819Y-119742856D01*
X129154819Y-119742856D02*
X129154819Y-119504761D01*
X129154819Y-119504761D02*
X129202438Y-119409523D01*
X129202438Y-119409523D02*
X129250057Y-119361904D01*
X129250057Y-119361904D02*
X129345295Y-119314285D01*
X129345295Y-119314285D02*
X129440533Y-119314285D01*
X129440533Y-119314285D02*
X129583390Y-119361904D01*
X129583390Y-119361904D02*
X130154819Y-119933332D01*
X130154819Y-119933332D02*
X130154819Y-119314285D01*
X162433333Y-90354819D02*
X161957143Y-90354819D01*
X161957143Y-90354819D02*
X161957143Y-89354819D01*
X162766667Y-90354819D02*
X162766667Y-89354819D01*
X162766667Y-89354819D02*
X163004762Y-89354819D01*
X163004762Y-89354819D02*
X163147619Y-89402438D01*
X163147619Y-89402438D02*
X163242857Y-89497676D01*
X163242857Y-89497676D02*
X163290476Y-89592914D01*
X163290476Y-89592914D02*
X163338095Y-89783390D01*
X163338095Y-89783390D02*
X163338095Y-89926247D01*
X163338095Y-89926247D02*
X163290476Y-90116723D01*
X163290476Y-90116723D02*
X163242857Y-90211961D01*
X163242857Y-90211961D02*
X163147619Y-90307200D01*
X163147619Y-90307200D02*
X163004762Y-90354819D01*
X163004762Y-90354819D02*
X162766667Y-90354819D01*
X163719048Y-89450057D02*
X163766667Y-89402438D01*
X163766667Y-89402438D02*
X163861905Y-89354819D01*
X163861905Y-89354819D02*
X164100000Y-89354819D01*
X164100000Y-89354819D02*
X164195238Y-89402438D01*
X164195238Y-89402438D02*
X164242857Y-89450057D01*
X164242857Y-89450057D02*
X164290476Y-89545295D01*
X164290476Y-89545295D02*
X164290476Y-89640533D01*
X164290476Y-89640533D02*
X164242857Y-89783390D01*
X164242857Y-89783390D02*
X163671429Y-90354819D01*
X163671429Y-90354819D02*
X164290476Y-90354819D01*
X136433333Y-128859580D02*
X136385714Y-128907200D01*
X136385714Y-128907200D02*
X136242857Y-128954819D01*
X136242857Y-128954819D02*
X136147619Y-128954819D01*
X136147619Y-128954819D02*
X136004762Y-128907200D01*
X136004762Y-128907200D02*
X135909524Y-128811961D01*
X135909524Y-128811961D02*
X135861905Y-128716723D01*
X135861905Y-128716723D02*
X135814286Y-128526247D01*
X135814286Y-128526247D02*
X135814286Y-128383390D01*
X135814286Y-128383390D02*
X135861905Y-128192914D01*
X135861905Y-128192914D02*
X135909524Y-128097676D01*
X135909524Y-128097676D02*
X136004762Y-128002438D01*
X136004762Y-128002438D02*
X136147619Y-127954819D01*
X136147619Y-127954819D02*
X136242857Y-127954819D01*
X136242857Y-127954819D02*
X136385714Y-128002438D01*
X136385714Y-128002438D02*
X136433333Y-128050057D01*
X137385714Y-128954819D02*
X136814286Y-128954819D01*
X137100000Y-128954819D02*
X137100000Y-127954819D01*
X137100000Y-127954819D02*
X137004762Y-128097676D01*
X137004762Y-128097676D02*
X136909524Y-128192914D01*
X136909524Y-128192914D02*
X136814286Y-128240533D01*
X151738095Y-81554819D02*
X152309523Y-81554819D01*
X152023809Y-82554819D02*
X152023809Y-81554819D01*
X152642857Y-82554819D02*
X152642857Y-81554819D01*
X152642857Y-81554819D02*
X153023809Y-81554819D01*
X153023809Y-81554819D02*
X153119047Y-81602438D01*
X153119047Y-81602438D02*
X153166666Y-81650057D01*
X153166666Y-81650057D02*
X153214285Y-81745295D01*
X153214285Y-81745295D02*
X153214285Y-81888152D01*
X153214285Y-81888152D02*
X153166666Y-81983390D01*
X153166666Y-81983390D02*
X153119047Y-82031009D01*
X153119047Y-82031009D02*
X153023809Y-82078628D01*
X153023809Y-82078628D02*
X152642857Y-82078628D01*
X153547619Y-81554819D02*
X154166666Y-81554819D01*
X154166666Y-81554819D02*
X153833333Y-81935771D01*
X153833333Y-81935771D02*
X153976190Y-81935771D01*
X153976190Y-81935771D02*
X154071428Y-81983390D01*
X154071428Y-81983390D02*
X154119047Y-82031009D01*
X154119047Y-82031009D02*
X154166666Y-82126247D01*
X154166666Y-82126247D02*
X154166666Y-82364342D01*
X154166666Y-82364342D02*
X154119047Y-82459580D01*
X154119047Y-82459580D02*
X154071428Y-82507200D01*
X154071428Y-82507200D02*
X153976190Y-82554819D01*
X153976190Y-82554819D02*
X153690476Y-82554819D01*
X153690476Y-82554819D02*
X153595238Y-82507200D01*
X153595238Y-82507200D02*
X153547619Y-82459580D01*
D13*
%TO.C,J1*%
X159650000Y-93600000D02*
X159650000Y-94800000D01*
X156350000Y-93600000D02*
X159650000Y-93600000D01*
X156350000Y-94800000D02*
X156350000Y-93600000D01*
X159650000Y-109250000D02*
X159650000Y-110400000D01*
X156350000Y-110400000D02*
X156350000Y-109225000D01*
X159650000Y-110450000D02*
X156350000Y-110450000D01*
D14*
%TO.C,TP1*%
X154800000Y-135000000D02*
G75*
G02*
X151200000Y-135000000I-1800000J0D01*
G01*
X151200000Y-135000000D02*
G75*
G02*
X154800000Y-135000000I1800000J0D01*
G01*
%TO.C,JP1*%
X159100000Y-119670000D02*
X159100000Y-122330000D01*
X159670000Y-122330000D02*
X159100000Y-122330000D01*
X162210000Y-119670000D02*
X159100000Y-119670000D01*
X163730000Y-119670000D02*
X163730000Y-118150000D01*
X164300000Y-119670000D02*
X163730000Y-119670000D01*
X164300000Y-119670000D02*
X164300000Y-122330000D01*
X164300000Y-122330000D02*
X161190000Y-122330000D01*
%TO.C,TP2*%
X164800000Y-135000000D02*
G75*
G02*
X161200000Y-135000000I-1800000J0D01*
G01*
X161200000Y-135000000D02*
G75*
G02*
X164800000Y-135000000I1800000J0D01*
G01*
%TO.C,R3*%
X130520000Y-123753641D02*
X130520000Y-123446359D01*
X131280000Y-123753641D02*
X131280000Y-123446359D01*
%TO.C,TP4*%
X164800000Y-79000000D02*
G75*
G02*
X161200000Y-79000000I-1800000J0D01*
G01*
X161200000Y-79000000D02*
G75*
G02*
X164800000Y-79000000I1800000J0D01*
G01*
%TO.C,R4*%
X153663641Y-111220000D02*
X153356359Y-111220000D01*
X153663641Y-111980000D02*
X153356359Y-111980000D01*
D13*
%TO.C,LD1*%
X151000000Y-85600000D02*
G75*
G02*
X151000000Y-86400000I2000000J-400000D01*
G01*
X151002787Y-85600000D02*
G75*
G02*
X151002786Y-86400000I-200001J-400000D01*
G01*
D14*
%TO.C,J4*%
X115760000Y-121000000D02*
X117200000Y-121000000D01*
X117200000Y-120430000D02*
X117200000Y-121000000D01*
X117200000Y-120430000D02*
X122400000Y-120430000D01*
X117200000Y-122520000D02*
X117200000Y-123540000D01*
X117200000Y-125060000D02*
X117200000Y-126080000D01*
X117200000Y-127600000D02*
X117200000Y-128170000D01*
X117200000Y-128170000D02*
X122400000Y-128170000D01*
X122400000Y-120430000D02*
X122400000Y-121000000D01*
X122400000Y-122520000D02*
X122400000Y-123540000D01*
X122400000Y-125060000D02*
X122400000Y-126080000D01*
X122400000Y-127600000D02*
X122400000Y-128170000D01*
%TO.C,R1*%
X131620000Y-125053641D02*
X131620000Y-124746359D01*
X132380000Y-125053641D02*
X132380000Y-124746359D01*
%TO.C,H1*%
D13*
X112500000Y-95000000D02*
X132900000Y-95000000D01*
X132900000Y-103400000D01*
X112500000Y-103400000D01*
X112500000Y-95000000D01*
D14*
%TO.C,U1*%
X136600000Y-121040000D02*
X134650000Y-121040000D01*
X136600000Y-121040000D02*
X138550000Y-121040000D01*
X136600000Y-126160000D02*
X134650000Y-126160000D01*
X136600000Y-126160000D02*
X138550000Y-126160000D01*
X139540000Y-126395000D02*
X139060000Y-126395000D01*
X139300000Y-126065000D01*
X139540000Y-126395000D01*
G36*
X139540000Y-126395000D02*
G01*
X139060000Y-126395000D01*
X139300000Y-126065000D01*
X139540000Y-126395000D01*
G37*
%TO.C,R2*%
X129320000Y-122353641D02*
X129320000Y-122046359D01*
X130080000Y-122353641D02*
X130080000Y-122046359D01*
D13*
%TO.C,LD2*%
X165677230Y-85999999D02*
G75*
G02*
X160317198Y-85999999I-2680016J0D01*
G01*
X160317198Y-85999999D02*
G75*
G02*
X165677230Y-85999999I2680016J0D01*
G01*
D14*
%TO.C,C1*%
X136492164Y-126740000D02*
X136707836Y-126740000D01*
X136492164Y-127460000D02*
X136707836Y-127460000D01*
%TO.C,TP3*%
X154800000Y-79000000D02*
G75*
G02*
X151200000Y-79000000I-1800000J0D01*
G01*
X151200000Y-79000000D02*
G75*
G02*
X154800000Y-79000000I1800000J0D01*
G01*
%TD*%
M02*
