M48
; DRILL file {KiCad 9.0.3} date 2026-01-06T20:18:22+0800
; FORMAT={-:-/ absolute / inch / decimal}
; #@! TF.CreationDate,2026-01-06T20:18:22+08:00
; #@! TF.GenerationSoftware,Kicad,Pcbnew,9.0.3
; #@! TF.FileFunction,Plated,1,2,PTH
FMAT,2
INCH
; #@! TA.AperFunction,Plated,PTH,ViaDrill
T1C0.0079
; #@! TA.AperFunction,Plated,PTH,ViaDrill
T2C0.0118
; #@! TA.AperFunction,Plated,PTH,ComponentDrill
T3C0.0177
; #@! TA.AperFunction,Plated,PTH,ComponentDrill
T4C0.0276
; #@! TA.AperFunction,Plated,PTH,ComponentDrill
T5C0.1102
%
G90
G05
T1
X7.4185Y-4.7126
T2
X4.4528Y-3.7165
X4.4594Y-4.4291
X4.4685Y-3.2165
X4.4803Y-5.2717
X4.6496Y-4.5709
X4.7126Y-4.8701
X4.7126Y-4.8898
X4.7559Y-4.7638
X4.811Y-4.7087
X4.8602Y-4.6594
X4.9252Y-4.7047
X4.9252Y-4.7598
X4.9553Y-4.5881
X5.0276Y-4.5433
X5.0748Y-3.9213
X5.0748Y-5.2598
X5.0787Y-3.6378
X5.0787Y-4.2126
X5.0837Y-3.3494
X5.0945Y-4.5177
X5.2598Y-4.6063
X5.315Y-3.1811
X5.3602Y-3.9222
X5.4488Y-3.6378
X5.4606Y-4.2047
X5.4665Y-3.3258
X5.5394Y-4.0059
X5.5866Y-5.2362
X5.6398Y-4.4931
X5.7205Y-3.8061
X5.8071Y-3.5049
X5.8307Y-4.4449
X5.8425Y-3.1929
X5.8809Y-4.831
X5.8839Y-3.7598
X5.8839Y-3.7992
X5.8839Y-3.8583
X5.8839Y-3.8976
X5.8839Y-3.937
X5.8839Y-3.9764
X5.8839Y-4.0354
X5.8839Y-4.0748
X5.8839Y-4.1142
X5.8839Y-4.1535
X5.8839Y-4.2126
X5.8839Y-4.252
X5.8858Y-3.7205
X5.8858Y-4.2913
X5.8858Y-4.3307
X5.8996Y-3.6693
X5.9055Y-3.7402
X5.9075Y-3.7795
X5.9075Y-3.8189
X5.9075Y-3.878
X5.9075Y-3.9173
X5.9075Y-3.9567
X5.9075Y-3.9961
X5.9075Y-4.0551
X5.9075Y-4.0945
X5.9075Y-4.1339
X5.9075Y-4.1732
X5.9075Y-4.2323
X5.9075Y-4.2717
X5.9094Y-4.311
X5.9094Y-4.3504
X5.9114Y-3.7008
X5.9705Y-4.4016
X6.0394Y-3.6181
X6.0551Y-4.3839
X6.0638Y-4.497
X6.1122Y-3.7264
X6.1122Y-4.3071
X6.2165Y-3.7677
X6.2205Y-4.185
X6.2668Y-4.7998
X6.2756Y-4.4567
X6.374Y-3.6417
X6.3921Y-4.3902
X6.4764Y-4.3976
X6.5295Y-3.6811
X6.5295Y-3.7205
X6.5315Y-3.7598
X6.5315Y-3.7992
X6.5315Y-3.8583
X6.5315Y-3.8976
X6.5315Y-3.937
X6.5315Y-3.9764
X6.5315Y-4.3327
X6.5335Y-4.0374
X6.5335Y-4.0768
X6.5335Y-4.1161
X6.5335Y-4.1555
X6.5354Y-4.2146
X6.5354Y-4.2539
X6.5374Y-4.2933
X6.5531Y-3.7008
X6.5531Y-3.7402
X6.5551Y-3.7795
X6.5551Y-3.8189
X6.5551Y-3.878
X6.5551Y-3.9173
X6.5551Y-3.9567
X6.5551Y-3.9961
X6.5571Y-4.0571
X6.5571Y-4.0965
X6.5571Y-4.1358
X6.5571Y-4.1752
X6.5571Y-4.313
X6.5571Y-4.3524
X6.5591Y-4.2343
X6.5591Y-4.2736
X6.6132Y-3.5069
X6.6772Y-4.5098
X6.7953Y-3.811
X6.8109Y-4.8824
X6.8317Y-3.3366
X6.853Y-3.1583
X6.9016Y-4.2047
X6.9284Y-4.5064
X6.9606Y-3.6398
X7.0069Y-4.0049
X7.0748Y-5.2205
X7.1545Y-3.9242
X7.2543Y-4.5972
X7.2795Y-3.1575
X7.3514Y-3.3337
X7.3701Y-3.9213
X7.3819Y-3.6417
X7.3819Y-4.2047
X7.3978Y-4.495
X7.6339Y-5.3031
X7.9646Y-4.9134
X7.9882Y-3.5866
X7.9921Y-3.185
X8.0Y-4.2323
T3
X5.9961Y-3.3858
X6.0236Y-3.3583
X6.0236Y-3.4134
T4
X6.4173Y-3.3465
X6.4173Y-3.4252
X6.4567Y-3.3858
T5
X6.0236Y-3.1496
X6.0236Y-5.2756
X6.4173Y-3.1496
X6.4173Y-5.2756
M30
