%TF.GenerationSoftware,KiCad,Pcbnew,9.0.6*%
%TF.CreationDate,2026-04-20T13:26:17-04:00*%
%TF.ProjectId,ephys-test-module-64,65706879-732d-4746-9573-742d6d6f6475,F*%
%TF.SameCoordinates,PX66ff300PY82a7440*%
%TF.FileFunction,Copper,L2,Inr*%
%TF.FilePolarity,Positive*%
%FSLAX46Y46*%
G04 Gerber Fmt 4.6, Leading zero omitted, Abs format (unit mm)*
G04 Created by KiCad (PCBNEW 9.0.6) date 2026-04-20 13:26:17*
%MOMM*%
%LPD*%
G01*
G04 APERTURE LIST*
G04 Aperture macros list*
%AMRoundRect*
0 Rectangle with rounded corners*
0 $1 Rounding radius*
0 $2 $3 $4 $5 $6 $7 $8 $9 X,Y pos of 4 corners*
0 Add a 4 corners polygon primitive as box body*
4,1,4,$2,$3,$4,$5,$6,$7,$8,$9,$2,$3,0*
0 Add four circle primitives for the rounded corners*
1,1,$1+$1,$2,$3*
1,1,$1+$1,$4,$5*
1,1,$1+$1,$6,$7*
1,1,$1+$1,$8,$9*
0 Add four rect primitives between the rounded corners*
20,1,$1+$1,$2,$3,$4,$5,0*
20,1,$1+$1,$4,$5,$6,$7,0*
20,1,$1+$1,$6,$7,$8,$9,0*
20,1,$1+$1,$8,$9,$2,$3,0*%
G04 Aperture macros list end*
%TA.AperFunction,ComponentPad*%
%ADD10C,3.000000*%
%TD*%
%TA.AperFunction,ComponentPad*%
%ADD11RoundRect,0.200000X-0.282843X0.000000X0.000000X-0.282843X0.282843X0.000000X0.000000X0.282843X0*%
%TD*%
%TA.AperFunction,ComponentPad*%
%ADD12C,0.800000*%
%TD*%
%TA.AperFunction,ComponentPad*%
%ADD13RoundRect,0.275000X-0.388909X0.000000X0.000000X-0.388909X0.388909X0.000000X0.000000X0.388909X0*%
%TD*%
%TA.AperFunction,ComponentPad*%
%ADD14C,1.100000*%
%TD*%
%TA.AperFunction,ViaPad*%
%ADD15C,0.500000*%
%TD*%
%TA.AperFunction,Conductor*%
%ADD16C,0.400000*%
%TD*%
G04 APERTURE END LIST*
D10*
%TO.N,/Headstage Interface/E_{stim}*%
%TO.C,TP1*%
X80000000Y2000000D03*
%TD*%
%TO.N,GND*%
%TO.C,TP2*%
X90000000Y2000000D03*
%TD*%
D11*
%TO.N,/Headstage Interface/A*%
%TO.C,LD1*%
X80000000Y11800000D03*
D12*
%TO.N,unconnected-(LD1-NC-Pad2)*%
X79300000Y11100000D03*
%TO.N,/Headstage Interface/K_{0}*%
X80000000Y10400000D03*
%TD*%
D13*
%TO.N,/Headstage Interface/A*%
%TO.C,LD2*%
X90000000Y12100000D03*
D14*
%TO.N,unconnected-(LD2-NC-Pad2)*%
X89000000Y11100000D03*
%TO.N,/Headstage Interface/K_{1}*%
X90000000Y10100000D03*
%TD*%
D15*
%TO.N,GND*%
X50000000Y41300000D03*
X61600000Y22450000D03*
X86700000Y10000000D03*
X98600000Y13700000D03*
X37300000Y40325000D03*
X64600000Y40200000D03*
X5500000Y55300000D03*
X67981000Y22538000D03*
X20900000Y37400000D03*
X43650000Y25200000D03*
X67400000Y2100000D03*
X35250000Y22875000D03*
X76000000Y3500000D03*
X5269807Y24500000D03*
X45400000Y45100000D03*
X25600000Y20000000D03*
X38000000Y16500000D03*
X76700000Y17900000D03*
X39500000Y47975000D03*
X48400000Y52900000D03*
X77766525Y44706285D03*
X27000000Y56200000D03*
X56500000Y25300000D03*
X46800000Y22100000D03*
X65525000Y52250000D03*
X73725000Y37325000D03*
X82700000Y11200000D03*
X40400000Y55900000D03*
X90880000Y15884579D03*
X5800000Y3100000D03*
X75200000Y12100000D03*
X70500000Y8600000D03*
X30700000Y30200000D03*
X79200000Y37400000D03*
X51400000Y27500000D03*
X99048965Y34822817D03*
X68800000Y44550000D03*
X50449315Y1900000D03*
X63375000Y12345000D03*
X93700000Y31300000D03*
X30400000Y44600000D03*
X78725000Y52325000D03*
X36300000Y10800000D03*
X67300000Y30200000D03*
X79500000Y30200000D03*
X53275000Y20460000D03*
X28150000Y37375000D03*
X94300000Y18800000D03*
X20900000Y3400000D03*
X32700000Y35250000D03*
X5100000Y42600000D03*
X77000000Y59100000D03*
X69975000Y35275000D03*
X50000000Y30700000D03*
X93400000Y54300000D03*
X56000000Y10500000D03*
X51000000Y25200000D03*
X98200000Y57500000D03*
X57800000Y56500000D03*
X45800000Y10600000D03*
X45800000Y25650000D03*
X47000000Y42400000D03*
X59975000Y47925000D03*
X21125000Y51925000D03*
X86700000Y6400000D03*
X29800000Y12200000D03*
X40100000Y24100000D03*
X78500000Y21500000D03*
X30850000Y52525000D03*
X70300000Y19300000D03*
X93500000Y42200000D03*
X21000000Y30000000D03*
X21400000Y22250000D03*
X21000000Y44600000D03*
X86400000Y14400000D03*
X47500000Y26900000D03*
X90600000Y52200000D03*
X72200000Y55200000D03*
X98500000Y2300000D03*
X53900000Y44500000D03*
X30700000Y2600000D03*
X51900000Y16200000D03*
X54100000Y58700000D03*
X86252340Y55048011D03*
X50000000Y47600000D03*
%TO.N,VCC*%
X12800000Y16000000D03*
X15450000Y18650000D03*
X11700000Y12800000D03*
X11700000Y13300000D03*
X14200000Y17400000D03*
%TO.N,/Headstage Interface/K_{0}*%
X84700000Y8900000D03*
X84700000Y15400000D03*
X47700000Y42200000D03*
%TO.N,/Headstage Interface/E_{stim}*%
X48500000Y26100000D03*
X48500000Y27700000D03*
%TO.N,/Headstage Interface/K_{1}*%
X48500000Y42400000D03*
X89400000Y14000000D03*
X80200000Y16200000D03*
%TO.N,/Headstage Interface/REF*%
X73900000Y22900000D03*
X52200000Y27500000D03*
%TO.N,/Headstage Interface/A*%
X51500000Y42300000D03*
X82500000Y15000000D03*
%TO.N,/Test Signal Interface/SDA*%
X17863500Y20463500D03*
X17100000Y16100000D03*
X17100000Y17500000D03*
%TO.N,/Test Signal Interface/SCL*%
X19700000Y21600000D03*
%TO.N,/Test Signal Interface/WP*%
X10100000Y20900000D03*
%TO.N,/Headstage Interface/E0*%
X45400000Y26500000D03*
%TO.N,/Headstage Interface/E8*%
X45400000Y28500000D03*
%TO.N,/Headstage Interface/E12*%
X45400000Y29500000D03*
%TO.N,/Headstage Interface/E4*%
X45400000Y27500000D03*
%TO.N,/Headstage Interface/E14*%
X45000000Y30000000D03*
%TO.N,/Headstage Interface/E6*%
X45000000Y28000000D03*
%TO.N,/Headstage Interface/E2*%
X45000000Y27000000D03*
%TO.N,/Headstage Interface/E10*%
X45000000Y29000000D03*
%TO.N,/Headstage Interface/E46*%
X45400000Y39000000D03*
%TO.N,/Headstage Interface/E42*%
X45400000Y38000000D03*
%TO.N,/Headstage Interface/E36*%
X45000000Y36500000D03*
%TO.N,/Headstage Interface/E48*%
X45000000Y40000000D03*
%TO.N,/Headstage Interface/E52*%
X45000000Y41000000D03*
%TO.N,/Headstage Interface/E58*%
X45400000Y42500000D03*
%TO.N,/Headstage Interface/E26*%
X45000000Y33500000D03*
%TO.N,/Headstage Interface/E56*%
X45000000Y42000000D03*
%TO.N,/Headstage Interface/E50*%
X45400000Y40500000D03*
%TO.N,/Headstage Interface/E20*%
X45400000Y32000000D03*
%TO.N,/Headstage Interface/E32*%
X45000000Y35500000D03*
%TO.N,/Headstage Interface/E16*%
X45400000Y31000000D03*
%TO.N,/Headstage Interface/E30*%
X45000000Y34500000D03*
%TO.N,/Headstage Interface/E44*%
X45000000Y38500000D03*
%TO.N,/Headstage Interface/E54*%
X45400000Y41500000D03*
%TO.N,/Headstage Interface/E62*%
X45400000Y43500000D03*
%TO.N,/Headstage Interface/E18*%
X45000000Y31500000D03*
%TO.N,/Headstage Interface/E28*%
X45400000Y34000000D03*
%TO.N,/Headstage Interface/E34*%
X45400000Y36000000D03*
%TO.N,/Headstage Interface/E22*%
X45000000Y32500000D03*
%TO.N,/Headstage Interface/E38*%
X45400000Y37000000D03*
%TO.N,/Headstage Interface/E40*%
X45000000Y37500000D03*
%TO.N,/Headstage Interface/E60*%
X45000000Y43000000D03*
%TO.N,/Headstage Interface/E24*%
X45400000Y33000000D03*
%TO.N,/Headstage Interface/E19*%
X55000000Y31450000D03*
%TO.N,/Headstage Interface/E25*%
X54600000Y32950000D03*
%TO.N,/Headstage Interface/E5*%
X54600000Y27450000D03*
%TO.N,/Headstage Interface/E45*%
X55000000Y38500000D03*
%TO.N,/Headstage Interface/E29*%
X54600000Y33950000D03*
%TO.N,/Headstage Interface/E41*%
X55000000Y37500000D03*
%TO.N,/Headstage Interface/E9*%
X54600000Y28450000D03*
%TO.N,/Headstage Interface/E57*%
X55000000Y42000000D03*
%TO.N,/Headstage Interface/E59*%
X54600000Y42500000D03*
%TO.N,/Headstage Interface/E39*%
X54600000Y37000000D03*
%TO.N,/Headstage Interface/E55*%
X54600000Y41500000D03*
%TO.N,/Headstage Interface/E21*%
X54600000Y31950000D03*
%TO.N,/Headstage Interface/E15*%
X55000000Y29950000D03*
%TO.N,/Headstage Interface/E47*%
X54600000Y39000000D03*
%TO.N,/Headstage Interface/E7*%
X55000000Y27950000D03*
%TO.N,/Headstage Interface/E35*%
X54600000Y36000000D03*
%TO.N,/Headstage Interface/E49*%
X55000000Y40000000D03*
%TO.N,/Headstage Interface/E11*%
X55000000Y28950000D03*
%TO.N,/Headstage Interface/E17*%
X54600000Y30950000D03*
%TO.N,/Headstage Interface/E3*%
X55000000Y26950000D03*
%TO.N,/Headstage Interface/E33*%
X55000000Y35500000D03*
%TO.N,/Headstage Interface/E61*%
X55000000Y43000000D03*
%TO.N,/Headstage Interface/E37*%
X55000000Y36500000D03*
%TO.N,/Headstage Interface/E31*%
X55000000Y34450000D03*
%TO.N,/Headstage Interface/E27*%
X55000000Y33450000D03*
%TO.N,/Headstage Interface/E43*%
X54600000Y38000000D03*
%TO.N,/Headstage Interface/E23*%
X55000000Y32450000D03*
%TO.N,/Headstage Interface/E63*%
X54600000Y43500000D03*
%TO.N,/Headstage Interface/E53*%
X55000000Y41000000D03*
%TO.N,/Headstage Interface/E51*%
X54600000Y40500000D03*
%TO.N,/Headstage Interface/E1*%
X54600000Y26450000D03*
%TO.N,/Headstage Interface/E13*%
X54600000Y29450000D03*
%TD*%
D16*
%TO.N,/Headstage Interface/K_{0}*%
X90900000Y8900000D02*
X97800000Y15800000D01*
X81800000Y8900000D02*
X80300000Y10400000D01*
X56900000Y58400000D02*
X47700000Y49200000D01*
X47700000Y49200000D02*
X47700000Y42200000D01*
X94500000Y58400000D02*
X56900000Y58400000D01*
X84700000Y8900000D02*
X90900000Y8900000D01*
X84700000Y8900000D02*
X81800000Y8900000D01*
X97800000Y15800000D02*
X97800000Y55100000D01*
X97800000Y55100000D02*
X94500000Y58400000D01*
%TO.N,/Headstage Interface/E_{stim}*%
X48500000Y27700000D02*
X48500000Y22320000D01*
X48500000Y22320000D02*
X68820000Y2000000D01*
X68820000Y2000000D02*
X80000000Y2000000D01*
%TO.N,/Headstage Interface/K_{1}*%
X96900000Y16700000D02*
X90300000Y10100000D01*
X94200000Y57500000D02*
X96900000Y54800000D01*
X80200000Y16200000D02*
X87800000Y16200000D01*
X96900000Y54800000D02*
X96900000Y16700000D01*
X48500000Y48600000D02*
X57400000Y57500000D01*
X48500000Y42400000D02*
X48500000Y48600000D01*
X87800000Y16200000D02*
X89400000Y14600000D01*
X57400000Y57500000D02*
X94200000Y57500000D01*
X89400000Y14600000D02*
X89400000Y14000000D01*
%TO.N,/Headstage Interface/A*%
X82500000Y15000000D02*
X82500000Y12300000D01*
X96100000Y17900000D02*
X90300000Y12100000D01*
X93900000Y56600000D02*
X96100000Y54400000D01*
X51500000Y47700000D02*
X60400000Y56600000D01*
X51500000Y42300000D02*
X51500000Y47700000D01*
X96100000Y54400000D02*
X96100000Y17900000D01*
X80800000Y12300000D02*
X80300000Y11800000D01*
X60400000Y56600000D02*
X93900000Y56600000D01*
X90300000Y12100000D02*
X90100000Y12300000D01*
X90100000Y12300000D02*
X82500000Y12300000D01*
X82500000Y12300000D02*
X80800000Y12300000D01*
%TD*%
%TA.AperFunction,Conductor*%
%TO.N,GND*%
G36*
X88654053Y11877826D02*
G01*
X88675727Y11825500D01*
X88654053Y11773174D01*
X88642839Y11763971D01*
X88521584Y11682952D01*
X88521583Y11682950D01*
X88417050Y11578417D01*
X88417048Y11578416D01*
X88334915Y11455495D01*
X88278343Y11318918D01*
X88278340Y11318908D01*
X88264666Y11250161D01*
X88249500Y11173918D01*
X88249500Y11026082D01*
X88250523Y11020941D01*
X88278340Y10881093D01*
X88278343Y10881083D01*
X88334915Y10744506D01*
X88334916Y10744505D01*
X88417049Y10621584D01*
X88521584Y10517049D01*
X88644505Y10434916D01*
X88781087Y10378342D01*
X88926082Y10349500D01*
X88926084Y10349500D01*
X89073916Y10349500D01*
X89073918Y10349500D01*
X89184477Y10371492D01*
X89240026Y10360443D01*
X89271492Y10313351D01*
X89271492Y10284477D01*
X89249500Y10173917D01*
X89249500Y10026084D01*
X89278340Y9881093D01*
X89278343Y9881083D01*
X89334915Y9744506D01*
X89417048Y9621585D01*
X89521584Y9517049D01*
X89642839Y9436029D01*
X89674305Y9388937D01*
X89663256Y9333388D01*
X89616164Y9301922D01*
X89601727Y9300500D01*
X84927141Y9300500D01*
X84890140Y9310415D01*
X84873890Y9319798D01*
X84873882Y9319801D01*
X84759311Y9350500D01*
X84759309Y9350500D01*
X84640691Y9350500D01*
X84640689Y9350500D01*
X84526117Y9319801D01*
X84526109Y9319798D01*
X84509860Y9310415D01*
X84472859Y9300500D01*
X81996545Y9300500D01*
X81944219Y9322174D01*
X81276835Y9989558D01*
X80545913Y10720480D01*
X80545910Y10720482D01*
X80545909Y10720483D01*
X80506768Y10743081D01*
X80484328Y10765524D01*
X80483473Y10764867D01*
X80480518Y10768718D01*
X80368716Y10880520D01*
X80308088Y10915523D01*
X80231784Y10959577D01*
X80231781Y10959578D01*
X80231779Y10959579D01*
X80115877Y10990635D01*
X80070944Y11025113D01*
X80063552Y11081266D01*
X80098030Y11126199D01*
X80112158Y11132490D01*
X80184090Y11155861D01*
X80260909Y11211674D01*
X80498430Y11449198D01*
X80513750Y11460952D01*
X80545913Y11479520D01*
X80944218Y11877827D01*
X80996544Y11899500D01*
X82447273Y11899500D01*
X88601727Y11899500D01*
X88654053Y11877826D01*
G37*
%TD.AperFunction*%
%TA.AperFunction,Conductor*%
G36*
X97002231Y59499366D02*
G01*
X97296821Y59481546D01*
X97305673Y59480472D01*
X97593784Y59427673D01*
X97602435Y59425540D01*
X97882062Y59338405D01*
X97890401Y59335243D01*
X98157497Y59215033D01*
X98165409Y59210880D01*
X98416046Y59059364D01*
X98423400Y59054288D01*
X98653951Y58873664D01*
X98660640Y58867738D01*
X98867737Y58660641D01*
X98873663Y58653952D01*
X99054287Y58423401D01*
X99059363Y58416047D01*
X99210879Y58165410D01*
X99215032Y58157498D01*
X99335239Y57890410D01*
X99338407Y57882054D01*
X99425536Y57602448D01*
X99427675Y57593772D01*
X99480469Y57305683D01*
X99481546Y57296812D01*
X99499365Y57002232D01*
X99499500Y56997764D01*
X99499500Y3002237D01*
X99499365Y2997769D01*
X99481546Y2703189D01*
X99480469Y2694318D01*
X99427675Y2406229D01*
X99425536Y2397553D01*
X99338407Y2117947D01*
X99335239Y2109591D01*
X99215032Y1842503D01*
X99210879Y1834591D01*
X99059363Y1583954D01*
X99054287Y1576600D01*
X98873663Y1346049D01*
X98867737Y1339360D01*
X98660640Y1132263D01*
X98653951Y1126337D01*
X98423400Y945713D01*
X98416046Y940637D01*
X98165409Y789121D01*
X98157497Y784968D01*
X97890409Y664761D01*
X97882053Y661593D01*
X97602447Y574464D01*
X97593771Y572325D01*
X97305682Y519531D01*
X97296811Y518454D01*
X97002232Y500635D01*
X96997764Y500500D01*
X91220633Y500500D01*
X91168307Y522174D01*
X91146633Y574500D01*
X91168307Y626826D01*
X91175586Y633209D01*
X91189367Y643784D01*
X91202080Y656498D01*
X90636184Y1222395D01*
X90637463Y1223249D01*
X90776751Y1362537D01*
X90777605Y1363817D01*
X91343502Y797920D01*
X91356217Y810634D01*
X91356218Y810636D01*
X91499854Y997826D01*
X91499858Y997832D01*
X91617835Y1202173D01*
X91617838Y1202181D01*
X91708129Y1420165D01*
X91708133Y1420176D01*
X91769202Y1648091D01*
X91800000Y1882024D01*
X91800000Y2117977D01*
X91769202Y2351910D01*
X91708133Y2579825D01*
X91708129Y2579836D01*
X91617838Y2797820D01*
X91617835Y2797828D01*
X91499858Y3002169D01*
X91499854Y3002175D01*
X91356214Y3189370D01*
X91343502Y3202082D01*
X90777604Y2636185D01*
X90776751Y2637463D01*
X90637463Y2776751D01*
X90636183Y2777606D01*
X91202081Y3343503D01*
X91189369Y3356215D01*
X91002174Y3499855D01*
X91002168Y3499859D01*
X90797827Y3617836D01*
X90797819Y3617839D01*
X90579835Y3708130D01*
X90579824Y3708134D01*
X90351908Y3769203D01*
X90351909Y3769203D01*
X90117976Y3800000D01*
X89882024Y3800000D01*
X89648090Y3769203D01*
X89420175Y3708134D01*
X89420164Y3708130D01*
X89202180Y3617839D01*
X89202172Y3617836D01*
X88997831Y3499859D01*
X88997825Y3499855D01*
X88810641Y3356224D01*
X88810635Y3356219D01*
X88797918Y3343503D01*
X89363815Y2777606D01*
X89362537Y2776751D01*
X89223249Y2637463D01*
X89222394Y2636185D01*
X88656497Y3202082D01*
X88643781Y3189365D01*
X88643776Y3189359D01*
X88500145Y3002175D01*
X88500141Y3002169D01*
X88382164Y2797828D01*
X88382161Y2797820D01*
X88291870Y2579836D01*
X88291866Y2579825D01*
X88230797Y2351910D01*
X88200000Y2117977D01*
X88200000Y1882024D01*
X88230797Y1648091D01*
X88291866Y1420176D01*
X88291870Y1420165D01*
X88382161Y1202181D01*
X88382164Y1202173D01*
X88500141Y997832D01*
X88500145Y997826D01*
X88643785Y810631D01*
X88656497Y797919D01*
X89222394Y1363817D01*
X89223249Y1362537D01*
X89362537Y1223249D01*
X89363815Y1222395D01*
X88797918Y656498D01*
X88810631Y643785D01*
X88824416Y633207D01*
X88852734Y584158D01*
X88838074Y529451D01*
X88789025Y501133D01*
X88779367Y500500D01*
X81057188Y500500D01*
X81004862Y522174D01*
X80983188Y574500D01*
X81004862Y626826D01*
X81012140Y633208D01*
X81123618Y718748D01*
X81123619Y718750D01*
X81123624Y718753D01*
X81281247Y876376D01*
X81416948Y1053226D01*
X81528405Y1246274D01*
X81613710Y1452219D01*
X81671404Y1667537D01*
X81700500Y1888543D01*
X81700500Y2111457D01*
X81671404Y2332463D01*
X81613710Y2547781D01*
X81528405Y2753726D01*
X81416948Y2946774D01*
X81405594Y2961571D01*
X81281252Y3123619D01*
X81123618Y3281253D01*
X80946776Y3416947D01*
X80946770Y3416951D01*
X80753725Y3528406D01*
X80753717Y3528409D01*
X80547782Y3613710D01*
X80332461Y3671405D01*
X80169647Y3692840D01*
X80111457Y3700500D01*
X79888543Y3700500D01*
X79837122Y3693731D01*
X79667538Y3671405D01*
X79452217Y3613710D01*
X79246282Y3528409D01*
X79246274Y3528406D01*
X79053229Y3416951D01*
X79053223Y3416947D01*
X78876381Y3281253D01*
X78718747Y3123619D01*
X78583053Y2946777D01*
X78583049Y2946771D01*
X78471594Y2753726D01*
X78471591Y2753718D01*
X78386291Y2547785D01*
X78386287Y2547775D01*
X78361523Y2455348D01*
X78327044Y2410414D01*
X78290044Y2400500D01*
X69016544Y2400500D01*
X68964218Y2422174D01*
X55174560Y16211833D01*
X55127081Y16259312D01*
X79749500Y16259312D01*
X79749500Y16140689D01*
X79780199Y16026118D01*
X79780201Y16026113D01*
X79839508Y15923391D01*
X79839509Y15923390D01*
X79839511Y15923387D01*
X79923387Y15839511D01*
X79923389Y15839510D01*
X79923390Y15839509D01*
X80026112Y15780202D01*
X80026114Y15780201D01*
X80026115Y15780201D01*
X80026117Y15780200D01*
X80083402Y15764851D01*
X80140688Y15749501D01*
X80140689Y15749500D01*
X80140691Y15749500D01*
X80259311Y15749500D01*
X80259311Y15749501D01*
X80373886Y15780201D01*
X80373888Y15780203D01*
X80373890Y15780203D01*
X80390140Y15789585D01*
X80427141Y15799500D01*
X84283749Y15799500D01*
X84336075Y15777826D01*
X84357749Y15725500D01*
X84342452Y15680445D01*
X84339509Y15676611D01*
X84280201Y15573888D01*
X84280199Y15573883D01*
X84249500Y15459312D01*
X84249500Y15340689D01*
X84280199Y15226118D01*
X84280201Y15226113D01*
X84339508Y15123391D01*
X84339509Y15123390D01*
X84339511Y15123387D01*
X84423387Y15039511D01*
X84526114Y14980201D01*
X84526115Y14980201D01*
X84526117Y14980200D01*
X84583402Y14964851D01*
X84640688Y14949501D01*
X84640689Y14949500D01*
X84640691Y14949500D01*
X84759311Y14949500D01*
X84759311Y14949501D01*
X84873886Y14980201D01*
X84976613Y15039511D01*
X85060489Y15123387D01*
X85119799Y15226114D01*
X85150499Y15340689D01*
X85150500Y15340689D01*
X85150500Y15459311D01*
X85150499Y15459312D01*
X85119800Y15573883D01*
X85119798Y15573888D01*
X85076142Y15649501D01*
X85060489Y15676613D01*
X85060486Y15676616D01*
X85057548Y15680445D01*
X85042883Y15735151D01*
X85071196Y15784203D01*
X85116251Y15799500D01*
X87603455Y15799500D01*
X87655781Y15777826D01*
X88977826Y14455782D01*
X88999500Y14403456D01*
X88999500Y14227142D01*
X88989586Y14190143D01*
X88980203Y14173892D01*
X88980199Y14173883D01*
X88949500Y14059312D01*
X88949500Y13940689D01*
X88980199Y13826118D01*
X88980201Y13826113D01*
X89039508Y13723391D01*
X89039509Y13723390D01*
X89039511Y13723387D01*
X89123387Y13639511D01*
X89226114Y13580201D01*
X89226115Y13580201D01*
X89226117Y13580200D01*
X89283402Y13564851D01*
X89340688Y13549501D01*
X89340689Y13549500D01*
X89340691Y13549500D01*
X89459311Y13549500D01*
X89459311Y13549501D01*
X89573886Y13580201D01*
X89676613Y13639511D01*
X89760489Y13723387D01*
X89819799Y13826114D01*
X89850499Y13940689D01*
X89850500Y13940689D01*
X89850500Y14059311D01*
X89850499Y14059312D01*
X89819800Y14173883D01*
X89819796Y14173892D01*
X89810414Y14190143D01*
X89800500Y14227142D01*
X89800500Y14541302D01*
X89800501Y14541315D01*
X89800501Y14652729D01*
X89800500Y14652730D01*
X89773208Y14754584D01*
X89773205Y14754591D01*
X89755770Y14784788D01*
X89755769Y14784790D01*
X89720480Y14845913D01*
X89643334Y14923059D01*
X89643323Y14923069D01*
X88885947Y15680445D01*
X88045913Y16520480D01*
X88045910Y16520482D01*
X88045909Y16520483D01*
X87954592Y16573205D01*
X87954588Y16573207D01*
X87852727Y16600500D01*
X87852726Y16600500D01*
X80427141Y16600500D01*
X80390140Y16610415D01*
X80373890Y16619798D01*
X80373882Y16619801D01*
X80259311Y16650500D01*
X80259309Y16650500D01*
X80140691Y16650500D01*
X80140689Y16650500D01*
X80026117Y16619801D01*
X80026112Y16619799D01*
X79923390Y16560492D01*
X79839508Y16476610D01*
X79780201Y16373888D01*
X79780199Y16373883D01*
X79749500Y16259312D01*
X55127081Y16259312D01*
X52391264Y18995129D01*
X81719500Y18995129D01*
X81719500Y18874872D01*
X81742959Y18756931D01*
X81742961Y18756924D01*
X81788981Y18645821D01*
X81788982Y18645820D01*
X81855794Y18545829D01*
X81940829Y18460794D01*
X82040820Y18393982D01*
X82151924Y18347961D01*
X82269871Y18324500D01*
X82269872Y18324500D01*
X82390128Y18324500D01*
X82390129Y18324500D01*
X82508076Y18347961D01*
X82619180Y18393982D01*
X82719171Y18460794D01*
X82804206Y18545829D01*
X82871018Y18645820D01*
X82917039Y18756924D01*
X82940500Y18874871D01*
X82940500Y18995129D01*
X82917039Y19113076D01*
X82871018Y19224180D01*
X82804206Y19324171D01*
X82719171Y19409206D01*
X82619180Y19476018D01*
X82619181Y19476018D01*
X82619179Y19476019D01*
X82508076Y19522039D01*
X82508069Y19522041D01*
X82419215Y19539715D01*
X82390129Y19545500D01*
X82269871Y19545500D01*
X82246538Y19540859D01*
X82151930Y19522041D01*
X82151923Y19522039D01*
X82040820Y19476019D01*
X81940832Y19409209D01*
X81855791Y19324168D01*
X81788981Y19224180D01*
X81742961Y19113077D01*
X81742959Y19113070D01*
X81719500Y18995129D01*
X52391264Y18995129D01*
X48922174Y22464219D01*
X48900500Y22516545D01*
X48900500Y22959312D01*
X73449500Y22959312D01*
X73449500Y22840689D01*
X73480199Y22726118D01*
X73480201Y22726113D01*
X73539508Y22623391D01*
X73539509Y22623390D01*
X73539511Y22623387D01*
X73623387Y22539511D01*
X73726114Y22480201D01*
X73726115Y22480201D01*
X73726117Y22480200D01*
X73783402Y22464851D01*
X73840688Y22449501D01*
X73840689Y22449500D01*
X73840691Y22449500D01*
X73959311Y22449500D01*
X73959311Y22449501D01*
X74073886Y22480201D01*
X74176613Y22539511D01*
X74260489Y22623387D01*
X74319799Y22726114D01*
X74350499Y22840689D01*
X74350500Y22840689D01*
X74350500Y22959311D01*
X74350499Y22959312D01*
X74319800Y23073883D01*
X74319798Y23073888D01*
X74260491Y23176610D01*
X74260490Y23176611D01*
X74260489Y23176613D01*
X74176613Y23260489D01*
X74176610Y23260491D01*
X74176609Y23260492D01*
X74073887Y23319799D01*
X74073882Y23319801D01*
X73959311Y23350500D01*
X73959309Y23350500D01*
X73840691Y23350500D01*
X73840689Y23350500D01*
X73726117Y23319801D01*
X73726112Y23319799D01*
X73623390Y23260492D01*
X73539508Y23176610D01*
X73480201Y23073888D01*
X73480199Y23073883D01*
X73449500Y22959312D01*
X48900500Y22959312D01*
X48900500Y25872860D01*
X48910414Y25909860D01*
X48919799Y25926114D01*
X48950499Y26040689D01*
X48950500Y26040689D01*
X48950500Y26159311D01*
X48950499Y26159312D01*
X48919800Y26273883D01*
X48919796Y26273892D01*
X48910414Y26290143D01*
X48900500Y26327142D01*
X48900500Y27472860D01*
X48904690Y27497408D01*
X48906971Y27503898D01*
X48919799Y27526114D01*
X48928694Y27559312D01*
X51749500Y27559312D01*
X51749500Y27440689D01*
X51780199Y27326118D01*
X51780201Y27326113D01*
X51839508Y27223391D01*
X51839509Y27223390D01*
X51839511Y27223387D01*
X51923387Y27139511D01*
X51923389Y27139510D01*
X51923390Y27139509D01*
X52009992Y27089509D01*
X52026114Y27080201D01*
X52026115Y27080201D01*
X52026117Y27080200D01*
X52058668Y27071478D01*
X52140688Y27049501D01*
X52140689Y27049500D01*
X52140691Y27049500D01*
X52259311Y27049500D01*
X52259311Y27049501D01*
X52373886Y27080201D01*
X52476613Y27139511D01*
X52560489Y27223387D01*
X52619799Y27326114D01*
X52650499Y27440689D01*
X52650500Y27440689D01*
X52650500Y27559311D01*
X52650499Y27559312D01*
X52619800Y27673883D01*
X52619798Y27673888D01*
X52560491Y27776610D01*
X52560490Y27776611D01*
X52560489Y27776613D01*
X52476613Y27860489D01*
X52476610Y27860491D01*
X52476609Y27860492D01*
X52373887Y27919799D01*
X52373882Y27919801D01*
X52259311Y27950500D01*
X52259309Y27950500D01*
X52140691Y27950500D01*
X52140689Y27950500D01*
X52026117Y27919801D01*
X52026112Y27919799D01*
X51923390Y27860492D01*
X51839508Y27776610D01*
X51780201Y27673888D01*
X51780199Y27673883D01*
X51749500Y27559312D01*
X48928694Y27559312D01*
X48950500Y27640691D01*
X48950500Y27759309D01*
X48950500Y27759311D01*
X48950499Y27759312D01*
X48919800Y27873883D01*
X48919798Y27873888D01*
X48860491Y27976610D01*
X48860490Y27976611D01*
X48860489Y27976613D01*
X48776613Y28060489D01*
X48776610Y28060491D01*
X48776609Y28060492D01*
X48673887Y28119799D01*
X48673882Y28119801D01*
X48559311Y28150500D01*
X48559309Y28150500D01*
X48440691Y28150500D01*
X48440689Y28150500D01*
X48326117Y28119801D01*
X48326112Y28119799D01*
X48223390Y28060492D01*
X48139508Y27976610D01*
X48080201Y27873888D01*
X48080199Y27873883D01*
X48049500Y27759312D01*
X48049500Y27640689D01*
X48080199Y27526118D01*
X48080200Y27526116D01*
X48080201Y27526114D01*
X48089585Y27509860D01*
X48099500Y27472860D01*
X48099500Y26327142D01*
X48089586Y26290143D01*
X48080203Y26273892D01*
X48080199Y26273883D01*
X48049500Y26159312D01*
X48049500Y26040689D01*
X48080199Y25926118D01*
X48080200Y25926116D01*
X48080201Y25926114D01*
X48089585Y25909860D01*
X48099500Y25872860D01*
X48099500Y22372727D01*
X48099500Y22267273D01*
X48126793Y22165412D01*
X48126795Y22165408D01*
X48179517Y22074091D01*
X48179518Y22074090D01*
X48179520Y22074087D01*
X58354108Y11899500D01*
X68496931Y1756677D01*
X68496936Y1756671D01*
X68499520Y1754087D01*
X68574087Y1679520D01*
X68665413Y1626793D01*
X68665414Y1626793D01*
X68665416Y1626792D01*
X68716343Y1613146D01*
X68767270Y1599500D01*
X68767271Y1599499D01*
X68767273Y1599499D01*
X68877257Y1599499D01*
X68877273Y1599500D01*
X78290044Y1599500D01*
X78342370Y1577826D01*
X78361523Y1544652D01*
X78386287Y1452226D01*
X78386291Y1452216D01*
X78471591Y1246283D01*
X78471594Y1246275D01*
X78583049Y1053230D01*
X78583053Y1053224D01*
X78718747Y876382D01*
X78876381Y718748D01*
X78987860Y633208D01*
X79016179Y584159D01*
X79001520Y529452D01*
X78952471Y501133D01*
X78942812Y500500D01*
X3002236Y500500D01*
X2997768Y500635D01*
X2703188Y518454D01*
X2694317Y519531D01*
X2406228Y572325D01*
X2397552Y574464D01*
X2397436Y574500D01*
X2117946Y661593D01*
X2109590Y664761D01*
X1842502Y784968D01*
X1834590Y789121D01*
X1583953Y940637D01*
X1576599Y945713D01*
X1346048Y1126337D01*
X1339359Y1132263D01*
X1132262Y1339360D01*
X1126336Y1346049D01*
X945712Y1576600D01*
X940636Y1583954D01*
X789120Y1834591D01*
X784967Y1842503D01*
X764245Y1888545D01*
X664757Y2109599D01*
X661595Y2117938D01*
X574460Y2397565D01*
X572327Y2406216D01*
X519528Y2694327D01*
X518454Y2703179D01*
X500635Y2997769D01*
X500500Y3002237D01*
X500500Y13359312D01*
X11249500Y13359312D01*
X11249500Y13240689D01*
X11280200Y13126115D01*
X11302783Y13086999D01*
X11310175Y13030846D01*
X11302783Y13013001D01*
X11280200Y12973886D01*
X11249500Y12859312D01*
X11249500Y12740689D01*
X11280199Y12626118D01*
X11280201Y12626113D01*
X11339508Y12523391D01*
X11339509Y12523390D01*
X11339511Y12523387D01*
X11423387Y12439511D01*
X11423389Y12439510D01*
X11423390Y12439509D01*
X11492173Y12399797D01*
X11526114Y12380201D01*
X11526115Y12380201D01*
X11526117Y12380200D01*
X11583402Y12364851D01*
X11640688Y12349501D01*
X11640689Y12349500D01*
X11640691Y12349500D01*
X11759311Y12349500D01*
X11759311Y12349501D01*
X11873886Y12380201D01*
X11976613Y12439511D01*
X12060489Y12523387D01*
X12119799Y12626114D01*
X12150499Y12740689D01*
X12150500Y12740689D01*
X12150500Y12859311D01*
X12150499Y12859312D01*
X12119800Y12973883D01*
X12119797Y12973891D01*
X12097217Y13012999D01*
X12089823Y13069152D01*
X12097217Y13087001D01*
X12119797Y13126110D01*
X12119800Y13126118D01*
X12150499Y13240689D01*
X12150500Y13240689D01*
X12150500Y13359311D01*
X12150499Y13359312D01*
X12119800Y13473883D01*
X12119798Y13473888D01*
X12060491Y13576610D01*
X12060490Y13576611D01*
X12060489Y13576613D01*
X11976613Y13660489D01*
X11976610Y13660491D01*
X11976609Y13660492D01*
X11873887Y13719799D01*
X11873882Y13719801D01*
X11759311Y13750500D01*
X11759309Y13750500D01*
X11640691Y13750500D01*
X11640689Y13750500D01*
X11526117Y13719801D01*
X11526112Y13719799D01*
X11423390Y13660492D01*
X11339508Y13576610D01*
X11280201Y13473888D01*
X11280199Y13473883D01*
X11249500Y13359312D01*
X500500Y13359312D01*
X500500Y16059312D01*
X12349500Y16059312D01*
X12349500Y15940689D01*
X12380199Y15826118D01*
X12380201Y15826113D01*
X12439508Y15723391D01*
X12439509Y15723390D01*
X12439511Y15723387D01*
X12523387Y15639511D01*
X12626114Y15580201D01*
X12626115Y15580201D01*
X12626117Y15580200D01*
X12649693Y15573883D01*
X12740688Y15549501D01*
X12740689Y15549500D01*
X12740691Y15549500D01*
X12859311Y15549500D01*
X12859311Y15549501D01*
X12973886Y15580201D01*
X13076613Y15639511D01*
X13160489Y15723387D01*
X13219799Y15826114D01*
X13250499Y15940689D01*
X13250500Y15940689D01*
X13250500Y16059311D01*
X13250499Y16059312D01*
X13227538Y16145006D01*
X13223705Y16159312D01*
X16649500Y16159312D01*
X16649500Y16040689D01*
X16680199Y15926118D01*
X16680201Y15926113D01*
X16739508Y15823391D01*
X16739509Y15823390D01*
X16739511Y15823387D01*
X16823387Y15739511D01*
X16823389Y15739510D01*
X16823390Y15739509D01*
X16851307Y15723391D01*
X16926114Y15680201D01*
X16926115Y15680201D01*
X16926117Y15680200D01*
X16983402Y15664851D01*
X17040688Y15649501D01*
X17040689Y15649500D01*
X17040691Y15649500D01*
X17159311Y15649500D01*
X17159311Y15649501D01*
X17273886Y15680201D01*
X17376613Y15739511D01*
X17460489Y15823387D01*
X17519799Y15926114D01*
X17550499Y16040689D01*
X17550500Y16040689D01*
X17550500Y16159311D01*
X17550499Y16159312D01*
X17546593Y16173888D01*
X17519799Y16273886D01*
X17518225Y16276613D01*
X17460491Y16376610D01*
X17460490Y16376611D01*
X17460489Y16376613D01*
X17376613Y16460489D01*
X17376610Y16460491D01*
X17376609Y16460492D01*
X17273887Y16519799D01*
X17273882Y16519801D01*
X17159311Y16550500D01*
X17159309Y16550500D01*
X17040691Y16550500D01*
X17040689Y16550500D01*
X16926117Y16519801D01*
X16926112Y16519799D01*
X16823390Y16460492D01*
X16739508Y16376610D01*
X16680201Y16273888D01*
X16680199Y16273883D01*
X16649500Y16159312D01*
X13223705Y16159312D01*
X13219800Y16173883D01*
X13219798Y16173888D01*
X13160491Y16276610D01*
X13160490Y16276611D01*
X13160489Y16276613D01*
X13076613Y16360489D01*
X13076610Y16360491D01*
X13076609Y16360492D01*
X12973887Y16419799D01*
X12973882Y16419801D01*
X12859311Y16450500D01*
X12859309Y16450500D01*
X12740691Y16450500D01*
X12740689Y16450500D01*
X12626117Y16419801D01*
X12626112Y16419799D01*
X12523390Y16360492D01*
X12439508Y16276610D01*
X12380201Y16173888D01*
X12380199Y16173883D01*
X12349500Y16059312D01*
X500500Y16059312D01*
X500500Y17459312D01*
X13749500Y17459312D01*
X13749500Y17340689D01*
X13780199Y17226118D01*
X13780201Y17226113D01*
X13839508Y17123391D01*
X13839509Y17123390D01*
X13839511Y17123387D01*
X13923387Y17039511D01*
X14026114Y16980201D01*
X14026115Y16980201D01*
X14026117Y16980200D01*
X14083402Y16964851D01*
X14140688Y16949501D01*
X14140689Y16949500D01*
X14140691Y16949500D01*
X14259311Y16949500D01*
X14259311Y16949501D01*
X14373886Y16980201D01*
X14476613Y17039511D01*
X14560489Y17123387D01*
X14619799Y17226114D01*
X14650499Y17340689D01*
X14650500Y17340689D01*
X14650500Y17459311D01*
X14650499Y17459312D01*
X14627538Y17545006D01*
X14623705Y17559312D01*
X16649500Y17559312D01*
X16649500Y17440689D01*
X16680199Y17326118D01*
X16680201Y17326113D01*
X16739508Y17223391D01*
X16739509Y17223390D01*
X16739511Y17223387D01*
X16823387Y17139511D01*
X16926114Y17080201D01*
X16926115Y17080201D01*
X16926117Y17080200D01*
X16983402Y17064851D01*
X17040688Y17049501D01*
X17040689Y17049500D01*
X17040691Y17049500D01*
X17159311Y17049500D01*
X17159311Y17049501D01*
X17273886Y17080201D01*
X17376613Y17139511D01*
X17460489Y17223387D01*
X17519799Y17326114D01*
X17550499Y17440689D01*
X17550500Y17440689D01*
X17550500Y17559311D01*
X17550499Y17559312D01*
X17546593Y17573888D01*
X17519799Y17673886D01*
X17518225Y17676613D01*
X17460491Y17776610D01*
X17460490Y17776611D01*
X17460489Y17776613D01*
X17376613Y17860489D01*
X17376610Y17860491D01*
X17376609Y17860492D01*
X17273887Y17919799D01*
X17273882Y17919801D01*
X17159311Y17950500D01*
X17159309Y17950500D01*
X17040691Y17950500D01*
X17040689Y17950500D01*
X16926117Y17919801D01*
X16926112Y17919799D01*
X16823390Y17860492D01*
X16739508Y17776610D01*
X16680201Y17673888D01*
X16680199Y17673883D01*
X16649500Y17559312D01*
X14623705Y17559312D01*
X14619800Y17573883D01*
X14619798Y17573888D01*
X14560491Y17676610D01*
X14560490Y17676611D01*
X14560489Y17676613D01*
X14476613Y17760489D01*
X14476610Y17760491D01*
X14476609Y17760492D01*
X14373887Y17819799D01*
X14373882Y17819801D01*
X14259311Y17850500D01*
X14259309Y17850500D01*
X14140691Y17850500D01*
X14140689Y17850500D01*
X14026117Y17819801D01*
X14026112Y17819799D01*
X13923390Y17760492D01*
X13839508Y17676610D01*
X13780201Y17573888D01*
X13780199Y17573883D01*
X13749500Y17459312D01*
X500500Y17459312D01*
X500500Y18995129D01*
X11719500Y18995129D01*
X11719500Y18874872D01*
X11742959Y18756931D01*
X11742961Y18756924D01*
X11788981Y18645821D01*
X11788982Y18645820D01*
X11855794Y18545829D01*
X11940829Y18460794D01*
X12040820Y18393982D01*
X12151924Y18347961D01*
X12269871Y18324500D01*
X12269872Y18324500D01*
X12390128Y18324500D01*
X12390129Y18324500D01*
X12508076Y18347961D01*
X12619180Y18393982D01*
X12719171Y18460794D01*
X12804206Y18545829D01*
X12871018Y18645820D01*
X12897317Y18709312D01*
X14999500Y18709312D01*
X14999500Y18590689D01*
X15030199Y18476118D01*
X15030201Y18476113D01*
X15089508Y18373391D01*
X15089509Y18373390D01*
X15089511Y18373387D01*
X15173387Y18289511D01*
X15276114Y18230201D01*
X15276115Y18230201D01*
X15276117Y18230200D01*
X15333402Y18214851D01*
X15390688Y18199501D01*
X15390689Y18199500D01*
X15390691Y18199500D01*
X15509311Y18199500D01*
X15509311Y18199501D01*
X15623886Y18230201D01*
X15726613Y18289511D01*
X15810489Y18373387D01*
X15869799Y18476114D01*
X15900499Y18590689D01*
X15900500Y18590689D01*
X15900500Y18709311D01*
X15900499Y18709312D01*
X15887741Y18756924D01*
X15869799Y18823886D01*
X15810489Y18926613D01*
X15726613Y19010489D01*
X15726610Y19010491D01*
X15726609Y19010492D01*
X15623887Y19069799D01*
X15623882Y19069801D01*
X15509311Y19100500D01*
X15509309Y19100500D01*
X15390691Y19100500D01*
X15390689Y19100500D01*
X15276117Y19069801D01*
X15276112Y19069799D01*
X15173390Y19010492D01*
X15089508Y18926610D01*
X15030201Y18823888D01*
X15030199Y18823883D01*
X14999500Y18709312D01*
X12897317Y18709312D01*
X12917039Y18756924D01*
X12940500Y18874871D01*
X12940500Y18995129D01*
X12917039Y19113076D01*
X12871018Y19224180D01*
X12804206Y19324171D01*
X12719171Y19409206D01*
X12619180Y19476018D01*
X12619181Y19476018D01*
X12619179Y19476019D01*
X12508076Y19522039D01*
X12508069Y19522041D01*
X12419215Y19539715D01*
X12390129Y19545500D01*
X12269871Y19545500D01*
X12246538Y19540859D01*
X12151930Y19522041D01*
X12151923Y19522039D01*
X12040820Y19476019D01*
X11940832Y19409209D01*
X11855791Y19324168D01*
X11788981Y19224180D01*
X11742961Y19113077D01*
X11742959Y19113070D01*
X11719500Y18995129D01*
X500500Y18995129D01*
X500500Y20959312D01*
X9649500Y20959312D01*
X9649500Y20840689D01*
X9680199Y20726118D01*
X9680201Y20726113D01*
X9739508Y20623391D01*
X9739509Y20623390D01*
X9739511Y20623387D01*
X9823387Y20539511D01*
X9926114Y20480201D01*
X9926115Y20480201D01*
X9926117Y20480200D01*
X9983402Y20464851D01*
X10040688Y20449501D01*
X10040689Y20449500D01*
X10040691Y20449500D01*
X10159311Y20449500D01*
X10159311Y20449501D01*
X10273886Y20480201D01*
X10347690Y20522812D01*
X17413000Y20522812D01*
X17413000Y20404189D01*
X17443699Y20289618D01*
X17443701Y20289613D01*
X17503008Y20186891D01*
X17503009Y20186890D01*
X17503011Y20186887D01*
X17586887Y20103011D01*
X17689614Y20043701D01*
X17689615Y20043701D01*
X17689617Y20043700D01*
X17746902Y20028351D01*
X17804188Y20013001D01*
X17804189Y20013000D01*
X17804191Y20013000D01*
X17922811Y20013000D01*
X17922811Y20013001D01*
X18037386Y20043701D01*
X18140113Y20103011D01*
X18223989Y20186887D01*
X18283299Y20289614D01*
X18313999Y20404189D01*
X18314000Y20404189D01*
X18314000Y20522811D01*
X18313999Y20522812D01*
X18283300Y20637383D01*
X18283298Y20637388D01*
X18223991Y20740110D01*
X18223990Y20740111D01*
X18223989Y20740113D01*
X18140113Y20823989D01*
X18140110Y20823991D01*
X18140109Y20823992D01*
X18037387Y20883299D01*
X18037382Y20883301D01*
X17922811Y20914000D01*
X17922809Y20914000D01*
X17804191Y20914000D01*
X17804189Y20914000D01*
X17689617Y20883301D01*
X17689612Y20883299D01*
X17586890Y20823992D01*
X17503008Y20740110D01*
X17443701Y20637388D01*
X17443699Y20637383D01*
X17413000Y20522812D01*
X10347690Y20522812D01*
X10376613Y20539511D01*
X10460489Y20623387D01*
X10519799Y20726114D01*
X10550499Y20840689D01*
X10550500Y20840689D01*
X10550500Y20959311D01*
X10550499Y20959312D01*
X10519800Y21073883D01*
X10519798Y21073888D01*
X10460491Y21176610D01*
X10460490Y21176611D01*
X10460489Y21176613D01*
X10376613Y21260489D01*
X10376610Y21260491D01*
X10376609Y21260492D01*
X10273887Y21319799D01*
X10273882Y21319801D01*
X10159311Y21350500D01*
X10159309Y21350500D01*
X10040691Y21350500D01*
X10040689Y21350500D01*
X9926117Y21319801D01*
X9926112Y21319799D01*
X9823390Y21260492D01*
X9739508Y21176610D01*
X9680201Y21073888D01*
X9680199Y21073883D01*
X9649500Y20959312D01*
X500500Y20959312D01*
X500500Y21659312D01*
X19249500Y21659312D01*
X19249500Y21540689D01*
X19280199Y21426118D01*
X19280201Y21426113D01*
X19339508Y21323391D01*
X19339509Y21323390D01*
X19339511Y21323387D01*
X19423387Y21239511D01*
X19526114Y21180201D01*
X19526115Y21180201D01*
X19526117Y21180200D01*
X19583402Y21164851D01*
X19640688Y21149501D01*
X19640689Y21149500D01*
X19640691Y21149500D01*
X19759311Y21149500D01*
X19759311Y21149501D01*
X19873886Y21180201D01*
X19976613Y21239511D01*
X20060489Y21323387D01*
X20119799Y21426114D01*
X20150499Y21540689D01*
X20150500Y21540689D01*
X20150500Y21659311D01*
X20150499Y21659312D01*
X20119800Y21773883D01*
X20119798Y21773888D01*
X20060491Y21876610D01*
X20060490Y21876611D01*
X20060489Y21876613D01*
X19976613Y21960489D01*
X19976610Y21960491D01*
X19976609Y21960492D01*
X19873887Y22019799D01*
X19873882Y22019801D01*
X19759311Y22050500D01*
X19759309Y22050500D01*
X19640691Y22050500D01*
X19640689Y22050500D01*
X19526117Y22019801D01*
X19526112Y22019799D01*
X19423390Y21960492D01*
X19339508Y21876610D01*
X19280201Y21773888D01*
X19280199Y21773883D01*
X19249500Y21659312D01*
X500500Y21659312D01*
X500500Y30059312D01*
X44549500Y30059312D01*
X44549500Y29940689D01*
X44580199Y29826118D01*
X44580201Y29826113D01*
X44639508Y29723391D01*
X44639509Y29723390D01*
X44639511Y29723387D01*
X44723387Y29639511D01*
X44723389Y29639510D01*
X44723390Y29639509D01*
X44809992Y29589509D01*
X44826114Y29580201D01*
X44826115Y29580201D01*
X44826117Y29580200D01*
X44858666Y29571478D01*
X44903599Y29536999D01*
X44910991Y29480847D01*
X44876512Y29435914D01*
X44858666Y29428522D01*
X44826117Y29419801D01*
X44826112Y29419799D01*
X44723390Y29360492D01*
X44639508Y29276610D01*
X44580201Y29173888D01*
X44580199Y29173883D01*
X44549500Y29059312D01*
X44549500Y28940689D01*
X44580199Y28826118D01*
X44580201Y28826113D01*
X44639508Y28723391D01*
X44639509Y28723390D01*
X44639511Y28723387D01*
X44723387Y28639511D01*
X44723389Y28639510D01*
X44723390Y28639509D01*
X44809992Y28589509D01*
X44826114Y28580201D01*
X44826115Y28580201D01*
X44826117Y28580200D01*
X44858666Y28571478D01*
X44903599Y28536999D01*
X44910991Y28480847D01*
X44876512Y28435914D01*
X44858666Y28428522D01*
X44826117Y28419801D01*
X44826112Y28419799D01*
X44723390Y28360492D01*
X44639508Y28276610D01*
X44580201Y28173888D01*
X44580199Y28173883D01*
X44549500Y28059312D01*
X44549500Y27940689D01*
X44580199Y27826118D01*
X44580201Y27826113D01*
X44639508Y27723391D01*
X44639509Y27723390D01*
X44639511Y27723387D01*
X44723387Y27639511D01*
X44723389Y27639510D01*
X44723390Y27639509D01*
X44809992Y27589509D01*
X44826114Y27580201D01*
X44826115Y27580201D01*
X44826117Y27580200D01*
X44858666Y27571478D01*
X44903599Y27536999D01*
X44910991Y27480847D01*
X44876512Y27435914D01*
X44858666Y27428522D01*
X44826117Y27419801D01*
X44826112Y27419799D01*
X44723390Y27360492D01*
X44639508Y27276610D01*
X44580201Y27173888D01*
X44580199Y27173883D01*
X44549500Y27059312D01*
X44549500Y26940689D01*
X44580199Y26826118D01*
X44580201Y26826113D01*
X44639508Y26723391D01*
X44639509Y26723390D01*
X44639511Y26723387D01*
X44723387Y26639511D01*
X44723389Y26639510D01*
X44723390Y26639509D01*
X44809992Y26589509D01*
X44826114Y26580201D01*
X44894653Y26561836D01*
X44939586Y26527358D01*
X44949500Y26490358D01*
X44949500Y26440689D01*
X44980199Y26326118D01*
X44980201Y26326113D01*
X45039508Y26223391D01*
X45039509Y26223390D01*
X45039511Y26223387D01*
X45123387Y26139511D01*
X45123389Y26139510D01*
X45123390Y26139509D01*
X45209992Y26089509D01*
X45226114Y26080201D01*
X45226115Y26080201D01*
X45226117Y26080200D01*
X45283402Y26064851D01*
X45340688Y26049501D01*
X45340689Y26049500D01*
X45340691Y26049500D01*
X45459311Y26049500D01*
X45459311Y26049501D01*
X45573886Y26080201D01*
X45676613Y26139511D01*
X45760489Y26223387D01*
X45819799Y26326114D01*
X45850499Y26440689D01*
X45850500Y26440689D01*
X45850500Y26559311D01*
X45850499Y26559312D01*
X45849822Y26561837D01*
X45819799Y26673886D01*
X45819798Y26673888D01*
X45760491Y26776610D01*
X45760490Y26776611D01*
X45760489Y26776613D01*
X45676613Y26860489D01*
X45676610Y26860491D01*
X45676609Y26860492D01*
X45573887Y26919799D01*
X45573882Y26919801D01*
X45541333Y26928522D01*
X45496400Y26963000D01*
X45489008Y27019153D01*
X45523486Y27064086D01*
X45541333Y27071478D01*
X45573882Y27080200D01*
X45573881Y27080200D01*
X45573886Y27080201D01*
X45676613Y27139511D01*
X45760489Y27223387D01*
X45819799Y27326114D01*
X45850499Y27440689D01*
X45850500Y27440689D01*
X45850500Y27559311D01*
X45850499Y27559312D01*
X45819800Y27673883D01*
X45819798Y27673888D01*
X45760491Y27776610D01*
X45760490Y27776611D01*
X45760489Y27776613D01*
X45676613Y27860489D01*
X45676610Y27860491D01*
X45676609Y27860492D01*
X45573887Y27919799D01*
X45573882Y27919801D01*
X45541333Y27928522D01*
X45496400Y27963000D01*
X45489008Y28019153D01*
X45523486Y28064086D01*
X45541333Y28071478D01*
X45573882Y28080200D01*
X45573881Y28080200D01*
X45573886Y28080201D01*
X45676613Y28139511D01*
X45760489Y28223387D01*
X45819799Y28326114D01*
X45850499Y28440689D01*
X45850500Y28440689D01*
X45850500Y28559311D01*
X45850499Y28559312D01*
X45819800Y28673883D01*
X45819798Y28673888D01*
X45760491Y28776610D01*
X45760490Y28776611D01*
X45760489Y28776613D01*
X45676613Y28860489D01*
X45676610Y28860491D01*
X45676609Y28860492D01*
X45573887Y28919799D01*
X45573882Y28919801D01*
X45541333Y28928522D01*
X45496400Y28963000D01*
X45489008Y29019153D01*
X45523486Y29064086D01*
X45541333Y29071478D01*
X45573882Y29080200D01*
X45573881Y29080200D01*
X45573886Y29080201D01*
X45676613Y29139511D01*
X45760489Y29223387D01*
X45819799Y29326114D01*
X45850499Y29440689D01*
X45850500Y29440689D01*
X45850500Y29509312D01*
X54149500Y29509312D01*
X54149500Y29390689D01*
X54180199Y29276118D01*
X54180201Y29276113D01*
X54239508Y29173391D01*
X54239509Y29173390D01*
X54239511Y29173387D01*
X54323387Y29089511D01*
X54323389Y29089510D01*
X54323390Y29089509D01*
X54375698Y29059309D01*
X54426114Y29030201D01*
X54426115Y29030201D01*
X54426117Y29030200D01*
X54458666Y29021478D01*
X54503599Y28986999D01*
X54510991Y28930847D01*
X54476512Y28885914D01*
X54458666Y28878522D01*
X54426117Y28869801D01*
X54426112Y28869799D01*
X54323390Y28810492D01*
X54239508Y28726610D01*
X54180201Y28623888D01*
X54180199Y28623883D01*
X54149500Y28509312D01*
X54149500Y28390689D01*
X54180199Y28276118D01*
X54180201Y28276113D01*
X54239508Y28173391D01*
X54239509Y28173390D01*
X54239511Y28173387D01*
X54323387Y28089511D01*
X54323389Y28089510D01*
X54323390Y28089509D01*
X54375698Y28059309D01*
X54426114Y28030201D01*
X54426115Y28030201D01*
X54426117Y28030200D01*
X54458666Y28021478D01*
X54503599Y27986999D01*
X54510991Y27930847D01*
X54476512Y27885914D01*
X54458666Y27878522D01*
X54426117Y27869801D01*
X54426112Y27869799D01*
X54323390Y27810492D01*
X54239508Y27726610D01*
X54180201Y27623888D01*
X54180199Y27623883D01*
X54149500Y27509312D01*
X54149500Y27390689D01*
X54180199Y27276118D01*
X54180201Y27276113D01*
X54239508Y27173391D01*
X54239509Y27173390D01*
X54239511Y27173387D01*
X54323387Y27089511D01*
X54323389Y27089510D01*
X54323390Y27089509D01*
X54392687Y27049500D01*
X54426114Y27030201D01*
X54426115Y27030201D01*
X54426117Y27030200D01*
X54458666Y27021478D01*
X54503599Y26986999D01*
X54510991Y26930847D01*
X54476512Y26885914D01*
X54458666Y26878522D01*
X54426117Y26869801D01*
X54426112Y26869799D01*
X54323390Y26810492D01*
X54239508Y26726610D01*
X54180201Y26623888D01*
X54180199Y26623883D01*
X54149500Y26509312D01*
X54149500Y26390689D01*
X54180199Y26276118D01*
X54180201Y26276113D01*
X54239508Y26173391D01*
X54239509Y26173390D01*
X54239511Y26173387D01*
X54323387Y26089511D01*
X54323389Y26089510D01*
X54323390Y26089509D01*
X54392687Y26049500D01*
X54426114Y26030201D01*
X54426115Y26030201D01*
X54426117Y26030200D01*
X54483402Y26014851D01*
X54540688Y25999501D01*
X54540689Y25999500D01*
X54540691Y25999500D01*
X54659311Y25999500D01*
X54659311Y25999501D01*
X54773886Y26030201D01*
X54876613Y26089511D01*
X54960489Y26173387D01*
X55019799Y26276114D01*
X55050499Y26390689D01*
X55050500Y26390689D01*
X55050500Y26440358D01*
X55072174Y26492684D01*
X55105345Y26511836D01*
X55173886Y26530201D01*
X55276613Y26589511D01*
X55360489Y26673387D01*
X55419799Y26776114D01*
X55450499Y26890689D01*
X55450500Y26890689D01*
X55450500Y27009311D01*
X55450499Y27009312D01*
X55439730Y27049501D01*
X55419799Y27123886D01*
X55410778Y27139511D01*
X55360491Y27226610D01*
X55360490Y27226611D01*
X55360489Y27226613D01*
X55276613Y27310489D01*
X55276610Y27310491D01*
X55276609Y27310492D01*
X55173887Y27369799D01*
X55173882Y27369801D01*
X55141333Y27378522D01*
X55096400Y27413000D01*
X55089008Y27469153D01*
X55123486Y27514086D01*
X55141333Y27521478D01*
X55173882Y27530200D01*
X55173881Y27530200D01*
X55173886Y27530201D01*
X55276613Y27589511D01*
X55360489Y27673387D01*
X55419799Y27776114D01*
X55450499Y27890689D01*
X55450500Y27890689D01*
X55450500Y28009311D01*
X55450499Y28009312D01*
X55419800Y28123883D01*
X55419798Y28123888D01*
X55360491Y28226610D01*
X55360490Y28226611D01*
X55360489Y28226613D01*
X55276613Y28310489D01*
X55276610Y28310491D01*
X55276609Y28310492D01*
X55173887Y28369799D01*
X55173882Y28369801D01*
X55141333Y28378522D01*
X55096400Y28413000D01*
X55089008Y28469153D01*
X55123486Y28514086D01*
X55141333Y28521478D01*
X55173882Y28530200D01*
X55173881Y28530200D01*
X55173886Y28530201D01*
X55276613Y28589511D01*
X55360489Y28673387D01*
X55419799Y28776114D01*
X55450499Y28890689D01*
X55450500Y28890689D01*
X55450500Y29009311D01*
X55450499Y29009312D01*
X55419800Y29123883D01*
X55419798Y29123888D01*
X55360491Y29226610D01*
X55360490Y29226611D01*
X55360489Y29226613D01*
X55276613Y29310489D01*
X55276610Y29310491D01*
X55276609Y29310492D01*
X55173887Y29369799D01*
X55173882Y29369801D01*
X55141333Y29378522D01*
X55096400Y29413000D01*
X55089008Y29469153D01*
X55123486Y29514086D01*
X55141333Y29521478D01*
X55173882Y29530200D01*
X55173881Y29530200D01*
X55173886Y29530201D01*
X55276613Y29589511D01*
X55360489Y29673387D01*
X55419799Y29776114D01*
X55450499Y29890689D01*
X55450500Y29890689D01*
X55450500Y30009311D01*
X55450499Y30009312D01*
X55450410Y30009643D01*
X55419799Y30123886D01*
X55360489Y30226613D01*
X55276613Y30310489D01*
X55276610Y30310491D01*
X55276609Y30310492D01*
X55173887Y30369799D01*
X55173882Y30369801D01*
X55059311Y30400500D01*
X55059309Y30400500D01*
X54940691Y30400500D01*
X54940689Y30400500D01*
X54826117Y30369801D01*
X54826112Y30369799D01*
X54723390Y30310492D01*
X54639508Y30226610D01*
X54580201Y30123888D01*
X54580199Y30123883D01*
X54549500Y30009312D01*
X54549500Y29959643D01*
X54527826Y29907317D01*
X54494653Y29888165D01*
X54426117Y29869801D01*
X54426112Y29869799D01*
X54323390Y29810492D01*
X54239508Y29726610D01*
X54180201Y29623888D01*
X54180199Y29623883D01*
X54149500Y29509312D01*
X45850500Y29509312D01*
X45850500Y29559311D01*
X45850499Y29559312D01*
X45819800Y29673883D01*
X45819798Y29673888D01*
X45760491Y29776610D01*
X45760490Y29776611D01*
X45760489Y29776613D01*
X45676613Y29860489D01*
X45676610Y29860491D01*
X45676609Y29860492D01*
X45573887Y29919799D01*
X45573882Y29919801D01*
X45505347Y29938165D01*
X45460414Y29972644D01*
X45450500Y30009643D01*
X45450500Y30059311D01*
X45450499Y30059312D01*
X45419800Y30173883D01*
X45419798Y30173888D01*
X45360491Y30276610D01*
X45360490Y30276611D01*
X45360489Y30276613D01*
X45276613Y30360489D01*
X45276610Y30360491D01*
X45276609Y30360492D01*
X45173887Y30419799D01*
X45173882Y30419801D01*
X45059311Y30450500D01*
X45059309Y30450500D01*
X44940691Y30450500D01*
X44940689Y30450500D01*
X44826117Y30419801D01*
X44826112Y30419799D01*
X44723390Y30360492D01*
X44639508Y30276610D01*
X44580201Y30173888D01*
X44580199Y30173883D01*
X44549500Y30059312D01*
X500500Y30059312D01*
X500500Y38559312D01*
X44549500Y38559312D01*
X44549500Y38440689D01*
X44580199Y38326118D01*
X44580201Y38326113D01*
X44639508Y38223391D01*
X44639509Y38223390D01*
X44639511Y38223387D01*
X44723387Y38139511D01*
X44826114Y38080201D01*
X44826115Y38080201D01*
X44826117Y38080200D01*
X44858666Y38071478D01*
X44903599Y38036999D01*
X44910991Y37980847D01*
X44876512Y37935914D01*
X44858666Y37928522D01*
X44826117Y37919801D01*
X44826112Y37919799D01*
X44723390Y37860492D01*
X44639508Y37776610D01*
X44580201Y37673888D01*
X44580199Y37673883D01*
X44549500Y37559312D01*
X44549500Y37440689D01*
X44580199Y37326118D01*
X44580201Y37326113D01*
X44639508Y37223391D01*
X44639509Y37223390D01*
X44639511Y37223387D01*
X44723387Y37139511D01*
X44826114Y37080201D01*
X44826115Y37080201D01*
X44826117Y37080200D01*
X44858666Y37071478D01*
X44903599Y37036999D01*
X44910991Y36980847D01*
X44876512Y36935914D01*
X44858666Y36928522D01*
X44826117Y36919801D01*
X44826112Y36919799D01*
X44723390Y36860492D01*
X44639508Y36776610D01*
X44580201Y36673888D01*
X44580199Y36673883D01*
X44549500Y36559312D01*
X44549500Y36440689D01*
X44580199Y36326118D01*
X44580201Y36326113D01*
X44639508Y36223391D01*
X44639509Y36223390D01*
X44639511Y36223387D01*
X44723387Y36139511D01*
X44826114Y36080201D01*
X44826115Y36080201D01*
X44826117Y36080200D01*
X44858666Y36071478D01*
X44903599Y36036999D01*
X44910991Y35980847D01*
X44876512Y35935914D01*
X44858666Y35928522D01*
X44826117Y35919801D01*
X44826112Y35919799D01*
X44723390Y35860492D01*
X44639508Y35776610D01*
X44580201Y35673888D01*
X44580199Y35673883D01*
X44549500Y35559312D01*
X44549500Y35440689D01*
X44580199Y35326118D01*
X44580201Y35326113D01*
X44639508Y35223391D01*
X44639509Y35223390D01*
X44639511Y35223387D01*
X44723387Y35139511D01*
X44826114Y35080201D01*
X44826115Y35080201D01*
X44826117Y35080200D01*
X44858666Y35071478D01*
X44903599Y35036999D01*
X44910991Y34980847D01*
X44876512Y34935914D01*
X44858666Y34928522D01*
X44826117Y34919801D01*
X44826112Y34919799D01*
X44723390Y34860492D01*
X44639508Y34776610D01*
X44580201Y34673888D01*
X44580199Y34673883D01*
X44549500Y34559312D01*
X44549500Y34440689D01*
X44580199Y34326118D01*
X44580201Y34326113D01*
X44639508Y34223391D01*
X44639509Y34223390D01*
X44639511Y34223387D01*
X44723387Y34139511D01*
X44723389Y34139510D01*
X44723390Y34139509D01*
X44809992Y34089509D01*
X44826114Y34080201D01*
X44826115Y34080201D01*
X44826117Y34080200D01*
X44858666Y34071478D01*
X44903599Y34036999D01*
X44910991Y33980847D01*
X44876512Y33935914D01*
X44858666Y33928522D01*
X44826117Y33919801D01*
X44826112Y33919799D01*
X44723390Y33860492D01*
X44639508Y33776610D01*
X44580201Y33673888D01*
X44580199Y33673883D01*
X44549500Y33559312D01*
X44549500Y33440689D01*
X44580199Y33326118D01*
X44580201Y33326113D01*
X44639508Y33223391D01*
X44639509Y33223390D01*
X44639511Y33223387D01*
X44723387Y33139511D01*
X44723389Y33139510D01*
X44723390Y33139509D01*
X44809992Y33089509D01*
X44826114Y33080201D01*
X44826115Y33080201D01*
X44826117Y33080200D01*
X44858666Y33071478D01*
X44903599Y33036999D01*
X44910991Y32980847D01*
X44876512Y32935914D01*
X44858666Y32928522D01*
X44826117Y32919801D01*
X44826112Y32919799D01*
X44723390Y32860492D01*
X44639508Y32776610D01*
X44580201Y32673888D01*
X44580199Y32673883D01*
X44549500Y32559312D01*
X44549500Y32440689D01*
X44580199Y32326118D01*
X44580201Y32326113D01*
X44639508Y32223391D01*
X44639509Y32223390D01*
X44639511Y32223387D01*
X44723387Y32139511D01*
X44723389Y32139510D01*
X44723390Y32139509D01*
X44809992Y32089509D01*
X44826114Y32080201D01*
X44826115Y32080201D01*
X44826117Y32080200D01*
X44858666Y32071478D01*
X44903599Y32036999D01*
X44910991Y31980847D01*
X44876512Y31935914D01*
X44858666Y31928522D01*
X44826117Y31919801D01*
X44826112Y31919799D01*
X44723390Y31860492D01*
X44639508Y31776610D01*
X44580201Y31673888D01*
X44580199Y31673883D01*
X44549500Y31559312D01*
X44549500Y31440689D01*
X44580199Y31326118D01*
X44580201Y31326113D01*
X44639508Y31223391D01*
X44639509Y31223390D01*
X44639511Y31223387D01*
X44723387Y31139511D01*
X44723389Y31139510D01*
X44723390Y31139509D01*
X44809992Y31089509D01*
X44826114Y31080201D01*
X44894653Y31061836D01*
X44939586Y31027358D01*
X44949500Y30990358D01*
X44949500Y30940689D01*
X44980199Y30826118D01*
X44980201Y30826113D01*
X45039508Y30723391D01*
X45039509Y30723390D01*
X45039511Y30723387D01*
X45123387Y30639511D01*
X45123389Y30639510D01*
X45123390Y30639509D01*
X45209992Y30589509D01*
X45226114Y30580201D01*
X45226115Y30580201D01*
X45226117Y30580200D01*
X45283402Y30564851D01*
X45340688Y30549501D01*
X45340689Y30549500D01*
X45340691Y30549500D01*
X45459311Y30549500D01*
X45459311Y30549501D01*
X45573886Y30580201D01*
X45676613Y30639511D01*
X45760489Y30723387D01*
X45819799Y30826114D01*
X45850499Y30940689D01*
X45850500Y30940689D01*
X45850500Y31059311D01*
X45850499Y31059312D01*
X45849822Y31061837D01*
X45819799Y31173886D01*
X45819798Y31173888D01*
X45760491Y31276610D01*
X45760490Y31276611D01*
X45760489Y31276613D01*
X45676613Y31360489D01*
X45676610Y31360491D01*
X45676609Y31360492D01*
X45573887Y31419799D01*
X45573882Y31419801D01*
X45541333Y31428522D01*
X45496400Y31463000D01*
X45489008Y31519153D01*
X45523486Y31564086D01*
X45541333Y31571478D01*
X45573882Y31580200D01*
X45573881Y31580200D01*
X45573886Y31580201D01*
X45676613Y31639511D01*
X45760489Y31723387D01*
X45819799Y31826114D01*
X45850499Y31940689D01*
X45850500Y31940689D01*
X45850500Y32059311D01*
X45850499Y32059312D01*
X45819800Y32173883D01*
X45819798Y32173888D01*
X45760491Y32276610D01*
X45760490Y32276611D01*
X45760489Y32276613D01*
X45676613Y32360489D01*
X45676610Y32360491D01*
X45676609Y32360492D01*
X45573887Y32419799D01*
X45573882Y32419801D01*
X45541333Y32428522D01*
X45496400Y32463000D01*
X45489008Y32519153D01*
X45523486Y32564086D01*
X45541333Y32571478D01*
X45573882Y32580200D01*
X45573881Y32580200D01*
X45573886Y32580201D01*
X45676613Y32639511D01*
X45760489Y32723387D01*
X45819799Y32826114D01*
X45850499Y32940689D01*
X45850500Y32940689D01*
X45850500Y33059311D01*
X45850499Y33059312D01*
X45819800Y33173883D01*
X45819798Y33173888D01*
X45760491Y33276610D01*
X45760490Y33276611D01*
X45760489Y33276613D01*
X45676613Y33360489D01*
X45676610Y33360491D01*
X45676609Y33360492D01*
X45573887Y33419799D01*
X45573882Y33419801D01*
X45541333Y33428522D01*
X45496400Y33463000D01*
X45489008Y33519153D01*
X45523486Y33564086D01*
X45541333Y33571478D01*
X45573882Y33580200D01*
X45573881Y33580200D01*
X45573886Y33580201D01*
X45676613Y33639511D01*
X45760489Y33723387D01*
X45819799Y33826114D01*
X45850499Y33940689D01*
X45850500Y33940689D01*
X45850500Y34009312D01*
X54149500Y34009312D01*
X54149500Y33890689D01*
X54180199Y33776118D01*
X54180201Y33776113D01*
X54239508Y33673391D01*
X54239509Y33673390D01*
X54239511Y33673387D01*
X54323387Y33589511D01*
X54323389Y33589510D01*
X54323390Y33589509D01*
X54375698Y33559309D01*
X54426114Y33530201D01*
X54426115Y33530201D01*
X54426117Y33530200D01*
X54458666Y33521478D01*
X54503599Y33486999D01*
X54510991Y33430847D01*
X54476512Y33385914D01*
X54458666Y33378522D01*
X54426117Y33369801D01*
X54426112Y33369799D01*
X54323390Y33310492D01*
X54239508Y33226610D01*
X54180201Y33123888D01*
X54180199Y33123883D01*
X54149500Y33009312D01*
X54149500Y32890689D01*
X54180199Y32776118D01*
X54180201Y32776113D01*
X54239508Y32673391D01*
X54239509Y32673390D01*
X54239511Y32673387D01*
X54323387Y32589511D01*
X54323389Y32589510D01*
X54323390Y32589509D01*
X54375698Y32559309D01*
X54426114Y32530201D01*
X54426115Y32530201D01*
X54426117Y32530200D01*
X54458666Y32521478D01*
X54503599Y32486999D01*
X54510991Y32430847D01*
X54476512Y32385914D01*
X54458666Y32378522D01*
X54426117Y32369801D01*
X54426112Y32369799D01*
X54323390Y32310492D01*
X54239508Y32226610D01*
X54180201Y32123888D01*
X54180199Y32123883D01*
X54149500Y32009312D01*
X54149500Y31890689D01*
X54180199Y31776118D01*
X54180201Y31776113D01*
X54239508Y31673391D01*
X54239509Y31673390D01*
X54239511Y31673387D01*
X54323387Y31589511D01*
X54323389Y31589510D01*
X54323390Y31589509D01*
X54375698Y31559309D01*
X54426114Y31530201D01*
X54426115Y31530201D01*
X54426117Y31530200D01*
X54458666Y31521478D01*
X54503599Y31486999D01*
X54510991Y31430847D01*
X54476512Y31385914D01*
X54458666Y31378522D01*
X54426117Y31369801D01*
X54426112Y31369799D01*
X54323390Y31310492D01*
X54239508Y31226610D01*
X54180201Y31123888D01*
X54180199Y31123883D01*
X54149500Y31009312D01*
X54149500Y30890689D01*
X54180199Y30776118D01*
X54180201Y30776113D01*
X54239508Y30673391D01*
X54239509Y30673390D01*
X54239511Y30673387D01*
X54323387Y30589511D01*
X54323389Y30589510D01*
X54323390Y30589509D01*
X54392687Y30549500D01*
X54426114Y30530201D01*
X54426115Y30530201D01*
X54426117Y30530200D01*
X54483402Y30514851D01*
X54540688Y30499501D01*
X54540689Y30499500D01*
X54540691Y30499500D01*
X54659311Y30499500D01*
X54659311Y30499501D01*
X54773886Y30530201D01*
X54876613Y30589511D01*
X54960489Y30673387D01*
X55019799Y30776114D01*
X55050499Y30890689D01*
X55050500Y30890689D01*
X55050500Y30940358D01*
X55072174Y30992684D01*
X55105345Y31011836D01*
X55173886Y31030201D01*
X55276613Y31089511D01*
X55360489Y31173387D01*
X55419799Y31276114D01*
X55450499Y31390689D01*
X55450500Y31390689D01*
X55450500Y31509311D01*
X55450499Y31509312D01*
X55419800Y31623883D01*
X55419798Y31623888D01*
X55360491Y31726610D01*
X55360490Y31726611D01*
X55360489Y31726613D01*
X55276613Y31810489D01*
X55276610Y31810491D01*
X55276609Y31810492D01*
X55173887Y31869799D01*
X55173882Y31869801D01*
X55141333Y31878522D01*
X55096400Y31913000D01*
X55089008Y31969153D01*
X55123486Y32014086D01*
X55141333Y32021478D01*
X55173882Y32030200D01*
X55173881Y32030200D01*
X55173886Y32030201D01*
X55276613Y32089511D01*
X55360489Y32173387D01*
X55419799Y32276114D01*
X55450499Y32390689D01*
X55450500Y32390689D01*
X55450500Y32509311D01*
X55450499Y32509312D01*
X55419800Y32623883D01*
X55419798Y32623888D01*
X55360491Y32726610D01*
X55360490Y32726611D01*
X55360489Y32726613D01*
X55276613Y32810489D01*
X55276610Y32810491D01*
X55276609Y32810492D01*
X55173887Y32869799D01*
X55173882Y32869801D01*
X55141333Y32878522D01*
X55096400Y32913000D01*
X55089008Y32969153D01*
X55123486Y33014086D01*
X55141333Y33021478D01*
X55173882Y33030200D01*
X55173881Y33030200D01*
X55173886Y33030201D01*
X55276613Y33089511D01*
X55360489Y33173387D01*
X55419799Y33276114D01*
X55450499Y33390689D01*
X55450500Y33390689D01*
X55450500Y33509311D01*
X55450499Y33509312D01*
X55419800Y33623883D01*
X55419798Y33623888D01*
X55360491Y33726610D01*
X55360490Y33726611D01*
X55360489Y33726613D01*
X55276613Y33810489D01*
X55276610Y33810491D01*
X55276609Y33810492D01*
X55173887Y33869799D01*
X55173882Y33869801D01*
X55141333Y33878522D01*
X55096400Y33913000D01*
X55089008Y33969153D01*
X55123486Y34014086D01*
X55141333Y34021478D01*
X55173882Y34030200D01*
X55173881Y34030200D01*
X55173886Y34030201D01*
X55276613Y34089511D01*
X55360489Y34173387D01*
X55419799Y34276114D01*
X55450499Y34390689D01*
X55450500Y34390689D01*
X55450500Y34509311D01*
X55450499Y34509312D01*
X55450410Y34509643D01*
X55419799Y34623886D01*
X55360489Y34726613D01*
X55276613Y34810489D01*
X55276610Y34810491D01*
X55276609Y34810492D01*
X55173887Y34869799D01*
X55173882Y34869801D01*
X55059311Y34900500D01*
X55059309Y34900500D01*
X54940691Y34900500D01*
X54940689Y34900500D01*
X54826117Y34869801D01*
X54826112Y34869799D01*
X54723390Y34810492D01*
X54639508Y34726610D01*
X54580201Y34623888D01*
X54580199Y34623883D01*
X54549500Y34509312D01*
X54549500Y34459643D01*
X54527826Y34407317D01*
X54494653Y34388165D01*
X54426117Y34369801D01*
X54426112Y34369799D01*
X54323390Y34310492D01*
X54239508Y34226610D01*
X54180201Y34123888D01*
X54180199Y34123883D01*
X54149500Y34009312D01*
X45850500Y34009312D01*
X45850500Y34059311D01*
X45850499Y34059312D01*
X45819800Y34173883D01*
X45819798Y34173888D01*
X45760491Y34276610D01*
X45760490Y34276611D01*
X45760489Y34276613D01*
X45676613Y34360489D01*
X45676610Y34360491D01*
X45676609Y34360492D01*
X45573887Y34419799D01*
X45573882Y34419801D01*
X45505347Y34438165D01*
X45460414Y34472644D01*
X45450500Y34509643D01*
X45450500Y34559311D01*
X45450499Y34559312D01*
X45419800Y34673883D01*
X45419798Y34673888D01*
X45360491Y34776610D01*
X45360490Y34776611D01*
X45360489Y34776613D01*
X45276613Y34860489D01*
X45276610Y34860491D01*
X45276609Y34860492D01*
X45173887Y34919799D01*
X45173882Y34919801D01*
X45141333Y34928522D01*
X45096400Y34963000D01*
X45089008Y35019153D01*
X45123486Y35064086D01*
X45141333Y35071478D01*
X45173882Y35080200D01*
X45173881Y35080200D01*
X45173886Y35080201D01*
X45276613Y35139511D01*
X45360489Y35223387D01*
X45419799Y35326114D01*
X45450499Y35440689D01*
X45450500Y35440689D01*
X45450500Y35490358D01*
X45472174Y35542684D01*
X45505345Y35561836D01*
X45573886Y35580201D01*
X45676613Y35639511D01*
X45760489Y35723387D01*
X45819799Y35826114D01*
X45850499Y35940689D01*
X45850500Y35940689D01*
X45850500Y36059311D01*
X45850499Y36059312D01*
X45819800Y36173883D01*
X45819798Y36173888D01*
X45760491Y36276610D01*
X45760490Y36276611D01*
X45760489Y36276613D01*
X45676613Y36360489D01*
X45676610Y36360491D01*
X45676609Y36360492D01*
X45573887Y36419799D01*
X45573882Y36419801D01*
X45541333Y36428522D01*
X45496400Y36463000D01*
X45489008Y36519153D01*
X45523486Y36564086D01*
X45541333Y36571478D01*
X45573882Y36580200D01*
X45573881Y36580200D01*
X45573886Y36580201D01*
X45676613Y36639511D01*
X45760489Y36723387D01*
X45819799Y36826114D01*
X45850499Y36940689D01*
X45850500Y36940689D01*
X45850500Y37059311D01*
X45850499Y37059312D01*
X45819800Y37173883D01*
X45819798Y37173888D01*
X45760491Y37276610D01*
X45760490Y37276611D01*
X45760489Y37276613D01*
X45676613Y37360489D01*
X45676610Y37360491D01*
X45676609Y37360492D01*
X45573887Y37419799D01*
X45573882Y37419801D01*
X45541333Y37428522D01*
X45496400Y37463000D01*
X45489008Y37519153D01*
X45523486Y37564086D01*
X45541333Y37571478D01*
X45573882Y37580200D01*
X45573881Y37580200D01*
X45573886Y37580201D01*
X45676613Y37639511D01*
X45760489Y37723387D01*
X45819799Y37826114D01*
X45850499Y37940689D01*
X45850500Y37940689D01*
X45850500Y38059311D01*
X45850499Y38059312D01*
X45819800Y38173883D01*
X45819798Y38173888D01*
X45760491Y38276610D01*
X45760490Y38276611D01*
X45760489Y38276613D01*
X45676613Y38360489D01*
X45676610Y38360491D01*
X45676609Y38360492D01*
X45573887Y38419799D01*
X45573882Y38419801D01*
X45541333Y38428522D01*
X45496400Y38463000D01*
X45489008Y38519153D01*
X45523486Y38564086D01*
X45541333Y38571478D01*
X45573882Y38580200D01*
X45573881Y38580200D01*
X45573886Y38580201D01*
X45676613Y38639511D01*
X45760489Y38723387D01*
X45819799Y38826114D01*
X45850499Y38940689D01*
X45850500Y38940689D01*
X45850500Y39059311D01*
X45850499Y39059312D01*
X54149500Y39059312D01*
X54149500Y38940689D01*
X54180199Y38826118D01*
X54180201Y38826113D01*
X54239508Y38723391D01*
X54239509Y38723390D01*
X54239511Y38723387D01*
X54323387Y38639511D01*
X54426114Y38580201D01*
X54426115Y38580201D01*
X54426117Y38580200D01*
X54458666Y38571478D01*
X54503599Y38536999D01*
X54510991Y38480847D01*
X54476512Y38435914D01*
X54458666Y38428522D01*
X54426117Y38419801D01*
X54426112Y38419799D01*
X54323390Y38360492D01*
X54239508Y38276610D01*
X54180201Y38173888D01*
X54180199Y38173883D01*
X54149500Y38059312D01*
X54149500Y37940689D01*
X54180199Y37826118D01*
X54180201Y37826113D01*
X54239508Y37723391D01*
X54239509Y37723390D01*
X54239511Y37723387D01*
X54323387Y37639511D01*
X54426114Y37580201D01*
X54426115Y37580201D01*
X54426117Y37580200D01*
X54458666Y37571478D01*
X54503599Y37536999D01*
X54510991Y37480847D01*
X54476512Y37435914D01*
X54458666Y37428522D01*
X54426117Y37419801D01*
X54426112Y37419799D01*
X54323390Y37360492D01*
X54239508Y37276610D01*
X54180201Y37173888D01*
X54180199Y37173883D01*
X54149500Y37059312D01*
X54149500Y36940689D01*
X54180199Y36826118D01*
X54180201Y36826113D01*
X54239508Y36723391D01*
X54239509Y36723390D01*
X54239511Y36723387D01*
X54323387Y36639511D01*
X54426114Y36580201D01*
X54426115Y36580201D01*
X54426117Y36580200D01*
X54458666Y36571478D01*
X54503599Y36536999D01*
X54510991Y36480847D01*
X54476512Y36435914D01*
X54458666Y36428522D01*
X54426117Y36419801D01*
X54426112Y36419799D01*
X54323390Y36360492D01*
X54239508Y36276610D01*
X54180201Y36173888D01*
X54180199Y36173883D01*
X54149500Y36059312D01*
X54149500Y35940689D01*
X54180199Y35826118D01*
X54180201Y35826113D01*
X54239508Y35723391D01*
X54239509Y35723390D01*
X54239511Y35723387D01*
X54323387Y35639511D01*
X54426114Y35580201D01*
X54494653Y35561836D01*
X54539586Y35527358D01*
X54549500Y35490358D01*
X54549500Y35440689D01*
X54580199Y35326118D01*
X54580201Y35326113D01*
X54639508Y35223391D01*
X54639509Y35223390D01*
X54639511Y35223387D01*
X54723387Y35139511D01*
X54826114Y35080201D01*
X54826115Y35080201D01*
X54826117Y35080200D01*
X54858668Y35071478D01*
X54940688Y35049501D01*
X54940689Y35049500D01*
X54940691Y35049500D01*
X55059311Y35049500D01*
X55059311Y35049501D01*
X55173886Y35080201D01*
X55276613Y35139511D01*
X55360489Y35223387D01*
X55419799Y35326114D01*
X55450499Y35440689D01*
X55450500Y35440689D01*
X55450500Y35559311D01*
X55450499Y35559312D01*
X55449822Y35561837D01*
X55419799Y35673886D01*
X55419798Y35673888D01*
X55360491Y35776610D01*
X55360490Y35776611D01*
X55360489Y35776613D01*
X55276613Y35860489D01*
X55276610Y35860491D01*
X55276609Y35860492D01*
X55173887Y35919799D01*
X55173882Y35919801D01*
X55141333Y35928522D01*
X55096400Y35963000D01*
X55089008Y36019153D01*
X55123486Y36064086D01*
X55141333Y36071478D01*
X55173882Y36080200D01*
X55173881Y36080200D01*
X55173886Y36080201D01*
X55276613Y36139511D01*
X55360489Y36223387D01*
X55419799Y36326114D01*
X55450499Y36440689D01*
X55450500Y36440689D01*
X55450500Y36559311D01*
X55450499Y36559312D01*
X55419800Y36673883D01*
X55419798Y36673888D01*
X55360491Y36776610D01*
X55360490Y36776611D01*
X55360489Y36776613D01*
X55276613Y36860489D01*
X55276610Y36860491D01*
X55276609Y36860492D01*
X55173887Y36919799D01*
X55173882Y36919801D01*
X55141333Y36928522D01*
X55096400Y36963000D01*
X55089008Y37019153D01*
X55123486Y37064086D01*
X55141333Y37071478D01*
X55173882Y37080200D01*
X55173881Y37080200D01*
X55173886Y37080201D01*
X55276613Y37139511D01*
X55360489Y37223387D01*
X55419799Y37326114D01*
X55450499Y37440689D01*
X55450500Y37440689D01*
X55450500Y37559311D01*
X55450499Y37559312D01*
X55419800Y37673883D01*
X55419798Y37673888D01*
X55360491Y37776610D01*
X55360490Y37776611D01*
X55360489Y37776613D01*
X55276613Y37860489D01*
X55276610Y37860491D01*
X55276609Y37860492D01*
X55173887Y37919799D01*
X55173882Y37919801D01*
X55141333Y37928522D01*
X55096400Y37963000D01*
X55089008Y38019153D01*
X55123486Y38064086D01*
X55141333Y38071478D01*
X55173882Y38080200D01*
X55173881Y38080200D01*
X55173886Y38080201D01*
X55276613Y38139511D01*
X55360489Y38223387D01*
X55419799Y38326114D01*
X55450499Y38440689D01*
X55450500Y38440689D01*
X55450500Y38559311D01*
X55450499Y38559312D01*
X55419800Y38673883D01*
X55419798Y38673888D01*
X55360491Y38776610D01*
X55360490Y38776611D01*
X55360489Y38776613D01*
X55276613Y38860489D01*
X55276610Y38860491D01*
X55276609Y38860492D01*
X55173887Y38919799D01*
X55173882Y38919801D01*
X55105347Y38938165D01*
X55060414Y38972644D01*
X55050500Y39009643D01*
X55050500Y39059311D01*
X55050499Y39059312D01*
X55019800Y39173883D01*
X55019798Y39173888D01*
X54960491Y39276610D01*
X54960490Y39276611D01*
X54960489Y39276613D01*
X54876613Y39360489D01*
X54876610Y39360491D01*
X54876609Y39360492D01*
X54773887Y39419799D01*
X54773882Y39419801D01*
X54659311Y39450500D01*
X54659309Y39450500D01*
X54540691Y39450500D01*
X54540689Y39450500D01*
X54426117Y39419801D01*
X54426112Y39419799D01*
X54323390Y39360492D01*
X54239508Y39276610D01*
X54180201Y39173888D01*
X54180199Y39173883D01*
X54149500Y39059312D01*
X45850499Y39059312D01*
X45819800Y39173883D01*
X45819798Y39173888D01*
X45760491Y39276610D01*
X45760490Y39276611D01*
X45760489Y39276613D01*
X45676613Y39360489D01*
X45676610Y39360491D01*
X45676609Y39360492D01*
X45573887Y39419799D01*
X45573882Y39419801D01*
X45459311Y39450500D01*
X45459309Y39450500D01*
X45340691Y39450500D01*
X45340689Y39450500D01*
X45226117Y39419801D01*
X45226112Y39419799D01*
X45123390Y39360492D01*
X45039508Y39276610D01*
X44980201Y39173888D01*
X44980199Y39173883D01*
X44949500Y39059312D01*
X44949500Y39009643D01*
X44927826Y38957317D01*
X44894653Y38938165D01*
X44826117Y38919801D01*
X44826112Y38919799D01*
X44723390Y38860492D01*
X44639508Y38776610D01*
X44580201Y38673888D01*
X44580199Y38673883D01*
X44549500Y38559312D01*
X500500Y38559312D01*
X500500Y43059312D01*
X44549500Y43059312D01*
X44549500Y42940689D01*
X44580199Y42826118D01*
X44580201Y42826113D01*
X44639508Y42723391D01*
X44639509Y42723390D01*
X44639511Y42723387D01*
X44723387Y42639511D01*
X44723389Y42639510D01*
X44723390Y42639509D01*
X44779155Y42607313D01*
X44826114Y42580201D01*
X44826115Y42580201D01*
X44826117Y42580200D01*
X44858666Y42571478D01*
X44903599Y42536999D01*
X44910991Y42480847D01*
X44876512Y42435914D01*
X44858666Y42428522D01*
X44826117Y42419801D01*
X44826112Y42419799D01*
X44723390Y42360492D01*
X44639508Y42276610D01*
X44580201Y42173888D01*
X44580199Y42173883D01*
X44549500Y42059312D01*
X44549500Y41940689D01*
X44580199Y41826118D01*
X44580201Y41826113D01*
X44639508Y41723391D01*
X44639509Y41723390D01*
X44639511Y41723387D01*
X44723387Y41639511D01*
X44826114Y41580201D01*
X44826115Y41580201D01*
X44826117Y41580200D01*
X44858666Y41571478D01*
X44903599Y41536999D01*
X44910991Y41480847D01*
X44876512Y41435914D01*
X44858666Y41428522D01*
X44826117Y41419801D01*
X44826112Y41419799D01*
X44723390Y41360492D01*
X44639508Y41276610D01*
X44580201Y41173888D01*
X44580199Y41173883D01*
X44549500Y41059312D01*
X44549500Y40940689D01*
X44580199Y40826118D01*
X44580201Y40826113D01*
X44639508Y40723391D01*
X44639509Y40723390D01*
X44639511Y40723387D01*
X44723387Y40639511D01*
X44826114Y40580201D01*
X44826115Y40580201D01*
X44826117Y40580200D01*
X44858666Y40571478D01*
X44903599Y40536999D01*
X44910991Y40480847D01*
X44876512Y40435914D01*
X44858666Y40428522D01*
X44826117Y40419801D01*
X44826112Y40419799D01*
X44723390Y40360492D01*
X44639508Y40276610D01*
X44580201Y40173888D01*
X44580199Y40173883D01*
X44549500Y40059312D01*
X44549500Y39940689D01*
X44580199Y39826118D01*
X44580201Y39826113D01*
X44639508Y39723391D01*
X44639509Y39723390D01*
X44639511Y39723387D01*
X44723387Y39639511D01*
X44826114Y39580201D01*
X44826115Y39580201D01*
X44826117Y39580200D01*
X44883402Y39564851D01*
X44940688Y39549501D01*
X44940689Y39549500D01*
X44940691Y39549500D01*
X45059311Y39549500D01*
X45059311Y39549501D01*
X45173886Y39580201D01*
X45276613Y39639511D01*
X45360489Y39723387D01*
X45419799Y39826114D01*
X45450499Y39940689D01*
X45450500Y39940689D01*
X45450500Y39990358D01*
X45472174Y40042684D01*
X45505345Y40061836D01*
X45573886Y40080201D01*
X45676613Y40139511D01*
X45760489Y40223387D01*
X45819799Y40326114D01*
X45850499Y40440689D01*
X45850500Y40440689D01*
X45850500Y40559311D01*
X45850499Y40559312D01*
X45819800Y40673883D01*
X45819798Y40673888D01*
X45760491Y40776610D01*
X45760490Y40776611D01*
X45760489Y40776613D01*
X45676613Y40860489D01*
X45676610Y40860491D01*
X45676609Y40860492D01*
X45573887Y40919799D01*
X45573882Y40919801D01*
X45541333Y40928522D01*
X45496400Y40963000D01*
X45489008Y41019153D01*
X45523486Y41064086D01*
X45541333Y41071478D01*
X45573882Y41080200D01*
X45573881Y41080200D01*
X45573886Y41080201D01*
X45676613Y41139511D01*
X45760489Y41223387D01*
X45819799Y41326114D01*
X45850499Y41440689D01*
X45850500Y41440689D01*
X45850500Y41559311D01*
X45850499Y41559312D01*
X45819800Y41673883D01*
X45819798Y41673888D01*
X45760491Y41776610D01*
X45760490Y41776611D01*
X45760489Y41776613D01*
X45676613Y41860489D01*
X45676610Y41860491D01*
X45676609Y41860492D01*
X45573887Y41919799D01*
X45573882Y41919801D01*
X45541333Y41928522D01*
X45496400Y41963000D01*
X45489008Y42019153D01*
X45523486Y42064086D01*
X45541333Y42071478D01*
X45573882Y42080200D01*
X45573881Y42080200D01*
X45573886Y42080201D01*
X45676613Y42139511D01*
X45760489Y42223387D01*
X45781230Y42259312D01*
X47249500Y42259312D01*
X47249500Y42140689D01*
X47280199Y42026118D01*
X47280201Y42026113D01*
X47339508Y41923391D01*
X47339509Y41923390D01*
X47339511Y41923387D01*
X47423387Y41839511D01*
X47423389Y41839510D01*
X47423390Y41839509D01*
X47526112Y41780202D01*
X47526114Y41780201D01*
X47526115Y41780201D01*
X47526117Y41780200D01*
X47583402Y41764851D01*
X47640688Y41749501D01*
X47640689Y41749500D01*
X47640691Y41749500D01*
X47759311Y41749500D01*
X47759311Y41749501D01*
X47873886Y41780201D01*
X47976613Y41839511D01*
X48060489Y41923387D01*
X48114771Y42017407D01*
X48159703Y42051884D01*
X48215855Y42044492D01*
X48222814Y42039841D01*
X48324995Y41980847D01*
X48326114Y41980201D01*
X48326115Y41980201D01*
X48326117Y41980200D01*
X48383402Y41964851D01*
X48440688Y41949501D01*
X48440689Y41949500D01*
X48440691Y41949500D01*
X48559311Y41949500D01*
X48559311Y41949501D01*
X48673886Y41980201D01*
X48776613Y42039511D01*
X48860489Y42123387D01*
X48919799Y42226114D01*
X48950499Y42340689D01*
X48950500Y42340689D01*
X48950500Y42459311D01*
X48950499Y42459312D01*
X48919800Y42573883D01*
X48919796Y42573892D01*
X48910414Y42590143D01*
X48900500Y42627142D01*
X48900500Y48403456D01*
X48922174Y48455782D01*
X57544218Y57077826D01*
X57596544Y57099500D01*
X60187987Y57099500D01*
X60240313Y57077826D01*
X60261987Y57025500D01*
X60240313Y56973174D01*
X60224987Y56961414D01*
X60154086Y56920480D01*
X60079518Y56845911D01*
X51179517Y47945910D01*
X51126792Y47854588D01*
X51126793Y47854587D01*
X51099500Y47752727D01*
X51099500Y42527142D01*
X51089586Y42490143D01*
X51080203Y42473892D01*
X51080199Y42473883D01*
X51049500Y42359312D01*
X51049500Y42240689D01*
X51080199Y42126118D01*
X51080201Y42126113D01*
X51139508Y42023391D01*
X51139509Y42023390D01*
X51139511Y42023387D01*
X51223387Y41939511D01*
X51223389Y41939510D01*
X51223390Y41939509D01*
X51326112Y41880202D01*
X51326114Y41880201D01*
X51326115Y41880201D01*
X51326117Y41880200D01*
X51383402Y41864851D01*
X51440688Y41849501D01*
X51440689Y41849500D01*
X51440691Y41849500D01*
X51559311Y41849500D01*
X51559311Y41849501D01*
X51673886Y41880201D01*
X51776613Y41939511D01*
X51860489Y42023387D01*
X51919799Y42126114D01*
X51950499Y42240689D01*
X51950500Y42240689D01*
X51950500Y42359311D01*
X51950499Y42359312D01*
X51919800Y42473883D01*
X51919796Y42473892D01*
X51910414Y42490143D01*
X51900500Y42527142D01*
X51900500Y43559312D01*
X54149500Y43559312D01*
X54149500Y43440689D01*
X54180199Y43326118D01*
X54180201Y43326113D01*
X54239508Y43223391D01*
X54239509Y43223390D01*
X54239511Y43223387D01*
X54323387Y43139511D01*
X54426114Y43080201D01*
X54426115Y43080201D01*
X54426117Y43080200D01*
X54458666Y43071478D01*
X54503599Y43036999D01*
X54510991Y42980847D01*
X54476512Y42935914D01*
X54458666Y42928522D01*
X54426117Y42919801D01*
X54426112Y42919799D01*
X54323390Y42860492D01*
X54239508Y42776610D01*
X54180201Y42673888D01*
X54180199Y42673883D01*
X54149500Y42559312D01*
X54149500Y42440689D01*
X54180199Y42326118D01*
X54180201Y42326113D01*
X54239508Y42223391D01*
X54239509Y42223390D01*
X54239511Y42223387D01*
X54323387Y42139511D01*
X54323389Y42139510D01*
X54323390Y42139509D01*
X54351307Y42123391D01*
X54426114Y42080201D01*
X54426115Y42080201D01*
X54426117Y42080200D01*
X54458666Y42071478D01*
X54503599Y42036999D01*
X54510991Y41980847D01*
X54476512Y41935914D01*
X54458666Y41928522D01*
X54426117Y41919801D01*
X54426112Y41919799D01*
X54323390Y41860492D01*
X54239508Y41776610D01*
X54180201Y41673888D01*
X54180199Y41673883D01*
X54149500Y41559312D01*
X54149500Y41440689D01*
X54180199Y41326118D01*
X54180201Y41326113D01*
X54239508Y41223391D01*
X54239509Y41223390D01*
X54239511Y41223387D01*
X54323387Y41139511D01*
X54426114Y41080201D01*
X54426115Y41080201D01*
X54426117Y41080200D01*
X54458666Y41071478D01*
X54503599Y41036999D01*
X54510991Y40980847D01*
X54476512Y40935914D01*
X54458666Y40928522D01*
X54426117Y40919801D01*
X54426112Y40919799D01*
X54323390Y40860492D01*
X54239508Y40776610D01*
X54180201Y40673888D01*
X54180199Y40673883D01*
X54149500Y40559312D01*
X54149500Y40440689D01*
X54180199Y40326118D01*
X54180201Y40326113D01*
X54239508Y40223391D01*
X54239509Y40223390D01*
X54239511Y40223387D01*
X54323387Y40139511D01*
X54426114Y40080201D01*
X54494653Y40061836D01*
X54539586Y40027358D01*
X54549500Y39990358D01*
X54549500Y39940689D01*
X54580199Y39826118D01*
X54580201Y39826113D01*
X54639508Y39723391D01*
X54639509Y39723390D01*
X54639511Y39723387D01*
X54723387Y39639511D01*
X54826114Y39580201D01*
X54826115Y39580201D01*
X54826117Y39580200D01*
X54883402Y39564851D01*
X54940688Y39549501D01*
X54940689Y39549500D01*
X54940691Y39549500D01*
X55059311Y39549500D01*
X55059311Y39549501D01*
X55173886Y39580201D01*
X55276613Y39639511D01*
X55360489Y39723387D01*
X55419799Y39826114D01*
X55450499Y39940689D01*
X55450500Y39940689D01*
X55450500Y40059311D01*
X55450499Y40059312D01*
X55449822Y40061837D01*
X55419799Y40173886D01*
X55419798Y40173888D01*
X55360491Y40276610D01*
X55360490Y40276611D01*
X55360489Y40276613D01*
X55276613Y40360489D01*
X55276610Y40360491D01*
X55276609Y40360492D01*
X55173887Y40419799D01*
X55173882Y40419801D01*
X55141333Y40428522D01*
X55096400Y40463000D01*
X55089008Y40519153D01*
X55123486Y40564086D01*
X55141333Y40571478D01*
X55173882Y40580200D01*
X55173881Y40580200D01*
X55173886Y40580201D01*
X55276613Y40639511D01*
X55360489Y40723387D01*
X55419799Y40826114D01*
X55450499Y40940689D01*
X55450500Y40940689D01*
X55450500Y41059311D01*
X55450499Y41059312D01*
X55419800Y41173883D01*
X55419798Y41173888D01*
X55360491Y41276610D01*
X55360490Y41276611D01*
X55360489Y41276613D01*
X55276613Y41360489D01*
X55276610Y41360491D01*
X55276609Y41360492D01*
X55173887Y41419799D01*
X55173882Y41419801D01*
X55141333Y41428522D01*
X55096400Y41463000D01*
X55089008Y41519153D01*
X55123486Y41564086D01*
X55141333Y41571478D01*
X55173882Y41580200D01*
X55173881Y41580200D01*
X55173886Y41580201D01*
X55276613Y41639511D01*
X55360489Y41723387D01*
X55419799Y41826114D01*
X55450499Y41940689D01*
X55450500Y41940689D01*
X55450500Y42059311D01*
X55450499Y42059312D01*
X55419800Y42173883D01*
X55419798Y42173888D01*
X55360491Y42276610D01*
X55360490Y42276611D01*
X55360489Y42276613D01*
X55276613Y42360489D01*
X55276610Y42360491D01*
X55276609Y42360492D01*
X55173887Y42419799D01*
X55173882Y42419801D01*
X55141333Y42428522D01*
X55096400Y42463000D01*
X55089008Y42519153D01*
X55123486Y42564086D01*
X55141333Y42571478D01*
X55173882Y42580200D01*
X55173881Y42580200D01*
X55173886Y42580201D01*
X55276613Y42639511D01*
X55360489Y42723387D01*
X55419799Y42826114D01*
X55450499Y42940689D01*
X55450500Y42940689D01*
X55450500Y43059311D01*
X55450499Y43059312D01*
X55419800Y43173883D01*
X55419798Y43173888D01*
X55360491Y43276610D01*
X55360490Y43276611D01*
X55360489Y43276613D01*
X55276613Y43360489D01*
X55276610Y43360491D01*
X55276609Y43360492D01*
X55173887Y43419799D01*
X55173882Y43419801D01*
X55105347Y43438165D01*
X55060414Y43472644D01*
X55050500Y43509643D01*
X55050500Y43559311D01*
X55050499Y43559312D01*
X55019800Y43673883D01*
X55019798Y43673888D01*
X54960491Y43776610D01*
X54960490Y43776611D01*
X54960489Y43776613D01*
X54876613Y43860489D01*
X54876610Y43860491D01*
X54876609Y43860492D01*
X54773887Y43919799D01*
X54773882Y43919801D01*
X54659311Y43950500D01*
X54659309Y43950500D01*
X54540691Y43950500D01*
X54540689Y43950500D01*
X54426117Y43919801D01*
X54426112Y43919799D01*
X54323390Y43860492D01*
X54239508Y43776610D01*
X54180201Y43673888D01*
X54180199Y43673883D01*
X54149500Y43559312D01*
X51900500Y43559312D01*
X51900500Y47503456D01*
X51922174Y47555782D01*
X59491521Y55125129D01*
X81719500Y55125129D01*
X81719500Y55004872D01*
X81742959Y54886931D01*
X81742961Y54886924D01*
X81788981Y54775821D01*
X81855791Y54675833D01*
X81855794Y54675829D01*
X81940829Y54590794D01*
X82040820Y54523982D01*
X82151924Y54477961D01*
X82269871Y54454500D01*
X82269872Y54454500D01*
X82390128Y54454500D01*
X82390129Y54454500D01*
X82508076Y54477961D01*
X82619180Y54523982D01*
X82719171Y54590794D01*
X82804206Y54675829D01*
X82871018Y54775820D01*
X82917039Y54886924D01*
X82940500Y55004871D01*
X82940500Y55125129D01*
X82917039Y55243076D01*
X82871018Y55354180D01*
X82804206Y55454171D01*
X82719171Y55539206D01*
X82619180Y55606018D01*
X82619181Y55606018D01*
X82619179Y55606019D01*
X82508076Y55652039D01*
X82508069Y55652041D01*
X82419215Y55669715D01*
X82390129Y55675500D01*
X82269871Y55675500D01*
X82246538Y55670859D01*
X82151930Y55652041D01*
X82151923Y55652039D01*
X82040820Y55606019D01*
X81940832Y55539209D01*
X81855791Y55454168D01*
X81788981Y55354180D01*
X81742961Y55243077D01*
X81742959Y55243070D01*
X81719500Y55125129D01*
X59491521Y55125129D01*
X60544218Y56177826D01*
X60596544Y56199500D01*
X93703455Y56199500D01*
X93755781Y56177826D01*
X95677826Y54255781D01*
X95699500Y54203455D01*
X95699500Y18096546D01*
X95677826Y18044220D01*
X90449812Y12816206D01*
X90397486Y12794532D01*
X90345160Y12816206D01*
X90304069Y12857297D01*
X90304067Y12857299D01*
X90259719Y12893039D01*
X90259715Y12893041D01*
X90259712Y12893043D01*
X90180420Y12929253D01*
X90135342Y12949839D01*
X90135340Y12949840D01*
X90135338Y12949840D01*
X90000000Y12969299D01*
X89864661Y12949840D01*
X89864658Y12949840D01*
X89740281Y12893040D01*
X89695934Y12857303D01*
X89695933Y12857302D01*
X89560807Y12722174D01*
X89508481Y12700500D01*
X82974500Y12700500D01*
X82922174Y12722174D01*
X82900500Y12774500D01*
X82900500Y14772860D01*
X82910414Y14809860D01*
X82919799Y14826114D01*
X82950499Y14940689D01*
X82950500Y14940689D01*
X82950500Y15059311D01*
X82950499Y15059312D01*
X82919800Y15173883D01*
X82919798Y15173888D01*
X82860491Y15276610D01*
X82860490Y15276611D01*
X82860489Y15276613D01*
X82776613Y15360489D01*
X82776610Y15360491D01*
X82776609Y15360492D01*
X82673887Y15419799D01*
X82673882Y15419801D01*
X82559311Y15450500D01*
X82559309Y15450500D01*
X82440691Y15450500D01*
X82440689Y15450500D01*
X82326117Y15419801D01*
X82326112Y15419799D01*
X82223390Y15360492D01*
X82139508Y15276610D01*
X82080201Y15173888D01*
X82080199Y15173883D01*
X82049500Y15059312D01*
X82049500Y14940689D01*
X82080199Y14826118D01*
X82080200Y14826116D01*
X82080201Y14826114D01*
X82089585Y14809860D01*
X82099500Y14772860D01*
X82099500Y12774500D01*
X82077826Y12722174D01*
X82025500Y12700500D01*
X80852727Y12700500D01*
X80747273Y12700500D01*
X80713319Y12691403D01*
X80645410Y12673207D01*
X80645406Y12673205D01*
X80630702Y12664714D01*
X80630699Y12664712D01*
X80554086Y12620480D01*
X80479518Y12545911D01*
X80340943Y12407338D01*
X80288616Y12385664D01*
X80245121Y12399797D01*
X80184092Y12444138D01*
X80184084Y12444142D01*
X80063434Y12483342D01*
X80063433Y12483342D01*
X79936567Y12483342D01*
X79936565Y12483342D01*
X79815915Y12444142D01*
X79815907Y12444138D01*
X79739093Y12388329D01*
X79411675Y12060910D01*
X79355860Y11984089D01*
X79355858Y11984085D01*
X79316658Y11863435D01*
X79316658Y11774500D01*
X79294984Y11722174D01*
X79242658Y11700500D01*
X79220941Y11700500D01*
X79068220Y11659579D01*
X79068214Y11659576D01*
X78931283Y11580520D01*
X78819480Y11468717D01*
X78740424Y11331786D01*
X78740421Y11331780D01*
X78699500Y11179060D01*
X78699500Y11020941D01*
X78740421Y10868221D01*
X78740422Y10868219D01*
X78740423Y10868216D01*
X78819480Y10731284D01*
X78931284Y10619480D01*
X79068216Y10540423D01*
X79220940Y10499501D01*
X79220941Y10499500D01*
X79325500Y10499500D01*
X79377826Y10477826D01*
X79399500Y10425500D01*
X79399500Y10320941D01*
X79440421Y10168221D01*
X79440422Y10168219D01*
X79440423Y10168216D01*
X79519480Y10031284D01*
X79631284Y9919480D01*
X79768216Y9840423D01*
X79920940Y9799501D01*
X79920941Y9799500D01*
X79920943Y9799500D01*
X80079059Y9799500D01*
X80079059Y9799501D01*
X80169953Y9823856D01*
X80236469Y9841678D01*
X80237057Y9839481D01*
X80286142Y9839491D01*
X80310163Y9823444D01*
X81479519Y8654088D01*
X81479520Y8654087D01*
X81554087Y8579520D01*
X81645413Y8526793D01*
X81747270Y8499501D01*
X81747271Y8499500D01*
X81747273Y8499500D01*
X84472859Y8499500D01*
X84509860Y8489585D01*
X84526109Y8480203D01*
X84526117Y8480200D01*
X84583402Y8464851D01*
X84640688Y8449501D01*
X84640689Y8449500D01*
X84640691Y8449500D01*
X84759311Y8449500D01*
X84759311Y8449501D01*
X84873886Y8480201D01*
X84873888Y8480203D01*
X84873890Y8480203D01*
X84890140Y8489585D01*
X84927141Y8499500D01*
X90952726Y8499500D01*
X90952727Y8499500D01*
X91054588Y8526793D01*
X91145913Y8579520D01*
X98045910Y15479519D01*
X98045913Y15479520D01*
X98120480Y15554087D01*
X98173207Y15645413D01*
X98174302Y15649500D01*
X98200501Y15747273D01*
X98200501Y15852727D01*
X98200501Y15857256D01*
X98200500Y15857274D01*
X98200500Y55041302D01*
X98200501Y55041315D01*
X98200501Y55152729D01*
X98200500Y55152730D01*
X98173208Y55254585D01*
X98173205Y55254592D01*
X98164005Y55270526D01*
X98146843Y55300250D01*
X98120480Y55345913D01*
X98045913Y55420480D01*
X98043334Y55423059D01*
X98043323Y55423069D01*
X96400500Y57065892D01*
X94745913Y58720480D01*
X94745910Y58720482D01*
X94745909Y58720483D01*
X94654592Y58773205D01*
X94654588Y58773207D01*
X94552727Y58800500D01*
X56952727Y58800500D01*
X56847273Y58800500D01*
X56796342Y58786854D01*
X56745411Y58773207D01*
X56745407Y58773205D01*
X56699750Y58746844D01*
X56654090Y58720483D01*
X47379517Y49445910D01*
X47326792Y49354588D01*
X47326793Y49354587D01*
X47299500Y49252727D01*
X47299500Y42427142D01*
X47289586Y42390143D01*
X47280203Y42373892D01*
X47280199Y42373883D01*
X47249500Y42259312D01*
X45781230Y42259312D01*
X45819799Y42326114D01*
X45850499Y42440689D01*
X45850500Y42440689D01*
X45850500Y42559311D01*
X45850499Y42559312D01*
X45819800Y42673883D01*
X45819798Y42673888D01*
X45760491Y42776610D01*
X45760490Y42776611D01*
X45760489Y42776613D01*
X45676613Y42860489D01*
X45676610Y42860491D01*
X45676609Y42860492D01*
X45573887Y42919799D01*
X45573882Y42919801D01*
X45541333Y42928522D01*
X45496400Y42963000D01*
X45489008Y43019153D01*
X45523486Y43064086D01*
X45541333Y43071478D01*
X45573882Y43080200D01*
X45573881Y43080200D01*
X45573886Y43080201D01*
X45676613Y43139511D01*
X45760489Y43223387D01*
X45819799Y43326114D01*
X45850499Y43440689D01*
X45850500Y43440689D01*
X45850500Y43559311D01*
X45850499Y43559312D01*
X45819800Y43673883D01*
X45819798Y43673888D01*
X45760491Y43776610D01*
X45760490Y43776611D01*
X45760489Y43776613D01*
X45676613Y43860489D01*
X45676610Y43860491D01*
X45676609Y43860492D01*
X45573887Y43919799D01*
X45573882Y43919801D01*
X45459311Y43950500D01*
X45459309Y43950500D01*
X45340691Y43950500D01*
X45340689Y43950500D01*
X45226117Y43919801D01*
X45226112Y43919799D01*
X45123390Y43860492D01*
X45039508Y43776610D01*
X44980201Y43673888D01*
X44980199Y43673883D01*
X44949500Y43559312D01*
X44949500Y43509643D01*
X44927826Y43457317D01*
X44894653Y43438165D01*
X44826117Y43419801D01*
X44826112Y43419799D01*
X44723390Y43360492D01*
X44639508Y43276610D01*
X44580201Y43173888D01*
X44580199Y43173883D01*
X44549500Y43059312D01*
X500500Y43059312D01*
X500500Y55125129D01*
X11719500Y55125129D01*
X11719500Y55004872D01*
X11742959Y54886931D01*
X11742961Y54886924D01*
X11788981Y54775821D01*
X11855791Y54675833D01*
X11855794Y54675829D01*
X11940829Y54590794D01*
X12040820Y54523982D01*
X12151924Y54477961D01*
X12269871Y54454500D01*
X12269872Y54454500D01*
X12390128Y54454500D01*
X12390129Y54454500D01*
X12508076Y54477961D01*
X12619180Y54523982D01*
X12719171Y54590794D01*
X12804206Y54675829D01*
X12871018Y54775820D01*
X12917039Y54886924D01*
X12940500Y55004871D01*
X12940500Y55125129D01*
X12917039Y55243076D01*
X12871018Y55354180D01*
X12804206Y55454171D01*
X12719171Y55539206D01*
X12619180Y55606018D01*
X12619181Y55606018D01*
X12619179Y55606019D01*
X12508076Y55652039D01*
X12508069Y55652041D01*
X12419215Y55669715D01*
X12390129Y55675500D01*
X12269871Y55675500D01*
X12246538Y55670859D01*
X12151930Y55652041D01*
X12151923Y55652039D01*
X12040820Y55606019D01*
X11940832Y55539209D01*
X11855791Y55454168D01*
X11788981Y55354180D01*
X11742961Y55243077D01*
X11742959Y55243070D01*
X11719500Y55125129D01*
X500500Y55125129D01*
X500500Y56997764D01*
X500635Y57002232D01*
X504486Y57065892D01*
X518454Y57296824D01*
X519528Y57305672D01*
X572328Y57593789D01*
X574458Y57602432D01*
X661597Y57882069D01*
X664754Y57890396D01*
X784971Y58157507D01*
X789115Y58165401D01*
X940636Y58416048D01*
X945712Y58423401D01*
X1126343Y58653961D01*
X1132254Y58660633D01*
X1339367Y58867746D01*
X1346039Y58873657D01*
X1576599Y59054289D01*
X1583953Y59059364D01*
X1630926Y59087760D01*
X1834599Y59210885D01*
X1842493Y59215029D01*
X2109604Y59335246D01*
X2117931Y59338403D01*
X2397568Y59425542D01*
X2406211Y59427672D01*
X2694328Y59480472D01*
X2703176Y59481546D01*
X2997768Y59499366D01*
X3002236Y59499500D01*
X3065892Y59499500D01*
X96934108Y59499500D01*
X96997764Y59499500D01*
X97002231Y59499366D01*
G37*
%TD.AperFunction*%
%TD*%
M02*
