%TF.GenerationSoftware,KiCad,Pcbnew,9.0.3*%
%TF.CreationDate,2026-03-16T13:33:51-04:00*%
%TF.ProjectId,ephys-test-module-64,65706879-732d-4746-9573-742d6d6f6475,F*%
%TF.SameCoordinates,Original*%
%TF.FileFunction,AssemblyDrawing,Top*%
%FSLAX46Y46*%
G04 Gerber Fmt 4.6, Leading zero omitted, Abs format (unit mm)*
G04 Created by KiCad (PCBNEW 9.0.3) date 2026-03-16 13:33:51*
%MOMM*%
%LPD*%
G01*
G04 APERTURE LIST*
%ADD10C,0.150000*%
%ADD11C,0.040000*%
%ADD12C,0.100000*%
G04 APERTURE END LIST*
D10*
X186738095Y-131954819D02*
X187309523Y-131954819D01*
X187023809Y-132954819D02*
X187023809Y-131954819D01*
X187642857Y-132954819D02*
X187642857Y-131954819D01*
X187642857Y-131954819D02*
X188023809Y-131954819D01*
X188023809Y-131954819D02*
X188119047Y-132002438D01*
X188119047Y-132002438D02*
X188166666Y-132050057D01*
X188166666Y-132050057D02*
X188214285Y-132145295D01*
X188214285Y-132145295D02*
X188214285Y-132288152D01*
X188214285Y-132288152D02*
X188166666Y-132383390D01*
X188166666Y-132383390D02*
X188119047Y-132431009D01*
X188119047Y-132431009D02*
X188023809Y-132478628D01*
X188023809Y-132478628D02*
X187642857Y-132478628D01*
X189166666Y-132954819D02*
X188595238Y-132954819D01*
X188880952Y-132954819D02*
X188880952Y-131954819D01*
X188880952Y-131954819D02*
X188785714Y-132097676D01*
X188785714Y-132097676D02*
X188690476Y-132192914D01*
X188690476Y-132192914D02*
X188595238Y-132240533D01*
X186518804Y-132454819D02*
X189385957Y-132454819D01*
X196738095Y-131954819D02*
X197309523Y-131954819D01*
X197023809Y-132954819D02*
X197023809Y-131954819D01*
X197642857Y-132954819D02*
X197642857Y-131954819D01*
X197642857Y-131954819D02*
X198023809Y-131954819D01*
X198023809Y-131954819D02*
X198119047Y-132002438D01*
X198119047Y-132002438D02*
X198166666Y-132050057D01*
X198166666Y-132050057D02*
X198214285Y-132145295D01*
X198214285Y-132145295D02*
X198214285Y-132288152D01*
X198214285Y-132288152D02*
X198166666Y-132383390D01*
X198166666Y-132383390D02*
X198119047Y-132431009D01*
X198119047Y-132431009D02*
X198023809Y-132478628D01*
X198023809Y-132478628D02*
X197642857Y-132478628D01*
X198595238Y-132050057D02*
X198642857Y-132002438D01*
X198642857Y-132002438D02*
X198738095Y-131954819D01*
X198738095Y-131954819D02*
X198976190Y-131954819D01*
X198976190Y-131954819D02*
X199071428Y-132002438D01*
X199071428Y-132002438D02*
X199119047Y-132050057D01*
X199119047Y-132050057D02*
X199166666Y-132145295D01*
X199166666Y-132145295D02*
X199166666Y-132240533D01*
X199166666Y-132240533D02*
X199119047Y-132383390D01*
X199119047Y-132383390D02*
X198547619Y-132954819D01*
X198547619Y-132954819D02*
X199166666Y-132954819D01*
X196518804Y-132454819D02*
X199391666Y-132454819D01*
X192454819Y-114598754D02*
X193169104Y-114598754D01*
X193169104Y-114598754D02*
X193311961Y-114646373D01*
X193311961Y-114646373D02*
X193407200Y-114741611D01*
X193407200Y-114741611D02*
X193454819Y-114884468D01*
X193454819Y-114884468D02*
X193454819Y-114979706D01*
X192788152Y-113693992D02*
X193454819Y-113693992D01*
X192407200Y-113932087D02*
X193121485Y-114170182D01*
X193121485Y-114170182D02*
X193121485Y-113551135D01*
D11*
X123156667Y-120118200D02*
X123070000Y-119994391D01*
X123008095Y-120118200D02*
X123008095Y-119858200D01*
X123008095Y-119858200D02*
X123107143Y-119858200D01*
X123107143Y-119858200D02*
X123131905Y-119870581D01*
X123131905Y-119870581D02*
X123144286Y-119882962D01*
X123144286Y-119882962D02*
X123156667Y-119907724D01*
X123156667Y-119907724D02*
X123156667Y-119944867D01*
X123156667Y-119944867D02*
X123144286Y-119969629D01*
X123144286Y-119969629D02*
X123131905Y-119982010D01*
X123131905Y-119982010D02*
X123107143Y-119994391D01*
X123107143Y-119994391D02*
X123008095Y-119994391D01*
X123243333Y-119858200D02*
X123404286Y-119858200D01*
X123404286Y-119858200D02*
X123317619Y-119957248D01*
X123317619Y-119957248D02*
X123354762Y-119957248D01*
X123354762Y-119957248D02*
X123379524Y-119969629D01*
X123379524Y-119969629D02*
X123391905Y-119982010D01*
X123391905Y-119982010D02*
X123404286Y-120006772D01*
X123404286Y-120006772D02*
X123404286Y-120068677D01*
X123404286Y-120068677D02*
X123391905Y-120093439D01*
X123391905Y-120093439D02*
X123379524Y-120105820D01*
X123379524Y-120105820D02*
X123354762Y-120118200D01*
X123354762Y-120118200D02*
X123280476Y-120118200D01*
X123280476Y-120118200D02*
X123255714Y-120105820D01*
X123255714Y-120105820D02*
X123243333Y-120093439D01*
D10*
X187336119Y-126354819D02*
X186859929Y-126354819D01*
X186859929Y-126354819D02*
X186859929Y-125354819D01*
X187669453Y-126354819D02*
X187669453Y-125354819D01*
X187669453Y-125354819D02*
X187907548Y-125354819D01*
X187907548Y-125354819D02*
X188050405Y-125402438D01*
X188050405Y-125402438D02*
X188145643Y-125497676D01*
X188145643Y-125497676D02*
X188193262Y-125592914D01*
X188193262Y-125592914D02*
X188240881Y-125783390D01*
X188240881Y-125783390D02*
X188240881Y-125926247D01*
X188240881Y-125926247D02*
X188193262Y-126116723D01*
X188193262Y-126116723D02*
X188145643Y-126211961D01*
X188145643Y-126211961D02*
X188050405Y-126307200D01*
X188050405Y-126307200D02*
X187907548Y-126354819D01*
X187907548Y-126354819D02*
X187669453Y-126354819D01*
X189193262Y-126354819D02*
X188621834Y-126354819D01*
X188907548Y-126354819D02*
X188907548Y-125354819D01*
X188907548Y-125354819D02*
X188812310Y-125497676D01*
X188812310Y-125497676D02*
X188717072Y-125592914D01*
X188717072Y-125592914D02*
X188621834Y-125640533D01*
X157666666Y-101454819D02*
X157666666Y-102169104D01*
X157666666Y-102169104D02*
X157619047Y-102311961D01*
X157619047Y-102311961D02*
X157523809Y-102407200D01*
X157523809Y-102407200D02*
X157380952Y-102454819D01*
X157380952Y-102454819D02*
X157285714Y-102454819D01*
X158666666Y-102454819D02*
X158095238Y-102454819D01*
X158380952Y-102454819D02*
X158380952Y-101454819D01*
X158380952Y-101454819D02*
X158285714Y-101597676D01*
X158285714Y-101597676D02*
X158190476Y-101692914D01*
X158190476Y-101692914D02*
X158095238Y-101740533D01*
D11*
X121856667Y-121218200D02*
X121770000Y-121094391D01*
X121708095Y-121218200D02*
X121708095Y-120958200D01*
X121708095Y-120958200D02*
X121807143Y-120958200D01*
X121807143Y-120958200D02*
X121831905Y-120970581D01*
X121831905Y-120970581D02*
X121844286Y-120982962D01*
X121844286Y-120982962D02*
X121856667Y-121007724D01*
X121856667Y-121007724D02*
X121856667Y-121044867D01*
X121856667Y-121044867D02*
X121844286Y-121069629D01*
X121844286Y-121069629D02*
X121831905Y-121082010D01*
X121831905Y-121082010D02*
X121807143Y-121094391D01*
X121807143Y-121094391D02*
X121708095Y-121094391D01*
X122104286Y-121218200D02*
X121955714Y-121218200D01*
X122030000Y-121218200D02*
X122030000Y-120958200D01*
X122030000Y-120958200D02*
X122005238Y-120995343D01*
X122005238Y-120995343D02*
X121980476Y-121020105D01*
X121980476Y-121020105D02*
X121955714Y-121032486D01*
D10*
X122038095Y-95054819D02*
X122038095Y-94054819D01*
X122038095Y-94531009D02*
X122609523Y-94531009D01*
X122609523Y-95054819D02*
X122609523Y-94054819D01*
X123609523Y-95054819D02*
X123038095Y-95054819D01*
X123323809Y-95054819D02*
X123323809Y-94054819D01*
X123323809Y-94054819D02*
X123228571Y-94197676D01*
X123228571Y-94197676D02*
X123133333Y-94292914D01*
X123133333Y-94292914D02*
X123038095Y-94340533D01*
X122453333Y-125165566D02*
X122453333Y-125958900D01*
X122453333Y-125958900D02*
X122500000Y-126052233D01*
X122500000Y-126052233D02*
X122546666Y-126098900D01*
X122546666Y-126098900D02*
X122640000Y-126145566D01*
X122640000Y-126145566D02*
X122826666Y-126145566D01*
X122826666Y-126145566D02*
X122920000Y-126098900D01*
X122920000Y-126098900D02*
X122966666Y-126052233D01*
X122966666Y-126052233D02*
X123013333Y-125958900D01*
X123013333Y-125958900D02*
X123013333Y-125165566D01*
X123993333Y-126145566D02*
X123433333Y-126145566D01*
X123713333Y-126145566D02*
X123713333Y-125165566D01*
X123713333Y-125165566D02*
X123620000Y-125305566D01*
X123620000Y-125305566D02*
X123526667Y-125398900D01*
X123526667Y-125398900D02*
X123433333Y-125445566D01*
D11*
X124556667Y-118918200D02*
X124470000Y-118794391D01*
X124408095Y-118918200D02*
X124408095Y-118658200D01*
X124408095Y-118658200D02*
X124507143Y-118658200D01*
X124507143Y-118658200D02*
X124531905Y-118670581D01*
X124531905Y-118670581D02*
X124544286Y-118682962D01*
X124544286Y-118682962D02*
X124556667Y-118707724D01*
X124556667Y-118707724D02*
X124556667Y-118744867D01*
X124556667Y-118744867D02*
X124544286Y-118769629D01*
X124544286Y-118769629D02*
X124531905Y-118782010D01*
X124531905Y-118782010D02*
X124507143Y-118794391D01*
X124507143Y-118794391D02*
X124408095Y-118794391D01*
X124655714Y-118682962D02*
X124668095Y-118670581D01*
X124668095Y-118670581D02*
X124692857Y-118658200D01*
X124692857Y-118658200D02*
X124754762Y-118658200D01*
X124754762Y-118658200D02*
X124779524Y-118670581D01*
X124779524Y-118670581D02*
X124791905Y-118682962D01*
X124791905Y-118682962D02*
X124804286Y-118707724D01*
X124804286Y-118707724D02*
X124804286Y-118732486D01*
X124804286Y-118732486D02*
X124791905Y-118769629D01*
X124791905Y-118769629D02*
X124643333Y-118918200D01*
X124643333Y-118918200D02*
X124804286Y-118918200D01*
D10*
X197333333Y-126354819D02*
X196857143Y-126354819D01*
X196857143Y-126354819D02*
X196857143Y-125354819D01*
X197666667Y-126354819D02*
X197666667Y-125354819D01*
X197666667Y-125354819D02*
X197904762Y-125354819D01*
X197904762Y-125354819D02*
X198047619Y-125402438D01*
X198047619Y-125402438D02*
X198142857Y-125497676D01*
X198142857Y-125497676D02*
X198190476Y-125592914D01*
X198190476Y-125592914D02*
X198238095Y-125783390D01*
X198238095Y-125783390D02*
X198238095Y-125926247D01*
X198238095Y-125926247D02*
X198190476Y-126116723D01*
X198190476Y-126116723D02*
X198142857Y-126211961D01*
X198142857Y-126211961D02*
X198047619Y-126307200D01*
X198047619Y-126307200D02*
X197904762Y-126354819D01*
X197904762Y-126354819D02*
X197666667Y-126354819D01*
X198619048Y-125450057D02*
X198666667Y-125402438D01*
X198666667Y-125402438D02*
X198761905Y-125354819D01*
X198761905Y-125354819D02*
X199000000Y-125354819D01*
X199000000Y-125354819D02*
X199095238Y-125402438D01*
X199095238Y-125402438D02*
X199142857Y-125450057D01*
X199142857Y-125450057D02*
X199190476Y-125545295D01*
X199190476Y-125545295D02*
X199190476Y-125640533D01*
X199190476Y-125640533D02*
X199142857Y-125783390D01*
X199142857Y-125783390D02*
X198571429Y-126354819D01*
X198571429Y-126354819D02*
X199190476Y-126354819D01*
D11*
X119789765Y-125741666D02*
X119801670Y-125753570D01*
X119801670Y-125753570D02*
X119813574Y-125789285D01*
X119813574Y-125789285D02*
X119813574Y-125813094D01*
X119813574Y-125813094D02*
X119801670Y-125848808D01*
X119801670Y-125848808D02*
X119777860Y-125872618D01*
X119777860Y-125872618D02*
X119754050Y-125884523D01*
X119754050Y-125884523D02*
X119706431Y-125896427D01*
X119706431Y-125896427D02*
X119670717Y-125896427D01*
X119670717Y-125896427D02*
X119623098Y-125884523D01*
X119623098Y-125884523D02*
X119599289Y-125872618D01*
X119599289Y-125872618D02*
X119575479Y-125848808D01*
X119575479Y-125848808D02*
X119563574Y-125813094D01*
X119563574Y-125813094D02*
X119563574Y-125789285D01*
X119563574Y-125789285D02*
X119575479Y-125753570D01*
X119575479Y-125753570D02*
X119587384Y-125741666D01*
X119813574Y-125503570D02*
X119813574Y-125646427D01*
X119813574Y-125574999D02*
X119563574Y-125574999D01*
X119563574Y-125574999D02*
X119599289Y-125598808D01*
X119599289Y-125598808D02*
X119623098Y-125622618D01*
X119623098Y-125622618D02*
X119635003Y-125646427D01*
D12*
%TO.C,J4*%
X189400000Y-108865421D02*
X189400000Y-109505421D01*
X189400000Y-109505421D02*
X190460000Y-109505421D01*
X189400000Y-111405421D02*
X189400000Y-112045421D01*
X189400000Y-112045421D02*
X190460000Y-112045421D01*
X189400000Y-113945421D02*
X189400000Y-114585421D01*
X189400000Y-114585421D02*
X190460000Y-114585421D01*
X189400000Y-116485421D02*
X189400000Y-117125421D01*
X189400000Y-117125421D02*
X190460000Y-117125421D01*
X189400000Y-119025421D02*
X189400000Y-119665421D01*
X189400000Y-119665421D02*
X190460000Y-119665421D01*
X190460000Y-108865421D02*
X189400000Y-108865421D01*
X190460000Y-108865421D02*
X191410000Y-107915421D01*
X190460000Y-111405421D02*
X189400000Y-111405421D01*
X190460000Y-113945421D02*
X189400000Y-113945421D01*
X190460000Y-116485421D02*
X189400000Y-116485421D01*
X190460000Y-119025421D02*
X189400000Y-119025421D01*
X190460000Y-120615421D02*
X190460000Y-108865421D01*
X191410000Y-107915421D02*
X195540000Y-107915421D01*
X195540000Y-107915421D02*
X195540000Y-120615421D01*
X195540000Y-108865421D02*
X196600000Y-108865421D01*
X195540000Y-111405421D02*
X196600000Y-111405421D01*
X195540000Y-113945421D02*
X196600000Y-113945421D01*
X195540000Y-116485421D02*
X196600000Y-116485421D01*
X195540000Y-119025421D02*
X196600000Y-119025421D01*
X195540000Y-120615421D02*
X190460000Y-120615421D01*
X196600000Y-108865421D02*
X196600000Y-109505421D01*
X196600000Y-109505421D02*
X195540000Y-109505421D01*
X196600000Y-111405421D02*
X196600000Y-112045421D01*
X196600000Y-112045421D02*
X195540000Y-112045421D01*
X196600000Y-113945421D02*
X196600000Y-114585421D01*
X196600000Y-114585421D02*
X195540000Y-114585421D01*
X196600000Y-116485421D02*
X196600000Y-117125421D01*
X196600000Y-117125421D02*
X195540000Y-117125421D01*
X196600000Y-119025421D02*
X196600000Y-119665421D01*
X196600000Y-119665421D02*
X195540000Y-119665421D01*
%TO.C,R3*%
X122675000Y-119730000D02*
X123725000Y-119730000D01*
X122675000Y-120270000D02*
X122675000Y-119730000D01*
X123725000Y-119730000D02*
X123725000Y-120270000D01*
X123725000Y-120270000D02*
X122675000Y-120270000D01*
%TO.C,LD1*%
X186000001Y-125500000D02*
G75*
G02*
X186000000Y-126300000I-200001J-400000D01*
G01*
X186002786Y-125500000D02*
G75*
G02*
X186002786Y-126300000I2000000J-400000D01*
G01*
%TO.C,J1*%
X156300000Y-95500000D02*
X156600000Y-95500000D01*
X156300000Y-108500000D02*
X156600000Y-108500000D01*
X156500000Y-108500000D02*
X156300000Y-108500000D01*
X156600000Y-94000000D02*
X156600000Y-110000000D01*
X159400000Y-94000000D02*
X156600000Y-94000000D01*
X159400000Y-108500000D02*
X159700000Y-108500000D01*
X159400000Y-110000000D02*
X156600000Y-110000000D01*
X159400000Y-110000000D02*
X159400000Y-94000000D01*
X159700000Y-95500000D02*
X159400000Y-95500000D01*
X158900000Y-95100000D02*
X157150000Y-95100000D01*
X157150000Y-108900000D01*
X158900000Y-108900000D01*
X158900000Y-95100000D01*
X159700000Y-93700000D02*
X156300000Y-93700000D01*
X156300000Y-110300000D01*
X159700000Y-110300000D01*
X159700000Y-93700000D01*
%TO.C,R1*%
X121375000Y-120830000D02*
X122425000Y-120830000D01*
X121375000Y-121370000D02*
X121375000Y-120830000D01*
X122425000Y-120830000D02*
X122425000Y-121370000D01*
X122425000Y-121370000D02*
X121375000Y-121370000D01*
%TO.C,H1*%
X112600000Y-90400000D02*
X133000000Y-90400000D01*
X133000000Y-98800000D01*
X112600000Y-98800000D01*
X112600000Y-90400000D01*
%TO.C,U1*%
X120750000Y-123750000D02*
X125650000Y-123750000D01*
X120750000Y-126675000D02*
X120750000Y-123750000D01*
X121725000Y-127650000D02*
X120750000Y-126675000D01*
X125650000Y-123750000D02*
X125650000Y-127650000D01*
X125650000Y-127650000D02*
X121725000Y-127650000D01*
%TO.C,R2*%
X124075000Y-118530000D02*
X125125000Y-118530000D01*
X124075000Y-119070000D02*
X124075000Y-118530000D01*
X125125000Y-118530000D02*
X125125000Y-119070000D01*
X125125000Y-119070000D02*
X124075000Y-119070000D01*
%TO.C,LD2*%
X200650000Y-125900000D02*
G75*
G02*
X195350000Y-125900000I-2650000J0D01*
G01*
X195350000Y-125900000D02*
G75*
G02*
X200650000Y-125900000I2650000J0D01*
G01*
%TO.C,C1*%
X119450000Y-125200000D02*
X119950000Y-125200000D01*
X119450000Y-126200000D02*
X119450000Y-125200000D01*
X119950000Y-125200000D02*
X119950000Y-126200000D01*
X119950000Y-126200000D02*
X119450000Y-126200000D01*
%TD*%
X186175000Y-131854870D02*
X189825000Y-136825000D01*
X186175000Y-136825000D02*
X189825000Y-131854870D01*
X196175000Y-131854870D02*
X199825000Y-136825000D01*
X196175000Y-136825000D02*
X199825000Y-131854870D01*
M02*
