%TF.GenerationSoftware,KiCad,Pcbnew,9.0.6*%
%TF.CreationDate,2026-03-23T09:38:18-04:00*%
%TF.ProjectId,ephys-test-module-64,65706879-732d-4746-9573-742d6d6f6475,F*%
%TF.SameCoordinates,PX66ff300PY82a7440*%
%TF.FileFunction,Legend,Bot*%
%TF.FilePolarity,Positive*%
%FSLAX46Y46*%
G04 Gerber Fmt 4.6, Leading zero omitted, Abs format (unit mm)*
G04 Created by KiCad (PCBNEW 9.0.6) date 2026-03-23 09:38:18*
%MOMM*%
%LPD*%
G01*
G04 APERTURE LIST*
G04 Aperture macros list*
%AMRoundRect*
0 Rectangle with rounded corners*
0 $1 Rounding radius*
0 $2 $3 $4 $5 $6 $7 $8 $9 X,Y pos of 4 corners*
0 Add a 4 corners polygon primitive as box body*
4,1,4,$2,$3,$4,$5,$6,$7,$8,$9,$2,$3,0*
0 Add four circle primitives for the rounded corners*
1,1,$1+$1,$2,$3*
1,1,$1+$1,$4,$5*
1,1,$1+$1,$6,$7*
1,1,$1+$1,$8,$9*
0 Add four rect primitives between the rounded corners*
20,1,$1+$1,$2,$3,$4,$5,0*
20,1,$1+$1,$4,$5,$6,$7,0*
20,1,$1+$1,$6,$7,$8,$9,0*
20,1,$1+$1,$8,$9,$2,$3,0*%
G04 Aperture macros list end*
%ADD10C,0.200000*%
%ADD11C,0.150000*%
%ADD12C,0.120000*%
%ADD13C,0.100000*%
%ADD14C,3.000000*%
%ADD15RoundRect,0.200000X-0.282843X0.000000X0.000000X-0.282843X0.282843X0.000000X0.000000X0.282843X0*%
%ADD16C,0.800000*%
%ADD17RoundRect,0.275000X-0.388909X0.000000X0.000000X-0.388909X0.388909X0.000000X0.000000X0.388909X0*%
%ADD18C,1.100000*%
%ADD19R,0.800000X0.300000*%
%ADD20C,1.020000*%
%ADD21R,2.273000X0.410000*%
%ADD22RoundRect,0.135000X-0.135000X-0.185000X0.135000X-0.185000X0.135000X0.185000X-0.135000X0.185000X0*%
G04 APERTURE END LIST*
D10*
X24640407Y13908996D02*
X25073740Y14528043D01*
X25383264Y13908996D02*
X25383264Y15208996D01*
X25383264Y15208996D02*
X24888026Y15208996D01*
X24888026Y15208996D02*
X24764216Y15147091D01*
X24764216Y15147091D02*
X24702311Y15085186D01*
X24702311Y15085186D02*
X24640407Y14961377D01*
X24640407Y14961377D02*
X24640407Y14775662D01*
X24640407Y14775662D02*
X24702311Y14651853D01*
X24702311Y14651853D02*
X24764216Y14589948D01*
X24764216Y14589948D02*
X24888026Y14528043D01*
X24888026Y14528043D02*
X25383264Y14528043D01*
X23588026Y13970900D02*
X23711835Y13908996D01*
X23711835Y13908996D02*
X23959454Y13908996D01*
X23959454Y13908996D02*
X24083264Y13970900D01*
X24083264Y13970900D02*
X24145168Y14094710D01*
X24145168Y14094710D02*
X24145168Y14589948D01*
X24145168Y14589948D02*
X24083264Y14713758D01*
X24083264Y14713758D02*
X23959454Y14775662D01*
X23959454Y14775662D02*
X23711835Y14775662D01*
X23711835Y14775662D02*
X23588026Y14713758D01*
X23588026Y14713758D02*
X23526121Y14589948D01*
X23526121Y14589948D02*
X23526121Y14466139D01*
X23526121Y14466139D02*
X24145168Y14342329D01*
X23092787Y14775662D02*
X22783263Y13908996D01*
X22783263Y13908996D02*
X22473740Y14775662D01*
X21978502Y14032805D02*
X21916597Y13970900D01*
X21916597Y13970900D02*
X21978502Y13908996D01*
X21978502Y13908996D02*
X22040406Y13970900D01*
X22040406Y13970900D02*
X21978502Y14032805D01*
X21978502Y14032805D02*
X21978502Y13908996D01*
X19935644Y14589948D02*
X20368978Y14589948D01*
X20368978Y13908996D02*
X20368978Y15208996D01*
X20368978Y15208996D02*
X19749930Y15208996D01*
D11*
X60490476Y36820181D02*
X60823809Y37296372D01*
X61061904Y36820181D02*
X61061904Y37820181D01*
X61061904Y37820181D02*
X60680952Y37820181D01*
X60680952Y37820181D02*
X60585714Y37772562D01*
X60585714Y37772562D02*
X60538095Y37724943D01*
X60538095Y37724943D02*
X60490476Y37629705D01*
X60490476Y37629705D02*
X60490476Y37486848D01*
X60490476Y37486848D02*
X60538095Y37391610D01*
X60538095Y37391610D02*
X60585714Y37343991D01*
X60585714Y37343991D02*
X60680952Y37296372D01*
X60680952Y37296372D02*
X61061904Y37296372D01*
X60061904Y36820181D02*
X60061904Y37820181D01*
X60061904Y37820181D02*
X59490476Y36820181D01*
X59490476Y36820181D02*
X59490476Y37820181D01*
X58871428Y37391610D02*
X58966666Y37439229D01*
X58966666Y37439229D02*
X59014285Y37486848D01*
X59014285Y37486848D02*
X59061904Y37582086D01*
X59061904Y37582086D02*
X59061904Y37629705D01*
X59061904Y37629705D02*
X59014285Y37724943D01*
X59014285Y37724943D02*
X58966666Y37772562D01*
X58966666Y37772562D02*
X58871428Y37820181D01*
X58871428Y37820181D02*
X58680952Y37820181D01*
X58680952Y37820181D02*
X58585714Y37772562D01*
X58585714Y37772562D02*
X58538095Y37724943D01*
X58538095Y37724943D02*
X58490476Y37629705D01*
X58490476Y37629705D02*
X58490476Y37582086D01*
X58490476Y37582086D02*
X58538095Y37486848D01*
X58538095Y37486848D02*
X58585714Y37439229D01*
X58585714Y37439229D02*
X58680952Y37391610D01*
X58680952Y37391610D02*
X58871428Y37391610D01*
X58871428Y37391610D02*
X58966666Y37343991D01*
X58966666Y37343991D02*
X59014285Y37296372D01*
X59014285Y37296372D02*
X59061904Y37201134D01*
X59061904Y37201134D02*
X59061904Y37010658D01*
X59061904Y37010658D02*
X59014285Y36915420D01*
X59014285Y36915420D02*
X58966666Y36867800D01*
X58966666Y36867800D02*
X58871428Y36820181D01*
X58871428Y36820181D02*
X58680952Y36820181D01*
X58680952Y36820181D02*
X58585714Y36867800D01*
X58585714Y36867800D02*
X58538095Y36915420D01*
X58538095Y36915420D02*
X58490476Y37010658D01*
X58490476Y37010658D02*
X58490476Y37201134D01*
X58490476Y37201134D02*
X58538095Y37296372D01*
X58538095Y37296372D02*
X58585714Y37343991D01*
X58585714Y37343991D02*
X58680952Y37391610D01*
X15533333Y17345181D02*
X15533333Y16630896D01*
X15533333Y16630896D02*
X15580952Y16488039D01*
X15580952Y16488039D02*
X15676190Y16392800D01*
X15676190Y16392800D02*
X15819047Y16345181D01*
X15819047Y16345181D02*
X15914285Y16345181D01*
X15104761Y17249943D02*
X15057142Y17297562D01*
X15057142Y17297562D02*
X14961904Y17345181D01*
X14961904Y17345181D02*
X14723809Y17345181D01*
X14723809Y17345181D02*
X14628571Y17297562D01*
X14628571Y17297562D02*
X14580952Y17249943D01*
X14580952Y17249943D02*
X14533333Y17154705D01*
X14533333Y17154705D02*
X14533333Y17059467D01*
X14533333Y17059467D02*
X14580952Y16916610D01*
X14580952Y16916610D02*
X15152380Y16345181D01*
X15152380Y16345181D02*
X14533333Y16345181D01*
X49266666Y23135181D02*
X49599999Y23611372D01*
X49838094Y23135181D02*
X49838094Y24135181D01*
X49838094Y24135181D02*
X49457142Y24135181D01*
X49457142Y24135181D02*
X49361904Y24087562D01*
X49361904Y24087562D02*
X49314285Y24039943D01*
X49314285Y24039943D02*
X49266666Y23944705D01*
X49266666Y23944705D02*
X49266666Y23801848D01*
X49266666Y23801848D02*
X49314285Y23706610D01*
X49314285Y23706610D02*
X49361904Y23658991D01*
X49361904Y23658991D02*
X49457142Y23611372D01*
X49457142Y23611372D02*
X49838094Y23611372D01*
X48409523Y23801848D02*
X48409523Y23135181D01*
X48647618Y24182800D02*
X48885713Y23468515D01*
X48885713Y23468515D02*
X48266666Y23468515D01*
X40690476Y32320181D02*
X41023809Y32796372D01*
X41261904Y32320181D02*
X41261904Y33320181D01*
X41261904Y33320181D02*
X40880952Y33320181D01*
X40880952Y33320181D02*
X40785714Y33272562D01*
X40785714Y33272562D02*
X40738095Y33224943D01*
X40738095Y33224943D02*
X40690476Y33129705D01*
X40690476Y33129705D02*
X40690476Y32986848D01*
X40690476Y32986848D02*
X40738095Y32891610D01*
X40738095Y32891610D02*
X40785714Y32843991D01*
X40785714Y32843991D02*
X40880952Y32796372D01*
X40880952Y32796372D02*
X41261904Y32796372D01*
X40261904Y32320181D02*
X40261904Y33320181D01*
X40261904Y33320181D02*
X39690476Y32320181D01*
X39690476Y32320181D02*
X39690476Y33320181D01*
X39261904Y33224943D02*
X39214285Y33272562D01*
X39214285Y33272562D02*
X39119047Y33320181D01*
X39119047Y33320181D02*
X38880952Y33320181D01*
X38880952Y33320181D02*
X38785714Y33272562D01*
X38785714Y33272562D02*
X38738095Y33224943D01*
X38738095Y33224943D02*
X38690476Y33129705D01*
X38690476Y33129705D02*
X38690476Y33034467D01*
X38690476Y33034467D02*
X38738095Y32891610D01*
X38738095Y32891610D02*
X39309523Y32320181D01*
X39309523Y32320181D02*
X38690476Y32320181D01*
X40690476Y36820181D02*
X41023809Y37296372D01*
X41261904Y36820181D02*
X41261904Y37820181D01*
X41261904Y37820181D02*
X40880952Y37820181D01*
X40880952Y37820181D02*
X40785714Y37772562D01*
X40785714Y37772562D02*
X40738095Y37724943D01*
X40738095Y37724943D02*
X40690476Y37629705D01*
X40690476Y37629705D02*
X40690476Y37486848D01*
X40690476Y37486848D02*
X40738095Y37391610D01*
X40738095Y37391610D02*
X40785714Y37343991D01*
X40785714Y37343991D02*
X40880952Y37296372D01*
X40880952Y37296372D02*
X41261904Y37296372D01*
X40261904Y36820181D02*
X40261904Y37820181D01*
X40261904Y37820181D02*
X39690476Y36820181D01*
X39690476Y36820181D02*
X39690476Y37820181D01*
X39309523Y37820181D02*
X38690476Y37820181D01*
X38690476Y37820181D02*
X39023809Y37439229D01*
X39023809Y37439229D02*
X38880952Y37439229D01*
X38880952Y37439229D02*
X38785714Y37391610D01*
X38785714Y37391610D02*
X38738095Y37343991D01*
X38738095Y37343991D02*
X38690476Y37248753D01*
X38690476Y37248753D02*
X38690476Y37010658D01*
X38690476Y37010658D02*
X38738095Y36915420D01*
X38738095Y36915420D02*
X38785714Y36867800D01*
X38785714Y36867800D02*
X38880952Y36820181D01*
X38880952Y36820181D02*
X39166666Y36820181D01*
X39166666Y36820181D02*
X39261904Y36867800D01*
X39261904Y36867800D02*
X39309523Y36915420D01*
X60490476Y27770181D02*
X60823809Y28246372D01*
X61061904Y27770181D02*
X61061904Y28770181D01*
X61061904Y28770181D02*
X60680952Y28770181D01*
X60680952Y28770181D02*
X60585714Y28722562D01*
X60585714Y28722562D02*
X60538095Y28674943D01*
X60538095Y28674943D02*
X60490476Y28579705D01*
X60490476Y28579705D02*
X60490476Y28436848D01*
X60490476Y28436848D02*
X60538095Y28341610D01*
X60538095Y28341610D02*
X60585714Y28293991D01*
X60585714Y28293991D02*
X60680952Y28246372D01*
X60680952Y28246372D02*
X61061904Y28246372D01*
X60061904Y27770181D02*
X60061904Y28770181D01*
X60061904Y28770181D02*
X59490476Y27770181D01*
X59490476Y27770181D02*
X59490476Y28770181D01*
X59109523Y28770181D02*
X58442857Y28770181D01*
X58442857Y28770181D02*
X58871428Y27770181D01*
X60490476Y32270181D02*
X60823809Y32746372D01*
X61061904Y32270181D02*
X61061904Y33270181D01*
X61061904Y33270181D02*
X60680952Y33270181D01*
X60680952Y33270181D02*
X60585714Y33222562D01*
X60585714Y33222562D02*
X60538095Y33174943D01*
X60538095Y33174943D02*
X60490476Y33079705D01*
X60490476Y33079705D02*
X60490476Y32936848D01*
X60490476Y32936848D02*
X60538095Y32841610D01*
X60538095Y32841610D02*
X60585714Y32793991D01*
X60585714Y32793991D02*
X60680952Y32746372D01*
X60680952Y32746372D02*
X61061904Y32746372D01*
X60061904Y32270181D02*
X60061904Y33270181D01*
X60061904Y33270181D02*
X59490476Y32270181D01*
X59490476Y32270181D02*
X59490476Y33270181D01*
X58538095Y33270181D02*
X59014285Y33270181D01*
X59014285Y33270181D02*
X59061904Y32793991D01*
X59061904Y32793991D02*
X59014285Y32841610D01*
X59014285Y32841610D02*
X58919047Y32889229D01*
X58919047Y32889229D02*
X58680952Y32889229D01*
X58680952Y32889229D02*
X58585714Y32841610D01*
X58585714Y32841610D02*
X58538095Y32793991D01*
X58538095Y32793991D02*
X58490476Y32698753D01*
X58490476Y32698753D02*
X58490476Y32460658D01*
X58490476Y32460658D02*
X58538095Y32365420D01*
X58538095Y32365420D02*
X58585714Y32317800D01*
X58585714Y32317800D02*
X58680952Y32270181D01*
X58680952Y32270181D02*
X58919047Y32270181D01*
X58919047Y32270181D02*
X59014285Y32317800D01*
X59014285Y32317800D02*
X59061904Y32365420D01*
X60490476Y41320181D02*
X60823809Y41796372D01*
X61061904Y41320181D02*
X61061904Y42320181D01*
X61061904Y42320181D02*
X60680952Y42320181D01*
X60680952Y42320181D02*
X60585714Y42272562D01*
X60585714Y42272562D02*
X60538095Y42224943D01*
X60538095Y42224943D02*
X60490476Y42129705D01*
X60490476Y42129705D02*
X60490476Y41986848D01*
X60490476Y41986848D02*
X60538095Y41891610D01*
X60538095Y41891610D02*
X60585714Y41843991D01*
X60585714Y41843991D02*
X60680952Y41796372D01*
X60680952Y41796372D02*
X61061904Y41796372D01*
X60061904Y41320181D02*
X60061904Y42320181D01*
X60061904Y42320181D02*
X59490476Y41320181D01*
X59490476Y41320181D02*
X59490476Y42320181D01*
X58585714Y42320181D02*
X58776190Y42320181D01*
X58776190Y42320181D02*
X58871428Y42272562D01*
X58871428Y42272562D02*
X58919047Y42224943D01*
X58919047Y42224943D02*
X59014285Y42082086D01*
X59014285Y42082086D02*
X59061904Y41891610D01*
X59061904Y41891610D02*
X59061904Y41510658D01*
X59061904Y41510658D02*
X59014285Y41415420D01*
X59014285Y41415420D02*
X58966666Y41367800D01*
X58966666Y41367800D02*
X58871428Y41320181D01*
X58871428Y41320181D02*
X58680952Y41320181D01*
X58680952Y41320181D02*
X58585714Y41367800D01*
X58585714Y41367800D02*
X58538095Y41415420D01*
X58538095Y41415420D02*
X58490476Y41510658D01*
X58490476Y41510658D02*
X58490476Y41748753D01*
X58490476Y41748753D02*
X58538095Y41843991D01*
X58538095Y41843991D02*
X58585714Y41891610D01*
X58585714Y41891610D02*
X58680952Y41939229D01*
X58680952Y41939229D02*
X58871428Y41939229D01*
X58871428Y41939229D02*
X58966666Y41891610D01*
X58966666Y41891610D02*
X59014285Y41843991D01*
X59014285Y41843991D02*
X59061904Y41748753D01*
X40690476Y41320181D02*
X41023809Y41796372D01*
X41261904Y41320181D02*
X41261904Y42320181D01*
X41261904Y42320181D02*
X40880952Y42320181D01*
X40880952Y42320181D02*
X40785714Y42272562D01*
X40785714Y42272562D02*
X40738095Y42224943D01*
X40738095Y42224943D02*
X40690476Y42129705D01*
X40690476Y42129705D02*
X40690476Y41986848D01*
X40690476Y41986848D02*
X40738095Y41891610D01*
X40738095Y41891610D02*
X40785714Y41843991D01*
X40785714Y41843991D02*
X40880952Y41796372D01*
X40880952Y41796372D02*
X41261904Y41796372D01*
X40261904Y41320181D02*
X40261904Y42320181D01*
X40261904Y42320181D02*
X39690476Y41320181D01*
X39690476Y41320181D02*
X39690476Y42320181D01*
X38785714Y41986848D02*
X38785714Y41320181D01*
X39023809Y42367800D02*
X39261904Y41653515D01*
X39261904Y41653515D02*
X38642857Y41653515D01*
X85533333Y17345181D02*
X85533333Y16630896D01*
X85533333Y16630896D02*
X85580952Y16488039D01*
X85580952Y16488039D02*
X85676190Y16392800D01*
X85676190Y16392800D02*
X85819047Y16345181D01*
X85819047Y16345181D02*
X85914285Y16345181D01*
X85152380Y17345181D02*
X84533333Y17345181D01*
X84533333Y17345181D02*
X84866666Y16964229D01*
X84866666Y16964229D02*
X84723809Y16964229D01*
X84723809Y16964229D02*
X84628571Y16916610D01*
X84628571Y16916610D02*
X84580952Y16868991D01*
X84580952Y16868991D02*
X84533333Y16773753D01*
X84533333Y16773753D02*
X84533333Y16535658D01*
X84533333Y16535658D02*
X84580952Y16440420D01*
X84580952Y16440420D02*
X84628571Y16392800D01*
X84628571Y16392800D02*
X84723809Y16345181D01*
X84723809Y16345181D02*
X85009523Y16345181D01*
X85009523Y16345181D02*
X85104761Y16392800D01*
X85104761Y16392800D02*
X85152380Y16440420D01*
X40690476Y27820181D02*
X41023809Y28296372D01*
X41261904Y27820181D02*
X41261904Y28820181D01*
X41261904Y28820181D02*
X40880952Y28820181D01*
X40880952Y28820181D02*
X40785714Y28772562D01*
X40785714Y28772562D02*
X40738095Y28724943D01*
X40738095Y28724943D02*
X40690476Y28629705D01*
X40690476Y28629705D02*
X40690476Y28486848D01*
X40690476Y28486848D02*
X40738095Y28391610D01*
X40738095Y28391610D02*
X40785714Y28343991D01*
X40785714Y28343991D02*
X40880952Y28296372D01*
X40880952Y28296372D02*
X41261904Y28296372D01*
X40261904Y27820181D02*
X40261904Y28820181D01*
X40261904Y28820181D02*
X39690476Y27820181D01*
X39690476Y27820181D02*
X39690476Y28820181D01*
X38690476Y27820181D02*
X39261904Y27820181D01*
X38976190Y27820181D02*
X38976190Y28820181D01*
X38976190Y28820181D02*
X39071428Y28677324D01*
X39071428Y28677324D02*
X39166666Y28582086D01*
X39166666Y28582086D02*
X39261904Y28534467D01*
D12*
%TO.C,RN8*%
X57100000Y39370000D02*
X56100000Y39370000D01*
X57100000Y35130000D02*
X56100000Y35130000D01*
D10*
%TO.C,J2*%
X11380500Y55635000D02*
X11380500Y53155000D01*
X11380500Y18365000D02*
X11380500Y20845000D01*
X13600000Y55635000D02*
X18619500Y55635000D01*
X13600000Y18365000D02*
X18619500Y18365000D01*
X18619500Y55635000D02*
X18619500Y53155000D01*
X18619500Y18365000D02*
X18619500Y20845000D01*
X19700000Y52600000D02*
G75*
G02*
X19500000Y52600000I-100000J0D01*
G01*
X19500000Y52600000D02*
G75*
G02*
X19700000Y52600000I100000J0D01*
G01*
D12*
%TO.C,R4*%
X48946359Y25580000D02*
X49253641Y25580000D01*
X48946359Y24820000D02*
X49253641Y24820000D01*
%TO.C,H1*%
D13*
X25400000Y13001152D02*
X5000000Y13001152D01*
X5000000Y4601152D01*
X25400000Y4601152D01*
X25400000Y13001152D01*
D12*
%TO.C,RN2*%
X43900000Y34870000D02*
X42900000Y34870000D01*
X43900000Y30630000D02*
X42900000Y30630000D01*
%TO.C,RN3*%
X43900000Y39370000D02*
X42900000Y39370000D01*
X43900000Y35130000D02*
X42900000Y35130000D01*
%TO.C,RN7*%
X57100000Y30320000D02*
X56100000Y30320000D01*
X57100000Y26080000D02*
X56100000Y26080000D01*
%TO.C,RN5*%
X57100000Y34820000D02*
X56100000Y34820000D01*
X57100000Y30580000D02*
X56100000Y30580000D01*
%TO.C,RN6*%
X57100000Y43870000D02*
X56100000Y43870000D01*
X57100000Y39630000D02*
X56100000Y39630000D01*
%TO.C,RN4*%
X43900000Y43870000D02*
X42900000Y43870000D01*
X43900000Y39630000D02*
X42900000Y39630000D01*
D10*
%TO.C,J3*%
X81380500Y55635000D02*
X81380500Y53155000D01*
X81380500Y18365000D02*
X81380500Y20845000D01*
X83600000Y55635000D02*
X88619500Y55635000D01*
X83600000Y18365000D02*
X88619500Y18365000D01*
X88619500Y55635000D02*
X88619500Y53155000D01*
X88619500Y18365000D02*
X88619500Y20845000D01*
X89700000Y52600000D02*
G75*
G02*
X89500000Y52600000I-100000J0D01*
G01*
X89500000Y52600000D02*
G75*
G02*
X89700000Y52600000I100000J0D01*
G01*
D12*
%TO.C,RN1*%
X43900000Y30370000D02*
X42900000Y30370000D01*
X43900000Y26130000D02*
X42900000Y26130000D01*
%TD*%
%LPC*%
D14*
%TO.C,TP1*%
X80000000Y2000000D03*
%TD*%
%TO.C,TP2*%
X90000000Y2000000D03*
%TD*%
D15*
%TO.C,LD1*%
X80000000Y11800000D03*
D16*
X79300000Y11100000D03*
X80000000Y10400000D03*
%TD*%
D17*
%TO.C,LD2*%
X90000000Y12100000D03*
D18*
X89000000Y11100000D03*
X90000000Y10100000D03*
%TD*%
D19*
%TO.C,RN8*%
X55700000Y35500000D03*
X55700000Y36000000D03*
X55700000Y36500000D03*
X55700000Y37000000D03*
X55700000Y37500000D03*
X55700000Y38000000D03*
X55700000Y38500000D03*
X55700000Y39000000D03*
X57500000Y39000000D03*
X57500000Y38500000D03*
X57500000Y38000000D03*
X57500000Y37500000D03*
X57500000Y37000000D03*
X57500000Y36500000D03*
X57500000Y36000000D03*
X57500000Y35500000D03*
%TD*%
D20*
%TO.C,J2*%
X12330000Y55065000D03*
X12330000Y18935000D03*
D21*
X17863500Y52600000D03*
X12136500Y52600000D03*
X17863500Y51800000D03*
X12136500Y51800000D03*
X17863500Y51000000D03*
X12136500Y51000000D03*
X17863500Y50200000D03*
X12136500Y50200000D03*
X17863500Y49400000D03*
X12136500Y49400000D03*
X17863500Y48600000D03*
X12136500Y48600000D03*
X17863500Y47800000D03*
X12136500Y47800000D03*
X17863500Y47000000D03*
X12136500Y47000000D03*
X17863500Y46200000D03*
X12136500Y46200000D03*
X17863500Y45400000D03*
X12136500Y45400000D03*
X17863500Y44600000D03*
X12136500Y44600000D03*
X17863500Y43800000D03*
X12136500Y43800000D03*
X17863500Y43000000D03*
X12136500Y43000000D03*
X17863500Y42200000D03*
X12136500Y42200000D03*
X17863500Y41400000D03*
X12136500Y41400000D03*
X17863500Y40600000D03*
X12136500Y40600000D03*
X17863500Y39800000D03*
X12136500Y39800000D03*
X17863500Y39000000D03*
X12136500Y39000000D03*
X17863500Y38200000D03*
X12136500Y38200000D03*
X17863500Y37400000D03*
X12136500Y37400000D03*
X17863500Y36600000D03*
X12136500Y36600000D03*
X17863500Y35800000D03*
X12136500Y35800000D03*
X17863500Y35000000D03*
X12136500Y35000000D03*
X17863500Y34200000D03*
X12136500Y34200000D03*
X17863500Y33400000D03*
X12136500Y33400000D03*
X17863500Y32600000D03*
X12136500Y32600000D03*
X17863500Y31800000D03*
X12136500Y31800000D03*
X17863500Y31000000D03*
X12136500Y31000000D03*
X17863500Y30200000D03*
X12136500Y30200000D03*
X17863500Y29400000D03*
X12136500Y29400000D03*
X17863500Y28600000D03*
X12136500Y28600000D03*
X17863500Y27800000D03*
X12136500Y27800000D03*
X17863500Y27000000D03*
X12136500Y27000000D03*
X17863500Y26200000D03*
X12136500Y26200000D03*
X17863500Y25400000D03*
X12136500Y25400000D03*
X17863500Y24600000D03*
X12136500Y24600000D03*
X17863500Y23800000D03*
X12136500Y23800000D03*
X17863500Y23000000D03*
X12136500Y23000000D03*
X17863500Y22200000D03*
X12136500Y22200000D03*
X17863500Y21400000D03*
X12136500Y21400000D03*
%TD*%
D22*
%TO.C,R4*%
X48590000Y25200000D03*
X49610000Y25200000D03*
%TD*%
D19*
%TO.C,RN2*%
X42500000Y31000000D03*
X42500000Y31500000D03*
X42500000Y32000000D03*
X42500000Y32500000D03*
X42500000Y33000000D03*
X42500000Y33500000D03*
X42500000Y34000000D03*
X42500000Y34500000D03*
X44300000Y34500000D03*
X44300000Y34000000D03*
X44300000Y33500000D03*
X44300000Y33000000D03*
X44300000Y32500000D03*
X44300000Y32000000D03*
X44300000Y31500000D03*
X44300000Y31000000D03*
%TD*%
%TO.C,RN3*%
X42500000Y35500000D03*
X42500000Y36000000D03*
X42500000Y36500000D03*
X42500000Y37000000D03*
X42500000Y37500000D03*
X42500000Y38000000D03*
X42500000Y38500000D03*
X42500000Y39000000D03*
X44300000Y39000000D03*
X44300000Y38500000D03*
X44300000Y38000000D03*
X44300000Y37500000D03*
X44300000Y37000000D03*
X44300000Y36500000D03*
X44300000Y36000000D03*
X44300000Y35500000D03*
%TD*%
%TO.C,RN7*%
X55700000Y26450000D03*
X55700000Y26950000D03*
X55700000Y27450000D03*
X55700000Y27950000D03*
X55700000Y28450000D03*
X55700000Y28950000D03*
X55700000Y29450000D03*
X55700000Y29950000D03*
X57500000Y29950000D03*
X57500000Y29450000D03*
X57500000Y28950000D03*
X57500000Y28450000D03*
X57500000Y27950000D03*
X57500000Y27450000D03*
X57500000Y26950000D03*
X57500000Y26450000D03*
%TD*%
%TO.C,RN5*%
X55700000Y30950000D03*
X55700000Y31450000D03*
X55700000Y31950000D03*
X55700000Y32450000D03*
X55700000Y32950000D03*
X55700000Y33450000D03*
X55700000Y33950000D03*
X55700000Y34450000D03*
X57500000Y34450000D03*
X57500000Y33950000D03*
X57500000Y33450000D03*
X57500000Y32950000D03*
X57500000Y32450000D03*
X57500000Y31950000D03*
X57500000Y31450000D03*
X57500000Y30950000D03*
%TD*%
%TO.C,RN6*%
X55700000Y40000000D03*
X55700000Y40500000D03*
X55700000Y41000000D03*
X55700000Y41500000D03*
X55700000Y42000000D03*
X55700000Y42500000D03*
X55700000Y43000000D03*
X55700000Y43500000D03*
X57500000Y43500000D03*
X57500000Y43000000D03*
X57500000Y42500000D03*
X57500000Y42000000D03*
X57500000Y41500000D03*
X57500000Y41000000D03*
X57500000Y40500000D03*
X57500000Y40000000D03*
%TD*%
%TO.C,RN4*%
X42500000Y40000000D03*
X42500000Y40500000D03*
X42500000Y41000000D03*
X42500000Y41500000D03*
X42500000Y42000000D03*
X42500000Y42500000D03*
X42500000Y43000000D03*
X42500000Y43500000D03*
X44300000Y43500000D03*
X44300000Y43000000D03*
X44300000Y42500000D03*
X44300000Y42000000D03*
X44300000Y41500000D03*
X44300000Y41000000D03*
X44300000Y40500000D03*
X44300000Y40000000D03*
%TD*%
D20*
%TO.C,J3*%
X82330000Y55065000D03*
X82330000Y18935000D03*
D21*
X87863500Y52600000D03*
X82136500Y52600000D03*
X87863500Y51800000D03*
X82136500Y51800000D03*
X87863500Y51000000D03*
X82136500Y51000000D03*
X87863500Y50200000D03*
X82136500Y50200000D03*
X87863500Y49400000D03*
X82136500Y49400000D03*
X87863500Y48600000D03*
X82136500Y48600000D03*
X87863500Y47800000D03*
X82136500Y47800000D03*
X87863500Y47000000D03*
X82136500Y47000000D03*
X87863500Y46200000D03*
X82136500Y46200000D03*
X87863500Y45400000D03*
X82136500Y45400000D03*
X87863500Y44600000D03*
X82136500Y44600000D03*
X87863500Y43800000D03*
X82136500Y43800000D03*
X87863500Y43000000D03*
X82136500Y43000000D03*
X87863500Y42200000D03*
X82136500Y42200000D03*
X87863500Y41400000D03*
X82136500Y41400000D03*
X87863500Y40600000D03*
X82136500Y40600000D03*
X87863500Y39800000D03*
X82136500Y39800000D03*
X87863500Y39000000D03*
X82136500Y39000000D03*
X87863500Y38200000D03*
X82136500Y38200000D03*
X87863500Y37400000D03*
X82136500Y37400000D03*
X87863500Y36600000D03*
X82136500Y36600000D03*
X87863500Y35800000D03*
X82136500Y35800000D03*
X87863500Y35000000D03*
X82136500Y35000000D03*
X87863500Y34200000D03*
X82136500Y34200000D03*
X87863500Y33400000D03*
X82136500Y33400000D03*
X87863500Y32600000D03*
X82136500Y32600000D03*
X87863500Y31800000D03*
X82136500Y31800000D03*
X87863500Y31000000D03*
X82136500Y31000000D03*
X87863500Y30200000D03*
X82136500Y30200000D03*
X87863500Y29400000D03*
X82136500Y29400000D03*
X87863500Y28600000D03*
X82136500Y28600000D03*
X87863500Y27800000D03*
X82136500Y27800000D03*
X87863500Y27000000D03*
X82136500Y27000000D03*
X87863500Y26200000D03*
X82136500Y26200000D03*
X87863500Y25400000D03*
X82136500Y25400000D03*
X87863500Y24600000D03*
X82136500Y24600000D03*
X87863500Y23800000D03*
X82136500Y23800000D03*
X87863500Y23000000D03*
X82136500Y23000000D03*
X87863500Y22200000D03*
X82136500Y22200000D03*
X87863500Y21400000D03*
X82136500Y21400000D03*
%TD*%
D19*
%TO.C,RN1*%
X42500000Y26500000D03*
X42500000Y27000000D03*
X42500000Y27500000D03*
X42500000Y28000000D03*
X42500000Y28500000D03*
X42500000Y29000000D03*
X42500000Y29500000D03*
X42500000Y30000000D03*
X44300000Y30000000D03*
X44300000Y29500000D03*
X44300000Y29000000D03*
X44300000Y28500000D03*
X44300000Y28000000D03*
X44300000Y27500000D03*
X44300000Y27000000D03*
X44300000Y26500000D03*
%TD*%
%LPD*%
M02*
