M48
; DRILL file {KiCad 9.0.3} date 2025-10-01T18:37:07-0400
; FORMAT={-:-/ absolute / metric / decimal}
; #@! TF.CreationDate,2025-10-01T18:37:07-04:00
; #@! TF.GenerationSoftware,Kicad,Pcbnew,9.0.3
; #@! TF.FileFunction,Plated,1,2,PTH
FMAT,2
METRIC
; #@! TA.AperFunction,Plated,PTH,ViaDrill
T1C0.200
; #@! TA.AperFunction,Plated,PTH,ComponentDrill
T2C0.450
; #@! TA.AperFunction,Plated,PTH,ComponentDrill
T3C0.700
; #@! TA.AperFunction,Plated,PTH,ComponentDrill
T4C2.800
%
G90
G05
T1
X113.1Y-94.4
X113.27Y-112.5
X113.5Y-81.7
X113.8Y-133.9
X118.1Y-116.1
X119.7Y-123.7
X119.7Y-124.2
X120.8Y-121.0
X122.2Y-119.6
X123.45Y-118.35
X125.1Y-119.7
X125.1Y-120.9
X125.863Y-116.536
X127.7Y-115.4
X128.9Y-99.6
X128.9Y-133.6
X129.0Y-92.4
X129.0Y-107.0
X133.6Y-117.0
X135.0Y-80.8
X138.7Y-106.8
X140.1Y-99.6
X141.4Y-92.5
X141.9Y-133.0
X148.1Y-112.9
X148.4Y-81.1
X149.375Y-122.707
X153.4Y-91.9
X154.02Y-114.223
X154.5Y-96.4
X154.5Y-97.2
X154.5Y-98.0
X154.5Y-98.8
X154.5Y-99.6
X154.5Y-100.4
X154.5Y-101.2
X154.5Y-102.0
X154.5Y-102.8
X154.5Y-103.6
X154.5Y-104.4
X154.5Y-105.2
X154.5Y-106.0
X154.5Y-106.8
X154.5Y-107.6
X154.5Y-108.4
X155.2Y-96.0
X155.2Y-96.8
X155.2Y-97.6
X155.2Y-98.4
X155.2Y-99.2
X155.2Y-100.0
X155.2Y-100.8
X155.2Y-101.6
X155.2Y-102.4
X155.2Y-103.2
X155.2Y-104.0
X155.2Y-104.8
X155.2Y-105.6
X155.2Y-106.4
X155.2Y-107.2
X155.2Y-108.0
X157.9Y-95.7
X158.0Y-106.3
X159.177Y-121.916
X159.4Y-113.2
X160.8Y-95.6
X160.8Y-96.4
X160.8Y-97.2
X160.8Y-98.0
X160.8Y-98.8
X160.8Y-99.6
X160.8Y-100.4
X160.8Y-101.2
X160.8Y-102.0
X160.8Y-102.8
X160.8Y-103.6
X160.8Y-104.4
X160.8Y-105.2
X160.8Y-106.0
X160.8Y-106.8
X160.8Y-107.6
X161.4Y-132.3
X161.5Y-96.0
X161.5Y-96.8
X161.5Y-97.6
X161.5Y-98.4
X161.5Y-99.2
X161.5Y-100.0
X161.5Y-100.8
X161.5Y-101.6
X161.5Y-102.4
X161.5Y-103.2
X161.5Y-104.0
X161.5Y-104.8
X161.5Y-105.6
X161.5Y-106.4
X161.5Y-107.2
X161.5Y-108.0
X161.9Y-92.5
X163.885Y-111.51
X166.8Y-111.7
X172.997Y-124.013
X174.067Y-80.222
X174.5Y-92.4
X175.3Y-106.8
X175.5Y-99.6
X175.981Y-114.462
X179.7Y-132.6
X184.3Y-116.5
X184.9Y-80.2
X187.2Y-99.6
X187.5Y-92.5
X187.5Y-106.8
X187.904Y-114.173
X188.054Y-115.836
X193.464Y-115.836
X193.9Y-134.7
X202.3Y-124.8
X202.9Y-91.1
X203.0Y-80.9
X203.2Y-107.5
T2
X152.3Y-86.0
X153.0Y-85.3
X153.0Y-86.7
T3
X163.0Y-85.0
X163.0Y-87.0
X164.0Y-86.0
T4
X153.0Y-80.0
X153.0Y-134.0
X163.0Y-80.0
X163.0Y-134.0
M30
