%TF.GenerationSoftware,KiCad,Pcbnew,9.0.0-rc1*%
%TF.CreationDate,2025-02-06T15:55:17-05:00*%
%TF.ProjectId,ephys-test-module-64,65706879-732d-4746-9573-742d6d6f6475,A*%
%TF.SameCoordinates,Original*%
%TF.FileFunction,Copper,L2,Bot*%
%TF.FilePolarity,Positive*%
%FSLAX46Y46*%
G04 Gerber Fmt 4.6, Leading zero omitted, Abs format (unit mm)*
G04 Created by KiCad (PCBNEW 9.0.0-rc1) date 2025-02-06 15:55:17*
%MOMM*%
%LPD*%
G01*
G04 APERTURE LIST*
G04 Aperture macros list*
%AMRoundRect*
0 Rectangle with rounded corners*
0 $1 Rounding radius*
0 $2 $3 $4 $5 $6 $7 $8 $9 X,Y pos of 4 corners*
0 Add a 4 corners polygon primitive as box body*
4,1,4,$2,$3,$4,$5,$6,$7,$8,$9,$2,$3,0*
0 Add four circle primitives for the rounded corners*
1,1,$1+$1,$2,$3*
1,1,$1+$1,$4,$5*
1,1,$1+$1,$6,$7*
1,1,$1+$1,$8,$9*
0 Add four rect primitives between the rounded corners*
20,1,$1+$1,$2,$3,$4,$5,0*
20,1,$1+$1,$4,$5,$6,$7,0*
20,1,$1+$1,$6,$7,$8,$9,0*
20,1,$1+$1,$8,$9,$2,$3,0*%
G04 Aperture macros list end*
%TA.AperFunction,SMDPad,CuDef*%
%ADD10R,2.273000X0.410000*%
%TD*%
%TA.AperFunction,ComponentPad*%
%ADD11C,2.800000*%
%TD*%
%TA.AperFunction,ComponentPad*%
%ADD12RoundRect,0.200000X-0.282843X0.000000X0.000000X-0.282843X0.282843X0.000000X0.000000X0.282843X0*%
%TD*%
%TA.AperFunction,ComponentPad*%
%ADD13C,0.800000*%
%TD*%
%TA.AperFunction,ComponentPad*%
%ADD14RoundRect,0.275000X0.388909X0.000000X0.000000X0.388909X-0.388909X0.000000X0.000000X-0.388909X0*%
%TD*%
%TA.AperFunction,ComponentPad*%
%ADD15C,1.100000*%
%TD*%
%TA.AperFunction,ViaPad*%
%ADD16C,0.400000*%
%TD*%
%TA.AperFunction,Conductor*%
%ADD17C,0.150000*%
%TD*%
%TA.AperFunction,Conductor*%
%ADD18C,0.400000*%
%TD*%
G04 APERTURE END LIST*
D10*
%TO.P,J3,1,Pin_1*%
%TO.N,GND*%
X195863500Y-84400000D03*
%TO.P,J3,2,Pin_2*%
X190136500Y-84400000D03*
%TO.P,J3,3,Pin_3*%
X195863500Y-85200000D03*
%TO.P,J3,4,Pin_4*%
X190136500Y-85200000D03*
%TO.P,J3,5,Pin_5*%
%TO.N,/Headstage Interface/B12.E_{0}*%
X195863500Y-86000000D03*
%TO.P,J3,6,Pin_6*%
%TO.N,/Headstage Interface/B8.E_{0}*%
X190136500Y-86000000D03*
%TO.P,J3,7,Pin_7*%
%TO.N,/Headstage Interface/B12.E_{1}*%
X195863500Y-86800000D03*
%TO.P,J3,8,Pin_8*%
%TO.N,/Headstage Interface/B8.E_{1}*%
X190136500Y-86800000D03*
%TO.P,J3,9,Pin_9*%
%TO.N,/Headstage Interface/B12.E_{2}*%
X195863500Y-87600000D03*
%TO.P,J3,10,Pin_10*%
%TO.N,/Headstage Interface/B8.E_{2}*%
X190136500Y-87600000D03*
%TO.P,J3,11,Pin_11*%
%TO.N,/Headstage Interface/B12.E_{3}*%
X195863500Y-88400000D03*
%TO.P,J3,12,Pin_12*%
%TO.N,/Headstage Interface/B8.E_{3}*%
X190136500Y-88400000D03*
%TO.P,J3,13,Pin_13*%
%TO.N,/Headstage Interface/B12.E_{4}*%
X195863500Y-89200000D03*
%TO.P,J3,14,Pin_14*%
%TO.N,/Headstage Interface/B8.E_{4}*%
X190136500Y-89200000D03*
%TO.P,J3,15,Pin_15*%
%TO.N,/Headstage Interface/B12.E_{5}*%
X195863500Y-90000000D03*
%TO.P,J3,16,Pin_16*%
%TO.N,/Headstage Interface/B8.E_{5}*%
X190136500Y-90000000D03*
%TO.P,J3,17,Pin_17*%
%TO.N,/Headstage Interface/B12.E_{6}*%
X195863500Y-90800000D03*
%TO.P,J3,18,Pin_18*%
%TO.N,/Headstage Interface/B8.E_{6}*%
X190136500Y-90800000D03*
%TO.P,J3,19,Pin_19*%
%TO.N,/Headstage Interface/B12.E_{7}*%
X195863500Y-91600000D03*
%TO.P,J3,20,Pin_20*%
%TO.N,/Headstage Interface/B8.E_{7}*%
X190136500Y-91600000D03*
%TO.P,J3,21,Pin_21*%
%TO.N,GND*%
X195863500Y-92400000D03*
%TO.P,J3,22,Pin_22*%
X190136500Y-92400000D03*
%TO.P,J3,23,Pin_23*%
%TO.N,/Headstage Interface/B13.E_{0}*%
X195863500Y-93200000D03*
%TO.P,J3,24,Pin_24*%
%TO.N,/Headstage Interface/B9.E_{0}*%
X190136500Y-93200000D03*
%TO.P,J3,25,Pin_25*%
%TO.N,/Headstage Interface/B13.E_{1}*%
X195863500Y-94000000D03*
%TO.P,J3,26,Pin_26*%
%TO.N,/Headstage Interface/B9.E_{1}*%
X190136500Y-94000000D03*
%TO.P,J3,27,Pin_27*%
%TO.N,/Headstage Interface/B13.E_{2}*%
X195863500Y-94800000D03*
%TO.P,J3,28,Pin_28*%
%TO.N,/Headstage Interface/B9.E_{2}*%
X190136500Y-94800000D03*
%TO.P,J3,29,Pin_29*%
%TO.N,/Headstage Interface/B13.E_{3}*%
X195863500Y-95600000D03*
%TO.P,J3,30,Pin_30*%
%TO.N,/Headstage Interface/B9.E_{3}*%
X190136500Y-95600000D03*
%TO.P,J3,31,Pin_31*%
%TO.N,/Headstage Interface/B13.E_{4}*%
X195863500Y-96400000D03*
%TO.P,J3,32,Pin_32*%
%TO.N,/Headstage Interface/B9.E_{4}*%
X190136500Y-96400000D03*
%TO.P,J3,33,Pin_33*%
%TO.N,/Headstage Interface/B13.E_{5}*%
X195863500Y-97200000D03*
%TO.P,J3,34,Pin_34*%
%TO.N,/Headstage Interface/B9.E_{5}*%
X190136500Y-97200000D03*
%TO.P,J3,35,Pin_35*%
%TO.N,/Headstage Interface/B13.E_{6}*%
X195863500Y-98000000D03*
%TO.P,J3,36,Pin_36*%
%TO.N,/Headstage Interface/B9.E_{6}*%
X190136500Y-98000000D03*
%TO.P,J3,37,Pin_37*%
%TO.N,/Headstage Interface/B13.E_{7}*%
X195863500Y-98800000D03*
%TO.P,J3,38,Pin_38*%
%TO.N,/Headstage Interface/B9.E_{7}*%
X190136500Y-98800000D03*
%TO.P,J3,39,Pin_39*%
%TO.N,GND*%
X195863500Y-99600000D03*
%TO.P,J3,40,Pin_40*%
X190136500Y-99600000D03*
%TO.P,J3,41,Pin_41*%
%TO.N,/Headstage Interface/B14.E_{0}*%
X195863500Y-100400000D03*
%TO.P,J3,42,Pin_42*%
%TO.N,/Headstage Interface/B10.E_{0}*%
X190136500Y-100400000D03*
%TO.P,J3,43,Pin_43*%
%TO.N,/Headstage Interface/B14.E_{1}*%
X195863500Y-101200000D03*
%TO.P,J3,44,Pin_44*%
%TO.N,/Headstage Interface/B10.E_{1}*%
X190136500Y-101200000D03*
%TO.P,J3,45,Pin_45*%
%TO.N,/Headstage Interface/B14.E_{2}*%
X195863500Y-102000000D03*
%TO.P,J3,46,Pin_46*%
%TO.N,/Headstage Interface/B10.E_{2}*%
X190136500Y-102000000D03*
%TO.P,J3,47,Pin_47*%
%TO.N,/Headstage Interface/B14.E_{3}*%
X195863500Y-102800000D03*
%TO.P,J3,48,Pin_48*%
%TO.N,/Headstage Interface/B10.E_{3}*%
X190136500Y-102800000D03*
%TO.P,J3,49,Pin_49*%
%TO.N,/Headstage Interface/B14.E_{4}*%
X195863500Y-103600000D03*
%TO.P,J3,50,Pin_50*%
%TO.N,/Headstage Interface/B10.E_{4}*%
X190136500Y-103600000D03*
%TO.P,J3,51,Pin_51*%
%TO.N,/Headstage Interface/B14.E_{5}*%
X195863500Y-104400000D03*
%TO.P,J3,52,Pin_52*%
%TO.N,/Headstage Interface/B10.E_{5}*%
X190136500Y-104400000D03*
%TO.P,J3,53,Pin_53*%
%TO.N,/Headstage Interface/B14.E_{6}*%
X195863500Y-105200000D03*
%TO.P,J3,54,Pin_54*%
%TO.N,/Headstage Interface/B10.E_{6}*%
X190136500Y-105200000D03*
%TO.P,J3,55,Pin_55*%
%TO.N,/Headstage Interface/B14.E_{7}*%
X195863500Y-106000000D03*
%TO.P,J3,56,Pin_56*%
%TO.N,/Headstage Interface/B10.E_{7}*%
X190136500Y-106000000D03*
%TO.P,J3,57,Pin_57*%
%TO.N,GND*%
X195863500Y-106800000D03*
%TO.P,J3,58,Pin_58*%
X190136500Y-106800000D03*
%TO.P,J3,59,Pin_59*%
%TO.N,/Headstage Interface/B15.E_{0}*%
X195863500Y-107600000D03*
%TO.P,J3,60,Pin_60*%
%TO.N,/Headstage Interface/B11.E_{0}*%
X190136500Y-107600000D03*
%TO.P,J3,61,Pin_61*%
%TO.N,/Headstage Interface/B15.E_{1}*%
X195863500Y-108400000D03*
%TO.P,J3,62,Pin_62*%
%TO.N,/Headstage Interface/B11.E_{1}*%
X190136500Y-108400000D03*
%TO.P,J3,63,Pin_63*%
%TO.N,/Headstage Interface/B15.E_{2}*%
X195863500Y-109200000D03*
%TO.P,J3,64,Pin_64*%
%TO.N,/Headstage Interface/B11.E_{2}*%
X190136500Y-109200000D03*
%TO.P,J3,65,Pin_65*%
%TO.N,/Headstage Interface/B15.E_{3}*%
X195863500Y-110000000D03*
%TO.P,J3,66,Pin_66*%
%TO.N,/Headstage Interface/B11.E_{3}*%
X190136500Y-110000000D03*
%TO.P,J3,67,Pin_67*%
%TO.N,/Headstage Interface/B15.E_{4}*%
X195863500Y-110800000D03*
%TO.P,J3,68,Pin_68*%
%TO.N,/Headstage Interface/B11.E_{4}*%
X190136500Y-110800000D03*
%TO.P,J3,69,Pin_69*%
%TO.N,/Headstage Interface/B15.E_{5}*%
X195863500Y-111600000D03*
%TO.P,J3,70,Pin_70*%
%TO.N,/Headstage Interface/B11.E_{5}*%
X190136500Y-111600000D03*
%TO.P,J3,71,Pin_71*%
%TO.N,/Headstage Interface/B15.E_{6}*%
X195863500Y-112400000D03*
%TO.P,J3,72,Pin_72*%
%TO.N,/Headstage Interface/B11.E_{6}*%
X190136500Y-112400000D03*
%TO.P,J3,73,Pin_73*%
%TO.N,/Headstage Interface/B15.E_{7}*%
X195863500Y-113200000D03*
%TO.P,J3,74,Pin_74*%
%TO.N,/Headstage Interface/B11.E_{7}*%
X190136500Y-113200000D03*
%TO.P,J3,75,Pin_75*%
%TO.N,GND*%
X195863500Y-114000000D03*
%TO.P,J3,76,Pin_76*%
X190136500Y-114000000D03*
%TO.P,J3,77,Pin_77*%
X195863500Y-114800000D03*
%TO.P,J3,78,Pin_78*%
X190136500Y-114800000D03*
%TO.P,J3,79,Pin_79*%
X195863500Y-115600000D03*
%TO.P,J3,80,Pin_80*%
X190136500Y-115600000D03*
%TD*%
%TO.P,J2,1,Pin_1*%
%TO.N,GND*%
X125863500Y-84400000D03*
%TO.P,J2,2,Pin_2*%
X120136500Y-84400000D03*
%TO.P,J2,3,Pin_3*%
X125863500Y-85200000D03*
%TO.P,J2,4,Pin_4*%
X120136500Y-85200000D03*
%TO.P,J2,5,Pin_5*%
%TO.N,/Headstage Interface/B4.E_{0}*%
X125863500Y-86000000D03*
%TO.P,J2,6,Pin_6*%
%TO.N,/Headstage Interface/B0.E_{0}*%
X120136500Y-86000000D03*
%TO.P,J2,7,Pin_7*%
%TO.N,/Headstage Interface/B4.E_{1}*%
X125863500Y-86800000D03*
%TO.P,J2,8,Pin_8*%
%TO.N,/Headstage Interface/B0.E_{1}*%
X120136500Y-86800000D03*
%TO.P,J2,9,Pin_9*%
%TO.N,/Headstage Interface/B4.E_{2}*%
X125863500Y-87600000D03*
%TO.P,J2,10,Pin_10*%
%TO.N,/Headstage Interface/B0.E_{2}*%
X120136500Y-87600000D03*
%TO.P,J2,11,Pin_11*%
%TO.N,/Headstage Interface/B4.E_{3}*%
X125863500Y-88400000D03*
%TO.P,J2,12,Pin_12*%
%TO.N,/Headstage Interface/B0.E_{3}*%
X120136500Y-88400000D03*
%TO.P,J2,13,Pin_13*%
%TO.N,/Headstage Interface/B4.E_{4}*%
X125863500Y-89200000D03*
%TO.P,J2,14,Pin_14*%
%TO.N,/Headstage Interface/B0.E_{4}*%
X120136500Y-89200000D03*
%TO.P,J2,15,Pin_15*%
%TO.N,/Headstage Interface/B4.E_{5}*%
X125863500Y-90000000D03*
%TO.P,J2,16,Pin_16*%
%TO.N,/Headstage Interface/B0.E_{5}*%
X120136500Y-90000000D03*
%TO.P,J2,17,Pin_17*%
%TO.N,/Headstage Interface/B4.E_{6}*%
X125863500Y-90800000D03*
%TO.P,J2,18,Pin_18*%
%TO.N,/Headstage Interface/B0.E_{6}*%
X120136500Y-90800000D03*
%TO.P,J2,19,Pin_19*%
%TO.N,/Headstage Interface/B4.E_{7}*%
X125863500Y-91600000D03*
%TO.P,J2,20,Pin_20*%
%TO.N,/Headstage Interface/B0.E_{7}*%
X120136500Y-91600000D03*
%TO.P,J2,21,Pin_21*%
%TO.N,GND*%
X125863500Y-92400000D03*
%TO.P,J2,22,Pin_22*%
X120136500Y-92400000D03*
%TO.P,J2,23,Pin_23*%
%TO.N,/Headstage Interface/B5.E_{0}*%
X125863500Y-93200000D03*
%TO.P,J2,24,Pin_24*%
%TO.N,/Headstage Interface/B1.E_{0}*%
X120136500Y-93200000D03*
%TO.P,J2,25,Pin_25*%
%TO.N,/Headstage Interface/B5.E_{1}*%
X125863500Y-94000000D03*
%TO.P,J2,26,Pin_26*%
%TO.N,/Headstage Interface/B1.E_{1}*%
X120136500Y-94000000D03*
%TO.P,J2,27,Pin_27*%
%TO.N,/Headstage Interface/B5.E_{2}*%
X125863500Y-94800000D03*
%TO.P,J2,28,Pin_28*%
%TO.N,/Headstage Interface/B1.E_{2}*%
X120136500Y-94800000D03*
%TO.P,J2,29,Pin_29*%
%TO.N,/Headstage Interface/B5.E_{3}*%
X125863500Y-95600000D03*
%TO.P,J2,30,Pin_30*%
%TO.N,/Headstage Interface/B1.E_{3}*%
X120136500Y-95600000D03*
%TO.P,J2,31,Pin_31*%
%TO.N,/Headstage Interface/B5.E_{4}*%
X125863500Y-96400000D03*
%TO.P,J2,32,Pin_32*%
%TO.N,/Headstage Interface/B1.E_{4}*%
X120136500Y-96400000D03*
%TO.P,J2,33,Pin_33*%
%TO.N,/Headstage Interface/B5.E_{5}*%
X125863500Y-97200000D03*
%TO.P,J2,34,Pin_34*%
%TO.N,/Headstage Interface/B1.E_{5}*%
X120136500Y-97200000D03*
%TO.P,J2,35,Pin_35*%
%TO.N,/Headstage Interface/B5.E_{6}*%
X125863500Y-98000000D03*
%TO.P,J2,36,Pin_36*%
%TO.N,/Headstage Interface/B1.E_{6}*%
X120136500Y-98000000D03*
%TO.P,J2,37,Pin_37*%
%TO.N,/Headstage Interface/B5.E_{7}*%
X125863500Y-98800000D03*
%TO.P,J2,38,Pin_38*%
%TO.N,/Headstage Interface/B1.E_{7}*%
X120136500Y-98800000D03*
%TO.P,J2,39,Pin_39*%
%TO.N,GND*%
X125863500Y-99600000D03*
%TO.P,J2,40,Pin_40*%
X120136500Y-99600000D03*
%TO.P,J2,41,Pin_41*%
%TO.N,/Headstage Interface/B6.E_{0}*%
X125863500Y-100400000D03*
%TO.P,J2,42,Pin_42*%
%TO.N,/Headstage Interface/B2.E_{0}*%
X120136500Y-100400000D03*
%TO.P,J2,43,Pin_43*%
%TO.N,/Headstage Interface/B6.E_{1}*%
X125863500Y-101200000D03*
%TO.P,J2,44,Pin_44*%
%TO.N,/Headstage Interface/B2.E_{1}*%
X120136500Y-101200000D03*
%TO.P,J2,45,Pin_45*%
%TO.N,/Headstage Interface/B6.E_{2}*%
X125863500Y-102000000D03*
%TO.P,J2,46,Pin_46*%
%TO.N,/Headstage Interface/B2.E_{2}*%
X120136500Y-102000000D03*
%TO.P,J2,47,Pin_47*%
%TO.N,/Headstage Interface/B6.E_{3}*%
X125863500Y-102800000D03*
%TO.P,J2,48,Pin_48*%
%TO.N,/Headstage Interface/B2.E_{3}*%
X120136500Y-102800000D03*
%TO.P,J2,49,Pin_49*%
%TO.N,/Headstage Interface/B6.E_{4}*%
X125863500Y-103600000D03*
%TO.P,J2,50,Pin_50*%
%TO.N,/Headstage Interface/B2.E_{4}*%
X120136500Y-103600000D03*
%TO.P,J2,51,Pin_51*%
%TO.N,/Headstage Interface/B6.E_{5}*%
X125863500Y-104400000D03*
%TO.P,J2,52,Pin_52*%
%TO.N,/Headstage Interface/B2.E_{5}*%
X120136500Y-104400000D03*
%TO.P,J2,53,Pin_53*%
%TO.N,/Headstage Interface/B6.E_{6}*%
X125863500Y-105200000D03*
%TO.P,J2,54,Pin_54*%
%TO.N,/Headstage Interface/B2.E_{6}*%
X120136500Y-105200000D03*
%TO.P,J2,55,Pin_55*%
%TO.N,/Headstage Interface/B6.E_{7}*%
X125863500Y-106000000D03*
%TO.P,J2,56,Pin_56*%
%TO.N,/Headstage Interface/B2.E_{7}*%
X120136500Y-106000000D03*
%TO.P,J2,57,Pin_57*%
%TO.N,GND*%
X125863500Y-106800000D03*
%TO.P,J2,58,Pin_58*%
X120136500Y-106800000D03*
%TO.P,J2,59,Pin_59*%
%TO.N,/Headstage Interface/B7.E_{0}*%
X125863500Y-107600000D03*
%TO.P,J2,60,Pin_60*%
%TO.N,/Headstage Interface/B3.E_{0}*%
X120136500Y-107600000D03*
%TO.P,J2,61,Pin_61*%
%TO.N,/Headstage Interface/B7.E_{1}*%
X125863500Y-108400000D03*
%TO.P,J2,62,Pin_62*%
%TO.N,/Headstage Interface/B3.E_{1}*%
X120136500Y-108400000D03*
%TO.P,J2,63,Pin_63*%
%TO.N,/Headstage Interface/B7.E_{2}*%
X125863500Y-109200000D03*
%TO.P,J2,64,Pin_64*%
%TO.N,/Headstage Interface/B3.E_{2}*%
X120136500Y-109200000D03*
%TO.P,J2,65,Pin_65*%
%TO.N,/Headstage Interface/B7.E_{3}*%
X125863500Y-110000000D03*
%TO.P,J2,66,Pin_66*%
%TO.N,/Headstage Interface/B3.E_{3}*%
X120136500Y-110000000D03*
%TO.P,J2,67,Pin_67*%
%TO.N,/Headstage Interface/B7.E_{4}*%
X125863500Y-110800000D03*
%TO.P,J2,68,Pin_68*%
%TO.N,/Headstage Interface/B3.E_{4}*%
X120136500Y-110800000D03*
%TO.P,J2,69,Pin_69*%
%TO.N,/Headstage Interface/B7.E_{5}*%
X125863500Y-111600000D03*
%TO.P,J2,70,Pin_70*%
%TO.N,/Headstage Interface/B3.E_{5}*%
X120136500Y-111600000D03*
%TO.P,J2,71,Pin_71*%
%TO.N,/Headstage Interface/B7.E_{6}*%
X125863500Y-112400000D03*
%TO.P,J2,72,Pin_72*%
%TO.N,/Headstage Interface/B3.E_{6}*%
X120136500Y-112400000D03*
%TO.P,J2,73,Pin_73*%
%TO.N,/Headstage Interface/B7.E_{7}*%
X125863500Y-113200000D03*
%TO.P,J2,74,Pin_74*%
%TO.N,/Headstage Interface/B3.E_{7}*%
X120136500Y-113200000D03*
%TO.P,J2,75,Pin_75*%
%TO.N,GND*%
X125863500Y-114000000D03*
%TO.P,J2,76,Pin_76*%
X120136500Y-114000000D03*
%TO.P,J2,77,Pin_77*%
%TO.N,/Test Signal Interface/SCL*%
X125863500Y-114800000D03*
%TO.P,J2,78,Pin_78*%
%TO.N,GND*%
X120136500Y-114800000D03*
%TO.P,J2,79,Pin_79*%
%TO.N,/Test Signal Interface/SDA*%
X125863500Y-115600000D03*
%TO.P,J2,80,Pin_80*%
%TO.N,VCC*%
X120136500Y-115600000D03*
%TD*%
D11*
%TO.P,TP1,1,1*%
%TO.N,/Headstage Interface/E_{stim}*%
X153000000Y-135000000D03*
%TD*%
%TO.P,TP2,1,1*%
%TO.N,GND*%
X163000000Y-135000000D03*
%TD*%
%TO.P,TP4,1,1*%
%TO.N,GND*%
X163000000Y-79000000D03*
%TD*%
D12*
%TO.P,LD1,1,A*%
%TO.N,/Headstage Interface/A*%
X153000000Y-85300000D03*
D13*
%TO.P,LD1,2,NC*%
%TO.N,unconnected-(LD1-NC-Pad2)*%
X152300000Y-86000000D03*
%TO.P,LD1,3,C*%
%TO.N,/Headstage Interface/K_{0}*%
X153000000Y-86700000D03*
%TD*%
D14*
%TO.P,LD2,1,A*%
%TO.N,/Headstage Interface/A*%
X163000000Y-87000000D03*
D15*
%TO.P,LD2,2,NC*%
%TO.N,unconnected-(LD2-NC-Pad2)*%
X164000000Y-86000000D03*
%TO.P,LD2,3,C*%
%TO.N,/Headstage Interface/K_{1}*%
X163000000Y-85000000D03*
%TD*%
D11*
%TO.P,TP3,1,1*%
%TO.N,/Headstage Interface/A*%
X153000000Y-79000000D03*
%TD*%
D16*
%TO.N,GND*%
X157900000Y-95700000D03*
X202300000Y-124800000D03*
X175500000Y-99600000D03*
X113500000Y-81700000D03*
X128900000Y-99600000D03*
X113269807Y-112500000D03*
X153400000Y-91900000D03*
X133600000Y-117000000D03*
X161400000Y-132300000D03*
X187500000Y-92500000D03*
X135000000Y-80800000D03*
X166800000Y-111700000D03*
X148400000Y-81100000D03*
X113800000Y-133900000D03*
X138700000Y-106800000D03*
X187200000Y-99600000D03*
X179700000Y-132600000D03*
X203200000Y-107500000D03*
X141400000Y-92500000D03*
X152000000Y-122200000D03*
X175300000Y-106800000D03*
X187500000Y-106800000D03*
X140100000Y-99600000D03*
X128900000Y-133600000D03*
X113100000Y-94400000D03*
X158000000Y-106300000D03*
X159400000Y-113200000D03*
X203000000Y-80900000D03*
X174500000Y-92400000D03*
X193900000Y-134700000D03*
X148100000Y-112900000D03*
X184300000Y-116500000D03*
X202900000Y-91100000D03*
X129000000Y-107000000D03*
X129000000Y-92400000D03*
X184900000Y-80200000D03*
X174067445Y-80221652D03*
X161900000Y-92500000D03*
X141900000Y-133000000D03*
%TO.N,VCC*%
X131900000Y-126000000D03*
X129250000Y-123350000D03*
X135100000Y-127100000D03*
X134600000Y-127100000D03*
X130500000Y-124600000D03*
%TO.N,/Headstage Interface/B7.E_{7}*%
X154500000Y-108400000D03*
%TO.N,/Headstage Interface/B5.E_{0}*%
X155200000Y-99200000D03*
%TO.N,/Headstage Interface/B5.E_{2}*%
X155200000Y-100000000D03*
%TO.N,/Headstage Interface/B7.E_{3}*%
X154500000Y-106800000D03*
%TO.N,/Headstage Interface/B7.E_{1}*%
X154500000Y-106000000D03*
%TO.N,/Headstage Interface/B5.E_{5}*%
X154500000Y-101200000D03*
%TO.N,/Headstage Interface/B4.E_{7}*%
X154500000Y-98800000D03*
%TO.N,/Headstage Interface/B4.E_{5}*%
X154500000Y-98000000D03*
%TO.N,/Headstage Interface/B4.E_{2}*%
X155200000Y-96800000D03*
%TO.N,/Headstage Interface/B6.E_{2}*%
X155200000Y-103200000D03*
%TO.N,/Headstage Interface/B4.E_{3}*%
X154500000Y-97200000D03*
%TO.N,/Headstage Interface/B7.E_{5}*%
X154500000Y-107600000D03*
%TO.N,/Headstage Interface/B7.E_{0}*%
X155200000Y-105600000D03*
%TO.N,/Headstage Interface/B7.E_{4}*%
X155200000Y-107200000D03*
%TO.N,/Headstage Interface/B4.E_{6}*%
X155200000Y-98400000D03*
%TO.N,/Headstage Interface/B6.E_{5}*%
X154500000Y-104400000D03*
%TO.N,/Headstage Interface/B7.E_{6}*%
X155200000Y-108000000D03*
%TO.N,/Headstage Interface/B7.E_{2}*%
X155200000Y-106400000D03*
%TO.N,/Headstage Interface/B5.E_{7}*%
X154500000Y-102000000D03*
%TO.N,/Headstage Interface/B6.E_{7}*%
X154500000Y-105200000D03*
%TO.N,/Headstage Interface/B6.E_{0}*%
X155200000Y-102400000D03*
%TO.N,/Headstage Interface/B5.E_{1}*%
X154500000Y-99600000D03*
%TO.N,/Headstage Interface/B4.E_{4}*%
X155200000Y-97600000D03*
%TO.N,/Headstage Interface/B4.E_{0}*%
X155200000Y-96000000D03*
%TO.N,/Headstage Interface/B6.E_{6}*%
X155200000Y-104800000D03*
%TO.N,/Headstage Interface/B6.E_{1}*%
X154500000Y-102800000D03*
%TO.N,/Headstage Interface/B5.E_{6}*%
X155200000Y-101600000D03*
%TO.N,/Headstage Interface/B6.E_{4}*%
X155200000Y-104000000D03*
%TO.N,/Headstage Interface/B5.E_{4}*%
X155200000Y-100800000D03*
%TO.N,/Headstage Interface/B5.E_{3}*%
X154500000Y-100400000D03*
%TO.N,/Headstage Interface/B4.E_{1}*%
X154500000Y-96400000D03*
%TO.N,/Headstage Interface/B6.E_{3}*%
X154500000Y-103600000D03*
%TO.N,/Headstage Interface/B8.E_{2}*%
X160800000Y-96400000D03*
%TO.N,/Test Signal Interface/SDA*%
X127700000Y-115600000D03*
%TO.N,/Headstage Interface/B10.E_{4}*%
X160800000Y-103600000D03*
%TO.N,/Headstage Interface/B8.E_{7}*%
X161500000Y-98400000D03*
%TO.N,/Test Signal Interface/SCL*%
X127700000Y-114800000D03*
X130900000Y-121200000D03*
X130900000Y-122300000D03*
%TO.N,/Headstage Interface/B8.E_{3}*%
X161500000Y-96800000D03*
%TO.N,/Headstage Interface/B11.E_{5}*%
X161500000Y-107200000D03*
%TO.N,/Headstage Interface/B8.E_{4}*%
X160800000Y-97200000D03*
%TO.N,/Headstage Interface/B9.E_{1}*%
X161500000Y-99200000D03*
%TO.N,/Headstage Interface/B8.E_{0}*%
X160800000Y-95600000D03*
%TO.N,/Headstage Interface/B9.E_{0}*%
X160800000Y-98800000D03*
%TO.N,/Headstage Interface/B9.E_{5}*%
X161500000Y-100800000D03*
%TO.N,/Headstage Interface/B10.E_{3}*%
X161500000Y-103200000D03*
%TO.N,/Headstage Interface/B11.E_{4}*%
X160800000Y-106800000D03*
%TO.N,/Headstage Interface/B10.E_{1}*%
X161500000Y-102400000D03*
%TO.N,/Headstage Interface/B10.E_{2}*%
X160800000Y-102800000D03*
%TO.N,/Headstage Interface/B10.E_{7}*%
X161500000Y-104800000D03*
%TO.N,/Headstage Interface/B9.E_{3}*%
X161500000Y-100000000D03*
%TO.N,/Headstage Interface/B9.E_{4}*%
X160800000Y-100400000D03*
%TO.N,/Headstage Interface/B11.E_{0}*%
X160800000Y-105200000D03*
%TO.N,/Headstage Interface/B11.E_{6}*%
X160800000Y-107600000D03*
%TO.N,/Headstage Interface/B9.E_{6}*%
X160800000Y-101200000D03*
%TO.N,/Headstage Interface/B8.E_{1}*%
X161500000Y-96000000D03*
%TO.N,/Headstage Interface/B11.E_{1}*%
X161500000Y-105600000D03*
%TO.N,/Headstage Interface/B8.E_{6}*%
X160800000Y-98000000D03*
%TO.N,/Headstage Interface/B11.E_{3}*%
X161500000Y-106400000D03*
%TO.N,/Headstage Interface/B9.E_{7}*%
X161500000Y-101600000D03*
%TO.N,/Headstage Interface/B9.E_{2}*%
X160800000Y-99600000D03*
%TO.N,/Headstage Interface/B8.E_{5}*%
X161500000Y-97600000D03*
%TO.N,/Headstage Interface/B11.E_{7}*%
X161500000Y-108000000D03*
%TO.N,/Headstage Interface/B10.E_{6}*%
X160800000Y-104400000D03*
%TO.N,/Headstage Interface/B10.E_{0}*%
X160800000Y-102000000D03*
%TO.N,/Headstage Interface/B10.E_{5}*%
X161500000Y-104000000D03*
%TO.N,/Headstage Interface/B11.E_{2}*%
X160800000Y-106000000D03*
%TD*%
D17*
%TO.N,/Headstage Interface/B10.E_{2}*%
X174150000Y-102000000D02*
X190136500Y-102000000D01*
X173350000Y-102800000D02*
X174150000Y-102000000D01*
X160800000Y-102800000D02*
X173350000Y-102800000D01*
%TO.N,/Headstage Interface/B10.E_{1}*%
X174316748Y-101200000D02*
X190136500Y-101200000D01*
X173116748Y-102400000D02*
X174316748Y-101200000D01*
X161500000Y-102400000D02*
X173116748Y-102400000D01*
D18*
%TO.N,VCC*%
X135100000Y-127100000D02*
X133000000Y-127100000D01*
X129250000Y-123350000D02*
X121500000Y-115600000D01*
X133000000Y-127100000D02*
X131900000Y-126000000D01*
X131900000Y-126000000D02*
X130500000Y-124600000D01*
X121500000Y-115600000D02*
X120136500Y-115600000D01*
X129250000Y-123350000D02*
X130500000Y-124600000D01*
D17*
%TO.N,/Headstage Interface/B7.E_{7}*%
X141700000Y-113200000D02*
X125863500Y-113200000D01*
X146500000Y-108400000D02*
X141700000Y-113200000D01*
X154500000Y-108400000D02*
X146500000Y-108400000D01*
%TO.N,/Headstage Interface/B5.E_{0}*%
X149312824Y-99200000D02*
X143312824Y-93200000D01*
X155200000Y-99200000D02*
X149312824Y-99200000D01*
X143312824Y-93200000D02*
X125863500Y-93200000D01*
%TO.N,/Headstage Interface/B5.E_{2}*%
X155200000Y-100000000D02*
X147900000Y-100000000D01*
X147900000Y-100000000D02*
X142700000Y-94800000D01*
X142700000Y-94800000D02*
X125863500Y-94800000D01*
%TO.N,/Headstage Interface/B7.E_{3}*%
X125863500Y-110000000D02*
X140999998Y-110000000D01*
X140999998Y-110000000D02*
X144199998Y-106800000D01*
X144199998Y-106800000D02*
X154500000Y-106800000D01*
%TO.N,/Headstage Interface/B7.E_{1}*%
X143000000Y-106000000D02*
X154500000Y-106000000D01*
X125863500Y-108400000D02*
X140600000Y-108400000D01*
X140600000Y-108400000D02*
X143000000Y-106000000D01*
%TO.N,/Headstage Interface/B5.E_{5}*%
X145800000Y-101200000D02*
X141800000Y-97200000D01*
X154500000Y-101200000D02*
X145800000Y-101200000D01*
X141800000Y-97200000D02*
X125863500Y-97200000D01*
%TO.N,/Headstage Interface/B4.E_{7}*%
X142712824Y-91600000D02*
X125863500Y-91600000D01*
X149912824Y-98800000D02*
X142712824Y-91600000D01*
X154500000Y-98800000D02*
X149912824Y-98800000D01*
%TO.N,/Headstage Interface/B4.E_{5}*%
X143400002Y-90000000D02*
X125863500Y-90000000D01*
X154500000Y-98000000D02*
X151400002Y-98000000D01*
X151400002Y-98000000D02*
X143400002Y-90000000D01*
%TO.N,/Headstage Interface/B4.E_{2}*%
X144400002Y-87600000D02*
X153600002Y-96800000D01*
X125863500Y-87600000D02*
X144400002Y-87600000D01*
X153600002Y-96800000D02*
X155200000Y-96800000D01*
%TO.N,/Headstage Interface/B6.E_{2}*%
X155200000Y-103200000D02*
X142900000Y-103200000D01*
X141700000Y-102000000D02*
X125863500Y-102000000D01*
X142900000Y-103200000D02*
X141700000Y-102000000D01*
%TO.N,/Headstage Interface/B4.E_{3}*%
X152800002Y-97200000D02*
X154500000Y-97200000D01*
X125863500Y-88400000D02*
X144000002Y-88400000D01*
X144000002Y-88400000D02*
X152800002Y-97200000D01*
%TO.N,/Headstage Interface/B7.E_{5}*%
X125863500Y-111600000D02*
X141400000Y-111600000D01*
X141400000Y-111600000D02*
X145400000Y-107600000D01*
X145400000Y-107600000D02*
X154500000Y-107600000D01*
%TO.N,/Headstage Interface/B7.E_{0}*%
X154500000Y-105600000D02*
X155200000Y-105600000D01*
X140599998Y-107600000D02*
X142595998Y-105604000D01*
X142595998Y-105604000D02*
X154496000Y-105604000D01*
X154496000Y-105604000D02*
X154500000Y-105600000D01*
X125863500Y-107600000D02*
X140599998Y-107600000D01*
%TO.N,/Headstage Interface/B7.E_{4}*%
X154664029Y-107204000D02*
X154680014Y-107219986D01*
X154680014Y-107219986D02*
X154700000Y-107200000D01*
X125863500Y-110800000D02*
X141400000Y-110800000D01*
X141400000Y-110800000D02*
X144996000Y-107204000D01*
X144996000Y-107204000D02*
X154664029Y-107204000D01*
X154700000Y-107200000D02*
X155200000Y-107200000D01*
%TO.N,/Headstage Interface/B4.E_{6}*%
X150700004Y-98400000D02*
X155200000Y-98400000D01*
X125863500Y-90800000D02*
X143100004Y-90800000D01*
X143100004Y-90800000D02*
X150700004Y-98400000D01*
%TO.N,/Headstage Interface/B6.E_{5}*%
X154500000Y-104400000D02*
X125863500Y-104400000D01*
%TO.N,/Headstage Interface/B7.E_{6}*%
X125863500Y-112400000D02*
X125931750Y-112468250D01*
X125931750Y-112468250D02*
X141531750Y-112468250D01*
X154500000Y-108000000D02*
X155200000Y-108000000D01*
X145996000Y-108004000D02*
X154496000Y-108004000D01*
X154496000Y-108004000D02*
X154500000Y-108000000D01*
X141531750Y-112468250D02*
X145996000Y-108004000D01*
%TO.N,/Headstage Interface/B7.E_{2}*%
X140800000Y-109200000D02*
X125863500Y-109200000D01*
X143600000Y-106400000D02*
X140800000Y-109200000D01*
X155200000Y-106400000D02*
X143600000Y-106400000D01*
%TO.N,/Headstage Interface/B5.E_{7}*%
X141600002Y-98800000D02*
X125863500Y-98800000D01*
X144800002Y-102000000D02*
X141600002Y-98800000D01*
X154500000Y-102000000D02*
X144800002Y-102000000D01*
%TO.N,/Headstage Interface/B6.E_{7}*%
X125863500Y-106000000D02*
X141200000Y-106000000D01*
X141200000Y-106000000D02*
X142000000Y-105200000D01*
X142000000Y-105200000D02*
X154500000Y-105200000D01*
%TO.N,/Headstage Interface/B6.E_{0}*%
X144300002Y-102400000D02*
X142300002Y-100400000D01*
X142300002Y-100400000D02*
X125863500Y-100400000D01*
X155200000Y-102400000D02*
X144300002Y-102400000D01*
%TO.N,/Headstage Interface/B5.E_{1}*%
X143012826Y-94000000D02*
X125863500Y-94000000D01*
X148612826Y-99600000D02*
X143012826Y-94000000D01*
X154500000Y-99600000D02*
X148612826Y-99600000D01*
%TO.N,/Headstage Interface/B4.E_{4}*%
X152100004Y-97600000D02*
X143700004Y-89200000D01*
X143700004Y-89200000D02*
X125863500Y-89200000D01*
X155200000Y-97600000D02*
X152100004Y-97600000D01*
%TO.N,/Headstage Interface/B4.E_{0}*%
X155200000Y-96000000D02*
X145200000Y-86000000D01*
X145200000Y-86000000D02*
X125863500Y-86000000D01*
D18*
%TO.N,/Headstage Interface/A*%
X153000000Y-85300000D02*
X157000000Y-85300000D01*
X157000000Y-85300000D02*
X158700000Y-87000000D01*
D17*
X153000000Y-79000000D02*
X153000000Y-85300000D01*
D18*
X158700000Y-87000000D02*
X163000000Y-87000000D01*
D17*
%TO.N,/Headstage Interface/B6.E_{6}*%
X154680014Y-104819986D02*
X154664029Y-104804000D01*
X154700000Y-104800000D02*
X154680014Y-104819986D01*
X155200000Y-104800000D02*
X154700000Y-104800000D01*
X141496000Y-104804000D02*
X141100000Y-105200000D01*
X154664029Y-104804000D02*
X141496000Y-104804000D01*
X141100000Y-105200000D02*
X125863500Y-105200000D01*
%TO.N,/Headstage Interface/B6.E_{1}*%
X154500000Y-102800000D02*
X143600000Y-102800000D01*
X142000000Y-101200000D02*
X125863500Y-101200000D01*
X143600000Y-102800000D02*
X142000000Y-101200000D01*
%TO.N,/Headstage Interface/B5.E_{6}*%
X141700002Y-98000000D02*
X125863500Y-98000000D01*
X145300002Y-101600000D02*
X141700002Y-98000000D01*
X155200000Y-101600000D02*
X145300002Y-101600000D01*
%TO.N,/Headstage Interface/B6.E_{4}*%
X141100000Y-103600000D02*
X125863500Y-103600000D01*
X155200000Y-104000000D02*
X141500000Y-104000000D01*
X141500000Y-104000000D02*
X141100000Y-103600000D01*
%TO.N,/Headstage Interface/B5.E_{4}*%
X146500002Y-100800000D02*
X155200000Y-100800000D01*
X142100002Y-96400000D02*
X146500002Y-100800000D01*
X125863500Y-96400000D02*
X142100002Y-96400000D01*
%TO.N,/Headstage Interface/B5.E_{3}*%
X154500000Y-100400000D02*
X147200002Y-100400000D01*
X142400002Y-95600000D02*
X125863500Y-95600000D01*
X147200002Y-100400000D02*
X142400002Y-95600000D01*
%TO.N,/Headstage Interface/B4.E_{1}*%
X144900000Y-86800000D02*
X125863500Y-86800000D01*
X154500000Y-96400000D02*
X144900000Y-86800000D01*
%TO.N,/Headstage Interface/B6.E_{3}*%
X142199998Y-103600000D02*
X141399998Y-102800000D01*
X154500000Y-103600000D02*
X142199998Y-103600000D01*
X141399998Y-102800000D02*
X125863500Y-102800000D01*
%TO.N,/Headstage Interface/B8.E_{2}*%
X163400000Y-96400000D02*
X172200000Y-87600000D01*
X160800000Y-96400000D02*
X163400000Y-96400000D01*
X172200000Y-87600000D02*
X190136500Y-87600000D01*
%TO.N,/Test Signal Interface/SDA*%
X127700000Y-115600000D02*
X125863500Y-115600000D01*
%TO.N,/Headstage Interface/B10.E_{4}*%
X160800000Y-103600000D02*
X190136500Y-103600000D01*
%TO.N,/Headstage Interface/B8.E_{7}*%
X166800000Y-98400000D02*
X173600000Y-91600000D01*
X173600000Y-91600000D02*
X190136500Y-91600000D01*
X161500000Y-98400000D02*
X166800000Y-98400000D01*
%TO.N,/Test Signal Interface/SCL*%
X125863500Y-114800000D02*
X127700000Y-114800000D01*
X130900000Y-121200000D02*
X130900000Y-122300000D01*
%TO.N,/Headstage Interface/B8.E_{3}*%
X161500000Y-96800000D02*
X164000000Y-96800000D01*
X172400000Y-88400000D02*
X190136500Y-88400000D01*
X164000000Y-96800000D02*
X172400000Y-88400000D01*
%TO.N,/Headstage Interface/B11.E_{5}*%
X172900000Y-111600000D02*
X190136500Y-111600000D01*
X161500000Y-107200000D02*
X168500000Y-107200000D01*
X168500000Y-107200000D02*
X172900000Y-111600000D01*
%TO.N,/Headstage Interface/B8.E_{4}*%
X160800000Y-97200000D02*
X164500000Y-97200000D01*
X164500000Y-97200000D02*
X172500000Y-89200000D01*
X172500000Y-89200000D02*
X190136500Y-89200000D01*
%TO.N,/Headstage Interface/B9.E_{1}*%
X168100000Y-99200000D02*
X173300000Y-94000000D01*
X173300000Y-94000000D02*
X190136500Y-94000000D01*
X161500000Y-99200000D02*
X168100000Y-99200000D01*
%TO.N,/Headstage Interface/B8.E_{0}*%
X161300000Y-95600000D02*
X161319986Y-95580014D01*
X171900000Y-86000000D02*
X190136500Y-86000000D01*
X161319986Y-95580014D02*
X161335971Y-95596000D01*
X160800000Y-95600000D02*
X161300000Y-95600000D01*
X161335971Y-95596000D02*
X162304000Y-95596000D01*
X162304000Y-95596000D02*
X171900000Y-86000000D01*
%TO.N,/Headstage Interface/B9.E_{0}*%
X173200000Y-93200000D02*
X190136500Y-93200000D01*
X167600000Y-98800000D02*
X173200000Y-93200000D01*
X160800000Y-98800000D02*
X167600000Y-98800000D01*
%TO.N,/Headstage Interface/B9.E_{5}*%
X161500000Y-100800000D02*
X170500000Y-100800000D01*
X174100000Y-97200000D02*
X190136500Y-97200000D01*
X170500000Y-100800000D02*
X174100000Y-97200000D01*
%TO.N,/Headstage Interface/B10.E_{3}*%
X161500000Y-103200000D02*
X173500000Y-103200000D01*
X173500000Y-103200000D02*
X173900000Y-102800000D01*
X173900000Y-102800000D02*
X190136500Y-102800000D01*
%TO.N,/Headstage Interface/B11.E_{4}*%
X169204000Y-106804000D02*
X173200000Y-110800000D01*
X173200000Y-110800000D02*
X190136500Y-110800000D01*
X161500000Y-106800000D02*
X161504000Y-106804000D01*
X160800000Y-106800000D02*
X161500000Y-106800000D01*
X161504000Y-106804000D02*
X169204000Y-106804000D01*
%TO.N,/Headstage Interface/B10.E_{7}*%
X173600000Y-106000000D02*
X190136500Y-106000000D01*
X172400000Y-104800000D02*
X173600000Y-106000000D01*
X161500000Y-104800000D02*
X172400000Y-104800000D01*
%TO.N,/Headstage Interface/B9.E_{3}*%
X161500000Y-100000000D02*
X169000000Y-100000000D01*
X173400000Y-95600000D02*
X190136500Y-95600000D01*
X169000000Y-100000000D02*
X173400000Y-95600000D01*
%TO.N,/Headstage Interface/B9.E_{4}*%
X169600000Y-100400000D02*
X173600000Y-96400000D01*
X160800000Y-100400000D02*
X169600000Y-100400000D01*
X173600000Y-96400000D02*
X190136500Y-96400000D01*
%TO.N,/Headstage Interface/B11.E_{0}*%
X160800000Y-105200000D02*
X171700000Y-105200000D01*
X174100000Y-107600000D02*
X190136500Y-107600000D01*
X171700000Y-105200000D02*
X174100000Y-107600000D01*
%TO.N,/Headstage Interface/B11.E_{6}*%
X160800000Y-107600000D02*
X168000000Y-107600000D01*
X172800000Y-112400000D02*
X190136500Y-112400000D01*
X168000000Y-107600000D02*
X172800000Y-112400000D01*
%TO.N,/Headstage Interface/B9.E_{6}*%
X160800000Y-101200000D02*
X171100000Y-101200000D01*
X174300000Y-98000000D02*
X190136500Y-98000000D01*
X171100000Y-101200000D02*
X174300000Y-98000000D01*
%TO.N,/Headstage Interface/B8.E_{1}*%
X162800000Y-96000000D02*
X172000000Y-86800000D01*
X172000000Y-86800000D02*
X190136500Y-86800000D01*
X161500000Y-96000000D02*
X162800000Y-96000000D01*
%TO.N,/Headstage Interface/B11.E_{1}*%
X171300000Y-105600000D02*
X174100000Y-108400000D01*
X174100000Y-108400000D02*
X190136500Y-108400000D01*
X161500000Y-105600000D02*
X171300000Y-105600000D01*
%TO.N,/Headstage Interface/B8.E_{6}*%
X173300000Y-90800000D02*
X190136500Y-90800000D01*
X160800000Y-98000000D02*
X166100000Y-98000000D01*
X166100000Y-98000000D02*
X173300000Y-90800000D01*
%TO.N,/Headstage Interface/B11.E_{3}*%
X169900000Y-106400000D02*
X173500000Y-110000000D01*
X161500000Y-106400000D02*
X169900000Y-106400000D01*
X173500000Y-110000000D02*
X190136500Y-110000000D01*
%TO.N,/Headstage Interface/B9.E_{7}*%
X171600000Y-101600000D02*
X174400000Y-98800000D01*
X161500000Y-101600000D02*
X171600000Y-101600000D01*
X174400000Y-98800000D02*
X190136500Y-98800000D01*
%TO.N,/Headstage Interface/B9.E_{2}*%
X160800000Y-99600000D02*
X168500000Y-99600000D01*
X168500000Y-99600000D02*
X173300000Y-94800000D01*
X173300000Y-94800000D02*
X190136500Y-94800000D01*
%TO.N,/Headstage Interface/B8.E_{5}*%
X172800000Y-90000000D02*
X190136500Y-90000000D01*
X161500000Y-97600000D02*
X165200000Y-97600000D01*
X165200000Y-97600000D02*
X172800000Y-90000000D01*
%TO.N,/Headstage Interface/B11.E_{7}*%
X161500000Y-108000000D02*
X167600000Y-108000000D01*
X167600000Y-108000000D02*
X172800000Y-113200000D01*
X172800000Y-113200000D02*
X190136500Y-113200000D01*
%TO.N,/Headstage Interface/B10.E_{6}*%
X160800000Y-104400000D02*
X172900000Y-104400000D01*
X173700000Y-105200000D02*
X190136500Y-105200000D01*
X172900000Y-104400000D02*
X173700000Y-105200000D01*
%TO.N,/Headstage Interface/B10.E_{0}*%
X173800000Y-100400000D02*
X190136500Y-100400000D01*
X160800000Y-102000000D02*
X172200000Y-102000000D01*
X172200000Y-102000000D02*
X173800000Y-100400000D01*
%TO.N,/Headstage Interface/B10.E_{5}*%
X173400000Y-104000000D02*
X173800000Y-104400000D01*
X173800000Y-104400000D02*
X190136500Y-104400000D01*
X161500000Y-104000000D02*
X173400000Y-104000000D01*
%TO.N,/Headstage Interface/B11.E_{2}*%
X160800000Y-106000000D02*
X170500000Y-106000000D01*
X173700000Y-109200000D02*
X190136500Y-109200000D01*
X170500000Y-106000000D02*
X173700000Y-109200000D01*
%TD*%
%TA.AperFunction,Conductor*%
%TO.N,GND*%
G36*
X205002065Y-77150615D02*
G01*
X205314905Y-77168184D01*
X205323141Y-77169113D01*
X205629975Y-77221246D01*
X205638058Y-77223091D01*
X205937147Y-77309256D01*
X205944960Y-77311990D01*
X206125477Y-77386763D01*
X206232511Y-77431098D01*
X206239987Y-77434698D01*
X206512398Y-77585254D01*
X206519412Y-77589662D01*
X206713263Y-77727207D01*
X206773239Y-77769762D01*
X206779726Y-77774934D01*
X207011807Y-77982334D01*
X207017665Y-77988192D01*
X207172233Y-78161154D01*
X207225064Y-78220272D01*
X207230237Y-78226760D01*
X207410333Y-78480581D01*
X207414749Y-78487608D01*
X207565301Y-78760012D01*
X207568901Y-78767488D01*
X207688005Y-79055029D01*
X207690746Y-79062862D01*
X207776907Y-79361937D01*
X207778753Y-79370027D01*
X207830885Y-79676852D01*
X207831815Y-79685099D01*
X207849384Y-79997934D01*
X207849500Y-80002083D01*
X207849500Y-133997916D01*
X207849384Y-134002065D01*
X207831815Y-134314900D01*
X207830885Y-134323147D01*
X207778753Y-134629972D01*
X207776907Y-134638062D01*
X207690746Y-134937137D01*
X207688005Y-134944970D01*
X207568901Y-135232511D01*
X207565301Y-135239987D01*
X207414749Y-135512391D01*
X207410333Y-135519418D01*
X207230237Y-135773239D01*
X207225064Y-135779727D01*
X207017670Y-136011802D01*
X207011802Y-136017670D01*
X206779727Y-136225064D01*
X206773239Y-136230237D01*
X206519418Y-136410333D01*
X206512391Y-136414749D01*
X206239987Y-136565301D01*
X206232511Y-136568901D01*
X205944970Y-136688005D01*
X205937137Y-136690746D01*
X205638062Y-136776907D01*
X205629972Y-136778753D01*
X205323147Y-136830885D01*
X205314900Y-136831815D01*
X205002066Y-136849384D01*
X204997917Y-136849500D01*
X111002083Y-136849500D01*
X110997934Y-136849384D01*
X110685099Y-136831815D01*
X110676852Y-136830885D01*
X110370027Y-136778753D01*
X110361937Y-136776907D01*
X110062862Y-136690746D01*
X110055029Y-136688005D01*
X109767488Y-136568901D01*
X109760012Y-136565301D01*
X109487608Y-136414749D01*
X109480581Y-136410333D01*
X109422144Y-136368870D01*
X109298109Y-136280862D01*
X109226760Y-136230237D01*
X109220272Y-136225064D01*
X109106394Y-136123297D01*
X108988192Y-136017665D01*
X108982334Y-136011807D01*
X108774934Y-135779726D01*
X108769762Y-135773239D01*
X108755759Y-135753503D01*
X108589662Y-135519412D01*
X108585254Y-135512398D01*
X108434698Y-135239987D01*
X108431098Y-135232511D01*
X108363346Y-135068944D01*
X108311990Y-134944960D01*
X108309256Y-134937147D01*
X108291074Y-134874036D01*
X151399500Y-134874036D01*
X151399500Y-135125963D01*
X151438909Y-135374782D01*
X151438912Y-135374795D01*
X151516756Y-135614373D01*
X151631129Y-135838845D01*
X151779203Y-136042651D01*
X151779207Y-136042656D01*
X151957344Y-136220793D01*
X151957347Y-136220795D01*
X151957348Y-136220796D01*
X152161154Y-136368870D01*
X152242531Y-136410333D01*
X152385621Y-136483241D01*
X152385623Y-136483241D01*
X152385626Y-136483243D01*
X152625204Y-136561087D01*
X152625210Y-136561088D01*
X152625215Y-136561090D01*
X152749626Y-136580795D01*
X152874036Y-136600500D01*
X152874038Y-136600500D01*
X153125964Y-136600500D01*
X153225491Y-136584736D01*
X153374785Y-136561090D01*
X153374792Y-136561087D01*
X153374795Y-136561087D01*
X153614373Y-136483243D01*
X153614373Y-136483242D01*
X153614379Y-136483241D01*
X153838845Y-136368870D01*
X154042656Y-136220793D01*
X154220793Y-136042656D01*
X154368870Y-135838845D01*
X154483241Y-135614379D01*
X154561090Y-135374785D01*
X154600500Y-135125962D01*
X154600500Y-134888577D01*
X161300000Y-134888577D01*
X161300000Y-135111422D01*
X161329086Y-135332365D01*
X161386763Y-135547618D01*
X161472043Y-135753500D01*
X161472045Y-135753503D01*
X161583467Y-135946495D01*
X161719134Y-136123297D01*
X161727207Y-136131370D01*
X162438681Y-135419894D01*
X162456274Y-135446224D01*
X162553776Y-135543726D01*
X162580103Y-135561317D01*
X161868629Y-136272792D01*
X161876702Y-136280865D01*
X162053504Y-136416532D01*
X162246496Y-136527954D01*
X162246499Y-136527956D01*
X162452381Y-136613236D01*
X162667635Y-136670913D01*
X162667633Y-136670913D01*
X162888578Y-136700000D01*
X163111422Y-136700000D01*
X163332365Y-136670913D01*
X163547618Y-136613236D01*
X163753500Y-136527956D01*
X163753503Y-136527954D01*
X163946495Y-136416532D01*
X164123291Y-136280870D01*
X164123301Y-136280862D01*
X164131370Y-136272792D01*
X163419895Y-135561317D01*
X163446224Y-135543726D01*
X163543726Y-135446224D01*
X163561317Y-135419895D01*
X164272792Y-136131370D01*
X164280862Y-136123301D01*
X164280870Y-136123291D01*
X164416532Y-135946495D01*
X164527954Y-135753503D01*
X164527956Y-135753500D01*
X164613236Y-135547618D01*
X164670913Y-135332365D01*
X164700000Y-135111422D01*
X164700000Y-134888577D01*
X164670913Y-134667634D01*
X164613236Y-134452381D01*
X164527956Y-134246499D01*
X164527954Y-134246496D01*
X164416532Y-134053504D01*
X164280865Y-133876702D01*
X164272792Y-133868629D01*
X163561317Y-134580103D01*
X163543726Y-134553776D01*
X163446224Y-134456274D01*
X163419894Y-134438681D01*
X164131370Y-133727207D01*
X164123297Y-133719134D01*
X163946495Y-133583467D01*
X163753503Y-133472045D01*
X163753500Y-133472043D01*
X163547618Y-133386763D01*
X163332364Y-133329086D01*
X163332366Y-133329086D01*
X163111422Y-133300000D01*
X162888578Y-133300000D01*
X162667634Y-133329086D01*
X162452381Y-133386763D01*
X162246499Y-133472043D01*
X162246496Y-133472045D01*
X162053504Y-133583467D01*
X161876707Y-133719129D01*
X161876706Y-133719131D01*
X161868629Y-133727207D01*
X162580104Y-134438682D01*
X162553776Y-134456274D01*
X162456274Y-134553776D01*
X162438682Y-134580104D01*
X161727207Y-133868629D01*
X161719131Y-133876706D01*
X161719129Y-133876707D01*
X161583467Y-134053504D01*
X161472045Y-134246496D01*
X161472043Y-134246499D01*
X161386763Y-134452381D01*
X161329086Y-134667634D01*
X161300000Y-134888577D01*
X154600500Y-134888577D01*
X154600500Y-134874038D01*
X154591391Y-134816529D01*
X154567934Y-134668426D01*
X154561090Y-134625215D01*
X154561088Y-134625210D01*
X154561087Y-134625204D01*
X154483243Y-134385626D01*
X154483241Y-134385623D01*
X154483241Y-134385621D01*
X154370886Y-134165111D01*
X154368870Y-134161154D01*
X154220796Y-133957348D01*
X154220795Y-133957347D01*
X154220793Y-133957344D01*
X154042656Y-133779207D01*
X154042653Y-133779204D01*
X154042651Y-133779203D01*
X153838845Y-133631129D01*
X153614373Y-133516756D01*
X153374795Y-133438912D01*
X153374782Y-133438909D01*
X153125964Y-133399500D01*
X153125962Y-133399500D01*
X152874038Y-133399500D01*
X152874036Y-133399500D01*
X152625217Y-133438909D01*
X152625204Y-133438912D01*
X152385626Y-133516756D01*
X152161154Y-133631129D01*
X151957348Y-133779203D01*
X151779203Y-133957348D01*
X151631129Y-134161154D01*
X151516756Y-134385626D01*
X151438912Y-134625204D01*
X151438909Y-134625217D01*
X151399500Y-134874036D01*
X108291074Y-134874036D01*
X108223091Y-134638058D01*
X108221246Y-134629972D01*
X108198062Y-134493523D01*
X108169113Y-134323141D01*
X108168184Y-134314900D01*
X108167347Y-134300000D01*
X108150616Y-134002065D01*
X108150500Y-133997916D01*
X108150500Y-118004871D01*
X119719500Y-118004871D01*
X119719500Y-118125128D01*
X119742959Y-118243069D01*
X119742961Y-118243076D01*
X119788981Y-118354179D01*
X119788982Y-118354180D01*
X119855794Y-118454171D01*
X119940829Y-118539206D01*
X120040820Y-118606018D01*
X120151924Y-118652039D01*
X120269871Y-118675500D01*
X120269872Y-118675500D01*
X120390128Y-118675500D01*
X120390129Y-118675500D01*
X120508076Y-118652039D01*
X120619180Y-118606018D01*
X120719171Y-118539206D01*
X120804206Y-118454171D01*
X120871018Y-118354180D01*
X120917039Y-118243076D01*
X120940500Y-118125129D01*
X120940500Y-118004871D01*
X120917039Y-117886924D01*
X120871018Y-117775820D01*
X120804206Y-117675829D01*
X120719171Y-117590794D01*
X120619180Y-117523982D01*
X120619181Y-117523982D01*
X120619179Y-117523981D01*
X120508076Y-117477961D01*
X120508069Y-117477959D01*
X120419215Y-117460285D01*
X120390129Y-117454500D01*
X120269871Y-117454500D01*
X120246538Y-117459141D01*
X120151930Y-117477959D01*
X120151923Y-117477961D01*
X120040820Y-117523981D01*
X119940832Y-117590791D01*
X119855791Y-117675832D01*
X119788981Y-117775820D01*
X119742961Y-117886923D01*
X119742959Y-117886930D01*
X119719500Y-118004871D01*
X108150500Y-118004871D01*
X108150500Y-115049792D01*
X118700001Y-115049792D01*
X118702908Y-115074868D01*
X118702910Y-115074874D01*
X118748213Y-115177478D01*
X118798780Y-115228045D01*
X118820454Y-115280371D01*
X118811733Y-115309128D01*
X118813922Y-115310035D01*
X118811133Y-115316767D01*
X118799500Y-115375253D01*
X118799500Y-115824746D01*
X118811133Y-115883232D01*
X118825128Y-115904176D01*
X118855448Y-115949552D01*
X118890845Y-115973204D01*
X118921767Y-115993866D01*
X118921768Y-115993866D01*
X118921769Y-115993867D01*
X118980252Y-116005500D01*
X118980254Y-116005500D01*
X121292750Y-116005500D01*
X121296363Y-116005144D01*
X121296476Y-116006298D01*
X121348150Y-116016560D01*
X121359383Y-116025776D01*
X128929520Y-123595913D01*
X130179520Y-124845913D01*
X131579520Y-126245913D01*
X132754087Y-127420480D01*
X132845412Y-127473207D01*
X132947273Y-127500500D01*
X132947274Y-127500500D01*
X135152729Y-127500500D01*
X135152729Y-127500499D01*
X135254587Y-127473207D01*
X135345913Y-127420480D01*
X135420480Y-127345913D01*
X135473207Y-127254587D01*
X135500499Y-127152729D01*
X135500500Y-127152729D01*
X135500500Y-127047271D01*
X135500499Y-127047270D01*
X135473208Y-126945417D01*
X135473207Y-126945413D01*
X135420480Y-126854087D01*
X135345913Y-126779520D01*
X135254591Y-126726795D01*
X135254582Y-126726791D01*
X135152729Y-126699500D01*
X135152727Y-126699500D01*
X133196545Y-126699500D01*
X133144219Y-126677826D01*
X127661142Y-121194749D01*
X127613663Y-121147270D01*
X130499500Y-121147270D01*
X130499500Y-121252729D01*
X130526791Y-121354582D01*
X130526795Y-121354591D01*
X130579520Y-121445913D01*
X130602826Y-121469219D01*
X130624500Y-121521545D01*
X130624500Y-121978455D01*
X130602826Y-122030781D01*
X130579520Y-122054086D01*
X130526795Y-122145408D01*
X130526791Y-122145417D01*
X130499500Y-122247270D01*
X130499500Y-122352729D01*
X130526791Y-122454582D01*
X130526792Y-122454585D01*
X130526793Y-122454587D01*
X130579520Y-122545913D01*
X130654087Y-122620480D01*
X130745413Y-122673207D01*
X130847270Y-122700499D01*
X130847271Y-122700500D01*
X130847273Y-122700500D01*
X130952729Y-122700500D01*
X130952729Y-122700499D01*
X131054587Y-122673207D01*
X131145913Y-122620480D01*
X131220480Y-122545913D01*
X131273207Y-122454587D01*
X131300499Y-122352729D01*
X131300500Y-122352729D01*
X131300500Y-122247271D01*
X131300499Y-122247270D01*
X131273208Y-122145417D01*
X131273207Y-122145413D01*
X131220480Y-122054087D01*
X131197174Y-122030781D01*
X131175500Y-121978455D01*
X131175500Y-121521545D01*
X131197174Y-121469219D01*
X131220480Y-121445913D01*
X131273207Y-121354587D01*
X131300499Y-121252729D01*
X131300500Y-121252729D01*
X131300500Y-121147271D01*
X131300499Y-121147270D01*
X131273208Y-121045417D01*
X131273207Y-121045413D01*
X131220480Y-120954087D01*
X131145913Y-120879520D01*
X131054591Y-120826795D01*
X131054582Y-120826791D01*
X130952729Y-120799500D01*
X130952727Y-120799500D01*
X130847273Y-120799500D01*
X130847271Y-120799500D01*
X130745417Y-120826791D01*
X130745408Y-120826795D01*
X130654086Y-120879520D01*
X130579520Y-120954086D01*
X130526795Y-121045408D01*
X130526791Y-121045417D01*
X130499500Y-121147270D01*
X127613663Y-121147270D01*
X127265893Y-120799500D01*
X124471264Y-118004871D01*
X189719500Y-118004871D01*
X189719500Y-118125128D01*
X189742959Y-118243069D01*
X189742961Y-118243076D01*
X189788981Y-118354179D01*
X189788982Y-118354180D01*
X189855794Y-118454171D01*
X189940829Y-118539206D01*
X190040820Y-118606018D01*
X190151924Y-118652039D01*
X190269871Y-118675500D01*
X190269872Y-118675500D01*
X190390128Y-118675500D01*
X190390129Y-118675500D01*
X190508076Y-118652039D01*
X190619180Y-118606018D01*
X190719171Y-118539206D01*
X190804206Y-118454171D01*
X190871018Y-118354180D01*
X190917039Y-118243076D01*
X190940500Y-118125129D01*
X190940500Y-118004871D01*
X190917039Y-117886924D01*
X190871018Y-117775820D01*
X190804206Y-117675829D01*
X190719171Y-117590794D01*
X190619180Y-117523982D01*
X190619181Y-117523982D01*
X190619179Y-117523981D01*
X190508076Y-117477961D01*
X190508069Y-117477959D01*
X190419215Y-117460285D01*
X190390129Y-117454500D01*
X190269871Y-117454500D01*
X190246538Y-117459141D01*
X190151930Y-117477959D01*
X190151923Y-117477961D01*
X190040820Y-117523981D01*
X189940832Y-117590791D01*
X189855791Y-117675832D01*
X189788981Y-117775820D01*
X189742961Y-117886923D01*
X189742959Y-117886930D01*
X189719500Y-118004871D01*
X124471264Y-118004871D01*
X121745913Y-115279520D01*
X121745910Y-115279518D01*
X121745909Y-115279517D01*
X121654592Y-115226795D01*
X121654588Y-115226793D01*
X121654357Y-115226731D01*
X121602476Y-115212830D01*
X121557544Y-115178352D01*
X121550151Y-115122200D01*
X121553935Y-115111462D01*
X121570089Y-115074875D01*
X121573000Y-115049789D01*
X121573000Y-114900000D01*
X118700001Y-114900000D01*
X118700001Y-115049792D01*
X108150500Y-115049792D01*
X108150500Y-114550210D01*
X118700000Y-114550210D01*
X118700000Y-114700000D01*
X120036500Y-114700000D01*
X120236500Y-114700000D01*
X121572999Y-114700000D01*
X121572999Y-114550207D01*
X121570091Y-114525131D01*
X121570089Y-114525126D01*
X121528039Y-114429890D01*
X121526731Y-114373268D01*
X121528039Y-114370110D01*
X121570089Y-114274875D01*
X121573000Y-114249792D01*
X124427001Y-114249792D01*
X124429908Y-114274868D01*
X124429910Y-114274874D01*
X124475213Y-114377478D01*
X124525780Y-114428045D01*
X124547454Y-114480371D01*
X124538733Y-114509128D01*
X124540922Y-114510035D01*
X124538133Y-114516767D01*
X124526500Y-114575253D01*
X124526500Y-115024746D01*
X124538133Y-115083232D01*
X124563021Y-115120478D01*
X124581076Y-115147499D01*
X124586497Y-115155611D01*
X124584430Y-115156991D01*
X124602245Y-115200000D01*
X124584430Y-115243008D01*
X124586497Y-115244389D01*
X124538133Y-115316767D01*
X124526500Y-115375253D01*
X124526500Y-115824746D01*
X124538133Y-115883232D01*
X124552128Y-115904176D01*
X124582448Y-115949552D01*
X124617845Y-115973204D01*
X124648767Y-115993866D01*
X124648768Y-115993866D01*
X124648769Y-115993867D01*
X124707252Y-116005500D01*
X124707254Y-116005500D01*
X127019746Y-116005500D01*
X127019748Y-116005500D01*
X127078231Y-115993867D01*
X127144552Y-115949552D01*
X127172058Y-115908386D01*
X127178359Y-115904176D01*
X127181260Y-115897174D01*
X127201203Y-115888913D01*
X127219150Y-115876922D01*
X127233586Y-115875500D01*
X127378455Y-115875500D01*
X127430781Y-115897174D01*
X127454087Y-115920480D01*
X127545413Y-115973207D01*
X127647270Y-116000499D01*
X127647271Y-116000500D01*
X127647273Y-116000500D01*
X127752729Y-116000500D01*
X127752729Y-116000499D01*
X127854587Y-115973207D01*
X127945913Y-115920480D01*
X128016601Y-115849792D01*
X188700001Y-115849792D01*
X188702908Y-115874868D01*
X188702910Y-115874874D01*
X188748213Y-115977478D01*
X188827521Y-116056786D01*
X188930124Y-116102089D01*
X188930123Y-116102089D01*
X188955210Y-116104999D01*
X190036500Y-116104999D01*
X190236500Y-116104999D01*
X191317792Y-116104999D01*
X191342868Y-116102091D01*
X191342874Y-116102089D01*
X191445478Y-116056786D01*
X191524786Y-115977478D01*
X191570089Y-115874875D01*
X191573000Y-115849792D01*
X194427001Y-115849792D01*
X194429908Y-115874868D01*
X194429910Y-115874874D01*
X194475213Y-115977478D01*
X194554521Y-116056786D01*
X194657124Y-116102089D01*
X194657123Y-116102089D01*
X194682210Y-116104999D01*
X195763500Y-116104999D01*
X195963500Y-116104999D01*
X197044792Y-116104999D01*
X197069868Y-116102091D01*
X197069874Y-116102089D01*
X197172478Y-116056786D01*
X197251786Y-115977478D01*
X197297089Y-115874875D01*
X197300000Y-115849789D01*
X197300000Y-115700000D01*
X195963500Y-115700000D01*
X195963500Y-116104999D01*
X195763500Y-116104999D01*
X195763500Y-115700000D01*
X194427001Y-115700000D01*
X194427001Y-115849792D01*
X191573000Y-115849792D01*
X191573000Y-115849789D01*
X191573000Y-115700000D01*
X190236500Y-115700000D01*
X190236500Y-116104999D01*
X190036500Y-116104999D01*
X190036500Y-115700000D01*
X188700001Y-115700000D01*
X188700001Y-115849792D01*
X128016601Y-115849792D01*
X128020480Y-115845913D01*
X128073207Y-115754587D01*
X128100499Y-115652729D01*
X128100500Y-115652729D01*
X128100500Y-115547271D01*
X128100499Y-115547270D01*
X128073208Y-115445417D01*
X128073207Y-115445413D01*
X128020480Y-115354087D01*
X128016603Y-115350210D01*
X188700000Y-115350210D01*
X188700000Y-115500000D01*
X190036500Y-115500000D01*
X190236500Y-115500000D01*
X191572999Y-115500000D01*
X191572999Y-115350210D01*
X194427000Y-115350210D01*
X194427000Y-115500000D01*
X195763500Y-115500000D01*
X195963500Y-115500000D01*
X197299999Y-115500000D01*
X197299999Y-115350207D01*
X197297091Y-115325131D01*
X197297089Y-115325126D01*
X197255039Y-115229890D01*
X197253731Y-115173268D01*
X197255039Y-115170110D01*
X197297089Y-115074875D01*
X197300000Y-115049789D01*
X197300000Y-114900000D01*
X195963500Y-114900000D01*
X195963500Y-115500000D01*
X195763500Y-115500000D01*
X195763500Y-114900000D01*
X194427001Y-114900000D01*
X194427001Y-115049792D01*
X194429908Y-115074868D01*
X194429910Y-115074874D01*
X194471960Y-115170109D01*
X194473268Y-115226731D01*
X194471960Y-115229889D01*
X194429910Y-115325123D01*
X194427000Y-115350210D01*
X191572999Y-115350210D01*
X191572999Y-115350207D01*
X191570091Y-115325131D01*
X191570089Y-115325126D01*
X191528039Y-115229890D01*
X191526731Y-115173268D01*
X191528039Y-115170110D01*
X191570089Y-115074875D01*
X191573000Y-115049789D01*
X191573000Y-114900000D01*
X190236500Y-114900000D01*
X190236500Y-115500000D01*
X190036500Y-115500000D01*
X190036500Y-114900000D01*
X188700001Y-114900000D01*
X188700001Y-115049792D01*
X188702908Y-115074868D01*
X188702910Y-115074874D01*
X188744960Y-115170109D01*
X188746268Y-115226731D01*
X188744960Y-115229889D01*
X188702910Y-115325123D01*
X188700000Y-115350210D01*
X128016603Y-115350210D01*
X127945913Y-115279520D01*
X127919179Y-115264085D01*
X127884702Y-115219153D01*
X127892094Y-115163000D01*
X127919180Y-115135914D01*
X127945913Y-115120480D01*
X128020480Y-115045913D01*
X128073207Y-114954587D01*
X128100499Y-114852729D01*
X128100500Y-114852729D01*
X128100500Y-114747271D01*
X128100499Y-114747270D01*
X128073208Y-114645417D01*
X128073207Y-114645413D01*
X128020480Y-114554087D01*
X128016603Y-114550210D01*
X188700000Y-114550210D01*
X188700000Y-114700000D01*
X190036500Y-114700000D01*
X190236500Y-114700000D01*
X191572999Y-114700000D01*
X191572999Y-114550210D01*
X194427000Y-114550210D01*
X194427000Y-114700000D01*
X195763500Y-114700000D01*
X195963500Y-114700000D01*
X197299999Y-114700000D01*
X197299999Y-114550207D01*
X197297091Y-114525131D01*
X197297089Y-114525126D01*
X197255039Y-114429890D01*
X197253731Y-114373268D01*
X197255039Y-114370110D01*
X197297089Y-114274875D01*
X197300000Y-114249789D01*
X197300000Y-114100000D01*
X195963500Y-114100000D01*
X195963500Y-114700000D01*
X195763500Y-114700000D01*
X195763500Y-114100000D01*
X194427001Y-114100000D01*
X194427001Y-114249792D01*
X194429908Y-114274868D01*
X194429910Y-114274874D01*
X194471960Y-114370109D01*
X194473268Y-114426731D01*
X194471960Y-114429889D01*
X194429910Y-114525123D01*
X194427000Y-114550210D01*
X191572999Y-114550210D01*
X191572999Y-114550207D01*
X191570091Y-114525131D01*
X191570089Y-114525126D01*
X191528039Y-114429890D01*
X191526731Y-114373268D01*
X191528039Y-114370110D01*
X191570089Y-114274875D01*
X191573000Y-114249789D01*
X191573000Y-114100000D01*
X190236500Y-114100000D01*
X190236500Y-114700000D01*
X190036500Y-114700000D01*
X190036500Y-114100000D01*
X188700001Y-114100000D01*
X188700001Y-114249792D01*
X188702908Y-114274868D01*
X188702910Y-114274874D01*
X188744960Y-114370109D01*
X188746268Y-114426731D01*
X188744960Y-114429889D01*
X188702910Y-114525123D01*
X188700000Y-114550210D01*
X128016603Y-114550210D01*
X127945913Y-114479520D01*
X127895559Y-114450448D01*
X127854591Y-114426795D01*
X127854582Y-114426791D01*
X127752729Y-114399500D01*
X127752727Y-114399500D01*
X127647273Y-114399500D01*
X127647271Y-114399500D01*
X127545417Y-114426791D01*
X127545408Y-114426795D01*
X127454086Y-114479520D01*
X127430781Y-114502826D01*
X127378455Y-114524500D01*
X127283417Y-114524500D01*
X127231091Y-114502826D01*
X127209417Y-114450500D01*
X127231091Y-114398174D01*
X127251786Y-114377478D01*
X127297089Y-114274875D01*
X127300000Y-114249789D01*
X127300000Y-114100000D01*
X124427001Y-114100000D01*
X124427001Y-114249792D01*
X121573000Y-114249792D01*
X121573000Y-114249789D01*
X121573000Y-114100000D01*
X120236500Y-114100000D01*
X120236500Y-114700000D01*
X120036500Y-114700000D01*
X120036500Y-114100000D01*
X118700001Y-114100000D01*
X118700001Y-114249792D01*
X118702908Y-114274868D01*
X118702910Y-114274874D01*
X118744960Y-114370109D01*
X118746268Y-114426731D01*
X118744960Y-114429889D01*
X118702910Y-114525123D01*
X118700000Y-114550210D01*
X108150500Y-114550210D01*
X108150500Y-113750210D01*
X118700000Y-113750210D01*
X118700000Y-113900000D01*
X121572999Y-113900000D01*
X121572999Y-113750207D01*
X121570091Y-113725131D01*
X121570089Y-113725125D01*
X121524786Y-113622521D01*
X121474219Y-113571954D01*
X121452545Y-113519628D01*
X121461275Y-113490874D01*
X121459078Y-113489964D01*
X121461866Y-113483232D01*
X121461865Y-113483232D01*
X121461867Y-113483231D01*
X121473500Y-113424748D01*
X121473500Y-112975252D01*
X121461867Y-112916769D01*
X121452550Y-112902826D01*
X121413503Y-112844389D01*
X121415569Y-112843008D01*
X121397755Y-112800000D01*
X121415569Y-112756991D01*
X121413503Y-112755611D01*
X121417587Y-112749500D01*
X121461867Y-112683231D01*
X121473500Y-112624748D01*
X121473500Y-112175252D01*
X121461867Y-112116769D01*
X121455760Y-112107630D01*
X121413503Y-112044389D01*
X121415569Y-112043008D01*
X121397755Y-112000000D01*
X121415569Y-111956991D01*
X121413503Y-111955611D01*
X121417587Y-111949500D01*
X121461867Y-111883231D01*
X121473500Y-111824748D01*
X121473500Y-111375252D01*
X121461867Y-111316769D01*
X121452550Y-111302826D01*
X121413503Y-111244389D01*
X121415569Y-111243008D01*
X121397755Y-111200000D01*
X121415569Y-111156991D01*
X121413503Y-111155611D01*
X121417587Y-111149500D01*
X121461867Y-111083231D01*
X121473500Y-111024748D01*
X121473500Y-110575252D01*
X121461867Y-110516769D01*
X121452550Y-110502826D01*
X121413503Y-110444389D01*
X121415569Y-110443008D01*
X121397755Y-110400000D01*
X121415569Y-110356991D01*
X121413503Y-110355611D01*
X121445661Y-110307485D01*
X121461867Y-110283231D01*
X121473500Y-110224748D01*
X121473500Y-109775252D01*
X121461867Y-109716769D01*
X121452550Y-109702826D01*
X121413503Y-109644389D01*
X121415569Y-109643008D01*
X121397755Y-109600000D01*
X121415569Y-109556991D01*
X121413503Y-109555611D01*
X121445661Y-109507485D01*
X121461867Y-109483231D01*
X121473500Y-109424748D01*
X121473500Y-108975252D01*
X121461867Y-108916769D01*
X121452550Y-108902826D01*
X121413503Y-108844389D01*
X121415569Y-108843008D01*
X121397755Y-108800000D01*
X121415569Y-108756991D01*
X121413503Y-108755611D01*
X121436978Y-108720480D01*
X121461867Y-108683231D01*
X121473500Y-108624748D01*
X121473500Y-108175252D01*
X121461867Y-108116769D01*
X121452550Y-108102826D01*
X121419076Y-108052729D01*
X121417552Y-108050448D01*
X121417551Y-108050447D01*
X121413503Y-108044389D01*
X121415569Y-108043008D01*
X121397755Y-108000000D01*
X121415569Y-107956991D01*
X121413503Y-107955611D01*
X121417587Y-107949500D01*
X121461867Y-107883231D01*
X121473500Y-107824748D01*
X121473500Y-107375252D01*
X121461867Y-107316769D01*
X121461866Y-107316767D01*
X121461866Y-107316766D01*
X121459077Y-107310032D01*
X121462457Y-107308631D01*
X121453971Y-107265920D01*
X121474221Y-107228044D01*
X121524785Y-107177480D01*
X121570089Y-107074875D01*
X121573000Y-107049789D01*
X121573000Y-106900000D01*
X118700001Y-106900000D01*
X118700001Y-107049792D01*
X118702908Y-107074868D01*
X118702910Y-107074874D01*
X118748213Y-107177478D01*
X118798780Y-107228045D01*
X118820454Y-107280371D01*
X118811733Y-107309128D01*
X118813922Y-107310035D01*
X118811133Y-107316767D01*
X118811133Y-107316769D01*
X118799500Y-107375252D01*
X118799500Y-107824748D01*
X118803710Y-107845913D01*
X118811133Y-107883232D01*
X118827942Y-107908387D01*
X118855413Y-107949500D01*
X118859497Y-107955611D01*
X118857430Y-107956991D01*
X118875245Y-108000000D01*
X118857430Y-108043008D01*
X118859497Y-108044389D01*
X118811133Y-108116767D01*
X118811133Y-108116769D01*
X118799500Y-108175252D01*
X118799500Y-108624748D01*
X118803710Y-108645913D01*
X118811133Y-108683232D01*
X118859497Y-108755611D01*
X118857430Y-108756991D01*
X118875245Y-108800000D01*
X118857430Y-108843008D01*
X118859497Y-108844389D01*
X118811133Y-108916767D01*
X118811133Y-108916769D01*
X118799500Y-108975252D01*
X118799500Y-109424748D01*
X118803696Y-109445841D01*
X118811133Y-109483232D01*
X118859497Y-109555611D01*
X118857430Y-109556991D01*
X118875245Y-109600000D01*
X118857430Y-109643008D01*
X118859497Y-109644389D01*
X118811133Y-109716767D01*
X118811133Y-109716769D01*
X118799500Y-109775252D01*
X118799500Y-110224748D01*
X118807255Y-110263736D01*
X118811133Y-110283232D01*
X118859497Y-110355611D01*
X118857430Y-110356991D01*
X118875245Y-110400000D01*
X118857430Y-110443008D01*
X118859497Y-110444389D01*
X118811133Y-110516767D01*
X118811133Y-110516769D01*
X118799500Y-110575252D01*
X118799500Y-111024748D01*
X118803696Y-111045841D01*
X118811133Y-111083232D01*
X118827339Y-111107485D01*
X118855413Y-111149500D01*
X118859497Y-111155611D01*
X118857430Y-111156991D01*
X118875245Y-111200000D01*
X118857430Y-111243008D01*
X118859497Y-111244389D01*
X118811133Y-111316767D01*
X118811133Y-111316769D01*
X118799500Y-111375252D01*
X118799500Y-111824748D01*
X118807255Y-111863736D01*
X118811133Y-111883232D01*
X118827942Y-111908387D01*
X118855413Y-111949500D01*
X118859497Y-111955611D01*
X118857430Y-111956991D01*
X118875245Y-112000000D01*
X118857430Y-112043008D01*
X118859497Y-112044389D01*
X118811133Y-112116767D01*
X118809851Y-112123214D01*
X118799500Y-112175252D01*
X118799500Y-112624748D01*
X118803696Y-112645841D01*
X118811133Y-112683232D01*
X118823545Y-112701807D01*
X118855413Y-112749500D01*
X118859497Y-112755611D01*
X118857430Y-112756991D01*
X118875245Y-112800000D01*
X118857430Y-112843008D01*
X118859497Y-112844389D01*
X118811133Y-112916767D01*
X118811133Y-112916769D01*
X118799500Y-112975252D01*
X118799500Y-113424748D01*
X118801253Y-113433559D01*
X118811133Y-113483233D01*
X118813923Y-113489968D01*
X118810543Y-113491367D01*
X118819026Y-113534092D01*
X118798779Y-113571954D01*
X118748214Y-113622519D01*
X118702910Y-113725124D01*
X118700000Y-113750210D01*
X108150500Y-113750210D01*
X108150500Y-106550210D01*
X118700000Y-106550210D01*
X118700000Y-106700000D01*
X121572999Y-106700000D01*
X121572999Y-106550207D01*
X121570091Y-106525131D01*
X121570089Y-106525125D01*
X121524786Y-106422521D01*
X121474219Y-106371954D01*
X121452545Y-106319628D01*
X121461275Y-106290874D01*
X121459078Y-106289964D01*
X121461866Y-106283232D01*
X121461865Y-106283232D01*
X121461867Y-106283231D01*
X121473500Y-106224748D01*
X121473500Y-105775252D01*
X121461867Y-105716769D01*
X121455760Y-105707630D01*
X121419076Y-105652729D01*
X121417552Y-105650448D01*
X121417551Y-105650447D01*
X121413503Y-105644389D01*
X121415569Y-105643008D01*
X121397755Y-105600000D01*
X121415569Y-105556991D01*
X121413503Y-105555611D01*
X121417587Y-105549500D01*
X121461867Y-105483231D01*
X121473500Y-105424748D01*
X121473500Y-104975252D01*
X121461867Y-104916769D01*
X121455760Y-104907630D01*
X121419076Y-104852729D01*
X121417552Y-104850448D01*
X121417551Y-104850447D01*
X121413503Y-104844389D01*
X121415569Y-104843008D01*
X121397755Y-104800000D01*
X121415569Y-104756991D01*
X121413503Y-104755611D01*
X121417587Y-104749500D01*
X121461867Y-104683231D01*
X121473500Y-104624748D01*
X121473500Y-104175252D01*
X121461867Y-104116769D01*
X121455760Y-104107630D01*
X121419076Y-104052729D01*
X121417552Y-104050448D01*
X121417551Y-104050447D01*
X121413503Y-104044389D01*
X121415569Y-104043008D01*
X121397755Y-104000000D01*
X121415569Y-103956991D01*
X121413503Y-103955611D01*
X121417587Y-103949500D01*
X121461867Y-103883231D01*
X121473500Y-103824748D01*
X121473500Y-103375252D01*
X121461867Y-103316769D01*
X121455760Y-103307630D01*
X121419076Y-103252729D01*
X121417552Y-103250448D01*
X121417551Y-103250447D01*
X121413503Y-103244389D01*
X121415569Y-103243008D01*
X121397755Y-103200000D01*
X121415569Y-103156991D01*
X121413503Y-103155611D01*
X121419075Y-103147273D01*
X121461867Y-103083231D01*
X121473500Y-103024748D01*
X121473500Y-102575252D01*
X121461867Y-102516769D01*
X121455760Y-102507630D01*
X121419076Y-102452729D01*
X121417552Y-102450448D01*
X121417551Y-102450447D01*
X121413503Y-102444389D01*
X121415569Y-102443008D01*
X121397755Y-102400000D01*
X121415569Y-102356991D01*
X121413503Y-102355611D01*
X121419075Y-102347273D01*
X121461867Y-102283231D01*
X121473500Y-102224748D01*
X121473500Y-101775252D01*
X121461867Y-101716769D01*
X121455760Y-101707630D01*
X121419076Y-101652729D01*
X121417552Y-101650448D01*
X121417551Y-101650447D01*
X121413503Y-101644389D01*
X121415569Y-101643008D01*
X121397755Y-101600000D01*
X121415569Y-101556991D01*
X121413503Y-101555611D01*
X121419075Y-101547273D01*
X121461867Y-101483231D01*
X121473500Y-101424748D01*
X121473500Y-100975252D01*
X121461867Y-100916769D01*
X121455760Y-100907630D01*
X121419076Y-100852729D01*
X121417552Y-100850448D01*
X121417551Y-100850447D01*
X121413503Y-100844389D01*
X121415569Y-100843008D01*
X121397755Y-100800000D01*
X121415569Y-100756991D01*
X121413503Y-100755611D01*
X121419075Y-100747273D01*
X121461867Y-100683231D01*
X121473500Y-100624748D01*
X121473500Y-100175252D01*
X121461867Y-100116769D01*
X121461866Y-100116767D01*
X121461866Y-100116766D01*
X121459077Y-100110032D01*
X121462457Y-100108631D01*
X121453971Y-100065920D01*
X121474221Y-100028044D01*
X121524785Y-99977480D01*
X121570089Y-99874875D01*
X121573000Y-99849789D01*
X121573000Y-99700000D01*
X118700001Y-99700000D01*
X118700001Y-99849792D01*
X118702908Y-99874868D01*
X118702910Y-99874874D01*
X118748213Y-99977478D01*
X118798780Y-100028045D01*
X118820454Y-100080371D01*
X118811733Y-100109128D01*
X118813922Y-100110035D01*
X118811133Y-100116767D01*
X118811133Y-100116769D01*
X118799500Y-100175252D01*
X118799500Y-100624748D01*
X118803710Y-100645913D01*
X118811133Y-100683232D01*
X118827942Y-100708387D01*
X118853925Y-100747273D01*
X118859497Y-100755611D01*
X118857430Y-100756991D01*
X118875245Y-100800000D01*
X118857430Y-100843008D01*
X118859497Y-100844389D01*
X118855448Y-100850447D01*
X118855448Y-100850448D01*
X118853925Y-100852727D01*
X118811133Y-100916767D01*
X118809851Y-100923214D01*
X118799500Y-100975252D01*
X118799500Y-101424748D01*
X118803710Y-101445913D01*
X118811133Y-101483232D01*
X118827942Y-101508387D01*
X118853925Y-101547273D01*
X118859497Y-101555611D01*
X118857430Y-101556991D01*
X118875245Y-101600000D01*
X118857430Y-101643008D01*
X118859497Y-101644389D01*
X118855448Y-101650447D01*
X118855448Y-101650448D01*
X118853925Y-101652727D01*
X118811133Y-101716767D01*
X118809851Y-101723214D01*
X118799500Y-101775252D01*
X118799500Y-102224748D01*
X118803710Y-102245913D01*
X118811133Y-102283232D01*
X118827942Y-102308387D01*
X118853925Y-102347273D01*
X118859497Y-102355611D01*
X118857430Y-102356991D01*
X118875245Y-102400000D01*
X118857430Y-102443008D01*
X118859497Y-102444389D01*
X118855448Y-102450447D01*
X118855448Y-102450448D01*
X118853925Y-102452727D01*
X118811133Y-102516767D01*
X118809851Y-102523214D01*
X118799500Y-102575252D01*
X118799500Y-103024748D01*
X118803710Y-103045913D01*
X118811133Y-103083232D01*
X118827942Y-103108387D01*
X118853925Y-103147273D01*
X118859497Y-103155611D01*
X118857430Y-103156991D01*
X118875245Y-103200000D01*
X118857430Y-103243008D01*
X118859497Y-103244389D01*
X118855448Y-103250447D01*
X118855448Y-103250448D01*
X118853925Y-103252727D01*
X118811133Y-103316767D01*
X118809851Y-103323214D01*
X118799500Y-103375252D01*
X118799500Y-103824748D01*
X118803710Y-103845913D01*
X118811133Y-103883232D01*
X118827942Y-103908387D01*
X118855413Y-103949500D01*
X118859497Y-103955611D01*
X118857430Y-103956991D01*
X118875245Y-104000000D01*
X118857430Y-104043008D01*
X118859497Y-104044389D01*
X118855448Y-104050447D01*
X118855448Y-104050448D01*
X118853925Y-104052727D01*
X118811133Y-104116767D01*
X118809851Y-104123214D01*
X118799500Y-104175252D01*
X118799500Y-104624748D01*
X118803696Y-104645841D01*
X118811133Y-104683232D01*
X118827942Y-104708387D01*
X118855413Y-104749500D01*
X118859497Y-104755611D01*
X118857430Y-104756991D01*
X118875245Y-104800000D01*
X118857430Y-104843008D01*
X118859497Y-104844389D01*
X118811133Y-104916767D01*
X118809851Y-104923214D01*
X118799500Y-104975252D01*
X118799500Y-105424748D01*
X118803710Y-105445913D01*
X118811133Y-105483232D01*
X118827942Y-105508387D01*
X118855413Y-105549500D01*
X118859497Y-105555611D01*
X118857430Y-105556991D01*
X118875245Y-105600000D01*
X118857430Y-105643008D01*
X118859497Y-105644389D01*
X118811133Y-105716767D01*
X118799500Y-105775253D01*
X118799500Y-106224746D01*
X118811133Y-106283233D01*
X118813923Y-106289968D01*
X118810543Y-106291367D01*
X118819026Y-106334092D01*
X118798779Y-106371954D01*
X118748214Y-106422519D01*
X118702910Y-106525124D01*
X118700000Y-106550210D01*
X108150500Y-106550210D01*
X108150500Y-99350210D01*
X118700000Y-99350210D01*
X118700000Y-99500000D01*
X121572999Y-99500000D01*
X121572999Y-99350207D01*
X121570091Y-99325131D01*
X121570089Y-99325125D01*
X121524786Y-99222521D01*
X121474219Y-99171954D01*
X121452545Y-99119628D01*
X121461275Y-99090874D01*
X121459078Y-99089964D01*
X121461866Y-99083232D01*
X121461865Y-99083232D01*
X121461867Y-99083231D01*
X121473500Y-99024748D01*
X121473500Y-98575252D01*
X121461867Y-98516769D01*
X121455760Y-98507630D01*
X121419076Y-98452729D01*
X121417552Y-98450448D01*
X121417551Y-98450447D01*
X121413503Y-98444389D01*
X121415569Y-98443008D01*
X121397755Y-98400000D01*
X121415569Y-98356991D01*
X121413503Y-98355611D01*
X121419075Y-98347273D01*
X121461867Y-98283231D01*
X121473500Y-98224748D01*
X121473500Y-97775252D01*
X121461867Y-97716769D01*
X121455760Y-97707630D01*
X121419076Y-97652729D01*
X121417552Y-97650448D01*
X121417551Y-97650447D01*
X121413503Y-97644389D01*
X121415569Y-97643008D01*
X121397755Y-97600000D01*
X121415569Y-97556991D01*
X121413503Y-97555611D01*
X121419075Y-97547273D01*
X121461867Y-97483231D01*
X121473500Y-97424748D01*
X121473500Y-96975252D01*
X121461867Y-96916769D01*
X121455760Y-96907630D01*
X121419076Y-96852729D01*
X121417552Y-96850448D01*
X121417551Y-96850447D01*
X121413503Y-96844389D01*
X121415569Y-96843008D01*
X121397755Y-96800000D01*
X121415569Y-96756991D01*
X121413503Y-96755611D01*
X121419075Y-96747273D01*
X121461867Y-96683231D01*
X121473500Y-96624748D01*
X121473500Y-96175252D01*
X121461867Y-96116769D01*
X121455760Y-96107630D01*
X121419076Y-96052729D01*
X121417552Y-96050448D01*
X121417551Y-96050447D01*
X121413503Y-96044389D01*
X121415569Y-96043008D01*
X121397755Y-96000000D01*
X121415569Y-95956991D01*
X121413503Y-95955611D01*
X121419075Y-95947273D01*
X121461867Y-95883231D01*
X121473500Y-95824748D01*
X121473500Y-95375252D01*
X121461867Y-95316769D01*
X121455760Y-95307630D01*
X121436978Y-95279520D01*
X121417552Y-95250448D01*
X121417551Y-95250447D01*
X121413503Y-95244389D01*
X121415569Y-95243008D01*
X121397755Y-95200000D01*
X121415569Y-95156991D01*
X121413503Y-95155611D01*
X121461866Y-95083232D01*
X121461865Y-95083232D01*
X121461867Y-95083231D01*
X121473500Y-95024748D01*
X121473500Y-94575252D01*
X121461867Y-94516769D01*
X121455760Y-94507630D01*
X121440896Y-94485385D01*
X121417552Y-94450448D01*
X121417551Y-94450447D01*
X121413503Y-94444389D01*
X121415569Y-94443008D01*
X121397755Y-94400000D01*
X121415569Y-94356991D01*
X121413503Y-94355611D01*
X121461866Y-94283232D01*
X121461865Y-94283232D01*
X121461867Y-94283231D01*
X121473500Y-94224748D01*
X121473500Y-93775252D01*
X121461867Y-93716769D01*
X121455760Y-93707630D01*
X121440896Y-93685385D01*
X121417552Y-93650448D01*
X121417551Y-93650447D01*
X121413503Y-93644389D01*
X121415569Y-93643008D01*
X121397755Y-93600000D01*
X121415569Y-93556991D01*
X121413503Y-93555611D01*
X121461866Y-93483232D01*
X121461865Y-93483232D01*
X121461867Y-93483231D01*
X121473500Y-93424748D01*
X121473500Y-92975252D01*
X121461867Y-92916769D01*
X121461866Y-92916767D01*
X121461866Y-92916766D01*
X121459077Y-92910032D01*
X121462457Y-92908631D01*
X121453971Y-92865920D01*
X121474221Y-92828044D01*
X121524785Y-92777480D01*
X121570089Y-92674875D01*
X121573000Y-92649789D01*
X121573000Y-92500000D01*
X118700001Y-92500000D01*
X118700001Y-92649792D01*
X118702908Y-92674868D01*
X118702910Y-92674874D01*
X118748213Y-92777478D01*
X118798780Y-92828045D01*
X118820454Y-92880371D01*
X118811733Y-92909128D01*
X118813922Y-92910035D01*
X118811133Y-92916767D01*
X118811133Y-92916769D01*
X118801253Y-92966442D01*
X118799500Y-92975253D01*
X118799500Y-93424746D01*
X118811133Y-93483232D01*
X118859497Y-93555611D01*
X118857430Y-93556991D01*
X118875245Y-93600000D01*
X118857430Y-93643008D01*
X118859497Y-93644389D01*
X118855448Y-93650447D01*
X118855448Y-93650448D01*
X118847528Y-93662299D01*
X118811133Y-93716767D01*
X118809851Y-93723214D01*
X118801253Y-93766442D01*
X118799500Y-93775253D01*
X118799500Y-94224746D01*
X118811133Y-94283232D01*
X118859497Y-94355611D01*
X118857430Y-94356991D01*
X118875245Y-94400000D01*
X118857430Y-94443008D01*
X118859497Y-94444389D01*
X118855448Y-94450447D01*
X118855448Y-94450448D01*
X118847528Y-94462299D01*
X118811133Y-94516767D01*
X118809851Y-94523214D01*
X118801253Y-94566442D01*
X118799500Y-94575253D01*
X118799500Y-95024746D01*
X118811133Y-95083232D01*
X118859497Y-95155611D01*
X118857430Y-95156991D01*
X118875245Y-95200000D01*
X118857430Y-95243008D01*
X118859497Y-95244389D01*
X118855448Y-95250447D01*
X118855448Y-95250448D01*
X118847528Y-95262299D01*
X118811133Y-95316767D01*
X118809851Y-95323214D01*
X118799500Y-95375252D01*
X118799500Y-95824748D01*
X118803710Y-95845913D01*
X118811133Y-95883232D01*
X118825582Y-95904855D01*
X118853925Y-95947273D01*
X118859497Y-95955611D01*
X118857430Y-95956991D01*
X118875245Y-96000000D01*
X118857430Y-96043008D01*
X118859497Y-96044389D01*
X118855448Y-96050447D01*
X118855448Y-96050448D01*
X118853925Y-96052727D01*
X118811133Y-96116767D01*
X118809851Y-96123214D01*
X118799500Y-96175252D01*
X118799500Y-96624748D01*
X118803710Y-96645913D01*
X118811133Y-96683232D01*
X118827942Y-96708387D01*
X118853925Y-96747273D01*
X118859497Y-96755611D01*
X118857430Y-96756991D01*
X118875245Y-96800000D01*
X118857430Y-96843008D01*
X118859497Y-96844389D01*
X118855448Y-96850447D01*
X118855448Y-96850448D01*
X118853925Y-96852727D01*
X118811133Y-96916767D01*
X118809851Y-96923214D01*
X118799500Y-96975252D01*
X118799500Y-97424748D01*
X118803710Y-97445913D01*
X118811133Y-97483232D01*
X118827942Y-97508387D01*
X118853925Y-97547273D01*
X118859497Y-97555611D01*
X118857430Y-97556991D01*
X118875245Y-97600000D01*
X118857430Y-97643008D01*
X118859497Y-97644389D01*
X118855448Y-97650447D01*
X118855448Y-97650448D01*
X118853925Y-97652727D01*
X118811133Y-97716767D01*
X118809851Y-97723214D01*
X118799500Y-97775252D01*
X118799500Y-98224748D01*
X118803710Y-98245913D01*
X118811133Y-98283232D01*
X118827942Y-98308387D01*
X118853925Y-98347273D01*
X118859497Y-98355611D01*
X118857430Y-98356991D01*
X118875245Y-98400000D01*
X118857430Y-98443008D01*
X118859497Y-98444389D01*
X118855448Y-98450447D01*
X118855448Y-98450448D01*
X118853925Y-98452727D01*
X118811133Y-98516767D01*
X118799500Y-98575253D01*
X118799500Y-99024746D01*
X118811133Y-99083233D01*
X118813923Y-99089968D01*
X118810543Y-99091367D01*
X118819026Y-99134092D01*
X118798779Y-99171954D01*
X118748214Y-99222519D01*
X118702910Y-99325124D01*
X118700000Y-99350210D01*
X108150500Y-99350210D01*
X108150500Y-92150210D01*
X118700000Y-92150210D01*
X118700000Y-92300000D01*
X121572999Y-92300000D01*
X121572999Y-92150210D01*
X124427000Y-92150210D01*
X124427000Y-92300000D01*
X127299999Y-92300000D01*
X127299999Y-92150207D01*
X127297091Y-92125131D01*
X127297089Y-92125125D01*
X127251786Y-92022521D01*
X127231091Y-92001826D01*
X127209417Y-91949500D01*
X127231091Y-91897174D01*
X127283417Y-91875500D01*
X142568057Y-91875500D01*
X142620383Y-91897174D01*
X149521382Y-98798174D01*
X149543056Y-98850500D01*
X149521382Y-98902826D01*
X149469056Y-98924500D01*
X149457592Y-98924500D01*
X149405266Y-98902826D01*
X147927186Y-97424746D01*
X143468882Y-92966443D01*
X143367624Y-92924500D01*
X143367623Y-92924500D01*
X127283417Y-92924500D01*
X127231091Y-92902826D01*
X127209417Y-92850500D01*
X127231091Y-92798174D01*
X127251786Y-92777478D01*
X127297089Y-92674875D01*
X127300000Y-92649789D01*
X127300000Y-92500000D01*
X124427001Y-92500000D01*
X124427001Y-92649792D01*
X124429908Y-92674868D01*
X124429910Y-92674874D01*
X124475213Y-92777478D01*
X124525780Y-92828045D01*
X124547454Y-92880371D01*
X124538733Y-92909128D01*
X124540922Y-92910035D01*
X124538133Y-92916767D01*
X124538133Y-92916769D01*
X124528253Y-92966442D01*
X124526500Y-92975253D01*
X124526500Y-93424746D01*
X124538133Y-93483232D01*
X124586497Y-93555611D01*
X124584430Y-93556991D01*
X124602245Y-93600000D01*
X124584430Y-93643008D01*
X124586497Y-93644389D01*
X124582448Y-93650447D01*
X124582448Y-93650448D01*
X124574528Y-93662299D01*
X124538133Y-93716767D01*
X124536851Y-93723214D01*
X124528253Y-93766442D01*
X124526500Y-93775253D01*
X124526500Y-94224746D01*
X124538133Y-94283232D01*
X124586497Y-94355611D01*
X124584430Y-94356991D01*
X124602245Y-94400000D01*
X124584430Y-94443008D01*
X124586497Y-94444389D01*
X124582448Y-94450447D01*
X124582448Y-94450448D01*
X124574528Y-94462299D01*
X124538133Y-94516767D01*
X124536851Y-94523214D01*
X124528253Y-94566442D01*
X124526500Y-94575253D01*
X124526500Y-95024746D01*
X124538133Y-95083232D01*
X124586497Y-95155611D01*
X124584430Y-95156991D01*
X124602245Y-95200000D01*
X124584430Y-95243008D01*
X124586497Y-95244389D01*
X124582448Y-95250447D01*
X124582448Y-95250448D01*
X124574528Y-95262299D01*
X124538133Y-95316767D01*
X124536851Y-95323214D01*
X124526500Y-95375252D01*
X124526500Y-95824748D01*
X124530710Y-95845913D01*
X124538133Y-95883232D01*
X124552582Y-95904855D01*
X124580925Y-95947273D01*
X124586497Y-95955611D01*
X124584430Y-95956991D01*
X124602245Y-96000000D01*
X124584430Y-96043008D01*
X124586497Y-96044389D01*
X124582448Y-96050447D01*
X124582448Y-96050448D01*
X124580925Y-96052727D01*
X124538133Y-96116767D01*
X124536851Y-96123214D01*
X124526500Y-96175252D01*
X124526500Y-96624748D01*
X124530710Y-96645913D01*
X124538133Y-96683232D01*
X124554942Y-96708387D01*
X124580925Y-96747273D01*
X124586497Y-96755611D01*
X124584430Y-96756991D01*
X124602245Y-96800000D01*
X124584430Y-96843008D01*
X124586497Y-96844389D01*
X124582448Y-96850447D01*
X124582448Y-96850448D01*
X124580925Y-96852727D01*
X124538133Y-96916767D01*
X124536851Y-96923214D01*
X124526500Y-96975252D01*
X124526500Y-97424748D01*
X124530710Y-97445913D01*
X124538133Y-97483232D01*
X124554942Y-97508387D01*
X124580925Y-97547273D01*
X124586497Y-97555611D01*
X124584430Y-97556991D01*
X124602245Y-97600000D01*
X124584430Y-97643008D01*
X124586497Y-97644389D01*
X124582448Y-97650447D01*
X124582448Y-97650448D01*
X124580925Y-97652727D01*
X124538133Y-97716767D01*
X124536851Y-97723214D01*
X124526500Y-97775252D01*
X124526500Y-98224748D01*
X124530710Y-98245913D01*
X124538133Y-98283232D01*
X124554942Y-98308387D01*
X124580925Y-98347273D01*
X124586497Y-98355611D01*
X124584430Y-98356991D01*
X124602245Y-98400000D01*
X124584430Y-98443008D01*
X124586497Y-98444389D01*
X124582448Y-98450447D01*
X124582448Y-98450448D01*
X124580925Y-98452727D01*
X124538133Y-98516767D01*
X124526500Y-98575253D01*
X124526500Y-99024746D01*
X124538133Y-99083233D01*
X124540923Y-99089968D01*
X124537543Y-99091367D01*
X124546026Y-99134092D01*
X124525779Y-99171954D01*
X124475214Y-99222519D01*
X124429910Y-99325124D01*
X124427000Y-99350210D01*
X124427000Y-99500000D01*
X127299999Y-99500000D01*
X127299999Y-99350207D01*
X127297091Y-99325131D01*
X127297089Y-99325125D01*
X127251786Y-99222521D01*
X127231091Y-99201826D01*
X127209417Y-99149500D01*
X127231091Y-99097174D01*
X127283417Y-99075500D01*
X141455235Y-99075500D01*
X141507561Y-99097174D01*
X142408561Y-99998174D01*
X142430235Y-100050500D01*
X142408561Y-100102826D01*
X142356235Y-100124500D01*
X127283417Y-100124500D01*
X127231091Y-100102826D01*
X127209417Y-100050500D01*
X127231091Y-99998174D01*
X127251786Y-99977478D01*
X127297089Y-99874875D01*
X127300000Y-99849789D01*
X127300000Y-99700000D01*
X124427001Y-99700000D01*
X124427001Y-99849792D01*
X124429908Y-99874868D01*
X124429910Y-99874874D01*
X124475213Y-99977478D01*
X124525780Y-100028045D01*
X124547454Y-100080371D01*
X124538733Y-100109128D01*
X124540922Y-100110035D01*
X124538133Y-100116767D01*
X124538133Y-100116769D01*
X124526500Y-100175252D01*
X124526500Y-100624748D01*
X124530710Y-100645913D01*
X124538133Y-100683232D01*
X124554942Y-100708387D01*
X124580925Y-100747273D01*
X124586497Y-100755611D01*
X124584430Y-100756991D01*
X124602245Y-100800000D01*
X124584430Y-100843008D01*
X124586497Y-100844389D01*
X124582448Y-100850447D01*
X124582448Y-100850448D01*
X124580925Y-100852727D01*
X124538133Y-100916767D01*
X124536851Y-100923214D01*
X124526500Y-100975252D01*
X124526500Y-101424748D01*
X124530710Y-101445913D01*
X124538133Y-101483232D01*
X124554942Y-101508387D01*
X124580925Y-101547273D01*
X124586497Y-101555611D01*
X124584430Y-101556991D01*
X124602245Y-101600000D01*
X124584430Y-101643008D01*
X124586497Y-101644389D01*
X124582448Y-101650447D01*
X124582448Y-101650448D01*
X124580925Y-101652727D01*
X124538133Y-101716767D01*
X124536851Y-101723214D01*
X124526500Y-101775252D01*
X124526500Y-102224748D01*
X124530710Y-102245913D01*
X124538133Y-102283232D01*
X124554942Y-102308387D01*
X124580925Y-102347273D01*
X124586497Y-102355611D01*
X124584430Y-102356991D01*
X124602245Y-102400000D01*
X124584430Y-102443008D01*
X124586497Y-102444389D01*
X124582448Y-102450447D01*
X124582448Y-102450448D01*
X124580925Y-102452727D01*
X124538133Y-102516767D01*
X124536851Y-102523214D01*
X124526500Y-102575252D01*
X124526500Y-103024748D01*
X124530710Y-103045913D01*
X124538133Y-103083232D01*
X124554942Y-103108387D01*
X124580925Y-103147273D01*
X124586497Y-103155611D01*
X124584430Y-103156991D01*
X124602245Y-103200000D01*
X124584430Y-103243008D01*
X124586497Y-103244389D01*
X124582448Y-103250447D01*
X124582448Y-103250448D01*
X124580925Y-103252727D01*
X124538133Y-103316767D01*
X124536851Y-103323214D01*
X124526500Y-103375252D01*
X124526500Y-103824748D01*
X124530710Y-103845913D01*
X124538133Y-103883232D01*
X124554942Y-103908387D01*
X124582413Y-103949500D01*
X124586497Y-103955611D01*
X124584430Y-103956991D01*
X124602245Y-104000000D01*
X124584430Y-104043008D01*
X124586497Y-104044389D01*
X124582448Y-104050447D01*
X124582448Y-104050448D01*
X124580925Y-104052727D01*
X124538133Y-104116767D01*
X124536851Y-104123214D01*
X124526500Y-104175252D01*
X124526500Y-104624748D01*
X124530696Y-104645841D01*
X124538133Y-104683232D01*
X124554942Y-104708387D01*
X124582413Y-104749500D01*
X124586497Y-104755611D01*
X124584430Y-104756991D01*
X124602245Y-104800000D01*
X124584430Y-104843008D01*
X124586497Y-104844389D01*
X124538133Y-104916767D01*
X124536851Y-104923214D01*
X124526500Y-104975252D01*
X124526500Y-105424748D01*
X124530710Y-105445913D01*
X124538133Y-105483232D01*
X124554942Y-105508387D01*
X124582413Y-105549500D01*
X124586497Y-105555611D01*
X124584430Y-105556991D01*
X124602245Y-105600000D01*
X124584430Y-105643008D01*
X124586497Y-105644389D01*
X124538133Y-105716767D01*
X124526500Y-105775253D01*
X124526500Y-106224746D01*
X124538133Y-106283233D01*
X124540923Y-106289968D01*
X124537543Y-106291367D01*
X124546026Y-106334092D01*
X124525779Y-106371954D01*
X124475214Y-106422519D01*
X124429910Y-106525124D01*
X124427000Y-106550210D01*
X124427000Y-106700000D01*
X127299999Y-106700000D01*
X127299999Y-106550207D01*
X127297091Y-106525131D01*
X127297089Y-106525125D01*
X127251786Y-106422521D01*
X127231091Y-106401826D01*
X127209417Y-106349500D01*
X127231091Y-106297174D01*
X127283417Y-106275500D01*
X141254798Y-106275500D01*
X141254800Y-106275500D01*
X141356058Y-106233557D01*
X141433557Y-106156058D01*
X142092441Y-105497174D01*
X142144767Y-105475500D01*
X142156230Y-105475500D01*
X142208556Y-105497174D01*
X142230230Y-105549500D01*
X142208556Y-105601826D01*
X140507557Y-107302826D01*
X140455231Y-107324500D01*
X127283417Y-107324500D01*
X127231091Y-107302826D01*
X127209417Y-107250500D01*
X127231091Y-107198174D01*
X127251786Y-107177478D01*
X127297089Y-107074875D01*
X127300000Y-107049789D01*
X127300000Y-106900000D01*
X124427001Y-106900000D01*
X124427001Y-107049792D01*
X124429908Y-107074868D01*
X124429910Y-107074874D01*
X124475213Y-107177478D01*
X124525780Y-107228045D01*
X124547454Y-107280371D01*
X124538733Y-107309128D01*
X124540922Y-107310035D01*
X124538133Y-107316767D01*
X124538133Y-107316769D01*
X124526500Y-107375252D01*
X124526500Y-107824748D01*
X124530710Y-107845913D01*
X124538133Y-107883232D01*
X124554942Y-107908387D01*
X124582413Y-107949500D01*
X124586497Y-107955611D01*
X124584430Y-107956991D01*
X124602245Y-108000000D01*
X124584430Y-108043008D01*
X124586497Y-108044389D01*
X124538133Y-108116767D01*
X124538133Y-108116769D01*
X124526500Y-108175252D01*
X124526500Y-108624748D01*
X124530710Y-108645913D01*
X124538133Y-108683232D01*
X124586497Y-108755611D01*
X124584430Y-108756991D01*
X124602245Y-108800000D01*
X124584430Y-108843008D01*
X124586497Y-108844389D01*
X124538133Y-108916767D01*
X124538133Y-108916769D01*
X124526500Y-108975252D01*
X124526500Y-109424748D01*
X124530696Y-109445841D01*
X124538133Y-109483232D01*
X124586497Y-109555611D01*
X124584430Y-109556991D01*
X124602245Y-109600000D01*
X124584430Y-109643008D01*
X124586497Y-109644389D01*
X124538133Y-109716767D01*
X124538133Y-109716769D01*
X124526500Y-109775252D01*
X124526500Y-110224748D01*
X124534255Y-110263736D01*
X124538133Y-110283232D01*
X124586497Y-110355611D01*
X124584430Y-110356991D01*
X124602245Y-110400000D01*
X124584430Y-110443008D01*
X124586497Y-110444389D01*
X124538133Y-110516767D01*
X124538133Y-110516769D01*
X124526500Y-110575252D01*
X124526500Y-111024748D01*
X124530696Y-111045841D01*
X124538133Y-111083232D01*
X124554339Y-111107485D01*
X124582413Y-111149500D01*
X124586497Y-111155611D01*
X124584430Y-111156991D01*
X124602245Y-111200000D01*
X124584430Y-111243008D01*
X124586497Y-111244389D01*
X124538133Y-111316767D01*
X124538133Y-111316769D01*
X124526500Y-111375252D01*
X124526500Y-111824748D01*
X124534255Y-111863736D01*
X124538133Y-111883232D01*
X124554942Y-111908387D01*
X124582413Y-111949500D01*
X124586497Y-111955611D01*
X124584430Y-111956991D01*
X124602245Y-112000000D01*
X124584430Y-112043008D01*
X124586497Y-112044389D01*
X124538133Y-112116767D01*
X124536851Y-112123214D01*
X124526500Y-112175252D01*
X124526500Y-112624748D01*
X124530696Y-112645841D01*
X124538133Y-112683232D01*
X124550545Y-112701807D01*
X124582413Y-112749500D01*
X124586497Y-112755611D01*
X124584430Y-112756991D01*
X124602245Y-112800000D01*
X124584430Y-112843008D01*
X124586497Y-112844389D01*
X124538133Y-112916767D01*
X124538133Y-112916769D01*
X124526500Y-112975252D01*
X124526500Y-113424748D01*
X124528253Y-113433559D01*
X124538133Y-113483233D01*
X124540923Y-113489968D01*
X124537543Y-113491367D01*
X124546026Y-113534092D01*
X124525779Y-113571954D01*
X124475214Y-113622519D01*
X124429910Y-113725124D01*
X124427000Y-113750210D01*
X124427000Y-113900000D01*
X127299999Y-113900000D01*
X127299999Y-113750207D01*
X127297091Y-113725131D01*
X127297089Y-113725125D01*
X127251786Y-113622521D01*
X127231091Y-113601826D01*
X127209417Y-113549500D01*
X127231091Y-113497174D01*
X127283417Y-113475500D01*
X141754798Y-113475500D01*
X141754800Y-113475500D01*
X141856058Y-113433557D01*
X141933557Y-113356058D01*
X141933556Y-113356058D01*
X141968517Y-113321097D01*
X141968516Y-113321097D01*
X146592442Y-108697174D01*
X146644768Y-108675500D01*
X154178455Y-108675500D01*
X154230781Y-108697174D01*
X154254087Y-108720480D01*
X154345413Y-108773207D01*
X154447270Y-108800499D01*
X154447271Y-108800500D01*
X154447273Y-108800500D01*
X154552729Y-108800500D01*
X154552729Y-108800499D01*
X154654587Y-108773207D01*
X154745913Y-108720480D01*
X154820480Y-108645913D01*
X154873207Y-108554587D01*
X154900499Y-108452729D01*
X154900500Y-108452729D01*
X154900500Y-108417713D01*
X154922174Y-108365387D01*
X154974500Y-108343713D01*
X155011497Y-108353626D01*
X155045413Y-108373207D01*
X155147270Y-108400499D01*
X155147271Y-108400500D01*
X155147273Y-108400500D01*
X155252729Y-108400500D01*
X155252729Y-108400499D01*
X155354587Y-108373207D01*
X155445913Y-108320480D01*
X155520480Y-108245913D01*
X155573207Y-108154587D01*
X155600499Y-108052729D01*
X155600500Y-108052729D01*
X155600500Y-107947271D01*
X155600499Y-107947270D01*
X155600221Y-107946234D01*
X155573207Y-107845413D01*
X155520480Y-107754087D01*
X155445913Y-107679520D01*
X155419179Y-107664085D01*
X155384702Y-107619153D01*
X155392094Y-107563000D01*
X155419180Y-107535914D01*
X155445913Y-107520480D01*
X155520480Y-107445913D01*
X155573207Y-107354587D01*
X155600499Y-107252729D01*
X155600500Y-107252729D01*
X155600500Y-107147271D01*
X155600499Y-107147270D01*
X155574379Y-107049789D01*
X155573207Y-107045413D01*
X155520480Y-106954087D01*
X155445913Y-106879520D01*
X155419179Y-106864085D01*
X155384702Y-106819153D01*
X155392094Y-106763000D01*
X155419180Y-106735914D01*
X155445913Y-106720480D01*
X155520480Y-106645913D01*
X155573207Y-106554587D01*
X155600499Y-106452729D01*
X155600500Y-106452729D01*
X155600500Y-106347271D01*
X155600499Y-106347270D01*
X155593092Y-106319628D01*
X155573207Y-106245413D01*
X155520480Y-106154087D01*
X155445913Y-106079520D01*
X155419179Y-106064085D01*
X155384702Y-106019153D01*
X155392094Y-105963000D01*
X155419180Y-105935914D01*
X155445913Y-105920480D01*
X155520480Y-105845913D01*
X155573207Y-105754587D01*
X155600499Y-105652729D01*
X155600500Y-105652729D01*
X155600500Y-105547271D01*
X155600499Y-105547270D01*
X155590080Y-105508387D01*
X155573207Y-105445413D01*
X155520480Y-105354087D01*
X155445913Y-105279520D01*
X155419179Y-105264085D01*
X155384702Y-105219153D01*
X155392094Y-105163000D01*
X155419180Y-105135914D01*
X155445913Y-105120480D01*
X155520480Y-105045913D01*
X155573207Y-104954587D01*
X155600499Y-104852729D01*
X155600500Y-104852729D01*
X155600500Y-104747271D01*
X155600499Y-104747270D01*
X155590080Y-104708387D01*
X155573207Y-104645413D01*
X155520480Y-104554087D01*
X155445913Y-104479520D01*
X155419179Y-104464085D01*
X155384702Y-104419153D01*
X155392094Y-104363000D01*
X155419180Y-104335914D01*
X155445913Y-104320480D01*
X155520480Y-104245913D01*
X155573207Y-104154587D01*
X155600499Y-104052729D01*
X155600500Y-104052729D01*
X155600500Y-103947271D01*
X155600499Y-103947270D01*
X155590080Y-103908387D01*
X155573207Y-103845413D01*
X155520480Y-103754087D01*
X155445913Y-103679520D01*
X155419179Y-103664085D01*
X155384702Y-103619153D01*
X155392094Y-103563000D01*
X155419180Y-103535914D01*
X155445913Y-103520480D01*
X155520480Y-103445913D01*
X155573207Y-103354587D01*
X155600499Y-103252729D01*
X155600500Y-103252729D01*
X155600500Y-103147271D01*
X155600499Y-103147270D01*
X155590080Y-103108387D01*
X155573207Y-103045413D01*
X155520480Y-102954087D01*
X155445913Y-102879520D01*
X155419179Y-102864085D01*
X155384702Y-102819153D01*
X155392094Y-102763000D01*
X155419180Y-102735914D01*
X155445913Y-102720480D01*
X155520480Y-102645913D01*
X155573207Y-102554587D01*
X155600499Y-102452729D01*
X155600500Y-102452729D01*
X155600500Y-102347271D01*
X155600499Y-102347270D01*
X155590080Y-102308387D01*
X155573207Y-102245413D01*
X155520480Y-102154087D01*
X155445913Y-102079520D01*
X155419179Y-102064085D01*
X155384702Y-102019153D01*
X155392094Y-101963000D01*
X155419180Y-101935914D01*
X155445913Y-101920480D01*
X155520480Y-101845913D01*
X155573207Y-101754587D01*
X155600499Y-101652729D01*
X155600500Y-101652729D01*
X155600500Y-101547271D01*
X155600499Y-101547270D01*
X155590080Y-101508387D01*
X155573207Y-101445413D01*
X155520480Y-101354087D01*
X155445913Y-101279520D01*
X155419179Y-101264085D01*
X155384702Y-101219153D01*
X155392094Y-101163000D01*
X155419180Y-101135914D01*
X155445913Y-101120480D01*
X155520480Y-101045913D01*
X155573207Y-100954587D01*
X155600499Y-100852729D01*
X155600500Y-100852729D01*
X155600500Y-100747271D01*
X155600499Y-100747270D01*
X155590080Y-100708387D01*
X155573207Y-100645413D01*
X155520480Y-100554087D01*
X155445913Y-100479520D01*
X155419179Y-100464085D01*
X155384702Y-100419153D01*
X155392094Y-100363000D01*
X155419180Y-100335914D01*
X155445913Y-100320480D01*
X155520480Y-100245913D01*
X155573207Y-100154587D01*
X155600499Y-100052729D01*
X155600500Y-100052729D01*
X155600500Y-99947271D01*
X155600499Y-99947270D01*
X155574379Y-99849789D01*
X155573207Y-99845413D01*
X155520480Y-99754087D01*
X155445913Y-99679520D01*
X155419179Y-99664085D01*
X155384702Y-99619153D01*
X155392094Y-99563000D01*
X155419180Y-99535914D01*
X155445913Y-99520480D01*
X155520480Y-99445913D01*
X155573207Y-99354587D01*
X155600499Y-99252729D01*
X155600500Y-99252729D01*
X155600500Y-99147271D01*
X155600499Y-99147270D01*
X155593092Y-99119628D01*
X155573207Y-99045413D01*
X155520480Y-98954087D01*
X155445913Y-98879520D01*
X155419179Y-98864085D01*
X155384702Y-98819153D01*
X155392094Y-98763000D01*
X155419180Y-98735914D01*
X155445913Y-98720480D01*
X155520480Y-98645913D01*
X155573207Y-98554587D01*
X155600499Y-98452729D01*
X155600500Y-98452729D01*
X155600500Y-98347271D01*
X155600499Y-98347270D01*
X155590080Y-98308387D01*
X155573207Y-98245413D01*
X155520480Y-98154087D01*
X155445913Y-98079520D01*
X155419179Y-98064085D01*
X155384702Y-98019153D01*
X155392094Y-97963000D01*
X155419180Y-97935914D01*
X155445913Y-97920480D01*
X155520480Y-97845913D01*
X155573207Y-97754587D01*
X155600499Y-97652729D01*
X155600500Y-97652729D01*
X155600500Y-97547271D01*
X155600499Y-97547270D01*
X155590080Y-97508387D01*
X155573207Y-97445413D01*
X155520480Y-97354087D01*
X155445913Y-97279520D01*
X155419179Y-97264085D01*
X155384702Y-97219153D01*
X155392094Y-97163000D01*
X155419180Y-97135914D01*
X155445913Y-97120480D01*
X155520480Y-97045913D01*
X155573207Y-96954587D01*
X155600499Y-96852729D01*
X155600500Y-96852729D01*
X155600500Y-96747271D01*
X155600499Y-96747270D01*
X155590080Y-96708387D01*
X155573207Y-96645413D01*
X155520480Y-96554087D01*
X155445913Y-96479520D01*
X155419179Y-96464085D01*
X155384702Y-96419153D01*
X155392094Y-96363000D01*
X155419180Y-96335914D01*
X155445913Y-96320480D01*
X155520480Y-96245913D01*
X155573207Y-96154587D01*
X155600499Y-96052729D01*
X155600500Y-96052729D01*
X155600500Y-95947271D01*
X155600499Y-95947270D01*
X155590080Y-95908387D01*
X155573207Y-95845413D01*
X155520480Y-95754087D01*
X155445913Y-95679520D01*
X155399506Y-95652727D01*
X155354591Y-95626795D01*
X155354582Y-95626791D01*
X155310171Y-95614891D01*
X155310162Y-95614889D01*
X155252727Y-95599500D01*
X155213891Y-95599500D01*
X155208086Y-95598572D01*
X155188587Y-95586584D01*
X155167442Y-95577826D01*
X155136886Y-95547270D01*
X160399500Y-95547270D01*
X160399500Y-95652729D01*
X160426791Y-95754582D01*
X160426792Y-95754585D01*
X160426793Y-95754587D01*
X160479520Y-95845913D01*
X160554087Y-95920480D01*
X160580820Y-95935914D01*
X160615298Y-95980848D01*
X160607905Y-96037001D01*
X160580820Y-96064086D01*
X160554085Y-96079521D01*
X160479520Y-96154086D01*
X160426795Y-96245408D01*
X160426791Y-96245417D01*
X160399500Y-96347270D01*
X160399500Y-96452729D01*
X160426791Y-96554582D01*
X160426792Y-96554585D01*
X160426793Y-96554587D01*
X160479520Y-96645913D01*
X160554087Y-96720480D01*
X160580820Y-96735914D01*
X160615298Y-96780848D01*
X160607905Y-96837001D01*
X160580820Y-96864086D01*
X160554085Y-96879521D01*
X160479520Y-96954086D01*
X160426795Y-97045408D01*
X160426791Y-97045417D01*
X160399500Y-97147270D01*
X160399500Y-97252729D01*
X160426791Y-97354582D01*
X160426792Y-97354585D01*
X160426793Y-97354587D01*
X160479520Y-97445913D01*
X160554087Y-97520480D01*
X160580820Y-97535914D01*
X160615298Y-97580848D01*
X160607905Y-97637001D01*
X160580820Y-97664086D01*
X160554085Y-97679521D01*
X160479520Y-97754086D01*
X160426795Y-97845408D01*
X160426791Y-97845417D01*
X160399500Y-97947270D01*
X160399500Y-98052729D01*
X160426791Y-98154582D01*
X160426792Y-98154585D01*
X160426793Y-98154587D01*
X160479520Y-98245913D01*
X160554087Y-98320480D01*
X160580820Y-98335914D01*
X160615298Y-98380848D01*
X160607905Y-98437001D01*
X160580820Y-98464086D01*
X160554085Y-98479521D01*
X160479520Y-98554086D01*
X160426795Y-98645408D01*
X160426791Y-98645417D01*
X160399500Y-98747270D01*
X160399500Y-98852729D01*
X160426791Y-98954582D01*
X160426792Y-98954585D01*
X160426793Y-98954587D01*
X160479520Y-99045913D01*
X160554087Y-99120480D01*
X160577664Y-99134092D01*
X160580820Y-99135914D01*
X160615298Y-99180848D01*
X160607905Y-99237001D01*
X160580820Y-99264086D01*
X160554085Y-99279521D01*
X160479520Y-99354086D01*
X160426795Y-99445408D01*
X160426791Y-99445417D01*
X160399500Y-99547270D01*
X160399500Y-99652729D01*
X160426791Y-99754582D01*
X160426792Y-99754585D01*
X160426793Y-99754587D01*
X160479520Y-99845913D01*
X160554087Y-99920480D01*
X160580820Y-99935914D01*
X160615298Y-99980848D01*
X160607905Y-100037001D01*
X160580820Y-100064086D01*
X160554085Y-100079521D01*
X160479520Y-100154086D01*
X160426795Y-100245408D01*
X160426791Y-100245417D01*
X160399500Y-100347270D01*
X160399500Y-100452729D01*
X160426791Y-100554582D01*
X160426792Y-100554585D01*
X160426793Y-100554587D01*
X160479520Y-100645913D01*
X160554087Y-100720480D01*
X160580820Y-100735914D01*
X160615298Y-100780848D01*
X160607905Y-100837001D01*
X160580820Y-100864086D01*
X160554085Y-100879521D01*
X160479520Y-100954086D01*
X160426795Y-101045408D01*
X160426791Y-101045417D01*
X160399500Y-101147270D01*
X160399500Y-101252729D01*
X160426791Y-101354582D01*
X160426792Y-101354585D01*
X160426793Y-101354587D01*
X160479520Y-101445913D01*
X160554087Y-101520480D01*
X160580820Y-101535914D01*
X160615298Y-101580848D01*
X160607905Y-101637001D01*
X160580820Y-101664086D01*
X160554085Y-101679521D01*
X160479520Y-101754086D01*
X160426795Y-101845408D01*
X160426791Y-101845417D01*
X160399500Y-101947270D01*
X160399500Y-102052729D01*
X160426791Y-102154582D01*
X160426792Y-102154585D01*
X160426793Y-102154587D01*
X160479520Y-102245913D01*
X160554087Y-102320480D01*
X160580820Y-102335914D01*
X160615298Y-102380848D01*
X160607905Y-102437001D01*
X160580820Y-102464086D01*
X160554085Y-102479521D01*
X160479520Y-102554086D01*
X160426795Y-102645408D01*
X160426791Y-102645417D01*
X160399500Y-102747270D01*
X160399500Y-102852729D01*
X160426791Y-102954582D01*
X160426792Y-102954585D01*
X160426793Y-102954587D01*
X160479520Y-103045913D01*
X160554087Y-103120480D01*
X160580820Y-103135914D01*
X160615298Y-103180848D01*
X160607905Y-103237001D01*
X160580820Y-103264086D01*
X160554085Y-103279521D01*
X160479520Y-103354086D01*
X160426795Y-103445408D01*
X160426791Y-103445417D01*
X160399500Y-103547270D01*
X160399500Y-103652729D01*
X160426791Y-103754582D01*
X160426792Y-103754585D01*
X160426793Y-103754587D01*
X160479520Y-103845913D01*
X160554087Y-103920480D01*
X160580820Y-103935914D01*
X160615298Y-103980848D01*
X160607905Y-104037001D01*
X160580820Y-104064086D01*
X160554085Y-104079521D01*
X160479520Y-104154086D01*
X160426795Y-104245408D01*
X160426791Y-104245417D01*
X160399500Y-104347270D01*
X160399500Y-104452729D01*
X160426791Y-104554582D01*
X160426792Y-104554585D01*
X160426793Y-104554587D01*
X160479520Y-104645913D01*
X160554087Y-104720480D01*
X160580820Y-104735914D01*
X160615298Y-104780848D01*
X160607905Y-104837001D01*
X160580820Y-104864086D01*
X160554085Y-104879521D01*
X160479520Y-104954086D01*
X160426795Y-105045408D01*
X160426791Y-105045417D01*
X160399500Y-105147270D01*
X160399500Y-105252729D01*
X160426791Y-105354582D01*
X160426792Y-105354585D01*
X160426793Y-105354587D01*
X160479520Y-105445913D01*
X160554087Y-105520480D01*
X160580820Y-105535914D01*
X160615298Y-105580848D01*
X160607905Y-105637001D01*
X160580820Y-105664086D01*
X160554085Y-105679521D01*
X160479520Y-105754086D01*
X160426795Y-105845408D01*
X160426791Y-105845417D01*
X160399500Y-105947270D01*
X160399500Y-106052729D01*
X160426791Y-106154582D01*
X160426792Y-106154585D01*
X160426793Y-106154587D01*
X160479520Y-106245913D01*
X160554087Y-106320480D01*
X160577664Y-106334092D01*
X160580820Y-106335914D01*
X160615298Y-106380848D01*
X160607905Y-106437001D01*
X160580820Y-106464086D01*
X160554085Y-106479521D01*
X160479520Y-106554086D01*
X160426795Y-106645408D01*
X160426791Y-106645417D01*
X160399500Y-106747270D01*
X160399500Y-106852729D01*
X160426791Y-106954582D01*
X160426792Y-106954585D01*
X160426793Y-106954587D01*
X160479520Y-107045913D01*
X160554087Y-107120480D01*
X160580820Y-107135914D01*
X160615298Y-107180848D01*
X160607905Y-107237001D01*
X160580820Y-107264086D01*
X160554085Y-107279521D01*
X160479520Y-107354086D01*
X160426795Y-107445408D01*
X160426791Y-107445417D01*
X160399500Y-107547270D01*
X160399500Y-107652729D01*
X160426791Y-107754582D01*
X160426792Y-107754585D01*
X160426793Y-107754587D01*
X160479520Y-107845913D01*
X160554087Y-107920480D01*
X160645413Y-107973207D01*
X160747270Y-108000499D01*
X160747271Y-108000500D01*
X160747273Y-108000500D01*
X160852729Y-108000500D01*
X160852729Y-108000499D01*
X160954587Y-107973207D01*
X160988501Y-107953626D01*
X161044652Y-107946234D01*
X161089586Y-107980712D01*
X161099500Y-108017713D01*
X161099500Y-108052729D01*
X161126791Y-108154582D01*
X161126795Y-108154591D01*
X161179520Y-108245913D01*
X161254087Y-108320480D01*
X161345413Y-108373207D01*
X161447270Y-108400499D01*
X161447271Y-108400500D01*
X161447273Y-108400500D01*
X161552729Y-108400500D01*
X161552729Y-108400499D01*
X161654587Y-108373207D01*
X161745913Y-108320480D01*
X161769219Y-108297174D01*
X161821545Y-108275500D01*
X167455233Y-108275500D01*
X167507558Y-108297173D01*
X172643942Y-113433558D01*
X172745200Y-113475500D01*
X188716583Y-113475500D01*
X188768909Y-113497174D01*
X188790583Y-113549500D01*
X188768909Y-113601826D01*
X188748213Y-113622521D01*
X188702910Y-113725124D01*
X188700000Y-113750210D01*
X188700000Y-113900000D01*
X191572999Y-113900000D01*
X191572999Y-113750210D01*
X194427000Y-113750210D01*
X194427000Y-113900000D01*
X197299999Y-113900000D01*
X197299999Y-113750207D01*
X197297091Y-113725131D01*
X197297089Y-113725125D01*
X197251786Y-113622521D01*
X197201219Y-113571954D01*
X197179545Y-113519628D01*
X197188275Y-113490874D01*
X197186078Y-113489964D01*
X197188866Y-113483232D01*
X197188865Y-113483232D01*
X197188867Y-113483231D01*
X197200500Y-113424748D01*
X197200500Y-112975252D01*
X197188867Y-112916769D01*
X197179550Y-112902826D01*
X197140503Y-112844389D01*
X197142569Y-112843008D01*
X197124755Y-112800000D01*
X197142569Y-112756991D01*
X197140503Y-112755611D01*
X197144587Y-112749500D01*
X197188867Y-112683231D01*
X197200500Y-112624748D01*
X197200500Y-112175252D01*
X197188867Y-112116769D01*
X197182760Y-112107630D01*
X197140503Y-112044389D01*
X197142569Y-112043008D01*
X197124755Y-112000000D01*
X197142569Y-111956991D01*
X197140503Y-111955611D01*
X197144587Y-111949500D01*
X197188867Y-111883231D01*
X197200500Y-111824748D01*
X197200500Y-111375252D01*
X197188867Y-111316769D01*
X197179550Y-111302826D01*
X197140503Y-111244389D01*
X197142569Y-111243008D01*
X197124755Y-111200000D01*
X197142569Y-111156991D01*
X197140503Y-111155611D01*
X197144587Y-111149500D01*
X197188867Y-111083231D01*
X197200500Y-111024748D01*
X197200500Y-110575252D01*
X197188867Y-110516769D01*
X197179550Y-110502826D01*
X197140503Y-110444389D01*
X197142569Y-110443008D01*
X197124755Y-110400000D01*
X197142569Y-110356991D01*
X197140503Y-110355611D01*
X197172661Y-110307485D01*
X197188867Y-110283231D01*
X197200500Y-110224748D01*
X197200500Y-109775252D01*
X197188867Y-109716769D01*
X197179550Y-109702826D01*
X197140503Y-109644389D01*
X197142569Y-109643008D01*
X197124755Y-109600000D01*
X197142569Y-109556991D01*
X197140503Y-109555611D01*
X197172661Y-109507485D01*
X197188867Y-109483231D01*
X197200500Y-109424748D01*
X197200500Y-108975252D01*
X197188867Y-108916769D01*
X197179550Y-108902826D01*
X197140503Y-108844389D01*
X197142569Y-108843008D01*
X197124755Y-108800000D01*
X197142569Y-108756991D01*
X197140503Y-108755611D01*
X197163978Y-108720480D01*
X197188867Y-108683231D01*
X197200500Y-108624748D01*
X197200500Y-108175252D01*
X197188867Y-108116769D01*
X197179550Y-108102826D01*
X197146076Y-108052729D01*
X197144552Y-108050448D01*
X197144551Y-108050447D01*
X197140503Y-108044389D01*
X197142569Y-108043008D01*
X197124755Y-108000000D01*
X197142569Y-107956991D01*
X197140503Y-107955611D01*
X197144587Y-107949500D01*
X197188867Y-107883231D01*
X197200500Y-107824748D01*
X197200500Y-107375252D01*
X197188867Y-107316769D01*
X197188866Y-107316767D01*
X197188866Y-107316766D01*
X197186077Y-107310032D01*
X197189457Y-107308631D01*
X197180971Y-107265920D01*
X197201221Y-107228044D01*
X197251785Y-107177480D01*
X197297089Y-107074875D01*
X197300000Y-107049789D01*
X197300000Y-106900000D01*
X194427001Y-106900000D01*
X194427001Y-107049792D01*
X194429908Y-107074868D01*
X194429910Y-107074874D01*
X194475213Y-107177478D01*
X194525780Y-107228045D01*
X194547454Y-107280371D01*
X194538733Y-107309128D01*
X194540922Y-107310035D01*
X194538133Y-107316767D01*
X194538133Y-107316769D01*
X194526500Y-107375252D01*
X194526500Y-107824748D01*
X194530710Y-107845913D01*
X194538133Y-107883232D01*
X194554942Y-107908387D01*
X194582413Y-107949500D01*
X194586497Y-107955611D01*
X194584430Y-107956991D01*
X194602245Y-108000000D01*
X194584430Y-108043008D01*
X194586497Y-108044389D01*
X194538133Y-108116767D01*
X194538133Y-108116769D01*
X194526500Y-108175252D01*
X194526500Y-108624748D01*
X194530710Y-108645913D01*
X194538133Y-108683232D01*
X194586497Y-108755611D01*
X194584430Y-108756991D01*
X194602245Y-108800000D01*
X194584430Y-108843008D01*
X194586497Y-108844389D01*
X194538133Y-108916767D01*
X194538133Y-108916769D01*
X194526500Y-108975252D01*
X194526500Y-109424748D01*
X194530696Y-109445841D01*
X194538133Y-109483232D01*
X194586497Y-109555611D01*
X194584430Y-109556991D01*
X194602245Y-109600000D01*
X194584430Y-109643008D01*
X194586497Y-109644389D01*
X194538133Y-109716767D01*
X194538133Y-109716769D01*
X194526500Y-109775252D01*
X194526500Y-110224748D01*
X194534255Y-110263736D01*
X194538133Y-110283232D01*
X194586497Y-110355611D01*
X194584430Y-110356991D01*
X194602245Y-110400000D01*
X194584430Y-110443008D01*
X194586497Y-110444389D01*
X194538133Y-110516767D01*
X194538133Y-110516769D01*
X194526500Y-110575252D01*
X194526500Y-111024748D01*
X194530696Y-111045841D01*
X194538133Y-111083232D01*
X194554339Y-111107485D01*
X194582413Y-111149500D01*
X194586497Y-111155611D01*
X194584430Y-111156991D01*
X194602245Y-111200000D01*
X194584430Y-111243008D01*
X194586497Y-111244389D01*
X194538133Y-111316767D01*
X194538133Y-111316769D01*
X194526500Y-111375252D01*
X194526500Y-111824748D01*
X194534255Y-111863736D01*
X194538133Y-111883232D01*
X194554942Y-111908387D01*
X194582413Y-111949500D01*
X194586497Y-111955611D01*
X194584430Y-111956991D01*
X194602245Y-112000000D01*
X194584430Y-112043008D01*
X194586497Y-112044389D01*
X194538133Y-112116767D01*
X194536851Y-112123214D01*
X194526500Y-112175252D01*
X194526500Y-112624748D01*
X194530696Y-112645841D01*
X194538133Y-112683232D01*
X194550545Y-112701807D01*
X194582413Y-112749500D01*
X194586497Y-112755611D01*
X194584430Y-112756991D01*
X194602245Y-112800000D01*
X194584430Y-112843008D01*
X194586497Y-112844389D01*
X194538133Y-112916767D01*
X194538133Y-112916769D01*
X194526500Y-112975252D01*
X194526500Y-113424748D01*
X194528253Y-113433559D01*
X194538133Y-113483233D01*
X194540923Y-113489968D01*
X194537543Y-113491367D01*
X194546026Y-113534092D01*
X194525779Y-113571954D01*
X194475214Y-113622519D01*
X194429910Y-113725124D01*
X194427000Y-113750210D01*
X191572999Y-113750210D01*
X191572999Y-113750207D01*
X191570091Y-113725131D01*
X191570089Y-113725125D01*
X191524786Y-113622521D01*
X191474219Y-113571954D01*
X191452545Y-113519628D01*
X191461275Y-113490874D01*
X191459078Y-113489964D01*
X191461866Y-113483232D01*
X191461865Y-113483232D01*
X191461867Y-113483231D01*
X191473500Y-113424748D01*
X191473500Y-112975252D01*
X191461867Y-112916769D01*
X191452550Y-112902826D01*
X191413503Y-112844389D01*
X191415569Y-112843008D01*
X191397755Y-112800000D01*
X191415569Y-112756991D01*
X191413503Y-112755611D01*
X191417587Y-112749500D01*
X191461867Y-112683231D01*
X191473500Y-112624748D01*
X191473500Y-112175252D01*
X191461867Y-112116769D01*
X191455760Y-112107630D01*
X191413503Y-112044389D01*
X191415569Y-112043008D01*
X191397755Y-112000000D01*
X191415569Y-111956991D01*
X191413503Y-111955611D01*
X191417587Y-111949500D01*
X191461867Y-111883231D01*
X191473500Y-111824748D01*
X191473500Y-111375252D01*
X191461867Y-111316769D01*
X191452550Y-111302826D01*
X191413503Y-111244389D01*
X191415569Y-111243008D01*
X191397755Y-111200000D01*
X191415569Y-111156991D01*
X191413503Y-111155611D01*
X191417587Y-111149500D01*
X191461867Y-111083231D01*
X191473500Y-111024748D01*
X191473500Y-110575252D01*
X191461867Y-110516769D01*
X191452550Y-110502826D01*
X191413503Y-110444389D01*
X191415569Y-110443008D01*
X191397755Y-110400000D01*
X191415569Y-110356991D01*
X191413503Y-110355611D01*
X191445661Y-110307485D01*
X191461867Y-110283231D01*
X191473500Y-110224748D01*
X191473500Y-109775252D01*
X191461867Y-109716769D01*
X191452550Y-109702826D01*
X191413503Y-109644389D01*
X191415569Y-109643008D01*
X191397755Y-109600000D01*
X191415569Y-109556991D01*
X191413503Y-109555611D01*
X191445661Y-109507485D01*
X191461867Y-109483231D01*
X191473500Y-109424748D01*
X191473500Y-108975252D01*
X191461867Y-108916769D01*
X191452550Y-108902826D01*
X191413503Y-108844389D01*
X191415569Y-108843008D01*
X191397755Y-108800000D01*
X191415569Y-108756991D01*
X191413503Y-108755611D01*
X191436978Y-108720480D01*
X191461867Y-108683231D01*
X191473500Y-108624748D01*
X191473500Y-108175252D01*
X191461867Y-108116769D01*
X191452550Y-108102826D01*
X191419076Y-108052729D01*
X191417552Y-108050448D01*
X191417551Y-108050447D01*
X191413503Y-108044389D01*
X191415569Y-108043008D01*
X191397755Y-108000000D01*
X191415569Y-107956991D01*
X191413503Y-107955611D01*
X191417587Y-107949500D01*
X191461867Y-107883231D01*
X191473500Y-107824748D01*
X191473500Y-107375252D01*
X191461867Y-107316769D01*
X191461866Y-107316767D01*
X191461866Y-107316766D01*
X191459077Y-107310032D01*
X191462457Y-107308631D01*
X191453971Y-107265920D01*
X191474221Y-107228044D01*
X191524785Y-107177480D01*
X191570089Y-107074875D01*
X191573000Y-107049789D01*
X191573000Y-106900000D01*
X188700001Y-106900000D01*
X188700001Y-107049792D01*
X188702908Y-107074868D01*
X188702910Y-107074874D01*
X188748213Y-107177478D01*
X188768909Y-107198174D01*
X188790583Y-107250500D01*
X188768909Y-107302826D01*
X188716583Y-107324500D01*
X174244768Y-107324500D01*
X174192442Y-107302826D01*
X173165116Y-106275500D01*
X172091440Y-105201825D01*
X172069767Y-105149500D01*
X172091441Y-105097174D01*
X172143767Y-105075500D01*
X172255233Y-105075500D01*
X172307558Y-105097173D01*
X172889904Y-105679520D01*
X173443941Y-106233557D01*
X173443940Y-106233557D01*
X173473599Y-106245841D01*
X173473601Y-106245842D01*
X173545200Y-106275500D01*
X188716583Y-106275500D01*
X188768909Y-106297174D01*
X188790583Y-106349500D01*
X188768909Y-106401826D01*
X188748213Y-106422521D01*
X188702910Y-106525124D01*
X188700000Y-106550210D01*
X188700000Y-106700000D01*
X191572999Y-106700000D01*
X191572999Y-106550210D01*
X194427000Y-106550210D01*
X194427000Y-106700000D01*
X197299999Y-106700000D01*
X197299999Y-106550207D01*
X197297091Y-106525131D01*
X197297089Y-106525125D01*
X197251786Y-106422521D01*
X197201219Y-106371954D01*
X197179545Y-106319628D01*
X197188275Y-106290874D01*
X197186078Y-106289964D01*
X197188866Y-106283232D01*
X197188865Y-106283232D01*
X197188867Y-106283231D01*
X197200500Y-106224748D01*
X197200500Y-105775252D01*
X197188867Y-105716769D01*
X197182760Y-105707630D01*
X197146076Y-105652729D01*
X197144552Y-105650448D01*
X197144551Y-105650447D01*
X197140503Y-105644389D01*
X197142569Y-105643008D01*
X197124755Y-105600000D01*
X197142569Y-105556991D01*
X197140503Y-105555611D01*
X197144587Y-105549500D01*
X197188867Y-105483231D01*
X197200500Y-105424748D01*
X197200500Y-104975252D01*
X197188867Y-104916769D01*
X197182760Y-104907630D01*
X197146076Y-104852729D01*
X197144552Y-104850448D01*
X197144551Y-104850447D01*
X197140503Y-104844389D01*
X197142569Y-104843008D01*
X197124755Y-104800000D01*
X197142569Y-104756991D01*
X197140503Y-104755611D01*
X197144587Y-104749500D01*
X197188867Y-104683231D01*
X197200500Y-104624748D01*
X197200500Y-104175252D01*
X197188867Y-104116769D01*
X197182760Y-104107630D01*
X197146076Y-104052729D01*
X197144552Y-104050448D01*
X197144551Y-104050447D01*
X197140503Y-104044389D01*
X197142569Y-104043008D01*
X197124755Y-104000000D01*
X197142569Y-103956991D01*
X197140503Y-103955611D01*
X197144587Y-103949500D01*
X197188867Y-103883231D01*
X197200500Y-103824748D01*
X197200500Y-103375252D01*
X197188867Y-103316769D01*
X197182760Y-103307630D01*
X197146076Y-103252729D01*
X197144552Y-103250448D01*
X197144551Y-103250447D01*
X197140503Y-103244389D01*
X197142569Y-103243008D01*
X197124755Y-103200000D01*
X197142569Y-103156991D01*
X197140503Y-103155611D01*
X197146075Y-103147273D01*
X197188867Y-103083231D01*
X197200500Y-103024748D01*
X197200500Y-102575252D01*
X197188867Y-102516769D01*
X197182760Y-102507630D01*
X197146076Y-102452729D01*
X197144552Y-102450448D01*
X197144551Y-102450447D01*
X197140503Y-102444389D01*
X197142569Y-102443008D01*
X197124755Y-102400000D01*
X197142569Y-102356991D01*
X197140503Y-102355611D01*
X197146075Y-102347273D01*
X197188867Y-102283231D01*
X197200500Y-102224748D01*
X197200500Y-101775252D01*
X197188867Y-101716769D01*
X197182760Y-101707630D01*
X197146076Y-101652729D01*
X197144552Y-101650448D01*
X197144551Y-101650447D01*
X197140503Y-101644389D01*
X197142569Y-101643008D01*
X197124755Y-101600000D01*
X197142569Y-101556991D01*
X197140503Y-101555611D01*
X197146075Y-101547273D01*
X197188867Y-101483231D01*
X197200500Y-101424748D01*
X197200500Y-100975252D01*
X197188867Y-100916769D01*
X197182760Y-100907630D01*
X197146076Y-100852729D01*
X197144552Y-100850448D01*
X197144551Y-100850447D01*
X197140503Y-100844389D01*
X197142569Y-100843008D01*
X197124755Y-100800000D01*
X197142569Y-100756991D01*
X197140503Y-100755611D01*
X197146075Y-100747273D01*
X197188867Y-100683231D01*
X197200500Y-100624748D01*
X197200500Y-100175252D01*
X197188867Y-100116769D01*
X197188866Y-100116767D01*
X197188866Y-100116766D01*
X197186077Y-100110032D01*
X197189457Y-100108631D01*
X197180971Y-100065920D01*
X197201221Y-100028044D01*
X197251785Y-99977480D01*
X197297089Y-99874875D01*
X197300000Y-99849789D01*
X197300000Y-99700000D01*
X194427001Y-99700000D01*
X194427001Y-99849792D01*
X194429908Y-99874868D01*
X194429910Y-99874874D01*
X194475213Y-99977478D01*
X194525780Y-100028045D01*
X194547454Y-100080371D01*
X194538733Y-100109128D01*
X194540922Y-100110035D01*
X194538133Y-100116767D01*
X194538133Y-100116769D01*
X194526500Y-100175252D01*
X194526500Y-100624748D01*
X194530710Y-100645913D01*
X194538133Y-100683232D01*
X194554942Y-100708387D01*
X194580925Y-100747273D01*
X194586497Y-100755611D01*
X194584430Y-100756991D01*
X194602245Y-100800000D01*
X194584430Y-100843008D01*
X194586497Y-100844389D01*
X194582448Y-100850447D01*
X194582448Y-100850448D01*
X194580925Y-100852727D01*
X194538133Y-100916767D01*
X194536851Y-100923214D01*
X194526500Y-100975252D01*
X194526500Y-101424748D01*
X194530710Y-101445913D01*
X194538133Y-101483232D01*
X194554942Y-101508387D01*
X194580925Y-101547273D01*
X194586497Y-101555611D01*
X194584430Y-101556991D01*
X194602245Y-101600000D01*
X194584430Y-101643008D01*
X194586497Y-101644389D01*
X194582448Y-101650447D01*
X194582448Y-101650448D01*
X194580925Y-101652727D01*
X194538133Y-101716767D01*
X194536851Y-101723214D01*
X194526500Y-101775252D01*
X194526500Y-102224748D01*
X194530710Y-102245913D01*
X194538133Y-102283232D01*
X194554942Y-102308387D01*
X194580925Y-102347273D01*
X194586497Y-102355611D01*
X194584430Y-102356991D01*
X194602245Y-102400000D01*
X194584430Y-102443008D01*
X194586497Y-102444389D01*
X194582448Y-102450447D01*
X194582448Y-102450448D01*
X194580925Y-102452727D01*
X194538133Y-102516767D01*
X194536851Y-102523214D01*
X194526500Y-102575252D01*
X194526500Y-103024748D01*
X194530710Y-103045913D01*
X194538133Y-103083232D01*
X194554942Y-103108387D01*
X194580925Y-103147273D01*
X194586497Y-103155611D01*
X194584430Y-103156991D01*
X194602245Y-103200000D01*
X194584430Y-103243008D01*
X194586497Y-103244389D01*
X194582448Y-103250447D01*
X194582448Y-103250448D01*
X194580925Y-103252727D01*
X194538133Y-103316767D01*
X194536851Y-103323214D01*
X194526500Y-103375252D01*
X194526500Y-103824748D01*
X194530710Y-103845913D01*
X194538133Y-103883232D01*
X194554942Y-103908387D01*
X194582413Y-103949500D01*
X194586497Y-103955611D01*
X194584430Y-103956991D01*
X194602245Y-104000000D01*
X194584430Y-104043008D01*
X194586497Y-104044389D01*
X194582448Y-104050447D01*
X194582448Y-104050448D01*
X194580925Y-104052727D01*
X194538133Y-104116767D01*
X194536851Y-104123214D01*
X194526500Y-104175252D01*
X194526500Y-104624748D01*
X194530696Y-104645841D01*
X194538133Y-104683232D01*
X194554942Y-104708387D01*
X194582413Y-104749500D01*
X194586497Y-104755611D01*
X194584430Y-104756991D01*
X194602245Y-104800000D01*
X194584430Y-104843008D01*
X194586497Y-104844389D01*
X194538133Y-104916767D01*
X194536851Y-104923214D01*
X194526500Y-104975252D01*
X194526500Y-105424748D01*
X194530710Y-105445913D01*
X194538133Y-105483232D01*
X194554942Y-105508387D01*
X194582413Y-105549500D01*
X194586497Y-105555611D01*
X194584430Y-105556991D01*
X194602245Y-105600000D01*
X194584430Y-105643008D01*
X194586497Y-105644389D01*
X194538133Y-105716767D01*
X194526500Y-105775253D01*
X194526500Y-106224746D01*
X194538133Y-106283233D01*
X194540923Y-106289968D01*
X194537543Y-106291367D01*
X194546026Y-106334092D01*
X194525779Y-106371954D01*
X194475214Y-106422519D01*
X194429910Y-106525124D01*
X194427000Y-106550210D01*
X191572999Y-106550210D01*
X191572999Y-106550207D01*
X191570091Y-106525131D01*
X191570089Y-106525125D01*
X191524786Y-106422521D01*
X191474219Y-106371954D01*
X191452545Y-106319628D01*
X191461275Y-106290874D01*
X191459078Y-106289964D01*
X191461866Y-106283232D01*
X191461865Y-106283232D01*
X191461867Y-106283231D01*
X191473500Y-106224748D01*
X191473500Y-105775252D01*
X191461867Y-105716769D01*
X191455760Y-105707630D01*
X191419076Y-105652729D01*
X191417552Y-105650448D01*
X191417551Y-105650447D01*
X191413503Y-105644389D01*
X191415569Y-105643008D01*
X191397755Y-105600000D01*
X191415569Y-105556991D01*
X191413503Y-105555611D01*
X191417587Y-105549500D01*
X191461867Y-105483231D01*
X191473500Y-105424748D01*
X191473500Y-104975252D01*
X191461867Y-104916769D01*
X191455760Y-104907630D01*
X191419076Y-104852729D01*
X191417552Y-104850448D01*
X191417551Y-104850447D01*
X191413503Y-104844389D01*
X191415569Y-104843008D01*
X191397755Y-104800000D01*
X191415569Y-104756991D01*
X191413503Y-104755611D01*
X191417587Y-104749500D01*
X191461867Y-104683231D01*
X191473500Y-104624748D01*
X191473500Y-104175252D01*
X191461867Y-104116769D01*
X191455760Y-104107630D01*
X191419076Y-104052729D01*
X191417552Y-104050448D01*
X191417551Y-104050447D01*
X191413503Y-104044389D01*
X191415569Y-104043008D01*
X191397755Y-104000000D01*
X191415569Y-103956991D01*
X191413503Y-103955611D01*
X191417587Y-103949500D01*
X191461867Y-103883231D01*
X191473500Y-103824748D01*
X191473500Y-103375252D01*
X191461867Y-103316769D01*
X191455760Y-103307630D01*
X191419076Y-103252729D01*
X191417552Y-103250448D01*
X191417551Y-103250447D01*
X191413503Y-103244389D01*
X191415569Y-103243008D01*
X191397755Y-103200000D01*
X191415569Y-103156991D01*
X191413503Y-103155611D01*
X191419075Y-103147273D01*
X191461867Y-103083231D01*
X191473500Y-103024748D01*
X191473500Y-102575252D01*
X191461867Y-102516769D01*
X191455760Y-102507630D01*
X191419076Y-102452729D01*
X191417552Y-102450448D01*
X191417551Y-102450447D01*
X191413503Y-102444389D01*
X191415569Y-102443008D01*
X191397755Y-102400000D01*
X191415569Y-102356991D01*
X191413503Y-102355611D01*
X191419075Y-102347273D01*
X191461867Y-102283231D01*
X191473500Y-102224748D01*
X191473500Y-101775252D01*
X191461867Y-101716769D01*
X191455760Y-101707630D01*
X191419076Y-101652729D01*
X191417552Y-101650448D01*
X191417551Y-101650447D01*
X191413503Y-101644389D01*
X191415569Y-101643008D01*
X191397755Y-101600000D01*
X191415569Y-101556991D01*
X191413503Y-101555611D01*
X191419075Y-101547273D01*
X191461867Y-101483231D01*
X191473500Y-101424748D01*
X191473500Y-100975252D01*
X191461867Y-100916769D01*
X191455760Y-100907630D01*
X191419076Y-100852729D01*
X191417552Y-100850448D01*
X191417551Y-100850447D01*
X191413503Y-100844389D01*
X191415569Y-100843008D01*
X191397755Y-100800000D01*
X191415569Y-100756991D01*
X191413503Y-100755611D01*
X191419075Y-100747273D01*
X191461867Y-100683231D01*
X191473500Y-100624748D01*
X191473500Y-100175252D01*
X191461867Y-100116769D01*
X191461866Y-100116767D01*
X191461866Y-100116766D01*
X191459077Y-100110032D01*
X191462457Y-100108631D01*
X191453971Y-100065920D01*
X191474221Y-100028044D01*
X191524785Y-99977480D01*
X191570089Y-99874875D01*
X191573000Y-99849789D01*
X191573000Y-99700000D01*
X188700001Y-99700000D01*
X188700001Y-99849792D01*
X188702908Y-99874868D01*
X188702910Y-99874874D01*
X188748213Y-99977478D01*
X188768909Y-99998174D01*
X188790583Y-100050500D01*
X188768909Y-100102826D01*
X188716583Y-100124500D01*
X173745200Y-100124500D01*
X173643944Y-100166440D01*
X173643941Y-100166442D01*
X172107559Y-101702826D01*
X172055233Y-101724500D01*
X172043767Y-101724500D01*
X171991441Y-101702826D01*
X171969767Y-101650500D01*
X171991441Y-101598174D01*
X174492441Y-99097174D01*
X174544767Y-99075500D01*
X188716583Y-99075500D01*
X188768909Y-99097174D01*
X188790583Y-99149500D01*
X188768909Y-99201826D01*
X188748213Y-99222521D01*
X188702910Y-99325124D01*
X188700000Y-99350210D01*
X188700000Y-99500000D01*
X191572999Y-99500000D01*
X191572999Y-99350210D01*
X194427000Y-99350210D01*
X194427000Y-99500000D01*
X197299999Y-99500000D01*
X197299999Y-99350207D01*
X197297091Y-99325131D01*
X197297089Y-99325125D01*
X197251786Y-99222521D01*
X197201219Y-99171954D01*
X197179545Y-99119628D01*
X197188275Y-99090874D01*
X197186078Y-99089964D01*
X197188866Y-99083232D01*
X197188865Y-99083232D01*
X197188867Y-99083231D01*
X197200500Y-99024748D01*
X197200500Y-98575252D01*
X197188867Y-98516769D01*
X197182760Y-98507630D01*
X197146076Y-98452729D01*
X197144552Y-98450448D01*
X197144551Y-98450447D01*
X197140503Y-98444389D01*
X197142569Y-98443008D01*
X197124755Y-98400000D01*
X197142569Y-98356991D01*
X197140503Y-98355611D01*
X197146075Y-98347273D01*
X197188867Y-98283231D01*
X197200500Y-98224748D01*
X197200500Y-97775252D01*
X197188867Y-97716769D01*
X197182760Y-97707630D01*
X197146076Y-97652729D01*
X197144552Y-97650448D01*
X197144551Y-97650447D01*
X197140503Y-97644389D01*
X197142569Y-97643008D01*
X197124755Y-97600000D01*
X197142569Y-97556991D01*
X197140503Y-97555611D01*
X197146075Y-97547273D01*
X197188867Y-97483231D01*
X197200500Y-97424748D01*
X197200500Y-96975252D01*
X197188867Y-96916769D01*
X197182760Y-96907630D01*
X197146076Y-96852729D01*
X197144552Y-96850448D01*
X197144551Y-96850447D01*
X197140503Y-96844389D01*
X197142569Y-96843008D01*
X197124755Y-96800000D01*
X197142569Y-96756991D01*
X197140503Y-96755611D01*
X197146075Y-96747273D01*
X197188867Y-96683231D01*
X197200500Y-96624748D01*
X197200500Y-96175252D01*
X197188867Y-96116769D01*
X197182760Y-96107630D01*
X197146076Y-96052729D01*
X197144552Y-96050448D01*
X197144551Y-96050447D01*
X197140503Y-96044389D01*
X197142569Y-96043008D01*
X197124755Y-96000000D01*
X197142569Y-95956991D01*
X197140503Y-95955611D01*
X197146075Y-95947273D01*
X197188867Y-95883231D01*
X197200500Y-95824748D01*
X197200500Y-95375252D01*
X197188867Y-95316769D01*
X197182760Y-95307630D01*
X197163978Y-95279520D01*
X197144552Y-95250448D01*
X197144551Y-95250447D01*
X197140503Y-95244389D01*
X197142569Y-95243008D01*
X197124755Y-95200000D01*
X197142569Y-95156991D01*
X197140503Y-95155611D01*
X197188866Y-95083232D01*
X197188865Y-95083232D01*
X197188867Y-95083231D01*
X197200500Y-95024748D01*
X197200500Y-94575252D01*
X197188867Y-94516769D01*
X197182760Y-94507630D01*
X197167896Y-94485385D01*
X197144552Y-94450448D01*
X197144551Y-94450447D01*
X197140503Y-94444389D01*
X197142569Y-94443008D01*
X197124755Y-94400000D01*
X197142569Y-94356991D01*
X197140503Y-94355611D01*
X197188866Y-94283232D01*
X197188865Y-94283232D01*
X197188867Y-94283231D01*
X197200500Y-94224748D01*
X197200500Y-93775252D01*
X197188867Y-93716769D01*
X197182760Y-93707630D01*
X197167896Y-93685385D01*
X197144552Y-93650448D01*
X197144551Y-93650447D01*
X197140503Y-93644389D01*
X197142569Y-93643008D01*
X197124755Y-93600000D01*
X197142569Y-93556991D01*
X197140503Y-93555611D01*
X197188866Y-93483232D01*
X197188865Y-93483232D01*
X197188867Y-93483231D01*
X197200500Y-93424748D01*
X197200500Y-92975252D01*
X197188867Y-92916769D01*
X197188866Y-92916767D01*
X197188866Y-92916766D01*
X197186077Y-92910032D01*
X197189457Y-92908631D01*
X197180971Y-92865920D01*
X197201221Y-92828044D01*
X197251785Y-92777480D01*
X197297089Y-92674875D01*
X197300000Y-92649789D01*
X197300000Y-92500000D01*
X194427001Y-92500000D01*
X194427001Y-92649792D01*
X194429908Y-92674868D01*
X194429910Y-92674874D01*
X194475213Y-92777478D01*
X194525780Y-92828045D01*
X194547454Y-92880371D01*
X194538733Y-92909128D01*
X194540922Y-92910035D01*
X194538133Y-92916767D01*
X194538133Y-92916769D01*
X194528253Y-92966442D01*
X194526500Y-92975253D01*
X194526500Y-93424746D01*
X194538133Y-93483232D01*
X194586497Y-93555611D01*
X194584430Y-93556991D01*
X194602245Y-93600000D01*
X194584430Y-93643008D01*
X194586497Y-93644389D01*
X194582448Y-93650447D01*
X194582448Y-93650448D01*
X194574528Y-93662299D01*
X194538133Y-93716767D01*
X194536851Y-93723214D01*
X194528253Y-93766442D01*
X194526500Y-93775253D01*
X194526500Y-94224746D01*
X194538133Y-94283232D01*
X194586497Y-94355611D01*
X194584430Y-94356991D01*
X194602245Y-94400000D01*
X194584430Y-94443008D01*
X194586497Y-94444389D01*
X194582448Y-94450447D01*
X194582448Y-94450448D01*
X194574528Y-94462299D01*
X194538133Y-94516767D01*
X194536851Y-94523214D01*
X194528253Y-94566442D01*
X194526500Y-94575253D01*
X194526500Y-95024746D01*
X194538133Y-95083232D01*
X194586497Y-95155611D01*
X194584430Y-95156991D01*
X194602245Y-95200000D01*
X194584430Y-95243008D01*
X194586497Y-95244389D01*
X194582448Y-95250447D01*
X194582448Y-95250448D01*
X194574528Y-95262299D01*
X194538133Y-95316767D01*
X194536851Y-95323214D01*
X194526500Y-95375252D01*
X194526500Y-95824748D01*
X194530710Y-95845913D01*
X194538133Y-95883232D01*
X194552582Y-95904855D01*
X194580925Y-95947273D01*
X194586497Y-95955611D01*
X194584430Y-95956991D01*
X194602245Y-96000000D01*
X194584430Y-96043008D01*
X194586497Y-96044389D01*
X194582448Y-96050447D01*
X194582448Y-96050448D01*
X194580925Y-96052727D01*
X194538133Y-96116767D01*
X194536851Y-96123214D01*
X194526500Y-96175252D01*
X194526500Y-96624748D01*
X194530710Y-96645913D01*
X194538133Y-96683232D01*
X194554942Y-96708387D01*
X194580925Y-96747273D01*
X194586497Y-96755611D01*
X194584430Y-96756991D01*
X194602245Y-96800000D01*
X194584430Y-96843008D01*
X194586497Y-96844389D01*
X194582448Y-96850447D01*
X194582448Y-96850448D01*
X194580925Y-96852727D01*
X194538133Y-96916767D01*
X194536851Y-96923214D01*
X194526500Y-96975252D01*
X194526500Y-97424748D01*
X194530710Y-97445913D01*
X194538133Y-97483232D01*
X194554942Y-97508387D01*
X194580925Y-97547273D01*
X194586497Y-97555611D01*
X194584430Y-97556991D01*
X194602245Y-97600000D01*
X194584430Y-97643008D01*
X194586497Y-97644389D01*
X194582448Y-97650447D01*
X194582448Y-97650448D01*
X194580925Y-97652727D01*
X194538133Y-97716767D01*
X194536851Y-97723214D01*
X194526500Y-97775252D01*
X194526500Y-98224748D01*
X194530710Y-98245913D01*
X194538133Y-98283232D01*
X194554942Y-98308387D01*
X194580925Y-98347273D01*
X194586497Y-98355611D01*
X194584430Y-98356991D01*
X194602245Y-98400000D01*
X194584430Y-98443008D01*
X194586497Y-98444389D01*
X194582448Y-98450447D01*
X194582448Y-98450448D01*
X194580925Y-98452727D01*
X194538133Y-98516767D01*
X194526500Y-98575253D01*
X194526500Y-99024746D01*
X194538133Y-99083233D01*
X194540923Y-99089968D01*
X194537543Y-99091367D01*
X194546026Y-99134092D01*
X194525779Y-99171954D01*
X194475214Y-99222519D01*
X194429910Y-99325124D01*
X194427000Y-99350210D01*
X191572999Y-99350210D01*
X191572999Y-99350207D01*
X191570091Y-99325131D01*
X191570089Y-99325125D01*
X191524786Y-99222521D01*
X191474219Y-99171954D01*
X191452545Y-99119628D01*
X191461275Y-99090874D01*
X191459078Y-99089964D01*
X191461866Y-99083232D01*
X191461865Y-99083232D01*
X191461867Y-99083231D01*
X191473500Y-99024748D01*
X191473500Y-98575252D01*
X191461867Y-98516769D01*
X191455760Y-98507630D01*
X191419076Y-98452729D01*
X191417552Y-98450448D01*
X191417551Y-98450447D01*
X191413503Y-98444389D01*
X191415569Y-98443008D01*
X191397755Y-98400000D01*
X191415569Y-98356991D01*
X191413503Y-98355611D01*
X191419075Y-98347273D01*
X191461867Y-98283231D01*
X191473500Y-98224748D01*
X191473500Y-97775252D01*
X191461867Y-97716769D01*
X191455760Y-97707630D01*
X191419076Y-97652729D01*
X191417552Y-97650448D01*
X191417551Y-97650447D01*
X191413503Y-97644389D01*
X191415569Y-97643008D01*
X191397755Y-97600000D01*
X191415569Y-97556991D01*
X191413503Y-97555611D01*
X191419075Y-97547273D01*
X191461867Y-97483231D01*
X191473500Y-97424748D01*
X191473500Y-96975252D01*
X191461867Y-96916769D01*
X191455760Y-96907630D01*
X191419076Y-96852729D01*
X191417552Y-96850448D01*
X191417551Y-96850447D01*
X191413503Y-96844389D01*
X191415569Y-96843008D01*
X191397755Y-96800000D01*
X191415569Y-96756991D01*
X191413503Y-96755611D01*
X191419075Y-96747273D01*
X191461867Y-96683231D01*
X191473500Y-96624748D01*
X191473500Y-96175252D01*
X191461867Y-96116769D01*
X191455760Y-96107630D01*
X191419076Y-96052729D01*
X191417552Y-96050448D01*
X191417551Y-96050447D01*
X191413503Y-96044389D01*
X191415569Y-96043008D01*
X191397755Y-96000000D01*
X191415569Y-95956991D01*
X191413503Y-95955611D01*
X191419075Y-95947273D01*
X191461867Y-95883231D01*
X191473500Y-95824748D01*
X191473500Y-95375252D01*
X191461867Y-95316769D01*
X191455760Y-95307630D01*
X191436978Y-95279520D01*
X191417552Y-95250448D01*
X191417551Y-95250447D01*
X191413503Y-95244389D01*
X191415569Y-95243008D01*
X191397755Y-95200000D01*
X191415569Y-95156991D01*
X191413503Y-95155611D01*
X191461866Y-95083232D01*
X191461865Y-95083232D01*
X191461867Y-95083231D01*
X191473500Y-95024748D01*
X191473500Y-94575252D01*
X191461867Y-94516769D01*
X191455760Y-94507630D01*
X191440896Y-94485385D01*
X191417552Y-94450448D01*
X191417551Y-94450447D01*
X191413503Y-94444389D01*
X191415569Y-94443008D01*
X191397755Y-94400000D01*
X191415569Y-94356991D01*
X191413503Y-94355611D01*
X191461866Y-94283232D01*
X191461865Y-94283232D01*
X191461867Y-94283231D01*
X191473500Y-94224748D01*
X191473500Y-93775252D01*
X191461867Y-93716769D01*
X191455760Y-93707630D01*
X191440896Y-93685385D01*
X191417552Y-93650448D01*
X191417551Y-93650447D01*
X191413503Y-93644389D01*
X191415569Y-93643008D01*
X191397755Y-93600000D01*
X191415569Y-93556991D01*
X191413503Y-93555611D01*
X191461866Y-93483232D01*
X191461865Y-93483232D01*
X191461867Y-93483231D01*
X191473500Y-93424748D01*
X191473500Y-92975252D01*
X191461867Y-92916769D01*
X191461866Y-92916767D01*
X191461866Y-92916766D01*
X191459077Y-92910032D01*
X191462457Y-92908631D01*
X191453971Y-92865920D01*
X191474221Y-92828044D01*
X191524785Y-92777480D01*
X191570089Y-92674875D01*
X191573000Y-92649789D01*
X191573000Y-92500000D01*
X188700001Y-92500000D01*
X188700001Y-92649792D01*
X188702908Y-92674868D01*
X188702910Y-92674874D01*
X188748213Y-92777478D01*
X188768909Y-92798174D01*
X188790583Y-92850500D01*
X188768909Y-92902826D01*
X188716583Y-92924500D01*
X173145200Y-92924500D01*
X173103258Y-92941873D01*
X173043943Y-92966442D01*
X167507559Y-98502826D01*
X167455233Y-98524500D01*
X167243767Y-98524500D01*
X167191441Y-98502826D01*
X167169767Y-98450500D01*
X167191441Y-98398174D01*
X170389616Y-95200000D01*
X173692442Y-91897174D01*
X173744768Y-91875500D01*
X188716583Y-91875500D01*
X188768909Y-91897174D01*
X188790583Y-91949500D01*
X188768909Y-92001826D01*
X188748213Y-92022521D01*
X188702910Y-92125124D01*
X188700000Y-92150210D01*
X188700000Y-92300000D01*
X191572999Y-92300000D01*
X191572999Y-92150210D01*
X194427000Y-92150210D01*
X194427000Y-92300000D01*
X197299999Y-92300000D01*
X197299999Y-92150207D01*
X197297091Y-92125131D01*
X197297089Y-92125125D01*
X197251786Y-92022521D01*
X197201219Y-91971954D01*
X197179545Y-91919628D01*
X197188275Y-91890874D01*
X197186078Y-91889964D01*
X197188866Y-91883232D01*
X197188865Y-91883232D01*
X197188867Y-91883231D01*
X197200500Y-91824748D01*
X197200500Y-91375252D01*
X197188867Y-91316769D01*
X197182760Y-91307630D01*
X197140503Y-91244389D01*
X197142569Y-91243008D01*
X197124755Y-91200000D01*
X197142569Y-91156991D01*
X197140503Y-91155611D01*
X197188866Y-91083232D01*
X197188865Y-91083232D01*
X197188867Y-91083231D01*
X197200500Y-91024748D01*
X197200500Y-90575252D01*
X197188867Y-90516769D01*
X197182760Y-90507630D01*
X197140503Y-90444389D01*
X197142569Y-90443008D01*
X197124755Y-90400000D01*
X197142569Y-90356991D01*
X197140503Y-90355611D01*
X197188866Y-90283232D01*
X197188865Y-90283232D01*
X197188867Y-90283231D01*
X197200500Y-90224748D01*
X197200500Y-89775252D01*
X197188867Y-89716769D01*
X197182760Y-89707630D01*
X197140503Y-89644389D01*
X197142569Y-89643008D01*
X197124755Y-89600000D01*
X197142569Y-89556991D01*
X197140503Y-89555611D01*
X197188866Y-89483232D01*
X197188865Y-89483232D01*
X197188867Y-89483231D01*
X197200500Y-89424748D01*
X197200500Y-88975252D01*
X197188867Y-88916769D01*
X197182760Y-88907630D01*
X197167896Y-88885385D01*
X197144552Y-88850448D01*
X197144551Y-88850447D01*
X197140503Y-88844389D01*
X197142569Y-88843008D01*
X197124755Y-88800000D01*
X197142569Y-88756991D01*
X197140503Y-88755611D01*
X197188866Y-88683232D01*
X197188865Y-88683232D01*
X197188867Y-88683231D01*
X197200500Y-88624748D01*
X197200500Y-88175252D01*
X197188867Y-88116769D01*
X197182760Y-88107630D01*
X197140503Y-88044389D01*
X197142569Y-88043008D01*
X197124755Y-88000000D01*
X197142569Y-87956991D01*
X197140503Y-87955611D01*
X197188866Y-87883232D01*
X197188865Y-87883232D01*
X197188867Y-87883231D01*
X197200500Y-87824748D01*
X197200500Y-87375252D01*
X197188867Y-87316769D01*
X197182760Y-87307630D01*
X197150742Y-87259712D01*
X197144552Y-87250448D01*
X197144551Y-87250447D01*
X197140503Y-87244389D01*
X197142569Y-87243008D01*
X197124755Y-87200000D01*
X197142569Y-87156991D01*
X197140503Y-87155611D01*
X197154048Y-87135341D01*
X197188867Y-87083231D01*
X197200500Y-87024748D01*
X197200500Y-86575252D01*
X197188867Y-86516769D01*
X197182760Y-86507630D01*
X197156423Y-86468214D01*
X197144552Y-86450448D01*
X197144551Y-86450447D01*
X197140503Y-86444389D01*
X197142569Y-86443008D01*
X197124755Y-86400000D01*
X197142569Y-86356991D01*
X197140503Y-86355611D01*
X197188866Y-86283232D01*
X197188865Y-86283232D01*
X197188867Y-86283231D01*
X197200500Y-86224748D01*
X197200500Y-85775252D01*
X197188867Y-85716769D01*
X197188866Y-85716767D01*
X197188866Y-85716766D01*
X197186077Y-85710032D01*
X197189457Y-85708631D01*
X197180971Y-85665920D01*
X197201221Y-85628044D01*
X197251785Y-85577480D01*
X197297089Y-85474875D01*
X197300000Y-85449789D01*
X197300000Y-85300000D01*
X194427001Y-85300000D01*
X194427001Y-85449792D01*
X194429908Y-85474868D01*
X194429910Y-85474874D01*
X194475213Y-85577478D01*
X194525780Y-85628045D01*
X194547454Y-85680371D01*
X194538733Y-85709128D01*
X194540922Y-85710035D01*
X194538133Y-85716767D01*
X194537160Y-85721659D01*
X194526500Y-85775252D01*
X194526500Y-86224748D01*
X194530071Y-86242699D01*
X194538133Y-86283232D01*
X194586497Y-86355611D01*
X194584430Y-86356991D01*
X194602245Y-86400000D01*
X194584430Y-86443008D01*
X194586497Y-86444389D01*
X194582448Y-86450447D01*
X194582448Y-86450448D01*
X194574528Y-86462299D01*
X194538133Y-86516767D01*
X194536851Y-86523214D01*
X194528253Y-86566442D01*
X194526500Y-86575253D01*
X194526500Y-87024746D01*
X194538133Y-87083232D01*
X194586497Y-87155611D01*
X194584430Y-87156991D01*
X194602245Y-87200000D01*
X194584430Y-87243008D01*
X194586497Y-87244389D01*
X194582448Y-87250447D01*
X194582448Y-87250448D01*
X194576348Y-87259577D01*
X194538133Y-87316767D01*
X194536851Y-87323214D01*
X194526908Y-87373204D01*
X194526500Y-87375253D01*
X194526500Y-87824746D01*
X194538133Y-87883232D01*
X194586497Y-87955611D01*
X194584430Y-87956991D01*
X194602245Y-88000000D01*
X194584430Y-88043008D01*
X194586497Y-88044389D01*
X194538133Y-88116767D01*
X194536851Y-88123214D01*
X194528253Y-88166442D01*
X194526500Y-88175253D01*
X194526500Y-88624746D01*
X194538133Y-88683232D01*
X194586497Y-88755611D01*
X194584430Y-88756991D01*
X194602245Y-88800000D01*
X194584430Y-88843008D01*
X194586497Y-88844389D01*
X194582448Y-88850447D01*
X194582448Y-88850448D01*
X194574528Y-88862299D01*
X194538133Y-88916767D01*
X194536851Y-88923214D01*
X194528253Y-88966442D01*
X194526500Y-88975253D01*
X194526500Y-89424746D01*
X194538133Y-89483232D01*
X194586497Y-89555611D01*
X194584430Y-89556991D01*
X194602245Y-89600000D01*
X194584430Y-89643008D01*
X194586497Y-89644389D01*
X194538133Y-89716767D01*
X194536851Y-89723214D01*
X194528253Y-89766442D01*
X194526500Y-89775253D01*
X194526500Y-90224746D01*
X194538133Y-90283232D01*
X194586497Y-90355611D01*
X194584430Y-90356991D01*
X194602245Y-90400000D01*
X194584430Y-90443008D01*
X194586497Y-90444389D01*
X194538133Y-90516767D01*
X194536851Y-90523214D01*
X194528253Y-90566442D01*
X194526500Y-90575253D01*
X194526500Y-91024746D01*
X194538133Y-91083232D01*
X194586497Y-91155611D01*
X194584430Y-91156991D01*
X194602245Y-91200000D01*
X194584430Y-91243008D01*
X194586497Y-91244389D01*
X194538133Y-91316767D01*
X194536851Y-91323214D01*
X194528253Y-91366442D01*
X194526500Y-91375253D01*
X194526500Y-91824746D01*
X194538133Y-91883233D01*
X194540923Y-91889968D01*
X194537543Y-91891367D01*
X194546026Y-91934092D01*
X194525779Y-91971954D01*
X194475214Y-92022519D01*
X194429910Y-92125124D01*
X194427000Y-92150210D01*
X191572999Y-92150210D01*
X191572999Y-92150207D01*
X191570091Y-92125131D01*
X191570089Y-92125125D01*
X191524786Y-92022521D01*
X191474219Y-91971954D01*
X191452545Y-91919628D01*
X191461275Y-91890874D01*
X191459078Y-91889964D01*
X191461866Y-91883232D01*
X191461865Y-91883232D01*
X191461867Y-91883231D01*
X191473500Y-91824748D01*
X191473500Y-91375252D01*
X191461867Y-91316769D01*
X191455760Y-91307630D01*
X191413503Y-91244389D01*
X191415569Y-91243008D01*
X191397755Y-91200000D01*
X191415569Y-91156991D01*
X191413503Y-91155611D01*
X191461866Y-91083232D01*
X191461865Y-91083232D01*
X191461867Y-91083231D01*
X191473500Y-91024748D01*
X191473500Y-90575252D01*
X191461867Y-90516769D01*
X191455760Y-90507630D01*
X191413503Y-90444389D01*
X191415569Y-90443008D01*
X191397755Y-90400000D01*
X191415569Y-90356991D01*
X191413503Y-90355611D01*
X191461866Y-90283232D01*
X191461865Y-90283232D01*
X191461867Y-90283231D01*
X191473500Y-90224748D01*
X191473500Y-89775252D01*
X191461867Y-89716769D01*
X191455760Y-89707630D01*
X191413503Y-89644389D01*
X191415569Y-89643008D01*
X191397755Y-89600000D01*
X191415569Y-89556991D01*
X191413503Y-89555611D01*
X191461866Y-89483232D01*
X191461865Y-89483232D01*
X191461867Y-89483231D01*
X191473500Y-89424748D01*
X191473500Y-88975252D01*
X191461867Y-88916769D01*
X191455760Y-88907630D01*
X191440896Y-88885385D01*
X191417552Y-88850448D01*
X191417551Y-88850447D01*
X191413503Y-88844389D01*
X191415569Y-88843008D01*
X191397755Y-88800000D01*
X191415569Y-88756991D01*
X191413503Y-88755611D01*
X191461866Y-88683232D01*
X191461865Y-88683232D01*
X191461867Y-88683231D01*
X191473500Y-88624748D01*
X191473500Y-88175252D01*
X191461867Y-88116769D01*
X191455760Y-88107630D01*
X191413503Y-88044389D01*
X191415569Y-88043008D01*
X191397755Y-88000000D01*
X191415569Y-87956991D01*
X191413503Y-87955611D01*
X191461866Y-87883232D01*
X191461865Y-87883232D01*
X191461867Y-87883231D01*
X191473500Y-87824748D01*
X191473500Y-87375252D01*
X191461867Y-87316769D01*
X191455760Y-87307630D01*
X191423742Y-87259712D01*
X191417552Y-87250448D01*
X191417551Y-87250447D01*
X191413503Y-87244389D01*
X191415569Y-87243008D01*
X191397755Y-87200000D01*
X191415569Y-87156991D01*
X191413503Y-87155611D01*
X191427048Y-87135341D01*
X191461867Y-87083231D01*
X191473500Y-87024748D01*
X191473500Y-86575252D01*
X191461867Y-86516769D01*
X191455760Y-86507630D01*
X191429423Y-86468214D01*
X191417552Y-86450448D01*
X191417551Y-86450447D01*
X191413503Y-86444389D01*
X191415569Y-86443008D01*
X191397755Y-86400000D01*
X191415569Y-86356991D01*
X191413503Y-86355611D01*
X191461866Y-86283232D01*
X191461865Y-86283232D01*
X191461867Y-86283231D01*
X191473500Y-86224748D01*
X191473500Y-85775252D01*
X191461867Y-85716769D01*
X191461866Y-85716767D01*
X191461866Y-85716766D01*
X191459077Y-85710032D01*
X191462457Y-85708631D01*
X191453971Y-85665920D01*
X191474221Y-85628044D01*
X191524785Y-85577480D01*
X191570089Y-85474875D01*
X191573000Y-85449789D01*
X191573000Y-85300000D01*
X188700001Y-85300000D01*
X188700001Y-85449792D01*
X188702908Y-85474868D01*
X188702910Y-85474874D01*
X188748213Y-85577478D01*
X188768909Y-85598174D01*
X188790583Y-85650500D01*
X188768909Y-85702826D01*
X188716583Y-85724500D01*
X171845200Y-85724500D01*
X171773598Y-85754157D01*
X171773599Y-85754158D01*
X171743942Y-85766442D01*
X162211559Y-95298826D01*
X162159233Y-95320500D01*
X161428100Y-95320500D01*
X161415136Y-95319356D01*
X161407216Y-95317946D01*
X161374795Y-95304516D01*
X161374788Y-95304515D01*
X161374786Y-95304515D01*
X161338262Y-95304515D01*
X161331732Y-95304514D01*
X161331728Y-95304514D01*
X161265199Y-95304513D01*
X161265195Y-95304513D01*
X161265194Y-95304513D01*
X161265191Y-95304513D01*
X161265188Y-95304513D01*
X161230536Y-95318867D01*
X161202218Y-95324500D01*
X161121545Y-95324500D01*
X161069219Y-95302826D01*
X161045913Y-95279520D01*
X160954591Y-95226795D01*
X160954582Y-95226791D01*
X160852729Y-95199500D01*
X160852727Y-95199500D01*
X160747273Y-95199500D01*
X160747271Y-95199500D01*
X160645417Y-95226791D01*
X160645408Y-95226795D01*
X160554086Y-95279520D01*
X160479520Y-95354086D01*
X160426795Y-95445408D01*
X160426791Y-95445417D01*
X160399500Y-95547270D01*
X155136886Y-95547270D01*
X153014362Y-93424746D01*
X145356058Y-85766443D01*
X145254800Y-85724500D01*
X145254799Y-85724500D01*
X127283417Y-85724500D01*
X127231091Y-85702826D01*
X127209417Y-85650500D01*
X127231091Y-85598174D01*
X127251786Y-85577478D01*
X127297089Y-85474875D01*
X127300000Y-85449789D01*
X127300000Y-85300000D01*
X124427001Y-85300000D01*
X124427001Y-85449792D01*
X124429908Y-85474868D01*
X124429910Y-85474874D01*
X124475213Y-85577478D01*
X124525780Y-85628045D01*
X124547454Y-85680371D01*
X124538733Y-85709128D01*
X124540922Y-85710035D01*
X124538133Y-85716767D01*
X124537160Y-85721659D01*
X124526500Y-85775252D01*
X124526500Y-86224748D01*
X124530071Y-86242699D01*
X124538133Y-86283232D01*
X124586497Y-86355611D01*
X124584430Y-86356991D01*
X124602245Y-86400000D01*
X124584430Y-86443008D01*
X124586497Y-86444389D01*
X124582448Y-86450447D01*
X124582448Y-86450448D01*
X124574528Y-86462299D01*
X124538133Y-86516767D01*
X124536851Y-86523214D01*
X124528253Y-86566442D01*
X124526500Y-86575253D01*
X124526500Y-87024746D01*
X124538133Y-87083232D01*
X124586497Y-87155611D01*
X124584430Y-87156991D01*
X124602245Y-87200000D01*
X124584430Y-87243008D01*
X124586497Y-87244389D01*
X124582448Y-87250447D01*
X124582448Y-87250448D01*
X124576348Y-87259577D01*
X124538133Y-87316767D01*
X124536851Y-87323214D01*
X124526908Y-87373204D01*
X124526500Y-87375253D01*
X124526500Y-87824746D01*
X124538133Y-87883232D01*
X124586497Y-87955611D01*
X124584430Y-87956991D01*
X124602245Y-88000000D01*
X124584430Y-88043008D01*
X124586497Y-88044389D01*
X124538133Y-88116767D01*
X124536851Y-88123214D01*
X124528253Y-88166442D01*
X124526500Y-88175253D01*
X124526500Y-88624746D01*
X124538133Y-88683232D01*
X124586497Y-88755611D01*
X124584430Y-88756991D01*
X124602245Y-88800000D01*
X124584430Y-88843008D01*
X124586497Y-88844389D01*
X124582448Y-88850447D01*
X124582448Y-88850448D01*
X124574528Y-88862299D01*
X124538133Y-88916767D01*
X124536851Y-88923214D01*
X124528253Y-88966442D01*
X124526500Y-88975253D01*
X124526500Y-89424746D01*
X124538133Y-89483232D01*
X124586497Y-89555611D01*
X124584430Y-89556991D01*
X124602245Y-89600000D01*
X124584430Y-89643008D01*
X124586497Y-89644389D01*
X124538133Y-89716767D01*
X124536851Y-89723214D01*
X124528253Y-89766442D01*
X124526500Y-89775253D01*
X124526500Y-90224746D01*
X124538133Y-90283232D01*
X124586497Y-90355611D01*
X124584430Y-90356991D01*
X124602245Y-90400000D01*
X124584430Y-90443008D01*
X124586497Y-90444389D01*
X124538133Y-90516767D01*
X124536851Y-90523214D01*
X124528253Y-90566442D01*
X124526500Y-90575253D01*
X124526500Y-91024746D01*
X124538133Y-91083232D01*
X124586497Y-91155611D01*
X124584430Y-91156991D01*
X124602245Y-91200000D01*
X124584430Y-91243008D01*
X124586497Y-91244389D01*
X124538133Y-91316767D01*
X124536851Y-91323214D01*
X124528253Y-91366442D01*
X124526500Y-91375253D01*
X124526500Y-91824746D01*
X124538133Y-91883233D01*
X124540923Y-91889968D01*
X124537543Y-91891367D01*
X124546026Y-91934092D01*
X124525779Y-91971954D01*
X124475214Y-92022519D01*
X124429910Y-92125124D01*
X124427000Y-92150210D01*
X121572999Y-92150210D01*
X121572999Y-92150207D01*
X121570091Y-92125131D01*
X121570089Y-92125125D01*
X121524786Y-92022521D01*
X121474219Y-91971954D01*
X121452545Y-91919628D01*
X121461275Y-91890874D01*
X121459078Y-91889964D01*
X121461866Y-91883232D01*
X121461865Y-91883232D01*
X121461867Y-91883231D01*
X121473500Y-91824748D01*
X121473500Y-91375252D01*
X121461867Y-91316769D01*
X121455760Y-91307630D01*
X121413503Y-91244389D01*
X121415569Y-91243008D01*
X121397755Y-91200000D01*
X121415569Y-91156991D01*
X121413503Y-91155611D01*
X121461866Y-91083232D01*
X121461865Y-91083232D01*
X121461867Y-91083231D01*
X121473500Y-91024748D01*
X121473500Y-90575252D01*
X121461867Y-90516769D01*
X121455760Y-90507630D01*
X121413503Y-90444389D01*
X121415569Y-90443008D01*
X121397755Y-90400000D01*
X121415569Y-90356991D01*
X121413503Y-90355611D01*
X121461866Y-90283232D01*
X121461865Y-90283232D01*
X121461867Y-90283231D01*
X121473500Y-90224748D01*
X121473500Y-89775252D01*
X121461867Y-89716769D01*
X121455760Y-89707630D01*
X121413503Y-89644389D01*
X121415569Y-89643008D01*
X121397755Y-89600000D01*
X121415569Y-89556991D01*
X121413503Y-89555611D01*
X121461866Y-89483232D01*
X121461865Y-89483232D01*
X121461867Y-89483231D01*
X121473500Y-89424748D01*
X121473500Y-88975252D01*
X121461867Y-88916769D01*
X121455760Y-88907630D01*
X121440896Y-88885385D01*
X121417552Y-88850448D01*
X121417551Y-88850447D01*
X121413503Y-88844389D01*
X121415569Y-88843008D01*
X121397755Y-88800000D01*
X121415569Y-88756991D01*
X121413503Y-88755611D01*
X121461866Y-88683232D01*
X121461865Y-88683232D01*
X121461867Y-88683231D01*
X121473500Y-88624748D01*
X121473500Y-88175252D01*
X121461867Y-88116769D01*
X121455760Y-88107630D01*
X121413503Y-88044389D01*
X121415569Y-88043008D01*
X121397755Y-88000000D01*
X121415569Y-87956991D01*
X121413503Y-87955611D01*
X121461866Y-87883232D01*
X121461865Y-87883232D01*
X121461867Y-87883231D01*
X121473500Y-87824748D01*
X121473500Y-87375252D01*
X121461867Y-87316769D01*
X121455760Y-87307630D01*
X121423742Y-87259712D01*
X121417552Y-87250448D01*
X121417551Y-87250447D01*
X121413503Y-87244389D01*
X121415569Y-87243008D01*
X121397755Y-87200000D01*
X121415569Y-87156991D01*
X121413503Y-87155611D01*
X121427048Y-87135341D01*
X121461867Y-87083231D01*
X121473500Y-87024748D01*
X121473500Y-86575252D01*
X121461867Y-86516769D01*
X121455760Y-86507630D01*
X121429423Y-86468214D01*
X121417552Y-86450448D01*
X121417551Y-86450447D01*
X121413503Y-86444389D01*
X121415569Y-86443008D01*
X121397755Y-86400000D01*
X121415569Y-86356991D01*
X121413503Y-86355611D01*
X121461866Y-86283232D01*
X121461865Y-86283232D01*
X121461867Y-86283231D01*
X121473500Y-86224748D01*
X121473500Y-85775252D01*
X121461867Y-85716769D01*
X121461866Y-85716767D01*
X121461866Y-85716766D01*
X121459077Y-85710032D01*
X121462457Y-85708631D01*
X121453971Y-85665920D01*
X121474221Y-85628044D01*
X121524785Y-85577480D01*
X121570089Y-85474875D01*
X121573000Y-85449789D01*
X121573000Y-85300000D01*
X118700001Y-85300000D01*
X118700001Y-85449792D01*
X118702908Y-85474868D01*
X118702910Y-85474874D01*
X118748213Y-85577478D01*
X118798780Y-85628045D01*
X118820454Y-85680371D01*
X118811733Y-85709128D01*
X118813922Y-85710035D01*
X118811133Y-85716767D01*
X118810160Y-85721659D01*
X118799500Y-85775252D01*
X118799500Y-86224748D01*
X118803071Y-86242699D01*
X118811133Y-86283232D01*
X118859497Y-86355611D01*
X118857430Y-86356991D01*
X118875245Y-86400000D01*
X118857430Y-86443008D01*
X118859497Y-86444389D01*
X118855448Y-86450447D01*
X118855448Y-86450448D01*
X118847528Y-86462299D01*
X118811133Y-86516767D01*
X118809851Y-86523214D01*
X118801253Y-86566442D01*
X118799500Y-86575253D01*
X118799500Y-87024746D01*
X118811133Y-87083232D01*
X118859497Y-87155611D01*
X118857430Y-87156991D01*
X118875245Y-87200000D01*
X118857430Y-87243008D01*
X118859497Y-87244389D01*
X118855448Y-87250447D01*
X118855448Y-87250448D01*
X118849348Y-87259577D01*
X118811133Y-87316767D01*
X118809851Y-87323214D01*
X118799908Y-87373204D01*
X118799500Y-87375253D01*
X118799500Y-87824746D01*
X118811133Y-87883232D01*
X118859497Y-87955611D01*
X118857430Y-87956991D01*
X118875245Y-88000000D01*
X118857430Y-88043008D01*
X118859497Y-88044389D01*
X118811133Y-88116767D01*
X118809851Y-88123214D01*
X118801253Y-88166442D01*
X118799500Y-88175253D01*
X118799500Y-88624746D01*
X118811133Y-88683232D01*
X118859497Y-88755611D01*
X118857430Y-88756991D01*
X118875245Y-88800000D01*
X118857430Y-88843008D01*
X118859497Y-88844389D01*
X118855448Y-88850447D01*
X118855448Y-88850448D01*
X118847528Y-88862299D01*
X118811133Y-88916767D01*
X118809851Y-88923214D01*
X118801253Y-88966442D01*
X118799500Y-88975253D01*
X118799500Y-89424746D01*
X118811133Y-89483232D01*
X118859497Y-89555611D01*
X118857430Y-89556991D01*
X118875245Y-89600000D01*
X118857430Y-89643008D01*
X118859497Y-89644389D01*
X118811133Y-89716767D01*
X118809851Y-89723214D01*
X118801253Y-89766442D01*
X118799500Y-89775253D01*
X118799500Y-90224746D01*
X118811133Y-90283232D01*
X118859497Y-90355611D01*
X118857430Y-90356991D01*
X118875245Y-90400000D01*
X118857430Y-90443008D01*
X118859497Y-90444389D01*
X118811133Y-90516767D01*
X118809851Y-90523214D01*
X118801253Y-90566442D01*
X118799500Y-90575253D01*
X118799500Y-91024746D01*
X118811133Y-91083232D01*
X118859497Y-91155611D01*
X118857430Y-91156991D01*
X118875245Y-91200000D01*
X118857430Y-91243008D01*
X118859497Y-91244389D01*
X118811133Y-91316767D01*
X118809851Y-91323214D01*
X118801253Y-91366442D01*
X118799500Y-91375253D01*
X118799500Y-91824746D01*
X118811133Y-91883233D01*
X118813923Y-91889968D01*
X118810543Y-91891367D01*
X118819026Y-91934092D01*
X118798779Y-91971954D01*
X118748214Y-92022519D01*
X118702910Y-92125124D01*
X118700000Y-92150210D01*
X108150500Y-92150210D01*
X108150500Y-84950210D01*
X118700000Y-84950210D01*
X118700000Y-85100000D01*
X120036500Y-85100000D01*
X120236500Y-85100000D01*
X121572999Y-85100000D01*
X121572999Y-84950210D01*
X124427000Y-84950210D01*
X124427000Y-85100000D01*
X125763500Y-85100000D01*
X125963500Y-85100000D01*
X127299999Y-85100000D01*
X127299999Y-84950207D01*
X127297091Y-84925131D01*
X127297089Y-84925126D01*
X127255039Y-84829890D01*
X127253731Y-84773268D01*
X127255039Y-84770110D01*
X127297089Y-84674875D01*
X127300000Y-84649789D01*
X127300000Y-84500000D01*
X125963500Y-84500000D01*
X125963500Y-85100000D01*
X125763500Y-85100000D01*
X125763500Y-84500000D01*
X124427001Y-84500000D01*
X124427001Y-84649792D01*
X124429908Y-84674868D01*
X124429910Y-84674874D01*
X124471960Y-84770109D01*
X124473268Y-84826731D01*
X124471960Y-84829889D01*
X124429910Y-84925123D01*
X124427000Y-84950210D01*
X121572999Y-84950210D01*
X121572999Y-84950207D01*
X121570091Y-84925131D01*
X121570089Y-84925126D01*
X121528039Y-84829890D01*
X121526731Y-84773268D01*
X121528039Y-84770110D01*
X121570089Y-84674875D01*
X121573000Y-84649789D01*
X121573000Y-84500000D01*
X120236500Y-84500000D01*
X120236500Y-85100000D01*
X120036500Y-85100000D01*
X120036500Y-84500000D01*
X118700001Y-84500000D01*
X118700001Y-84649792D01*
X118702908Y-84674868D01*
X118702910Y-84674874D01*
X118744960Y-84770109D01*
X118746268Y-84826731D01*
X118744960Y-84829889D01*
X118702910Y-84925123D01*
X118700000Y-84950210D01*
X108150500Y-84950210D01*
X108150500Y-84150210D01*
X118700000Y-84150210D01*
X118700000Y-84300000D01*
X120036500Y-84300000D01*
X120236500Y-84300000D01*
X121572999Y-84300000D01*
X121572999Y-84150210D01*
X124427000Y-84150210D01*
X124427000Y-84300000D01*
X125763500Y-84300000D01*
X125963500Y-84300000D01*
X127299999Y-84300000D01*
X127299999Y-84150207D01*
X127297091Y-84125131D01*
X127297089Y-84125125D01*
X127251786Y-84022521D01*
X127172478Y-83943213D01*
X127069875Y-83897910D01*
X127069876Y-83897910D01*
X127044789Y-83895000D01*
X125963500Y-83895000D01*
X125963500Y-84300000D01*
X125763500Y-84300000D01*
X125763500Y-83895000D01*
X124682207Y-83895000D01*
X124657131Y-83897908D01*
X124657125Y-83897910D01*
X124554521Y-83943213D01*
X124475213Y-84022521D01*
X124429910Y-84125124D01*
X124427000Y-84150210D01*
X121572999Y-84150210D01*
X121572999Y-84150207D01*
X121570091Y-84125131D01*
X121570089Y-84125125D01*
X121524786Y-84022521D01*
X121445478Y-83943213D01*
X121342875Y-83897910D01*
X121342876Y-83897910D01*
X121317789Y-83895000D01*
X120236500Y-83895000D01*
X120236500Y-84300000D01*
X120036500Y-84300000D01*
X120036500Y-83895000D01*
X118955207Y-83895000D01*
X118930131Y-83897908D01*
X118930125Y-83897910D01*
X118827521Y-83943213D01*
X118748213Y-84022521D01*
X118702910Y-84125124D01*
X118700000Y-84150210D01*
X108150500Y-84150210D01*
X108150500Y-81874871D01*
X119719500Y-81874871D01*
X119719500Y-81995128D01*
X119742959Y-82113069D01*
X119742961Y-82113076D01*
X119788981Y-82224179D01*
X119788982Y-82224180D01*
X119855794Y-82324171D01*
X119940829Y-82409206D01*
X120040820Y-82476018D01*
X120151924Y-82522039D01*
X120269871Y-82545500D01*
X120269872Y-82545500D01*
X120390128Y-82545500D01*
X120390129Y-82545500D01*
X120508076Y-82522039D01*
X120619180Y-82476018D01*
X120719171Y-82409206D01*
X120804206Y-82324171D01*
X120871018Y-82224180D01*
X120917039Y-82113076D01*
X120940500Y-81995129D01*
X120940500Y-81874871D01*
X120917039Y-81756924D01*
X120871018Y-81645820D01*
X120804206Y-81545829D01*
X120719171Y-81460794D01*
X120619180Y-81393982D01*
X120619181Y-81393982D01*
X120619179Y-81393981D01*
X120508076Y-81347961D01*
X120508069Y-81347959D01*
X120419215Y-81330285D01*
X120390129Y-81324500D01*
X120269871Y-81324500D01*
X120246538Y-81329141D01*
X120151930Y-81347959D01*
X120151923Y-81347961D01*
X120040820Y-81393981D01*
X119940832Y-81460791D01*
X119855791Y-81545832D01*
X119788981Y-81645820D01*
X119742961Y-81756923D01*
X119742959Y-81756930D01*
X119719500Y-81874871D01*
X108150500Y-81874871D01*
X108150500Y-80002083D01*
X108150616Y-79997934D01*
X108164343Y-79753500D01*
X108168184Y-79685092D01*
X108169114Y-79676852D01*
X108178718Y-79620332D01*
X108221247Y-79370020D01*
X108223092Y-79361937D01*
X108309258Y-79062846D01*
X108311988Y-79055044D01*
X108386964Y-78874036D01*
X151399500Y-78874036D01*
X151399500Y-79125963D01*
X151438909Y-79374782D01*
X151438912Y-79374795D01*
X151516756Y-79614373D01*
X151631129Y-79838845D01*
X151749729Y-80002083D01*
X151779207Y-80042656D01*
X151957344Y-80220793D01*
X151957347Y-80220795D01*
X151957348Y-80220796D01*
X152161154Y-80368870D01*
X152254697Y-80416532D01*
X152385621Y-80483241D01*
X152385623Y-80483241D01*
X152385626Y-80483243D01*
X152625204Y-80561087D01*
X152625210Y-80561088D01*
X152625215Y-80561090D01*
X152662076Y-80566928D01*
X152710367Y-80596521D01*
X152724500Y-80640017D01*
X152724500Y-84695613D01*
X152702826Y-84747939D01*
X152411675Y-85039090D01*
X152355860Y-85115911D01*
X152355858Y-85115915D01*
X152316658Y-85236565D01*
X152316658Y-85325500D01*
X152294984Y-85377826D01*
X152242658Y-85399500D01*
X152220941Y-85399500D01*
X152068220Y-85440421D01*
X152068214Y-85440424D01*
X151931283Y-85519480D01*
X151819480Y-85631283D01*
X151740424Y-85768214D01*
X151740421Y-85768220D01*
X151699500Y-85920940D01*
X151699500Y-86079059D01*
X151740421Y-86231779D01*
X151740422Y-86231781D01*
X151740423Y-86231784D01*
X151819480Y-86368716D01*
X151931284Y-86480520D01*
X152068216Y-86559577D01*
X152220940Y-86600499D01*
X152220941Y-86600500D01*
X152325500Y-86600500D01*
X152377826Y-86622174D01*
X152399500Y-86674500D01*
X152399500Y-86779059D01*
X152440421Y-86931779D01*
X152440422Y-86931781D01*
X152440423Y-86931784D01*
X152519480Y-87068716D01*
X152631284Y-87180520D01*
X152768216Y-87259577D01*
X152920940Y-87300499D01*
X152920941Y-87300500D01*
X152920943Y-87300500D01*
X153079059Y-87300500D01*
X153079059Y-87300499D01*
X153231784Y-87259577D01*
X153368716Y-87180520D01*
X153480520Y-87068716D01*
X153559577Y-86931784D01*
X153600499Y-86779059D01*
X153600500Y-86779059D01*
X153600500Y-86620941D01*
X153600499Y-86620940D01*
X153585896Y-86566442D01*
X153559577Y-86468216D01*
X153480520Y-86331284D01*
X153368716Y-86219480D01*
X153231784Y-86140423D01*
X153231781Y-86140422D01*
X153231779Y-86140421D01*
X153115877Y-86109365D01*
X153070944Y-86074887D01*
X153063552Y-86018734D01*
X153098030Y-85973801D01*
X153112158Y-85967510D01*
X153184090Y-85944139D01*
X153260909Y-85888326D01*
X153427060Y-85722173D01*
X153479386Y-85700500D01*
X156803455Y-85700500D01*
X156855781Y-85722174D01*
X158454087Y-87320480D01*
X158454089Y-87320481D01*
X158454090Y-87320482D01*
X158512417Y-87354157D01*
X158545412Y-87373207D01*
X158647273Y-87400500D01*
X162308480Y-87400500D01*
X162360806Y-87422174D01*
X162695933Y-87757299D01*
X162740281Y-87793039D01*
X162740285Y-87793041D01*
X162740287Y-87793042D01*
X162765946Y-87804759D01*
X162864658Y-87849839D01*
X163000000Y-87869299D01*
X163135342Y-87849839D01*
X163259719Y-87793039D01*
X163304067Y-87757301D01*
X163757299Y-87304067D01*
X163793039Y-87259719D01*
X163849839Y-87135342D01*
X163869299Y-87000000D01*
X163849839Y-86864658D01*
X163844943Y-86853939D01*
X163842921Y-86797340D01*
X163881514Y-86755887D01*
X163922370Y-86751126D01*
X163922467Y-86750144D01*
X163926080Y-86750500D01*
X163926082Y-86750500D01*
X164073916Y-86750500D01*
X164073918Y-86750500D01*
X164218913Y-86721658D01*
X164355495Y-86665084D01*
X164478416Y-86582951D01*
X164582951Y-86478416D01*
X164665084Y-86355495D01*
X164721658Y-86218913D01*
X164750500Y-86073918D01*
X164750500Y-85926082D01*
X164721658Y-85781087D01*
X164719241Y-85775253D01*
X164665084Y-85644505D01*
X164582951Y-85521584D01*
X164478415Y-85417048D01*
X164355494Y-85334915D01*
X164218917Y-85278343D01*
X164218907Y-85278340D01*
X164121811Y-85259026D01*
X164073918Y-85249500D01*
X163926082Y-85249500D01*
X163815523Y-85271492D01*
X163759974Y-85260443D01*
X163728508Y-85213351D01*
X163728508Y-85184477D01*
X163750500Y-85073916D01*
X163750500Y-84950210D01*
X188700000Y-84950210D01*
X188700000Y-85100000D01*
X190036500Y-85100000D01*
X190236500Y-85100000D01*
X191572999Y-85100000D01*
X191572999Y-84950210D01*
X194427000Y-84950210D01*
X194427000Y-85100000D01*
X195763500Y-85100000D01*
X195963500Y-85100000D01*
X197299999Y-85100000D01*
X197299999Y-84950207D01*
X197297091Y-84925131D01*
X197297089Y-84925126D01*
X197255039Y-84829890D01*
X197253731Y-84773268D01*
X197255039Y-84770110D01*
X197297089Y-84674875D01*
X197300000Y-84649789D01*
X197300000Y-84500000D01*
X195963500Y-84500000D01*
X195963500Y-85100000D01*
X195763500Y-85100000D01*
X195763500Y-84500000D01*
X194427001Y-84500000D01*
X194427001Y-84649792D01*
X194429908Y-84674868D01*
X194429910Y-84674874D01*
X194471960Y-84770109D01*
X194473268Y-84826731D01*
X194471960Y-84829889D01*
X194429910Y-84925123D01*
X194427000Y-84950210D01*
X191572999Y-84950210D01*
X191572999Y-84950207D01*
X191570091Y-84925131D01*
X191570089Y-84925126D01*
X191528039Y-84829890D01*
X191526731Y-84773268D01*
X191528039Y-84770110D01*
X191570089Y-84674875D01*
X191573000Y-84649789D01*
X191573000Y-84500000D01*
X190236500Y-84500000D01*
X190236500Y-85100000D01*
X190036500Y-85100000D01*
X190036500Y-84500000D01*
X188700001Y-84500000D01*
X188700001Y-84649792D01*
X188702908Y-84674868D01*
X188702910Y-84674874D01*
X188744960Y-84770109D01*
X188746268Y-84826731D01*
X188744960Y-84829889D01*
X188702910Y-84925123D01*
X188700000Y-84950210D01*
X163750500Y-84950210D01*
X163750500Y-84926083D01*
X163731365Y-84829889D01*
X163721658Y-84781087D01*
X163665084Y-84644505D01*
X163582951Y-84521584D01*
X163478416Y-84417049D01*
X163355495Y-84334916D01*
X163355496Y-84334916D01*
X163355494Y-84334915D01*
X163218917Y-84278343D01*
X163218907Y-84278340D01*
X163121811Y-84259026D01*
X163073918Y-84249500D01*
X162926082Y-84249500D01*
X162884977Y-84257676D01*
X162781092Y-84278340D01*
X162781082Y-84278343D01*
X162644505Y-84334915D01*
X162521584Y-84417048D01*
X162521583Y-84417050D01*
X162417050Y-84521583D01*
X162417048Y-84521584D01*
X162334915Y-84644505D01*
X162278343Y-84781082D01*
X162278340Y-84781092D01*
X162249500Y-84926083D01*
X162249500Y-85073916D01*
X162278340Y-85218907D01*
X162278343Y-85218917D01*
X162334915Y-85355494D01*
X162417048Y-85478415D01*
X162521584Y-85582951D01*
X162644505Y-85665084D01*
X162769276Y-85716766D01*
X162781087Y-85721658D01*
X162926082Y-85750500D01*
X162926084Y-85750500D01*
X163073916Y-85750500D01*
X163073918Y-85750500D01*
X163184477Y-85728508D01*
X163240026Y-85739557D01*
X163271492Y-85786649D01*
X163271492Y-85815523D01*
X163249500Y-85926083D01*
X163249500Y-86073920D01*
X163249856Y-86077533D01*
X163248515Y-86077665D01*
X163238321Y-86128867D01*
X163191223Y-86160324D01*
X163146061Y-86155056D01*
X163135342Y-86150161D01*
X163135340Y-86150160D01*
X163135339Y-86150160D01*
X163000000Y-86130701D01*
X162864661Y-86150160D01*
X162864658Y-86150160D01*
X162740281Y-86206960D01*
X162695934Y-86242697D01*
X162695933Y-86242698D01*
X162360808Y-86577826D01*
X162308482Y-86599500D01*
X158896545Y-86599500D01*
X158844219Y-86577826D01*
X158047475Y-85781082D01*
X157245913Y-84979520D01*
X157245910Y-84979518D01*
X157245909Y-84979517D01*
X157154592Y-84926795D01*
X157154588Y-84926793D01*
X157148385Y-84925131D01*
X157052727Y-84899500D01*
X157052726Y-84899500D01*
X153479387Y-84899500D01*
X153427061Y-84877826D01*
X153297174Y-84747939D01*
X153275500Y-84695613D01*
X153275500Y-84150210D01*
X188700000Y-84150210D01*
X188700000Y-84300000D01*
X190036500Y-84300000D01*
X190236500Y-84300000D01*
X191572999Y-84300000D01*
X191572999Y-84150210D01*
X194427000Y-84150210D01*
X194427000Y-84300000D01*
X195763500Y-84300000D01*
X195963500Y-84300000D01*
X197299999Y-84300000D01*
X197299999Y-84150207D01*
X197297091Y-84125131D01*
X197297089Y-84125125D01*
X197251786Y-84022521D01*
X197172478Y-83943213D01*
X197069875Y-83897910D01*
X197069876Y-83897910D01*
X197044789Y-83895000D01*
X195963500Y-83895000D01*
X195963500Y-84300000D01*
X195763500Y-84300000D01*
X195763500Y-83895000D01*
X194682207Y-83895000D01*
X194657131Y-83897908D01*
X194657125Y-83897910D01*
X194554521Y-83943213D01*
X194475213Y-84022521D01*
X194429910Y-84125124D01*
X194427000Y-84150210D01*
X191572999Y-84150210D01*
X191572999Y-84150207D01*
X191570091Y-84125131D01*
X191570089Y-84125125D01*
X191524786Y-84022521D01*
X191445478Y-83943213D01*
X191342875Y-83897910D01*
X191342876Y-83897910D01*
X191317789Y-83895000D01*
X190236500Y-83895000D01*
X190236500Y-84300000D01*
X190036500Y-84300000D01*
X190036500Y-83895000D01*
X188955207Y-83895000D01*
X188930131Y-83897908D01*
X188930125Y-83897910D01*
X188827521Y-83943213D01*
X188748213Y-84022521D01*
X188702910Y-84125124D01*
X188700000Y-84150210D01*
X153275500Y-84150210D01*
X153275500Y-81874871D01*
X189719500Y-81874871D01*
X189719500Y-81995128D01*
X189742959Y-82113069D01*
X189742961Y-82113076D01*
X189788981Y-82224179D01*
X189788982Y-82224180D01*
X189855794Y-82324171D01*
X189940829Y-82409206D01*
X190040820Y-82476018D01*
X190151924Y-82522039D01*
X190269871Y-82545500D01*
X190269872Y-82545500D01*
X190390128Y-82545500D01*
X190390129Y-82545500D01*
X190508076Y-82522039D01*
X190619180Y-82476018D01*
X190719171Y-82409206D01*
X190804206Y-82324171D01*
X190871018Y-82224180D01*
X190917039Y-82113076D01*
X190940500Y-81995129D01*
X190940500Y-81874871D01*
X190917039Y-81756924D01*
X190871018Y-81645820D01*
X190804206Y-81545829D01*
X190719171Y-81460794D01*
X190619180Y-81393982D01*
X190619181Y-81393982D01*
X190619179Y-81393981D01*
X190508076Y-81347961D01*
X190508069Y-81347959D01*
X190419215Y-81330285D01*
X190390129Y-81324500D01*
X190269871Y-81324500D01*
X190246538Y-81329141D01*
X190151930Y-81347959D01*
X190151923Y-81347961D01*
X190040820Y-81393981D01*
X189940832Y-81460791D01*
X189855791Y-81545832D01*
X189788981Y-81645820D01*
X189742961Y-81756923D01*
X189742959Y-81756930D01*
X189719500Y-81874871D01*
X153275500Y-81874871D01*
X153275500Y-80640017D01*
X153297174Y-80587691D01*
X153337923Y-80566928D01*
X153374785Y-80561090D01*
X153374792Y-80561087D01*
X153374795Y-80561087D01*
X153614373Y-80483243D01*
X153614373Y-80483242D01*
X153614379Y-80483241D01*
X153838845Y-80368870D01*
X154042656Y-80220793D01*
X154220793Y-80042656D01*
X154368870Y-79838845D01*
X154483241Y-79614379D01*
X154561090Y-79374785D01*
X154600500Y-79125962D01*
X154600500Y-78888577D01*
X161300000Y-78888577D01*
X161300000Y-79111422D01*
X161329086Y-79332365D01*
X161386763Y-79547618D01*
X161472043Y-79753500D01*
X161472045Y-79753503D01*
X161583467Y-79946495D01*
X161719134Y-80123297D01*
X161727207Y-80131370D01*
X162438681Y-79419894D01*
X162456274Y-79446224D01*
X162553776Y-79543726D01*
X162580103Y-79561317D01*
X161868629Y-80272792D01*
X161876702Y-80280865D01*
X162053504Y-80416532D01*
X162246496Y-80527954D01*
X162246499Y-80527956D01*
X162452381Y-80613236D01*
X162667635Y-80670913D01*
X162667633Y-80670913D01*
X162888578Y-80700000D01*
X163111422Y-80700000D01*
X163332365Y-80670913D01*
X163547618Y-80613236D01*
X163753500Y-80527956D01*
X163753503Y-80527954D01*
X163946495Y-80416532D01*
X164123291Y-80280870D01*
X164123301Y-80280862D01*
X164131370Y-80272792D01*
X163419895Y-79561317D01*
X163446224Y-79543726D01*
X163543726Y-79446224D01*
X163561317Y-79419895D01*
X164272792Y-80131370D01*
X164280862Y-80123301D01*
X164280870Y-80123291D01*
X164416532Y-79946495D01*
X164527954Y-79753503D01*
X164527956Y-79753500D01*
X164613236Y-79547618D01*
X164670913Y-79332365D01*
X164700000Y-79111422D01*
X164700000Y-78888577D01*
X164670913Y-78667634D01*
X164613236Y-78452381D01*
X164527956Y-78246499D01*
X164527954Y-78246496D01*
X164416532Y-78053504D01*
X164280865Y-77876702D01*
X164272792Y-77868629D01*
X163561317Y-78580103D01*
X163543726Y-78553776D01*
X163446224Y-78456274D01*
X163419894Y-78438681D01*
X164131370Y-77727207D01*
X164123297Y-77719134D01*
X163946495Y-77583467D01*
X163753503Y-77472045D01*
X163753500Y-77472043D01*
X163547618Y-77386763D01*
X163332364Y-77329086D01*
X163332366Y-77329086D01*
X163111422Y-77300000D01*
X162888578Y-77300000D01*
X162667634Y-77329086D01*
X162452381Y-77386763D01*
X162246499Y-77472043D01*
X162246496Y-77472045D01*
X162053504Y-77583467D01*
X161876707Y-77719129D01*
X161876706Y-77719131D01*
X161868629Y-77727207D01*
X162580104Y-78438682D01*
X162553776Y-78456274D01*
X162456274Y-78553776D01*
X162438682Y-78580104D01*
X161727207Y-77868629D01*
X161719131Y-77876706D01*
X161719129Y-77876707D01*
X161583467Y-78053504D01*
X161472045Y-78246496D01*
X161472043Y-78246499D01*
X161386763Y-78452381D01*
X161329086Y-78667634D01*
X161300000Y-78888577D01*
X154600500Y-78888577D01*
X154600500Y-78874038D01*
X154599767Y-78869412D01*
X154567934Y-78668426D01*
X154561090Y-78625215D01*
X154561088Y-78625210D01*
X154561087Y-78625204D01*
X154483243Y-78385626D01*
X154483241Y-78385623D01*
X154483241Y-78385621D01*
X154412353Y-78246496D01*
X154368870Y-78161154D01*
X154220796Y-77957348D01*
X154220795Y-77957347D01*
X154220793Y-77957344D01*
X154042656Y-77779207D01*
X154042653Y-77779204D01*
X154042651Y-77779203D01*
X153838845Y-77631129D01*
X153614373Y-77516756D01*
X153374795Y-77438912D01*
X153374782Y-77438909D01*
X153125964Y-77399500D01*
X153125962Y-77399500D01*
X152874038Y-77399500D01*
X152874036Y-77399500D01*
X152625217Y-77438909D01*
X152625204Y-77438912D01*
X152385626Y-77516756D01*
X152161154Y-77631129D01*
X151957348Y-77779203D01*
X151779203Y-77957348D01*
X151631129Y-78161154D01*
X151516756Y-78385626D01*
X151438912Y-78625204D01*
X151438909Y-78625217D01*
X151399500Y-78874036D01*
X108386964Y-78874036D01*
X108431098Y-78767488D01*
X108434694Y-78760019D01*
X108585259Y-78487593D01*
X108589656Y-78480595D01*
X108769769Y-78226750D01*
X108774927Y-78220281D01*
X108982342Y-77988183D01*
X108988183Y-77982342D01*
X109220281Y-77774927D01*
X109226750Y-77769769D01*
X109480595Y-77589656D01*
X109487593Y-77585259D01*
X109760019Y-77434694D01*
X109767481Y-77431100D01*
X110055044Y-77311988D01*
X110062846Y-77309258D01*
X110361945Y-77223090D01*
X110370020Y-77221247D01*
X110676860Y-77169113D01*
X110685092Y-77168184D01*
X110997934Y-77150615D01*
X111002083Y-77150500D01*
X111034351Y-77150500D01*
X204965649Y-77150500D01*
X204997917Y-77150500D01*
X205002065Y-77150615D01*
G37*
%TD.AperFunction*%
%TD*%
M02*
