%TF.GenerationSoftware,KiCad,Pcbnew,9.0.3*%
%TF.CreationDate,2026-03-16T13:33:51-04:00*%
%TF.ProjectId,ephys-test-module-64,65706879-732d-4746-9573-742d6d6f6475,F*%
%TF.SameCoordinates,Original*%
%TF.FileFunction,AssemblyDrawing,Bot*%
%FSLAX46Y46*%
G04 Gerber Fmt 4.6, Leading zero omitted, Abs format (unit mm)*
G04 Created by KiCad (PCBNEW 9.0.3) date 2026-03-16 13:33:51*
%MOMM*%
%LPD*%
G01*
G04 APERTURE LIST*
%ADD10C,0.150000*%
%ADD11C,0.040000*%
%ADD12C,0.100000*%
%ADD13C,0.200000*%
G04 APERTURE END LIST*
D10*
X165054819Y-99059523D02*
X164578628Y-98726190D01*
X165054819Y-98488095D02*
X164054819Y-98488095D01*
X164054819Y-98488095D02*
X164054819Y-98869047D01*
X164054819Y-98869047D02*
X164102438Y-98964285D01*
X164102438Y-98964285D02*
X164150057Y-99011904D01*
X164150057Y-99011904D02*
X164245295Y-99059523D01*
X164245295Y-99059523D02*
X164388152Y-99059523D01*
X164388152Y-99059523D02*
X164483390Y-99011904D01*
X164483390Y-99011904D02*
X164531009Y-98964285D01*
X164531009Y-98964285D02*
X164578628Y-98869047D01*
X164578628Y-98869047D02*
X164578628Y-98488095D01*
X165054819Y-99488095D02*
X164054819Y-99488095D01*
X164054819Y-99488095D02*
X165054819Y-100059523D01*
X165054819Y-100059523D02*
X164054819Y-100059523D01*
X164483390Y-100678571D02*
X164435771Y-100583333D01*
X164435771Y-100583333D02*
X164388152Y-100535714D01*
X164388152Y-100535714D02*
X164292914Y-100488095D01*
X164292914Y-100488095D02*
X164245295Y-100488095D01*
X164245295Y-100488095D02*
X164150057Y-100535714D01*
X164150057Y-100535714D02*
X164102438Y-100583333D01*
X164102438Y-100583333D02*
X164054819Y-100678571D01*
X164054819Y-100678571D02*
X164054819Y-100869047D01*
X164054819Y-100869047D02*
X164102438Y-100964285D01*
X164102438Y-100964285D02*
X164150057Y-101011904D01*
X164150057Y-101011904D02*
X164245295Y-101059523D01*
X164245295Y-101059523D02*
X164292914Y-101059523D01*
X164292914Y-101059523D02*
X164388152Y-101011904D01*
X164388152Y-101011904D02*
X164435771Y-100964285D01*
X164435771Y-100964285D02*
X164483390Y-100869047D01*
X164483390Y-100869047D02*
X164483390Y-100678571D01*
X164483390Y-100678571D02*
X164531009Y-100583333D01*
X164531009Y-100583333D02*
X164578628Y-100535714D01*
X164578628Y-100535714D02*
X164673866Y-100488095D01*
X164673866Y-100488095D02*
X164864342Y-100488095D01*
X164864342Y-100488095D02*
X164959580Y-100535714D01*
X164959580Y-100535714D02*
X165007200Y-100583333D01*
X165007200Y-100583333D02*
X165054819Y-100678571D01*
X165054819Y-100678571D02*
X165054819Y-100869047D01*
X165054819Y-100869047D02*
X165007200Y-100964285D01*
X165007200Y-100964285D02*
X164959580Y-101011904D01*
X164959580Y-101011904D02*
X164864342Y-101059523D01*
X164864342Y-101059523D02*
X164673866Y-101059523D01*
X164673866Y-101059523D02*
X164578628Y-101011904D01*
X164578628Y-101011904D02*
X164531009Y-100964285D01*
X164531009Y-100964285D02*
X164483390Y-100869047D01*
X122454819Y-99666666D02*
X123169104Y-99666666D01*
X123169104Y-99666666D02*
X123311961Y-99619047D01*
X123311961Y-99619047D02*
X123407200Y-99523809D01*
X123407200Y-99523809D02*
X123454819Y-99380952D01*
X123454819Y-99380952D02*
X123454819Y-99285714D01*
X122550057Y-100095238D02*
X122502438Y-100142857D01*
X122502438Y-100142857D02*
X122454819Y-100238095D01*
X122454819Y-100238095D02*
X122454819Y-100476190D01*
X122454819Y-100476190D02*
X122502438Y-100571428D01*
X122502438Y-100571428D02*
X122550057Y-100619047D01*
X122550057Y-100619047D02*
X122645295Y-100666666D01*
X122645295Y-100666666D02*
X122740533Y-100666666D01*
X122740533Y-100666666D02*
X122883390Y-100619047D01*
X122883390Y-100619047D02*
X123454819Y-100047619D01*
X123454819Y-100047619D02*
X123454819Y-100666666D01*
D11*
X157143332Y-111918200D02*
X157229999Y-111794391D01*
X157291904Y-111918200D02*
X157291904Y-111658200D01*
X157291904Y-111658200D02*
X157192856Y-111658200D01*
X157192856Y-111658200D02*
X157168094Y-111670581D01*
X157168094Y-111670581D02*
X157155713Y-111682962D01*
X157155713Y-111682962D02*
X157143332Y-111707724D01*
X157143332Y-111707724D02*
X157143332Y-111744867D01*
X157143332Y-111744867D02*
X157155713Y-111769629D01*
X157155713Y-111769629D02*
X157168094Y-111782010D01*
X157168094Y-111782010D02*
X157192856Y-111794391D01*
X157192856Y-111794391D02*
X157291904Y-111794391D01*
X156920475Y-111744867D02*
X156920475Y-111918200D01*
X156982380Y-111645820D02*
X157044285Y-111831534D01*
X157044285Y-111831534D02*
X156883332Y-111831534D01*
D10*
X151854819Y-103559523D02*
X151378628Y-103226190D01*
X151854819Y-102988095D02*
X150854819Y-102988095D01*
X150854819Y-102988095D02*
X150854819Y-103369047D01*
X150854819Y-103369047D02*
X150902438Y-103464285D01*
X150902438Y-103464285D02*
X150950057Y-103511904D01*
X150950057Y-103511904D02*
X151045295Y-103559523D01*
X151045295Y-103559523D02*
X151188152Y-103559523D01*
X151188152Y-103559523D02*
X151283390Y-103511904D01*
X151283390Y-103511904D02*
X151331009Y-103464285D01*
X151331009Y-103464285D02*
X151378628Y-103369047D01*
X151378628Y-103369047D02*
X151378628Y-102988095D01*
X151854819Y-103988095D02*
X150854819Y-103988095D01*
X150854819Y-103988095D02*
X151854819Y-104559523D01*
X151854819Y-104559523D02*
X150854819Y-104559523D01*
X150950057Y-104988095D02*
X150902438Y-105035714D01*
X150902438Y-105035714D02*
X150854819Y-105130952D01*
X150854819Y-105130952D02*
X150854819Y-105369047D01*
X150854819Y-105369047D02*
X150902438Y-105464285D01*
X150902438Y-105464285D02*
X150950057Y-105511904D01*
X150950057Y-105511904D02*
X151045295Y-105559523D01*
X151045295Y-105559523D02*
X151140533Y-105559523D01*
X151140533Y-105559523D02*
X151283390Y-105511904D01*
X151283390Y-105511904D02*
X151854819Y-104940476D01*
X151854819Y-104940476D02*
X151854819Y-105559523D01*
X151854819Y-99059523D02*
X151378628Y-98726190D01*
X151854819Y-98488095D02*
X150854819Y-98488095D01*
X150854819Y-98488095D02*
X150854819Y-98869047D01*
X150854819Y-98869047D02*
X150902438Y-98964285D01*
X150902438Y-98964285D02*
X150950057Y-99011904D01*
X150950057Y-99011904D02*
X151045295Y-99059523D01*
X151045295Y-99059523D02*
X151188152Y-99059523D01*
X151188152Y-99059523D02*
X151283390Y-99011904D01*
X151283390Y-99011904D02*
X151331009Y-98964285D01*
X151331009Y-98964285D02*
X151378628Y-98869047D01*
X151378628Y-98869047D02*
X151378628Y-98488095D01*
X151854819Y-99488095D02*
X150854819Y-99488095D01*
X150854819Y-99488095D02*
X151854819Y-100059523D01*
X151854819Y-100059523D02*
X150854819Y-100059523D01*
X150854819Y-100440476D02*
X150854819Y-101059523D01*
X150854819Y-101059523D02*
X151235771Y-100726190D01*
X151235771Y-100726190D02*
X151235771Y-100869047D01*
X151235771Y-100869047D02*
X151283390Y-100964285D01*
X151283390Y-100964285D02*
X151331009Y-101011904D01*
X151331009Y-101011904D02*
X151426247Y-101059523D01*
X151426247Y-101059523D02*
X151664342Y-101059523D01*
X151664342Y-101059523D02*
X151759580Y-101011904D01*
X151759580Y-101011904D02*
X151807200Y-100964285D01*
X151807200Y-100964285D02*
X151854819Y-100869047D01*
X151854819Y-100869047D02*
X151854819Y-100583333D01*
X151854819Y-100583333D02*
X151807200Y-100488095D01*
X151807200Y-100488095D02*
X151759580Y-100440476D01*
X165054819Y-108109523D02*
X164578628Y-107776190D01*
X165054819Y-107538095D02*
X164054819Y-107538095D01*
X164054819Y-107538095D02*
X164054819Y-107919047D01*
X164054819Y-107919047D02*
X164102438Y-108014285D01*
X164102438Y-108014285D02*
X164150057Y-108061904D01*
X164150057Y-108061904D02*
X164245295Y-108109523D01*
X164245295Y-108109523D02*
X164388152Y-108109523D01*
X164388152Y-108109523D02*
X164483390Y-108061904D01*
X164483390Y-108061904D02*
X164531009Y-108014285D01*
X164531009Y-108014285D02*
X164578628Y-107919047D01*
X164578628Y-107919047D02*
X164578628Y-107538095D01*
X165054819Y-108538095D02*
X164054819Y-108538095D01*
X164054819Y-108538095D02*
X165054819Y-109109523D01*
X165054819Y-109109523D02*
X164054819Y-109109523D01*
X164054819Y-109490476D02*
X164054819Y-110157142D01*
X164054819Y-110157142D02*
X165054819Y-109728571D01*
X165054819Y-103609523D02*
X164578628Y-103276190D01*
X165054819Y-103038095D02*
X164054819Y-103038095D01*
X164054819Y-103038095D02*
X164054819Y-103419047D01*
X164054819Y-103419047D02*
X164102438Y-103514285D01*
X164102438Y-103514285D02*
X164150057Y-103561904D01*
X164150057Y-103561904D02*
X164245295Y-103609523D01*
X164245295Y-103609523D02*
X164388152Y-103609523D01*
X164388152Y-103609523D02*
X164483390Y-103561904D01*
X164483390Y-103561904D02*
X164531009Y-103514285D01*
X164531009Y-103514285D02*
X164578628Y-103419047D01*
X164578628Y-103419047D02*
X164578628Y-103038095D01*
X165054819Y-104038095D02*
X164054819Y-104038095D01*
X164054819Y-104038095D02*
X165054819Y-104609523D01*
X165054819Y-104609523D02*
X164054819Y-104609523D01*
X164054819Y-105561904D02*
X164054819Y-105085714D01*
X164054819Y-105085714D02*
X164531009Y-105038095D01*
X164531009Y-105038095D02*
X164483390Y-105085714D01*
X164483390Y-105085714D02*
X164435771Y-105180952D01*
X164435771Y-105180952D02*
X164435771Y-105419047D01*
X164435771Y-105419047D02*
X164483390Y-105514285D01*
X164483390Y-105514285D02*
X164531009Y-105561904D01*
X164531009Y-105561904D02*
X164626247Y-105609523D01*
X164626247Y-105609523D02*
X164864342Y-105609523D01*
X164864342Y-105609523D02*
X164959580Y-105561904D01*
X164959580Y-105561904D02*
X165007200Y-105514285D01*
X165007200Y-105514285D02*
X165054819Y-105419047D01*
X165054819Y-105419047D02*
X165054819Y-105180952D01*
X165054819Y-105180952D02*
X165007200Y-105085714D01*
X165007200Y-105085714D02*
X164959580Y-105038095D01*
X165054819Y-94559523D02*
X164578628Y-94226190D01*
X165054819Y-93988095D02*
X164054819Y-93988095D01*
X164054819Y-93988095D02*
X164054819Y-94369047D01*
X164054819Y-94369047D02*
X164102438Y-94464285D01*
X164102438Y-94464285D02*
X164150057Y-94511904D01*
X164150057Y-94511904D02*
X164245295Y-94559523D01*
X164245295Y-94559523D02*
X164388152Y-94559523D01*
X164388152Y-94559523D02*
X164483390Y-94511904D01*
X164483390Y-94511904D02*
X164531009Y-94464285D01*
X164531009Y-94464285D02*
X164578628Y-94369047D01*
X164578628Y-94369047D02*
X164578628Y-93988095D01*
X165054819Y-94988095D02*
X164054819Y-94988095D01*
X164054819Y-94988095D02*
X165054819Y-95559523D01*
X165054819Y-95559523D02*
X164054819Y-95559523D01*
X164054819Y-96464285D02*
X164054819Y-96273809D01*
X164054819Y-96273809D02*
X164102438Y-96178571D01*
X164102438Y-96178571D02*
X164150057Y-96130952D01*
X164150057Y-96130952D02*
X164292914Y-96035714D01*
X164292914Y-96035714D02*
X164483390Y-95988095D01*
X164483390Y-95988095D02*
X164864342Y-95988095D01*
X164864342Y-95988095D02*
X164959580Y-96035714D01*
X164959580Y-96035714D02*
X165007200Y-96083333D01*
X165007200Y-96083333D02*
X165054819Y-96178571D01*
X165054819Y-96178571D02*
X165054819Y-96369047D01*
X165054819Y-96369047D02*
X165007200Y-96464285D01*
X165007200Y-96464285D02*
X164959580Y-96511904D01*
X164959580Y-96511904D02*
X164864342Y-96559523D01*
X164864342Y-96559523D02*
X164626247Y-96559523D01*
X164626247Y-96559523D02*
X164531009Y-96511904D01*
X164531009Y-96511904D02*
X164483390Y-96464285D01*
X164483390Y-96464285D02*
X164435771Y-96369047D01*
X164435771Y-96369047D02*
X164435771Y-96178571D01*
X164435771Y-96178571D02*
X164483390Y-96083333D01*
X164483390Y-96083333D02*
X164531009Y-96035714D01*
X164531009Y-96035714D02*
X164626247Y-95988095D01*
X151854819Y-94559523D02*
X151378628Y-94226190D01*
X151854819Y-93988095D02*
X150854819Y-93988095D01*
X150854819Y-93988095D02*
X150854819Y-94369047D01*
X150854819Y-94369047D02*
X150902438Y-94464285D01*
X150902438Y-94464285D02*
X150950057Y-94511904D01*
X150950057Y-94511904D02*
X151045295Y-94559523D01*
X151045295Y-94559523D02*
X151188152Y-94559523D01*
X151188152Y-94559523D02*
X151283390Y-94511904D01*
X151283390Y-94511904D02*
X151331009Y-94464285D01*
X151331009Y-94464285D02*
X151378628Y-94369047D01*
X151378628Y-94369047D02*
X151378628Y-93988095D01*
X151854819Y-94988095D02*
X150854819Y-94988095D01*
X150854819Y-94988095D02*
X151854819Y-95559523D01*
X151854819Y-95559523D02*
X150854819Y-95559523D01*
X151188152Y-96464285D02*
X151854819Y-96464285D01*
X150807200Y-96226190D02*
X151521485Y-95988095D01*
X151521485Y-95988095D02*
X151521485Y-96607142D01*
X192454819Y-99666666D02*
X193169104Y-99666666D01*
X193169104Y-99666666D02*
X193311961Y-99619047D01*
X193311961Y-99619047D02*
X193407200Y-99523809D01*
X193407200Y-99523809D02*
X193454819Y-99380952D01*
X193454819Y-99380952D02*
X193454819Y-99285714D01*
X192454819Y-100047619D02*
X192454819Y-100666666D01*
X192454819Y-100666666D02*
X192835771Y-100333333D01*
X192835771Y-100333333D02*
X192835771Y-100476190D01*
X192835771Y-100476190D02*
X192883390Y-100571428D01*
X192883390Y-100571428D02*
X192931009Y-100619047D01*
X192931009Y-100619047D02*
X193026247Y-100666666D01*
X193026247Y-100666666D02*
X193264342Y-100666666D01*
X193264342Y-100666666D02*
X193359580Y-100619047D01*
X193359580Y-100619047D02*
X193407200Y-100571428D01*
X193407200Y-100571428D02*
X193454819Y-100476190D01*
X193454819Y-100476190D02*
X193454819Y-100190476D01*
X193454819Y-100190476D02*
X193407200Y-100095238D01*
X193407200Y-100095238D02*
X193359580Y-100047619D01*
X151854819Y-108059523D02*
X151378628Y-107726190D01*
X151854819Y-107488095D02*
X150854819Y-107488095D01*
X150854819Y-107488095D02*
X150854819Y-107869047D01*
X150854819Y-107869047D02*
X150902438Y-107964285D01*
X150902438Y-107964285D02*
X150950057Y-108011904D01*
X150950057Y-108011904D02*
X151045295Y-108059523D01*
X151045295Y-108059523D02*
X151188152Y-108059523D01*
X151188152Y-108059523D02*
X151283390Y-108011904D01*
X151283390Y-108011904D02*
X151331009Y-107964285D01*
X151331009Y-107964285D02*
X151378628Y-107869047D01*
X151378628Y-107869047D02*
X151378628Y-107488095D01*
X151854819Y-108488095D02*
X150854819Y-108488095D01*
X150854819Y-108488095D02*
X151854819Y-109059523D01*
X151854819Y-109059523D02*
X150854819Y-109059523D01*
X151854819Y-110059523D02*
X151854819Y-109488095D01*
X151854819Y-109773809D02*
X150854819Y-109773809D01*
X150854819Y-109773809D02*
X150997676Y-109678571D01*
X150997676Y-109678571D02*
X151092914Y-109583333D01*
X151092914Y-109583333D02*
X151140533Y-109488095D01*
D12*
%TO.C,RN8*%
X163800000Y-97750000D02*
X165400000Y-97750000D01*
X163800000Y-101750000D02*
X163800000Y-97750000D01*
X165400000Y-97750000D02*
X165400000Y-101750000D01*
X165400000Y-101750000D02*
X163800000Y-101750000D01*
%TO.C,J2*%
X119380500Y-81365000D02*
X126619500Y-81365000D01*
X119380500Y-118635000D02*
X119380500Y-81365000D01*
X126619500Y-81365000D02*
X126619500Y-118635000D01*
X126619500Y-118635000D02*
X119380500Y-118635000D01*
D13*
X127700000Y-84400000D02*
G75*
G02*
X127500000Y-84400000I-100000J0D01*
G01*
X127500000Y-84400000D02*
G75*
G02*
X127700000Y-84400000I100000J0D01*
G01*
D12*
%TO.C,R4*%
X156575000Y-111530000D02*
X156575000Y-112070000D01*
X156575000Y-112070000D02*
X157625000Y-112070000D01*
X157625000Y-111530000D02*
X156575000Y-111530000D01*
X157625000Y-112070000D02*
X157625000Y-111530000D01*
%TO.C,RN2*%
X150600000Y-102250000D02*
X152200000Y-102250000D01*
X150600000Y-106250000D02*
X150600000Y-102250000D01*
X152200000Y-102250000D02*
X152200000Y-106250000D01*
X152200000Y-106250000D02*
X150600000Y-106250000D01*
%TO.C,RN3*%
X150600000Y-97750000D02*
X152200000Y-97750000D01*
X150600000Y-101750000D02*
X150600000Y-97750000D01*
X152200000Y-97750000D02*
X152200000Y-101750000D01*
X152200000Y-101750000D02*
X150600000Y-101750000D01*
%TO.C,RN7*%
X163800000Y-106800000D02*
X165400000Y-106800000D01*
X163800000Y-110800000D02*
X163800000Y-106800000D01*
X165400000Y-106800000D02*
X165400000Y-110800000D01*
X165400000Y-110800000D02*
X163800000Y-110800000D01*
%TO.C,RN5*%
X163800000Y-102300000D02*
X165400000Y-102300000D01*
X163800000Y-106300000D02*
X163800000Y-102300000D01*
X165400000Y-102300000D02*
X165400000Y-106300000D01*
X165400000Y-106300000D02*
X163800000Y-106300000D01*
%TO.C,RN6*%
X163800000Y-93250000D02*
X165400000Y-93250000D01*
X163800000Y-97250000D02*
X163800000Y-93250000D01*
X165400000Y-93250000D02*
X165400000Y-97250000D01*
X165400000Y-97250000D02*
X163800000Y-97250000D01*
%TO.C,RN4*%
X150600000Y-93250000D02*
X152200000Y-93250000D01*
X150600000Y-97250000D02*
X150600000Y-93250000D01*
X152200000Y-93250000D02*
X152200000Y-97250000D01*
X152200000Y-97250000D02*
X150600000Y-97250000D01*
%TO.C,J3*%
X189380500Y-81365000D02*
X196619500Y-81365000D01*
X189380500Y-118635000D02*
X189380500Y-81365000D01*
X196619500Y-81365000D02*
X196619500Y-118635000D01*
X196619500Y-118635000D02*
X189380500Y-118635000D01*
D13*
X197700000Y-84400000D02*
G75*
G02*
X197500000Y-84400000I-100000J0D01*
G01*
X197500000Y-84400000D02*
G75*
G02*
X197700000Y-84400000I100000J0D01*
G01*
D12*
%TO.C,RN1*%
X150600000Y-106750000D02*
X152200000Y-106750000D01*
X150600000Y-110750000D02*
X150600000Y-106750000D01*
X152200000Y-106750000D02*
X152200000Y-110750000D01*
X152200000Y-110750000D02*
X150600000Y-110750000D01*
%TD*%
M02*
