%TF.GenerationSoftware,KiCad,Pcbnew,9.0.6*%
%TF.CreationDate,2026-03-20T15:54:18-04:00*%
%TF.ProjectId,ephys-test-module-64,65706879-732d-4746-9573-742d6d6f6475,F*%
%TF.SameCoordinates,PX66ff300PY82a7440*%
%TF.FileFunction,Legend,Top*%
%TF.FilePolarity,Positive*%
%FSLAX46Y46*%
G04 Gerber Fmt 4.6, Leading zero omitted, Abs format (unit mm)*
G04 Created by KiCad (PCBNEW 9.0.6) date 2026-03-20 15:54:18*
%MOMM*%
%LPD*%
G01*
G04 APERTURE LIST*
G04 Aperture macros list*
%AMRoundRect*
0 Rectangle with rounded corners*
0 $1 Rounding radius*
0 $2 $3 $4 $5 $6 $7 $8 $9 X,Y pos of 4 corners*
0 Add a 4 corners polygon primitive as box body*
4,1,4,$2,$3,$4,$5,$6,$7,$8,$9,$2,$3,0*
0 Add four circle primitives for the rounded corners*
1,1,$1+$1,$2,$3*
1,1,$1+$1,$4,$5*
1,1,$1+$1,$6,$7*
1,1,$1+$1,$8,$9*
0 Add four rect primitives between the rounded corners*
20,1,$1+$1,$2,$3,$4,$5,0*
20,1,$1+$1,$4,$5,$6,$7,0*
20,1,$1+$1,$6,$7,$8,$9,0*
20,1,$1+$1,$8,$9,$2,$3,0*%
G04 Aperture macros list end*
%ADD10C,0.150000*%
%ADD11C,0.200000*%
%ADD12C,0.120000*%
%ADD13C,0.100000*%
%ADD14C,0.000000*%
%ADD15RoundRect,0.150000X0.150000X-0.825000X0.150000X0.825000X-0.150000X0.825000X-0.150000X-0.825000X0*%
%ADD16RoundRect,0.140000X-0.170000X0.140000X-0.170000X-0.140000X0.170000X-0.140000X0.170000X0.140000X0*%
%ADD17C,3.000000*%
%ADD18R,3.150000X1.000000*%
%ADD19RoundRect,0.135000X-0.135000X-0.185000X0.135000X-0.185000X0.135000X0.185000X-0.135000X0.185000X0*%
%ADD20RoundRect,0.200000X-0.282843X0.000000X0.000000X-0.282843X0.282843X0.000000X0.000000X0.282843X0*%
%ADD21C,0.800000*%
%ADD22RoundRect,0.010000X0.340000X-0.090000X0.340000X0.090000X-0.340000X0.090000X-0.340000X-0.090000X0*%
%ADD23RoundRect,0.275000X-0.388909X0.000000X0.000000X-0.388909X0.388909X0.000000X0.000000X0.388909X0*%
%ADD24C,1.100000*%
%ADD25C,1.020000*%
G04 APERTURE END LIST*
D10*
X55450685Y8300000D02*
X66250685Y8300000D01*
X66250685Y2602486D01*
X55450685Y2602486D01*
X55450685Y8300000D01*
X58002777Y35000000D02*
G75*
G02*
X39997223Y35000000I-9002777J0D01*
G01*
X39997223Y35000000D02*
G75*
G02*
X58002777Y35000000I9002777J0D01*
G01*
X53528990Y36487144D02*
X53528990Y36820477D01*
X53005180Y36820477D02*
X54005180Y36820477D01*
X54005180Y36820477D02*
X54005180Y36344287D01*
X53005180Y35963334D02*
X53671847Y35963334D01*
X53481371Y35963334D02*
X53576609Y35915715D01*
X53576609Y35915715D02*
X53624228Y35868096D01*
X53624228Y35868096D02*
X53671847Y35772858D01*
X53671847Y35772858D02*
X53671847Y35677620D01*
X53005180Y35201429D02*
X53052800Y35296667D01*
X53052800Y35296667D02*
X53100419Y35344286D01*
X53100419Y35344286D02*
X53195657Y35391905D01*
X53195657Y35391905D02*
X53481371Y35391905D01*
X53481371Y35391905D02*
X53576609Y35344286D01*
X53576609Y35344286D02*
X53624228Y35296667D01*
X53624228Y35296667D02*
X53671847Y35201429D01*
X53671847Y35201429D02*
X53671847Y35058572D01*
X53671847Y35058572D02*
X53624228Y34963334D01*
X53624228Y34963334D02*
X53576609Y34915715D01*
X53576609Y34915715D02*
X53481371Y34868096D01*
X53481371Y34868096D02*
X53195657Y34868096D01*
X53195657Y34868096D02*
X53100419Y34915715D01*
X53100419Y34915715D02*
X53052800Y34963334D01*
X53052800Y34963334D02*
X53005180Y35058572D01*
X53005180Y35058572D02*
X53005180Y35201429D01*
X53671847Y34439524D02*
X53005180Y34439524D01*
X53576609Y34439524D02*
X53624228Y34391905D01*
X53624228Y34391905D02*
X53671847Y34296667D01*
X53671847Y34296667D02*
X53671847Y34153810D01*
X53671847Y34153810D02*
X53624228Y34058572D01*
X53624228Y34058572D02*
X53528990Y34010953D01*
X53528990Y34010953D02*
X53005180Y34010953D01*
X53671847Y33677619D02*
X53671847Y33296667D01*
X54005180Y33534762D02*
X53148038Y33534762D01*
X53148038Y33534762D02*
X53052800Y33487143D01*
X53052800Y33487143D02*
X53005180Y33391905D01*
X53005180Y33391905D02*
X53005180Y33296667D01*
D11*
X90859524Y18267091D02*
X90735714Y18328996D01*
X90735714Y18328996D02*
X90550000Y18328996D01*
X90550000Y18328996D02*
X90364286Y18267091D01*
X90364286Y18267091D02*
X90240476Y18143281D01*
X90240476Y18143281D02*
X90178571Y18019472D01*
X90178571Y18019472D02*
X90116667Y17771853D01*
X90116667Y17771853D02*
X90116667Y17586139D01*
X90116667Y17586139D02*
X90178571Y17338520D01*
X90178571Y17338520D02*
X90240476Y17214710D01*
X90240476Y17214710D02*
X90364286Y17090900D01*
X90364286Y17090900D02*
X90550000Y17028996D01*
X90550000Y17028996D02*
X90673809Y17028996D01*
X90673809Y17028996D02*
X90859524Y17090900D01*
X90859524Y17090900D02*
X90921428Y17152805D01*
X90921428Y17152805D02*
X90921428Y17586139D01*
X90921428Y17586139D02*
X90673809Y17586139D01*
X91478571Y17028996D02*
X91478571Y18328996D01*
X91478571Y18328996D02*
X92221428Y17028996D01*
X92221428Y17028996D02*
X92221428Y18328996D01*
X92840476Y17028996D02*
X92840476Y18328996D01*
X92840476Y18328996D02*
X93150000Y18328996D01*
X93150000Y18328996D02*
X93335714Y18267091D01*
X93335714Y18267091D02*
X93459524Y18143281D01*
X93459524Y18143281D02*
X93521429Y18019472D01*
X93521429Y18019472D02*
X93583333Y17771853D01*
X93583333Y17771853D02*
X93583333Y17586139D01*
X93583333Y17586139D02*
X93521429Y17338520D01*
X93521429Y17338520D02*
X93459524Y17214710D01*
X93459524Y17214710D02*
X93335714Y17090900D01*
X93335714Y17090900D02*
X93150000Y17028996D01*
X93150000Y17028996D02*
X92840476Y17028996D01*
X90859524Y28387091D02*
X90735714Y28448996D01*
X90735714Y28448996D02*
X90550000Y28448996D01*
X90550000Y28448996D02*
X90364286Y28387091D01*
X90364286Y28387091D02*
X90240476Y28263281D01*
X90240476Y28263281D02*
X90178571Y28139472D01*
X90178571Y28139472D02*
X90116667Y27891853D01*
X90116667Y27891853D02*
X90116667Y27706139D01*
X90116667Y27706139D02*
X90178571Y27458520D01*
X90178571Y27458520D02*
X90240476Y27334710D01*
X90240476Y27334710D02*
X90364286Y27210900D01*
X90364286Y27210900D02*
X90550000Y27148996D01*
X90550000Y27148996D02*
X90673809Y27148996D01*
X90673809Y27148996D02*
X90859524Y27210900D01*
X90859524Y27210900D02*
X90921428Y27272805D01*
X90921428Y27272805D02*
X90921428Y27706139D01*
X90921428Y27706139D02*
X90673809Y27706139D01*
X91478571Y27148996D02*
X91478571Y28448996D01*
X91478571Y28448996D02*
X92221428Y27148996D01*
X92221428Y27148996D02*
X92221428Y28448996D01*
X92840476Y27148996D02*
X92840476Y28448996D01*
X92840476Y28448996D02*
X93150000Y28448996D01*
X93150000Y28448996D02*
X93335714Y28387091D01*
X93335714Y28387091D02*
X93459524Y28263281D01*
X93459524Y28263281D02*
X93521429Y28139472D01*
X93521429Y28139472D02*
X93583333Y27891853D01*
X93583333Y27891853D02*
X93583333Y27706139D01*
X93583333Y27706139D02*
X93521429Y27458520D01*
X93521429Y27458520D02*
X93459524Y27334710D01*
X93459524Y27334710D02*
X93335714Y27210900D01*
X93335714Y27210900D02*
X93150000Y27148996D01*
X93150000Y27148996D02*
X92840476Y27148996D01*
D10*
X46953990Y36239286D02*
X46906371Y36096429D01*
X46906371Y36096429D02*
X46858752Y36048810D01*
X46858752Y36048810D02*
X46763514Y36001191D01*
X46763514Y36001191D02*
X46620657Y36001191D01*
X46620657Y36001191D02*
X46525419Y36048810D01*
X46525419Y36048810D02*
X46477800Y36096429D01*
X46477800Y36096429D02*
X46430180Y36191667D01*
X46430180Y36191667D02*
X46430180Y36572619D01*
X46430180Y36572619D02*
X47430180Y36572619D01*
X47430180Y36572619D02*
X47430180Y36239286D01*
X47430180Y36239286D02*
X47382561Y36144048D01*
X47382561Y36144048D02*
X47334942Y36096429D01*
X47334942Y36096429D02*
X47239704Y36048810D01*
X47239704Y36048810D02*
X47144466Y36048810D01*
X47144466Y36048810D02*
X47049228Y36096429D01*
X47049228Y36096429D02*
X47001609Y36144048D01*
X47001609Y36144048D02*
X46953990Y36239286D01*
X46953990Y36239286D02*
X46953990Y36572619D01*
X46430180Y35144048D02*
X46953990Y35144048D01*
X46953990Y35144048D02*
X47049228Y35191667D01*
X47049228Y35191667D02*
X47096847Y35286905D01*
X47096847Y35286905D02*
X47096847Y35477381D01*
X47096847Y35477381D02*
X47049228Y35572619D01*
X46477800Y35144048D02*
X46430180Y35239286D01*
X46430180Y35239286D02*
X46430180Y35477381D01*
X46430180Y35477381D02*
X46477800Y35572619D01*
X46477800Y35572619D02*
X46573038Y35620238D01*
X46573038Y35620238D02*
X46668276Y35620238D01*
X46668276Y35620238D02*
X46763514Y35572619D01*
X46763514Y35572619D02*
X46811133Y35477381D01*
X46811133Y35477381D02*
X46811133Y35239286D01*
X46811133Y35239286D02*
X46858752Y35144048D01*
X46477800Y34239286D02*
X46430180Y34334524D01*
X46430180Y34334524D02*
X46430180Y34525000D01*
X46430180Y34525000D02*
X46477800Y34620238D01*
X46477800Y34620238D02*
X46525419Y34667857D01*
X46525419Y34667857D02*
X46620657Y34715476D01*
X46620657Y34715476D02*
X46906371Y34715476D01*
X46906371Y34715476D02*
X47001609Y34667857D01*
X47001609Y34667857D02*
X47049228Y34620238D01*
X47049228Y34620238D02*
X47096847Y34525000D01*
X47096847Y34525000D02*
X47096847Y34334524D01*
X47096847Y34334524D02*
X47049228Y34239286D01*
X46430180Y33810714D02*
X47430180Y33810714D01*
X46811133Y33715476D02*
X46430180Y33429762D01*
X47096847Y33429762D02*
X46715895Y33810714D01*
D11*
X78074000Y19568996D02*
X78074000Y20868996D01*
X78816857Y19568996D02*
X78259715Y20311853D01*
X78816857Y20868996D02*
X78074000Y20126139D01*
X79856857Y19425377D02*
X79262572Y19425377D01*
X79559715Y19425377D02*
X79559715Y20465377D01*
X79559715Y20465377D02*
X79460667Y20316805D01*
X79460667Y20316805D02*
X79361619Y20217758D01*
X79361619Y20217758D02*
X79262572Y20168234D01*
X77357142Y27048996D02*
X76923809Y27668043D01*
X76614285Y27048996D02*
X76614285Y28348996D01*
X76614285Y28348996D02*
X77109523Y28348996D01*
X77109523Y28348996D02*
X77233333Y28287091D01*
X77233333Y28287091D02*
X77295238Y28225186D01*
X77295238Y28225186D02*
X77357142Y28101377D01*
X77357142Y28101377D02*
X77357142Y27915662D01*
X77357142Y27915662D02*
X77295238Y27791853D01*
X77295238Y27791853D02*
X77233333Y27729948D01*
X77233333Y27729948D02*
X77109523Y27668043D01*
X77109523Y27668043D02*
X76614285Y27668043D01*
X77914285Y27729948D02*
X78347619Y27729948D01*
X78533333Y27048996D02*
X77914285Y27048996D01*
X77914285Y27048996D02*
X77914285Y28348996D01*
X77914285Y28348996D02*
X78533333Y28348996D01*
X79523809Y27729948D02*
X79090475Y27729948D01*
X79090475Y27048996D02*
X79090475Y28348996D01*
X79090475Y28348996D02*
X79709523Y28348996D01*
D10*
X85314286Y10645181D02*
X85314286Y11645181D01*
X85314286Y11645181D02*
X85885714Y10645181D01*
X85885714Y10645181D02*
X85885714Y11645181D01*
X86933333Y10740420D02*
X86885714Y10692800D01*
X86885714Y10692800D02*
X86742857Y10645181D01*
X86742857Y10645181D02*
X86647619Y10645181D01*
X86647619Y10645181D02*
X86504762Y10692800D01*
X86504762Y10692800D02*
X86409524Y10788039D01*
X86409524Y10788039D02*
X86361905Y10883277D01*
X86361905Y10883277D02*
X86314286Y11073753D01*
X86314286Y11073753D02*
X86314286Y11216610D01*
X86314286Y11216610D02*
X86361905Y11407086D01*
X86361905Y11407086D02*
X86409524Y11502324D01*
X86409524Y11502324D02*
X86504762Y11597562D01*
X86504762Y11597562D02*
X86647619Y11645181D01*
X86647619Y11645181D02*
X86742857Y11645181D01*
X86742857Y11645181D02*
X86885714Y11597562D01*
X86885714Y11597562D02*
X86933333Y11549943D01*
X92161905Y13730896D02*
X92638095Y13730896D01*
X92066667Y13445181D02*
X92400000Y14445181D01*
X92400000Y14445181D02*
X92733333Y13445181D01*
D11*
X78074000Y22068996D02*
X78074000Y23368996D01*
X78816857Y22068996D02*
X78259715Y22811853D01*
X78816857Y23368996D02*
X78074000Y22626139D01*
X79510191Y22965377D02*
X79609238Y22965377D01*
X79609238Y22965377D02*
X79708286Y22915853D01*
X79708286Y22915853D02*
X79757810Y22866329D01*
X79757810Y22866329D02*
X79807334Y22767281D01*
X79807334Y22767281D02*
X79856857Y22569186D01*
X79856857Y22569186D02*
X79856857Y22321567D01*
X79856857Y22321567D02*
X79807334Y22123472D01*
X79807334Y22123472D02*
X79757810Y22024424D01*
X79757810Y22024424D02*
X79708286Y21974900D01*
X79708286Y21974900D02*
X79609238Y21925377D01*
X79609238Y21925377D02*
X79510191Y21925377D01*
X79510191Y21925377D02*
X79411143Y21974900D01*
X79411143Y21974900D02*
X79361619Y22024424D01*
X79361619Y22024424D02*
X79312096Y22123472D01*
X79312096Y22123472D02*
X79262572Y22321567D01*
X79262572Y22321567D02*
X79262572Y22569186D01*
X79262572Y22569186D02*
X79312096Y22767281D01*
X79312096Y22767281D02*
X79361619Y22866329D01*
X79361619Y22866329D02*
X79411143Y22915853D01*
X79411143Y22915853D02*
X79510191Y22965377D01*
X90859524Y20907091D02*
X90735714Y20968996D01*
X90735714Y20968996D02*
X90550000Y20968996D01*
X90550000Y20968996D02*
X90364286Y20907091D01*
X90364286Y20907091D02*
X90240476Y20783281D01*
X90240476Y20783281D02*
X90178571Y20659472D01*
X90178571Y20659472D02*
X90116667Y20411853D01*
X90116667Y20411853D02*
X90116667Y20226139D01*
X90116667Y20226139D02*
X90178571Y19978520D01*
X90178571Y19978520D02*
X90240476Y19854710D01*
X90240476Y19854710D02*
X90364286Y19730900D01*
X90364286Y19730900D02*
X90550000Y19668996D01*
X90550000Y19668996D02*
X90673809Y19668996D01*
X90673809Y19668996D02*
X90859524Y19730900D01*
X90859524Y19730900D02*
X90921428Y19792805D01*
X90921428Y19792805D02*
X90921428Y20226139D01*
X90921428Y20226139D02*
X90673809Y20226139D01*
X91478571Y19668996D02*
X91478571Y20968996D01*
X91478571Y20968996D02*
X92221428Y19668996D01*
X92221428Y19668996D02*
X92221428Y20968996D01*
X92840476Y19668996D02*
X92840476Y20968996D01*
X92840476Y20968996D02*
X93150000Y20968996D01*
X93150000Y20968996D02*
X93335714Y20907091D01*
X93335714Y20907091D02*
X93459524Y20783281D01*
X93459524Y20783281D02*
X93521429Y20659472D01*
X93521429Y20659472D02*
X93583333Y20411853D01*
X93583333Y20411853D02*
X93583333Y20226139D01*
X93583333Y20226139D02*
X93521429Y19978520D01*
X93521429Y19978520D02*
X93459524Y19854710D01*
X93459524Y19854710D02*
X93335714Y19730900D01*
X93335714Y19730900D02*
X93150000Y19668996D01*
X93150000Y19668996D02*
X92840476Y19668996D01*
X79214286Y17400424D02*
X79833333Y17400424D01*
X79090476Y17028996D02*
X79523809Y18328996D01*
X79523809Y18328996D02*
X79957143Y17028996D01*
X90859524Y23407091D02*
X90735714Y23468996D01*
X90735714Y23468996D02*
X90550000Y23468996D01*
X90550000Y23468996D02*
X90364286Y23407091D01*
X90364286Y23407091D02*
X90240476Y23283281D01*
X90240476Y23283281D02*
X90178571Y23159472D01*
X90178571Y23159472D02*
X90116667Y22911853D01*
X90116667Y22911853D02*
X90116667Y22726139D01*
X90116667Y22726139D02*
X90178571Y22478520D01*
X90178571Y22478520D02*
X90240476Y22354710D01*
X90240476Y22354710D02*
X90364286Y22230900D01*
X90364286Y22230900D02*
X90550000Y22168996D01*
X90550000Y22168996D02*
X90673809Y22168996D01*
X90673809Y22168996D02*
X90859524Y22230900D01*
X90859524Y22230900D02*
X90921428Y22292805D01*
X90921428Y22292805D02*
X90921428Y22726139D01*
X90921428Y22726139D02*
X90673809Y22726139D01*
X91478571Y22168996D02*
X91478571Y23468996D01*
X91478571Y23468996D02*
X92221428Y22168996D01*
X92221428Y22168996D02*
X92221428Y23468996D01*
X92840476Y22168996D02*
X92840476Y23468996D01*
X92840476Y23468996D02*
X93150000Y23468996D01*
X93150000Y23468996D02*
X93335714Y23407091D01*
X93335714Y23407091D02*
X93459524Y23283281D01*
X93459524Y23283281D02*
X93521429Y23159472D01*
X93521429Y23159472D02*
X93583333Y22911853D01*
X93583333Y22911853D02*
X93583333Y22726139D01*
X93583333Y22726139D02*
X93521429Y22478520D01*
X93521429Y22478520D02*
X93459524Y22354710D01*
X93459524Y22354710D02*
X93335714Y22230900D01*
X93335714Y22230900D02*
X93150000Y22168996D01*
X93150000Y22168996D02*
X92840476Y22168996D01*
D10*
X76014286Y10645181D02*
X76014286Y11645181D01*
X76014286Y11645181D02*
X76585714Y10645181D01*
X76585714Y10645181D02*
X76585714Y11645181D01*
X77633333Y10740420D02*
X77585714Y10692800D01*
X77585714Y10692800D02*
X77442857Y10645181D01*
X77442857Y10645181D02*
X77347619Y10645181D01*
X77347619Y10645181D02*
X77204762Y10692800D01*
X77204762Y10692800D02*
X77109524Y10788039D01*
X77109524Y10788039D02*
X77061905Y10883277D01*
X77061905Y10883277D02*
X77014286Y11073753D01*
X77014286Y11073753D02*
X77014286Y11216610D01*
X77014286Y11216610D02*
X77061905Y11407086D01*
X77061905Y11407086D02*
X77109524Y11502324D01*
X77109524Y11502324D02*
X77204762Y11597562D01*
X77204762Y11597562D02*
X77347619Y11645181D01*
X77347619Y11645181D02*
X77442857Y11645181D01*
X77442857Y11645181D02*
X77585714Y11597562D01*
X77585714Y11597562D02*
X77633333Y11549943D01*
X92257143Y8045181D02*
X92257143Y9045181D01*
X92828571Y8045181D02*
X92400000Y8616610D01*
X92828571Y9045181D02*
X92257143Y8473753D01*
X93628571Y7934705D02*
X93171428Y7934705D01*
X93400000Y7934705D02*
X93400000Y8734705D01*
X93400000Y8734705D02*
X93323809Y8620420D01*
X93323809Y8620420D02*
X93247619Y8544229D01*
X93247619Y8544229D02*
X93171428Y8506134D01*
X82061905Y12830896D02*
X82538095Y12830896D01*
X81966667Y12545181D02*
X82300000Y13545181D01*
X82300000Y13545181D02*
X82633333Y12545181D01*
D11*
X77109524Y25787091D02*
X76985714Y25848996D01*
X76985714Y25848996D02*
X76800000Y25848996D01*
X76800000Y25848996D02*
X76614286Y25787091D01*
X76614286Y25787091D02*
X76490476Y25663281D01*
X76490476Y25663281D02*
X76428571Y25539472D01*
X76428571Y25539472D02*
X76366667Y25291853D01*
X76366667Y25291853D02*
X76366667Y25106139D01*
X76366667Y25106139D02*
X76428571Y24858520D01*
X76428571Y24858520D02*
X76490476Y24734710D01*
X76490476Y24734710D02*
X76614286Y24610900D01*
X76614286Y24610900D02*
X76800000Y24548996D01*
X76800000Y24548996D02*
X76923809Y24548996D01*
X76923809Y24548996D02*
X77109524Y24610900D01*
X77109524Y24610900D02*
X77171428Y24672805D01*
X77171428Y24672805D02*
X77171428Y25106139D01*
X77171428Y25106139D02*
X76923809Y25106139D01*
X77728571Y24548996D02*
X77728571Y25848996D01*
X77728571Y25848996D02*
X78471428Y24548996D01*
X78471428Y24548996D02*
X78471428Y25848996D01*
X79090476Y24548996D02*
X79090476Y25848996D01*
X79090476Y25848996D02*
X79400000Y25848996D01*
X79400000Y25848996D02*
X79585714Y25787091D01*
X79585714Y25787091D02*
X79709524Y25663281D01*
X79709524Y25663281D02*
X79771429Y25539472D01*
X79771429Y25539472D02*
X79833333Y25291853D01*
X79833333Y25291853D02*
X79833333Y25106139D01*
X79833333Y25106139D02*
X79771429Y24858520D01*
X79771429Y24858520D02*
X79709524Y24734710D01*
X79709524Y24734710D02*
X79585714Y24610900D01*
X79585714Y24610900D02*
X79400000Y24548996D01*
X79400000Y24548996D02*
X79090476Y24548996D01*
X89129524Y5407591D02*
X89005714Y5469496D01*
X89005714Y5469496D02*
X88820000Y5469496D01*
X88820000Y5469496D02*
X88634286Y5407591D01*
X88634286Y5407591D02*
X88510476Y5283781D01*
X88510476Y5283781D02*
X88448571Y5159972D01*
X88448571Y5159972D02*
X88386667Y4912353D01*
X88386667Y4912353D02*
X88386667Y4726639D01*
X88386667Y4726639D02*
X88448571Y4479020D01*
X88448571Y4479020D02*
X88510476Y4355210D01*
X88510476Y4355210D02*
X88634286Y4231400D01*
X88634286Y4231400D02*
X88820000Y4169496D01*
X88820000Y4169496D02*
X88943809Y4169496D01*
X88943809Y4169496D02*
X89129524Y4231400D01*
X89129524Y4231400D02*
X89191428Y4293305D01*
X89191428Y4293305D02*
X89191428Y4726639D01*
X89191428Y4726639D02*
X88943809Y4726639D01*
X89748571Y4169496D02*
X89748571Y5469496D01*
X89748571Y5469496D02*
X90491428Y4169496D01*
X90491428Y4169496D02*
X90491428Y5469496D01*
X91110476Y4169496D02*
X91110476Y5469496D01*
X91110476Y5469496D02*
X91420000Y5469496D01*
X91420000Y5469496D02*
X91605714Y5407591D01*
X91605714Y5407591D02*
X91729524Y5283781D01*
X91729524Y5283781D02*
X91791429Y5159972D01*
X91791429Y5159972D02*
X91853333Y4912353D01*
X91853333Y4912353D02*
X91853333Y4726639D01*
X91853333Y4726639D02*
X91791429Y4479020D01*
X91791429Y4479020D02*
X91729524Y4355210D01*
X91729524Y4355210D02*
X91605714Y4231400D01*
X91605714Y4231400D02*
X91420000Y4169496D01*
X91420000Y4169496D02*
X91110476Y4169496D01*
X90859524Y25887091D02*
X90735714Y25948996D01*
X90735714Y25948996D02*
X90550000Y25948996D01*
X90550000Y25948996D02*
X90364286Y25887091D01*
X90364286Y25887091D02*
X90240476Y25763281D01*
X90240476Y25763281D02*
X90178571Y25639472D01*
X90178571Y25639472D02*
X90116667Y25391853D01*
X90116667Y25391853D02*
X90116667Y25206139D01*
X90116667Y25206139D02*
X90178571Y24958520D01*
X90178571Y24958520D02*
X90240476Y24834710D01*
X90240476Y24834710D02*
X90364286Y24710900D01*
X90364286Y24710900D02*
X90550000Y24648996D01*
X90550000Y24648996D02*
X90673809Y24648996D01*
X90673809Y24648996D02*
X90859524Y24710900D01*
X90859524Y24710900D02*
X90921428Y24772805D01*
X90921428Y24772805D02*
X90921428Y25206139D01*
X90921428Y25206139D02*
X90673809Y25206139D01*
X91478571Y24648996D02*
X91478571Y25948996D01*
X91478571Y25948996D02*
X92221428Y24648996D01*
X92221428Y24648996D02*
X92221428Y25948996D01*
X92840476Y24648996D02*
X92840476Y25948996D01*
X92840476Y25948996D02*
X93150000Y25948996D01*
X93150000Y25948996D02*
X93335714Y25887091D01*
X93335714Y25887091D02*
X93459524Y25763281D01*
X93459524Y25763281D02*
X93521429Y25639472D01*
X93521429Y25639472D02*
X93583333Y25391853D01*
X93583333Y25391853D02*
X93583333Y25206139D01*
X93583333Y25206139D02*
X93521429Y24958520D01*
X93521429Y24958520D02*
X93459524Y24834710D01*
X93459524Y24834710D02*
X93335714Y24710900D01*
X93335714Y24710900D02*
X93150000Y24648996D01*
X93150000Y24648996D02*
X92840476Y24648996D01*
X77793333Y7562423D02*
X78226666Y6262423D01*
X78226666Y6262423D02*
X78660000Y7562423D01*
X78981905Y6168327D02*
X79130476Y6118804D01*
X79130476Y6118804D02*
X79378095Y6118804D01*
X79378095Y6118804D02*
X79477143Y6168327D01*
X79477143Y6168327D02*
X79526667Y6217851D01*
X79526667Y6217851D02*
X79576190Y6316899D01*
X79576190Y6316899D02*
X79576190Y6415947D01*
X79576190Y6415947D02*
X79526667Y6514994D01*
X79526667Y6514994D02*
X79477143Y6564518D01*
X79477143Y6564518D02*
X79378095Y6614042D01*
X79378095Y6614042D02*
X79180000Y6663566D01*
X79180000Y6663566D02*
X79080952Y6713089D01*
X79080952Y6713089D02*
X79031429Y6762613D01*
X79031429Y6762613D02*
X78981905Y6861661D01*
X78981905Y6861661D02*
X78981905Y6960708D01*
X78981905Y6960708D02*
X79031429Y7059756D01*
X79031429Y7059756D02*
X79080952Y7109280D01*
X79080952Y7109280D02*
X79180000Y7158804D01*
X79180000Y7158804D02*
X79427619Y7158804D01*
X79427619Y7158804D02*
X79576190Y7109280D01*
X79873333Y6812137D02*
X80269524Y6812137D01*
X80021905Y7158804D02*
X80021905Y6267375D01*
X80021905Y6267375D02*
X80071428Y6168327D01*
X80071428Y6168327D02*
X80170476Y6118804D01*
X80170476Y6118804D02*
X80269524Y6118804D01*
X80616191Y6118804D02*
X80616191Y6812137D01*
X80616191Y7158804D02*
X80566667Y7109280D01*
X80566667Y7109280D02*
X80616191Y7059756D01*
X80616191Y7059756D02*
X80665714Y7109280D01*
X80665714Y7109280D02*
X80616191Y7158804D01*
X80616191Y7158804D02*
X80616191Y7059756D01*
X81111429Y6118804D02*
X81111429Y6812137D01*
X81111429Y6713089D02*
X81160952Y6762613D01*
X81160952Y6762613D02*
X81260000Y6812137D01*
X81260000Y6812137D02*
X81408571Y6812137D01*
X81408571Y6812137D02*
X81507619Y6762613D01*
X81507619Y6762613D02*
X81557143Y6663566D01*
X81557143Y6663566D02*
X81557143Y6118804D01*
X81557143Y6663566D02*
X81606667Y6762613D01*
X81606667Y6762613D02*
X81705714Y6812137D01*
X81705714Y6812137D02*
X81854286Y6812137D01*
X81854286Y6812137D02*
X81953333Y6762613D01*
X81953333Y6762613D02*
X82002857Y6663566D01*
X82002857Y6663566D02*
X82002857Y6118804D01*
X75038571Y3674258D02*
X74976666Y3736162D01*
X74976666Y3736162D02*
X74852857Y3921877D01*
X74852857Y3921877D02*
X74790952Y4045686D01*
X74790952Y4045686D02*
X74729047Y4231400D01*
X74729047Y4231400D02*
X74667142Y4540924D01*
X74667142Y4540924D02*
X74667142Y4788543D01*
X74667142Y4788543D02*
X74729047Y5098067D01*
X74729047Y5098067D02*
X74790952Y5283781D01*
X74790952Y5283781D02*
X74852857Y5407591D01*
X74852857Y5407591D02*
X74976666Y5593305D01*
X74976666Y5593305D02*
X75038571Y5655210D01*
X75533809Y4169496D02*
X75533809Y5469496D01*
X76041429Y4075400D02*
X76190000Y4025877D01*
X76190000Y4025877D02*
X76437619Y4025877D01*
X76437619Y4025877D02*
X76536667Y4075400D01*
X76536667Y4075400D02*
X76586191Y4124924D01*
X76586191Y4124924D02*
X76635714Y4223972D01*
X76635714Y4223972D02*
X76635714Y4323020D01*
X76635714Y4323020D02*
X76586191Y4422067D01*
X76586191Y4422067D02*
X76536667Y4471591D01*
X76536667Y4471591D02*
X76437619Y4521115D01*
X76437619Y4521115D02*
X76239524Y4570639D01*
X76239524Y4570639D02*
X76140476Y4620162D01*
X76140476Y4620162D02*
X76090953Y4669686D01*
X76090953Y4669686D02*
X76041429Y4768734D01*
X76041429Y4768734D02*
X76041429Y4867781D01*
X76041429Y4867781D02*
X76090953Y4966829D01*
X76090953Y4966829D02*
X76140476Y5016353D01*
X76140476Y5016353D02*
X76239524Y5065877D01*
X76239524Y5065877D02*
X76487143Y5065877D01*
X76487143Y5065877D02*
X76635714Y5016353D01*
X76932857Y4719210D02*
X77329048Y4719210D01*
X77081429Y5065877D02*
X77081429Y4174448D01*
X77081429Y4174448D02*
X77130952Y4075400D01*
X77130952Y4075400D02*
X77230000Y4025877D01*
X77230000Y4025877D02*
X77329048Y4025877D01*
X77675715Y4025877D02*
X77675715Y4719210D01*
X77675715Y5065877D02*
X77626191Y5016353D01*
X77626191Y5016353D02*
X77675715Y4966829D01*
X77675715Y4966829D02*
X77725238Y5016353D01*
X77725238Y5016353D02*
X77675715Y5065877D01*
X77675715Y5065877D02*
X77675715Y4966829D01*
X78170953Y4025877D02*
X78170953Y4719210D01*
X78170953Y4620162D02*
X78220476Y4669686D01*
X78220476Y4669686D02*
X78319524Y4719210D01*
X78319524Y4719210D02*
X78468095Y4719210D01*
X78468095Y4719210D02*
X78567143Y4669686D01*
X78567143Y4669686D02*
X78616667Y4570639D01*
X78616667Y4570639D02*
X78616667Y4025877D01*
X78616667Y4570639D02*
X78666191Y4669686D01*
X78666191Y4669686D02*
X78765238Y4719210D01*
X78765238Y4719210D02*
X78913810Y4719210D01*
X78913810Y4719210D02*
X79012857Y4669686D01*
X79012857Y4669686D02*
X79062381Y4570639D01*
X79062381Y4570639D02*
X79062381Y4025877D01*
X79743334Y5036162D02*
X80486191Y4293305D01*
X80486191Y5036162D02*
X79743334Y4293305D01*
X81910001Y4169496D02*
X81167144Y4169496D01*
X81538572Y4169496D02*
X81538572Y5469496D01*
X81538572Y5469496D02*
X81414763Y5283781D01*
X81414763Y5283781D02*
X81290953Y5159972D01*
X81290953Y5159972D02*
X81167144Y5098067D01*
X82467143Y4169496D02*
X82467143Y5469496D01*
X82590953Y4664734D02*
X82962381Y4169496D01*
X82962381Y5036162D02*
X82467143Y4540924D01*
X83457620Y4169496D02*
X83767143Y4169496D01*
X83767143Y4169496D02*
X83767143Y4417115D01*
X83767143Y4417115D02*
X83643334Y4479020D01*
X83643334Y4479020D02*
X83519524Y4602829D01*
X83519524Y4602829D02*
X83457620Y4788543D01*
X83457620Y4788543D02*
X83457620Y5098067D01*
X83457620Y5098067D02*
X83519524Y5283781D01*
X83519524Y5283781D02*
X83643334Y5407591D01*
X83643334Y5407591D02*
X83829048Y5469496D01*
X83829048Y5469496D02*
X84076667Y5469496D01*
X84076667Y5469496D02*
X84262381Y5407591D01*
X84262381Y5407591D02*
X84386191Y5283781D01*
X84386191Y5283781D02*
X84448096Y5098067D01*
X84448096Y5098067D02*
X84448096Y4788543D01*
X84448096Y4788543D02*
X84386191Y4602829D01*
X84386191Y4602829D02*
X84262381Y4479020D01*
X84262381Y4479020D02*
X84138572Y4417115D01*
X84138572Y4417115D02*
X84138572Y4169496D01*
X84138572Y4169496D02*
X84448096Y4169496D01*
X84881429Y3674258D02*
X84943334Y3736162D01*
X84943334Y3736162D02*
X85067143Y3921877D01*
X85067143Y3921877D02*
X85129048Y4045686D01*
X85129048Y4045686D02*
X85190953Y4231400D01*
X85190953Y4231400D02*
X85252857Y4540924D01*
X85252857Y4540924D02*
X85252857Y4788543D01*
X85252857Y4788543D02*
X85190953Y5098067D01*
X85190953Y5098067D02*
X85129048Y5283781D01*
X85129048Y5283781D02*
X85067143Y5407591D01*
X85067143Y5407591D02*
X84943334Y5593305D01*
X84943334Y5593305D02*
X84881429Y5655210D01*
D10*
X81857143Y8545181D02*
X81857143Y9545181D01*
X82428571Y8545181D02*
X82000000Y9116610D01*
X82428571Y9545181D02*
X81857143Y8973753D01*
X82961905Y9234705D02*
X83038095Y9234705D01*
X83038095Y9234705D02*
X83114286Y9196610D01*
X83114286Y9196610D02*
X83152381Y9158515D01*
X83152381Y9158515D02*
X83190476Y9082324D01*
X83190476Y9082324D02*
X83228571Y8929943D01*
X83228571Y8929943D02*
X83228571Y8739467D01*
X83228571Y8739467D02*
X83190476Y8587086D01*
X83190476Y8587086D02*
X83152381Y8510896D01*
X83152381Y8510896D02*
X83114286Y8472800D01*
X83114286Y8472800D02*
X83038095Y8434705D01*
X83038095Y8434705D02*
X82961905Y8434705D01*
X82961905Y8434705D02*
X82885714Y8472800D01*
X82885714Y8472800D02*
X82847619Y8510896D01*
X82847619Y8510896D02*
X82809524Y8587086D01*
X82809524Y8587086D02*
X82771428Y8739467D01*
X82771428Y8739467D02*
X82771428Y8929943D01*
X82771428Y8929943D02*
X82809524Y9082324D01*
X82809524Y9082324D02*
X82847619Y9158515D01*
X82847619Y9158515D02*
X82885714Y9196610D01*
X82885714Y9196610D02*
X82961905Y9234705D01*
X18054819Y10538096D02*
X18864342Y10538096D01*
X18864342Y10538096D02*
X18959580Y10585715D01*
X18959580Y10585715D02*
X19007200Y10633334D01*
X19007200Y10633334D02*
X19054819Y10728572D01*
X19054819Y10728572D02*
X19054819Y10919048D01*
X19054819Y10919048D02*
X19007200Y11014286D01*
X19007200Y11014286D02*
X18959580Y11061905D01*
X18959580Y11061905D02*
X18864342Y11109524D01*
X18864342Y11109524D02*
X18054819Y11109524D01*
X19054819Y12109524D02*
X19054819Y11538096D01*
X19054819Y11823810D02*
X18054819Y11823810D01*
X18054819Y11823810D02*
X18197676Y11728572D01*
X18197676Y11728572D02*
X18292914Y11633334D01*
X18292914Y11633334D02*
X18340533Y11538096D01*
X10659580Y11133334D02*
X10707200Y11085715D01*
X10707200Y11085715D02*
X10754819Y10942858D01*
X10754819Y10942858D02*
X10754819Y10847620D01*
X10754819Y10847620D02*
X10707200Y10704763D01*
X10707200Y10704763D02*
X10611961Y10609525D01*
X10611961Y10609525D02*
X10516723Y10561906D01*
X10516723Y10561906D02*
X10326247Y10514287D01*
X10326247Y10514287D02*
X10183390Y10514287D01*
X10183390Y10514287D02*
X9992914Y10561906D01*
X9992914Y10561906D02*
X9897676Y10609525D01*
X9897676Y10609525D02*
X9802438Y10704763D01*
X9802438Y10704763D02*
X9754819Y10847620D01*
X9754819Y10847620D02*
X9754819Y10942858D01*
X9754819Y10942858D02*
X9802438Y11085715D01*
X9802438Y11085715D02*
X9850057Y11133334D01*
X10754819Y12085715D02*
X10754819Y11514287D01*
X10754819Y11800001D02*
X9754819Y11800001D01*
X9754819Y11800001D02*
X9897676Y11704763D01*
X9897676Y11704763D02*
X9992914Y11609525D01*
X9992914Y11609525D02*
X10040533Y11514287D01*
X84666666Y30739760D02*
X84666666Y30025475D01*
X84666666Y30025475D02*
X84619047Y29882618D01*
X84619047Y29882618D02*
X84523809Y29787379D01*
X84523809Y29787379D02*
X84380952Y29739760D01*
X84380952Y29739760D02*
X84285714Y29739760D01*
X85571428Y30406427D02*
X85571428Y29739760D01*
X85333333Y30787379D02*
X85095238Y30073094D01*
X85095238Y30073094D02*
X85714285Y30073094D01*
X12733333Y16645181D02*
X12400000Y17121372D01*
X12161905Y16645181D02*
X12161905Y17645181D01*
X12161905Y17645181D02*
X12542857Y17645181D01*
X12542857Y17645181D02*
X12638095Y17597562D01*
X12638095Y17597562D02*
X12685714Y17549943D01*
X12685714Y17549943D02*
X12733333Y17454705D01*
X12733333Y17454705D02*
X12733333Y17311848D01*
X12733333Y17311848D02*
X12685714Y17216610D01*
X12685714Y17216610D02*
X12638095Y17168991D01*
X12638095Y17168991D02*
X12542857Y17121372D01*
X12542857Y17121372D02*
X12161905Y17121372D01*
X13066667Y17645181D02*
X13685714Y17645181D01*
X13685714Y17645181D02*
X13352381Y17264229D01*
X13352381Y17264229D02*
X13495238Y17264229D01*
X13495238Y17264229D02*
X13590476Y17216610D01*
X13590476Y17216610D02*
X13638095Y17168991D01*
X13638095Y17168991D02*
X13685714Y17073753D01*
X13685714Y17073753D02*
X13685714Y16835658D01*
X13685714Y16835658D02*
X13638095Y16740420D01*
X13638095Y16740420D02*
X13590476Y16692800D01*
X13590476Y16692800D02*
X13495238Y16645181D01*
X13495238Y16645181D02*
X13209524Y16645181D01*
X13209524Y16645181D02*
X13114286Y16692800D01*
X13114286Y16692800D02*
X13066667Y16740420D01*
X79333333Y14045181D02*
X78857143Y14045181D01*
X78857143Y14045181D02*
X78857143Y15045181D01*
X79666667Y14045181D02*
X79666667Y15045181D01*
X79666667Y15045181D02*
X79904762Y15045181D01*
X79904762Y15045181D02*
X80047619Y14997562D01*
X80047619Y14997562D02*
X80142857Y14902324D01*
X80142857Y14902324D02*
X80190476Y14807086D01*
X80190476Y14807086D02*
X80238095Y14616610D01*
X80238095Y14616610D02*
X80238095Y14473753D01*
X80238095Y14473753D02*
X80190476Y14283277D01*
X80190476Y14283277D02*
X80142857Y14188039D01*
X80142857Y14188039D02*
X80047619Y14092800D01*
X80047619Y14092800D02*
X79904762Y14045181D01*
X79904762Y14045181D02*
X79666667Y14045181D01*
X81190476Y14045181D02*
X80619048Y14045181D01*
X80904762Y14045181D02*
X80904762Y15045181D01*
X80904762Y15045181D02*
X80809524Y14902324D01*
X80809524Y14902324D02*
X80714286Y14807086D01*
X80714286Y14807086D02*
X80619048Y14759467D01*
X49666666Y25620181D02*
X49666666Y24905896D01*
X49666666Y24905896D02*
X49619047Y24763039D01*
X49619047Y24763039D02*
X49523809Y24667800D01*
X49523809Y24667800D02*
X49380952Y24620181D01*
X49380952Y24620181D02*
X49285714Y24620181D01*
X50666666Y24620181D02*
X50095238Y24620181D01*
X50380952Y24620181D02*
X50380952Y25620181D01*
X50380952Y25620181D02*
X50285714Y25477324D01*
X50285714Y25477324D02*
X50190476Y25382086D01*
X50190476Y25382086D02*
X50095238Y25334467D01*
X11333333Y15345181D02*
X11000000Y15821372D01*
X10761905Y15345181D02*
X10761905Y16345181D01*
X10761905Y16345181D02*
X11142857Y16345181D01*
X11142857Y16345181D02*
X11238095Y16297562D01*
X11238095Y16297562D02*
X11285714Y16249943D01*
X11285714Y16249943D02*
X11333333Y16154705D01*
X11333333Y16154705D02*
X11333333Y16011848D01*
X11333333Y16011848D02*
X11285714Y15916610D01*
X11285714Y15916610D02*
X11238095Y15868991D01*
X11238095Y15868991D02*
X11142857Y15821372D01*
X11142857Y15821372D02*
X10761905Y15821372D01*
X12285714Y15345181D02*
X11714286Y15345181D01*
X12000000Y15345181D02*
X12000000Y16345181D01*
X12000000Y16345181D02*
X11904762Y16202324D01*
X11904762Y16202324D02*
X11809524Y16107086D01*
X11809524Y16107086D02*
X11714286Y16059467D01*
X13933333Y18125181D02*
X13600000Y18601372D01*
X13361905Y18125181D02*
X13361905Y19125181D01*
X13361905Y19125181D02*
X13742857Y19125181D01*
X13742857Y19125181D02*
X13838095Y19077562D01*
X13838095Y19077562D02*
X13885714Y19029943D01*
X13885714Y19029943D02*
X13933333Y18934705D01*
X13933333Y18934705D02*
X13933333Y18791848D01*
X13933333Y18791848D02*
X13885714Y18696610D01*
X13885714Y18696610D02*
X13838095Y18648991D01*
X13838095Y18648991D02*
X13742857Y18601372D01*
X13742857Y18601372D02*
X13361905Y18601372D01*
X14314286Y19029943D02*
X14361905Y19077562D01*
X14361905Y19077562D02*
X14457143Y19125181D01*
X14457143Y19125181D02*
X14695238Y19125181D01*
X14695238Y19125181D02*
X14790476Y19077562D01*
X14790476Y19077562D02*
X14838095Y19029943D01*
X14838095Y19029943D02*
X14885714Y18934705D01*
X14885714Y18934705D02*
X14885714Y18839467D01*
X14885714Y18839467D02*
X14838095Y18696610D01*
X14838095Y18696610D02*
X14266667Y18125181D01*
X14266667Y18125181D02*
X14885714Y18125181D01*
X89333333Y14545181D02*
X88857143Y14545181D01*
X88857143Y14545181D02*
X88857143Y15545181D01*
X89666667Y14545181D02*
X89666667Y15545181D01*
X89666667Y15545181D02*
X89904762Y15545181D01*
X89904762Y15545181D02*
X90047619Y15497562D01*
X90047619Y15497562D02*
X90142857Y15402324D01*
X90142857Y15402324D02*
X90190476Y15307086D01*
X90190476Y15307086D02*
X90238095Y15116610D01*
X90238095Y15116610D02*
X90238095Y14973753D01*
X90238095Y14973753D02*
X90190476Y14783277D01*
X90190476Y14783277D02*
X90142857Y14688039D01*
X90142857Y14688039D02*
X90047619Y14592800D01*
X90047619Y14592800D02*
X89904762Y14545181D01*
X89904762Y14545181D02*
X89666667Y14545181D01*
X90619048Y15449943D02*
X90666667Y15497562D01*
X90666667Y15497562D02*
X90761905Y15545181D01*
X90761905Y15545181D02*
X91000000Y15545181D01*
X91000000Y15545181D02*
X91095238Y15497562D01*
X91095238Y15497562D02*
X91142857Y15449943D01*
X91142857Y15449943D02*
X91190476Y15354705D01*
X91190476Y15354705D02*
X91190476Y15259467D01*
X91190476Y15259467D02*
X91142857Y15116610D01*
X91142857Y15116610D02*
X90571429Y14545181D01*
X90571429Y14545181D02*
X91190476Y14545181D01*
D12*
%TO.C,U1*%
X12640000Y9240000D02*
X12640000Y13360000D01*
X12735000Y9240000D02*
X12640000Y9240000D01*
X17760000Y9240000D02*
X17665000Y9240000D01*
X12640000Y13360000D02*
X12735000Y13360000D01*
X17665000Y13360000D02*
X17760000Y13360000D01*
X17760000Y13360000D02*
X17760000Y9240000D01*
X12730000Y8700000D02*
X12400000Y8460000D01*
X12400000Y8940000D01*
X12730000Y8700000D01*
G36*
X12730000Y8700000D02*
G01*
X12400000Y8460000D01*
X12400000Y8940000D01*
X12730000Y8700000D01*
G37*
%TO.C,C1*%
X11340000Y11407836D02*
X11340000Y11192164D01*
X12060000Y11407836D02*
X12060000Y11192164D01*
%TO.C,TP1*%
X81700000Y2000000D02*
G75*
G02*
X78300000Y2000000I-1700000J0D01*
G01*
X78300000Y2000000D02*
G75*
G02*
X81700000Y2000000I1700000J0D01*
G01*
%TO.C,TP2*%
X91700000Y2000000D02*
G75*
G02*
X88300000Y2000000I-1700000J0D01*
G01*
X88300000Y2000000D02*
G75*
G02*
X91700000Y2000000I1700000J0D01*
G01*
%TO.C,J4*%
X80960000Y28624579D02*
X82350000Y28624579D01*
X82350000Y29194579D02*
X82350000Y28624579D01*
X82350000Y29194579D02*
X87650000Y29194579D01*
X82350000Y27004579D02*
X82350000Y26084579D01*
X82350000Y24464579D02*
X82350000Y23544579D01*
X82350000Y21924579D02*
X82350000Y21004579D01*
X82350000Y19384579D02*
X82350000Y18464579D01*
X82350000Y16844579D02*
X82350000Y16274579D01*
X82350000Y16274579D02*
X87650000Y16274579D01*
X87650000Y29194579D02*
X87650000Y28624579D01*
X87650000Y27004579D02*
X87650000Y26084579D01*
X87650000Y24464579D02*
X87650000Y23544579D01*
X87650000Y21924579D02*
X87650000Y21004579D01*
X87650000Y19384579D02*
X87650000Y18464579D01*
X87650000Y16844579D02*
X87650000Y16274579D01*
%TO.C,R3*%
X15046359Y17380000D02*
X15353641Y17380000D01*
X15046359Y16620000D02*
X15353641Y16620000D01*
D13*
%TO.C,LD1*%
X78000000Y11500000D02*
G75*
G02*
X78000000Y10700000I2000000J-400000D01*
G01*
X78002787Y11500000D02*
G75*
G02*
X78002786Y10700000I-200001J-400000D01*
G01*
%TO.C,J1*%
X48350000Y43400000D02*
X51650000Y43400000D01*
X48350000Y42200000D02*
X48350000Y43400000D01*
X48350000Y26600000D02*
X48350000Y27775000D01*
X51650000Y43400000D02*
X51650000Y42200000D01*
X51650000Y27750000D02*
X51650000Y26600000D01*
X51650000Y26550000D02*
X48350000Y26550000D01*
D12*
%TO.C,R1*%
X13746359Y16280000D02*
X14053641Y16280000D01*
X13746359Y15520000D02*
X14053641Y15520000D01*
%TO.C,R2*%
X16446359Y18580000D02*
X16753641Y18580000D01*
X16446359Y17820000D02*
X16753641Y17820000D01*
D13*
%TO.C,LD2*%
X92682802Y11099999D02*
G75*
G02*
X87322770Y11099999I-2680016J0D01*
G01*
X87322770Y11099999D02*
G75*
G02*
X92682802Y11099999I2680016J0D01*
G01*
D14*
%TO.C,kibuzzard-69BDA2B6*%
G36*
X55674315Y2531723D02*
G01*
X55503082Y2531723D01*
X54961301Y2531723D01*
X54217466Y2531723D01*
X52801712Y2531723D01*
X51794863Y2531723D01*
X51231849Y2531723D01*
X49879795Y2531723D01*
X48784589Y2531723D01*
X47769521Y2531723D01*
X46653767Y2531723D01*
X45899658Y2531723D01*
X45098288Y2531723D01*
X43647603Y2531723D01*
X42324315Y2531723D01*
X41720206Y2531723D01*
X40417466Y2531723D01*
X39951027Y2531723D01*
X38621575Y2531723D01*
X37896233Y2531723D01*
X36751712Y2531723D01*
X35448973Y2531723D01*
X35044178Y2531723D01*
X33674315Y2531723D01*
X33674315Y4065970D01*
X35044178Y4065970D01*
X35049201Y3903184D01*
X35064269Y3765513D01*
X35089384Y3652956D01*
X35144606Y3526072D01*
X35219863Y3445422D01*
X35319777Y3402271D01*
X35448973Y3387888D01*
X35575343Y3401472D01*
X35677740Y3442225D01*
X35756164Y3510148D01*
X35811530Y3609805D01*
X35844749Y3745764D01*
X35855822Y3918024D01*
X36016096Y3918024D01*
X36016096Y3741312D01*
X36525685Y3741312D01*
X36525685Y3408435D01*
X36751712Y3408435D01*
X36751712Y3741312D01*
X36920206Y3741312D01*
X36920206Y3918024D01*
X36751712Y3918024D01*
X36751712Y4178983D01*
X38101712Y4178983D01*
X38109835Y3993570D01*
X38134204Y3832879D01*
X38174818Y3696909D01*
X38231678Y3585661D01*
X38304784Y3499135D01*
X38394135Y3437331D01*
X38499733Y3400248D01*
X38621575Y3387888D01*
X38758733Y3400730D01*
X38783492Y3408435D01*
X39170206Y3408435D01*
X39396233Y3408435D01*
X39396233Y4246792D01*
X39479966Y4308435D01*
X39575000Y4328983D01*
X39700343Y4277614D01*
X39725000Y4199018D01*
X39733219Y4065970D01*
X39731164Y3408435D01*
X39951027Y3408435D01*
X40417466Y3408435D01*
X40746233Y3408435D01*
X44276370Y3408435D01*
X44500343Y3408435D01*
X44500343Y4127614D01*
X44866096Y4127614D01*
X44866096Y3408435D01*
X45098288Y3408435D01*
X45098288Y4476929D01*
X45396233Y4476929D01*
X45396233Y4310490D01*
X45669521Y4310490D01*
X45669521Y3408435D01*
X45899658Y3408435D01*
X45899658Y4390627D01*
X46427740Y4390627D01*
X46427740Y3408435D01*
X46653767Y3408435D01*
X46652489Y3942682D01*
X47338014Y3942682D01*
X47349886Y3765970D01*
X47385502Y3624874D01*
X47444863Y3519394D01*
X47528425Y3446335D01*
X47636644Y3402499D01*
X47769521Y3387888D01*
X47902397Y3402499D01*
X48010617Y3446335D01*
X48094178Y3519394D01*
X48153539Y3624874D01*
X48189155Y3765970D01*
X48201027Y3942682D01*
X48189155Y4119394D01*
X48168927Y4199531D01*
X48420890Y4199531D01*
X48441438Y4081124D01*
X48503082Y3988915D01*
X48613527Y3917254D01*
X48780480Y3860490D01*
X48916096Y3798846D01*
X48953082Y3696107D01*
X48905822Y3588230D01*
X48749658Y3554326D01*
X48595034Y3574360D01*
X48431164Y3634463D01*
X48431164Y3453641D01*
X48540753Y3417111D01*
X48658562Y3395193D01*
X48784589Y3387888D01*
X48952312Y3407922D01*
X49077397Y3468024D01*
X49155223Y3565114D01*
X49181164Y3696107D01*
X49161387Y3827614D01*
X49102055Y3922134D01*
X49068589Y3942682D01*
X49407192Y3942682D01*
X49416837Y3795492D01*
X49445772Y3670946D01*
X49493996Y3569045D01*
X49561511Y3489789D01*
X49648316Y3433177D01*
X49754410Y3399210D01*
X49879795Y3387888D01*
X50023117Y3400730D01*
X50173630Y3439257D01*
X50173630Y3609805D01*
X50032877Y3568196D01*
X49906507Y3554326D01*
X49796319Y3572048D01*
X49716438Y3625216D01*
X49665325Y3720507D01*
X49641438Y3864600D01*
X50225000Y3864600D01*
X50229110Y3946792D01*
X50218379Y4122248D01*
X50186187Y4262317D01*
X50132534Y4366997D01*
X50056964Y4439486D01*
X49959018Y4482979D01*
X49844863Y4496734D01*
X49838699Y4497477D01*
X49706849Y4482066D01*
X49598973Y4435833D01*
X49515069Y4358778D01*
X49455137Y4250901D01*
X49419178Y4112203D01*
X49407192Y3942682D01*
X49068589Y3942682D01*
X48988271Y3991997D01*
X48805137Y4049531D01*
X48682877Y4107066D01*
X48646918Y4199531D01*
X48691610Y4299703D01*
X48825685Y4333093D01*
X48981849Y4320251D01*
X49146233Y4281723D01*
X49146233Y4452271D01*
X49038927Y4477385D01*
X48925228Y4492454D01*
X48827740Y4496531D01*
X48805137Y4497477D01*
X48637671Y4478213D01*
X48517466Y4420422D01*
X48445034Y4326672D01*
X48420890Y4199531D01*
X48168927Y4199531D01*
X48153539Y4260490D01*
X48094178Y4365970D01*
X48010617Y4439029D01*
X47902397Y4482865D01*
X47769521Y4497477D01*
X47636644Y4482865D01*
X47528425Y4439029D01*
X47444863Y4365970D01*
X47385502Y4260490D01*
X47349886Y4119394D01*
X47338014Y3942682D01*
X46652489Y3942682D01*
X46651712Y4267340D01*
X46797146Y4300445D01*
X46948516Y4320308D01*
X47105822Y4326929D01*
X47105822Y4497477D01*
X46965603Y4493203D01*
X46827685Y4480381D01*
X46692069Y4459011D01*
X46558753Y4429093D01*
X46475000Y4404503D01*
X46427740Y4390627D01*
X45899658Y4390627D01*
X45899658Y4476929D01*
X45628425Y4476929D01*
X45396233Y4476929D01*
X45098288Y4476929D01*
X45098288Y4713230D01*
X45628425Y4713230D01*
X45899658Y4713230D01*
X45899658Y4887888D01*
X51472260Y4887888D01*
X51472260Y3428983D01*
X51626884Y3398161D01*
X51794863Y3387888D01*
X51965411Y3405610D01*
X51972508Y3408435D01*
X52571575Y3408435D01*
X52801712Y3408435D01*
X52801712Y3918024D01*
X53481849Y3918024D01*
X53481849Y3741312D01*
X53991438Y3741312D01*
X53991438Y3408435D01*
X54217466Y3408435D01*
X54217466Y3741312D01*
X54385959Y3741312D01*
X54385959Y3918024D01*
X54217466Y3918024D01*
X54217466Y4158435D01*
X54550343Y4158435D01*
X54555708Y3976130D01*
X54571804Y3820993D01*
X54598630Y3693024D01*
X54656421Y3547648D01*
X54733219Y3454668D01*
X54833390Y3404583D01*
X54961301Y3387888D01*
X55089212Y3404583D01*
X55189384Y3454668D01*
X55266182Y3547648D01*
X55323973Y3693024D01*
X55350799Y3820993D01*
X55366895Y3976130D01*
X55372260Y4158435D01*
X55366895Y4340741D01*
X55350799Y4495878D01*
X55323973Y4623846D01*
X55266182Y4769223D01*
X55189384Y4862203D01*
X55089212Y4912288D01*
X54961301Y4928983D01*
X54833390Y4912288D01*
X54733219Y4862203D01*
X54656421Y4769223D01*
X54598630Y4623846D01*
X54571804Y4495878D01*
X54555708Y4340741D01*
X54550343Y4158435D01*
X54217466Y4158435D01*
X54217466Y4908435D01*
X53968836Y4908435D01*
X53481849Y3918024D01*
X52801712Y3918024D01*
X52801712Y4127614D01*
X53249658Y4127614D01*
X53249658Y4302271D01*
X52801712Y4302271D01*
X52801712Y4729668D01*
X53270206Y4729668D01*
X53270206Y4908435D01*
X52571575Y4908435D01*
X52571575Y3408435D01*
X51972508Y3408435D01*
X52098973Y3458778D01*
X52200428Y3555610D01*
X52274658Y3704326D01*
X52308333Y3834691D01*
X52328539Y3992910D01*
X52335274Y4178983D01*
X52327376Y4371042D01*
X52303682Y4532151D01*
X52264191Y4662310D01*
X52208904Y4761518D01*
X52106735Y4854554D01*
X51968722Y4910376D01*
X51934589Y4914029D01*
X51794863Y4928983D01*
X51633048Y4918709D01*
X51472260Y4887888D01*
X45899658Y4887888D01*
X45899658Y4970079D01*
X45628425Y4970079D01*
X45628425Y4713230D01*
X45098288Y4713230D01*
X45098288Y4908435D01*
X44866096Y4908435D01*
X44866096Y4302271D01*
X44831164Y4302271D01*
X44500343Y4302271D01*
X44500343Y4908435D01*
X44276370Y4908435D01*
X44276370Y3408435D01*
X40746233Y3408435D01*
X40746233Y3757751D01*
X40417466Y3757751D01*
X40417466Y3408435D01*
X39951027Y3408435D01*
X39951027Y4100901D01*
X42324315Y4100901D01*
X42324315Y3930353D01*
X42940753Y3930353D01*
X42940753Y4100901D01*
X42688014Y4100901D01*
X42324315Y4100901D01*
X39951027Y4100901D01*
X39951027Y4123504D01*
X39932021Y4294822D01*
X39875000Y4410148D01*
X39776370Y4475644D01*
X39632534Y4497477D01*
X39538014Y4485410D01*
X39511815Y4482066D01*
X39396233Y4435833D01*
X39396233Y4949531D01*
X39170206Y4949531D01*
X39170206Y3408435D01*
X38783492Y3408435D01*
X38882534Y3439257D01*
X38882534Y3628298D01*
X38765411Y3580524D01*
X38656507Y3564600D01*
X38556050Y3581666D01*
X38473859Y3632865D01*
X38409932Y3718196D01*
X38364269Y3837659D01*
X38336872Y3991255D01*
X38327740Y4178983D01*
X38336016Y4352899D01*
X38360845Y4495193D01*
X38402226Y4605867D01*
X38460160Y4684919D01*
X38534646Y4732351D01*
X38625685Y4748161D01*
X38672945Y4739942D01*
X38672945Y4419394D01*
X38892808Y4419394D01*
X38892808Y4883778D01*
X38761815Y4917682D01*
X38615411Y4928983D01*
X38495013Y4917265D01*
X38494178Y4916983D01*
X38390668Y4882108D01*
X38302376Y4823515D01*
X38230137Y4741483D01*
X38173951Y4636015D01*
X38133819Y4507108D01*
X38109739Y4354765D01*
X38101712Y4178983D01*
X36751712Y4178983D01*
X36751712Y4908435D01*
X36503082Y4908435D01*
X36307877Y4511435D01*
X36016096Y3918024D01*
X35855822Y3918024D01*
X35846461Y4078983D01*
X35818379Y4205696D01*
X35804452Y4233210D01*
X35771575Y4298161D01*
X35662158Y4382922D01*
X35502397Y4411175D01*
X35386301Y4389086D01*
X35280480Y4322819D01*
X35276370Y4322819D01*
X35288356Y4471906D01*
X35310617Y4584919D01*
X35343151Y4661860D01*
X35418408Y4728127D01*
X35531164Y4750216D01*
X35649829Y4735833D01*
X35763356Y4692682D01*
X35763356Y4887888D01*
X35637500Y4918709D01*
X35506507Y4928983D01*
X35360103Y4909977D01*
X35245548Y4852956D01*
X35158733Y4748161D01*
X35095548Y4585833D01*
X35073074Y4481680D01*
X35057021Y4360319D01*
X35047389Y4221749D01*
X35044178Y4065970D01*
X33674315Y4065970D01*
X33674315Y5976929D01*
X35085274Y5976929D01*
X35804452Y5976929D01*
X35804452Y6155696D01*
X35315411Y6155696D01*
X35315411Y6696107D01*
X35783904Y6696107D01*
X35783904Y6870764D01*
X35315411Y6870764D01*
X35315411Y7000216D01*
X36081849Y7000216D01*
X36081849Y5524874D01*
X36307877Y5524874D01*
X36307877Y5997477D01*
X36395206Y5966655D01*
X36488699Y5956381D01*
X36609247Y5971792D01*
X36620206Y5976929D01*
X37115411Y5976929D01*
X37341438Y5976929D01*
X37341438Y6815285D01*
X37425171Y6876929D01*
X37520206Y6897477D01*
X37645548Y6846107D01*
X37670206Y6767511D01*
X37678425Y6634463D01*
X37676370Y5976929D01*
X37896233Y5976929D01*
X37896233Y6691997D01*
X37877226Y6863316D01*
X37820206Y6978641D01*
X37721575Y7044138D01*
X37713116Y7045422D01*
X38081164Y7045422D01*
X38436644Y5997477D01*
X38268151Y5524874D01*
X38494178Y5524874D01*
X38895682Y6768024D01*
X39174315Y6768024D01*
X39194863Y6649617D01*
X39256507Y6557408D01*
X39366952Y6485747D01*
X39533904Y6428983D01*
X39669521Y6367340D01*
X39706507Y6264600D01*
X39659247Y6156723D01*
X39503082Y6122819D01*
X39348459Y6142853D01*
X39184589Y6202956D01*
X39184589Y6022134D01*
X39294178Y5985604D01*
X39411986Y5963687D01*
X39538014Y5956381D01*
X39705736Y5976415D01*
X39830822Y6036518D01*
X39908647Y6133607D01*
X39934589Y6264600D01*
X39914812Y6396107D01*
X39855480Y6490627D01*
X39741695Y6560490D01*
X39558562Y6618024D01*
X39436301Y6675559D01*
X39400343Y6768024D01*
X39445034Y6868196D01*
X39579110Y6901586D01*
X39735274Y6888744D01*
X39899658Y6850216D01*
X39899658Y7020764D01*
X39792352Y7045878D01*
X39678653Y7060947D01*
X39558562Y7065970D01*
X39391096Y7046706D01*
X39270890Y6988915D01*
X39198459Y6895165D01*
X39174315Y6768024D01*
X38895682Y6768024D01*
X38985274Y7045422D01*
X38751027Y7045422D01*
X38537329Y6264600D01*
X38533219Y6264600D01*
X38305137Y7045422D01*
X38081164Y7045422D01*
X37713116Y7045422D01*
X37577740Y7065970D01*
X37457021Y7050559D01*
X37341438Y7004326D01*
X37341438Y7298161D01*
X41183904Y7298161D01*
X41490069Y7298161D01*
X41490069Y5976929D01*
X41720206Y5976929D01*
X41720206Y6511175D01*
X42215411Y6511175D01*
X42228539Y6341655D01*
X42267922Y6202956D01*
X42333562Y6095079D01*
X42425457Y6018024D01*
X42543607Y5971792D01*
X42688014Y5956381D01*
X42831336Y5969223D01*
X42981849Y6007751D01*
X42981849Y6178298D01*
X42841096Y6136689D01*
X42714726Y6122819D01*
X42604538Y6140542D01*
X42524658Y6193709D01*
X42473545Y6289001D01*
X42449658Y6433093D01*
X43033219Y6433093D01*
X43037329Y6515285D01*
X43026598Y6690741D01*
X43008836Y6768024D01*
X43283904Y6768024D01*
X43304452Y6649617D01*
X43366096Y6557408D01*
X43476541Y6485747D01*
X43643493Y6428983D01*
X43779110Y6367340D01*
X43816096Y6264600D01*
X43768836Y6156723D01*
X43612671Y6122819D01*
X43458048Y6142853D01*
X43294178Y6202956D01*
X43294178Y6022134D01*
X43403767Y5985604D01*
X43521575Y5963687D01*
X43647603Y5956381D01*
X43815325Y5976415D01*
X43940411Y6036518D01*
X44018236Y6133607D01*
X44044178Y6264600D01*
X44024401Y6396107D01*
X43965069Y6490627D01*
X43851284Y6560490D01*
X43668151Y6618024D01*
X43545890Y6675559D01*
X43509932Y6768024D01*
X43554623Y6868196D01*
X43688699Y6901586D01*
X43844863Y6888744D01*
X44009247Y6850216D01*
X44009247Y7004326D01*
X44286644Y7004326D01*
X44286644Y6837888D01*
X44498288Y6837888D01*
X44498288Y6285148D01*
X44516524Y6125901D01*
X44571233Y6026244D01*
X44672688Y5973846D01*
X44831164Y5956381D01*
X44944692Y5962545D01*
X45024204Y5976929D01*
X46273630Y5976929D01*
X46475000Y5976929D01*
X46509932Y7250901D01*
X46516096Y7250901D01*
X46633219Y6326244D01*
X46828425Y6326244D01*
X46955822Y7250901D01*
X46957877Y7250901D01*
X46988699Y5976929D01*
X47208562Y5976929D01*
X47181484Y6511175D01*
X47338014Y6511175D01*
X47349886Y6334463D01*
X47385502Y6193367D01*
X47444863Y6087888D01*
X47528425Y6014828D01*
X47636644Y5970993D01*
X47769521Y5956381D01*
X47902397Y5970993D01*
X48010617Y6014828D01*
X48094178Y6087888D01*
X48153539Y6193367D01*
X48189155Y6334463D01*
X48201027Y6511175D01*
X48375685Y6511175D01*
X48387785Y6329326D01*
X48424087Y6186518D01*
X48484589Y6082751D01*
X48571119Y6012545D01*
X48685502Y5970422D01*
X48827740Y5956381D01*
X48955137Y5963687D01*
X49071575Y5985604D01*
X49177055Y6022134D01*
X49177055Y6315970D01*
X49444178Y6315970D01*
X49465240Y6141312D01*
X49528425Y6032408D01*
X49601027Y5990171D01*
X49706507Y5964828D01*
X49844863Y5956381D01*
X49977055Y5965970D01*
X50096918Y5994737D01*
X50204452Y6042682D01*
X50204452Y7045422D01*
X49978425Y7045422D01*
X49980480Y6165970D01*
X49840753Y6124874D01*
X49702055Y6164942D01*
X49664041Y6315970D01*
X49664041Y7045422D01*
X49444178Y7045422D01*
X49444178Y6315970D01*
X49177055Y6315970D01*
X49177055Y7310490D01*
X50451027Y7310490D01*
X50726370Y7310490D01*
X50726370Y5976929D01*
X51231849Y5976929D01*
X51231849Y6143367D01*
X50956507Y6143367D01*
X50956507Y6511175D01*
X51461986Y6511175D01*
X51471631Y6363985D01*
X51500566Y6239439D01*
X51548791Y6137538D01*
X51616306Y6058282D01*
X51703110Y6001670D01*
X51809205Y5967703D01*
X51934589Y5956381D01*
X52077911Y5969223D01*
X52228425Y6007751D01*
X52228425Y6178298D01*
X52087671Y6136689D01*
X51961301Y6122819D01*
X51851113Y6140542D01*
X51771233Y6193709D01*
X51720120Y6289001D01*
X51696233Y6433093D01*
X52279795Y6433093D01*
X52283904Y6515285D01*
X52273174Y6690741D01*
X52240982Y6830810D01*
X52187329Y6935490D01*
X52111758Y7007979D01*
X52013813Y7051472D01*
X51893493Y7065970D01*
X51761644Y7050559D01*
X51653767Y7004326D01*
X51569863Y6927271D01*
X51509932Y6819394D01*
X51473973Y6680696D01*
X51461986Y6511175D01*
X50956507Y6511175D01*
X50956507Y7476929D01*
X50451027Y7476929D01*
X50451027Y7310490D01*
X49177055Y7310490D01*
X49177055Y7518024D01*
X48951027Y7518024D01*
X48951027Y7020764D01*
X48855993Y7054668D01*
X48755822Y7065970D01*
X48638128Y7051586D01*
X48542580Y7008435D01*
X48469178Y6936518D01*
X48417238Y6831723D01*
X48386073Y6689942D01*
X48375685Y6511175D01*
X48201027Y6511175D01*
X48189155Y6687888D01*
X48153539Y6828983D01*
X48094178Y6934463D01*
X48010617Y7007522D01*
X47902397Y7051358D01*
X47769521Y7065970D01*
X47636644Y7051358D01*
X47528425Y7007522D01*
X47444863Y6934463D01*
X47385502Y6828983D01*
X47349886Y6687888D01*
X47338014Y6511175D01*
X47181484Y6511175D01*
X47132534Y7476929D01*
X46873630Y7476929D01*
X46750343Y6521449D01*
X46746233Y6521449D01*
X46620890Y7476929D01*
X46351712Y7476929D01*
X46273630Y5976929D01*
X45024204Y5976929D01*
X45046918Y5981038D01*
X45046918Y6168024D01*
X44959075Y6144908D01*
X44872260Y6137203D01*
X44748973Y6171107D01*
X44722260Y6326244D01*
X44722260Y6837888D01*
X45067466Y6837888D01*
X45067466Y7004326D01*
X44722260Y7004326D01*
X44722260Y7394737D01*
X44498288Y7394737D01*
X44498288Y7004326D01*
X44286644Y7004326D01*
X44009247Y7004326D01*
X44009247Y7020764D01*
X43901941Y7045878D01*
X43788242Y7060947D01*
X43668151Y7065970D01*
X43500685Y7046706D01*
X43380480Y6988915D01*
X43308048Y6895165D01*
X43283904Y6768024D01*
X43008836Y6768024D01*
X42994406Y6830810D01*
X42940753Y6935490D01*
X42865183Y7007979D01*
X42767238Y7051472D01*
X42646918Y7065970D01*
X42515069Y7050559D01*
X42407192Y7004326D01*
X42323288Y6927271D01*
X42263356Y6819394D01*
X42227397Y6680696D01*
X42215411Y6511175D01*
X41720206Y6511175D01*
X41720206Y7298161D01*
X42026370Y7298161D01*
X42026370Y7476929D01*
X41183904Y7476929D01*
X41183904Y7298161D01*
X37341438Y7298161D01*
X37341438Y7518024D01*
X37115411Y7518024D01*
X37115411Y5976929D01*
X36620206Y5976929D01*
X36707877Y6018024D01*
X36784589Y6095079D01*
X36839384Y6202956D01*
X36872260Y6341655D01*
X36883219Y6511175D01*
X36871233Y6690970D01*
X36835274Y6833093D01*
X36775343Y6937545D01*
X36689155Y7008892D01*
X36574429Y7051700D01*
X36431164Y7065970D01*
X36308333Y7058664D01*
X36191895Y7036746D01*
X36081849Y7000216D01*
X35315411Y7000216D01*
X35315411Y7298161D01*
X35804452Y7298161D01*
X35804452Y7476929D01*
X35085274Y7476929D01*
X35085274Y5976929D01*
X33674315Y5976929D01*
X33674315Y8374189D01*
X35044178Y8374189D01*
X55503082Y8374189D01*
X55674315Y8374189D01*
X57427055Y8374189D01*
X55674315Y2531723D01*
G37*
G36*
X51937158Y4718367D02*
G01*
X52035274Y4622819D01*
X52077511Y4516883D01*
X52102854Y4368938D01*
X52111301Y4178983D01*
X52102968Y3969166D01*
X52077968Y3808207D01*
X52036301Y3696107D01*
X51938442Y3597477D01*
X51794863Y3564600D01*
X51702397Y3583093D01*
X51702397Y4731723D01*
X51794863Y4750216D01*
X51937158Y4718367D01*
G37*
G36*
X55157021Y4269908D02*
G01*
X55158562Y4158435D01*
X55155822Y4012317D01*
X55147603Y3889029D01*
X55133904Y3788572D01*
X55105394Y3676586D01*
X55069178Y3607751D01*
X54961301Y3560490D01*
X54858562Y3602614D01*
X54794863Y3747477D01*
X55152397Y4365970D01*
X55157021Y4269908D01*
G37*
G36*
X47862757Y6877185D02*
G01*
X47924658Y6816312D01*
X47959332Y6699446D01*
X47970890Y6511175D01*
X47959332Y6322905D01*
X47924658Y6206038D01*
X47862757Y6145165D01*
X47769521Y6124874D01*
X47676284Y6145165D01*
X47614384Y6206038D01*
X47579709Y6322905D01*
X47568151Y6511175D01*
X47579709Y6699446D01*
X47614384Y6816312D01*
X47676284Y6877185D01*
X47769521Y6897477D01*
X47862757Y6877185D01*
G37*
G36*
X47862757Y4308692D02*
G01*
X47924658Y4247819D01*
X47959332Y4130953D01*
X47970890Y3942682D01*
X47959332Y3754411D01*
X47924658Y3637545D01*
X47862757Y3576672D01*
X47769521Y3556381D01*
X47676284Y3576672D01*
X47614384Y3637545D01*
X47579709Y3754411D01*
X47568151Y3942682D01*
X47579709Y4130953D01*
X47614384Y4247819D01*
X47676284Y4308692D01*
X47769521Y4328983D01*
X47862757Y4308692D01*
G37*
G36*
X48876541Y6880011D02*
G01*
X48951027Y6827614D01*
X48951027Y6143367D01*
X48817466Y6116655D01*
X48722432Y6138744D01*
X48655137Y6205011D01*
X48615069Y6325730D01*
X48601712Y6511175D01*
X48612757Y6691740D01*
X48645890Y6810148D01*
X48701627Y6875644D01*
X48780480Y6897477D01*
X48876541Y6880011D01*
G37*
G36*
X36537757Y6875644D02*
G01*
X36604795Y6810148D01*
X36644093Y6691740D01*
X36657192Y6511175D01*
X36644992Y6341269D01*
X36608390Y6219908D01*
X36547389Y6147091D01*
X36461986Y6122819D01*
X36307877Y6170079D01*
X36307877Y6874874D01*
X36441438Y6897477D01*
X36537757Y6875644D01*
G37*
G36*
X55057877Y4720422D02*
G01*
X55119521Y4598161D01*
X54768151Y3987888D01*
X54764041Y4158435D01*
X54766781Y4304554D01*
X54775000Y4427842D01*
X54788699Y4528298D01*
X54817209Y4640285D01*
X54853425Y4709120D01*
X54961301Y4756381D01*
X55057877Y4720422D01*
G37*
G36*
X35591781Y4168709D02*
G01*
X35620291Y4073161D01*
X35629795Y3918024D01*
X35619264Y3744138D01*
X35587671Y3637545D01*
X35531935Y3582836D01*
X35448973Y3564600D01*
X35370634Y3584377D01*
X35316438Y3643709D01*
X35284846Y3753898D01*
X35274315Y3926244D01*
X35285873Y4068795D01*
X35320548Y4163572D01*
X35378853Y4216740D01*
X35461301Y4234463D01*
X35591781Y4168709D01*
G37*
G36*
X36525685Y3918024D02*
G01*
X36196918Y3918024D01*
X36196918Y3924189D01*
X36521575Y4589942D01*
X36525685Y4589942D01*
X36525685Y3918024D01*
G37*
G36*
X53991438Y3918024D02*
G01*
X53662671Y3918024D01*
X53662671Y3924189D01*
X53987329Y4589942D01*
X53991438Y4589942D01*
X53991438Y3918024D01*
G37*
G36*
X52016781Y6832751D02*
G01*
X52049658Y6737459D01*
X52061986Y6593367D01*
X51696233Y6593367D01*
X51713699Y6741312D01*
X51749658Y6835833D01*
X51806678Y6886689D01*
X51887329Y6903641D01*
X52016781Y6832751D01*
G37*
G36*
X42770206Y6832751D02*
G01*
X42803082Y6737459D01*
X42815411Y6593367D01*
X42449658Y6593367D01*
X42467123Y6741312D01*
X42503082Y6835833D01*
X42560103Y6886689D01*
X42640753Y6903641D01*
X42770206Y6832751D01*
G37*
G36*
X49961986Y4264257D02*
G01*
X49994863Y4168966D01*
X50007192Y4024874D01*
X49641438Y4024874D01*
X49658904Y4172819D01*
X49694863Y4267340D01*
X49751884Y4318196D01*
X49832534Y4335148D01*
X49961986Y4264257D01*
G37*
%TD*%
%LPC*%
%TO.C,G\u002A\u002A\u002A*%
G36*
X61423128Y7971601D02*
G01*
X61453817Y7961366D01*
X61481371Y7943384D01*
X61488712Y7936528D01*
X61491569Y7933515D01*
X61494448Y7930088D01*
X61497519Y7925842D01*
X61500953Y7920372D01*
X61504920Y7913273D01*
X61509589Y7904140D01*
X61515132Y7892568D01*
X61521719Y7878152D01*
X61529520Y7860488D01*
X61538706Y7839170D01*
X61549446Y7813793D01*
X61561912Y7783952D01*
X61576273Y7749243D01*
X61592700Y7709260D01*
X61611363Y7663599D01*
X61632433Y7611854D01*
X61656079Y7553621D01*
X61682473Y7488494D01*
X61711784Y7416069D01*
X61744183Y7335941D01*
X61779841Y7247704D01*
X61813625Y7164079D01*
X61848436Y7077910D01*
X61883563Y6990971D01*
X61918716Y6903977D01*
X61953606Y6817642D01*
X61987945Y6732682D01*
X62021443Y6649812D01*
X62053810Y6569747D01*
X62084759Y6493203D01*
X62113999Y6420893D01*
X62141242Y6353534D01*
X62166199Y6291840D01*
X62188580Y6236527D01*
X62208096Y6188309D01*
X62224458Y6147901D01*
X62231020Y6131705D01*
X62254099Y6074728D01*
X62273835Y6025900D01*
X62290486Y5984514D01*
X62304307Y5949860D01*
X62315554Y5921232D01*
X62324483Y5897921D01*
X62331350Y5879221D01*
X62336412Y5864422D01*
X62339923Y5852818D01*
X62342142Y5843700D01*
X62343322Y5836360D01*
X62343721Y5830092D01*
X62343594Y5824186D01*
X62343405Y5821017D01*
X62341785Y5812227D01*
X62337647Y5795062D01*
X62331218Y5770303D01*
X62322726Y5738733D01*
X62312398Y5701133D01*
X62300460Y5658285D01*
X62287141Y5610970D01*
X62272668Y5559971D01*
X62257267Y5506069D01*
X62241167Y5450046D01*
X62224593Y5392683D01*
X62207775Y5334763D01*
X62190938Y5277068D01*
X62174310Y5220378D01*
X62158118Y5165476D01*
X62142590Y5113144D01*
X62127953Y5064163D01*
X62114434Y5019316D01*
X62102260Y4979383D01*
X62091659Y4945147D01*
X62082858Y4917389D01*
X62076083Y4896892D01*
X62071563Y4884436D01*
X62070379Y4881768D01*
X62052139Y4856282D01*
X62027591Y4836373D01*
X61998640Y4822726D01*
X61967191Y4816026D01*
X61935149Y4816959D01*
X61909616Y4823961D01*
X61903530Y4826464D01*
X61888955Y4832488D01*
X61866231Y4841892D01*
X61835698Y4854535D01*
X61797696Y4870275D01*
X61752567Y4888972D01*
X61700651Y4910484D01*
X61642289Y4934670D01*
X61577820Y4961389D01*
X61507586Y4990500D01*
X61431927Y5021861D01*
X61351184Y5055332D01*
X61265696Y5090771D01*
X61175806Y5128037D01*
X61081853Y5166989D01*
X60984177Y5207486D01*
X60883120Y5249387D01*
X60779022Y5292550D01*
X60672223Y5336835D01*
X60563064Y5382100D01*
X60501957Y5407440D01*
X60391586Y5453206D01*
X60283361Y5498078D01*
X60177621Y5541913D01*
X60074710Y5584571D01*
X59974970Y5625910D01*
X59878743Y5665787D01*
X59786371Y5704062D01*
X59698195Y5740592D01*
X59614559Y5775237D01*
X59535803Y5807854D01*
X59462271Y5838301D01*
X59394304Y5866438D01*
X59332244Y5892122D01*
X59306660Y5902706D01*
X59994147Y5902706D01*
X59998339Y5900780D01*
X60010825Y5895421D01*
X60031068Y5886851D01*
X60058530Y5875296D01*
X60092672Y5860978D01*
X60132956Y5844120D01*
X60178846Y5824946D01*
X60229802Y5803680D01*
X60285287Y5780544D01*
X60344762Y5755763D01*
X60407690Y5729560D01*
X60473532Y5702158D01*
X60541751Y5673781D01*
X60611809Y5644651D01*
X60683167Y5614993D01*
X60755287Y5585031D01*
X60827633Y5554986D01*
X60899665Y5525084D01*
X60970845Y5495546D01*
X61040636Y5466598D01*
X61108499Y5438462D01*
X61173897Y5411361D01*
X61236292Y5385519D01*
X61295145Y5361160D01*
X61349918Y5338507D01*
X61400074Y5317783D01*
X61445075Y5299212D01*
X61484382Y5283017D01*
X61517457Y5269422D01*
X61543763Y5258650D01*
X61562761Y5250925D01*
X61573914Y5246470D01*
X61576808Y5245409D01*
X61578104Y5247954D01*
X61576264Y5251009D01*
X61572733Y5255827D01*
X61564102Y5267754D01*
X61550844Y5286133D01*
X61533433Y5310306D01*
X61512342Y5339616D01*
X61488043Y5373406D01*
X61461010Y5411017D01*
X61431716Y5451791D01*
X61400635Y5495073D01*
X61386260Y5515095D01*
X61354412Y5559415D01*
X61324031Y5601609D01*
X61295601Y5641007D01*
X61269610Y5676939D01*
X61246544Y5708735D01*
X61226888Y5735727D01*
X61212455Y5755434D01*
X61538934Y5755434D01*
X61541033Y5751198D01*
X61547942Y5740394D01*
X61558856Y5724157D01*
X61572970Y5703619D01*
X61589477Y5679915D01*
X61607572Y5654176D01*
X61626451Y5627538D01*
X61645306Y5601132D01*
X61663334Y5576093D01*
X61679728Y5553555D01*
X61693683Y5534650D01*
X61704394Y5520512D01*
X61711054Y5512274D01*
X61712895Y5510637D01*
X61712480Y5515505D01*
X61710447Y5528472D01*
X61707023Y5548256D01*
X61702435Y5573578D01*
X61696907Y5603155D01*
X61692108Y5628266D01*
X61685911Y5660251D01*
X61680303Y5688943D01*
X61675762Y5711926D01*
X61943075Y5711926D01*
X61943948Y5705200D01*
X61946389Y5690596D01*
X61950129Y5669617D01*
X61954897Y5643765D01*
X61960423Y5614544D01*
X61962194Y5605319D01*
X61967886Y5575736D01*
X61972939Y5549413D01*
X61977082Y5527768D01*
X61980045Y5512215D01*
X61981557Y5504169D01*
X61981691Y5503405D01*
X61982051Y5502473D01*
X61982876Y5503634D01*
X61984482Y5507908D01*
X61987187Y5516312D01*
X61991307Y5529865D01*
X61997158Y5549583D01*
X62005058Y5576485D01*
X62014865Y5610020D01*
X62023320Y5639238D01*
X62030676Y5665197D01*
X62036567Y5686558D01*
X62040627Y5701983D01*
X62042487Y5710131D01*
X62042529Y5711058D01*
X62037452Y5711926D01*
X62024908Y5713214D01*
X62006970Y5714726D01*
X61992068Y5715830D01*
X61969781Y5717221D01*
X61955376Y5717550D01*
X61947220Y5716687D01*
X61943681Y5714502D01*
X61943075Y5711926D01*
X61675762Y5711926D01*
X61675537Y5713067D01*
X61671866Y5731347D01*
X61669545Y5742506D01*
X61668834Y5745445D01*
X61663662Y5746541D01*
X61651142Y5748024D01*
X61633431Y5749727D01*
X61612686Y5751485D01*
X61591065Y5753131D01*
X61570725Y5754500D01*
X61553822Y5755426D01*
X61542515Y5755743D01*
X61538934Y5755434D01*
X61212455Y5755434D01*
X61211130Y5757243D01*
X61199755Y5772614D01*
X61193250Y5781171D01*
X61192070Y5782589D01*
X61190175Y5784032D01*
X61186935Y5785472D01*
X61181859Y5786962D01*
X61174453Y5788555D01*
X61164224Y5790306D01*
X61150680Y5792267D01*
X61133327Y5794492D01*
X61111673Y5797034D01*
X61085224Y5799947D01*
X61053489Y5803285D01*
X61015974Y5807101D01*
X60972185Y5811448D01*
X60921631Y5816379D01*
X60863819Y5821949D01*
X60798255Y5828211D01*
X60724447Y5835219D01*
X60641901Y5843025D01*
X60589306Y5847988D01*
X60514940Y5854991D01*
X60443241Y5861722D01*
X60374781Y5868127D01*
X60310132Y5874153D01*
X60249865Y5879749D01*
X60194554Y5884862D01*
X60144769Y5889439D01*
X60101082Y5893427D01*
X60064066Y5896775D01*
X60034293Y5899428D01*
X60012334Y5901336D01*
X59998761Y5902445D01*
X59994147Y5902706D01*
X59306660Y5902706D01*
X59276433Y5915211D01*
X59227215Y5935565D01*
X59184929Y5953041D01*
X59149919Y5967498D01*
X59122527Y5978794D01*
X59103095Y5986788D01*
X59091965Y5991337D01*
X59089518Y5992316D01*
X59059358Y6008541D01*
X59035019Y6031054D01*
X59017135Y6058340D01*
X59006340Y6088884D01*
X59003269Y6121169D01*
X59008554Y6153681D01*
X59014974Y6170513D01*
X59017039Y6174200D01*
X59020404Y6178936D01*
X59025372Y6185011D01*
X59032249Y6192712D01*
X59041338Y6202330D01*
X59052944Y6214152D01*
X59058450Y6219615D01*
X59439562Y6219615D01*
X59444319Y6219130D01*
X59457981Y6217795D01*
X59479935Y6215668D01*
X59509569Y6212808D01*
X59546273Y6209273D01*
X59589432Y6205121D01*
X59638437Y6200413D01*
X59692674Y6195205D01*
X59751532Y6189557D01*
X59814399Y6183527D01*
X59880663Y6177174D01*
X59949712Y6170556D01*
X60020934Y6163732D01*
X60093717Y6156761D01*
X60167449Y6149700D01*
X60241519Y6142610D01*
X60315313Y6135547D01*
X60388222Y6128572D01*
X60459631Y6121742D01*
X60528930Y6115116D01*
X60595507Y6108752D01*
X60658749Y6102710D01*
X60718045Y6097047D01*
X60772783Y6091823D01*
X60822350Y6087096D01*
X60866136Y6082924D01*
X60903527Y6079366D01*
X60933912Y6076481D01*
X60956679Y6074327D01*
X60971216Y6072963D01*
X60976753Y6072460D01*
X60981589Y6074204D01*
X60981533Y6075844D01*
X60978505Y6080352D01*
X60970298Y6092027D01*
X60957332Y6110286D01*
X60940025Y6134548D01*
X60918798Y6164229D01*
X60894069Y6198748D01*
X60866258Y6237522D01*
X60835785Y6279969D01*
X60803068Y6325507D01*
X60768527Y6373554D01*
X60732582Y6423527D01*
X60695651Y6474844D01*
X60658155Y6526922D01*
X60620513Y6579180D01*
X60595786Y6613492D01*
X60917487Y6613492D01*
X60918289Y6611878D01*
X60921885Y6606934D01*
X60930607Y6594859D01*
X60944001Y6576284D01*
X60961613Y6551838D01*
X60982989Y6522154D01*
X61007675Y6487860D01*
X61035217Y6449590D01*
X61065160Y6407972D01*
X61097052Y6363637D01*
X61125834Y6323617D01*
X61158997Y6277575D01*
X61190606Y6233830D01*
X61220210Y6192999D01*
X61247357Y6155699D01*
X61271596Y6122545D01*
X61292473Y6094156D01*
X61309537Y6071147D01*
X61322336Y6054136D01*
X61330419Y6043739D01*
X61333269Y6040551D01*
X61339538Y6039546D01*
X61353798Y6037848D01*
X61374515Y6035605D01*
X61400156Y6032965D01*
X61429189Y6030074D01*
X61460081Y6027079D01*
X61491299Y6024126D01*
X61521311Y6021364D01*
X61548583Y6018938D01*
X61571583Y6016997D01*
X61588779Y6015686D01*
X61598054Y6015166D01*
X61610855Y6015364D01*
X61616251Y6017522D01*
X61616336Y6022539D01*
X61616218Y6022951D01*
X61614241Y6031331D01*
X61611136Y6046347D01*
X61607468Y6065225D01*
X61606211Y6071937D01*
X61601435Y6093327D01*
X61596113Y6110089D01*
X61590994Y6119922D01*
X61590437Y6120518D01*
X61585704Y6124222D01*
X61573955Y6133073D01*
X61555878Y6146564D01*
X61532164Y6164185D01*
X61503503Y6185429D01*
X61470585Y6209788D01*
X61434100Y6236752D01*
X61394738Y6265815D01*
X61353189Y6296467D01*
X61310144Y6328201D01*
X61266291Y6360508D01*
X61222322Y6392880D01*
X61178926Y6424808D01*
X61136794Y6455785D01*
X61096614Y6485302D01*
X61059079Y6512851D01*
X61024876Y6537924D01*
X60994697Y6560012D01*
X60969231Y6578607D01*
X60949169Y6593201D01*
X60935201Y6603286D01*
X60929751Y6607157D01*
X60920928Y6612695D01*
X60917487Y6613492D01*
X60595786Y6613492D01*
X60583143Y6631036D01*
X60546466Y6681906D01*
X60510900Y6731209D01*
X60476865Y6778362D01*
X60444781Y6822784D01*
X60415067Y6863891D01*
X60388142Y6901103D01*
X60364426Y6933835D01*
X60344338Y6961507D01*
X60328297Y6983535D01*
X60316722Y6999338D01*
X60310034Y7008333D01*
X60308563Y7010198D01*
X60307116Y7011237D01*
X60305046Y7011452D01*
X60301983Y7010513D01*
X60297556Y7008091D01*
X60291395Y7003856D01*
X60283129Y6997478D01*
X60272388Y6988628D01*
X60258803Y6976976D01*
X60242001Y6962193D01*
X60221614Y6943950D01*
X60197269Y6921916D01*
X60168599Y6895762D01*
X60135230Y6865158D01*
X60096794Y6829776D01*
X60052920Y6789285D01*
X60003238Y6743355D01*
X59947377Y6691658D01*
X59884966Y6633864D01*
X59869401Y6619447D01*
X59815052Y6569091D01*
X59762704Y6520563D01*
X59712779Y6474256D01*
X59665698Y6430561D01*
X59621885Y6389871D01*
X59581760Y6352579D01*
X59545746Y6319078D01*
X59514266Y6289759D01*
X59487740Y6265016D01*
X59466591Y6245241D01*
X59451242Y6230827D01*
X59442113Y6222166D01*
X59439562Y6219615D01*
X59058450Y6219615D01*
X59067372Y6228468D01*
X59084926Y6245567D01*
X59105910Y6265738D01*
X59130629Y6289270D01*
X59159388Y6316450D01*
X59192491Y6347570D01*
X59230241Y6382916D01*
X59272945Y6422779D01*
X59320906Y6467447D01*
X59374428Y6517209D01*
X59433817Y6572354D01*
X59499376Y6633171D01*
X59571411Y6699949D01*
X59634525Y6758432D01*
X59712318Y6830454D01*
X59785915Y6898489D01*
X59855103Y6962342D01*
X59919669Y7021818D01*
X59979397Y7076722D01*
X60034076Y7126859D01*
X60083491Y7172035D01*
X60127428Y7212054D01*
X60165675Y7246721D01*
X60198017Y7275842D01*
X60224241Y7299221D01*
X60244134Y7316664D01*
X60257481Y7327976D01*
X60264069Y7332962D01*
X60264203Y7333034D01*
X60296590Y7344748D01*
X60329873Y7347179D01*
X60362973Y7340394D01*
X60394484Y7324680D01*
X60400809Y7320215D01*
X60414377Y7310410D01*
X60434736Y7295599D01*
X60461433Y7276112D01*
X60494015Y7252282D01*
X60532030Y7224441D01*
X60575025Y7192921D01*
X60622547Y7158054D01*
X60674145Y7120171D01*
X60729364Y7079605D01*
X60787753Y7036688D01*
X60848858Y6991751D01*
X60912228Y6945127D01*
X60967990Y6904082D01*
X61032523Y6856606D01*
X61094933Y6810758D01*
X61154791Y6766852D01*
X61211664Y6725201D01*
X61265123Y6686118D01*
X61314735Y6649918D01*
X61360069Y6616913D01*
X61400695Y6587417D01*
X61436181Y6561744D01*
X61466096Y6540207D01*
X61490009Y6523119D01*
X61507489Y6510794D01*
X61518105Y6503546D01*
X61521439Y6501630D01*
X61520710Y6506709D01*
X61518262Y6520643D01*
X61515969Y6533198D01*
X61784917Y6533198D01*
X61787800Y6514078D01*
X61789507Y6504037D01*
X61792740Y6486185D01*
X61797207Y6462097D01*
X61802613Y6433349D01*
X61808665Y6401515D01*
X61812623Y6380867D01*
X61834564Y6266775D01*
X61875675Y6236316D01*
X61892527Y6223897D01*
X61906246Y6213912D01*
X61915209Y6207535D01*
X61917862Y6205818D01*
X61917213Y6209577D01*
X61914772Y6216534D01*
X61909870Y6228955D01*
X61902221Y6248055D01*
X61892369Y6272498D01*
X61880857Y6300950D01*
X61868229Y6332074D01*
X61855029Y6364536D01*
X61841801Y6397001D01*
X61829089Y6428133D01*
X61817436Y6456596D01*
X61807388Y6481056D01*
X61799486Y6500177D01*
X61794276Y6512624D01*
X61792606Y6516468D01*
X61784917Y6533198D01*
X61515969Y6533198D01*
X61515096Y6537978D01*
X61780560Y6537978D01*
X61782950Y6535588D01*
X61785340Y6537978D01*
X61782950Y6540367D01*
X61780560Y6537978D01*
X61515096Y6537978D01*
X61514197Y6542902D01*
X61508614Y6572956D01*
X61501615Y6610275D01*
X61493299Y6654330D01*
X61483768Y6704590D01*
X61473123Y6760526D01*
X61461463Y6821608D01*
X61448890Y6887305D01*
X61435505Y6957087D01*
X61421407Y7030426D01*
X61406698Y7106791D01*
X61393406Y7175675D01*
X61374292Y7274765D01*
X61356975Y7364812D01*
X61341394Y7446149D01*
X61327488Y7519109D01*
X61315196Y7584026D01*
X61304456Y7641234D01*
X61295207Y7691066D01*
X61287389Y7733855D01*
X61280939Y7769936D01*
X61275796Y7799642D01*
X61271900Y7823306D01*
X61269189Y7841262D01*
X61267601Y7853844D01*
X61267077Y7861384D01*
X61267203Y7863418D01*
X61276218Y7891982D01*
X61291770Y7919770D01*
X61304288Y7935301D01*
X61329885Y7955938D01*
X61359399Y7968876D01*
X61391068Y7974100D01*
X61423128Y7971601D01*
G37*
G36*
X64897796Y4612146D02*
G01*
X64933797Y4605703D01*
X64969665Y4593886D01*
X65001262Y4579712D01*
X65033459Y4560741D01*
X65065809Y4536055D01*
X65095693Y4508008D01*
X65120489Y4478950D01*
X65131219Y4463043D01*
X65140810Y4445643D01*
X65145889Y4431296D01*
X65147782Y4415482D01*
X65147948Y4406012D01*
X65146983Y4386698D01*
X65143271Y4372259D01*
X65135591Y4358135D01*
X65134799Y4356927D01*
X65115974Y4336525D01*
X65091815Y4322298D01*
X65064789Y4315197D01*
X65037365Y4316175D01*
X65032228Y4317375D01*
X65012155Y4325176D01*
X64994914Y4337820D01*
X64978265Y4357134D01*
X64971330Y4367047D01*
X64947709Y4394691D01*
X64919496Y4413951D01*
X64886714Y4424815D01*
X64858769Y4427448D01*
X64828964Y4425476D01*
X64804184Y4418285D01*
X64780772Y4404660D01*
X64773439Y4399114D01*
X64748503Y4373807D01*
X64731993Y4343993D01*
X64723935Y4309724D01*
X64723079Y4291288D01*
X64724098Y4269978D01*
X64727408Y4253675D01*
X64734054Y4237908D01*
X64736731Y4232838D01*
X64745943Y4217514D01*
X64755267Y4204493D01*
X64760214Y4198990D01*
X64766481Y4194079D01*
X64779596Y4184433D01*
X64798556Y4170770D01*
X64822356Y4153806D01*
X64849992Y4134258D01*
X64880460Y4112843D01*
X64901787Y4097927D01*
X64934368Y4074999D01*
X64965424Y4052796D01*
X64993818Y4032156D01*
X65018409Y4013922D01*
X65038059Y3998933D01*
X65051629Y3988031D01*
X65056262Y3983913D01*
X65091641Y3943227D01*
X65119819Y3897161D01*
X65140435Y3847015D01*
X65153129Y3794085D01*
X65157543Y3739670D01*
X65153315Y3685066D01*
X65147258Y3655742D01*
X65131287Y3611010D01*
X65107111Y3567493D01*
X65076078Y3526717D01*
X65039537Y3490211D01*
X64998837Y3459500D01*
X64955327Y3436112D01*
X64951976Y3434691D01*
X64908396Y3420691D01*
X64860834Y3412584D01*
X64812641Y3410683D01*
X64767170Y3415302D01*
X64760132Y3416719D01*
X64723172Y3427409D01*
X64684406Y3443150D01*
X64648500Y3461957D01*
X64637582Y3468824D01*
X64611340Y3488972D01*
X64586202Y3513245D01*
X64563636Y3539770D01*
X64545109Y3566671D01*
X64532087Y3592076D01*
X64526508Y3610707D01*
X64526386Y3637883D01*
X64534537Y3663051D01*
X64549689Y3684788D01*
X64570574Y3701668D01*
X64595921Y3712269D01*
X64619778Y3715280D01*
X64646833Y3711757D01*
X64670155Y3700658D01*
X64691126Y3681186D01*
X64700811Y3668563D01*
X64726515Y3638214D01*
X64755096Y3616781D01*
X64787280Y3603866D01*
X64823797Y3599069D01*
X64827700Y3599020D01*
X64861727Y3602264D01*
X64891461Y3612837D01*
X64919399Y3631708D01*
X64925448Y3636976D01*
X64948786Y3663005D01*
X64963372Y3691654D01*
X64969902Y3724502D01*
X64970412Y3739389D01*
X64966720Y3776328D01*
X64955734Y3807777D01*
X64936968Y3834961D01*
X64928994Y3843195D01*
X64920267Y3850589D01*
X64904805Y3862651D01*
X64883706Y3878566D01*
X64858068Y3897521D01*
X64828987Y3918701D01*
X64797561Y3941293D01*
X64777376Y3955656D01*
X64734108Y3986589D01*
X64698017Y4013077D01*
X64668253Y4035872D01*
X64643969Y4055724D01*
X64624317Y4073383D01*
X64608447Y4089599D01*
X64595511Y4105124D01*
X64584661Y4120708D01*
X64577740Y4132251D01*
X64562979Y4163579D01*
X64550308Y4200510D01*
X64540868Y4239138D01*
X64535800Y4275554D01*
X64535758Y4276134D01*
X64536622Y4328245D01*
X64546224Y4378370D01*
X64563817Y4425726D01*
X64588655Y4469530D01*
X64619992Y4508999D01*
X64657082Y4543352D01*
X64699179Y4571805D01*
X64745537Y4593576D01*
X64795409Y4607883D01*
X64848051Y4613943D01*
X64857983Y4614097D01*
X64897796Y4612146D01*
G37*
G36*
X62988110Y5119780D02*
G01*
X63012665Y5107026D01*
X63023878Y5097422D01*
X63035489Y5083024D01*
X63044430Y5067049D01*
X63046663Y5060903D01*
X63048151Y5050344D01*
X63049396Y5030298D01*
X63050399Y5000834D01*
X63051156Y4962022D01*
X63051667Y4913931D01*
X63051930Y4856631D01*
X63051968Y4823215D01*
X63051994Y4604538D01*
X63153996Y4604538D01*
X63190167Y4604407D01*
X63218522Y4603937D01*
X63240802Y4603007D01*
X63258747Y4601501D01*
X63274098Y4599298D01*
X63288597Y4596280D01*
X63293806Y4595006D01*
X63349443Y4576321D01*
X63399748Y4549980D01*
X63444198Y4516589D01*
X63482272Y4476752D01*
X63513446Y4431075D01*
X63537197Y4380164D01*
X63553005Y4324624D01*
X63558577Y4288215D01*
X63559521Y4274365D01*
X63560362Y4252324D01*
X63561100Y4222999D01*
X63561737Y4187298D01*
X63562273Y4146127D01*
X63562708Y4100395D01*
X63563043Y4051009D01*
X63563279Y3998875D01*
X63563416Y3944901D01*
X63563455Y3889995D01*
X63563397Y3835063D01*
X63563241Y3781014D01*
X63562990Y3728754D01*
X63562643Y3679190D01*
X63562200Y3633231D01*
X63561664Y3591782D01*
X63561033Y3555752D01*
X63560310Y3526048D01*
X63559494Y3503578D01*
X63558586Y3489247D01*
X63558033Y3485098D01*
X63548272Y3459783D01*
X63531689Y3438417D01*
X63510156Y3422314D01*
X63485542Y3412792D01*
X63459720Y3411166D01*
X63454099Y3411991D01*
X63425502Y3421838D01*
X63402300Y3439065D01*
X63385590Y3462617D01*
X63377500Y3485917D01*
X63376398Y3495524D01*
X63375430Y3513539D01*
X63374593Y3540103D01*
X63373887Y3575356D01*
X63373309Y3619438D01*
X63372857Y3672491D01*
X63372529Y3734654D01*
X63372325Y3806068D01*
X63372241Y3886873D01*
X63372239Y3903333D01*
X63372235Y4296239D01*
X63358476Y4325323D01*
X63337302Y4359342D01*
X63309047Y4386950D01*
X63283816Y4403085D01*
X63275673Y4407240D01*
X63268065Y4410391D01*
X63259529Y4412701D01*
X63248597Y4414333D01*
X63233806Y4415449D01*
X63213690Y4416212D01*
X63186784Y4416784D01*
X63155956Y4417264D01*
X63051994Y4418793D01*
X63051968Y3956010D01*
X63051919Y3868945D01*
X63051783Y3791207D01*
X63051557Y3722566D01*
X63051237Y3662790D01*
X63050822Y3611646D01*
X63050309Y3568905D01*
X63049695Y3534334D01*
X63048978Y3507702D01*
X63048156Y3488777D01*
X63047225Y3477328D01*
X63046659Y3474109D01*
X63036985Y3454247D01*
X63020679Y3435726D01*
X63000565Y3421305D01*
X62986584Y3415377D01*
X62963619Y3410541D01*
X62943565Y3411587D01*
X62930109Y3415348D01*
X62906080Y3427869D01*
X62886127Y3446164D01*
X62874726Y3463994D01*
X62873569Y3466799D01*
X62872517Y3470181D01*
X62871565Y3474580D01*
X62870706Y3480438D01*
X62869937Y3488198D01*
X62869253Y3498299D01*
X62868648Y3511184D01*
X62868118Y3527294D01*
X62867658Y3547071D01*
X62867262Y3570955D01*
X62866927Y3599389D01*
X62866646Y3632814D01*
X62866416Y3671672D01*
X62866231Y3716403D01*
X62866087Y3767449D01*
X62865977Y3825252D01*
X62865899Y3890254D01*
X62865846Y3962895D01*
X62865814Y4043617D01*
X62865797Y4132862D01*
X62865791Y4231070D01*
X62865791Y4267560D01*
X62865794Y4369043D01*
X62865808Y4461407D01*
X62865835Y4545094D01*
X62865883Y4620544D01*
X62865954Y4688198D01*
X62866055Y4748497D01*
X62866189Y4801882D01*
X62866363Y4848794D01*
X62866580Y4889674D01*
X62866845Y4924963D01*
X62867163Y4955102D01*
X62867540Y4980532D01*
X62867979Y5001694D01*
X62868486Y5019028D01*
X62869065Y5032977D01*
X62869722Y5043980D01*
X62870461Y5052478D01*
X62871287Y5058913D01*
X62872204Y5063726D01*
X62873218Y5067357D01*
X62874333Y5070247D01*
X62874566Y5070768D01*
X62890109Y5094549D01*
X62911016Y5111658D01*
X62935505Y5121778D01*
X62961796Y5124591D01*
X62988110Y5119780D01*
G37*
G36*
X61507307Y4612502D02*
G01*
X61550045Y4606731D01*
X61591898Y4594660D01*
X61636118Y4575599D01*
X61636947Y4575192D01*
X61658699Y4563546D01*
X61677706Y4550875D01*
X61696876Y4535006D01*
X61718686Y4514201D01*
X61750876Y4478924D01*
X61775927Y4443452D01*
X61795801Y4404662D01*
X61808624Y4371123D01*
X61821080Y4334477D01*
X61821135Y4157285D01*
X61821189Y3980092D01*
X61808360Y3960696D01*
X61792253Y3942927D01*
X61774587Y3931161D01*
X61769391Y3928775D01*
X61763958Y3926796D01*
X61757389Y3925185D01*
X61748788Y3923906D01*
X61737256Y3922920D01*
X61721897Y3922188D01*
X61701814Y3921674D01*
X61676107Y3921338D01*
X61643881Y3921143D01*
X61604238Y3921051D01*
X61556280Y3921024D01*
X61535280Y3921022D01*
X61316917Y3921022D01*
X61316917Y3823215D01*
X61317009Y3789243D01*
X61317370Y3763234D01*
X61318125Y3743596D01*
X61319401Y3728732D01*
X61321324Y3717050D01*
X61324020Y3706953D01*
X61326734Y3699171D01*
X61342454Y3669337D01*
X61365409Y3642082D01*
X61393273Y3619940D01*
X61406085Y3612673D01*
X61421134Y3605707D01*
X61434329Y3601510D01*
X61449094Y3599407D01*
X61468853Y3598724D01*
X61477041Y3598695D01*
X61505413Y3600115D01*
X61529216Y3605092D01*
X61551301Y3614745D01*
X61574519Y3630192D01*
X61591004Y3643395D01*
X61618221Y3661503D01*
X61645248Y3670098D01*
X61669500Y3669656D01*
X61687619Y3665245D01*
X61702214Y3658259D01*
X61717150Y3646606D01*
X61724237Y3640024D01*
X61740994Y3617935D01*
X61749321Y3592693D01*
X61749159Y3565770D01*
X61740445Y3538635D01*
X61729209Y3520281D01*
X61715936Y3506011D01*
X61696459Y3489462D01*
X61673213Y3472450D01*
X61648632Y3456793D01*
X61631567Y3447425D01*
X61593782Y3431914D01*
X61551054Y3420360D01*
X61506571Y3413289D01*
X61463518Y3411226D01*
X61429131Y3414006D01*
X61372506Y3427154D01*
X61321226Y3447941D01*
X61274238Y3476900D01*
X61230495Y3514561D01*
X61230260Y3514794D01*
X61210552Y3535065D01*
X61195980Y3552091D01*
X61184396Y3568816D01*
X61173651Y3588183D01*
X61167331Y3601007D01*
X61160259Y3615810D01*
X61154156Y3629169D01*
X61148950Y3641886D01*
X61144570Y3654765D01*
X61140945Y3668608D01*
X61138003Y3684218D01*
X61135674Y3702400D01*
X61133884Y3723956D01*
X61132564Y3749689D01*
X61131642Y3780402D01*
X61131047Y3816899D01*
X61130706Y3859982D01*
X61130550Y3910456D01*
X61130506Y3969122D01*
X61130504Y4015603D01*
X61130517Y4076994D01*
X61130549Y4107436D01*
X61316249Y4107436D01*
X61476707Y4107436D01*
X61637166Y4107436D01*
X61637166Y4202853D01*
X61637068Y4236422D01*
X61636688Y4262058D01*
X61635895Y4281387D01*
X61634557Y4296034D01*
X61632543Y4307624D01*
X61629721Y4317784D01*
X61627349Y4324507D01*
X61613266Y4351567D01*
X61592618Y4377821D01*
X61568129Y4400204D01*
X61549253Y4412410D01*
X61536739Y4418475D01*
X61525208Y4422283D01*
X61511801Y4424345D01*
X61493659Y4425171D01*
X61477041Y4425287D01*
X61454065Y4425019D01*
X61437764Y4423869D01*
X61425262Y4421318D01*
X61413683Y4416845D01*
X61404309Y4412146D01*
X61371130Y4389628D01*
X61344818Y4360514D01*
X61332451Y4340292D01*
X61328140Y4331869D01*
X61324872Y4324163D01*
X61322478Y4315702D01*
X61320791Y4305012D01*
X61319645Y4290622D01*
X61318870Y4271058D01*
X61318299Y4244847D01*
X61317778Y4211397D01*
X61316249Y4107436D01*
X61130549Y4107436D01*
X61130572Y4129612D01*
X61130691Y4174241D01*
X61130894Y4211667D01*
X61131205Y4242678D01*
X61131645Y4268057D01*
X61132236Y4288590D01*
X61132999Y4305065D01*
X61133958Y4318265D01*
X61135133Y4328977D01*
X61136547Y4337987D01*
X61138222Y4346081D01*
X61139913Y4353008D01*
X61158078Y4405396D01*
X61184463Y4454341D01*
X61218105Y4498615D01*
X61258039Y4536994D01*
X61303303Y4568253D01*
X61313496Y4573851D01*
X61347101Y4589928D01*
X61378412Y4601018D01*
X61410977Y4608057D01*
X61448345Y4611982D01*
X61460433Y4612665D01*
X61507307Y4612502D01*
G37*
G36*
X60128791Y4602093D02*
G01*
X60305984Y4602039D01*
X60342629Y4589583D01*
X60386015Y4572326D01*
X60423717Y4551380D01*
X60458856Y4524783D01*
X60485707Y4499644D01*
X60520798Y4459319D01*
X60547655Y4416542D01*
X60567532Y4369093D01*
X60576072Y4339688D01*
X60577749Y4332728D01*
X60579218Y4325589D01*
X60580491Y4317616D01*
X60581583Y4308157D01*
X60582508Y4296561D01*
X60583279Y4282173D01*
X60583911Y4264343D01*
X60584417Y4242416D01*
X60584811Y4215741D01*
X60585107Y4183666D01*
X60585319Y4145536D01*
X60585461Y4100701D01*
X60585546Y4048507D01*
X60585589Y3988303D01*
X60585603Y3919434D01*
X60585604Y3891388D01*
X60585598Y3819249D01*
X60585571Y3756047D01*
X60585511Y3701160D01*
X60585402Y3653964D01*
X60585233Y3613838D01*
X60584988Y3580159D01*
X60584654Y3552304D01*
X60584219Y3529651D01*
X60583668Y3511577D01*
X60582988Y3497459D01*
X60582165Y3486676D01*
X60581185Y3478604D01*
X60580036Y3472622D01*
X60578703Y3468105D01*
X60577173Y3464433D01*
X60576254Y3462570D01*
X60559274Y3438701D01*
X60537059Y3421657D01*
X60511319Y3412173D01*
X60483760Y3410981D01*
X60465626Y3415021D01*
X60439899Y3427892D01*
X60419578Y3446712D01*
X60410618Y3460694D01*
X60409031Y3464244D01*
X60407634Y3468511D01*
X60406411Y3474114D01*
X60405345Y3481674D01*
X60404420Y3491809D01*
X60403620Y3505138D01*
X60402928Y3522280D01*
X60402327Y3543855D01*
X60401802Y3570481D01*
X60401336Y3602777D01*
X60400912Y3641364D01*
X60400514Y3686859D01*
X60400126Y3739882D01*
X60399732Y3801052D01*
X60399314Y3870988D01*
X60399190Y3892343D01*
X60396801Y4305798D01*
X60385706Y4326588D01*
X60365403Y4356554D01*
X60339482Y4382483D01*
X60310659Y4401687D01*
X60309050Y4402492D01*
X60299826Y4406886D01*
X60291457Y4410205D01*
X60282419Y4412624D01*
X60271186Y4414320D01*
X60256231Y4415466D01*
X60236028Y4416240D01*
X60209052Y4416817D01*
X60180605Y4417268D01*
X60079125Y4418802D01*
X60077839Y3948845D01*
X60076552Y3478888D01*
X60063876Y3457328D01*
X60046245Y3435998D01*
X60023206Y3420798D01*
X59997002Y3412557D01*
X59969875Y3412102D01*
X59952933Y3416330D01*
X59936908Y3424363D01*
X59922243Y3434926D01*
X59920889Y3436175D01*
X59916528Y3440173D01*
X59912636Y3443700D01*
X59909188Y3447294D01*
X59906157Y3451495D01*
X59903516Y3456839D01*
X59901237Y3463866D01*
X59899296Y3473113D01*
X59897664Y3485119D01*
X59896316Y3500422D01*
X59895224Y3519560D01*
X59894361Y3543071D01*
X59893702Y3571494D01*
X59893219Y3605367D01*
X59892885Y3645228D01*
X59892674Y3691615D01*
X59892559Y3745066D01*
X59892514Y3806120D01*
X59892511Y3875315D01*
X59892524Y3953190D01*
X59892529Y4007467D01*
X59892529Y4534602D01*
X59902668Y4555546D01*
X59916266Y4575308D01*
X59932202Y4589319D01*
X59951598Y4602148D01*
X60128791Y4602093D01*
G37*
G36*
X59417090Y4612726D02*
G01*
X59462245Y4605133D01*
X59517863Y4586367D01*
X59568308Y4559749D01*
X59613064Y4525777D01*
X59651618Y4484947D01*
X59683454Y4437756D01*
X59708059Y4384700D01*
X59716365Y4359947D01*
X59719263Y4349677D01*
X59721602Y4339462D01*
X59723459Y4328109D01*
X59724911Y4314423D01*
X59726035Y4297210D01*
X59726908Y4275277D01*
X59727607Y4247428D01*
X59728208Y4212469D01*
X59728790Y4169207D01*
X59728820Y4166736D01*
X59729302Y4113636D01*
X59729309Y4069946D01*
X59728837Y4035525D01*
X59727885Y4010235D01*
X59726450Y3993937D01*
X59725495Y3988904D01*
X59713829Y3963244D01*
X59694581Y3941895D01*
X59677026Y3930372D01*
X59672318Y3928177D01*
X59666990Y3926354D01*
X59660159Y3924870D01*
X59650942Y3923689D01*
X59638458Y3922777D01*
X59621823Y3922100D01*
X59600156Y3921622D01*
X59572574Y3921311D01*
X59538195Y3921130D01*
X59496137Y3921045D01*
X59445516Y3921023D01*
X59438225Y3921022D01*
X59217752Y3921022D01*
X59219357Y3819451D01*
X59219927Y3785719D01*
X59220543Y3760021D01*
X59221382Y3740829D01*
X59222622Y3726618D01*
X59224438Y3715863D01*
X59227007Y3707036D01*
X59230507Y3698613D01*
X59234248Y3690828D01*
X59255536Y3657301D01*
X59282958Y3629986D01*
X59313427Y3611057D01*
X59329469Y3604353D01*
X59344457Y3600486D01*
X59362152Y3598752D01*
X59381087Y3598431D01*
X59410876Y3600030D01*
X59435496Y3605559D01*
X59458109Y3616227D01*
X59481876Y3633244D01*
X59490175Y3640170D01*
X59518189Y3659220D01*
X59546540Y3669016D01*
X59574625Y3669533D01*
X59601841Y3660746D01*
X59624092Y3645730D01*
X59641341Y3626402D01*
X59650741Y3603872D01*
X59652942Y3576391D01*
X59652502Y3569230D01*
X59648941Y3549269D01*
X59641016Y3531425D01*
X59627483Y3513844D01*
X59607097Y3494669D01*
X59596793Y3486176D01*
X59555520Y3458453D01*
X59508961Y3436531D01*
X59459233Y3420976D01*
X59408450Y3412351D01*
X59358730Y3411219D01*
X59328509Y3414677D01*
X59271118Y3429162D01*
X59218414Y3451440D01*
X59171034Y3481040D01*
X59129615Y3517490D01*
X59094795Y3560318D01*
X59067722Y3607944D01*
X59061280Y3621757D01*
X59055749Y3633999D01*
X59051054Y3645492D01*
X59047123Y3657059D01*
X59043882Y3669524D01*
X59041257Y3683709D01*
X59039174Y3700438D01*
X59037560Y3720534D01*
X59036341Y3744820D01*
X59035444Y3774119D01*
X59034795Y3809254D01*
X59034320Y3851049D01*
X59033946Y3900326D01*
X59033598Y3957908D01*
X59033403Y3991620D01*
X59033070Y4054931D01*
X59032883Y4107436D01*
X59217738Y4107436D01*
X59381087Y4107436D01*
X59544437Y4107436D01*
X59542824Y4206617D01*
X59542242Y4239940D01*
X59541602Y4265280D01*
X59540720Y4284213D01*
X59539409Y4298314D01*
X59537485Y4309159D01*
X59534763Y4318324D01*
X59531057Y4327384D01*
X59527793Y4334477D01*
X59507108Y4368098D01*
X59480193Y4394796D01*
X59447980Y4413979D01*
X59411403Y4425055D01*
X59381087Y4427684D01*
X59341266Y4423397D01*
X59305905Y4410712D01*
X59275425Y4389891D01*
X59250248Y4361194D01*
X59236673Y4337930D01*
X59220963Y4306037D01*
X59219351Y4206736D01*
X59217738Y4107436D01*
X59032883Y4107436D01*
X59032876Y4109438D01*
X59032833Y4155896D01*
X59032953Y4195059D01*
X59033247Y4227683D01*
X59033726Y4254521D01*
X59034403Y4276329D01*
X59035289Y4293861D01*
X59036395Y4307873D01*
X59037734Y4319118D01*
X59038513Y4324049D01*
X59052129Y4378887D01*
X59073442Y4428680D01*
X59103034Y4474545D01*
X59137439Y4513598D01*
X59168355Y4541923D01*
X59198969Y4563920D01*
X59232637Y4581688D01*
X59269903Y4596349D01*
X59316618Y4608420D01*
X59366803Y4613930D01*
X59417090Y4612726D01*
G37*
G36*
X57681320Y4613248D02*
G01*
X57724263Y4607954D01*
X57736027Y4605310D01*
X57791638Y4586594D01*
X57841877Y4560230D01*
X57886241Y4526794D01*
X57924230Y4486865D01*
X57955343Y4441018D01*
X57979079Y4389830D01*
X57994938Y4333879D01*
X58000138Y4301134D01*
X58001304Y4285539D01*
X58002255Y4260857D01*
X58002986Y4227555D01*
X58003493Y4186105D01*
X58003769Y4136974D01*
X58003812Y4080633D01*
X58003615Y4017550D01*
X58003422Y3983160D01*
X58003039Y3924806D01*
X58002669Y3875181D01*
X58002282Y3833452D01*
X58001845Y3798790D01*
X58001325Y3770362D01*
X58000690Y3747338D01*
X57999908Y3728885D01*
X57998946Y3714174D01*
X57997773Y3702372D01*
X57996355Y3692649D01*
X57994660Y3684173D01*
X57992657Y3676113D01*
X57991285Y3671101D01*
X57971998Y3618475D01*
X57945010Y3569713D01*
X57911253Y3525863D01*
X57871662Y3487974D01*
X57827167Y3457094D01*
X57781570Y3435343D01*
X57734937Y3421147D01*
X57686581Y3412790D01*
X57639608Y3410677D01*
X57610162Y3412996D01*
X57554037Y3425402D01*
X57501799Y3446255D01*
X57454081Y3475014D01*
X57411519Y3511135D01*
X57374748Y3554077D01*
X57344403Y3603297D01*
X57321118Y3658253D01*
X57320356Y3660522D01*
X57318099Y3667433D01*
X57316165Y3674075D01*
X57314527Y3681218D01*
X57313154Y3689638D01*
X57312018Y3700106D01*
X57311089Y3713396D01*
X57310338Y3730282D01*
X57309735Y3751537D01*
X57309252Y3777933D01*
X57308859Y3810244D01*
X57308527Y3849244D01*
X57308226Y3895705D01*
X57307928Y3950400D01*
X57307700Y3994891D01*
X57307610Y4014229D01*
X57495446Y4014229D01*
X57495446Y3717880D01*
X57508102Y3690883D01*
X57528787Y3657193D01*
X57555393Y3630502D01*
X57586815Y3611330D01*
X57621946Y3600196D01*
X57659682Y3597617D01*
X57695192Y3603103D01*
X57731815Y3617090D01*
X57762491Y3638503D01*
X57787419Y3667509D01*
X57802291Y3693981D01*
X57815694Y3722660D01*
X57815694Y4011839D01*
X57815694Y4301019D01*
X57804575Y4328558D01*
X57788801Y4356982D01*
X57766288Y4383413D01*
X57739810Y4404896D01*
X57725075Y4413285D01*
X57696131Y4422968D01*
X57662947Y4427230D01*
X57629258Y4425923D01*
X57598797Y4418901D01*
X57597248Y4418331D01*
X57566736Y4402290D01*
X57538931Y4379180D01*
X57516568Y4351491D01*
X57508830Y4337835D01*
X57495446Y4310578D01*
X57495446Y4014229D01*
X57307610Y4014229D01*
X57307408Y4057381D01*
X57307223Y4111090D01*
X57307159Y4156795D01*
X57307231Y4195274D01*
X57307452Y4227305D01*
X57307837Y4253665D01*
X57308401Y4275132D01*
X57309157Y4292484D01*
X57310119Y4306498D01*
X57310541Y4310578D01*
X57311303Y4317952D01*
X57312721Y4327623D01*
X57313906Y4333967D01*
X57329834Y4389514D01*
X57353891Y4440682D01*
X57385434Y4486746D01*
X57423821Y4526982D01*
X57468409Y4560664D01*
X57518556Y4587068D01*
X57548024Y4598144D01*
X57589582Y4608205D01*
X57635220Y4613286D01*
X57681320Y4613248D01*
G37*
G36*
X63776074Y4611393D02*
G01*
X63801471Y4601384D01*
X63823252Y4585216D01*
X63839357Y4563870D01*
X63844856Y4550886D01*
X63847004Y4543860D01*
X63851652Y4528419D01*
X63858578Y4505311D01*
X63867557Y4475286D01*
X63878368Y4439090D01*
X63890785Y4397474D01*
X63904587Y4351185D01*
X63919549Y4300971D01*
X63935448Y4247581D01*
X63952060Y4191764D01*
X63952974Y4188693D01*
X63969544Y4133025D01*
X63985359Y4079937D01*
X64000202Y4030154D01*
X64013856Y3984402D01*
X64026106Y3943404D01*
X64036733Y3907886D01*
X64045522Y3878573D01*
X64052255Y3856189D01*
X64056716Y3841461D01*
X64058688Y3835111D01*
X64058732Y3834985D01*
X64060485Y3838322D01*
X64064767Y3850152D01*
X64071368Y3869811D01*
X64080078Y3896632D01*
X64090688Y3929950D01*
X64102988Y3969100D01*
X64116768Y4013417D01*
X64131818Y4062234D01*
X64147928Y4114886D01*
X64164890Y4170709D01*
X64172779Y4196801D01*
X64191948Y4260059D01*
X64210049Y4319320D01*
X64226897Y4374006D01*
X64242311Y4423537D01*
X64256105Y4467336D01*
X64268097Y4504824D01*
X64278103Y4535423D01*
X64285941Y4558555D01*
X64291426Y4573641D01*
X64294275Y4579972D01*
X64311851Y4596946D01*
X64334831Y4608207D01*
X64360705Y4613404D01*
X64386963Y4612187D01*
X64411095Y4604204D01*
X64421354Y4597738D01*
X64434564Y4585851D01*
X64445755Y4572805D01*
X64447974Y4569486D01*
X64450981Y4564682D01*
X64453650Y4560252D01*
X64455858Y4555709D01*
X64457484Y4550564D01*
X64458405Y4544327D01*
X64458498Y4536509D01*
X64457640Y4526623D01*
X64455709Y4514178D01*
X64452583Y4498687D01*
X64448138Y4479661D01*
X64442253Y4456610D01*
X64434804Y4429046D01*
X64425670Y4396480D01*
X64414726Y4358423D01*
X64401852Y4314387D01*
X64386925Y4263882D01*
X64369821Y4206421D01*
X64350419Y4141513D01*
X64328595Y4068670D01*
X64304228Y3987404D01*
X64290774Y3942532D01*
X64268513Y3868256D01*
X64246526Y3794860D01*
X64225027Y3723052D01*
X64204225Y3653537D01*
X64184332Y3587023D01*
X64165558Y3524218D01*
X64148116Y3465827D01*
X64132217Y3412558D01*
X64118070Y3365118D01*
X64105889Y3324214D01*
X64095884Y3290552D01*
X64088266Y3264840D01*
X64084436Y3251847D01*
X64069210Y3201487D01*
X64055404Y3159298D01*
X64042516Y3124088D01*
X64030045Y3094662D01*
X64017488Y3069828D01*
X64004344Y3048393D01*
X63991540Y3030948D01*
X63956353Y2993794D01*
X63914232Y2961398D01*
X63867133Y2935001D01*
X63817011Y2915844D01*
X63804970Y2912518D01*
X63777539Y2907075D01*
X63748698Y2904003D01*
X63721105Y2903366D01*
X63697419Y2905227D01*
X63680453Y2909580D01*
X63658567Y2924035D01*
X63641765Y2944935D01*
X63631126Y2970047D01*
X63627724Y2997136D01*
X63629859Y3014552D01*
X63639123Y3040916D01*
X63653828Y3060989D01*
X63674857Y3075427D01*
X63703092Y3084888D01*
X63730089Y3089172D01*
X63755611Y3092533D01*
X63775059Y3097130D01*
X63791919Y3104163D01*
X63809678Y3114834D01*
X63814929Y3118392D01*
X63825926Y3126515D01*
X63835588Y3135273D01*
X63844347Y3145616D01*
X63852636Y3158497D01*
X63860885Y3174867D01*
X63869528Y3195678D01*
X63878996Y3221882D01*
X63889721Y3254432D01*
X63902136Y3294279D01*
X63916672Y3342374D01*
X63916840Y3342935D01*
X63964890Y3503331D01*
X63814351Y4006463D01*
X63794230Y4073852D01*
X63774900Y4138863D01*
X63756538Y4200889D01*
X63739319Y4259320D01*
X63723422Y4313550D01*
X63709021Y4362970D01*
X63696294Y4406971D01*
X63685418Y4444946D01*
X63676568Y4476287D01*
X63669921Y4500385D01*
X63665654Y4516631D01*
X63663943Y4524419D01*
X63663917Y4524803D01*
X63668297Y4547997D01*
X63679795Y4571186D01*
X63696408Y4591500D01*
X63716133Y4606070D01*
X63722676Y4609013D01*
X63749122Y4614263D01*
X63776074Y4611393D01*
G37*
G36*
X62266128Y4604357D02*
G01*
X62306966Y4603956D01*
X62340724Y4603072D01*
X62368643Y4601550D01*
X62391960Y4599236D01*
X62411915Y4595972D01*
X62429748Y4591604D01*
X62446698Y4585976D01*
X62464004Y4578932D01*
X62480805Y4571301D01*
X62531685Y4542721D01*
X62575365Y4507893D01*
X62612033Y4466632D01*
X62641878Y4418756D01*
X62645796Y4410955D01*
X62652777Y4396595D01*
X62658785Y4383693D01*
X62663893Y4371432D01*
X62668174Y4358998D01*
X62671700Y4345575D01*
X62674546Y4330349D01*
X62676784Y4312505D01*
X62678486Y4291227D01*
X62679727Y4265700D01*
X62680579Y4235110D01*
X62681115Y4198641D01*
X62681408Y4155478D01*
X62681531Y4104807D01*
X62681558Y4045811D01*
X62681558Y4011839D01*
X62681563Y3948759D01*
X62681524Y3894410D01*
X62681362Y3847967D01*
X62680995Y3808602D01*
X62680343Y3775488D01*
X62679326Y3747797D01*
X62677863Y3724703D01*
X62675874Y3705378D01*
X62673279Y3688994D01*
X62669996Y3674726D01*
X62665946Y3661744D01*
X62661049Y3649224D01*
X62655222Y3636336D01*
X62648388Y3622254D01*
X62642519Y3610346D01*
X62614426Y3563808D01*
X62578739Y3522371D01*
X62536375Y3486784D01*
X62488254Y3457798D01*
X62435294Y3436162D01*
X62425706Y3433220D01*
X62412470Y3429684D01*
X62398921Y3426943D01*
X62383447Y3424854D01*
X62364436Y3423274D01*
X62340278Y3422060D01*
X62309362Y3421068D01*
X62281247Y3420396D01*
X62172506Y3418015D01*
X62172506Y3195435D01*
X62172494Y3143484D01*
X62172434Y3100205D01*
X62172289Y3064712D01*
X62172021Y3036116D01*
X62171594Y3013530D01*
X62170971Y2996068D01*
X62170115Y2982842D01*
X62168989Y2972964D01*
X62167556Y2965548D01*
X62165779Y2959706D01*
X62163621Y2954550D01*
X62162368Y2951911D01*
X62146444Y2928988D01*
X62124469Y2913455D01*
X62096495Y2905343D01*
X62084717Y2904233D01*
X62063084Y2904602D01*
X62045572Y2907641D01*
X62040972Y2909321D01*
X62023655Y2921036D01*
X62007349Y2938543D01*
X61995052Y2958280D01*
X61991160Y2968511D01*
X61990504Y2975629D01*
X61989891Y2991683D01*
X61989323Y3016048D01*
X61988798Y3048100D01*
X61988317Y3087215D01*
X61987880Y3132769D01*
X61987487Y3184139D01*
X61987138Y3240699D01*
X61986834Y3301826D01*
X61986573Y3366896D01*
X61986356Y3435285D01*
X61986184Y3506369D01*
X61986055Y3579523D01*
X61986027Y3604588D01*
X62172506Y3604588D01*
X62271688Y3606385D01*
X62305045Y3607033D01*
X62330429Y3607728D01*
X62349426Y3608659D01*
X62363621Y3610012D01*
X62374601Y3611976D01*
X62383949Y3614738D01*
X62393253Y3618485D01*
X62400109Y3621576D01*
X62433759Y3642089D01*
X62461242Y3669811D01*
X62481757Y3703540D01*
X62495145Y3732219D01*
X62495145Y4014229D01*
X62495145Y4296239D01*
X62484299Y4319757D01*
X62463744Y4354364D01*
X62437037Y4381875D01*
X62410703Y4399320D01*
X62380429Y4415734D01*
X62276467Y4417264D01*
X62172506Y4418793D01*
X62172506Y4011690D01*
X62172506Y3604588D01*
X61986027Y3604588D01*
X61985971Y3654123D01*
X61985931Y3729546D01*
X61985936Y3805167D01*
X61985984Y3880363D01*
X61986077Y3954508D01*
X61986186Y4011690D01*
X61986215Y4026980D01*
X61986396Y4097154D01*
X61986622Y4164406D01*
X61986893Y4228112D01*
X61987208Y4287647D01*
X61987568Y4342389D01*
X61987972Y4391712D01*
X61988420Y4434992D01*
X61988914Y4471606D01*
X61989451Y4500930D01*
X61990034Y4522339D01*
X61990661Y4535209D01*
X61991083Y4538667D01*
X62002369Y4562628D01*
X62020855Y4582948D01*
X62040863Y4595553D01*
X62046939Y4597979D01*
X62054054Y4599918D01*
X62063292Y4601424D01*
X62075739Y4602552D01*
X62092479Y4603357D01*
X62114597Y4603893D01*
X62143179Y4604215D01*
X62179308Y4604378D01*
X62216971Y4604433D01*
X62266128Y4604357D01*
G37*
G36*
X58465644Y4602129D02*
G01*
X58502838Y4602033D01*
X58532688Y4601801D01*
X58556305Y4601374D01*
X58574796Y4600693D01*
X58589270Y4599699D01*
X58600834Y4598334D01*
X58610599Y4596538D01*
X58619672Y4594253D01*
X58629162Y4591419D01*
X58630655Y4590954D01*
X58671425Y4576207D01*
X58706333Y4558648D01*
X58738447Y4536406D01*
X58770833Y4507609D01*
X58776591Y4501923D01*
X58805598Y4470512D01*
X58828331Y4439768D01*
X58846836Y4406443D01*
X58863157Y4367291D01*
X58865525Y4360766D01*
X58876627Y4329698D01*
X58878118Y4026826D01*
X58878410Y3965352D01*
X58878624Y3912652D01*
X58878740Y3867940D01*
X58878739Y3830431D01*
X58878602Y3799340D01*
X58878311Y3773880D01*
X58877846Y3753266D01*
X58877189Y3736713D01*
X58876321Y3723435D01*
X58875222Y3712646D01*
X58873873Y3703561D01*
X58872256Y3695395D01*
X58870352Y3687361D01*
X58869885Y3685500D01*
X58851336Y3630855D01*
X58824917Y3581105D01*
X58791316Y3536886D01*
X58751224Y3498838D01*
X58705329Y3467599D01*
X58654322Y3443807D01*
X58598892Y3428100D01*
X58590073Y3426452D01*
X58560908Y3422776D01*
X58523138Y3420348D01*
X58477643Y3419220D01*
X58460522Y3419141D01*
X58372899Y3419141D01*
X58371526Y3193294D01*
X58371207Y3139007D01*
X58370883Y3093418D01*
X58370434Y3055667D01*
X58369738Y3024892D01*
X58368672Y3000232D01*
X58367115Y2980827D01*
X58364946Y2965816D01*
X58362042Y2954339D01*
X58358282Y2945533D01*
X58353544Y2938538D01*
X58347707Y2932495D01*
X58340648Y2926540D01*
X58332933Y2920371D01*
X58311067Y2908422D01*
X58285145Y2903204D01*
X58258115Y2904941D01*
X58234733Y2912909D01*
X58217363Y2924985D01*
X58202643Y2940720D01*
X58201274Y2942696D01*
X58188521Y2961968D01*
X58187509Y3604588D01*
X58372544Y3604588D01*
X58471725Y3606342D01*
X58505072Y3606974D01*
X58530439Y3607656D01*
X58549402Y3608573D01*
X58563540Y3609912D01*
X58574431Y3611860D01*
X58583652Y3614602D01*
X58592781Y3618325D01*
X58599586Y3621439D01*
X58629270Y3639637D01*
X58655237Y3663999D01*
X58675220Y3692143D01*
X58683143Y3709177D01*
X58685210Y3714938D01*
X58686965Y3720816D01*
X58688427Y3727593D01*
X58689619Y3736052D01*
X58690563Y3746977D01*
X58691280Y3761150D01*
X58691791Y3779357D01*
X58692119Y3802378D01*
X58692284Y3830998D01*
X58692309Y3866000D01*
X58692216Y3908168D01*
X58692024Y3958283D01*
X58691758Y4017130D01*
X58691741Y4020766D01*
X58690402Y4305798D01*
X58677735Y4329792D01*
X58658998Y4357215D01*
X58634295Y4381694D01*
X58606473Y4400671D01*
X58590800Y4407865D01*
X58580439Y4411430D01*
X58570045Y4414067D01*
X58557977Y4415912D01*
X58542590Y4417103D01*
X58522242Y4417776D01*
X58495288Y4418070D01*
X58467961Y4418124D01*
X58372544Y4418124D01*
X58372544Y4011356D01*
X58372544Y3604588D01*
X58187509Y3604588D01*
X58187283Y3748197D01*
X58186869Y4011356D01*
X58186046Y4534427D01*
X58196227Y4555458D01*
X58209896Y4575340D01*
X58225801Y4589319D01*
X58245193Y4602148D01*
X58420000Y4602148D01*
X58465644Y4602129D01*
G37*
%TO.C,J1*%
G36*
X48810000Y41900000D02*
G01*
X48110000Y41900000D01*
X48110000Y41700000D01*
X48810000Y41700000D01*
X48810000Y41900000D01*
G37*
G36*
X48810000Y41500000D02*
G01*
X48110000Y41500000D01*
X48110000Y41300000D01*
X48810000Y41300000D01*
X48810000Y41500000D01*
G37*
G36*
X48810000Y41100000D02*
G01*
X48110000Y41100000D01*
X48110000Y40900000D01*
X48810000Y40900000D01*
X48810000Y41100000D01*
G37*
G36*
X48810000Y40700000D02*
G01*
X48110000Y40700000D01*
X48110000Y40500000D01*
X48810000Y40500000D01*
X48810000Y40700000D01*
G37*
G36*
X48810000Y40300000D02*
G01*
X48110000Y40300000D01*
X48110000Y40100000D01*
X48810000Y40100000D01*
X48810000Y40300000D01*
G37*
G36*
X48810000Y39900000D02*
G01*
X48110000Y39900000D01*
X48110000Y39700000D01*
X48810000Y39700000D01*
X48810000Y39900000D01*
G37*
G36*
X48810000Y39500000D02*
G01*
X48110000Y39500000D01*
X48110000Y39300000D01*
X48810000Y39300000D01*
X48810000Y39500000D01*
G37*
G36*
X48810000Y39100000D02*
G01*
X48110000Y39100000D01*
X48110000Y38900000D01*
X48810000Y38900000D01*
X48810000Y39100000D01*
G37*
G36*
X48810000Y38700000D02*
G01*
X48110000Y38700000D01*
X48110000Y38500000D01*
X48810000Y38500000D01*
X48810000Y38700000D01*
G37*
G36*
X48810000Y38300000D02*
G01*
X48110000Y38300000D01*
X48110000Y38100000D01*
X48810000Y38100000D01*
X48810000Y38300000D01*
G37*
G36*
X48810000Y37900000D02*
G01*
X48110000Y37900000D01*
X48110000Y37700000D01*
X48810000Y37700000D01*
X48810000Y37900000D01*
G37*
G36*
X48810000Y37500000D02*
G01*
X48110000Y37500000D01*
X48110000Y37300000D01*
X48810000Y37300000D01*
X48810000Y37500000D01*
G37*
G36*
X48810000Y37100000D02*
G01*
X48110000Y37100000D01*
X48110000Y36900000D01*
X48810000Y36900000D01*
X48810000Y37100000D01*
G37*
G36*
X48810000Y36700000D02*
G01*
X48110000Y36700000D01*
X48110000Y36500000D01*
X48810000Y36500000D01*
X48810000Y36700000D01*
G37*
G36*
X48810000Y36300000D02*
G01*
X48110000Y36300000D01*
X48110000Y36100000D01*
X48810000Y36100000D01*
X48810000Y36300000D01*
G37*
G36*
X48810000Y35900000D02*
G01*
X48110000Y35900000D01*
X48110000Y35700000D01*
X48810000Y35700000D01*
X48810000Y35900000D01*
G37*
G36*
X48810000Y35500000D02*
G01*
X48110000Y35500000D01*
X48110000Y35300000D01*
X48810000Y35300000D01*
X48810000Y35500000D01*
G37*
G36*
X48810000Y35100000D02*
G01*
X48110000Y35100000D01*
X48110000Y34900000D01*
X48810000Y34900000D01*
X48810000Y35100000D01*
G37*
G36*
X48810000Y34700000D02*
G01*
X48110000Y34700000D01*
X48110000Y34500000D01*
X48810000Y34500000D01*
X48810000Y34700000D01*
G37*
G36*
X48810000Y34300000D02*
G01*
X48110000Y34300000D01*
X48110000Y34100000D01*
X48810000Y34100000D01*
X48810000Y34300000D01*
G37*
G36*
X48810000Y33900000D02*
G01*
X48110000Y33900000D01*
X48110000Y33700000D01*
X48810000Y33700000D01*
X48810000Y33900000D01*
G37*
G36*
X48810000Y33500000D02*
G01*
X48110000Y33500000D01*
X48110000Y33300000D01*
X48810000Y33300000D01*
X48810000Y33500000D01*
G37*
G36*
X48810000Y33100000D02*
G01*
X48110000Y33100000D01*
X48110000Y32900000D01*
X48810000Y32900000D01*
X48810000Y33100000D01*
G37*
G36*
X48810000Y32700000D02*
G01*
X48110000Y32700000D01*
X48110000Y32500000D01*
X48810000Y32500000D01*
X48810000Y32700000D01*
G37*
G36*
X48810000Y32300000D02*
G01*
X48110000Y32300000D01*
X48110000Y32100000D01*
X48810000Y32100000D01*
X48810000Y32300000D01*
G37*
G36*
X48810000Y31900000D02*
G01*
X48110000Y31900000D01*
X48110000Y31700000D01*
X48810000Y31700000D01*
X48810000Y31900000D01*
G37*
G36*
X48810000Y31500000D02*
G01*
X48110000Y31500000D01*
X48110000Y31300000D01*
X48810000Y31300000D01*
X48810000Y31500000D01*
G37*
G36*
X48810000Y31100000D02*
G01*
X48110000Y31100000D01*
X48110000Y30900000D01*
X48810000Y30900000D01*
X48810000Y31100000D01*
G37*
G36*
X48810000Y30700000D02*
G01*
X48110000Y30700000D01*
X48110000Y30500000D01*
X48810000Y30500000D01*
X48810000Y30700000D01*
G37*
G36*
X48810000Y30300000D02*
G01*
X48110000Y30300000D01*
X48110000Y30100000D01*
X48810000Y30100000D01*
X48810000Y30300000D01*
G37*
G36*
X48810000Y29900000D02*
G01*
X48110000Y29900000D01*
X48110000Y29700000D01*
X48810000Y29700000D01*
X48810000Y29900000D01*
G37*
G36*
X48810000Y29500000D02*
G01*
X48110000Y29500000D01*
X48110000Y29300000D01*
X48810000Y29300000D01*
X48810000Y29500000D01*
G37*
G36*
X48810000Y29100000D02*
G01*
X48110000Y29100000D01*
X48110000Y28900000D01*
X48810000Y28900000D01*
X48810000Y29100000D01*
G37*
G36*
X48810000Y28700000D02*
G01*
X48110000Y28700000D01*
X48110000Y28500000D01*
X48810000Y28500000D01*
X48810000Y28700000D01*
G37*
G36*
X51190000Y41700000D02*
G01*
X51890000Y41700000D01*
X51890000Y41900000D01*
X51190000Y41900000D01*
X51190000Y41700000D01*
G37*
G36*
X51190000Y41300000D02*
G01*
X51890000Y41300000D01*
X51890000Y41500000D01*
X51190000Y41500000D01*
X51190000Y41300000D01*
G37*
G36*
X51190000Y40900000D02*
G01*
X51890000Y40900000D01*
X51890000Y41100000D01*
X51190000Y41100000D01*
X51190000Y40900000D01*
G37*
G36*
X51190000Y40500000D02*
G01*
X51890000Y40500000D01*
X51890000Y40700000D01*
X51190000Y40700000D01*
X51190000Y40500000D01*
G37*
G36*
X51190000Y40100000D02*
G01*
X51890000Y40100000D01*
X51890000Y40300000D01*
X51190000Y40300000D01*
X51190000Y40100000D01*
G37*
G36*
X51190000Y39700000D02*
G01*
X51890000Y39700000D01*
X51890000Y39900000D01*
X51190000Y39900000D01*
X51190000Y39700000D01*
G37*
G36*
X51190000Y39300000D02*
G01*
X51890000Y39300000D01*
X51890000Y39500000D01*
X51190000Y39500000D01*
X51190000Y39300000D01*
G37*
G36*
X51190000Y38900000D02*
G01*
X51890000Y38900000D01*
X51890000Y39100000D01*
X51190000Y39100000D01*
X51190000Y38900000D01*
G37*
G36*
X51190000Y38500000D02*
G01*
X51890000Y38500000D01*
X51890000Y38700000D01*
X51190000Y38700000D01*
X51190000Y38500000D01*
G37*
G36*
X51190000Y38100000D02*
G01*
X51890000Y38100000D01*
X51890000Y38300000D01*
X51190000Y38300000D01*
X51190000Y38100000D01*
G37*
G36*
X51190000Y37700000D02*
G01*
X51890000Y37700000D01*
X51890000Y37900000D01*
X51190000Y37900000D01*
X51190000Y37700000D01*
G37*
G36*
X51190000Y37300000D02*
G01*
X51890000Y37300000D01*
X51890000Y37500000D01*
X51190000Y37500000D01*
X51190000Y37300000D01*
G37*
G36*
X51190000Y36900000D02*
G01*
X51890000Y36900000D01*
X51890000Y37100000D01*
X51190000Y37100000D01*
X51190000Y36900000D01*
G37*
G36*
X51190000Y36500000D02*
G01*
X51890000Y36500000D01*
X51890000Y36700000D01*
X51190000Y36700000D01*
X51190000Y36500000D01*
G37*
G36*
X51190000Y36100000D02*
G01*
X51890000Y36100000D01*
X51890000Y36300000D01*
X51190000Y36300000D01*
X51190000Y36100000D01*
G37*
G36*
X51190000Y35700000D02*
G01*
X51890000Y35700000D01*
X51890000Y35900000D01*
X51190000Y35900000D01*
X51190000Y35700000D01*
G37*
G36*
X51190000Y35300000D02*
G01*
X51890000Y35300000D01*
X51890000Y35500000D01*
X51190000Y35500000D01*
X51190000Y35300000D01*
G37*
G36*
X51190000Y34900000D02*
G01*
X51890000Y34900000D01*
X51890000Y35100000D01*
X51190000Y35100000D01*
X51190000Y34900000D01*
G37*
G36*
X51190000Y34500000D02*
G01*
X51890000Y34500000D01*
X51890000Y34700000D01*
X51190000Y34700000D01*
X51190000Y34500000D01*
G37*
G36*
X51190000Y34100000D02*
G01*
X51890000Y34100000D01*
X51890000Y34300000D01*
X51190000Y34300000D01*
X51190000Y34100000D01*
G37*
G36*
X51190000Y33700000D02*
G01*
X51890000Y33700000D01*
X51890000Y33900000D01*
X51190000Y33900000D01*
X51190000Y33700000D01*
G37*
G36*
X51190000Y33300000D02*
G01*
X51890000Y33300000D01*
X51890000Y33500000D01*
X51190000Y33500000D01*
X51190000Y33300000D01*
G37*
G36*
X51190000Y32900000D02*
G01*
X51890000Y32900000D01*
X51890000Y33100000D01*
X51190000Y33100000D01*
X51190000Y32900000D01*
G37*
G36*
X51190000Y32500000D02*
G01*
X51890000Y32500000D01*
X51890000Y32700000D01*
X51190000Y32700000D01*
X51190000Y32500000D01*
G37*
G36*
X51190000Y32100000D02*
G01*
X51890000Y32100000D01*
X51890000Y32300000D01*
X51190000Y32300000D01*
X51190000Y32100000D01*
G37*
G36*
X51190000Y31700000D02*
G01*
X51890000Y31700000D01*
X51890000Y31900000D01*
X51190000Y31900000D01*
X51190000Y31700000D01*
G37*
G36*
X51190000Y31300000D02*
G01*
X51890000Y31300000D01*
X51890000Y31500000D01*
X51190000Y31500000D01*
X51190000Y31300000D01*
G37*
G36*
X51190000Y30900000D02*
G01*
X51890000Y30900000D01*
X51890000Y31100000D01*
X51190000Y31100000D01*
X51190000Y30900000D01*
G37*
G36*
X51190000Y30500000D02*
G01*
X51890000Y30500000D01*
X51890000Y30700000D01*
X51190000Y30700000D01*
X51190000Y30500000D01*
G37*
G36*
X51190000Y30100000D02*
G01*
X51890000Y30100000D01*
X51890000Y30300000D01*
X51190000Y30300000D01*
X51190000Y30100000D01*
G37*
G36*
X51190000Y29700000D02*
G01*
X51890000Y29700000D01*
X51890000Y29900000D01*
X51190000Y29900000D01*
X51190000Y29700000D01*
G37*
G36*
X51190000Y29300000D02*
G01*
X51890000Y29300000D01*
X51890000Y29500000D01*
X51190000Y29500000D01*
X51190000Y29300000D01*
G37*
G36*
X51190000Y28900000D02*
G01*
X51890000Y28900000D01*
X51890000Y29100000D01*
X51190000Y29100000D01*
X51190000Y28900000D01*
G37*
G36*
X51190000Y28500000D02*
G01*
X51890000Y28500000D01*
X51890000Y28700000D01*
X51190000Y28700000D01*
X51190000Y28500000D01*
G37*
G36*
X51190000Y28100000D02*
G01*
X51890000Y28100000D01*
X51890000Y28300000D01*
X51190000Y28300000D01*
X51190000Y28100000D01*
G37*
%TD*%
D15*
%TO.C,U1*%
X13295000Y8825000D03*
X14565000Y8825000D03*
X15835000Y8825000D03*
X17105000Y8825000D03*
X17105000Y13775000D03*
X15835000Y13775000D03*
X14565000Y13775000D03*
X13295000Y13775000D03*
%TD*%
D16*
%TO.C,C1*%
X11700000Y11780000D03*
X11700000Y10820000D03*
%TD*%
D17*
%TO.C,TP1*%
X80000000Y2000000D03*
%TD*%
%TO.C,TP2*%
X90000000Y2000000D03*
%TD*%
D18*
%TO.C,J4*%
X82475000Y27814579D03*
X87525000Y27814579D03*
X82475000Y25274579D03*
X87525000Y25274579D03*
X82475000Y22734579D03*
X87525000Y22734579D03*
X82475000Y20194579D03*
X87525000Y20194579D03*
X82475000Y17654579D03*
X87525000Y17654579D03*
%TD*%
D19*
%TO.C,R3*%
X14690000Y17000000D03*
X15710000Y17000000D03*
%TD*%
D20*
%TO.C,LD1*%
X80000000Y11800000D03*
D21*
X79300000Y11100000D03*
X80000000Y10400000D03*
%TD*%
D22*
%TO.C,J1*%
X48460000Y28200000D03*
X51540000Y28200000D03*
X48460000Y28600000D03*
X51540000Y28600000D03*
X48460000Y29000000D03*
X51540000Y29000000D03*
X48460000Y29400000D03*
X51540000Y29400000D03*
X48460000Y29800000D03*
X51540000Y29800000D03*
X48460000Y30200000D03*
X51540000Y30200000D03*
X48460000Y30600000D03*
X51540000Y30600000D03*
X48460000Y31000000D03*
X51540000Y31000000D03*
X48460000Y31400000D03*
X51540000Y31400000D03*
X48460000Y31800000D03*
X51540000Y31800000D03*
X48460000Y32200000D03*
X51540000Y32200000D03*
X48460000Y32600000D03*
X51540000Y32600000D03*
X48460000Y33000000D03*
X51540000Y33000000D03*
X48460000Y33400000D03*
X51540000Y33400000D03*
X48460000Y33800000D03*
X51540000Y33800000D03*
X48460000Y34200000D03*
X51540000Y34200000D03*
X48460000Y34600000D03*
X51540000Y34600000D03*
X48460000Y35000000D03*
X51540000Y35000000D03*
X48460000Y35400000D03*
X51540000Y35400000D03*
X48460000Y35800000D03*
X51540000Y35800000D03*
X48460000Y36200000D03*
X51540000Y36200000D03*
X48460000Y36600000D03*
X51540000Y36600000D03*
X48460000Y37000000D03*
X51540000Y37000000D03*
X48460000Y37400000D03*
X51540000Y37400000D03*
X48460000Y37800000D03*
X51540000Y37800000D03*
X48460000Y38200000D03*
X51540000Y38200000D03*
X48460000Y38600000D03*
X51540000Y38600000D03*
X48460000Y39000000D03*
X51540000Y39000000D03*
X48460000Y39400000D03*
X51540000Y39400000D03*
X48460000Y39800000D03*
X51540000Y39800000D03*
X48460000Y40200000D03*
X51540000Y40200000D03*
X48460000Y40600000D03*
X51540000Y40600000D03*
X48460000Y41000000D03*
X51540000Y41000000D03*
X48460000Y41400000D03*
X51540000Y41400000D03*
X48460000Y41800000D03*
X51540000Y41800000D03*
%TD*%
D19*
%TO.C,R1*%
X13390000Y15900000D03*
X14410000Y15900000D03*
%TD*%
%TO.C,R2*%
X16090000Y18200000D03*
X17110000Y18200000D03*
%TD*%
D23*
%TO.C,LD2*%
X90000000Y12100000D03*
D24*
X89000000Y11100000D03*
X90000000Y10100000D03*
%TD*%
D25*
%TO.C,J2*%
X12330000Y55065000D03*
X12330000Y18935000D03*
%TD*%
%TO.C,J3*%
X82330000Y55065000D03*
X82330000Y18935000D03*
%TD*%
%LPD*%
M02*
